<?xml version="1.0" encoding="utf-8"?>
<!-- Generator: Adobe Illustrator 24.0.1, SVG Export Plug-In . SVG Version: 6.00 Build 0)  -->
<svg version="1.1" id="Layer_1" xmlns="http://www.w3.org/2000/svg" xmlns:xlink="http://www.w3.org/1999/xlink" x="0px" y="0px"
	 viewBox="0 0 3 40" style="enable-background:new 0 0 3 40;" xml:space="preserve">
<style type="text/css">
	.st0{fill:#FFD255;}
	.st1{fill:#C66650;}
	.st2{fill:#CF554D;}
	.st3{fill:#725352;}
	.st4{fill:#F2EAD2;}
</style>
<title>compas-arrow</title>
<g id="Compass_Needle">
	<g>
		<polygon class="st0" points="1.4,33.6 1.5,34.1 3,20 1.5,20 		"/>
		<polygon class="st1" points="0,20 1.5,34.1 1.5,20 		"/>
		<polygon class="st2" points="3,20 1.5,5.9 1.4,6.4 1.5,20 		"/>
		<polygon class="st3" points="1.5,20 1.5,5.9 0,20 		"/>
		<path class="st4" d="M0.2,20.6C-0.1,19.8,0.3,19,1,18.7c0,0,0,0,0,0c0.7-0.3,1.6,0,1.9,0.7c0.3,0.7,0,1.6-0.7,1.9c0,0-0.1,0-0.1,0
			C1.4,21.6,0.5,21.3,0.2,20.6C0.2,20.6,0.2,20.6,0.2,20.6z"/>
		<path class="st1" d="M1.1,20.4c-0.2-0.2-0.2-0.6,0-0.8c0.2-0.2,0.6-0.2,0.8,0c0.2,0.2,0.2,0.6,0,0.8C1.7,20.6,1.3,20.6,1.1,20.4z"
			/>
	</g>
</g>
</svg>
