<svg xmlns="http://www.w3.org/2000/svg" xmlns:xlink="http://www.w3.org/1999/xlink" viewBox="0 0 56.03 56.03">
  <defs>
    <style>
      .cls-1, .cls-2 {
        fill: none;
      }

      .cls-2 {
        stroke: #a5a7aa;
        stroke-miterlimit: 10;
        stroke-width: 1.85px;
      }

      .cls-3 {
        clip-path: url(#clip-path);
      }

      .cls-4 {
        fill: #0037a6;
      }

      .cls-5 {
        fill: #fff;
      }

      .cls-6 {
        fill: #e60026;
      }

      .cls-7 {
        clip-path: url(#clip-path-2);
      }
    </style>
    <clipPath id="clip-path">
      <circle id="SVGID" class="cls-1" cx="42.17" cy="28.71" r="12.49" transform="translate(4.53 63.15) rotate(-76.72)"/>
    </clipPath>
    <clipPath id="clip-path-2">
      <circle id="SVGID-2" data-name="SVGID" class="cls-1" cx="13.6" cy="28.69" r="12.49" transform="translate(-16.3 18.02) rotate(-45)"/>
    </clipPath>
  </defs>
  <g id="Flags">
    <g>
      <g>
        <circle class="cls-2" cx="42.17" cy="28.71" r="12.49" transform="translate(4.53 63.15) rotate(-76.72)"/>
        <g class="cls-3">
          <g>
            <g>
              <rect class="cls-4" x="23.43" y="16.22" width="37.47" height="24.98"/>
              <g>
                <rect class="cls-5" x="33.24" y="23.57" width="2.98" height="5.14"/>
                <polygon class="cls-5" points="27.28 28.71 28.91 28.71 34.56 23.62 32.93 22.15 27.28 27.24 27.28 28.71"/>
                <polygon class="cls-6" points="28.37 28.71 33.22 24.34 32.13 24.34 27.28 28.71 28.37 28.71"/>
                <polygon class="cls-5" points="40.54 28.71 42.16 28.71 42.16 27.24 36.52 22.16 34.89 23.62 40.54 28.71"/>
                <polygon class="cls-6" points="42.16 28.71 42.16 27.73 38.4 24.34 37.31 24.34 42.16 28.71"/>
                <polygon class="cls-5" points="42.16 16.22 40.54 16.22 34.89 21.31 36.51 22.77 42.16 17.69 42.16 16.22"/>
                <polygon class="cls-6" points="41.08 16.22 36.23 20.59 37.31 20.59 42.16 16.22 41.08 16.22"/>
                <polygon class="cls-5" points="28.91 16.22 27.28 16.22 27.28 17.68 32.93 22.77 34.55 21.31 28.91 16.22"/>
                <rect class="cls-5" x="27.28" y="20.59" width="6.06" height="3.75"/>
                <rect class="cls-5" x="33.23" y="16.22" width="2.98" height="5.12"/>
                <polygon class="cls-6" points="27.28 16.22 27.28 17.2 31.05 20.59 32.13 20.59 27.28 16.22"/>
                <rect class="cls-5" x="36.1" y="20.59" width="6.06" height="3.75"/>
                <polygon class="cls-6" points="35.62 21.34 35.62 16.22 33.83 16.22 33.83 21.34 27.28 21.34 27.28 23.59 33.83 23.59 33.83 23.59 33.83 23.59 33.83 28.71 35.62 28.71 35.62 23.59 42.16 23.59 42.16 21.34 35.62 21.34"/>
              </g>
            </g>
            <polygon class="cls-5" points="49 21.4 49.91 24.2 47.53 22.47 50.48 22.47 48.09 24.2 49 21.4"/>
            <polygon class="cls-6" points="49 21.94 49.59 23.76 48.05 22.64 49.96 22.64 48.41 23.76 49 21.94"/>
            <polygon class="cls-5" points="49 32.71 50.01 35.82 47.37 33.9 50.63 33.9 47.99 35.82 49 32.71"/>
            <polygon class="cls-6" points="49 33.26 49.69 35.38 47.89 34.07 50.12 34.07 48.31 35.38 49 33.26"/>
            <polygon class="cls-5" points="52.79 24.86 53.61 27.36 51.48 25.82 54.11 25.82 51.98 27.36 52.79 24.86"/>
            <polygon class="cls-6" points="52.79 25.4 53.29 26.92 52 25.98 53.59 25.98 52.3 26.92 52.79 25.4"/>
            <polygon class="cls-5" points="44.58 25.85 45.49 28.65 43.11 26.92 46.05 26.92 43.67 28.65 44.58 25.85"/>
            <polygon class="cls-6" points="44.58 26.39 45.17 28.21 43.62 27.09 45.54 27.09 43.99 28.21 44.58 26.39"/>
          </g>
          <circle class="cls-1" cx="42.17" cy="28.71" r="12.49" transform="translate(4.53 63.15) rotate(-76.72)"/>
          <circle class="cls-1" cx="42.17" cy="28.71" r="12.49" transform="translate(4.53 63.15) rotate(-76.72)"/>
        </g>
      </g>
      <g>
        <circle class="cls-2" cx="13.6" cy="28.69" r="12.49" transform="translate(-16.3 18.02) rotate(-45)"/>
        <g class="cls-7">
          <g>
            <g>
              <rect class="cls-4" x="-5.13" y="16.2" width="37.47" height="24.98"/>
              <g>
                <rect class="cls-5" x="4.67" y="23.55" width="2.98" height="5.14"/>
                <polygon class="cls-5" points="-1.28 28.68 0.35 28.68 6 23.6 4.37 22.13 -1.28 27.22 -1.28 28.68"/>
                <polygon class="cls-6" points="-0.2 28.68 4.66 24.32 3.57 24.32 -1.28 28.68 -0.2 28.68"/>
                <polygon class="cls-5" points="11.97 28.69 13.6 28.69 13.6 27.22 7.95 22.13 6.33 23.6 11.97 28.69"/>
                <polygon class="cls-6" points="13.6 28.69 13.6 27.71 9.84 24.32 8.75 24.32 13.6 28.69"/>
                <polygon class="cls-5" points="13.6 16.2 11.97 16.2 6.32 21.29 7.95 22.75 13.6 17.66 13.6 16.2"/>
                <polygon class="cls-6" points="12.51 16.2 7.66 20.57 8.75 20.57 13.6 16.2 12.51 16.2"/>
                <polygon class="cls-5" points="0.35 16.2 -1.28 16.2 -1.28 17.66 4.37 22.75 5.99 21.28 0.35 16.2"/>
                <rect class="cls-5" x="-1.28" y="20.57" width="6.06" height="3.75"/>
                <rect class="cls-5" x="4.67" y="16.2" width="2.98" height="5.12"/>
                <polygon class="cls-6" points="-1.28 16.2 -1.28 17.17 2.48 20.56 3.57 20.56 -1.28 16.2"/>
                <rect class="cls-5" x="7.54" y="20.57" width="6.06" height="3.75"/>
                <polygon class="cls-6" points="7.05 21.32 7.05 16.2 5.27 16.2 5.27 21.32 -1.28 21.32 -1.28 23.57 5.27 23.57 5.27 23.57 5.27 23.57 5.27 28.69 7.05 28.69 7.05 23.57 13.6 23.57 13.6 21.32 7.05 21.32"/>
              </g>
            </g>
            <polygon id="Star7" class="cls-5" points="6.84 30.42 7.35 32 8.9 31.41 7.98 32.8 9.41 33.65 7.76 33.79 7.98 35.44 6.84 34.23 5.69 35.44 5.92 33.79 4.26 33.65 5.7 32.8 4.78 31.41 6.33 32 6.84 30.42"/>
            <polygon id="Star7-2" data-name="Star7" class="cls-5" points="20.29 33.27 20.53 34.02 21.27 33.74 20.83 34.4 21.51 34.81 20.72 34.88 20.83 35.66 20.29 35.09 19.74 35.66 19.85 34.88 19.06 34.81 19.74 34.4 19.3 33.74 20.04 34.02 20.29 33.27"/>
            <polygon id="Star7-3" data-name="Star7" class="cls-5" points="15.89 26.3 16.13 27.06 16.87 26.78 16.43 27.44 17.11 27.84 16.32 27.91 16.43 28.69 15.89 28.12 15.34 28.69 15.45 27.91 14.66 27.84 15.34 27.44 14.9 26.78 15.64 27.06 15.89 26.3"/>
            <polygon id="Star7-4" data-name="Star7" class="cls-5" points="20.29 21.54 20.53 22.29 21.27 22.01 20.83 22.67 21.51 23.07 20.72 23.14 20.83 23.93 20.29 23.35 19.74 23.93 19.85 23.14 19.06 23.07 19.74 22.67 19.3 22.01 20.04 22.29 20.29 21.54"/>
            <polygon id="Star7-5" data-name="Star7" class="cls-5" points="24.2 25.13 24.44 25.88 25.18 25.6 24.74 26.26 25.42 26.67 24.63 26.74 24.74 27.52 24.2 26.95 23.65 27.52 23.76 26.74 22.97 26.67 23.65 26.26 23.21 25.6 23.95 25.88 24.2 25.13"/>
            <polygon id="Star5" class="cls-5" points="22.05 28.66 22.24 29.13 22.74 29.17 22.36 29.49 22.48 29.99 22.05 29.72 21.61 29.99 21.74 29.49 21.35 29.17 21.85 29.13 22.05 28.66"/>
          </g>
        </g>
      </g>
      <rect class="cls-1" x="1.1" y="1.1" width="53.84" height="53.84"/>
    </g>
  </g>
</svg>
