<svg xmlns="http://www.w3.org/2000/svg" xmlns:xlink="http://www.w3.org/1999/xlink" viewBox="0 0 50 50">
  <defs>
    <style>
      .cls-1, .cls-2 {
        fill: none;
      }

      .cls-2 {
        stroke: #a5a7aa;
        stroke-miterlimit: 10;
        stroke-width: 1.85px;
      }

      .cls-3 {
        clip-path: url(#clip-path);
      }

      .cls-4 {
        fill: #0037a6;
      }

      .cls-5 {
        fill: #fff;
      }

      .cls-6 {
        fill: #e60026;
      }
    </style>
    <clipPath id="clip-path">
      <circle id="SVGID" class="cls-1" cx="25.04" cy="25" r="23.88" transform="translate(-10.34 25.03) rotate(-45)"/>
    </clipPath>
  </defs>
  <g id="Flags">
    <g>
      <circle class="cls-2" cx="25.04" cy="25" r="23.88" transform="translate(-10.34 25.03) rotate(-45)"/>
      <g class="cls-3">
        <g>
          <g>
            <rect class="cls-4" x="-10.79" y="1.11" width="71.65" height="47.77"/>
            <g>
              <rect class="cls-5" x="7.96" y="15.18" width="5.69" height="9.83"/>
              <polygon class="cls-5" points="-3.42 24.99 -0.31 24.99 10.49 15.27 7.38 12.46 -3.42 22.19 -3.42 24.99"/>
              <polygon class="cls-6" points="-1.34 24.99 7.93 16.64 5.86 16.64 -3.42 24.99 -1.34 24.99"/>
              <polygon class="cls-5" points="21.92 24.99 25.03 24.99 25.03 22.19 14.24 12.47 11.13 15.27 21.92 24.99"/>
              <polygon class="cls-6" points="25.03 24.99 25.03 23.13 17.84 16.64 15.76 16.64 25.03 24.99"/>
              <polygon class="cls-5" points="25.03 1.12 21.92 1.12 11.12 10.84 14.23 13.65 25.03 3.92 25.03 1.12"/>
              <polygon class="cls-6" points="22.96 1.12 13.68 9.47 15.76 9.47 25.03 1.12 22.96 1.12"/>
              <polygon class="cls-5" points="-0.31 1.11 -3.42 1.11 -3.42 3.92 7.38 13.64 10.48 10.84 -0.31 1.11"/>
              <rect class="cls-5" x="-3.42" y="9.47" width="11.59" height="7.17"/>
              <rect class="cls-5" x="7.96" y="1.12" width="5.69" height="9.78"/>
              <polygon class="cls-6" points="-3.42 1.11 -3.42 2.98 3.78 9.46 5.85 9.46 -3.42 1.11"/>
              <rect class="cls-5" x="13.44" y="9.48" width="11.59" height="7.17"/>
              <polygon class="cls-6" points="12.51 10.91 12.51 1.12 9.1 1.12 9.1 10.9 -3.42 10.9 -3.42 15.21 9.1 15.21 9.1 15.21 9.1 15.21 9.1 25 12.52 25 12.52 15.21 25.03 15.21 25.03 10.91 12.51 10.91"/>
            </g>
          </g>
          <polygon id="Star7" class="cls-5" points="12.1 28.31 13.08 31.34 16.05 30.21 14.29 32.86 17.02 34.48 13.86 34.76 14.29 37.91 12.1 35.6 9.91 37.91 10.35 34.76 7.18 34.48 9.92 32.86 8.16 30.21 11.13 31.34 12.1 28.31"/>
          <polygon id="Star7-2" data-name="Star7" class="cls-5" points="37.82 33.76 38.28 35.2 39.69 34.66 38.86 35.92 40.16 36.7 38.65 36.83 38.86 38.33 37.82 37.23 36.77 38.33 36.98 36.83 35.47 36.7 36.77 35.92 35.94 34.66 37.35 35.2 37.82 33.76"/>
          <polygon id="Star7-3" data-name="Star7" class="cls-5" points="29.4 20.44 29.87 21.88 31.28 21.34 30.45 22.61 31.75 23.38 30.24 23.51 30.45 25.01 29.4 23.91 28.36 25.01 28.57 23.51 27.06 23.38 28.36 22.61 27.52 21.34 28.94 21.88 29.4 20.44"/>
          <polygon id="Star7-4" data-name="Star7" class="cls-5" points="37.82 11.33 38.28 12.77 39.69 12.23 38.86 13.49 40.16 14.26 38.65 14.39 38.86 15.89 37.82 14.8 36.77 15.89 36.98 14.39 35.47 14.26 36.77 13.49 35.94 12.23 37.35 12.77 37.82 11.33"/>
          <polygon id="Star7-5" data-name="Star7" class="cls-5" points="45.29 18.2 45.76 19.64 47.17 19.1 46.34 20.36 47.64 21.13 46.13 21.27 46.34 22.77 45.29 21.67 44.25 22.77 44.46 21.27 42.95 21.13 44.25 20.36 43.41 19.1 44.83 19.64 45.29 18.2"/>
          <polygon id="Star5" class="cls-5" points="41.18 24.95 41.55 25.84 42.51 25.91 41.77 26.54 42 27.48 41.18 26.97 40.36 27.48 40.59 26.54 39.85 25.91 40.81 25.84 41.18 24.95"/>
        </g>
      </g>
    </g>
  </g>
</svg>
