<svg xmlns="http://www.w3.org/2000/svg" viewBox="0 0 111.02 99.57">
  <defs>
    <style>
      .cls-1 {
        fill: #bbe5f0;
      }

      .cls-2 {
        fill: #f4fafa;
        opacity: 0.4;
      }

      .cls-3 {
        fill: #968682;
      }

      .cls-4 {
        fill: #645451;
      }

      .cls-5 {
        fill: #f3edd8;
      }

      .cls-6 {
        fill: #ffcc4b;
      }

      .cls-7 {
        fill: #cc725a;
      }

      .cls-8 {
        fill: #d56057;
      }

      .cls-9 {
        fill: #7f5f5d;
      }

      .cls-10 {
        fill: #515251;
      }
    </style>
  </defs>
  <title>back-compas</title>
  <g id="Banner">
    <g>
      <circle class="cls-1" cx="56.82" cy="51.15" r="46.97"/>
      <g>
        <circle class="cls-2" cx="57.58" cy="51.05" r="32.4"/>
        <g>
          <path class="cls-3" d="M56.47,99.57a48.38,48.38,0,1,1,48.38-48.38A48.44,48.44,0,0,1,56.47,99.57ZM56.47,3a48.15,48.15,0,1,0,48.15,48.15A48.2,48.2,0,0,0,56.47,3Z"/>
          <g>
            <path class="cls-3" d="M45.69,36.44h0a.07.07,0,0,1-.06,0l-3.29-4.52a.09.09,0,0,1,0-.12.09.09,0,0,1,.13,0l3.23,4.45c.33-.24.69-.48,1.06-.71l-2.88-4.69a.08.08,0,0,1,0-.12.08.08,0,0,1,.12,0L47,35.51a.1.1,0,0,1,0,.12c-.42.25-.82.52-1.2.79Z"/>
            <path class="cls-3" d="M48.14,34.93h0a.08.08,0,0,1,0,0l-2.53-5a.08.08,0,0,1,0-.12s.09,0,.12,0l2.49,4.89c.34-.17.73-.36,1.15-.54l-2.1-5.07a.09.09,0,0,1,0-.12.09.09,0,0,1,.12.05l2.14,5.16a.08.08,0,0,1-.05.11c-.47.2-.92.42-1.3.61Z"/>
            <path class="cls-3" d="M46.89,35.64h0l-.06,0-2.92-4.77a.08.08,0,0,1,0-.12.08.08,0,0,1,.12,0l2.88,4.69c.39-.24.75-.44,1.1-.63l-2.49-4.89a.08.08,0,0,1,0-.12.09.09,0,0,1,.13,0l2.53,5a.08.08,0,0,1,0,.12c-.39.2-.8.43-1.24.71Z"/>
            <path class="cls-3" d="M44.56,37.33h0l-.06,0-3.62-4.25a.08.08,0,0,1,0-.12.08.08,0,0,1,.12,0l3.57,4.17c.29-.24.61-.49,1-.78l-3.24-4.45a.09.09,0,0,1,0-.12.09.09,0,0,1,.13,0l3.28,4.52a.08.08,0,0,1,0,.12c-.44.33-.8.61-1.13.89Z"/>
            <path class="cls-3" d="M52.19,33.44a.09.09,0,0,1-.09-.06l-1.31-5.45a.09.09,0,0,1,.07-.1.08.08,0,0,1,.11.06l1.28,5.36c.4-.1.81-.17,1.25-.25l-.86-5.44a.09.09,0,0,1,.07-.11.1.1,0,0,1,.1.08l.88,5.53a.08.08,0,0,1,0,.07.09.09,0,0,1-.06,0c-.5.08-1,.17-1.4.27Z"/>
            <path class="cls-3" d="M49.44,34.32a.09.09,0,0,1-.08-.06l-2.13-5.15a.09.09,0,0,1,0-.12.09.09,0,0,1,.12.05l2.1,5.07c.38-.15.78-.3,1.2-.43L49,28.45a.08.08,0,0,1,0-.11.09.09,0,0,1,.12.06l1.72,5.31a.08.08,0,0,1,0,.07.1.1,0,0,1-.05,0c-.48.15-.93.32-1.35.49Z"/>
            <path class="cls-3" d="M38.11,51.27H32.53a.09.09,0,0,1,0-.18H38c0-.41,0-.82.07-1.27l-5.49-.43a.08.08,0,0,1-.08-.09.1.1,0,0,1,.1-.09l5.57.44a.09.09,0,0,1,.08.1c0,.51-.07,1-.07,1.43A.09.09,0,0,1,38.11,51.27Z"/>
            <path class="cls-3" d="M43.49,38.3a.07.07,0,0,1-.06,0l-3.94-3.94a.09.09,0,0,1,0-.13.09.09,0,0,1,.12,0l3.88,3.88c.31-.31.63-.59.94-.85l-3.56-4.18a.08.08,0,0,1,0-.12.08.08,0,0,1,.12,0l3.62,4.24a.09.09,0,0,1,0,.13c-.34.29-.71.61-1.06,1A.07.07,0,0,1,43.49,38.3Z"/>
            <path class="cls-3" d="M50.8,33.82h0a.12.12,0,0,1,0-.05L49,28.45a.08.08,0,0,1,0-.11.09.09,0,0,1,.12.06l1.7,5.22c.42-.13.85-.24,1.22-.33l-1.29-5.36a.09.09,0,0,1,.07-.1.08.08,0,0,1,.11.06l1.3,5.44a.08.08,0,0,1-.06.11c-.42.1-.91.22-1.38.38Z"/>
            <path class="cls-3" d="M53.6,33.17a.09.09,0,0,1-.09-.08l-.87-5.53a.09.09,0,0,1,.07-.11.1.1,0,0,1,.1.08L53.68,33c.45-.07.86-.12,1.25-.16l-.43-5.48a.09.09,0,0,1,.08-.1.08.08,0,0,1,.1.08l.44,5.58a.14.14,0,0,1,0,.06L55,33c-.44,0-.91.09-1.43.18Z"/>
            <path class="cls-3" d="M38.36,48.4h0l-5.53-.87a.09.09,0,0,1-.07-.11.08.08,0,0,1,.1-.07l5.44.86c.08-.44.16-.85.25-1.24l-5.36-1.29a.09.09,0,0,1,0-.17l5.44,1.3a.1.1,0,0,1,.06.11c-.1.45-.19.91-.27,1.41l0,.06Z"/>
            <path class="cls-3" d="M38.64,47h0l-5.45-1.31a.09.09,0,0,1,0-.17l5.35,1.28c.08-.35.2-.78.33-1.22l-5.22-1.7a.08.08,0,0,1-.06-.11.09.09,0,0,1,.11-.06L39,45.43a.07.07,0,0,1,.06,0,.09.09,0,0,1,0,.07c-.16.5-.29,1-.38,1.38a.07.07,0,0,1,0,.06Z"/>
            <path class="cls-3" d="M39,45.6h0l-5.31-1.73a.08.08,0,0,1-.06-.11.09.09,0,0,1,.11-.06L39,45.4c.14-.43.28-.82.43-1.19l-5.07-2.1a.1.1,0,0,1,0-.12.09.09,0,0,1,.12-.05l5.16,2.14s0,0,0,.05a.06.06,0,0,1,0,.06c-.17.42-.33.86-.49,1.35A.08.08,0,0,1,39,45.6Z"/>
            <path class="cls-3" d="M38.18,49.83h0l-5.58-.44a.08.08,0,0,1-.08-.09.1.1,0,0,1,.1-.09l5.48.44c0-.39.09-.8.16-1.26l-5.45-.86a.09.09,0,0,1-.07-.11.08.08,0,0,1,.1-.07l5.53.88a.09.09,0,0,1,.08.1c-.09.53-.14,1-.18,1.42a.07.07,0,0,1,0,.06Z"/>
            <path class="cls-3" d="M39.51,44.25h0l-5.16-2.13a.1.1,0,0,1,0-.12.09.09,0,0,1,.12-.05L39.46,44c.18-.41.37-.8.55-1.14l-4.9-2.5a.09.09,0,0,1,0-.12.09.09,0,0,1,.12,0l5,2.54a.1.1,0,0,1,0,0,.09.09,0,0,1,0,.07c-.2.38-.42.83-.62,1.29A.08.08,0,0,1,39.51,44.25Z"/>
            <path class="cls-3" d="M40.83,41.69h0L36,38.76a.09.09,0,0,1,.09-.16l4.7,2.88c.22-.37.46-.72.7-1l-4.45-3.24a.08.08,0,0,1,0-.12.09.09,0,0,1,.13,0l4.52,3.28a.09.09,0,0,1,0,.06.08.08,0,0,1,0,.07c-.28.37-.54.77-.8,1.19A.09.09,0,0,1,40.83,41.69Z"/>
            <path class="cls-3" d="M42.52,39.36l-.06,0-4.24-3.62a.09.09,0,1,1,.12-.14l4.17,3.57c.27-.31.55-.63.85-.94l-3.87-3.88a.09.09,0,0,1,0-.13.09.09,0,0,1,.12,0l3.94,3.94a.09.09,0,0,1,0,.07.09.09,0,0,1,0,.06c-.34.35-.67.71-1,1.06l-.06,0Z"/>
            <path class="cls-3" d="M41.63,40.5l-.05,0-4.52-3.29a.08.08,0,0,1,0-.12.09.09,0,0,1,.13,0l4.45,3.23c.28-.39.53-.71.78-1l-4.18-3.56a.09.09,0,1,1,.12-.14l4.24,3.62a.09.09,0,0,1,0,.07.07.07,0,0,1,0,.06,14.1,14.1,0,0,0-.88,1.13A.12.12,0,0,1,41.63,40.5Z"/>
            <path class="cls-3" d="M40.13,43h0l-5-2.54a.09.09,0,0,1,0-.12.09.09,0,0,1,.12,0l4.9,2.5c.18-.35.38-.72.62-1.11L36,38.76a.09.09,0,0,1,.09-.16l4.77,2.93a.07.07,0,0,1,0,0,.08.08,0,0,1,0,.07c-.27.45-.5.85-.7,1.25A.1.1,0,0,1,40.13,43Z"/>
            <path class="cls-3" d="M55,33a.08.08,0,0,1-.09-.08l-.44-5.57a.09.09,0,0,1,.08-.1.08.08,0,0,1,.1.08l.43,5.49c.39,0,.83-.06,1.27-.07V27.25a.09.09,0,1,1,.18,0v5.58a.09.09,0,0,1-.09.09c-.5,0-1,0-1.43.07Z"/>
            <path class="cls-3" d="M72.1,41.69a.12.12,0,0,1-.08,0c-.25-.42-.52-.82-.79-1.2,0,0,0,0,0-.06a.07.07,0,0,1,0-.06L75.77,37a.09.09,0,0,1,.12,0,.09.09,0,0,1,0,.13l-4.45,3.23c.25.34.48.69.71,1.06l4.69-2.88a.08.08,0,0,1,.12,0,.08.08,0,0,1,0,.12l-4.76,2.93Z"/>
            <path class="cls-3" d="M72.81,42.94a.09.09,0,0,1-.08,0c-.21-.4-.44-.81-.71-1.24a.17.17,0,0,1,0-.07.09.09,0,0,1,0-.06l4.77-2.92a.08.08,0,0,1,.12,0,.08.08,0,0,1,0,.12l-4.69,2.88c.24.38.44.75.63,1.1l4.89-2.49a.09.09,0,0,1,.13,0,.1.1,0,0,1,0,.12l-5,2.53Z"/>
            <path class="cls-3" d="M73.42,44.25h0a.12.12,0,0,1,0-.05c-.19-.47-.42-.92-.61-1.3a.13.13,0,0,1,0-.06.1.1,0,0,1,0-.06l5-2.53a.09.09,0,0,1,.13,0,.1.1,0,0,1,0,.12l-4.9,2.49c.17.34.37.73.54,1.15l5.08-2.1a.09.09,0,1,1,.06.16l-5.15,2.14Z"/>
            <path class="cls-3" d="M71.3,40.49a.07.07,0,0,1-.07,0c-.33-.45-.61-.8-.89-1.12a.19.19,0,0,1,0-.07.07.07,0,0,1,0-.06l4.25-3.62a.08.08,0,0,1,.12,0,.08.08,0,0,1,0,.12l-4.17,3.57c.24.29.49.61.78,1L75.77,37a.09.09,0,0,1,.12,0,.09.09,0,0,1,0,.13l-4.52,3.28S71.32,40.49,71.3,40.49Z"/>
            <path class="cls-3" d="M74.75,49.83l-.06,0s0,0,0-.06c0-.44-.09-.89-.17-1.42a.09.09,0,0,1,.07-.11l5.54-.87a.08.08,0,0,1,.1.07.08.08,0,0,1-.07.1l-5.45.87c.07.46.12.87.15,1.26l5.49-.44a.11.11,0,0,1,.1.09.09.09,0,0,1-.09.09l-5.57.44Z"/>
            <path class="cls-3" d="M70.41,39.36a.11.11,0,0,1-.07,0c-.29-.35-.62-.72-1-1.07a.08.08,0,0,1,0-.12l3.94-3.94a.08.08,0,0,1,.12.12L69.57,38.2c.3.31.59.63.85.94l4.18-3.56a.08.08,0,0,1,.12,0,.08.08,0,0,1,0,.12l-4.24,3.63Z"/>
            <path class="cls-3" d="M73.92,45.6a.11.11,0,0,1-.09-.06c-.16-.5-.32-.94-.49-1.35a.09.09,0,0,1,0-.07.12.12,0,0,1,0,0l5.16-2.13a.09.09,0,1,1,.06.16l-5.07,2.1c.15.37.29.76.44,1.2l5.22-1.7a.1.1,0,0,1,.12,0,.11.11,0,0,1-.06.12L74,45.59Z"/>
            <path class="cls-3" d="M80.41,51.27H74.82a.09.09,0,0,1-.08-.09c0-.47,0-.92-.08-1.43a.11.11,0,0,1,.08-.1l5.58-.44a.11.11,0,0,1,.1.09.09.09,0,0,1-.09.09l-5.48.43c0,.45.06.86.06,1.27h5.5a.09.09,0,0,1,0,.18Z"/>
            <path class="cls-3" d="M74.3,47a.1.1,0,0,1-.09-.07c-.13-.56-.25-1-.38-1.38a.1.1,0,0,1,.06-.12L79.2,43.7a.1.1,0,0,1,.12,0,.11.11,0,0,1-.06.12L74,45.57c.11.35.22.73.34,1.22l5.35-1.29a.09.09,0,1,1,0,.18L74.32,47Z"/>
            <path class="cls-3" d="M66,35.64l-.05,0c-.44-.27-.84-.5-1.24-.7a.08.08,0,0,1,0-.12l2.53-5a.1.1,0,0,1,.12,0,.09.09,0,0,1,0,.12l-2.49,4.9c.35.19.72.39,1.1.62l2.88-4.69a.08.08,0,0,1,.12,0,.09.09,0,0,1,0,.12l-2.92,4.77s0,0-.06,0Z"/>
            <path class="cls-3" d="M60.74,33.44h0a14.11,14.11,0,0,0-1.41-.27l-.06,0a.08.08,0,0,1,0-.07l.87-5.53a.11.11,0,0,1,.11-.08.09.09,0,0,1,.07.11L59.43,33c.44.07.85.15,1.24.24L62,27.89a.09.09,0,0,1,.11-.07.1.1,0,0,1,.06.11l-1.3,5.44A.1.1,0,0,1,60.74,33.44Z"/>
            <path class="cls-3" d="M62.13,33.82h0c-.49-.16-1-.29-1.38-.38a.09.09,0,0,1-.06,0,.17.17,0,0,1,0-.07L62,27.89a.09.09,0,0,1,.11-.07.1.1,0,0,1,.06.11l-1.28,5.36c.35.08.79.19,1.22.33l1.7-5.23a.09.09,0,0,1,.11-.06.1.1,0,0,1,.06.12l-1.73,5.31A.08.08,0,0,1,62.13,33.82Z"/>
            <path class="cls-3" d="M59.33,33.17h0c-.52-.09-1-.14-1.42-.18a.07.07,0,0,1-.06,0,.07.07,0,0,1,0-.06l.44-5.58a.08.08,0,0,1,.09-.08.1.1,0,0,1,.09.1L58,32.82q.59,0,1.26.15l.86-5.44a.11.11,0,0,1,.11-.08.09.09,0,0,1,.07.11l-.88,5.53A.08.08,0,0,1,59.33,33.17Z"/>
            <path class="cls-3" d="M63.48,34.32h0c-.42-.17-.86-.34-1.35-.49a.12.12,0,0,1-.05,0,.15.15,0,0,1,0-.07l1.73-5.31a.09.09,0,0,1,.11-.06.1.1,0,0,1,.06.12l-1.7,5.22c.43.14.82.29,1.19.44L65.54,29a.08.08,0,0,1,.11-.05.08.08,0,0,1,0,.11l-2.13,5.16a.12.12,0,0,1,0,.05Z"/>
            <path class="cls-3" d="M67.24,36.44l0,0c-.37-.27-.78-.54-1.2-.8a.09.09,0,0,1,0-.12l2.93-4.77a.08.08,0,0,1,.12,0,.09.09,0,0,1,0,.12l-2.88,4.7c.37.23.73.46,1.06.7l3.23-4.45a.09.09,0,0,1,.13,0,.1.1,0,0,1,0,.13L67.31,36.4a.09.09,0,0,1-.06,0Z"/>
            <path class="cls-3" d="M69.44,38.29l-.06,0c-.36-.35-.74-.68-1.06-1a.09.09,0,0,1,0-.13l3.62-4.24a.08.08,0,0,1,.12,0,.09.09,0,0,1,0,.13L68.5,37.22c.29.25.62.54.94.86l3.88-3.88a.08.08,0,0,1,.12.12L69.5,38.26A.07.07,0,0,1,69.44,38.29Z"/>
            <path class="cls-3" d="M68.37,37.32l-.05,0c-.33-.28-.7-.57-1.13-.88a.08.08,0,0,1,0-.06.1.1,0,0,1,0-.07l3.28-4.52a.09.09,0,0,1,.13,0,.1.1,0,0,1,0,.13l-3.23,4.45c.38.27.71.53,1,.78l3.57-4.18a.08.08,0,0,1,.12,0,.09.09,0,0,1,0,.13l-3.62,4.24A.08.08,0,0,1,68.37,37.32Z"/>
            <path class="cls-3" d="M57.9,33h0c-.46,0-.94-.07-1.42-.07a.09.09,0,0,1-.09-.09V27.25a.09.09,0,1,1,.18,0v5.49c.42,0,.85,0,1.25.07l.44-5.49a.08.08,0,0,1,.09-.08.1.1,0,0,1,.09.1L58,32.91A.09.09,0,0,1,57.9,33Z"/>
            <path class="cls-3" d="M64.79,34.93h0c-.38-.19-.83-.41-1.3-.61a.09.09,0,0,1-.05-.12L65.54,29a.08.08,0,0,1,.11-.05.08.08,0,0,1,0,.11l-2.1,5.08c.42.17.81.37,1.15.54l2.49-4.9a.1.1,0,0,1,.12,0,.09.09,0,0,1,0,.12l-2.53,5a.1.1,0,0,1-.06,0Z"/>
            <path class="cls-3" d="M74.58,48.4a.07.07,0,0,1-.06,0,.09.09,0,0,1,0-.05c-.08-.5-.17-1-.28-1.41a.09.09,0,0,1,.07-.11l5.44-1.31a.09.09,0,1,1,0,.18L74.41,47c.09.4.17.81.24,1.25l5.45-.86a.08.08,0,0,1,.1.07.08.08,0,0,1-.07.1l-5.54.88Z"/>
            <path class="cls-3" d="M67.33,72.6a.1.1,0,0,1-.08,0l-2.53-5a.09.09,0,0,1,0-.12c.39-.2.8-.43,1.25-.7a0,0,0,0,1,.06,0,.07.07,0,0,1,.06,0l2.92,4.77a.09.09,0,0,1,0,.12.09.09,0,0,1-.12,0L66,67c-.39.23-.75.44-1.1.62l2.49,4.9a.08.08,0,0,1,0,.12Z"/>
            <path class="cls-3" d="M70.53,70.63a.11.11,0,0,1-.07,0l-3.28-4.52a.09.09,0,0,1,0-.13c.44-.32.8-.6,1.13-.88a.08.08,0,0,1,.12,0l3.63,4.24a.11.11,0,0,1,0,.13.1.1,0,0,1-.13,0l-3.57-4.18c-.29.25-.61.5-1,.78l3.24,4.45a.09.09,0,0,1,0,.13Z"/>
            <path class="cls-3" d="M74.66,66.81l-.06,0-4.24-3.62a.09.09,0,0,1,0-.06.14.14,0,0,1,0-.07c.28-.32.56-.68.89-1.13a.08.08,0,0,1,.12,0l4.52,3.29a.09.09,0,0,1-.1.14l-4.45-3.23c-.29.39-.54.71-.78,1l4.17,3.56a.09.09,0,0,1,0,.13A.09.09,0,0,1,74.66,66.81Z"/>
            <path class="cls-3" d="M73.39,68.2a.07.07,0,0,1-.06,0l-3.94-3.94a.09.09,0,0,1,0-.06.09.09,0,0,1,0-.07c.35-.35.68-.73,1-1.06l.06,0,.07,0,4.24,3.62a.09.09,0,0,1-.12.14l-4.17-3.56c-.25.29-.54.62-.85.94L73.45,68a.09.09,0,0,1,0,.13A.07.07,0,0,1,73.39,68.2Z"/>
            <path class="cls-3" d="M72,69.47a.09.09,0,0,1-.07,0l-3.62-4.25a.08.08,0,0,1,0-.12c.32-.28.7-.61,1.06-1a.09.09,0,0,1,.12,0L73.45,68a.09.09,0,0,1,0,.13.08.08,0,0,1-.12,0l-3.88-3.88c-.31.31-.64.6-.94.86l3.57,4.17a.11.11,0,0,1,0,.13Z"/>
            <path class="cls-3" d="M69,71.68a.08.08,0,0,1-.07,0L66,66.87a.08.08,0,0,1,0-.12c.41-.26.82-.53,1.19-.8l.06,0a.09.09,0,0,1,.06,0l3.29,4.52a.09.09,0,0,1-.15.11l-3.23-4.45c-.33.24-.69.47-1,.7l2.87,4.7a.09.09,0,0,1,0,.12Z"/>
            <path class="cls-3" d="M62.06,74.55a.09.09,0,0,1-.09-.07L60.66,69a.09.09,0,0,1,.07-.1c.42-.1.9-.23,1.38-.38a.08.08,0,0,1,.07,0,.12.12,0,0,1,0,0L64,73.93a.09.09,0,0,1-.06.11.1.1,0,0,1-.11-.06l-1.7-5.23c-.42.14-.85.25-1.22.34l1.28,5.35a.08.08,0,0,1-.06.11Z"/>
            <path class="cls-3" d="M65.63,73.39a.09.09,0,0,1-.08,0l-2.14-5.16a.09.09,0,0,1,.05-.12c.47-.19.92-.42,1.3-.61a.08.08,0,0,1,.07,0,.07.07,0,0,1,0,0l2.53,5a.08.08,0,0,1,0,.12.09.09,0,0,1-.12,0l-2.49-4.9a12.48,12.48,0,0,1-1.15.54l2.1,5.08a.1.1,0,0,1,0,.12Z"/>
            <path class="cls-3" d="M60.21,74.92a.08.08,0,0,1-.08-.07l-.88-5.54a.13.13,0,0,1,0-.06s0,0,.06,0c.51-.08,1-.17,1.41-.27a.08.08,0,0,1,.11.06l1.3,5.44a.08.08,0,0,1-.06.11.09.09,0,0,1-.11-.07l-1.28-5.35c-.4.09-.81.17-1.25.24l.86,5.45a.08.08,0,0,1-.07.1Z"/>
            <path class="cls-3" d="M63.87,74a.09.09,0,0,1-.09-.06l-1.72-5.31a.08.08,0,0,1,0-.11c.5-.17.94-.33,1.35-.5a.09.09,0,0,1,.07,0,.12.12,0,0,1,0,0l2.13,5.16a.1.1,0,0,1,0,.12.11.11,0,0,1-.12,0l-2.1-5.08c-.37.15-.76.3-1.2.44L64,73.93a.09.09,0,0,1-.06.11Z"/>
            <path class="cls-3" d="M79.24,58.67h0L73.9,56.94a.09.09,0,0,1-.06-.11c.16-.5.29-1,.38-1.39a.07.07,0,0,1,0,0,0,0,0,0,1,.06,0l5.45,1.3a.09.09,0,0,1,.06.11.09.09,0,0,1-.11.07l-5.35-1.29c-.08.35-.2.79-.33,1.23l5.22,1.69a.09.09,0,0,1,.06.12A.08.08,0,0,1,79.24,58.67Z"/>
            <path class="cls-3" d="M75.83,65.34l0,0L71.26,62a.09.09,0,0,1,0-.13c.27-.38.54-.78.79-1.19a.07.07,0,0,1,.06,0,.07.07,0,0,1,.06,0l4.77,2.92a.09.09,0,0,1,0,.13.09.09,0,0,1-.12,0l-4.69-2.88c-.23.36-.46.72-.71,1l4.45,3.24a.08.08,0,0,1,0,.12A.08.08,0,0,1,75.83,65.34Z"/>
            <path class="cls-3" d="M80.12,55h0l-5.53-.87a.09.09,0,0,1-.08-.1c.08-.52.14-1,.17-1.43a.09.09,0,0,1,.1-.08l5.58.44a.09.09,0,0,1,.08.1.1.1,0,0,1-.1.08l-5.48-.43c0,.39-.09.8-.16,1.26l5.45.86a.08.08,0,0,1,.07.1A.09.09,0,0,1,80.12,55Z"/>
            <path class="cls-3" d="M79.74,56.86h0l-5.44-1.31a.07.07,0,0,1,0,0,.08.08,0,0,1,0-.07c.1-.43.19-.89.27-1.4a.09.09,0,0,1,0-.06.07.07,0,0,1,.06,0l5.54.88a.08.08,0,0,1,.07.1.08.08,0,0,1-.1.07l-5.45-.86c-.07.45-.15.86-.24,1.25l5.36,1.28a.09.09,0,0,1,.06.11A.09.09,0,0,1,79.74,56.86Z"/>
            <path class="cls-3" d="M32.61,53.15a.09.09,0,0,1-.09-.08.08.08,0,0,1,.08-.1l5.49-.43c0-.41-.06-.84-.07-1.27H32.55a.08.08,0,0,1-.11-.08.1.1,0,0,1,.09-.1h5.58a.09.09,0,0,1,.09.09c0,.5,0,1,.07,1.43a.09.09,0,0,1-.08.1l-5.58.44Z"/>
            <path class="cls-3" d="M80.33,53.15h0l-5.57-.44a.11.11,0,0,1-.09-.1c0-.46.08-.94.08-1.42a.1.1,0,0,1,.08-.1h5.59a.09.09,0,0,1,.09.09.09.09,0,0,1-.12.09H74.91c0,.44,0,.86-.06,1.27l5.49.43a.09.09,0,0,1,.08.1A.1.1,0,0,1,80.33,53.15Z"/>
            <path class="cls-3" d="M77.79,62.14h0l-5-2.54a.08.08,0,0,1,0-.12c.19-.38.41-.83.61-1.3a.1.1,0,0,1,.11-.05l5.16,2.14a.09.09,0,0,1,0,.12.11.11,0,0,1-.12,0l-5.07-2.11c-.18.42-.37.81-.54,1.15L77.83,62a.09.09,0,0,1,0,.17Z"/>
            <path class="cls-3" d="M76.88,63.78h0l-4.77-2.93a.09.09,0,0,1,0-.12c.27-.45.5-.85.71-1.25a.09.09,0,0,1,.12,0l5,2.54a.08.08,0,0,1,0,.12.09.09,0,0,1-.12,0l-4.9-2.5c-.18.35-.38.72-.62,1.11l4.69,2.87a.09.09,0,0,1,0,.13A.08.08,0,0,1,76.88,63.78Z"/>
            <path class="cls-3" d="M78.59,60.43h0l-5.16-2.14a.09.09,0,0,1,0-.12c.17-.41.33-.87.49-1.34a.13.13,0,0,1,0-.06.09.09,0,0,1,.07,0l5.31,1.72a.09.09,0,0,1,.06.12.09.09,0,0,1-.11,0L74,57c-.14.42-.28.82-.43,1.19l5.07,2.1a.09.09,0,0,1,0,.12A.1.1,0,0,1,78.59,60.43Z"/>
            <path class="cls-3" d="M58.35,75.14a.09.09,0,0,1-.09-.08l-.44-5.58a.1.1,0,0,1,0-.07l.06,0c.43,0,.9-.09,1.42-.17a.1.1,0,0,1,.11.08l.87,5.53a.08.08,0,0,1-.07.1.08.08,0,0,1-.1-.07l-.87-5.45c-.46.07-.87.12-1.26.15L58.44,75a.11.11,0,0,1-.09.1Z"/>
            <path class="cls-3" d="M35.14,62.13a.09.09,0,0,1-.08,0,.09.09,0,0,1,0-.12l4.9-2.5c-.17-.34-.37-.73-.54-1.15l-5.08,2.1a.08.08,0,0,1-.11,0,.09.09,0,0,1,0-.12l5.15-2.14h.07l.05.05c.2.48.42.92.61,1.3a.15.15,0,0,1,0,.07.12.12,0,0,1-.05.05l-5,2.53Z"/>
            <path class="cls-3" d="M38.27,66.81a.11.11,0,0,1-.07,0,.1.1,0,0,1,0-.13l4.18-3.56c-.25-.3-.5-.62-.78-1l-4.45,3.23a.09.09,0,1,1-.11-.15l4.52-3.28a.09.09,0,0,1,.13,0c.32.44.6.8.88,1.13a.08.08,0,0,1,0,.12l-4.24,3.63Z"/>
            <path class="cls-3" d="M34.35,60.43a.09.09,0,0,1,0-.17l5.07-2.1c-.15-.37-.29-.77-.44-1.2l-5.22,1.7a.1.1,0,0,1-.12,0,.11.11,0,0,1,.06-.12L39,56.77a.08.08,0,0,1,.07,0,.12.12,0,0,1,.05,0c.16.49.32.94.49,1.35a.09.09,0,0,1,0,.07.12.12,0,0,1-.05,0l-5.16,2.13Z"/>
            <path class="cls-3" d="M36.06,63.78a.1.1,0,0,1-.08-.05.1.1,0,0,1,0-.12l4.69-2.88c-.23-.38-.43-.74-.62-1.1l-4.9,2.49a.08.08,0,0,1-.12,0,.09.09,0,0,1,0-.12l5-2.54a.09.09,0,0,1,.12,0c.21.4.44.81.7,1.25a.07.07,0,0,1,0,.06.1.1,0,0,1-.05.06L36.1,63.76Z"/>
            <path class="cls-3" d="M39.54,68.19l-.06,0a.09.09,0,0,1,0-.13l3.88-3.88c-.31-.31-.59-.63-.86-.94l-4.17,3.57a.09.09,0,0,1-.13,0,.1.1,0,0,1,0-.13L42.45,63a.09.09,0,0,1,.13,0c.3.34.62.71,1,1.06a.09.09,0,0,1,0,.13L39.6,68.17Z"/>
            <path class="cls-3" d="M33.7,58.67a.09.09,0,0,1,0-.18l5.23-1.7c-.14-.43-.25-.87-.33-1.22l-5.36,1.29a.1.1,0,0,1-.11-.07.09.09,0,0,1,.07-.11l5.44-1.3a.06.06,0,0,1,.07,0,.1.1,0,0,1,0,0c.09.39.22.89.38,1.38a.1.1,0,0,1-.06.12l-5.31,1.72Z"/>
            <path class="cls-3" d="M33.19,56.86a.1.1,0,0,1-.09-.07.09.09,0,0,1,.07-.11l5.35-1.28c-.09-.4-.17-.81-.24-1.25L32.84,55a.09.09,0,0,1-.11-.07.09.09,0,0,1,.08-.1L38.34,54a.08.08,0,0,1,.07,0,.1.1,0,0,1,0,.05,13.09,13.09,0,0,0,.27,1.41.09.09,0,0,1-.07.11l-5.44,1.31Z"/>
            <path class="cls-3" d="M56.47,75.22a.09.09,0,0,1-.09-.09V69.55a.09.09,0,0,1,.09-.09c.49,0,1,0,1.43-.08a.11.11,0,0,1,.1.09L58.44,75a.11.11,0,0,1-.09.1.09.09,0,0,1-.09-.08l-.43-5.49c-.4,0-.84.06-1.27.06v5.5A.09.09,0,0,1,56.47,75.22Z"/>
            <path class="cls-3" d="M32.82,55a.1.1,0,0,1-.09-.07.09.09,0,0,1,.08-.1L38.25,54c-.07-.45-.12-.86-.15-1.25l-5.49.43a.1.1,0,0,1-.09-.08.08.08,0,0,1,.08-.1l5.58-.44.06,0a.09.09,0,0,1,0,.06c0,.44.09.9.18,1.42a.11.11,0,0,1-.08.11L32.84,55Z"/>
            <path class="cls-3" d="M40.92,69.46s0,0-.05,0a.08.08,0,0,1,0-.12l3.56-4.18c-.31-.26-.63-.55-.94-.85L39.6,68.17a.09.09,0,0,1-.12,0,.09.09,0,0,1,0-.13l3.94-3.94a.08.08,0,0,1,.12,0c.35.35.72.67,1.07,1a.11.11,0,0,1,0,.13L41,69.43A.09.09,0,0,1,40.92,69.46Z"/>
            <path class="cls-3" d="M37.11,65.33a.11.11,0,0,1-.08,0,.09.09,0,0,1,0-.13l4.45-3.23c-.24-.33-.47-.69-.7-1l-4.7,2.87a.09.09,0,0,1-.12,0,.1.1,0,0,1,0-.12l4.77-2.92a.08.08,0,0,1,.12,0c.26.42.53.82.8,1.19a.14.14,0,0,1,0,.06.09.09,0,0,1,0,.06l-4.52,3.29Z"/>
            <path class="cls-3" d="M50.87,74.55h0a.09.09,0,0,1-.07-.11l1.29-5.35c-.49-.12-.87-.23-1.23-.34L49.15,74A.1.1,0,0,1,49,74a.1.1,0,0,1-.05-.12l1.72-5.31a.1.1,0,0,1,.12-.06,14.18,14.18,0,0,0,1.38.38s.08.06.06.11L51,74.48A.1.1,0,0,1,50.87,74.55Z"/>
            <path class="cls-3" d="M49.06,74h0a.1.1,0,0,1-.05-.12l1.69-5.22c-.42-.14-.82-.29-1.19-.44l-2.1,5.07a.09.09,0,0,1-.12,0,.08.08,0,0,1,0-.11l2.13-5.16a.12.12,0,0,1,0,0,.09.09,0,0,1,.07,0c.41.17.85.33,1.35.49a.12.12,0,0,1,0,0,.08.08,0,0,1,0,.07L49.15,74A.1.1,0,0,1,49.06,74Z"/>
            <path class="cls-3" d="M42.4,70.63l-.06,0a.08.08,0,0,1,0-.12L45.56,66c-.39-.28-.71-.54-1-.78L41,69.43a.08.08,0,0,1-.12,0,.08.08,0,0,1,0-.12l3.62-4.25a.07.07,0,0,1,.06,0l.07,0c.32.28.68.56,1.12.89a.08.08,0,0,1,0,.12l-3.28,4.52A.09.09,0,0,1,42.4,70.63Z"/>
            <path class="cls-3" d="M54.58,75.14h0a.1.1,0,0,1-.08-.1l.43-5.49c-.38,0-.79-.08-1.25-.15l-.87,5.45a.09.09,0,0,1-.17,0l.87-5.54a.1.1,0,0,1,.1-.07c.54.08,1,.14,1.43.17l.06,0a.19.19,0,0,1,0,.07l-.44,5.57A.09.09,0,0,1,54.58,75.14Z"/>
            <path class="cls-3" d="M45.6,72.6h-.05a.09.09,0,0,1,0-.12L48,67.57c-.35-.18-.71-.39-1.1-.63L44,71.64a.09.09,0,0,1-.12,0,.1.1,0,0,1,0-.13l2.92-4.77a.09.09,0,0,1,.06,0h.06c.45.28.86.51,1.25.71a.09.09,0,0,1,0,.12l-2.53,5A.1.1,0,0,1,45.6,72.6Z"/>
            <path class="cls-3" d="M56.47,75.22a.09.09,0,0,1-.09-.09v-5.5c-.42,0-.82,0-1.28-.06l-.43,5.48a.1.1,0,0,1-.1.09.1.1,0,0,1-.08-.1l.44-5.57a.1.1,0,0,1,.1-.09c.53,0,1,.08,1.44.08a.09.09,0,0,1,.09.09v5.58A.09.09,0,0,1,56.47,75.22Z"/>
            <path class="cls-3" d="M52.71,74.92h0a.08.08,0,0,1-.07-.1l.86-5.45c-.44-.07-.85-.15-1.25-.24L51,74.48a.09.09,0,1,1-.18,0L52.09,69a.09.09,0,0,1,.11-.07c.45.11.91.2,1.4.28a.07.07,0,0,1,.06,0s0,0,0,.06l-.88,5.54A.08.08,0,0,1,52.71,74.92Z"/>
            <path class="cls-3" d="M47.3,73.39h0a.08.08,0,0,1,0-.11l2.1-5.08c-.43-.18-.83-.38-1.15-.54l-2.49,4.9a.11.11,0,0,1-.13,0,.09.09,0,0,1,0-.12l2.53-5,.05,0h.07c.35.18.81.41,1.3.61a.1.1,0,0,1,.05.12l-2.14,5.15A.08.08,0,0,1,47.3,73.39Z"/>
            <path class="cls-3" d="M44,71.68h-.05a.1.1,0,0,1,0-.13l2.88-4.69c-.37-.23-.72-.47-1.06-.71l-3.23,4.45a.09.09,0,0,1-.13,0,.08.08,0,0,1,0-.12L45.61,66a.07.07,0,0,1,.06,0,.07.07,0,0,1,.06,0c.38.27.78.54,1.2.79a.09.09,0,0,1,0,.13L44,71.64A.08.08,0,0,1,44,71.68Z"/>
          </g>
          <path class="cls-3" d="M56.47,98.65a47.46,47.46,0,1,1,47.46-47.46A47.51,47.51,0,0,1,56.47,98.65Zm0-94A46.56,46.56,0,1,0,103,51.19,46.6,46.6,0,0,0,56.47,4.63Z"/>
          <path class="cls-3" d="M56.47,84.23a33,33,0,1,1,33-33A33.08,33.08,0,0,1,56.47,84.23Zm0-65.64a32.6,32.6,0,1,0,32.59,32.6A32.64,32.64,0,0,0,56.47,18.59Z"/>
          <path class="cls-3" d="M56.47,83.2a32,32,0,1,1,32-32A32,32,0,0,1,56.47,83.2Zm0-63.13A31.12,31.12,0,1,0,87.59,51.19,31.15,31.15,0,0,0,56.47,20.07Z"/>
          <path class="cls-3" d="M56.47,67.53A16.34,16.34,0,1,1,72.81,51.19,16.36,16.36,0,0,1,56.47,67.53Zm0-30A13.66,13.66,0,1,0,70.12,51.19,13.68,13.68,0,0,0,56.47,37.53Z"/>
          <path class="cls-3" d="M56.47,70a18.81,18.81,0,1,1,18.8-18.8A18.83,18.83,0,0,1,56.47,70Zm0-36.71A17.91,17.91,0,1,0,74.38,51.19,17.92,17.92,0,0,0,56.47,33.28Z"/>
          <path class="cls-3" d="M57.71,8.06H55.22a.45.45,0,0,1,0-.9h2.49a.45.45,0,1,1,0,.9Zm.45,86.71a.45.45,0,0,0-.45-.45H55.22a.45.45,0,0,0,0,.89h2.49A.45.45,0,0,0,58.16,94.77ZM13.34,52.43V49.94a.45.45,0,0,0-.9,0v2.49a.45.45,0,0,0,.9,0Zm87.15,0V49.94a.45.45,0,0,0-.89,0v2.49a.45.45,0,1,0,.89,0ZM25.09,21.57l1.76-1.76a.45.45,0,1,0-.63-.63l-1.76,1.76a.43.43,0,0,0,0,.63.42.42,0,0,0,.31.13A.44.44,0,0,0,25.09,21.57ZM86.72,83.2l1.76-1.76a.45.45,0,0,0,0-.63.43.43,0,0,0-.63,0l-1.76,1.76a.44.44,0,0,0,0,.63.42.42,0,0,0,.31.13A.44.44,0,0,0,86.72,83.2Zm-59.87,0a.44.44,0,0,0,0-.63l-1.76-1.76a.45.45,0,1,0-.63.63l1.76,1.76a.43.43,0,0,0,.31.13A.44.44,0,0,0,26.85,83.2ZM88.48,21.57a.45.45,0,0,0,0-.63l-1.76-1.76a.45.45,0,1,0-.63.63l1.76,1.76a.42.42,0,0,0,.31.13A.44.44,0,0,0,88.48,21.57Z"/>
          <g>
            <rect class="cls-3" x="23.99" y="17.44" width="0.9" height="3.43" transform="translate(-6.39 22.89) rotate(-45)"/>
            <rect class="cls-3" x="56.02" y="4.18" width="0.9" height="3.43"/>
            <rect class="cls-3" x="56.02" y="94.77" width="0.9" height="3.43"/>
            <rect class="cls-3" x="9.46" y="50.74" width="3.43" height="0.9"/>
            <rect class="cls-3" x="100.05" y="50.74" width="3.43" height="0.9"/>
            <rect class="cls-3" x="88.05" y="81.5" width="0.9" height="3.43" transform="translate(-32.92 86.95) rotate(-45)"/>
            <rect class="cls-3" x="22.72" y="82.77" width="3.43" height="0.9" transform="translate(-51.69 41.67) rotate(-45.01)"/>
            <rect class="cls-3" x="86.78" y="18.71" width="3.43" height="0.9" transform="translate(12.36 68.17) rotate(-44.99)"/>
            <path class="cls-3" d="M16.21,35a.47.47,0,0,1-.17,0l-3.18-1.32a.45.45,0,1,1,.35-.82l3.17,1.31a.45.45,0,0,1-.17.86Z"/>
            <path class="cls-3" d="M99.9,69.63a.33.33,0,0,1-.17,0l-3.17-1.31a.45.45,0,1,1,.34-.83l3.17,1.32a.43.43,0,0,1,.24.58A.44.44,0,0,1,99.9,69.63Z"/>
            <path class="cls-3" d="M38.48,95.07a.47.47,0,0,1-.17,0,.46.46,0,0,1-.25-.59l1.32-3.17A.43.43,0,0,1,40,91a.45.45,0,0,1,.25.58l-1.32,3.17A.44.44,0,0,1,38.48,95.07Z"/>
            <path class="cls-3" d="M73.14,11.38a.38.38,0,0,1-.17,0,.44.44,0,0,1-.24-.58L74,7.58a.47.47,0,0,1,.59-.24.45.45,0,0,1,.24.59L73.56,11.1A.46.46,0,0,1,73.14,11.38Z"/>
            <path class="cls-3" d="M13,69.63a.46.46,0,0,1-.42-.28.45.45,0,0,1,.24-.58L16,67.45a.45.45,0,0,1,.58.25.44.44,0,0,1-.24.58l-3.17,1.31A.38.38,0,0,1,13,69.63Z"/>
            <path class="cls-3" d="M96.73,35a.45.45,0,0,1-.17-.86l3.17-1.31a.44.44,0,1,1,.34.82L96.9,34.93A.51.51,0,0,1,96.73,35Z"/>
            <path class="cls-3" d="M74.46,95.07a.45.45,0,0,1-.42-.28l-1.31-3.17A.44.44,0,0,1,73,91a.45.45,0,0,1,.59.24l1.31,3.17a.45.45,0,0,1-.24.59Z"/>
            <path class="cls-3" d="M39.79,11.38a.45.45,0,0,1-.41-.28L38.06,7.93a.46.46,0,0,1,.25-.59.45.45,0,0,1,.58.25l1.31,3.17a.43.43,0,0,1-.24.58A.33.33,0,0,1,39.79,11.38Z"/>
          </g>
          <g>
            <path class="cls-3" d="M27.83,45.83h-.07l-2.25-.45a.33.33,0,0,1-.27-.39.35.35,0,0,1,.4-.27l2.25.45a.35.35,0,0,1,.27.4A.34.34,0,0,1,27.83,45.83Z"/>
            <path class="cls-3" d="M87.37,57.67H87.3L85,57.22a.34.34,0,0,1-.26-.4.33.33,0,0,1,.4-.26l2.25.45a.34.34,0,0,1,.27.39A.35.35,0,0,1,87.37,57.67Z"/>
            <path class="cls-3" d="M50.32,82.42h-.06A.35.35,0,0,1,50,82l.45-2.25a.34.34,0,0,1,.4-.27.33.33,0,0,1,.26.4l-.45,2.25A.33.33,0,0,1,50.32,82.42Z"/>
            <path class="cls-3" d="M62.16,22.88H62.1a.34.34,0,0,1-.26-.4l.44-2.25a.35.35,0,0,1,.4-.27.33.33,0,0,1,.26.4l-.45,2.25A.33.33,0,0,1,62.16,22.88Z"/>
            <path class="cls-3" d="M30.27,69a.32.32,0,0,1-.27-.15.33.33,0,0,1,.09-.47L32,67.13a.34.34,0,0,1,.47.1.33.33,0,0,1-.1.46L30.46,69A.33.33,0,0,1,30.27,69Z"/>
            <path class="cls-3" d="M80.75,35.3a.32.32,0,0,1-.28-.15.34.34,0,0,1,.09-.46l1.92-1.28a.33.33,0,0,1,.46.09.35.35,0,0,1-.09.47l-1.91,1.27A.35.35,0,0,1,80.75,35.3Z"/>
            <path class="cls-3" d="M74,77.72a.33.33,0,0,1-.28-.15l-1.28-1.91a.34.34,0,0,1,.1-.47.34.34,0,0,1,.46.09l1.28,1.92a.34.34,0,0,1-.09.46A.35.35,0,0,1,74,77.72Z"/>
            <path class="cls-3" d="M40.24,27.24A.37.37,0,0,1,40,27.1l-1.27-1.92a.33.33,0,0,1,.09-.46.33.33,0,0,1,.47.09l1.27,1.91a.34.34,0,0,1-.09.47A.32.32,0,0,1,40.24,27.24Z"/>
            <path class="cls-3" d="M25.57,57.67a.33.33,0,0,1-.06-.66l2.25-.45a.34.34,0,0,1,.4.26.35.35,0,0,1-.27.4l-2.25.44Z"/>
            <path class="cls-3" d="M85.11,45.83a.33.33,0,0,1-.33-.27.34.34,0,0,1,.26-.4l2.26-.45a.34.34,0,0,1,.39.27.32.32,0,0,1-.26.39l-2.25.45Z"/>
            <path class="cls-3" d="M62.61,82.42a.35.35,0,0,1-.33-.27l-.44-2.25a.33.33,0,0,1,.26-.4.35.35,0,0,1,.4.27L62.94,82a.34.34,0,0,1-.26.4Z"/>
            <path class="cls-3" d="M50.77,22.88a.33.33,0,0,1-.33-.27L50,20.36a.35.35,0,0,1,.27-.4.33.33,0,0,1,.39.27l.45,2.25a.33.33,0,0,1-.26.4Z"/>
            <path class="cls-3" d="M39,77.72a.34.34,0,0,1-.28-.52L40,75.28a.34.34,0,0,1,.46-.09.33.33,0,0,1,.09.47l-1.27,1.91A.35.35,0,0,1,39,77.72Z"/>
            <path class="cls-3" d="M72.69,27.25a.3.3,0,0,1-.18-.06.34.34,0,0,1-.1-.47l1.28-1.91a.33.33,0,0,1,.47-.09.34.34,0,0,1,.09.46L73,27.1A.35.35,0,0,1,72.69,27.25Z"/>
            <path class="cls-3" d="M82.66,69a.3.3,0,0,1-.18-.06l-1.92-1.28a.34.34,0,0,1-.09-.46.34.34,0,0,1,.47-.1l1.91,1.28a.35.35,0,0,1,.09.47A.32.32,0,0,1,82.66,69Z"/>
            <path class="cls-3" d="M32.19,35.3a.33.33,0,0,1-.19-.06L30.09,34A.33.33,0,0,1,30,33.5a.33.33,0,0,1,.46-.09l1.91,1.28a.33.33,0,0,1,.1.46A.33.33,0,0,1,32.19,35.3Z"/>
          </g>
          <g>
            <g>
              <path class="cls-3" d="M84.54,24.57,84.87,22l-1.4,1.41-.39-.39,2.27-2.26.19.19-.29,2.44,1.36-1.37.39.38-2.3,2.3Z"/>
              <path class="cls-3" d="M82.39,24.87l-.53.53.74.75-.34.34-.75-.75-.67.68,1,1-.36.36-1.42-1.43,2.26-2.26,1.45,1.44-.36.36Z"/>
            </g>
            <g>
              <path class="cls-3" d="M29.65,79.5l-.5.22a1.14,1.14,0,0,0-.31-.64c-.23-.23-.43-.27-.6-.11a.52.52,0,0,0-.13.31,1.47,1.47,0,0,0,.1.58,2.09,2.09,0,0,1,.14.56,1,1,0,0,1-.06.34,1.21,1.21,0,0,1-.21.31.77.77,0,0,1-.63.24,1,1,0,0,1-.66-.32,1.22,1.22,0,0,1-.43-.72l.46-.23a1,1,0,0,0,.3.6.38.38,0,0,0,.29.14.33.33,0,0,0,.27-.11c.12-.13.12-.41,0-.84a1.67,1.67,0,0,1-.12-.53.78.78,0,0,1,.06-.37.9.9,0,0,1,.23-.33.78.78,0,0,1,.67-.23,1.26,1.26,0,0,1,.76.4A1.47,1.47,0,0,1,29.65,79.5Z"/>
              <path class="cls-3" d="M31.63,74.84l.17.16-.94,1.93,1.91-1,.17.16-1.55,3L31,78.76,31.91,77l-1.83.91-.17-.18.9-1.82L29,76.82l-.42-.42Z"/>
            </g>
            <g>
              <path class="cls-3" d="M29.72,23.28l-2.53-.34,1.4,1.41-.39.38-2.26-2.26.19-.2,2.44.3L27.2,21.2l.39-.38,2.29,2.29Z"/>
              <path class="cls-3" d="M32.88,26.44l-.16.17-1.93-.93.95,1.9-.16.17-3-1.55.42-.42,1.79.94-.91-1.82.18-.18,1.82.9-.94-1.78.42-.42Z"/>
            </g>
            <g>
              <path class="cls-3" d="M84.78,78.29l.22.51a1.23,1.23,0,0,0-.64.3c-.23.24-.27.44-.1.6a.43.43,0,0,0,.3.14,1.35,1.35,0,0,0,.58-.11,2.35,2.35,0,0,1,.57-.13.65.65,0,0,1,.33.06.78.78,0,0,1,.31.21.77.77,0,0,1,.24.62,1,1,0,0,1-.32.67,1.27,1.27,0,0,1-.72.43l-.22-.47a1.07,1.07,0,0,0,.59-.29.43.43,0,0,0,.15-.29.37.37,0,0,0-.12-.27q-.2-.19-.84,0a2,2,0,0,1-.53.12.93.93,0,0,1-.37-.06,1,1,0,0,1-.33-.23.79.79,0,0,1-.23-.67,1.24,1.24,0,0,1,.4-.76A1.49,1.49,0,0,1,84.78,78.29Z"/>
              <path class="cls-3" d="M83,77.33l-.53-.53-.75.75-.34-.35.75-.74-.68-.68-1,1-.36-.35L81.48,75l2.26,2.26L82.3,78.73l-.36-.36Z"/>
            </g>
          </g>
        </g>
        <g>
          <polygon class="cls-4" points="58.39 49.5 38.96 33.58 56.63 51.26 58.39 49.5"/>
          <polygon class="cls-4" points="74.31 68.93 54.88 53.01 56.63 51.26 74.31 68.93"/>
          <polygon class="cls-4" points="74.31 33.58 58.39 53.01 56.63 51.26 74.31 33.58"/>
          <polygon class="cls-4" points="54.88 49.5 38.96 68.93 56.63 51.26 54.88 49.5"/>
          <polygon class="cls-5" points="38.96 33.58 54.88 53.01 56.63 51.26 38.96 33.58"/>
          <polygon class="cls-5" points="58.39 49.5 74.31 68.93 56.63 51.26 58.39 49.5"/>
          <polygon class="cls-5" points="54.88 49.5 74.31 33.58 56.63 51.26 54.88 49.5"/>
          <polygon class="cls-5" points="38.96 68.93 58.39 53.01 56.63 51.26 38.96 68.93"/>
        </g>
        <g>
          <polygon class="cls-5" points="56.47 18.5 53.22 51.19 56.47 51.19 56.47 18.5"/>
          <polygon class="cls-5" points="56.47 83.87 59.71 51.19 56.47 51.19 56.47 83.87"/>
          <polygon class="cls-5" points="23.79 51.19 56.47 54.44 56.47 51.19 23.79 51.19"/>
          <polygon class="cls-5" points="89.15 51.19 56.47 47.94 56.47 51.19 89.15 51.19"/>
          <polygon class="cls-4" points="53.22 51.19 56.47 83.87 56.47 51.19 53.22 51.19"/>
          <polygon class="cls-4" points="56.47 51.19 59.71 51.19 56.47 18.5 56.47 51.19"/>
          <polygon class="cls-4" points="56.47 54.44 89.15 51.19 56.47 51.19 56.47 54.44"/>
          <polygon class="cls-4" points="56.47 51.19 56.47 47.94 23.79 51.19 56.47 51.19"/>
        </g>
      </g>
      <rect class="cls-6" x="4.01" width="6.82" height="6.82"/>
      <rect class="cls-6" x="10.63" y="9.97" width="3.52" height="3.52"/>
      <rect class="cls-6" x="19.31" y="2.81" width="4.79" height="3.69"/>
      <rect class="cls-6" x="19" y="10.36" width="2.75" height="2.75"/>
      <rect class="cls-6" x="103.57" y="91.64" width="6.82" height="6.82" transform="translate(213.96 190.11) rotate(180)"/>
      <rect class="cls-6" x="100.26" y="84.98" width="3.52" height="3.52" transform="translate(204.03 173.47) rotate(180)"/>
      <rect class="cls-6" x="90.31" y="91.96" width="4.79" height="3.69" transform="translate(185.4 187.62) rotate(180)"/>
      <rect class="cls-6" x="92.66" y="85.36" width="2.75" height="2.75" transform="translate(188.07 173.47) rotate(180)"/>
      <g>
        <polygon class="cls-4" points="56.77 11.41 56.6 9.76 52.1 51.34 56.48 51.38 56.77 11.41"/>
        <polygon class="cls-7" points="60.87 51.41 56.77 11.41 56.48 51.38 60.87 51.41"/>
        <polygon class="cls-8" points="52.1 51.34 56 92.99 56.19 91.33 56.48 51.38 52.1 51.34"/>
        <polygon class="cls-9" points="56.48 51.38 56.19 91.33 60.87 51.41 56.48 51.38"/>
        <path class="cls-5" d="M60.3,49.76a4.18,4.18,0,1,1-5.44-2.3A4.17,4.17,0,0,1,60.3,49.76Z"/>
        <path class="cls-7" d="M57.6,50.17a1.65,1.65,0,1,1-2.33,0A1.65,1.65,0,0,1,57.6,50.17Z"/>
      </g>
      <g>
        <rect class="cls-9" x="6.2" y="41.61" width="102.78" height="19.53"/>
        <rect class="cls-9" x="98.29" y="56.68" width="12.73" height="9.17"/>
        <rect class="cls-9" x="0.95" y="56.35" width="10.47" height="10.47"/>
        <rect class="cls-9" x="10.98" y="72.62" width="5.71" height="5.71"/>
        <rect class="cls-6" x="5.24" y="40.17" width="102.78" height="19.53"/>
        <rect class="cls-6" x="97.34" y="54.79" width="12.73" height="9.17"/>
        <rect class="cls-6" y="54.46" width="10.47" height="10.47"/>
        <rect class="cls-6" x="10.04" y="70.73" width="5.71" height="5.71"/>
        <rect class="cls-9" x="101.33" y="31.97" width="5.71" height="5.71"/>
        <rect class="cls-6" x="100.38" y="30.08" width="5.71" height="5.71"/>
        <g>
          <path class="cls-10" d="M12.21,46.21a6.33,6.33,0,0,1,1.55.17,2.86,2.86,0,0,1,1,.48,1.72,1.72,0,0,1,.59.75,2.55,2.55,0,0,1,.18,1,1.79,1.79,0,0,1-.08.57,1.52,1.52,0,0,1-.27.52,2.13,2.13,0,0,1-.46.43,2.89,2.89,0,0,1-.68.35,2.4,2.4,0,0,1,1.28.68,1.76,1.76,0,0,1,.42,1.22,2.43,2.43,0,0,1-.22,1,2.28,2.28,0,0,1-.63.85,3.13,3.13,0,0,1-1,.56,4.66,4.66,0,0,1-1.41.2H9v-8.8ZM11,47.74v2.17h1.06a3.74,3.74,0,0,0,.61,0,1.38,1.38,0,0,0,.46-.17.69.69,0,0,0,.29-.34,1.17,1.17,0,0,0,.1-.53,1.56,1.56,0,0,0-.07-.52.76.76,0,0,0-.25-.33.92.92,0,0,0-.41-.19,3.42,3.42,0,0,0-.59,0Zm1.44,5.73a1.76,1.76,0,0,0,.66-.1,1.08,1.08,0,0,0,.4-.27.89.89,0,0,0,.2-.37,1.84,1.84,0,0,0,0-.41,1.51,1.51,0,0,0-.06-.44.6.6,0,0,0-.22-.32,1.06,1.06,0,0,0-.41-.21,2.27,2.27,0,0,0-.64-.07H11v2.19Z"/>
          <path class="cls-10" d="M16.61,49.62a3.87,3.87,0,0,1,1.26-.75,4.46,4.46,0,0,1,1.48-.24,2.73,2.73,0,0,1,1,.18,2.23,2.23,0,0,1,.77.52,2,2,0,0,1,.49.78,2.86,2.86,0,0,1,.17,1V55h-.86a.84.84,0,0,1-.4-.07.57.57,0,0,1-.23-.3l-.13-.35-.45.35a3.47,3.47,0,0,1-.45.26,2.07,2.07,0,0,1-.5.15,2.58,2.58,0,0,1-.58.06,2.77,2.77,0,0,1-.78-.11,1.77,1.77,0,0,1-.59-.33,1.43,1.43,0,0,1-.38-.55,1.88,1.88,0,0,1-.13-.74,1.49,1.49,0,0,1,.17-.69,1.63,1.63,0,0,1,.58-.63,3.76,3.76,0,0,1,1.13-.48A7.62,7.62,0,0,1,20,51.36V51.1a1.18,1.18,0,0,0-.23-.8.84.84,0,0,0-.64-.24,1.71,1.71,0,0,0-.55.07,2.57,2.57,0,0,0-.37.16l-.33.17a.84.84,0,0,1-.37.07.52.52,0,0,1-.33-.1A.66.66,0,0,1,17,50.2ZM20,52.46a6.44,6.44,0,0,0-.93.1,2.4,2.4,0,0,0-.57.18.61.61,0,0,0-.29.25.61.61,0,0,0,.09.75.84.84,0,0,0,.51.13,1.44,1.44,0,0,0,.64-.13,1.91,1.91,0,0,0,.55-.41Z"/>
          <path class="cls-10" d="M27.6,50.23a.91.91,0,0,1-.17.17.34.34,0,0,1-.22.06.43.43,0,0,1-.25-.07l-.25-.15a1.72,1.72,0,0,0-.33-.14,1.24,1.24,0,0,0-.46-.07,1.26,1.26,0,0,0-.6.13,1.08,1.08,0,0,0-.41.36,1.56,1.56,0,0,0-.24.57,3.64,3.64,0,0,0-.08.77,2.32,2.32,0,0,0,.35,1.39,1.11,1.11,0,0,0,.95.48,1.45,1.45,0,0,0,.52-.08,2.28,2.28,0,0,0,.32-.18l.25-.19a.47.47,0,0,1,.28-.08.39.39,0,0,1,.34.16l.54.67a3,3,0,0,1-.61.54,2.91,2.91,0,0,1-.66.33,3.11,3.11,0,0,1-.67.16,4.89,4.89,0,0,1-.66,0,2.91,2.91,0,0,1-1.09-.22,2.79,2.79,0,0,1-.92-.63,3.26,3.26,0,0,1-.63-1,3.91,3.91,0,0,1-.23-1.38,4,4,0,0,1,.2-1.26,3.06,3.06,0,0,1,.6-1,2.65,2.65,0,0,1,1-.68,3.35,3.35,0,0,1,1.35-.25,3.23,3.23,0,0,1,1.29.24,2.9,2.9,0,0,1,1,.69Z"/>
          <path class="cls-10" d="M30.74,46V51H31a.57.57,0,0,0,.26,0,.64.64,0,0,0,.19-.18l1.18-1.76a.68.68,0,0,1,.25-.23.73.73,0,0,1,.35-.07H35L33.35,51a1.94,1.94,0,0,1-.54.49,1.93,1.93,0,0,1,.47.55L35,55H33.35a.8.8,0,0,1-.36-.07.66.66,0,0,1-.26-.24l-1.18-2.22a.5.5,0,0,0-.17-.2.72.72,0,0,0-.28,0h-.36V55H28.87V46Z"/>
          <path class="cls-10" d="M40.64,55.11a2.42,2.42,0,0,1-.79-.13,1.7,1.7,0,0,1-.57-.37,1.61,1.61,0,0,1-.35-.58,2.23,2.23,0,0,1-.12-.75V50h-.53A.37.37,0,0,1,38,50a.37.37,0,0,1-.1-.28v-.73l1-.19.37-1.53a.38.38,0,0,1,.41-.29h1v1.83h1.55V50H40.68v3.11a.59.59,0,0,0,.1.36.4.4,0,0,0,.31.14l.17,0a.33.33,0,0,0,.12-.05l.1,0,.1,0a.26.26,0,0,1,.14,0,.81.81,0,0,1,.11.13l.56.88a2.58,2.58,0,0,1-.81.41A3.29,3.29,0,0,1,40.64,55.11Z"/>
          <path class="cls-10" d="M45.87,48.65a3.57,3.57,0,0,1,1.29.23,2.78,2.78,0,0,1,1.66,1.65,3.5,3.5,0,0,1,.23,1.33,3.61,3.61,0,0,1-.23,1.35,2.83,2.83,0,0,1-.65,1,2.88,2.88,0,0,1-1,.65,3.57,3.57,0,0,1-1.29.23,3.64,3.64,0,0,1-1.31-.23,3,3,0,0,1-1-.65,2.83,2.83,0,0,1-.65-1,3.61,3.61,0,0,1-.24-1.35,3.5,3.5,0,0,1,.24-1.33,2.71,2.71,0,0,1,.65-1,2.85,2.85,0,0,1,1-.64A3.64,3.64,0,0,1,45.87,48.65Zm0,5.07a1.06,1.06,0,0,0,1-.46,2.52,2.52,0,0,0,.3-1.38,2.59,2.59,0,0,0-.3-1.39,1.07,1.07,0,0,0-1-.45,1.11,1.11,0,0,0-1,.45,2.59,2.59,0,0,0-.3,1.39,2.52,2.52,0,0,0,.3,1.38A1.09,1.09,0,0,0,45.87,53.72Z"/>
          <path class="cls-10" d="M55,55.11a2.32,2.32,0,0,1-.78-.13,1.65,1.65,0,0,1-.58-.37,1.61,1.61,0,0,1-.35-.58,2.23,2.23,0,0,1-.12-.75V50h-.53a.37.37,0,0,1-.25-.09.37.37,0,0,1-.1-.28v-.73l1-.19.37-1.53a.38.38,0,0,1,.41-.29h1v1.83h1.55V50H55.06v3.11a.59.59,0,0,0,.11.36.36.36,0,0,0,.3.14l.17,0a.33.33,0,0,0,.12-.05l.1,0,.11,0a.25.25,0,0,1,.13,0,.5.5,0,0,1,.11.13l.57.88A2.74,2.74,0,0,1,56,55,3.24,3.24,0,0,1,55,55.11Z"/>
          <path class="cls-10" d="M59.29,49.3a2.9,2.9,0,0,1,.74-.47,2.22,2.22,0,0,1,.94-.18,2.17,2.17,0,0,1,.91.18,1.84,1.84,0,0,1,.67.5,2.1,2.1,0,0,1,.41.75,3.21,3.21,0,0,1,.14,1v4H61.22V51a1.09,1.09,0,0,0-.21-.71.72.72,0,0,0-.62-.26,1.22,1.22,0,0,0-.57.13,2.43,2.43,0,0,0-.53.35V55H57.42V46h1.87Z"/>
          <path class="cls-10" d="M65.84,52.21a1.73,1.73,0,0,0,.48,1.14,1.41,1.41,0,0,0,1,.36,1.89,1.89,0,0,0,.56-.08,2,2,0,0,0,.42-.18l.34-.17A.61.61,0,0,1,69,53.2a.39.39,0,0,1,.34.16l.54.67a2.83,2.83,0,0,1-.62.54,3.33,3.33,0,0,1-1.4.49,5.29,5.29,0,0,1-.67,0,3.41,3.41,0,0,1-1.24-.22,2.76,2.76,0,0,1-1-.64,3.12,3.12,0,0,1-.68-1A4,4,0,0,1,64,51.74a3.18,3.18,0,0,1,.22-1.19,2.84,2.84,0,0,1,.61-1,2.9,2.9,0,0,1,1-.67,3.13,3.13,0,0,1,1.29-.25,3.17,3.17,0,0,1,1.14.2,2.29,2.29,0,0,1,.89.56,2.45,2.45,0,0,1,.58.9,3.3,3.3,0,0,1,.21,1.21,2.82,2.82,0,0,1,0,.34.63.63,0,0,1-.07.22.22.22,0,0,1-.13.1.58.58,0,0,1-.21,0Zm2.36-1.08a1.61,1.61,0,0,0-.06-.44,1,1,0,0,0-.19-.37.84.84,0,0,0-.34-.27,1.26,1.26,0,0,0-1.34.2,1.51,1.51,0,0,0-.4.88Z"/>
          <path class="cls-10" d="M75.87,55H73.82v-8.8h2.05Z"/>
          <path class="cls-10" d="M81.2,50.12a.39.39,0,0,1-.15.16.41.41,0,0,1-.21,0,.58.58,0,0,1-.26-.06l-.29-.12a1.6,1.6,0,0,0-.35-.12A1.46,1.46,0,0,0,79.5,50a.9.9,0,0,0-.54.13.44.44,0,0,0-.2.38.39.39,0,0,0,.13.29.88.88,0,0,0,.33.2,3.44,3.44,0,0,0,.46.17l.53.17c.18.07.36.14.54.23a2.1,2.1,0,0,1,.46.32,1.39,1.39,0,0,1,.33.46,1.62,1.62,0,0,1,.12.66,2,2,0,0,1-.17.85,1.85,1.85,0,0,1-.5.68,2.42,2.42,0,0,1-.83.44,3.85,3.85,0,0,1-1.13.16,3.47,3.47,0,0,1-.64-.06,4.37,4.37,0,0,1-.62-.17,4,4,0,0,1-.55-.24,2.61,2.61,0,0,1-.44-.31l.44-.68a.47.47,0,0,1,.18-.19.52.52,0,0,1,.29-.07.54.54,0,0,1,.29.07l.28.16.36.15a1.46,1.46,0,0,0,.51.07,1.4,1.4,0,0,0,.37,0,.51.51,0,0,0,.37-.3.45.45,0,0,0,0-.2.43.43,0,0,0-.12-.31,1.23,1.23,0,0,0-.34-.21c-.13-.05-.29-.11-.47-.16l-.53-.17a3.54,3.54,0,0,1-.53-.23,1.8,1.8,0,0,1-.47-.35,1.5,1.5,0,0,1-.33-.51,1.77,1.77,0,0,1-.13-.73,2,2,0,0,1,.15-.76,1.89,1.89,0,0,1,.47-.63,2.27,2.27,0,0,1,.77-.43,3.7,3.7,0,0,1,1.74-.1,3.78,3.78,0,0,1,.6.17,2.62,2.62,0,0,1,.5.26,2.24,2.24,0,0,1,.41.32Z"/>
          <path class="cls-10" d="M84.48,46v9H82.6V46Z"/>
          <path class="cls-10" d="M85.6,49.62a3.87,3.87,0,0,1,1.26-.75,4.52,4.52,0,0,1,1.49-.24,2.76,2.76,0,0,1,1,.18,2.33,2.33,0,0,1,.77.52,2.16,2.16,0,0,1,.49.78,2.86,2.86,0,0,1,.17,1V55h-.86a.84.84,0,0,1-.4-.07.57.57,0,0,1-.23-.3l-.13-.35-.45.35a3.47,3.47,0,0,1-.45.26,2.07,2.07,0,0,1-.5.15,2.58,2.58,0,0,1-.58.06,2.67,2.67,0,0,1-.78-.11,1.77,1.77,0,0,1-.59-.33,1.43,1.43,0,0,1-.38-.55,1.88,1.88,0,0,1-.14-.74,1.63,1.63,0,0,1,.17-.69,1.74,1.74,0,0,1,.59-.63,3.8,3.8,0,0,1,1.12-.48A7.69,7.69,0,0,1,89,51.36V51.1a1.18,1.18,0,0,0-.22-.8.85.85,0,0,0-.65-.24,1.65,1.65,0,0,0-.54.07,2.72,2.72,0,0,0-.38.16l-.32.17a.84.84,0,0,1-.37.07.52.52,0,0,1-.33-.1.8.8,0,0,1-.22-.23ZM89,52.46a6.45,6.45,0,0,0-.92.1,2.4,2.4,0,0,0-.57.18.69.69,0,0,0-.3.25.61.61,0,0,0-.08.3.53.53,0,0,0,.18.45.8.8,0,0,0,.51.13,1.39,1.39,0,0,0,.63-.13,1.68,1.68,0,0,0,.55-.41Z"/>
          <path class="cls-10" d="M93.72,49.42l.37-.31a1.76,1.76,0,0,1,.42-.24,2.16,2.16,0,0,1,.47-.16,2.53,2.53,0,0,1,.56-.06,2.14,2.14,0,0,1,.91.18,1.76,1.76,0,0,1,.67.5,2.1,2.1,0,0,1,.41.75,3.21,3.21,0,0,1,.14,1v4H95.8V51a1.09,1.09,0,0,0-.21-.71.76.76,0,0,0-.63-.26,1.25,1.25,0,0,0-.57.13,2.43,2.43,0,0,0-.53.35V55H92V48.75h1.16a.43.43,0,0,1,.46.31Z"/>
          <path class="cls-10" d="M104.55,46v9h-1.16a.43.43,0,0,1-.46-.31l-.15-.48a3.33,3.33,0,0,1-.39.36,3,3,0,0,1-.44.28,2.13,2.13,0,0,1-.52.18,2.73,2.73,0,0,1-.59.07,2,2,0,0,1-.91-.22,2.05,2.05,0,0,1-.72-.63,3.09,3.09,0,0,1-.47-1,5.11,5.11,0,0,1-.17-1.36,4.17,4.17,0,0,1,.19-1.3,3.13,3.13,0,0,1,.55-1,2.44,2.44,0,0,1,.85-.68,2.33,2.33,0,0,1,1.09-.25,2,2,0,0,1,.82.14,2.07,2.07,0,0,1,.6.37V46Zm-1.88,4.46a1.1,1.1,0,0,0-.46-.33,1.46,1.46,0,0,0-.52-.1,1,1,0,0,0-.47.11,1,1,0,0,0-.38.33,1.64,1.64,0,0,0-.25.58,3.78,3.78,0,0,0-.09.88,3.89,3.89,0,0,0,.07.83,1.93,1.93,0,0,0,.2.55.76.76,0,0,0,.32.3.87.87,0,0,0,.4.09,1.4,1.4,0,0,0,.37,0,1.63,1.63,0,0,0,.31-.11,1.15,1.15,0,0,0,.26-.19,2.89,2.89,0,0,0,.24-.25Z"/>
        </g>
      </g>
    </g>
  </g>
</svg>
