<svg width="1114" height="810" viewBox="0 0 1114 810" fill="none" xmlns="http://www.w3.org/2000/svg" opacity="0.15">
<path d="M543.208 757.134C555.36 753.697 608.329 747.024 668.504 718.043C728.678 689.061 788.852 657.902 788.852 657.902C788.852 657.902 904.377 620.014 911.613 617.809C918.848 615.604 1121.02 537.622 1113.81 537.622C1106.61 537.622 964.551 522.043 964.551 522.043C964.551 522.043 880.32 501.996 930.877 493.061C981.435 484.126 1022.34 452.967 1022.34 452.967C1022.34 452.967 964.551 444.061 971.787 441.827C979.023 439.593 1065.67 417.313 1065.67 417.313C1065.67 417.313 993.432 401.705 950.111 401.705C906.789 401.705 839.41 410.611 839.41 410.611L707.002 495.323C707.002 495.323 584.241 644.7 562.596 691.524C540.95 738.347 543.208 757.134 543.208 757.134Z" fill="#58B0D9"/>
<path d="M563.029 625.942C563.881 626.04 564.666 626.423 565.236 627.018C565.805 627.614 566.12 628.382 566.121 629.178C530.529 647.965 488.816 655.554 447.844 654.38C423.261 653.664 384.825 648.652 367.725 632.214C387.268 626.858 400.255 624.166 398.833 612.167C374.621 618.238 342.833 617.58 317.848 619.527C337.36 614.172 363.118 606.611 372.796 597.447C339.369 606.038 284.576 608.731 251.675 598.449C246.356 596.788 240.728 594.583 237.945 590.087C295.677 563.138 350.378 533.641 407.707 505.948C406.439 503.972 402.667 503.084 401.77 505.117L563.029 625.942Z" fill="#58B0D9"/>
<path d="M954.069 528.286L986.537 541.975L913.715 586.65L1047.58 538.338L954.069 528.286Z" fill="white"/>
<path d="M535.57 779.099C535.57 779.099 524.747 779.099 510.832 765.41C496.917 751.721 483.281 741.726 479.354 741.726C475.426 741.726 439.155 735.34 425.209 725.317C411.263 715.293 393.699 704.325 393.699 704.325C393.699 704.325 398.616 728.037 421.282 738.061C443.948 748.084 486.218 760.971 497.072 777.266C507.925 793.562 538.662 810 538.662 810L645.962 737.058L535.57 779.099Z" fill="white"/>
<path d="M646.054 771.739L717.422 716.668L837.864 672.594L730.812 735.942L646.054 771.739Z" fill="white"/>
<path d="M146.354 569.525L93.3846 582.584C93.3846 582.584 130.491 605.666 134.727 605.666C138.964 605.666 181.976 591.863 181.976 591.863L146.354 569.525Z" fill="white"/>
<path d="M354.892 635.765L294.316 637.054L269.269 654.466L324.96 651.888L354.892 635.765Z" fill="#58B0D9"/>
<path d="M246.016 699.084H210.796V739.206H246.016V699.084Z" fill="#73BDD9"/>
<path d="M297.47 729.183H275.794V773.773H297.47V729.183Z" fill="#73BDD9"/>
<path d="M347.564 760.742H309.653V790.841H347.564V760.742Z" fill="#73BDD9"/>
<path d="M340.297 674.226H326.753V709.337H340.297V674.226Z" fill="#73BDD9"/>
<path d="M168.587 671.907H136.088V691.982H168.587V671.907Z" fill="white"/>
<path d="M179.41 626.773H146.911V656.871H179.41V626.773Z" fill="white"/>
<path d="M150.219 555.32C154.984 555.541 159.657 554.054 163.268 551.168C163.605 550.88 164.047 550.72 164.505 550.72C164.964 550.72 165.405 550.88 165.742 551.168C172.669 557.554 182.347 564.857 192.706 561.391C193.153 561.276 193.631 561.329 194.036 561.538C194.441 561.747 194.741 562.096 194.871 562.508C199.571 574.536 210.95 582.555 223.319 587.194C227.63 588.836 232.063 590.185 236.585 591.233V566.174L148.457 518.778V556.008C148.653 555.753 148.922 555.554 149.233 555.433C149.544 555.312 149.886 555.272 150.219 555.32Z" fill="#F0B324"/>
<path d="M149.941 512.764C150.719 511.049 151.761 509.448 153.033 508.01C153.38 507.636 153.752 507.282 154.146 506.95C169.36 493.548 215.65 456.031 306.994 407.175C393.081 361.153 481.642 318.654 520.944 300.068C526.633 297.347 531.735 297.204 535.477 299.266L623.698 346.662C619.956 344.629 614.854 344.743 609.164 347.464C569.862 366.05 481.302 408.549 395.215 454.571C303.871 503.428 257.581 540.944 242.336 554.347C241.965 554.69 241.594 555.034 241.254 555.406C239.907 556.827 238.802 558.43 237.976 560.16C237.054 562.022 236.559 564.04 236.523 566.088L148.457 518.778C148.505 516.728 149.01 514.71 149.941 512.85" fill="#FFD138"/>
<path d="M152.136 509.299C151.673 509.9 151.209 510.559 150.807 511.189C150.487 511.728 150.198 512.282 149.941 512.85L202.508 541.087C202.508 540.371 202.725 539.684 202.88 538.968C203.028 538.204 203.224 537.448 203.467 536.705L203.931 535.359L153.281 508.096L152.136 509.299Z" fill="#FFF56B"/>
<path d="M241.192 555.463L212.96 540.257C212.775 540.686 212.62 541.116 212.465 541.545C212.192 542.287 211.965 543.042 211.785 543.808C211.6 544.495 211.445 545.182 211.321 545.898L237.976 560.217C238.29 559.57 238.641 558.939 239.027 558.327C239.429 557.697 239.893 557.067 240.388 556.437L241.223 555.492L241.192 555.463Z" fill="#FFF56B"/>
<path d="M206.188 516.114C204.98 516.591 204.001 517.458 203.432 518.554C202.863 519.65 202.743 520.9 203.096 522.071C203.892 524.403 205.356 526.492 207.332 528.114C212.35 532.957 217.778 537.42 223.566 541.459C233.245 548.189 244.934 555.206 246.263 566.317L306.747 526.882C308.208 526.077 309.439 524.957 310.334 523.618C310.809 522.291 310.978 520.886 310.829 519.494C310.679 518.103 310.216 516.756 309.468 515.542L302.418 499.533C302.021 498.23 301.174 497.083 300.006 496.268C298.641 495.685 297.102 495.554 295.646 495.896C278.742 497.92 261.951 500.593 245.274 503.915L206.25 516.114" fill="#D28D05"/>
<path d="M248.892 591.662C252.695 591.934 256.518 591.848 260.302 591.404C277.309 589.457 293.388 581.868 307.922 573.821C315.096 569.868 322.084 565.573 328.949 561.162C335.924 556.347 343.331 552.093 351.089 548.447C368.312 540.944 387.175 537.307 404.398 529.775C422.034 521.912 439.172 513.125 455.729 503.456C489.558 483.982 521.624 462.046 554.865 441.77C570.852 432.033 587.426 423.183 603.258 413.131C611.885 407.747 620.42 402.192 629.109 396.894C629.884 394.086 630.278 391.2 630.284 388.302V359.864C630.284 347.292 621.007 341.794 609.226 347.407C569.924 365.993 481.363 408.492 395.276 454.514C303.933 503.37 257.642 540.887 242.398 554.289C238.904 557.366 236.822 561.571 236.585 566.031V591.089C240.11 591.949 243.666 592.636 247.253 593.209C247.229 593.003 247.255 592.794 247.328 592.599C247.402 592.403 247.521 592.225 247.678 592.077C247.835 591.929 248.025 591.815 248.235 591.744C248.444 591.672 248.669 591.644 248.892 591.662Z" fill="#C68209"/>
<path d="M163.268 551.168C163.605 550.88 164.047 550.72 164.505 550.72C164.964 550.72 165.405 550.88 165.742 551.168C172.669 557.554 182.347 564.857 192.706 561.391C193.153 561.276 193.631 561.329 194.036 561.538C194.441 561.747 194.741 562.096 194.871 562.508C199.571 574.536 210.95 582.555 223.319 587.194C225.886 588.168 228.514 589.027 231.173 589.801V567.663L160.052 529.718V553.115C161.17 552.533 162.244 551.882 163.268 551.168Z" fill="#2D2B29"/>
<path d="M511.976 264.241C509.883 263.335 507.569 262.956 505.267 263.142C502.965 263.328 500.757 264.072 498.865 265.301L186.553 432.262C146.354 453.798 141.221 541.717 141.035 545.469C140.886 547.239 141.259 549.013 142.114 550.602C142.969 552.191 144.274 553.535 145.89 554.49C146.902 554.988 148.001 555.318 149.137 555.463C149.46 555.376 149.803 555.376 150.126 555.463C151.825 555.65 153.547 555.533 155.198 555.12C156.525 554.729 157.801 554.2 159.001 553.545L163.176 551.339L163.794 551.024L167.443 549.077C168.263 548.64 168.862 547.92 169.109 547.074C169.355 546.228 169.229 545.326 168.757 544.567C168.285 543.807 167.507 543.252 166.594 543.024C165.681 542.796 164.707 542.913 163.887 543.349L155.445 547.874C152.353 549.421 150.405 549.449 149.477 548.934C148.55 548.418 148.178 546.7 148.178 545.784C148.178 544.867 153.219 457.893 190.109 438.161L502.421 271.2C505.359 269.625 507.431 269.625 508.389 270.141C509.348 270.656 509.688 272.375 509.688 273.291V285.348C509.688 286.221 510.063 287.059 510.73 287.676C511.396 288.294 512.301 288.641 513.244 288.641C514.187 288.641 515.092 288.294 515.759 287.676C516.425 287.059 516.8 286.221 516.8 285.348V273.291C516.969 271.518 516.608 269.736 515.758 268.14C514.907 266.544 513.599 265.195 511.976 264.241Z" fill="#2D2B29"/>
<path d="M148.828 375.1L129.099 386.899L124.121 407.891C124.121 407.891 130.707 411.413 131.511 411.728C131.952 411.935 132.454 412.002 132.94 411.919C133.426 411.837 133.869 411.608 134.202 411.27L135.593 410.038L133.212 408.463L135.562 391.28L144.561 384.951L146.942 386.526L148.828 375.1Z" fill="#D28D05"/>
<path d="M128.481 388.961L124.616 378.88L141.963 365.792L148.828 375.1L128.481 388.961Z" fill="#D28D05"/>
<path d="M126.44 409.237L105.444 400.044C104.497 399.613 103.673 398.981 103.039 398.2C102.405 397.419 101.979 396.51 101.795 395.548L98.7032 378.708C98.5331 377.794 98.6265 376.855 98.974 375.985C99.3215 375.115 99.9107 374.345 100.682 373.754L105.939 369.83L124.492 378.88L129.161 387.214L126.44 409.237Z" fill="#F0B324"/>
<path d="M123.874 392.14C123.318 389.332 122.057 386.685 120.193 384.411C118.329 382.138 115.915 380.302 113.144 379.052C112.308 378.673 111.379 378.505 110.45 378.566C109.522 378.626 108.627 378.912 107.856 379.396L104.486 381.887L118.772 401.132L122.297 398.555C123.128 397.698 123.709 396.659 123.985 395.537C124.261 394.414 124.223 393.245 123.874 392.14Z" fill="#3A5868"/>
<path d="M120.72 394.431C121.74 399.958 118.586 403.022 113.639 401.39C110.871 400.136 108.459 398.299 106.595 396.026C104.732 393.753 103.469 391.108 102.909 388.302C101.919 382.775 105.073 379.711 109.99 381.343C112.758 382.597 115.17 384.434 117.033 386.707C118.896 388.979 120.159 391.625 120.72 394.431Z" fill="#3A3A46"/>
<path d="M226.875 443.459L145.055 382.288L132.099 391.166L218.928 470.895L232.101 461.845C232.954 461.009 233.572 459.993 233.901 458.884C234.229 457.776 234.259 456.609 233.987 455.487C233.27 450.812 230.742 446.537 226.875 443.459Z" fill="#3A5868"/>
<path d="M233.987 455.487C233.27 450.812 230.742 446.537 226.875 443.459L154.116 389.047C151.92 394.488 149.817 399.986 147.591 405.399L218.928 470.866L232.101 461.845C232.954 461.009 233.572 459.993 233.901 458.884C234.229 457.776 234.259 456.609 233.987 455.487Z" fill="#49667A"/>
<path d="M213.981 452.337L132.161 391.166L132.377 409.265L211.63 470.036C212.237 470.404 212.867 470.739 213.517 471.038C218.402 473.014 221.773 470.036 221.093 464.365C220.375 459.69 217.847 455.415 213.981 452.337Z" fill="#3A3A46"/>
<path d="M300.129 460.843L299.913 460.671L269.64 447.068C268.192 446.374 266.572 446.045 264.944 446.116C263.315 446.186 261.735 446.653 260.364 447.469L246.232 455.688L242.893 456.805L244.779 492.975C244.805 493.748 245.057 494.501 245.509 495.151C245.961 495.802 246.596 496.327 247.345 496.669L278.608 510.244C280.061 510.929 281.684 511.248 283.312 511.167C284.941 511.087 286.518 510.61 287.884 509.785L301.985 501.022C302.328 500.824 302.64 500.583 302.912 500.306C303.782 499.361 304.215 498.137 304.118 496.898L302.232 460.785H300.098" fill="#9D9DAF"/>
<path d="M300.098 464.508L285.998 473.272C284.622 474.076 283.045 474.538 281.42 474.613C279.795 474.688 278.177 474.374 276.721 473.701L245.459 460.127C244.723 459.789 244.095 459.279 243.637 458.647C243.18 458.015 242.91 457.282 242.854 456.523C242.797 455.764 242.957 455.004 243.316 454.32C243.676 453.636 244.223 453.051 244.903 452.623L260.054 443.803C261.429 442.992 263.01 442.53 264.639 442.465C266.267 442.399 267.886 442.732 269.331 443.431L299.542 457.034C300.276 457.383 300.898 457.904 301.346 458.547C301.794 459.189 302.051 459.929 302.091 460.692C302.132 461.456 301.955 462.216 301.578 462.895C301.201 463.575 300.637 464.151 299.944 464.566" fill="#DDDDE5"/>
<path d="M281.514 477.281L218.619 430.658L200.344 446.896L268.713 521.355L289.863 506.778C291.23 505.449 292.226 503.831 292.765 502.064C293.304 500.298 293.369 498.436 292.955 496.64C291.787 489.121 287.724 482.245 281.514 477.281Z" fill="#FFD138"/>
<path d="M254.179 457.034L254.612 457.377L254.241 457.091" fill="#FFF9EC"/>
<path d="M218.619 430.658L214.568 434.238L213.238 435.441C214.939 438.304 216.702 440.996 218.526 443.746C232.998 465.253 250.376 484.899 266.795 505.146C267.132 505.235 267.427 505.426 267.63 505.69C270.413 509.27 273.227 512.792 276.041 516.344L279.875 513.737C267.878 498.674 268.651 492.889 258.014 476.995C254.736 472.097 256.56 459.124 254.643 457.377L254.21 457.034C251.551 455.115 235.873 443.746 231.699 440.366C230.607 439.718 229.573 438.99 228.607 438.19L218.464 430.658" fill="#FFF76A"/>
<path d="M281.514 477.338L278.917 475.42C267.847 482.379 256.653 489.194 245.768 496.411L268.713 521.355L289.863 506.778C291.23 505.449 292.226 503.831 292.765 502.064C293.304 500.298 293.369 498.436 292.955 496.64C291.773 489.141 287.711 482.288 281.514 477.338Z" fill="#F0B324"/>
<path d="M260.704 491.543L200.344 446.896L204.487 480.116L257.055 520.21C258.053 520.788 259.085 521.314 260.147 521.785C267.97 524.964 273.413 520.181 272.33 511.103C271.162 503.583 267.099 496.708 260.889 491.743L260.704 491.543Z" fill="#D28D05"/>
<path d="M288.936 496.669C289.678 500.134 289.709 502.196 287.76 503.686L287.266 504.058L276.721 511.303C276.507 509.473 276.177 507.656 275.732 505.862C275.532 505.174 275.564 504.446 275.824 503.775C276.084 503.105 276.559 502.524 277.185 502.11L286.462 495.609C287.266 495.123 288.534 494.779 288.936 496.669Z" fill="#3A3A46"/>
<path d="M257.581 486.818L257.333 486.674L226.968 473.014C225.499 472.303 223.854 471.963 222.198 472.029C220.543 472.094 218.935 472.562 217.537 473.386L203.343 481.634L199.973 482.78L201.859 519.15C201.898 519.921 202.156 520.668 202.606 521.317C203.057 521.965 203.685 522.492 204.426 522.844L235.873 536.505C237.332 537.174 238.952 537.483 240.577 537.403C242.202 537.322 243.777 536.855 245.15 536.047L259.343 527.255C259.687 527.046 259.999 526.796 260.271 526.51C261.146 525.556 261.579 524.321 261.477 523.074L259.591 486.789L257.581 486.818Z" fill="#B8B8C3"/>
<path d="M259.714 486.789H257.581L257.333 486.646L235.688 476.909C236.028 479.515 236.337 482.15 236.646 484.784C237.458 484.924 238.198 485.303 238.756 485.866C239.314 486.429 239.658 487.145 239.739 487.906C242.058 504.344 240.573 520.84 239.955 537.364C241.854 537.426 243.729 536.957 245.336 536.018L259.529 527.226C259.873 527.018 260.185 526.767 260.456 526.482C261.331 525.528 261.764 524.293 261.662 523.045L259.714 486.789Z" fill="#9D9DAF"/>
<path d="M209.064 498.645C209.064 500.249 208.136 501.051 206.776 500.421C206.038 499.966 205.422 499.36 204.977 498.65C204.532 497.94 204.269 497.145 204.209 496.325C204.209 494.722 205.137 493.92 206.497 494.579C207.236 495.026 207.853 495.626 208.299 496.331C208.744 497.037 209.006 497.829 209.064 498.645Z" fill="#49667A"/>
<path d="M235.286 510.129C235.286 511.733 234.358 512.535 232.998 511.876C232.254 511.43 231.633 510.831 231.182 510.126C230.732 509.42 230.464 508.627 230.4 507.809C230.4 506.206 231.359 505.404 232.688 506.034C233.437 506.48 234.062 507.084 234.514 507.795C234.965 508.506 235.229 509.306 235.286 510.129Z" fill="#49667A"/>
<path d="M210.022 516.745C210.022 518.348 209.095 519.15 207.734 518.52C206.993 518.069 206.375 517.464 205.93 516.753C205.484 516.042 205.223 515.245 205.168 514.425C205.168 512.821 206.095 512.019 207.425 512.678C208.173 513.118 208.799 513.716 209.25 514.423C209.701 515.13 209.966 515.925 210.022 516.745Z" fill="#49667A"/>
<path d="M236.214 528.228C236.214 529.832 235.286 530.634 233.956 529.975C233.208 529.535 232.583 528.937 232.131 528.23C231.68 527.524 231.415 526.728 231.359 525.909C231.359 524.305 232.286 523.503 233.647 524.133C234.388 524.585 235.006 525.19 235.452 525.9C235.897 526.611 236.158 527.408 236.214 528.228Z" fill="#49667A"/>
<path d="M257.55 490.512L243.357 499.333C241.987 500.153 240.409 500.625 238.78 500.7C237.152 500.775 235.53 500.452 234.08 499.762L202.632 486.13C201.892 485.775 201.265 485.247 200.814 484.597C200.364 483.948 200.105 483.2 200.064 482.429C200.023 481.657 200.202 480.89 200.582 480.202C200.962 479.515 201.531 478.932 202.23 478.512L217.444 469.663C218.848 468.84 220.461 468.372 222.121 468.306C223.782 468.241 225.432 468.58 226.906 469.291L257.271 482.951C257.998 483.315 258.61 483.848 259.045 484.498C259.48 485.149 259.724 485.893 259.752 486.658C259.78 487.422 259.592 488.18 259.205 488.857C258.819 489.533 258.248 490.103 257.55 490.512Z" fill="#DDDDE5"/>
<path d="M296.542 492.717C296.852 495.037 298.521 495.953 300.284 494.75C301.243 493.944 301.986 492.942 302.453 491.823C302.92 490.705 303.098 489.501 302.974 488.307C302.696 485.987 301.026 485.071 299.263 486.273C298.295 487.074 297.544 488.074 297.071 489.194C296.598 490.313 296.417 491.52 296.542 492.717Z" fill="#3A3A46"/>
<path d="M310.705 497.557C310.848 498.962 310.593 500.378 309.963 501.664C309.334 502.95 308.353 504.061 307.118 504.888C304.175 506.849 300.721 508.047 297.112 508.359C293.503 508.671 289.869 508.086 286.586 506.664L284.668 505.833L276.752 502.425L277.185 502.11L280.494 499.962L288.255 503.285C290.888 504.448 293.81 504.934 296.715 504.692C299.62 504.45 302.401 503.489 304.768 501.91C305.444 501.457 305.982 500.85 306.328 500.147C306.675 499.444 306.819 498.67 306.747 497.901C306.661 497.127 306.367 496.386 305.891 495.746C305.416 495.105 304.774 494.586 304.025 494.235L296.573 490.97C296.75 489.724 297.225 488.53 297.965 487.476L302.943 489.681L305.757 490.941C307.14 491.54 308.327 492.468 309.196 493.63C310.065 494.792 310.586 496.147 310.705 497.557Z" fill="#3A5868"/>
<path d="M902.676 267.363V380.112L899.584 378.393V263.354C900.45 264.7 901.656 265.988 902.676 267.363Z" fill="#F0B324"/>
<path d="M889.442 383.892L899.491 378.536L902.584 380.255L892.534 385.639C872.156 396.521 855.984 398.383 845.811 392.913L842.719 391.195C852.861 396.493 869.064 394.66 889.442 383.892Z" fill="#FFD255"/>
<path d="M834.06 368.799L830.844 367.081L730.533 420.692L733.749 422.439L834.06 368.799Z" fill="#FFD255"/>
<path d="M733.749 422.439L733.966 487.133C733.773 488.924 734.095 490.731 734.899 492.37C735.702 494.01 736.959 495.423 738.542 496.469L735.45 494.722C733.862 493.681 732.602 492.268 731.798 490.627C730.994 488.987 730.675 487.178 730.873 485.386L730.657 420.692L733.749 422.439Z" fill="#F0B324"/>
<path d="M834.06 368.799C834.06 395.92 857.005 404.569 892.812 385.496L902.862 380.112V250.695C913.715 259.287 925.837 267.563 935.299 277.358C935.299 290.044 935.299 306.769 935.299 373.897C934.916 380.628 932.819 387.18 929.181 393.018C925.543 398.856 920.466 403.815 914.365 407.49L749.736 495.581C741.078 500.192 733.996 496.469 733.966 487.247L733.749 422.553L834.06 368.799Z" fill="#C68209"/>
<path d="M813.219 226.983L847.573 210C835.668 216.387 828.278 230.047 828.247 249.349C828.247 288.269 857.716 335.78 894.296 355.311C912.85 365.134 929.393 366.05 941.453 359.549L908.459 378.708C896.399 385.209 879.268 384.751 860.87 374.928C824.289 355.368 793.274 306.368 793.398 267.449C793.46 248.147 801.314 233.369 813.219 226.983Z" fill="#F8C232"/>
<path d="M822.588 261.062C830.504 263.182 853.077 276.298 864.889 285.777C855.829 273.234 842.533 249.321 840.152 240.844C837.06 229.389 843.244 222.344 853.819 225.179C864.395 228.014 875.465 239.498 878.557 251.125C880.845 259.716 879.701 279.964 876.331 289.099C884.618 285.147 902.738 282.512 910.592 284.603C921.23 287.467 932.238 298.922 935.33 310.549C938.422 322.176 932.238 329.078 921.631 326.243C913.746 324.124 891.173 311.008 879.33 301.557C888.39 314.1 901.718 337.985 904.068 346.462C907.16 357.917 900.975 364.962 890.4 362.127C879.825 359.292 868.755 347.808 865.662 336.18C863.374 327.589 864.487 307.342 867.889 298.206C859.571 302.158 841.451 304.793 833.627 302.702C822.99 299.839 811.982 288.24 808.89 276.756C805.798 265.272 811.951 258.227 822.588 261.062Z" fill="#49667A"/>
<path d="M822.588 265.387C830.504 267.506 853.077 280.622 864.889 290.102C855.829 277.529 842.533 253.645 840.152 245.168C837.06 233.713 843.244 226.668 853.819 229.503C864.395 232.338 875.465 243.822 878.557 255.449C880.845 264.041 879.701 284.288 876.331 293.424C884.618 289.472 902.738 286.837 910.592 288.927C921.23 291.791 932.238 303.247 935.33 314.874C938.422 326.501 932.238 333.403 921.631 330.567C913.746 328.448 891.173 315.332 879.33 305.853C888.39 318.396 901.718 342.309 904.068 350.786C907.16 362.241 900.975 369.286 890.4 366.451C879.825 363.616 868.755 352.132 865.662 340.505C863.374 331.913 864.487 311.666 867.889 302.531C859.571 306.483 841.451 309.117 833.627 307.027C822.99 304.163 811.982 292.708 808.89 281.081C805.798 269.453 811.951 262.552 822.588 265.387Z" fill="#3A3A46"/>
<path d="M845.656 206.936C858.21 200.206 875.558 201.209 894.729 211.404C932.856 231.794 963.593 281.109 963.469 321.661C963.469 341.708 955.738 356.027 943.37 362.642L909.726 380.77C922.095 371.291 926.795 360.437 928.651 339.789C926.919 300.01 902.985 256.194 867.332 234.572C864.144 232.654 860.806 230.96 857.345 229.503C839.564 221.943 823.33 218.936 812.013 225.064L845.656 206.936Z" fill="#FFD138"/>
<path d="M923.672 233.656C919.498 236.033 915.323 238.41 911.118 240.701C903.944 244.624 896.678 248.433 889.473 252.156C912.908 276.39 926.756 307.28 928.744 339.76C926.888 360.408 922.188 371.262 909.819 380.742L943.462 362.614C955.831 355.941 963.5 341.765 963.562 321.632C963.562 292.249 947.266 257.884 923.672 233.656Z" fill="#C68209"/>
<path d="M864.302 278.532C879.423 276.957 891.915 301.07 884.772 310.463L850.758 346.003L813.652 287.496L864.302 278.532Z" fill="#3A5868"/>
<path d="M742.747 503.485L868.909 366.709C874.27 360.205 877.015 352.175 876.671 343.999C877.104 316.506 856.54 282.684 830.69 268.48C821.011 263.153 811.951 261.349 804.406 262.58L613.153 294.082L742.747 503.485Z" fill="#C68209"/>
<path d="M570.264 354.28C569.337 409.552 610.741 477.424 662.721 506.062C714.701 534.701 757.559 513.022 758.58 457.721C759.6 402.421 718.103 334.577 666.123 305.939C614.143 277.3 571.285 299.008 570.264 354.28Z" fill="#AB7008"/>
<path d="M899.429 214.067V196.884L902.522 198.631V216.015C901.594 215.442 900.45 214.726 899.429 214.067Z" fill="#F0B324"/>
<path d="M733.78 272.174L730.564 270.427L730.75 300.096L733.997 301.843L733.78 272.174Z" fill="#F0B324"/>
<path d="M910.747 157.421C916.622 154.27 921.91 153.984 925.744 156.046L928.836 157.764C925.033 155.731 919.56 156.017 913.87 159.139L749.334 247.116L746.242 245.369L910.747 157.421Z" fill="#FFD255"/>
<path d="M733.254 259.602C734.812 256.375 736.898 253.39 739.439 250.753C741.418 248.634 743.745 246.818 746.334 245.369L749.427 247.116C746.824 248.546 744.494 250.366 742.531 252.5C739.994 255.14 737.908 258.124 736.347 261.349C734.637 264.743 733.71 268.43 733.625 272.174L730.533 270.427C730.636 266.685 731.562 263.001 733.254 259.602Z" fill="#FFD255"/>
<path d="M749.458 247.116L913.994 159.139C925.62 152.924 935.021 157.908 935.052 170.165C935.052 209.399 935.052 232.367 935.052 247.03C926.074 235.166 915.078 224.73 902.491 216.129V198.746L892.441 204.13C861.674 220.654 840.461 247.66 835.514 272.203L734.089 301.872L733.78 272.203C734.071 267.172 735.643 262.277 738.368 257.917C741.093 253.557 744.893 249.855 749.458 247.116Z" fill="#C68209"/>
<path d="M739.346 250.753L742.438 252.5C739.901 255.14 737.816 258.124 736.254 261.349L733.007 259.602C734.612 256.366 736.751 253.38 739.346 250.753Z" fill="#F9E1A7"/>
<path d="M549.856 640.347C444.566 637.483 359.902 511.475 359.871 443.345C359.871 394.03 372.858 380.341 372.982 378.393C373.848 365.735 562.657 280.107 586.684 271.086C572.12 284.574 563.616 306.196 564.142 334.72C565.348 404.254 618.967 487.534 683.903 520.868C704.559 531.407 723.823 535.56 740.49 534.157C720.391 543.75 584.025 641.407 549.856 640.462" fill="#D28D05"/>
<path d="M576.851 486.159V482.894L578.922 480.03L590.116 486.044L576.851 486.159ZM618.348 508.354H631.428L620.42 502.425L618.441 505.089L618.348 508.354Z" fill="#3F3C39"/>
<path d="M615.967 481.434C615.671 481.308 615.42 481.106 615.244 480.852C615.068 480.599 614.975 480.303 614.975 480.002C614.975 479.7 615.068 479.405 615.244 479.151C615.42 478.897 615.671 478.695 615.967 478.57C616.83 478.167 617.783 477.957 618.75 477.957C619.717 477.957 620.67 478.167 621.533 478.57C621.829 478.695 622.08 478.897 622.256 479.151C622.432 479.405 622.525 479.7 622.525 480.002C622.525 480.303 622.432 480.599 622.256 480.852C622.08 481.106 621.829 481.308 621.533 481.434C620.67 481.836 619.717 482.046 618.75 482.046C617.783 482.046 616.83 481.836 615.967 481.434Z" fill="#3D3C3B"/>
<path d="M622.708 479.916V506.435C622.677 506.762 622.552 507.076 622.345 507.343C622.138 507.61 621.858 507.82 621.533 507.953C620.67 508.355 619.717 508.565 618.75 508.565C617.783 508.565 616.83 508.355 615.967 507.953C615.65 507.821 615.378 507.614 615.176 507.352C614.975 507.09 614.853 506.783 614.823 506.463V479.973C614.855 480.289 614.979 480.591 615.18 480.848C615.381 481.105 615.653 481.307 615.967 481.434C616.83 481.836 617.783 482.046 618.75 482.046C619.717 482.046 620.67 481.836 621.533 481.434C621.858 481.301 622.138 481.091 622.345 480.824C622.552 480.557 622.677 480.243 622.708 479.916Z" fill="#383533"/>
<path d="M576.851 459.669C579.037 459.669 580.809 458.72 580.809 457.549C580.809 456.379 579.037 455.43 576.851 455.43C574.665 455.43 572.893 456.379 572.893 457.549C572.893 458.72 574.665 459.669 576.851 459.669Z" fill="#3D3C3B"/>
<path d="M580.809 457.521V484.126C580.782 484.447 580.661 484.755 580.46 485.017C580.258 485.279 579.983 485.486 579.665 485.615C578.797 486.022 577.839 486.235 576.866 486.235C575.894 486.235 574.935 486.022 574.068 485.615C573.752 485.491 573.478 485.289 573.276 485.032C573.075 484.774 572.953 484.471 572.924 484.154V457.635C572.951 457.956 573.071 458.264 573.273 458.527C573.474 458.789 573.749 458.996 574.068 459.124C574.935 459.532 575.894 459.744 576.866 459.744C577.839 459.744 578.797 459.532 579.665 459.124C579.982 458.986 580.254 458.773 580.455 458.506C580.656 458.24 580.777 457.93 580.809 457.607" fill="#383533"/>
<path d="M636.592 431.317L578.521 400.273H636.592V431.317Z" fill="#45423E"/>
<path d="M636.592 433.064L575.243 400.273H578.521L636.592 431.317V433.064Z" fill="#45423E"/>
<path d="M636.592 434.811L571.965 400.273H575.243L636.592 433.064V434.811Z" fill="#45423E"/>
<path d="M636.592 436.557L568.718 400.273H571.965L636.592 434.811V436.557Z" fill="#45423E"/>
<path d="M636.592 438.304L566.368 400.76L566.677 400.273H568.718L636.592 436.557V438.304Z" fill="#45423E"/>
<path d="M636.592 440.051L565.564 402.077L566.368 400.76L636.592 438.304V440.051Z" fill="#43403C"/>
<path d="M636.592 441.798L564.729 403.394L565.564 402.077L636.592 440.051V441.798Z" fill="#3F3C39"/>
<path d="M636.592 475.133L627.223 490.14H563.616V405.17L564.729 403.394L636.592 441.798V475.133Z" fill="#3F3C39"/>
<path d="M620.08 490.14C628.769 448.271 623.636 447.669 626.079 439.221C626.929 436.284 628.966 433.761 631.768 432.176C634.86 430.601 637.767 430.715 637.953 434.181C638.726 446.466 636.252 464.995 634.427 480.403C634.35 481.079 634.099 481.727 633.695 482.295C633.292 482.863 632.748 483.334 632.108 483.667L620.08 490.14Z" fill="#2D2B29"/>
<path d="M398.369 345.001L679.512 252.156C751.313 290.531 809.385 383.892 809.385 460.614C809.385 498.531 795.191 525.336 772.278 538.08L583.839 638.772L565.843 648.423C588.849 635.65 602.949 608.874 602.949 570.957C602.949 494.206 544.785 400.846 473.076 362.47C436.743 343.054 403.904 341.421 380.31 354.509L398.338 344.887" fill="#FFD138"/>
<path d="M343.142 432.09C343.142 508.84 401.306 602.172 473.014 640.548C544.723 678.923 602.887 647.822 602.887 571.071C602.887 494.321 544.723 400.96 473.014 362.585C401.306 324.21 343.142 355.34 343.142 432.09ZM352.697 442.858C351.491 373.296 403.131 343.827 468.067 376.99C533.003 410.153 586.622 493.462 587.859 562.995C589.096 632.529 537.425 662.026 472.489 628.863C407.553 595.7 353.934 512.363 352.697 442.715" fill="#F0B324"/>
<path d="M461.975 679.696C462.795 677.979 463.889 676.385 465.222 674.971L466.335 673.883C481.549 660.48 527.87 622.964 619.214 574.135C705.301 528.085 793.862 485.586 833.133 467C838.853 464.308 843.955 464.136 847.697 466.198L935.763 513.594C932.021 511.59 926.919 511.704 921.199 514.396C881.897 532.982 793.336 575.482 707.28 621.589C615.967 670.274 569.584 707.876 554.401 721.279L553.288 722.367C551.955 723.782 550.86 725.375 550.041 727.092C549.11 728.962 548.604 730.99 548.557 733.049L460.491 685.653C460.538 683.594 461.044 681.566 461.975 679.696Z" fill="#FFD255"/>
<path d="M480.219 724.887C488.661 726.72 497.876 726.52 505.204 731.273C512.752 736.713 519.978 742.525 526.85 748.685C532.842 753.897 540.507 757.155 548.681 757.964V733.049L460.615 685.653V716.84C466.55 720.632 473.199 723.361 480.219 724.887Z" fill="#F0B324"/>
<path d="M942.257 526.854C942.257 514.31 932.98 508.812 921.199 514.396C881.897 532.982 793.336 575.482 707.28 621.589C615.967 670.274 569.584 707.876 554.401 721.279C550.896 724.363 548.804 728.577 548.557 733.049L548.557 757.964C549.906 758.036 551.259 758.036 552.608 757.964C585.2 742.27 617.534 726.157 649.61 709.623C685.418 691.218 720.978 672.393 756.291 653.148C790.553 634.591 824.598 615.69 858.674 596.903C887.741 580.865 916.746 564.198 942.164 543.493L942.257 526.854Z" fill="#D28D05"/>
<path d="M472.674 722.739L475.334 698.225L465.408 692.927V719.589C467.748 720.795 470.176 721.847 472.674 722.739Z" fill="#D28D05"/>
<path d="M480.219 724.887C488.661 726.72 497.876 726.52 505.204 731.273C512.752 736.713 519.978 742.525 526.85 748.685C531.542 752.627 537.149 755.518 543.239 757.134V734.538L472.118 696.564V722.567C474.754 723.52 477.462 724.296 480.219 724.887Z" fill="#2D2B29"/>
<path d="M559.627 363.043L694.324 291.018V318.253L559.627 390.278V363.043Z" fill="#C68209"/>
<path d="M559.627 363.043L694.324 291.018L581.551 230.735L446.885 302.731L559.627 363.043Z" fill="#FFD138"/>
<path d="M503.38 346.404C483.25 335.636 464.233 330.51 447.226 330.167C446.885 329.966 446.885 302.731 446.885 302.731L559.627 363.043V390.278C543.517 372.976 524.529 358.165 503.38 346.404Z" fill="#F0B324"/>
<path d="M526.293 263.067C535.121 258.567 544.762 255.597 554.742 254.304C588.57 249.435 623.265 260.175 632.047 278.331C638.045 290.474 630.964 302.874 615.411 311.179C606.605 315.68 596.984 318.65 587.024 319.943C553.195 324.811 518.563 314.043 509.719 295.915C503.72 283.658 510.832 271.372 526.293 263.067Z" fill="#FFD255"/>
<path d="M611.545 270.685L620.822 265.702C621.151 265.564 621.435 265.349 621.647 265.077C621.859 264.806 621.99 264.488 622.028 264.155V267.019C621.995 267.357 621.866 267.681 621.654 267.957C621.443 268.234 621.155 268.454 620.822 268.594L611.545 273.549L586.282 259.974V257.11L611.545 270.685Z" fill="#F0B324"/>
<path d="M586.282 257.082L611.545 270.685L620.822 265.702C621.171 265.593 621.475 265.385 621.69 265.107C621.904 264.83 622.02 264.497 622.02 264.155C622.02 263.814 621.904 263.481 621.69 263.204C621.475 262.926 621.171 262.718 620.822 262.609L601.279 252.156C600.396 251.729 599.415 251.507 598.419 251.507C597.423 251.507 596.442 251.729 595.559 252.156L586.282 257.082Z" fill="#FFD255"/>
<path d="M790.584 378.393C812.862 426.581 850.954 467.051 899.46 494.063L898.625 493.691C863.158 477.539 821.32 478.971 785.822 495.037C739.439 515.971 662.752 553.974 602.671 583.099C603.798 551.312 597.622 519.665 584.55 490.254L790.584 378.393Z" fill="#D28D05"/>
<path d="M928.898 524.019L847.357 567.635V571.3L928.898 527.684V524.019Z" fill="#C27E06"/>
<path d="M928.898 533.985L847.357 577.601V581.266L928.898 537.65V533.985Z" fill="#C27E06"/>
<path d="M928.651 554.089L847.357 597.562V601.227L900.976 572.589C910.438 566.69 919.714 560.59 928.651 554.089Z" fill="#C27E06"/>
<path d="M928.898 543.979L847.357 587.596V591.233L928.898 547.617V543.979Z" fill="#C27E06"/>
<path d="M898.749 449.244C896.552 448.293 894.123 447.896 891.707 448.092C889.291 448.288 886.974 449.071 884.989 450.361L557.493 625.484C522.552 644.156 512.904 710.453 510.492 735.025C512.904 736.887 515.223 738.805 517.48 740.753C518.903 723.57 526.912 649.798 561.204 631.469L888.73 456.347C891.823 454.685 893.987 454.685 894.915 455.23C895.843 455.774 896.245 457.549 896.245 458.523V492.717L903.728 496.383V458.552C903.878 456.729 903.495 454.903 902.619 453.265C901.742 451.627 900.406 450.238 898.749 449.244Z" fill="#2D2B29"/>
<path d="M526.51 724.114C523.634 707.074 535.353 699.17 545.774 686.283L547.753 683.849C563.956 663.63 659.691 605.38 719.309 576.656C735.079 569.067 750.664 561.42 766.217 553.745C809.508 532.438 851.81 512.85 898.131 493.347L905.15 497.099C859.076 516.487 813.868 540.056 770.546 561.334C755.085 568.952 739.377 576.627 723.607 584.245C660.588 614.601 569.306 671.362 555.205 688.946L553.226 691.38C543.455 703.494 532.88 714.864 535.106 728.324L526.51 724.114Z" fill="#F0B324"/>
<path d="M797.634 109.709L793.614 107.562C788.543 104.698 781.493 105.099 773.36 109.452L777.38 111.6C785.513 107.247 792.563 106.989 797.634 109.709Z" fill="#FFDE38"/>
<path d="M797.634 109.709L793.614 107.562C790.19 105.762 786.153 105.239 782.328 106.101L786.317 108.249C790.154 107.425 794.186 107.945 797.634 109.709Z" fill="#FFDE38"/>
<path d="M786.317 108.306L782.328 106.101C779.167 106.746 776.139 107.858 773.36 109.394L777.38 111.542C780.15 110.022 783.168 108.929 786.317 108.306Z" fill="#FFDE38"/>
<path d="M777.38 111.6L773.36 109.452L737.645 128.467L741.634 130.615L777.38 111.6Z" fill="#FFDE38"/>
<path d="M741.634 130.615L737.645 128.467C712.629 141.842 688.417 164.122 669.215 191.472L673.235 193.648C692.437 166.241 716.618 143.989 741.634 130.615Z" fill="#FFDE38"/>
<path d="M741.634 130.615L737.645 128.467C721.633 137.294 707.135 148.289 694.633 161.086L698.622 163.234C711.131 150.444 725.628 139.45 741.634 130.615Z" fill="#FFDE38"/>
<path d="M698.622 163.377L694.633 161.23C685.273 170.673 676.771 180.817 669.215 191.557L673.235 193.734C680.763 182.974 689.255 172.819 698.622 163.377Z" fill="#FFDE38"/>
<path d="M673.235 193.562L669.215 191.414L588.818 305.824L592.837 307.972L673.235 193.562Z" fill="#FFDE38"/>
<path d="M741.634 130.615C716.618 143.989 692.437 166.27 673.235 193.619L627.965 255.507L659.567 272.203L688.015 257.024C699.659 264.468 710.65 272.751 720.886 281.797C730.802 290.661 740.097 300.102 748.715 310.062L803.045 141.899C812.477 116.64 798.593 100.259 777.38 111.6L741.634 130.615Z" fill="#F0B324"/>
<path d="M512.78 261.979C524.942 266.533 537.754 269.427 550.814 270.57C575.76 272.902 600.838 267.536 622.152 255.306C624.98 253.604 627.705 251.759 630.315 249.779L632.356 138.09C633.191 92.2688 586.189 70.0168 538.198 81.7299L422.395 137.975L460.491 234.286L513.059 214.926L512.688 261.979" fill="#F0B324"/>
<path d="M515.532 172.37C519.655 170.461 523.778 168.475 527.901 166.413C539.713 160.685 551.495 155.015 563.245 149.402C567.976 147.082 572.336 144.19 576.882 141.526L584.612 136.973C587.15 135.618 589.607 134.136 591.972 132.534C600.568 126.205 608.855 119.532 613.091 109.853C615.095 105.51 615.624 100.705 614.607 96.0776C596.734 80.0402 567.667 74.3985 538.167 81.7585L422.395 137.975L447.535 201.581C469.984 191.414 492.557 181.534 515.563 172.37" fill="#FFD138"/>
<path d="M619.894 239.297C606.219 248.359 590.235 253.975 573.511 255.593C558.421 257.397 535.663 237.522 520.944 233.513C514.419 231.708 510.708 234.2 509.503 244.681L509.132 279.935C508.946 298.206 523.727 308.573 542.744 313.528C604.217 329.365 632.418 293.481 632.727 287.123C632.974 281.567 633.314 226.095 633.314 226.095C629.573 220.826 626.666 219.365 625.738 220.368C622.059 224.205 624.13 236.204 619.554 239.355" fill="#F0B324"/>
<path d="M488.939 183.252C492.217 211.547 488.074 233.341 466.212 233.341C444.35 233.341 413.026 211.547 409.748 183.252C406.47 154.958 421.56 132.019 443.422 132.019C465.284 132.019 485.662 154.929 488.939 183.252Z" fill="#C68209"/>
<path d="M542.311 201.409C542.081 201.412 541.854 201.367 541.645 201.277C541.436 201.188 541.252 201.057 541.105 200.894C540.843 200.599 540.716 200.222 540.751 199.842C540.785 199.462 540.979 199.11 541.29 198.86C554.772 188.321 558.885 179.816 558.885 162.518C558.885 143.359 556.38 133.88 547.135 119.017C540.455 108.163 527.561 96.364 513.12 98.9701C512.919 99.0074 512.712 99.0073 512.511 98.9697C512.31 98.9322 512.119 98.8579 511.949 98.7513C511.779 98.6447 511.634 98.5078 511.522 98.3487C511.41 98.1896 511.333 98.0114 511.296 97.8246C511.256 97.642 511.255 97.4539 511.294 97.2711C511.333 97.0883 511.411 96.9145 511.523 96.7599C511.635 96.6053 511.78 96.4729 511.948 96.3705C512.116 96.2682 512.304 96.1978 512.502 96.1636C528.52 93.2997 542.589 105.872 549.794 117.556C559.349 133.078 561.977 142.729 561.977 162.49C561.977 180.589 557.432 189.954 543.269 201.037C542.992 201.253 542.643 201.375 542.28 201.38" fill="#FFD255"/>
<path d="M631.088 198.03C631.648 196.67 631.788 195.192 631.49 193.763C631.49 193.763 631.49 193.763 631.49 193.591C631.217 193.612 630.957 193.703 630.738 193.855C630.519 194.007 630.351 194.213 630.253 194.45C626.573 204.416 617.297 213.58 604.186 220.224C585.385 229.761 564.915 237.407 542.342 230.047L540.703 229.532C532.045 226.668 521.222 223.06 517.419 216.444C517.341 216.255 517.221 216.083 517.067 215.94C516.912 215.797 516.727 215.686 516.522 215.614C516.318 215.542 516.1 215.511 515.882 215.523C515.664 215.535 515.451 215.59 515.257 215.684C515.063 215.777 514.893 215.908 514.758 216.067C514.623 216.226 514.526 216.41 514.473 216.606C514.42 216.802 514.413 217.007 514.452 217.206C514.49 217.405 514.574 217.594 514.697 217.761C519.057 225.408 530.499 229.217 539.682 232.224L541.29 232.768C547.543 234.877 554.148 235.953 560.802 235.947C576.789 235.947 591.724 229.818 605.577 222.744C615.371 218.042 623.641 211.015 629.542 202.383C630.213 200.983 630.731 199.525 631.088 198.03Z" fill="#FFD255"/>
<path d="M514.666 238.295C523.046 252.614 555.422 259.344 586.993 253.044C596.318 251.304 605.284 248.2 613.555 243.851C624.594 237.808 631.088 230.133 631.057 222.544C631.984 223.657 632.645 224.94 632.997 226.308C633.348 227.675 633.383 229.096 633.098 230.477C633.098 238.095 624.625 246.543 613.586 252.586C605.315 256.935 596.349 260.038 587.024 261.778C555.453 268.079 521.036 261.492 512.811 247.058C511.522 244.9 510.831 242.48 510.801 240.013C511.141 235.804 511.636 232.911 513.12 231.708C512.985 233.993 513.519 236.269 514.666 238.295Z" fill="#FFD138"/>
<path d="M666.679 475.334C673.018 501.308 696.426 511.819 718.999 498.846C741.572 485.872 754.776 454.285 748.468 428.31C742.16 402.335 718.721 391.825 696.117 404.826C673.513 417.828 660.371 449.359 666.679 475.334Z" fill="#D28D05"/>
<path d="M674.441 470.866C679.543 491.915 698.529 500.449 716.835 489.939C735.141 479.429 745.84 453.826 740.707 432.663C735.574 411.499 716.587 403.108 698.313 413.618C680.038 424.129 669.308 449.76 674.441 470.866Z" fill="#3A3A46"/>
<path d="M698.312 413.733C704.211 410.059 711.387 408.577 718.412 409.58C724.036 414.365 727.843 420.702 729.266 427.651C734.399 448.671 723.7 474.274 705.394 484.784C699.495 488.458 692.319 489.94 685.294 488.937C679.67 484.152 675.864 477.815 674.441 470.866C669.308 449.76 680.007 424.243 698.312 413.733Z" fill="#3A5868"/>
<path d="M728.74 402.134L714.918 395.891C705.394 391.452 693.736 392.025 682.326 398.583C659.722 411.556 646.549 443.144 652.857 469.091C655.949 481.92 663.278 490.97 672.585 495.294L686.469 501.538C677.193 497.213 669.864 488.164 666.741 475.334C660.557 449.359 673.606 417.799 696.179 404.826C707.558 398.211 719.216 397.695 728.74 402.134Z" fill="#F0B324"/>
<path d="M594.105 28.7778L599.455 14.8883C599.729 14.1705 599.685 13.3811 599.331 12.6936C598.978 12.0062 598.344 11.477 597.569 11.2226C596.794 10.9681 595.941 11.0092 595.199 11.3368C594.457 11.6645 593.885 12.2517 593.61 12.9695L588.137 26.945C579.51 24.5107 569.955 23.7375 568.038 28.7205C567.018 31.3839 568.625 34.1904 572.862 37.0542C575.821 38.9988 579.018 40.6137 582.386 41.8655L581.644 43.8415C576.984 42.409 572.137 41.5614 567.234 41.3213C559.38 41.0922 556.782 43.6124 555.947 45.7603C555.112 47.9081 555.422 51.4879 561.637 55.8409C565.605 58.5037 569.929 60.6792 574.501 62.3132L564.822 87.4575C564.659 87.8906 564.61 88.3537 564.68 88.8078C564.75 89.262 564.937 89.6939 565.225 90.0672C565.513 90.4405 565.893 90.7443 566.334 90.953C566.775 91.1617 567.264 91.2692 567.76 91.2664C568.395 91.2662 569.015 91.0846 569.535 90.7464C570.055 90.4082 570.45 89.9298 570.666 89.3763L580.345 64.2606C585.278 65.7844 590.423 66.6428 595.62 66.8094C600.846 66.8094 604.897 65.5206 606.041 62.3132C606.876 60.1653 606.567 56.5855 600.352 52.2611C596.378 49.5829 592.043 47.3974 587.457 45.7603L588.23 43.7842C592.049 44.9405 596.026 45.5866 600.042 45.703C604.093 45.703 607.309 44.7006 608.329 42.0373C610.37 37.0542 602.454 32.0712 594.105 28.7778ZM574.655 30.7538C578.567 30.5622 582.483 31.0677 586.189 32.243L584.612 36.3383C580.948 35.1168 577.569 33.2605 574.655 30.8684V30.7538ZM561.977 47.5931C563.276 46.7626 569.708 46.2757 579.696 49.1109L576.603 56.8146C567.048 53.2635 562.41 49.1396 561.977 47.7077V47.5931ZM600.259 60.2798C598.96 61.1104 592.528 61.6258 582.54 58.762L585.633 51.0583C595.187 54.8099 599.826 58.9339 600.259 60.2798ZM590.425 38.3143L592.003 34.1904C595.689 35.4872 599.07 37.4321 601.959 39.9181C598.045 40.0991 594.13 39.5839 590.425 38.4002V38.3143Z" fill="#33312F"/>
<path d="M603.343 17.4475C608.282 15.2797 610.388 9.81482 608.047 5.24129C605.706 0.667755 599.806 -1.2825 594.867 0.885267C589.929 3.05303 587.823 8.51791 590.164 13.0914C592.505 17.665 598.405 19.6153 603.343 17.4475Z" fill="#93CC17"/>
<path d="M509.719 295.915C518.687 314.043 553.319 324.811 587.024 319.943C596.984 318.65 606.605 315.68 615.411 311.179C627.254 304.85 634.211 296.144 634.18 286.98V297.519C634.18 306.683 627.254 315.361 615.441 321.69C606.631 326.209 596.998 329.189 587.024 330.482C553.195 335.321 518.563 324.582 509.719 306.454C508.356 303.764 507.628 300.834 507.585 297.863V287.324C507.628 290.296 508.356 293.225 509.719 295.915Z" fill="#C68209"/>
<path d="M489.187 204.588L630.253 133.193C629.184 141.29 626.067 149.04 621.157 155.813C616.246 162.585 609.679 168.189 601.99 172.169C575.459 186.059 481.394 231.021 481.394 231.021L489.187 204.588Z" fill="#C68209"/>
<path d="M426.168 130.329L415.283 136.2C423.168 131.961 434.053 132.534 446.205 139.064L457.09 133.336C444.968 126.692 434.053 126.148 426.168 130.329Z" fill="#DDDDE5"/>
<path d="M446.112 138.978L456.997 133.25C455.884 132.677 454.801 132.133 453.719 131.646L442.835 137.374C443.917 137.861 444.999 138.405 446.112 138.978Z" fill="#DDDDE5"/>
<path d="M442.804 137.374L453.688 131.646C442.958 126.749 433.311 126.606 426.137 130.472L415.252 136.343C422.457 132.334 432.105 132.477 442.804 137.374Z" fill="#D1D1DA"/>
<path d="M476.447 233.971L487.331 228.243C495.124 224.033 499.917 215.155 499.978 202.469C499.978 201.266 499.978 200.063 499.978 198.832L489.094 204.702C489.094 205.934 489.094 207.137 489.094 208.339C489.187 220.912 477.375 231.078 476.447 233.971Z" fill="#B8B8C3"/>
<path d="M489.187 204.588L500.071 198.86C499.382 190.373 497.177 182.05 493.547 174.231L482.662 180.102C486.276 187.876 488.481 196.149 489.187 204.588Z" fill="#D1D1DA"/>
<path d="M482.631 179.959L493.516 174.088C489.184 164.463 483.189 155.554 475.767 147.712L464.851 153.44C472.288 161.288 478.293 170.207 482.631 179.844" fill="#DDDDE5"/>
<path d="M464.851 153.555L475.767 147.827C470.393 142.061 464.056 137.13 456.997 133.221L446.112 138.949C453.155 142.856 459.48 147.776 464.851 153.526" fill="#DDDDE5"/>
<path d="M468.253 134.424L508.451 117.843L533.467 107.476C537.456 105.843 539.311 105.471 540.857 101.462C541.829 98.1734 541.935 94.7173 541.165 91.3835C540.396 88.0497 538.774 84.9356 536.436 82.3026C532.663 78.4078 520.14 74.3412 514.481 76.575L450.039 103.237C451.634 102.78 453.331 102.72 454.959 103.062C456.587 103.403 458.09 104.135 459.316 105.185C463.015 107.811 466.068 111.135 468.275 114.936C470.482 118.738 471.792 122.93 472.118 127.236C472.314 128.633 472.064 130.053 471.399 131.32C470.734 132.587 469.683 133.646 468.376 134.367" fill="#C68209"/>
<path d="M471.747 124.372L482.755 119.876C487.795 117.327 492.897 114.922 498.216 112.716C503.934 110.234 509.822 108.1 515.842 106.33L528.365 101.003C530.635 99.6869 532.786 98.2024 534.797 96.5645C536.881 94.8818 538.224 92.5473 538.569 90.0063C538.482 89.0416 538.316 88.0843 538.074 87.1425C537.981 86.8233 538.017 86.4835 538.177 86.1877C538.337 85.8919 538.608 85.6609 538.94 85.5388C538.285 84.3445 537.475 83.2289 536.528 82.2167C532.756 78.3219 520.232 74.2553 514.574 76.4891L450.039 103.237C451.634 102.78 453.331 102.72 454.959 103.062C456.587 103.403 458.09 104.135 459.316 105.185C465.889 109.923 470.356 116.73 471.87 124.315" fill="#F0B324"/>
<path d="M450.874 102.922C452.473 102.481 454.168 102.431 455.794 102.777C457.42 103.123 458.921 103.854 460.151 104.898C463.849 107.524 466.903 110.848 469.11 114.65C471.317 118.452 472.627 122.644 472.953 126.95C473.149 128.347 472.899 129.766 472.234 131.034C471.569 132.301 470.518 133.36 469.211 134.081L464.882 135.856C466.198 135.144 467.255 134.086 467.922 132.817C468.588 131.547 468.832 130.123 468.624 128.725C468.304 124.418 466.996 120.224 464.789 116.422C462.582 112.619 459.525 109.296 455.822 106.674C454.595 105.625 453.093 104.893 451.465 104.551C449.837 104.209 448.14 104.269 446.545 104.726L450.874 102.922Z" fill="#D1D1DA"/>
<path d="M464.758 135.856L469.087 134.081C470.394 133.36 471.445 132.301 472.11 131.034C472.775 129.766 473.025 128.347 472.829 126.95C472.829 126.577 472.829 126.234 472.829 125.861L468.5 127.637C468.5 128.009 468.5 128.353 468.5 128.725C468.708 130.123 468.464 131.547 467.798 132.817C467.132 134.086 466.074 135.144 464.758 135.856Z" fill="#B8B8C3"/>
<path d="M466.521 120.105L470.85 118.33C469.564 115.242 467.793 112.346 465.593 109.738L461.264 111.514C463.457 114.126 465.228 117.02 466.521 120.105Z" fill="#EDECF8"/>
<path d="M450.874 102.922C452.254 102.523 453.717 102.439 455.139 102.679C456.561 102.918 457.898 103.473 459.038 104.297L454.74 106.072C453.597 105.245 452.252 104.689 450.823 104.455C449.395 104.22 447.926 104.313 446.545 104.726L450.874 102.922Z" fill="#B8B8C3"/>
<path d="M442.092 112.315C442.159 116.378 443.633 120.314 446.298 123.542C447.959 125.616 450.046 127.367 452.439 128.694C454.832 130.021 457.484 130.898 460.244 131.274C462.982 131.64 465.775 131.374 468.376 130.501C468.426 129.91 468.426 129.316 468.376 128.725C468.056 124.418 466.749 120.224 464.542 116.422C462.334 112.619 459.277 109.296 455.574 106.674C454.424 105.753 453.068 105.078 451.604 104.696C450.139 104.315 448.602 104.238 447.102 104.469H446.762C445.557 104.864 444.414 105.403 443.36 106.072C442.482 108.051 442.05 110.176 442.092 112.315Z" fill="#FFD138"/>
<path d="M436.774 118.358C436.926 122.981 438.822 127.409 442.132 130.873C445.442 134.336 449.958 136.616 454.894 137.317C458.14 137.752 461.452 137.293 464.418 135.999C464.882 135.799 465.284 135.57 465.717 135.341C466.489 134.741 467.123 134.004 467.58 133.172C468.037 132.34 468.308 131.432 468.376 130.501C468.426 129.91 468.426 129.316 468.376 128.725C468.056 124.418 466.749 120.224 464.542 116.422C462.334 112.619 459.277 109.296 455.574 106.674C454.424 105.753 453.068 105.078 451.604 104.696C450.139 104.315 448.602 104.238 447.102 104.469H446.762C445.557 104.864 444.414 105.403 443.36 106.072C441.24 107.446 439.526 109.291 438.375 111.437C437.225 113.584 436.674 115.963 436.774 118.358Z" fill="#3A3A46"/>
<path d="M442.804 111.829C442.977 115.921 444.173 119.921 446.298 123.513C448.503 127.574 451.675 131.119 455.574 133.88C456.758 134.852 458.175 135.548 459.708 135.912C461.241 136.276 462.845 136.296 464.387 135.971C464.851 135.808 465.288 135.587 465.686 135.312C466.458 134.713 467.092 133.975 467.549 133.143C468.006 132.312 468.277 131.403 468.345 130.472C468.395 129.881 468.395 129.288 468.345 128.697C468.025 124.39 466.718 120.195 464.511 116.393C462.303 112.591 459.246 109.268 455.543 106.645C454.393 105.724 453.037 105.049 451.573 104.668C450.108 104.287 448.571 104.209 447.071 104.44H446.731C444.35 105.5 442.804 107.991 442.804 111.829Z" fill="#3A5868"/>
<path d="M454.183 119.389C456.069 122.253 460.058 123.943 462.192 122.883C464.325 121.823 461.233 119.704 459.316 116.84C457.399 113.977 457.461 111.514 455.327 112.545C454.746 112.909 454.252 113.38 453.876 113.929C453.5 114.478 453.251 115.093 453.143 115.736C453.036 116.378 453.073 117.034 453.252 117.663C453.431 118.291 453.748 118.879 454.183 119.389Z" fill="#49667A"/>
<path d="M751.251 121.136C752.873 121.96 754.664 122.458 756.508 122.597C756.848 125.094 756.941 127.615 756.786 130.128C759.878 128.582 762.97 127.551 765.846 125.804C766.809 123.107 767.29 120.282 767.269 117.442C767.24 116.153 766.852 114.893 766.142 113.784C765.432 112.675 764.425 111.755 763.218 111.113C762.192 110.704 761.088 110.49 759.971 110.483C758.52 110.437 757.074 110.667 755.723 111.16C754.372 111.652 753.145 112.397 752.117 113.346C750.076 115.208 750.663 118.501 751.251 121.136Z" fill="#F0B324"/>
<path d="M704.93 418.802C707.278 417.675 709.892 417.104 712.537 417.141C713.853 417.172 715.141 417.505 716.285 418.11C717.429 418.715 718.393 419.572 719.092 420.606C719.725 421.771 720.063 423.054 720.082 424.358C720.227 425.318 720.16 426.296 719.883 427.232C719.607 428.167 719.127 429.041 718.474 429.799C717.173 430.854 715.554 431.514 713.835 431.689C709.475 432.434 704.559 432.491 701.467 435.211C698.374 437.932 697.57 441.999 694.88 444.948C694.454 445.501 693.9 445.958 693.257 446.285C692.615 446.612 691.902 446.802 691.17 446.839C688.479 446.839 687.15 443.631 687.521 441.111C688.201 436.348 690.148 431.816 693.186 427.922C696.225 424.029 700.26 420.894 704.93 418.802Z" fill="#49667A"/>
<path d="M553.474 157.65C548.619 159.912 543.579 161.86 538.631 163.95C534.333 165.783 529.973 167.587 525.551 169.191C526.108 169.727 526.447 170.425 526.51 171.167C526.531 172.077 526.214 172.967 525.613 173.687L525.273 174.002L525.025 174.289L524.747 174.46L529.324 177.324C536.524 174.901 543.297 171.504 549.423 167.244C551.965 165.623 554.263 163.697 556.257 161.516C557.086 160.71 557.683 159.723 557.991 158.647C558.299 157.57 558.309 156.44 558.019 155.359C556.553 156.202 555.035 156.967 553.474 157.65Z" fill="#C68209"/>
<path d="M557.37 154.299C556.616 153.745 555.745 153.344 554.812 153.122C553.88 152.9 552.908 152.862 551.958 153.01C540.97 153.539 530.206 156.09 520.294 160.514L522.892 167.788C523.803 167.876 524.665 168.215 525.366 168.761C526.051 169.336 526.463 170.14 526.51 170.995C526.531 171.906 526.214 172.795 525.613 173.515L525.273 173.83L525.025 174.117L524.747 174.289L529.54 176.866C536.661 174.506 543.362 171.176 549.423 166.986C551.965 165.365 554.263 163.439 556.257 161.258C558.05 159.225 559.349 156.046 557.37 154.127" fill="#F0B324"/>
<path d="M520.294 160.685C520.612 162.618 521.056 164.53 521.624 166.413C521.624 166.785 521.995 168.361 522.181 168.704C522.366 169.048 524.994 167.874 525.86 170.107C527.004 172.971 524.098 173.573 524.221 174.26C524.321 174.878 524.589 175.462 525 175.957C525.412 176.451 525.953 176.841 526.573 177.087C527.192 177.334 527.87 177.43 528.54 177.366C529.211 177.302 529.853 177.081 530.406 176.723C531.91 175.85 533.205 174.699 534.209 173.344C535.229 172.017 535.81 170.444 535.882 168.817C535.953 167.19 535.512 165.578 534.611 164.179C531.859 160.399 525.922 160.199 521.098 161.315" fill="#C68209"/>
<path d="M548.99 155.187C549.547 154.986 550.196 154.7 550.381 154.185C541.625 154.407 533.004 156.247 525.025 159.597C529.2 159.597 531.705 161.144 532.911 160.857C538.371 159.222 543.738 157.329 548.99 155.187Z" fill="#FFD255"/>
<path d="M553.443 722.195V722.367C553.257 722.539 553.103 722.739 552.917 722.94L553.597 722.195" fill="#FFD255"/>
<path d="M700.322 623.565C650.333 644.066 604.04 671.555 563.06 705.069C560.003 707.257 556.731 709.175 553.288 710.797L560.926 714.864C569.533 707.174 578.903 700.251 588.91 694.187C605.515 682.188 627.718 667.296 656.351 650.256C670.297 641.292 684.552 632.5 700.322 623.622" fill="#FFF670"/>
<path d="M555.978 719.933C555.453 720.42 554.927 720.849 554.463 721.25L553.999 721.708L553.319 722.453C552.685 723.192 552.117 723.978 551.618 724.801C552.129 724.714 552.583 724.447 552.886 724.057C554.029 722.388 555.29 720.79 556.659 719.274L555.978 719.933ZM656.351 650.227C627.718 667.267 605.515 682.159 588.91 694.158C594.414 690.664 599.826 687.342 604.65 684.192C622.956 672.279 639.437 661.11 656.351 650.227Z" fill="#FFEA44"/>
<path d="M552.639 723.112C552.551 723.174 552.477 723.252 552.422 723.341C551.934 723.948 551.479 724.579 551.062 725.231C551.062 725.231 551.062 725.374 551.062 725.46C551.56 724.636 552.129 723.851 552.762 723.112" fill="#FFFB73"/>
<path d="M524.933 86.8561C524.272 86.8524 523.619 86.9793 523.015 87.2284L465.593 109.881C467.869 112.442 469.648 115.349 470.85 118.473L526.912 95.5621C527.869 95.1037 528.638 94.3665 529.099 93.4639C529.56 92.5613 529.688 91.5434 529.463 90.5668C529.238 89.5903 528.673 88.7093 527.854 88.0595C527.036 87.4097 526.009 87.0271 524.933 86.9707" fill="#FFF15B"/>
<path d="M486.095 342.051C485.438 342.052 484.787 342.169 484.177 342.395L456.069 354.509C458.234 356.886 465.346 357.201 466.737 360.437L488.074 350.757C489.031 350.299 489.8 349.562 490.261 348.659C490.722 347.756 490.85 346.739 490.625 345.762C490.4 344.786 489.835 343.905 489.016 343.255C488.197 342.605 487.171 342.222 486.095 342.166" fill="#FFF15B"/>
<path d="M544.537 115.179L472.458 144.19C474.653 146.567 477.405 149.23 479.508 151.75L549.577 123.112C548.835 121.795 548 120.42 547.135 119.017C546.269 117.614 545.496 116.468 544.537 115.179ZM577.438 102.464C576.554 102.47 575.68 102.645 574.872 102.979L547.444 114.005C548.31 115.208 549.114 116.411 549.825 117.585C550.536 118.759 551.618 120.449 552.422 121.967L581.334 110.139C581.711 109.285 581.878 108.365 581.825 107.444C581.772 106.522 581.498 105.624 581.025 104.812V104.211C580.65 103.649 580.12 103.191 579.489 102.884C578.858 102.577 578.15 102.432 577.438 102.464Z" fill="#FFF76A"/>
<path d="M547.444 114.005L544.537 115.179C545.496 116.468 546.362 117.728 547.135 119.017C547.908 120.306 548.835 121.881 549.577 123.112L552.422 121.967C551.618 120.535 550.753 119.103 549.825 117.585C548.897 116.067 548.31 115.208 547.444 114.005Z" fill="#FFF670"/>
<path d="M633.283 258.8C633.283 260.49 633.283 262.179 633.283 263.84C638.231 266.217 676.358 284.66 679.667 290.245C682.975 295.829 617.822 331.112 590.642 343.884C579.723 349.47 569.319 355.878 559.534 363.043L694.231 291.018L633.283 258.8Z" fill="#FFF76A"/>
<path d="M632.727 258.485V263.611L633.253 263.869C633.253 262.208 633.253 260.518 633.253 258.829L632.696 258.514" fill="#FFF15B"/>
<path d="M586.065 542.748L576.789 547.731V578.632L587.642 572.904C588.342 562.829 587.813 552.713 586.065 542.748Z" fill="#877442"/>
<path d="M493.299 422.382V434.295L516.769 446.953L527.314 441.226V440.51L493.299 422.353V422.382ZM417.695 363.358C410.024 363.307 402.406 364.549 395.215 367.024H395.586C378.671 380.112 368.714 403.051 369.24 434.009C369.704 460.184 377.589 488.421 390.7 514.969L446.514 484.842L427.961 474.904C426.199 473.959 425.302 471.725 425.982 468.518C426.225 467.493 426.556 466.487 426.972 465.511L427.25 464.881C427.606 464.148 428.02 463.439 428.487 462.761C428.96 462.052 429.498 461.381 430.095 460.757C432.349 458.501 434.954 456.571 437.825 455.029C438.506 454.628 439.217 454.256 439.928 453.884C442.371 452.566 445.03 451.22 447.875 449.731L449.699 448.757C452.792 447.182 457.121 444.977 461.852 442.629L474.22 436.586L485.414 431.145V418.258L480.776 415.795C479.285 414.992 478.097 413.783 477.372 412.334C476.647 410.884 476.422 409.263 476.725 407.69C478.797 397.294 479.817 389.763 480.467 384.15C476.344 381.591 472.221 379.252 468.098 377.133C449.978 367.854 432.909 363.473 417.726 363.473" fill="#877442"/>
<path d="M537.58 478.398C536.735 478.966 535.857 479.492 534.951 479.973C529.942 482.636 519.49 486.875 514.295 489.681C506.527 493.918 499.125 498.705 492.155 504.001C491.659 504.373 491.132 504.708 490.578 505.003C490.203 505.213 489.81 505.395 489.403 505.547V531.78L513.491 518.892C513.246 517.71 513.246 516.495 513.491 515.313C513.742 514.336 514.073 513.379 514.481 512.449L514.759 511.79C515.116 511.066 515.529 510.367 515.996 509.7C516.469 508.99 517.007 508.319 517.604 507.695C519.858 505.439 522.464 503.509 525.335 501.967L527.437 500.793L535.384 496.669L537.209 495.695L537.487 495.552V478.369" fill="#877442"/>
<path d="M576.943 578.632L535.261 556.208V532.324L572.367 552.37C571.997 552.172 571.663 551.921 571.377 551.626C570.58 550.637 570.176 549.423 570.233 548.189C570.205 547.789 570.205 547.387 570.233 546.986C570.451 545.959 570.772 544.952 571.192 543.979L571.47 543.349L571.78 542.748C572.058 542.261 572.367 541.774 572.676 541.345C573.544 540.115 574.583 538.998 575.768 538.023C576.742 537.204 577.775 536.448 578.861 535.76L580.098 535.016L583.19 533.269C582.262 529.059 581.18 524.849 580.098 520.611C578.613 515.484 577.005 510.358 574.995 505.261C572.985 500.163 570.666 494.407 568.162 489.023C567.265 487.018 566.306 485.042 565.317 483.066C558.022 468.371 549.285 454.327 539.219 441.111L534.487 443.631V461.33C534.457 461.657 534.331 461.97 534.124 462.237C533.918 462.504 533.637 462.715 533.312 462.847C532.454 463.26 531.497 463.467 530.529 463.449C529.563 463.463 528.607 463.257 527.747 462.847C527.428 462.719 527.153 462.512 526.952 462.25C526.75 461.987 526.629 461.679 526.602 461.358V441.168L516.058 446.896L492.588 434.238V437.102C492.557 437.429 492.432 437.742 492.225 438.01C492.018 438.277 491.738 438.487 491.413 438.619C490.556 439.036 489.598 439.243 488.63 439.221C487.663 439.236 486.707 439.029 485.847 438.619C485.531 438.488 485.258 438.281 485.056 438.019C484.855 437.757 484.733 437.45 484.703 437.13V431.116L473.509 436.557L461.14 442.6C456.409 444.948 451.864 447.154 448.988 448.729L447.164 449.702C444.319 451.192 441.659 452.566 439.217 453.855C438.505 454.227 437.794 454.6 437.114 455C434.243 456.542 431.637 458.473 429.383 460.728C428.786 461.352 428.249 462.023 427.776 462.733C427.309 463.411 426.895 464.119 426.539 464.852L426.26 465.482C425.845 466.459 425.514 467.464 425.271 468.489C424.591 471.697 425.487 473.93 427.25 474.875L445.803 484.813L389.989 514.94C391.081 517.117 392.195 519.293 393.328 521.47L557.215 609.046C565.461 604.005 574.346 598.755 583.87 593.294C585.584 586.563 586.619 579.698 586.962 572.79L576.943 578.632ZM525.427 501.996C522.557 503.537 519.951 505.468 517.697 507.723C517.1 508.348 516.562 509.018 516.089 509.728C515.622 510.396 515.209 511.095 514.852 511.819L514.574 512.477C514.166 513.407 513.835 514.365 513.584 515.341C513.339 516.524 513.339 517.739 513.584 518.921L489.496 531.808L447.813 509.385V485.5L484.919 505.547C484.158 505.039 483.558 504.352 483.183 503.555C482.807 502.759 482.67 501.884 482.786 501.022C482.786 500.678 482.786 500.335 482.94 499.962C483.158 498.935 483.479 497.928 483.899 496.955L484.177 496.325C484.268 496.12 484.371 495.919 484.487 495.724C484.765 495.237 485.074 494.75 485.383 494.321C486.142 493.279 487.023 492.318 488.012 491.457H488.166C489.144 490.669 490.177 489.942 491.259 489.28L492.433 488.536L494.66 487.19H495.711L495.99 487.047C498.432 485.758 501.123 484.412 503.936 482.894L505.947 481.835C509.039 480.259 513.399 478.054 518.099 475.735L541.569 464.279C541.915 464.12 542.295 464.032 542.682 464.022C542.906 463.976 543.138 463.976 543.362 464.022C543.649 464.182 543.886 464.409 544.049 464.68C544.212 464.952 544.295 465.258 544.29 465.568C544.649 468.492 544.139 471.451 542.815 474.126C541.491 476.801 539.402 479.09 536.776 480.746V497.929L536.497 498.072L534.673 499.046L526.726 503.17L525.427 501.996Z" fill="#44515A"/>
<path d="M394.04 521.498L557.927 609.074C544.506 617.265 532.632 624.911 522.242 631.985C510.652 629.524 499.515 625.501 489.187 620.043C450.534 600.368 416.025 563.081 394.04 521.498ZM518.996 473.272C514.295 475.591 509.904 477.797 506.843 479.372L504.833 480.431C502.019 481.949 499.329 483.295 496.886 484.584L496.608 484.727H495.155C492.898 485.97 490.766 487.398 488.785 488.994H488.63C487.642 489.855 486.76 490.816 486.002 491.858C485.693 492.287 485.383 492.774 485.105 493.261C484.989 493.456 484.886 493.657 484.796 493.863L484.518 494.493C484.097 495.465 483.776 496.472 483.559 497.5C483.559 497.872 483.559 498.216 483.404 498.559C483.289 499.421 483.426 500.296 483.801 501.093C484.177 501.889 484.777 502.577 485.538 503.084C486.197 503.431 486.944 503.609 487.703 503.6C488.521 503.594 489.33 503.439 490.084 503.141C490.49 502.989 490.883 502.807 491.259 502.597C491.812 502.303 492.34 501.967 492.836 501.595C499.805 496.3 507.207 491.512 514.976 487.276C520.232 484.412 530.622 480.231 535.632 477.567C536.537 477.086 537.415 476.56 538.26 475.992C540.887 474.336 542.975 472.047 544.299 469.372C545.623 466.697 546.133 463.738 545.774 460.814C545.774 459.754 545.063 459.124 544.166 459.124C543.779 459.135 543.4 459.223 543.053 459.382L531.952 464.795L518.996 473.272ZM480.776 415.709L485.414 418.172V437.273C485.445 437.594 485.567 437.9 485.768 438.162C485.969 438.424 486.242 438.631 486.558 438.763C487.418 439.172 488.374 439.379 489.341 439.364C490.309 439.386 491.267 439.179 492.124 438.763C492.449 438.63 492.73 438.42 492.936 438.153C493.143 437.886 493.268 437.572 493.299 437.245V422.382L527.314 440.538V459.669C527.341 459.99 527.461 460.298 527.663 460.56C527.864 460.822 528.139 461.029 528.458 461.158C529.318 461.567 530.274 461.774 531.241 461.759C532.208 461.777 533.165 461.571 534.024 461.158C534.348 461.025 534.629 460.815 534.836 460.548C535.042 460.281 535.168 459.967 535.199 459.64V441.941L539.93 439.421C538.198 437.149 536.436 434.916 534.642 432.72C530.406 427.508 525.953 422.467 521.346 417.656L520.634 416.912C508.76 404.459 495.256 393.424 480.436 384.064C479.848 389.791 478.766 397.209 476.694 407.604C476.393 409.18 476.624 410.803 477.354 412.253C478.085 413.703 479.279 414.91 480.776 415.709ZM584.025 531.579C581.385 532.944 578.89 534.536 576.572 536.333C575.387 537.309 574.348 538.426 573.48 539.655C573.171 540.085 572.862 540.571 572.584 541.058L572.274 541.66L571.996 542.29C571.576 543.262 571.255 544.269 571.037 545.297C571.009 545.697 571.009 546.099 571.037 546.5C570.98 547.733 571.384 548.947 572.181 549.936C572.565 550.345 573.041 550.669 573.575 550.887C574.11 551.105 574.69 551.211 575.274 551.196C576.092 551.191 576.902 551.035 577.655 550.738C578.061 550.586 578.454 550.404 578.83 550.194C579.383 549.899 579.911 549.564 580.407 549.192C582.2 547.817 584.55 546.099 587.271 544.237C586.158 540.591 585.076 536.371 584.025 531.579Z" fill="#3B4952"/>
<path d="M390.669 564.943C385.938 567.32 381.114 569.697 376.29 572.074C395.648 597.848 418.344 619.813 443.206 632.214C456.935 639.058 488.043 652.977 501.494 648.824C498.402 649.769 484.425 642.867 475.89 639.345C442.866 625.742 413.088 596.645 390.669 564.885" fill="#877442"/>
<path d="M343.297 439.249L340.204 441.054C337.898 455.977 337.784 471.121 339.864 486.073C343.142 484.068 346.512 482.092 349.976 480.03C346.312 466.675 344.105 453.013 343.389 439.249H343.297ZM343.389 425.79C343.049 427.107 342.709 428.453 342.4 429.77L343.297 429.283C343.297 428.109 343.297 426.935 343.297 425.79" fill="#A49B5D"/>
<path d="M350.037 480.03C346.574 482.092 343.204 484.068 339.926 486.073C344.486 517.008 357.011 546.475 376.445 571.988C381.269 569.611 386.093 567.234 390.824 564.857C372.258 538.864 358.475 510.2 350.037 480.03Z" fill="#877442"/>
<path d="M343.173 429.283L342.276 429.77C341.41 433.55 340.699 437.302 340.112 441.054L343.204 439.249C343.204 436.844 343.049 434.467 343.049 432.09C343.049 431.145 343.049 430.228 343.049 429.226" fill="#9C8C4F"/>
<path d="M447.751 509.356L489.434 531.78V505.547C488.681 505.844 487.872 506 487.053 506.005C486.295 506.014 485.548 505.837 484.889 505.49L447.782 485.443L447.751 509.356Z" fill="#9C8C4F"/>
<path d="M574.532 552.857C573.743 552.856 572.971 552.647 572.305 552.256L535.199 532.209V556.093L576.943 578.632V552.399C576.181 552.7 575.361 552.856 574.532 552.857Z" fill="#9C8C4F"/>
<path d="M467.943 371.091C448.864 361.325 430.837 356.771 414.881 356.771C403.24 356.511 391.756 359.3 381.751 364.818C371.745 370.335 363.625 378.356 358.325 387.958C351.738 400.005 346.684 412.72 343.266 425.847C343.266 426.992 343.266 428.166 343.266 429.341C343.266 430.515 343.266 431.202 343.266 432.204C343.266 434.581 343.266 436.958 343.42 439.364C344.154 453.09 346.371 466.714 350.037 480.03C358.466 510.23 372.248 538.924 390.824 564.943C413.242 596.645 441.969 623.823 473.262 640.548C476.354 642.151 479.168 643.612 482.106 644.958C487.545 646.409 493.068 647.576 498.649 648.452C501.741 646.189 505.081 643.784 508.637 641.292C512.904 638.428 517.449 635.164 522.335 631.899C510.718 629.474 499.549 625.479 489.187 620.043C450.689 600.368 416.18 563.081 394.194 521.498C393.04 519.322 391.927 517.145 390.855 514.969C377.744 488.307 369.859 460.184 369.395 434.009C368.869 403.051 378.826 380.112 395.74 367.024H395.369C402.561 364.549 410.178 363.307 417.85 363.358C433.032 363.358 450.101 367.74 468.222 377.019C472.345 379.138 476.468 381.477 480.59 384.035C495.411 393.396 508.915 404.43 520.789 416.883L521.5 417.628C526.108 422.439 530.56 427.479 534.797 432.691C536.59 434.887 538.353 437.121 540.084 439.393C550.093 452.587 558.777 466.602 566.028 481.262C567.018 483.238 567.976 485.214 568.873 487.219C571.388 492.602 573.666 498.015 575.707 503.456C577.593 508.554 579.324 513.68 580.809 518.807C582.015 523.045 583.097 527.255 583.901 531.465C584.952 536.257 585.787 541.03 586.406 545.784C587.179 551.485 587.623 557.221 587.735 562.967C587.735 566.317 587.735 569.582 587.55 572.732C587.207 579.641 586.172 586.506 584.458 593.237L592.745 588.541C593.878 581.469 594.405 574.325 594.322 567.176C592.899 493.834 536.374 406.058 467.943 371.091Z" fill="#9C8C4F"/>
<path d="M370.755 503.313C359.16 473.043 371.126 438.562 392.401 413.189C398.585 405.714 405.697 398.87 410.428 390.278C412.995 385.782 414.819 380.398 412.717 375.701C411.29 373.149 409.021 371.084 406.241 369.807C403.461 368.53 400.313 368.107 397.255 368.599C391.15 369.736 385.576 372.597 381.3 376.789C366.612 389.734 359.098 408.292 356.748 427.05C354.398 445.808 356.748 464.537 359.221 483.152C359.564 487.062 360.763 490.866 362.746 494.333C364.729 497.799 367.455 500.855 370.755 503.313Z" fill="#D6F1F2"/>
<path d="M861.086 229.532L860.035 229.016L858.272 230.964L861.086 232.396C897.667 251.955 927.259 299.438 927.167 338.357C927.074 377.276 897.791 392.77 861.704 373.983C861.689 374.224 861.615 374.459 861.488 374.67L860.375 376.159H860.653C898.749 396.55 929.702 380.197 929.826 339.646C929.949 299.094 899.213 249.922 861.086 229.532Z" fill="#F0B324"/>
<path d="M446.112 138.978C422.179 126.205 402.821 136.458 402.667 161.888C402.512 187.319 421.9 218.334 445.958 231.136C470.015 243.937 489.248 233.656 489.248 208.225C489.248 182.794 470.015 151.922 446.112 138.978Z" fill="#9D9DAF"/>
<path d="M409.408 202.841C423.106 227.04 449.607 239.126 468.871 229.818C469.712 229.412 470.527 228.963 471.314 228.472C474.153 227.124 476.632 225.206 478.568 222.857C480.505 220.509 481.851 217.789 482.508 214.898C483.387 211.766 483.814 208.54 483.775 205.304C483.775 183.052 466.985 155.989 446.081 144.82C440.961 141.873 435.099 140.214 429.074 140.009H428.549C425.301 139.945 422.096 140.698 419.272 142.185C400.1 151.521 395.709 178.67 409.408 202.841Z" fill="#3A3A46"/>
<path d="M427.064 189.61C439.835 210.316 464.171 221.112 482.508 214.898C483.387 211.766 483.814 208.54 483.775 205.304C483.775 183.052 466.985 155.989 446.081 144.82C440.961 141.873 435.099 140.214 429.074 140.009C417.015 150.891 415.685 171.196 427.064 189.61Z" fill="#3A5868"/>
<path d="M438.073 186.918C445.71 198.001 462.223 203.356 471.221 198.03C480.219 192.703 467.449 185.143 459.811 174.031C452.173 162.919 452.513 152.552 443.546 157.85C438.661 161.035 435.341 165.885 434.315 171.335C433.289 176.786 434.64 182.39 438.073 186.918Z" fill="#49667A"/>
<path d="M124.925 379.567L105.97 369.802L124.925 358.662L141.963 365.792L124.925 379.567Z" fill="#D28D05"/>
<path d="M402.605 237.837C402.06 237.839 401.524 237.707 401.052 237.456C400.58 237.205 400.187 236.842 399.915 236.405C399.71 236.078 399.578 235.717 399.525 235.342C399.472 234.968 399.499 234.587 399.605 234.223C399.712 233.858 399.895 233.516 400.144 233.218C400.394 232.919 400.705 232.669 401.059 232.482L526.788 166.184C527.141 165.995 527.531 165.872 527.935 165.823C528.34 165.773 528.75 165.799 529.144 165.897C529.538 165.996 529.907 166.165 530.23 166.397C530.552 166.628 530.822 166.915 531.024 167.244C531.227 167.572 531.358 167.935 531.409 168.311C531.46 168.686 531.43 169.068 531.321 169.432C531.211 169.797 531.025 170.138 530.773 170.436C530.52 170.734 530.206 170.982 529.849 171.167L404.151 237.465C403.68 237.712 403.147 237.84 402.605 237.837Z" fill="url(#paint0_linear_316_780)"/>
<path d="M407.831 241.646C407.47 241.472 407.075 241.366 406.669 241.334C406.264 241.302 405.855 241.344 405.468 241.459C405.08 241.573 404.72 241.757 404.409 242.001C404.098 242.244 403.843 242.542 403.656 242.877L401.646 246.4C400.719 247.975 399.853 249.493 399.018 251.01L398.121 251.497L397.75 251.182L397.317 250.753C399.937 247.745 401.739 244.2 402.574 240.414C402.976 239.126 403.44 237.722 403.996 236.147C404.115 235.786 404.078 235.397 403.894 235.061C403.709 234.724 403.392 234.467 403.007 234.343C402.814 234.281 402.61 234.255 402.406 234.268C402.203 234.281 402.004 234.331 401.822 234.417C401.64 234.503 401.479 234.621 401.348 234.766C401.217 234.911 401.118 235.079 401.059 235.259C400.471 236.835 400.038 238.266 399.606 239.612C398.883 242.852 397.394 245.904 395.246 248.548C392.236 244.947 390.363 240.645 389.834 236.119C390.376 234.639 390.759 233.114 390.978 231.565C391.017 231.239 390.934 230.91 390.743 230.634C390.552 230.357 390.263 230.15 389.927 230.047C389.947 229.667 389.804 229.296 389.529 229.014C389.253 228.732 388.868 228.563 388.458 228.544C388.048 228.525 387.647 228.657 387.342 228.913C387.038 229.168 386.855 229.524 386.835 229.904C386.573 231.803 386.522 233.723 386.68 235.632C385.66 238.321 384.223 240.858 382.413 243.164C381.371 239.056 380.76 234.865 380.589 230.649C380.589 230.269 380.426 229.905 380.136 229.636C379.846 229.368 379.453 229.217 379.042 229.217C378.632 229.217 378.239 229.368 377.949 229.636C377.659 229.905 377.496 230.269 377.496 230.649C377.707 235.817 378.547 240.947 380.001 245.941C378.066 248.027 376.001 250.006 373.817 251.87C372.232 246.929 370.279 242.097 367.972 237.407C369.673 235.775 371.343 234.085 372.951 232.367C373.095 232.228 373.208 232.062 373.282 231.882C373.356 231.701 373.389 231.508 373.38 231.315C373.372 231.122 373.321 230.932 373.231 230.758C373.141 230.584 373.014 230.428 372.857 230.3C372.7 230.172 372.517 230.075 372.319 230.015C372.121 229.954 371.912 229.932 371.704 229.948C371.496 229.965 371.293 230.02 371.109 230.111C370.925 230.202 370.763 230.326 370.632 230.477C369.271 231.909 367.88 233.341 366.488 234.715C365.465 232.97 364.308 231.295 363.025 229.704C362.916 229.53 362.768 229.379 362.592 229.261C362.416 229.143 362.215 229.062 362.002 229.021C361.789 228.98 361.569 228.981 361.357 229.024C361.145 229.067 360.945 229.151 360.77 229.27C360.595 229.39 360.45 229.542 360.342 229.717C360.235 229.892 360.169 230.086 360.149 230.286C360.128 230.487 360.153 230.689 360.223 230.88C360.292 231.07 360.404 231.245 360.551 231.393C361.929 233.125 363.159 234.954 364.231 236.863C362.004 238.954 359.747 240.987 357.428 242.963L356.222 241.245C354.037 238.639 352.476 235.632 351.645 232.424C351.615 232.238 351.546 232.059 351.441 231.898C351.336 231.736 351.197 231.596 351.034 231.484C350.87 231.372 350.684 231.292 350.487 231.247C350.289 231.201 350.084 231.193 349.883 231.221C349.682 231.249 349.489 231.314 349.314 231.411C349.14 231.508 348.988 231.636 348.868 231.788C348.747 231.94 348.66 232.112 348.611 232.295C348.563 232.478 348.553 232.668 348.584 232.854C349.467 236.479 351.198 239.881 353.655 242.82C354.119 243.479 354.614 244.166 355.047 244.825C353.686 245.941 352.295 247.058 350.872 248.147L350.007 248.805C349.419 249.263 348.893 249.664 348.43 249.979C345.853 245.378 343.861 240.515 342.493 235.488C342.45 235.305 342.366 235.132 342.248 234.979C342.13 234.826 341.98 234.698 341.806 234.601C341.632 234.505 341.439 234.442 341.238 234.417C341.037 234.393 340.832 234.406 340.637 234.458C340.438 234.498 340.251 234.575 340.085 234.684C339.919 234.793 339.778 234.931 339.671 235.092C339.565 235.252 339.494 235.431 339.463 235.617C339.433 235.803 339.443 235.993 339.493 236.176C340.337 239.317 341.422 242.399 342.74 245.397C342.338 245.025 341.998 244.595 341.596 244.223C341.307 243.956 340.965 243.744 340.589 243.6C340.212 243.455 339.808 243.381 339.4 243.381C338.993 243.381 338.589 243.455 338.212 243.6C337.836 243.744 337.493 243.956 337.205 244.223C336.917 244.49 336.688 244.807 336.532 245.156C336.376 245.505 336.295 245.879 336.295 246.256C336.295 246.634 336.376 247.008 336.532 247.357C336.688 247.706 336.917 248.023 337.205 248.29C344.812 255.249 347.935 264.47 351.244 274.236C352.81 279.198 354.679 284.075 356.84 288.842C360.149 295.887 364.571 299.781 369.89 300.469C370.435 300.511 370.983 300.511 371.528 300.469C374.779 300.367 377.922 299.369 380.558 297.605C390.174 291.591 393.607 281.281 396.915 271.315C397.688 268.909 398.492 266.532 399.358 264.241C401.494 258.893 404.089 253.712 407.12 248.748C407.8 247.602 408.48 246.428 409.16 245.197C409.438 244.556 409.457 243.844 409.213 243.191C408.968 242.538 408.478 241.99 407.831 241.646ZM388.072 278.102C387.76 277.961 387.46 277.799 387.175 277.615C387.793 276.957 388.412 276.327 388.999 275.668L388.072 278.102ZM381.269 289.557C379.737 288.559 378.407 287.318 377.342 285.892C380.141 284.049 382.731 281.947 385.072 279.62C385.655 280.032 386.276 280.396 386.927 280.708C385.59 283.966 383.677 286.995 381.269 289.672V289.557ZM372.394 257.397C373.446 260.261 374.59 263.354 375.919 266.246L372.301 268.881L371.621 269.368C371.034 269.797 370.446 270.255 369.828 270.656C369.178 268.967 368.529 267.248 367.91 265.53C367.292 263.812 366.921 262.867 366.395 261.521C368.51 260.339 370.517 258.998 372.394 257.511V257.397ZM364.973 266.475C365.684 268.422 366.426 270.398 367.199 272.375C366.087 273.083 364.907 273.697 363.674 274.207C361.885 274.934 359.935 275.258 357.985 275.152C357.675 274.293 357.397 273.463 357.119 272.632C356.408 270.599 355.727 268.566 354.985 266.532H355.387C358.261 265.622 361.044 264.482 363.705 263.124C364.107 264.27 364.571 265.444 364.973 266.475ZM362.468 286.665C361.169 283.801 360.025 280.937 359.005 278.074C361.026 278.009 363.018 277.601 364.88 276.871C366.071 276.393 367.219 275.828 368.312 275.181C369.302 277.615 370.384 280.078 371.59 282.427C372.028 283.322 372.524 284.192 373.074 285.033L372.178 285.519C369.307 286.996 366.004 287.588 362.746 287.209L362.468 286.665ZM374.373 281.167C373.105 278.675 371.961 276.097 370.91 273.491L373.538 271.63L374.219 271.143L377.311 268.938C378.621 271.576 380.205 274.088 382.042 276.441L382.969 277.587C380.784 279.768 378.37 281.745 375.765 283.486C375.239 282.856 374.775 282.112 374.373 281.281V281.167ZM388.968 271.114C387.701 272.518 386.402 273.978 385.01 275.41C384.81 275.202 384.624 274.982 384.454 274.752C382.6 272.364 381.005 269.812 379.692 267.134C382.135 265.33 384.577 263.611 386.989 261.893C387.762 263.21 388.597 264.499 389.494 265.73C390.046 266.537 390.813 267.197 391.72 267.649V267.85C390.886 268.967 390.236 269.998 388.968 271.229V271.114ZM396.544 255.621C395.493 257.769 394.473 260.003 393.452 262.552C393.174 263.296 392.926 264.069 392.679 264.843C392.442 264.65 392.234 264.428 392.061 264.184C391.133 262.867 390.267 261.521 389.463 260.146C391.813 258.685 394.132 257.168 396.421 255.736L396.544 255.621ZM384.361 245.626C385.624 244.066 386.741 242.408 387.701 240.672C388.738 244.246 390.548 247.587 393.019 250.495C392.488 250.943 391.93 251.363 391.349 251.755C391.09 251.935 390.898 252.187 390.801 252.474C390.705 252.76 390.708 253.068 390.81 253.353C390.913 253.639 391.11 253.886 391.373 254.062C391.636 254.238 391.953 254.332 392.277 254.332C392.613 254.339 392.94 254.238 393.205 254.046C393.916 253.588 394.503 253.101 395.091 252.643L395.369 252.901C392.865 254.39 390.422 255.965 388.041 257.569C386.166 254.062 384.624 250.412 383.433 246.657C383.742 246.428 384.052 246.085 384.361 245.741V245.626ZM380.96 249.292C382.163 252.748 383.662 256.109 385.443 259.344C383.093 261.005 380.712 262.695 378.331 264.442C376.971 261.349 375.827 258.141 374.713 254.963C376.971 253.216 379.073 251.354 380.96 249.292ZM365.499 239.67C367.636 244.254 369.484 248.949 371.034 253.731V254.075C370.916 254.155 370.811 254.252 370.724 254.361C370.59 254.463 370.479 254.589 370.399 254.732C370.32 254.875 370.272 255.031 370.261 255.192C368.631 256.482 366.917 257.678 365.128 258.771C363.377 254.229 361.236 249.824 358.727 245.598C361.231 243.765 363.427 241.789 365.499 239.756V239.67ZM351.862 251.125L352.697 250.466C353.996 249.493 355.232 248.49 356.469 247.602C358.895 251.711 360.963 255.991 362.654 260.404C360.034 261.777 357.28 262.918 354.429 263.812H353.965C352.573 260.182 350.856 256.666 348.832 253.301C348.928 253.25 349.012 253.182 349.079 253.101C350.083 252.542 351.043 251.92 351.955 251.24L351.862 251.125ZM370.724 295.113C369.386 294.796 368.138 294.211 367.07 293.4C366.002 292.588 365.138 291.57 364.54 290.417H364.756C367.871 290.343 370.923 289.588 373.662 288.211L374.806 287.581C375.983 289.192 377.447 290.606 379.135 291.763C378.493 292.29 377.822 292.787 377.125 293.252C375.303 294.566 373.03 295.227 370.724 295.113Z" fill="#3A5868"/>
<path d="M372.394 257.884C354.027 257.884 334.484 252.356 334.484 242.133C334.484 231.909 354.027 226.382 372.394 226.382C390.762 226.382 410.305 231.909 410.305 242.133C410.305 252.356 390.762 257.884 372.394 257.884ZM372.394 232.109C353.037 232.109 340.668 238.066 340.668 242.133C340.668 246.199 353.037 252.156 372.394 252.156C391.751 252.156 404.12 246.228 404.12 242.133C404.12 238.037 391.751 232.109 372.394 232.109Z" fill="#93CC17"/>
<path d="M759.198 114.95C758.378 114.95 757.591 114.648 757.011 114.111C756.432 113.574 756.106 112.846 756.106 112.086L756.384 13.485C756.384 12.7255 756.71 11.997 757.29 11.46C757.87 10.9229 758.656 10.6212 759.476 10.6212C760.296 10.6212 761.083 10.9229 761.663 11.46C762.243 11.997 762.568 12.7255 762.568 13.485L762.321 112.086C762.321 112.465 762.24 112.84 762.083 113.189C761.925 113.538 761.695 113.855 761.404 114.122C761.114 114.388 760.769 114.598 760.391 114.741C760.012 114.883 759.607 114.954 759.198 114.95Z" fill="#33312F"/>
<path d="M769.025 12.5906C769.413 7.5421 765.309 3.15832 759.858 2.7991C754.406 2.43988 749.673 6.24123 749.285 11.2897C748.897 16.3382 753.002 20.7221 758.453 21.0813C763.904 21.4405 768.637 17.6391 769.025 12.5906Z" fill="#93CC17"/>
<path d="M116.205 250.781C114.79 250.092 113.189 249.799 111.597 249.936C110.006 250.073 108.491 250.635 107.238 251.555L90.5088 264.27L124.523 378.823L141.87 365.735L123.317 263.554C123.71 261.005 123.237 258.405 121.963 256.116C120.688 253.827 118.676 251.963 116.205 250.781Z" fill="#3A5868"/>
<path d="M87.6022 269.339L105.97 369.83L124.523 378.88L105.97 276.699C106.382 274.147 105.925 271.539 104.661 269.239C103.397 266.94 101.39 265.062 98.9196 263.869C97.8138 263.298 96.5722 262.991 95.3064 262.975C94.0405 262.959 92.7902 263.234 91.6679 263.777C90.5456 264.319 89.5864 265.112 88.8767 266.082C88.167 267.053 87.7291 268.172 87.6022 269.339Z" fill="#3A3A46"/>
<path d="M117.689 256.079L119.73 257.024L119.205 271.172C119.35 272.535 119.069 273.908 118.394 275.126C117.72 276.345 116.681 277.359 115.401 278.045C114.946 278.286 114.439 278.433 113.917 278.474L114.071 279.133L111.907 278.102C111.354 277.863 110.874 277.499 110.512 277.044C110.15 276.588 109.917 276.056 109.835 275.496L108.32 261.177L117.689 256.079Z" fill="#D28D05"/>
<path d="M110.33 262.093L111.876 276.413C111.959 276.971 112.189 277.503 112.544 277.961C112.9 278.419 113.371 278.79 113.916 279.041C114.462 279.292 115.065 279.416 115.674 279.402C116.283 279.389 116.879 279.237 117.411 278.961C118.67 278.283 119.696 277.288 120.369 276.092C121.043 274.896 121.336 273.547 121.214 272.203L119.699 257.11L110.33 262.093Z" fill="#F0B324"/>
<path d="M114.504 275.954C114.403 274.961 114.583 273.96 115.028 273.05C115.473 272.141 116.166 271.355 117.04 270.771C117.324 270.584 117.655 270.467 118.001 270.432C118.348 270.397 118.698 270.444 119.019 270.57L120.503 271.229L117.411 278.79L115.865 278.102C115.464 277.876 115.131 277.561 114.893 277.187C114.656 276.812 114.522 276.388 114.504 275.954Z" fill="#3A5868"/>
<path d="M115.896 276.584C116.112 278.56 117.597 279.448 119.205 278.56C120.078 277.976 120.772 277.19 121.217 276.281C121.661 275.372 121.842 274.371 121.74 273.377C121.524 271.372 120.039 270.513 118.431 271.372C117.553 271.959 116.856 272.75 116.411 273.664C115.966 274.579 115.789 275.586 115.896 276.584Z" fill="#49667A"/>
<path d="M145.334 232.109L138.314 257.196C138.231 257.531 138.048 257.838 137.785 258.081C137.523 258.324 137.192 258.494 136.83 258.571L101.022 267.707C100.315 267.892 99.5664 267.899 98.8545 267.728C98.1426 267.557 97.4927 267.213 96.9716 266.733L75.6663 247.23L75.3571 246.829C75.2123 246.592 75.121 246.33 75.0891 246.059C75.0572 245.789 75.0852 245.515 75.1715 245.254L82.3146 219.48L145.334 232.109Z" fill="#F0B324"/>
<path d="M82.8711 221.456L104.146 240.958C104.677 241.425 105.327 241.758 106.035 241.929C106.744 242.099 107.487 242.1 108.196 241.932L143.849 233.341C144.206 233.251 144.531 233.076 144.791 232.833C145.052 232.59 145.238 232.288 145.333 231.957C145.427 231.626 145.425 231.277 145.327 230.947C145.23 230.617 145.04 230.316 144.777 230.076L123.132 210.487C122.609 210.009 121.959 209.667 121.247 209.496C120.536 209.325 119.789 209.331 119.081 209.514L83.8607 218.105C83.4801 218.177 83.1285 218.346 82.8451 218.592C82.5617 218.838 82.3574 219.152 82.2549 219.499C82.1525 219.846 82.1558 220.213 82.2646 220.558C82.3733 220.903 82.5833 221.214 82.8711 221.456Z" fill="#FFF76A"/>
<path d="M104.393 262.838L98.7032 252.156C96.6153 248.099 96.0599 243.51 97.1261 239.126L99.7855 229.618C99.9792 228.893 99.9848 228.137 99.8021 227.41C99.6194 226.683 99.2534 226.007 98.7342 225.436L85.9324 213.781C85.7776 213.625 85.5838 213.507 85.3681 213.437C85.1523 213.367 84.9214 213.347 84.6955 213.38L81.6033 214.096L83.3349 215.27L80.8303 224.234C79.6861 228.243 77.0578 230.391 74.0893 229.675L65.9568 227.785H65.3074L62.2152 228.529L64.3179 228.959V229.131L62.308 236.376C62.1118 237.1 62.1048 237.857 62.2876 238.585C62.4704 239.312 62.8379 239.988 63.3593 240.557L97.3736 273.749L98.796 275.439L101.888 274.694C102.199 274.588 102.474 274.407 102.686 274.171C102.898 273.935 103.039 273.651 103.094 273.348L105.104 266.103C105.264 264.972 105.013 263.823 104.393 262.838Z" fill="#3A3A46"/>
<path d="M104.888 264.499C104.833 263.922 104.665 263.359 104.393 262.838L98.7032 252.156C97.9166 250.569 97.3553 248.894 97.0334 247.173C92.1168 248.662 86.5508 250.925 81.5724 250.695C81.0047 250.702 80.4429 250.588 79.9303 250.362C79.4176 250.137 78.9678 249.805 78.6153 249.393C78.2628 248.981 78.0172 248.499 77.8972 247.985C77.7773 247.471 77.7863 246.938 77.9236 246.428C81.0158 237.436 89.9522 230.62 99.0433 225.895L98.7032 225.436L85.9014 213.781C85.7467 213.625 85.5529 213.507 85.3372 213.437C85.1215 213.367 84.8904 213.347 84.6645 213.38L81.5724 214.096L83.304 215.27L80.7993 224.234C79.6552 228.243 77.0268 230.391 74.0583 229.675L65.9258 227.785H65.2765L62.1843 228.529L64.287 228.959V229.131L62.277 236.376C62.0808 237.1 62.0738 237.857 62.2567 238.585C62.4395 239.312 62.8069 239.988 63.3284 240.557L92.7971 269.425C96.6784 267.486 100.722 265.839 104.888 264.499Z" fill="#49667A"/>
<path d="M77.7071 225.007L80.3664 215.499C80.7684 214.067 81.8816 213.638 82.8711 214.554L95.6728 226.21C96.1943 226.779 96.5617 227.455 96.7445 228.183C96.9274 228.91 96.9203 229.667 96.7241 230.391L94.0649 239.87C92.9986 244.255 93.554 248.844 95.6419 252.901L101.332 263.583C101.86 264.608 102.002 265.768 101.734 266.876L99.6927 274.121C99.3216 275.553 98.2084 275.983 97.2189 275.095L60.1125 241.359C59.5932 240.789 59.2272 240.112 59.0445 239.386C58.8618 238.659 58.8674 237.902 59.0611 237.178L61.071 229.933C61.3493 228.902 62.0296 228.358 62.8027 228.558L70.9043 230.448C73.9656 231.136 76.5939 229.016 77.7071 225.007Z" fill="#3A5868"/>
<path d="M66.7608 239.154C66.9689 238.325 66.9685 237.462 66.7594 236.633C66.5503 235.803 66.1381 235.03 65.5547 234.372C65.3732 234.179 65.1413 234.034 64.8813 233.948C64.6214 233.863 64.3422 233.841 64.0705 233.885L30.8602 242.934L31.4477 243.249C31.2745 243.515 31.1493 243.805 31.0767 244.109C30.8521 244.935 30.8414 245.799 31.0456 246.63C31.2498 247.461 31.6631 248.236 32.2517 248.891L32.4681 249.063L32.1898 249.808L65.5547 240.701C65.8738 240.55 66.1496 240.331 66.3593 240.062C66.569 239.793 66.7066 239.482 66.7608 239.154Z" fill="#D28D05"/>
<path d="M60.7618 240.5L56.8347 254.562L14.255 265.301L18.0584 251.354L60.7618 240.5Z" fill="#9D9DAF"/>
<path d="M3.86525 252.013L0 265.902L3.95802 269.597L7.85416 255.707L3.86525 252.013Z" fill="#D1D1DA"/>
<path d="M18.0584 251.354L14.2241 265.33L3.95802 269.597L7.85416 255.707L18.0584 251.354Z" fill="#9D9DAF"/>
<path d="M3.86525 252.013L9.95687 243.908L52.5675 233.054L60.7618 240.5L18.0584 251.354L7.85416 255.707L3.86525 252.013Z" fill="#DDDDE5"/>
<path d="M25.8198 334.548C24.7829 334.548 23.7481 334.461 22.7277 334.29C20.3197 333.881 18.0341 332.999 16.0236 331.705C14.0132 330.411 12.3243 328.734 11.0701 326.787C8.39795 322.777 7.45922 317.98 8.44169 313.356L29.4686 207.251L27.9844 196.97L70.626 204.216L65.2765 212.807L44.1258 319.398C43.2501 324.042 40.5244 328.212 36.488 331.083C33.4449 333.301 29.6923 334.52 25.8198 334.548ZM34.9109 203.7L35.4367 207.394L14.2241 314.33C13.5175 317.63 14.18 321.055 16.0794 323.923C16.9088 325.214 18.0235 326.328 19.3505 327.192C20.6775 328.056 22.1866 328.65 23.779 328.935C25.4013 329.205 27.067 329.153 28.666 328.783C30.2651 328.412 31.7612 327.732 33.0556 326.787C35.922 324.722 37.852 321.74 38.467 318.425L59.7723 210.946L61.473 208.082L34.9109 203.7Z" fill="#92D8DD"/>
<path d="M23.2533 331.598C19.1307 330.706 15.5587 328.335 13.321 325.006C11.0833 321.678 10.3628 317.663 11.3175 313.843L32.4681 207.308L31.5405 200.321L66.0804 206.048L62.5553 211.776L41.3119 318.826C41.0379 320.765 40.3526 322.635 39.2954 324.328C38.2381 326.021 36.8297 327.504 35.1514 328.691C33.473 329.878 31.5578 330.746 29.5158 331.245C27.4739 331.744 25.3456 331.864 23.2533 331.598Z" fill="#D6F1F2"/>
<path d="M45.8574 241.073C39.2311 241.156 32.6181 240.502 26.16 239.126L11.3175 313.843C10.3628 317.663 11.0833 321.678 13.321 325.006C15.5587 328.335 19.1307 330.706 23.2533 331.598C27.4457 332.112 31.6873 331.07 35.053 328.698C38.4186 326.327 40.6352 322.819 41.2191 318.94L56.6801 240.443C53.0861 240.82 49.4741 241.031 45.8574 241.073Z" fill="#2588BA"/>
<path d="M58.1643 210.144C54.604 210.123 51.0535 209.797 47.5581 209.17C42.7972 208.429 38.1678 207.089 33.7978 205.189C29.4996 203.156 27.6134 201.008 27.9844 198.774C28.9121 194.049 40.1986 193.763 50.2792 195.481C60.3598 197.199 70.7806 201.209 69.8529 205.877C69.42 208.139 66.7606 209.514 61.9368 209.972C60.6834 210.09 59.4242 210.147 58.1643 210.144ZM39.6111 197.772C34.5089 197.772 31.5713 198.66 31.324 199.347C31.0766 200.034 36.9209 204.072 48.0529 205.962C59.1848 207.853 65.8639 206.363 66.235 205.304C66.6061 204.244 60.6381 200.579 49.5062 198.688C46.2857 198.106 43.0157 197.79 39.7348 197.743L39.6111 197.772Z" fill="white"/>
<path d="M68.1091 205.588C68.6831 202.694 60.5564 198.887 49.9577 197.084C39.359 195.28 30.3018 196.164 29.7278 199.058C29.1538 201.951 37.2805 205.758 47.8792 207.562C58.4779 209.365 67.5352 208.481 68.1091 205.588Z" fill="#D6F1F2"/>
<path d="M54.3609 197.972C53.5261 201.352 52.7221 204.76 51.949 208.139C60.7 209.113 67.6265 208.139 68.1212 205.59C68.616 203.041 62.7099 199.977 54.3609 197.972Z" fill="white"/>
<path d="M87.5094 257.168C86.9528 259.201 85.3449 259.831 83.9225 258.542C83.1846 257.711 82.664 256.733 82.4012 255.685C82.1384 254.637 82.1405 253.547 82.4073 252.5C82.9948 250.466 84.6027 249.836 85.9942 251.125C86.7449 251.949 87.2737 252.927 87.5371 253.977C87.8005 255.028 87.7911 256.121 87.5094 257.168Z" fill="#3A3A46"/>
<path d="M74.0583 245.082C73.4708 247.116 71.8629 247.746 70.4714 246.457C69.7207 245.633 69.1919 244.655 68.9285 243.605C68.6651 242.554 68.6746 241.461 68.9562 240.414C69.5128 238.381 71.1208 237.751 72.5432 239.04C73.281 239.871 73.8017 240.849 74.0645 241.897C74.3273 242.945 74.3252 244.035 74.0583 245.082Z" fill="#3A3A46"/>
<path d="M90.2924 239.87L91.0654 239.67C91.2111 239.526 91.2922 239.337 91.2922 239.14C91.2922 238.943 91.2111 238.754 91.0654 238.61L80.4592 228.673C80.3074 228.532 80.1017 228.453 79.8871 228.453C79.6726 228.453 79.4668 228.532 79.3151 228.673C79.1634 228.813 79.0781 229.004 79.0781 229.202C79.0781 229.401 79.1634 229.592 79.3151 229.732L89.9213 239.67L90.2924 239.87Z" fill="#3A5868"/>
<path d="M91.5911 235.145L92.3642 234.944C92.4399 234.875 92.5 234.793 92.541 234.702C92.5821 234.611 92.6032 234.513 92.6032 234.415C92.6032 234.316 92.5821 234.218 92.541 234.127C92.5 234.037 92.4399 233.954 92.3642 233.885L81.7579 223.947C81.603 223.812 81.3984 223.737 81.1858 223.737C80.9732 223.737 80.7686 223.812 80.6138 223.947C80.5381 224.017 80.478 224.099 80.4369 224.19C80.3959 224.281 80.3747 224.379 80.3747 224.477C80.3747 224.576 80.3959 224.673 80.4369 224.764C80.478 224.855 80.5381 224.938 80.6138 225.007L91.22 234.973L91.5911 235.145Z" fill="#3A5868"/>
<path d="M95.9511 267.592C96.1731 266.765 96.1825 265.902 95.9785 265.071C95.7744 264.24 95.3625 263.466 94.7761 262.809C94.596 262.614 94.3653 262.464 94.1057 262.374C93.8461 262.284 93.5661 262.256 93.2918 262.294L60.0816 271.372L60.6691 271.687C60.4851 271.951 60.3493 272.241 60.2671 272.546C60.0565 273.376 60.0558 274.239 60.265 275.069C60.4742 275.898 60.8876 276.672 61.473 277.329L61.6585 277.472L61.3802 278.217L94.6834 269.167C95.0211 269.025 95.3145 268.806 95.5362 268.531C95.7579 268.255 95.9006 267.932 95.9511 267.592Z" fill="#D28D05"/>
<path d="M64.4724 276.155C64.0395 277.759 62.7717 278.245 61.6276 277.243C61.0412 276.587 60.6293 275.812 60.4252 274.981C60.2211 274.151 60.2305 273.287 60.4526 272.46C60.8855 270.857 62.1533 270.341 63.2665 271.372C63.8671 272.021 64.2902 272.795 64.5001 273.627C64.71 274.46 64.7005 275.327 64.4724 276.155Z" fill="#C5CEF6"/>
<path d="M76.5939 267.334L72.6668 281.367L30.0562 292.135L33.9524 278.217L76.5939 267.334Z" fill="#9D9DAF"/>
<path d="M13.4201 272.231L9.55488 286.15L13.5129 289.815L17.4091 275.926L13.4201 272.231Z" fill="#D1D1DA"/>
<path d="M33.9524 278.188L30.0562 292.135L13.5129 289.815L17.4091 275.926L33.9524 278.188Z" fill="#B8B8C3"/>
<path d="M13.4201 272.231L39.0236 267.477L68.3996 259.86L76.5939 267.334L33.9524 278.217L17.4091 275.926L13.4201 272.231Z" fill="#DDDDE5"/>
<path d="M67.8429 276.413C68.0844 275.59 68.5325 274.831 69.1505 274.199C69.7684 273.567 70.5389 273.079 71.399 272.775C71.6601 272.68 71.944 272.651 72.2212 272.692C72.4984 272.732 72.7589 272.84 72.976 273.005L76.0682 276.04H75.3879C75.441 276.344 75.441 276.653 75.3879 276.957C75.151 277.781 74.7047 278.542 74.0861 279.175C73.4675 279.807 72.6947 280.294 71.8319 280.594H71.5845V281.367L68.2759 278.274C68.0452 278.02 67.8851 277.718 67.8096 277.393C67.7341 277.069 67.7455 276.732 67.8429 276.413Z" fill="#3A3A46"/>
<path d="M71.1207 279.505C70.6877 281.109 71.5227 282.112 73.0379 281.739C73.8929 281.428 74.6587 280.937 75.2755 280.306C75.8923 279.675 76.3435 278.921 76.5939 278.102C77.0577 276.47 76.1919 275.467 74.6768 275.868C73.8166 276.172 73.0462 276.66 72.4282 277.292C71.8102 277.924 71.3622 278.683 71.1207 279.505Z" fill="#3A5868"/>
<path d="M43.7238 197.142C43.26 200.006 42.8888 202.726 42.6105 205.533C44.8644 205.86 47.1596 205.86 49.4134 205.533C49.6393 203.575 50.1275 201.651 50.8668 199.805C48.6871 198.511 46.264 197.607 43.7238 197.142Z" fill="#92D8DD"/>
<path d="M39.2091 204.989C39.4874 202.125 39.8276 199.462 40.2605 196.684C37.8065 196.563 35.3483 196.834 32.9938 197.486C32.128 197.743 31.1384 198.144 30.8601 198.946C30.7699 199.412 30.8171 199.892 30.9967 200.336C31.1763 200.779 31.4816 201.17 31.8806 201.466C33.7087 203.217 36.0722 204.406 38.6525 204.874L39.2091 204.989Z" fill="#92D8DD"/>
<defs>
<linearGradient id="paint0_linear_316_780" x1="-18.8793" y1="446.308" x2="1103.03" y2="446.308" gradientUnits="userSpaceOnUse">
<stop stop-color="#2D2B29"/>
<stop offset="0.57" stop-color="#353330"/>
<stop offset="1" stop-color="#3F3C39"/>
</linearGradient>
</defs>
</svg>
