<?xml version="1.0" encoding="UTF-8"?><svg xmlns="http://www.w3.org/2000/svg" xmlns:xlink="http://www.w3.org/1999/xlink" viewBox="0 0 1933.31 247.98"><defs><style>.f{fill:url(#d);mix-blend-mode:screen;opacity:1;}.g{isolation:isolate;}</style><linearGradient id="d" x1="966.66" y1="247.98" x2="966.66" y2="0" gradientTransform="matrix(1, 0, 0, 1, 0, 0)" gradientUnits="userSpaceOnUse"><stop offset="0" stop-color="#8dd6ef"/><stop offset="1" stop-color="#c6f2f7"/></linearGradient></defs><g class="g"><g id="a"/><g id="b"><g id="c"><path id="e" class="f" d="M28.98,8.67l-3.27,6.94h-8.63l3.3-6.94h8.6m86.32,0h-8.59l-3,6.94h8.62l2.97-6.94m64.74,0h-8.59l-2.78,6.94h8.62l2.75-6.94M86.02,26.2h-8.67l-3.13,7.07h8.7l3.1-7.07m233.77,17.83h-8.75l-2.33,7.19h8.78l2.3-7.19m-78.8,36.64h-8.91l-2.66,7.45h8.94l2.63-7.45M31.28,99.49h-8.99l-3.45,7.59h9.02l3.41-7.59M369.04,26.2h-8.67l-2.14,7.07h8.7l2.11-7.07m174.17,0h-8.67l-1.53,7.07h8.7l1.49-7.07m21.77,0h-8.67l-1.45,7.07h8.7l1.42-7.07m64.61,4.15l-9.19,2.91h8.7l.49-2.91m.7-4.15h-8.67l-1.22,7.05,9.19-2.91,.7-4.15m21.77,0h-8.67l-1.14,7.07h8.7l1.11-7.07m-310.3,17.83h-8.75l-2.25,7.19h8.78l2.22-7.19m60.87,18.15h-8.83l-2.06,7.32h8.86l2.03-7.32m109.63,5.28l-6.46,2.04h6.01l.45-2.04m1.17-5.28h-8.83l-1.66,7.32h2.85l6.46-2.04,1.17-5.28m155.12,0h-8.82l-1.1,7.32h8.86l1.07-7.32m-315.76,18.49h-8.91l-2.25,7.45h8.94l2.22-7.45m201.25,0h-8.91l-1.53,7.45h8.94l1.5-7.45m22.36,0h-8.91l-1.45,7.45h8.94l1.41-7.45m89.44,0h-8.91l-1.12,7.45h8.94l1.09-7.45m-25.32,18.82h-8.99l-1.23,7.59h9.02l1.19-7.59m22.57,0h-8.99l-1.14,7.59h9.02l1.11-7.59m65.86,0h-7.16l-.31,2.61,7.47-2.61m1.83,0h-1.83l-7.47,2.61-.59,4.98h9.02l.86-7.59M90.97,118.66h-9.07l-3.26,7.73h9.1l3.23-7.73m113.86,0h-9.07l-2.84,7.73h9.1l2.81-7.73m22.77,0h-9.07l-2.76,7.73h9.1l2.72-7.73m-98.82,19.52h-9.15l-3.15,7.88h9.19l3.12-7.88M4.92,158.07H0v8.03H1.31l3.61-8.03m587.05-39.41h-9.07l-1.42,7.73h9.1l1.38-7.73m-239.05,39.41h-9.24l-2.34,8.03h9.27l2.31-8.03m162.4,0h-9.24l-1.73,8.03h9.27l1.7-8.03m185.6,0h-9.24l-1.04,8.03h9.27l1-8.03M328.38,10.42h-4.27l-1.11,3.45h4.28l1.11-3.45M148.43,27.97h-4.31l-1.44,3.51h4.32l1.43-3.51m21.79,0h-4.31l-1.4,3.51h4.32l1.39-3.51m-29.07,17.87h-4.35l-1.46,3.57h4.35l1.46-3.57m21.98,0h-4.35l-1.42,3.57h4.35l1.42-3.57M.65,64.02H0v1.37l.65-1.37m133.08,0h-4.39l-1.49,3.64h4.39l1.48-3.64m-97.07,18.52h-4.43l-1.68,3.7h4.43l1.67-3.7m268.58,0h-4.43l-1.2,3.7h4.43l1.19-3.7M371.58,10.42h-4.27l-1.04,3.45h4.28l1.03-3.45m64.8,0h-4.27l-.93,3.45h4.28l.92-3.45m147.85,17.56h-4.31l-.68,3.51h4.32l.67-3.51m108.95,0h-4.31l-.49,3.51h4.32l.48-3.51m-271.09,36.05h-4.39l-.98,3.64h4.39l.97-3.64m35.2,37.37h-4.46l-.93,3.77h4.47l.92-3.77M62.86,180.39h-4.63l-1.71,4.06h4.64l1.7-4.06m549.28-59.79h-4.51l-.66,3.84h4.52l.65-3.84m-118.34,19.56h-4.55l-.88,3.91h4.56l.87-3.91m-32.43,40.23h-4.64l-.96,4.06h4.64l.95-4.06m89.82,20.69h-4.68l-.8,4.14h4.69l.79-4.14m67.66,21.09h-4.73l-.68,4.22h4.73l.67-4.22M188.5,0h-18.61l-.93,2.31h18.64l.91-2.31M100.54,4.62h-18.66l-6.73,15.1h18.8l6.59-15.1m64.61,0h-18.66l-6.24,15.1h18.8l6.1-15.1m107.68,0h-18.66l-5.42,15.1h18.8l5.28-15.1m59.07,17.45h-18.82l-5.02,15.37h18.97l4.88-15.37M575.26,0h-18.61l-.48,2.31h18.63l.46-2.31m13.38,43.3l-20.28,6.42-1.13,5.76h19.13l2.28-12.17m.65-3.47h-18.99l-1.94,9.89,20.28-6.42,.65-3.47m37.8,36.49h-19.33l-2.84,16.21h19.48l2.68-16.21m89.26,0h-19.33l-2.13,16.21h19.48l1.98-16.21m-254.58,37.83h-19.69l-4.22,16.82h19.84l4.06-16.82M78.91,0h-14.3l-.26,.58h14.31l.26-.58m21.49,0h-14.3l-.26,.58h14.31l.25-.58m107.43,0h-14.3l-.23,.58h14.31l.22-.58m40.68,6.35h-14.35l-4.28,11.6h14.43l4.2-11.6m-115.05,17.48h-14.47l-5,11.81h14.56l4.91-11.81M16.37,41.63H1.76l-1.76,3.7v8.32H10.72l5.65-12.02m109.69,0h-14.6l-5.09,12.02h14.69l5-12.02M401.21,0h-14.3l-.17,.58h14.31l.16-.58m21.49,0h-14.3l-.16,.58h14.31l.16-.58m107.44,0h-14.3l-.13,.58h14.31l.13-.58m-66.07,6.35h-14.35l-3.02,11.6h14.43l2.94-11.6m129.33,0h-14.35l-2.27,11.6h14.43l2.19-11.6m-226.02,35.28h-14.6l-3.65,12.02h14.69l3.57-12.02m351.01,0h-14.61l-1.57,12.02h14.69l1.48-12.02m21.94,0h-14.6l-1.44,12.02h14.69l1.35-12.02m-227.45,36.55h-14.87l-2.84,12.46h14.96l2.75-12.46m-245.3,66.71l-12.1,3.83h10.84l1.26-3.83m3.07-9.34h-15.28l-4.43,13.17h4.54l12.1-3.83,3.07-9.34m73.26-14.81l-16.79,5.31-.9,2.95h15.23l2.45-8.26m1.38-4.66h-15.14l-3.03,9.97,16.79-5.31,1.38-4.66M273.01,0h-15.74l-.41,1.15h15.75l.4-1.15M141.69,5.77h-15.79l-5.41,12.77h15.89l5.31-12.77m64.65,0h-15.79l-4.99,12.77h15.89l4.89-12.77M69.21,23.25h-15.93l-5.93,13h16.03l5.82-13m-29.9,17.78H23.25l-6.18,13.23h16.17l6.07-13.23M466.39,0h-15.74l-.3,1.15h15.75l.29-1.15m150.41,0h-15.74l-.21,1.15h15.75l.2-1.15m-1.02,5.77h-15.79l-2.36,12.77h15.89l2.26-12.77m21.55,0h-15.79l-2.22,12.77h15.89l2.12-12.77m-220.29,17.47h-15.92l-3.67,13h16.03l3.57-13m86.95,0h-15.92l-3.11,13h16.03l3.01-13m217.39,0h-15.92l-1.7,13h16.03l1.6-13M340.79,59.13h-16.21l-4.24,13.47h16.32l4.14-13.47m221.28,0h-16.21l-2.78,13.47h16.32l2.68-13.47m-70.65,18.43h-11.06l-5.73,1.81-2.85,11.9h16.47l3.17-13.71m-11.06,0h-5.3l-.43,1.81,5.73-1.81m167.35,0h-16.36l-2.24,13.71h16.47l2.13-13.71m-346.95,37.87h-16.66l-4.64,14.22h16.77l4.52-14.22m242.3,39.29h-16.97l-3.05,14.76h6l11.92-4.17,2.11-10.59m-2.11,10.59l-11.92,4.17h11.09l.83-4.17M676.1,15.63l-1.81,.57h1.72l.08-.57m-1.32-5.79h-5.71l-.69,4.61h5.73l.68-4.61h0m2.42-1.74l-1.1,7.54-1.81,.57h-8.35l1.23-8.11h10.03m-366.77,0h-10.03l-2.72,8.11h10.08l2.68-8.11M21.72,25.61H11.6l-3.93,8.25h10.16l3.89-8.25m21.76,0h-10.12l-3.84,8.25h10.17l3.8-8.25m152.35,0h-10.12l-3.21,8.25h10.16l3.17-8.25M26.92,61.57h-10.3l-3.98,8.55h10.35l3.94-8.55m22.15,0h-10.31l-3.89,8.55h10.35l3.84-8.55m22.15,0h-10.3l-3.8,8.55h10.35l3.75-8.55m51.32,37.28h-10.49l-3.65,8.87h10.54l3.6-8.87M483.03,8.09h-10.04l-2.01,8.11h10.08l1.97-8.11m21.57,0h-10.03l-1.93,8.11h10.08l1.89-8.11m21.57,0h-10.03l-1.84,8.11h10.08l1.8-8.11m21.57,0h-10.03l-1.75,8.11h10.08l1.71-8.11m107.87,0h-10.04l-1.31,8.11h10.08l1.27-8.11m43.1,.38l-10.5,3.32-.62,4.41h10.08l1.05-7.73m.05-.38h-10.04l-.52,3.7,10.5-3.32,.05-.38M348.18,25.61h-10.12l-2.59,8.25h10.17l2.55-8.25m108.82,0h-10.12l-2.14,8.25h10.16l2.1-8.25m217.64,0h-10.12l-1.25,8.25h10.16l1.21-8.25m-266.09,17.82h-10.21l-2.36,8.4h10.26l2.32-8.4m65.87,0h-10.21l-2.09,8.4h10.26l2.05-8.4m197.62,0h-10.21l-1.27,8.4h10.25l1.23-8.4m21.96,0h-10.21l-1.18,8.4h10.26l1.14-8.4m-187.96,55.43h-10.49l-2.01,8.87h10.54l1.97-8.87m-254.68,19.16h-10.59l-3.13,9.03h10.63l3.08-9.03m-190.47,19.51h-10.69l-3.98,9.2h10.73l3.94-9.2m22.98,0h-10.69l-3.88,9.2h10.73l3.84-9.2m206.77,.06l-11.91,3.77-1.74,5.37h10.73l2.92-9.14m.02-.06h-10.69l-1.24,3.83,11.91-3.77,.02-.06m-215.08,19.88h-10.79l-3.95,9.37h10.83l3.91-9.37m448.97-39.39h-10.59l-1.95,9.03h10.63l1.91-9.03m204.89,0h-10.59l-1.07,9.03h10.63l1.02-9.03m-94.12,19.51h-10.69l-1.49,9.2h10.73l1.44-9.2M75.08,6.93h-12.91l-4.75,10.44h12.98l4.69-10.44m150.93,0h-12.91l-3.96,10.44h12.98l3.89-10.44m8.78,35.3h-13.14l-3.99,10.81h13.21l3.92-10.81m43.89,0h-13.14l-3.75,10.81h13.21l3.68-10.81M117.53,60.35h-13.26l-4.66,11.01h13.33l4.58-11.01m44.28,0h-13.26l-4.42,11.01h13.33l4.35-11.01m37.4,18.45h-13.38l-4.25,11.21h13.45l4.18-11.21m-52.09,18.79h-13.5l-4.58,11.41h13.58l4.51-11.41M571,6.93h-12.91l-2.15,10.44h12.98l2.08-10.44m-134,17.49h-13.03l-2.88,10.62h13.1l2.81-10.62m43.5,0h-13.03l-2.65,10.62h13.09l2.58-10.62m43.5,0h-13.03l-2.42,10.62h13.1l2.35-10.62m87.01,0h-13.03l-1.96,10.62h13.09l1.89-10.62m130.51,0h-13.03l-1.27,10.62h13.1l1.2-10.62m-243.4,17.8h-13.14l-2.58,10.81h13.21l2.51-10.81m153.61,0h-13.14l-1.76,10.81h13.21l1.69-10.81m-47.11,18.12h-13.26l-2.03,11.01h13.33l1.96-11.01m-283.05,56.37h-13.63l-3.66,11.63h13.7l3.58-11.63m182.01,0h-13.63l-2.65,11.63h13.7l2.57-11.63M48.58,9.83h-5.71l-2.14,4.61h5.73l2.13-4.61m27.62,35.4h-5.81l-2.11,4.78h5.83l2.1-4.78m109.88,0h-5.81l-1.86,4.78h5.83l1.84-4.78m37.34,18.18h-5.87l-1.78,4.86h5.88l1.77-4.86m22.17,0h-5.87l-1.73,4.86h5.88l1.72-4.86M15.31,81.92h-5.92l-2.3,4.95h5.93l2.29-4.95m89.5,0h-5.92l-2.08,4.95h5.93l2.07-4.95m22.37,0h-5.92l-2.03,4.95h5.93l2.02-4.95m22.37,0h-5.92l-1.98,4.95h5.94l1.96-4.95M350.88,9.83h-5.71l-1.44,4.61h5.73l1.43-4.61m64.78,0h-5.71l-1.29,4.61h5.73l1.28-4.61m259.12,0h-5.71l-.69,4.61h5.73l.68-4.61m43.19,0h-5.71l-.59,4.61h5.73l.58-4.61M427.83,45.24h-5.82l-1.29,4.78h5.83l1.27-4.78m87.91,0h-5.81l-1.08,4.78h5.83l1.07-4.78m87.91,0h-5.81l-.87,4.78h5.83l.86-4.78m21.98,0h-5.81l-.82,4.78h5.83l.81-4.78m-158.29,18.18h-5.87l-1.2,4.86h5.88l1.19-4.86m221.74,0h-5.87l-.68,4.86h5.88l.66-4.86m-293.39,18.51h-5.92l-1.39,4.95h5.93l1.37-4.95m201.37,0h-5.92l-.9,4.95h5.93l.89-4.95m-206.59,18.84h-5.97l-1.41,5.04h5.99l1.4-5.04m158.05,0h-5.97l-1.03,5.04h5.99l1.02-5.04m67.74,0h-5.97l-.87,5.04h5.99l.85-5.04m67.74,0h-5.97l-.7,5.04h5.99l.69-5.04M66.12,119.95h-6.03l-2.22,5.14h6.04l2.2-5.14m205.08,0h-6.03l-1.72,5.14h6.04l1.7-5.14m-36.29,39.46h-6.14l-1.84,5.33h6.16l1.82-5.33m-30.38,20.29h-6.2l-1.93,5.43h6.22l1.92-5.43m46.87,0h-6.2l-1.82,5.43h6.22l1.8-5.43M781.38,8.67h-8.6l-.68,6.94h8.63l.65-6.94m172.64,0h-8.59l-.08,6.94h8.63l.05-6.94m-88.1,35.36h-8.75l-.39,7.19h8.78l.36-7.19m-30.41,18.15h-1.49l-.04,.54,1.53-.54m7.33,0h-7.33l-1.53,.54-.44,6.79h8.86l.45-7.32m66.48,0h-8.83l-.24,7.32h8.86l.21-7.32m-134.7,18.49h-8.91l-.6,6.16,9.24-3.23,.27-2.93m-.27,2.93l-9.24,3.23-.13,1.3h8.94l.42-4.53m87.8,35.06h-9.07l-.42,7.73h9.1l.39-7.73m68.32,0h-9.07l-.17,7.73h9.1l.14-7.73m-93.5,39.41h-9.24l-.53,8.03h9.27l.49-8.03m-71.5,20.26h-9.33l-.8,8.18h9.36l.77-8.18M908.13,27.97h-4.31l-.11,3.51h4.32l.11-3.51m-110.45,17.87h-4.35l-.31,3.57h4.35l.3-3.57m153.74,18.19h-4.38l-.04,3.64h4.39l.03-3.64m-.15,18.52h-4.42l-.04,3.7h4.43l.03-3.7m-.8,99l-4.65,1.34-.02,1.57h4.64l.02-2.91m0-1.15h-4.63l-.02,2.49,4.65-1.34v-1.15m-191.48,41.78h-4.73l-.41,4.22h4.73l.4-4.22M826.36,23.84h-14.48l-.92,11.81h14.56l.83-11.81m21.74,0h-14.47l-.79,11.81h14.56l.7-11.81m43.49,0h-14.48l-.53,11.81h14.56l.45-11.81m65.14,17.79h-14.6l-.15,12.02h14.69l.07-12.02M914.71,0h-15.74l-.04,1.15h15.75l.03-1.15m-86.35,5.77h-15.79l-1,12.77h15.89l.9-12.77m128.52,148.95h-16.97l-.19,14.76h17.09l.08-14.76M803.73,8.09h-10.04l-.71,8.11h10.08l.67-8.11m64.72,0h-10.03l-.45,8.11h10.08l.4-8.11m86.18,17.51h-10.12l-.1,8.25h10.17l.05-8.25m-109.91,17.82h-10.21l-.55,8.4h10.25l.51-8.4m109.42,55.43h-10.49l-.1,8.87h10.54l.06-8.87m-182.25,19.16h-10.59l-.89,9.03h10.63l.84-9.03m-26.87,39.39h-10.79l-1.02,9.37h10.83l.98-9.37m208.32,61.93h-11.1l-.12,9.92h11.15l.07-9.92M762.15,6.93h-12.91l-1.15,10.44h12.98l1.08-10.44m129.37,0h-12.91l-.47,10.44h12.98l.4-10.44m21.56,0h-12.91l-.36,10.44h12.98l.29-10.44m-152.74,17.49h-13.03l-1.17,10.62h13.1l1.1-10.62m-3.72,35.92h-13.26l-1.21,11.01h13.33l1.14-11.01m-1.91,18.45h-13.38l-1.23,11.21h13.45l1.16-11.21m43.15,18.79h-13.5l-1.01,11.41h13.58l.93-11.41m112.19,19.13h-13.63l-.4,11.63h13.7l.32-11.63M778.17,27.38h-5.76l-.46,4.69h5.78l.44-4.69m-23.66,17.86h-5.81l-.52,4.78h5.83l.5-4.78m21.98,0h-5.81l-.46,4.78h5.83l.45-4.78m107.45,0h-3.38l-.05,1.2,3.43-1.2m2.44,0h-2.44l-3.43,1.2-.15,3.58h5.83l.19-4.78m21.98,0h-5.82l-.15,4.78h5.83l.14-4.78m-89.23,18.18h-5.87l-.37,4.86h5.24l.66-.23,.34-4.63m-.34,4.63l-.66,.23h.64l.02-.23m66.86-4.63h-5.87l-.21,4.86h5.88l.2-4.86m-46.66,37.35h-5.97l-.33,5.04h5.99l.31-5.04m45.16,0h-5.97l-.22,5.04h5.99l.2-5.04m-91.92,19.19h-6.03l-.44,5.14h6.04l.43-5.14m135.99,39.46h-6.14l-.11,5.33h6.16l.1-5.33m-594.48-19.91h-6.09l-1.58,5.23h6.1l1.56-5.23m23,0h-6.08l-1.52,5.23h6.1l1.51-5.23m23,0h-6.08l-1.47,5.23h6.1l1.45-5.23m69,0h-6.09l-1.3,5.23h6.1l1.28-5.23m91.99,0h-6.08l-1.07,5.23h6.1l1.05-5.23m-73.65,19.91h-6.14l-1.26,5.33h6.16l1.25-5.33m-133.95,62.05h-6.32l-1.64,5.64h6.33l1.63-5.64M988.37,8.67h-5.81v2.03l5.81-2.03m2.78,0h-2.78l-5.8,2.03,.03,4.91h8.63l-.08-6.94m172.64,0h-8.59l.65,6.94h8.63l-.68-6.94m86.32,0h-8.6l.95,6.94h8.63l-.98-6.94m64.74,0h-8.6l1.18,6.94h8.62l-1.21-6.94m-84.03,17.52h-8.67l.89,7.07h8.7l-.93-7.07m-151.41,17.83h-8.75l.37,7.19h8.78l-.4-7.19m395.35,0h-8.75l1.77,7.19h8.78l-1.8-7.19m-416.51,18.15h-8.83l.29,7.32h8.86l-.32-7.32m66.48,0h-8.83l.53,7.32h8.86l-.56-7.32m-132.75,18.49h-8.91l.05,7.45h8.94l-.09-7.45m22.36,0h-8.91l.13,7.45h8.94l-.17-7.45m402.5,0h-8.9l1.59,7.45h8.94l-1.62-7.45m-198.4,23.71l-8.72,2.51,.02,.19h9.02l-.33-2.71m-.59-4.89h-8.99l.85,7.4,8.72-2.51-.59-4.89M1513.85,26.2h-8.67l1.89,7.07h8.7l-1.92-7.07m174.17,0h-8.67l2.5,7.07h8.7l-2.53-7.07m21.77,0h-8.67l2.58,7.07h8.7l-2.61-7.07m65.31,0h-8.67l2.81,7.07h8.7l-2.84-7.07m21.77,0h-8.67l2.89,7.07h8.7l-2.91-7.07m-300.14,17.83h-8.75l1.85,7.19h8.78l-1.88-7.19m71.22,18.15h-8.83l2.12,7.32h8.86l-2.15-7.32m110.8,0h-8.82l2.51,7.32h8.86l-2.55-7.32m155.13,0h-8.83l3.07,7.32h8.86l-3.1-7.32m-305.23,18.49h-8.91l1.99,7.45h8.94l-2.03-7.45m201.25,0h-8.91l2.72,7.45h8.94l-2.75-7.45m22.36,0h-8.91l2.8,7.45h8.94l-2.83-7.45m89.44,0h-8.91l3.12,7.45h8.94l-3.16-7.45m-14.6,18.82h-8.99l3.1,7.59h9.02l-3.13-7.59m22.56,0h-8.99l3.18,7.59h9.02l-3.22-7.59m67.7,0h-8.99l3.43,7.59h9.02l-3.46-7.59m-833.85,19.17h-9.07l.39,7.73h9.1l-.43-7.73m68.74,4.78l-8.88,2.56,.03,.4h9.1l-.26-2.96m-.42-4.78h-9.07l.61,7.33,8.88-2.56-.42-4.78m136.64,0h-9.07l1.15,7.73h9.1l-1.18-7.73m113.86,0h-9.07l1.57,7.73h9.1l-1.6-7.73m22.77,0h-9.07l1.65,7.73h9.1l-1.68-7.73m-87.69,19.52h-9.15l1.34,7.88h9.19l-1.37-7.88m-274.93,19.89h-9.24l.32,8.03h9.27l-.35-8.03m162.4,0h-9.24l.93,8.03h9.27l-.96-8.03m-231.76,20.26h-9.33l.06,8.18h9.36l-.1-8.18m796.35-59.68h-9.07l2.99,7.73h9.1l-3.02-7.73m-216.59,39.41h-9.24l2.23,8.03h9.27l-2.27-8.03m162.4,0h-9.24l2.84,8.03h9.27l-2.88-8.03m185.6,0h-9.24l3.54,8.03h9.28l-3.57-8.03M1464.2,10.42h-4.27l.85,3.45h4.28l-.86-3.45m-344.27,17.56h-4.31l.26,3.51h4.32l-.27-3.51m174.32,0h-4.31l.56,3.51h4.32l-.57-3.51m21.79,0h-4.31l.6,3.51h4.32l-.61-3.51m-304.68,17.87h-4.35l.07,3.57h4.36l-.08-3.57m285.78,0h-4.35l.57,3.57h4.35l-.58-3.57m21.98,0h-4.34l.61,3.57h4.35l-.62-3.57m-152.11,18.19h-4.38l.35,3.64h4.39l-.35-3.64m133.08,0h-4.38l.58,3.64h4.39l-.59-3.64m-131.28,18.52h-4.42l.35,3.7h4.43l-.36-3.7m44.76,0h-4.42l.43,3.7h4.43l-.44-3.7m268.58,0h-4.42l.91,3.7h4.43l-.92-3.7m25.24-72.13h-4.27l.92,3.45h4.28l-.93-3.45m64.8,0h-4.27l1.04,3.45h4.28l-1.04-3.45m157.85,17.56h-4.31l1.32,3.51h4.32l-1.33-3.51m108.95,0h-4.31l1.51,3.51h4.32l-1.52-3.51m-250.55,36.05h-4.39l1.1,3.64h4.39l-1.1-3.64m56.5,37.37h-4.47l1.22,3.77h4.47l-1.23-3.77m-609.19,19.2h-4.51l.11,3.84h4.51l-.12-3.84m142.58,59.79h-4.64l.39,4.06h4.64l-.39-4.06m117.21,0h-4.63l.61,4.06h4.64l-.61-4.06m-304.3,41.78h-4.73l.04,4.22h4.73l-.05-4.22m217.38,21.5h-4.77l.45,4.3h4.78l-.46-4.3m602.13-123.08h-4.51l1.53,3.84h4.51l-1.54-3.84m-107.19,19.56h-4.55l1.35,3.91h4.56l-1.35-3.91m-9.5,40.23h-4.64l1.35,4.06h4.64l-1.36-4.06m101.61,20.69h-4.68l1.56,4.14h4.69l-1.57-4.14m79.68,21.09h-4.72l1.73,4.22h4.73l-1.74-4.22M1318.38,0h-18.61l.39,2.31h18.63l-.41-2.31m-85.33,4.62h-18.66l1.87,15.1h18.8l-2.02-15.1m64.61,0h-18.66l2.36,15.1h18.8l-2.51-15.1m107.69,0h-18.66l3.18,15.1h18.8l-3.32-15.1m71.05,25.49l-17.66,5.08,.55,2.25h18.96l-1.85-7.33m-2.03-8.04h-18.82l3.19,13.12,17.66-5.08-2.03-8.04M1705.14,0h-18.61l.84,2.31h18.63l-.86-2.31m36.73,39.83h-18.99l5.84,15.64h19.13l-5.99-15.64m58.59,36.49h-19.33l6.4,16.21h19.48l-6.56-16.21m89.26,0h-19.33l7.11,16.21h19.48l-7.26-16.21m-233.03,37.83h-19.69l5.37,16.82h19.84l-5.52-16.82M1208.79,0h-14.31l.07,.58h14.31l-.07-.58m21.49,0h-14.3l.07,.58h14.31l-.08-.58m107.43,0h-14.3l.1,.58h14.31l-.11-.58m44.3,6.35h-14.35l2.33,11.6h14.43l-2.42-11.6m-344.28,17.48h-14.47l.33,11.81h14.56l-.41-11.81m21.74,0h-14.47l.45,11.81h14.56l-.54-11.81m43.49,0h-14.48l.71,11.81h14.56l-.79-11.81m173.96,0h-14.48l1.73,11.81h14.56l-1.82-11.81m-106.95,17.79h-14.61l1.11,12.02h14.69l-1.2-12.02m109.69,0h-14.6l1.76,12.02h14.69l-1.85-12.02M1531.09,0h-14.3l.16,.58h14.31l-.16-.58m21.49,0h-14.3l.17,.58h14.31l-.17-.58m107.43,0h-14.3l.2,.58h14.31l-.2-.58m-62.45,6.35h-14.35l3.59,11.6h14.43l-3.67-11.6m129.33,0h-14.35l4.34,11.6h14.43l-4.43-11.6m-205.92,35.28h-14.6l3.2,12.02h14.69l-3.28-12.02m351.01,0h-14.6l5.28,12.02h14.69l-5.37-12.02m21.94,0h-14.6l5.41,12.02h14.69l-5.5-12.02m-206.62,36.55h-14.87l4.26,12.46h14.96l-4.35-12.46m-209.53,57.37h-15.28l3.08,13.17h15.38l-3.17-13.17m63.55-19.47h-15.14l3.44,12.92h15.24l-3.53-12.92M1123.56,0h-15.74l.08,1.15h15.75l-.09-1.15m279.33,0h-15.74l.24,1.15h15.75l-.25-1.15m-365.07,5.77h-15.79l.35,12.77h15.89l-.45-12.77m237.04,0h-15.79l1.87,12.77h15.89l-1.97-12.77m64.65,0h-15.79l2.29,12.77h15.89l-2.39-12.77m-127.17,17.47h-15.92l1.48,13h16.03l-1.58-13m-19.76,17.78h-16.07l1.36,13.23h16.17l-1.47-13.23m-129.91,36.53h-16.36l.52,13.71h16.47l-.63-13.71M1596.27,0h-15.33l-.38,.11,.32,1.04h15.75l-.37-1.15m-15.33,0h-.41l.03,.11,.38-.11m165.74,0h-15.74l.44,1.15h15.75l-.45-1.15m2.27,5.77h-15.79l4.91,12.77h15.89l-5.02-12.77m21.55,0h-15.79l5.05,12.77h15.89l-5.15-12.77m-210.33,17.47h-15.92l3.73,13h16.03l-3.84-13m86.95,0h-15.92l4.3,13h16.03l-4.4-13m217.39,0h-15.93l5.71,13h16.03l-5.81-13m-360.13,35.88h-16.21l3.43,13.47h16.32l-3.54-13.47m221.28,0h-16.21l4.89,13.47h16.32l-5-13.47m-60.14,18.43h-16.36l4.54,13.71h16.47l-4.64-13.71m156.29,0h-16.36l5.57,13.71h16.47l-5.68-13.71m-325.37,37.87h-16.66l3.47,14.22h16.77l-3.58-14.22m-314.39,39.29h-16.97l1.36,14.76h17.09l-1.48-14.76m579.09,0h-16.97l5.36,14.76h17.09l-5.48-14.76m45.37-140.27h5.72l-1.95-4.61h-5.71l1.94,4.61m5.2-6.35l3.44,8.11h-10.08l-3.4-8.11h10.03m-798.25,0h-10.04l.14,8.11h10.08l-.19-8.11m64.72,0h-10.04l.41,8.11h10.08l-.45-8.11m366.76,0h-10.03l1.9,8.11h10.08l-1.94-8.11m-278.74,17.51h-10.12l.77,8.25h10.16l-.81-8.25m21.76,0h-10.12l.86,8.25h10.16l-.91-8.25m152.35,0h-10.12l1.49,8.25h10.16l-1.53-8.25m-282.14,17.82h-10.21l.33,8.4h10.25l-.37-8.4m133.73,18.14h-10.3l.89,8.55h10.35l-.94-8.55m22.15,0h-10.31l.99,8.55h10.35l-1.03-8.55m22.15,0h-10.3l1.08,8.55h10.35l-1.12-8.55m-62.78,37.28h-10.49l.83,8.87h10.54l-.87-8.87m135.35,0h-10.49l1.41,8.87h10.54l-1.45-8.87M1617.53,8.09h-10.04l2.61,8.11h10.08l-2.65-8.11m21.57,0h-10.04l2.69,8.11h10.08l-2.73-8.11m21.58,0h-10.04l2.78,8.11h10.08l-2.82-8.11m21.57,0h-10.04l2.87,8.11h10.08l-2.91-8.11m107.87,0h-10.04l3.31,8.11h10.08l-3.35-8.11m43.15,0h-10.03l3.48,8.11h10.08l-3.52-8.11m-340.61,17.51h-.64l-8.83,2.54,1.46,5.71h10.16l-2.16-8.25m-.64,0h-9.48l.65,2.54,8.83-2.54m109.46,0h-10.12l2.56,8.25h10.16l-2.6-8.25m217.64,0h-10.12l3.46,8.25h10.16l-3.5-8.25m-255.93,17.82h-10.21l2.42,8.4h10.25l-2.47-8.4m65.87,0h-10.21l2.7,8.4h10.26l-2.74-8.4m197.62,0h-10.21l3.52,8.4h10.25l-3.56-8.4m21.96,0h-10.21l3.61,8.4h10.26l-3.65-8.4m-156.37,55.43h-10.49l3.04,8.87h10.54l-3.08-8.87m-699.07,19.16h-10.59l.06,9.03h10.63l-.11-9.03m113.83,0h-10.59l.55,9.03h10.64l-.6-9.03m341.48,0h-10.59l2.02,9.03h10.64l-2.07-9.03m-179.35,19.51h-10.69l1.26,9.2h10.73l-1.31-9.2m22.98,0h-10.69l1.36,9.2h10.73l-1.41-9.2m206.79,0h-10.69l2.26,9.2h10.73l-2.3-9.2m-528.45,19.88h-10.79l-.04,9.37h10.83v-9.37m324.69,0h-10.79l1.39,9.37h10.83l-1.43-9.37m-109.85,61.93h-11.1l.93,9.92h11.15l-.98-9.92m536.37-101.32h-10.59l3.19,9.03h10.63l-3.24-9.03m204.89,0h-10.59l4.08,9.03h10.64l-4.12-9.03m-83,19.51h-10.69l3.75,9.2h10.73l-3.8-9.2M971.73,6.93h-12.91l-.05,10.44h4.75l8.22-2.88V6.93m0,7.56l-8.22,2.88h8.23v-2.88m129.35-7.56h-12.91l.63,10.44h12.98l-.7-10.44m21.56,0h-12.91l.74,10.44h12.98l-.81-10.44m86.25,0h-12.91l1.2,10.44h12.98l-1.26-10.44m150.93,0h-12.91l1.99,10.44h12.98l-2.05-10.44m-388.08,17.49h-13.03l-.05,10.62h13.1l-.02-10.62m416.97,17.8h-13.14l2.18,10.81h13.21l-2.25-10.81m43.99,.45l-12.35,3.56,1.52,6.81h13.21l-2.38-10.37m-.1-.45h-13.14l.89,4,12.35-3.56-.1-.45m-460.8,18.12h-13.26l-.05,11.01h13.33l-.02-11.01m309.97,0h-13.26l1.62,11.01h13.33l-1.69-11.01m44.28,0h-13.26l1.86,11.01h13.33l-1.93-11.01m-354.22,18.45h-13.38l-.05,11.21h13.45l-.02-11.21m402.13,0h-13.38l2.14,11.21h13.45l-2.21-11.21m-357.01,18.79h-13.5l.2,11.41h13.57l-.27-11.41m315.62,0h-13.5l1.93,11.41h13.58l-2-11.41M1704.83,6.93h-12.91l3.8,10.44h12.98l-3.87-10.44m-124.03,17.49h-13.03l3.18,10.62h13.1l-3.24-10.62m43.5,0h-13.03l3.4,10.62h13.1l-3.47-10.62m43.5,0h-13.03l3.64,10.62h13.09l-3.7-10.62m87.01,0h-13.03l4.1,10.62h13.09l-4.17-10.62m130.51,0h-13.03l4.79,10.62h13.1l-4.86-10.62m-233.25,17.8h-13.14l3.58,10.81h13.21l-3.65-10.81m153.61,0h-13.14l4.4,10.81h13.21l-4.47-10.81m-36.79,18.12h-13.26l4.25,11.01h13.33l-4.32-11.01m-637.7,56.37h-13.63l.83,11.63h13.7l-.91-11.63m386.78,0h-13.62l2.97,11.63h13.7l-3.05-11.63m182.01,0h-13.62l3.98,11.63h13.7l-4.05-11.63M1184.06,9.83h-5.71l.49,4.61h5.73l-.5-4.61m-194.15,17.54h-5.76l.04,4.69h5.78l-.05-4.69m-21.78,17.86h-5.81v4.78h5.81v-4.78m21.98,0h-5.82l.04,4.78h5.83l-.05-4.78m109.88,0h-5.81l.3,4.78h5.83l-.31-4.78m21.98,0h-5.81l.35,4.78h5.83l-.36-4.78m109.89,0h-5.82l.61,4.78h5.83l-.62-4.78m109.88,0h-5.82l.87,4.78h5.83l-.88-4.78m-307.08,18.18h-5.87l.14,4.86h5.88l-.16-4.86m66.52,0h-5.87l.3,4.86h5.88l-.32-4.86m288.26,0h-5.87l.99,4.86h5.88l-1-4.86m22.17,0h-5.87l1.04,4.86h5.88l-1.05-4.86m-219.73,18.51h-5.92l.52,4.95h5.94l-.54-4.95m90.13,4.16l-2.76,.8h2.88l-.12-.8m-.63-4.16h-5.92l.74,4.95h3.05l2.76-.8-.63-4.16m22.37,0h-5.92l.79,4.95h5.93l-.81-4.95m22.38,0h-5.92l.84,4.95h5.94l-.86-4.95m-267.68,18.84h-5.97l.2,5.04h5.99l-.22-5.04m45.16,0h-5.97l.31,5.04h5.99l-.33-5.04m22.58,0h-5.97l.37,5.04h5.99l-.38-5.04M1486.37,9.83h-5.71l1.19,4.61h5.73l-1.2-4.61m64.78,0h-4.36l-1.25,.36,1.23,4.25h5.73l-1.35-4.61m-4.36,0h-1.35l.1,.36,1.25-.36m263.48,0h-5.71l1.94,4.61h5.72l-1.95-4.61m43.19,0h-5.71l2.03,4.61h5.73l-2.05-4.61m-269.97,35.4h-5.82l1.44,4.78h5.83l-1.45-4.78m87.91,0h-5.81l1.64,4.78h5.83l-1.66-4.78m87.91,0h-5.82l1.85,4.78h5.83l-1.86-4.78m21.98,0h-5.81l1.9,4.78h5.83l-1.92-4.78m-147.93,18.18h-5.87l1.57,4.86h5.88l-1.58-4.86m221.74,0h-5.87l2.1,4.86h5.88l-2.11-4.86m-282.84,18.51h-5.92l1.44,4.95h5.93l-1.45-4.95m201.37,0h-5.92l1.92,4.95h5.93l-1.93-4.95m-195.85,18.84h-5.97l1.46,5.04h5.99l-1.48-5.04m158.05,0h-5.97l1.85,5.04h5.99l-1.86-5.04m67.74,0h-5.97l2.01,5.04h5.99l-2.02-5.04m67.74,0h-5.97l2.17,5.04h5.99l-2.19-5.04m-857.57,19.19h-6.03l.1,5.14h6.04l-.11-5.14m250.65,0h-6.03l.71,5.14h6.05l-.72-5.14m205.08,0h-6.03l1.21,5.14h6.04l-1.23-5.14m-409.31,19.55h-6.08l.21,5.23h6.1l-.23-5.23m93.72,19.91h-6.14l.45,5.33h6.16l-.46-5.33m301.79,0h-6.14l1.2,5.33h6.16l-1.21-5.33m-18.81,20.29h-6.2l1.16,5.43h6.22l-1.18-5.43m46.87,0h-6.2l1.28,5.43h6.21l-1.29-5.43M1916.2,8.67h-8.59l3.28,6.94h8.63l-3.31-6.94m17.11-.58h-2.1v6.27l.89,1.84h1.21V8.09m-2.1,0h-3.02l3.02,6.27v-6.27m-35.24-1.16h-12.91l4.8,10.44h12.98l-4.87-10.44m8.16,17.49h-13.03l4.89,10.62h13.1l-4.96-10.62m16.76,35.92h-13.26l5.07,11.01h13.33l-5.14-11.01m10.32,22.12v7.54h2.1v-3.04l-2.1-4.5m-1.71-3.67h-13.38l5.15,11.21h9.93v-7.54l-1.71-3.67m-5.84-51.42h-5.76l2.22,4.69h5.78l-2.23-4.69m-13.49,17.86h-5.81l2.21,4.78h5.83l-2.22-4.78m21.98,0h-.93v4.78h2.1v-2.33l-1.17-2.45m-.93,0h-4.88l2.26,4.78h2.62v-4.78m-388.11,94.26h-6.09l1.41,5.23h6.1l-1.42-5.23m23,0h-6.08l1.46,5.23h6.1l-1.48-5.23m23,0h-6.09l1.52,5.23h6.1l-1.53-5.23m69,0h-6.09l1.69,5.23h6.1l-1.7-5.23m91.99,0h-6.08l1.91,5.23h6.1l-1.93-5.23m-62.3,19.91h-6.14l1.78,5.33h6.16l-1.79-5.33m-98.58,62.05h-6.32l1.57,5.64h6.34l-1.59-5.64"/></g></g></g></svg>
