<svg id="Layer_1" data-name="Layer 1" xmlns="http://www.w3.org/2000/svg" xmlns:xlink="http://www.w3.org/1999/xlink" viewBox="0 0 179.41 252.64">
  <defs>
    <style>
      .cls-1, .cls-10, .cls-13, .cls-17 {
        fill: none;
      }

      .cls-2 {
        clip-path: url(#clip-path);
      }

      .cls-3 {
        clip-path: url(#clip-path-2);
      }

      .cls-4 {
        fill: url(#linear-gradient);
      }

      .cls-5 {
        fill: #434345;
      }

      .cls-6 {
        opacity: 0.2;
      }

      .cls-7 {
        clip-path: url(#clip-path-6);
      }

      .cls-8 {
        fill: #fff;
      }

      .cls-12, .cls-9 {
        fill: #d6d6d7;
      }

      .cls-10, .cls-13 {
        stroke: #5b5c5e;
        stroke-miterlimit: 10;
      }

      .cls-10 {
        stroke-width: 0.95px;
      }

      .cls-11 {
        fill: #5b5c5e;
      }

      .cls-12 {
        fill-rule: evenodd;
      }

      .cls-13 {
        stroke-width: 1.19px;
      }

      .cls-14 {
        fill: #c5203e;
      }

      .cls-15 {
        fill: #848586;
      }

      .cls-16 {
        fill: #4d4d4d;
      }

      .cls-17 {
        stroke: #848586;
        stroke-linecap: round;
        stroke-linejoin: round;
        stroke-width: 0.54px;
      }
    </style>
    <clipPath id="clip-path">
      <rect class="cls-1" width="179.41" height="252.64"/>
    </clipPath>
    <clipPath id="clip-path-2">
      <rect class="cls-1" x="-4.94" y="-0.75" width="515.09" height="289.81"/>
    </clipPath>
    <linearGradient id="linear-gradient" x1="111.47" y1="-2187.66" x2="112.01" y2="-2187.66" gradientTransform="matrix(0, -542.32, -542.32, 0, -1186171.12, 60744.43)" gradientUnits="userSpaceOnUse">
      <stop offset="0" stop-color="#dededf"/>
      <stop offset="0.16" stop-color="#dededf"/>
      <stop offset="1" stop-color="#fff"/>
    </linearGradient>
    <clipPath id="clip-path-6">
      <rect class="cls-1" x="15.59" y="-1.86" width="156.38" height="292.13"/>
    </clipPath>
  </defs>
  <g class="cls-2">
    <g class="cls-3">
      <g class="cls-3">
        <g class="cls-3">
          <rect class="cls-4" x="-4.94" y="-0.75" width="515.09" height="289.81"/>
        </g>
        <g class="cls-3">
          <path class="cls-5" d="M-6.95,212.36c5,0,5,2.23,10,2.23s5-2.23,10-2.23,5,2.23,10,2.23,5-2.23,10-2.23,5,2.23,10,2.23,5-2.23,10-2.23,5,2.23,10,2.23,5-2.23,10-2.23,5,2.23,10,2.23,5-2.23,10-2.23,5,2.23,10,2.23,5-2.23,10-2.23,5,2.23,10,2.23,5-2.23,10-2.23,5,2.23,10,2.23,5-2.23,10-2.23,5,2.23,10,2.23,5-2.23,10-2.23,5,2.23,10,2.23,5-2.23,10-2.23,5,2.23,10,2.23,5-2.23,10-2.23,5,2.23,10,2.23,5-2.23,10-2.23,5,2.23,10,2.23,5-2.23,10-2.23,5,2.23,10,2.23,5-2.23,10-2.23,5,2.23,10,2.23,5-2.23,10-2.23,5,2.23,10,2.23,5-2.23,10-2.23,5,2.23,10,2.23,5-2.23,10-2.23,5,2.23,10,2.23,5-2.23,10-2.23,5,2.23,10,2.23,5-2.23,10-2.23,5,2.23,10,2.23,5-2.23,10-2.23,5,2.23,10,2.23,5-2.23,10-2.23,5,2.23,10,2.23,5-2.23,10-2.23,5,2.23,10,2.23,5-2.23,10-2.23,5,2.23,10,2.23,5-2.23,10-2.23,5,2.23,10,2.23,5-2.23,10-2.23,5,2.23,10,2.23,5-2.23,10-2.23v77.91H-6.75Z"/>
          <g class="cls-6">
            <g class="cls-7">
              <rect class="cls-5" x="15.59" y="-1.86" width="156.38" height="292.13"/>
            </g>
          </g>
          <rect class="cls-8" x="10.22" y="-1.86" width="156.38" height="292.13"/>
          <rect class="cls-9" x="82.45" y="56.33" width="14.06" height="1.24"/>
          <path class="cls-9" d="M96.45,53.35H95.08V52h1.37Zm-12.58,0H82.5V52h1.37Zm12-6.85-1.47,3.63-1.27-.89,1.55-3.67-5-5.69v8.2l1.65,1.65-1.79,1.79-1.79-1.79,1.65-1.65v-8.2l-5,5.69,1.55,3.67-1.28.89L83.12,46.5l-5.3.17.52,4.86,4.11,3.69H96.51l4.1-3.69.53-4.86Z"/>
          <polygon class="cls-8" points="140.66 183.05 156.67 183.05 150.16 166.04 156.67 149.03 140.66 149.03 140.66 183.05"/>
          <polygon class="cls-10" points="140.66 183.05 156.67 183.05 150.16 166.04 156.67 149.03 140.66 149.03 140.66 183.05"/>
          <path class="cls-11" d="M140.64,178.71h5.11a.45.45,0,0,1,.14.77l-5,4a.46.46,0,0,1-.27.09.41.41,0,0,1-.19,0,.42.42,0,0,1-.24-.39v-3.94a.44.44,0,0,1,.43-.44"/>
          <path class="cls-9" d="M39.45,105.3s10.22,2.44,17,16.31v5.26c-6.82-13.88-17-16.31-17-16.31Zm17-5.32c-2.44-10.71-17-13.39-17-13.39v15.83s10.22,2.43,17,16.3Z"/>
          <path class="cls-9" d="M120.61,121.61c6.82-13.87,17-16.31,17-16.31v5.26s-10.22,2.43-17,16.31Zm0-21.63v18.74c6.82-13.87,17-16.3,17-16.3V86.59s-14.6,2.68-17,13.39"/>
          <path class="cls-12" d="M44.88,132a8.91,8.91,0,0,1-10.75-.23,8.91,8.91,0,0,1,10.75.23"/>
          <path class="cls-12" d="M38.51,128a7.89,7.89,0,0,1-5.35.53,8,8,0,0,1-4.6-2.8,7.92,7.92,0,0,1,5.36-.53,8,8,0,0,1,4.59,2.8"/>
          <path class="cls-12" d="M33.28,122.76a8,8,0,0,1-8.77-4.15,7.57,7.57,0,0,1,5.08.61,7.58,7.58,0,0,1,3.69,3.54"/>
          <path class="cls-12" d="M29.41,116.8a7.67,7.67,0,0,1-7.25-5.7,7.64,7.64,0,0,1,7.25,5.7"/>
          <path class="cls-12" d="M27,110.12a7.26,7.26,0,0,1-5.48-6.83A7.26,7.26,0,0,1,27,110.12"/>
          <path class="cls-12" d="M26,103.11a6.9,6.9,0,0,1-3.44-7.57A6.9,6.9,0,0,1,26,103.11"/>
          <path class="cls-12" d="M26.52,96.6a6.9,6.9,0,0,1-2.21-8,6.9,6.9,0,0,1,2.21,8"/>
          <path class="cls-12" d="M28.46,90a6.59,6.59,0,0,1-.53-7.89A6.55,6.55,0,0,1,28.46,90"/>
          <path class="cls-12" d="M31.48,84.16a6.23,6.23,0,0,1,1.35-7.38,6.19,6.19,0,0,1-1.35,7.38"/>
          <path class="cls-12" d="M32.93,85.23a6.23,6.23,0,0,0,7.31-1.71,6.22,6.22,0,0,0-7.31,1.71"/>
          <path class="cls-12" d="M35.62,79.2a5.91,5.91,0,0,1,2.27-6.76,5.91,5.91,0,0,1-2.27,6.76"/>
          <path class="cls-12" d="M36.87,80.38A5.91,5.91,0,0,0,44,79.5a5.9,5.9,0,0,0-7.08.88"/>
          <path class="cls-12" d="M39.55,75.85a5.6,5.6,0,0,1,3.06-6,5.34,5.34,0,0,1-.52,3.54,5.27,5.27,0,0,1-2.54,2.51"/>
          <path class="cls-12" d="M40.7,77.1a5.61,5.61,0,0,0,6.76-.37,5.61,5.61,0,0,0-6.76.37"/>
          <path class="cls-12" d="M30,90.76a6.54,6.54,0,0,1,7.21-3.25A6.57,6.57,0,0,1,30,90.76"/>
          <path class="cls-12" d="M28.2,97.07a6.89,6.89,0,0,1,6.52-5.17,6.94,6.94,0,0,1-6.52,5.17"/>
          <path class="cls-12" d="M27.79,102.94a6.87,6.87,0,0,1,5.78-6,6.9,6.9,0,0,1-5.78,6"/>
          <path class="cls-12" d="M28.64,109.59a7.28,7.28,0,0,1,4.54-7.49,7.26,7.26,0,0,1-4.54,7.49"/>
          <path class="cls-12" d="M30.92,115.86a7.13,7.13,0,0,1,.26-4.85,7.23,7.23,0,0,1,3.13-3.72,7.66,7.66,0,0,1-3.39,8.57"/>
          <path class="cls-12" d="M34.71,121.74a8,8,0,0,1,1.93-9.51,8,8,0,0,1-1.93,9.51"/>
          <path class="cls-12" d="M39.67,126.53a8.5,8.5,0,0,1,.25-10.21,8.46,8.46,0,0,1-.25,10.21"/>
          <path class="cls-12" d="M45.76,130.15a8.93,8.93,0,0,1-2-10.57,8.93,8.93,0,0,1,2,10.57"/>
          <path class="cls-12" d="M43,74.61a5.61,5.61,0,0,1,6-3.09,5.61,5.61,0,0,1-6,3.09"/>
          <path class="cls-12" d="M58.69,134.34A32.08,32.08,0,0,1,42.05,74.83c.52-.31.89.12.28.49a31.3,31.3,0,0,0,16.36,58.05Z"/>
          <path class="cls-12" d="M51.92,134.31a8.44,8.44,0,0,1-10,2,8.48,8.48,0,0,1,10-2"/>
          <path class="cls-12" d="M52.4,132.38a8.17,8.17,0,0,1-4.21-8.91,8.17,8.17,0,0,1,4.21,8.91"/>
          <path class="cls-12" d="M58,135a6.73,6.73,0,0,1-7.48,3.19,6.45,6.45,0,0,1,3.2-2.85A6.39,6.39,0,0,1,58,135"/>
          <path class="cls-12" d="M58.06,133.06a6.53,6.53,0,0,1-4.73-6.26,6.5,6.5,0,0,1,4.73,6.26"/>
          <path class="cls-12" d="M132.46,132a8.89,8.89,0,0,0,10.74-.23,8.89,8.89,0,0,0-10.74.23"/>
          <path class="cls-12" d="M138.82,128a7.92,7.92,0,0,0,5.36.53,8,8,0,0,0,4.6-2.8,8.49,8.49,0,0,0-10,2.27"/>
          <path class="cls-12" d="M144.05,122.76a8,8,0,0,0,8.78-4.15,8.09,8.09,0,0,0-8.78,4.15"/>
          <path class="cls-12" d="M147.93,116.8a7.67,7.67,0,0,0,7.24-5.7,7.61,7.61,0,0,0-7.24,5.7"/>
          <path class="cls-12" d="M150.37,110.12a7.23,7.23,0,0,0,5.48-6.83,7.29,7.29,0,0,0-5.48,6.83"/>
          <path class="cls-12" d="M151.36,103.11a6.9,6.9,0,0,0,3.44-7.57,6.9,6.9,0,0,0-3.44,7.57"/>
          <path class="cls-12" d="M150.81,96.6a6.9,6.9,0,0,0,2.21-8,6.9,6.9,0,0,0-2.21,8"/>
          <path class="cls-12" d="M148.87,90a6.55,6.55,0,0,0,.53-7.89,6.59,6.59,0,0,0-.53,7.89"/>
          <path class="cls-12" d="M145.85,84.16a6.19,6.19,0,0,0-1.35-7.38,6.23,6.23,0,0,0,1.35,7.38"/>
          <path class="cls-12" d="M144.41,85.23a6.23,6.23,0,0,1-7.31-1.71,6.23,6.23,0,0,1,7.31,1.71"/>
          <path class="cls-12" d="M141.72,79.2a5.56,5.56,0,0,0,0-3.76,5.67,5.67,0,0,0-2.27-3,5.91,5.91,0,0,0,2.27,6.76"/>
          <path class="cls-12" d="M140.47,80.38a5.9,5.9,0,0,1-7.08-.88,5.9,5.9,0,0,1,7.08.88"/>
          <path class="cls-12" d="M137.79,75.85a5.63,5.63,0,0,0-3.06-6,5.6,5.6,0,0,0,3.06,6"/>
          <path class="cls-12" d="M136.64,77.1a5.62,5.62,0,0,1-6.77-.37,5.62,5.62,0,0,1,6.77.37"/>
          <path class="cls-12" d="M147.35,90.76a6.54,6.54,0,0,0-7.21-3.25,6.57,6.57,0,0,0,7.21,3.25"/>
          <path class="cls-12" d="M149.14,97.07a6.89,6.89,0,0,0-6.52-5.17,6.92,6.92,0,0,0,6.52,5.17"/>
          <path class="cls-12" d="M149.55,102.94a6.9,6.9,0,0,0-5.78-6,6.54,6.54,0,0,0,1.89,4,6.46,6.46,0,0,0,3.89,2"/>
          <path class="cls-12" d="M148.69,109.59a6.83,6.83,0,0,0-1-4.51,6.91,6.91,0,0,0-3.53-3,7.3,7.3,0,0,0,4.54,7.49"/>
          <path class="cls-12" d="M146.42,115.86a7.66,7.66,0,0,0-3.39-8.57,7.19,7.19,0,0,0,.25,4.85,7.29,7.29,0,0,0,3.14,3.72"/>
          <path class="cls-12" d="M142.63,121.74a7.63,7.63,0,0,0,.63-5.08,7.72,7.72,0,0,0-2.56-4.43,7.65,7.65,0,0,0-.63,5.08,7.55,7.55,0,0,0,2.56,4.43"/>
          <path class="cls-12" d="M137.66,126.53a8.46,8.46,0,0,0-.25-10.21,8.46,8.46,0,0,0,.25,10.21"/>
          <path class="cls-12" d="M131.58,130.15a8.91,8.91,0,0,0,2-10.57,8.91,8.91,0,0,0-2,10.57"/>
          <path class="cls-12" d="M134.39,74.61a5.62,5.62,0,0,0-6-3.09,5.41,5.41,0,0,0,2.5,2.56,5.34,5.34,0,0,0,3.54.53"/>
          <path class="cls-12" d="M118.64,134.34a32.08,32.08,0,0,0,16.65-59.51c-.53-.31-.89.12-.29.49a31.3,31.3,0,0,1-16.36,58.05Z"/>
          <path class="cls-12" d="M125.42,134.31a8.44,8.44,0,0,0,10,2,8.48,8.48,0,0,0-10-2"/>
          <path class="cls-12" d="M124.94,132.38a8.18,8.18,0,0,0,4.2-8.91,7.77,7.77,0,0,0-3.59,3.75,7.68,7.68,0,0,0-.61,5.16"/>
          <path class="cls-12" d="M119.34,135a6.73,6.73,0,0,0,7.47,3.19,6.73,6.73,0,0,0-7.47-3.19"/>
          <path class="cls-12" d="M119.28,133.06A6.5,6.5,0,0,0,124,126.8a6.5,6.5,0,0,0-4.72,6.26"/>
          <polygon class="cls-9" points="26.39 166.13 20.11 149.71 19.71 149.71 26.18 166.66 26.39 166.13"/>
          <polygon class="cls-9" points="19.71 184.68 36.88 184.68 36.88 183.61 20.11 183.61 19.71 184.68"/>
          <polygon class="cls-9" points="140.18 183.61 140.18 184.68 157.35 184.68 156.95 183.61 140.18 183.61"/>
          <polygon class="cls-9" points="150.67 166.13 150.88 166.66 157.35 149.71 156.95 149.71 150.67 166.13"/>
          <rect class="cls-9" x="36.88" y="179.28" width="103.31" height="1.06"/>
          <polygon class="cls-8" points="36.4 183.05 20.39 183.05 26.89 166.04 20.39 149.03 36.4 149.03 36.4 183.05"/>
          <polygon class="cls-10" points="36.4 183.05 20.39 183.05 26.89 166.04 20.39 149.03 36.4 149.03 36.4 183.05"/>
          <polygon class="cls-9" points="56.37 63.85 53.76 60.66 52.74 60.66 56.37 65.09 56.37 63.85"/>
          <polygon class="cls-9" points="120.7 63.85 120.7 65.09 124.33 60.66 123.31 60.66 120.7 63.85"/>
          <polygon class="cls-9" points="56.37 137.2 56.37 138.44 88.48 152.07 120.7 138.44 120.7 137.2 88.48 150.83 56.37 137.2"/>
          <polygon class="cls-8" points="120.1 136.66 88.48 150.03 56.97 136.66 56.97 63.49 53.99 59.86 123.07 59.86 120.1 63.49 120.1 136.66"/>
          <polygon class="cls-13" points="120.1 136.66 88.48 150.03 56.97 136.66 56.97 63.49 53.99 59.86 123.07 59.86 120.1 63.49 120.1 136.66"/>
          <path class="cls-14" d="M99.1,77.43H91v.95h.71c1,0,1.19.19,1.19,1.14V99.43l1,.95,2.09-1,.89.34,1.41,1.39V88.21h.83c3.32,0,7.46-1,7.46-5.47s-4.14-5.31-7.46-5.31m-.26,9.89a1.85,1.85,0,0,1-.57-.07V78.32a1.85,1.85,0,0,1,.57-.07c1.45,0,2.56,1.11,2.56,4.56,0,3.62-1.23,4.51-2.56,4.51"/>
          <path class="cls-14" d="M81.31,78.38h.59c1,0,1.19.19,1.19,1.14V86h-4.3v-6.5c0-1,.19-1.14,1.19-1.14h.59v-.95h-9v.95h.71c1,0,1.19.19,1.19,1.14v25.32a2.68,2.68,0,0,1-.06.63h.26l2.94-2.52.92-.34,1.28-1.11V87h4.3v13l.16.11,5.06-5.15.12.14V79.52c0-1,.19-1.14,1.19-1.14h.72v-.95h-9Z"/>
          <path class="cls-14" d="M73.51,105.87a.28.28,0,0,1-.22-.1.3.3,0,0,1,0-.41l3.08-2.64.09-.06.87-.31,4.11-3.57a.3.3,0,0,1,.35,0l1.39.95,4.9-5a.27.27,0,0,1,.21-.09.3.3,0,0,1,.21.1l3.23,3.57L92.9,99l0,0,1,1,1.91-.88a.26.26,0,0,1,.23,0l.89.34a.31.31,0,0,1,.09.07l2.69,2.65,4.39,2.82a.29.29,0,0,1,.09.4.28.28,0,0,1-.4.09l-4.42-2.84,0,0L96.7,100,96,99.73l-2,.92a.31.31,0,0,1-.33-.06l-1.1-1.11-1.14-.69-.07-.05L88.3,95.36l-4.85,4.93a.29.29,0,0,1-.37,0l-1.4-1-4,3.45a.19.19,0,0,1-.09.05l-.87.32-3,2.61a.28.28,0,0,1-.19.07"/>
          <path class="cls-14" d="M77.72,105.63H75.63a.13.13,0,0,1-.13-.08.12.12,0,0,1,0-.15l1.38-1.76a.15.15,0,0,1,.06,0l1.19-.41,3.2-2.66a.16.16,0,0,1,.13,0,.15.15,0,0,1,.1.09l.76,2a.13.13,0,0,1,0,.15L80,105.21a.12.12,0,0,1-.08,0l-2.13.38h0m-1.79-.29h1.78l2.07-.36L82,102.65l-.65-1.77-3.06,2.54,0,0-1.17.4Z"/>
          <path class="cls-14" d="M81.66,104.83a.14.14,0,0,1-.12-.06.14.14,0,0,1,0-.18l2-2.27.53-1.65,0-.06,4.1-4.26a.13.13,0,0,1,.14,0,.15.15,0,0,1,.11.11l.41,2a.14.14,0,0,1,0,.12L87.77,100l-.62,1.7a.13.13,0,0,1-.06.07l-5.36,3.09-.07,0m2.68-4-.54,1.65a.09.09,0,0,1,0,0l-1.43,1.63,4.56-2.62.61-1.67a.08.08,0,0,1,0,0l1-1.37-.34-1.67Z"/>
          <path class="cls-14" d="M89.9,103.21H88a.14.14,0,0,1-.12-.07.13.13,0,0,1,0-.13l1.26-3.1a.05.05,0,0,1,0,0l.88-1a.15.15,0,0,1,.2,0l1.55,1.25,0,0,.8,1.21a.2.2,0,0,1,0,.11.13.13,0,0,1-.07.09L90,103.18a.11.11,0,0,1-.08,0m-1.71-.29h1.67l2.39-1.53-.7-1.08-1.42-1.15-.77.88Z"/>
          <path class="cls-14" d="M91.13,105.33a.14.14,0,0,1-.13-.08.14.14,0,0,1,0-.17l1-.87s0,0,0,0l1.11-.67v-1.17a.14.14,0,0,1,.06-.12l2.43-1.71a.14.14,0,0,1,.17,0l1.34,1.13a.13.13,0,0,1,0,.13.14.14,0,0,1-.07.11l-1.41.81-.36,1.4a.16.16,0,0,1-.08.1l-1.39.61h0l-2.7.51h0m1.08-.9-.59.52,2.17-.41,1.3-.58.36-1.4a.2.2,0,0,1,.07-.09l1.29-.73-1.1-.92-2.27,1.6v1.19a.15.15,0,0,1-.07.12Z"/>
          <path class="cls-11" d="M102.24,106.72h.84a20.7,20.7,0,0,0,4.77-22.3.3.3,0,0,0-.38-.17.3.3,0,0,0-.16.38,20.13,20.13,0,0,1-5.07,22.09"/>
          <path class="cls-11" d="M74.11,106.72H75a20.09,20.09,0,0,1-2.59-26.61.29.29,0,0,0-.46-.34,20.65,20.65,0,0,0,2.21,27"/>
          <path class="cls-11" d="M101.9,76.81a.26.26,0,0,1-.19-.07,20,20,0,0,0-8.61-4.36.29.29,0,0,1-.21-.35.28.28,0,0,1,.34-.21,20.6,20.6,0,0,1,8.86,4.48.3.3,0,0,1,0,.41.28.28,0,0,1-.22.1"/>
          <path class="cls-11" d="M75.62,76.53a.29.29,0,0,1-.22-.11.3.3,0,0,1,0-.41,20.65,20.65,0,0,1,8.76-4.25.29.29,0,0,1,.34.22.3.3,0,0,1-.22.35,20.07,20.07,0,0,0-8.51,4.13.32.32,0,0,1-.19.07"/>
          <path class="cls-11" d="M100.17,69.61s0,0,0,0l-.65,1.25s0,0,0,0l.43.22s0,0,0,0h0s0,0,0,0l.67-1.24s0,0,0,0l0,0-.44-.23"/>
          <path class="cls-11" d="M101.93,70.61h0s0,0,0,0l-.75,1.19v0a0,0,0,0,0,0,0l.4.26h0s0,0,0,0l.77-1.18a0,0,0,0,0,0,0l-.43-.27"/>
          <path class="cls-11" d="M103.6,71.75a0,0,0,0,0,0,0l-.84,1.13v0a0,0,0,0,0,0,0l.38.29h0l.86-1.12s0,0,0,0,0,0,0,0l-.41-.3"/>
          <path class="cls-11" d="M98.33,68.75s0,0,0,0l-.54,1.3a0,0,0,0,0,0,0l.44.19h0L98.81,69s0,0,0,0l-.46-.2"/>
          <path class="cls-11" d="M108.33,76.3l-.32-.39h0l-1.09.91s0,0,0,0,.2.24.3.36,0,0,0,0h0l1.1-.88a0,0,0,0,0,0,0"/>
          <path class="cls-11" d="M107,74.77l-.35-.37a0,0,0,0,0,0,0l-1,1a0,0,0,0,0,0,0l.33.34h0l1-1a0,0,0,0,0,0,0"/>
          <path class="cls-11" d="M105.18,73a0,0,0,0,0,0,0l-.92,1.06s0,0,0,0l.35.32h0l1-1s0,0,0,0,0,0,0,0l-.38-.34"/>
          <path class="cls-11" d="M81,68l-.48.15,0,0v0l.46,1.33s0,0,0,0h0l.45-.15s0,0,0,0L81,68a0,0,0,0,0,0,0"/>
          <path class="cls-11" d="M79.11,68.73s0,0,0,0l-.47.2s0,0,0,0l.57,1.29a0,0,0,0,0,0,0h0l.44-.18s0,0,0,0Z"/>
          <path class="cls-11" d="M95,67.62l-.49-.12s0,0,0,0l-.33,1.37s0,0,0,0l.47.12h0s0,0,0,0L95,67.65v0h0"/>
          <path class="cls-11" d="M83,67.48h0l-.49.12s0,0,0,0L82.76,69l0,0h0l.46-.11s0,0,0,0a0,0,0,0,0,0,0L83,67.5s0,0,0,0"/>
          <path class="cls-11" d="M96.91,68.21,96.42,68h0L96,69.4v0h0l.45.15h0a0,0,0,0,0,0,0l.46-1.33s0,0,0,0a0,0,0,0,0,0,0"/>
          <path class="cls-11" d="M68.23,104v0l-.24-.41s0,0,0,0l-1.23.69s0,0,0,0l.25.44h0l1.22-.72v0"/>
          <path class="cls-11" d="M110.73,83.38c.06.15.12.3.17.45h0l1.32-.48s0,0,0,0-.12-.32-.18-.47,0,0,0,0l-1.31.51a0,0,0,0,0,0,0"/>
          <path class="cls-11" d="M111.35,85.18c.05.16.09.31.13.46a0,0,0,0,0,0,0h0l1.36-.37a0,0,0,0,0,0,0s0,0,0,0c-.05-.17-.1-.33-.14-.48s0,0,0,0l-1.35.4s0,0,0,0"/>
          <path class="cls-11" d="M111.82,87v0c0,.17.07.32.09.47l0,0h0l1.38-.26a0,0,0,0,0,0,0c0-.16-.07-.33-.1-.5,0,0,0,0,0,0h0l-1.38.29h0"/>
          <path class="cls-11" d="M115.25,90.79v-.05l0,0-2.88.07s0,0,0,0,0,0,0,0v0c0,.16,0,.32,0,.48a0,0,0,0,0,0,0h0l2.88,0h0s0,0,0,0c0-.17,0-.34,0-.51"/>
          <path class="cls-11" d="M108,78.36l.27.39s0,0,0,0h0l1.17-.79v0s0,0,0,0l-.28-.42a0,0,0,0,0,0,0l-1.15.81a0,0,0,0,0,0,0"/>
          <path class="cls-11" d="M110,81.61v0c.07.14.14.28.2.43h0l1.28-.59s0,0,0,0l-.22-.45a0,0,0,0,0,0,0h0L110,81.6h0"/>
          <path class="cls-11" d="M108.27,105.29s0,0,0,0-.18.27-.27.39,0,0,0,0,0,0,0,0l1.14.82h0l0,0c.1-.13.19-.26.29-.41s0,0,0,0Z"/>
          <path class="cls-11" d="M109.28,103.67h0c-.07.14-.16.28-.24.41v0h0l1.21.73h0l.26-.44v0a0,0,0,0,0,0,0Z"/>
          <path class="cls-11" d="M77.28,69.57l0,0s0,0,0,0l-.45.23s0,0,0,0l.66,1.24,0,0h0l.42-.22h0v0Z"/>
          <path class="cls-11" d="M109.07,79.94v0l.24.41h0l1.23-.69s0,0,0,0l-.26-.44h0l-1.22.72s0,0,0,0"/>
          <path class="cls-11" d="M69,105.17h0l-1.17.79s0,0,0,0,0,0,0,0l.29.42s0,0,0,0h0l1.15-.81s0,0,0,0l-.27-.39"/>
          <path class="cls-11" d="M112.14,88.91l.06.48a0,0,0,0,0,0,0h0l1.4-.15h0a0,0,0,0,1,0,0q0-.27-.06-.51a.05.05,0,0,0,0,0l-1.39.18a0,0,0,0,0,0,0"/>
          <path class="cls-11" d="M66.57,100.56v0l-.17-.45h0a0,0,0,0,0,0,0l-1.32.48h0v0l.18.48s0,0,0,0h0l1.31-.51,0,0"/>
          <path class="cls-11" d="M65,93.11v0c0-.15,0-.3,0-.45a0,0,0,0,0,0,0l-1.41,0h0s0,0,0,0,0,.32,0,.48v0a0,0,0,0,1,0,0h0L65,93.14a0,0,0,0,0,0,0"/>
          <path class="cls-11" d="M110.16,102a0,0,0,0,0,0,0c-.06.14-.13.28-.2.43a0,0,0,0,0,0,0l1.26.62h0s0,0,0,0,.15-.31.22-.46v0a0,0,0,0,0,0,0Z"/>
          <path class="cls-11" d="M66,98.76v0c0-.15-.09-.3-.13-.45s0,0,0,0l-1.36.37s0,0,0,0,.09.32.14.48,0,0,0,0h0l1.35-.4h0"/>
          <path class="cls-11" d="M65.16,95v0l-.06-.48s0,0,0,0h0l-1.4.15s0,0,0,0v0l.06.5a0,0,0,0,0,0,0h0l1.4-.18h0"/>
          <path class="cls-11" d="M65.48,96.89l-.09-.47s0,0,0,0L64,96.66h0v0c0,.17.06.34.1.5s0,0,0,0h0l1.38-.29s0,0,0,0"/>
          <path class="cls-11" d="M67.33,102.31v0c-.07-.14-.14-.28-.2-.42s0,0,0,0h0l-1.28.59s0,0,0,0l.22.45a0,0,0,0,0,0,0h0l1.27-.62h0"/>
          <path class="cls-11" d="M113.62,94.8l-1.4-.15s0,0,0,0l-.06.47v0h0l1.4.18h0v0c0-.18,0-.35.06-.5s0,0,0,0"/>
          <path class="cls-11" d="M113.76,92.79l-1.4-.05h0v0c0,.15,0,.31,0,.48v0h0l1.41.07h0s0,0,0,0,0-.32,0-.5c0,0,0,0,0,0h0"/>
          <path class="cls-11" d="M113.31,96.8l-1.38-.27s0,0,0,0,0,0,0,0-.07.31-.1.46v0l0,0,1.38.3h0s0,0,0,0c0-.17.07-.33.11-.49s0,0,0,0"/>
          <path class="cls-11" d="M112.22,100.7l-1.32-.49s0,0,0,0-.12.3-.17.44v0a0,0,0,0,0,0,0l1.31.52h0s0,0,0,0,.13-.31.19-.47a0,0,0,0,0,0,0h0"/>
          <path class="cls-11" d="M112.84,98.77l-1.35-.38h0s0,0,0,0l-.13.46v0s0,0,0,0l1.35.41h0s0,0,0,0,.1-.33.14-.49,0,0,0,0"/>
          <path class="cls-11" d="M72.26,72.94h0l-.38.33a0,0,0,0,0,0,0l1,1s0,0,0,0h0l.35-.31a0,0,0,0,0,0,0,0,0,0,0,0,0,0Z"/>
          <path class="cls-11" d="M65,91.23a0,0,0,0,0,0,0c0-.16,0-.32,0-.48v0h0l-3.12-.07h0a0,0,0,0,0,0,0c0,.17,0,.33,0,.5,0,0,0,0,0,0s0,0,0,0l3.12,0Z"/>
          <path class="cls-11" d="M68.18,77.42h0l-.29.42a0,0,0,0,0,0,0l1.16.79h0s0,0,0,0l.28-.39v0s0,0,0,0Z"/>
          <path class="cls-11" d="M68,80.29h0s0,0,0,0,.16-.26.24-.41,0,0,0,0a0,0,0,0,0,0,0l-1.21-.72s0,0,0,0l-.25.44s0,0,0,0,0,0,0,0Z"/>
          <path class="cls-11" d="M70.78,74.32h0c-.12.12-.24.24-.35.37s0,0,0,0l1,1h0s0,0,0,0,.22-.23.34-.34v0Z"/>
          <path class="cls-11" d="M75.51,70.56s0,0,0,0-.29.17-.43.27a0,0,0,0,0,0,0s0,0,0,0L75.8,72h0l.41-.26s0,0,0,0Z"/>
          <path class="cls-11" d="M73.84,71.68a0,0,0,0,0,0,0l-.41.3a0,0,0,0,0,0,0s0,0,0,0l.85,1.12h0a0,0,0,0,0,0,0l.39-.28a0,0,0,0,0,0,0Z"/>
          <path class="cls-11" d="M69.42,75.82h0l-.32.39a0,0,0,0,0,0,0l1.1.89h0l.3-.37s0,0,0,0,0,0,0,0Z"/>
          <path class="cls-11" d="M64,87.17l1.39.27h0a0,0,0,0,0,0,0c0-.16.06-.32.1-.46a0,0,0,0,0,0,0h0l-1.37-.3h0c0,.17-.07.33-.1.5v0l0,0"/>
          <path class="cls-11" d="M67.14,82h0l0,0c.07-.14.13-.29.2-.43s0,0,0,0l-1.26-.62s0,0,0,0l-.22.46s0,0,0,0Z"/>
          <path class="cls-11" d="M63.69,89.17l1.4.15h0s0,0,0,0l.06-.48v0h0l-1.39-.18s0,0,0,0l-.06.5s0,0,0,0"/>
          <path class="cls-11" d="M64.46,85.2l1.35.38h0s0,0,0,0c0-.16.09-.31.13-.46s0,0,0,0l-1.35-.4s0,0,0,0c0,.17-.1.33-.14.49v0l0,0"/>
          <path class="cls-11" d="M65.08,83.27l1.32.49h0s0,0,0,0l.17-.45a0,0,0,0,0,0,0l-1.31-.52s0,0,0,0-.12.3-.18.47c0,0,0,0,0,0"/>
          <polygon class="cls-14" points="98.69 103.12 98.57 103.12 98.3 103.59 99.31 103.59 98.69 103.12"/>
          <polygon class="cls-14" points="88.59 101.55 88.4 102.01 91.55 102.01 92.27 101.55 88.59 101.55"/>
          <polygon class="cls-14" points="93.29 103.59 95.34 103.59 95.46 103.12 93.29 103.12 93.29 103.59"/>
          <polygon class="cls-14" points="95.55 100.75 94.89 101.22 96.41 101.22 95.86 100.75 95.55 100.75"/>
          <polygon class="cls-14" points="90.31 102.8 91.04 102.33 88.27 102.33 88.08 102.8 90.31 102.8"/>
          <polygon class="cls-14" points="96.8 101.55 94.43 101.55 93.78 102.01 96.63 102.01 97.06 101.76 96.8 101.55"/>
          <polygon class="cls-14" points="96.06 102.33 93.31 102.33 93.29 102.35 93.29 102.8 95.54 102.8 95.59 102.6 96.06 102.33"/>
          <polygon class="cls-14" points="90.95 99.64 90.38 99.18 89.92 99.18 89.52 99.64 90.95 99.64"/>
          <polygon class="cls-14" points="95.26 103.91 92.78 103.91 92.12 104.32 92.05 104.38 94.52 104.38 95.22 104.07 95.26 103.91"/>
          <polygon class="cls-14" points="81.33 103.59 81.78 103.12 78.45 103.12 78.22 103.31 77.43 103.59 81.33 103.59"/>
          <polygon class="cls-14" points="87.15 101.22 87.32 100.75 84.19 100.75 84.05 101.22 87.15 101.22"/>
          <polygon class="cls-14" points="79.86 105.11 80.25 104.7 76.25 104.7 76.02 104.99 76.02 105.17 79.55 105.17 79.86 105.11"/>
          <polygon class="cls-14" points="82.33 103.91 81.92 104.38 82.18 104.38 82.99 103.91 82.33 103.91"/>
          <polygon class="cls-14" points="84.93 102.8 85.73 102.33 83.68 102.33 83.67 102.39 83.31 102.8 84.93 102.8"/>
          <polygon class="cls-14" points="80.57 104.38 81.01 103.91 76.87 103.91 76.5 104.38 80.57 104.38"/>
          <polygon class="cls-14" points="87.44 100.43 87.61 99.97 84.93 99.97 84.48 100.43 87.44 100.43"/>
          <polygon class="cls-14" points="87.83 99.64 88.18 99.18 85.69 99.18 85.24 99.64 87.83 99.64"/>
          <polygon class="cls-14" points="81.66 101.22 81.49 100.75 81.3 100.75 80.74 101.22 81.66 101.22"/>
          <polygon class="cls-14" points="82.09 102.8 82.2 102.68 82.07 102.33 79.4 102.33 78.84 102.8 82.09 102.8"/>
          <polygon class="cls-14" points="91.8 100.43 91.66 100.22 91.35 99.97 89.23 99.97 89.04 100.43 91.8 100.43"/>
          <polygon class="cls-14" points="91.68 104.7 91.15 105.17 91.24 105.17 93.72 104.7 91.68 104.7"/>
          <polygon class="cls-14" points="88.43 98.85 88.73 98.46 88.72 98.39 86.45 98.39 86 98.85 88.43 98.85"/>
          <polygon class="cls-14" points="81.95 102.01 81.78 101.55 80.35 101.55 79.79 102.01 81.95 102.01"/>
          <polygon class="cls-14" points="86.3 102.01 87.01 101.6 87.03 101.55 83.94 101.55 83.79 102.01 86.3 102.01"/>
          <polygon class="cls-14" points="83.56 103.59 84.36 103.12 83.02 103.12 82.62 103.59 83.56 103.59"/>
          <polygon class="cls-14" points="92.32 101.22 92.01 100.75 88.91 100.75 88.72 101.22 92.32 101.22"/>
          <polygon class="cls-14" points="87.52 97.27 88.48 97.27 88.39 96.81 87.97 96.81 87.52 97.27"/>
          <polygon class="cls-14" points="99.75 103.91 98.1 103.91 97.83 104.37 97.85 104.38 100.38 104.38 99.75 103.91"/>
          <polygon class="cls-14" points="88.65 98.06 88.55 97.6 87.21 97.6 86.76 98.06 88.65 98.06"/>
          <path class="cls-14" d="M92.8,64.71a0,0,0,0,0,0,0h0c-6.46.62-7.29,5.08-5.17,6.5-.37,1.61,0,1.58,0,1.58a11.69,11.69,0,0,1,.29-1.43c.82-3.14,2.86-5.87,4.92-6.59h0a0,0,0,0,0,0,0"/>
          <path class="cls-14" d="M92.45,65.73a0,0,0,0,0,0,0l0,0a34.45,34.45,0,0,0-1.1,3.69c-.46,1.32-1.29,2.2-2.57,2.12v3.19s-3.41-1.54-3.41-4V66.05l2.79-.26h0s0,0,0,0a0,0,0,0,0,0,0H85v5c0,2.8,3.72,4.35,3.72,4.35s3.73-1.58,3.73-4.35v-5Z"/>
          <path class="cls-14" d="M100.78,104.83H99.12l-1.32-.31a.14.14,0,0,1-.1-.08.12.12,0,0,1,0-.13l.77-1.31a.14.14,0,0,1,.1-.07.14.14,0,0,1,.11,0l2.18,1.62a.16.16,0,0,1,0,.17.14.14,0,0,1-.14.1m-1.61-.29h1.18l-1.7-1.27-.59,1Z"/>
          <path class="cls-14" d="M112.16,107H65.52a.23.23,0,0,1,0-.46h46.64a.23.23,0,0,1,0,.46"/>
          <path class="cls-14" d="M78.22,136H69.59a.23.23,0,1,1,0-.46h8.63a.23.23,0,0,1,0,.46"/>
          <path class="cls-14" d="M107.48,136H98.87a.23.23,0,1,1,0-.46h8.61a.23.23,0,0,1,0,.46"/>
          <path class="cls-11" d="M65,114.11h.17c.24,0,.29,0,.29-.29v-3.67c0-.24,0-.29-.29-.29H65v-.24h2.06c1.2,0,2,.72,2,2.35s-.76,2.39-2,2.39H65ZM67.73,112c0-1.41-.22-2.15-.8-2.15l-.16,0v4.25l.2,0c.54,0,.76-.72.76-2.14"/>
          <path class="cls-11" d="M69.52,114.11h.17c.25,0,.29,0,.29-.29v-3.67c0-.24,0-.29-.29-.29h-.17v-.24h3.54v1.56H72.8a1.29,1.29,0,0,0-1.33-1.33c-.06,0-.18,0-.18.05v1.9c.39,0,.73-.43.73-1h.26v2.29H72c0-.68-.34-1-.73-1v1.78c0,.23,0,.32.27.32.7,0,1.3-.94,1.34-1.67h.26l-.06,1.89H69.52Z"/>
          <path class="cls-11" d="M77.53,109.62v.24h-.19a.29.29,0,0,0-.29.22l-1.3,4.32h-.4l-1.51-4.34a.29.29,0,0,0-.28-.2h-.2v-.24H75.7v.24h-.23a.16.16,0,0,0-.18.16.25.25,0,0,0,0,.07l.77,2.28.67-2.3s0,0,0,0a.17.17,0,0,0-.18-.16h-.24v-.24Z"/>
          <path class="cls-11" d="M77.76,114.11h.17c.25,0,.29,0,.29-.29v-3.67c0-.24,0-.29-.29-.29h-.17v-.24H81.3v1.56H81a1.29,1.29,0,0,0-1.33-1.33c-.06,0-.18,0-.18.05v1.9c.39,0,.73-.43.73-1h.26v2.29h-.26c0-.68-.34-1-.73-1v1.78c0,.23,0,.32.26.32.7,0,1.31-.94,1.34-1.67h.26l-.06,1.89H77.76Z"/>
          <path class="cls-11" d="M82,114.11h.17c.24,0,.29,0,.29-.29v-3.67c0-.24,0-.29-.29-.29H82v-.24h2.23v.24h-.17c-.25,0-.29,0-.29.29v3.56c0,.32.06.42.24.42.55,0,1.12-1,1.18-1.7h.25l0,1.93H82Z"/>
          <path class="cls-11" d="M85.74,112a2,2,0,1,1,4,0,2.21,2.21,0,0,1-2,2.46c-1.09,0-2-1-2-2.45m2.47,1.23v-2.46c0-.67-.2-1-.5-1s-.49.32-.49,1v2.46c0,.68.21,1,.49,1s.5-.33.5-1"/>
          <path class="cls-11" d="M90.05,114.11h.18c.24,0,.29,0,.29-.29v-3.67c0-.24,0-.29-.29-.29h-.18v-.24h2c.81,0,1.82.22,1.82,1.35s-1,1.4-1.82,1.4h-.21v1.45c0,.24.05.29.29.29h.18v.24H90.05ZM92.59,111c0-.88-.27-1.16-.63-1.16h-.14v2.28l.14,0c.33,0,.63-.23.63-1.15"/>
          <path class="cls-11" d="M94.93,110.66v3.16c0,.24,0,.29.29.29h.17v.24H94.17v-.24h.18c.23,0,.29,0,.29-.29v-3.74c0-.18-.07-.22-.29-.22h-.17v-.24H96l.75,2.87.73-2.87H99.3v.24h-.18c-.24,0-.29,0-.29.29v3.67c0,.24,0,.29.29.29h.18v.24H97.09v-.24h.17c.25,0,.29,0,.29-.29v-3.21l-1,3.74H95.9Z"/>
          <path class="cls-11" d="M99.74,114.11h.17c.25,0,.29,0,.29-.29v-3.67c0-.24,0-.29-.29-.29h-.17v-.24h3.54v1.56H103a1.29,1.29,0,0,0-1.33-1.33c-.06,0-.18,0-.18.05v1.9c.39,0,.73-.43.73-1h.26v2.29h-.26c0-.68-.34-1-.73-1v1.78c0,.23,0,.32.26.32.7,0,1.31-.94,1.34-1.67h.26l-.06,1.89H99.74Z"/>
          <path class="cls-11" d="M104,114.11h.12c.24,0,.3,0,.3-.29v-3.74c0-.18-.06-.22-.28-.22H104v-.24h1.75l1.45,2.86v-2.33c0-.25,0-.29-.29-.29h-.12v-.24h1.09v.24h-.11c-.21,0-.28,0-.28.29l0,4.21h-.93l-1.87-3.83,0,3.29c0,.24.07.29.3.29h.14v.25H104Z"/>
          <path class="cls-11" d="M109,114.11h.18c.24,0,.29,0,.29-.29v-3.91s0,0-.07,0c-.46,0-.94,1.07-.94,1.71h-.26v-1.95h3.88v1.95h-.25c0-.64-.49-1.71-.95-1.71,0,0-.06,0-.06,0v3.91c0,.24,0,.29.29.29h.17v.25H109Z"/>
          <path class="cls-11" d="M69,130.07h.53c.75,0,.89-.14.89-.88V118c0-.74-.14-.88-.89-.88H69v-.74h6.73v.74h-.45c-.74,0-.88.14-.88.88v5h3.2v-5c0-.74-.14-.88-.88-.88h-.45v-.74H83v.74h-.53c-.75,0-.89.14-.89.88v11.17c0,.74.14.88.89.88H83v.75H76.26v-.75h.45c.74,0,.88-.14.88-.88v-5.38h-3.2v5.38c0,.74.14.88.88.88h.45v.75H69Zm4.69-12.47a1.41,1.41,0,0,1,.11-.46H71a1.7,1.7,0,0,1,.12.46Zm.11,12.47a1.55,1.55,0,0,1-.11-.46H71.13a1.93,1.93,0,0,1-.12.46Zm-.14-12h-2.5v.46h2.5Zm0,.89h-2.5v.46h2.5Zm0,.9h-2.5v.46h2.5Zm0,.88h-2.5v.46h2.5Zm0,.91h-2.5v.46h2.5Zm0,.88h-2.5v.46h2.5Zm0,.89h-2.5v.46h2.5Zm0,.9h-2.5v.46h2.5Zm0,.88h-2.5v.46h2.5Zm0,.89h-2.5v.46h2.5Zm0,.9h-2.5v.46h2.5Zm0,.89h-2.5v.46h2.5Zm0,.88h-2.5v.46h2.5Zm7.21-11.11a1.73,1.73,0,0,1,.11-.46H78.19a1.68,1.68,0,0,1,.13.46ZM81,130.07a1.94,1.94,0,0,1-.11-.46H78.32a1.92,1.92,0,0,1-.13.46Zm-.14-12h-2.5v.46h2.5Zm0,.89h-2.5v.46h2.5Zm0,.9h-2.5v.46h2.5Zm0,.88h-2.5v.46h2.5Zm0,.91h-2.5v.46h2.5Zm0,.88h-2.5v.46h2.5Zm0,.89h-2.5v.46h2.5Zm0,.9h-2.5v.46h2.5Zm0,.88h-2.5v.46h2.5Zm0,.89h-2.5v.46h2.5Zm0,.9h-2.5v.46h2.5Zm0,.89h-2.5v.46h2.5Zm0,.88h-2.5v.46h2.5Z"/>
          <path class="cls-11" d="M85.43,127.24V118c0-.74-.14-.88-.89-.88H84v-.74H90.7v.74h-.44c-.74,0-.89.14-.89.88v9.58c0,1.46.78,2.17,1.84,2.17s1.88-.71,1.88-2.35V118c0-.74-.14-.88-.89-.88h-.26v-.74H95.2v.74h-.36c-.74,0-.88.14-.88.88v9.4c0,2.26-1.29,3.59-4.27,3.59-3.27,0-4.26-1.8-4.26-3.77m3.24-9.66a1.3,1.3,0,0,1,.1-.44H86a1.28,1.28,0,0,1,.12.44Zm0,.44H86.17v.46h2.46Zm0,.91H86.17v.46h2.46Zm0,.92H86.17v.46h2.46Zm0,.9H86.17v.46h2.46Zm0,.9H86.17v.46h2.46Zm0,.9H86.17V123h2.46Zm0,.91H86.17v.46h2.46Zm0,.9H86.17v.46h2.46Zm0,.9H86.17v.46h2.46Zm0,.92H86.17v.46h2.46Zm0,1.36v-.46H86.17v.16a1.56,1.56,0,0,0,0,.3Zm.09.9a3.17,3.17,0,0,1-.07-.46H86.23a3.09,3.09,0,0,0,.12.46Zm.35.91a3.29,3.29,0,0,1-.23-.46h-2.3a2.61,2.61,0,0,0,.34.46Zm1,.9a2.14,2.14,0,0,1-.64-.46h-2a4.21,4.21,0,0,0,1.94.46Zm3.73-13.13h-.5a2.09,2.09,0,0,1,.25.43,2.09,2.09,0,0,1,.25-.43"/>
          <path class="cls-11" d="M96.12,130.07h.53c.74,0,.88-.14.88-.88l0-11.34c0-.61-.2-.71-.89-.71h-.53v-.74h7.38c2.83,0,4.17,1.41,4.17,3.53a3.11,3.11,0,0,1-2.7,3.35v.07a3.24,3.24,0,0,1,3.08,3.56,3.65,3.65,0,0,1-3.91,3.91h-8Zm4.51,0v-.46H98.24a1.41,1.41,0,0,1-.11.46Zm0-12.47v-.46H98.17a1.93,1.93,0,0,1,.12.46Zm0,8.46H98.27v.46h2.36Zm0,.88H98.27v.46h2.36Zm0,.88H98.27v.46h2.36Zm0,.91H98.27v.46h2.36Zm0-8H98.29v.46h2.34Zm0,.9H98.29v.46h2.34Zm0,.88H98.29v.46h2.34Zm0,.89H98.29v.46h2.34Zm0,.9H98.29v.46h2.34Zm0,.88H98.29v.46h2.34Zm0-7.13H98.31v.46h2.32Zm0,.91H98.31v.46h2.32Zm0,.88H98.31v.46h2.32Zm3.16.25c0-1.86-.46-3-1.8-3a3.12,3.12,0,0,0-.62,0v5.91a6.38,6.38,0,0,0,.71,0c1.25,0,1.71-1.18,1.71-3m-.05,6.85c0-1.9-.46-3.21-1.61-3.21a3.13,3.13,0,0,0-.76.06v6.31c.12,0,.62,0,.76,0,1.15,0,1.61-1.29,1.61-3.2m2.21,2.76h-2a3.24,3.24,0,0,1-.28.47,4.26,4.26,0,0,0,2.26-.47m-.12-5.53a4.42,4.42,0,0,0-2.12-.47,2.43,2.43,0,0,1,.28.47Zm-.39-1.52H104a2,2,0,0,1-.28.45,3.41,3.41,0,0,0,1.68-.45m.34-5a3.58,3.58,0,0,0-1.93-.48,5.21,5.21,0,0,1,.26.48Zm.7,11.66a2.73,2.73,0,0,0,.38-.46h-2.59c0,.16-.09.31-.14.46Zm.34-4.29a2.94,2.94,0,0,0-.41-.46h-2.26c0,.15.09.31.14.46Zm-.76-2.83a1.74,1.74,0,0,0,.37-.46h-2.05a3.09,3.09,0,0,1-.13.46Zm.58-3.64a3.83,3.83,0,0,0-.33-.46h-2a3.09,3.09,0,0,1,.13.46Zm.57,7.34a3.14,3.14,0,0,0-.18-.46h-2.67l.07.46Zm-.14,2.55c.07-.14.1-.3.16-.46h-2.8l-.07.46Zm-.14-9a2.21,2.21,0,0,0-.11-.46h-2.35l0,.46Zm-.25,1.82a4.9,4.9,0,0,0,.18-.46h-2.34l0,.46Zm.65,5.45a3.33,3.33,0,0,0,0-.46h-2.83v.46Zm0,.85a3.33,3.33,0,0,0,0-.46h-2.85v.46Zm-.36-7.22a3.1,3.1,0,0,0,0-.44v0h-2.42v.46Z"/>
          <path class="cls-14" d="M83.14,138.42a2.68,2.68,0,1,1,0-5.35h0a2.48,2.48,0,0,1,.54.06h0l.52.12a18.75,18.75,0,0,0,2.11.42.24.24,0,0,1,.2.26.23.23,0,0,1-.26.19,16,16,0,0,1-2.17-.43,4.74,4.74,0,0,0-.49-.1h0a1.76,1.76,0,0,0-.46-.06h0a2.22,2.22,0,0,0,0,4.43h0a2.31,2.31,0,0,0,.46,0h0a4.85,4.85,0,0,0,.49-.11,17.87,17.87,0,0,1,2.18-.43.23.23,0,0,1,.06.46,15.29,15.29,0,0,0-2.12.42l-.52.12h0a3.06,3.06,0,0,1-.54.07Z"/>
          <path class="cls-14" d="M93.93,138.42h-.05a3.33,3.33,0,0,1-.54-.07h0l-.52-.12a15.29,15.29,0,0,0-2.12-.42.23.23,0,0,1-.2-.26.22.22,0,0,1,.26-.2,17.87,17.87,0,0,1,2.18.43,4.68,4.68,0,0,0,.48.11h0a2.3,2.3,0,0,0,.45,0h0a2.22,2.22,0,0,0,0-4.43h0a1.76,1.76,0,0,0-.46.06h0l-.49.11a17.9,17.9,0,0,1-2.18.44.24.24,0,0,1-.26-.2.22.22,0,0,1,.2-.26,18.92,18.92,0,0,0,2.12-.42l.52-.12h0a2.51,2.51,0,0,1,.55-.06h0a2.68,2.68,0,0,1,0,5.35"/>
          <path class="cls-14" d="M83.13,137.55a1.81,1.81,0,0,1,0-3.61h0a2.32,2.32,0,0,1,.38.05h.07l.44.1a17.12,17.12,0,0,0,2.35.46.22.22,0,0,1,.2.26.24.24,0,0,1-.26.2,18,18,0,0,1-2.41-.47l-.41-.09-.08,0a1.36,1.36,0,0,0-.29,0h0a1.35,1.35,0,0,0-1.32,1.34,1.33,1.33,0,0,0,1.32,1.34h0a1.33,1.33,0,0,0,.28,0l.07,0,.42-.09a18,18,0,0,1,2.41-.47.22.22,0,0,1,.26.2.23.23,0,0,1-.2.26,17.12,17.12,0,0,0-2.35.46l-.45.1h-.07a1.42,1.42,0,0,1-.36,0Z"/>
          <path class="cls-14" d="M94,137.55h0a1.58,1.58,0,0,1-.38,0h-.07l-.44-.1a17.12,17.12,0,0,0-2.35-.46.23.23,0,0,1-.2-.26.22.22,0,0,1,.25-.2,17.84,17.84,0,0,1,2.42.47l.41.09.08,0a1.36,1.36,0,0,0,.29,0h0a1.34,1.34,0,0,0,0-2.68h0a1.27,1.27,0,0,0-.28,0h-.08l-.41.1a17.84,17.84,0,0,1-2.42.47.23.23,0,0,1-.25-.2.22.22,0,0,1,.2-.26A17.12,17.12,0,0,0,93,134.1l.45-.1h.07a2,2,0,0,1,.36-.05h0a1.81,1.81,0,0,1,0,3.61"/>
          <path class="cls-14" d="M93.93,139.29h-.06a2.9,2.9,0,0,1-.72-.09,4,4,0,0,1-.58-.13,15.77,15.77,0,0,0-8.07,0c-.2.06-.39.1-.59.14a3.36,3.36,0,0,1-.71.08h-.06a3.55,3.55,0,0,1,0-7.1h.06a3.53,3.53,0,0,1,.72.08l.58.13a15.55,15.55,0,0,0,8.07,0l.59-.13a3.29,3.29,0,0,1,.71-.08h.06a3.55,3.55,0,0,1,0,7.1m-5.4-1.21a15.85,15.85,0,0,1,4.16.55,5.41,5.41,0,0,0,.55.12,3.5,3.5,0,0,0,.64.08h.05a3.09,3.09,0,0,0,0-6.17h-.05a3.29,3.29,0,0,0-.63.07l-.56.13a16,16,0,0,1-8.31,0,5.41,5.41,0,0,0-.55-.12,2.87,2.87,0,0,0-.64-.08h0a3.09,3.09,0,1,0,0,6.17h0a3.4,3.4,0,0,0,.64-.08,5.05,5.05,0,0,0,.56-.12,15.83,15.83,0,0,1,4.15-.55"/>
          <path class="cls-14" d="M86.37,138.47a.23.23,0,0,1-.23-.23v-5a.23.23,0,1,1,.46,0v5a.23.23,0,0,1-.23.23"/>
          <path class="cls-14" d="M87.24,138.47a.23.23,0,0,1-.24-.23v-5a.24.24,0,0,1,.47,0v5a.23.23,0,0,1-.23.23"/>
          <path class="cls-14" d="M88.1,138.47a.23.23,0,0,1-.23-.23v-5a.23.23,0,1,1,.46,0v5a.23.23,0,0,1-.23.23"/>
          <path class="cls-14" d="M89,138.47a.23.23,0,0,1-.24-.23v-5a.24.24,0,0,1,.47,0v5a.23.23,0,0,1-.23.23"/>
          <path class="cls-14" d="M89.83,138.47a.23.23,0,0,1-.23-.23v-5a.23.23,0,1,1,.46,0v5a.23.23,0,0,1-.23.23"/>
          <path class="cls-14" d="M90.7,138.47a.23.23,0,0,1-.24-.23v-5a.24.24,0,0,1,.47,0v5a.23.23,0,0,1-.23.23"/>
          <rect class="cls-8" x="31.47" y="144.7" width="114.12" height="34.02"/>
          <rect class="cls-10" x="31.47" y="144.7" width="114.12" height="34.02"/>
          <polygon class="cls-11" points="75.11 149.45 75.11 152.63 71.92 152.63 71.92 151.04 68.7 151.04 68.7 160.64 71.92 160.64 71.92 159.05 75.11 159.05 75.11 162.23 73.52 163.86 67.11 163.86 65.51 162.23 65.51 149.45 67.11 147.85 73.52 147.85 75.11 149.45"/>
          <path class="cls-15" d="M74.68,152.24H72.32v-1.6h-4v10.43h4v-1.59h2.36v2.59l-1.33,1.36H67.27l-1.33-1.36V149.61l1.33-1.33h6.08l1.33,1.33Zm-7.31-3.73-1.19,1.2V162l1.19,1.23h5.88l1.2-1.23v-2.26H72.59v1.59H68V150.38h4.55V152h1.86v-2.26l-1.2-1.2Z"/>
          <path class="cls-9" d="M73.55,163.93l1.56-1.56v.53l-1.59,1.59H67.11l-1.6-1.59v-.53l1.56,1.56ZM68.8,151.14h3v.56h-3Zm3.12,1.59h3.19v.57H71.92Z"/>
          <polygon class="cls-11" points="118.5 147.85 118.5 151.84 117.7 151.04 112.09 151.04 112.09 154.26 116.11 154.26 116.9 153.46 116.9 158.25 116.11 157.45 112.09 157.45 112.09 160.64 117.7 160.64 118.5 159.84 118.5 163.86 108.1 163.86 108.9 163.06 108.9 148.65 108.1 147.85 118.5 147.85"/>
          <path class="cls-15" d="M118.06,150.64h-6.37v4h4.78V157h-4.78v4h6.37v2.36h-8.73V148.28h8.73Zm-.23,10.66h-6.41v-4.51h4.82v-1.86h-4.82v-4.55h6.41v-1.87h-8.27V163.2h8.27Z"/>
          <path class="cls-9" d="M108.83,148.68v.53l-.73-.73h.53Zm-.17,15.25h9.84v.56H108.1Zm9-12.79.83.83v.53l-.8-.8h-5.51v-.56Zm-1.6,6.38.83.83v.53l-.79-.8h-3.92v-.56Z"/>
          <polygon class="cls-11" points="63.76 163.06 64.56 163.86 59.77 163.86 60.57 163.06 60.57 148.65 59.77 147.85 64.56 147.85 63.76 148.65 63.76 163.06"/>
          <path class="cls-15" d="M63.36,163.43H61V148.28h2.36Zm-.27-14.92H61.23V163.2h1.86Z"/>
          <path class="cls-9" d="M60.5,148.68v.53l-.73-.73h.53ZM64,163.93l.54.56H59.77l.57-.56Zm0-15.45h.5l-.7.73v-.53Z"/>
          <path class="cls-11" d="M94.76,149.45v12.78l-1.59,1.63H86.76l-1.6-1.63V149.45l1.6-1.6h6.41Zm-3.19,9.6h-.79l-1.63-3.19h2.42V151H88.35v9.6h3.22Z"/>
          <path class="cls-15" d="M94.33,162.07l-.06.07-1.2,1.23-.07.06H86.92l-.06-.06-1.2-1.23-.06-.07V149.61l1.32-1.33H93l1.33,1.33ZM87,148.51l-1.19,1.2V162L87,163.2H92.9L94.1,162V149.71l-1.2-1.2Zm.67,12.79V150.38h4.55v6.14h-2l.93,1.86h1.06v2.92Zm2.16-5H92v-5.65H88v10.43h4v-2.46H91Z"/>
          <path class="cls-9" d="M93.2,163.93l1.56-1.56v.53l-1.59,1.59H86.76l-1.6-1.59v-.53l1.56,1.56Zm-4.75-12.79h3v.56h-3Zm2.26,8h.76v.54h-.69l-1.63-3.19h.23Z"/>
          <polygon class="cls-11" points="129.13 149.45 129.13 152.63 125.94 152.63 125.94 151.04 122.72 151.04 122.72 152.63 129.13 157.45 129.13 162.23 127.54 163.86 121.13 163.86 119.53 162.23 119.53 159.05 122.72 159.05 122.72 160.64 125.94 160.64 125.94 159.05 119.53 154.26 119.53 149.45 121.13 147.85 127.54 147.85 129.13 149.45"/>
          <path class="cls-15" d="M128.7,152.24h-2.36v-1.6h-4v2.23l6.28,4.71.1.07v4.42l-.07.07-1.19,1.22-.07.07h-6.08l-.07-.07L120,162.14l-.07-.07v-2.59h2.36v1.59h4v-2.22l-6.28-4.75L120,154v-4.42l1.33-1.33h6.08l1.33,1.33Zm-7.31-3.73-1.2,1.2v4.22l6.42,4.78v2.59h-4.56v-1.59h-1.86V162l1.2,1.23h5.88l1.2-1.23v-4.19L122.05,153v-2.59h4.56V152h1.86v-2.26l-1.2-1.2Z"/>
          <path class="cls-9" d="M125.84,159.64l-6.31-4.75v-.53l6.31,4.72Zm1.73,4.29,1.56-1.56v.53l-1.59,1.59h-6.42l-1.59-1.59v-.53l1.56,1.56Zm-4.75-12.79h3v.56h-3Zm3.12,1.59h3.19v.57h-3.19Z"/>
          <polygon class="cls-11" points="139.85 147.85 139.85 151.87 139.05 151.07 136.66 151.07 136.66 170.27 137.46 170.27 132.64 175.06 133.44 173.46 133.44 151.07 131.04 151.07 130.25 151.87 130.25 147.85 139.85 147.85"/>
          <path class="cls-15" d="M139.42,150.64h-3.19v20.23l-2.36,2.36V150.64h-3.19v-2.36h8.74Zm-5.32,22,1.89-1.89V150.41h3.19v-1.9h-8.27v1.9h3.19Z"/>
          <path class="cls-9" d="M133.37,151.7h-2.32l-.8.8V152l.83-.83h2.29Zm3.55,19.2h.54l-4.82,4.79.53-1Zm2.1-19.76.83.83v.53l-.8-.8h-2.32v-.56Z"/>
          <polygon class="cls-11" points="106.89 147.85 106.09 148.65 106.09 162.23 104.5 163.86 98.09 163.86 96.5 162.23 96.5 148.65 95.7 147.85 100.48 147.85 99.68 148.65 99.68 160.64 102.91 160.64 102.91 148.65 102.11 147.85 106.89 147.85"/>
          <path class="cls-15" d="M105.66,162.07l-.06.07-1.2,1.22-.07.07h-6l-.1-.07L97,162.14l-.06-.07V148.28h2.36v12.79h4V148.28h2.36Zm-8.5-13.56V162l1.23,1.23h5.85l1.19-1.23V148.51h-1.86V161.3H99V148.51Z"/>
          <path class="cls-9" d="M96.23,148.48l.2.2v.53l-.73-.73Zm8.3,15.45,1.56-1.56v.53l-1.59,1.59H98.09L96.5,162.9v-.53l1.56,1.56Zm-4.75-15.25.2-.2h.5l-.7.73Zm3,0v.53l-.7-.73h.5Zm3.55-.2h.53l-.73.73v-.53Z"/>
          <polygon class="cls-11" points="48.41 163.86 37.22 175.06 38.02 173.46 38.02 148.65 37.22 147.85 47.62 147.85 47.62 151.87 46.82 151.07 41.21 151.07 41.21 154.26 45.23 154.26 46.02 153.46 46.02 158.25 45.23 157.45 41.21 157.45 41.21 167.05 47.62 160.67 47.62 163.86 48.41 163.86"/>
          <path class="cls-15" d="M47.19,164.49l-8.74,8.74V148.28h8.74v2.36H40.81v4.05h4.78v2.36H40.81v11l6.38-6.41Zm-6.65-7.7h4.82v-1.86H40.54v-4.52H47v-1.9H38.68v24.15L47,164.39v-2.12l-6.41,6.41Z"/>
          <path class="cls-9" d="M38,148.68v.53l-.73-.7h.53Zm9.93,15.81h.53l-11.19,11.2.53-1Zm-1.09-13.35.83.83v.53l-.8-.8H41.31v-.56Zm-1.6,6.41.83.83v.53l-.79-.8H41.31v-.56Z"/>
          <path class="cls-11" d="M59.14,149.45v6.41l-1.6,1.59H52.73v5.61l.79.8H48.74l.8-.8V148.65l-.8-.8h8.8Zm-6.41,4.81H56V151H52.73Z"/>
          <path class="cls-15" d="M58.71,155.69,57.38,157H52.33v6.41H50V148.28h7.41l1.33,1.33Zm-8.51-7.18V163.2h1.86v-6.41h5.22l1.19-1.2v-5.88l-1.19-1.2Zm1.86,1.87h4.55v4.55H52.06Zm.27,4.28h4v-4h-4Z"/>
          <path class="cls-9" d="M49.47,148.68v.53l-.73-.73h.53ZM53,163.93l.53.56H48.74l.57-.56Zm-.16-12.79h3v.56h-3Zm4.75,6.38L59.14,156v.53l-1.6,1.59H52.83v-.56Z"/>
        </g>
        <g>
          <path class="cls-14" d="M51,169.3v1.38h2.31v.92H51v2.32H50.1v-5.55h3.7v.93Z"/>
          <path class="cls-14" d="M57.52,174c-3.66,0-3.65-5.69,0-5.69S61.16,174,57.52,174Zm0-4.79c-2.39,0-2.4,3.89,0,3.89S59.92,169.2,57.52,169.2Z"/>
          <path class="cls-14" d="M63.62,171.6h-.76v2.32h-.92v-5.55h1.84s1.86,0,1.86,1.62a1.48,1.48,0,0,1-1.07,1.47l1.13,2.46h-1Zm-.76-.92h.92s.93,0,.93-.69-.93-.69-.93-.69h-.92Z"/>
          <path class="cls-14" d="M72.76,171.19l2.3,2.73H73.85l-1.71-2.11-.52.59v1.52h-.93v-5.55h.93v2.8l2.27-2.8h1.16Z"/>
          <path class="cls-14" d="M81.06,173.92h-.94L77.37,170v3.95h-.93v-5.55h.94l2.76,3.95v-3.95h.92Z"/>
          <path class="cls-14" d="M85.47,174c-3.66,0-3.65-5.69,0-5.69S89.11,174,85.47,174Zm0-4.79c-2.39,0-2.4,3.89,0,3.89S87.87,169.2,85.47,169.2Z"/>
          <path class="cls-14" d="M94.21,174.14l-1.74-4.56-1.73,4.56-2.21-5.77h1l1.21,3.27L92,168.37h1l1.22,3.27,1.22-3.27h1Z"/>
          <path class="cls-14" d="M100.68,173v.93h-3v-5.55h.93V173Z"/>
          <path class="cls-14" d="M103.22,169.3v1.38h2.31v.92h-2.31V173H106v.93h-3.7v-5.55H106v.93Z"/>
          <path class="cls-14" d="M108.51,168.37c1.35,0,3.24.31,3.24,2.77s-1.86,2.78-3.24,2.78h-.92v-5.55Zm2.31,2.77c0-2.21-2.31-1.86-2.31-1.86V173S110.82,173.33,110.82,171.14Z"/>
          <path class="cls-14" d="M118.38,170.76v3.16h-.8l0-.5A2.1,2.1,0,0,1,116,174a2.6,2.6,0,0,1-2.65-2.85,2.77,2.77,0,0,1,2.77-2.85,2.73,2.73,0,0,1,2,.82l-.65.65a1.86,1.86,0,0,0-1.31-.54,1.79,1.79,0,0,0-1.84,1.92,1.72,1.72,0,0,0,1.84,1.93,1.82,1.82,0,0,0,1.39-.63v-.86H116v-.82Z"/>
          <path class="cls-14" d="M121.15,169.3v1.38h2.3v.92h-2.3V173h2.77v.93h-3.7v-5.55h3.7v.93Z"/>
        </g>
        <g class="cls-3">
          <path class="cls-11" d="M36.42,178.71H31.31a.45.45,0,0,0-.14.77l5,4a.44.44,0,0,0,.27.09.43.43,0,0,0,.19,0,.42.42,0,0,0,.24-.39v-3.94a.44.44,0,0,0-.43-.44"/>
        </g>
        <g>
          <path class="cls-14" d="M23,21.91a2.22,2.22,0,0,0,1.23.43,1,1,0,0,0,1.06-1.07V15.19h2.88v6.12c0,2.44-1.47,3.57-3.68,3.57a4.39,4.39,0,0,1-2.66-.77Z"/>
          <path class="cls-14" d="M34.72,15a4.93,4.93,0,1,1,0,9.85,4.93,4.93,0,1,1,0-9.85Zm0,2.54A2.26,2.26,0,0,0,32.44,20,2.29,2.29,0,1,0,37,20,2.26,2.26,0,0,0,34.72,17.57Z"/>
          <path class="cls-14" d="M41.27,15.19h2.88v9.52H41.27Z"/>
          <path class="cls-14" d="M48.87,19.6v5.11H46V15.19h3L52.27,20v-4.8h2.88v9.52H52.38Z"/>
          <path class="cls-14" d="M61,15.19h2.93V20.7a1.65,1.65,0,0,0,3.3,0V15.19H70.1v5.59c0,2.37-1.36,4.1-4.57,4.1S61,23.15,61,20.8Z"/>
          <path class="cls-14" d="M72.71,21.23a4.44,4.44,0,0,0,3.07,1.22c.54,0,1-.18,1-.55s-.4-.56-1.34-.73c-1.57-.29-4-.66-4-3,0-1.61,1.35-3.08,4-3.08a6.23,6.23,0,0,1,4,1.33l-1.54,2a4.7,4.7,0,0,0-2.65-1c-.71,0-.87.26-.87.5s.38.5,1.4.67c1.57.28,3.89.73,3.89,2.93s-1.55,3.31-4.11,3.31a6.28,6.28,0,0,1-4.42-1.51Z"/>
          <path class="cls-14" d="M89.64,15A4.93,4.93,0,1,1,84.43,20,4.91,4.91,0,0,1,89.64,15Zm0,2.54A2.26,2.26,0,0,0,87.36,20a2.28,2.28,0,1,0,4.56,0A2.26,2.26,0,0,0,89.64,17.57Z"/>
          <path class="cls-14" d="M99.07,19.6v5.11H96.19V15.19h3l3.31,4.8v-4.8h2.89v9.52h-2.77Z"/>
          <path class="cls-14" d="M115.83,15A4.93,4.93,0,1,1,110.62,20,4.91,4.91,0,0,1,115.83,15Zm0,2.54A2.25,2.25,0,0,0,113.55,20a2.28,2.28,0,1,0,4.56,0A2.26,2.26,0,0,0,115.83,17.57Z"/>
          <path class="cls-14" d="M122.37,15.19h2.93V20.7a1.65,1.65,0,0,0,3.29,0V15.19h2.93v5.59c0,2.37-1.36,4.1-4.57,4.1s-4.58-1.73-4.58-4.08Z"/>
          <path class="cls-14" d="M137.28,21.66h-1v3.05h-2.88V15.19h5.08a3.17,3.17,0,0,1,3.42,3.27,3.07,3.07,0,0,1-1.71,2.88l1.72,3.37h-3.28Zm.71-4.07h-1.75v1.67H138a.84.84,0,1,0,0-1.67Z"/>
          <path class="cls-14" d="M144.58,21.83a1.53,1.53,0,1,1-1.52,1.52A1.55,1.55,0,0,1,144.58,21.83Z"/>
          <path class="cls-14" d="M148.93,21.83a1.53,1.53,0,1,1-1.52,1.52A1.55,1.55,0,0,1,148.93,21.83Z"/>
          <path class="cls-14" d="M153.28,21.83a1.53,1.53,0,1,1-1.52,1.52A1.55,1.55,0,0,1,153.28,21.83Z"/>
        </g>
        <path class="cls-16" d="M35.15,207.8h-2l-.35.87h-.54l1.58-3.93h.61L36,208.67h-.55Zm-1.86-.44H35l-.85-2.19Zm2.88-.65a2,2,0,0,1,2-2,1.78,1.78,0,0,1,1.51.78l-.41.23a1.34,1.34,0,0,0-1.1-.57,1.6,1.6,0,0,0,0,3.2,1.34,1.34,0,0,0,1.1-.57l.42.23a1.82,1.82,0,0,1-1.52.77A2,2,0,0,1,36.17,206.71Zm4.15-2H42.9v.43H40.81v1.27h2v.44h-2v1.36H42.9v.43H40.32Zm8.25.66-1.34,3.27H47l-1.34-3.27v3.27H45.2v-3.93h.71l1.22,3,1.23-3h.7v3.93h-.49Zm2.63.35a1.38,1.38,0,0,1,1.37,1.53v.11H50.26a1,1,0,0,0,1,1,1.23,1.23,0,0,0,.88-.36l.21.29a1.54,1.54,0,0,1-1.13.43,1.41,1.41,0,0,1-1.45-1.49A1.43,1.43,0,0,1,51.2,205.75Zm-.94,1.32h1.88a.92.92,0,0,0-.94-.95A1,1,0,0,0,50.26,207.07Zm5.09,1.18a1.19,1.19,0,0,1-1,.49c-.74,0-1.27-.56-1.27-1.49s.52-1.5,1.27-1.5a1.2,1.2,0,0,1,1,.5v-1.51h.45v3.93h-.45Zm0-1.64a1.06,1.06,0,0,0-.85-.46c-.58,0-.92.47-.92,1.1s.34,1.1.92,1.1a1.05,1.05,0,0,0,.85-.45ZM56.6,205a.3.3,0,1,1,.3.3A.3.3,0,0,1,56.6,205Zm.08.78h.44v2.85h-.44Zm2.59-.07a1.2,1.2,0,0,1,1,.5l-.29.27a.85.85,0,0,0-.73-.37,1.11,1.11,0,0,0,0,2.2A.87.87,0,0,0,60,208l.29.27a1.22,1.22,0,0,1-1,.49,1.5,1.5,0,0,1,0-3Zm3.44,2.6a1.21,1.21,0,0,1-.94.39,1,1,0,0,1-1-.94.94.94,0,0,1,1-.94,1.2,1.2,0,0,1,.94.39v-.51c0-.39-.3-.6-.72-.6a1.12,1.12,0,0,0-.87.39l-.21-.31a1.5,1.5,0,0,1,1.14-.47c.61,0,1.11.27,1.11,1v2h-.45Zm0-.82a1,1,0,0,0-.78-.35.63.63,0,1,0,0,1.25.94.94,0,0,0,.78-.36ZM64,204.74h.45v3.93H64Zm5.35,3.06h-2l-.35.87H66.5l1.59-3.93h.6l1.59,3.93h-.54Zm-1.85-.44h1.7l-.85-2.19Zm3.31-1.15h-.47v-.39h.47v-.22a.81.81,0,0,1,.83-.92.85.85,0,0,1,.43.1l-.12.33a.49.49,0,0,0-.25-.07c-.29,0-.45.2-.45.56v.22h.58v.39h-.58v2.46h-.44Zm1.67,0h-.47v-.39h.47v-.22a.81.81,0,0,1,.83-.92.85.85,0,0,1,.43.1l-.12.33a.49.49,0,0,0-.25-.07c-.29,0-.45.2-.45.56v.22h.58v.39H73v2.46h-.44Zm3.33,2.14a1.24,1.24,0,0,1-.95.39.94.94,0,0,1-1-.94.93.93,0,0,1,1-.94,1.22,1.22,0,0,1,.95.39v-.51c0-.39-.31-.6-.72-.6a1.16,1.16,0,0,0-.88.39l-.2-.31a1.49,1.49,0,0,1,1.14-.47c.6,0,1.1.27,1.1,1v2h-.44Zm0-.82a1,1,0,0,0-.79-.35.63.63,0,1,0,0,1.25,1,1,0,0,0,.79-.36ZM77.1,205a.3.3,0,1,1,.3.3A.3.3,0,0,1,77.1,205Zm.08.78h.44v2.85h-.44Zm1.33,0H79v.46a1.21,1.21,0,0,1,1-.52v.46l-.18,0a1,1,0,0,0-.77.45v2h-.44ZM80.44,208a1.25,1.25,0,0,0,.93.4c.44,0,.68-.19.68-.47s-.35-.41-.73-.51-1-.24-1-.83c0-.44.39-.82,1.07-.82a1.43,1.43,0,0,1,1.05.41l-.2.31a1.16,1.16,0,0,0-.85-.36c-.39,0-.64.18-.64.43s.33.37.7.46,1.07.25,1.07.88-.39.86-1.12.86a1.51,1.51,0,0,1-1.15-.44Zm4.2-2.94a.3.3,0,0,1,.3-.29.3.3,0,1,1,0,.59A.3.3,0,0,1,84.64,205Zm.08.78h.44v2.85h-.44Zm3.25,1c0-.5-.25-.66-.63-.66a1.12,1.12,0,0,0-.85.44v2.08h-.44v-2.85h.44v.42a1.4,1.4,0,0,1,1-.49.81.81,0,0,1,.91.92v2H88Zm.91-1h.48l1,2.34.94-2.34h.49l-1.19,2.85h-.49Zm3.24-.78a.29.29,0,0,1,.29-.29.3.3,0,1,1,0,.59A.29.29,0,0,1,92.12,205Zm.08.78h.44v2.85H92.2Zm1.41,2.26v-1.87h-.47v-.39h.47V205h.45v.78h.57v.39h-.57V208c0,.22.09.37.28.37a.42.42,0,0,0,.31-.12l.13.33a.74.74,0,0,1-.54.18A.58.58,0,0,1,93.61,208.08Zm2.89-2.33a1.38,1.38,0,0,1,1.37,1.53v.11H95.56a1,1,0,0,0,1,1,1.27,1.27,0,0,0,.88-.36l.21.29a1.55,1.55,0,0,1-1.13.43,1.41,1.41,0,0,1-1.46-1.49A1.43,1.43,0,0,1,96.5,205.75Zm-.94,1.32h1.87a.92.92,0,0,0-.94-.95A1,1,0,0,0,95.56,207.07Zm3,.91a1.25,1.25,0,0,0,.93.4c.44,0,.68-.19.68-.47s-.35-.41-.73-.51-1-.24-1-.83c0-.44.39-.82,1.06-.82a1.44,1.44,0,0,1,1.06.41l-.21.31a1.13,1.13,0,0,0-.85-.36c-.38,0-.63.18-.63.43s.33.37.7.46,1.07.25,1.07.88-.39.86-1.12.86a1.51,1.51,0,0,1-1.15-.44Zm4.43,1.46a.42.42,0,0,0,.43-.31l.19-.43-1.19-2.88h.47l1,2.34.94-2.34h.48l-1.42,3.43a.85.85,0,0,1-.84.58,1.66,1.66,0,0,1-.33,0l.07-.4A.69.69,0,0,0,103,209.44Zm2.58-2.19a1.41,1.41,0,1,1,1.41,1.49A1.4,1.4,0,0,1,105.58,207.25Zm2.35,0a1,1,0,1,0-.94,1.1A1,1,0,0,0,107.93,207.25Zm3.12,1a1.39,1.39,0,0,1-1,.47.79.79,0,0,1-.91-.9v-2h.44v1.88c0,.5.26.65.64.65a1.11,1.11,0,0,0,.85-.43v-2.1h.44v2.85h-.44Zm2.68-1a1.41,1.41,0,1,1,1.41,1.49A1.4,1.4,0,0,1,113.73,207.25Zm2.36,0a1,1,0,1,0-1,1.1A1,1,0,0,0,116.09,207.25Zm3.11-.44c0-.5-.26-.66-.64-.66a1.08,1.08,0,0,0-.84.44v2.08h-.45v-2.85h.45v.42a1.4,1.4,0,0,1,1-.49.81.81,0,0,1,.91.92v2h-.44Zm4.63,1.54a1.21,1.21,0,0,1-.94.39.94.94,0,0,1-1-.94.93.93,0,0,1,1-.94,1.2,1.2,0,0,1,.94.39v-.51c0-.39-.3-.6-.72-.6a1.12,1.12,0,0,0-.87.39l-.21-.31a1.49,1.49,0,0,1,1.14-.47c.6,0,1.11.27,1.11,1v2h-.45Zm0-.82a1,1,0,0,0-.78-.35.63.63,0,1,0,0,1.25.94.94,0,0,0,.78-.36Zm3.26-.72c0-.5-.26-.66-.64-.66a1.12,1.12,0,0,0-.85.44v2.08h-.44v-2.85h.44v.42a1.4,1.4,0,0,1,1-.49.81.81,0,0,1,.91.92v2h-.44Z"/>
        <g>
          <path class="cls-16" d="M34.43,215.43a1.24,1.24,0,0,1-.94.4,1,1,0,0,1-1-1,.93.93,0,0,1,1-.93,1.17,1.17,0,0,1,.94.39v-.52c0-.38-.31-.6-.72-.6a1.12,1.12,0,0,0-.87.39l-.21-.3a1.49,1.49,0,0,1,1.14-.47c.6,0,1.1.27,1.1,1v2h-.44Zm0-.81a.94.94,0,0,0-.78-.36.63.63,0,1,0,0,1.25,1,1,0,0,0,.78-.35Z"/>
          <path class="cls-16" d="M37.83,215.33a1.23,1.23,0,0,1-1,.5,1.31,1.31,0,0,1-1.27-1.49c0-.91.52-1.5,1.27-1.5a1.18,1.18,0,0,1,1,.5v-1.52h.44v3.94h-.44Zm0-1.64a1.08,1.08,0,0,0-.86-.46c-.57,0-.92.47-.92,1.11s.35,1.09.92,1.09a1.09,1.09,0,0,0,.86-.44Z"/>
          <path class="cls-16" d="M38.73,212.91h.48l.95,2.33.94-2.33h.49l-1.19,2.85h-.48Z"/>
          <path class="cls-16" d="M43.29,212.84a1.38,1.38,0,0,1,1.37,1.52v.12H42.35a1,1,0,0,0,1,1,1.23,1.23,0,0,0,.88-.36l.22.29a1.54,1.54,0,0,1-1.14.44,1.5,1.5,0,0,1,0-3Zm-.94,1.31h1.87a.93.93,0,0,0-.94-1A1,1,0,0,0,42.35,214.15Z"/>
          <path class="cls-16" d="M47.29,213.89c0-.5-.25-.66-.63-.66a1.12,1.12,0,0,0-.85.44v2.09h-.44v-2.85h.44v.41a1.4,1.4,0,0,1,1-.48.81.81,0,0,1,.91.92v2h-.45Z"/>
          <path class="cls-16" d="M48.71,215.16V213.3h-.47v-.39h.47v-.78h.44v.78h.58v.39h-.58v1.77c0,.21.1.36.29.36a.42.42,0,0,0,.3-.11l.13.33a.74.74,0,0,1-.53.18C48.92,215.83,48.71,215.59,48.71,215.16Z"/>
          <path class="cls-16" d="M52.28,215.36a1.39,1.39,0,0,1-1,.47.8.8,0,0,1-.91-.91v-2h.44v1.87c0,.51.25.65.64.65a1.07,1.07,0,0,0,.84-.43v-2.09h.45v2.85h-.45Z"/>
          <path class="cls-16" d="M53.61,212.91h.44v.46a1.21,1.21,0,0,1,1-.52v.45l-.17,0a1.07,1.07,0,0,0-.78.46v2h-.44Z"/>
          <path class="cls-16" d="M56.8,212.84a1.38,1.38,0,0,1,1.37,1.52v.12H55.86a1,1,0,0,0,1,1,1.27,1.27,0,0,0,.88-.36l.21.29a1.52,1.52,0,0,1-1.13.44,1.5,1.5,0,0,1-.05-3Zm-.94,1.31h1.87a.92.92,0,0,0-.94-1A1,1,0,0,0,55.86,214.15Z"/>
          <path class="cls-16" d="M60.33,212.13a.29.29,0,0,1,.29-.3.3.3,0,0,1,.31.3.31.31,0,0,1-.31.3A.3.3,0,0,1,60.33,212.13Zm.08.78h.44v2.85h-.44Z"/>
          <path class="cls-16" d="M63.66,213.89c0-.5-.26-.66-.64-.66a1.08,1.08,0,0,0-.84.44v2.09h-.45v-2.85h.45v.41a1.39,1.39,0,0,1,1-.48.81.81,0,0,1,.91.92v2h-.44Z"/>
        </g>
        <g>
          <path class="cls-16" d="M66.46,211.82h2.07a1,1,0,0,1,1.13,1,.88.88,0,0,1-.68.91,1,1,0,0,1,.76,1,1,1,0,0,1-1.15,1.06H66.46Zm1.89,1.58a.42.42,0,0,0,.46-.43.43.43,0,0,0-.46-.44h-1v.87Zm0,1.64a.45.45,0,0,0,.5-.46.45.45,0,0,0-.5-.46H67.3V215Z"/>
          <path class="cls-16" d="M72.24,211.75a2,2,0,1,1-2.06,2A2,2,0,0,1,72.24,211.75Zm0,.75a1.19,1.19,0,0,0-1.2,1.29,1.2,1.2,0,1,0,1.2-1.29Z"/>
          <path class="cls-16" d="M74.89,211.82h.84V215h1.66v.74h-2.5Z"/>
          <path class="cls-16" d="M78,211.82h1.56a2,2,0,1,1,0,3.94H78Zm1.56,3.2a1.18,1.18,0,0,0,1.23-1.23,1.15,1.15,0,0,0-1.23-1.23h-.72V215Z"/>
        </g>
        <g>
          <path class="cls-16" d="M83.78,211.82h.44v3.94h-.44Z"/>
          <path class="cls-16" d="M86.35,212.84a1.38,1.38,0,0,1,1.37,1.52v.12H85.41a1,1,0,0,0,1,1,1.23,1.23,0,0,0,.87-.36l.22.29a1.54,1.54,0,0,1-1.14.44,1.5,1.5,0,0,1,0-3Zm-.94,1.31h1.87a.93.93,0,0,0-.94-1A1,1,0,0,0,85.41,214.15Z"/>
          <path class="cls-16" d="M90.21,215.43a1.22,1.22,0,0,1-.94.4,1,1,0,0,1-1-1,.93.93,0,0,1,1-.93,1.17,1.17,0,0,1,.94.39v-.52c0-.38-.3-.6-.72-.6a1.12,1.12,0,0,0-.87.39l-.21-.3a1.5,1.5,0,0,1,1.14-.47c.6,0,1.11.27,1.11,1v2h-.45Zm0-.81a.94.94,0,0,0-.78-.36.63.63,0,1,0,0,1.25,1,1,0,0,0,.78-.35Z"/>
          <path class="cls-16" d="M93.61,215.33a1.2,1.2,0,0,1-1,.5c-.75,0-1.27-.57-1.27-1.49s.52-1.5,1.27-1.5a1.17,1.17,0,0,1,1,.5v-1.52h.44v3.94h-.44Zm0-1.64a1.06,1.06,0,0,0-.86-.46c-.57,0-.91.47-.91,1.11s.34,1.09.91,1.09a1.08,1.08,0,0,0,.86-.44Z"/>
          <path class="cls-16" d="M96.18,212.84a1.38,1.38,0,0,1,1.37,1.52v.12H95.24a1,1,0,0,0,1,1,1.23,1.23,0,0,0,.88-.36l.22.29a1.54,1.54,0,0,1-1.14.44,1.5,1.5,0,0,1,0-3Zm-.94,1.31h1.87a.93.93,0,0,0-.94-1A1,1,0,0,0,95.24,214.15Z"/>
          <path class="cls-16" d="M98.26,212.91h.44v.46a1.21,1.21,0,0,1,1-.52v.45l-.17,0a1,1,0,0,0-.78.46v2h-.44Z"/>
          <path class="cls-16" d="M100.19,215.06a1.29,1.29,0,0,0,.94.41c.43,0,.67-.2.67-.47s-.35-.42-.73-.51-1-.24-1-.83.38-.82,1.06-.82a1.46,1.46,0,0,1,1.06.41l-.21.31a1.11,1.11,0,0,0-.85-.36c-.39,0-.63.17-.63.43s.32.36.69.45,1.07.26,1.07.89c0,.48-.38.86-1.12.86a1.5,1.5,0,0,1-1.15-.45Z"/>
          <path class="cls-16" d="M104.88,213.88c0-.5-.26-.65-.64-.65a1.11,1.11,0,0,0-.84.44v2.09H103v-3.94h.45v1.5a1.4,1.4,0,0,1,1-.48.8.8,0,0,1,.91.9v2h-.45Z"/>
          <path class="cls-16" d="M106.13,212.13a.3.3,0,0,1,.3-.3.29.29,0,0,1,.3.3.3.3,0,0,1-.3.3A.31.31,0,0,1,106.13,212.13Zm.08.78h.44v2.85h-.44Z"/>
          <path class="cls-16" d="M107.54,216.85v-3.94H108v.42a1.19,1.19,0,0,1,1-.49c.75,0,1.27.56,1.27,1.49s-.52,1.5-1.27,1.5a1.17,1.17,0,0,1-1-.5v1.52Zm1.29-3.62a1.06,1.06,0,0,0-.85.46V215a1.06,1.06,0,0,0,.85.46c.57,0,.92-.47.92-1.1S109.4,213.23,108.83,213.23Z"/>
          <path class="cls-16" d="M114.18,213.47l-.75,2.29H113l-.91-2.85h.46l.7,2.27.75-2.27h.37l.75,2.27.7-2.27h.46l-.91,2.85h-.44Z"/>
          <path class="cls-16" d="M118.72,213.88c0-.5-.26-.65-.65-.65a1.11,1.11,0,0,0-.84.44v2.09h-.45v-3.94h.45v1.5a1.4,1.4,0,0,1,1-.48.79.79,0,0,1,.91.9v2h-.44Z"/>
          <path class="cls-16" d="M121.28,212.84a1.38,1.38,0,0,1,1.37,1.52v.12h-2.31a1,1,0,0,0,1,1,1.23,1.23,0,0,0,.88-.36l.21.29a1.51,1.51,0,0,1-1.13.44,1.5,1.5,0,0,1,0-3Zm-.94,1.31h1.88a.93.93,0,0,0-.94-1A1,1,0,0,0,120.34,214.15Z"/>
          <path class="cls-16" d="M123.37,212.91h.44v.46a1.21,1.21,0,0,1,1-.52v.45l-.18,0a1,1,0,0,0-.77.46v2h-.44Z"/>
          <path class="cls-16" d="M126.55,212.84a1.38,1.38,0,0,1,1.37,1.52v.12h-2.3a1,1,0,0,0,1,1,1.23,1.23,0,0,0,.88-.36l.22.29a1.54,1.54,0,0,1-1.14.44,1.5,1.5,0,0,1,0-3Zm-.93,1.31h1.87a.93.93,0,0,0-.94-1A1,1,0,0,0,125.62,214.15Z"/>
          <path class="cls-16" d="M130.31,216.52a.41.41,0,0,0,.43-.3l.19-.43-1.19-2.88h.47l.95,2.33,1-2.33h.48l-1.43,3.43a.85.85,0,0,1-.83.58,1.14,1.14,0,0,1-.33,0l.07-.4A.69.69,0,0,0,130.31,216.52Z"/>
          <path class="cls-16" d="M132.89,214.33a1.41,1.41,0,1,1,1.41,1.5A1.39,1.39,0,0,1,132.89,214.33Zm2.35,0a1,1,0,1,0-.94,1.1A1,1,0,0,0,135.24,214.33Z"/>
          <path class="cls-16" d="M138.36,215.36a1.39,1.39,0,0,1-1,.47.8.8,0,0,1-.91-.91v-2h.44v1.87c0,.51.26.65.64.65a1.11,1.11,0,0,0,.85-.43v-2.09h.44v2.85h-.44Z"/>
        </g>
        <g>
          <path class="cls-16" d="M34.46,218.84a2,2,0,1,1-2.05,2A2,2,0,0,1,34.46,218.84Zm0,.74a1.3,1.3,0,1,0,1.2,1.3A1.19,1.19,0,0,0,34.46,219.58Z"/>
          <path class="cls-16" d="M39.31,220.14l-.68,2.7h-.89l-1.13-3.94h.94l.69,2.85L39,218.9h.65l.75,2.85.68-2.85h1l-1.12,3.94H40Z"/>
          <path class="cls-16" d="M43.25,220.2v2.64h-.84V218.9h.86l1.83,2.55V218.9h.84v3.94h-.81Z"/>
        </g>
        <g>
          <path class="cls-16" d="M48.43,223.6a.41.41,0,0,0,.43-.3l.19-.43L47.86,220h.47l1,2.34.95-2.34h.48l-1.43,3.43a.85.85,0,0,1-.83.58,1.66,1.66,0,0,1-.33,0l.07-.4A.67.67,0,0,0,48.43,223.6Z"/>
          <path class="cls-16" d="M51,221.41a1.41,1.41,0,1,1,1.41,1.5A1.4,1.4,0,0,1,51,221.41Zm2.35,0a1,1,0,1,0-1.89,0,1,1,0,1,0,1.89,0Z"/>
          <path class="cls-16" d="M56.48,222.44a1.41,1.41,0,0,1-1,.47.8.8,0,0,1-.91-.91v-2H55v1.88c0,.5.26.65.64.65a1.11,1.11,0,0,0,.85-.43V220h.44v2.85h-.44Z"/>
          <path class="cls-16" d="M57.8,220h.45v.46a1.21,1.21,0,0,1,1-.52v.46a.52.52,0,0,0-.18,0,1,1,0,0,0-.77.45v2H57.8Z"/>
          <path class="cls-16" d="M63.34,222.42a1.19,1.19,0,0,1-1,.49c-.75,0-1.27-.56-1.27-1.49s.52-1.5,1.27-1.5a1.2,1.2,0,0,1,1,.5V218.9h.44v3.94h-.44Zm0-1.64a1.06,1.06,0,0,0-.86-.46c-.57,0-.91.47-.91,1.1s.34,1.1.91,1.1a1.06,1.06,0,0,0,.86-.45Z"/>
          <path class="cls-16" d="M65.91,219.92a1.38,1.38,0,0,1,1.37,1.53v.11H65a1,1,0,0,0,1,1,1.27,1.27,0,0,0,.88-.36l.21.29a1.55,1.55,0,0,1-1.13.43,1.41,1.41,0,0,1-1.46-1.5A1.43,1.43,0,0,1,65.91,219.92ZM65,221.24h1.87a.92.92,0,0,0-.94-1A.94.94,0,0,0,65,221.24Z"/>
          <path class="cls-16" d="M67.57,220H68l.95,2.34,1-2.34h.48l-1.18,2.85h-.49Z"/>
          <path class="cls-16" d="M72.12,219.92a1.38,1.38,0,0,1,1.37,1.53v.11h-2.3a1,1,0,0,0,1,1,1.23,1.23,0,0,0,.88-.36l.22.29a1.58,1.58,0,0,1-1.14.43,1.41,1.41,0,0,1-1.45-1.5A1.43,1.43,0,0,1,72.12,219.92Zm-.93,1.32h1.87a.92.92,0,0,0-.94-1A.94.94,0,0,0,71.19,221.24Z"/>
          <path class="cls-16" d="M74.21,218.9h.44v3.94h-.44Z"/>
          <path class="cls-16" d="M75.37,221.41a1.41,1.41,0,1,1,1.41,1.5A1.4,1.4,0,0,1,75.37,221.41Zm2.36,0a1,1,0,1,0-1.9,0,1,1,0,1,0,1.9,0Z"/>
          <path class="cls-16" d="M78.91,223.93V220h.45v.43a1.18,1.18,0,0,1,1-.5c.75,0,1.27.57,1.27,1.49s-.52,1.5-1.27,1.5a1.16,1.16,0,0,1-1-.5v1.52Zm1.3-3.61a1,1,0,0,0-.85.45v1.29a1,1,0,0,0,.85.46c.57,0,.91-.47.91-1.11S80.78,220.32,80.21,220.32Z"/>
          <path class="cls-16" d="M85.74,220.91c0-.36-.15-.59-.52-.59a1,1,0,0,0-.76.43v2.09H84v-1.93c0-.36-.15-.59-.53-.59a1,1,0,0,0-.75.44v2.08H82.3V220h.44v.41a1.26,1.26,0,0,1,.93-.48.73.73,0,0,1,.76.53,1.21,1.21,0,0,1,1-.53c.52,0,.8.29.8.86v2.06h-.45Z"/>
          <path class="cls-16" d="M88.31,219.92a1.38,1.38,0,0,1,1.37,1.53v.11H87.37a1,1,0,0,0,1,1,1.23,1.23,0,0,0,.88-.36l.21.29a1.55,1.55,0,0,1-1.13.43,1.4,1.4,0,0,1-1.45-1.5A1.43,1.43,0,0,1,88.31,219.92Zm-.94,1.32h1.87a.92.92,0,0,0-.93-1A1,1,0,0,0,87.37,221.24Z"/>
          <path class="cls-16" d="M92.32,221c0-.51-.25-.66-.64-.66a1.08,1.08,0,0,0-.84.44v2.08H90.4V220h.44v.41a1.43,1.43,0,0,1,1-.48.81.81,0,0,1,.91.92v2h-.44Z"/>
          <path class="cls-16" d="M93.74,222.25v-1.87h-.48V220h.48v-.78h.44V220h.58v.39h-.58v1.77c0,.21.09.37.29.37a.46.46,0,0,0,.3-.12l.13.33a.7.7,0,0,1-.53.18A.58.58,0,0,1,93.74,222.25Z"/>
          <path class="cls-16" d="M96.91,218.9h.44v1.52a1.18,1.18,0,0,1,1-.5c.75,0,1.27.59,1.27,1.5s-.52,1.49-1.27,1.49a1.19,1.19,0,0,1-1-.49v.42h-.44Zm1.29,3.62c.58,0,.92-.47.92-1.1s-.34-1.1-.92-1.1a1,1,0,0,0-.85.46v1.29A1,1,0,0,0,98.2,222.52Z"/>
          <path class="cls-16" d="M100.45,223.6a.41.41,0,0,0,.43-.3l.19-.43L99.88,220h.47l1,2.34,1-2.34h.48l-1.43,3.43a.85.85,0,0,1-.83.58,1.66,1.66,0,0,1-.33,0l.07-.4A.67.67,0,0,0,100.45,223.6Z"/>
          <path class="cls-16" d="M106.64,222.44a1.39,1.39,0,0,1-1,.47.8.8,0,0,1-.91-.91v-2h.44v1.88c0,.5.25.65.64.65a1.07,1.07,0,0,0,.84-.43V220h.44v2.85h-.44Z"/>
          <path class="cls-16" d="M109.9,221c0-.51-.26-.66-.64-.66a1.12,1.12,0,0,0-.85.44v2.08H108V220h.44v.41a1.43,1.43,0,0,1,1-.48.81.81,0,0,1,.91.92v2h-.44Z"/>
          <path class="cls-16" d="M111.22,218.9h.45v3.94h-.45Z"/>
          <path class="cls-16" d="M112.39,221.41a1.41,1.41,0,1,1,1.41,1.5A1.4,1.4,0,0,1,112.39,221.41Zm2.35,0a1,1,0,1,0-1.89,0,1,1,0,1,0,1.89,0Z"/>
          <path class="cls-16" d="M117.19,219.92a1.2,1.2,0,0,1,1,.5l-.29.27a.86.86,0,0,0-.73-.37,1,1,0,0,0-1,1.09,1,1,0,0,0,1,1.11.88.88,0,0,0,.73-.37l.29.27a1.22,1.22,0,0,1-1,.49,1.5,1.5,0,0,1,0-3Z"/>
          <path class="cls-16" d="M119.77,221.56l-.48.47v.81h-.44V218.9h.44v2.61l1.5-1.52h.56l-1.26,1.29,1.27,1.56h-.57Z"/>
          <path class="cls-16" d="M121.81,219.21a.3.3,0,0,1,.59,0,.3.3,0,1,1-.59,0Zm.07.78h.45v2.85h-.45Z"/>
          <path class="cls-16" d="M125.14,221c0-.51-.26-.66-.64-.66a1.12,1.12,0,0,0-.85.44v2.08h-.44V220h.44v.41a1.47,1.47,0,0,1,1-.48.81.81,0,0,1,.91.92v2h-.44Z"/>
          <path class="cls-16" d="M126.68,223.24a1.08,1.08,0,0,0,.93.39.82.82,0,0,0,.92-.85v-.41a1.21,1.21,0,0,1-1,.51c-.75,0-1.27-.56-1.27-1.48a1.3,1.3,0,0,1,1.27-1.48,1.2,1.2,0,0,1,1,.5V220H129v2.77c0,.94-.66,1.24-1.36,1.24a1.44,1.44,0,0,1-1.15-.43Zm1.85-2.46a1.06,1.06,0,0,0-.85-.46c-.58,0-.92.45-.92,1.08s.34,1.09.92,1.09a1.07,1.07,0,0,0,.85-.47Z"/>
          <path class="cls-16" d="M131.46,222.25v-1.87H131V220h.47v-.78h.45V220h.58v.39h-.58v1.77c0,.21.09.37.29.37a.46.46,0,0,0,.3-.12l.13.33a.7.7,0,0,1-.53.18A.59.59,0,0,1,131.46,222.25Z"/>
          <path class="cls-16" d="M135,221c0-.5-.26-.64-.64-.64a1.11,1.11,0,0,0-.84.44v2.08h-.45V218.9h.45v1.5a1.43,1.43,0,0,1,1-.48.81.81,0,0,1,.91.91v2H135Z"/>
          <path class="cls-16" d="M137.61,219.92a1.38,1.38,0,0,1,1.37,1.53v.11h-2.31a1,1,0,0,0,1,1,1.25,1.25,0,0,0,.88-.36l.21.29a1.55,1.55,0,0,1-1.13.43,1.4,1.4,0,0,1-1.45-1.5A1.43,1.43,0,0,1,137.61,219.92Zm-.94,1.32h1.87a.92.92,0,0,0-.93-1A1,1,0,0,0,136.67,221.24Z"/>
        </g>
        <g>
          <path class="cls-16" d="M34.37,227.64l-.74,2.29h-.44l-.91-2.86h.46l.69,2.28.75-2.28h.38l.75,2.28.7-2.28h.46l-.91,2.86h-.44Z"/>
          <path class="cls-16" d="M38.22,227a1.39,1.39,0,0,1,1.37,1.53v.12H37.28a1,1,0,0,0,1,1,1.27,1.27,0,0,0,.88-.36l.21.29a1.56,1.56,0,0,1-1.13.44,1.42,1.42,0,0,1-1.46-1.5A1.44,1.44,0,0,1,38.22,227Zm-.94,1.32h1.87a.92.92,0,0,0-.94-.95A1,1,0,0,0,37.28,228.32Z"/>
          <path class="cls-16" d="M42.09,229.6a1.24,1.24,0,0,1-1,.4,1,1,0,0,1-1-.95.94.94,0,0,1,1-.94,1.22,1.22,0,0,1,1,.39V228c0-.38-.31-.6-.72-.6a1.14,1.14,0,0,0-.88.39l-.2-.3a1.48,1.48,0,0,1,1.14-.48c.6,0,1.1.28,1.1,1v2h-.44Zm0-.81a1,1,0,0,0-.79-.36.63.63,0,1,0,0,1.25,1,1,0,0,0,.79-.36Z"/>
          <path class="cls-16" d="M43.42,226h.44v3.94h-.44Z"/>
          <path class="cls-16" d="M44.83,229.33v-1.87h-.47v-.39h.47v-.78h.44v.78h.58v.39h-.58v1.78c0,.21.1.36.29.36a.38.38,0,0,0,.3-.12l.13.33a.7.7,0,0,1-.53.19C45,230,44.83,229.76,44.83,229.33Z"/>
          <path class="cls-16" d="M48.41,228.05c0-.5-.26-.65-.64-.65a1.12,1.12,0,0,0-.85.44v2.09h-.44V226h.44v1.5a1.4,1.4,0,0,1,1-.49.8.8,0,0,1,.91.91v2h-.44Z"/>
          <path class="cls-16" d="M51.1,228.5a1.41,1.41,0,1,1,1.41,1.5A1.4,1.4,0,0,1,51.1,228.5Zm2.35,0a1,1,0,1,0-.94,1.1A1,1,0,0,0,53.45,228.5Z"/>
          <path class="cls-16" d="M54.76,227.46h-.47v-.39h.47v-.21a.82.82,0,0,1,.83-.93.83.83,0,0,1,.43.1l-.11.33a.53.53,0,0,0-.26-.07c-.29,0-.45.21-.45.57v.21h.58v.39H55.2v2.47h-.44Z"/>
          <path class="cls-16" d="M58.75,228.65l-.48.46v.82h-.44V226h.44v2.6l1.5-1.52h.56l-1.26,1.3,1.27,1.56h-.57Z"/>
          <path class="cls-16" d="M62.79,228.06c0-.5-.25-.66-.64-.66a1.08,1.08,0,0,0-.84.44v2.09h-.44v-2.86h.44v.42a1.4,1.4,0,0,1,1-.49.81.81,0,0,1,.91.92v2h-.44Z"/>
          <path class="cls-16" d="M64,228.5a1.42,1.42,0,1,1,1.41,1.5A1.41,1.41,0,0,1,64,228.5Zm2.36,0a1,1,0,1,0-1,1.1A1,1,0,0,0,66.31,228.5Z"/>
          <path class="cls-16" d="M69.22,227.64l-.74,2.29H68l-.91-2.86h.46l.7,2.28.75-2.28h.38l.75,2.28.7-2.28h.46l-.91,2.86H70Z"/>
          <path class="cls-16" d="M71.83,226h.44v3.94h-.44Z"/>
          <path class="cls-16" d="M74.4,227a1.39,1.39,0,0,1,1.37,1.53v.12H73.46a1,1,0,0,0,1,1,1.23,1.23,0,0,0,.88-.36l.22.29a1.59,1.59,0,0,1-1.14.44A1.42,1.42,0,0,1,73,228.5,1.43,1.43,0,0,1,74.4,227Zm-.94,1.32h1.87a.93.93,0,0,0-.94-.95A.94.94,0,0,0,73.46,228.32Z"/>
          <path class="cls-16" d="M78.55,229.5a1.22,1.22,0,0,1-1,.5c-.74,0-1.27-.57-1.27-1.5s.52-1.5,1.27-1.5a1.19,1.19,0,0,1,1,.51V226H79v3.94h-.44Zm0-1.64a1.06,1.06,0,0,0-.86-.46c-.57,0-.91.47-.91,1.1s.34,1.1.91,1.1a1.06,1.06,0,0,0,.86-.45Z"/>
          <path class="cls-16" d="M80.09,230.33a1.11,1.11,0,0,0,.93.39.82.82,0,0,0,.92-.86v-.41a1.21,1.21,0,0,1-1,.51c-.75,0-1.27-.55-1.27-1.47S80.23,227,81,227a1.18,1.18,0,0,1,1,.51v-.44h.44v2.77c0,.95-.66,1.24-1.36,1.24a1.46,1.46,0,0,1-1.15-.42Zm1.85-2.47a1.06,1.06,0,0,0-.85-.46c-.58,0-.92.45-.92,1.09s.34,1.08.92,1.08a1.09,1.09,0,0,0,.85-.46Z"/>
          <path class="cls-16" d="M84.5,227a1.39,1.39,0,0,1,1.37,1.53v.12H83.56a1,1,0,0,0,1,1,1.23,1.23,0,0,0,.88-.36l.21.29a1.54,1.54,0,0,1-1.13.44,1.5,1.5,0,0,1,0-3Zm-.94,1.32h1.88a.93.93,0,0,0-.94-.95A1,1,0,0,0,83.56,228.32Z"/>
          <path class="cls-16" d="M88.2,229.33v-1.87h-.47v-.39h.47v-.78h.44v.78h.58v.39h-.58v1.78c0,.21.09.36.29.36a.41.41,0,0,0,.3-.12l.13.33a.7.7,0,0,1-.53.19C88.41,230,88.2,229.76,88.2,229.33Z"/>
          <path class="cls-16" d="M91.78,228.05c0-.5-.26-.65-.65-.65a1.11,1.11,0,0,0-.84.44v2.09h-.44V226h.44v1.5a1.4,1.4,0,0,1,1-.49.8.8,0,0,1,.91.91v2h-.44Z"/>
          <path class="cls-16" d="M94.89,229.6a1.24,1.24,0,0,1-1,.4,1,1,0,0,1-1-.95.94.94,0,0,1,1-.94,1.22,1.22,0,0,1,1,.39V228c0-.38-.31-.6-.72-.6a1.14,1.14,0,0,0-.88.39l-.2-.3a1.48,1.48,0,0,1,1.14-.48c.6,0,1.1.28,1.1,1v2h-.44Zm0-.81a1,1,0,0,0-.79-.36.63.63,0,1,0,0,1.25,1,1,0,0,0,.79-.36Z"/>
          <path class="cls-16" d="M96.3,229.33v-1.87h-.47v-.39h.47v-.78h.45v.78h.57v.39h-.57v1.78c0,.21.09.36.29.36a.41.41,0,0,0,.3-.12l.13.33a.72.72,0,0,1-.53.19A.59.59,0,0,1,96.3,229.33Z"/>
          <path class="cls-16" d="M99.47,226h.45v3.94h-.45Z"/>
          <path class="cls-16" d="M100.73,226.29a.3.3,0,0,1,.59,0,.3.3,0,1,1-.59,0Zm.07.78h.44v2.86h-.44Z"/>
          <path class="cls-16" d="M103.37,227a1.39,1.39,0,0,1,1.37,1.53v.12h-2.31a1,1,0,0,0,1,1,1.27,1.27,0,0,0,.88-.36l.21.29a1.56,1.56,0,0,1-1.13.44,1.42,1.42,0,0,1-1.46-1.5A1.44,1.44,0,0,1,103.37,227Zm-.94,1.32h1.87a.92.92,0,0,0-.94-.95A1,1,0,0,0,102.43,228.32Z"/>
          <path class="cls-16" d="M105.44,229.23a1.29,1.29,0,0,0,.94.41c.43,0,.67-.2.67-.48s-.35-.41-.73-.5-1-.25-1-.84c0-.44.39-.82,1.07-.82a1.44,1.44,0,0,1,1.05.42l-.2.3a1.16,1.16,0,0,0-.85-.36c-.39,0-.64.18-.64.43s.33.37.7.46,1.07.25,1.07.89c0,.47-.38.86-1.12.86a1.5,1.5,0,0,1-1.15-.45Z"/>
          <path class="cls-16" d="M109.65,226.29a.3.3,0,0,1,.59,0,.3.3,0,1,1-.59,0Zm.07.78h.44v2.86h-.44Z"/>
          <path class="cls-16" d="M113,228.06c0-.5-.26-.66-.64-.66a1.12,1.12,0,0,0-.85.44v2.09h-.44v-2.86h.44v.42a1.4,1.4,0,0,1,1-.49.81.81,0,0,1,.91.92v2H113Z"/>
          <path class="cls-16" d="M115.91,229.33v-1.87h-.47v-.39h.47v-.78h.45v.78h.58v.39h-.58v1.78c0,.21.09.36.29.36a.41.41,0,0,0,.3-.12l.13.33a.7.7,0,0,1-.53.19A.59.59,0,0,1,115.91,229.33Z"/>
          <path class="cls-16" d="M119.49,228.05c0-.5-.26-.65-.64-.65a1.15,1.15,0,0,0-.85.44v2.09h-.44V226H118v1.5a1.45,1.45,0,0,1,1-.49.81.81,0,0,1,.91.91v2h-.45Z"/>
          <path class="cls-16" d="M122.06,227a1.39,1.39,0,0,1,1.37,1.53v.12h-2.31a1,1,0,0,0,1,1,1.27,1.27,0,0,0,.88-.36l.21.29a1.56,1.56,0,0,1-1.13.44,1.42,1.42,0,0,1-1.46-1.5A1.44,1.44,0,0,1,122.06,227Zm-.94,1.32H123a.92.92,0,0,0-.94-.95A1,1,0,0,0,121.12,228.32Z"/>
          <path class="cls-16" d="M128.48,228.12h-2.3v1.81h-.49V226h.49v1.69h2.3V226H129v3.94h-.49Z"/>
          <path class="cls-16" d="M129.89,226h1.58a1.19,1.19,0,1,1,0,2.37h-1.09v1.57h-.49Zm1.52.43h-1v1.5h1a.75.75,0,1,0,0-1.5Z"/>
        </g>
        <g>
          <path class="cls-16" d="M32.67,233.07H34A2,2,0,1,1,34,237H32.67Zm1.34,3.5a1.53,1.53,0,0,0,0-3.06h-.85v3.06Z"/>
          <path class="cls-16" d="M38,234.09a1.38,1.38,0,0,1,1.37,1.53v.11H37.08a1,1,0,0,0,1,1,1.27,1.27,0,0,0,.88-.36l.21.28a1.52,1.52,0,0,1-1.13.44,1.5,1.5,0,0,1,0-3Zm-.94,1.31H39a.92.92,0,0,0-.94-1A1,1,0,0,0,37.08,235.4Z"/>
          <path class="cls-16" d="M39.68,234.16h.48l1,2.34.94-2.34h.49L41.35,237h-.48Z"/>
          <path class="cls-16" d="M44.24,234.09a1.38,1.38,0,0,1,1.37,1.53v.11H43.3a1,1,0,0,0,1,1,1.23,1.23,0,0,0,.88-.36l.22.28a1.54,1.54,0,0,1-1.14.44,1.5,1.5,0,0,1,0-3Zm-.94,1.31h1.87a.93.93,0,0,0-.94-1A1,1,0,0,0,43.3,235.4Z"/>
          <path class="cls-16" d="M46.32,233.07h.44V237h-.44Z"/>
          <path class="cls-16" d="M47.48,235.58a1.42,1.42,0,1,1,1.41,1.5A1.4,1.4,0,0,1,47.48,235.58Zm2.36,0a1,1,0,1,0-1,1.11A1,1,0,0,0,49.84,235.58Z"/>
          <path class="cls-16" d="M51,238.1v-3.94h.45v.42a1.17,1.17,0,0,1,1-.49c.75,0,1.27.56,1.27,1.49s-.52,1.5-1.27,1.5a1.16,1.16,0,0,1-1-.5v1.52Zm1.3-3.62a1,1,0,0,0-.85.46v1.29a1.07,1.07,0,0,0,.85.46c.57,0,.91-.48.91-1.11S52.89,234.48,52.32,234.48Z"/>
          <path class="cls-16" d="M57.86,235.07c0-.36-.16-.59-.53-.59a1,1,0,0,0-.76.44V237h-.44v-1.94c0-.36-.15-.59-.52-.59a1,1,0,0,0-.75.45V237h-.45v-2.85h.45v.41a1.22,1.22,0,0,1,.92-.48.72.72,0,0,1,.76.53,1.21,1.21,0,0,1,1-.53c.52,0,.8.29.8.86V237h-.44Z"/>
          <path class="cls-16" d="M60.42,234.09a1.38,1.38,0,0,1,1.37,1.53v.11H59.48a1,1,0,0,0,1,1,1.23,1.23,0,0,0,.88-.36l.22.28a1.54,1.54,0,0,1-1.14.44,1.5,1.5,0,0,1,0-3Zm-.94,1.31h1.88a.93.93,0,0,0-.94-1A1,1,0,0,0,59.48,235.4Z"/>
          <path class="cls-16" d="M64.43,235.14c0-.5-.25-.66-.64-.66a1.1,1.1,0,0,0-.84.45V237h-.44v-2.85H63v.41a1.43,1.43,0,0,1,1-.48.81.81,0,0,1,.9.92v2h-.44Z"/>
          <path class="cls-16" d="M65.85,236.41v-1.86h-.47v-.39h.47v-.78h.44v.78h.58v.39h-.58v1.77c0,.21.1.37.29.37a.46.46,0,0,0,.3-.12l.13.33a.74.74,0,0,1-.53.18C66.06,237.08,65.85,236.84,65.85,236.41Z"/>
          <path class="cls-16" d="M71.83,235.2h-2.3V237H69v-3.94h.49v1.7h2.3v-1.7h.49V237h-.49Z"/>
          <path class="cls-16" d="M75.15,236.61a1.39,1.39,0,0,1-1,.47.8.8,0,0,1-.91-.91v-2h.44V236c0,.5.26.65.64.65a1.09,1.09,0,0,0,.85-.44v-2.09h.44V237h-.44Z"/>
          <path class="cls-16" d="M76.48,233.07h.44v1.52a1.18,1.18,0,0,1,1-.5,1.33,1.33,0,0,1,1.27,1.5,1.31,1.31,0,0,1-1.27,1.49,1.22,1.22,0,0,1-1-.49V237h-.44Zm1.29,3.62c.58,0,.92-.47.92-1.1s-.34-1.11-.92-1.11a1.07,1.07,0,0,0-.85.46v1.3A1,1,0,0,0,77.77,236.69Z"/>
          <path class="cls-16" d="M80.07,236.42a.33.33,0,0,1,0,.65.33.33,0,1,1,0-.65Z"/>
          <path class="cls-16" d="M83.71,233.51H82.46v-.44h3v.44H84.2V237h-.49Z"/>
          <path class="cls-16" d="M88,235.13c0-.5-.26-.65-.64-.65a1.12,1.12,0,0,0-.85.45V237h-.44v-3.94h.44v1.5a1.43,1.43,0,0,1,1-.48.8.8,0,0,1,.91.91v2H88Z"/>
          <path class="cls-16" d="M90.58,234.09A1.38,1.38,0,0,1,92,235.62v.11H89.64a1,1,0,0,0,1,1,1.27,1.27,0,0,0,.88-.36l.21.28a1.52,1.52,0,0,1-1.13.44,1.5,1.5,0,0,1,0-3Zm-.94,1.31h1.87a.92.92,0,0,0-.94-1A1,1,0,0,0,89.64,235.4Z"/>
          <path class="cls-16" d="M97.41,236.5l.38.4-.35.29-.37-.4a2,2,0,0,1-1.07.29,2,2,0,1,1,2-2A2.09,2.09,0,0,1,97.41,236.5Zm-.66-.06-.56-.6.34-.29.55.59a1.71,1.71,0,0,0,.36-1.1,1.45,1.45,0,1,0-1.44,1.6A1.42,1.42,0,0,0,96.75,236.44Z"/>
          <path class="cls-16" d="M100.63,236.61a1.41,1.41,0,0,1-1,.47.8.8,0,0,1-.91-.91v-2h.44V236c0,.5.26.65.64.65a1.09,1.09,0,0,0,.85-.44v-2.09h.44V237h-.44Z"/>
          <path class="cls-16" d="M103.19,234.09a1.38,1.38,0,0,1,1.37,1.53v.11h-2.31a1,1,0,0,0,1,1,1.23,1.23,0,0,0,.88-.36l.21.28a1.51,1.51,0,0,1-1.13.44,1.5,1.5,0,0,1,0-3Zm-.94,1.31h1.88a.93.93,0,0,0-.94-1A1,1,0,0,0,102.25,235.4Z"/>
          <path class="cls-16" d="M105.26,236.31a1.29,1.29,0,0,0,.94.41c.44,0,.67-.19.67-.47s-.35-.41-.73-.51-1-.24-1-.83c0-.44.38-.82,1.06-.82a1.46,1.46,0,0,1,1.06.41l-.21.31a1.11,1.11,0,0,0-.85-.36c-.39,0-.63.17-.63.43s.32.36.69.45,1.07.26,1.07.89c0,.48-.38.86-1.12.86a1.5,1.5,0,0,1-1.15-.45Z"/>
          <path class="cls-16" d="M108.11,236.41v-1.86h-.47v-.39h.47v-.78h.44v.78h.58v.39h-.58v1.77c0,.21.1.37.29.37a.42.42,0,0,0,.3-.12l.13.33a.74.74,0,0,1-.53.18C108.32,237.08,108.11,236.84,108.11,236.41Z"/>
          <path class="cls-16" d="M111.2,233.38a.3.3,0,0,1,.3-.3.29.29,0,0,1,.3.3.3.3,0,0,1-.3.3A.31.31,0,0,1,111.2,233.38Zm.08.78h.44V237h-.44Z"/>
          <path class="cls-16" d="M112.59,236.31a1.29,1.29,0,0,0,.94.41c.44,0,.67-.19.67-.47s-.34-.41-.73-.51-1-.24-1-.83c0-.44.38-.82,1.06-.82a1.46,1.46,0,0,1,1.06.41l-.21.31a1.09,1.09,0,0,0-.85-.36c-.39,0-.63.17-.63.43s.32.36.7.45,1.07.26,1.07.89c0,.48-.39.86-1.13.86a1.51,1.51,0,0,1-1.15-.45Z"/>
          <path class="cls-16" d="M116.71,235.58a1.41,1.41,0,1,1,1.41,1.5A1.4,1.4,0,0,1,116.71,235.58Zm2.36,0a1,1,0,1,0-.95,1.11A1,1,0,0,0,119.07,235.58Z"/>
          <path class="cls-16" d="M122.18,235.14c0-.5-.25-.66-.64-.66a1.09,1.09,0,0,0-.84.45V237h-.45v-2.85h.45v.41a1.43,1.43,0,0,1,1-.48.81.81,0,0,1,.91.92v2h-.44Z"/>
          <path class="cls-16" d="M123.51,233.07H124V237h-.44Z"/>
          <path class="cls-16" d="M125,237.77a.4.4,0,0,0,.42-.3l.19-.43-1.19-2.88h.48l1,2.34.94-2.34h.49l-1.43,3.43a.86.86,0,0,1-.84.58,1.65,1.65,0,0,1-.32,0l.07-.4A.93.93,0,0,0,125,237.77Z"/>
          <path class="cls-16" d="M129.37,234.55h-.47v-.39h.47v-.22a.82.82,0,0,1,.83-.93.81.81,0,0,1,.43.1l-.11.33a.49.49,0,0,0-.25-.06c-.29,0-.45.2-.45.56v.22h.58v.39h-.58V237h-.45Z"/>
          <path class="cls-16" d="M130.76,235.58a1.41,1.41,0,1,1,2.82,0,1.41,1.41,0,1,1-2.82,0Zm2.35,0a1,1,0,1,0-.94,1.11A1,1,0,0,0,133.11,235.58Z"/>
          <path class="cls-16" d="M134.3,234.16h.44v.46a1.21,1.21,0,0,1,.95-.52v.45h-.18a1,1,0,0,0-.77.45v2h-.44Z"/>
          <path class="cls-16" d="M137.86,236.41v-1.86h-.47v-.39h.47v-.78h.44v.78h.58v.39h-.58v1.77c0,.21.1.37.29.37a.46.46,0,0,0,.3-.12l.13.33a.74.74,0,0,1-.53.18C138.07,237.08,137.86,236.84,137.86,236.41Z"/>
          <path class="cls-16" d="M141.44,235.13c0-.5-.26-.65-.65-.65a1.12,1.12,0,0,0-.84.45V237h-.44v-3.94H140v1.5a1.43,1.43,0,0,1,1-.48.8.8,0,0,1,.91.91v2h-.44Z"/>
          <path class="cls-16" d="M144,234.09a1.38,1.38,0,0,1,1.37,1.53v.11h-2.31a1,1,0,0,0,1,1,1.23,1.23,0,0,0,.88-.36l.22.28a1.54,1.54,0,0,1-1.14.44,1.5,1.5,0,0,1-.05-3Zm-.94,1.31h1.88a.93.93,0,0,0-.94-1A1,1,0,0,0,143.06,235.4Z"/>
        </g>
        <g>
          <path class="cls-16" d="M32.63,243.4a1.29,1.29,0,0,0,.94.41c.44,0,.67-.2.67-.48s-.35-.41-.73-.5-1-.25-1-.84c0-.44.38-.82,1.06-.82a1.46,1.46,0,0,1,1.06.42l-.21.3a1.13,1.13,0,0,0-.85-.36c-.39,0-.63.18-.63.43s.32.37.69.46,1.07.25,1.07.88c0,.48-.38.87-1.12.87a1.54,1.54,0,0,1-1.15-.45Z"/>
          <path class="cls-16" d="M35.48,243.5v-1.87H35v-.39h.47v-.78h.44v.78h.58v.39h-.58v1.78c0,.21.1.36.29.36a.38.38,0,0,0,.3-.12l.13.33a.7.7,0,0,1-.53.19A.59.59,0,0,1,35.48,243.5Z"/>
          <path class="cls-16" d="M37.13,241.24h.44v.46a1.21,1.21,0,0,1,1-.52v.46l-.18,0a1,1,0,0,0-.77.46v2h-.44Z"/>
          <path class="cls-16" d="M38.91,242.67a1.41,1.41,0,1,1,1.41,1.5A1.4,1.4,0,0,1,38.91,242.67Zm2.36,0a1,1,0,1,0-1,1.1A1,1,0,0,0,41.27,242.67Z"/>
          <path class="cls-16" d="M44.38,242.23c0-.5-.26-.66-.64-.66a1.08,1.08,0,0,0-.84.44v2.09h-.45v-2.86h.45v.42a1.4,1.4,0,0,1,1-.49.81.81,0,0,1,.91.92v2h-.44Z"/>
          <path class="cls-16" d="M45.92,244.5a1.11,1.11,0,0,0,.93.39.82.82,0,0,0,.92-.86v-.41a1.21,1.21,0,0,1-1,.51,1.3,1.3,0,0,1-1.27-1.47c0-.92.52-1.49,1.27-1.49a1.2,1.2,0,0,1,1,.5v-.43h.44V244c0,1-.66,1.24-1.36,1.24a1.46,1.46,0,0,1-1.15-.42ZM47.77,242a1.06,1.06,0,0,0-.85-.46c-.58,0-.92.45-.92,1.09s.34,1.08.92,1.08a1.07,1.07,0,0,0,.85-.47Z"/>
          <path class="cls-16" d="M50.54,240.46a.3.3,0,0,1,.6,0,.3.3,0,1,1-.6,0Zm.08.78h.44v2.86h-.44Z"/>
          <path class="cls-16" d="M53.87,242.23c0-.5-.25-.66-.64-.66a1.08,1.08,0,0,0-.84.44v2.09H52v-2.86h.44v.42a1.4,1.4,0,0,1,1-.49.81.81,0,0,1,.91.92v2h-.44Z"/>
          <path class="cls-16" d="M58,241.17a1.39,1.39,0,0,1,1.37,1.53v.11H57a1,1,0,0,0,1,1,1.23,1.23,0,0,0,.88-.36l.21.29a1.54,1.54,0,0,1-1.13.44,1.41,1.41,0,0,1-1.45-1.5A1.43,1.43,0,0,1,58,241.17ZM57,242.49H58.9a.92.92,0,0,0-.94-1A1,1,0,0,0,57,242.49Z"/>
          <path class="cls-16" d="M62,242.23c0-.5-.25-.66-.64-.66a1.08,1.08,0,0,0-.84.44v2.09h-.44v-2.86h.44v.42a1.4,1.4,0,0,1,1-.49.81.81,0,0,1,.91.92v2H62Z"/>
          <path class="cls-16" d="M64.54,241.17a1.39,1.39,0,0,1,1.37,1.53v.11H63.6a1,1,0,0,0,1,1,1.27,1.27,0,0,0,.88-.36l.21.29a1.56,1.56,0,0,1-1.13.44,1.5,1.5,0,0,1,0-3Zm-.94,1.32h1.87a.92.92,0,0,0-.94-1A.94.94,0,0,0,63.6,242.49Z"/>
          <path class="cls-16" d="M66.62,241.24h.44v.46a1.22,1.22,0,0,1,1-.52v.46l-.18,0a1.07,1.07,0,0,0-.78.46v2h-.44Z"/>
          <path class="cls-16" d="M68.79,244.5a1.09,1.09,0,0,0,.93.39.81.81,0,0,0,.91-.86v-.41a1.21,1.21,0,0,1-1,.51,1.3,1.3,0,0,1-1.27-1.47c0-.92.52-1.49,1.27-1.49a1.18,1.18,0,0,1,1,.5v-.43h.44V244c0,1-.66,1.24-1.35,1.24a1.47,1.47,0,0,1-1.16-.42ZM70.63,242a1,1,0,0,0-.85-.46c-.57,0-.92.45-.92,1.09a1,1,0,0,0,.92,1.08,1.05,1.05,0,0,0,.85-.47Z"/>
          <path class="cls-16" d="M72.11,244.86a.42.42,0,0,0,.43-.3l.19-.44-1.2-2.88H72l.95,2.34,1-2.34h.48L73,244.67a.83.83,0,0,1-.84.58,1.12,1.12,0,0,1-.32,0l.07-.4A.64.64,0,0,0,72.11,244.86Z"/>
          <path class="cls-16" d="M74.41,244.66a.89.89,0,0,0,.39-.55h-.08a.28.28,0,0,1-.29-.3.32.32,0,0,1,.31-.32.41.41,0,0,1,.38.45,1.17,1.17,0,0,1-.49.9Z"/>
          <path class="cls-16" d="M77.24,242.67a1.41,1.41,0,1,1,1.41,1.5A1.4,1.4,0,0,1,77.24,242.67Zm2.35,0a1,1,0,1,0-.94,1.1A1,1,0,0,0,79.59,242.67Z"/>
          <path class="cls-16" d="M80.78,245.18v-3.94h.44v.43a1.2,1.2,0,0,1,1-.5c.75,0,1.27.57,1.27,1.5s-.52,1.5-1.27,1.5a1.17,1.17,0,0,1-1-.51v1.52Zm1.29-3.61a1.06,1.06,0,0,0-.85.45v1.29a1,1,0,0,0,.85.46c.57,0,.92-.47.92-1.1S82.64,241.57,82.07,241.57Z"/>
          <path class="cls-16" d="M84.25,243.5v-1.87h-.47v-.39h.47v-.78h.45v.78h.58v.39H84.7v1.78c0,.21.09.36.29.36a.41.41,0,0,0,.3-.12l.13.33a.7.7,0,0,1-.53.19A.59.59,0,0,1,84.25,243.5Z"/>
          <path class="cls-16" d="M85.82,240.46a.3.3,0,0,1,.3-.29.29.29,0,0,1,.3.29.3.3,0,0,1-.3.31A.31.31,0,0,1,85.82,240.46Zm.08.78h.44v2.86H85.9Z"/>
          <path class="cls-16" d="M90.67,242.16c0-.36-.16-.59-.52-.59a1,1,0,0,0-.76.43v2.1H89v-1.94c0-.36-.15-.59-.53-.59a1,1,0,0,0-.75.44v2.09h-.44v-2.86h.44v.42a1.23,1.23,0,0,1,.92-.49.73.73,0,0,1,.77.53,1.21,1.21,0,0,1,1-.53c.52,0,.8.29.8.86v2.07h-.45Z"/>
          <path class="cls-16" d="M91.92,240.46a.3.3,0,0,1,.6,0,.3.3,0,1,1-.6,0Zm.08.78h.44v2.86H92Z"/>
          <path class="cls-16" d="M93.31,243.4a1.29,1.29,0,0,0,.94.41c.44,0,.67-.2.67-.48s-.35-.41-.73-.5-1-.25-1-.84c0-.44.38-.82,1.06-.82a1.46,1.46,0,0,1,1.06.42l-.21.3a1.13,1.13,0,0,0-.85-.36c-.39,0-.63.18-.63.43s.32.37.69.46,1.07.25,1.07.88c0,.48-.38.87-1.12.87a1.55,1.55,0,0,1-1.15-.45Z"/>
          <path class="cls-16" d="M99.52,242.16c0-.36-.16-.59-.53-.59a1,1,0,0,0-.76.43v2.1h-.44v-1.94c0-.36-.15-.59-.52-.59a1,1,0,0,0-.75.44v2.09h-.45v-2.86h.45v.42a1.2,1.2,0,0,1,.92-.49.73.73,0,0,1,.76.53,1.21,1.21,0,0,1,1-.53c.52,0,.8.29.8.86v2.07h-.44Z"/>
          <path class="cls-16" d="M104.15,243.77a1.24,1.24,0,0,1-1,.4,1,1,0,0,1-1-.95.93.93,0,0,1,1-.94,1.22,1.22,0,0,1,1,.39v-.51c0-.38-.31-.6-.72-.6a1.12,1.12,0,0,0-.87.39l-.21-.3a1.5,1.5,0,0,1,1.14-.48c.6,0,1.1.27,1.1,1v2h-.44Zm0-.81a1,1,0,0,0-.79-.36.63.63,0,1,0,0,1.25,1,1,0,0,0,.79-.36Z"/>
          <path class="cls-16" d="M107.4,242.23c0-.5-.25-.66-.63-.66a1.12,1.12,0,0,0-.85.44v2.09h-.44v-2.86h.44v.42a1.4,1.4,0,0,1,1-.49.81.81,0,0,1,.91.92v2h-.45Z"/>
          <path class="cls-16" d="M110.8,243.67a1.22,1.22,0,0,1-1,.5c-.74,0-1.27-.57-1.27-1.5s.52-1.5,1.27-1.5a1.2,1.2,0,0,1,1,.5v-1.51h.44v3.94h-.44Zm0-1.64a1.06,1.06,0,0,0-.86-.46c-.57,0-.91.47-.91,1.1s.34,1.1.91,1.1a1.06,1.06,0,0,0,.86-.45Z"/>
          <path class="cls-16" d="M114.91,241.17a1.2,1.2,0,0,1,1,.5l-.3.27a.83.83,0,0,0-.72-.37,1.11,1.11,0,0,0,0,2.2.85.85,0,0,0,.72-.37l.3.27a1.22,1.22,0,0,1-1,.5,1.5,1.5,0,0,1,0-3Z"/>
          <path class="cls-16" d="M118.5,243.69a1.42,1.42,0,0,1-1,.48.8.8,0,0,1-.91-.91v-2H117v1.88c0,.5.26.65.64.65a1.11,1.11,0,0,0,.85-.43v-2.1h.44v2.86h-.44Z"/>
          <path class="cls-16" d="M119.82,241.24h.45v.46a1.21,1.21,0,0,1,1-.52v.46l-.18,0a1,1,0,0,0-.77.46v2h-.45Z"/>
          <path class="cls-16" d="M121.69,240.46a.3.3,0,0,1,.6,0,.3.3,0,1,1-.6,0Zm.08.78h.44v2.86h-.44Z"/>
          <path class="cls-16" d="M122.93,242.67a1.42,1.42,0,1,1,1.42,1.5A1.41,1.41,0,0,1,122.93,242.67Zm2.36,0a1,1,0,1,0-.94,1.1A1,1,0,0,0,125.29,242.67Z"/>
          <path class="cls-16" d="M126.46,243.4a1.29,1.29,0,0,0,.94.41c.43,0,.67-.2.67-.48s-.35-.41-.73-.5-1-.25-1-.84c0-.44.39-.82,1.07-.82a1.44,1.44,0,0,1,1,.42l-.2.3a1.14,1.14,0,0,0-.85-.36c-.39,0-.63.18-.63.43s.32.37.69.46,1.07.25,1.07.88c0,.48-.38.87-1.12.87a1.54,1.54,0,0,1-1.15-.45Z"/>
          <path class="cls-16" d="M129.14,240.46a.3.3,0,0,1,.3-.29.29.29,0,0,1,.3.29.3.3,0,0,1-.3.31A.31.31,0,0,1,129.14,240.46Zm.08.78h.44v2.86h-.44Z"/>
          <path class="cls-16" d="M130.64,243.5v-1.87h-.48v-.39h.48v-.78h.44v.78h.58v.39h-.58v1.78c0,.21.09.36.29.36a.41.41,0,0,0,.3-.12l.13.33a.7.7,0,0,1-.53.19A.59.59,0,0,1,130.64,243.5Z"/>
          <path class="cls-16" d="M132.44,244.86a.41.41,0,0,0,.42-.3l.19-.44-1.19-2.88h.48l.95,2.34.94-2.34h.49l-1.43,3.43a.83.83,0,0,1-.84.58,1.12,1.12,0,0,1-.32,0l.07-.4A.64.64,0,0,0,132.44,244.86Z"/>
          <path class="cls-16" d="M138.42,241.8l-.74,2.3h-.44l-.91-2.86h.46l.7,2.28.75-2.28h.37l.75,2.28.7-2.28h.46l-.91,2.86h-.44Z"/>
          <path class="cls-16" d="M143,242.22c0-.5-.26-.65-.65-.65a1.11,1.11,0,0,0-.84.44v2.09H141v-3.94h.45v1.5a1.4,1.4,0,0,1,1-.49.8.8,0,0,1,.91.91v2H143Z"/>
          <path class="cls-16" d="M144.13,242.67a1.41,1.41,0,1,1,1.41,1.5A1.4,1.4,0,0,1,144.13,242.67Zm2.35,0a1,1,0,1,0-.94,1.1A1,1,0,0,0,146.48,242.67Z"/>
        </g>
        <g>
          <path class="cls-16" d="M32.65,248.33h.44v.46a1.21,1.21,0,0,1,.95-.52v.45l-.18,0a1,1,0,0,0-.77.46v2h-.44Z"/>
          <path class="cls-16" d="M35.84,248.26a1.38,1.38,0,0,1,1.37,1.53v.11H34.9a1,1,0,0,0,1,1,1.23,1.23,0,0,0,.88-.36l.22.29a1.54,1.54,0,0,1-1.14.44,1.5,1.5,0,0,1,0-3Zm-.94,1.31h1.87a.93.93,0,0,0-.94-.95A1,1,0,0,0,34.9,249.57Z"/>
          <path class="cls-16" d="M39.18,248.26a1.22,1.22,0,0,1,1,.49l-.29.27a.85.85,0,0,0-.73-.37,1.11,1.11,0,0,0,0,2.2.85.85,0,0,0,.73-.37l.29.27a1.2,1.2,0,0,1-1,.5,1.5,1.5,0,0,1,0-3Z"/>
          <path class="cls-16" d="M40.68,249.75a1.41,1.41,0,1,1,1.41,1.5A1.39,1.39,0,0,1,40.68,249.75Zm2.35,0a1,1,0,1,0-.94,1.1A1,1,0,0,0,43,249.75Z"/>
          <path class="cls-16" d="M44.44,251.58a1.09,1.09,0,0,0,.92.39.82.82,0,0,0,.92-.86v-.4a1.2,1.2,0,0,1-1,.5,1.3,1.3,0,0,1-1.27-1.47c0-.92.52-1.48,1.27-1.48a1.18,1.18,0,0,1,1,.5v-.43h.44v2.77c0,.94-.66,1.24-1.36,1.24a1.47,1.47,0,0,1-1.15-.43Zm1.84-2.47a1,1,0,0,0-.85-.46c-.57,0-.92.46-.92,1.09a1,1,0,0,0,.92,1.08,1,1,0,0,0,.85-.46Z"/>
          <path class="cls-16" d="M49.53,249.31c0-.5-.25-.66-.64-.66a1.1,1.1,0,0,0-.84.44v2.09h-.44v-2.85h.44v.41a1.39,1.39,0,0,1,1-.48.81.81,0,0,1,.91.92v2h-.44Z"/>
          <path class="cls-16" d="M50.78,247.55a.3.3,0,1,1,.6,0,.3.3,0,0,1-.6,0Zm.08.78h.44v2.85h-.44Z"/>
          <path class="cls-16" d="M52.05,250.84l1.57-2.12H52.05v-.39H54.2v.33l-1.58,2.14h1.61v.38H52.05Z"/>
          <path class="cls-16" d="M56.21,248.26a1.38,1.38,0,0,1,1.37,1.53v.11H55.27a1,1,0,0,0,1,1,1.23,1.23,0,0,0,.88-.36l.22.29a1.54,1.54,0,0,1-1.14.44,1.5,1.5,0,0,1,0-3Zm-.94,1.31h1.88a.93.93,0,0,0-.94-.95A1,1,0,0,0,55.27,249.57Z"/>
          <path class="cls-16" d="M59.91,250.58v-1.86h-.47v-.39h.47v-.78h.44v.78h.58v.39h-.58v1.77c0,.21.1.36.29.36a.43.43,0,0,0,.3-.11l.13.33a.74.74,0,0,1-.53.18C60.12,251.25,59.91,251,59.91,250.58Z"/>
          <path class="cls-16" d="M63.49,249.3c0-.5-.26-.65-.65-.65a1.11,1.11,0,0,0-.84.44v2.09h-.44v-3.94H62v1.5a1.4,1.4,0,0,1,1-.48.8.8,0,0,1,.91.91v2h-.44Z"/>
          <path class="cls-16" d="M66.05,248.26a1.38,1.38,0,0,1,1.37,1.53v.11h-2.3a1,1,0,0,0,1,1,1.23,1.23,0,0,0,.88-.36l.22.29a1.54,1.54,0,0,1-1.14.44,1.5,1.5,0,0,1,0-3Zm-.93,1.31H67a.93.93,0,0,0-.94-.95A1,1,0,0,0,65.12,249.57Z"/>
          <path class="cls-16" d="M69.58,247.55a.3.3,0,0,1,.3-.3.29.29,0,0,1,.3.3.3.3,0,0,1-.3.3A.31.31,0,0,1,69.58,247.55Zm.08.78h.44v2.85h-.44Z"/>
          <path class="cls-16" d="M74.43,249.24c0-.36-.16-.59-.52-.59a1,1,0,0,0-.76.44v2.09h-.44v-1.94c0-.36-.15-.59-.53-.59a1,1,0,0,0-.75.44v2.09H71v-2.85h.44v.41a1.26,1.26,0,0,1,.92-.48.73.73,0,0,1,.77.53,1.21,1.21,0,0,1,1-.53c.52,0,.8.29.8.86v2.06h-.45Z"/>
          <path class="cls-16" d="M75.76,252.27v-3.94h.44v.42a1.19,1.19,0,0,1,1-.49c.75,0,1.27.56,1.27,1.49s-.52,1.5-1.27,1.5a1.18,1.18,0,0,1-1-.5v1.52Zm1.29-3.62a1.06,1.06,0,0,0-.85.46v1.28a1.06,1.06,0,0,0,.85.46c.58,0,.92-.47.92-1.1S77.63,248.65,77.05,248.65Z"/>
          <path class="cls-16" d="M79,249.75a1.42,1.42,0,1,1,1.41,1.5A1.4,1.4,0,0,1,79,249.75Zm2.36,0a1,1,0,1,0-1,1.1A1,1,0,0,0,81.34,249.75Z"/>
          <path class="cls-16" d="M82.53,248.33H83v.46a1.21,1.21,0,0,1,1-.52v.45l-.18,0a1,1,0,0,0-.77.46v2h-.44Z"/>
          <path class="cls-16" d="M84.56,250.58v-1.86h-.47v-.39h.47v-.78H85v.78h.57v.39H85v1.77c0,.21.09.36.28.36a.46.46,0,0,0,.31-.11l.13.33a.79.79,0,0,1-.54.18C84.77,251.25,84.56,251,84.56,250.58Z"/>
          <path class="cls-16" d="M88,250.85a1.22,1.22,0,0,1-.94.4.94.94,0,0,1-1-.94.93.93,0,0,1,1-.94,1.17,1.17,0,0,1,.94.39v-.52c0-.38-.3-.6-.72-.6a1.1,1.1,0,0,0-.87.4l-.21-.31a1.49,1.49,0,0,1,1.14-.47c.6,0,1.11.27,1.11,1v2H88Zm0-.81a.93.93,0,0,0-.78-.35.63.63,0,1,0,0,1.24,1,1,0,0,0,.78-.35Z"/>
          <path class="cls-16" d="M91.24,249.31c0-.5-.25-.66-.63-.66a1.12,1.12,0,0,0-.85.44v2.09h-.44v-2.85h.44v.41a1.4,1.4,0,0,1,1-.48.81.81,0,0,1,.91.92v2h-.45Z"/>
          <path class="cls-16" d="M93.83,248.26a1.24,1.24,0,0,1,1,.49l-.3.27a.85.85,0,0,0-.73-.37,1.11,1.11,0,0,0,0,2.2.85.85,0,0,0,.73-.37l.3.27a1.22,1.22,0,0,1-1,.5,1.5,1.5,0,0,1,0-3Z"/>
          <path class="cls-16" d="M96.73,248.26a1.39,1.39,0,0,1,1.38,1.53v.11H95.8a1,1,0,0,0,1,1,1.23,1.23,0,0,0,.88-.36l.22.29a1.54,1.54,0,0,1-1.14.44,1.5,1.5,0,0,1,0-3Zm-.93,1.31h1.87a.93.93,0,0,0-.94-.95A1,1,0,0,0,95.8,249.57Z"/>
          <path class="cls-16" d="M100.18,249.75a1.41,1.41,0,1,1,1.41,1.5A1.39,1.39,0,0,1,100.18,249.75Zm2.35,0a1,1,0,1,0-.94,1.1A1,1,0,0,0,102.53,249.75Z"/>
          <path class="cls-16" d="M103.84,248.72h-.47v-.39h.47v-.22a.82.82,0,0,1,.83-.93.83.83,0,0,1,.43.1l-.11.33a.53.53,0,0,0-.26-.06c-.29,0-.45.2-.45.56v.22h.58v.39h-.58v2.46h-.44Z"/>
          <path class="cls-16" d="M109,250.75a1.2,1.2,0,0,1-1,.5c-.75,0-1.27-.57-1.27-1.49s.52-1.5,1.27-1.5a1.2,1.2,0,0,1,1,.5v-1.52h.44v3.94H109Zm0-1.64a1.06,1.06,0,0,0-.86-.46c-.57,0-.91.47-.91,1.11s.34,1.09.91,1.09a1.08,1.08,0,0,0,.86-.44Z"/>
          <path class="cls-16" d="M111.55,248.26a1.38,1.38,0,0,1,1.37,1.53v.11h-2.31a1,1,0,0,0,1,1,1.27,1.27,0,0,0,.88-.36l.21.29a1.54,1.54,0,0,1-1.14.44,1.5,1.5,0,0,1,0-3Zm-.94,1.31h1.87a.93.93,0,0,0-.94-.95A1,1,0,0,0,110.61,249.57Z"/>
          <path class="cls-16" d="M113.2,248.33h.48l.95,2.34,1-2.34h.48l-1.18,2.85h-.49Z"/>
          <path class="cls-16" d="M117.76,248.26a1.38,1.38,0,0,1,1.37,1.53v.11h-2.31a1,1,0,0,0,1,1,1.23,1.23,0,0,0,.88-.36l.21.29a1.51,1.51,0,0,1-1.13.44,1.5,1.5,0,0,1,0-3Zm-.94,1.31h1.88a.93.93,0,0,0-.94-.95A1,1,0,0,0,116.82,249.57Z"/>
          <path class="cls-16" d="M119.85,247.24h.44v3.94h-.44Z"/>
          <path class="cls-16" d="M121,249.75a1.41,1.41,0,1,1,1.41,1.5A1.39,1.39,0,0,1,121,249.75Zm2.36,0a1,1,0,1,0-1,1.1A1,1,0,0,0,123.37,249.75Z"/>
          <path class="cls-16" d="M124.55,252.27v-3.94H125v.42a1.19,1.19,0,0,1,1-.49c.75,0,1.27.56,1.27,1.49s-.52,1.5-1.27,1.5a1.18,1.18,0,0,1-1-.5v1.52Zm1.29-3.62a1.08,1.08,0,0,0-.85.46v1.28a1.08,1.08,0,0,0,.85.46c.58,0,.92-.47.92-1.1S126.42,248.65,125.84,248.65Z"/>
          <path class="cls-16" d="M127.86,247.55a.3.3,0,0,1,.6,0,.3.3,0,0,1-.6,0Zm.08.78h.44v2.85h-.44Z"/>
          <path class="cls-16" d="M131.19,249.31c0-.5-.25-.66-.63-.66a1.12,1.12,0,0,0-.85.44v2.09h-.44v-2.85h.44v.41a1.4,1.4,0,0,1,1-.48.81.81,0,0,1,.91.92v2h-.45Z"/>
          <path class="cls-16" d="M132.74,251.58a1.11,1.11,0,0,0,.93.39.81.81,0,0,0,.91-.86v-.4a1.18,1.18,0,0,1-1,.5c-.74,0-1.26-.55-1.26-1.47s.51-1.48,1.26-1.48a1.18,1.18,0,0,1,1,.5v-.43H135v2.77a1.18,1.18,0,0,1-1.35,1.24,1.48,1.48,0,0,1-1.16-.43Zm1.84-2.47a1,1,0,0,0-.85-.46c-.57,0-.91.46-.91,1.09s.34,1.08.91,1.08a1,1,0,0,0,.85-.46Z"/>
        </g>
        <g class="cls-3">
          <line class="cls-17" x1="26.3" y1="202.7" x2="26.3" y2="268.65"/>
        </g>
      </g>
    </g>
  </g>
</svg>
