<svg xmlns="http://www.w3.org/2000/svg" viewBox="0 0 179.41 252.64">
  <defs>
    <style>
      .cls-1 {
        isolation: isolate;
      }

      .cls-2 {
        fill: #434345;
        mix-blend-mode: multiply;
      }

      .cls-3 {
        fill: #e6e7e8;
      }
    </style>
  </defs>
  <g class="cls-1">
    <g id="Layer_1" data-name="Layer 1">
      <rect class="cls-2" width="179.41" height="252.64"/>
      <g>
        <path class="cls-3" d="M15.67,104.52c0-7.41,5.69-12.42,13-12.42,6.48,0,9.65,3.67,11.09,7L33.53,102a5.16,5.16,0,0,0-4.83-3.49,6,6,0,0,0,0,12A5.16,5.16,0,0,0,33.53,107l6.26,2.88a11.42,11.42,0,0,1-11.09,7C21.36,116.94,15.67,111.9,15.67,104.52Z"/>
        <path class="cls-3" d="M53.9,92.1c7.42,0,13.14,5,13.14,12.42s-5.72,12.42-13.14,12.42-13.14-5-13.14-12.42S46.49,92.1,53.9,92.1Zm0,6.41a6,6,0,1,0,5.76,6A5.68,5.68,0,0,0,53.9,98.51Z"/>
        <path class="cls-3" d="M90.87,101.35l-5.36,15.16H82.27l-5.36-15.16v15.16H69.64v-24h10l4.21,12.24L88.1,92.5h10v24H90.87Z"/>
        <path class="cls-3" d="M102,92.5h7.27v24H102Z"/>
        <path class="cls-3" d="M120.47,103.62v12.89H113.2v-24h7.48L129,104.59V92.5h7.27v24h-7Z"/>
        <path class="cls-3" d="M152.11,92.1c5.58,0,8.89,2.81,10.55,5.91l-6.12,3.13a5,5,0,0,0-4.43-2.63,6,6,0,0,0,0,12,6.76,6.76,0,0,0,3.92-1.08v-1h-4.64v-6h11.7v9.65a14.26,14.26,0,0,1-11,4.86c-7.27,0-13.21-4.75-13.21-12.42S144.84,92.1,152.11,92.1Z"/>
        <path class="cls-3" d="M41.48,150.92a11.18,11.18,0,0,0,7.74,3.1c1.37,0,2.67-.47,2.67-1.4s-1-1.41-3.39-1.84c-4-.72-10-1.66-10-7.67,0-4.06,3.38-7.77,10-7.77a15.77,15.77,0,0,1,10.18,3.35l-3.88,5.14a12,12,0,0,0-6.7-2.37c-1.8,0-2.19.65-2.19,1.26,0,.93,1,1.26,3.52,1.69,4,.68,9.83,1.84,9.83,7.38,0,5.29-3.92,8.35-10.37,8.35-5.11,0-8.6-1.51-11.16-3.82Z"/>
        <path class="cls-3" d="M73.45,135.3c7.41,0,13.14,5,13.14,12.42s-5.73,12.42-13.14,12.42-13.14-5-13.14-12.42S66,135.3,73.45,135.3Zm0,6.41a6,6,0,1,0,5.76,6A5.68,5.68,0,0,0,73.45,141.71Z"/>
        <path class="cls-3" d="M101,135.3c7.41,0,13.13,5,13.13,12.42s-5.72,12.42-13.13,12.42-13.14-5-13.14-12.42S93.61,135.3,101,135.3Zm0,6.41a6,6,0,1,0,5.76,6A5.68,5.68,0,0,0,101,141.71Z"/>
        <path class="cls-3" d="M124,146.82v12.89h-7.27v-24h7.49l8.35,12.09V135.7h7.27v24h-7Z"/>
      </g>
    </g>
  </g>
</svg>
