<svg xmlns="http://www.w3.org/2000/svg" viewBox="0 0 179.41 252.64">
  <defs>
    <style>
      .cls-1 {
        isolation: isolate;
      }

      .cls-2 {
        fill: #434345;
        mix-blend-mode: multiply;
      }

      .cls-3 {
        fill: #e6e7e8;
      }
    </style>
  </defs>
  <g class="cls-1">
    <g id="Layer_1" data-name="Layer 1">
      <rect class="cls-2" width="179.41" height="252.64"/>
      <g>
        <path class="cls-3" d="M55.67,115.7H45.12V112h25.3v3.7H59.82v29.65H55.67Z"/>
        <path class="cls-3" d="M75.92,112H90.77c5.8,0,9.35,3.5,9.35,8.5a7.58,7.58,0,0,1-5.85,7.65c3.55.55,6.5,4.2,6.5,8.2,0,5.35-3.55,9-9.65,9H75.92Zm14.15,14.45c3.75,0,5.75-2.3,5.75-5.35s-2-5.4-5.75-5.4h-10v10.75Zm.2,15.2c3.9,0,6.2-2.2,6.2-5.75,0-3.05-2.1-5.75-6.2-5.75H80.07v11.5Z"/>
        <path class="cls-3" d="M107.37,112h11.4c10.35,0,17.1,7.25,17.1,16.7s-6.75,16.65-17.1,16.65h-11.4Zm11.4,29.65c8.1,0,12.8-5.8,12.8-13s-4.55-13-12.8-13h-7.25v26Z"/>
      </g>
    </g>
  </g>
</svg>
