<svg xmlns="http://www.w3.org/2000/svg" viewBox="0 0 145.54 126.85">
  <defs>
    <style>
      .cls-1 {
        isolation: isolate;
      }

      .cls-2 {
        opacity: 0.15;
        mix-blend-mode: multiply;
      }

      .cls-3 {
        fill: #888;
      }
    </style>
  </defs>
  <g class="cls-1">
    <g id="Layer_1" data-name="Layer 1">
      <g class="cls-2">
        <path class="cls-3" d="M29.46,78.33s.36-.28.72-.53.58-.5.49-.56-.28,0-.43.13-.28.13-.3,0-.15.07-.3.41a3.09,3.09,0,0,0-.19.54h0S29.45,78.33,29.46,78.33Z"/>
        <path class="cls-3" d="M28.25,67.5h0s.16-.15.3-.38.19-.46.11-.51-.23.13-.31.39A1.07,1.07,0,0,0,28.25,67.5Z"/>
        <path class="cls-3" d="M22.78,67.66a3.13,3.13,0,0,1,.11-.44l-.63.18.24.88A1.76,1.76,0,0,0,22.78,67.66Z"/>
        <path class="cls-3" d="M87.55,114.15c.15-.13.1-.2-.11-.18s-.26-.06-.11-.19a.45.45,0,0,1,.45-.1c.11.07.35-.05.53-.26s.28-.39.2-.44-.25.06-.4.23-.11,0,.1-.32c.41-.65.66-.72.53-.14,0,.18,0,.3.15.26.31-.11.13.48-.29.95-.2.22-.42.28-.48.14-.14-.31-.44.1-.37.5v.07a1.36,1.36,0,0,0,.68.13c.58-.14,2.5-3.26,3.08-3.45s4,1.18,4.52,1a1.46,1.46,0,0,0,.46-.49s.05-.31.26-.74.38-.55.53-.57c.12-.19.24-.4.35-.59-.13.13-.24.2-.28.19s0,0,0,0h0v0c0-.12.18-.32.39-.45l.13-.07a3.47,3.47,0,0,1,.8-1.07c.55-.26,4.09.66,4.61.36a5.09,5.09,0,0,0,.9-1.68.76.76,0,0,1-.16.06s-.08,0-.1,0h0s0-.11,0-.21.24-.26.32-.21l0,0a15.8,15.8,0,0,1,.88-1.93l0,0s0-.08.07-.16.41-.18.48-.1c1-.14,3.88.15,4.3-.16s1.07-4,1.53-4.37,4.11-.42,4.54-.85.55-4.08,1-4.52,4-1,4.39-1.44,0-4.12.35-4.61,3.87-1.48,4.17-2a2.05,2.05,0,0,0,0-1l-.2.25a5.35,5.35,0,0,1-.81.83.46.46,0,0,1-.17.08c-.12,0,.27-.47.85-1l.32-.29c-.12-1.26-.49-3.17-.29-3.55.27-.53,3.63-2,3.87-2.52a3.44,3.44,0,0,0-.18-1.39,0,0,0,0,1,0,0,13.43,13.43,0,0,1-.67-3.14c.2-.57,3.36-2.43,3.52-3s-1.57-3.8-1.45-4.39,3-2.85,3.09-3.44-2.05-3.57-2-4.18,1.62-2.18,2.31-3.18c0-.07,0-.1,0-.09h0a1.28,1.28,0,0,0,.25-.54c0-.6-2.5-3.26-2.53-3.86s2.16-3.53,2.09-4.13-2.48-2.56-2.94-3.34a1.08,1.08,0,0,1-.27.67c-.06,0-.1,0-.13,0s0-.69.21-1c.05-.06.1-.1.13-.1.21-1,1.66-3.59,1.53-4.12a5,5,0,0,0-1.32-1.24c-.27.35-.39.26-.36-.28h0l-.17-.12-.08.13a1.37,1.37,0,0,0-.23.64c0,.08,0,.11,0,.08h0s0,0,0,0,0-.38.2-.67l.13-.2a6.18,6.18,0,0,1-1.54-1.39c-.19-.57,1.17-4,.95-4.53s-3.56-2.07-3.82-2.61.65-4.09.36-4.61-3.32-1.43-4-2c-.11,0-.18.06-.2,0h0s0-.1.06-.21a1.33,1.33,0,0,1-.07-.3c-.35.61-.35.82-.06.84s.31.16.22.32-.31.12-.52-.14-.42-.32-.51-.16-.1.31,0,.36c.26.16-.13.58-.51.55-.08,0-.14,0-.17,0h0c-.1-.06,0-.24.43-.75a4.38,4.38,0,0,0,.69-1,.55.55,0,0,1,.32-.35l.09,0c0-1.25.15-3.46-.13-3.82s-4-1.07-4.36-1.53-.42-4.12-.85-4.55a6.17,6.17,0,0,0-2.16-.47c-.23.19-.4.22-.44.06s-.08-.14-.13.25-.12.56-.35.58h-.08c-.23-.07.06-.59.44-.95a5.64,5.64,0,0,1-1.81-.4c-.44-.41-1-4-1.43-4.4a3,3,0,0,0-1.3-.18.54.54,0,0,1-.27.33h0l0,0s0-.16.09-.33h-.76a.43.43,0,0,1-.07.1.27.27,0,0,1-.21.08h0l0,0a.31.31,0,0,1-.09-.16A5.48,5.48,0,0,1,106.38,7c-.5-.34-1.48-3.87-2-4.17s-2.79.24-4,.3a1.45,1.45,0,0,0-.24.73c0,.12,0,.18-.06.17h0S100,4,100,3.94s0-.43.16-.8a1.25,1.25,0,0,1-.4-.05c-.53-.28-2-3.64-2.52-3.88s-4,1.06-4.55.86A4.56,4.56,0,0,1,91.63-1.1l-.18.21a4,4,0,0,0-.58.94,1.43,1.43,0,0,1-.42.61q-.17.13-.21.12h0s0-.22.13-.61a2.1,2.1,0,0,0,.16-1c-.06-.11.17-.51.53-1a5.78,5.78,0,0,0-1.38-1.57A9.57,9.57,0,0,0,87-2.54c-.38.56-.83,1-.92.85s-.18-.06-.33.3-1,1-1.28.92h0a.05.05,0,0,1,0,0s-.06-.1,0-.22A1.13,1.13,0,0,1,85-1.25a3.65,3.65,0,0,0,.9-.86,1.46,1.46,0,0,1-.59.11c-.53-.11-2.39-2.43-3.2-3-.26.43-.53.74-.61.69s0-.39.27-.8a2.08,2.08,0,0,0-.64.23A8.07,8.07,0,0,1,79.7-2.91l-.08,0h0c-.11,0,.13-.75.48-1.42l-1,.56c0,.06-.06.13-.1.2a2.84,2.84,0,0,1-.91.84,2.7,2.7,0,0,0-.88.83,1.55,1.55,0,0,1-.56.58s0,0,0,0h0c-.1,0,.15-.56.68-1.44.08-.14.16-.28.24-.4-.77-.28-3.14-2.57-3.71-2.58S70.59-3.2,70-3.16s-3.53-2.17-4.13-2.1-2.91,2.91-3.5,3S58.58-3.93,58-3.78,55.48-.52,54.91-.33s-4-1.18-4.53-.95-2.06,3.56-2.6,3.82-4.09-.66-4.61-.36S41.59,6,41.08,6.3s-4.14-.11-4.62.25a2,2,0,0,0-.37.78h0c.07,0,0,.19,0,.34a1.3,1.3,0,0,1-.19.22,13.39,13.39,0,0,1-1,3c-.46.39-4.12.43-4.55.84s-.54,4.09-.95,4.54-4,1-4.39,1.43,0,4.12-.35,4.62-3.87,1.48-4.17,2,.53,4.08.25,4.61-3.64,2-3.87,2.53a10.1,10.1,0,0,0,.58,2.9c.07,0,.1.08.09.28v0A3.62,3.62,0,0,1,17.77,36c-.2.57-3.35,2.43-3.52,3s1.57,3.8,1.45,4.39-3,2.85-3.09,3.44,2.05,3.57,2,4.17S12,54.26,12,54.86s2.5,3.27,2.54,3.87-2.17,3.53-2.1,4.12,2.9,2.92,3,3.51-1.69,3.78-1.54,4.36,2.87,2.27,3.38,3a1.18,1.18,0,0,1,.19-.35c.07,0,0,.16,0,.44a1.16,1.16,0,0,0-.06.15c0,.69-.88,3.09-1,4.07a.25.25,0,0,0,0-.12.61.61,0,0,1,.36-.38c.18-.06.18,0,0,.16s-.22.3-.13.36,0,.22-.14.49a25.76,25.76,0,0,0,2.83,1.76,7.51,7.51,0,0,1,1.4-2.12c.14-.09-.08.39-.48,1.08a7.13,7.13,0,0,1-.78,1.12,2.38,2.38,0,0,1,.73.6c.26.54-.65,4.09-.35,4.61A6.74,6.74,0,0,0,22,86.63a.52.52,0,0,0,.14-.51c-.05-.32,0-.36.16-.23a1.17,1.17,0,0,1,.31.41c.08.18,0,.3-.22.49.38.16.74.32,1,.46a3.14,3.14,0,0,0,.29-.49c.17-.37.38-.61.48-.55s.15-.06.12-.3,0-.37.13-.29.23,0,.27-.23.18-.27.3-.19.12.25-.3.72a2.46,2.46,0,0,0-.54.81c0,.12-.09.18-.18.13s-.25.12-.34.39a.36.36,0,0,1,0,.09,1.33,1.33,0,0,1,.41.3c.33.51-.11,4.13.26,4.62a1.6,1.6,0,0,0,.66.34s0-.06,0-.08c.19-.55.21-.55.29,0a.65.65,0,0,0,.1.25l.64.18.06-.13a3.73,3.73,0,0,0,.43-1.12.36.36,0,0,1,.25-.33c.15,0,.2,0,.09.21s-.05.27.11.21.17,0-.07.23a4.57,4.57,0,0,0-.71,1l.58.16a2.29,2.29,0,0,1,.53-1c.44-.55.82-.4.48.18-.14.23-.36.36-.49.28s-.23-.06-.18.23a.4.4,0,0,1-.1.39,5.12,5.12,0,0,1,1.67.62c.39.45.43,4.12.85,4.55a2.4,2.4,0,0,0,1,.3,7.07,7.07,0,0,0,.44-.63c.53-.87.75-1,1.07-.5A.36.36,0,0,1,32,98c-.11.1,0,.2.16.22s.3.18-.1.66a6.32,6.32,0,0,1,2,.42,4.08,4.08,0,0,1,.49,1.35h0s0,.11,0,.22l.18.76c.6-.69.81-.84.8-.58a3.86,3.86,0,0,1-.69,1,4.41,4.41,0,0,0,.59,1.64c.32.25,2.06.17,3.33.19,0-.17.14-.27.22-.22s.08.12.05.22a2.69,2.69,0,0,1,1,.15c.5.35,1.48,3.87,2,4.18s4.08-.53,4.62-.26a9.59,9.59,0,0,1,1.45,2.31c.16,0,.25,0,.21.14a1.21,1.21,0,0,1,0,.14,3.84,3.84,0,0,0,.91,1.28c.55.24,4-1,4.55-.86s2.43,3.36,3,3.52,3.81-1.57,4.39-1.45c0,0,0,0,.07,0l.13-.14c.44-.46.45-.46.11.14a.61.61,0,0,1-.07.1c.81.58,2.67,2.89,3.2,3a3.1,3.1,0,0,0,1.22-.49,1.21,1.21,0,0,1,0-.25c0-.18.14-.28.23-.23s.08.18,0,.32l1-.54a1.09,1.09,0,0,0,0-.17c0-.32,0-.55.08-.51s.15-.17.19-.46c.08-.73.39-.88.36-.19,0,.3.07.49.18.43s.1,0,0,.21-.26.28-.34.23-.25.1-.22.33a4.66,4.66,0,0,1,1.5-.68.52.52,0,0,1,.21.07A1.29,1.29,0,0,1,69,114c.27-.57.31-.37.1.31a22.75,22.75,0,0,1,1.83,1.4l0,0c.29-.49.43-.51.33,0a.66.66,0,0,1-.15.27c.31.24.61.46.85.62a.1.1,0,0,1,.09,0,.13.13,0,0,1,0,.09,1,1,0,0,0,.4.16c.43,0,1.93-1.29,3-2,.22-.34.37-.44.42-.28a1.2,1.2,0,0,1,.49-.22,13.75,13.75,0,0,1,2.86,1.54l0-.09c.13-.23.29-.38.36-.34s.06.2,0,.35a.79.79,0,0,1-.17.2,2.6,2.6,0,0,0,1.06.43c.59-.07,2.91-2.9,3.51-3,.41-.08,2.12.79,3.3,1.26A.75.75,0,0,1,87.55,114.15Zm36.83-27.6c.2,0,.18.12-.1.47s-.47.45-.55.39,0-.18.12-.44A.9.9,0,0,1,124.38,86.55Zm4-7.09a2.38,2.38,0,0,1,.49-.53c.11-.07.07.07-.09.29a2.25,2.25,0,0,1-.49.54l-.06,0h0S128.24,79.64,128.36,79.46Zm4.41-14.25a.44.44,0,0,1-.38.33h-.11c-.09,0-.07-.19,0-.37C132.58,64.71,132.88,64.74,132.77,65.21ZM22.12,27.11c.46-.51.5-.4.1.28-.16.27-.32.43-.37.37h0a.07.07,0,0,1,0-.05A.9.9,0,0,1,22.12,27.11Zm2.58-3.56A4.52,4.52,0,0,1,24,25.09c-.46.78-.76,1.2-.82,1.16h0s0,0,0-.06C23.18,25.57,24.46,23.4,24.7,23.55Zm-5.76,9s0,0,0,0h0a.5.5,0,0,1,0-.21,1.31,1.31,0,0,1,.27-.7c.13-.16.24-.17.23,0a1.93,1.93,0,0,1-.26.69C19,32.43,19,32.51,18.94,32.51Zm-.27,1.24h-.05c-.06-.05.09-.42.4-1,.62-1.08,1.43-2.95,1-2.23-.14.21-.25.3-.24.18,0-.29,1.47-1.68,1.65-1.57a9.56,9.56,0,0,1-1.16,2.3A14.45,14.45,0,0,1,18.67,33.75ZM25.6,22.86h0l-.05,0c-.15-.12-.17-.29-.06-.39.28-.24.48-.09.39.29A.18.18,0,0,1,25.6,22.86Zm.61-1.11c-.31.19-.51.25-.61.22h0l0,0c-.14-.09.09-.47.68-.86a7.18,7.18,0,0,0,1.32-1.47c.7-1,1.24-1.29,1.08-.57A8.12,8.12,0,0,1,26.21,21.75ZM29.39,18h0c-.05,0-.07-.11-.06-.26a4.05,4.05,0,0,1,1.31-2.36c.25-.12.44-.34.43-.46,0-.38,1.85-3.12,1.9-2.77a10.54,10.54,0,0,1-1.48,3.1,8.88,8.88,0,0,0-1,1.36C29.9,17.63,29.53,18.09,29.39,18ZM16.76,40.35c.08,0,.11.23.07.41s-.07.17-.12.15a.33.33,0,0,1-.09-.12C16.47,40.45,16.55,40.22,16.76,40.35ZM16,42.17a1.78,1.78,0,0,1,.1-.7c.18-.7.23-.76.28-.3C16.42,41.48,16.13,42.24,16,42.17ZM90.3,110.23c-.14-.07-.18-.33-.09-.59s.25-.42.39-.34a.2.2,0,0,1,0,.34.45.45,0,0,0-.13.47C90.52,110.27,90.47,110.31,90.3,110.23Zm4.08,1.31c-.17-.1.18-1,.42-1.05s.19.14.16.4C94.9,111.34,94.61,111.67,94.38,111.54Zm.6.22s0-.2.07-.54a1.83,1.83,0,0,1,.45-.88c.21-.19.19,0-.07.56A3.73,3.73,0,0,1,95,111.76Zm3.21-4.94a.62.62,0,0,0-.33.45c0,.21-.1.24-.13.06s-.16-.13-.31.13-.2.48-.11.53,0,.24-.34.55-.57.41-.66.34h0c-.11-.08-.06-.15.13-.17a.26.26,0,0,0,.26-.29,7.51,7.51,0,0,1,2.08-2.58c.08,0,0,.27-.1.49A1.26,1.26,0,0,1,98.19,106.82Zm1-1.94c.18-.19.18-.1,0,.23s-.23.37-.28.37h0s0,0,0,0A1.16,1.16,0,0,1,99.2,104.88Zm.52-.18a.19.19,0,0,1-.11-.11.6.6,0,0,1-.06-.41c0-.06.17-.05.29,0a.29.29,0,0,1,.06.4C99.85,104.7,99.78,104.73,99.72,104.7Zm-1.28,2.85c.17.09.22.2.12.27a.2.2,0,0,1-.17,0,.28.28,0,0,1-.13-.15C98.19,107.52,98.26,107.47,98.44,107.55Zm-.47,1.2s0-.19,0-.37.14-.29.23-.24.08.22,0,.37S98,108.77,98,108.75Zm2.41-3.49a1.11,1.11,0,0,1-.57.2h0a.06.06,0,0,1,0-.07c0-.44.26-.64.64-.53l.39.1v-.84c0-.46.08-.8.16-.75s.13.41.1.81C101,104.89,101,104.92,100.38,105.26Zm3.05-2.88h0s.07-.3.29-.63c.63-.93.89-1,.37-.16A2.51,2.51,0,0,1,103.43,102.38Zm7.86-6.24c-.07,0-.07-.09,0-.21s.25-.27.33-.22.12.15.08.21a.65.65,0,0,1-.33.21A.08.08,0,0,1,111.29,96.14Zm1-1.17c.08,0,.08.21,0,.36s-.24.25-.32.2-.07-.22,0-.37S112.18,94.92,112.26,95Zm.36-.73c.19-.21.4-.33.49-.28s0,.22-.29.4a1.66,1.66,0,0,1-.48.28S112.44,94.44,112.62,94.24Zm-3.79,7.55a1.15,1.15,0,0,0-.43.61,1.1,1.1,0,0,1-.15.33h0s0-.1,0-.3a1.79,1.79,0,0,1,.59-1c.45-.43.45-.46,0-.24s-.44.17-.21-.22.34-.4.44-.35.27-.17.41-.51.33-.55.44-.49,0,.51-.37,1.09A3.4,3.4,0,0,1,108.83,101.79Zm1.59-2.27h0c-.22-.12,0-1,.33-1.19.11-.07.15,0,.09.07a1.36,1.36,0,0,0-.25.91C110.6,99.53,110.55,99.59,110.42,99.52Zm16-21.33a.22.22,0,0,0,0,.31c.09,0,.08.14,0,.21a1.65,1.65,0,0,0-.36.78c-.1.37-.17.52-.24.49h0s0,0-.06-.1a.32.32,0,0,1,.07-.39A.58.58,0,0,0,126,79a1.78,1.78,0,0,1,.4-1c.25-.34.4-.49.33-.32A2.88,2.88,0,0,1,126.44,78.19Zm.91-1.86c-.29.1-.33.16-.22.37a.34.34,0,0,1-.14.42s-.07,0-.09,0h0c-.17,0,0-.75.24-1a.35.35,0,0,1,.38-.06C127.64,76.17,127.58,76.25,127.35,76.33Zm.4-1.27c.17-.29.38-.5.44-.46s0,.25-.13.47a1.18,1.18,0,0,1-.43.47h0C127.54,75.52,127.6,75.32,127.75,75.06ZM129,73.18c.08,0,.07.22,0,.37s-.23.24-.31.19-.08-.21,0-.36S128.9,73.13,129,73.18ZM120.77,86c-.09-.05-.08-.21,0-.36s.23-.24.31-.19.08.21,0,.37S120.85,86.09,120.77,86Zm.89-1.19c-.13.22-.23.36-.27.36h0s0,0,0,0a1,1,0,0,1,.3-.54C121.85,84.43,121.84,84.52,121.66,84.85Zm.84-1.93s0,.19,0,.37-.14.29-.23.24-.08-.21,0-.37S122.46,82.9,122.5,82.92Zm-8.91,15a4.56,4.56,0,0,1-1.32,1.89h0c-.09-.06.07-.35.53-1C113.53,97.68,113.71,97.49,113.59,97.9Zm13.57-24.17c.4-.59.92-1.12.76-.77-.4.87-.76,1.41-1,1.43h0C126.82,74.34,126.91,74.11,127.16,73.73ZM126.23,75s0,.09,0,.17A1.36,1.36,0,0,0,126,76a.36.36,0,0,1-.25.37.21.21,0,0,1-.16,0s0-.08,0-.14.24-.48.37-.76S126.2,74.94,126.23,75Zm-1.68,2.48c.41-.48.6-.19.21.33-.19.25-.5.63-.71.85a1,1,0,0,0-.31.69.71.71,0,0,1-.26.54,4,4,0,0,0-.87,1.08c-.11.18-.23.27-.29.26h0s0,0,0-.07A21,21,0,0,1,124.55,77.44ZM122,81.66c.14,0,.13.11,0,.35s-.32.39-.4.35h0c-.08,0-.08-.21,0-.36A.94.94,0,0,1,122,81.66Zm-7.16,11.41c.08.05.08.21,0,.35a.89.89,0,0,1-.41.34s-.06,0-.07,0,0-.18.08-.36S114.71,93,114.79,93.07Zm15.52-27.58a.11.11,0,0,1-.08,0s0-.16.08-.34c.29-.49.43-.51.33,0A.61.61,0,0,1,130.31,65.49Zm-.36.94c-.1.18-.21.27-.26.24s0,0,0-.07a.9.9,0,0,1,.1-.52c.09-.14.23-.22.31-.17S130.1,66.19,130,66.43Zm1.12-2.57a.17.17,0,0,1,.07.22.68.68,0,0,1-.32.2s-.06,0-.08,0h0c-.07,0-.07-.1,0-.22S131,63.81,131.07,63.86Zm-5.46,8.61h0a4,4,0,0,1,.55-1.18,7.75,7.75,0,0,1,.76-1.21s0,.13,0,.25A11,11,0,0,1,125.61,72.47Zm2-3.59c.18-.19.18-.11,0,.22a1.15,1.15,0,0,1-.28.37h0s0,0,0,0A1.18,1.18,0,0,1,127.56,68.88Zm1.23-3.11a1.67,1.67,0,0,1-.46.66,4,4,0,0,0-.77,1.16,1.92,1.92,0,0,1-.51.79h0a4.83,4.83,0,0,1,.68-1.45C128.52,65.52,128.81,65.2,128.79,65.77Zm-2.23,4c-.22.37-.34.53-.37.5s0-.09,0-.24c.13-.66.47-1.23.66-1.12S126.81,69.35,126.56,69.78Zm1.78-8c.53-.72.71-.82.61-.37,0,.2-.15.31-.24.25s-.2,0-.24.22a.58.58,0,0,1-.3.39h0C128.05,62.31,128.13,62.11,128.34,61.83Zm1.3-5c1-.39,1-.16.2.81-.51.61-.75.77-.85.56s-.15-.21-.21.26-.14.59-.37.66a.3.3,0,0,1-.13,0s0-.08.11-.17a.41.41,0,0,0,.16-.44C128.35,58.14,129,57.07,129.64,56.82Zm-1.1-1.32c.3-.19.3-.15,0,.2-.16.18-.3.29-.36.29h0a0,0,0,0,1,0-.05C128.14,55.83,128.32,55.63,128.54,55.5Zm2-7.13c.28-.17.28-.12,0,.18a1.11,1.11,0,0,0-.32.69c.07.38-.38,1.11-.6,1h0c-.1,0-.09-.15,0-.22a1.64,1.64,0,0,0,.37-.77A1.24,1.24,0,0,1,130.55,48.37Zm-.7-1c-.07.36-.27.54-.37.47h0s-.08-.11-.08-.26.11-.43.28-.49S129.9,47.15,129.85,47.35ZM129,48.69c-.09.16-.2.26-.23.24s0-.19,0-.37.15-.3.24-.24S129.05,48.54,129,48.69Zm1.42-2.58a.57.57,0,0,1-.33.39.12.12,0,0,1-.08,0h0c-.05,0,0-.18.09-.36C130.35,45.66,130.48,45.64,130.38,46.11Zm0-3.74a.47.47,0,0,1-.48.09c-.12-.07-.11-.23,0-.36a.47.47,0,0,1,.48-.09C130.53,42.09,130.52,42.24,130.38,42.37Zm-.45-1.07c.72-.38.69-.37.68-.09s-1.16,1-1.36.86h0C129,41.93,129.25,41.66,129.93,41.3Zm-1-1.39c.16.24.26.23.32,0s.13-.35.2-.31a1.48,1.48,0,0,1,0,.79c-.14.63-.18.68-.3.4s-.21-.18-.3,0-.11.12-.15.09h0c-.05,0-.09-.13-.13-.28C128.39,39.89,128.65,39.48,128.94,39.91Zm-1.54.19c.65-.33.94-.25.68.19a4.15,4.15,0,0,1-.87.82c-.33.25-.5.36-.57.35h0c-.07,0,0-.15,0-.44A1.21,1.21,0,0,1,127.4,40.1Zm.14-3.35c.13,0,.2.08.16.26s-.18.27-.31.2h0C127.13,37.05,127.19,36.87,127.54,36.75Zm-4.26-4.88c-.17.18-.31.28-.36.27h0a0,0,0,0,1,0,0c0-.12.18-.32.4-.45S123.59,31.52,123.28,31.87Zm2.28-4.79c.11.06.18.14.17.18-.27.69-.59,1.12-.7,1s0-.17,0-.42.15-.28.26-.22.18,0,.14-.29S125.44,27,125.56,27.08ZM123,25.54a2.47,2.47,0,0,1-.28.77c-.19.41-.4.72-.48.68s.07-.4.29-.79A2.92,2.92,0,0,1,123,25.54ZM121,27c.07,0,.1.23.06.41s-.06.16-.11.14-.06-.05-.09-.11C120.72,27.12,120.79,26.89,121,27Zm1-6.17c.08,0,.08.21,0,.37s-.19.26-.23.23,0-.18,0-.37S122,20.79,122,20.85Zm-1.71,2.68c0,.14-.19.2-.37.12l-.06,0h0a.18.18,0,0,1,0-.31C120.18,23.06,120.41,23.17,120.33,23.53Zm-1.07,1.68c-.08.14-.21.23-.29.22l0,0a.15.15,0,0,1-.08-.2.65.65,0,0,1,.33-.21C119.33,25,119.36,25.05,119.26,25.21Zm2-4.08c.09.06.09.22,0,.38s-.19.26-.23.24,0-.19,0-.38S121.17,21.08,121.26,21.13Zm-1.69-2.69c.18-.2.38-.34.44-.3s0,.25-.14.48-.33.37-.44.3S119.37,18.65,119.57,18.44Zm-1.14,1a.31.31,0,0,1,.15.43.17.17,0,0,1-.22.07h0a.34.34,0,0,1-.14-.13c-.12-.18-.19-.38-.15-.43S118.27,19.36,118.43,19.46Zm-3.35-6.89c.52-.12.52-.11,0,.22a.79.79,0,0,1-.51.19h0s0,0,0-.06S114.78,12.64,115.08,12.57ZM113,15.09c.08.05.12.15.08.21a.65.65,0,0,1-.33.21.12.12,0,0,1-.08,0c-.06,0-.06-.09,0-.22S112.87,15,113,15.09Zm-2-6c0,.17-.14.27-.22.22s-.23.13-.32.39-.14.31-.2.3h0a.35.35,0,0,1-.07-.09.86.86,0,0,1,.11-.68C110.56,8.7,111.09,8.6,111,9.05Zm-7.07-.71a9.61,9.61,0,0,0,1-.74c.46-.37.47-.36.17.2-.18.32-.39.55-.47.5s-.18,0-.21.21a.49.49,0,0,1-.4.33.77.77,0,0,1-.46-.05C103.47,8.71,103.58,8.55,103.92,8.34Zm0,1.06c-.16.09-.3.13-.36.09s0,0,0-.06.18-.22.38-.24S104.19,9.21,103.88,9.4Zm-.15-4.07c.39-.43.55-.45.31,0a.81.81,0,0,1-.4.34s-.06,0-.07,0h0S103.59,5.49,103.73,5.33Zm-1.25,2.18c.19,0,.29-.16.32-.44.07-.57.64-1.07.59-.52s-.68,1.37-1,1.17h0C102.28,7.61,102.3,7.53,102.48,7.51Zm0,.78c-.11.19-.29.24-.39.17a.18.18,0,0,1-.08-.22c0-.19.18-.28.31-.2S102.5,8.23,102.46,8.29ZM84.31,0c.29-.25.71,0,.52.28s-.37.42-.51.34h0a.36.36,0,0,1-.13-.14A.46.46,0,0,1,84.31,0ZM76.77-.34C77-.59,77-.57,77-.23a1,1,0,0,1-.28.53c-.06,0-.1,0-.13,0S76.51,0,76.77-.34ZM65.42.11c.22-.26.25-.24.18.1h0a.91.91,0,0,1-.28.53.13.13,0,0,1-.12,0h0C65.07.76,65.17.4,65.42.11Zm.29-2.56c.18-.24.33-.28.36-.09a.73.73,0,0,1-.32.64c-.16.15-.28.19-.32.15S65.44-2.09,65.71-2.45ZM63.77.14c.09-.05.16,0,.16.15a1.42,1.42,0,0,1-.19.53q-.08.14-.12.09s0-.11,0-.24A.78.78,0,0,1,63.77.14Zm-1-.26c0,.13.19.15.43,0s.39-.17,0,.16c-.22.16-.4.2-.49.14h0c-.1,0-.11-.2,0-.41S62.83-.25,62.82-.12Zm-2.2-1.5c.18-.2.17-.1,0,.23s-.22.35-.27.36h0s0,0,0-.05A1.13,1.13,0,0,1,60.62-1.62ZM58.86,1.56c.07.05,0,.33-.21.63s-.41.52-.48.48,0-.33.22-.64S58.78,1.51,58.86,1.56ZM59.13-2c.23-.28.43-.49.47-.47a1.69,1.69,0,0,1-.27.59c-.18.3-.4.52-.47.48S58.91-1.77,59.13-2Zm-2,2.59A1.07,1.07,0,0,1,57,1c-.09.26-.22.44-.3.39s0-.28.1-.51S57.1.52,57.13.54Zm-.8,1.22c.14-.05.18,0,.09.2a1,1,0,0,1-.42.36s-.09,0-.11,0,0-.1,0-.2A.94.94,0,0,1,56.33,1.76Zm-1-.39a.16.16,0,0,1,.07.21.66.66,0,0,1-.32.21s-.07,0-.09,0-.06-.1,0-.22S55.27,1.32,55.36,1.37ZM55.3.07c.55-.4.87-.3.49.15a.73.73,0,0,1-.61.24.53.53,0,0,1-.17,0h0C54.91.37,55,.28,55.3.07Zm-2.11,3.6c.13,0,.17.05.07.21s-.24.26-.32.21h0a.15.15,0,0,1-.08-.21A.65.65,0,0,1,53.19,3.67ZM54,.22c.08,0,.08.2,0,.35s-.23.25-.32.2-.07-.22,0-.37S53.94.17,54,.22ZM53.38,1c.08,0,.08.2,0,.35s-.24.25-.32.2-.07-.22,0-.37S53.3.92,53.38,1ZM50.93,3.9c.16,0,.17.13,0,.35s-.39.48-.47.48h0s0-.15,0-.34S50.77,3.91,50.93,3.9Zm-1.4,1.19c.08,0,.07.22,0,.37s-.23.24-.31.19-.08-.22,0-.37S49.45,5,49.53,5.09ZM52.08-.58c.46-.16.64-.08.49.21-.06.12-.22.45-.35.74a1.31,1.31,0,0,1-.47.59.11.11,0,0,1-.08,0h0s0-.12.1-.26.17-.38.08-.44A.5.5,0,0,1,52.08-.58ZM50.26-.1c.23-.19.31-.15.33.14s.12.34.41.14a.94.94,0,0,0,.39-.52c0-.14,0-.22.09-.2a1.82,1.82,0,0,1,0,.7c0,.55-.22,1.06-.29,1h0s0-.12,0-.28c0-.31-.12-.39-.47-.29s-.45,0-.35-.24,0-.31-.14-.26S50.08.07,50.26-.1ZM46,6.37c.08,0,0,.22-.27.37s-.38.2-.41.17h0s0,0,0,0C45.27,6.68,45.81,6.28,46,6.37ZM44.09,9a.58.58,0,0,1-.32.39s-.07,0-.08,0,0-.17.08-.35C44.06,8.54,44.19,8.53,44.09,9ZM43,9.31c.13-.05.18,0,.08.19a1,1,0,0,1-.41.37.2.2,0,0,1-.11,0h0s0-.1,0-.19A.92.92,0,0,1,43,9.31ZM42.31,7.2a1.27,1.27,0,0,1-.1.51c-.09.26-.23.43-.31.38s0-.27.1-.5S42.27,7.18,42.31,7.2Zm-.15-1.59c.08,0,.08.21,0,.36s-.24.25-.32.2-.07-.22,0-.37S42.08,5.56,42.16,5.61Zm-.58,1.33a.81.81,0,0,1-.33.21h-.08c-.06,0-.06-.1,0-.22s.24-.27.32-.22A.17.17,0,0,1,41.58,6.94Zm2.09-4.56a.16.16,0,0,1,.08.21.72.72,0,0,1-.33.21.13.13,0,0,1-.11,0s0-.11,0-.21S43.59,2.33,43.67,2.38ZM39.61,9.22h0c0-.06.1-.43.39-.91.54-.91,1-1.38.55-.55-.11.19-.31.58-.44.87A1.42,1.42,0,0,1,39.61,9.22Zm-2.28.13h-.08s0-.17.08-.35c.29-.49.43-.51.33-.05A.59.59,0,0,1,37.33,9.35Zm1-1.89c.06,0,0,.2,0,.34a.82.82,0,0,1-.37.33h-.06s0-.17.1-.34S38.21,7.42,38.28,7.46ZM20,38a1.88,1.88,0,0,1-.35.24h0s.09-.13.28-.35.33-.45.12-.38-.22,0-.13-.17c.22-.36.76.07.66.51-.05.19-.09.22-.09.07S20.29,37.84,20,38Zm-4.37,8.82c-.13-.08-.13-.25,0-.37s.19-.27.1-.32-.08-.22,0-.37.22-.12.31.06.16.2.13-.31c0-.35.05-.58.16-.52s.27,0,.37-.19.06-.26-.08-.21-.19,0-.11-.15.94-.95.85-.73l-.27.59C16,46.82,15.9,47,15.65,46.86ZM20,39.64c.08,0,0,.27-.1.5s-.28.41-.31.39a1.19,1.19,0,0,1,.11-.51C19.81,39.76,19.94,39.59,20,39.64Zm-.36,1.53a.2.2,0,0,1-.17,0,.32.32,0,0,1-.13-.15c-.07-.16,0-.21.2-.12S19.77,41.1,19.66,41.17ZM17.85,51.35c-.22.31-.37.47-.43.47h0s0-.19.16-.46.36-.52.43-.48S18,51.13,17.85,51.35Zm.32-.74c-.09,0-.08-.22,0-.38s.2-.25.23-.23,0,.18,0,.37S18.26,50.66,18.17,50.61ZM16.25,64.92c-.11.1-.19.14-.24.13h0c-.05,0-.06-.11-.06-.26a.73.73,0,0,1,.41-.63c.32-.19.31-.15,0,.23s-.34.44-.09.36S16.47,64.73,16.25,64.92Zm.67-1.11c-.06,0-.11-.13-.21-.34s.07-.85.31-.71c.08.05.07.22,0,.38s-.06.26.07.21.18,0,.08.21S17,63.82,16.92,63.81Zm.75-2a1.84,1.84,0,0,1-.37.7c-.06,0-.09,0-.12,0h0c-.11,0,0-.44.33-.84S17.86,61.21,17.67,61.77Zm0,1.91h-.06c-.05,0,0-.17.08-.34.28-.47.36-.49.26-.05A.53.53,0,0,1,17.72,63.68Zm.83,8.87c-.13.14-.25.2-.31.17h0a.08.08,0,0,1,0,0c-.06-.33,0-.43.38-.46S18.77,72.31,18.55,72.55Zm.19-.75-.07,0h0c-.13-.06-.08-.27.15-.66s.49-.6.63-.52.08.38-.1.68S18.9,71.81,18.74,71.8Zm.35,2.33h0c-.05,0,0-.2.18-.62a1.42,1.42,0,0,1,.48-.68c.12,0,0,.25-.2.64A2.34,2.34,0,0,1,19.09,74.13ZM20.31,72a.19.19,0,0,1-.11,0h0c-.08,0-.07-.18,0-.37s.34-.35.47-.28a.28.28,0,0,1,.08.38A.68.68,0,0,1,20.31,72Zm-2.4,5.61h0s0-.12,0-.36c0-.51,0-.79.14-.71a1.91,1.91,0,0,1,0,.63A2.82,2.82,0,0,1,17.91,77.62Zm.81.72h0a.47.47,0,0,1-.11-.1.34.34,0,0,1-.08-.42c.3-.4.42-.35.36.14C18.86,78.28,18.82,78.38,18.72,78.34Zm.32.88c-.25.19-.38.28-.41.27s.06-.11.24-.31a5.8,5.8,0,0,0,.54-.71c.09-.14.23-.21.31-.16s.09.18,0,.29A3.66,3.66,0,0,1,19,79.22Zm1-2.21a1.88,1.88,0,0,0,.54-.45c.3-.32.31-.32.11.07s-.33.65-.46.93-.16.32-.2.32h0c-.05,0-.08-.1-.11-.3S19.94,77.05,20.06,77Zm1.66-.73a.12.12,0,0,1-.08,0h0c-.07,0-.07-.09,0-.21s.24-.26.32-.21a.16.16,0,0,1,.08.21A.61.61,0,0,1,21.72,76.28Zm.17,5.57c-.07,0,0-.26.12-.49.28-.47.31-.49.29-.15S22,81.94,21.89,81.85ZM23.39,80c-.23.32-.36.48-.41.49s0,0,0,0h0s0-.15.1-.4c.31-.91.42-1.06.64-.93S23.76,79.5,23.39,80Zm-.55,1.81c-.2.13-.37.21-.41.18h0s0,0,0,0c0-.21.54-.6.7-.51S23.07,81.65,22.84,81.81Zm-2.08,4.28a.17.17,0,0,1-.08-.22.72.72,0,0,1,.33-.21c.14,0,.17,0,.07.22S20.84,86.14,20.76,86.09Zm2.77-2.52c.11.07.09.4-.05.73s-.18.41-.23.41h0a.55.55,0,0,1-.1-.25C23,83.92,23.23,83.4,23.53,83.57Zm.45-.48a.47.47,0,0,1,.18.48c-.05.21-.12.29-.19.25s-.14-.21-.18-.47S23.76,83,24,83.09Zm-1.06,2.6-.09,0h0a.37.37,0,0,1-.19-.49c.11-.3.23-.32.43-.08s.36.22.46,0c.23-.38.5-.27.41.16S23.49,85.81,22.92,85.69Zm1.27-1.55c.14-.22.3-.37.37-.33s.06.19,0,.33a.85.85,0,0,1-.37.34H24.1S24.09,84.31,24.19,84.14Zm1.64.11c-.2.23-.46.33-.58.28h0c-.06,0-.08-.11,0-.25a.68.68,0,0,1,.5-.29C26,84,26,84.07,25.83,84.25Zm-.08,5c-.27.33-.42.5-.46.49h0a4.36,4.36,0,0,1,.47-1c.35-.69.77-1,.66-.51A4.29,4.29,0,0,1,25.75,89.25Zm.94,1.23a3.85,3.85,0,0,0-.62.78c-.18.3-.43.54-.56.54h-.05c-.08-.06.07-.32.51-.89.56-.73.66-1,.52-1.17s-.12-.24.06-.15a.81.81,0,0,1,.33.38A.54.54,0,0,1,26.69,90.48Zm.89-3c.11-.18.21-.22.23-.08s.22,0,.42-.21.32-.36,0,.07-.63.6-.73.52S27.48,87.66,27.58,87.5Zm.61,1.1,0,0c-.08,0-.08-.22,0-.37s.2-.26.23-.24,0,.19,0,.37S28.27,88.61,28.19,88.6Zm.44,2.07a6.09,6.09,0,0,0-.46.61c-.09.15-.25.12-.36-.08s-.27-.23-.42,0-.12.2-.14.17,0-.12,0-.3c.13-.66.31-1,.5-.84s0,.21-.13.36-.19.22,0,.17a2.17,2.17,0,0,0,.63-.82,4.57,4.57,0,0,1,.38-.68s.07.28.15.56A1,1,0,0,1,28.63,90.67Zm.42,2.2a.62.62,0,0,1-.26-.72c.09-.28,0-.46-.2-.46s-.31,0,0-.15.37-.2.2-.31-.13-.17,0-.24.24.23.3.65.15.59.2.37a.72.72,0,0,1,.34-.49c.14,0,.11.18-.08.5s-.28.61-.2.66.23-.05.33-.21.19-.18.22,0C30,92.89,29.5,93.14,29.05,92.87Zm1.27.57a.14.14,0,0,1-.09,0h0c-.06,0-.06-.09,0-.22s.24-.25.32-.2a.15.15,0,0,1,.08.21A.68.68,0,0,1,30.32,93.44Zm.37.61h0c-.05,0,0-.15.26-.42.51-.64.95-.83.62-.27a1.73,1.73,0,0,1-.64.59A.52.52,0,0,1,30.69,94.05Zm-.25,2a.46.46,0,0,0-.4.33.45.45,0,0,1-.39.33h-.12c-.09,0-.06-.1.07-.22a.68.68,0,0,0,.22-.6c-.05-.29,0-.34.2-.22s.52-.08.85-.34c.6-.49.6-.48.25.11A1.26,1.26,0,0,1,30.44,96.1Zm1.43-1.57,0,0c-.05-.05-.07-.16,0-.34a.46.46,0,0,1,.39-.33c.19,0,.22.14.07.39S32,94.57,31.87,94.53Zm.37,1.66h0s0,0,0,0a1.05,1.05,0,0,1,.31-.54c.17-.2.17-.11,0,.22S32.28,96.19,32.24,96.19Zm1.49.51-.47.64a.24.24,0,0,1-.29.11c-.09,0,0-.2.1-.32a.47.47,0,0,0,.14-.5c-.15-.35.51-1.44.88-1.45.21,0,.15.15-.21.57s-.41.56-.15.54S34,96.4,33.73,96.7Zm.73,1.23c-.23-.12-.35-.34-.26-.49.2-.33.31-.26.52.3C34.86,98.11,34.83,98.13,34.46,97.93Zm11,8.43a.17.17,0,0,1-.07-.22.74.74,0,0,1,.32-.21c.14,0,.18,0,.08.21S45.54,106.4,45.45,106.36Zm4.25,4.39c-.08,0-.07-.21,0-.35a1,1,0,0,1,.41-.35c.14,0,.14.11,0,.35S49.79,110.8,49.7,110.75Zm1.59-2.56c.16-.16.09,0-.14.41a1.34,1.34,0,0,1-.29.4h0s0,0,0-.1A2.47,2.47,0,0,1,51.29,108.19Zm4,2.5a.85.85,0,0,0-.51.11c-.13.06-.2.09-.23.06s0-.08.05-.19.26-.27.34-.22.29-.16.48-.47c.33-.56.75-.64.48-.1C55.53,110.63,55.43,110.75,55.28,110.69Zm1.38-2c-.17.24-.38.43-.47.4h0s0-.06.06-.08a1,1,0,0,0,.33-.5c.08-.25.22-.41.3-.36S56.84,108.48,56.66,108.73ZM57,111.1a.45.45,0,0,1-.49.18c-.12-.06-.16-.23,0-.45a.42.42,0,0,1,.5-.18C57.21,110.74,57.21,110.9,57,111.1Zm1.59-1.86c.06,0,0,.32-.2.64s-.25.39-.32.39h0s0,0,0,0C58,109.92,58.46,109.14,58.63,109.24Zm-1,2.45a1.13,1.13,0,0,1-.08-.63c.12-.21.17-.11.2.53a1.33,1.33,0,0,1,0,.45A1.38,1.38,0,0,1,57.67,111.69Zm1.51-2.31-.08,0c-.07,0-.06-.11,0-.23s.24-.25.32-.21a.17.17,0,0,1,.08.22A.72.72,0,0,1,59.18,109.38Zm3.12,4.28,0,0s0,0,0,0h0a2.54,2.54,0,0,1,.34-.78c.66-1.15.83-1.27.35-.22A3.61,3.61,0,0,1,62.3,113.66Zm2,1h0s0-.24.14-.53c.3-.72.46-.76.22-.06A1.45,1.45,0,0,1,64.27,114.68Zm2.86-3.26c-.11.55-.26.85-.43.91s-.16,0-.2,0h0c-.12-.09,0-.44.34-1.06C67.33,110.41,67.33,110.41,67.13,111.42Zm-.84,1.22c.07,0-.13.43-.44.87a4.07,4.07,0,0,1-.61.77,3.17,3.17,0,0,1,.43-.87C66,113,66.23,112.6,66.29,112.64Zm-1.77,3.2h-.06c-.22,0,.4-1.08.84-1.34s.37-.13.27.36S65.26,115.63,64.52,115.84Zm2-1.34a.19.19,0,0,1-.11-.12,1.33,1.33,0,0,0-.32-.48.29.29,0,0,1,0-.39c.08-.14.21-.11.29.07a.25.25,0,0,0,.42.08c.15-.13.26-.12.25,0C67,114.12,66.66,114.55,66.47,114.5Zm1.51-.89h0c-.06,0-.11-.17-.15-.43s-.2-.32-.38-.23-.26,0-.19-.4.2-.54.7-.26.51.47.34.87S68.06,113.65,68,113.61Zm.75-2.17a.47.47,0,0,1,.14.47c0,.19-.17.28-.29.2a.46.46,0,0,1-.16-.46C68.46,111.46,68.6,111.37,68.73,111.44Zm1.56,2.49a.17.17,0,0,1-.18,0h0a.49.49,0,0,1-.15-.64c.13-.22.57,0,.55.24A.61.61,0,0,1,70.29,113.93Zm2,.79c-.08-.06-.2.09-.26.31s0,.22-.07.23h0s0-.06,0-.18c0-.56.68-2,.87-1.94s0,.27-.18.47-.24.41-.09.5a.3.3,0,0,1,.07.42C72.57,114.68,72.43,114.77,72.34,114.72Zm1.7-3.27c-.06-.16,0-.23.07-.18s.17.29.13.55a.93.93,0,0,1-.26.6c-.12.07-.13.18,0,.24s.07.2-.07.33-.32.18-.4.13,0-.19.1-.31.15-.28,0-.36a.3.3,0,0,1-.06-.43c.09-.16.19-.18.22,0s.12.13.21,0A.64.64,0,0,0,74,111.45Zm-.77,2.68a.47.47,0,0,1-.18-.48c.09-.42.29-.3.37.22C73.52,114.22,73.49,114.26,73.27,114.13ZM74.9,112s0,0,0-.07c-.06-.34.6-1.79.77-1.69s.07.18,0,.29-.26.54-.43.94S75,112,74.9,112Zm2.47-.75c-.18-.12-.2-.23-.05-.25a.44.44,0,0,0,.34-.34c.08-.35.35-.28.33.09S77.69,111.48,77.37,111.26Zm.18.73a.17.17,0,0,1-.17,0,.24.24,0,0,1-.14-.14c-.06-.16,0-.21.19-.12S77.65,111.92,77.55,112Zm-.6,1.94c-.12-.07-.12-.3,0-.51s.25-.35.28-.33a1.22,1.22,0,0,1,0,.5C77.19,114,77.12,114,77,113.93Zm.73-.61c-.28-.12-.11-.68.24-.8.17-.06.18,0,0,.14a.46.46,0,0,0-.17.49C77.84,113.33,77.81,113.38,77.68,113.32Zm3-.56h0c-.11,0-.14-.31-.07-.72a1.73,1.73,0,0,1,.32-.93,1.62,1.62,0,0,0,.51-.43q.31-.37.24,0a2.27,2.27,0,0,1-.46.79,1,1,0,0,0-.31.77A.53.53,0,0,1,80.7,112.76Zm1.2-1.84h0s0-.13.16-.33a.94.94,0,0,1,.68-.47.47.47,0,0,0,.47-.3c0-.17.18-.25.3-.18s.12.32,0,.55-.32.4-.42.37l-.35-.11c-.09,0-.34.09-.56.28S81.92,110.94,81.9,110.92ZM79.84,115a.17.17,0,0,1-.08-.22.81.81,0,0,1,.33-.2c.14,0,.17,0,.08.22S79.93,115.06,79.84,115Zm2.06-2.85c.18,0,.25-.17.22-.56s0-.53.14-.19.2.24.26,0c.09-.43.21-.47.19-.08a3.06,3.06,0,0,1-.39.89c-.19.32-.31.46-.4.45h0s0,0,0,0a.25.25,0,0,1-.1-.12C81.69,112.28,81.73,112.17,81.9,112.16Zm-1.44,3.32c-.17.18-.3.29-.36.28h0a0,0,0,0,1,0,0,.87.87,0,0,1,.41-.45C80.78,115.08,80.78,115.13,80.46,115.48Zm1.05-1.37s0-.25.1-.51.22-.43.3-.38,0,.27-.1.5S81.54,114.13,81.51,114.11Zm0,.73c-.07,0,0-.16.13-.28.34-.3,1.21-.52,1.07-.28A2,2,0,0,1,81.49,114.84Zm1-1.25c.09-.17.24-.26.33-.21a.16.16,0,0,1,.07.21.72.72,0,0,1-.33.21h-.08C82.43,113.79,82.42,113.71,82.5,113.59Zm1-.17s0-.25.1-.51.22-.42.3-.37,0,.26-.09.49S83.56,113.44,83.53,113.42Zm7.32-5.64c.21-.24.21-.36,0-.34s-.14-.06-.14-.18l-.74.24-.06.09c-.48.65-.83,1-1,1h0s0-.11,0-.23a2.19,2.19,0,0,1,.31-.61c-.44.14-.88.27-1.33.39q0,.12-.09.27c-.48,1.29,0,1.84.6.66.06-.12.18-.18.26-.13s0,.26-.09.49a1.25,1.25,0,0,1-.48.49,1,1,0,0,0-.44.38c-.11.19,0,.22.26.08s.4,0,.06.46c-.06.09,0,.22.15.27s.15.34,0,.62-.27.4-.29.27-.17,0-.31.21-.17.48-.07.55.06.16-.2.25a.8.8,0,0,1-.53,0h0c-.08,0,0-.14.19-.21s.33-.21.29-.41a.22.22,0,0,0-.29-.2c-.23.08,0-1,.25-1.43s.53-1,.31-.88-.25-1.38.08-1.67c0,0,0,0,0,0-.37.11-.75.2-1.13.3a3.89,3.89,0,0,1,0,.42c0,.43-.11.51-.3.39h0c-.14-.08-.13-.33,0-.56l.13-.2c-.81.2-1.63.38-2.45.54,0,.15-.14.23-.25.2h0l0,0-.12-.09c-1.36.26-2.74.47-4.12.63,0,.06,0,.24-.2.42s-.36.36-.39.34,0-.23.19-.46a.88.88,0,0,1,.25-.28c-1.67.18-3.34.29-5,.32,0,.06,0,.17-.14.27s-.32.19-.41.14,0-.2.12-.32a.6.6,0,0,1,.13-.09c-1.23,0-2.46,0-3.7-.08a.21.21,0,0,1-.15,0l-.07,0h0L68.7,110c-.26.25-.5.32-.53.17s-.18-.15-.35,0-.14.1-.18.09h0c-.06,0-.08-.13-.06-.35l-1.14-.13a.62.62,0,0,1-.09.12,7,7,0,0,0-.47.74c-.11.2-.18.3-.22.31h0s0-.09,0-.28.11-.5.23-.54a1.06,1.06,0,0,0,.34-.39,53.62,53.62,0,0,1-10.26-2.35c-.1.11-.2.17-.25.14s-.08-.13,0-.24c-1-.33-2-.69-2.91-1.09a1.76,1.76,0,0,1-.4.5.62.62,0,0,1-.21.14h0s0-.14.2-.45l.18-.28c-.53-.22-1.06-.44-1.58-.68a.8.8,0,0,0-.42.72c0,.26,0,.45.15.42s.11.07,0,.22-.35.39-.46.34h0c-.08,0-.11-.18,0-.41.14-.41.11-.46-.18-.23s-.29.2,0-.11a1.68,1.68,0,0,0,.36-.83c0-.22,0-.32.1-.34l-.63-.29c-.11.06-.2,0-.22-.07a.08.08,0,0,1,0,0l-.12-.06a3.27,3.27,0,0,0-.1.91,1.4,1.4,0,0,1-.23.89c-.11.07-.12,0,0-.2s.09-.39,0-.46a.19.19,0,0,0-.3.15c-.06.27-.46.33-.68.19A.27.27,0,0,1,48,106a1.33,1.33,0,0,1,.64-1c.16-.09.16,0,0,.11a.53.53,0,0,0-.17.54c.15.32.52-.54.48-1.11v0l-.59-.3a.71.71,0,0,1-.37.16,2.94,2.94,0,0,0-.91.29,1.28,1.28,0,0,1-.39.17c-.05,0,.06-.16.3-.47a2.71,2.71,0,0,0,.39-.67c-.65-.35-1.29-.71-1.93-1.09l-.24-.14c0,.09-.09.18-.14.27s-.17.27-.18.24a1,1,0,0,1,.06-.4l.06-.23c-.6-.36-1.18-.73-1.76-1.11-.12.2-.18.36-.13.38s-.07.36-.3.72-.43.58-.45.47-.1-.09-.18,0a.38.38,0,0,1-.47.1.2.2,0,0,1-.08-.35.45.45,0,0,1,.49-.06c.22.12.25.09.19-.25s0-.38.25-.25.28.07.24-.17,0-.4.31-.71a55.48,55.48,0,0,1-7.36-5.83,2.83,2.83,0,0,1-.07.36c-.09.42-.23.69-.39.74a.58.58,0,0,0-.32.4c0,.17,0,.28.16.24s.16.06.06.22-.23.26-.3.2-.11-.23-.08-.5a8.86,8.86,0,0,1,.82-1.77c-1.29-1.23-2.52-2.51-3.67-3.84l-.18.4a5,5,0,0,1-.61,1.22h0a2.78,2.78,0,0,1,.3-.84,3.6,3.6,0,0,0,.31-1l-.4-.47c-.06.09-.14.14-.22.09s-.18,0-.13.25a.37.37,0,0,1-.19.45.17.17,0,0,1-.1,0c-.16-.08.09-.71.45-1-.29-.35-.57-.69-.85-1l-.19.14c-.31.22-.49.32-.55.28s0-.35.33-.9v0l-.4-.53c-.27.38-.51.61-.69.61s-.08,0-.1,0,0-.19.26-.43l.35-.4c-.62-.83-1.21-1.68-1.77-2.54,0,0-.05,0-.07,0s0-.08,0-.17c-.39-.6-.77-1.21-1.14-1.82-.22.17-.45.29-.54.24s.07-.34.28-.69c-.5-.86-1-1.74-1.44-2.62l-.12.06c-.21.12-.34.17-.42.15a.06.06,0,0,1-.05,0s0-.11,0-.23.11-.29.15-.11.16.08.35,0c-.34-.67-.67-1.36-1-2.05a3.08,3.08,0,0,0-.41,1c0,.22-.05.34-.07.34h0s0-.12,0-.36,0-.6.13-.65a1.57,1.57,0,0,0,.26-.59c-.51-1.12-1-2.26-1.4-3.41a3.55,3.55,0,0,1-.31.52c-.07.11-.07.25,0,.3s0,.2-.1.32-.33.2-.41.14h0c-.14-.09-.13-.43.13-.86a2.93,2.93,0,0,1,.57-.7,55,55,0,0,1-3.14-14.4c-.07.06-.13.09-.17.07s0-.26.14-.55a53.73,53.73,0,0,1,.46-11.94c-.13.05-.21.07-.23.05s0-.09.07-.22.19-.41.29-.67a54.47,54.47,0,0,1,3.2-11.4,3,3,0,0,0-.28.41c-.36.6-.6.82-.88.8a.45.45,0,0,1-.19,0h0c-.11-.08,0-.27.41-.82a3.84,3.84,0,0,1,1.13-1.08l.14-.08A55.27,55.27,0,0,1,35.36,16.1a1.31,1.31,0,0,1,.61-.58A54.54,54.54,0,0,1,52.24,5.06c.07-.07.1-.09.1,0A54.79,54.79,0,0,1,74.15.88c.08-.21,0-.29-.09-.28s-.19-.12.38-.82l.74-.91c.11-.19.46.22.41.47A16,16,0,0,1,74.88.89L76.23,1c.12-.15.22-.2.29-.12s1.08-1,1.56-2.13.59-1.17.45-.54a13.8,13.8,0,0,1-1,2L77.11,1A55.85,55.85,0,0,1,83,1.74c.52-.79.85-.92.46-.06l-.07.13c1.45.28,2.89.61,4.33,1A31.42,31.42,0,0,1,89.45.1a4,4,0,0,0,.14.55c.17.56-.17,1.38-.38.91-.07-.17-.2-.19-.29-.07A16,16,0,0,0,88,2.91l.54.15L88.62,3c.57-.71.68-.55.23.18A54.91,54.91,0,0,1,96.36,6a1.42,1.42,0,0,1,.52-.61c.13,0,0,.23-.19.59l-.09.13c1.5.71,3,1.5,4.43,2.36l.26.16c.2-.17.25-.3.18-.45a.29.29,0,0,1,0-.36c.09-.06.18.23.2.64a2.72,2.72,0,0,1,0,.42,54.65,54.65,0,0,1,9.75,7.58,15.5,15.5,0,0,1,1.24-1.92c.44-.52.43-.48-.07.24-.34.47-.56.9-.49.94s0,.41-.2.81l-.14.27a54.59,54.59,0,0,1,9.44,12.63h0a.11.11,0,0,1,0,.09,55.3,55.3,0,0,1,3.51,8,1.16,1.16,0,0,1,.15-.23s0,.21,0,.46c0,.05,0,.1,0,.15a54.72,54.72,0,0,1,2.4,25.27,3.07,3.07,0,0,1-.12.83c-.13.81-.27,1.62-.44,2.43a1.1,1.1,0,0,1,0,.18l0,.08a54.65,54.65,0,0,1-2.58,8.69c.16-.09.13,0-.09.22a54.61,54.61,0,0,1-3.81,7.76,55.27,55.27,0,0,1-4.34,6.3,5.13,5.13,0,0,1,0,.53c-.07.75-.27,1.39-.39,1.35s0-.05-.06-.14a5.32,5.32,0,0,1,.14-1.31,54.69,54.69,0,0,1-8.39,8.28c-.09.1-.14.15-.15.12a54.46,54.46,0,0,1-6.4,4.33.25.25,0,0,1,0,.07,1.88,1.88,0,0,1-.47.72c-.12.11-.2.16-.23.14h0s0-.13.06-.3a1.67,1.67,0,0,1,.18-.35,54.45,54.45,0,0,1-8.85,4c.11.22.25.37.32.35.24-.07-.6,1.33-.85,1.41l0,0h0s0-.16.21-.35.29-.42,0-.39S90.61,108,90.85,107.78Zm-2.68,1c-.16.27-.28.4-.33.39h0l0,0a.6.6,0,0,1,0-.32.61.61,0,0,1,.33-.4C88.31,108.39,88.31,108.54,88.17,108.78Z"/>
        <path class="cls-3" d="M19.72,57.72c0-1.19-.06-2.38,0-3.58a1.09,1.09,0,0,1-.08.15c-.22.36-.4.57-.46.51h0a0,0,0,0,0,0,0c0,1.21,0,2.43.08,3.64A6.07,6.07,0,0,1,19.72,57.72Z"/>
        <path class="cls-3" d="M31.32,98.67a3.53,3.53,0,0,1,.2-.66c.05-.12.14-.3.18-.39s0-.13-.18-.08-.3.4-.38.89c0,.12,0,.22,0,.31l.19,0A.64.64,0,0,0,31.32,98.67Z"/>
        <path class="cls-3" d="M122.13,37l-1.34-3.26a.38.38,0,0,0-.09.38.32.32,0,0,1-.08.38.11.11,0,0,1-.08,0h0c-.06,0-.09-.18-.07-.38s.1-.47.24-.56l-1.34-3.27-9.23,3.79a1.14,1.14,0,0,1-.09.26c-.28.47-.49.39-.39-.06l-.87.36c0,.06-.09.08-.18.07l-.21.09,1.45,3.52.39-.16a1.43,1.43,0,0,1,.28-.43c.18-.19.18-.11,0,.22l-.08.13.72-.3a.58.58,0,0,1-.06-.58c.2-.58.23-.56.29.16a1.87,1.87,0,0,1,0,.32l2.45-1,.54,1.3-3.2,3.59,1.19,2.91a4.28,4.28,0,0,0,.17-.43c.31-.9.36-.9.41,0a1.37,1.37,0,0,1-.32,1l.17.43,3.43-4.13c.22-.44.47-.69.64-.59s-.07.27-.28.6a3.36,3.36,0,0,0,3.68.67C122.07,41.33,123.13,39.42,122.13,37Zm-10.6-3.12c.08,0,.07.21,0,.36s-.22.24-.31.19-.08-.21,0-.36S111.45,33.81,111.53,33.86Zm-1.82,1.37a.15.15,0,0,1-.07,0s0-.14.17-.3c.38-.42.54-.45.31,0A1,1,0,0,1,109.71,35.23Zm.92,0a.26.26,0,0,1-.09-.36.28.28,0,0,1,.37-.11.29.29,0,0,1,.08.38A.27.27,0,0,1,110.63,35.2Zm2-.68c-.13-.08-.08-.28.12-.5s.35-.36.37-.34a1.15,1.15,0,0,1-.11.49C112.93,34.45,112.78,34.59,112.65,34.52Zm-.29,1.53h0a.16.16,0,0,1-.09-.18c0-.16.17-.23.29-.16s.19.17.17.21A.31.31,0,0,1,112.36,36.05Zm2.36-1.81c.08,0,0,.25-.18.45s-.36.35-.39.33,0-.22.18-.45S114.64,34.19,114.72,34.24Zm-1.23,2.27a3.51,3.51,0,0,1-.44.39s.09-.22.39-.71c.53-.84.82-1,.7-.5A2.7,2.7,0,0,1,113.49,36.51Zm6.6-.43c.14,0,.16.06.07.22s-.24.26-.32.21a.17.17,0,0,1-.08-.22A.81.81,0,0,1,120.09,36.08Zm.08-2a.64.64,0,0,1,0,.37c0,.18-.15.3-.24.25s-.07-.23,0-.38S120.13,34,120.17,34.06Zm-4.31,1.83h0a0,0,0,0,1,0,0,.83.83,0,0,1,.4-.44c.31-.18.31-.13,0,.22A.74.74,0,0,1,115.86,35.89Zm-2.34,4.65h0a.1.1,0,0,1-.06-.08,1.36,1.36,0,0,1,.3-.67c.19-.25.4-.54.47-.66.25-.37.41-.05.23.47S113.7,40.64,113.52,40.54Zm5.15-2a1.08,1.08,0,0,1-1.43-.57l-.95-2.31,2-.84,1,2.31A1.07,1.07,0,0,1,118.67,38.54Zm-1.19,3.22-.1,0h0l-.08,0c-.11-.08,0-.19.35-.59s.51-.42.59,0A.58.58,0,0,1,117.48,41.76Zm3.8-4.78s0-.18,0-.37.15-.29.24-.24.08.22,0,.38S121.32,37,121.28,37Z"/>
        <path class="cls-3" d="M127.15,40.8c.13.07.51-.13.67-.4s0-.22-.27-.08-.44.3-.44.39S127.12,40.79,127.15,40.8Z"/>
        <path class="cls-3" d="M88.31,113.85h0a.08.08,0,0,0,.08,0,.65.65,0,0,0,.33-.21.16.16,0,0,0-.08-.21c-.08,0-.23,0-.32.21S88.25,113.84,88.31,113.85Z"/>
        <path class="cls-3" d="M34.69,32.73a1.65,1.65,0,0,0-2.07-2.35,1.51,1.51,0,0,1-.18.53c0,.07-.08.1-.1.1h0s0-.11,0-.24a1.49,1.49,0,0,1,0-.21,1.67,1.67,0,0,0-.45.5,1.69,1.69,0,0,0-.2.51l.06-.11c.08-.15.22-.22.3-.18s0,.29-.11.53-.21.27-.27.25h0a1.64,1.64,0,0,0,3,.69Zm-2.06-1.1c-.09-.05-.09-.21,0-.37s.19-.26.23-.24a.64.64,0,0,1,0,.37C32.81,31.58,32.71,31.69,32.63,31.63Z"/>
        <path class="cls-3" d="M91.48,105.93c.29-.17.29-.12,0,.22a1.13,1.13,0,0,0-.21.33,54.71,54.71,0,0,0,9.29-4.31h-.08c-.07,0-.07-.1,0-.22s.24-.26.32-.21a.15.15,0,0,1,.08.21l0,0a53.31,53.31,0,0,0,5.45-3.7.77.77,0,0,1,0-.26c.1-.28.19-.38.22-.23s.13.13.22,0,.11-.34,0-.39,0-.07,0-.15q-2,1.59-4.09,3s0,0,0,0,0,.26-.19.46-.29.27-.33.25,0-.19.1-.46a53.55,53.55,0,0,1-15.22,6.74.61.61,0,0,1-.1.54l0,0,.64-.18a2,2,0,0,1,.24-.16c.38-.24.61-.26.68-.1.83-.24,1.64-.5,2.45-.78A1.53,1.53,0,0,1,91.48,105.93Z"/>
        <path class="cls-3" d="M19.31,54.11a1.25,1.25,0,0,1,.4-.42,52.61,52.61,0,0,1,.76-7.38l-.18,0a.47.47,0,0,0-.41.17,54.9,54.9,0,0,0-.74,8.06A1.66,1.66,0,0,1,19.31,54.11Z"/>
        <path class="cls-3" d="M30.13,89.14,30,89C29.85,89.12,29.89,89.16,30.13,89.14Z"/>
        <path class="cls-3" d="M25.14,31c.27-.1.36-.15.49,0l.24-.48c-.22.11-.39.16-.44.1a.08.08,0,0,1,0-.05c0-.13.18-.29.38-.36s.31-.17.22-.22a43.39,43.39,0,0,1,3.62-6.07c.34-.49.69-.74.9-.73.38-.5.77-1,1.16-1.48-.08-.36,0-.56,1.39-2.17s2.11-2.19,2-1.59a52.89,52.89,0,0,1,8.8-7.22c0-.17.14-.27.23-.22a.1.1,0,0,1,0,.05,51.58,51.58,0,0,1,5-2.86,1.11,1.11,0,0,1,.28-.29c.05,0,.07,0,.05.12l1-.5c.08-.11.14-.16.18-.14l0,0A54,54,0,0,1,63.65,2.85c.16-.28.7-.68.88-.58s-.09.26-.34.48A53.26,53.26,0,0,1,73.55,2q.09-.18.24-.42a.75.75,0,0,0,.07-.12A54.31,54.31,0,0,0,45.94,8.82,1,1,0,0,1,46,9c0,.23,0,.38-.19.43a.19.19,0,0,1-.1,0h0c-.09,0-.12-.13-.08-.28a.75.75,0,0,1,0-.16A54.08,54.08,0,0,0,36,16.29c-.25.42-.73.91-.94.91A54.5,54.5,0,0,0,26.67,28C26.08,29,25.52,30,25,31Z"/>
        <path class="cls-3" d="M123.22,75.43c-.08,0,0-.23.16-.42a.77.77,0,0,0,0-.9,54.34,54.34,0,0,1-4.13,8.66c-.14.22-.27.44-.4.66l0,.2c.06.49-.09.85-.73,1.89l0,.07c.55-.83,1.09-1.68,1.6-2.54a53.81,53.81,0,0,0,3.88-8C123.4,75.45,123.32,75.5,123.22,75.43Z"/>
        <path class="cls-3" d="M124.45,38.49h0c-.06,0-.06-.15,0-.3-.28-.81-.57-1.61-.88-2.41l-.08,0h-.08s0-.14.06-.29c-.18-.44-.36-.88-.55-1.32a4.39,4.39,0,0,1-.35.55,53.91,53.91,0,0,1,4.13,23.43c.2-.26.42-.44.52-.38s0,.26-.24.49-.28.37-.06.3.19,0-.22.36l-.05,0q-.09,1.47-.27,2.94c.24-.39.47-.54.6-.49.07-.62.13-1.24.17-1.86-.13.44-.2.64-.23.63a1.31,1.31,0,0,1,0-.39,1.72,1.72,0,0,1,.27-.91h0a54.19,54.19,0,0,0-.06-7.54.14.14,0,0,1,0-.19v0a54,54,0,0,0-1.28-8.1.22.22,0,0,1-.16,0h0c-.12-.08-.12-.35,0-.65-.33-1.31-.7-2.61-1.13-3.89Z"/>
        <path class="cls-3" d="M124.74,70.05c-.35,1.23-.74,2.45-1.19,3.67a1.24,1.24,0,0,1,.1.2,1.75,1.75,0,0,1,.18.6c.08-.19.15-.39.22-.58v0c-.06-.12.08-.44.28-.74a52.63,52.63,0,0,0,1.92-7.08,1.77,1.77,0,0,1-.53.53s0,0-.06,0,.07-.21.26-.45c.47-.6.42-1-.06-.42-.14.18-.1,0,.1-.47s.39-.72.48-.52c0,0,0,0,0,.06.12-.68.22-1.35.31-2a1.74,1.74,0,0,1-.24-.36c-.1-.24-.19-.22-.24,0l0,.1A54.17,54.17,0,0,1,124.76,70S124.78,70,124.74,70.05Z"/>
        <path class="cls-3" d="M118.3,84.69c.47-.23.47-.25.13-.25a.34.34,0,0,1-.17,0c-.1.16-.2.32-.31.48Z"/>
        <path class="cls-3" d="M101.21,9.26l-.18-.1a.38.38,0,0,0,0,.15.06.06,0,0,0,0,0h0S101.14,9.33,101.21,9.26Z"/>
        <path class="cls-3" d="M87.57,3.94l.35.1.3-.48-.46-.13,0,.13A2.79,2.79,0,0,1,87.57,3.94Z"/>
        <path class="cls-3" d="M82.38,2.77l.27-.51a52.55,52.55,0,0,0-5.84-.7l-.27.52A52.52,52.52,0,0,1,82.38,2.77Z"/>
        <path class="cls-3" d="M101.42,8.72l.06,0C101.5,8.7,101.48,8.68,101.42,8.72Z"/>
        <path class="cls-3" d="M113.1,78c0,.5-.45,1-.73.82s-.32-.06-.52.61-.13.75.16.67.31,0,.17.25l-.06.08.19.13.09,0c.12-.13.27-.28.46-.46.37-.36.6-.68.52-.73s.21-.29.64-.56a5,5,0,0,1,.64-.35,1.64,1.64,0,0,0-2.93-.2,1.59,1.59,0,0,0-.21,1.07C111.93,78.29,113.14,77.05,113.1,78Z"/>
        <path class="cls-3" d="M90.32,4.79a53.72,53.72,0,0,1,10.14,4.66c.58.34,1.16.7,1.72,1.06a3.77,3.77,0,0,1,.4-.39l-1.11-.7-.15.12c-.16.12-.28.16-.35.14s-.1-.11-.1-.27a.86.86,0,0,1,0-.33l-.17-.1A54,54,0,0,0,90.55,4.29C90.48,4.43,90.4,4.6,90.32,4.79Z"/>
        <path class="cls-3" d="M29.61,87.51c.08-.15.17-.33.27-.55a53.77,53.77,0,0,1-5.07-8.57,2,2,0,0,0-.15.65c0,.08,0,.16,0,.23l.3.61c.46-.43.5-.41.35,0a3.68,3.68,0,0,1-.15.35c.39.77.81,1.53,1.24,2.27.18-.25.19-.19.1.19l.15.25c.08-.09.14-.11.13,0a.3.3,0,0,1-.05.14Q28,85.38,29.61,87.51Z"/>
        <path class="cls-3" d="M47,101.15l.8-5.56a3.89,3.89,0,0,0,1.15.14,2.1,2.1,0,0,1,.26-.46c.12-.15.13,0,0,.3a1.16,1.16,0,0,0-.06.15,3.45,3.45,0,0,0,2.4-1.41c1.14-1.56,1-3.74-1.09-5.3l-2-1.43c-.22.4-.46.74-.52.7s-.05-.44.29-.86l-1.57-1.15h0l0,0v0l-2.06-1.5-7,9.58,3.07,2.24,2.56-3.49,1.14.84-.86,4.73ZM46.08,87a.42.42,0,0,0-.34.3c0,.08-.05.1-.11.09a.39.39,0,0,1-.18-.17c-.22-.34-.21-.36.19-.39a1.15,1.15,0,0,1,.56,0C46.28,86.92,46.22,87,46.08,87Zm-1.15,3.22h0c-.08,0,0-.4.3-.77s.49-.64.55-.61-.06.38-.29.77S45,90.26,44.93,90.21Zm2,2.2-1.12-.82a.16.16,0,0,1-.16,0,.2.2,0,0,1-.09-.19l-.65-.48,1.29-1.76,2,1.47a1.06,1.06,0,0,1,.22,1.51A1.08,1.08,0,0,1,46.88,92.41Z"/>
        <path class="cls-3" d="M47.74,102.59c-.6-.32-1.19-.66-1.79-1q-2.27-1.35-4.37-2.88v.06a.52.52,0,0,1-.27.37h0c.72.52,1.44,1,2.19,1.52.26-.27.27-.26,0,0,.57.37,1.14.73,1.72,1.08l0,0,.42.25c.58.35,1.16.68,1.75,1A2.57,2.57,0,0,1,47.74,102.59Z"/>
        <path class="cls-3" d="M49.25,104.61l-.15-.07A.21.21,0,0,0,49.25,104.61Z"/>
        <path class="cls-3" d="M48,104,48,104Z"/>
        <path class="cls-3" d="M33.66,91.6c-.4-.43-.78-.87-1.16-1.31l-.08.09a1.94,1.94,0,0,0-.24.36c.39.45.78.9,1.18,1.33A2.6,2.6,0,0,1,33.66,91.6Z"/>
        <path class="cls-3" d="M86.67,107.74a2.76,2.76,0,0,1,0-.42l-.34.08a.78.78,0,0,1-.84.21c-.47.11-.94.22-1.42.31,0,.08,0,.18.12.26s.21.18,0,.27c.84-.17,1.67-.36,2.5-.58A.53.53,0,0,1,86.67,107.74Z"/>
        <path class="cls-3" d="M82.76,2.83c1.44.27,2.88.59,4.3,1l.31-.48c-1.43-.39-2.86-.72-4.3-1C83,2.5,82.87,2.67,82.76,2.83Z"/>
        <path class="cls-3" d="M23.85,76.78c.14,0,.13.07,0,.26a.5.5,0,0,0-.11.26.61.61,0,0,0,.05.12h0c.07,0,.09.08.05.18.17.38.35.76.53,1.13,0-.69,0-.84.21-.79a53.64,53.64,0,0,1-3.4-9.8.17.17,0,0,1-.12,0h0A.28.28,0,0,1,21,68c-.06-.16,0-.2.18-.12A54.53,54.53,0,0,1,20,61.38s0,.06,0,.06h0a.73.73,0,0,1,0-.24A1.11,1.11,0,0,1,20,61c-.09-.93-.16-1.85-.21-2.78a3.42,3.42,0,0,1-.48,1,53.76,53.76,0,0,0,1.47,9.37c.06-.09.13-.13.17-.1s0,.24-.08.45a54.28,54.28,0,0,0,2.79,8.14A.53.53,0,0,1,23.85,76.78Z"/>
        <path class="cls-3" d="M81.89,102.14a3.39,3.39,0,0,0,1.9-3.5c-.23-1.92-1.78-3.45-4.4-3.15l-7.2.85,1.38,11.78,2.9-.34c.12-.17.26-.27.32-.24s0,.11,0,.2l.57-.07-.51-4.29,1.4-.17,2.6,4.05,3.15-.37,0-.09c.21-.61.39-.56.38,0l.68-.08ZM76.13,107c.14,0,.18,0,.08.21s-.24.26-.33.21a.16.16,0,0,1-.07-.21A.62.62,0,0,1,76.13,107Zm0-.67a.43.43,0,0,0-.33.33c0,.15-.11.25-.18.24h0c-.08,0-.07-.29,0-.55s.25-.41.48-.25S76.32,106.29,76.17,106.3Zm.62-1.74A.41.41,0,0,1,77,105a1,1,0,0,1-.47.49c-.14.06-.24.1-.29.07h0s-.07-.1,0-.22a.25.25,0,0,1,.36-.21c.25.12.26.1.12-.27S76.57,104.45,76.79,104.56Zm-2.73-7.18c-.06,0,0-.14.18-.41.35-.55.62-.62.51-.15a1,1,0,0,1-.45.46C74.17,97.35,74.09,97.39,74.06,97.38ZM73.52,99c-.21.16-.34.25-.37.24s.08-.18.33-.55a3.83,3.83,0,0,1,.71-.84c.14-.07.12,0,0,.13s-.26.35-.21.44S73.8,98.74,73.52,99Zm2.79-2.07h0a0,0,0,0,1,0,0c-.06-.3.38-1.09.55-1s0,.34-.2.65S76.37,96.89,76.31,96.89ZM76,98.61s-.06,0-.08,0-.07-.1,0-.22.25-.26.33-.21a.16.16,0,0,1,.08.21A.72.72,0,0,1,76,98.61Zm.81-1.11h-.06c-.1,0-.08-.22.09-.5.37-.63.38-.63.31,0C77.15,97.35,77.06,97.48,76.85,97.5Zm-.31,3.26-.25-2.18,2.48-.29a1.13,1.13,0,0,1,.61.11l.27-.49c1.09-2,1.64-2.45,1.3-1.14-.12.44-.25.67-.44.73a.94.94,0,0,0-.42.53c-.08.24-.21.4-.28.36s-.11,0-.2.17a1.09,1.09,0,0,1,.35.69,1.08,1.08,0,0,1-.94,1.22Zm2.37.12c.08.05.11.24.07.43s-.14.29-.22.24a.44.44,0,0,1-.08-.42C78.72,101,78.83,100.83,78.91,100.88ZM78,103s0-.19,0-.37.14-.29.23-.24.08.22,0,.37S78,103,78,103Zm2.49-1.5a1.88,1.88,0,0,1-.51.81h0c-.07,0,0-.28.23-.69C80.7,100.63,80.84,100.57,80.49,101.48ZM79.78,103c-.17.1-.3.13-.36.09a.06.06,0,0,1,0-.06c0-.12.18-.22.39-.23S80.08,102.76,79.78,103Zm1.3-1.61a.41.41,0,0,1-.14,0c-.08,0,0-.1.29-.31s.43-.4.4-.59a.84.84,0,0,1,.11-.53c.18-.32.46-.2.36.14C82,100.59,81.36,101.33,81.08,101.34Zm2.22-3c-.14,0-.21-.09-.14-.31s0-.11-.19.26-.37.63-.45.58a.14.14,0,0,1-.06-.19,4.62,4.62,0,0,0,.22-.58c.19-.53.73-.65.82-.18C83.53,98.13,83.47,98.28,83.3,98.33Zm-2.69,7.89s-.06,0-.07,0,0-.13.16-.29c.39-.43.55-.46.31-.05A.87.87,0,0,1,80.61,106.22Zm.88-.92a.92.92,0,0,1-.19-.15.68.68,0,0,1-.23-.67c.09-.22.19-.22.28,0s.19.22.25,0,.15-.35.24-.3.07.38,0,.73S81.65,105.39,81.49,105.3Z"/>
        <path class="cls-3" d="M30.34,88a1.77,1.77,0,0,1,.14.3.27.27,0,0,1,0,.3c.44.56.88,1.12,1.34,1.66l0-.07a.72.72,0,0,0,.06-.66c-.63-.76-1.23-1.54-1.81-2.33a5.24,5.24,0,0,1-.28.53l.39.51C30.27,88.1,30.34,88,30.34,88Z"/>
        <path class="cls-3" d="M42.46,30.88h0a.36.36,0,0,0,.42-.13c.16-.17.14-.28,0-.35l-.38.48Z"/>
        <path class="cls-3" d="M116.42,23.31a1.28,1.28,0,0,1-.18.35,54,54,0,0,1,6.21,10.85,2,2,0,0,1,.17-.32l.16-.26c-.54-1.25-1.13-2.48-1.76-3.68-.06.07-.12.1-.16.08s0-.17,0-.34a54.31,54.31,0,0,0-4.39-6.9C116.48,23.14,116.45,23.21,116.42,23.31Z"/>
        <path class="cls-3" d="M111.89,18a2.49,2.49,0,0,1-.23.23,54,54,0,0,1,4.37,5.1,1.74,1.74,0,0,1,.23-.25,1.13,1.13,0,0,1,.16-.13c-.92-1.22-1.89-2.41-2.92-3.55h0c-.48-.53-1-1.06-1.47-1.57A1.1,1.1,0,0,1,111.89,18Z"/>
        <path class="cls-3" d="M77.29,6.22c.12-.23.2-.42.17-.44s-.18.11-.35.29Z"/>
        <path class="cls-3" d="M111.3,17.51s0,.15-.08.3l.34.35c0-.07.08-.15.13-.24a1.06,1.06,0,0,1,.17-.23l-.53-.54C111.24,17.31,111.23,17.47,111.3,17.51Z"/>
        <path class="cls-3" d="M70.24,6.46a2.09,2.09,0,0,0,.65-.25c.94-.53,1-.53.66,0-.13.23-.37.35-.52.26a.31.31,0,0,0-.42.08.51.51,0,0,1-.39.27l0,.46a.41.41,0,0,1,.11-.07c.3-.15.36-.09.22.32a3,3,0,0,1-.39.73l-.37,6.53,8,.45h.09a1.77,1.77,0,0,1,.36-1c.34-.43.35-.42.06.1a4.26,4.26,0,0,0-.35.9,3.8,3.8,0,0,0,1.83-.42c.09-.25.23-.42.3-.38s0,.09,0,.18a3,3,0,0,0,1.25-2c-.43,1.06-.66,1.39-.9,1.31h0l0,0c-.26-.15-.21-.31.37-1.15.26-.38.47-.66.62-.84a2.65,2.65,0,0,0-2.09-2.7V9.16a2.57,2.57,0,0,0,2.14-2.64A2.65,2.65,0,0,0,81,5l-.17.39c-.17.36-.26.53-.31.52h0s0-.07,0-.19a1.28,1.28,0,0,1,.3-.77l.12-.13a3.39,3.39,0,0,0-2.61-1.35l-2.4-.14-.53,1.07.07-1.09-.64,0a1,1,0,0,1,0,.22c0,.18-.15.28-.23.23s-.09-.21,0-.37l.06-.09L70.44,3ZM78.74,13c.08.05.08.21,0,.35a.83.83,0,0,1-.41.34s-.06,0-.07,0h0c-.06,0,0-.18.08-.36S78.66,12.9,78.74,13ZM72.3,8.38c-.26-.15-.2-.22.53-.62.92-.53,1-.54.73,0S72.64,8.58,72.3,8.38Zm.24,1.54h0s0-.13.13-.33a2.8,2.8,0,0,1,.8-.81c.48-.29.48-.26,0,.31S72.61,10,72.54,9.92Zm-.8,4.34h0s0,0,0,0a.83.83,0,0,1,.12-.48c.08-.14.21-.23.28-.19s0,.26-.12.49S71.8,14.28,71.74,14.26Zm1.2.71h0a.07.07,0,0,1,0-.05.56.56,0,0,1,.2-.43c.34-.3.37-.23.09.24C73.09,14.9,73,15,72.94,15Zm4.58-3.92a3.13,3.13,0,0,1,.25-.47c.67-1.11,1.36-2.72,1.11-2.63s.06-.21.38-.54a2.52,2.52,0,0,1,.85-.61c.2,0-.08.56-1.13,2.34a20.87,20.87,0,0,1-1.42,2.18v.25a.89.89,0,0,1-.93.88l-.27,0a6.72,6.72,0,0,1-.45.88c-.24.41-.37.6-.41.6h0s0-.11,0-.33a4.09,4.09,0,0,1,.55-1.16l-2.35-.14.08-1.41a3.67,3.67,0,0,1-.94,1.8.12.12,0,0,1-.1,0,.6.6,0,0,1-.14-.49c0-.45-.07-.54-.37-.4s-.44.1-.5,0,.35-.5,1-.92.95-.54,1-.45v-.13l2.89.17A.87.87,0,0,1,77.52,11.05Zm.81-2.12c.07.05-.07.39-.29.78a2.65,2.65,0,0,1-.47.66h0a3,3,0,0,1,.28-.77C78,9.19,78.26,8.89,78.33,8.93ZM77.27,4.29a2.14,2.14,0,0,1-.51.74c-.1.08-.15.12-.17.1s0-.21.26-.56C77.34,3.74,77.5,3.63,77.27,4.29ZM76.71,6l.15,0c.48-.6.94-1.11,1-1.07s0,.4-.22.83-.22.72-.08.68,0,0-.08.17a1.15,1.15,0,0,1,0,.33v.17a2.16,2.16,0,0,1,0,.27c.41-.24.65-.17.46.14a2.33,2.33,0,0,1-.71.52c-.2.1-.32.12-.37.08h0s0-.09,0-.16a1.15,1.15,0,0,1-.26,0l-.65,0a.36.36,0,0,1-.23.08s0,0-.06-.09l-1.17-.07c-.1.08-.16.13-.19.13h0s0-.06,0-.14l-.34,0,.12-2Zm-3-1.15a3.83,3.83,0,0,1,.62-.71c.12-.07,0,.14-.23.47a2.67,2.67,0,0,1-.63.7h0S73.51,5.12,73.74,4.8ZM72.2,7.41A.84.84,0,0,1,73,7.28c.2.13.1.21-.4.34a1.07,1.07,0,0,0-.76.58c0,.15-.07.23-.08.22h0a.81.81,0,0,1,0-.26C71.71,7.8,71.81,7.65,72.2,7.41Zm1-2.85c.69-.93.8-.68.17.39a2.67,2.67,0,0,1-.4.6h0s0,0,0-.08c.07-.22,0-.37-.06-.33S72.91,4.91,73.17,4.56Zm-.76,1.05c.13,0,0,.34-.31.84S71.3,7.9,71,8.54a5.56,5.56,0,0,1-.45.82h0s0-.13.1-.4A11.57,11.57,0,0,1,72.41,5.61Zm.8-2.34c.07,0,0,.32-.19.62s-.67.74-.81.68,0-.05,0-.11C72.18,4.21,73.07,3.19,73.21,3.27Z"/>
        <path class="cls-3" d="M90,4.68q.15-.28.27-.48c-.58-.19-1.16-.38-1.74-.55l-.3.48C88.83,4.3,89.42,4.49,90,4.68Z"/>
        <path class="cls-3" d="M89.49,6.41l-3.86,8.35c.45-.31.47-.1.2.78a6,6,0,0,1-.48,1l.49.23a.06.06,0,0,1,.07,0,.12.12,0,0,1,0,.05L88.35,18,90.16,14l1.28.59.1,4.81,3.88,1.79-.31-5.61a3.37,3.37,0,0,0,3.44-2A3.52,3.52,0,0,0,97.11,9a6.58,6.58,0,0,0-.59,1.39c-.17.6-.27.82-.35.76h0l0-.05a1.37,1.37,0,0,1,.15-.81c.27-.58.48-1,.66-1.39l-.5-.26-6.52-3A2.71,2.71,0,0,1,89.49,6.41Zm4.89,7.7a.61.61,0,0,1,.32-.2c.14-.05.18.05.08.21s-.24.25-.32.2h0A.16.16,0,0,1,94.38,14.11Zm-.3,1.4a.19.19,0,0,1-.13,0h0c-.08-.08,0-.4.25-.67s.26-.23.18.11A1,1,0,0,1,94.08,15.51ZM95.67,12a2.89,2.89,0,0,1-.1.69c-.12.55-.19.65-.38.54s-.07-.39.11-.7A2.24,2.24,0,0,1,95.67,12Zm-3.09,3.08c.09-.16.2-.26.23-.24s0,.19,0,.37-.14.29-.23.24S92.49,15.26,92.58,15.11Zm-.39,1.25c-.16.25-.31.4-.36.36h0a0,0,0,0,1,0,0,1,1,0,0,1,.29-.56C92.56,15.64,92.6,15.73,92.19,16.36Zm3.71-7.2c.09,0,.08.21,0,.36s-.23.24-.31.19-.08-.21,0-.37S95.82,9.11,95.9,9.16Zm-1.45,1.55A1.06,1.06,0,0,1,95,12.14a1.07,1.07,0,0,1-1.44.55l-2.26-1,.91-2Zm-4.6.73a1.47,1.47,0,0,1-.53.7.35.35,0,0,1-.14.07c-.09,0,0-.18.23-.6C89.91,10.77,90.11,10.69,89.85,11.44Z"/>
        <path class="cls-3" d="M102.73,10.22v0a2.24,2.24,0,0,1-.32.41,53.86,53.86,0,0,1,5,3.67c.09-.1.15-.06.16.13,1.17,1,2.29,2,3.36,3.05l.27-.5a54.24,54.24,0,0,0-7.93-6.44.56.56,0,0,1-.29.31s-.07,0-.08,0h0s0-.17.08-.35a.41.41,0,0,1,.07-.11Z"/>
        <path class="cls-3" d="M90,93.28c-.18.19-.28.45-.22.58s0,.3-.33.49c-.14.08-.22.12-.24.11h0s0,0,.11-.14.24-.33.16-.38,0-.34.17-.65a1.55,1.55,0,0,1,.2-.28l-.17-.11-.22.19c-.33.27-.54.52-.45.57s0,.26-.19.47-.36.33-.42.31,0-.4.4-.94a4.83,4.83,0,0,1,.65-.75l-.14-.09-1.57.78c-.07.09-.13.15-.16.13l0,0-2.17,1.08,2.82,1.66c.19-.35.41-.42.84-.26s.54.24,0,.46a1,1,0,0,1-.35.11l.7.41c.16-.17.21-.15.16.1l.7.41a3.84,3.84,0,0,1,.68-.64c.45-.32.48-.36.19-.34s-.23-.14,0-.51.36-.43.43-.26.18.12.28-.16a1.29,1.29,0,0,1,.45-.62l.22-.18L90.1,93.17ZM87.46,95c-.2-.12,0-.68.22-.77s.16.13.07.39S87.53,95,87.46,95Zm3.14-.21c.14,0,.17,0,.08.22s-.21.23-.3.22l0,0a.16.16,0,0,1-.07-.21A.68.68,0,0,1,90.6,94.78Zm-.94.58c.14,0,.17,0,.07.21s-.2.23-.29.22l0,0a.16.16,0,0,1-.08-.21A.64.64,0,0,1,89.66,95.36Z"/>
        <path class="cls-3" d="M113.69,55.7l4.6-.2,7.45,4.32-.18-4.15-4-2.1V53.5l3.85-2.44-.19-4.38-7,5-4.6.2Zm8.49-6.12c.06,0,.06.25,0,.48-.13.39-.94,1.11-1.13,1.07h0a.06.06,0,0,1,0-.07C121,50.78,122,49.5,122.18,49.58Zm-2.31,3.51c.1.06.11.29,0,.5-.23.58-.62,1.16-.74,1.13h0s0,0,0,0a.87.87,0,0,1,.24-.55,1.33,1.33,0,0,0,.31-.73C119.68,53.09,119.73,53,119.87,53.09Z"/>
        <path class="cls-3" d="M88.64,96.34c0-.21,0-.33-.13-.26a.58.58,0,0,0-.16.26l.28.17A.34.34,0,0,1,88.64,96.34Z"/>
        <path class="cls-3" d="M93.41,92.84l-.08-.09V93C93.42,93,93.47,92.89,93.41,92.84Z"/>
        <path class="cls-3" d="M105.19,78.3a.31.31,0,0,1,.28-.16l.25-.36c-.17-.17-.15-.3.07-.45a1.69,1.69,0,0,0,.45-.5c.23-.48.4-.67.42-.49l.27-.44a.2.2,0,0,0-.12-.13c-.36-.14,0-.35.41-.36l.47-.82,0,0c-.16.18-.3.3-.36.29h0s0,0,0,0,.18-.31.4-.44a.56.56,0,0,1,.17-.09l.4-.77-.12.12c-.11.09-.17.14-.2.14s0-.14.2-.44c.3-.52.47-.7.47-.5.08-.16.15-.32.23-.47a1,1,0,0,1,.26-.56c.09-.2.17-.39.26-.58a.43.43,0,0,0,0,0c0-.07,0-.1.07-.1A39.15,39.15,0,0,0,112,48.81a2.68,2.68,0,0,0-.45.52c.06.39.12.78.17,1.17a.35.35,0,0,1,.07-.09c.45-.49.46-.49.16.09l-.19.34a38.66,38.66,0,0,1-5.14,24.46,39.19,39.19,0,0,1-6.36,8.1,1.4,1.4,0,0,1-.16.38.39.39,0,0,1-.09.11s-.06-.07-.06-.19c-.65.61-1.32,1.2-2,1.77l0,0c.32-.16.38-.09.25.38l0,.13a38.9,38.9,0,0,0,4.16-4h0c-.08,0-.08-.22,0-.37s.24-.24.32-.2a.15.15,0,0,1,.06.13c.81-.93,1.59-1.9,2.32-2.91A.58.58,0,0,1,105.19,78.3Z"/>
        <path class="cls-3" d="M93.79,93.67s.1,0,.15-.11a1.1,1.1,0,0,0,.06-.69c-.12-.57-.12-.58-.3-.05S93.64,93.64,93.79,93.67Z"/>
        <path class="cls-3" d="M90.46,97.58l.16.1C90.62,97.2,90.59,97.19,90.46,97.58Z"/>
        <path class="cls-3" d="M93.42,93.45s-.06-.07-.13-.07l0,.49A.85.85,0,0,0,93.42,93.45Z"/>
        <path class="cls-3" d="M96.27,97.3l.16-1.47s-.05.08-.07.13-.19.3-.23.3h0s-.06-.17-.06-.53.1-.71.22-.71.17-.08.25-.23l.24-2.32-.15.28c-.19.33-.46.61-.59.61a1.15,1.15,0,0,0-.57.48q-.33.48,0,.45c.18,0,.2.15.06.38s-.21.23-.29.18h0c-.13-.09-.19-.46-.07-.91a1.82,1.82,0,0,1,.68-1c.29-.23.47-.3.39-.16s.05.06.31-.21l.27-.28L97,90.82a.3.3,0,0,1-.06.11,1,1,0,0,1-.27.37h0s0,0,0,0a1.14,1.14,0,0,1,.3-.54l.07-.07.16-1.46h0c-.12.2-.21.3-.24.3s0,0,0-.12,0-.36-.1-.32-.11,0-.11-.06l-3.23,1.61-.09,1.48q.19,0,.33-.36c.09-.25.24-.41.33-.36s.29-.16.46-.58c.25-.61.27-.63.21-.11s0,.55.34.47c.54-.15.82-.64.35-.6s-.31,0,.11-.32.4-.64-.17-.29c-.21.13-.32.13-.24,0a1.93,1.93,0,0,1,1.22-.61c.06,0,0,.23-.12.45a1.34,1.34,0,0,0-.19.72c0,.21.12.13.25-.24s.22-.47.3-.31a.66.66,0,0,1-.18.58,9.46,9.46,0,0,0-.58.81c-.15.26-.3.39-.32.28s-.23.06-.48.36-.43.41-.36.11,0-.38-.2-.32-.26.46-.24,1.1c0,.84,0,1-.37,1.17a2.84,2.84,0,0,0-.59.39l0,.73-.06,0-.41-.27a11.13,11.13,0,0,0-1.79,2.86l0,.08,2,1.16.25.49A1.62,1.62,0,0,0,93.4,99c.08-.24.21-.4.28-.36s0,.34-.18.65a2.11,2.11,0,0,1-.27.4l.26.53c.13,0,.24-.06.3,0s.21,0,.08-.32,0-1.12.23-1c0,0,0,.16-.08.3s.07.34.34.45c.51.23.46.45-.29,1.16a1,1,0,0,1-.21.17l.11.2c.15-.16.37-.36.6-.56.47-.41.79-.61.71-.45a5.08,5.08,0,0,1-.3.52,2.15,2.15,0,0,0-.25.79c-.07.44-.09.4-.1-.12,0-.68,0-.69-.48-.16l-.11.13.88,1.77,3.41-1.71Zm-3.8-.85,0,0a.16.16,0,0,1-.07-.21.61.61,0,0,1,.32-.2c.14,0,.17,0,.07.21S92.56,96.46,92.47,96.45Zm-.33,1.94a.36.36,0,0,1-.22,0,.35.35,0,0,1-.15-.17c-.06-.14.06-.15.27,0S92.29,98.38,92.14,98.39Zm.39-.43s0-.12,0-.33c0-.57.5-1.63.74-1.48.08,0,.09.18,0,.3s-.26.54-.44,1S92.57,98,92.53,98Zm1.1-.45h0l-.08-.05c-.28-.16-.28-.31,0-.62s.28-.38,0-.3-.23,0,0-.16.37-.15.44,0,.16.1.26-.19.26-.39.41-.3.13.24,0,.39a.7.7,0,0,0-.22.58A.6.6,0,0,1,93.63,97.51Zm.75.59a.18.18,0,0,1-.15,0c-.06,0-.06-.12,0-.22a.28.28,0,0,1,.38-.13c.13.07.19.18.16.25A.61.61,0,0,1,94.38,98.1Zm.5-.6h0c-.19-.11-.14-.18.29-.38s.51-.25.28-.4a.33.33,0,0,1-.09-.44c.22-.37.4-.24.38.27S95.18,97.68,94.88,97.5Zm-.27,1.28h0s0,0,0,0a1.08,1.08,0,0,1,.31-.55c.18-.19.17-.11,0,.22S94.65,98.78,94.61,98.78Zm.12.51c-.15-.08.89-1.43,1.3-1.68.22-.13.2,0-.06.25s-.31.47-.23.52.21,0,.3-.19.24-.24.32-.19C96.66,98.18,95,99.46,94.73,99.29Z"/>
        <path class="cls-3" d="M75.92,1.5l-1.33-.05q-.15.31-.27.54l1.4.05C75.78,1.85,75.85,1.67,75.92,1.5Z"/>
        <path class="cls-3" d="M69.67,109s0,0,0,0l-.58,0L69,109c-.14.12-.15.27,0,.35s.09.06.1.1l.67,0a1.38,1.38,0,0,1,.33-.14c.34-.12.43-.08.36.18.75,0,1.5.06,2.25.06a.53.53,0,0,1,.1-.12c.16-.18.31-.23.33-.11s.16.11.3,0,.33-.19.41-.14-.09.21-.37.39a54,54,0,0,0,10.47-1.08.33.33,0,0,1-.15,0c-.13-.08-.16-.26-.07-.46a53.55,53.55,0,0,1-14,.93Z"/>
        <path class="cls-3" d="M39.48,83.27A2.89,2.89,0,0,0,40.66,80c-.27.28-.48.42-.56.38h0a.07.07,0,0,1,0-.05c0-.14.16-.34.42-.45l.12-.06a2.49,2.49,0,0,0-.11-.29.19.19,0,0,1-.23-.07.31.31,0,0,1,0-.42.22.22,0,0,0-.05-.08L40,78.67a1,1,0,0,1-.25.41h0c-.05,0,0-.22.13-.52l0-.08L36,72.27l-2,1.25c0,.31-.11.46-.16.43h0s-.06-.11-.09-.27l-.42.27c.06,0,.09.37,0,1-.09.92-.27,1.42-.5,1.35l0,0c-.08,0,0-.19.1-.32s.21-.25.14-.3a2,2,0,0,1,0-.93,2.14,2.14,0,0,1,.19-.71l-2.52,1.59a1.41,1.41,0,0,1,0,.2c0,.39-.14.67-.22.63s-.22.15-.32.44-.09.42.07.24c.37-.43.83-.08.63.48-.09.28-.24.42-.36.35a.53.53,0,0,0-.52.13c-.19.18-.19.27,0,.25s.24.1,0,.41a1,1,0,0,0-.19.78c.11.28.09.31-.15.19s-.2-.35-.11-.61,0-.49-.21-.49-.31-.14-.23-.31.3-.57.46-.89l.44-.89c.09-.16.07-.27,0-.23s-.1,0-.14-.15l-4,2.5,1.57,2.48h0c.15-.13.19-.07.09.19L30,84.93a1.78,1.78,0,0,1,.1-.21c.36-.64.76-.75.55-.14-.09.26-.19.37-.21.25s-.17-.1-.33.07L30,85l.25.39a3.2,3.2,0,0,0,4.5,1.23h0c.14-.47.4-1,.5-1a2.45,2.45,0,0,1-.14.73,3.17,3.17,0,0,0,.76-.81c0-.09.06-.25.12-.43a.84.84,0,0,1,.2-.32,2.91,2.91,0,0,0-.11-1.57,1.76,1.76,0,0,1-.25.58c-.16.27-.25.4-.29.4h0a.84.84,0,0,1,0-.27c.13-.65.31-1,.5-.84,0,0,0,0,0,0l0,0a3.15,3.15,0,0,0,.57.41l.13-.19c.4-.64.63-.86.7-.7s.18.13.26,0a.63.63,0,0,0,0-.5c-.08-.2-.06-.24.1-.17s.13.33,0,.6a1,1,0,0,1-.49.6,1,1,0,0,0-.46.52A2.63,2.63,0,0,0,39.48,83.27Zm-2.27-4.8,0,0c-.09,0-.09-.21,0-.37s.2-.26.24-.24a.67.67,0,0,1,0,.38C37.37,78.38,37.29,78.48,37.21,78.47Zm.82-1.9a.88.88,0,0,1-.13.65c-.1.16-.16.24-.21.22s-.09-.13-.12-.35C37.42,76.28,37.76,75.9,38,76.57Zm-.72.46a.27.27,0,0,1-.27.46.27.27,0,0,1-.1-.36A.27.27,0,0,1,37.31,77Zm-5,1.58c.13.07.21.19.17.26a.32.32,0,0,1-.4.17A.22.22,0,0,1,32,78.8C32.07,78.62,32.2,78.53,32.32,78.61Zm-1.2,7.54s0,0,0,0a.61.61,0,0,1,0-.32.56.56,0,0,1,.32-.39c.14-.05.15.1,0,.34S31.18,86.15,31.12,86.15Zm.95-1.06h0c-.19-.08-.25-.24-.13-.33a.51.51,0,0,0,.15-.43c0-.14-.16-.15-.3,0s-.33.19-.41.15-.05-.19.09-.31a.59.59,0,0,0,.18-.5c0-.16-.21-.15-.41,0s-.32.23-.28.15.17-.38.3-.66.3-.49.37-.44.08,0,.13-.08L30.6,80.8c-.22.39-.45.61-.58.53h0c-.06,0-.1-.14-.12-.31,0-.5.32-1.13.47-.8a.59.59,0,0,0,0,.08l.3-.19a3.87,3.87,0,0,0,.13-.5c.07-.34,0-.39-.1-.16s-.3.31-.4.25-.09-.17.2-.34c.46-.28.76-.75.41-.63-.14,0-.17,0-.07-.2.33-.57.44-.14.22.9,0,.18-.09.35-.14.52l.35-.22a1.55,1.55,0,0,1,.36-.69c.09-.06.08,0,0,.24s-.1.24,0,.26l.43-.27L33,80.73a.3.3,0,0,1,.35.15c.14.26.24.2.44-.3.15-.34.33-.57.42-.51s.08.26,0,.46l-.52,1s0,.09-.07.14l0,.06a.87.87,0,0,1,.12.58.91.91,0,0,1,.1-.1.47.47,0,0,0,.17-.48c-.07-.19,0-.23.09-.17s.15.22.11.39a.58.58,0,0,1-.35.41c-.07,0-.11,0-.13,0a1,1,0,0,1-.43.59l-.15.09,0,0a.68.68,0,0,1,.26.28c.12.27,0,.27-.57,0l-.23-.12A.81.81,0,0,1,32,83c-.17.32-.2.59,0,.51s.14,0-.06.19-.2.28.09.28.34.16.23.48-.06.51.05.56l.09,0A.42.42,0,0,1,32.07,85.09Zm1-5c.39-.42.55-.45.31-.05a.77.77,0,0,1-.4.34s-.06,0-.07,0S33,80.21,33.12,80Zm-.64,5a0,0,0,0,1,0,0h0l0,0s0-.08,0-.17c-.14-.35.14-.79.4-.64S32.8,84.79,32.48,85Zm.5.2s-.07,0-.08,0,0-.18.08-.36c.29-.49.42-.51.32,0A.56.56,0,0,1,33,85.2Zm.62.57c-.08,0-.16,0-.19.18a1.45,1.45,0,0,1-.44.6.62.62,0,0,1-.21.14h0s0-.14.21-.45.31-.66.24-.7,0-.26.12-.49.36-.32.54-.17a.47.47,0,0,1,.08.59C33.83,85.67,33.67,85.81,33.6,85.77Zm3.31-5.44-.15.09a.89.89,0,0,1-1.25-.24l-.57-.9-.07.16c-.1.21-.2.34-.26.33h0s0,0,0,0a.54.54,0,0,1,.18-.43.56.56,0,0,0,.1-.15L34.11,78l1.7-1.08,1.4,2.22A.9.9,0,0,1,36.91,80.33Zm1.54.2a1.93,1.93,0,0,1-.6.34h0s0,0,0-.11.19-.42.07-.44-.08-.19.13-.43a1.05,1.05,0,0,0,.29-.75c0-.19,0-.4.11-.45s.15.18.13.52c0,.52.06.6.48.46C39.76,79.42,39.5,79.79,38.45,80.53Z"/>
        <path class="cls-3" d="M68.45,109.16c-.09,0-.14-.1-.15-.34a53,53,0,0,1-14.94-3.59.37.37,0,0,1,0,.11c-.09.16-.2.26-.23.24s0-.18,0-.37a.19.19,0,0,1,0-.08c-1.59-.65-3.17-1.38-4.72-2.19-.12.36-.24.45-.46.36,1,.55,2.08,1.06,3.13,1.54.12-.1.23-.11.28,0a.19.19,0,0,1,0,.14q2.33,1,4.7,1.83h0c.05,0,.09,0,.1,0a53.78,53.78,0,0,0,10.28,2.34c.14-.25.28-.41.34-.37s0,.22,0,.4c.58.07,1.17.14,1.76.19C68.57,109.21,68.53,109.11,68.45,109.16Z"/>
        <path class="cls-3" d="M114.56,80a1.67,1.67,0,0,0,.17-1.27l-.15.19a6.36,6.36,0,0,1-1,.87,2.31,2.31,0,0,0-.82.89s0,0,0,.06a1.65,1.65,0,0,0,.32.06,1.14,1.14,0,0,1,.15-.23c.34-.46.35-.46.16.11,0,0,0,.08,0,.12A1.66,1.66,0,0,0,114.56,80Z"/>
        <path class="cls-3" d="M41.22,99.1a.55.55,0,0,1,.11-.3,1.17,1.17,0,0,1,.12-.2,53.73,53.73,0,0,1-7.64-6.83l-.06.11a1.84,1.84,0,0,1-.21.38c.63.68,1.28,1.35,2,2a.76.76,0,0,1,.3-.23c.14,0,.18,0,.09.2a1,1,0,0,1-.19.22A52.9,52.9,0,0,0,41.22,99.1Z"/>
        <path class="cls-3" d="M29.91,69.24l0,0,.88-.24a1.77,1.77,0,0,1,.19-.85c.08,0,.12.15.09.44a.88.88,0,0,0,0,.33l3.08-.84a3.19,3.19,0,0,1,.26-.42c.08-.11.08-.23,0-.28s0-.13,0-.27l-.55-2a1,1,0,0,1-.46.35.2.2,0,0,1-.11,0h0c-.19-.12,0-.69.35-1.13v0l-1.06.29a1.35,1.35,0,0,0-.06.34c0,.17-.15.13-.34-.11l-.1-.09-.73.2.25.18L31.09,65H31l-.41.11.14.36c.11.29.13.53.05.52l-.28,0a3.2,3.2,0,0,0-.72.14c-.25.07-.38.1-.42.07s0-.12.18-.28a1.4,1.4,0,0,0,.28-.56l-.55.15a1.61,1.61,0,0,1-.18.64c-.2.48-.17.56.15.4s.4-.09.39,0,.18.15.4,0,.38-.07.26.44c-.24,1-.47,1.37-.62,1s-.17-.17-.23.08-.15.36-.24.3-.29.12-.44.38c-.24.41-.26.39-.17-.2.12-.83.33-1.24.42-.81.05.25.08.21.13-.22a1.34,1.34,0,0,1,.25-.68c.1-.08,0-.06-.14,0a4.59,4.59,0,0,0-1,1.16,5.47,5.47,0,0,1-1,1.22c-.07.05-.12.06-.14.05h0c-.11-.06.24-.6.67-1a1.48,1.48,0,0,0,.37-1.19c0-.77.05-.88.37-.91a.66.66,0,0,0,.5-.46,1.45,1.45,0,0,1,.16-.33l-6,1.63,0,0c-.14.13-.18.27-.09.32s-.05.4-.36.82l-.16.24.69,2.53.84-.23h0c-.35-.13-.11-.72.27-.65.15,0,.2.27.1.55h0l5.23-1.42C29.77,69.24,29.85,69.21,29.91,69.24Zm-4.58-.5a1,1,0,0,1,.06-.41c.15-.61.42-1,.4-.52a2,2,0,0,1-.28.68C25.4,68.67,25.34,68.76,25.33,68.74Zm2.11-.41a1.32,1.32,0,0,1-.48.27c-.06,0,0-.09.07-.27a.76.76,0,0,1,.5-.28C27.82,68,27.8,68.07,27.44,68.33Zm.4,1.37c-.11,0-.19,0-.22,0h0a0,0,0,0,1,0,0,5.18,5.18,0,0,1,.56-1.11,2,2,0,0,1,0,.52C28.12,69.45,28,69.64,27.84,69.7Zm5.56-3.5a1.07,1.07,0,0,1-.35.53h0c-.06,0,0-.23.14-.5C33.52,65.58,33.62,65.56,33.4,66.2Zm-2.72.62c0,.16.19.14.34,0s.12-.1-.06.15c-.35.5-.24.76.18.4a3.93,3.93,0,0,0,.62-2c0-.21,0-.23.12-.07a.56.56,0,0,0,.57.16c.26-.06.34,0,.23.19a.33.33,0,0,0,.06.43c.13.07.11.24,0,.37a.32.32,0,0,1-.45,0c-.11-.12-.33,0-.5.17s-.27.34.09.05.34-.22,0,.31-.31.89.22.56c.23-.14.28-.06.16.29s-.23.41-.31.31-.23,0-.34.27-.14.27-.16.25,0-.16,0-.42c0-.49-.07-.58-.44-.46s-.46,0-.42-.52C30.59,66.84,30.64,66.67,30.68,66.82Z"/>
        <path class="cls-3" d="M44.44,11.64h0a.64.64,0,0,1-.33.2.12.12,0,0,1-.08,0l-.16.09,4.56,8.36a.63.63,0,0,1,.75-.24c.24.1.41.24.37.31l-.2.33a.27.27,0,0,1-.38.06.69.69,0,0,0-.34-.07l.18.32.15.06c.34.17.38.3.18.55l.4.73,1.55-.84a3.18,3.18,0,0,1,.27-.68c.18-.36.36-.53.51-.44s.26,0,.3-.19.13-.21.21,0,.22.15.39-.13a.67.67,0,0,0-.09-.79c-.32-.33-.31-.34.17-.11s.44.37.25.68-.16.4,0,.36.09.07.06.22l5.1-2.77L57,15.28a.94.94,0,0,1-.33.42s-.07,0-.09,0h0c-.06,0,0-.16.13-.41l.17-.27,0-.08-5.34,2.91-.56-1-.41.8c-.29.58-.41.79-.46.74s0-.11,0-.24a3.48,3.48,0,0,1,.74-1.6l-.33-.62a.55.55,0,0,1,0,.18c0,.18-.14.3-.22.25s-.11-.24-.07-.42.1-.26.17-.25l-3-5.56Zm.93.88s0,0,0-.14a.63.63,0,0,1,.33-.55c.2-.12.2,0,0,.36S45.41,12.53,45.37,12.52Zm9.7,6.37c-.09.16-.2.27-.24.25a.67.67,0,0,1,0-.38c0-.18.14-.28.23-.23S55.16,18.74,55.07,18.89Zm.83-2c.15-.05.15,0,0,.15s-.23.31-.18.41-.06.31-.25.48a.46.46,0,0,1-.2.13h0s0-.16.11-.46A1.43,1.43,0,0,1,55.9,16.89Zm-2.67,1.2c.26.05.37.22.26.41a.49.49,0,0,1-.6.15.55.55,0,0,1-.15-.08h0a.25.25,0,0,1-.11-.32A.6.6,0,0,1,53.23,18.09ZM50.46,19.4c.17-.2.37-.23.44-.08s.22.11.38-.16.34-.42.42-.37,0,.27-.36.6-.51.56-.47.8,0,.35-.22.41l-.09,0h0c-.08,0-.08-.1,0-.22s.11-.31,0-.33C50.22,20,50.17,19.71,50.46,19.4Zm-.35-2.67c.09.05.06.18-.07.29a2.5,2.5,0,0,0-.29,1.16c-.08,1.08-.29,1.55-.59,1.37h0c-.12-.07-.07-.46.1-.87s.27-.8.19-.85,0-.33.17-.64S50,16.68,50.11,16.73Z"/>
        <path class="cls-3" d="M117.17,86.82h0c-.18-.1.35-1,.69-1.09.18-.06.19-.17,0-.26a.47.47,0,0,1-.15-.17A53.24,53.24,0,0,1,107.11,97a1.64,1.64,0,0,0,0,.68,53.72,53.72,0,0,0,10.51-11.3C117.42,86.63,117.24,86.82,117.17,86.82Z"/>
        <path class="cls-3" d="M58.8,5.21l.4,1.63c.07-.06.14-.09.2-.06a.37.37,0,0,1,.08.36c0,.11-.09.17-.17.17L61,14.18a.18.18,0,0,1,.1,0c.11.05.13-.17.06-.49s-.06-.58.14-.58.3-.1.36-.6c0-.32.11-.56.16-.54s0,.21,0,.4.11.34.33.34.34.09,0,.53-.38.57-.28.63.21-.05.25-.24.14-.29.23-.23,0,.47-.55.86a1.86,1.86,0,0,1-.66.31l.53,2.13L64.42,16c.16-.26.35-.42.42-.38s0,.13-.09.3l.59-.15-.15-.61-.1,0H65c-.07,0-.07-.1,0-.23a.43.43,0,0,1,.11-.12L62.49,4.3Zm3.89,6.71c-.14.4-.3.57-.38.5s-.09-.24,0-.56c.12-.52.18-.62.35-.52S62.78,11.67,62.69,11.92Zm.39-1.83c.1.06.21,0,.25-.22s.11-.32.15-.3.05.19,0,.36-.44.51-.56.41h0a.2.2,0,0,1,0-.14C62.89,10.08,63,10,63.08,10.09Zm-.69.28c.18-.19.18-.11,0,.22s-.23.36-.27.36h0s0,0,0,0A1.21,1.21,0,0,1,62.39,10.37Zm-.75.38a.43.43,0,0,1,.1.44c0,.19.06.3.21.25s.15,0-.12.2-.27.15-.33.1-.07-.2,0-.46S61.55,10.69,61.64,10.75ZM60.5,9.32c.1.06.11.31,0,.57s0,.43.11.38.13,0,0,.18-.26.22-.31.2h0c-.07,0-.05-.24,0-.72S60.4,9.26,60.5,9.32Zm.18-1.61a.67.67,0,0,1-.75.3.29.29,0,0,1-.16-.35c0-.23.1-.23.14,0s.11.21.22-.11.26-.41.46-.33S60.8,7.5,60.68,7.71Z"/>
        <path class="cls-3" d="M25,31.25l-.07,0-.18.35.09,0C25.15,31.41,25.17,31.38,25,31.25Z"/>
        <path class="cls-3" d="M87.28,111.49h0a.51.51,0,0,0,.22-.24c.09-.15.09-.32,0-.37s-.19.06-.23.24A.64.64,0,0,0,87.28,111.49Z"/>
        <path class="cls-3" d="M20.36,46l.17,0a53.29,53.29,0,0,1,4.33-13.45,3.4,3.4,0,0,0-.22-.53.49.49,0,0,1-.06-.13c-.18.37-.36.73-.53,1.1l.06,0c.18.11.26.3.18.43a4.05,4.05,0,0,1-.74.68,53.84,53.84,0,0,0-3.6,12A1.34,1.34,0,0,0,20.36,46Z"/>
        <path class="cls-3" d="M30.87,54.48a.25.25,0,0,1,.05.29l1.85,0,0-3.81L25.05,51a4.11,4.11,0,0,1-.24.39,6.42,6.42,0,0,1-1.3,1.67c-.23.08-.24.18,0,.32s.16.22,0,.24a.66.66,0,0,0-.44.31c-.09.16,0,.27.16.26s.22.06.08.19a.28.28,0,0,1-.32,0l-.13-.08a1.24,1.24,0,0,1-.56-.9c0-.39.65-1.13.86-1s0,.28-.09.51-.33.37-.42.31-.18,0-.19.09c0,.31.6.18.85-.18.12-.18.59-.88,1-1.56.15-.21.27-.4.38-.57L22,51c0,.18,0,.28-.1.24a.29.29,0,0,1-.14-.24h-.85l.05,5.21c.13-.16.28-.35.47-.55.4-.44.63-.56.72-.36s.16.16.21,0a.32.32,0,0,0-.34-.37c-.31,0-.33,0-.06-.14.63-.21,1.44,0,1.25.27s-.24.25-.32.2-.29.15-.46.44c-.31.52-1,.8-1.2.5-.06-.09-.12,0-.13.31a1.75,1.75,0,0,1-.13.62L21,61l3,0L24,54.83l6.6-.06C30.63,54.55,30.77,54.43,30.87,54.48ZM21,52.66h0c0-.06,0-.3.13-.67s.32-.57.39-.52.12.11.11.15l-.27.6C21.2,52.52,21.08,52.66,21,52.66Zm1.8-.46c-.07,0,0-.14.12-.29s.19-.26.11-.3-.26,0-.4.22-.19.08-.07-.26.21-.44.23-.31.16.14.31,0,.33-.2.41-.15,0,.2-.11.32a.23.23,0,0,0,0,.39c.23.14.21.18-.11.29s-.43.12-.5.07Zm.41,4.71c.13,0,.22.11.2.34a.79.79,0,0,1-.5.69c-.2.12-.31.18-.32.16h0s.07-.12.23-.29.31-.5.25-.62A.19.19,0,0,1,23.22,56.91ZM22,57.58a1.18,1.18,0,0,1-.33.22h0s0-.08.07-.23a1.9,1.9,0,0,1,.64-.62c.22-.13.34-.12.26,0A3.16,3.16,0,0,1,22,57.58ZM31.52,54c.1.06.09.16,0,.22a.11.11,0,0,1-.11,0,.39.39,0,0,1-.16-.26.7.7,0,0,1,.3-.71c.33-.28.34-.26.1.16C31.47,53.66,31.43,53.93,31.52,54ZM30,54.19c-.09,0-.08-.21,0-.37s.19-.26.23-.24,0,.19,0,.37S30.05,54.24,30,54.19Zm.63-.37c-.09-.06-.08-.23,0-.38s.19-.26.23-.24a.64.64,0,0,1,0,.37C30.78,53.75,30.68,53.87,30.59,53.82ZM31.42,52h0s0,0,0-.09.2-.28.44-.4.37-.1.26.09S31.55,52.09,31.42,52Zm1-.24a2,2,0,0,1-.28.68c-.11.19-.17.27-.19.25a1.51,1.51,0,0,1,.07-.41C32.2,51.68,32.48,51.32,32.46,51.77Z"/>
        <path class="cls-3" d="M97.76,22.77a1.42,1.42,0,0,1,.34-.35c.23-.14.19,0-.15.41l-.07.07,2.43,2.49,1.54-.81,2.9,3-.84,1.53L106.72,32l5.47-11.38-3.09-3.17L97.59,22.6Zm9.33,2.57c.14-.23.18,0,.1.57a2.52,2.52,0,0,1-.08.43s0-.11,0-.36A2.11,2.11,0,0,1,107.09,25.34Zm-1.7,4.31h0a.21.21,0,0,1-.08-.1.65.65,0,0,1,0-.56c.09-.14.18-.16.2,0s.18.09.33-.07.13,0-.07.32S105.47,29.69,105.39,29.65Zm2.51-4c.32-.27.32-.21,0,.3-.2.35-.43.59-.52.54h0C107.22,26.4,107.39,26.1,107.9,25.67ZM107,27a1.36,1.36,0,0,1-.6,1.08s0,0-.06,0,0-.21.17-.45a1.29,1.29,0,0,0,.24-.83c-.05-.14,0-.22.06-.18A.49.49,0,0,1,107,27Zm1.58-3.73c-.25.27-.29.42-.12.44s.06.37-.34,1.08-.51.87-.59.81-.06-.12-.09-.25c-.07-.41,0-.5.28-.59.47-.13.92-.9.5-.86a.48.48,0,0,0-.39.38c-.05.2-.1.22-.13.05a1.38,1.38,0,0,1,.82-1.26C108.92,22.86,108.93,22.89,108.62,23.24Zm1.21-2.62c.3,0,.3,0,0,.2a.46.46,0,0,1-.36.1s0,0,0-.07S109.62,20.64,109.83,20.62Zm-1.62.63.05.05-2.16,3.83-1.79-1.84Zm-3.27-.59c.15.08.11.19-.15.37s-.33.34-.26.54,0,.16,0,.17h0s0,0-.1-.1C104.25,21.36,104.68,20.5,104.94,20.66Zm.23-1.13s0,.19,0,.38-.12.27-.2.25h0c-.08,0-.08-.22,0-.37S105.14,19.51,105.17,19.53Z"/>
        <path class="cls-3" d="M40.94,32.91c-.19.27-.38.54-.56.82C40.57,33.69,40.82,33.27,40.94,32.91Z"/>
        <path class="cls-3" d="M38.41,38.22c.33-.65.67-1.3,1-1.93a.93.93,0,0,0-.27-.21A.82.82,0,0,0,39,36l-.25.44a.68.68,0,0,1,0,.58c-.15.45-.22.62-.31.6a0,0,0,0,1,0,0h0a1.28,1.28,0,0,1-.18-.2l0,0c-.06.12-.12.25-.19.37a.61.61,0,0,1,.05.12C38.18,38.07,38.31,38.21,38.41,38.22Z"/>
        <path class="cls-3" d="M89.85,90.89c0-.11,0-.2.05-.28a38.89,38.89,0,0,1-24.79,2.92c-.06.1-.12.16-.15.16h0s0,0,0,0a.56.56,0,0,1,0-.15c-.94-.2-1.89-.45-2.83-.72,0,.11-.13.17-.19.15s-.09-.06-.12-.13a.5.5,0,0,1,0-.13l-.72-.23a.44.44,0,0,1-.07.22c-.07.13-.15.14-.18,0s-.09,0-.21.18a40.22,40.22,0,0,0,5,1.33.36.36,0,0,0,0-.18c0-.14,0-.21.05-.16a.77.77,0,0,1,.25.34s0,0,0,0a39.4,39.4,0,0,0,12.58.32.16.16,0,0,1,0-.12.72.72,0,0,1,.33-.21c.13,0,.16,0,.07.21l0,.06a39.62,39.62,0,0,0,11-3.27A1.2,1.2,0,0,1,89.85,90.89Z"/>
        <path class="cls-3" d="M40.84,33.76a.35.35,0,0,1-.46.17.3.3,0,0,1-.08-.07c-.27.41-.54.83-.79,1.25.17-.19.39-.31.48-.25s.07.18-.23.39-.4.38-.36.58.1.17.16,0c.21-.43.34-.58.38-.43l.23-.38s0-.08,0-.12c0-.76.16-.86.26-.28.17-.26.34-.53.52-.79S40.94,33.59,40.84,33.76Z"/>
        <path class="cls-3" d="M37.84,38.59c.18-.16.26-.32.17-.38s-.17,0-.29.19l-.48,1c0,.09.19.09.37,0s.23-.09.24,0c.14-.3.28-.61.43-.91l-.27.16C37.68,38.79,37.63,38.78,37.84,38.59Z"/>
        <path class="cls-3" d="M51.55,21.21l-.08.1,1.1-.59C52.45,20.43,52,20.6,51.55,21.21Z"/>
        <path class="cls-3" d="M36,66.82a.2.2,0,0,1-.07-.25l-.12-.4a.39.39,0,0,0-.05.13c0,.19-.13.21-.21,0s-.13-.17-.26,0c.1.33.19.66.3,1a.58.58,0,0,1,.5-.2Z"/>
        <path class="cls-3" d="M43.62,30.23l-.18.31a38.49,38.49,0,0,1,7.94-7.18,1.55,1.55,0,0,1,.23-.81,39.18,39.18,0,0,0-7.23,6.11A4.68,4.68,0,0,1,43.62,30.23Z"/>
        <path class="cls-3" d="M60.19,92.13l-.06,0-.25.49.2.07Z"/>
        <path class="cls-3" d="M65.71,106.91c-.08.08-.17.18-.28.28l-.33.31.68.18Z"/>
        <path class="cls-3" d="M97.79,86.25c-.32,0-.3-.3-.06-.57l-.83.65c-.07.21-.18.3-.35.27l-.26.19s0,.06,0,.15a1.68,1.68,0,0,1-.58.71c-.21.17-.33.25-.38.24s0-.15,0-.47a39.42,39.42,0,0,1-4.79,2.84l-.21.53-.09.22c.55-.27,1.1-.55,1.64-.84l0,0c.27-.5.53-.81.64-.75s.08.16,0,.23a.57.57,0,0,0-.21.33,39.32,39.32,0,0,0,5.49-3.69A.21.21,0,0,0,97.79,86.25Z"/>
        <path class="cls-3" d="M34.7,68l-.09-.34a2.58,2.58,0,0,0-.15.4Z"/>
        <path class="cls-3" d="M36.3,41.71s0,0,.06-.16Z"/>
        <path class="cls-3" d="M42,31.87c-.2-.12-.18-.15.18-.3s.27-.17,0-.23c-.2.26-.4.52-.59.79v.06c-.08.47,0,.53.15.23s.06.08-.12.6c.27-.38.55-.75.83-1.12A.41.41,0,0,1,42,31.87Z"/>
        <path class="cls-3" d="M34,57.34c0-.18.1-.35.41-.54a38.57,38.57,0,0,1,.19-5.37,2.84,2.84,0,0,1-.21.43c-.11.18-.17.27-.19.25s0-.15.06-.4,0-.55-.09-.51H34a39.26,39.26,0,0,0-.17,6.5A.58.58,0,0,0,34,57.34Z"/>
        <path class="cls-3" d="M43.59,29.63h0s.16-.11.33-.33.34-.46.28-.46c-.21.23-.42.46-.62.7C43.56,29.6,43.56,29.63,43.59,29.63Z"/>
        <path class="cls-3" d="M46.72,84.1c.07,0,0,.27-.06.54l.08.07.13-.22.16-.24-.83-.78-.18.16c-.09.08-.16.12-.19.11h0s0-.14.11-.44l0-.06c-.71-.69-1.38-1.41-2-2.14l-.12.16-.23.27a39.28,39.28,0,0,0,2.78,2.85C46.46,84.18,46.61,84,46.72,84.1Z"/>
        <path class="cls-3" d="M43.64,81.14a2.1,2.1,0,0,1,.15-.22A41.64,41.64,0,0,1,41,77.22c-.1.1-.2.14-.25.11a.1.1,0,0,1-.05-.06.46.46,0,0,1,.11-.34l-.37-.58a3.55,3.55,0,0,1-.36.45c.3.46.61.92.92,1.37.27-.42.38-.42.28,0a.44.44,0,0,1-.1.22c.73,1,1.52,2,2.35,3A2.43,2.43,0,0,1,43.64,81.14Z"/>
        <path class="cls-3" d="M40.25,76.11c-.32-.5-.62-1-.91-1.52h-.15s0-.1.06-.17a38.57,38.57,0,0,1-2.93-6.69c-.14.17-.27.35-.4.52.06.16.11.31.16.46.09-.13.18-.22.21-.2s0,.18,0,.36a.68.68,0,0,1-.08.19,39.21,39.21,0,0,0,3.69,7.53C40,76.45,40.13,76.28,40.25,76.11Z"/>
        <path class="cls-3" d="M30.2,76a.38.38,0,0,0,.16-.15l-.23.14A.06.06,0,0,0,30.2,76Z"/>
        <path class="cls-3" d="M61.88,106.62l2.79.76.17-.28c.23-.36.43-.54.46-.41s.12,0,.22-.28a1.46,1.46,0,0,1,.13-.28L65,98h0l-.05,0h0l0,0c-.06,0,0-.21.08-.47l-.21-2.46-4.27-1.16-2.58,3.63,0,.05c.08.15.26.12.41-.1l.53-.78c.15-.23.4-.33.55-.24a.23.23,0,0,0,.36-.17c.09-.41.14-.38.22.1.05.3,0,.39-.42.49a2.06,2.06,0,0,0-.83.51c-.19.22-.25.36-.13.32s.06.26-.13.67a2,2,0,0,1-.56.81h0c-.07,0,0-.24.18-.53s.25-.59.06-.57-.3-.16-.32-.38v0l-4.63,6.54,3.76,1,.27-.44a2.1,2.1,0,0,1,.2-.47c.26-.49.34-.64.34-.39l.11-.19,4,1.1Zm-7.17-3.47a.63.63,0,0,1,0-.37c0-.18.15-.28.23-.23s.09.21,0,.37S54.75,103.18,54.71,103.15Zm3.16-2.65s0,.19,0,.37-.14.3-.23.25h0c-.08-.05-.08-.22,0-.38S57.84,100.48,57.87,100.5Zm-.77,1.43-.05,0c-.13-.08-.12-.24,0-.36s.32-.19.4-.14.07.2,0,.36A.34.34,0,0,1,57.1,101.93Zm.69,1a.22.22,0,0,1-.1,0c-.06,0-.06-.1,0-.22s.25-.26.33-.21a.16.16,0,0,1,.07.21A.62.62,0,0,1,57.79,102.89Zm5.45-4.11c.06.35,0,.38-.19.26a.48.48,0,0,1-.19-.49C63,98.13,63.16,98.25,63.24,98.78Zm.89-2.87c0-.24,0-.37.12-.31a.32.32,0,0,1,.11.35,3,3,0,0,1-.28.58c-.13.21-.27.29-.36.25s-.12-.16,0-.38.2-.26.31-.2S64.18,96.21,64.13,95.91Zm-4.83,5.52,2.32-3.74.07,0,.06,3.35c.1,0,.1,0,0,.11v.94Zm4.41-1.06a.17.17,0,0,1-.12,0s0-.11,0-.2a.92.92,0,0,1,.42-.37c.14,0,.18,0,.09.2A1,1,0,0,1,63.71,100.37Zm-1.2,2.79c.05-.31.66-1.62.65-1.39a2.24,2.24,0,0,0,.11.28,1.47,1.47,0,0,1-.26.87c-.29.49-.28.54,0,.27s.35-.26.1.15-.34.4-.47.36l0,0h0C62.53,103.62,62.48,103.44,62.51,103.16Z"/>
        <path class="cls-3" d="M96.39,95.56s0,0,.06,0l0-.41C96.22,95.44,96.15,95.64,96.39,95.56Z"/>
        <path class="cls-3" d="M48.82,85.77q-.57-.45-1.11-.93c-.06,0-.1.06-.11,0a.25.25,0,0,1,0-.13l-.3-.27a3.37,3.37,0,0,1-.32.45l.39.34,0,0c.38.33.77.65,1.17,1A3.24,3.24,0,0,0,48.82,85.77Z"/>
        <path class="cls-3" d="M59.73,92a38.71,38.71,0,0,1-6.31-3,40.33,40.33,0,0,1-4.33-3,2,2,0,0,1,0,.35s-.14,0-.32,0a39.47,39.47,0,0,0,4.41,3L54.2,90c.1-.4.56-.34.75.1a.49.49,0,0,1,0,.33,39.77,39.77,0,0,0,4.39,2A1.85,1.85,0,0,1,59.73,92Z"/>
        <path class="cls-3" d="M80.9,17.41q1.48.3,2.94.72c.06-.16.14-.33.22-.5-.35-.11-.71-.2-1.06-.29l0,0c-.1.17-.21.21-.3.16a.46.46,0,0,1-.2-.32l-1.37-.31A2.19,2.19,0,0,1,80.9,17.41Z"/>
        <path class="cls-3" d="M52,22.45a.39.39,0,0,1,.12.43,39,39,0,0,1,28.53-5.52,3,3,0,0,1,.29-.5,39.55,39.55,0,0,0-17.06.38.38.38,0,0,0,0,.15c0,.26,0,.31-.19.21h0a.37.37,0,0,1-.13-.28A39.47,39.47,0,0,0,51.85,22.4.27.27,0,0,1,52,22.45Z"/>
        <path class="cls-3" d="M35.25,66.06l.4-.59c-.19-.72-.36-1.44-.51-2.17-.13.14-.23.21-.29.2h0c-.06,0-.06-.11.09-.35s.05-.26-.08-.22-.18,0-.1-.18a.75.75,0,0,1,.23-.19c-.06-.36-.13-.72-.18-1.09l-.2.19h0l.18-.28c0-.34-.1-.69-.14-1l0,0s0-.1,0-.2c-.12-1-.2-2.08-.25-3.12a.27.27,0,0,0-.1.11,1,1,0,0,0-.1.58,2,2,0,0,1-.24.89,39,39,0,0,0,.76,5.17c.07.05.11.19.09.43C34.92,64.81,35.08,65.44,35.25,66.06Z"/>
        <path class="cls-3" d="M84.37,17.91c.25,0,.26.13,0,.39A38.25,38.25,0,0,1,93,22.07a38.77,38.77,0,0,1,10.82,9.49c.11-.16.2-.27.23-.25a1.27,1.27,0,0,1-.09.43,39,39,0,0,1,7.58,17.36,3.2,3.2,0,0,1,.44-.61,39.42,39.42,0,0,0-3.63-10.8.39.39,0,0,1-.06.28c-.09.15-.2.26-.23.24s0-.19,0-.37.15-.29.23-.24l0,0a39.24,39.24,0,0,0-14.19-15.5.32.32,0,0,1-.18.05h0c-.06,0-.06-.06,0-.16l-.68-.41a39.52,39.52,0,0,0-9-3.93C84.17,17.84,84.22,17.93,84.37,17.91Z"/>
        <path class="cls-3" d="M33.65,64.6c-.22.4-.26.61-.09.56a.91.91,0,0,0,.3-.3l-.12-.42A.89.89,0,0,1,33.65,64.6Z"/>
        <path class="cls-3" d="M30.2,65.23h0Z"/>
        <path class="cls-3" d="M34.06,51c.17-.28.46-.23.54,0,0-.2,0-.4.08-.6,0,0,0-.06,0-.08-.07-.36,0-.53,0-.38l0,0,.12-.77c-.05-.21-.17-.35-.29-.34-.33,0,0-.53.34-.66a.11.11,0,0,1,.12,0,38.18,38.18,0,0,1,2.69-8.55c-.15.23-.36.37-.48.3s-.17,0-.27,0-.16.37-.23.56l.07-.08c.27-.23.3-.18.13.27a5.8,5.8,0,0,1-.62,1.11l-.17.23A39.21,39.21,0,0,0,34.06,51Z"/>
      </g>
    </g>
  </g>
</svg>
