<svg xmlns="http://www.w3.org/2000/svg" viewBox="0 0 38.11 115.49">
  <defs>
    <style>
      .cls-1 {
        fill: #74bdd9;
      }

      .cls-2 {
        fill: #514651;
      }

      .cls-3 {
        fill: #ad5e43;
      }

      .cls-4 {
        fill: #fff;
      }

      .cls-11, .cls-12, .cls-14, .cls-15, .cls-5, .cls-6, .cls-7, .cls-9 {
        fill: none;
      }

      .cls-6 {
        stroke: #bacbd3;
      }

      .cls-11, .cls-12, .cls-14, .cls-15, .cls-6, .cls-7 {
        stroke-linecap: round;
      }

      .cls-11, .cls-12, .cls-14, .cls-15, .cls-6, .cls-7, .cls-9 {
        stroke-miterlimit: 10;
      }

      .cls-11, .cls-12, .cls-14, .cls-6, .cls-7 {
        stroke-width: 0.11px;
      }

      .cls-7, .cls-9 {
        stroke: #252020;
      }

      .cls-8 {
        fill: #892848;
      }

      .cls-9 {
        stroke-width: 0.39px;
      }

      .cls-10 {
        fill: #563533;
      }

      .cls-11 {
        stroke: #320830;
      }

      .cls-12 {
        stroke: #681430;
      }

      .cls-13 {
        fill: #252020;
      }

      .cls-14 {
        stroke: #ba89cf;
      }

      .cls-15 {
        stroke: #c62c15;
        stroke-width: 0.33px;
      }

      .cls-16 {
        fill: #ffcc4b;
      }

      .cls-17 {
        fill: #474747;
      }
    </style>
  </defs>
  <title>char-2</title>
  <g id="LH-PH">
    <ellipse class="cls-1" cx="19.05" cy="109.39" rx="17.69" ry="4.82"/>
    <g>
      <g>
        <g>
          <path class="cls-2" d="M18.75,79.06c.07-.71.15-1.42.21-2.13q.15-1.5.24-3c.05-.9.1-1.8.1-2.69a12,12,0,0,0-.23-2.32,5.8,5.8,0,0,0-.8-2.08.13.13,0,0,1,0-.07,4.45,4.45,0,0,0-3.92-.13h0a4.43,4.43,0,0,0-.83.5,4.91,4.91,0,0,0-.57.52,3.08,3.08,0,0,0-.63,1.12,3.86,3.86,0,0,0-.12.59c0,.2-.07.4-.11.6-.06.41-.12.82-.16,1.23-.09.83-.14,1.64-.16,2.45,0,.2,0,.4,0,.6v.6c0,.4,0,.8,0,1.2,0,3.2,0,6.46,0,9.66l0,1.2v1.2c0,.8,0,1.6.07,2.41,0,.4.06.8.08,1.2l0,1.2.08,2.4c0,.8.05,1.6.1,2.4,0,.4,0,.8.08,1.2l.1,1.2c.14,1.6.32,3.2.57,4.8a1,1,0,0,0,.8.79A1,1,0,0,0,14.7,105h0c.34-1.58.61-3.15.87-4.73l.19-1.18.17-1.18c.11-.79.22-1.58.32-2.36s.2-1.58.31-2.36c.05-.4.11-.79.17-1.18s.14-.79.22-1.18c.16-.78.25-1.57.35-2.35l.14-1.18.14-1.18.07-.59,0-.29,0-.29c.06-.39.11-.78.17-1.17.12-.78.26-1.56.4-2.33s.3-1.55.45-2.33Z"/>
          <path class="cls-3" d="M14.15,91.7a5.94,5.94,0,0,1-2.43-.42l0,.44,0,1.2.08,2.4c0,.8.05,1.6.1,2.4,0,.4,0,.8.08,1.2l.1,1.2c.14,1.6.32,3.2.57,4.8a1,1,0,0,0,.8.79A1,1,0,0,0,14.7,105h0c.34-1.58.61-3.15.87-4.73l.19-1.18.17-1.18c.11-.79.22-1.58.32-2.36s.2-1.58.31-2.36c.05-.4.11-.79.17-1.18l.12-.68A11.24,11.24,0,0,1,14.15,91.7Z"/>
          <path class="cls-3" d="M11.79,92.92l.08,2.4c0,.8.05,1.6.1,2.4,0,.4,0,.8.08,1.2l.06.72a7,7,0,0,0,3.29-.17,1.71,1.71,0,0,0,.3-.09l.06-.33.17-1.18c.11-.79.22-1.58.32-2.36s.2-1.58.31-2.36c.05-.4.11-.79.17-1.18l.12-.68a11.24,11.24,0,0,1-2.7.41,5.94,5.94,0,0,1-2.43-.42l0,.44Z"/>
          <path class="cls-2" d="M13.39,100a6.64,6.64,0,0,1-1.26-.12l0,.22c.14,1.6.32,3.2.57,4.8a1,1,0,0,0,.8.79A1,1,0,0,0,14.7,105h0c.34-1.58.61-3.15.87-4.73l.09-.56A8.73,8.73,0,0,1,13.39,100Z"/>
          <path class="cls-4" d="M13.86,100.19c-.9,0-1.61,1.13-2,1.79-.26.49-.56,1-.87,1.42a6.45,6.45,0,0,1-.29.59.13.13,0,0,1,0,.07c-.24.32-.46.65-.68,1a13.08,13.08,0,0,0-1.31,2.55c-.72,2,.23,3.2,2.27,2.17A14.73,14.73,0,0,0,14.34,107c1-1,.95-2.42,1-3.78C15.3,102.39,15.21,100.18,13.86,100.19Z"/>
        </g>
        <path class="cls-5" d="M12,90.45a10,10,0,0,0,4.7-.14"/>
        <path class="cls-6" d="M11.64,89.73a11.09,11.09,0,0,0,5.94.06"/>
        <path class="cls-4" d="M11.34,98.5a7,7,0,0,0,5,.4l-1.57,6.83-3.21-.58Z"/>
        <path class="cls-7" d="M9.37,106.59c1.33,0,2.43,1.33,3.73,1.1a12.35,12.35,0,0,1-2.63-3.23,30.26,30.26,0,0,0,3,1.31l-2.67-2.6a7.09,7.09,0,0,0,2.74,1.31,3.17,3.17,0,0,0,2.84-.77"/>
        <path class="cls-7" d="M19.12,75.22c.05-1.36.15-2.84.2-4.19"/>
      </g>
      <g>
        <g>
          <path class="cls-2" d="M20.18,79.06c-.07-.71-.15-1.42-.21-2.13q-.15-1.5-.24-3c-.05-.9-.1-1.8-.09-2.69a11.26,11.26,0,0,1,.22-2.32,5.8,5.8,0,0,1,.8-2.08.11.11,0,0,0,0-.07,4.41,4.41,0,0,1,3.9-.13h0a4.66,4.66,0,0,1,.82.5,4.77,4.77,0,0,1,.56.52,3.08,3.08,0,0,1,.63,1.12,5.6,5.6,0,0,1,.12.59c0,.2.07.4.1.6.06.41.12.82.17,1.23.09.83.14,1.64.15,2.45,0,.2,0,.4,0,.6v.6l0,1.2c0,3.2-.05,6.46,0,9.66l0,1.2v1.2c0,.8,0,1.6-.06,2.41,0,.4-.07.8-.09,1.2l0,1.2L27,95.32c0,.8-.06,1.6-.11,2.4,0,.4,0,.8-.08,1.2l-.1,1.2c-.14,1.6-.31,3.2-.56,4.8a1,1,0,0,1-.79.79A1,1,0,0,1,24.2,105h0c-.34-1.58-.61-3.15-.86-4.73l-.19-1.18L23,97.87c-.12-.79-.22-1.58-.32-2.36s-.19-1.58-.3-2.36L22.18,92c-.06-.4-.14-.79-.21-1.18-.16-.78-.26-1.57-.36-2.35l-.13-1.18-.14-1.18-.07-.59,0-.29,0-.29c-.06-.39-.11-.78-.17-1.17-.12-.78-.25-1.56-.39-2.33s-.3-1.55-.45-2.33Z"/>
          <path class="cls-3" d="M24.74,91.7a5.84,5.84,0,0,0,2.41-.42l0,.44,0,1.2L27,95.32c0,.8-.06,1.6-.11,2.4,0,.4,0,.8-.08,1.2l-.1,1.2c-.14,1.6-.31,3.2-.56,4.8a1,1,0,0,1-.79.79A1,1,0,0,1,24.2,105h0c-.34-1.58-.61-3.15-.86-4.73l-.19-1.18L23,97.87c-.12-.79-.22-1.58-.32-2.36s-.19-1.58-.3-2.36L22.18,92c0-.23-.07-.46-.12-.68A11.15,11.15,0,0,0,24.74,91.7Z"/>
          <path class="cls-3" d="M27.08,92.92,27,95.32c0,.8-.06,1.6-.11,2.4,0,.4,0,.8-.08,1.2l-.06.72a6.92,6.92,0,0,1-3.26-.17,1.71,1.71,0,0,1-.3-.09l-.05-.33L23,97.87c-.12-.79-.22-1.58-.32-2.36s-.19-1.58-.3-2.36L22.18,92c0-.23-.07-.46-.12-.68a11.15,11.15,0,0,0,2.68.41,5.84,5.84,0,0,0,2.41-.42l0,.44Z"/>
          <path class="cls-2" d="M25.49,100a6.46,6.46,0,0,0,1.25-.12l0,.22c-.14,1.6-.31,3.2-.56,4.8a1,1,0,0,1-.79.79A1,1,0,0,1,24.2,105h0c-.34-1.58-.61-3.15-.86-4.73l-.09-.56A8.51,8.51,0,0,0,25.49,100Z"/>
          <path class="cls-4" d="M25,99.92c.89,0,1.6,1.14,1.95,1.79a15.87,15.87,0,0,0,.87,1.42,4.53,4.53,0,0,0,.28.59.11.11,0,0,0,0,.07c.24.32.46.66.68,1a13.52,13.52,0,0,1,1.3,2.54c.71,2-.24,3.2-2.26,2.17a14.75,14.75,0,0,1-3.33-2.72c-1-1-.94-2.43-.95-3.78C23.6,102.13,23.69,99.92,25,99.92Z"/>
        </g>
        <path class="cls-5" d="M26.86,90.45a9.75,9.75,0,0,1-4.65-.14"/>
        <path class="cls-6" d="M27.23,89.73a10.91,10.91,0,0,1-5.89.06"/>
        <path class="cls-4" d="M27.53,98.5a6.87,6.87,0,0,1-5,.4l1.29,6.57,3.45-.32Z"/>
        <path class="cls-7" d="M29.48,106.59c-1.31,0-2.41,1.33-3.7,1.1a12.28,12.28,0,0,0,2.61-3.23,29,29,0,0,1-3,1.31l2.65-2.6a6.9,6.9,0,0,1-2.71,1.31,3.13,3.13,0,0,1-2.82-.77"/>
      </g>
      <g>
        <g>
          <path class="cls-8" d="M13,45.24c-.39.17-.45.52-.11.75s.53.21.68.35A.83.83,0,0,1,14,47a2.12,2.12,0,0,1-.18.71l-.25.8c-.29,1.11-.58,2.31-.86,3.5l-.87,3.64-.9,3.67L7.36,59.2l.3-.86L8,57.4l0-.11A2.51,2.51,0,0,1,8.11,57l0-.07,0-.07a.92.92,0,0,1,.21-.26,1.18,1.18,0,0,1,.78-.29,1.09,1.09,0,0,1,.88.5l.07.12h0v0a.82.82,0,0,1,.07.21,1,1,0,0,1,0,.31c0,.16,0,.31,0,.45a4.79,4.79,0,0,0,0,.84l-1.51.19-.23-.77-.11-.36s0-.11,0-.09,0,0,0,.09v0h0l.06.1a.86.86,0,0,0,.4.33,1,1,0,0,0,1-.16,1.77,1.77,0,0,0,.19-.23l0-.06,0,0c.07-.19.06-.18.07-.19s0,0,0,0l.12.7.17.77L7.89,59c.09-1.29.23-2.57.39-3.85s.32-2.56.58-3.84a32,32,0,0,1,.93-3.84,8.72,8.72,0,0,1,.79-2,2.92,2.92,0,0,1,1-.92,1.71,1.71,0,0,1,1-.24.7.7,0,0,1,.68.69Z"/>
          <path class="cls-3" d="M10.36,59.29A35.85,35.85,0,0,0,10,66c.05,2.27.22,4.55.39,6.84L8.73,73c-.4-2.29-.67-4.61-.84-6.94a37.89,37.89,0,0,1,0-7.14Z"/>
          <path class="cls-3" d="M11.21,72.34a.81.81,0,0,0-1-1A3.8,3.8,0,0,0,8,73.22a4.44,4.44,0,0,0,1.86,4.9c1.51.85,2.08.58,1.8-.22s-1-4-1-4A5.84,5.84,0,0,0,11.21,72.34Z"/>
          <path class="cls-3" d="M10.77,71.55A4.81,4.81,0,0,1,13.51,73a.52.52,0,0,1,0,.74.54.54,0,0,1-.7,0,3.55,3.55,0,0,0-2.15-.87.66.66,0,1,1,0-1.31h.08Z"/>
        </g>
        <path class="cls-9" d="M7.68,58.51a9.9,9.9,0,0,0,3.41.67"/>
      </g>
      <g>
        <g>
          <path class="cls-8" d="M25.46,45a.55.55,0,0,1,.23-.46,1,1,0,0,1,.68-.19,2.07,2.07,0,0,1,1,.41,3.2,3.2,0,0,1,1,1.1,17.08,17.08,0,0,1,.88,2.32,29.84,29.84,0,0,1,.95,4.6c.2,1.54.36,3.08.52,4.61l.11,1.16,0,.29V59l0-.05a.78.78,0,0,0-.05-.14v0a1.15,1.15,0,0,0-.08-.15,1,1,0,0,0-.26-.31,1.21,1.21,0,0,0-.34-.2,1.22,1.22,0,0,0-1.43.4l-.06.08-.09.19a.41.41,0,0,0,0,.07s0,0,0,0a.21.21,0,0,0,0-.07l.07-.23.14-.51a.7.7,0,0,1,.06-.19v0l0,.16v0s-.05,0,.21.36a1.05,1.05,0,0,0,1.3.15c.24-.19.11-.09.18-.15a1,1,0,0,0,.19-.33s0,0,0,0v0a.39.39,0,0,0,0,.09c-.13.32-.24.7-.35,1.06L28.83,59a11.9,11.9,0,0,1,0-1.2l0-.19,0-.09,0-.07a1,1,0,0,1,.2-.34c.07-.06-.06,0,.17-.15a1,1,0,0,1,1.26.15,1.25,1.25,0,0,1,.21.35v.05a.57.57,0,0,1,0,.18v.1l0,.38,0,.63,0,.34v.2c0,.06,0,.08,0,.17a.68.68,0,0,1,0,.15,2,2,0,0,1-.1.21l-.07.1a1.19,1.19,0,0,1-.52.4,1.32,1.32,0,0,1-.92,0,1.57,1.57,0,0,1-.34-.21,1.22,1.22,0,0,1-.28-.32.79.79,0,0,1-.08-.16v0a1.43,1.43,0,0,1-.08-.22l-.05-.18,0-.15-.06-.28L28,57.74c-.37-1.47-.86-2.92-1.36-4.34s-1-2.84-1.32-4.21c-.19-.67-.37-1.35-.5-1.92a1.06,1.06,0,0,1,.26-.87,1.11,1.11,0,0,1,.22-.18c.11-.07.2-.08.38-.19s.35-.23.36-.4-.12-.3-.32-.39Z"/>
          <path class="cls-3" d="M30.8,58.93a38.74,38.74,0,0,1,0,7.14c-.17,2.33-.44,4.65-.83,6.94l-1.67-.2c.17-2.29.35-4.57.4-6.84a36.73,36.73,0,0,0-.36-6.68Z"/>
          <path class="cls-3" d="M27.52,72.34a.81.81,0,0,1,1-1,3.78,3.78,0,0,1,2.19,1.84,4.44,4.44,0,0,1-1.86,4.9c-1.52.85-2.09.58-1.8-.22s1-4,1-4A5.47,5.47,0,0,1,27.52,72.34Z"/>
          <path class="cls-3" d="M28.09,72.85a3.6,3.6,0,0,0-2.16.87.52.52,0,0,1-.73-.06.53.53,0,0,1,0-.7A4.78,4.78,0,0,1,28,71.55h0a.65.65,0,0,1,.74.56.65.65,0,0,1-.55.74Z"/>
        </g>
        <path class="cls-9" d="M31.05,58.51a10,10,0,0,1-3.41.67"/>
      </g>
      <g>
        <path class="cls-2" d="M27,71.4a61.53,61.53,0,0,0-1.08-6.16c-.3-1.37-.56-2.79-1-4.14a12.37,12.37,0,0,0-2.21-4.37,5,5,0,0,0-4.22-1.85,4.77,4.77,0,0,0-3,1.94A11.63,11.63,0,0,0,14,60.09a36.94,36.94,0,0,0-1,4.15c-.39,1.83-.74,3.67-.95,5.52-.06.55-.1,1.09-.11,1.64Z"/>
        <path class="cls-8" d="M26.37,44.11a24.22,24.22,0,0,1-2.31-1.52,19.72,19.72,0,0,1-1.71-1.44,3.88,3.88,0,0,1-.77-.63,2.43,2.43,0,0,0-1.1-.56l-3.59.73-.12.08a.09.09,0,0,1,0,.06A10.23,10.23,0,0,1,15.59,42a17.66,17.66,0,0,1-2.49,1.79c-.48.3-1,.57-1.48.83a2.3,2.3,0,0,0-.29,1.36c.36,2.88,1.73,5.63,2,8.51.19,1.74-.25,3.48-.09,5.21s1.28,1.57,2.67,1.72A3.51,3.51,0,0,1,17,60.7a8.89,8.89,0,0,1,1.75-.55,6.6,6.6,0,0,1,2-.14,5,5,0,0,1,2,.56,3.79,3.79,0,0,1,.85.62c.9-.17,1.07,0,1.23-1.19A27.16,27.16,0,0,0,25,57a15.26,15.26,0,0,1,.16-2.87,14.94,14.94,0,0,1,.89-2.56,13.87,13.87,0,0,0,1.14-4A5,5,0,0,0,26.37,44.11Z"/>
        <path class="cls-10" d="M16.81,41.65c-.57,1.19,1.05,7.9,2.54,7.83.88,0,3.1-5.56,2.51-7.71-.16-.37-.42-.57-.13-1.08-1.31-1.51-.86-4.84-.86-4.84H17.75s.44,3.33-.86,4.84C17.14,41.14,17,41.35,16.81,41.65Z"/>
        <path class="cls-3" d="M21.73,40.69a3.26,3.26,0,0,1-.6-1.12,2.64,2.64,0,0,1-1.51.46,3.48,3.48,0,0,1-2.05-.71,3.6,3.6,0,0,1-.68,1.37c.25.45.07.66-.08,1-.57,1.19,1.05,7.9,2.54,7.83.88,0,3.1-5.56,2.51-7.71C21.7,41.4,21.44,41.2,21.73,40.69Z"/>
        <path class="cls-4" d="M17.06,59.54a12.63,12.63,0,0,0,3.93.19c.4,0,.79-.08,1.19-.15l0-.9c-.14-4.1-.41-8.2-.69-12.3-.07-1-.21-2.07-.25-3.11v-.16a5.65,5.65,0,0,0-.65.83,2,2,0,0,0,.15,2.56.06.06,0,0,1-.08.08,10.42,10.42,0,0,0-1.32,1.73A11,11,0,0,0,18,46.58a.06.06,0,0,1-.08-.08,2.06,2.06,0,0,0,.15-2.56,6.41,6.41,0,0,0-.65-.83v.16c-.05,1-.18,2.07-.25,3.11-.29,4.1-.55,8.2-.69,12.3,0,.24,0,.47,0,.7Z"/>
        <path class="cls-2" d="M22.12,57.93a15.85,15.85,0,0,1-1.68.26,7.08,7.08,0,0,1-3.94-.55l0,1c0,.94-.06,1.89-.08,2.84a23.47,23.47,0,0,0,2.68.26h.48a23.32,23.32,0,0,0,2.67-.26c0-1,0-1.9-.07-2.84Z"/>
        <path class="cls-8" d="M17.3,44.67s.36-2.78-.33-4.09l-1.17,1,.89,6.25.28-.19Z"/>
        <path class="cls-8" d="M21.23,44.67s-.37-2.78.32-4.09l1.17,1-.89,6.25-.28-.19Z"/>
        <path class="cls-11" d="M20,41l-.64.66"/>
        <path class="cls-12" d="M15.58,41.86a5.74,5.74,0,0,1,.18,5.27,26.5,26.5,0,0,1,.48,5.7"/>
        <path class="cls-12" d="M23,41.86a5.74,5.74,0,0,0-.18,5.27,26.06,26.06,0,0,0-.47,5.7"/>
        <path class="cls-7" d="M18.08,70.67l1,.62a.54.54,0,0,0,.32.11.45.45,0,0,0,.27-.18l2.72-2.85"/>
        <path class="cls-6" d="M12.4,67.57A1.18,1.18,0,0,0,13.46,67a9.39,9.39,0,0,0,2-4.47"/>
        <path class="cls-6" d="M26.13,67.15a5.27,5.27,0,0,1-1.85-4.52"/>
        <path class="cls-6" d="M20.51,58a72.73,72.73,0,0,1-.58,12.51"/>
        <path class="cls-13" d="M20.52,58.18c.54-.06,1.07-.14,1.6-.25,0-.17,0-.35,0-.52a14.72,14.72,0,0,1-2.2.29A6.38,6.38,0,0,1,16.53,57c0,.2,0,.4,0,.6A7.21,7.21,0,0,0,20.52,58.18Z"/>
        <path class="cls-12" d="M12.39,48.59a11.23,11.23,0,0,0,1.29,5.61"/>
        <path class="cls-12" d="M24.79,54.53a21.57,21.57,0,0,0,1.62-7.11"/>
        <path class="cls-12" d="M11.67,44.53a12.62,12.62,0,0,1,1.27,3.64"/>
        <path class="cls-12" d="M27.58,44.38a12.38,12.38,0,0,0-1.32,3.14"/>
        <polygon class="cls-8" points="25.17 54.14 25.6 60.45 22.18 62.06 21.96 54.68 24.25 55.9 25.17 54.14"/>
        <polygon class="cls-8" points="13.48 54.14 13.05 60.45 16.48 62.06 16.69 54.68 14.4 55.9 13.48 54.14"/>
      </g>
      <g>
        <path class="cls-13" d="M19.3,21.69c-.79,0-1.71.6-1.5,1.35a.89.89,0,0,0,.56-1.14,1.63,1.63,0,0,0-1-.94,3.07,3.07,0,0,0-3.87,1.93,2.45,2.45,0,0,0-1.6,1,1.31,1.31,0,0,0,.32,1.74,2,2,0,0,0-.79,3.78,1.68,1.68,0,1,0,2,2.71c-.14.67-.21,1.51.36,1.89a1.52,1.52,0,0,0,1.29.07,6.85,6.85,0,0,0,2.57-1.36c-.34,0-.43.54-.17.76a1.06,1.06,0,0,0,1,.09A4.94,4.94,0,0,0,21,31.92a.77.77,0,0,0,.22-.58c0-.2-.32-.36-.46-.2s.37.29.6.17a3.63,3.63,0,0,0,1.89-2.95c.08-1.45-1-2.52-1.22-3.83S20.94,21.71,19.3,21.69Z"/>
        <g>
          <ellipse class="cls-10" cx="14.34" cy="32.36" rx="1.56" ry="1.9" transform="translate(-5.57 3.09) rotate(-10.32)"/>
          <ellipse class="cls-10" cx="24.2" cy="32.36" rx="1.9" ry="1.56" transform="translate(-13.11 47.9) rotate(-75.82)"/>
          <path class="cls-3" d="M19.55,38.79h-.49c-2.23,0-4.09-2.87-4.29-4.89L14,28.31a4.78,4.78,0,0,1,4.46-5.07h1.7a4.76,4.76,0,0,1,4.45,5.1l-.81,5.59C23.62,35.93,21.76,38.79,19.55,38.79Z"/>
          <path class="cls-13" d="M16.76,25.54A2.85,2.85,0,0,1,18,25.38c.43.05.85.22,1.28.28h.14a.94.94,0,0,0,.41,0A7.62,7.62,0,0,1,22,25.39a1.35,1.35,0,0,1,1.27,1.49c-.05.45-.17.88-.2,1.33a5.31,5.31,0,0,0,.07,1.38,2.87,2.87,0,0,0,1,1.77l.44-3a4.76,4.76,0,0,0-4.45-5.1h-1.7A4.78,4.78,0,0,0,14,28.31l.4,3c.89-1.2.35-2.94.79-4.32A2.42,2.42,0,0,1,16.76,25.54Z"/>
          <rect class="cls-10" x="18.67" y="33.77" width="1.7" height="0.83" rx="0.41"/>
          <path class="cls-11" d="M18.6,35.81a1.2,1.2,0,0,0,.46.11,3.21,3.21,0,0,0,2-.51"/>
          <path class="cls-11" d="M19.08,36.48a.66.66,0,0,0,.61.2,1.08,1.08,0,0,0,.58-.34"/>
          <rect class="cls-14" x="14.41" y="30.4" width="4.44" height="3.7" rx="1.83"/>
          <rect class="cls-14" x="20.14" y="30.4" width="4.44" height="3.7" rx="1.83"/>
          <path class="cls-14" d="M18.5,32.07a1.55,1.55,0,0,1,2,0"/>
          <path class="cls-13" d="M23,31.23s0,.09,0,.13a.19.19,0,0,1-.14.05,4.77,4.77,0,0,0-2.06.54.79.79,0,0,1,.79-.73C22.38,31.15,22.88,31.39,23,31.23Z"/>
          <circle class="cls-13" cx="21.82" cy="31.75" r="0.41"/>
          <path class="cls-13" d="M15.81,31.23s0,.09,0,.13a.19.19,0,0,0,.14.05A4.77,4.77,0,0,1,18,32a.79.79,0,0,0-.79-.73C16.43,31.15,15.93,31.39,15.81,31.23Z"/>
          <circle class="cls-13" cx="16.99" cy="31.75" r="0.41"/>
          <path class="cls-11" d="M15.38,29.92a2.63,2.63,0,0,1,2.69.54"/>
          <path class="cls-11" d="M20.6,30.41a3,3,0,0,1,2.43-.7"/>
        </g>
        <path class="cls-15" d="M14.75,23.89l1.39,1.37"/>
        <path class="cls-15" d="M23.71,24.33a4.53,4.53,0,0,0-.6,1.13"/>
        <path class="cls-15" d="M17.59,22.52,18,23.81"/>
        <path class="cls-15" d="M20.52,22.78a7.31,7.31,0,0,1-.17,1.81"/>
        <path class="cls-15" d="M10.17,26.66a6.92,6.92,0,0,0,2.24.53"/>
        <path class="cls-15" d="M15.77,20.19,16.38,22"/>
        <path class="cls-15" d="M24.91,26.57a2.76,2.76,0,0,1-.91.67"/>
      </g>
    </g>
    <g>
      <g>
        <rect class="cls-16" x="0.01" width="34.26" height="11.46"/>
        <rect class="cls-16" x="30.69" y="7.12" width="7.41" height="8.18"/>
        <rect class="cls-16" x="0.45" y="12.72" width="3.07" height="3.32"/>
      </g>
      <g>
        <path class="cls-17" d="M15.19,8.37h-.75a.32.32,0,0,1-.2-.06.29.29,0,0,1-.12-.15l-.24-.72H12.3l-.25.72a.39.39,0,0,1-.11.15.34.34,0,0,1-.2.06H11l1.61-4.16h1ZM12.52,6.78h1.14l-.39-1.14-.08-.25a3,3,0,0,1-.1-.32,3,3,0,0,1-.1.32,2.56,2.56,0,0,1-.09.26Z"/>
        <path class="cls-17" d="M16.44,4.1V8.37h-.88V4.1Z"/>
        <path class="cls-17" d="M18.17,4.6a.45.45,0,0,1,0,.2A.61.61,0,0,1,18,5a.5.5,0,0,1-.17.11.52.52,0,0,1-.21,0,.45.45,0,0,1-.2,0A.5.5,0,0,1,17.26,5a.42.42,0,0,1-.11-.16.43.43,0,0,1,0-.4.39.39,0,0,1,.11-.17.5.5,0,0,1,.17-.11.45.45,0,0,1,.2,0,.52.52,0,0,1,.21,0,.5.5,0,0,1,.17.11.52.52,0,0,1,.12.17A.45.45,0,0,1,18.17,4.6Zm-.1.81v3h-.89v-3Z"/>
        <path class="cls-17" d="M20.92,6.11l-.08.08a.15.15,0,0,1-.1,0,.21.21,0,0,1-.12,0l-.12-.07a.69.69,0,0,0-.15-.07.73.73,0,0,0-.22,0,.65.65,0,0,0-.29.06.51.51,0,0,0-.19.17.85.85,0,0,0-.12.27,2,2,0,0,0,0,.36,1.11,1.11,0,0,0,.16.66.53.53,0,0,0,.45.23.76.76,0,0,0,.25,0l.15-.09.12-.08a.18.18,0,0,1,.13,0,.19.19,0,0,1,.16.07l.26.32a1.33,1.33,0,0,1-.29.25,1.53,1.53,0,0,1-.31.16,1.87,1.87,0,0,1-.32.08l-.31,0a1.5,1.5,0,0,1-.52-.1A1.28,1.28,0,0,1,19,8a1.27,1.27,0,0,1-.3-.49,1.84,1.84,0,0,1-.11-.65,1.63,1.63,0,0,1,.1-.59A1.26,1.26,0,0,1,19,5.8a1.4,1.4,0,0,1,.46-.32,1.59,1.59,0,0,1,.64-.12,1.48,1.48,0,0,1,.61.12,1.46,1.46,0,0,1,.47.32Z"/>
        <path class="cls-17" d="M22.83,5.36a1.62,1.62,0,0,1,.54.1,1.15,1.15,0,0,1,.41.26,1.28,1.28,0,0,1,.28.43,1.7,1.7,0,0,1,.1.57c0,.07,0,.12,0,.16a.41.41,0,0,1,0,.1.17.17,0,0,1-.06.06H22.25a.8.8,0,0,0,.23.54.65.65,0,0,0,.47.16,1,1,0,0,0,.26,0l.2-.08.16-.09.15,0a.18.18,0,0,1,.16.07l.26.32a1.18,1.18,0,0,1-.3.25,1.37,1.37,0,0,1-.32.16,2,2,0,0,1-.33.08l-.32,0a1.87,1.87,0,0,1-.59-.1,1.35,1.35,0,0,1-.47-.3,1.45,1.45,0,0,1-.33-.5,1.85,1.85,0,0,1-.12-.69,1.56,1.56,0,0,1,.11-.57,1.24,1.24,0,0,1,.29-.46,1.4,1.4,0,0,1,.46-.32A1.48,1.48,0,0,1,22.83,5.36Zm0,.62a.49.49,0,0,0-.39.14.75.75,0,0,0-.19.42h1.1a1.49,1.49,0,0,0,0-.21.51.51,0,0,0-.09-.18A.48.48,0,0,0,23.09,6,.49.49,0,0,0,22.84,6Z"/>
      </g>
    </g>
  </g>
</svg>
