<?xml version="1.0" encoding="utf-8"?>
<!-- Generator: Adobe Illustrator 24.0.1, SVG Export Plug-In . SVG Version: 6.00 Build 0)  -->
<svg version="1.1" id="FG_Right" xmlns="http://www.w3.org/2000/svg" xmlns:xlink="http://www.w3.org/1999/xlink" x="0px" y="0px"
	 viewBox="0 0 1920 1080" style="enable-background:new 0 0 1920 1080;" xml:space="preserve">
<style type="text/css">
	.st0{fill:#EAFBFB;}
	.st1{fill:#E7CCE4;}
	.st2{fill:#CCB9D3;}
	.st3{fill:#FFFFFF;}
</style>
<g>
	<path class="st0" d="M2335.5,934.7h-1274c-34,0-61.6-27.6-61.6-61.6s27.6-61.6,61.6-61.6h1274c34,0,61.6,27.6,61.6,61.6
		S2369.5,934.7,2335.5,934.7z"/>
	<path class="st1" d="M2222.6,624.9H674.4c-51,0-92.4-41.4-92.4-92.4s41.4-92.4,92.4-92.4h1548.2c51,0,92.4,41.4,92.4,92.4
		S2273.7,624.9,2222.6,624.9L2222.6,624.9z"/>
	<path class="st2" d="M2087.1,463.5H866.3c-51,0-92.4-41.4-92.4-92.4s41.4-92.4,92.4-92.4h1220.9c51,0,92.4,41.4,92.4,92.4
		S2138.2,463.5,2087.1,463.5z"/>
	<path class="st1" d="M2256.1,495.3H1236.7c-51,0-92.4-41.4-92.4-92.4s41.4-92.4,92.4-92.4h1019.4c51,0,92.4,41.4,92.4,92.4
		S2307.1,495.3,2256.1,495.3z"/>
	<path class="st0" d="M2342.1,667.7H894.5c-51,0-92.4-41.4-92.4-92.4s41.4-92.4,92.4-92.4h1447.6c51,0,92.4,41.4,92.4,92.4
		S2393.1,667.7,2342.1,667.7z"/>
	<path class="st1" d="M2342.1,1080H1027.2c-51,0-92.4-41.4-92.4-92.4c0-51,41.4-92.4,92.4-92.4h1314.9c51,0,92.4,41.4,92.4,92.4
		C2434.5,1038.6,2393.1,1080,2342.1,1080z"/>
	<path class="st0" d="M1339.9,740.3H957c-34,0-61.6-27.6-61.6-61.6c0-34,27.6-61.6,61.6-61.6l0,0h382.9c34,0,61.6,27.6,61.6,61.6
		C1401.5,712.7,1373.9,740.3,1339.9,740.3L1339.9,740.3z"/>
	<path class="st3" d="M2132.5,697.7H1127.9c-34,0-61.6-27.6-61.6-61.6c0-34,27.6-61.6,61.6-61.6h1004.5c34,0,61.6,27.6,61.6,61.6
		C2194.1,670.2,2166.5,697.7,2132.5,697.7L2132.5,697.7z"/>
	<path class="st0" d="M2342.1,375.8h-1274c-34,0-61.6-27.6-61.6-61.6s27.6-61.6,61.6-61.6h1274c34,0,61.6,27.6,61.6,61.6
		S2376.1,375.8,2342.1,375.8z"/>
	<path class="st3" d="M2342.1,284.4H1137c-34,0-61.6-27.6-61.6-61.6s27.6-61.6,61.6-61.6h1205.1c34,0,61.6,27.6,61.6,61.6
		S2376.1,284.4,2342.1,284.4z"/>
	<path class="st0" d="M2138.1,123.2h-1231c-34,0-61.6-27.6-61.6-61.6S873.1,0,907.1,0h1231c34,0,61.6,27.6,61.6,61.6
		S2172.1,123.2,2138.1,123.2z"/>
	<path class="st0" d="M2342.1,219.5H1203.4c-34,0-61.6-27.6-61.6-61.6s27.6-61.6,61.6-61.6h1138.7c34,0,61.6,27.6,61.6,61.6
		S2376.1,219.5,2342.1,219.5z"/>
	<path class="st3" d="M2342.1,483.2h-959.9c-34,0-61.6-27.6-61.6-61.6s27.6-61.6,61.6-61.6h959.9c34,0,61.6,27.6,61.6,61.6
		S2376.1,483.2,2342.1,483.2z"/>
	<path class="st0" d="M2849.4,965.5H1401.8c-51,0-92.4-41.4-92.4-92.4c0-51,41.4-92.4,92.4-92.4h1447.6c51,0,92.4,41.4,92.4,92.4
		C2941.8,924.1,2900.4,965.5,2849.4,965.5z"/>
	<path class="st3" d="M2160.8,856H1115.3c-34,0-61.6-27.6-61.6-61.6c0-34,27.6-61.6,61.6-61.6h1045.4c34,0,61.6,27.6,61.6,61.6
		C2222.4,828.4,2194.8,856,2160.8,856z"/>
	<path class="st0" d="M2741.1,903.9h-1231c-34,0-61.6-27.6-61.6-61.6s27.6-61.6,61.6-61.6h1231c34,0,61.6,27.6,61.6,61.6
		S2775.1,903.9,2741.1,903.9z"/>
	<path class="st1" d="M2560.3,345H1540.9c-51,0-92.4-41.4-92.4-92.4s41.4-92.4,92.4-92.4h1019.4c51,0,92.4,41.4,92.4,92.4
		S2611.4,345,2560.3,345z"/>
	<path class="st0" d="M2780.1,381.1h-1231c-34,0-61.6-27.6-61.6-61.6s27.6-61.6,61.6-61.6h1231c34,0,61.6,27.6,61.6,61.6
		S2814.2,381.1,2780.1,381.1z"/>
	<path class="st0" d="M2417.5,1110.8h-1231c-34,0-61.6-27.6-61.6-61.6c0-34,27.6-61.6,61.6-61.6h1231c34,0,61.6,27.6,61.6,61.6
		C2479.1,1083.2,2451.5,1110.8,2417.5,1110.8z"/>
	<path class="st3" d="M2356.2,72.5H1351.7c-34,0-61.6-27.6-61.6-61.6s27.6-61.6,61.6-61.6h1004.5c34,0,61.6,27.6,61.6,61.6
		S2390.2,72.5,2356.2,72.5L2356.2,72.5z"/>
	<path class="st0" d="M2863.1,145.6h-1231c-34,0-61.6-27.6-61.6-61.6s27.6-61.6,61.6-61.6h1231c34,0,61.6,27.6,61.6,61.6
		S2897.2,145.6,2863.1,145.6z"/>
	<path class="st3" d="M2724.6,229.1H1720.1c-34,0-61.6-27.6-61.6-61.6s27.6-61.6,61.6-61.6h1004.5c34,0,61.6,27.6,61.6,61.6
		S2758.6,229.1,2724.6,229.1L2724.6,229.1z"/>
	<path class="st1" d="M2295.7,759H1276.3c-51,0-92.4-41.4-92.4-92.4s41.4-92.4,92.4-92.4h1019.4c51,0,92.4,41.4,92.4,92.4
		S2346.8,759,2295.7,759z"/>
	<path class="st3" d="M2524.4,784.7H1319.3c-34,0-61.6-27.6-61.6-61.6s27.6-61.6,61.6-61.6h1205.1c34,0,61.6,27.6,61.6,61.6
		S2558.4,784.7,2524.4,784.7z"/>
	<path class="st0" d="M2930.5,676.7h-1231c-34,0-61.6-27.6-61.6-61.6c0-34,27.6-61.6,61.6-61.6h1231c34,0,61.6,27.6,61.6,61.6
		C2992.1,649.1,2964.5,676.7,2930.5,676.7z"/>
	<path class="st1" d="M2639.2,1040.8H1663c-51,0-92.4-41.4-92.4-92.4c0-51,41.4-92.4,92.4-92.4h976.3c51,0,92.4,41.4,92.4,92.4
		C2731.6,999.4,2690.3,1040.8,2639.2,1040.8z"/>
</g>
</svg>
