<?xml version="1.0" encoding="utf-8"?>
<!-- Generator: Adobe Illustrator 24.0.1, SVG Export Plug-In . SVG Version: 6.00 Build 0)  -->
<svg version="1.1" id="FG_Left" xmlns="http://www.w3.org/2000/svg" xmlns:xlink="http://www.w3.org/1999/xlink" x="0px" y="0px"
	 viewBox="0 0 1920 1080" style="enable-background:new 0 0 1920 1080;" xml:space="preserve">
<style type="text/css">
	.st0{fill:#E7CCE4;}
	.st1{fill:#CCB9D3;}
	.st2{fill:#EAFBFB;}
	.st3{fill:#FFFFFF;}
</style>
<g>
	<path class="st0" d="M-147.9,764.6h1449.6c47.9,0,86.7,38.8,86.7,86.7s-38.8,86.7-86.7,86.7H-147.9c-47.9,0-86.7-38.8-86.7-86.7
		S-195.8,764.6-147.9,764.6L-147.9,764.6z"/>
	<path class="st1" d="M-20.8,906.6h1142.6c47.9,0,86.7,38.7,86.8,86.6c0,47.9-38.7,86.7-86.6,86.8c-0.1,0-0.1,0-0.2,0H-20.8
		c-47.9,0-86.7-38.8-86.7-86.7C-107.5,945.5-68.7,906.6-20.8,906.6L-20.8,906.6L-20.8,906.6z"/>
	<path class="st0" d="M-295.5,622.3h1449.6c47.9,0,86.7,38.8,86.7,86.7s-38.8,86.7-86.7,86.7H-295.5c-47.9,0-86.7-38.8-86.7-86.7
		S-343.4,622.3-295.5,622.3L-295.5,622.3z"/>
	<path class="st1" d="M-168.4,764.3H974.2c47.9,0,86.7,38.8,86.7,86.7s-38.8,86.7-86.7,86.7H-168.4c-47.9,0-86.7-38.8-86.7-86.7
		C-255.1,803.1-216.3,764.3-168.4,764.3z"/>
	<path class="st0" d="M751.5,511.1h-904.2c-47.9,0-86.7-38.8-86.7-86.7s38.8-86.7,86.7-86.7h904.2c47.9,0,86.7,38.8,86.7,86.7
		S799.3,511.1,751.5,511.1z"/>
	<path class="st0" d="M973.2,1019.7H-152.8c-47.9,0-86.7-38.8-86.7-86.7s38.8-86.7,86.7-86.7H973.2c47.9,0,86.7,38.8,86.7,86.7
		S1021,1019.7,973.2,1019.7z"/>
	<path class="st0" d="M1423.1,173.3H-186.9c-47.9,0-86.7-38.8-86.7-86.7s38.8-86.7,86.7-86.7h1609.9c47.9,0,86.7,38.8,86.7,86.7
		S1470.9,173.3,1423.1,173.3z"/>
	<path class="st2" d="M854.9,196H-186.9c-47.9,0-86.7-38.8-86.7-86.7s38.8-86.7,86.7-86.7H854.9c47.9,0,86.7,38.8,86.7,86.7
		S902.8,196,854.9,196z"/>
	<path class="st2" d="M1266.3,317.2H-159.2c-47.9,0-86.7-38.8-86.7-86.7s38.8-86.7,86.7-86.7h1425.5c47.9,0,86.7,38.8,86.7,86.7
		S1314.2,317.2,1266.3,317.2z"/>
	<path class="st3" d="M918.3,209.3h-978c-31.9,0-57.8-25.9-57.8-57.8s25.9-57.8,57.8-57.8h978c31.9,0,57.8,25.9,57.8,57.8
		S950.2,209.3,918.3,209.3L918.3,209.3z"/>
	<path class="st3" d="M812.2,319.8h-999.1c-31.9,0-57.8-25.9-57.8-57.8s25.9-57.8,57.8-57.8h999.1c31.9,0,57.8,25.9,57.8,57.8
		S844.1,319.8,812.2,319.8z"/>
	<path class="st3" d="M891.8,362.5H-47.9c-31.9,0-57.8-25.9-57.8-57.8s25.9-57.8,57.8-57.8h939.7c31.9,0,57.8,25.9,57.8,57.8
		S923.7,362.5,891.8,362.5z"/>
	<path class="st3" d="M970.9,667.4H-186.9c-31.9,0-57.8-25.9-57.8-57.8s25.9-57.8,57.8-57.8H970.9c31.9,0,57.8,25.9,57.8,57.8
		S1002.8,667.4,970.9,667.4z"/>
	<path class="st2" d="M906.2,753.2H-186.9c-31.9,0-57.8-25.9-57.8-57.8s25.9-57.8,57.8-57.8H906.2c31.9,0,57.8,25.9,57.8,57.8
		S938.2,753.2,906.2,753.2L906.2,753.2z"/>
	<path class="st2" d="M1121.9,904.4H-30.2c-31.9,0-57.8-25.9-57.8-57.8s25.9-57.8,57.8-57.8h1152.1c31.9,0,57.8,25.9,57.8,57.8
		C1179.7,878.5,1153.8,904.4,1121.9,904.4z"/>
	<path class="st3" d="M844,814.1H-186.9c-31.9,0-57.8-25.9-57.8-57.8s25.9-57.8,57.8-57.8H844c31.9,0,57.8,25.9,57.8,57.8
		S875.9,814.1,844,814.1z"/>
	<path class="st3" d="M676.3,581.7h-863.2c-31.9,0-57.8-25.9-57.8-57.8s25.9-57.8,57.8-57.8h863.2c31.9,0,57.8,25.9,57.8,57.8
		S708.3,581.7,676.3,581.7z"/>
	<path class="st0" d="M490.2,238.2h-1609.9c-47.9,0-86.7-38.8-86.7-86.7s38.8-86.7,86.7-86.7H490.2c47.9,0,86.7,38.8,86.7,86.7
		S538.1,238.2,490.2,238.2z"/>
	<path class="st2" d="M295.3,125h-1425.5c-47.9,0-86.7-38.8-86.7-86.7s38.8-86.7,86.7-86.7H295.3c47.9,0,86.7,38.8,86.7,86.7
		S343.2,125,295.3,125z"/>
	<path class="st2" d="M503.1,503.3H-972.4c-41.1,0-74.4-38.8-74.4-86.7s33.3-86.7,74.4-86.7H503.1c41.1,0,74.4,38.8,74.4,86.7
		S544.2,503.3,503.1,503.3z"/>
	<path class="st2" d="M187,319.8H-906.1c-31.9,0-57.8-25.9-57.8-57.8s25.9-57.8,57.8-57.8H187c31.9,0,57.8,25.9,57.8,57.8
		S218.9,319.8,187,319.8L187,319.8z"/>
	<path class="st3" d="M124.7,380.6H-906.1c-31.9,0-57.8-25.9-57.8-57.8s25.9-57.8,57.8-57.8H124.7c31.9,0,57.8,25.9,57.8,57.8
		S156.6,380.6,124.7,380.6z"/>
	<path class="st1" d="M-900.8,437.3H241.8c47.9,0,86.7,38.7,86.8,86.6c0,47.9-38.7,86.7-86.6,86.8c-0.1,0-0.1,0-0.2,0H-900.8
		c-47.9,0-86.7-38.8-86.7-86.7C-987.5,476.1-948.7,437.3-900.8,437.3L-900.8,437.3L-900.8,437.3z"/>
	<path class="st0" d="M-1126.1,366.1H323.5c47.9,0,86.7,38.8,86.7,86.7s-38.8,86.7-86.7,86.7h-1449.6c-47.9,0-86.7-38.8-86.7-86.7
		S-1174,366.1-1126.1,366.1L-1126.1,366.1z"/>
	<path class="st3" d="M560.5,904.4h-999.1c-31.9,0-57.8-25.9-57.8-57.8c0-31.9,25.9-57.8,57.8-57.8h999.1
		c31.9,0,57.8,25.9,57.8,57.8C618.3,878.5,592.4,904.4,560.5,904.4z"/>
	<path class="st3" d="M640.1,947.1h-939.7c-31.9,0-57.8-25.9-57.8-57.8c0-31.9,25.9-57.8,57.8-57.8h939.7
		c31.9,0,57.8,25.9,57.8,57.8C697.9,921.2,672,947.1,640.1,947.1z"/>
	<path class="st2" d="M519,1062.7H-956.5c-41.1,0-74.4-38.8-74.4-86.7c0-47.9,33.3-86.7,74.4-86.7H519c41.1,0,74.4,38.8,74.4,86.7
		C593.4,1023.9,560.1,1062.7,519,1062.7z"/>
	<path class="st3" d="M209.9,1026.2h-939.7c-31.9,0-57.8-25.9-57.8-57.8c0-31.9,25.9-57.8,57.8-57.8h939.7
		c31.9,0,57.8,25.9,57.8,57.8C267.7,1000.4,241.8,1026.2,209.9,1026.2z"/>
	<path class="st2" d="M585.6,811H-839.9c-47.9,0-86.7-38.8-86.7-86.7c0-47.9,38.8-86.7,86.7-86.7H585.6c47.9,0,86.7,38.8,86.7,86.7
		C672.3,772.2,633.5,811,585.6,811z"/>
	<path class="st2" d="M86.6,695.5h-1093.1c-31.9,0-57.8-25.9-57.8-57.8s25.9-57.8,57.8-57.8H86.6c31.9,0,57.8,25.9,57.8,57.8
		S118.5,695.5,86.6,695.5L86.6,695.5z"/>
	<path class="st0" d="M295.3,933h-1609.9c-47.9,0-86.7-38.8-86.7-86.7c0-47.9,38.8-86.7,86.7-86.7H295.3c47.9,0,86.7,38.8,86.7,86.7
		C382,894.2,343.2,933,295.3,933z"/>
	<path class="st3" d="M130.3,983.5h-999.1c-31.9,0-57.8-25.9-57.8-57.8s25.9-57.8,57.8-57.8h999.1c31.9,0,57.8,25.9,57.8,57.8
		S162.2,983.5,130.3,983.5z"/>
</g>
</svg>
