<svg xmlns="http://www.w3.org/2000/svg" viewBox="0 0 86.07 39.97">
  <defs>
    <style>
      .cls-1 {
        fill: #f5fffe;
      }

      .cls-2 {
        fill: #ffd255;
      }

      .cls-3 {
        fill: none;
        stroke: #515151;
        stroke-miterlimit: 10;
        stroke-width: 1.85px;
      }
    </style>
  </defs>
  <g id="Design">
    <g>
      <g>
        <rect class="cls-1" y="12.17" width="60.5" height="24.86" rx="11.72"/>
        <rect class="cls-1" x="25.57" y="2.41" width="60.5" height="24.86" rx="11.72"/>
      </g>
      <rect class="cls-2" x="20.73" width="49.34" height="39.97" rx="7.87"/>
      <g>
        <g>
          <path class="cls-3" d="M39.48,22.7l-1.71-.16h0a55,55,0,0,1-4.55,4.51V22.11l-4.53-.43V8.78L50.26,4.6v7.87"/>
          <path class="cls-3" d="M39.48,14.66,32.1,15"/>
          <path class="cls-3" d="M46.85,9.54,32.1,11.4"/>
          <path class="cls-3" d="M39.48,18.85l-7.38-.18"/>
        </g>
        <g>
          <path class="cls-3" d="M64.14,18.35,42.57,14.16V33.27L55.06,32.1h0a52.14,52.14,0,0,0,4.56,4.51V31.67l4.52-.42Z"/>
          <path class="cls-3" d="M46,23.85l14.75.74"/>
          <path class="cls-3" d="M46,19.1,60.73,21"/>
          <path class="cls-3" d="M46,28.59l14.75-.36"/>
        </g>
      </g>
    </g>
  </g>
</svg>
