<svg xmlns="http://www.w3.org/2000/svg" xmlns:xlink="http://www.w3.org/1999/xlink" viewBox="0 0 361.48 361.48">
  <defs>
    <style>
      .cls-1 {
        fill: none;
      }

      .cls-2 {
        fill: #fff;
      }

      .cls-3 {
        clip-path: url(#clip-path);
      }

      .cls-4 {
        fill: #0e2559;
      }

      .cls-5 {
        fill: #069489;
      }

      .cls-6 {
        fill: #73767d;
      }

      .cls-7 {
        fill: #9598a2;
      }

      .cls-8 {
        fill: #912d0b;
      }

      .cls-25, .cls-9 {
        fill: #918387;
      }

      .cls-10 {
        fill: #03524c;
      }

      .cls-11 {
        fill: #eb511c;
      }

      .cls-12 {
        fill: #bf4217;
      }

      .cls-13 {
        fill: #07968a;
      }

      .cls-14 {
        fill: #bac1c9;
      }

      .cls-15 {
        fill: #355aab;
      }

      .cls-16 {
        fill: #11132d;
      }

      .cls-17 {
        fill: url(#linear-gradient);
      }

      .cls-18 {
        fill: #406666;
      }

      .cls-19 {
        fill: #b7eef0;
      }

      .cls-20 {
        fill: #08baac;
      }

      .cls-21 {
        fill: #046b63;
      }

      .cls-22 {
        fill: #08a89c;
      }

      .cls-23 {
        fill: #e9ffff;
      }

      .cls-24 {
        fill: #ffffdb;
      }

      .cls-25, .cls-26, .cls-27, .cls-29, .cls-30, .cls-33 {
        fill-rule: evenodd;
      }

      .cls-26 {
        fill: url(#linear-gradient-2);
      }

      .cls-27, .cls-31 {
        fill: #328de0;
      }

      .cls-28, .cls-29 {
        fill: aqua;
      }

      .cls-30 {
        fill: url(#linear-gradient-3);
      }

      .cls-32 {
        fill: url(#linear-gradient-4);
      }

      .cls-33 {
        fill: url(#linear-gradient-5);
      }
    </style>
    <clipPath id="clip-path">
      <rect class="cls-1" x="-334.62" y="-91.26" width="1036.44" height="452.29"/>
    </clipPath>
    <linearGradient id="linear-gradient" x1="-520.26" y1="3516.49" x2="-517.52" y2="3516.49" gradientTransform="matrix(0, -37.24, 38.34, 12.99, -134780.62, -64782.58)" gradientUnits="userSpaceOnUse">
      <stop offset="0" stop-color="#b0dafb"/>
      <stop offset="0.01" stop-color="#b0dafb"/>
      <stop offset="0.62" stop-color="#b3c7f1"/>
      <stop offset="1" stop-color="#b5b8ea"/>
    </linearGradient>
    <linearGradient id="linear-gradient-2" x1="-479.19" y1="3489.39" x2="-476.44" y2="3489.39" gradientTransform="matrix(3.93, -25.2, 22.14, 8.98, -75254.36, -43228.31)" gradientUnits="userSpaceOnUse">
      <stop offset="0" stop-color="#321f56"/>
      <stop offset="0.01" stop-color="#321f56"/>
      <stop offset="1" stop-color="#484161"/>
    </linearGradient>
    <linearGradient id="linear-gradient-3" x1="-487.27" y1="3489.1" x2="-484.52" y2="3489.1" gradientTransform="matrix(3.98, -25.25, 21.81, 9.51, -74071.79, -45107.55)" xlink:href="#linear-gradient-2"/>
    <linearGradient id="linear-gradient-4" x1="26.02" y1="241.14" x2="153.8" y2="241.14" gradientUnits="userSpaceOnUse">
      <stop offset="0" stop-color="#281742"/>
      <stop offset="0.01" stop-color="#281742"/>
      <stop offset="1" stop-color="#322d45"/>
    </linearGradient>
    <linearGradient id="linear-gradient-5" x1="-468.52" y1="3492.21" x2="-465.78" y2="3492.21" gradientTransform="matrix(-5.07, -22.27, -22.25, 11.2, 75587.76, -49139.86)" xlink:href="#linear-gradient-2"/>
  </defs>
  <g id="Design">
    <rect class="cls-2" x="-62.03" y="-44.92" width="626.2" height="472.34"/>
    <g class="cls-3">
      <g>
        <g>
          <g>
            <polygon class="cls-4" points="215.68 271.49 216.04 272.18 216.63 272.81 217.43 273.37 217.78 273.57 218.12 273.32 219.8 272.75 221.39 272.93 225.92 275.53 227.45 276.41 233.2 271.52 217.43 262.48 216.63 261.92 216.04 261.28 215.68 260.59 215.55 259.88 215.55 270.77 215.68 271.49"/>
            <polygon class="cls-5" points="230.46 278.13 235 280.74 235.55 281.05 239.53 283.34 241.06 284.21 246.81 279.32 233.2 271.52 227.45 276.41 230.46 278.13"/>
            <polygon class="cls-6" points="257.7 241.57 259.9 242.25 262.29 242.66 263 242.71 264.77 242.81 266.54 242.71 267.25 242.66 269.64 242.25 271.84 241.57 273.77 240.67 274.38 240.24 273.13 240.62 269.03 241.34 264.77 241.58 260.51 241.34 256.41 240.62 255.15 240.24 255.77 240.67 257.7 241.57"/>
            <polygon class="cls-4" points="266.79 255.89 264.77 256.01 262.75 255.89 260.81 255.56 260.38 255.43 259.8 255.61 258.44 256.25 257.32 257.02 256.5 257.91 255.99 258.88 255.82 259.88 255.99 260.88 256.5 261.84 257.32 262.73 258.44 263.51 259.8 264.15 261.34 264.62 263.02 264.91 264.77 265.01 266.51 264.91 268.19 264.62 269.74 264.15 271.1 263.51 272.21 262.73 273.04 261.84 273.55 260.88 273.72 259.88 273.55 258.88 273.04 257.91 272.21 257.02 271.1 256.25 269.74 255.61 269.15 255.43 268.73 255.56 266.79 255.89"/>
            <polygon class="cls-7" points="254.41 250.07 254.61 251.23 255.2 252.34 256.16 253.37 257.45 254.27 259.02 255.01 260.38 255.43 260.81 255.56 262.75 255.89 264.77 256.01 266.79 255.89 268.73 255.56 269.15 255.43 270.52 255.01 272.09 254.27 273.38 253.37 274.33 252.34 274.92 251.23 275.12 250.07 275.12 246.96 275.12 240.01 274.38 240.24 273.77 240.67 271.84 241.57 269.64 242.25 267.25 242.66 266.54 242.71 264.77 242.81 263 242.71 262.29 242.66 259.9 242.25 257.7 241.57 255.77 240.67 255.15 240.24 254.41 240.01 254.41 246.96 254.41 250.07"/>
            <polygon class="cls-8" points="244.4 224.61 247.89 222.61 253.08 219.63 257.03 217.36 267.04 211.62 270.26 209.78 272.23 208.65 272.23 207.15 272.23 199.84 272.23 196.03 272.23 149.66 267.04 152.64 244.85 165.36 243.42 166.19 243.42 201.52 243.42 224.43 243.42 225.17 243.72 225 244.4 224.61"/>
            <polygon class="cls-9" points="280.18 296.81 282.02 299.06 281.9 298.81 279.56 295.94 276.59 293.74 276.01 294.07 277.16 294.57 280.18 296.81"/>
            <polygon class="cls-10" points="247.2 294.55 248.38 291.12 246.92 290.28 247.2 291.54 247.2 294.55"/>
            <polygon class="cls-9" points="248.18 298.92 247.2 299.97 247.2 301.51 248.8 299.79 252.5 296.91 255.53 295.23 254.45 294.61 251.88 296.04 248.18 298.92"/>
            <polygon class="cls-7" points="247.28 298.06 247.2 298.15 247.2 299.97 248.18 298.92 251.88 296.04 254.45 294.61 253.21 293.89 251.22 294.99 247.28 298.06"/>
            <polygon class="cls-11" points="220.89 153.26 226.52 156.5 232.15 159.73 237.78 162.96 243.42 166.19 244.85 165.36 267.04 152.64 272.23 149.66 266.6 146.43 260.64 146.29 254.69 145.12 249.8 143.14 246.35 140.34 244.85 137.82 244.85 137.13 244.85 133.67 238.43 130.28 233.25 133.25 209.62 146.8 215.25 150.03 220.89 153.26"/>
            <polygon class="cls-12" points="215.18 162.9 215.25 162.94 219.71 165.5 220.89 166.17 224.25 168.1 226.52 169.41 228.79 170.71 232.15 172.64 233.32 173.31 237.78 175.87 237.86 175.91 237.86 189.59 237.86 213.9 235.31 215.31 231.14 218.13 232.15 218.71 237.78 221.94 237.97 222.05 242.93 224.89 243.42 225.17 243.42 224.43 243.42 201.52 243.42 166.19 237.78 162.96 232.15 159.73 226.52 156.5 220.89 153.26 215.25 150.03 209.62 146.8 209.62 166.75 210.3 166.25 215.18 162.9"/>
            <polygon class="cls-13" points="155.21 368.95 157.93 370.51 158.84 366.87 161.2 357.4 161.82 354.9 146.27 363.82 148.14 364.89 155.21 368.95"/>
            <polygon class="cls-10" points="246.81 279.32 241.06 284.21 244.07 285.94 245.47 286.93 246.02 287.85 246.81 279.32"/>
            <polygon class="cls-4" points="313.86 260.59 313.5 261.28 312.9 261.92 312.11 262.48 269.3 287.03 268.33 287.49 267.22 287.83 266.02 288.04 264.77 288.11 263.52 288.04 262.32 287.83 261.21 287.49 260.24 287.03 249.15 280.67 246.81 279.32 246.02 287.85 246.58 288.77 246.92 290.28 248.38 291.12 253.21 293.89 254.45 294.61 255.53 295.23 260.24 297.92 261.21 298.38 262.32 298.72 263.52 298.93 264.77 299 264.77 299 266.02 298.93 267.22 298.72 268.33 298.38 269.06 298.04 269.3 297.92 276.01 294.07 276.59 293.74 278.04 292.91 312.11 273.37 312.9 272.81 313.5 272.18 313.86 271.49 313.98 270.77 313.98 259.88 313.86 260.59"/>
            <polygon class="cls-12" points="289.56 216.63 287.08 219.29 283.74 221.62 279.68 223.54 275.04 224.96 270 225.84 264.77 226.13 259.53 225.84 254.5 224.96 249.86 223.54 247.89 222.61 244.4 224.61 243.72 225 243.42 225.17 242.93 224.89 237.97 222.05 238.45 224.85 239.98 227.74 242.46 230.4 243.25 230.96 245.8 232.74 249.86 234.65 252.04 235.32 252.07 235.33 254.41 236.04 254.44 236.05 254.5 236.07 254.51 236.07 259.53 236.95 264.77 237.24 270 236.95 275.02 236.07 275.04 236.07 275.1 236.05 275.12 236.04 277.46 235.33 277.5 235.32 279.68 234.65 283.74 232.74 286.28 230.96 287.08 230.4 289.56 227.74 291.08 224.85 291.6 221.85 291.6 210.74 291.08 213.74 289.56 216.63"/>
            <polygon class="cls-11" points="284.3 212.65 283.17 214.79 281.33 216.77 278.85 218.5 275.83 219.92 272.39 220.98 268.65 221.63 264.77 221.85 260.88 221.63 257.15 220.98 253.71 219.92 253.08 219.63 247.89 222.61 249.86 223.54 254.5 224.96 259.53 225.84 264.77 226.13 270 225.84 275.04 224.96 279.68 223.54 283.74 221.62 287.08 219.29 289.56 216.63 291.08 213.74 291.6 210.74 291.08 207.74 289.56 204.85 287.08 202.19 284.68 200.52 284.68 210.42 284.3 212.65"/>
            <polygon class="cls-7" points="253.76 243.83 251.59 246.03 243.76 250.53 228.74 256.34 228.07 256.72 226.53 257.61 226.36 257.7 226.5 257.44 226.52 257.3 226.57 257.04 226.57 256.86 226.5 256.45 226.29 256.07 225.96 255.71 225.16 254.97 225.4 255.24 225.55 255.52 225.57 255.61 225.6 255.81 225.55 256.11 225.54 256.13 225.4 256.39 225.16 256.65 224.83 256.88 224.43 257.06 223.98 257.2 223.49 257.29 222.97 257.32 222.46 257.29 221.97 257.2 221.52 257.06 221.12 256.88 220.79 256.65 220.55 256.39 220.41 256.13 220.4 256.11 220.37 255.92 220.35 255.81 220.4 255.52 220.55 255.24 220.79 254.97 219.99 255.71 219.66 256.07 219.46 256.44 219.45 256.45 219.38 256.86 219.38 257.57 219.45 257.97 219.66 258.36 219.99 258.71 220.43 259.02 220.98 259.28 221.6 259.47 222.27 259.59 222.97 259.63 223.68 259.59 224.35 259.47 224.97 259.28 225.51 259.02 225.96 258.71 226.29 258.36 226.49 257.98 226.36 258.06 226.49 257.98 228.2 257 228.74 256.69 243.76 250.88 251.59 246.38 253.76 244.19 253.9 243.92 253.97 243.52 253.97 243.16 253.9 243.56 253.76 243.83"/>
            <polygon class="cls-14" points="222.46 254.34 221.97 254.42 221.52 254.56 221.23 254.69 221.12 254.75 220.79 254.97 220.55 255.24 220.4 255.52 220.35 255.81 220.37 255.92 220.4 256.11 220.41 256.13 220.55 256.39 220.79 256.65 221.12 256.88 221.52 257.06 221.97 257.2 222.46 257.29 222.97 257.32 223.49 257.29 223.98 257.2 224.43 257.06 224.83 256.88 225.16 256.65 225.4 256.39 225.54 256.13 225.55 256.11 225.6 255.81 225.57 255.61 225.55 255.52 225.4 255.24 225.16 254.97 224.83 254.75 224.72 254.69 224.43 254.56 223.98 254.42 223.69 254.37 223.49 254.34 223.17 254.32 223.16 254.32 222.97 254.31 222.46 254.34"/>
            <polygon class="cls-6" points="227.9 258.74 227.4 259.26 226.74 259.73 225.93 260.11 225.01 260.39 224.01 260.56 222.97 260.62 221.94 260.56 220.94 260.39 220.01 260.11 219.21 259.73 218.54 259.26 218.05 258.74 217.75 258.16 217.65 257.57 217.65 260.47 217.75 261.06 218.05 261.64 218.54 262.17 219.21 262.63 220.01 263.01 220.94 263.29 221.94 263.46 222.97 263.52 224.01 263.46 225.01 263.29 225.93 263.01 226.74 262.63 227.4 262.17 227.9 261.64 228.2 261.06 228.3 260.47 228.3 257.57 228.2 258.16 227.9 258.74"/>
            <polygon class="cls-14" points="226.29 258.36 225.96 258.71 225.51 259.02 224.97 259.28 224.35 259.47 223.68 259.59 222.97 259.63 222.27 259.59 221.6 259.47 220.98 259.28 220.43 259.02 219.99 258.71 219.66 258.36 219.45 257.97 219.38 257.57 219.38 256.86 219.45 256.45 219.46 256.44 219.66 256.07 219.99 255.71 220.79 254.97 221.12 254.75 221.23 254.69 220.94 254.75 220.01 255.03 219.21 255.41 218.54 255.87 218.05 256.4 217.75 256.97 217.66 257.47 217.65 257.57 217.75 258.16 218.05 258.74 218.54 259.26 219.21 259.73 220.01 260.11 220.94 260.39 221.94 260.56 222.97 260.62 224.01 260.56 225.01 260.39 225.93 260.11 226.74 259.73 227.4 259.26 227.9 258.74 228.2 258.16 228.3 257.57 228.2 257 226.49 257.98 226.29 258.36"/>
            <polygon class="cls-14" points="223.69 254.37 223.98 254.42 224.43 254.56 224.72 254.69 224.83 254.75 225.16 254.97 225.96 255.71 226.29 256.07 226.5 256.45 226.57 256.86 226.57 257.04 226.52 257.3 226.5 257.44 226.36 257.7 226.53 257.61 228.07 256.72 228.74 256.34 243.76 250.53 251.59 246.03 253.76 243.83 253.9 243.56 253.97 243.16 253.9 242.76 253.7 242.37 253.37 242.02 252.92 241.71 252.37 241.45 251.75 241.26 251.08 241.14 250.38 241.1 249.68 241.14 249.21 241.22 247.04 243.42 239.21 247.92 224.19 253.73 223.17 254.32 223.49 254.34 223.69 254.37"/>
            <polygon class="cls-14" points="261.84 278.52 261.6 278.78 261.44 279.06 261.39 279.35 261.44 279.65 261.46 279.67 261.6 279.93 261.84 280.19 262.16 280.42 262.56 280.61 263.01 280.75 263.51 280.83 264.02 280.86 264.53 280.83 265.02 280.75 265.48 280.61 265.88 280.42 266.2 280.19 266.44 279.93 266.58 279.67 266.59 279.65 266.64 279.35 266.61 279.16 266.59 279.06 266.44 278.78 266.2 278.52 265.88 278.29 265.76 278.24 265.48 278.1 265.02 277.96 264.73 277.91 264.53 277.88 264.21 277.86 264.02 277.85 263.51 277.88 263.01 277.96 262.56 278.1 262.28 278.24 262.16 278.29 261.84 278.52"/>
            <polygon class="cls-14" points="267.34 281.57 267.01 281.93 266.56 282.24 266.02 282.5 265.39 282.69 264.72 282.81 264.02 282.85 263.32 282.81 262.64 282.69 262.02 282.5 261.48 282.24 261.03 281.93 260.7 281.57 260.5 281.19 260.43 280.79 260.43 280.07 260.5 279.67 260.7 279.29 261.03 278.93 261.84 278.19 262.16 277.96 262.28 277.91 261.98 277.96 261.06 278.25 260.25 278.63 259.59 279.09 259.1 279.62 258.8 280.19 258.69 280.79 258.8 281.38 259.1 281.95 259.59 282.48 260.25 282.95 261.06 283.33 261.98 283.61 262.98 283.78 264.02 283.84 265.06 283.78 266.06 283.61 266.98 283.33 267.79 282.95 268.45 282.48 268.94 281.95 269.25 281.38 269.35 280.79 269.25 280.22 267.54 281.2 267.34 281.57"/>
            <polygon class="cls-7" points="294.81 267.05 292.64 269.25 284.8 273.74 269.78 279.56 269.11 279.94 267.57 280.82 267.4 280.92 267.54 280.65 267.57 280.52 267.61 280.25 267.61 280.07 267.54 279.67 267.34 279.29 267.01 278.93 266.2 278.19 266.44 278.45 266.59 278.74 266.61 278.83 266.64 279.03 266.59 279.32 266.58 279.34 266.44 279.61 266.2 279.87 265.88 280.09 265.48 280.28 265.02 280.42 264.53 280.5 264.02 280.53 263.51 280.5 263.01 280.42 262.56 280.28 262.16 280.09 261.84 279.87 261.6 279.61 261.46 279.34 261.44 279.32 261.39 279.03 261.44 278.74 261.6 278.45 261.84 278.19 261.03 278.93 260.7 279.29 260.5 279.67 260.43 280.07 260.43 280.79 260.5 281.19 260.7 281.57 261.03 281.93 261.48 282.24 262.02 282.5 262.64 282.69 263.32 282.81 264.02 282.85 264.72 282.81 265.39 282.69 266.02 282.5 266.56 282.24 267.01 281.93 267.34 281.57 267.54 281.2 267.4 281.27 267.54 281.2 269.25 280.22 269.78 279.91 284.8 274.1 292.64 269.6 294.81 267.4 294.95 267.14 295.01 266.73 295.01 266.38 294.95 266.78 294.81 267.05"/>
            <polygon class="cls-14" points="264.21 277.54 264.53 277.55 264.73 277.59 265.02 277.64 265.48 277.78 265.76 277.91 265.88 277.96 266.2 278.19 267.01 278.93 267.34 279.29 267.54 279.67 267.61 280.07 267.61 280.25 267.57 280.52 267.54 280.65 267.4 280.92 267.57 280.82 269.11 279.94 269.78 279.56 284.8 273.74 292.64 269.25 294.81 267.05 294.95 266.78 295.01 266.38 294.95 265.98 294.74 265.59 294.41 265.24 293.96 264.92 293.42 264.67 292.8 264.48 292.12 264.36 291.42 264.32 290.72 264.36 290.25 264.44 288.09 266.64 280.25 271.13 265.23 276.95 264.21 277.54"/>
            <path class="cls-15" d="M275.12,240v10.06l-.2,1.16-.59,1.11-.95,1-1.29.9-1.57.74-1.37.42.59.18,1.36.64,1.11.77.83.89.51,1,.17,1-.17,1-.51,1-.83.89-1.11.78-1.36.64-1.55.47-1.68.29-1.74.1-1.75-.1-1.68-.29-1.54-.47-1.36-.64-1.12-.78-.82-.89-.51-1-.17-1,.17-1,.51-1,.82-.89,1.12-.77,1.36-.64.59-.18L259,255l-1.57-.74-1.29-.9-1-1-.59-1.11-.2-1.16V240l-1.78-.55-2.27-1.07L223.16,254h0l1-.58,15-5.82L247,243.1l2.17-2.2.47-.08.7,0,.7,0,.67.11.62.19.55.26.44.31.34.36.2.39.07.4v.35l-.07.4-.14.27-2.17,2.2-7.83,4.49-15,5.82-.54.3.1.57v2.9l-.1.6-.3.57-.5.53-.66.46-.81.38L225,263l-1,.18-1,.06-1-.06-1-.18-.93-.28-.8-.38-.66-.46-.5-.53-.3-.57-.1-.6v-3l-.23.14-.8.56-.59.63-.36.69-.13.72.13.71.36.69.59.64.8.56,15.77,9,13.61,7.81,1.13-1-1.13,1,2.34,1.34L260.24,287l1,.46,1.11.34,1.2.21,1.25.07L266,288l1.2-.21,1.11-.34,1-.46,42.81-24.55.79-.56.6-.64.36-.69.12-.71-.12-.72-.36-.69-.6-.63-.79-.56-32.93-18.89-2.28,1.07Zm5.13,31.12,7.84-4.49,2.16-2.2.47-.08.7,0,.7,0,.68.12.62.19.54.25.45.32.33.35.21.39.06.4v.35l-.06.41-.15.26-2.16,2.2-7.84,4.5-15,5.81-.53.31.1.56v2.9l-.11.6-.3.57-.49.53-.66.46-.81.38-.92.29-1,.17-1,.06-1-.06-1-.17-.92-.29-.81-.38-.66-.46-.49-.53-.31-.57-.1-.6v-2.9l.1-.59.31-.57.49-.53.66-.47.81-.38L262,278l.3,0,.28-.13.45-.14.5-.09.51,0h.19l1-.58Z"/>
            <polygon class="cls-8" points="279.68 234.65 277.5 235.32 277.46 235.33 275.12 236.04 275.1 236.05 275.04 236.07 275.02 236.07 270 236.95 264.77 237.24 259.53 236.95 254.51 236.07 254.5 236.07 254.44 236.05 254.41 236.04 252.07 235.33 252.04 235.32 249.86 234.65 245.8 232.74 243.25 230.96 243.34 231.49 244.59 233.84 246.61 236.01 249.32 237.91 250.36 238.39 252.63 239.46 254.41 240.01 255.15 240.24 256.41 240.62 260.51 241.34 264.77 241.58 269.03 241.34 273.13 240.62 274.38 240.24 275.12 240.01 276.9 239.46 279.18 238.39 280.21 237.91 282.93 236.01 284.95 233.84 286.19 231.49 286.28 230.96 283.74 232.74 279.68 234.65"/>
            <polygon class="cls-7" points="246.77 108.76 247.81 110.73 249.5 112.55 251.78 114.14 254.56 115.45 257.73 116.42 261.17 117.02 262.56 117.1 264.75 117.22 268.32 117.02 271.76 116.42 274.93 115.45 277.71 114.14 279.99 112.55 281.69 110.73 282.73 108.76 283.08 106.71 283.08 105.33 283.08 98.3 283.08 67.16 281.58 68.77 279.07 70.53 276 71.97 272.5 73.04 268.7 73.7 264.75 73.93 260.8 73.7 257 73.04 253.5 71.97 250.43 70.53 247.91 68.77 246.41 67.16 246.41 98.3 246.41 106.71 246.77 108.76"/>
            <polygon class="cls-16" points="250.43 70.53 253.5 71.97 257 73.04 260.8 73.7 264.75 73.93 268.7 73.7 272.5 73.04 276 71.97 279.07 70.53 281.58 68.77 283.08 67.16 283.45 66.76 284.61 64.58 285 62.31 285 57.5 284.61 59.76 283.45 61.94 283.08 62.34 283.08 62.35 281.58 63.95 279.07 65.71 276 67.15 272.5 68.23 268.7 68.89 264.75 69.11 260.8 68.89 257 68.23 253.5 67.15 250.43 65.71 247.91 63.95 246.42 62.35 246.41 62.34 246.04 61.94 244.89 59.76 244.5 57.5 244.5 62.31 244.89 64.58 246.04 66.76 246.41 67.16 247.91 68.77 250.43 70.53"/>
            <polygon class="cls-16" points="272.63 57.3 271.84 56.45 270.78 55.71 269.49 55.1 268.01 54.65 266.41 54.37 264.75 54.28 263.08 54.37 261.48 54.65 260.01 55.1 258.71 55.71 257.65 56.45 256.86 57.3 256.38 58.22 256.21 59.17 256.38 60.13 256.76 60.85 256.86 60.66 257.65 59.81 258.71 59.07 260.01 58.46 261.48 58.01 263.08 57.73 264.75 57.64 266.41 57.73 268.01 58.01 269.49 58.46 270.78 59.07 271.84 59.81 272.63 60.66 272.73 60.85 273.12 60.13 273.28 59.17 273.12 58.22 272.63 57.3"/>
            <path class="cls-9" d="M278,56l-1.33-1.42-1.79-1.25-2.18-1-2.49-.76-2.7-.47-2.8-.16-2.81.16-2.7.47-2.49.76-2.18,1-1.79,1.25L251.46,56l-.82,1.55-.14.77.14.78.82,1.54,1.32,1.43,1.79,1.25,2.18,1,.11,0,2.38.73,2.7.47,2.81.16,2.8-.16,2.7-.47,2.39-.73.1,0,2.18-1,1.79-1.25L278,60.65l.82-1.54.13-.78-.13-.77Zm-4.92,4.12-.39.72-.1.19-.79.85-1.06.74-1.29.61-1.48.45-1.6.28-1.66.1-1.67-.1-1.6-.28L260,63.24l-1.3-.61-1.06-.74-.79-.85-.1-.19-.38-.72-.16-1,.16-1,.48-.92.79-.85,1.06-.74,1.3-.61,1.47-.45,1.6-.28,1.67-.09,1.66.09,1.6.28,1.48.45,1.29.61,1.06.74.79.85.49.92.16,1Z"/>
            <path class="cls-9" d="M246,61.94l.37.4h0l1.49,1.6,2.52,1.76,3.07,1.44,3.5,1.08,3.8.66,3.95.22,3.95-.22,3.8-.66,3.5-1.08,3.07-1.44L281.58,64l1.5-1.6h0l.38-.4,1.15-2.18L285,57.5l-.39-2.27-1.15-2.18-1.88-2-2.51-1.76L276,47.84l-3.5-1.07-3.8-.67-3.95-.22-3.95.22-3.8.67-3.5,1.07-3.07,1.44L247.91,51l-1.87,2-1.15,2.18-.39,2.27.39,2.26Zm4.6-6,.82-1.55,1.32-1.43,1.79-1.25,2.18-1,2.49-.76,2.7-.47,2.81-.16,2.8.16,2.7.47,2.49.76,2.18,1,1.79,1.25L278,54.34l.82,1.55.28,1.61-.15.83-.13.78L278,60.65l-1.33,1.43-1.79,1.25-2.18,1-.1,0-2.39.73-2.7.47-2.8.16-2.81-.16-2.7-.47-2.38-.73-.11,0-2.18-1-1.79-1.25-1.32-1.43-.82-1.54-.14-.78-.14-.83Z"/>
            <polygon class="cls-16" points="271.84 59.81 270.78 59.07 269.49 58.46 268.01 58.01 266.41 57.73 264.75 57.64 263.08 57.73 261.48 58.01 260.01 58.46 258.71 59.07 257.65 59.81 256.86 60.66 256.76 60.85 256.86 61.05 257.65 61.89 258.71 62.63 260.01 63.24 261.48 63.69 263.08 63.97 264.75 64.07 266.41 63.97 268.01 63.69 269.49 63.24 270.78 62.63 271.84 61.89 272.63 61.05 272.73 60.85 272.63 60.66 271.84 59.81"/>
            <polygon class="cls-16" points="250.64 57.56 251.46 56.01 252.78 54.59 254.57 53.34 256.75 52.31 259.24 51.55 261.94 51.08 264.75 50.92 267.56 51.08 270.25 51.55 272.74 52.31 274.92 53.34 276.71 54.59 278.04 56.01 278.86 57.56 278.99 58.33 279.14 57.5 278.86 55.88 278.04 54.34 276.71 52.91 274.92 51.66 272.74 50.63 270.25 49.87 267.56 49.4 264.75 49.24 261.94 49.4 259.24 49.87 256.75 50.63 254.57 51.66 252.78 52.91 251.46 54.34 250.64 55.88 250.36 57.5 250.5 58.33 250.64 57.56"/>
            <polyline class="cls-17" points="52.43 186.39 52.67 186.47 52.66 186.39 52.43 186.39"/>
            <polygon class="cls-7" points="241.21 351.68 240.49 350.08 239.35 349.02 237.86 348.55 236.13 348.71 234.28 349.49 232.42 350.84 230.69 352.66 229.2 354.84 228.06 357.21 227.34 359.63 227.1 361.92 227.34 363.93 227.57 364.42 228.06 365.52 229.2 366.59 230.69 367.06 232.42 366.9 234.28 366.11 235.83 365 237.23 363.97 238.55 362.59 239.67 360.94 240.54 359.14 241.08 357.31 241.27 355.57 241.45 353.69 241.4 353.27 241.21 351.68"/>
            <polygon class="cls-10" points="254.43 343.42 260.31 360.26 305.63 334.27 307.31 333.3 295.64 326.61 289.56 323.13 288.88 324.66 288.23 326.11 287.07 327.85 285.55 330.12 285.03 330.68 284.33 331.71 281.7 334.52 278.64 336.91 275.25 338.8 271.67 340.1 271.27 340.17 269.27 340.9 264.6 341.76 260.05 341.77 255.78 340.94 251.96 339.3 251.79 339.18 253.15 340.79 254.43 343.42"/>
            <polygon class="cls-7" points="285.36 323.65 284.99 323.73 284.6 323.91 284.2 324.18 283.83 324.53 283.48 324.94 283.18 325.41 282.93 325.9 282.74 326.41 282.63 326.91 282.59 327.39 282.63 327.82 282.74 328.19 282.93 328.49 283.18 328.7 283.48 328.81 283.83 328.83 284.2 328.75 284.6 328.56 284.99 328.3 285.36 327.95 285.71 327.53 285.93 327.2 286.02 327.07 286.26 326.57 286.45 326.06 286.56 325.56 286.6 325.09 286.56 324.66 286.45 324.28 286.26 323.99 286.02 323.78 285.71 323.67 285.36 323.65"/>
            <polygon class="cls-18" points="253.37 333.45 253.18 333.41 252.84 333.35 252.09 333.2 248.63 332.24 247.21 331.7 247.21 331.9 250.22 333.19 253.13 333.76 254.02 333.94 254.48 334.02 256.84 334.02 255.7 333.89 253.37 333.45"/>
            <path class="cls-16" d="M285.28,321.73l-.36.09-.09,0-.48.21h0l-.37.21-.31.16-2.7,1.35-.7.26-2,.76-.57.22-.09,0-.52.14-1.21.34h0l-1.05.29-.59.17-3.61.68-3.71.42-3.76.13-3.75-.13-3.71-.42-3.61-.68-3.46-1-1.42-.54v7.23l1.42.53,3.46,1,.75.15.34.06.18,0,2.34.44,1.14.13,2.15.24.42,0,3.75.14,3.76-.14,3.71-.41h0l3.07-.59.52-.1,2.14-.59,1.32-.37L281,331l3-1.52.38-.22.48-.33.46-.42.42-.5.37-.56.07-.14.23-.46.23-.62.13-.61,0-.58v-1.59l0-.51-.14-.45-.22-.35-.31-.26-.37-.14Zm1,2.26.18.29.12.38,0,.43,0,.47-.12.5-.18.51-.25.5-.09.13-.22.33-.35.42-.37.35-.39.27-.4.18-.37.08-.35,0-.3-.11-.68-.39.68.39-.25-.21-.19-.3-.11-.37,0-.43,0-.48.11-.5.19-.51.25-.49.3-.47.35-.41.37-.35.4-.27.39-.18.37-.08h.35l.31.12-1-.57,1,.57Z"/>
            <polygon class="cls-14" points="275.29 324.1 273.3 324.65 270 325.28 269.33 325.36 266.6 325.66 264.73 325.73 263.16 325.79 262.3 325.75 259.72 325.66 256.33 325.28 253.03 324.65 252.14 324.41 249.86 323.77 249.06 323.47 247.21 322.77 247.21 324.47 247.21 324.48 248.63 325.02 252.09 325.98 255.7 326.66 259.41 327.08 263.16 327.21 266.92 327.08 270.63 326.66 274.24 325.98 274.83 325.81 275.88 325.52 275.88 325.52 277.09 325.18 277.61 325.04 277.7 325.02 278.27 324.8 280.26 324.04 280.96 323.78 283.66 322.43 283.97 322.27 284.34 322.06 284.35 322.05 284.83 321.84 284.92 321.81 285.28 321.73 285.7 321.75 286.07 321.89 285.12 321.34 284.31 320.88 283.94 320.74 283.52 320.73 283.07 320.83 282.59 321.04 282.58 321.05 282.21 321.26 281.9 321.42 281.86 321.44 279.98 322.38 279.82 322.46 279.49 322.63 279.45 322.64 278.9 322.86 278.82 322.88 278.57 322.98 278.2 323.12 277.25 323.48 276.47 323.77 275.29 324.1"/>
            <polygon class="cls-19" points="248.8 299.79 247.2 301.51 247.2 301.52 247.2 301.57 247.2 305.38 247.2 305.93 247.2 308.08 247.2 310.29 247.2 312.8 247.2 316.19 247.21 319.31 247.21 320.42 247.21 322.77 249.06 323.47 249.86 323.77 252.14 324.41 253.03 324.65 256.33 325.28 259.72 325.66 262.3 325.75 263.16 325.79 264.73 325.73 266.6 325.66 269.33 325.36 270 325.28 273.3 324.65 275.29 324.1 276.47 323.77 277.25 323.48 278.02 322.66 278.27 322.39 278.88 321.74 279.15 321.34 279.17 321.31 280.24 319.71 281.4 317.98 281.79 317.1 283.17 313.99 283.32 313.36 284.13 309.92 284.14 309.77 284.15 309.04 284.16 308.97 284.24 305.93 283.49 302.18 282.46 299.99 282.02 299.06 280.18 296.81 277.16 294.57 276.01 294.07 269.3 297.92 269.06 298.04 268.33 298.38 267.22 298.72 266.02 298.93 264.77 299 264.77 299 263.52 298.93 262.32 298.72 261.21 298.38 260.24 297.92 255.53 295.23 252.5 296.91 248.8 299.79"/>
            <polygon class="cls-10" points="247.21 335.93 248.57 336.71 247.21 335.05 247.21 335.93"/>
            <path class="cls-5" d="M246.35,140.34l-1.5-2.52V123.5l.31.33,2.93,2,3.58,1.68,4.07,1.25,4.43.77,4.6.26,4.6-.26,4.42-.77,4.08-1.25,3.57-1.68,2.94-2,.3-.33v86.92l-.38,2.23-1.13,2.15-1.84,2-2.48,1.73-3,1.42L272.39,221l-3.74.65-3.88.22-3.89-.22-3.73-.65-3.45-1.06-.62-.29,3.95-2.27,10-5.74,3.22-1.84,2-1.13v-59l-5.63-3.23-6-.14-5.95-1.17-4.89-2Zm-38.65,200-1.11-.84L205,338.25,202.71,335l-.52-1.11-.8-1.69-.86-1.82-1.91-4.6,0,0L197,321.21l-.56-1.81-.84-2.74-1.16-4.53-.66-3.23-.27-1.3-.72-4.51-.51-4.52-.31-4.51-.14-4.53,0-4.53.2-4.55.76-6.52,1.45-6.55,2.05-6.49,2.56-6.33,3-6.1,3.33-5.77,3.59-5.35,5.36-5.77,7.16-6.17,7.48-5.67,2.37-1.6,4.17-2.82,2.55-1.41v-38L233,179.26l-6.89,5.07L218.9,190l-3.72,3.17-3.07,2.61-2.49,2.43-3.11,3L202.66,206l-3.37,4.74-3.17,4.87-3,5-2.67,5-2.37,4.94-2.09,5-1.9,5.18-1.69,5.32L181,251.36l-1.3,5.53-1.11,5.58-.9,5.61-.72,5.61-.53,5.57-.35,5.5-.16,5.41,0,5.28.17,5.16.29,5,.4,4.92.52,4.79.48,3.47.16,1.18.76,4.49.89,4.34.32,1.33.69,2.83,1.15,4,.87,2.57.41,1.23.62,1.59.69,1.75.1.26,1.55,3.39,1.33,2.76.31.65.87,1.79.86,1.74,1.86,3.53,2.08,3.37,2.35,3.08,2.69,2.64.64.43,1.29-6.66,1.28-4.11,1.85-4.3.23-.45,2.09-3.88,2.73-4.19,2.15-2.77.11-.14-1.16-.37Zm39.51-6.2v-9.64h0v-23h0v-10l-.28-1.26-.34-1.51-1.11-1.84-1.4-1-1.59-.18-.57.19-1.11.38-.33.25-1.35,1-1.6,1.95-1.41,2.56L235,295.25l-.76,3.64-.13,8.93-.09,5.67,0,2.17,0,2.31-.08.72-.4,3.56-.73,2.24-.59,1.84-1.33,2.49.77-.06.86.13,1.84.25.31.05,2.71,1.05h0l.9.51,9,5.17v-1.81ZM310,336.79l-48.25,27.67-57.2,32.81L216.25,404l57.19-32.81,48.25-27.67,7.07-4.06,1.87-1.07L319,331.66l-1.87,1.07ZM160.16,390.16l14,8,14,8,14,8,14,8,64.26-36.86,64.27-36.86-14-8-.13-.07v8.11l-57.19,32.8-57.19,32.81-11.67-6.69-11.66-6.69-11.66-6.69-11.66-6.69-11.67-6.69-11.66-6.69V366l-14.15,8.11,14,8Z"/>
            <path class="cls-20" d="M241.62,109.35l-.46-2.64.46-2.64,1.34-2.54,2.18-2.34,1.27-.89v8.41l.36,2.05,1,2,1.69,1.82,2.28,1.6,2.78,1.3,3.17,1,3.44.6,1.39.08,2.19.12,3.57-.2,3.44-.6,3.17-1,2.78-1.3,2.28-1.6,1.7-1.82,1-2,.35-2.05V98.3l1.28.89,2.18,2.34,1.34,2.54.1.61.35,2-.45,2.64-1.34,2.54-2.18,2.33-2.94,2L277.85,118l-4.08,1.25-4.42.77-4.6.26-4.6-.26-2-.35-2.43-.42L251.65,118l-3.58-1.69-2.93-2L243,111.89ZM168.54,345.24l2.08,3.37.66.87,1.14,1.49.55.72,2.69,2.64h0l2.33,1.56.75.51,1.9,1.08,1,.56,1.67,1,4.54,2.6,4.53,2.6,4.54,2.6,2,1.18,0-.21-.64-.43-2.69-2.64-2.35-3.08-2.08-3.37-1.86-3.53L188.5,353l-.87-1.79-.31-.65L186,347.78l-1.55-3.39-.1-.26-.69-1.75-.62-1.59-.41-1.23-.87-2.57-1.15-4-.69-2.83-.32-1.33-.89-4.34-.76-4.49-.16-1.18-.48-3.47-.52-4.79-.4-4.92-.29-5-.17-5.16,0-5.28.16-5.41.35-5.5.53-5.57.72-5.61.9-5.61,1.11-5.58,1.3-5.53,1.49-5.44,1.69-5.32,1.9-5.18,2.09-5,2.37-4.94,2.67-5,3-5,3.17-4.87,3.37-4.74,3.85-4.75,3.11-3,2.49-2.43,3.07-2.61L218.9,190l7.19-5.65,6.89-5.07,4.88-3.35-.08,0-4.46-2.56-1.17-.67-3.36-1.93-2.27-1.3-2.27-1.31-3.36-1.93-1.18-.67-4.46-2.56-.07,0-4.88,3.35-.68.5-6.21,4.57L196.22,177l-6.79,5.79-5.6,5.45L180,192.94l-3.37,4.75-3.18,4.87-2.94,4.95-2.67,5-2.37,4.93-2.1,5-1.89,5.18-1.69,5.32-1.5,5.44-1.3,5.53-1.1,5.58-.91,5.61-.72,5.6-.53,5.57-.34,5.51-.16,5.41,0,5.28.17,5.16.28,5,.4,4.92.52,4.79.64,4.64.77,4.5.88,4.33,1,4.17,1.15,4,1.27,3.8,1.42,3.6,1.55,3.39,1.64,3.41.75,1.53,1,2Z"/>
            <polygon class="cls-7" points="279.56 295.94 281.9 298.81 282.02 299.06 282.46 299.99 283.49 302.18 284.24 305.93 284.16 308.97 284.15 309.04 284.14 309.77 284.13 309.92 283.32 313.36 283.17 313.99 281.79 317.1 281.4 317.98 280.24 319.71 279.17 321.31 279.15 321.34 278.88 321.74 278.27 322.39 278.02 322.66 277.25 323.48 278.2 323.12 278.57 322.98 278.82 322.88 278.9 322.86 279.45 322.64 279.49 322.63 279.82 322.46 279.98 322.38 279.99 322.37 280.75 321.23 281.35 320.34 282.67 318.37 282.71 318.29 284.56 314.11 284.57 314.08 285.22 311.32 285.38 310.66 285.58 309.78 285.69 305.54 284.89 301.54 283.21 297.95 280.71 294.89 278.04 292.91 276.59 293.74 279.56 295.94"/>
            <polygon class="cls-9" points="290.45 309.29 288.77 305.69 285.65 301.35 283.21 297.95 284.89 301.54 285.69 305.54 285.58 309.78 285.38 310.66 285.22 311.32 284.57 314.08 284.56 314.11 282.71 318.29 282.67 318.37 281.35 320.34 280.75 321.23 279.99 322.37 279.98 322.38 281.86 321.44 281.9 321.42 282.21 321.26 282.58 321.05 282.59 321.04 283.07 320.83 283.52 320.73 283.94 320.74 284.31 320.88 285.12 321.34 286.07 321.89 286.38 322.15 286.6 322.5 286.74 322.95 286.78 323.46 286.78 323.48 286.78 325.06 286.73 325.63 286.6 326.24 286.37 326.86 286.14 327.32 286.07 327.46 285.7 328.02 285.28 328.52 284.82 328.94 284.34 329.27 283.96 329.49 280.96 331.01 277.7 332.24 276.38 332.61 274.24 333.2 273.72 333.3 270.65 333.89 270.63 333.89 266.92 334.3 263.16 334.44 259.41 334.3 258.99 334.26 256.84 334.02 254.48 334.02 254.02 333.94 253.13 333.76 250.22 333.19 247.21 331.9 247.21 334.12 247.21 335.05 248.57 336.71 248.98 336.94 251.3 338.6 251.34 338.64 251.79 339.18 251.96 339.3 255.78 340.94 260.05 341.77 264.6 341.76 269.27 340.9 271.27 340.17 271.67 340.1 275.25 338.8 278.64 336.91 281.7 334.52 284.33 331.71 285.03 330.68 285.55 330.12 287.07 327.85 288.23 326.11 288.88 324.66 289.56 323.13 290.12 321.86 291.08 317.81 291.14 317.53 291.26 313.28 290.45 309.29"/>
            <path class="cls-21" d="M208.25,315.39h.1l-.62,1.16-.3.56-2.59,3.41-3,2.92-3.22,2.28L197,321.21l-.56-1.81,1.33-.9.9-.52,3.17-1.49,3.25-.87Zm53.53,49.07-57.2,32.81,1.47-5.89L211.13,371l.8-3.2,1.29-4.11,1.84-4.31,2.33-4.32,2.72-4.19,2.62-3.37.39-.51,1.76-1.89,1.43-1.54,3.25-2.84,3.17-2.15.9-.52,3.17-1.49,3.25-.87,3.19-.23,3,.42,1,.37,1.45.57.32.12,2.32,1.66,0,0,.45.54,1.36,1.6,1.28,2.64,5.88,16.84Zm-20.33-10.77,0-.42-.19-1.59-.72-1.6L239.35,349l-1.49-.47-1.73.16-1.85.78-1.86,1.35-1.73,1.82-1.49,2.18-1.14,2.37-.71,2.42-.25,2.29.25,2,.22.49.49,1.1,1.14,1.07,1.49.47,1.73-.16,1.86-.79,1.55-1.12,1.4-1,1.32-1.38,1.12-1.65.87-1.8.54-1.83.19-1.74Zm-8.72-29.2.73-2.24.4-3.56.08-.72,0-2.31,0-2.17.09-5.67.13-8.93.76-3.64,1.12-3.13,1.41-2.56,1.6-1.95,1.35-1,.33-.25,1.11-.38.57-.19,1.59.18-3-1.73-1.53-.87-4-2.29-.55-.31-4.54-2.61-3-1.72-1.53-.88-4.53-2.6-1.59-.19-1.68.58-.34.25-1.35,1-1.59,1.95-1.41,2.56-1.13,3.12-.75,3.65L211.26,305l-.49,4.28-1.32,4.09-.38.73-.72,1.35-.62,1.16-.3.56-2.59,3.41-3,2.92-3.22,2.28,0,0,1.91,4.6.86,1.82.8,1.69.52,1.11,2.24,3.25,1.64,1.23,1.11.84,1.85.58,1.16.37.75-1,1-1.06,2.2-2.37.14-.12,3.1-2.72,3.18-2.15.44-.26.46-.26,2.56-1.2.61-.29,3.24-.87,2.21-.16.22,0,1.33-2.49ZM192.35,364.2l-4.53-2.6-4.54-2.6-1.67-1-1-.56-1.9-1.08-.75-.51-2.33-1.56-.63,3.26-.68,3.51-4.75,24.43,29.17-16.73.16-.82-2-1.18Zm129.34-20.72-48.25,27.67L216.25,404v10.26l57.19-32.81,57.19-32.8V338.35l-1.87,1.07Zm-41.18,42-64.26,36.86v12.35l64.26-36.87L344.78,361V348.61Zm25.12-51.2-45.32,26,1.47,4.2L310,336.79l7.07-4.06,1.87-1.07-3,.42-8.66,1.22Z"/>
            <path class="cls-22" d="M202.32,310.18l6.75,3.87-.72,1.35h-.1l-3.19.23-3.25.87L198.64,318l-.9.52-1.33.9-.84-2.74-1.16-4.53-.66-3.23,2.84-.2,3,.42ZM248.07,127l3.58,1.69,4.07,1.25,1.57.27,2.86.5,4.6.26,4.6-.26,4.42-.77,4.08-1.25,2.77-1.31.8-.38,2.94-2,.3-.32,1.44-1.55.44-.46,1.34-2.54.45-2.64V106.71l-.45,2.64-1.34,2.54-2.18,2.33-2.94,2L277.85,118l-4.08,1.25-4.42.77-4.6.26-4.6-.26-2-.35-2.43-.42L251.65,118l-3.58-1.69-2.93-2L243,111.89l-1.34-2.54-.46-2.64v10.72l.46,2.64,1.34,2.54,1.87,2,.31.32Zm-45.84,287.3-14-8-14-8-14-8-14-8-14-8v12.34l14,8.05,14,8,14,8,14,8,14,8,14,8.05V422.33Zm-44.3-33.52,11.67,6.69,11.66,6.69,11.66,6.69,11.66,6.69,11.67,6.69V404l-11.67-6.69,1.47-5.89L211.13,371l.8-3.2,1.29-4.11,1.84-4.31,2.33-4.32,2.72-4.19,2.62-3.37.39-.51,1.76-1.89,1.43-1.54,3.25-2.84,3.17-2.15.9-.52,3.17-1.49,3.25-.87,3.19-.23,3,.42,1,.37,1.45.57.32.12-.41-.23-1.36-.78-9-5.17-.9-.51h0l-2.71-1.05-.31-.05-1.84-.25-.86-.13-.77.06-.22,0-2.21.16-3.24.87-.61.29-2.56,1.2-.46.26-.44.26L217.89,334l-3.1,2.72-.14.12-2.2,2.37-1,1.06-.75,1-.11.14-2.15,2.77-2.73,4.19-2.09,3.88-.23.45-1.85,4.3-1.28,4.11L199,367.77l0,.21-.16.82-5.85,30.11-11.66-6.69-11.66-6.69,4.75-24.43.68-3.51.63-3.26h0L173,351.69l-.55-.72-1.14-1.49-.66-.87-2.08-3.37-1.87-3.53-1-2-.42,1.33-3.46,13.86-.62,2.5-2.36,9.47-.91,3.64L155.21,369l-7.07-4.06-1.87-1.07v10.26Zm131.63-57.64,6.08,3.48,11.67,6.69,8.66-1.22-13.25-7.6-11.64-6.67-1,4.05Z"/>
            <g>
              <path class="cls-23" d="M432.27,422.35c-4.76.85-7.82-.78-12.16-2.92L377,398.16c-8.05-4-17-9.09-18.79-17.89-1-4.91.54-10.17-1-14.93-1.75-5.34-6.87-8.69-10.68-12.81-14.72-15.92-9-41.43-15.59-62.1-4.47-14.09-14.76-25.76-26.7-34.47S267.46,237.63,254,231.61L213.61,254c13.5,6,39,19.11,51,27.83s22.24,20.38,26.71,34.47c6.55,20.67.86,46.18,15.58,62.1,3.82,4.12,8.93,7.47,10.68,12.81,1.56,4.76,0,10,1,14.93,1.77,8.8,10.74,13.92,18.79,17.89l43.11,21.27c4.34,2.14,9.07,4.35,13.84,3.49Z"/>
              <path class="cls-9" d="M251,251.33a14.66,14.66,0,0,0-1.19,1.26,5.25,5.25,0,0,1-3.77,1.35,11.93,11.93,0,0,1-2.4-.29c.1.75.19,1.49.29,2.23l.13,1-1-.11a30.59,30.59,0,0,1-5.45-1.09,1.15,1.15,0,0,0-.07.36l0,.25h0l-1.6.38-.08-.63a2.88,2.88,0,0,1,.69-1.85l.35-.41.52.16a29.33,29.33,0,0,0,4.73,1l-.3-2.29-.15-1.2,1.17.29a13.77,13.77,0,0,0,3.17.48,3.62,3.62,0,0,0,2.63-.88A10.38,10.38,0,0,1,250,250a5.19,5.19,0,0,1,2.4-.73,3.26,3.26,0,0,0,1.59-.47,4.08,4.08,0,0,0,.88-1.49,4,4,0,0,1,1.57-2,3,3,0,0,1,1.43-.35c1.1,0,2,.39,2.71.37h.12a3,3,0,0,0,1.87-.91,26.82,26.82,0,0,0,1.86-2,5.91,5.91,0,0,1,4-2.07,2.88,2.88,0,0,1,1.93.7l-1.07,1.25a1.23,1.23,0,0,0-.86-.3,4.38,4.38,0,0,0-2.79,1.53,29,29,0,0,1-2,2.14,4.78,4.78,0,0,1-2.88,1.33h-.21c-1.12,0-2.07-.39-2.71-.37a1.22,1.22,0,0,0-.63.14,2.47,2.47,0,0,0-.86,1.27,5.25,5.25,0,0,1-1.36,2.11,4.55,4.55,0,0,1-2.4.82A3.91,3.91,0,0,0,251,251.33Zm15.12,7.34a2,2,0,0,0,1.72-.87,2.39,2.39,0,0,0,.37-1.41c0-.26,0-.48,0-.67l.06-.45.32-.34a2.08,2.08,0,0,1,.85-.14A7.3,7.3,0,0,1,271,255a4.92,4.92,0,0,0,1.09.12,4.37,4.37,0,0,0,2-.44,2.07,2.07,0,0,0,1.17-1.82v-.22h0a3.41,3.41,0,0,0-.1-.52l.23,0,5.85-.39-.1-1.64-5.86.39a2.87,2.87,0,0,0-.78.14,1.51,1.51,0,0,0-.88.76l-.13.62a4.28,4.28,0,0,0,.13.83v.06c0,.14,0,.19-.3.36a2.65,2.65,0,0,1-1.2.25,3.24,3.24,0,0,1-.72-.08,9,9,0,0,0-1.95-.25,3.59,3.59,0,0,0-1.53.29,2.19,2.19,0,0,0-1.18,1.26,2.88,2.88,0,0,0-.16,1c0,.26,0,.49,0,.67a1,1,0,0,1-.08.49c-.11.12-.08.12-.36.14a6.21,6.21,0,0,1-1.12-.2,6.79,6.79,0,0,0-1.58-.25l-.42,0a2.87,2.87,0,0,0-1.89,1.15,3.91,3.91,0,0,0-.74,2v.35a6.38,6.38,0,0,0,.36,2l-5.77-.49a9.2,9.2,0,0,0-.94-.05,3.66,3.66,0,0,0-1.85.42,3.25,3.25,0,0,0-1.52,2.89,4,4,0,0,0,.22,1.34,8.64,8.64,0,0,0,2.39,3.21l1.15-1.18h0a7.16,7.16,0,0,1-2-2.57,2.36,2.36,0,0,1-.13-.8,1.61,1.61,0,0,1,.68-1.45,2.07,2.07,0,0,1,1-.21c.25,0,.52,0,.8,0l7,.6,1.33.11-.49-1.24a7.16,7.16,0,0,1-.69-2.6v-.22a2.19,2.19,0,0,1,.42-1.12,1.22,1.22,0,0,1,.79-.52h.2a5.15,5.15,0,0,1,1.19.2A7,7,0,0,0,266.08,258.67Zm8.74,9a2.85,2.85,0,0,1,.29-1.1,1.14,1.14,0,0,1,.66-.48,4.65,4.65,0,0,1,1.29-.13l1.28,0a4.29,4.29,0,0,0,3.2-1,4.91,4.91,0,0,0,.92-1.48,2.57,2.57,0,0,1,.58-.93,1.5,1.5,0,0,1,1-.31c.69,0,1.63.24,2.64.24H287a4.62,4.62,0,0,0,4.16-4.48,10.69,10.69,0,0,0,3.63-.66l-.57-1.54a9,9,0,0,1-3.09.55,7.63,7.63,0,0,1-.82,0l-1.17-.11.3,1.14.08.59a3,3,0,0,1-2.61,2.9h-.2c-.72,0-1.65-.24-2.64-.24a3.07,3.07,0,0,0-2.11.7,4.08,4.08,0,0,0-1,1.48,3.6,3.6,0,0,1-.59,1,2.83,2.83,0,0,1-2,.51l-1.28,0a6,6,0,0,0-1.77.21,2.72,2.72,0,0,0-1.57,1.17,5.65,5.65,0,0,0-.6,2.26,2.92,2.92,0,0,1-.17.73l-.23.29-.27.07a7.31,7.31,0,0,1-2-.84,4.61,4.61,0,0,0-5.94,2.2,3.45,3.45,0,0,0-.27,1.37,4.16,4.16,0,0,0,1,2.65,3.41,3.41,0,0,0,2.57,1.28l0-1.65h0a1.76,1.76,0,0,1-1.33-.69,2.56,2.56,0,0,1-.59-1.59A1.94,1.94,0,0,1,266,271a2.83,2.83,0,0,1,2.63-1.56,2.9,2.9,0,0,1,1.14.23,7.06,7.06,0,0,0,2.69,1,2.18,2.18,0,0,0,1.11-.3,2.21,2.21,0,0,0,.91-1.07A6.11,6.11,0,0,0,274.82,267.65Zm17.32,6.21h0v-.61a1.34,1.34,0,0,1,.1-.69l.24-.21a3,3,0,0,1,1-.23,8.16,8.16,0,0,0,1.47-.26,4.08,4.08,0,0,0,2.59-3A14.91,14.91,0,0,0,298,265a2.32,2.32,0,0,1,.37-1.54,1.07,1.07,0,0,1,.83-.27,4.5,4.5,0,0,1,1.51.32,36.83,36.83,0,0,1,6.25,2.88l.83-1.42h0a38.62,38.62,0,0,0-6.53-3,6.34,6.34,0,0,0-2.06-.41,2.71,2.71,0,0,0-2,.77,3.75,3.75,0,0,0-.83,2.67,13.38,13.38,0,0,1-.38,3.42,2.43,2.43,0,0,1-1.51,1.87,14.75,14.75,0,0,1-1.66.27,3.58,3.58,0,0,0-1,.32,2.16,2.16,0,0,0-.92.86,2.92,2.92,0,0,0-.32,1.51v.56a3.77,3.77,0,0,1-2,3,8.79,8.79,0,0,1-4.24,1.23,8.57,8.57,0,0,0-2,.24,2.66,2.66,0,0,0-1.81,1.46,3.54,3.54,0,0,0-.21,1.34,2.52,2.52,0,0,1-.07.78c-.1.29-.32.49-.8.69a9.09,9.09,0,0,1-1.75.38,5.05,5.05,0,0,0-2.07.76,2.48,2.48,0,0,0-1.23,2l0,.4,1.62-.31v-.09c0-.17.11-.4.49-.66a3.55,3.55,0,0,1,1.4-.5,10,10,0,0,0,2.1-.48,2.79,2.79,0,0,0,1.77-1.69,4.06,4.06,0,0,0,.16-1.29,2,2,0,0,1,.08-.72c.1-.23.29-.38.74-.51a6.91,6.91,0,0,1,1.6-.18,10.41,10.41,0,0,0,5.07-1.49A5.38,5.38,0,0,0,292.14,273.86Zm4.45,17a3.23,3.23,0,0,1,1.25-.26,13.19,13.19,0,0,0,1.77-.14,5.78,5.78,0,0,0,3.27-2.1,13.59,13.59,0,0,0,1.53-2.36,7.52,7.52,0,0,0,4,1.5,3.13,3.13,0,0,0,2.55-1.21,7.5,7.5,0,0,0,.87-1.83c.85-2,3.18-3.11,5.55-4.06l.39,0v-.12l0,.16.23-.06,4.46-1.17-5.37-.53-.19.08c-2.44,1-5.35,2.2-6.62,5a6.92,6.92,0,0,1-.68,1.49,1.41,1.41,0,0,1-1.24.57,7,7,0,0,1-3.74-1.7l-.8-.64-.46.91a15,15,0,0,1-1.77,2.88,4.13,4.13,0,0,1-2.33,1.54,11,11,0,0,1-1.54.12,4.78,4.78,0,0,0-1.9.42,7,7,0,0,0-2.18,2.19,5.55,5.55,0,0,1-.75.85,1.31,1.31,0,0,1-.7.32h-.11a3.16,3.16,0,0,1-1.51-.64,5.08,5.08,0,0,0-2.36-.95h-.17a3.14,3.14,0,0,0-2.74,1.77,6.61,6.61,0,0,0-.77,3.2l0,.68,1.64-.17h0l0-.51a5.23,5.23,0,0,1,.56-2.39,1.52,1.52,0,0,1,1.31-.93h.07a3.78,3.78,0,0,1,1.59.71,4.56,4.56,0,0,0,2.38.89h.27a3,3,0,0,0,1.58-.69,9.56,9.56,0,0,0,1.45-1.68A3.71,3.71,0,0,1,296.59,290.85ZM308,303.67a11.81,11.81,0,0,1,1.68-1.8,3.5,3.5,0,0,1,1.81-.86l.45,0c.64,0,1.4.14,2.24.15a4.1,4.1,0,0,0,1.64-.31,7.05,7.05,0,0,0,2.35-2.15,4.6,4.6,0,0,1,.82-.83,1.19,1.19,0,0,1,.72-.28h0c.3,0,.8.19,1.53.24h.13a3.37,3.37,0,0,0,2.52-1.23,6.71,6.71,0,0,0,1.32-2.33,16.18,16.18,0,0,1,1.08-2.87l1.15-.1c0-.5-.09-1-.13-1.49l-.14-1.49-1.19.92c-1.55,1.24-1.84,3.12-2.33,4.5a5.38,5.38,0,0,1-1,1.76,1.78,1.78,0,0,1-1.3.69h-.06c-.32,0-.84-.23-1.6-.25h-.07a2.85,2.85,0,0,0-1.66.59,10.06,10.06,0,0,0-1.57,1.66,3.93,3.93,0,0,1-1.28,1.14,2.42,2.42,0,0,1-1,.17c-.62,0-1.38-.15-2.24-.15l-.67,0a5.12,5.12,0,0,0-2.64,1.21,24,24,0,0,0-2.77,3.08,6.26,6.26,0,0,1-2.68,2.13c-1.13.4-2.66.09-4.36.35a4.58,4.58,0,0,0-2.21,1.07,3,3,0,0,0-1.11,2.22,2.43,2.43,0,0,0,.15.83l1.55-.55h0l-.05-.28a1.46,1.46,0,0,1,.56-1,2.78,2.78,0,0,1,1.39-.67c1.26-.25,2.88.12,4.6-.42C305.67,306.69,306.85,305,308,303.67Zm-6.62,21.62A7.32,7.32,0,0,1,307,319.7c1.42-.29,3.18-.08,4.94-.8a13,13,0,0,0,3.73-3c1.06-1.05,2-1.78,3.11-1.82h.11c.91,0,2.05.52,3.45.55a3.78,3.78,0,0,0,.74-.07,4.6,4.6,0,0,0,2.51-1.54c.63-.7,1.13-1.49,1.61-2.13a3.81,3.81,0,0,1,2.56-1.72l.61.16.82-1.42a2.78,2.78,0,0,0-1.43-.39,5.32,5.32,0,0,0-3.89,2.39c-.52.71-1,1.44-1.5,2a3,3,0,0,1-1.6,1l-.43,0c-.88,0-2-.52-3.45-.55h-.19a6.52,6.52,0,0,0-4.19,2.28,11.55,11.55,0,0,1-3.22,2.63c-1.21.54-2.84.39-4.59.7a9,9,0,0,0-7,6.88l1.61.33ZM302.5,342a12.09,12.09,0,0,1,1.29-2.76,3.09,3.09,0,0,1,1.91-1.41l.49-.05c1.09,0,2.46.69,4.1.72l.73-.06a4.93,4.93,0,0,0,2.56-1.38c1-1,1.79-2.19,2.59-3.11a3.41,3.41,0,0,1,2.44-1.5h.05c.59,0,1.38.31,2.41.33h.16a4,4,0,0,0,2.13-.74,15.28,15.28,0,0,0,2.24-2.14,5.75,5.75,0,0,1,2-1.56,20,20,0,0,1,3.11-.46,4.42,4.42,0,0,0,1.89-.82,2.72,2.72,0,0,0,1.1-1.93l-1.64-.12a1.07,1.07,0,0,1-.47.75,2.73,2.73,0,0,1-1.18.5,17.62,17.62,0,0,0-3.4.54,9.56,9.56,0,0,0-3.29,2.7,8.37,8.37,0,0,1-1.29,1.17,2.42,2.42,0,0,1-1.27.47h-.09c-.59,0-1.38-.31-2.41-.33h-.08a4.22,4.22,0,0,0-2.67,1.09,22.18,22.18,0,0,0-2.65,3.09,4.43,4.43,0,0,1-2.52,1.83l-.45,0c-1.08,0-2.45-.68-4.1-.71a4.4,4.4,0,0,0-.8.07,4.68,4.68,0,0,0-2.95,2.1,13.08,13.08,0,0,0-1.49,3.15l1.55.54Zm9.16,13,.41,0c.79,0,1.86.46,3.13.49a3.38,3.38,0,0,0,1.15-.19,3.54,3.54,0,0,0,1.85-1.69,26.91,26.91,0,0,0,1.2-3.15,4,4,0,0,1,.6-1.1,1.35,1.35,0,0,1,.74-.48l.34,0a5.65,5.65,0,0,1,1.76.47,6.43,6.43,0,0,0,2.26.58,2.4,2.4,0,0,0,1.57-.54,3.94,3.94,0,0,0,1.06-1.59c.8-1.9,1.61-3.79,2.41-5.69a47.38,47.38,0,0,1,5.37,5.13l1.23-1.09h0a48.85,48.85,0,0,0-6.4-6.05l-.85-.66-.42,1-2.86,6.72a2.4,2.4,0,0,1-.56.95l-.55.18a5.3,5.3,0,0,1-1.67-.47,6.76,6.76,0,0,0-2.35-.57,3.08,3.08,0,0,0-.73.08,3.18,3.18,0,0,0-2,1.52,18.66,18.66,0,0,0-1.24,3.15,5.15,5.15,0,0,1-.6,1.2,1.62,1.62,0,0,1-.76.6l-.58.09c-.76,0-1.84-.47-3.13-.49a3.25,3.25,0,0,0-.75.08,3.82,3.82,0,0,0-2.7,2.48,9.17,9.17,0,0,0-.53,2.17,2.82,2.82,0,0,0-.7-.1,2.92,2.92,0,0,0-1.19.25,5.93,5.93,0,0,0-2.15,1.9l-2.75,3.43,1.28,1,2.75-3.42a4.49,4.49,0,0,1,1.54-1.43l.52-.11a.76.76,0,0,1,.68.29l1.41,2.3.12-2.7a9.17,9.17,0,0,1,.55-3A2.17,2.17,0,0,1,311.66,355.05ZM322.16,369a11.71,11.71,0,0,1-1.42,2.26,2.79,2.79,0,0,1-1.8.95l-.28,0a4.45,4.45,0,0,1-1.68-.42,4.63,4.63,0,0,0-1.16-.39h-.17a1.92,1.92,0,0,0-1.26.55,3.06,3.06,0,0,0-.85,1.37,5,5,0,0,0-.17,1.35,13.13,13.13,0,0,0,.33,2.62l.77,4.07-2.27-3.47-1.7-2.58h0l1.23-.81a6.24,6.24,0,0,1,.23-1.64,4.59,4.59,0,0,1,1.33-2.13,3.56,3.56,0,0,1,2.36-1l.37,0a5.73,5.73,0,0,1,1.59.5,3.1,3.1,0,0,0,1.05.29h.11a1.13,1.13,0,0,0,.76-.42,6,6,0,0,0,.78-1.19,5.61,5.61,0,0,1,2.47-2.86,3,3,0,0,1,1.19-.24,6.91,6.91,0,0,1,3,1,5.71,5.71,0,0,0,2.25.81l.61-.15a2.62,2.62,0,0,0,.93-1,11.57,11.57,0,0,1,1.09-1.73,2.87,2.87,0,0,1,1.34-.92,3.28,3.28,0,0,1,1-.13c.54,0,1,.08,1.33.08h.22a2.19,2.19,0,0,0,1.44-.88,5.75,5.75,0,0,0,1-1.93c.47-1.45.67-3.32,2-4.8l.47-.51.59.37,4.21,2.68.07,0,.14.22-.15-.14h0l.42.41.23-.92.46.23a.92.92,0,0,1,.33.7,1,1,0,0,1-.3.7l-.37.27a2.06,2.06,0,0,1-.86.21,1.45,1.45,0,0,1-.78-.22l-3.62-2.3a16.77,16.77,0,0,0-1.23,3.6,7.34,7.34,0,0,1-1.28,2.5,3.79,3.79,0,0,1-2.54,1.46l-.39,0c-.54,0-1-.08-1.33-.08l-.45.06-.59.43a6,6,0,0,0-.6.91,5.07,5.07,0,0,1-1.9,2.24,2.93,2.93,0,0,1-1.38.34,7,7,0,0,1-3-1,5.77,5.77,0,0,0-2.28-.8l-.56.11A2.91,2.91,0,0,0,322.16,369Zm23.51-9.17.13-.51h0Zm-12.3,27a1.45,1.45,0,0,1,.84-.34l.16,0a3.87,3.87,0,0,1,1.45.81,3.84,3.84,0,0,0,2.17,1,1.92,1.92,0,0,0,1-.26,3.09,3.09,0,0,0,1.27-1.68q1.38-3.41,2.78-6.82l1,.76.7.55.5-.75c.75-1.17,1.51-2.34,2.27-3.5a1.93,1.93,0,0,1,.6-.7l.27-.07a1.81,1.81,0,0,1,.91.36,14.1,14.1,0,0,1,1.2.91,3.71,3.71,0,0,0,2.21.73,2.36,2.36,0,0,0,1.34-.36,1.72,1.72,0,0,0,.77-1.38L353.1,376l0,.08-.43.09a2.2,2.2,0,0,1-1.2-.39c-.38-.3-.82-.67-1.32-1a3.35,3.35,0,0,0-1.8-.62,2.2,2.2,0,0,0-1,.26,3.31,3.31,0,0,0-1.21,1.26l-1.79,2.74-1.11-.87-.86-.67-.41,1-3.19,7.83c-.19.49-.39.81-.53.86l-.19,0a2.7,2.7,0,0,1-1.19-.65,5.17,5.17,0,0,0-2.18-1.12l-.41,0a3,3,0,0,0-1.82.66,16.57,16.57,0,0,0-1.83,1.82,2.81,2.81,0,0,1-1.5,1h-.19a5,5,0,0,1-1.73-.48,6.08,6.08,0,0,0-2.23-.61,2.39,2.39,0,0,0-1.56.57,3.35,3.35,0,0,0-1,1.9,13.4,13.4,0,0,0,.22,6.91l1.58-.48h0a11.87,11.87,0,0,1-.2-6.06,1.93,1.93,0,0,1,.46-1l.49-.17a5,5,0,0,1,1.61.48,6.45,6.45,0,0,0,2.35.61l.4,0a5.36,5.36,0,0,0,3.06-2.09A8.66,8.66,0,0,1,333.37,386.83Zm21.57,9.6a10.19,10.19,0,0,1,4.1,2.39l1-1.28h0a11.5,11.5,0,0,0-4.82-2.72,4.78,4.78,0,0,0-1-.1,5.09,5.09,0,0,0-2.52.65,3.7,3.7,0,0,0-1.71,2,4.66,4.66,0,0,0-.21,1.53c0,.58.05,1.11.05,1.57a2.18,2.18,0,0,1-.3,1.3,1.24,1.24,0,0,1-.66.5,3.11,3.11,0,0,1-1.1.15c-.79,0-1.76-.14-2.78-.15a5.57,5.57,0,0,0-2,.32l-.41.16-.1.42a9.29,9.29,0,0,0-.23,2,8.78,8.78,0,0,0,.51,2.82,5.51,5.51,0,0,0-.57-.06,4.76,4.76,0,0,0-3.7,1.66,4.33,4.33,0,0,0-.94,2.73,4.4,4.4,0,0,0,.62,2.22,17.08,17.08,0,0,0-5.42,2.56l1,1.34a15.64,15.64,0,0,1,6.1-2.61l1.87-.36-1.54-1.12a2.49,2.49,0,0,1-.94-2,2.7,2.7,0,0,1,.56-1.68,3.14,3.14,0,0,1,2.43-1.07,3.3,3.3,0,0,1,1.56.38l2.55,1.37-1.44-2.5a6.71,6.71,0,0,1-.83-4.79A4.42,4.42,0,0,1,345,404c.84,0,1.81.15,2.78.15a4.79,4.79,0,0,0,1.66-.25,3,3,0,0,0,1.46-1.11,3.84,3.84,0,0,0,.59-2.24c0-.57-.06-1.1-.06-1.57a3.42,3.42,0,0,1,.13-1,2.06,2.06,0,0,1,1-1.12,3.46,3.46,0,0,1,1.7-.43Zm8.86,15.92a4,4,0,0,1,1.23-.21l6.07-.32,1.67-.09-1.09-1.27a1.3,1.3,0,0,1-.32-.91,2.88,2.88,0,0,1,1.88-2.47,4.46,4.46,0,0,1,1.37-.21,12.37,12.37,0,0,1,3.94.91l.55-1.56a14.22,14.22,0,0,0-4.49-1,6.25,6.25,0,0,0-1.89.29,4.49,4.49,0,0,0-3,4,3.11,3.11,0,0,0,.11.68l-4.88.26a5.89,5.89,0,0,0-1.72.32,2.34,2.34,0,0,0-1.48,1.41l-.12.69a4,4,0,0,0,1,2.24,2.64,2.64,0,0,1,.67,1.3v.14l-.35.37a3.13,3.13,0,0,1-1.15.15c-.52,0-1.09-.05-1.64-.08h-.31a5.94,5.94,0,0,0-5.75,4.23,4.29,4.29,0,0,0-.13,1.07,5.1,5.1,0,0,0,1.22,3.27,4.33,4.33,0,0,0,3.11,1.61l.07-1.65h0a2.67,2.67,0,0,1-1.92-1,3.5,3.5,0,0,1-.83-2.21l.08-.67a4.31,4.31,0,0,1,4.15-3H360c.5,0,1.11.08,1.73.08a4.53,4.53,0,0,0,1.77-.28,2.18,2.18,0,0,0,1.33-1.49l.06-.54a4,4,0,0,0-1-2.26,2.72,2.72,0,0,1-.68-1.28l0-.15C363.35,412.6,363.47,412.48,363.8,412.35Zm22.83,2.83a5.25,5.25,0,0,1-.59-1.31l0-.34a2.24,2.24,0,0,1,.77-1.55,3.34,3.34,0,0,1,1.83-.88l.56,0a11,11,0,0,1,4.35,1.3l.68-1.5h0a12.42,12.42,0,0,0-5-1.45,5.06,5.06,0,0,0-.77.05,5,5,0,0,0-2.75,1.31,3.83,3.83,0,0,0-1.28,2.75l.07.68a6.41,6.41,0,0,0,.74,1.74,2.85,2.85,0,0,1,.42,1.18v0a1.5,1.5,0,0,1-.72,1.2,4,4,0,0,1-1.79.69c-1.38.19-3.11-.11-4.83.63a2.72,2.72,0,0,0-1.54,1.52l-.13.71a3.2,3.2,0,0,0,.7,1.8c.34.47.7.89.92,1.23a2.69,2.69,0,0,1,.41,1.46,4.75,4.75,0,0,1-2.24,3.76c-1.85,1.16-4.31,1.29-6.8,1.35l.05,1.64c2.48-.07,5.25-.14,7.62-1.59a6.38,6.38,0,0,0,3-5.16,4.36,4.36,0,0,0-.67-2.34c-.32-.5-.7-.93-1-1.31a1.6,1.6,0,0,1-.39-.84l0-.17a1.15,1.15,0,0,1,.66-.55c1.11-.52,2.66-.32,4.36-.51a5.52,5.52,0,0,0,2.58-1,3.15,3.15,0,0,0,1.37-2.52v-.06A4.35,4.35,0,0,0,386.63,415.18Zm26.08,6.13a1.08,1.08,0,0,0-.88-.42V422l-.42.33.33-.26h-.43l0,.09,0,.05h0a10.93,10.93,0,0,1-4.67,1.76c-1.78.42-3.82.95-5.25,2.53a4.72,4.72,0,0,0-1.17,3.09,3.8,3.8,0,0,0,.36,1.64l-6.77,1a8.25,8.25,0,0,0-4,1.34,5.65,5.65,0,0,0-2,4.51c0,.26,0,.52,0,.77a14.7,14.7,0,0,0,1.8,5l1.46-.76h0a13.2,13.2,0,0,1-1.62-4.42l0-.59a4,4,0,0,1,1.35-3.21,6.8,6.8,0,0,1,3.2-1l8.18-1.22,2.08-.31-1.74-1.19a1.81,1.81,0,0,1-.71-1.56,3.09,3.09,0,0,1,.74-2c1-1.11,2.66-1.63,4.4-2a12.34,12.34,0,0,0,5.35-2.1,1.89,1.89,0,0,0,.66-1.42A1.22,1.22,0,0,0,412.71,421.31Z"/>
            </g>
            <polygon class="cls-9" points="253.76 243.83 251.59 246.03 243.76 250.53 228.74 256.34 228.07 256.72 226.53 257.61 226.36 257.7 226.5 257.44 226.52 257.3 226.57 257.04 226.57 256.86 226.5 256.45 226.29 256.07 225.96 255.71 225.16 254.97 225.4 255.24 225.55 255.52 225.57 255.61 225.6 255.81 225.55 256.11 225.54 256.13 225.4 256.39 225.16 256.65 224.83 256.88 224.43 257.06 223.98 257.2 223.49 257.29 222.97 257.32 222.46 257.29 221.97 257.2 221.52 257.06 221.12 256.88 220.79 256.65 220.55 256.39 220.41 256.13 220.4 256.11 220.37 255.92 220.35 255.81 220.4 255.52 220.55 255.24 220.79 254.97 219.99 255.71 219.66 256.07 219.46 256.44 219.45 256.45 219.38 256.86 219.38 257.57 219.45 257.97 219.66 258.36 219.99 258.71 220.43 259.02 220.98 259.28 221.6 259.47 222.27 259.59 222.97 259.63 223.68 259.59 224.35 259.47 224.97 259.28 225.51 259.02 225.96 258.71 226.29 258.36 226.49 257.98 226.36 258.06 226.49 257.98 228.2 257 228.74 256.69 243.76 250.88 251.59 246.38 253.76 244.19 253.9 243.92 253.97 243.52 253.97 243.16 253.9 243.56 253.76 243.83"/>
            <polygon class="cls-9" points="227.9 258.74 227.4 259.26 226.74 259.73 225.93 260.11 225.01 260.39 224.01 260.56 222.97 260.62 221.94 260.56 220.94 260.39 220.01 260.11 219.21 259.73 218.54 259.26 218.05 258.74 217.75 258.16 217.65 257.57 217.65 260.47 217.75 261.06 218.05 261.64 218.54 262.17 219.21 262.63 220.01 263.01 220.94 263.29 221.94 263.46 222.97 263.52 224.01 263.46 225.01 263.29 225.93 263.01 226.74 262.63 227.4 262.17 227.9 261.64 228.2 261.06 228.3 260.47 228.3 257.57 228.2 258.16 227.9 258.74"/>
            <polygon class="cls-9" points="294.81 267.05 292.64 269.25 284.8 273.74 269.78 279.56 269.11 279.94 267.57 280.82 267.4 280.92 267.54 280.65 267.57 280.52 267.61 280.25 267.61 280.07 267.54 279.67 267.34 279.29 267.01 278.93 266.2 278.19 266.44 278.45 266.59 278.74 266.61 278.83 266.64 279.03 266.59 279.32 266.58 279.34 266.44 279.61 266.2 279.87 265.88 280.09 265.48 280.28 265.02 280.42 264.53 280.5 264.02 280.53 263.51 280.5 263.01 280.42 262.56 280.28 262.16 280.09 261.84 279.87 261.6 279.61 261.46 279.34 261.44 279.32 261.39 279.03 261.44 278.74 261.6 278.45 261.84 278.19 261.03 278.93 260.7 279.29 260.5 279.67 260.43 280.07 260.43 280.79 260.5 281.19 260.7 281.57 261.03 281.93 261.48 282.24 262.02 282.5 262.64 282.69 263.32 282.81 264.02 282.85 264.72 282.81 265.39 282.69 266.02 282.5 266.56 282.24 267.01 281.93 267.34 281.57 267.54 281.2 267.4 281.27 267.54 281.2 269.25 280.22 269.78 279.91 284.8 274.1 292.64 269.6 294.81 267.4 294.95 267.14 295.01 266.73 295.01 266.38 294.95 266.78 294.81 267.05"/>
            <path class="cls-14" d="M253.9,242.76l.07.4-.07.4-.14.27-2.17,2.2-7.83,4.5-15,5.81-.67.38-1.54.89-.17.09.14-.26,0-.14,0-.26v-.18l-.07-.41-.21-.38-.33-.36-.8-.74.24.27.15.28,0,.09,0,.2,0,.3v0l-.14.26-.24.26-.33.23-.4.18-.45.14-.49.09-.52,0-.51,0-.49-.09-.45-.14-.4-.18-.33-.23-.24-.26-.14-.26v0l0-.19,0-.11.05-.29.15-.28.24-.27-.8.74-.33.36-.2.37h0l-.07.41v.71l.07.4.21.39.33.35.44.31.55.26.62.19.67.12.7,0,.71,0,.67-.12.62-.19.55-.26.44-.31.33-.35.2-.38,1.71-1,.1.57-.1.59-.3.58-.5.53-.66.46-.81.38-.92.28-1,.17-1,.06-1-.06-1-.17-.93-.28-.8-.38-.66-.46-.5-.53-.3-.58-.1-.59v-.1l.09-.5.3-.57.5-.53.66-.46.8-.38.93-.29.29-.05.29-.13.45-.14.49-.09.51,0h.2l1-.59,15-5.81,7.83-4.5,2.17-2.2.47-.08.7,0,.7,0,.67.12.62.19.55.26.44.31.34.35Zm8.26,35.53-.32.23-.24.26-.15.28-.06.29.06.3v0l.14.26.24.26.32.23.4.19.45.13.5.09.51,0,.51,0,.49-.09.46-.13.4-.19.32-.23.24-.26.14-.26v0l.05-.3,0-.19,0-.1-.15-.28-.24-.26-.32-.23-.12-.06-.28-.13L265,278l-.29,0-.2,0-.32,0H264l-.51,0-.5.08-.45.14-.28.13Zm5.38,2.91-.2.37-.33.36-.45.31-.54.26-.63.19-.67.12-.7,0-.7,0-.68-.12-.62-.19-.54-.26-.45-.31-.33-.36-.2-.38-.07-.41v-.71l.07-.4.2-.38.33-.36.81-.74.32-.23.12,0-.3,0-.92.28-.81.38-.66.47-.49.53-.31.57-.1.59.1.6.31.57.49.53.66.47.81.38.92.28,1,.17,1,.06,1-.06,1-.17.92-.28.81-.38.66-.47.49-.53.3-.57.11-.6-.1-.56ZM295,266l-.21-.39-.33-.35-.45-.32-.54-.25-.62-.19-.68-.12-.7,0-.7,0-.47.08-2.16,2.2-7.84,4.49-15,5.82-1,.58.32,0,.2,0,.29.05.46.14.28.13.12,0,.32.23.81.74.33.36.2.38.07.4v.18l0,.27,0,.13-.14.27.18-.1,1.53-.88.67-.38,15-5.82,7.84-4.49,2.16-2.2.15-.27.06-.4Z"/>
            <polygon class="cls-7" points="274.38 240.24 273.13 240.62 269.03 241.34 264.77 241.58 260.51 241.34 256.41 240.62 255.15 240.24 254.41 240.01 254.41 246.96 254.41 250.07 254.61 251.23 255.2 252.34 256.16 253.37 257.45 254.27 259.02 255.01 260.38 255.43 260.81 255.56 262.75 255.89 264.77 256.01 266.79 255.89 268.73 255.56 269.15 255.43 270.52 255.01 272.09 254.27 273.38 253.37 274.33 252.34 274.92 251.23 275.12 250.07 275.12 246.96 275.12 240.01 274.38 240.24"/>
            <polygon class="cls-12" points="289.56 216.63 287.08 219.29 283.74 221.62 279.68 223.54 275.04 224.96 270 225.84 264.77 226.13 259.53 225.84 254.5 224.96 249.86 223.54 247.89 222.61 244.4 224.61 243.72 225 243.42 225.17 242.93 224.89 237.97 222.05 238.45 224.85 239.98 227.74 242.46 230.4 243.25 230.96 245.8 232.74 249.86 234.65 252.04 235.32 252.07 235.33 254.41 236.04 254.44 236.05 254.5 236.07 254.51 236.07 259.53 236.95 264.77 237.24 270 236.95 275.02 236.07 275.04 236.07 275.1 236.05 275.12 236.04 277.46 235.33 277.5 235.32 279.68 234.65 283.74 232.74 286.28 230.96 287.08 230.4 289.56 227.74 291.08 224.85 291.6 221.85 291.6 210.74 291.08 213.74 289.56 216.63"/>
            <polygon class="cls-8" points="279.68 234.65 277.5 235.32 277.46 235.33 275.12 236.04 275.1 236.05 275.04 236.07 275.02 236.07 270 236.95 264.77 237.24 259.53 236.95 254.51 236.07 254.5 236.07 254.44 236.05 254.41 236.04 252.07 235.33 252.04 235.32 249.86 234.65 245.8 232.74 243.25 230.96 243.34 231.49 244.59 233.84 246.61 236.01 249.32 237.91 250.36 238.39 252.63 239.46 254.41 240.01 255.15 240.24 256.41 240.62 260.51 241.34 264.77 241.58 269.03 241.34 273.13 240.62 274.38 240.24 275.12 240.01 276.9 239.46 279.18 238.39 280.21 237.91 282.93 236.01 284.95 233.84 286.19 231.49 286.28 230.96 283.74 232.74 279.68 234.65"/>
            <polygon class="cls-11" points="248.18 214.15 250.68 212.71 254.42 210.57 257.25 208.94 264.45 204.81 266.76 203.49 268.18 202.67 268.18 201.59 268.18 196.35 268.18 193.61 268.18 160.29 264.45 162.42 248.5 171.57 247.47 172.16 247.47 197.55 247.47 214.02 247.47 214.55 247.69 214.43 248.18 214.15"/>
            <polygon class="cls-24" points="248.5 171.57 247.47 172.16 247.47 197.55 247.47 211.53 250.42 209.84 253.26 208.21 260.45 204.09 262.76 202.76 264.18 201.95 264.18 200.87 264.18 195.62 264.18 192.88 264.18 162.58 248.5 171.57"/>
            <polyline class="cls-16" points="247.43 193.96 266.16 185.02 266.19 182.2 247.43 190.92"/>
            <polygon class="cls-16" points="254.77 167.91 254.72 208.65 257.41 207.28 257.47 166.36 254.77 167.91"/>
            <polygon class="cls-9" points="268.94 281.95 268.45 282.48 267.79 282.95 266.98 283.33 266.06 283.61 265.06 283.78 264.02 283.84 262.98 283.78 261.98 283.61 261.06 283.33 260.25 282.95 259.59 282.48 259.1 281.95 258.8 281.38 258.69 280.79 258.69 283.68 258.8 284.28 259.1 284.85 259.59 285.38 260.25 285.84 261.06 286.23 261.98 286.51 262.98 286.68 264.02 286.74 265.06 286.68 266.06 286.51 266.98 286.23 267.79 285.84 268.45 285.38 268.94 284.85 269.25 284.28 269.35 283.68 269.35 280.79 269.25 281.38 268.94 281.95"/>
          </g>
          <g>
            <path class="cls-25" d="M171.32,143.31l-15.51,67.21L68.59,175.05s-4-2.21-4.33-4c0,0,.78,3.49,5.86,5.55l90.29,36.64a4.35,4.35,0,0,0,4.94-3.59l12.19-55.42S179.83,146.77,171.32,143.31Z"/>
            <path class="cls-16" d="M96.22,126.51v-40c0-2.08-.79-3.77-1.77-3.77s-1.78,1.69-1.78,3.77v40c0,2.08.8,3.77,1.78,3.77s1.77-1.69,1.77-3.77"/>
            <path class="cls-26" d="M162.5,208.4l12.72-58.07a6.3,6.3,0,0,0-3.54-7L82.34,109a3.55,3.55,0,0,0-4.84,2.58L64.1,167.49a6.32,6.32,0,0,0,3.39,7.2l90,36.53A3.59,3.59,0,0,0,162.5,208.4Z"/>
            <path class="cls-27" d="M167.92,145.28,84.45,113.1a3.27,3.27,0,0,0-4.5,2.3L67.68,166.05a5.78,5.78,0,0,0,3.19,6.58L155,206.76a3.3,3.3,0,0,0,4.64-2.51l11.63-52.61A5.8,5.8,0,0,0,167.92,145.28Z"/>
            <g>
              <path class="cls-28" d="M115.84,157.55l6.59,2.64-.61,2.88-6.59-2.65Zm23.72,7.19-.6,2.9,6.59,2.65.6-2.91ZM109,168.44l6.6,2.67.61-2.87-6.6-2.67Zm8.64-18.72L111,147.1l-.61,2.86,6.59,2.63ZM98,160.89l6.6,2.67.62-2.86L98.62,158Zm35.58-1.68L133,162.1l6.59,2.64.61-2.89Z"/>
              <path class="cls-24" d="M157.38,155.08l-69.33-27.4L81.19,159,151,187.35l6.6-32.18ZM95.71,138.39l1.43-6.61,37,14.61-1.41,6.72Zm-7.34-10.08,8.35,3.3-1.43,6.62-8.36-3.33Zm62.31,58.41-69-28,2-9.41,6.38,2.56.62-2.84-6.37-2.56,2.43-11.11,68.77,27.35Zm5-24.47-22.58-9,1.41-6.71,22.56,8.91Zm-1.76,1.95-.6,2.91-6.59-2.63.6-2.91ZM140.77,159l-.6,2.9-6.59-2.64.6-2.88Zm-12.35,6.77-6.6-2.65.61-2.88,6.59,2.65ZM144,177.91l6.6,2.66-.6,2.91-6.6-2.67Zm1.73-8.38,6.59,2.64-.59,2.91-6.6-2.65-.54,2.62-6.6-2.66.61-2.89,6.59,2.65Zm-39.38-21.2-6.58-2.63.61-2.85,6.59,2.62ZM105,154.74l-.61,2.86-6.6-2.66.62-2.85Zm.26,6,6.6,2.66-.62,2.87-6.6-2.67Zm22.57,9.1,6.59,2.66-.6,2.9-6.6-2.67ZM98.51,151.41l.62-2.86,6.59,2.64-.61,2.86Zm25,3.77-6.59-2.63.61-2.87,6.58,2.63Zm-9.11,9.22,6.6,2.66-.61,2.88-6.6-2.67Zm25.79-2.55,6.58,2.63-.6,2.9-6.59-2.64Zm-41-13.3-6.59-2.63.62-2.85,6.59,2.63Zm36,3.35.6-2.89,19.74,7.82-.6,2.91Zm-3.68-4.58-.61,2.88L99.68,137.84l.62-2.85ZM93.72,135.47l-4.28-1.69.62-2.84,4.28,1.69Zm-12,38.68L140.49,198l-.07.48L81.61,174.62Z"/>
              <path class="cls-29" d="M69.51,173.15,76.63,176l-.43,1.41-7.28-2.95Zm66.92,16.15L135,196l1.89.77,1.45-6.73Zm-4.8,5.37,1.89.76,1-4.56-1.89-.77ZM130,184.24l-1.94,9,1.9.76,1.93-9Zm-5.49,7.53,1.89.77,1-4.48-1.89-.77Zm-3.56-1.44,1.9.77,1.46-6.73-1.9-.76Zm-3.55-1.44,1.89.77,1.47-6.73-1.9-.76Zm-1.81-9.45-1.75,8,1.9.76,1.74-8Zm-3.34-2.4-2,9,1.89.77,2-9Zm-3.76-.48-1.75,8,1.89.77,1.76-8Zm-5.31,6.56,1.9.77,1.41-6.44-1.89-.77Zm-3.55-1.44,1.89.77,1.28-5.78-1.9-.77Zm-3.56-1.45L98,181,99.08,176l-1.9-.77Zm-3.55-1.44,1.89.77,1.49-6.71L94,172.08Zm-1.78-9.43-1.78,8,1.9.77,1.78-8ZM87.4,167l-2,8.95,1.89.77,2-9Z"/>
            </g>
            <circle class="cls-11" cx="94.45" cy="83.09" r="4.73"/>
            <path class="cls-16" d="M264.65,59.84a2.38,2.38,0,0,1-.62.72,4.33,4.33,0,0,1-1.28.89,1.47,1.47,0,0,1-1.49-.14,3.31,3.31,0,0,1-.72-1.27c-.21-.45-.62-.9-1.11-.82a.72.72,0,0,0-.21.12C251,79.91,242.39,100.87,228,118a108.67,108.67,0,0,1-56,35.09l-.68-2.66a106,106,0,0,0,54.54-34.2c11.53-13.69,19.34-30.06,26.3-46.85-23,32.83-52.65,60.17-91.48,71.48l-1,.57-2.3-2C199.14,127.31,232.85,94.89,256.5,58v0l.05-.07c.23-.36.48-.73.72-1.09a2.33,2.33,0,0,1,.11-.28l.05,0,.07-.1.24.15a5,5,0,0,1,2.94-1.1,4.26,4.26,0,0,1,4,3.07A1.91,1.91,0,0,1,264.65,59.84ZM173.2,252.29c2.24-5.13,2.61-10.69,2.85-16,.28-6.31.39-12.62.39-18.92,0-13.5-.77-40.44-2.42-46.54l-1.55,6.93-.21.62c.52,13.46,1.44,25.56,1.44,39,0,6.27-.12,12.53-.4,18.79-.22,5.25-.62,10.47-2.61,15A22.23,22.23,0,0,1,150.81,264a22,22,0,0,1-2.29-.13l-.32,2.72a20.78,20.78,0,0,0,2.61.16A24.93,24.93,0,0,0,173.2,252.29ZM53.35,300.4a4.54,4.54,0,0,1-2.51-.79,10.51,10.51,0,0,1-3.36-4.7,36.17,36.17,0,0,1-1.56-24.47l-2.64-.77h0a38.42,38.42,0,0,0-1.53,10.81A38.81,38.81,0,0,0,45,296a13.27,13.27,0,0,0,4.33,5.87,7.24,7.24,0,0,0,4.06,1.26,5.56,5.56,0,0,0,3.78-1.36l-1.83-2A2.85,2.85,0,0,1,53.35,300.4ZM132,308.22c0-.72,0-1.44.08-2.16h0l2.74.21c-.05.65-.08,1.3-.08,2a28.14,28.14,0,0,0,14.93,24.52,3.3,3.3,0,0,0,1.35.32l.43-.06h0l.13.17,2.5.22a2.5,2.5,0,0,1-1.2,1.95,3.62,3.62,0,0,1-1.86.47,6,6,0,0,1-2.59-.62A30.83,30.83,0,0,1,132,308.22Zm19.38,24.85.16.1-.19,0,.19,0Zm56.08,51.2c-3.2,2.29-11.23,7.77-13.83,12.54a27.49,27.49,0,0,0-3,12.57,21.35,21.35,0,0,0,.73,5.71c.65,2.26,1.51,3.94,1.73,5.87a8.85,8.85,0,0,1,.08,1.23,8.64,8.64,0,0,1-2,5.64A9.6,9.6,0,0,1,187,430.7a64.49,64.49,0,0,1-20.72,3.44c-16.19,0-32.44-6.2-47.34-18.42a13.23,13.23,0,0,1-3-3.33,9.27,9.27,0,0,1-1.37-4.85v-.47a11.36,11.36,0,0,1,3-6.74,63.45,63.45,0,0,1,15.93-14.42l-1.61-2.63a66.32,66.32,0,0,0-16.72,15.11,14.35,14.35,0,0,0-3.64,8.53l0,.62A12.38,12.38,0,0,0,113.3,414a16.21,16.21,0,0,0,3.65,4.12c15.35,12.6,32.31,19.13,49.3,19.13A67.49,67.49,0,0,0,188,433.62a12.56,12.56,0,0,0,5.49-3.81,11.73,11.73,0,0,0,2.76-7.62,12.76,12.76,0,0,0-.1-1.61c-.33-2.59-1.32-4.46-1.82-6.32a18.38,18.38,0,0,1-.62-4.88,24.5,24.5,0,0,1,2.66-11.09c2.25-4.12,9.7-9.21,12.91-11.5l-.89-2.44Z"/>
            <g>
              <path class="cls-9" d="M150.33,320.57l-15.58,67.25L48.81,350.28s-3.92-2.31-4.25-4.14c0,0,.75,3.52,5.76,5.7l89,38.78a4.21,4.21,0,0,0,4.89-3.5l12.26-55.47S158.72,324.23,150.33,320.57Z"/>
              <path class="cls-30" d="M141.36,385.83l12.79-58.11a6.49,6.49,0,0,0-3.47-7.07l-88-36.49a3.44,3.44,0,0,0-4.79,2.49L44.41,342.58a6.51,6.51,0,0,0,3.33,7.32l88.69,38.66C138.65,389.53,140.81,388.33,141.36,385.83Z"/>
              <path class="cls-27" d="M147,322.48,64.73,288.34a3.17,3.17,0,0,0-4.46,2.21L48,341.22a5.94,5.94,0,0,0,3.13,6.68L134,384a3.19,3.19,0,0,0,4.58-2.42l11.69-52.66A6,6,0,0,0,147,322.48Z"/>
              <g>
                <path class="cls-28" d="M95.51,333.7l6.5,2.8-.61,2.88-6.5-2.81Zm23.39,7.74-.6,2.9,6.49,2.8.61-2.9ZM88.69,344.5l6.51,2.83.61-2.87-6.5-2.83Zm8.61-18.63-6.49-2.78L90.19,326l6.49,2.78ZM77.9,336.68l6.51,2.82.61-2.86-6.5-2.82Zm35.12-.92-.61,2.89,6.49,2.79.61-2.9Z"/>
                <path class="cls-24" d="M136.52,332.11l-68.3-29-6.9,31.37,68.78,30,6.64-32.22ZM75.73,314l1.44-6.63,36.42,15.49-1.41,6.73Zm-7.2-10.3,8.23,3.5-1.45,6.62-8.23-3.52Zm61.26,60.07L61.84,334.16l2.07-9.43,6.28,2.72.62-2.84-6.28-2.71L67,310.77l67.77,29Zm5-24.5-22.24-9.51,1.42-6.72,22.22,9.45Zm-1.74,1.92-.6,2.92L126,341.33l.6-2.91Zm-13-5.56-.6,2.9L113,335.76l.6-2.9Zm-12.21,6.55-6.5-2.81.61-2.88,6.49,2.8Zm15.31,12.58,6.5,2.83-.6,2.91-6.51-2.83Zm1.74-8.38,6.49,2.8-.6,2.91-6.49-2.81-.55,2.62-6.5-2.81.61-2.9L124.4,349ZM86.17,324.23l-6.49-2.79.62-2.85,6.49,2.78Zm-1.38,6.41-.61,2.86-6.5-2.81.62-2.85Zm.23,6,6.5,2.82-.61,2.87-6.5-2.83Zm22.24,9.64,6.5,2.82-.61,2.89-6.5-2.82ZM78.44,327.15l.62-2.85,6.5,2.79L84.94,330Zm24.63,4.34-6.49-2.79.61-2.87,6.49,2.78Zm-9,9.06,6.5,2.82-.61,2.88-6.5-2.82Zm25.46-2,6.49,2.79-.6,2.91-6.5-2.8ZM79.06,324.3l-6.49-2.8.62-2.84,6.49,2.78Zm35.49,4.14.61-2.9,19.45,8.29-.6,2.91Zm-3.61-4.69-.61,2.88L79.65,313.54l.62-2.86ZM73.78,311l-4.21-1.8.62-2.84,4.21,1.79Zm-12,38.63,57.93,25.25-.07.48L61.67,350.14Z"/>
                <path class="cls-29" d="M49.73,348.4l7,3.05-.43,1.41-7.17-3.12Zm66,17.67-1.45,6.73,1.87.82,1.45-6.74ZM111,371.36l1.86.81,1-4.57-1.86-.81Zm-1.58-10.51-1.94,9,1.86.82,1.95-9Zm-5.45,7.45,1.87.81,1-4.49-1.87-.81Zm-3.5-1.53,1.87.81,1.46-6.73-1.86-.81Zm-3.5-1.52,1.87.81,1.47-6.73-1.87-.81Zm-1.74-9.54-1.76,8,1.86.81,1.76-8Zm-3.29-2.49-2,9,1.86.82,2-9Zm-3.71-.56-1.77,8,1.87.81,1.76-8Zm-5.27,6.48,1.87.81,1.42-6.44-1.86-.81Zm-3.5-1.53,1.87.82,1.28-5.78-1.87-.82Zm-3.5-1.52,1.86.81,1.13-5.06L77,351Zm-3.5-1.53,1.86.81,1.5-6.71-1.87-.82ZM70.69,345l-1.79,8,1.87.82,1.79-8Zm-3.28-2.49-2,9,1.87.81,2-8.95Z"/>
              </g>
            </g>
            <g>
              <path class="cls-31" d="M146.15,213.87l-116-46.36-2.83,1.85S38.69,264.52,38.64,265s1.79,3,1.79,3l109.42,46,2.45-2.44Z"/>
              <path class="cls-9" d="M154.1,281.48l-2.67-43.65-1.24-20.32s0-.08,0-.19c-.19-4.91-2.72-6.11-2.72-6.11L30.12,165.75c-3.06.29-4,2-4,2L146.53,213a19.33,19.33,0,0,1,1.66,4.55h0l5.16,88.12.45,6a7.5,7.5,0,0,1,0,1.26v.12c.1,1.65-.57,2.94-1.47,3.08h0c.95,0,2.67-.43,3.66-3.26Z"/>
              <path class="cls-32" d="M153.78,313l-.43-7.27-5.26-89.88a3.17,3.17,0,0,0-1.56-2.79L28.9,166.26a2.13,2.13,0,0,0-2.86,2.6l5.74,51.57,5,45.46A3.68,3.68,0,0,0,38,268.26a2,2,0,0,0,.54.34l36.39,15.3L151.48,316l.21.09a1.13,1.13,0,0,0,.46.1l.17,0c.9-.14,1.57-1.43,1.47-3.08Zm-5.51-1.37a1.19,1.19,0,0,1-.44-.09L41,266.62A3.26,3.26,0,0,1,39.31,264l-4.66-41.55L29,172.36a2.16,2.16,0,0,1,1.91-2.64,2,2,0,0,1,.77.16l111.46,44.28a3,3,0,0,1,1.49,2.65l4.8,85.29.38,6.6C149.93,310.35,149.21,311.61,148.27,311.61Z"/>
            </g>
            <g>
              <path class="cls-33" d="M216.32,417.71l-14.55-50.65a4.81,4.81,0,0,1,2.6-5.3l61.22-33.51a2.7,2.7,0,0,1,4,1.3l15,49.06c.71,1.88-.45,4.44-2.47,5.46l-61.7,35.1C218.62,420.06,216.84,419.42,216.32,417.71Z"/>
              <path class="cls-27" d="M218.48,414.47,205,367.55a4.44,4.44,0,0,1,2.45-4.86L264,331.38c1.57-.76,3.13-.28,3.67,1.13l14,45.47c.65,1.71-.45,4-2.34,5l-57,32.76C220.61,416.58,219,416,218.48,414.47Z"/>
              <path class="cls-29" d="M234.75,369.37l-21,10.56-.38-1.37,21-10.56ZM218.26,379l-4.17,2.1.38,1.36,4.17-2.1Zm5.07,16.33L223,394l-4.17,2.09.38,1.37Zm23-23.1-.37-1.37L241.75,373l.38,1.37Zm-7.21,18.07,2.08-1.05-.38-1.37-2.08,1.05Zm-17.32,9.81-2.08,1.05.38,1.37,2.08-1Zm3,0,2.09-1-.38-1.37-2.09,1Zm8.93-17.37.37,1.37,6.73-3.39-.38-1.37Zm-13.46-3.23,10.13-5.09-.38-1.37-10.13,5.1Zm2.53.06-8,4,.38,1.37,8-4Zm17.46-5.9L215.5,386.16l.38,1.37,24.74-12.45Zm-3.07,4.43-21,10.56.38,1.36,21-10.55Zm3.27-.08,8.56-4.31-.37-1.37-8.56,4.31Zm-8.16,5.43-15.37,7.74.38,1.37,15.37-7.74Zm1.74,9.35,3.89-2-.38-1.36-3.89,2Zm4.55-9.62-20.95,10.54.38,1.37L239,384.58Zm7.87-1.08-19.22,9.68.38,1.36,19.22-9.67Zm-14,9.94L219,398.83l.38,1.37,13.39-6.75Zm-6.38,13-.38-1.37-4.16,2.09.38,1.37Zm15.35-6.4.38,1.37,2.08-1.05-.38-1.37Zm-19,12.22.38,1.37,2.08-1-.38-1.37Zm-7.76-36.45-2.09,1.05.38,1.37,2.09-1.05Zm12.48,34.07.38,1.37,2.08-1-.38-1.36Zm-9.45-34,2.09-1.05-.38-1.37-2.09,1.05Zm13.8-6.95-.37-1.37-10.68,5.37.38,1.37Zm-.1-10.49-21,10.57.38,1.37,21-10.57Zm-16.13,11-4.18,2.1.38,1.37,4.18-2.1Zm1.61-.81.38,1.37,10.13-5.1-.37-1.37Zm2.91,1.42-8,4,.38,1.36,8-4Zm-8.16-5.14-2.09,1.05.38,1.37L212,364.9Zm5.12-1-.38-1.37-2.09,1.05.38,1.37Zm11.73-5.9-.38-1.37-10.68,5.37.38,1.37Zm7.9,44.62.37,1.37,3.89-2-.37-1.37Zm4.93-8.25-20.94,10.53.38,1.37,20.93-10.53Zm-11,10,19.19-9.66-.37-1.37-19.2,9.66Zm-8.57,5.64.38,1.37,13.38-6.74-.37-1.37Z"/>
            </g>
          </g>
          <polygon class="cls-28" points="145.39 298.85 119.8 288.43 113.35 208.45 138.94 218.87 145.39 298.85"/>
          <path class="cls-24" d="M145.71,305.52,42.15,263.35l-.42-5.18,103.56,42.17ZM126,213.74v0l.29.11v-.08l-.29,0m-2.08,3.91,10.48,3.8.26,2.72-10.47-3.81ZM127.66,255l10.42,4,.29,2.87-10.42-4Zm-1.73-17.07-.14-1.39,10.45,3.9.14,1.4-10.45-3.91m4.82,47.41-.15-1.48L141,288l.15,1.49-10.39-4.15M128,258.63l10.42,4,.66,6.59-10.41-4Zm-1-10.18-.35-3.52,10.44,3.94.35,3.54-10.44-4m-2.62-26.06,10.47,3.83.76,7.7-10.46-3.86Zm5,49.43,10.4,4.07.83,8.25L130.21,280Zm-3.72-35.56.14.06v.47l-.09,0,0-.49M130.59,285l.14.06,0,.25v.25l-.1-.05-.06-.51m.14.06h0v.24l0-.25"/>
        </g>
        <polygon class="cls-28" points="74.47 229.19 38.31 214.47 35.26 176.64 71.42 191.37 74.47 229.19"/>
        <polygon class="cls-28" points="114.74 245.59 78.58 230.86 75.53 193.04 111.69 207.76 114.74 245.59"/>
        <polygon class="cls-28" points="77.85 271.09 41.7 256.37 38.64 218.55 74.8 233.27 77.85 271.09"/>
        <polygon class="cls-28" points="118.12 287.49 81.96 272.77 78.91 234.94 115.07 249.67 118.12 287.49"/>
        <path class="cls-12" d="M54.24,208.13l-.2-2.54a15.54,15.54,0,0,1-4.7-9.92c-.39-4.85,1.95-7.7,5.23-6.36s6.26,6.35,6.65,11.2c.31,3.86-1.12,6.41-3.36,6.64l.21,2.54.1,0a7.9,7.9,0,0,1,4.29,5.53l1.79,9.94-14.57-5.94.39-9c.08-2.13,1.65-3.11,3.67-2.29Z"/>
        <path class="cls-12" d="M93.83,224.07l-.2-2.54a15.59,15.59,0,0,1-4.7-9.92c-.39-4.85,1.95-7.7,5.23-6.36s6.26,6.35,6.65,11.2c.31,3.86-1.12,6.41-3.36,6.64l.21,2.54.1,0a7.9,7.9,0,0,1,4.29,5.53l1.79,9.94L89.27,235.2l.39-9c.09-2.13,1.65-3.11,3.67-2.29Z"/>
        <path class="cls-12" d="M55,248.83l-.2-2.54a15.59,15.59,0,0,1-4.7-9.92c-.39-4.85,1.95-7.7,5.23-6.36s6.26,6.35,6.65,11.2c.31,3.86-1.12,6.41-3.36,6.64l.21,2.54.1,0a7.94,7.94,0,0,1,4.3,5.53L65,265.9,50.44,260l.4-9c.08-2.13,1.64-3.11,3.66-2.29Z"/>
        <path class="cls-12" d="M94.6,265.32l-.21-2.53a15.63,15.63,0,0,1-4.69-9.92c-.4-4.85,2-7.71,5.23-6.37s6.25,6.35,6.64,11.21c.32,3.85-1.11,6.4-3.35,6.63l.2,2.54.1,0a7.91,7.91,0,0,1,4.3,5.53l1.78,9.95L90,276.45l.4-9c.08-2.13,1.65-3.11,3.66-2.29Z"/>
      </g>
    </g>
  </g>
</svg>
