<svg xmlns="http://www.w3.org/2000/svg" xmlns:xlink="http://www.w3.org/1999/xlink" viewBox="0 0 916.84 425.23">
  <defs>
    <style>
      .cls-1 {
        fill: none;
      }

      .cls-2 {
        clip-path: url(#clip-path);
      }

      .cls-3 {
        fill: #0e2559;
      }

      .cls-4 {
        fill: #069489;
      }

      .cls-5 {
        fill: #73767d;
      }

      .cls-6 {
        fill: #9598a2;
      }

      .cls-7 {
        fill: #912d0b;
      }

      .cls-24, .cls-8 {
        fill: #918387;
      }

      .cls-9 {
        fill: #03524c;
      }

      .cls-10 {
        fill: #eb511c;
      }

      .cls-11 {
        fill: #bf4217;
      }

      .cls-12 {
        fill: #07968a;
      }

      .cls-13 {
        fill: #bac1c9;
      }

      .cls-14 {
        fill: #355aab;
      }

      .cls-15 {
        fill: #11132d;
      }

      .cls-16 {
        fill: url(#linear-gradient);
      }

      .cls-17 {
        fill: #406666;
      }

      .cls-18 {
        fill: #b7eef0;
      }

      .cls-19 {
        fill: #08baac;
      }

      .cls-20 {
        fill: #046b63;
      }

      .cls-21 {
        fill: #08a89c;
      }

      .cls-22 {
        fill: #e9ffff;
      }

      .cls-23 {
        fill: #ffffdb;
      }

      .cls-24, .cls-25, .cls-26, .cls-28, .cls-29, .cls-32 {
        fill-rule: evenodd;
      }

      .cls-25 {
        fill: url(#linear-gradient-2);
      }

      .cls-26, .cls-30 {
        fill: #328de0;
      }

      .cls-27, .cls-28 {
        fill: aqua;
      }

      .cls-29 {
        fill: url(#linear-gradient-3);
      }

      .cls-31 {
        fill: url(#linear-gradient-4);
      }

      .cls-32 {
        fill: url(#linear-gradient-5);
      }

      .cls-33 {
        fill: #ceeeed;
      }

      .cls-34 {
        fill: #f5fffe;
      }
    </style>
    <clipPath id="clip-path">
      <rect class="cls-1" x="-39.29" y="-95.29" width="1036.44" height="452.29"/>
    </clipPath>
    <linearGradient id="linear-gradient" x1="2589.87" y1="3477.68" x2="2592.61" y2="3477.68" gradientTransform="matrix(0, -37.24, 38.34, 12.99, -133000.27, 51552.68)" gradientUnits="userSpaceOnUse">
      <stop offset="0" stop-color="#b0dafb"/>
      <stop offset="0.01" stop-color="#b0dafb"/>
      <stop offset="0.62" stop-color="#b3c7f1"/>
      <stop offset="1" stop-color="#b5b8ea"/>
    </linearGradient>
    <linearGradient id="linear-gradient-2" x1="2614.18" y1="3403.75" x2="2616.92" y2="3403.75" gradientTransform="matrix(3.93, -25.2, 22.14, 8.98, -85220.67, 35483.89)" gradientUnits="userSpaceOnUse">
      <stop offset="0" stop-color="#321f56"/>
      <stop offset="0.01" stop-color="#321f56"/>
      <stop offset="1" stop-color="#484161"/>
    </linearGradient>
    <linearGradient id="linear-gradient-3" x1="2603.23" y1="3402.27" x2="2605.98" y2="3402.27" gradientTransform="matrix(3.98, -25.25, 21.81, 9.51, -84187.14, 33756.19)" xlink:href="#linear-gradient-2"/>
    <linearGradient id="linear-gradient-4" x1="321.35" y1="237.12" x2="449.13" y2="237.12" gradientUnits="userSpaceOnUse">
      <stop offset="0" stop-color="#281742"/>
      <stop offset="0.01" stop-color="#281742"/>
      <stop offset="1" stop-color="#322d45"/>
    </linearGradient>
    <linearGradient id="linear-gradient-5" x1="2725.55" y1="3641.57" x2="2728.29" y2="3641.57" gradientTransform="matrix(-5.07, -22.27, -22.25, 11.2, 95406.74, 20306.33)" xlink:href="#linear-gradient-2"/>
  </defs>
  <g id="Design">
    <g class="cls-2">
      <g>
        <g>
          <g>
            <polygon class="cls-3" points="511.01 267.46 511.37 268.15 511.96 268.79 512.76 269.35 513.11 269.55 513.45 269.29 515.13 268.72 516.72 268.91 521.25 271.51 522.78 272.38 528.53 267.5 512.76 258.45 511.96 257.89 511.37 257.26 511.01 256.57 510.88 255.85 510.88 266.75 511.01 267.46"/>
            <polygon class="cls-4" points="525.79 274.11 530.33 276.71 530.88 277.03 534.86 279.31 536.39 280.19 542.14 275.3 528.53 267.5 522.78 272.38 525.79 274.11"/>
            <polygon class="cls-5" points="553.03 237.55 555.23 238.23 557.62 238.64 558.33 238.68 560.1 238.78 561.87 238.68 562.58 238.64 564.97 238.23 567.17 237.55 569.1 236.64 569.71 236.21 568.46 236.6 564.36 237.31 560.1 237.55 555.84 237.31 551.74 236.6 550.48 236.21 551.1 236.64 553.03 237.55"/>
            <polygon class="cls-3" points="562.12 251.87 560.1 251.99 558.08 251.87 556.14 251.53 555.72 251.4 555.13 251.58 553.77 252.22 552.65 253 551.83 253.89 551.32 254.85 551.15 255.85 551.32 256.86 551.83 257.82 552.65 258.71 553.77 259.48 555.13 260.12 556.67 260.6 558.35 260.89 560.1 260.99 561.85 260.89 563.52 260.6 565.07 260.12 566.43 259.48 567.54 258.71 568.37 257.82 568.88 256.86 569.05 255.85 568.88 254.85 568.37 253.89 567.54 253 566.43 252.22 565.07 251.58 564.48 251.4 564.06 251.53 562.12 251.87"/>
            <polygon class="cls-6" points="549.75 246.05 549.94 247.2 550.53 248.32 551.49 249.34 552.78 250.25 554.35 250.98 555.72 251.4 556.14 251.53 558.08 251.87 560.1 251.99 562.12 251.87 564.06 251.53 564.48 251.4 565.85 250.98 567.42 250.25 568.71 249.34 569.66 248.32 570.25 247.2 570.45 246.05 570.45 242.94 570.45 235.99 569.71 236.21 569.1 236.64 567.17 237.55 564.97 238.23 562.58 238.64 561.87 238.68 560.1 238.78 558.33 238.68 557.62 238.64 555.23 238.23 553.03 237.55 551.1 236.64 550.48 236.21 549.75 235.99 549.75 242.94 549.75 246.05"/>
            <polygon class="cls-7" points="539.73 220.59 543.22 218.59 548.41 215.61 552.36 213.34 562.37 207.6 565.59 205.75 567.56 204.62 567.56 203.12 567.56 195.82 567.56 192.01 567.56 145.64 562.37 148.62 540.18 161.34 538.75 162.16 538.75 197.5 538.75 220.41 538.75 221.15 539.05 220.98 539.73 220.59"/>
            <polygon class="cls-8" points="575.51 292.79 577.35 295.04 577.24 294.79 574.89 291.92 571.92 289.72 571.34 290.05 572.49 290.54 575.51 292.79"/>
            <polygon class="cls-9" points="542.53 290.52 543.71 287.1 542.25 286.26 542.53 287.51 542.53 290.52"/>
            <polygon class="cls-8" points="543.51 294.9 542.53 295.94 542.53 297.48 544.13 295.77 547.84 292.88 550.86 291.2 549.78 290.58 547.21 292.01 543.51 294.9"/>
            <polygon class="cls-6" points="542.61 294.04 542.53 294.13 542.53 295.94 543.51 294.9 547.21 292.01 549.78 290.58 548.53 289.87 546.55 290.97 542.61 294.04"/>
            <polygon class="cls-10" points="516.22 149.24 521.85 152.47 527.48 155.7 533.12 158.94 538.75 162.16 540.18 161.34 562.37 148.62 567.56 145.64 561.93 142.41 555.97 142.26 550.02 141.1 545.13 139.12 541.68 136.31 540.18 133.8 540.18 133.11 540.18 129.65 533.76 126.25 528.58 129.23 504.95 142.78 510.58 146.01 516.22 149.24"/>
            <polygon class="cls-11" points="510.51 158.88 510.58 158.92 515.04 161.48 516.22 162.15 519.58 164.08 521.85 165.38 524.12 166.68 527.48 168.61 528.65 169.28 533.12 171.84 533.19 171.89 533.19 185.57 533.19 209.87 530.64 211.29 526.47 214.11 527.48 214.69 533.12 217.92 533.3 218.03 538.25 220.87 538.75 221.15 538.75 220.41 538.75 197.5 538.75 162.16 533.12 158.94 527.48 155.7 521.85 152.47 516.22 149.24 510.58 146.01 504.95 142.78 504.95 162.72 505.63 162.23 510.51 158.88"/>
            <polygon class="cls-12" points="450.54 364.93 453.26 366.49 454.17 362.85 456.53 353.38 457.15 350.88 441.6 359.8 443.47 360.87 450.54 364.93"/>
            <polygon class="cls-9" points="542.14 275.3 536.39 280.19 539.4 281.92 540.8 282.91 541.35 283.82 542.14 275.3"/>
            <polygon class="cls-3" points="609.19 256.57 608.83 257.26 608.23 257.89 607.44 258.45 564.63 283.01 563.66 283.46 562.55 283.8 561.35 284.01 560.1 284.08 558.85 284.01 557.65 283.8 556.54 283.46 555.57 283.01 544.48 276.65 542.14 275.3 541.35 283.82 541.91 284.75 542.25 286.26 543.71 287.1 548.53 289.87 549.78 290.58 550.86 291.2 555.57 293.9 556.54 294.36 557.65 294.7 558.85 294.91 560.1 294.98 560.1 294.98 561.35 294.91 562.55 294.7 563.66 294.36 564.39 294.01 564.63 293.9 571.34 290.05 571.92 289.72 573.37 288.89 607.44 269.35 608.23 268.79 608.83 268.15 609.19 267.46 609.31 266.75 609.31 255.85 609.19 256.57"/>
            <polygon class="cls-11" points="584.89 212.61 582.41 215.27 579.07 217.6 575 219.51 570.37 220.94 565.33 221.81 560.1 222.11 554.86 221.81 549.83 220.94 545.19 219.51 543.22 218.59 539.73 220.59 539.05 220.98 538.75 221.15 538.25 220.87 533.3 218.03 533.78 220.83 535.31 223.72 537.79 226.38 538.58 226.93 541.13 228.71 545.19 230.63 547.37 231.29 547.4 231.3 549.75 232.02 549.77 232.03 549.83 232.05 549.84 232.05 554.86 232.92 560.1 233.22 565.33 232.92 570.35 232.05 570.37 232.05 570.43 232.03 570.45 232.02 572.79 231.3 572.83 231.29 575 230.63 579.07 228.71 581.61 226.93 582.41 226.38 584.89 223.72 586.41 220.83 586.93 217.83 586.93 206.72 586.41 209.72 584.89 212.61"/>
            <polygon class="cls-10" points="579.63 208.63 578.5 210.77 576.66 212.75 574.18 214.48 571.16 215.9 567.72 216.95 563.98 217.6 560.1 217.82 556.21 217.6 552.48 216.95 549.03 215.9 548.41 215.61 543.22 218.59 545.19 219.51 549.83 220.94 554.86 221.81 560.1 222.11 565.33 221.81 570.37 220.94 575 219.51 579.07 217.6 582.41 215.27 584.89 212.61 586.41 209.72 586.93 206.72 586.41 203.72 584.89 200.83 582.41 198.17 580.01 196.49 580.01 206.4 579.63 208.63"/>
            <polygon class="cls-6" points="549.09 239.81 546.92 242.01 539.09 246.5 524.07 252.32 523.4 252.7 521.86 253.58 521.69 253.68 521.83 253.41 521.85 253.28 521.9 253.01 521.9 252.83 521.83 252.43 521.62 252.04 521.29 251.69 520.49 250.95 520.73 251.21 520.88 251.49 520.9 251.59 520.93 251.79 520.88 252.08 520.87 252.1 520.73 252.36 520.49 252.62 520.16 252.85 519.76 253.04 519.31 253.18 518.82 253.26 518.3 253.29 517.79 253.26 517.3 253.18 516.85 253.04 516.45 252.85 516.12 252.62 515.88 252.36 515.74 252.1 515.73 252.08 515.7 251.9 515.68 251.79 515.73 251.49 515.88 251.21 516.12 250.95 515.32 251.69 514.99 252.04 514.79 252.42 514.78 252.43 514.71 252.83 514.71 253.54 514.78 253.95 514.99 254.33 515.32 254.69 515.76 255 516.31 255.26 516.93 255.45 517.6 255.56 518.3 255.6 519 255.56 519.68 255.45 520.3 255.26 520.85 255 521.29 254.69 521.62 254.33 521.82 253.96 521.69 254.03 521.82 253.96 523.53 252.98 524.07 252.67 539.09 246.86 546.92 242.36 549.09 240.16 549.23 239.9 549.3 239.49 549.3 239.14 549.23 239.54 549.09 239.81"/>
            <polygon class="cls-13" points="517.79 250.31 517.3 250.4 516.85 250.54 516.56 250.67 516.45 250.72 516.12 250.95 515.88 251.21 515.73 251.49 515.68 251.79 515.7 251.9 515.73 252.08 515.74 252.1 515.88 252.36 516.12 252.62 516.45 252.85 516.85 253.04 517.3 253.18 517.79 253.26 518.3 253.29 518.82 253.26 519.31 253.18 519.76 253.04 520.16 252.85 520.49 252.62 520.73 252.36 520.87 252.1 520.88 252.08 520.93 251.79 520.9 251.59 520.88 251.49 520.73 251.21 520.49 250.95 520.16 250.72 520.04 250.67 519.76 250.54 519.31 250.4 519.02 250.35 518.82 250.31 518.5 250.29 518.49 250.29 518.3 250.28 517.79 250.31"/>
            <polygon class="cls-5" points="523.23 254.71 522.73 255.24 522.07 255.7 521.26 256.08 520.34 256.37 519.34 256.54 518.3 256.6 517.26 256.54 516.27 256.37 515.35 256.08 514.54 255.7 513.88 255.24 513.38 254.71 513.08 254.14 512.98 253.54 512.98 256.44 513.08 257.04 513.38 257.61 513.88 258.14 514.54 258.6 515.35 258.98 516.27 259.27 517.26 259.44 518.3 259.5 519.34 259.44 520.34 259.27 521.26 258.98 522.07 258.6 522.73 258.14 523.23 257.61 523.53 257.04 523.63 256.44 523.63 253.54 523.53 254.14 523.23 254.71"/>
            <polygon class="cls-13" points="521.62 254.33 521.29 254.69 520.85 255 520.3 255.26 519.68 255.45 519 255.56 518.3 255.6 517.6 255.56 516.93 255.45 516.31 255.26 515.76 255 515.32 254.69 514.99 254.33 514.78 253.95 514.71 253.54 514.71 252.83 514.78 252.43 514.79 252.42 514.99 252.04 515.32 251.69 516.12 250.95 516.45 250.72 516.56 250.67 516.27 250.72 515.35 251 514.54 251.38 513.88 251.85 513.38 252.38 513.08 252.95 513 253.44 512.98 253.54 513.08 254.14 513.38 254.71 513.88 255.24 514.54 255.7 515.35 256.08 516.27 256.37 517.26 256.54 518.3 256.6 519.34 256.54 520.34 256.37 521.26 256.08 522.07 255.7 522.73 255.24 523.23 254.71 523.53 254.14 523.63 253.54 523.53 252.98 521.82 253.96 521.62 254.33"/>
            <polygon class="cls-13" points="519.02 250.35 519.31 250.4 519.76 250.54 520.04 250.67 520.16 250.72 520.49 250.95 521.29 251.69 521.62 252.04 521.83 252.43 521.9 252.83 521.9 253.01 521.85 253.28 521.83 253.41 521.69 253.68 521.86 253.58 523.4 252.7 524.07 252.32 539.09 246.5 546.92 242.01 549.09 239.81 549.23 239.54 549.3 239.14 549.23 238.74 549.03 238.35 548.7 238 548.25 237.68 547.7 237.43 547.08 237.24 546.41 237.12 545.71 237.08 545.01 237.12 544.54 237.2 542.37 239.4 534.54 243.89 519.52 249.71 518.5 250.29 518.82 250.31 519.02 250.35"/>
            <polygon class="cls-13" points="557.17 274.49 556.92 274.75 556.77 275.04 556.72 275.33 556.77 275.62 556.79 275.64 556.92 275.91 557.17 276.17 557.49 276.39 557.89 276.58 558.35 276.72 558.84 276.81 559.35 276.84 559.86 276.81 560.35 276.72 560.81 276.58 561.21 276.39 561.53 276.17 561.77 275.91 561.91 275.64 561.92 275.62 561.97 275.33 561.94 275.13 561.92 275.04 561.77 274.75 561.53 274.49 561.21 274.26 561.09 274.21 560.81 274.08 560.35 273.94 560.06 273.89 559.86 273.85 559.54 273.84 559.35 273.82 558.84 273.85 558.35 273.94 557.89 274.08 557.61 274.21 557.49 274.26 557.17 274.49"/>
            <polygon class="cls-13" points="562.67 277.55 562.34 277.91 561.89 278.22 561.35 278.48 560.72 278.67 560.05 278.78 559.35 278.82 558.65 278.78 557.98 278.67 557.35 278.48 556.81 278.22 556.36 277.91 556.03 277.55 555.83 277.16 555.76 276.76 555.76 276.05 555.83 275.65 556.03 275.26 556.36 274.91 557.17 274.17 557.49 273.94 557.61 273.89 557.31 273.94 556.39 274.22 555.58 274.6 554.92 275.06 554.43 275.59 554.13 276.17 554.02 276.76 554.13 277.36 554.43 277.93 554.92 278.46 555.58 278.92 556.39 279.3 557.31 279.58 558.31 279.76 559.35 279.82 560.39 279.76 561.39 279.58 562.31 279.3 563.12 278.92 563.78 278.46 564.27 277.93 564.58 277.36 564.68 276.76 564.58 276.19 562.87 277.18 562.67 277.55"/>
            <polygon class="cls-6" points="590.13 263.03 587.97 265.23 580.13 269.72 565.11 275.54 564.44 275.92 562.9 276.8 562.73 276.9 562.87 276.63 562.9 276.5 562.94 276.23 562.94 276.05 562.87 275.65 562.67 275.26 562.34 274.91 561.53 274.17 561.77 274.43 561.92 274.71 561.94 274.81 561.97 275.01 561.92 275.3 561.91 275.32 561.77 275.58 561.53 275.84 561.21 276.07 560.81 276.26 560.35 276.4 559.86 276.48 559.35 276.51 558.84 276.48 558.35 276.4 557.89 276.26 557.49 276.07 557.17 275.84 556.92 275.58 556.79 275.32 556.77 275.3 556.72 275.01 556.77 274.71 556.92 274.43 557.17 274.17 556.36 274.91 556.03 275.26 555.83 275.65 555.76 276.05 555.76 276.76 555.83 277.16 556.03 277.55 556.36 277.91 556.81 278.22 557.35 278.48 557.98 278.67 558.65 278.78 559.35 278.82 560.05 278.78 560.72 278.67 561.35 278.48 561.89 278.22 562.34 277.91 562.67 277.55 562.87 277.18 562.73 277.25 562.87 277.18 564.58 276.19 565.11 275.89 580.13 270.07 587.97 265.58 590.13 263.38 590.28 263.11 590.35 262.71 590.35 262.36 590.28 262.76 590.13 263.03"/>
            <polygon class="cls-13" points="559.54 273.51 559.86 273.53 560.06 273.56 560.35 273.62 560.81 273.75 561.09 273.89 561.21 273.94 561.53 274.17 562.34 274.91 562.67 275.26 562.87 275.65 562.94 276.05 562.94 276.23 562.9 276.5 562.87 276.63 562.73 276.9 562.9 276.8 564.44 275.92 565.11 275.54 580.13 269.72 587.97 265.23 590.13 263.03 590.28 262.76 590.35 262.36 590.28 261.95 590.07 261.57 589.74 261.21 589.29 260.9 588.75 260.64 588.13 260.45 587.45 260.34 586.75 260.3 586.05 260.34 585.59 260.42 583.42 262.62 575.58 267.11 560.56 272.93 559.54 273.51"/>
            <path class="cls-14" d="M570.45,236v10.06l-.2,1.15-.59,1.12-.95,1-1.29.89-1.57.74-1.37.42.59.18,1.36.64,1.11.78.83.89.51,1,.17,1-.17,1-.51,1-.83.89-1.11.77-1.36.64-1.55.48-1.68.29-1.74.1-1.75-.1-1.68-.29-1.55-.48-1.35-.64-1.12-.77-.82-.89-.51-1-.17-1,.17-1,.51-1,.82-.89,1.12-.78,1.35-.64.6-.18-1.37-.42-1.57-.74-1.29-.89-1-1-.59-1.12-.2-1.15V236l-1.78-.55-2.27-1.07L518.49,250h0l1-.59,15-5.81,7.83-4.5,2.17-2.2.47-.08.7,0,.7,0,.67.12.62.19.55.26.44.31.34.36.2.38.07.41v.35l-.07.4-.14.27-2.17,2.2-7.83,4.49-15,5.82-.54.3.1.57v2.9l-.1.6-.3.57-.5.53-.66.46-.81.38-.92.28-1,.18-1,.05-1-.05-1-.18-.93-.28-.8-.38-.66-.46-.5-.53-.3-.57-.1-.6v-3l-.23.14-.8.55-.59.64-.36.69-.13.71.13.72.36.69.59.63.8.56,15.77,9.05,13.61,7.8,1.13-1-1.13,1,2.34,1.35L555.57,283l1,.45,1.11.34,1.2.21,1.25.07,1.25-.07,1.2-.21,1.11-.34,1-.45,42.81-24.56.79-.56.6-.63.36-.69.12-.72-.12-.71-.36-.69-.6-.64-.79-.55-32.93-18.89-2.28,1.07Zm5.13,31.12,7.84-4.49,2.16-2.2.47-.08.7,0,.7,0,.68.11.62.19.54.26.45.31.33.36.21.39.06.4v.35l-.06.4-.15.27-2.16,2.2-7.84,4.49-15,5.82-.53.3.1.57v2.9l-.11.6-.3.57-.49.53-.66.46-.81.38-.92.28-1,.18-1,.06-1-.06-1-.18-.92-.28-.81-.38-.66-.46-.49-.53-.31-.57-.1-.6v-2.9l.1-.59.31-.58.49-.53.66-.46.81-.38.92-.28.3-.05.28-.14.45-.13.5-.09.51,0h.19l1-.58Z"/>
            <polygon class="cls-7" points="575 230.63 572.83 231.29 572.79 231.3 570.45 232.02 570.43 232.03 570.37 232.05 570.35 232.05 565.33 232.92 560.1 233.22 554.86 232.92 549.84 232.05 549.83 232.05 549.77 232.03 549.75 232.02 547.4 231.3 547.37 231.29 545.19 230.63 541.13 228.71 538.58 226.93 538.67 227.47 539.92 229.82 541.94 231.98 544.65 233.88 545.69 234.37 547.96 235.44 549.75 235.99 550.48 236.21 551.74 236.6 555.84 237.31 560.1 237.55 564.36 237.31 568.46 236.6 569.71 236.21 570.45 235.99 572.23 235.44 574.51 234.37 575.54 233.88 578.26 231.98 580.28 229.82 581.52 227.47 581.61 226.93 579.07 228.71 575 230.63"/>
            <polygon class="cls-6" points="542.1 104.74 543.14 106.71 544.83 108.53 547.11 110.12 549.89 111.43 553.06 112.4 556.5 113 557.89 113.08 560.08 113.2 563.65 113 567.09 112.4 570.26 111.43 573.04 110.12 575.32 108.53 577.02 106.71 578.06 104.74 578.41 102.69 578.41 101.31 578.41 94.28 578.41 63.13 576.91 64.74 574.4 66.5 571.33 67.94 567.83 69.02 564.03 69.68 560.08 69.9 556.13 69.68 552.33 69.02 548.83 67.94 545.76 66.5 543.24 64.74 541.74 63.13 541.74 94.28 541.74 102.69 542.1 104.74"/>
            <polygon class="cls-15" points="545.76 66.5 548.83 67.94 552.33 69.02 556.13 69.68 560.08 69.9 564.03 69.68 567.83 69.02 571.33 67.94 574.4 66.5 576.91 64.74 578.41 63.13 578.78 62.73 579.94 60.55 580.33 58.29 580.33 53.47 579.94 55.74 578.78 57.92 578.41 58.32 578.41 58.32 576.91 59.92 574.4 61.69 571.33 63.13 567.83 64.2 564.03 64.86 560.08 65.09 556.13 64.86 552.33 64.2 548.83 63.13 545.76 61.69 543.24 59.92 541.75 58.32 541.74 58.32 541.37 57.92 540.22 55.74 539.83 53.47 539.83 58.29 540.22 60.55 541.37 62.73 541.74 63.13 543.24 64.74 545.76 66.5"/>
            <polygon class="cls-15" points="567.96 53.28 567.17 52.43 566.11 51.69 564.82 51.08 563.34 50.63 561.74 50.35 560.08 50.26 558.41 50.35 556.81 50.63 555.34 51.08 554.04 51.69 552.98 52.43 552.19 53.28 551.71 54.19 551.54 55.15 551.71 56.1 552.09 56.83 552.19 56.64 552.98 55.79 554.04 55.05 555.34 54.44 556.81 53.99 558.41 53.71 560.08 53.62 561.74 53.71 563.34 53.99 564.82 54.44 566.11 55.05 567.17 55.79 567.96 56.64 568.06 56.83 568.45 56.1 568.61 55.15 568.45 54.19 567.96 53.28"/>
            <path class="cls-8" d="M573.37,52,572,50.56l-1.79-1.25-2.18-1-2.49-.77-2.7-.47-2.8-.15-2.81.15-2.7.47-2.49.77-2.18,1-1.79,1.25L546.79,52,546,53.54l-.14.77.14.77.82,1.55,1.32,1.43,1.79,1.25,2.18,1,.11,0,2.38.74,2.7.47,2.81.16,2.8-.16,2.7-.47,2.39-.74.1,0,2.18-1L572,58.06l1.33-1.43.82-1.55.13-.77-.13-.77Zm-4.92,4.11-.39.73L568,57l-.79.85-1.06.74-1.29.61-1.48.45-1.6.28-1.66.09L558.41,60l-1.6-.28-1.47-.45-1.3-.61L553,57.87l-.79-.85-.1-.19-.38-.73-.16-1,.16-1,.48-.91.79-.85,1.06-.74,1.3-.61,1.47-.45,1.6-.28,1.67-.1,1.66.1,1.6.28,1.48.45,1.29.61,1.06.74.79.85.49.91.16,1Z"/>
            <path class="cls-8" d="M541.37,57.92l.37.4h0l1.49,1.6,2.52,1.76,3.07,1.45,3.5,1.07,3.8.66,4,.23,3.95-.23,3.8-.66,3.5-1.07,3.07-1.45,2.51-1.76,1.5-1.6h0l.37-.4,1.16-2.18.39-2.27-.39-2.26L578.78,49l-1.87-2-2.51-1.76-3.07-1.44-3.5-1.08-3.8-.66-3.95-.22-4,.22-3.8.66-3.5,1.08-3.07,1.44L543.24,47l-1.87,2-1.15,2.18-.39,2.26.39,2.27Zm4.6-6.06.82-1.55,1.32-1.42,1.79-1.25,2.18-1,2.49-.76,2.7-.47,2.81-.16,2.8.16,2.7.47,2.49.76,2.18,1L572,48.89l1.33,1.42.82,1.55.28,1.61-.15.84-.13.77-.82,1.55L572,58.06l-1.79,1.25-2.18,1-.1,0-2.39.74-2.7.47-2.8.16-2.81-.16-2.7-.47-2.38-.74-.11,0-2.18-1-1.79-1.25-1.32-1.43L546,55.08l-.14-.77-.14-.84Z"/>
            <polygon class="cls-15" points="567.17 55.79 566.11 55.05 564.82 54.44 563.34 53.99 561.74 53.71 560.08 53.62 558.41 53.71 556.81 53.99 555.34 54.44 554.04 55.05 552.98 55.79 552.19 56.64 552.09 56.83 552.19 57.02 552.98 57.87 554.04 58.61 555.34 59.22 556.81 59.67 558.41 59.95 560.08 60.04 561.74 59.95 563.34 59.67 564.82 59.22 566.11 58.61 567.17 57.87 567.96 57.02 568.06 56.83 567.96 56.64 567.17 55.79"/>
            <polygon class="cls-15" points="545.97 53.54 546.78 51.99 548.12 50.56 549.9 49.31 552.08 48.29 554.57 47.52 557.27 47.05 560.08 46.9 562.88 47.05 565.58 47.52 568.07 48.29 570.25 49.31 572.04 50.56 573.37 51.99 574.19 53.54 574.32 54.31 574.47 53.47 574.19 51.86 573.37 50.31 572.04 48.89 570.25 47.64 568.07 46.61 565.58 45.85 562.88 45.38 560.08 45.22 557.27 45.38 554.57 45.85 552.08 46.61 549.9 47.64 548.12 48.89 546.78 50.31 545.97 51.86 545.69 53.47 545.83 54.31 545.97 53.54"/>
            <polyline class="cls-16" points="347.76 182.36 348 182.45 347.99 182.37 347.76 182.36"/>
            <polygon class="cls-6" points="536.53 347.65 535.82 346.06 534.68 344.99 533.19 344.52 531.46 344.69 529.61 345.47 527.75 346.82 526.02 348.64 524.53 350.81 523.39 353.19 522.67 355.6 522.43 357.89 522.67 359.9 522.9 360.4 523.39 361.5 524.53 362.57 526.02 363.04 527.75 362.87 529.61 362.09 531.16 360.97 532.56 359.95 533.88 358.57 535 356.92 535.87 355.12 536.41 353.29 536.6 351.55 536.78 349.67 536.73 349.25 536.53 347.65"/>
            <polygon class="cls-9" points="549.76 339.4 555.64 356.24 600.96 330.24 602.64 329.28 590.97 322.59 584.89 319.1 584.21 320.64 583.56 322.09 582.4 323.83 580.88 326.1 580.36 326.65 579.66 327.69 577.03 330.5 573.97 332.89 570.58 334.77 567 336.07 566.6 336.15 564.6 336.87 559.93 337.73 555.38 337.75 551.11 336.92 547.29 335.27 547.12 335.15 548.48 336.76 549.76 339.4"/>
            <polygon class="cls-6" points="580.69 319.63 580.32 319.71 579.93 319.89 579.53 320.16 579.16 320.51 578.81 320.92 578.51 321.38 578.26 321.88 578.07 322.39 577.96 322.89 577.92 323.37 577.96 323.8 578.07 324.17 578.26 324.46 578.51 324.68 578.81 324.79 579.16 324.81 579.53 324.72 579.93 324.54 580.32 324.27 580.69 323.92 581.04 323.51 581.26 323.18 581.35 323.05 581.6 322.55 581.78 322.04 581.89 321.54 581.93 321.06 581.89 320.63 581.78 320.26 581.6 319.96 581.35 319.76 581.04 319.64 580.69 319.63"/>
            <polygon class="cls-17" points="548.7 329.42 548.51 329.39 548.17 329.32 547.42 329.18 543.96 328.22 542.54 327.68 542.54 327.88 545.54 329.17 548.47 329.74 549.35 329.91 549.81 330 552.17 329.99 551.03 329.87 548.7 329.42"/>
            <polygon class="cls-15" points="476.59 388.2 488.25 394.89 494.11 364.77 464.93 381.51 476.59 388.2"/>
            <path class="cls-15" d="M580.61,317.71l-.36.08-.09,0-.48.22h0l-.37.21-.31.15-2.7,1.36-.7.26-2,.76L573,321l-.09,0-.52.14-1.21.34h0l-1.05.29-.59.16-3.61.69-3.71.41-3.76.14-3.75-.14-3.71-.41-3.61-.69L544,321l-1.42-.54v7.23l1.42.54,3.46,1,.75.14.34.07.18,0,2.34.45,1.14.12,2.15.24.42,0,3.75.14,3.76-.14,3.71-.41h0l3.07-.58.52-.1,2.14-.59,1.32-.37,3.26-1.24,3-1.52.38-.21.48-.33.46-.42.42-.5.37-.57.07-.14.23-.46.23-.61.13-.61.05-.58v-1.6l0-.5-.14-.45-.22-.36-.31-.25-.37-.14Zm1,2.26.18.29.12.37,0,.43,0,.48-.12.5-.18.51-.25.5-.09.12-.22.34-.35.41-.37.35-.39.27-.4.18-.37.09-.35,0-.3-.12-.68-.38.68.38-.25-.2-.19-.3-.11-.37,0-.43,0-.48.11-.5.19-.51.25-.5.3-.46.35-.41.37-.35.4-.27.39-.18.37-.08H581l.31.12-1-.57,1,.57Z"/>
            <polygon class="cls-13" points="570.62 320.08 568.63 320.63 565.33 321.26 564.66 321.33 561.93 321.64 560.06 321.7 558.49 321.76 557.63 321.73 555.05 321.64 551.66 321.26 548.36 320.63 547.47 320.38 545.19 319.75 544.39 319.45 542.54 318.75 542.54 320.45 542.54 320.45 543.96 320.99 547.42 321.95 551.03 322.64 554.74 323.05 558.49 323.19 562.25 323.05 565.96 322.64 569.57 321.95 570.16 321.79 571.21 321.5 571.21 321.5 572.42 321.16 572.94 321.02 573.03 320.99 573.6 320.78 575.6 320.02 576.29 319.76 578.99 318.4 579.3 318.25 579.67 318.04 579.68 318.03 580.16 317.81 580.25 317.79 580.61 317.71 581.03 317.73 581.4 317.87 580.45 317.32 579.64 316.86 579.27 316.72 578.85 316.7 578.4 316.8 577.92 317.02 577.91 317.03 577.54 317.24 577.23 317.39 577.19 317.42 575.31 318.36 575.15 318.44 574.82 318.61 574.78 318.62 574.23 318.83 574.15 318.86 573.9 318.95 573.53 319.1 572.58 319.46 571.8 319.75 570.62 320.08"/>
            <polygon class="cls-18" points="544.13 295.77 542.53 297.48 542.53 297.49 542.53 297.55 542.53 301.36 542.53 301.91 542.53 304.05 542.53 306.27 542.53 308.77 542.53 312.17 542.53 315.28 542.54 316.39 542.54 318.75 544.39 319.45 545.19 319.75 547.47 320.38 548.36 320.63 551.66 321.26 555.05 321.64 557.63 321.73 558.49 321.76 560.06 321.7 561.93 321.64 564.66 321.33 565.33 321.26 568.63 320.63 570.62 320.08 571.8 319.75 572.58 319.46 573.35 318.64 573.6 318.37 574.21 317.72 574.48 317.31 574.5 317.28 575.57 315.68 576.73 313.95 577.12 313.08 578.5 309.96 578.65 309.34 579.46 305.9 579.47 305.74 579.49 305.02 579.49 304.94 579.57 301.91 578.82 298.16 577.79 295.97 577.35 295.04 575.51 292.79 572.49 290.54 571.34 290.05 564.63 293.9 564.39 294.01 563.66 294.36 562.55 294.7 561.35 294.91 560.1 294.98 560.1 294.98 558.85 294.91 557.65 294.7 556.54 294.36 555.57 293.9 550.86 291.2 547.84 292.88 544.13 295.77"/>
            <polygon class="cls-9" points="542.54 331.9 543.9 332.68 542.54 331.02 542.54 331.9"/>
            <path class="cls-4" d="M541.68,136.31l-1.5-2.51V119.48l.31.33,2.93,2,3.58,1.68,4.07,1.25,4.43.77,4.6.26,4.6-.26,4.42-.77,4.08-1.25,3.57-1.68,2.94-2,.3-.33V206.4l-.38,2.23-1.13,2.14-1.84,2-2.48,1.73-3,1.42-3.44,1-3.74.65-3.88.22-3.89-.22-3.73-.65-3.45-1-.62-.29,4-2.27,10-5.74,3.22-1.85,2-1.13v-59l-5.63-3.23-6-.15-6-1.16-4.89-2ZM503,336.29l-1.11-.83-1.64-1.23L498,331l-.52-1.11-.8-1.69-.86-1.83L494,321.76l0-.06-1.63-4.51-.56-1.82-.84-2.73-1.16-4.54-.66-3.22-.27-1.3-.72-4.52-.51-4.51-.31-4.52-.14-4.52,0-4.53.2-4.55.76-6.53,1.45-6.54,2.05-6.49,2.56-6.34,3-6.09,3.33-5.77,3.59-5.35,5.36-5.78,7.16-6.16,7.48-5.68,2.37-1.59,4.17-2.82,2.55-1.42v-38l-4.88,3.35-6.89,5.07L514.23,186l-3.72,3.18-3.07,2.61L505,194.16l-3.11,3L498,201.93l-3.37,4.74-3.17,4.88-2.95,4.95-2.67,5-2.37,4.93-2.09,5-1.9,5.18-1.69,5.32-1.49,5.44-1.3,5.53-1.11,5.58-.9,5.61-.72,5.6-.53,5.57-.35,5.51-.16,5.41,0,5.28.17,5.16.29,5,.4,4.92.52,4.79.48,3.47.16,1.17.76,4.5.89,4.33.32,1.34.69,2.83,1.15,4,.87,2.58.41,1.22.62,1.6.69,1.75.1.26,1.55,3.39,1.33,2.75.31.65.87,1.79.86,1.75,1.86,3.52,2.08,3.38,2.35,3.08,2.69,2.64.64.42,1.29-6.65,1.28-4.12,1.85-4.3.23-.44,2.09-3.89,2.73-4.18,2.15-2.77.11-.15-1.16-.36Zm39.51-6.19v-9.65h0v-23h0v-10l-.28-1.25-.34-1.51-1.11-1.84-1.4-1-1.59-.19-.57.2-1.11.38-.33.25-1.35,1-1.6,1.94-1.41,2.56-1.12,3.13-.76,3.65-.13,8.93-.09,5.67,0,2.17,0,2.3-.08.73-.4,3.55-.73,2.24-.59,1.85-1.33,2.49.77-.06.86.12,1.84.26.31,0,2.71,1.06h0l.9.52,9,5.16v-1.8Zm62.82,2.67-48.25,27.67-57.2,32.81,11.67,6.69,57.19-32.81L617,339.46l7.07-4.06,1.87-1.07-11.66-6.69-1.87,1.07ZM455.49,386.14l14,8,14,8.05,14,8,14,8,64.26-36.86,64.27-36.86-14-8-.13-.08v8.12l-57.19,32.8L511.58,410.2l-11.67-6.69-11.66-6.69-11.66-6.69-11.66-6.69-11.67-6.69-11.66-6.69v-8.12l-14.15,8.12,14,8Z"/>
            <path class="cls-19" d="M537,105.32l-.46-2.63.46-2.64,1.34-2.54,2.18-2.34,1.27-.89v8.41l.36,2,1,2,1.69,1.82,2.28,1.59,2.78,1.31,3.17,1,3.44.6,1.39.08,2.19.12,3.57-.2,3.44-.6,3.17-1,2.78-1.31,2.28-1.59,1.7-1.82,1-2,.35-2V94.28l1.28.89,2.18,2.34,1.34,2.54.1.61.35,2-.45,2.63-1.34,2.54-2.18,2.34-2.94,2-3.57,1.68-4.08,1.25-4.42.77-4.6.26-4.6-.26-2-.34-2.43-.43L547,113.93l-3.58-1.68-2.93-2-2.18-2.34ZM463.87,341.21l2.08,3.38.66.86,1.14,1.49.55.72,2.69,2.65h0l2.33,1.55.75.51,1.9,1.09,1,.56,1.67,1,4.54,2.61,4.53,2.6,4.54,2.6,2,1.17.05-.21-.64-.42L491,360.68l-2.35-3.08-2.08-3.38-1.86-3.52-.86-1.75-.87-1.79-.31-.65-1.33-2.75-1.55-3.39-.1-.26-.69-1.75-.62-1.6-.41-1.22-.87-2.58-1.15-4-.69-2.83-.32-1.34-.89-4.33-.76-4.5-.16-1.17-.48-3.47-.52-4.79-.4-4.92-.29-5-.17-5.16,0-5.28.16-5.41.35-5.51.53-5.57.72-5.6.9-5.61,1.11-5.58,1.3-5.53,1.49-5.44,1.69-5.32,1.9-5.18,2.09-5,2.37-4.93,2.67-5,2.95-4.95,3.17-4.88,3.37-4.74,3.85-4.74,3.11-3,2.49-2.42,3.07-2.61,3.72-3.18,7.19-5.64,6.89-5.07,4.88-3.35-.08,0-4.46-2.55-1.17-.68-3.36-1.93-2.27-1.3-2.27-1.3-3.36-1.93-1.18-.67-4.46-2.56-.07,0-4.88,3.35-.68.5-6.21,4.56-7.19,5.65-6.79,5.79-5.61,5.44-3.85,4.75-3.36,4.74-3.18,4.88-2.94,5-2.67,5-2.37,4.94-2.1,5-1.89,5.18-1.69,5.32-1.5,5.44-1.3,5.53-1.1,5.58-.91,5.61-.72,5.6-.53,5.57-.34,5.51-.16,5.4,0,5.29.17,5.16.28,5,.4,4.92.52,4.79.64,4.64.77,4.5.88,4.33,1,4.17,1.15,4,1.27,3.8,1.42,3.6,1.55,3.4,1.64,3.4.75,1.54,1,2Z"/>
            <polygon class="cls-6" points="574.89 291.92 577.24 294.79 577.35 295.04 577.79 295.97 578.82 298.16 579.57 301.91 579.49 304.94 579.49 305.02 579.47 305.74 579.46 305.9 578.65 309.34 578.5 309.96 577.12 313.08 576.73 313.95 575.57 315.68 574.5 317.28 574.48 317.31 574.21 317.72 573.6 318.37 573.35 318.64 572.58 319.46 573.53 319.1 573.9 318.95 574.15 318.86 574.23 318.83 574.78 318.62 574.82 318.61 575.15 318.44 575.31 318.36 575.32 318.35 576.08 317.21 576.68 316.32 578 314.34 578.04 314.26 579.89 310.09 579.9 310.05 580.55 307.29 580.71 306.64 580.91 305.76 581.02 301.51 580.22 297.52 578.54 293.92 576.04 290.87 573.37 288.89 571.92 289.72 574.89 291.92"/>
            <polygon class="cls-8" points="585.78 305.26 584.1 301.67 580.98 297.32 578.54 293.92 580.22 297.52 581.02 301.51 580.91 305.76 580.71 306.64 580.55 307.29 579.9 310.05 579.89 310.09 578.04 314.26 578 314.34 576.68 316.32 576.08 317.21 575.32 318.35 575.31 318.36 577.19 317.42 577.23 317.39 577.54 317.24 577.91 317.03 577.92 317.02 578.4 316.8 578.85 316.7 579.27 316.72 579.64 316.86 580.45 317.32 581.4 317.87 581.71 318.12 581.93 318.48 582.07 318.93 582.11 319.44 582.11 319.45 582.11 321.03 582.06 321.61 581.92 322.22 581.7 322.83 581.47 323.29 581.4 323.43 581.03 324 580.61 324.5 580.15 324.92 579.67 325.25 579.29 325.46 576.29 326.98 573.03 328.22 571.71 328.58 569.57 329.18 569.05 329.28 565.98 329.86 565.96 329.87 562.25 330.28 558.49 330.42 554.74 330.28 554.32 330.23 552.17 329.99 549.81 330 549.35 329.91 548.47 329.74 545.54 329.17 542.54 327.88 542.54 330.1 542.54 331.02 543.9 332.68 544.31 332.92 546.63 334.57 546.67 334.62 547.12 335.15 547.29 335.27 551.11 336.92 555.38 337.75 559.93 337.73 564.6 336.87 566.6 336.15 567 336.07 570.58 334.77 573.97 332.89 577.03 330.5 579.66 327.69 580.36 326.65 580.88 326.1 582.4 323.83 583.56 322.09 584.21 320.64 584.89 319.1 585.45 317.84 586.41 313.79 586.47 313.51 586.59 309.26 585.78 305.26"/>
            <path class="cls-20" d="M503.58,311.36l.1,0-.62,1.16-.3.56-2.59,3.41-3,2.92-3.22,2.27-1.63-4.51-.56-1.82,1.33-.9.9-.51,3.17-1.49,3.25-.88Zm53.53,49.08-57.2,32.81,1.47-5.89L506.46,367l.8-3.2,1.29-4.12,1.84-4.3,2.33-4.33,2.72-4.18,2.62-3.37.39-.51,1.76-1.89,1.43-1.54,3.25-2.85,3.17-2.15.9-.51,3.17-1.49,3.25-.88,3.19-.23,3,.42,1,.38,1.45.56.32.12,2.32,1.66,0,.05.45.53,1.36,1.61,1.28,2.64,5.88,16.84Zm-20.33-10.78,0-.42-.19-1.59-.72-1.59L534.68,345l-1.49-.47-1.73.17-1.85.78-1.86,1.35L526,348.64l-1.49,2.17-1.14,2.38-.71,2.41-.25,2.3.25,2,.22.49.49,1.1,1.14,1.07L526,363l1.73-.16,1.86-.78,1.55-1.12,1.4-1,1.32-1.38,1.12-1.65.87-1.8.54-1.83.19-1.74Zm-8.72-29.2.73-2.24.4-3.55.08-.73,0-2.3,0-2.17.09-5.67.13-8.93.76-3.65,1.12-3.13,1.41-2.56,1.6-1.94,1.35-1,.33-.25,1.11-.38.57-.2,1.59.19-3-1.73-1.53-.88-4-2.28-.55-.32-4.54-2.6-3-1.73-1.53-.87-4.53-2.6-1.59-.19-1.68.57-.34.26-1.35,1-1.59,1.94-1.41,2.56-1.13,3.13-.75,3.65-.29,19.07-.49,4.28-1.32,4.09-.38.72-.72,1.36-.62,1.16-.3.56-2.59,3.41-3,2.92-3.22,2.27,0,.06,1.91,4.59.86,1.83.8,1.69L498,331l2.24,3.25,1.64,1.23,1.11.83,1.85.59,1.16.36.75-1,1-1.06,2.2-2.37.14-.12,3.1-2.73,3.18-2.15.44-.25.46-.27,2.56-1.19.61-.29,3.24-.88,2.21-.16h.22l1.33-2.49Zm-40.38,39.72-4.53-2.6L478.61,355l-1.67-1-1-.56-1.9-1.09-.75-.51L471,350.31l-.63,3.25-.68,3.51-4.75,24.44,29.17-16.74.16-.82-2-1.17ZM617,339.46l-48.25,27.67-57.19,32.81V410.2l57.19-32.81L626,344.59V334.33l-1.87,1.07Zm-41.18,42-64.26,36.86v12.34l64.26-36.86,64.27-36.86V344.59ZM601,330.24l-45.32,26,1.47,4.2,48.25-27.67,7.07-4.06,1.87-1.07-3,.42-8.66,1.22Z"/>
            <path class="cls-21" d="M497.65,306.16,504.4,310l-.72,1.36-.1,0-3.19.23-3.25.88L494,314l-.9.51-1.33.9-.84-2.73-1.16-4.54-.66-3.22,2.84-.21,3,.43ZM543.4,123l3.58,1.68,4.07,1.25,1.57.27,2.86.5,4.6.26,4.6-.26,4.42-.77,4.08-1.25,2.77-1.3.8-.38,2.94-2,.3-.33,1.44-1.54.44-.47,1.34-2.54.45-2.64V102.69l-.45,2.63-1.34,2.54-2.18,2.34-2.94,2-3.57,1.68-4.08,1.25-4.42.77-4.6.26-4.6-.26-2-.34-2.43-.43L547,113.93l-3.58-1.68-2.93-2-2.18-2.34L537,105.32l-.46-2.63V113.4L537,116l1.34,2.54,1.87,2,.31.33Zm-45.84,287.3-14-8-14-8.05-14-8-14-8-14-8V382.4l14,8,14,8,14,8,14,8,14,8,14,8V418.31Zm-44.3-33.52,11.67,6.69,11.66,6.69,11.66,6.69,11.66,6.69,11.67,6.69V399.94l-11.67-6.69,1.47-5.89L506.46,367l.8-3.2,1.29-4.12,1.84-4.3,2.33-4.33,2.72-4.18,2.62-3.37.39-.51,1.76-1.89,1.43-1.54,3.25-2.85,3.17-2.15.9-.51,3.17-1.49,3.25-.88,3.19-.23,3,.42,1,.38,1.45.56.32.12-.41-.23-1.36-.78-9-5.16-.9-.52h0l-2.71-1.06-.31,0-1.84-.26-.86-.12-.77.06h-.22l-2.21.16-3.24.88-.61.29-2.56,1.19-.46.27-.44.25L513.22,330l-3.1,2.73-.14.12-2.2,2.37-1,1.06-.75,1-.11.15-2.15,2.77-2.73,4.18L499,348.23l-.23.44-1.85,4.3-1.28,4.12-1.29,6.65-.05.21-.16.82-5.85,30.12-11.66-6.69-11.66-6.69,4.75-24.44.68-3.51.63-3.25h0l-2.69-2.65-.55-.72-1.14-1.49-.66-.86-2.08-3.38L462,337.69l-1-2-.42,1.33-3.46,13.86-.62,2.5-2.36,9.47-.91,3.64-2.72-1.56-7.07-4.06-1.87-1.07v10.26ZM584.89,319.1l6.08,3.49,11.67,6.69,8.66-1.22-13.25-7.6-11.64-6.67-1,4Z"/>
            <g>
              <path class="cls-22" d="M727.6,418.32c-4.76.86-7.82-.77-12.16-2.92l-43.11-21.27c-8.05-4-17-9.09-18.8-17.89-1-4.91.55-10.16-1-14.92-1.75-5.34-6.87-8.69-10.68-12.82-14.72-15.91-9-41.42-15.59-62.09-4.47-14.09-14.76-25.76-26.7-34.48s-36.76-18.33-50.26-24.35L508.94,250c13.5,6,39,19.11,51,27.83s22.24,20.38,26.71,34.47c6.55,20.67.86,46.18,15.58,62.1,3.82,4.12,8.93,7.47,10.68,12.81,1.56,4.76,0,10,1,14.92,1.77,8.81,10.74,13.92,18.79,17.9l43.11,21.27c4.34,2.14,9.07,4.34,13.84,3.49Z"/>
              <path class="cls-8" d="M546.29,247.31a13.27,13.27,0,0,0-1.19,1.26,5.25,5.25,0,0,1-3.77,1.35,12.7,12.7,0,0,1-2.4-.29c.1.74.19,1.49.29,2.23l.13,1-1-.1a31.5,31.5,0,0,1-5.45-1.09,1,1,0,0,0-.07.35l0,.26h0l-1.6.38-.08-.64a2.88,2.88,0,0,1,.69-1.85l.35-.4.52.16a30.44,30.44,0,0,0,4.73,1l-.3-2.3L537,247.5l1.17.29a13.77,13.77,0,0,0,3.17.48,3.66,3.66,0,0,0,2.63-.88,10.94,10.94,0,0,1,1.39-1.44,5.29,5.29,0,0,1,2.4-.72,3.14,3.14,0,0,0,1.59-.48,3.91,3.91,0,0,0,.88-1.49,3.93,3.93,0,0,1,1.57-2,2.85,2.85,0,0,1,1.43-.35c1.1,0,2,.39,2.71.37h.12a3.07,3.07,0,0,0,1.87-.92,26.58,26.58,0,0,0,1.86-2,5.87,5.87,0,0,1,4-2.07,2.88,2.88,0,0,1,1.93.7l-1.07,1.25a1.28,1.28,0,0,0-.86-.31,4.4,4.4,0,0,0-2.79,1.54,27.07,27.07,0,0,1-2,2.13,4.67,4.67,0,0,1-2.88,1.33h-.21c-1.12,0-2.07-.39-2.71-.37a1.22,1.22,0,0,0-.63.14,2.48,2.48,0,0,0-.86,1.26,5.21,5.21,0,0,1-1.36,2.12,4.63,4.63,0,0,1-2.4.82A3.78,3.78,0,0,0,546.29,247.31Zm15.12,7.33a2,2,0,0,0,1.72-.86,2.39,2.39,0,0,0,.37-1.41c0-.26,0-.49,0-.67l.06-.46.32-.34a2.26,2.26,0,0,1,.85-.14,7.33,7.33,0,0,1,1.58.22,4.92,4.92,0,0,0,1.09.11,4.25,4.25,0,0,0,2-.44,2.06,2.06,0,0,0,1.17-1.81v-.22h0a3.48,3.48,0,0,0-.1-.51l.23,0,5.85-.39-.1-1.64-5.86.38a2.93,2.93,0,0,0-.78.15,1.52,1.52,0,0,0-.88.75l-.13.63a4.28,4.28,0,0,0,.13.83v.06c0,.14,0,.19-.3.36a2.65,2.65,0,0,1-1.2.25,3.24,3.24,0,0,1-.72-.08,9,9,0,0,0-1.95-.25,3.59,3.59,0,0,0-1.53.29,2.19,2.19,0,0,0-1.18,1.26,2.88,2.88,0,0,0-.16,1c0,.26,0,.48,0,.67a1,1,0,0,1-.08.49c-.11.12-.08.11-.36.14a5.59,5.59,0,0,1-1.12-.21,6.81,6.81,0,0,0-1.58-.24l-.42,0a2.92,2.92,0,0,0-1.89,1.16,3.87,3.87,0,0,0-.74,2v.35a6.33,6.33,0,0,0,.36,2l-5.77-.48a9.2,9.2,0,0,0-.94-.05,3.66,3.66,0,0,0-1.85.42,3.25,3.25,0,0,0-1.52,2.89,4,4,0,0,0,.22,1.34,8.72,8.72,0,0,0,2.39,3.21l1.15-1.18h0a7.27,7.27,0,0,1-2-2.58,2.3,2.3,0,0,1-.13-.79,1.63,1.63,0,0,1,.68-1.46,2.18,2.18,0,0,1,1-.21,7.63,7.63,0,0,1,.8.05l7,.59,1.33.12-.49-1.24a7.15,7.15,0,0,1-.69-2.61v-.22a2.25,2.25,0,0,1,.42-1.12,1.22,1.22,0,0,1,.79-.51l.2,0a5.24,5.24,0,0,1,1.19.21A7,7,0,0,0,561.41,254.64Zm8.74,9a2.8,2.8,0,0,1,.29-1.1,1.1,1.1,0,0,1,.66-.48,4.65,4.65,0,0,1,1.29-.13h1.28a4.28,4.28,0,0,0,3.2-1,5,5,0,0,0,.92-1.49,2.76,2.76,0,0,1,.58-.93,1.5,1.5,0,0,1,1-.3c.69,0,1.63.23,2.64.24h.29A4.61,4.61,0,0,0,586.5,254a10.45,10.45,0,0,0,3.63-.65l-.57-1.55a8.8,8.8,0,0,1-3.09.56c-.27,0-.55,0-.82,0l-1.17-.11.3,1.14.08.59a3,3,0,0,1-2.61,2.9h-.2c-.72,0-1.65-.23-2.64-.24a3.18,3.18,0,0,0-2.11.7,4.1,4.1,0,0,0-1,1.49,3.52,3.52,0,0,1-.59,1,2.83,2.83,0,0,1-2,.52l-1.28,0a6,6,0,0,0-1.77.21,2.72,2.72,0,0,0-1.57,1.17,5.57,5.57,0,0,0-.6,2.26,2.82,2.82,0,0,1-.17.72l-.23.3-.27.07a7.43,7.43,0,0,1-2-.85,4.64,4.64,0,0,0-5.94,2.2,3.52,3.52,0,0,0-.27,1.37,4.21,4.21,0,0,0,1,2.66,3.48,3.48,0,0,0,2.57,1.28l0-1.65h0a1.8,1.8,0,0,1-1.33-.7,2.46,2.46,0,0,1-.59-1.59,1.79,1.79,0,0,1,.14-.73,2.82,2.82,0,0,1,2.63-1.55,2.73,2.73,0,0,1,1.14.23,7.06,7.06,0,0,0,2.69,1,2.09,2.09,0,0,0,1.11-.3,2.19,2.19,0,0,0,.91-1.06A6.11,6.11,0,0,0,570.15,263.63Zm17.32,6.21h0v-.62a1.27,1.27,0,0,1,.1-.68l.24-.22a3,3,0,0,1,1-.22,8.25,8.25,0,0,0,1.47-.27,4.05,4.05,0,0,0,2.59-3,15,15,0,0,0,.44-3.86,2.3,2.3,0,0,1,.37-1.54,1.11,1.11,0,0,1,.83-.28,5.06,5.06,0,0,1,1.51.32,38,38,0,0,1,6.25,2.89l.83-1.43h0a39.37,39.37,0,0,0-6.53-3,6.61,6.61,0,0,0-2.06-.42,2.76,2.76,0,0,0-2,.78,3.74,3.74,0,0,0-.83,2.66,13.41,13.41,0,0,1-.38,3.43,2.41,2.41,0,0,1-1.51,1.86,11.25,11.25,0,0,1-1.66.27,3.93,3.93,0,0,0-1,.32,2.25,2.25,0,0,0-.92.87,2.89,2.89,0,0,0-.32,1.5v.56a3.74,3.74,0,0,1-2,3A8.69,8.69,0,0,1,579.6,274a8.07,8.07,0,0,0-2,.24,2.6,2.6,0,0,0-1.81,1.46,3.52,3.52,0,0,0-.21,1.34,2.52,2.52,0,0,1-.07.78c-.1.29-.32.49-.8.68a8.39,8.39,0,0,1-1.75.38,5.32,5.32,0,0,0-2.08.77,2.49,2.49,0,0,0-1.22,2l0,.4,1.62-.31v-.09c0-.17.11-.39.49-.65a3.56,3.56,0,0,1,1.4-.51,9.32,9.32,0,0,0,2.1-.47,2.81,2.81,0,0,0,1.77-1.69,4.12,4.12,0,0,0,.16-1.3,1.94,1.94,0,0,1,.08-.71c.1-.23.29-.38.74-.52a7,7,0,0,1,1.6-.17,10.41,10.41,0,0,0,5.07-1.49A5.4,5.4,0,0,0,587.47,269.84Zm4.45,17a3.25,3.25,0,0,1,1.25-.25,11.84,11.84,0,0,0,1.77-.15,5.73,5.73,0,0,0,3.27-2.1,14.12,14.12,0,0,0,1.53-2.35,7.43,7.43,0,0,0,4,1.49,3.07,3.07,0,0,0,2.55-1.21,7.46,7.46,0,0,0,.87-1.82c.85-2,3.18-3.11,5.55-4.06l.39,0v-.12l0,.16.23-.07,4.46-1.16-5.37-.53-.19.07c-2.44,1-5.35,2.21-6.62,5a7.43,7.43,0,0,1-.68,1.49,1.46,1.46,0,0,1-1.24.57,7,7,0,0,1-3.74-1.7l-.8-.64-.46.91a14.61,14.61,0,0,1-1.77,2.87,4.1,4.1,0,0,1-2.33,1.55,12.71,12.71,0,0,1-1.54.12,4.62,4.62,0,0,0-1.9.42,6.87,6.87,0,0,0-2.18,2.19,5,5,0,0,1-.75.84,1.24,1.24,0,0,1-.7.32h-.11a3.2,3.2,0,0,1-1.51-.65,5.08,5.08,0,0,0-2.36-.94h-.17a3.12,3.12,0,0,0-2.74,1.77,6.61,6.61,0,0,0-.77,3.2l0,.68,1.64-.17h0l0-.51a5.2,5.2,0,0,1,.56-2.39c.38-.64.77-.93,1.31-.93h.07a3.78,3.78,0,0,1,1.59.71,4.64,4.64,0,0,0,2.38.89l.27,0a2.89,2.89,0,0,0,1.58-.68,9.93,9.93,0,0,0,1.45-1.68A3.87,3.87,0,0,1,591.92,286.82Zm11.4,12.83a12.41,12.41,0,0,1,1.68-1.81,3.48,3.48,0,0,1,1.81-.85l.45,0c.64,0,1.4.15,2.24.15a3.94,3.94,0,0,0,1.64-.31,7,7,0,0,0,2.35-2.14,4.6,4.6,0,0,1,.82-.83,1.19,1.19,0,0,1,.72-.28h0c.3,0,.8.19,1.53.24h.13a3.41,3.41,0,0,0,2.52-1.23,6.8,6.8,0,0,0,1.32-2.33,15.88,15.88,0,0,1,1.08-2.87l1.15-.11c0-.49-.09-1-.13-1.48l-.14-1.5-1.19.92c-1.55,1.24-1.84,3.12-2.33,4.51a5.38,5.38,0,0,1-1,1.76,1.77,1.77,0,0,1-1.3.68h-.06c-.32,0-.84-.22-1.6-.24H615a2.93,2.93,0,0,0-1.66.6,9.68,9.68,0,0,0-1.57,1.66,3.77,3.77,0,0,1-1.28,1.13,2.26,2.26,0,0,1-1,.17c-.62,0-1.38-.14-2.24-.14l-.67,0a5.12,5.12,0,0,0-2.64,1.21,24,24,0,0,0-2.77,3.08,6.26,6.26,0,0,1-2.68,2.13c-1.13.4-2.66.09-4.36.35a4.56,4.56,0,0,0-2.21,1.06,3.08,3.08,0,0,0-1.11,2.23,2.37,2.37,0,0,0,.15.82l1.55-.55h0l0-.27a1.4,1.4,0,0,1,.56-1,2.88,2.88,0,0,1,1.39-.68c1.26-.24,2.88.13,4.6-.41C601,302.67,602.18,301,603.32,299.65Zm-6.62,21.61a7.31,7.31,0,0,1,5.66-5.58c1.42-.29,3.18-.08,4.94-.8a13,13,0,0,0,3.73-3c1.06-1,2-1.77,3.11-1.81h.11c.91,0,2,.52,3.45.55a3.78,3.78,0,0,0,.74-.07A4.56,4.56,0,0,0,621,309a26.53,26.53,0,0,0,1.61-2.13,3.79,3.79,0,0,1,2.56-1.71l.61.16.82-1.43a2.87,2.87,0,0,0-1.43-.38,5.31,5.31,0,0,0-3.89,2.39c-.52.7-1,1.44-1.5,2a3,3,0,0,1-1.6,1l-.43,0c-.88,0-2-.52-3.45-.55h-.19a6.56,6.56,0,0,0-4.19,2.28,11.6,11.6,0,0,1-3.22,2.64c-1.21.54-2.84.39-4.59.7a8.92,8.92,0,0,0-7,6.88l1.61.32ZM597.83,338a11.89,11.89,0,0,1,1.29-2.76,3.07,3.07,0,0,1,1.91-1.42l.49,0c1.09,0,2.46.68,4.1.72l.73-.06a5,5,0,0,0,2.56-1.38c1-1,1.79-2.2,2.59-3.11a3.41,3.41,0,0,1,2.44-1.5h0c.59,0,1.38.3,2.41.32h.16a4,4,0,0,0,2.13-.75,14.3,14.3,0,0,0,2.24-2.14,5.88,5.88,0,0,1,2-1.56,19,19,0,0,1,3.11-.45,4.44,4.44,0,0,0,1.89-.83,2.7,2.7,0,0,0,1.1-1.93l-1.64-.11a1,1,0,0,1-.47.74,2.87,2.87,0,0,1-1.18.51,16.88,16.88,0,0,0-3.4.54,9.56,9.56,0,0,0-3.29,2.7,8.37,8.37,0,0,1-1.29,1.17,2.32,2.32,0,0,1-1.27.46h-.09c-.59,0-1.38-.31-2.41-.33h-.09a4.21,4.21,0,0,0-2.66,1.08,22.77,22.77,0,0,0-2.65,3.09,4.45,4.45,0,0,1-2.52,1.84l-.45,0c-1.08,0-2.45-.69-4.1-.72a3.68,3.68,0,0,0-.8.08,4.67,4.67,0,0,0-3,2.09,13.33,13.33,0,0,0-1.49,3.16l1.55.54ZM607,351l.41,0c.79,0,1.86.47,3.13.5a3.4,3.4,0,0,0,1.15-.2,3.56,3.56,0,0,0,1.85-1.68,27,27,0,0,0,1.2-3.16,4.07,4.07,0,0,1,.6-1.09,1.3,1.3,0,0,1,.74-.48l.34,0a5.14,5.14,0,0,1,1.76.47,6.65,6.65,0,0,0,2.26.58,2.51,2.51,0,0,0,1.57-.54,3.9,3.9,0,0,0,1.06-1.6l2.41-5.68a45.68,45.68,0,0,1,5.37,5.13l1.23-1.09h0a48.85,48.85,0,0,0-6.4-6.05l-.85-.66-.42,1-2.86,6.72a2.48,2.48,0,0,1-.56.95l-.55.18a5.23,5.23,0,0,1-1.67-.47,6.76,6.76,0,0,0-2.35-.58,3.1,3.1,0,0,0-.73.09,3.14,3.14,0,0,0-2,1.51,19.08,19.08,0,0,0-1.24,3.16,5.06,5.06,0,0,1-.6,1.19,1.51,1.51,0,0,1-.76.6l-.58.1c-.76,0-1.84-.47-3.13-.49a3.88,3.88,0,0,0-.75.07,3.84,3.84,0,0,0-2.7,2.49,9.06,9.06,0,0,0-.53,2.17,2.82,2.82,0,0,0-.7-.1,2.92,2.92,0,0,0-1.19.25,5.93,5.93,0,0,0-2.15,1.9l-2.75,3.43,1.28,1q1.38-1.71,2.75-3.43a4.69,4.69,0,0,1,1.54-1.43l.52-.1a.75.75,0,0,1,.68.28l1.41,2.31.12-2.7a9.29,9.29,0,0,1,.55-3A2.19,2.19,0,0,1,607,351Zm10.5,14a12,12,0,0,1-1.42,2.26,2.79,2.79,0,0,1-1.8.95H614a4.46,4.46,0,0,1-1.68-.41,4.36,4.36,0,0,0-1.16-.39H611a1.92,1.92,0,0,0-1.26.55,3,3,0,0,0-.85,1.37,4.9,4.9,0,0,0-.17,1.35,13,13,0,0,0,.33,2.61l.77,4.08-2.27-3.47-1.7-2.59h0l1.23-.8a6.24,6.24,0,0,1,.23-1.64,4.59,4.59,0,0,1,1.33-2.13,3.51,3.51,0,0,1,2.36-1l.37,0a6.21,6.21,0,0,1,1.59.5,2.94,2.94,0,0,0,1,.3h.11a1.15,1.15,0,0,0,.76-.43,6,6,0,0,0,.78-1.19,5.65,5.65,0,0,1,2.47-2.86,3.15,3.15,0,0,1,1.19-.23,6.91,6.91,0,0,1,3,1,5.51,5.51,0,0,0,2.25.8l.61-.14a2.66,2.66,0,0,0,.93-1.05,11.51,11.51,0,0,1,1.09-1.72,2.87,2.87,0,0,1,1.34-.92,3,3,0,0,1,1-.14c.53,0,1,.09,1.33.08H631a2.17,2.17,0,0,0,1.44-.87,5.84,5.84,0,0,0,1-1.93c.47-1.46.67-3.32,2-4.8l.47-.52.59.38,4.21,2.68.07,0,.14.22-.15-.14h0l.42.41.23-.93.46.23a1,1,0,0,1,.33.71.93.93,0,0,1-.3.69l-.37.27a1.79,1.79,0,0,1-.86.21,1.44,1.44,0,0,1-.78-.21l-3.62-2.31A16.87,16.87,0,0,0,635,357.4a7.2,7.2,0,0,1-1.28,2.49,3.8,3.8,0,0,1-2.54,1.47l-.39,0c-.54,0-1-.08-1.33-.08l-.45.06-.59.42a6.69,6.69,0,0,0-.6.92,5.07,5.07,0,0,1-1.9,2.24,3,3,0,0,1-1.38.33,6.87,6.87,0,0,1-3-1,5.62,5.62,0,0,0-2.28-.8l-.56.1A2.94,2.94,0,0,0,617.49,365ZM641,355.8l.13-.5h0Zm-12.3,27a1.39,1.39,0,0,1,.84-.34h.16a4.08,4.08,0,0,1,1.45.82,3.84,3.84,0,0,0,2.17,1,2,2,0,0,0,1-.26,3.13,3.13,0,0,0,1.27-1.68q1.38-3.42,2.78-6.82l1,.75.7.56.49-.76,2.28-3.5a2,2,0,0,1,.6-.7l.27-.07a2,2,0,0,1,.91.36c.38.25.79.59,1.2.91a3.72,3.72,0,0,0,2.21.74,2.36,2.36,0,0,0,1.34-.36,1.72,1.72,0,0,0,.77-1.38l-1.65-.07,0,.07-.43.09a2.12,2.12,0,0,1-1.2-.39c-.38-.29-.82-.67-1.32-1a3.44,3.44,0,0,0-1.8-.63,2.32,2.32,0,0,0-1,.26,3.4,3.4,0,0,0-1.21,1.27l-1.79,2.74-1.11-.87-.86-.67-.41,1c-1.06,2.61-2.13,5.22-3.19,7.82a1.74,1.74,0,0,1-.53.87l-.19.05a2.61,2.61,0,0,1-1.19-.66,5.27,5.27,0,0,0-2.18-1.11l-.41,0a3,3,0,0,0-1.82.67,17.45,17.45,0,0,0-1.83,1.81,2.69,2.69,0,0,1-1.5,1l-.19,0a5.05,5.05,0,0,1-1.73-.49,6.27,6.27,0,0,0-2.23-.6,2.33,2.33,0,0,0-1.56.56,3.41,3.41,0,0,0-1,1.9,13.57,13.57,0,0,0-.35,3,13.33,13.33,0,0,0,.57,3.87l1.58-.47h0a11.87,11.87,0,0,1-.2-6.06,1.89,1.89,0,0,1,.46-1l.49-.17a5,5,0,0,1,1.61.48,6.25,6.25,0,0,0,2.35.6l.4,0a5.36,5.36,0,0,0,3.06-2.09A8.66,8.66,0,0,1,628.7,382.81Zm21.57,9.6a10.07,10.07,0,0,1,4.1,2.39l1-1.28h0a11.5,11.5,0,0,0-4.82-2.72,4.78,4.78,0,0,0-1-.1,5.09,5.09,0,0,0-2.52.65,3.68,3.68,0,0,0-1.71,2,4.68,4.68,0,0,0-.21,1.54c0,.57.05,1.11.05,1.57a2.18,2.18,0,0,1-.3,1.3,1.29,1.29,0,0,1-.66.5,3.35,3.35,0,0,1-1.1.15c-.79,0-1.76-.15-2.78-.15a5.35,5.35,0,0,0-2,.32l-.41.15-.1.43a9.22,9.22,0,0,0-.23,2,8.83,8.83,0,0,0,.51,2.82,5.54,5.54,0,0,0-.57-.07,4.77,4.77,0,0,0-3.7,1.67,4.31,4.31,0,0,0-.94,2.73,4.4,4.4,0,0,0,.62,2.22,17.08,17.08,0,0,0-5.42,2.56l1,1.34a15.51,15.51,0,0,1,6.1-2.62l1.87-.35-1.54-1.12a2.51,2.51,0,0,1-.94-2,2.73,2.73,0,0,1,.56-1.69,3.17,3.17,0,0,1,2.43-1.06,3.3,3.3,0,0,1,1.56.38l2.55,1.37-1.44-2.51a7.33,7.33,0,0,1-1-3.64,7.24,7.24,0,0,1,.13-1.14,3.88,3.88,0,0,1,1-.14c.84,0,1.81.14,2.78.15a4.79,4.79,0,0,0,1.66-.25,3,3,0,0,0,1.46-1.11,3.86,3.86,0,0,0,.59-2.24c0-.57-.06-1.11-.06-1.57a3.37,3.37,0,0,1,.13-1,2.06,2.06,0,0,1,1-1.12,3.36,3.36,0,0,1,1.7-.43Zm8.86,15.91a4.39,4.39,0,0,1,1.23-.2l6.07-.33,1.67-.08L667,406.44a1.32,1.32,0,0,1-.32-.91,2.88,2.88,0,0,1,1.88-2.47,4.18,4.18,0,0,1,1.37-.21,12.11,12.11,0,0,1,3.94.91l.55-1.56a14,14,0,0,0-4.49-1,6,6,0,0,0-1.89.29,4.48,4.48,0,0,0-3,4,3.21,3.21,0,0,0,.11.68l-4.88.26a5.85,5.85,0,0,0-1.72.31,2.35,2.35,0,0,0-1.48,1.42l-.12.69a4,4,0,0,0,1,2.24,2.66,2.66,0,0,1,.67,1.29v.14l-.35.37a3.09,3.09,0,0,1-1.15.16c-.52,0-1.09,0-1.64-.08h-.31a5.92,5.92,0,0,0-5.75,4.23,4.29,4.29,0,0,0-.13,1.07,5.14,5.14,0,0,0,1.22,3.27,4.37,4.37,0,0,0,3.11,1.61l.07-1.65h0a2.67,2.67,0,0,1-1.92-1,3.52,3.52,0,0,1-.83-2.21l.08-.67a4.3,4.3,0,0,1,4.15-3h.22c.5,0,1.11.09,1.73.09a4.72,4.72,0,0,0,1.77-.28,2.17,2.17,0,0,0,1.32-1.49l.07-.55a4,4,0,0,0-1-2.26,2.66,2.66,0,0,1-.68-1.27l0-.15C658.68,408.58,658.8,408.46,659.13,408.32ZM682,411.16a5.29,5.29,0,0,1-.59-1.32l0-.33a2.24,2.24,0,0,1,.77-1.56,3.4,3.4,0,0,1,1.83-.87l.56,0a11,11,0,0,1,4.35,1.31l.68-1.5h0a12.26,12.26,0,0,0-5-1.45,6.74,6.74,0,0,0-.77,0,4.94,4.94,0,0,0-2.75,1.32,3.79,3.79,0,0,0-1.28,2.75l.07.67a6.49,6.49,0,0,0,.74,1.75,2.85,2.85,0,0,1,.42,1.18v0a1.49,1.49,0,0,1-.72,1.19,3.8,3.8,0,0,1-1.79.69c-1.38.2-3.11-.1-4.83.64a2.7,2.7,0,0,0-1.54,1.51l-.13.72a3.14,3.14,0,0,0,.7,1.79c.34.48.7.89.92,1.24a2.66,2.66,0,0,1,.41,1.46,4.74,4.74,0,0,1-2.24,3.75c-1.85,1.16-4.31,1.3-6.8,1.35l.05,1.65c2.48-.07,5.25-.14,7.62-1.59a6.39,6.39,0,0,0,3-5.16,4.34,4.34,0,0,0-.67-2.34c-.32-.51-.7-.93-1-1.31a1.6,1.6,0,0,1-.39-.84l0-.17a1.16,1.16,0,0,1,.66-.56c1.11-.52,2.66-.31,4.36-.5a5.43,5.43,0,0,0,2.58-1,3.12,3.12,0,0,0,1.37-2.51v-.07A4.35,4.35,0,0,0,682,411.16ZM708,417.28a1.14,1.14,0,0,0-.88-.42V418l-.42.32.33-.25h-.43l0,.1,0,.05h0A11.06,11.06,0,0,1,701.9,420a9.59,9.59,0,0,0-5.25,2.52,4.75,4.75,0,0,0-1.17,3.09,3.81,3.81,0,0,0,.36,1.65l-6.77,1a8.14,8.14,0,0,0-4,1.34,5.62,5.62,0,0,0-2,4.5c0,.26,0,.52,0,.78a14.57,14.57,0,0,0,1.8,5l1.46-.75h0a13.28,13.28,0,0,1-1.62-4.42l0-.6a4,4,0,0,1,1.35-3.2,6.8,6.8,0,0,1,3.2-1l8.18-1.22,2.08-.31-1.74-1.19a1.82,1.82,0,0,1-.71-1.57,3.07,3.07,0,0,1,.74-2,8.13,8.13,0,0,1,4.4-2,12.36,12.36,0,0,0,5.35-2.11,1.89,1.89,0,0,0,.66-1.41A1.23,1.23,0,0,0,708,417.28Z"/>
              <path class="cls-18" d="M689.31,445.1c5-4.24,9.78-9.64,9.93-16.15s-7.2-13-12.81-9.67l39.65-25.89c5.61-3.31,13,3.15,12.81,9.67s-2.7,9.84-7.64,14.08a48.42,48.42,0,0,1-9.13,6.45Z"/>
            </g>
            <polygon class="cls-8" points="549.09 239.81 546.92 242.01 539.09 246.5 524.07 252.32 523.4 252.7 521.86 253.58 521.69 253.68 521.83 253.41 521.85 253.28 521.9 253.01 521.9 252.83 521.83 252.43 521.62 252.04 521.29 251.69 520.49 250.95 520.73 251.21 520.88 251.49 520.9 251.59 520.93 251.79 520.88 252.08 520.87 252.1 520.73 252.36 520.49 252.62 520.16 252.85 519.76 253.04 519.31 253.18 518.82 253.26 518.3 253.29 517.79 253.26 517.3 253.18 516.85 253.04 516.45 252.85 516.12 252.62 515.88 252.36 515.74 252.1 515.73 252.08 515.7 251.9 515.68 251.79 515.73 251.49 515.88 251.21 516.12 250.95 515.32 251.69 514.99 252.04 514.79 252.42 514.78 252.43 514.71 252.83 514.71 253.54 514.78 253.95 514.99 254.33 515.32 254.69 515.76 255 516.31 255.26 516.93 255.45 517.6 255.56 518.3 255.6 519 255.56 519.68 255.45 520.3 255.26 520.85 255 521.29 254.69 521.62 254.33 521.82 253.96 521.69 254.03 521.82 253.96 523.53 252.98 524.07 252.67 539.09 246.86 546.92 242.36 549.09 240.16 549.23 239.9 549.3 239.49 549.3 239.14 549.23 239.54 549.09 239.81"/>
            <polygon class="cls-8" points="523.23 254.71 522.73 255.24 522.07 255.7 521.26 256.08 520.34 256.37 519.34 256.54 518.3 256.6 517.26 256.54 516.27 256.37 515.35 256.08 514.54 255.7 513.88 255.24 513.38 254.71 513.08 254.14 512.98 253.54 512.98 256.44 513.08 257.04 513.38 257.61 513.88 258.14 514.54 258.6 515.35 258.98 516.27 259.27 517.26 259.44 518.3 259.5 519.34 259.44 520.34 259.27 521.26 258.98 522.07 258.6 522.73 258.14 523.23 257.61 523.53 257.04 523.63 256.44 523.63 253.54 523.53 254.14 523.23 254.71"/>
            <polygon class="cls-8" points="590.13 263.03 587.97 265.23 580.13 269.72 565.11 275.54 564.44 275.92 562.9 276.8 562.73 276.9 562.87 276.63 562.9 276.5 562.94 276.23 562.94 276.05 562.87 275.65 562.67 275.26 562.34 274.91 561.53 274.17 561.77 274.43 561.92 274.71 561.94 274.81 561.97 275.01 561.92 275.3 561.91 275.32 561.77 275.58 561.53 275.84 561.21 276.07 560.81 276.26 560.35 276.4 559.86 276.48 559.35 276.51 558.84 276.48 558.35 276.4 557.89 276.26 557.49 276.07 557.17 275.84 556.92 275.58 556.79 275.32 556.77 275.3 556.72 275.01 556.77 274.71 556.92 274.43 557.17 274.17 556.36 274.91 556.03 275.26 555.83 275.65 555.76 276.05 555.76 276.76 555.83 277.16 556.03 277.55 556.36 277.91 556.81 278.22 557.35 278.48 557.98 278.67 558.65 278.78 559.35 278.82 560.05 278.78 560.72 278.67 561.35 278.48 561.89 278.22 562.34 277.91 562.67 277.55 562.87 277.18 562.73 277.25 562.87 277.18 564.58 276.19 565.11 275.89 580.13 270.07 587.97 265.58 590.13 263.38 590.28 263.11 590.35 262.71 590.35 262.36 590.28 262.76 590.13 263.03"/>
            <path class="cls-13" d="M549.23,238.74l.07.4-.07.4-.14.27-2.17,2.2-7.83,4.49-15,5.82-.67.38-1.54.88-.17.1.14-.27,0-.13,0-.27v-.18l-.07-.4-.21-.38-.33-.36-.8-.74.24.26.15.28,0,.1,0,.2,0,.29v0l-.14.26-.24.26-.33.23-.4.19-.45.14-.49.08-.52,0-.51,0-.49-.08-.45-.14-.4-.19-.33-.23-.24-.26-.14-.26v0l0-.19,0-.1.05-.3.15-.28.24-.26-.8.74-.33.36-.2.37h0l-.07.4v.71l.07.41.21.38.33.36.44.31.55.26.62.19.67.11.7,0,.71,0,.67-.11.62-.19.55-.26.44-.31.33-.36.2-.37,1.71-1,.1.56-.1.6-.3.57-.5.53-.66.46-.81.38-.92.29-1,.17-1,.06-1-.06-1-.17-.93-.29-.8-.38-.66-.46-.5-.53-.3-.57-.1-.6v-.09l.09-.5.3-.58.5-.52.66-.47.8-.38.93-.28.29-.05.29-.13.45-.14.49-.09.51,0h.2l1-.58,15-5.82,7.83-4.49,2.17-2.2.47-.08.7,0,.7,0,.67.12.62.19.55.25.44.31.34.36Zm8.26,35.53-.32.22-.25.26-.15.29,0,.29,0,.29,0,0,.13.27.25.26.32.22.4.19.45.14.5.09.51,0,.51,0,.49-.09.46-.14.4-.19.32-.22.24-.26.14-.27v0l.05-.29,0-.2,0-.09-.15-.29-.24-.26-.32-.22-.12-.06-.28-.13-.46-.14-.29-.05-.2,0h-.32l-.19,0-.51,0-.5.09-.45.14-.28.13Zm5.38,2.9-.2.38-.33.36-.45.31-.54.26-.63.19-.67.11-.7,0-.7,0-.68-.11-.62-.19-.54-.26-.45-.31-.33-.36-.2-.39-.07-.4v-.71l.07-.4.2-.39.33-.35.81-.74.32-.23.12-.05-.3.05-.92.28-.81.38-.66.46-.49.53-.31.58-.1.59.1.6.31.57.49.53.66.46.81.38.92.28,1,.18,1,.06,1-.06,1-.18.92-.28.81-.38.66-.46.49-.53.3-.57.11-.6-.1-.57ZM590.28,262l-.21-.39-.33-.36-.45-.31-.54-.26-.62-.19-.68-.11-.7,0-.7,0-.47.08-2.16,2.2-7.84,4.49-15,5.82-1,.58.32,0,.2,0,.29.06.46.13.28.14.12.05.32.23.81.74.33.35.2.39.07.4v.18l0,.27,0,.13-.14.27.18-.1,1.53-.88.67-.39,15-5.81,7.84-4.49,2.16-2.2.15-.27.06-.4Z"/>
            <polygon class="cls-6" points="569.71 236.21 568.46 236.6 564.36 237.31 560.1 237.55 555.84 237.31 551.74 236.6 550.48 236.21 549.75 235.99 549.75 242.94 549.75 246.05 549.94 247.2 550.53 248.32 551.49 249.34 552.78 250.25 554.35 250.98 555.72 251.4 556.14 251.53 558.08 251.87 560.1 251.99 562.12 251.87 564.06 251.53 564.48 251.4 565.85 250.98 567.42 250.25 568.71 249.34 569.66 248.32 570.25 247.2 570.45 246.05 570.45 242.94 570.45 235.99 569.71 236.21"/>
            <polygon class="cls-11" points="584.89 212.61 582.41 215.27 579.07 217.6 575 219.51 570.37 220.94 565.33 221.81 560.1 222.11 554.86 221.81 549.83 220.94 545.19 219.51 543.22 218.59 539.73 220.59 539.05 220.98 538.75 221.15 538.25 220.87 533.3 218.03 533.78 220.83 535.31 223.72 537.79 226.38 538.58 226.93 541.13 228.71 545.19 230.63 547.37 231.29 547.4 231.3 549.75 232.02 549.77 232.03 549.83 232.05 549.84 232.05 554.86 232.92 560.1 233.22 565.33 232.92 570.35 232.05 570.37 232.05 570.43 232.03 570.45 232.02 572.79 231.3 572.83 231.29 575 230.63 579.07 228.71 581.61 226.93 582.41 226.38 584.89 223.72 586.41 220.83 586.93 217.83 586.93 206.72 586.41 209.72 584.89 212.61"/>
            <polygon class="cls-7" points="575 230.63 572.83 231.29 572.79 231.3 570.45 232.02 570.43 232.03 570.37 232.05 570.35 232.05 565.33 232.92 560.1 233.22 554.86 232.92 549.84 232.05 549.83 232.05 549.77 232.03 549.75 232.02 547.4 231.3 547.37 231.29 545.19 230.63 541.13 228.71 538.58 226.93 538.67 227.47 539.92 229.82 541.94 231.98 544.65 233.88 545.69 234.37 547.96 235.44 549.75 235.99 550.48 236.21 551.74 236.6 555.84 237.31 560.1 237.55 564.36 237.31 568.46 236.6 569.71 236.21 570.45 235.99 572.23 235.44 574.51 234.37 575.54 233.88 578.26 231.98 580.28 229.82 581.52 227.47 581.61 226.93 579.07 228.71 575 230.63"/>
            <polygon class="cls-10" points="543.51 210.12 546.01 208.68 549.75 206.54 552.58 204.91 559.78 200.79 562.09 199.46 563.5 198.65 563.5 197.57 563.5 192.32 563.5 189.59 563.5 156.26 559.78 158.4 543.83 167.55 542.8 168.14 542.8 193.53 542.8 209.99 542.8 210.53 543.02 210.4 543.51 210.12"/>
            <polygon class="cls-23" points="543.83 167.55 542.8 168.14 542.8 193.53 542.8 207.51 545.75 205.82 548.59 204.19 555.78 200.06 558.09 198.74 559.51 197.92 559.51 196.84 559.51 191.6 559.51 188.86 559.51 158.56 543.83 167.55"/>
            <polyline class="cls-15" points="542.76 189.94 561.49 181 561.52 178.18 542.76 186.9"/>
            <polygon class="cls-15" points="550.1 163.89 550.05 204.63 552.74 203.25 552.8 162.34 550.1 163.89"/>
            <polygon class="cls-8" points="564.27 277.93 563.78 278.46 563.12 278.92 562.31 279.3 561.39 279.58 560.39 279.76 559.35 279.82 558.31 279.76 557.31 279.58 556.39 279.3 555.58 278.92 554.92 278.46 554.43 277.93 554.13 277.36 554.02 276.76 554.02 279.66 554.13 280.26 554.43 280.83 554.92 281.36 555.58 281.82 556.39 282.2 557.31 282.48 558.31 282.66 559.35 282.72 560.39 282.66 561.39 282.48 562.31 282.2 563.12 281.82 563.78 281.36 564.27 280.83 564.58 280.26 564.68 279.66 564.68 276.76 564.58 277.36 564.27 277.93"/>
          </g>
          <g>
            <path class="cls-24" d="M466.65,139.29,451.14,206.5,363.92,171s-4-2.21-4.33-4c0,0,.78,3.48,5.86,5.55l90.29,36.63a4.34,4.34,0,0,0,4.94-3.58l12.19-55.43S475.16,142.74,466.65,139.29Z"/>
            <path class="cls-15" d="M391.55,122.48v-40c0-2.09-.79-3.77-1.77-3.77S388,80.42,388,82.51v40c0,2.09.8,3.77,1.78,3.77s1.77-1.68,1.77-3.77"/>
            <path class="cls-25" d="M457.83,204.37l12.72-58.06a6.32,6.32,0,0,0-3.54-7L377.67,105a3.55,3.55,0,0,0-4.84,2.58l-13.4,55.91a6.31,6.31,0,0,0,3.39,7.2l90,36.53A3.58,3.58,0,0,0,457.83,204.37Z"/>
            <path class="cls-26" d="M463.25,141.25l-83.47-32.17a3.27,3.27,0,0,0-4.5,2.29L363,162a5.79,5.79,0,0,0,3.19,6.58l84.11,34.13a3.3,3.3,0,0,0,4.64-2.51l11.63-52.62A5.81,5.81,0,0,0,463.25,141.25Z"/>
            <g>
              <path class="cls-27" d="M411.17,153.52l6.59,2.65-.61,2.88-6.59-2.66Zm23.72,7.2-.6,2.9,6.59,2.64.6-2.9Zm-30.59,3.7,6.6,2.67.61-2.87-6.6-2.67Zm8.64-18.72-6.59-2.62-.61,2.86,6.59,2.63Zm-19.61,11.17,6.6,2.67.62-2.86L394,154Zm35.58-1.68-.61,2.89,6.59,2.64.61-2.9Z"/>
              <path class="cls-23" d="M452.71,151.06l-69.33-27.41L376.52,155l69.81,28.33,6.6-32.18ZM391,134.37l1.43-6.62,37,14.62L428,149.08Zm-7.34-10.09,8.35,3.31-1.43,6.61-8.36-3.32ZM446,182.69l-69-28,2.05-9.42,6.38,2.57.62-2.84-6.38-2.56,2.44-11.12,68.77,27.36Zm5-24.46-22.58-9,1.41-6.72,22.56,8.92Zm-1.76,2-.6,2.91-6.59-2.64.6-2.9Zm-13.17-5.25-.6,2.89-6.59-2.63.6-2.89Zm-12.35,6.77-6.6-2.65.61-2.88,6.59,2.64Zm15.56,12.19,6.6,2.66-.6,2.91-6.6-2.67Zm1.73-8.38,6.59,2.64-.59,2.91-6.6-2.65L439.9,171l-6.6-2.66.61-2.9,6.59,2.65Zm-39.38-21.2-6.58-2.63.61-2.85,6.59,2.62Zm-1.37,6.4-.61,2.86-6.6-2.65.62-2.85Zm.26,6,6.6,2.66-.62,2.87-6.6-2.67Zm22.57,9.1,6.59,2.66-.6,2.89-6.6-2.66Zm-29.28-18.4.62-2.85,6.59,2.64-.61,2.86Zm25,3.78-6.59-2.63.61-2.87,6.58,2.62Zm-9.11,9.21,6.6,2.66-.61,2.88-6.6-2.67Zm25.79-2.55,6.58,2.63-.6,2.91-6.59-2.64Zm-41-13.29-6.59-2.64.62-2.84,6.59,2.63Zm36,3.35L431,145l19.74,7.82-.6,2.91Zm-3.68-4.59-.61,2.89L395,133.82l.62-2.85Zm-37.71-11.84-4.28-1.7.62-2.84,4.28,1.7Zm-12,38.68L435.82,194l-.07.47L376.94,170.6Z"/>
              <path class="cls-28" d="M364.84,169.13,372,172l-.43,1.41-7.28-3Zm66.92,16.15L430.32,192l1.89.76,1.45-6.73Zm-4.8,5.36,1.89.77,1-4.57-1.89-.76Zm-1.64-10.42-1.94,9,1.9.77,1.93-9Zm-5.49,7.53,1.89.77,1-4.49-1.89-.76Zm-3.56-1.44,1.9.77,1.46-6.73-1.9-.77Zm-3.55-1.45,1.89.77,1.47-6.72-1.9-.77Zm-1.81-9.44-1.75,8,1.9.77,1.74-8Zm-3.34-2.4-2,9,1.89.77,2-9Zm-3.76-.48-1.75,8,1.89.77,1.76-8Zm-5.31,6.56,1.9.76,1.41-6.43-1.89-.77ZM395,177.65l1.89.77,1.28-5.77-1.9-.77Zm-3.56-1.44,1.9.77,1.12-5.06-1.9-.76Zm-3.55-1.44,1.89.77,1.49-6.72-1.89-.76Zm-1.78-9.43-1.78,8,1.9.77,1.78-8Zm-3.33-2.4-2,8.94,1.89.77,2-8.94Z"/>
            </g>
            <circle class="cls-10" cx="389.78" cy="79.07" r="4.73"/>
            <path class="cls-15" d="M560,55.82a2.46,2.46,0,0,1-.62.71,4.37,4.37,0,0,1-1.28.9,1.52,1.52,0,0,1-1.49-.14,3.39,3.39,0,0,1-.72-1.27c-.21-.45-.62-.9-1.11-.82-.09,0-.14.08-.21.12C546.34,75.88,537.72,96.85,523.3,114a108.73,108.73,0,0,1-56,35.09l-.68-2.66a106,106,0,0,0,54.54-34.2c11.53-13.69,19.34-30.07,26.3-46.85-23,32.83-52.65,60.17-91.48,71.47l-1,.58-2.3-2c41.75-12.12,75.46-44.55,99.11-81.45h0a.18.18,0,0,1,0-.07c.23-.37.48-.73.71-1.1,0-.09.08-.18.11-.27l.06,0,.07-.11.24.16a5,5,0,0,1,2.94-1.1,4.25,4.25,0,0,1,4,3.07A1.91,1.91,0,0,1,560,55.82ZM468.53,248.27c2.24-5.13,2.61-10.7,2.85-16,.28-6.31.39-12.61.39-18.92,0-13.5-.77-40.43-2.42-46.54l-1.55,6.93-.21.62c.52,13.46,1.44,25.56,1.44,39,0,6.28-.12,12.54-.4,18.8-.22,5.25-.62,10.47-2.61,15A22.24,22.24,0,0,1,446.14,260a19.55,19.55,0,0,1-2.29-.14l-.32,2.73a22.84,22.84,0,0,0,2.61.15A24.93,24.93,0,0,0,468.53,248.27Zm-119.85,48.1a4.53,4.53,0,0,1-2.51-.78,10.6,10.6,0,0,1-3.36-4.71,36.17,36.17,0,0,1-1.56-24.47l-2.64-.77h0A39.08,39.08,0,0,0,340.29,292a13.24,13.24,0,0,0,4.33,5.88,7.24,7.24,0,0,0,4.06,1.26,5.66,5.66,0,0,0,3.78-1.36l-1.83-2.05A2.84,2.84,0,0,1,348.68,296.37Zm78.64,7.82c0-.72,0-1.44.08-2.16h0l2.74.22c-.05.64-.08,1.29-.08,1.94A28.12,28.12,0,0,0,445,328.71a3.31,3.31,0,0,0,1.35.33l.43-.07h0l.13.18,2.5.22a2.5,2.5,0,0,1-1.2,1.95,3.51,3.51,0,0,1-1.86.46,5.82,5.82,0,0,1-2.59-.62A30.83,30.83,0,0,1,427.32,304.19Zm19.38,24.86.16.1-.19,0,.19,0Zm56.08,51.2c-3.2,2.28-11.23,7.77-13.83,12.54a27.47,27.47,0,0,0-3,12.56,21.29,21.29,0,0,0,.73,5.71c.65,2.27,1.51,3.95,1.73,5.87a10.73,10.73,0,0,1,.08,1.24,8.61,8.61,0,0,1-2,5.63,9.43,9.43,0,0,1-4.11,2.87,64.51,64.51,0,0,1-20.72,3.45c-16.19,0-32.44-6.2-47.34-18.42a13.41,13.41,0,0,1-3-3.33,9.27,9.27,0,0,1-1.37-4.85v-.47a11.42,11.42,0,0,1,3-6.75,63.59,63.59,0,0,1,15.93-14.41l-1.61-2.64a66.51,66.51,0,0,0-16.72,15.11,14.38,14.38,0,0,0-3.64,8.54l0,.62a12.34,12.34,0,0,0,1.82,6.44,16.27,16.27,0,0,0,3.65,4.13c15.35,12.59,32.31,19.12,49.3,19.12a67.48,67.48,0,0,0,21.71-3.61,12.56,12.56,0,0,0,5.49-3.81,11.75,11.75,0,0,0,2.76-7.62,12.76,12.76,0,0,0-.1-1.61c-.33-2.59-1.32-4.47-1.82-6.33a18.28,18.28,0,0,1-.62-4.88,24.45,24.45,0,0,1,2.66-11.08c2.25-4.12,9.7-9.21,12.91-11.5l-.89-2.45Z"/>
            <g>
              <path class="cls-8" d="M445.66,316.55,430.08,383.8l-85.94-37.54s-3.92-2.31-4.25-4.14c0,0,.75,3.52,5.76,5.7l89,38.77a4.2,4.2,0,0,0,4.89-3.49l12.26-55.47S454.05,320.21,445.66,316.55Z"/>
              <path class="cls-29" d="M436.69,381.8l12.79-58.1a6.5,6.5,0,0,0-3.47-7.08l-88-36.48a3.43,3.43,0,0,0-4.79,2.49l-13.45,55.93a6.49,6.49,0,0,0,3.33,7.31l88.69,38.66C434,385.5,436.14,384.31,436.69,381.8Z"/>
              <path class="cls-26" d="M442.3,318.45l-82.25-34.13a3.16,3.16,0,0,0-4.45,2.2L343.28,337.2a6,6,0,0,0,3.13,6.68L429.28,380a3.2,3.2,0,0,0,4.58-2.43l11.69-52.65A6,6,0,0,0,442.3,318.45Z"/>
              <g>
                <path class="cls-27" d="M390.84,329.67l6.5,2.81-.61,2.88-6.5-2.81Zm23.39,7.75-.6,2.9,6.49,2.8.61-2.91ZM384,340.48l6.51,2.83.61-2.87-6.5-2.83Zm8.61-18.63-6.49-2.78-.62,2.86,6.49,2.79Zm-19.4,10.81,6.51,2.82.61-2.86-6.5-2.82Zm35.12-.93-.61,2.89,6.49,2.8.61-2.9Z"/>
                <path class="cls-23" d="M431.85,328.09l-68.3-29-6.9,31.37,68.78,30,6.64-32.22ZM371.06,310l1.44-6.62,36.42,15.49-1.41,6.72Zm-7.2-10.29,8.23,3.5-1.45,6.62-8.23-3.53Zm61.25,60.06-67.94-29.62,2.07-9.42,6.28,2.72.62-2.85-6.28-2.71,2.44-11.12,67.77,29Zm5.05-24.49-22.24-9.51,1.42-6.73,22.22,9.45Zm-1.74,1.92-.6,2.91-6.49-2.78.6-2.91Zm-13-5.56-.6,2.9-6.49-2.79.6-2.89Zm-12.21,6.54-6.5-2.8.61-2.88,6.49,2.79Zm15.31,12.59,6.5,2.82-.6,2.92-6.51-2.83Zm1.74-8.39,6.49,2.8-.6,2.92-6.49-2.81-.55,2.62-6.5-2.81.61-2.9,6.49,2.8ZM381.5,320.21,375,317.42l.62-2.85,6.49,2.78Zm-1.38,6.41-.61,2.86-6.5-2.81.62-2.86Zm.23,6,6.5,2.81-.61,2.88-6.5-2.83Zm22.24,9.63,6.5,2.82-.61,2.9-6.5-2.83Zm-28.82-19.12.62-2.86,6.5,2.8-.62,2.86Zm24.63,4.33-6.49-2.78.61-2.88,6.49,2.78Zm-9,9.07,6.5,2.82-.61,2.88-6.5-2.83Zm25.46-2,6.49,2.79-.6,2.9-6.5-2.79Zm-40.45-14.25-6.49-2.79.62-2.85,6.49,2.79Zm35.49,4.14.61-2.89,19.45,8.28-.6,2.92Zm-3.61-4.69-.61,2.89L375,309.51l.62-2.85ZM369.11,307l-4.21-1.79.62-2.84,4.21,1.79Zm-12,38.64L415,370.89l-.07.48L357,346.11Z"/>
                <path class="cls-28" d="M345.06,344.37l7,3.06-.43,1.41-7.18-3.13ZM411,362l-1.45,6.74,1.86.81,1.46-6.73Zm-4.76,5.3,1.86.81,1-4.57-1.86-.81Zm-1.58-10.52-1.94,9,1.86.81,1.95-9Zm-5.45,7.45,1.87.82,1-4.49-1.86-.81Zm-3.5-1.52,1.87.81,1.46-6.73-1.86-.81Zm-3.5-1.53,1.87.82,1.47-6.73-1.87-.82Zm-1.74-9.53-1.76,8,1.86.81,1.76-8Zm-3.29-2.49-2,9,1.86.81,2-9Zm-3.71-.56-1.77,8,1.87.82,1.76-8Zm-5.27,6.48,1.87.81,1.42-6.44-1.86-.82Zm-3.5-1.53,1.87.81,1.28-5.78-1.87-.81Zm-3.5-1.53,1.86.82,1.13-5.06-1.87-.81Zm-3.5-1.52,1.86.81,1.5-6.72-1.87-.81ZM366,341l-1.79,8,1.87.81,1.79-8Zm-3.28-2.49-2,9,1.87.82,2-9Z"/>
              </g>
            </g>
            <g>
              <path class="cls-30" d="M441.48,209.85l-116-46.36-2.83,1.85S334,260.5,334,261s1.79,3,1.79,3l109.42,46,2.45-2.44Z"/>
              <path class="cls-8" d="M449.43,277.46l-2.67-43.66-1.24-20.31s0-.08,0-.2c-.19-4.9-2.73-6.1-2.73-6.1L325.45,161.73c-3.06.28-4,2-4,2L441.86,209a19.32,19.32,0,0,1,1.66,4.54h0l5.16,88.13.45,6a7.5,7.5,0,0,1,0,1.26v.11c.1,1.66-.57,2.94-1.47,3.09h0c.95,0,2.66-.43,3.66-3.27Z"/>
              <path class="cls-31" d="M449.11,309l-.43-7.27-5.26-89.88a3.17,3.17,0,0,0-1.56-2.79L324.23,162.24a2.09,2.09,0,0,0-.83-.17,2.27,2.27,0,0,0-2,2.76l5.74,51.58,5.05,45.45a3.7,3.7,0,0,0,1.16,2.38,2.34,2.34,0,0,0,.54.34l36.39,15.3L446.81,312l.21.09a1.29,1.29,0,0,0,.46.09h.17c.9-.15,1.57-1.43,1.47-3.09Zm-5.51-1.38a1.19,1.19,0,0,1-.44-.09L336.36,262.6a3.26,3.26,0,0,1-1.72-2.65L330,218.4l-5.62-50.07a2.15,2.15,0,0,1,1.91-2.63,2,2,0,0,1,.77.16L438.5,210.14a3,3,0,0,1,1.49,2.64l4.8,85.3.38,6.6C445.26,306.33,444.54,307.58,443.6,307.58Z"/>
            </g>
            <g>
              <path class="cls-8" d="M576.56,380.41l-59.52,34-17-56.74c-6.68,3.36-4.61,8.36-4.61,8.36l14,48.85c.88,2.89,4.06,2,4.06,2l3.74-1.88-.06-.21,58.22-33.11c4-2,4.5-4.56,4.5-4.56C579.66,378.42,576.56,380.41,576.56,380.41Z"/>
              <path class="cls-32" d="M511.65,413.69,497.1,363a4.81,4.81,0,0,1,2.6-5.3l61.22-33.51a2.71,2.71,0,0,1,4,1.3l15,49.07c.71,1.88-.45,4.44-2.47,5.45l-61.7,35.1C514,416,512.17,415.4,511.65,413.69Z"/>
              <path class="cls-26" d="M513.81,410.45l-13.5-46.93a4.43,4.43,0,0,1,2.45-4.85l56.61-31.31c1.57-.76,3.13-.28,3.67,1.13L577,374c.65,1.7-.45,4-2.34,5l-57,32.77C515.94,412.55,514.29,412,513.81,410.45Z"/>
              <path class="cls-28" d="M530.08,365.35l-21,10.56-.38-1.37,21-10.56ZM513.59,375l-4.17,2.1.38,1.37,4.17-2.1Zm5.07,16.34-.38-1.37-4.17,2.1.38,1.37Zm23-23.11-.37-1.37-4.17,2.1.38,1.37Zm-7.21,18.07,2.08-1-.38-1.37-2.08,1Zm-17.32,9.82-2.08,1,.38,1.37,2.08-1Zm3,0,2.09-1-.38-1.37-2.09,1ZM529,378.75l.37,1.37,6.73-3.38-.38-1.37Zm-13.46-3.22,10.13-5.09-.38-1.37-10.13,5.09Zm2.53.06-8,4,.38,1.36,8-4Zm17.46-5.9-24.74,12.45.38,1.37L536,371.06Zm-3.07,4.43-21,10.55.38,1.37,21-10.55Zm3.27-.09,8.56-4.3-.37-1.37-8.56,4.3Zm-8.16,5.44-15.37,7.73.38,1.37L528,380.84Zm1.74,9.35,3.89-2-.38-1.37-3.89,2Zm4.55-9.63L513,389.74l.38,1.37,20.95-10.55Zm7.87-1.07-19.22,9.67.38,1.37,19.22-9.67Zm-14,9.94-13.39,6.74.38,1.37,13.39-6.74Zm-6.38,13L521,399.7l-4.16,2.09.38,1.37Zm15.35-6.4.38,1.37,2.08-1.05-.38-1.37Zm-19,12.22.38,1.36,2.08-1-.38-1.37ZM510,370.44l-2.09,1.05.38,1.37,2.09-1.05Zm12.48,34.07.38,1.37,2.08-1.05-.38-1.37Zm-9.45-34,2.09-1.05-.38-1.37-2.09,1.05Zm13.8-6.94-.37-1.37-10.68,5.37.38,1.37Zm-.1-10.5-21,10.58.38,1.36,21-10.57Zm-16.13,11-4.18,2.1.38,1.37,4.18-2.1Zm1.61-.81.38,1.36,10.13-5.1-.37-1.37Zm2.91,1.42-8,4,.38,1.37,8-4Zm-8.16-5.14-2.09,1.05.38,1.37,2.09-1.06Zm5.12-1-.38-1.37-2.09,1.05.38,1.37Zm11.73-5.91-.38-1.37-10.68,5.38.38,1.37Zm7.9,44.63.37,1.37,3.89-2-.37-1.37ZM536.6,389l-20.94,10.54.38,1.37L537,390.32Zm-11,10,19.2-9.66-.37-1.37-19.2,9.66Zm-8.56,5.64.38,1.36,13.38-6.73-.37-1.37Z"/>
            </g>
          </g>
          <polygon class="cls-27" points="440.72 294.82 415.13 284.4 408.68 204.42 434.27 214.84 440.72 294.82"/>
          <path class="cls-23" d="M441,301.5,337.48,259.32l-.42-5.18,103.56,42.17Zm-19.73-91.79v0l.29.11v-.09l-.29,0m-2.08,3.91,10.48,3.81.26,2.72-10.47-3.82ZM423,251l10.42,4,.29,2.86-10.42-4Zm-1.73-17.07-.14-1.39,10.45,3.9.14,1.39-10.45-3.9m4.82,47.41-.15-1.48L436.32,284l.15,1.49-10.39-4.15m-2.73-26.73,10.42,4,.66,6.59-10.41-4Zm-1-10.17-.35-3.52,10.44,3.94.35,3.54-10.44-4m-2.62-26.06,10.47,3.83.76,7.7L420.47,226Zm5,49.42,10.4,4.08.83,8.24L425.54,276ZM421,232.24l.14.06v.46l-.09,0,0-.49M425.92,281l.14.05,0,.26v.24l-.1,0-.06-.51m.14.05,0,0v.24l0-.26"/>
        </g>
        <polygon class="cls-27" points="369.8 225.16 333.64 210.44 330.59 172.62 366.75 187.34 369.8 225.16"/>
        <polygon class="cls-27" points="410.07 241.56 373.91 226.84 370.86 189.02 407.02 203.74 410.07 241.56"/>
        <polygon class="cls-27" points="373.18 267.07 337.02 252.35 333.97 214.53 370.13 229.25 373.18 267.07"/>
        <polygon class="cls-27" points="413.45 283.47 377.29 268.74 374.24 230.92 410.4 245.65 413.45 283.47"/>
        <path class="cls-11" d="M349.57,204.11l-.2-2.54a15.54,15.54,0,0,1-4.7-9.92c-.39-4.85,1.95-7.7,5.23-6.37s6.26,6.36,6.65,11.21c.31,3.86-1.12,6.41-3.36,6.64l.21,2.53.1,0a7.92,7.92,0,0,1,4.29,5.54l1.79,9.94L345,215.24l.39-9.05c.08-2.13,1.65-3.11,3.67-2.29Z"/>
        <path class="cls-11" d="M389.16,220l-.2-2.53a15.59,15.59,0,0,1-4.7-9.92c-.39-4.85,1.95-7.7,5.23-6.37s6.26,6.36,6.65,11.21c.31,3.85-1.12,6.41-3.36,6.64l.21,2.53.1,0a7.92,7.92,0,0,1,4.29,5.54l1.79,9.94-14.57-5.94.39-9.05c.09-2.13,1.65-3.11,3.67-2.29Z"/>
        <path class="cls-11" d="M350.33,244.8l-.2-2.53a15.59,15.59,0,0,1-4.7-9.92c-.39-4.85,1.95-7.7,5.23-6.37s6.26,6.36,6.65,11.21c.31,3.85-1.12,6.41-3.36,6.64l.21,2.53.1,0a8,8,0,0,1,4.3,5.53l1.78,9.95-14.57-5.95.39-9c.09-2.13,1.65-3.11,3.67-2.29Z"/>
        <path class="cls-11" d="M389.93,261.3l-.21-2.54a15.58,15.58,0,0,1-4.69-9.92c-.4-4.85,2-7.7,5.23-6.36s6.25,6.35,6.64,11.2c.32,3.86-1.11,6.41-3.35,6.64l.2,2.54.1,0a7.91,7.91,0,0,1,4.3,5.53l1.78,9.94-14.57-5.94.4-9.05c.08-2.13,1.65-3.11,3.66-2.29Z"/>
      </g>
    </g>
    <g>
      <path class="cls-33" d="M201.71,287.85c27.84,10.73,57.77,29.64,60.64,59.34l88.9,18.33c8,1.64,16.11,3.29,24.15,2.15,13.37-1.91,24.38-11.13,36.78-16.47,31.39-13.52,67.11-1.16,100.05,7.9,3.5,1,7.22,1.89,10.7.87,5.38-1.57,8.37-7.09,11.41-11.8,24.91-38.59,79-41.92,124.95-41.57,6.24,0,12.73,0,18.34-2.69s9.54-7.67,13.78-12.14c39.78-42,106-42.55,163.18-33.83,54.38,8.3,109.74,23.17,152.45,57.82,9.78,7.93,19,17.18,23.71,28.86,9.43,23.49-2.52,51.33-22,67.48s-44.9,23-69.66,28.21c-56.4,11.91-113.9,17.69-171.39,21.89-242.38,17.71-486,7.62-728.22-12.77-21-1.77-43.67-4.38-58.81-19-37.9-36.56-.28-84.9,22.64-116.3,25.78-35.32,71.16-45.73,113.34-44.37C145.72,270.71,174.61,277.41,201.71,287.85Z"/>
      <rect class="cls-34" x="41.05" y="316.26" width="192.01" height="70.12" rx="35.06"/>
      <rect class="cls-34" x="122.21" y="288.72" width="192.01" height="70.12" rx="35.06"/>
    </g>
  </g>
</svg>
