<svg xmlns="http://www.w3.org/2000/svg" xmlns:xlink="http://www.w3.org/1999/xlink" viewBox="0 0 53.84 53.84">
  <defs>
    <style>
      .cls-1, .cls-2 {
        fill: none;
      }

      .cls-2 {
        stroke: #a5a7aa;
        stroke-miterlimit: 10;
        stroke-width: 1.85px;
      }

      .cls-3 {
        clip-path: url(#clip-path);
      }

      .cls-4 {
        fill: #ff0005;
      }

      .cls-5 {
        fill: #fff;
      }
    </style>
    <clipPath id="clip-path">
      <circle class="cls-1" cx="13.46" cy="26.33" r="11.94"/>
    </clipPath>
  </defs>
  <g id="Flags">
    <g>
      <g>
        <circle class="cls-2" cx="13.46" cy="26.33" r="11.94"/>
        <g class="cls-3">
          <g>
            <rect class="cls-4" x="-1.84" y="14.36" width="35.81" height="23.87"/>
            <rect class="cls-5" x="8.45" y="14.36" width="3.29" height="23.87"/>
            <rect class="cls-5" x="-1.84" y="24.65" width="35.81" height="3.29"/>
          </g>
          <circle class="cls-1" cx="13.46" cy="26.33" r="11.94"/>
        </g>
      </g>
      <g>
        <circle cx="40.99" cy="26.7" r="12.31"/>
        <path class="cls-5" d="M47,19.8V33.89H45.31a1.48,1.48,0,0,1-.63-.12,1.58,1.58,0,0,1-.51-.42l-6.65-8.41c0,.26,0,.5.06.73s0,.46,0,.67v7.55H34.71V19.8h1.72a1.94,1.94,0,0,1,.36,0,.71.71,0,0,1,.26.07,1.07,1.07,0,0,1,.22.15,2.15,2.15,0,0,1,.24.26l6.71,8.47c0-.28-.06-.54-.07-.79s0-.5,0-.72V19.8Z"/>
      </g>
      <rect class="cls-1" x="1" width="53.84" height="53.84"/>
    </g>
  </g>
</svg>
