<svg xmlns="http://www.w3.org/2000/svg" xmlns:xlink="http://www.w3.org/1999/xlink" viewBox="0 0 435.25 506.09">
  <defs>
    <style>
      .cls-1, .cls-11, .cls-13, .cls-14, .cls-18, .cls-19, .cls-20, .cls-21, .cls-22, .cls-23, .cls-24, .cls-25, .cls-26, .cls-27, .cls-28, .cls-29, .cls-30, .cls-32, .cls-33, .cls-34 {
        fill: none;
      }

      .cls-2 {
        isolation: isolate;
      }

      .cls-3 {
        fill: #bcbec0;
      }

      .cls-4 {
        fill: #a7a9ac;
      }

      .cls-5 {
        fill: #504e51;
      }

      .cls-6 {
        fill: #cecece;
      }

      .cls-7 {
        fill: #989898;
      }

      .cls-8 {
        fill: #737373;
      }

      .cls-16, .cls-31, .cls-9 {
        fill: #4f4f4f;
      }

      .cls-10 {
        clip-path: url(#clip-path);
      }

      .cls-11, .cls-29, .cls-30 {
        stroke: #989898;
      }

      .cls-11, .cls-13, .cls-14, .cls-18, .cls-19, .cls-20, .cls-21, .cls-22, .cls-23, .cls-24, .cls-25, .cls-26, .cls-27, .cls-28, .cls-29, .cls-30, .cls-32, .cls-33, .cls-34 {
        stroke-miterlimit: 10;
      }

      .cls-11, .cls-14 {
        stroke-width: 0.91px;
      }

      .cls-12 {
        fill: #f4f4f4;
      }

      .cls-13, .cls-14, .cls-18, .cls-34 {
        stroke: #4f4f4f;
      }

      .cls-15, .cls-41 {
        fill: #c50f3c;
      }

      .cls-16 {
        opacity: 0.6;
      }

      .cls-16, .cls-31, .cls-40 {
        mix-blend-mode: multiply;
      }

      .cls-17 {
        fill: #b1b1b1;
      }

      .cls-18, .cls-19, .cls-20, .cls-21, .cls-22, .cls-23, .cls-24, .cls-25, .cls-26, .cls-27, .cls-28, .cls-30, .cls-32, .cls-33, .cls-34 {
        stroke-linecap: round;
      }

      .cls-18, .cls-27, .cls-29, .cls-30 {
        stroke-width: 0.86px;
      }

      .cls-19, .cls-20, .cls-21, .cls-22, .cls-23, .cls-24, .cls-25, .cls-26, .cls-27, .cls-28, .cls-32 {
        stroke: #cecece;
      }

      .cls-19 {
        stroke-width: 0.82px;
      }

      .cls-20 {
        stroke-width: 0.81px;
      }

      .cls-21 {
        stroke-width: 0.81px;
      }

      .cls-22 {
        stroke-width: 0.8px;
      }

      .cls-23 {
        stroke-width: 0.87px;
      }

      .cls-24 {
        stroke-width: 0.83px;
      }

      .cls-25 {
        stroke-width: 0.83px;
      }

      .cls-26 {
        stroke-width: 0.8px;
      }

      .cls-28 {
        stroke-width: 0.89px;
      }

      .cls-31, .cls-40 {
        opacity: 0.4;
      }

      .cls-32 {
        stroke-width: 2px;
      }

      .cls-33 {
        stroke: #b1b1b1;
      }

      .cls-34 {
        stroke-width: 3px;
      }

      .cls-35 {
        fill: #aab3b5;
      }

      .cls-36 {
        clip-path: url(#clip-path-2);
      }

      .cls-37 {
        clip-path: url(#clip-path-3);
      }

      .cls-38 {
        clip-path: url(#clip-path-4);
      }

      .cls-39 {
        clip-path: url(#clip-path-5);
      }

      .cls-41 {
        fill-rule: evenodd;
      }

      .cls-42 {
        fill: #c9d1d3;
      }
    </style>
    <clipPath id="clip-path">
      <path class="cls-1" d="M316.67,359.36l-31.58-16.28s-61.85,1.1-84.36,6.73L223,362.06,60.38,401.94l21.39,20.59-.35-2.2c1.21-.31,132.71-36,165.7-45l34.5,19s37-30,37.22-29.94A52.39,52.39,0,0,0,316.67,359.36Z"/>
    </clipPath>
    <clipPath id="clip-path-2">
      <ellipse class="cls-1" cx="188.61" cy="427.92" rx="12.01" ry="10.52" transform="translate(-278.83 414.31) rotate(-64.55)"/>
    </clipPath>
    <clipPath id="clip-path-3">
      <ellipse class="cls-1" cx="261.89" cy="406.46" rx="12.01" ry="10.52" transform="translate(-211.68 308.87) rotate(-45.56)"/>
    </clipPath>
    <clipPath id="clip-path-4">
      <ellipse class="cls-1" cx="224" cy="418.16" rx="12.01" ry="10.52" transform="translate(-249.84 440.7) rotate(-64.55)"/>
    </clipPath>
    <clipPath id="clip-path-5">
      <ellipse class="cls-1" cx="292.3" cy="389.86" rx="12.41" ry="8.36" transform="translate(-171.45 539.43) rotate(-71.02)"/>
    </clipPath>
  </defs>
  <g class="cls-2">
    <g id="Layer_1" data-name="Layer 1">
      <g>
        <g>
          <path class="cls-3" d="M331.44,374.84l23.69-3.58a7,7,0,0,0,3.8-1.37c1-.91,1.38-2.3,2.24-3.33,1.34-1.57,3.54-2,5.57-2.36l36.92-6.4a2.74,2.74,0,0,0-1.73-2.94L424,352.71a225.71,225.71,0,0,0-69.53,8.75l1,4.81a191.63,191.63,0,0,0-58.13,15.1,15,15,0,0,0,8.29-.13Z"/>
          <path class="cls-3" d="M179.64,501.9a2.1,2.1,0,0,0-1.09,1c-.47,1.2,1.09,2.15,2.35,2.44a29.62,29.62,0,0,0,12.33.19,5.28,5.28,0,0,0,2.55-1,2.07,2.07,0,0,0,.55-2.51,69.35,69.35,0,0,0,24.94-6.23c-.17-1-1.55-1.18-2.58-1.05-7,.83-13.67,3-20.53,4.34C192.24,500.21,185.09,499.07,179.64,501.9Z"/>
          <path class="cls-3" d="M233.34,498.33c.29.82,1.28,1.13,2.15,1.25,4.2.59,8.47-.38,12.51-1.68a5,5,0,0,0,3-1.9c.59-1.06-.05-2.78-1.26-2.7a125.44,125.44,0,0,0,18.36-6.94c-3.88,1.82-10.23,1.64-14.5,2.47-5,1-10.07,2.05-15,3.34a8.76,8.76,0,0,1,5.22.95C241.66,493.58,231.9,494.18,233.34,498.33Z"/>
          <path class="cls-3" d="M274.34,489.4c.29.82,1.29,1.13,2.15,1.25,4.2.59,8.47-.39,12.51-1.68a4.89,4.89,0,0,0,3-1.91c.6-1.05,0-2.77-1.25-2.69a126,126,0,0,0,18.35-6.94c-3.88,1.82-10.23,1.64-14.5,2.47-5,1-10.07,2.05-15,3.34a8.74,8.74,0,0,1,5.21.95C282.67,484.65,272.9,485.25,274.34,489.4Z"/>
          <path class="cls-3" d="M313.73,466.66c.28.83,1.28,1.13,2.14,1.25,4.21.6,8.47-.38,12.51-1.68a4.92,4.92,0,0,0,3-1.9c.6-1.06,0-2.78-1.25-2.7a124.9,124.9,0,0,0,18.35-6.94c-3.88,1.83-10.23,1.64-14.5,2.48-5,1-10.06,2-15,3.34a8.64,8.64,0,0,1,5.21.95C322.05,461.91,312.29,462.51,313.73,466.66Z"/>
          <path class="cls-3" d="M316.86,408.18a20,20,0,0,1,5-4.29c3.33-1.78,7.32-1.56,11.1-1.73s7.95-1,10.13-4.12a9.85,9.85,0,0,1,1.95-2.59,6,6,0,0,1,2.32-.84,189.79,189.79,0,0,0,32.36-10,124.59,124.59,0,0,0-41.58,7.2c.75,1.33-.47,2.94-1.79,3.71-4.79,2.82-11.24,1.08-16.1,3.79-3.68,2-5.75,6.28-9.46,8.26-1.62.88-3.49,1.27-5,2.31-3.07,2.1-7.22,10.5-.33,7.7C310,415.73,313.58,411.73,316.86,408.18Z"/>
          <path class="cls-4" d="M38,439.06c.8-3.61,3.69-7,7.39-7.19,2.89-.11,5.57,1.81,7.15,4.24,3.58,5.48,7.19,17.78,3.16,23.32-3.67,5.05-11.52,6.25-17,4-5.13-2.08-11.19-9-10.54-15,1.26-11.78,7.44-.76,10.46,1.31C38.05,446.3,37.24,442.62,38,439.06Z"/>
          <path class="cls-3" d="M166.25,465.88a111.59,111.59,0,0,0,20-7.5c2.66-1.3,5.34-2.73,8.27-3.11,3.74-.48,7.45.78,11.18,1.33,10.48,1.55,21-2.52,30.32-7.52,6.26-3.35,12.33-7.18,19-9.51,4-1.37,8.06-2.19,12.07-3.37a72.57,72.57,0,0,0,21.83-10.64c3.57-2.56,7-5.48,11.1-7,3.84-1.45,8-1.62,12-2.76,12-3.48,19.91-15.38,31.53-20.08-9.63,1.91-13.68,13.69-22.09,18.76-5.22,3.14-11.68,3.41-17.29,5.8-10.83,4.63-17.14,16.51-27.86,21.41-6.85,3.14-14.78,3.07-21.77,5.87-5.54,2.21-10.22,6.1-15.29,9.23a62,62,0,0,1-26.14,8.86c-7.45.76-15,.16-22.45.84-11.56,1.06-22.62,5.16-34,7.16s-24.14,1.6-33.43-5.36c7.07-3,12.41-3,19.35-.86C149.93,469.73,159,467.84,166.25,465.88Z"/>
          <g>
            <ellipse class="cls-5" cx="203.8" cy="343.39" rx="12.28" ry="13.08" transform="translate(-102.95 87.75) rotate(-19.5)"/>
            <ellipse class="cls-5" cx="128.35" cy="353.55" rx="12.41" ry="12.94" transform="translate(-247.1 376.18) rotate(-73.5)"/>
            <ellipse class="cls-5" cx="167.36" cy="347.69" rx="12.28" ry="13.08" transform="translate(-106.48 75.83) rotate(-19.5)"/>
            <ellipse class="cls-5" cx="97.04" cy="365.46" rx="13.25" ry="9.94" transform="translate(-280.97 374.49) rotate(-76.5)"/>
            <path class="cls-6" d="M202.1,415.74l-3-5.77a1.94,1.94,0,0,0-3.43,1.8l2.53,4.92C199.53,416.39,200.82,416.07,202.1,415.74Z"/>
            <path class="cls-6" d="M270.75,391.78l-.86-1.15A1.94,1.94,0,0,0,266.8,393l.51.68C268.44,393,269.6,392.39,270.75,391.78Z"/>
            <path class="cls-6" d="M160.85,422.38c1.29-.17,2.57-.36,3.86-.51l-1.59-6.16a1.94,1.94,0,1,0-3.75,1Z"/>
            <path class="cls-6" d="M230.16,408.55c1.26-.39,2.52-.76,3.78-1.13l-1.71-2.62a1.94,1.94,0,0,0-3.25,2.12l1.1,1.68Z"/>
            <g>
              <path class="cls-7" d="M318.84,403.55l21.74-4.29s4.38-20.49,2.19-25.81-11.66-9.08-11.66-9.08Z"/>
              <g>
                <path class="cls-8" d="M285.78,403.55c.69-2,42.33-39.18,42.33-39.18l1.39-19.28-24.32-11.43h-19.4s-154.54-6.4-236.35,54l62.18,65.27,151.62-26.82Z"/>
                <polygon class="cls-7" points="200.73 349.81 200.73 370.37 72.4 418.16 85.94 434.74 247.27 392.19 271.55 405.64 285.78 393.2 245.88 352.86 200.73 349.81"/>
                <path class="cls-7" d="M143.37,388.11c2.62-.61,5.24-1.25,7.86-1.88l-21.11-10.71L121,374v2.91L142.1,388.4Z"/>
                <path class="cls-7" d="M184.6,377.91l-22.49-11.33L153,365.06V368l22.66,12.25Q180.11,379.08,184.6,377.91Z"/>
                <path class="cls-7" d="M113.54,394.59q4.26-.85,8.52-1.76l-19.53-10.2-9.16-1.52V384l19.21,10.76Z"/>
                <path class="cls-7" d="M217.07,369.44,195.22,358l-9.16-1.51v2.9l22,12.41Z"/>
                <path class="cls-7" d="M203.42,395.25l43.21,23.36,7.29-5.77v-2.91L213,392.23Q208.22,393.76,203.42,395.25Z"/>
                <path class="cls-7" d="M242.61,382.81l-3.42,1.07-6.21,2,36.49,20.6,7.29-5.78Z"/>
                <path class="cls-7" d="M171.81,404.56l43.71,23.77,7.29-5.78v-2.9l-41-17.89Q176.83,403.2,171.81,404.56Z"/>
                <path class="cls-7" d="M142.58,411.6l40.77,22.86,7.29-5.78v-2.9L153.4,409.22C149.8,410.05,146.19,410.86,142.58,411.6Z"/>
                <path class="cls-6" d="M143.37,385.2c2.62-.61,5.24-1.25,7.86-1.88l-21.11-10.71L121,374l21.14,11.49Z"/>
                <path class="cls-6" d="M184.6,375l-22.49-11.34L153,365.06l22.66,12.25Z"/>
                <path class="cls-6" d="M113.54,391.69q4.26-.85,8.52-1.76l-19.53-10.21-9.16,1.39,19.21,10.77Z"/>
                <path class="cls-6" d="M217.07,366.53,195.22,355.1l-9.16,1.39,22,12.41Z"/>
                <path class="cls-6" d="M316.67,359.36l-31.58-16.28s-61.85,1.1-84.36,6.73L223,362.06,60.38,401.94l21.39,20.59-.35-2.2c1.21-.31,132.71-36,165.7-45l34.5,19s37-30,37.22-29.94A52.39,52.39,0,0,0,316.67,359.36Z"/>
                <path class="cls-6" d="M203.42,392.34l43.21,23.37,7.29-5.78L213,389.33Z"/>
                <path class="cls-6" d="M242.61,379.9,239.19,381,233,383l36.49,20.59,7.29-5.77Z"/>
                <path class="cls-6" d="M171.81,401.65l43.71,23.77,7.29-5.77-41-20.8Q176.83,400.29,171.81,401.65Z"/>
                <path class="cls-6" d="M142.58,408.69l40.77,22.86,7.29-5.77L153.4,406.31Q148,407.57,142.58,408.69Z"/>
                <path class="cls-9" d="M80.05,375.05q3.78-1.68,8.45-3.62c.34,2,.67,4,1,6,.12.67.25,1.35.38,2q-4.62,1.89-8.4,3.56Q80.76,379,80.05,375.05ZM106.93,373q4.63-1.65,9.72-3.31c-.08-.38-.17-.75-.24-1.12-.47-2.32-.89-4.63-1.29-7-3.38,1.12-6.59,2.23-9.67,3.34C105.86,367.61,106.34,370.3,106.93,373Zm33.14-10.2q4.11-1.08,8.4-2.12c-.05-.23-.11-.46-.17-.69q-.83-3.72-1.53-7.47c-2.75.67-5.43,1.36-8.06,2.06Q139.32,358.67,140.07,362.76Zm29-6.51q5.37-1,10.92-1.89c-.36-2.81-.66-5.62-1-8.43q-6,1-11.72,2.07C167.76,350.78,168.33,353.54,169.06,356.25Z"/>
                <path class="cls-6" d="M190.7,348.2v0a1.82,1.82,0,0,0-2.21-1.55l-9.4,2.22.6,3.65,9.64-2.31A1.8,1.8,0,0,0,190.7,348.2Z"/>
                <g class="cls-10">
                  <g>
                    <g>
                      <line class="cls-11" x1="204.52" y1="346.22" x2="291.59" y2="391.88"/>
                      <line class="cls-11" x1="212.99" y1="343.04" x2="300.06" y2="388.69"/>
                      <line class="cls-11" x1="225.71" y1="341.07" x2="312.79" y2="386.72"/>
                      <line class="cls-11" x1="234.18" y1="337.89" x2="321.25" y2="383.54"/>
                      <line class="cls-11" x1="254.74" y1="340.34" x2="341.82" y2="385.99"/>
                      <line class="cls-11" x1="263.21" y1="337.15" x2="350.28" y2="382.8"/>
                    </g>
                    <g>
                      <line class="cls-11" x1="140.77" y1="360.06" x2="227.84" y2="405.71"/>
                      <line class="cls-11" x1="149.23" y1="356.87" x2="236.31" y2="402.52"/>
                      <line class="cls-11" x1="161.96" y1="354.91" x2="249.03" y2="400.56"/>
                      <line class="cls-11" x1="170.43" y1="351.72" x2="257.5" y2="397.37"/>
                      <line class="cls-11" x1="190.99" y1="354.17" x2="278.06" y2="399.82"/>
                      <line class="cls-11" x1="199.45" y1="350.99" x2="286.53" y2="396.64"/>
                    </g>
                    <g>
                      <line class="cls-11" x1="82.91" y1="378.72" x2="169.98" y2="424.37"/>
                      <line class="cls-11" x1="91.37" y1="375.53" x2="178.45" y2="421.18"/>
                      <line class="cls-11" x1="104.1" y1="373.57" x2="191.17" y2="419.22"/>
                      <line class="cls-11" x1="112.57" y1="370.38" x2="199.64" y2="416.03"/>
                      <line class="cls-11" x1="133.13" y1="372.83" x2="220.2" y2="418.48"/>
                      <line class="cls-11" x1="141.59" y1="369.65" x2="228.67" y2="415.3"/>
                    </g>
                    <g>
                      <line class="cls-11" x1="19.15" y1="392.55" x2="106.23" y2="438.2"/>
                      <line class="cls-11" x1="27.62" y1="389.37" x2="114.69" y2="435.02"/>
                      <line class="cls-11" x1="40.35" y1="387.4" x2="127.42" y2="433.05"/>
                      <line class="cls-11" x1="48.81" y1="384.21" x2="135.89" y2="429.87"/>
                      <line class="cls-11" x1="69.38" y1="386.67" x2="156.45" y2="432.32"/>
                      <line class="cls-11" x1="77.84" y1="383.48" x2="164.91" y2="429.13"/>
                    </g>
                  </g>
                </g>
                <g>
                  <g>
                    <path class="cls-5" d="M167,398.26c-1-.58-2,.71-2.3,1.78a23.37,23.37,0,0,0-1,7.14,4.49,4.49,0,0,0,.86,3c1.2,1.31,3.54.85,4.7-.49a8.32,8.32,0,0,0,1.55-5,8.44,8.44,0,0,0-.8-4.9c-.87-1.44-2.85-2.33-4.3-1.48-1.11.65-1.53,2-1.87,3.26"/>
                    <path class="cls-5" d="M164.74,410.75a35.67,35.67,0,0,0,.62,11.84c.55,2.09,2.47,3,4.59,3.38s3.81.33,5.49-1a18.92,18.92,0,0,0-10.26-19.52c-.34,4.58-.1,6.79-3.13,10.5A41.71,41.71,0,0,1,151.7,425a49.65,49.65,0,0,0,15.14-8.79,5.54,5.54,0,0,0,1.89-2.38,2.06,2.06,0,0,0-1-2.59"/>
                  </g>
                  <g>
                    <path class="cls-5" d="M196,392.39c-1-.57-2,.72-2.3,1.79a23.28,23.28,0,0,0-1,7.14,4.44,4.44,0,0,0,.86,3c1.2,1.31,3.53.85,4.7-.5a8.27,8.27,0,0,0,1.55-5,8.44,8.44,0,0,0-.8-4.9c-.87-1.44-2.85-2.33-4.3-1.48-1.11.65-1.54,2-1.87,3.25"/>
                    <path class="cls-5" d="M193.76,404.89a35.67,35.67,0,0,0,.62,11.84c.55,2.09,2.47,3,4.59,3.38s3.81.33,5.49-1a18.92,18.92,0,0,0-10.26-19.52c-.34,4.58-.11,6.79-3.13,10.5a42,42,0,0,1-10.36,9.12,49.79,49.79,0,0,0,15.15-8.79,5.59,5.59,0,0,0,1.89-2.38,2.06,2.06,0,0,0-1-2.59"/>
                  </g>
                  <g>
                    <path class="cls-5" d="M226.78,382.14c-1-.58-2,.71-2.3,1.78a22.73,22.73,0,0,0-1,7.14,4.44,4.44,0,0,0,.86,3c1.2,1.31,3.53.85,4.69-.49a8.19,8.19,0,0,0,1.55-5,8.35,8.35,0,0,0-.79-4.9c-.87-1.44-2.85-2.33-4.3-1.48-1.11.65-1.54,2-1.87,3.26"/>
                    <path class="cls-5" d="M224.54,394.63a35.4,35.4,0,0,0,.62,11.84c.55,2.09,2.46,3,4.58,3.38s3.82.33,5.5-1A18.94,18.94,0,0,0,225,389.3c-.34,4.58-.1,6.79-3.13,10.5a41.55,41.55,0,0,1-10.35,9.12,49.79,49.79,0,0,0,15.15-8.79,5.59,5.59,0,0,0,1.89-2.38,2.08,2.08,0,0,0-1-2.59"/>
                  </g>
                  <g>
                    <path class="cls-5" d="M257.15,373.64c-1-.58-2,.71-2.3,1.78a23.28,23.28,0,0,0-1,7.14,4.49,4.49,0,0,0,.86,3c1.2,1.31,3.53.85,4.7-.49a8.32,8.32,0,0,0,1.55-5,8.44,8.44,0,0,0-.8-4.9c-.87-1.44-2.85-2.33-4.3-1.48-1.11.65-1.53,2-1.87,3.26"/>
                    <path class="cls-5" d="M254.91,386.13a35.67,35.67,0,0,0,.62,11.84c.55,2.09,2.47,3,4.59,3.38s3.81.33,5.49-1a18.92,18.92,0,0,0-10.26-19.52c-.34,4.58-.1,6.79-3.13,10.5a42.11,42.11,0,0,1-10.35,9.12A49.86,49.86,0,0,0,257,391.63a5.59,5.59,0,0,0,1.89-2.38,2.06,2.06,0,0,0-1-2.59"/>
                  </g>
                  <g>
                    <path class="cls-5" d="M244.55,368.65c-1-.57-2,.71-2.3,1.79a22.69,22.69,0,0,0-1,7.14,4.46,4.46,0,0,0,.86,3c1.2,1.31,3.53.85,4.69-.5a8.16,8.16,0,0,0,1.55-5,8.35,8.35,0,0,0-.79-4.9c-.87-1.44-2.85-2.33-4.3-1.48-1.11.64-1.54,2-1.87,3.25"/>
                    <path class="cls-5" d="M242.31,381.14a35.46,35.46,0,0,0,.62,11.85c.55,2.09,2.46,3,4.58,3.38s3.82.33,5.5-1a18.93,18.93,0,0,0-10.27-19.52c-.34,4.58-.1,6.78-3.13,10.5a41.75,41.75,0,0,1-10.35,9.12,50,50,0,0,0,15.15-8.79,5.62,5.62,0,0,0,1.89-2.39,2.07,2.07,0,0,0-1-2.58"/>
                  </g>
                  <g>
                    <path class="cls-5" d="M213.59,375.39c-1-.57-2,.72-2.3,1.79a22.69,22.69,0,0,0-1,7.14,4.44,4.44,0,0,0,.86,3c1.2,1.31,3.53.85,4.69-.5a8.14,8.14,0,0,0,1.55-5,8.35,8.35,0,0,0-.79-4.9c-.87-1.44-2.85-2.33-4.3-1.48-1.11.65-1.54,2-1.87,3.25"/>
                    <path class="cls-5" d="M211.35,387.89a35.4,35.4,0,0,0,.62,11.84c.55,2.09,2.46,3,4.58,3.38s3.82.33,5.5-1a18.94,18.94,0,0,0-10.27-19.52c-.34,4.58-.1,6.78-3.13,10.5a41.75,41.75,0,0,1-10.35,9.12,49.79,49.79,0,0,0,15.15-8.79,5.59,5.59,0,0,0,1.89-2.38,2.08,2.08,0,0,0-1-2.59"/>
                  </g>
                  <g>
                    <path class="cls-5" d="M182.23,389.46c-1-.57-2,.71-2.3,1.79a22.69,22.69,0,0,0-1,7.14,4.45,4.45,0,0,0,.85,3c1.21,1.31,3.54.85,4.7-.5a8.21,8.21,0,0,0,1.55-5,8.44,8.44,0,0,0-.8-4.9c-.86-1.44-2.84-2.33-4.29-1.48-1.12.65-1.54,2-1.88,3.25"/>
                    <path class="cls-5" d="M180,402a35.45,35.45,0,0,0,.63,11.85c.54,2.09,2.46,3,4.58,3.38s3.81.33,5.5-1a18.94,18.94,0,0,0-10.27-19.52c-.34,4.58-.1,6.78-3.13,10.5a42.11,42.11,0,0,1-10.35,9.12,49.74,49.74,0,0,0,15.14-8.79,5.62,5.62,0,0,0,1.9-2.38,2.08,2.08,0,0,0-1-2.59"/>
                  </g>
                  <g>
                    <path class="cls-5" d="M152.91,394.45c-1-.58-2,.71-2.3,1.78a23.37,23.37,0,0,0-1,7.14,4.49,4.49,0,0,0,.86,3c1.2,1.31,3.54.85,4.7-.49a8.32,8.32,0,0,0,1.55-5,8.44,8.44,0,0,0-.8-4.9c-.87-1.44-2.84-2.33-4.3-1.48-1.11.65-1.53,2-1.87,3.26"/>
                    <path class="cls-5" d="M150.67,406.94a35.67,35.67,0,0,0,.62,11.84c.55,2.09,2.47,3,4.59,3.38s3.81.33,5.49-1a18.92,18.92,0,0,0-10.26-19.52c-.34,4.58-.1,6.79-3.13,10.5a41.71,41.71,0,0,1-10.35,9.12,49.65,49.65,0,0,0,15.14-8.79,5.46,5.46,0,0,0,1.89-2.38,2.06,2.06,0,0,0-1-2.59"/>
                  </g>
                </g>
              </g>
              <path class="cls-8" d="M380.23,290.47c-4.31,2.2-11.27,3.45-15.32.1-.55.17-1.11.34-1.67.49a75.27,75.27,0,0,1-16.13,2.25,18.56,18.56,0,0,0-2.52,2.72,27.61,27.61,0,0,0-2.68,4.46c-.51,1-.87,2.15-1.3,3.21s-.83,2-1.27,3a106.88,106.88,0,0,1-6.2,11.92c-1.71,2.85-3.42,5.68-4.93,8.65-2.7,5.3-5.06,10.78-8,16-.83,1.48-1.73,2.93-2.69,4.33l3.09,1.53C289.87,395.26,226,413.57,174,420.65a8.84,8.84,0,0,1-.9.68c-3.09,2-7,2.54-10.51,3.27a91.13,91.13,0,0,0-14.16,4.34c-9.74,3.72-19.16,8.76-29.56,10.41a56.86,56.86,0,0,1-26.66-2.16,62.67,62.67,0,0,1-23.08-13.81A64.87,64.87,0,0,1,52.56,399c-3.45-9.12-4.6-18.9-4.59-28.6,0-5,.31-10,.74-15,.21-2.49.46-5,.72-7.45.29-2.81.33-5.63.54-8.44a69.45,69.45,0,0,1,1-7.74,39.4,39.4,0,0,0,1-6.28,6.78,6.78,0,0,0-1.43-4.38,2.71,2.71,0,0,0-1.8-1.18c-1.69-.16-3.19,1.69-4.12,2.87a39.55,39.55,0,0,0-4.1,6.85v0l.48-.12c.57,11.49-8.62,26.43-14.94,47.68s5.75,54,20.11,73.52a22.4,22.4,0,0,0,2.34,2.66c31.07,10.31,166.31,46.89,275-54.21,10-23.06,12.74-41.5,12.74-41.5l23.55-6.89,2.72-26.65,19.71-5.7S385,306.43,386.65,292a26.24,26.24,0,0,0-.23-9.08A12.81,12.81,0,0,1,380.23,290.47Z"/>
              <path class="cls-7" d="M384.21,275.86a5.89,5.89,0,0,0-2.51-.75c-6,2.68-5.44,11-5.44,11l-27.45-11.87c-.34-10.74-6-11.7-6-11.7-5,2.74-4.7,11-4.7,11l.33,6.71-7,2-.48-6.26c-1.57-.57-3.16-1.11-4.74-1.67l-8.88,1.56v7.72l-7.38,1.67-.79-5.55c-1.12-.25-2.23-.54-3.32-.86l-11.67,2.39,1.18,10.56L323.56,311l16-7.28c1-.35,16.85-4.16,16.85-4.16v6.08l4-.71v-7.28l10.4-2.26V303l4.52-1.21v-8.13h5.89S390.75,284,384.21,275.86Z"/>
              <g>
                <path class="cls-6" d="M360.38,305v-7.28l5.47-1.19-22.47-8s-27.85,7.32-38.2,10.08L323.56,311l16-7.28c1-.35,16.85-4.16,16.85-4.16v6.08Z"/>
                <path class="cls-6" d="M375.3,299.86l-4.52-1.61V303l4.52-1.21Z"/>
              </g>
              <polygon class="cls-12" points="60.38 297.68 71.02 308.95 60.38 313.65 60.38 297.68"/>
              <polygon class="cls-12" points="59.44 323.22 65.7 327.74 53.17 338.7 56.62 321.48 59.44 323.22"/>
              <polygon class="cls-12" points="53.17 343.08 60.38 345.9 50.67 359.36 49.43 348 53.17 343.08"/>
              <path class="cls-12" d="M51.3,367.05l9.08,4.21S56,382.84,54.9,381.9s-3.6-7.4-3.6-7.4Z"/>
              <path class="cls-9" d="M173.49,443.79q-6.77.78-14,1.38.07-4.21.18-8.41c3.28-.41,8.13-1.07,14.07-2C173.58,437.76,173.51,440.77,173.49,443.79Zm42-17.67c-4.25,1.1-8.44,2.11-12.52,3,0,3.39-.08,6.79-.09,10.18,4.42-.85,8.63-1.76,12.65-2.7C215.5,433.13,215.48,429.63,215.48,426.12Zm34.8-11.21c-3.79,1.52-7.67,3-11.58,4.3v10.94c4.15-1.36,8-2.76,11.54-4.15C250.16,422.3,250.16,418.61,250.28,414.91Zm33.4-18.56a94.53,94.53,0,0,1-9.65,6.82q-.12,5.88-.55,11.75a99,99,0,0,0,10-6.58Q283.61,402.34,283.68,396.35Z"/>
              <polyline class="cls-13" points="27.2 410.36 30.94 410.36 38.55 418.16 46.09 416.77 49.43 418.16"/>
              <polyline class="cls-13" points="24.54 394.3 27.2 392.19 33.94 399.26 40.01 396.35"/>
              <polyline class="cls-13" points="38.32 376.62 32.27 378.35 27.2 374.5"/>
              <polyline class="cls-13" points="33.94 359.36 36.48 361.04 41.67 360.2"/>
              <polyline class="cls-13" points="55.84 439.95 51.3 442.74 44.44 439.33 39.26 439.95"/>
              <polygon class="cls-9" points="356.72 345.62 343.34 349.02 343.53 346.99 344.65 335.12 358.09 331.16 356.72 345.62"/>
              <polygon class="cls-12" points="355.62 344.83 343.34 348.24 344.65 334.91 356.93 331.51 355.62 344.83"/>
              <line class="cls-14" x1="350.79" y1="333.21" x2="349.43" y2="347.05"/>
              <line class="cls-14" x1="344.01" y1="341.48" x2="356.61" y2="338.87"/>
              <path class="cls-7" d="M332.81,297.68l-3.34,8-19.42-8-1.21-9.4-14.69-6.48,2.63,23.63,10.4,6c-.33,5.7-7.05,17.12-8.39,18.8-.64.8-3.28,1.37-5.85,1.75-23.62-.62-162.61-1.89-239.76,49.93v3.43C130.51,333.44,270,334.83,293.1,335.45l27.51,13.61C289.87,395.26,226,413.57,174,420.65c-.28.24-7,2.92-7.35,3.13,0,0,12.21,2.64,74.41-15s86.94-61.37,88.76-68S334,325.9,334,325.9l8.07,3.63,3.78-27.23Z"/>
              <path class="cls-15" d="M152.27,451c1.1,2.69,3.93,4.37,6.81,4.78a18.7,18.7,0,0,0,8.54-1.2c9-3,17.69-9.81,19-19.21a18.57,18.57,0,0,0-4.39-14.39,17,17,0,0,0-1.25-1.3,463.76,463.76,0,0,1-86.59,4.95s-16.78-8-34.24-38.27,1.68-68.14,2.69-71.83,0-25.85,0-25.85l-6-5,.67,15.44-4.37-3.69-3.35-17.12-5.71,2,4,14.1c-5.37.33-18.8,5.7-22.16,7.38s-3.35,7-4.36,12.42S3.39,325.9,1,327.24,1,336,1,336c9.62,1.28,37.31-5.67,39.81-6.31,2.74-1.06,5.54-2.12,8.11-3.22.82,7.09-1.23,14.14-2.64,21.13A120.79,120.79,0,0,0,44,376.78c.82,18.69,7.12,38.39,21.36,50.52a6.11,6.11,0,0,0-2.19,5.21,11.74,11.74,0,0,0,2,5.47c4.28,6.86,12.43,10.75,20,13.48a61.33,61.33,0,0,0,49-3.6c11.22-6,20.56-16.55,32.65-20.54,3.84-1.27,8.58-1.3,11.36,1.64,3,3.18,2.33,8.44.17,12.25a25.09,25.09,0,0,1-12.7,10.46c-3.42,1.37-7.83,1.95-10.38-.71a5.65,5.65,0,0,1-.24-7.29C152.31,444.68,151.16,448.28,152.27,451Z"/>
              <path class="cls-9" d="M45.94,308.94c-5.73,2.69-10.47,6.67-12,12.81,1.58-1.19,3.18-1.37,4.94-1.75a11,11,0,0,0,4.58-2,6.64,6.64,0,0,0,2.38-4.49A14.37,14.37,0,0,0,45.94,308.94Z"/>
              <path class="cls-8" d="M318.88,345.09l-12.66-6.39V324.2c0-4.78,4.11-8.47,7.52-6.75h0c3.16,1.6,5.14,5.37,5.14,9.81Z"/>
              <path class="cls-6" d="M313.74,317.45a4,4,0,0,0-2.05-.42,7.78,7.78,0,0,0-2.89,6.15v14.49l10.08,5.1V327.26C318.88,322.82,316.9,319.05,313.74,317.45Z"/>
              <path class="cls-16" d="M318.79,332.28A1,1,0,0,0,318,332c-.71.08-1.22,1-1.14,2s.72,1.77,1.42,1.68a.75.75,0,0,0,.29-.09C318.6,334.47,318.66,333.37,318.79,332.28Z"/>
              <ellipse class="cls-17" cx="316.85" cy="332.68" rx="1.28" ry="1.84" transform="translate(-12.6 12.48) rotate(-2.21)"/>
              <path class="cls-6" d="M208.37,427.92c-1.32.24-2.64.49-4,.76L239.55,497a6.2,6.2,0,0,0,4-.62Z"/>
              <path class="cls-6" d="M168.2,435.59c-1.28.23-2.36.36-3.64.52l17.18,67a5.28,5.28,0,0,0,2.06.08,6.36,6.36,0,0,0,1.81-.57Z"/>
              <path class="cls-6" d="M95,370.3v0a1.81,1.81,0,0,0-2.5-1l-12.59,6.17c.29,1.23.59,2.47.89,3.7l13.31-6.58A1.81,1.81,0,0,0,95,370.3Z"/>
              <path class="cls-6" d="M116.76,364.62v-.05a1.8,1.8,0,0,0-2.21-1.54l-9.1,2.09c.28,1.2.41,2.53.66,3.73l9.28-2.27A1.8,1.8,0,0,0,116.76,364.62Z"/>
              <path class="cls-6" d="M150.43,354.5v0a1.82,1.82,0,0,0-2.21-1.55l-9.4,2.22.6,3.65,9.64-2.31A1.8,1.8,0,0,0,150.43,354.5Z"/>
              <path class="cls-6" d="M277.59,400.86c-1.12.67-2.26,1.3-3.41,1.91l46.45,61.69a5.72,5.72,0,0,0,4.22-.83Z"/>
              <path class="cls-6" d="M241.12,418.35c-.85.32-1.7.62-2.55.92-.07.67.16,1.77.12,2.44l43.24,65.89a9.05,9.05,0,0,0,4.79.25Z"/>
            </g>
            <path class="cls-15" d="M181.31,40.61V4c43.75,18.13,87.49-7.67,131.24,10.47C268.8,8.54,225.06,46.54,181.31,40.61Z"/>
            <g>
              <g>
                <path class="cls-5" d="M105.62,358c-1-.57-2,.71-2.3,1.78a23.07,23.07,0,0,0-1,7.14,4.44,4.44,0,0,0,.86,3c1.2,1.31,3.53.85,4.7-.49a8.31,8.31,0,0,0,1.55-5,8.47,8.47,0,0,0-.8-4.91c-.87-1.44-2.85-2.33-4.3-1.48-1.11.65-1.54,2-1.87,3.26"/>
                <path class="cls-5" d="M103.38,370.52a35.67,35.67,0,0,0,.62,11.84c.55,2.1,2.46,3,4.59,3.38s3.81.33,5.49-1a19,19,0,0,0-10.27-19.53c-.34,4.58-.1,6.79-3.12,10.51a42,42,0,0,1-10.36,9.12,49.81,49.81,0,0,0,15.15-8.8,5.54,5.54,0,0,0,1.89-2.38,2.08,2.08,0,0,0-1-2.59"/>
              </g>
              <g>
                <path class="cls-5" d="M91.55,354.22c-1-.57-2,.71-2.3,1.78a23.07,23.07,0,0,0-1,7.14,4.44,4.44,0,0,0,.86,3c1.2,1.31,3.53.85,4.7-.49a8.32,8.32,0,0,0,1.55-5,8.45,8.45,0,0,0-.8-4.9c-.87-1.44-2.85-2.33-4.3-1.48-1.11.65-1.54,2-1.87,3.26"/>
                <path class="cls-5" d="M89.31,366.71a35.67,35.67,0,0,0,.62,11.84c.55,2.1,2.47,3,4.59,3.38s3.81.33,5.49-1a19,19,0,0,0-10.26-19.52c-.35,4.58-.11,6.79-3.13,10.51A42,42,0,0,1,76.26,381a49.81,49.81,0,0,0,15.15-8.8,5.54,5.54,0,0,0,1.89-2.38,2.08,2.08,0,0,0-1-2.59"/>
              </g>
              <path class="cls-5" d="M81.56,393.46l8.84-1.88c-.31-2.27,1-4.49,2.7-6,1.89-1.69,4.44-2.62,6.2-4.35-2.59-4.33-8.21-3.23-12-1.36C81.48,382.78,80.86,387.34,81.56,393.46Z"/>
              <path class="cls-5" d="M108.68,388c1.81-1.4,4-2.31,5.62-3.87-2.59-4.33-8.21-3.24-12-1.36s-5.4,4.51-5.86,7.79A65.71,65.71,0,0,0,108.68,388Z"/>
              <g>
                <path class="cls-5" d="M137.45,351.08c-1-.58-2,.71-2.3,1.78a23.37,23.37,0,0,0-1,7.14,4.49,4.49,0,0,0,.86,3c1.2,1.31,3.54.85,4.7-.49a8.32,8.32,0,0,0,1.55-5,8.44,8.44,0,0,0-.8-4.9c-.87-1.44-2.85-2.33-4.3-1.48-1.11.65-1.53,2-1.87,3.26"/>
                <path class="cls-5" d="M135.21,363.57a35.67,35.67,0,0,0,.62,11.84c.55,2.09,2.47,3,4.59,3.38s3.81.33,5.49-1a18.92,18.92,0,0,0-10.26-19.52c-.34,4.58-.1,6.79-3.13,10.5a41.71,41.71,0,0,1-10.35,9.12,49.65,49.65,0,0,0,15.14-8.79,5.54,5.54,0,0,0,1.89-2.38,2.06,2.06,0,0,0-1-2.59"/>
              </g>
              <g>
                <path class="cls-5" d="M123.38,347.27c-1-.58-2,.71-2.29,1.78a22.78,22.78,0,0,0-1,7.14,4.43,4.43,0,0,0,.85,3c1.2,1.31,3.54.85,4.7-.49a8.32,8.32,0,0,0,1.55-5,8.44,8.44,0,0,0-.8-4.9c-.87-1.44-2.84-2.33-4.3-1.48-1.11.65-1.53,2-1.87,3.26"/>
                <path class="cls-5" d="M121.14,359.76a35.67,35.67,0,0,0,.62,11.84c.55,2.09,2.47,3,4.59,3.38s3.81.33,5.49-1a18.92,18.92,0,0,0-10.26-19.52c-.34,4.58-.1,6.79-3.13,10.5a41.71,41.71,0,0,1-10.35,9.12,49.65,49.65,0,0,0,15.14-8.79,5.46,5.46,0,0,0,1.89-2.38,2.06,2.06,0,0,0-1-2.59"/>
              </g>
              <path class="cls-5" d="M113.39,386.51l8.84-1.88c-.31-2.27,1-4.49,2.71-6,1.88-1.7,4.44-2.62,6.2-4.35-2.6-4.33-8.22-3.23-12-1.36C113.32,375.83,112.69,380.39,113.39,386.51Z"/>
              <path class="cls-5" d="M140.52,381.06c1.8-1.4,4-2.31,5.62-3.88-2.59-4.32-8.22-3.23-12-1.35s-5.41,4.51-5.86,7.79A66.05,66.05,0,0,0,140.52,381.06Z"/>
              <g>
                <path class="cls-5" d="M175.51,343.39c-1-.57-2,.71-2.3,1.79a22.69,22.69,0,0,0-1,7.14,4.4,4.4,0,0,0,.86,3c1.2,1.31,3.53.85,4.69-.5a8.16,8.16,0,0,0,1.55-5,8.35,8.35,0,0,0-.79-4.9c-.87-1.44-2.85-2.33-4.3-1.48-1.11.65-1.54,2-1.88,3.25"/>
                <path class="cls-5" d="M173.26,355.88a35.47,35.47,0,0,0,.63,11.85c.55,2.09,2.46,3,4.58,3.38s3.82.33,5.5-1a18.94,18.94,0,0,0-10.27-19.52c-.34,4.58-.1,6.78-3.13,10.5a41.75,41.75,0,0,1-10.35,9.12,49.94,49.94,0,0,0,15.14-8.79,5.57,5.57,0,0,0,1.9-2.39,2.07,2.07,0,0,0-1-2.58"/>
              </g>
              <g>
                <path class="cls-5" d="M161.44,339.58c-1-.57-2,.71-2.3,1.79a22.69,22.69,0,0,0-1,7.14,4.4,4.4,0,0,0,.86,3c1.2,1.31,3.53.85,4.69-.5a8.16,8.16,0,0,0,1.55-5,8.35,8.35,0,0,0-.79-4.9c-.87-1.44-2.85-2.33-4.3-1.48-1.11.64-1.54,2-1.87,3.25"/>
                <path class="cls-5" d="M159.19,352.07a35.73,35.73,0,0,0,.63,11.85c.55,2.09,2.46,3,4.58,3.38s3.82.33,5.5-1a18.93,18.93,0,0,0-10.27-19.52c-.34,4.58-.1,6.78-3.13,10.5a41.75,41.75,0,0,1-10.35,9.12,49.82,49.82,0,0,0,15.14-8.79,5.57,5.57,0,0,0,1.9-2.39,2.07,2.07,0,0,0-1-2.58"/>
              </g>
              <path class="cls-5" d="M151.45,378.82l8.83-1.87c-.3-2.28,1-4.5,2.71-6,1.89-1.69,4.44-2.61,6.2-4.35-2.59-4.32-8.22-3.23-12-1.36C151.37,368.14,150.75,372.71,151.45,378.82Z"/>
              <path class="cls-5" d="M178.57,373.38c1.81-1.41,4-2.31,5.62-3.88-2.59-4.33-8.21-3.23-12-1.36s-5.41,4.52-5.86,7.79A65.69,65.69,0,0,0,178.57,373.38Z"/>
              <g>
                <path class="cls-5" d="M204.05,336.07c-1-.57-2,.72-2.3,1.79a22.69,22.69,0,0,0-1,7.14,4.39,4.39,0,0,0,.86,3c1.2,1.31,3.53.85,4.69-.5a8.14,8.14,0,0,0,1.55-5,8.35,8.35,0,0,0-.79-4.9c-.87-1.44-2.85-2.33-4.3-1.48-1.11.65-1.54,2-1.87,3.25"/>
                <path class="cls-5" d="M201.8,348.57a35.67,35.67,0,0,0,.63,11.84c.55,2.09,2.46,3,4.58,3.38s3.82.33,5.5-1a18.94,18.94,0,0,0-10.27-19.52c-.34,4.58-.1,6.79-3.13,10.5a41.75,41.75,0,0,1-10.35,9.12,49.79,49.79,0,0,0,15.15-8.79,5.59,5.59,0,0,0,1.89-2.38,2.08,2.08,0,0,0-1-2.59"/>
              </g>
              <g>
                <path class="cls-5" d="M190,332.26c-1-.57-2,.72-2.3,1.79a22.69,22.69,0,0,0-1,7.14,4.44,4.44,0,0,0,.86,3c1.2,1.31,3.53.85,4.69-.5a8.14,8.14,0,0,0,1.55-5,8.35,8.35,0,0,0-.79-4.9c-.87-1.44-2.85-2.33-4.3-1.48-1.11.65-1.54,2-1.87,3.25"/>
                <path class="cls-5" d="M187.73,344.76a35.67,35.67,0,0,0,.63,11.84c.55,2.09,2.46,3,4.58,3.38s3.82.33,5.5-1a18.94,18.94,0,0,0-10.27-19.52c-.34,4.58-.1,6.79-3.13,10.5a41.75,41.75,0,0,1-10.35,9.12,49.79,49.79,0,0,0,15.15-8.79,5.59,5.59,0,0,0,1.89-2.38,2.08,2.08,0,0,0-1-2.59"/>
              </g>
              <path class="cls-5" d="M180,371.5l8.83-1.87c-.3-2.27,1-4.49,2.71-6,1.89-1.7,4.44-2.62,6.2-4.35-2.59-4.33-8.22-3.24-12-1.36C179.91,360.82,179.29,365.39,180,371.5Z"/>
              <path class="cls-5" d="M207.11,366.06c1.81-1.4,4-2.31,5.62-3.88-2.59-4.32-8.21-3.23-12-1.36s-5.41,4.52-5.86,7.8A65.71,65.71,0,0,0,207.11,366.06Z"/>
            </g>
            <g>
              <path class="cls-9" d="M272.39,346.84l-2.93-1.66a24.27,24.27,0,0,0-2.22-8.08l2.08-1.48c.43-.31.43-1.21,0-2s-1.14-1.19-1.57-.89l-2.08,1.49a20.36,20.36,0,0,0-5.35-5.85v-3.75a2.57,2.57,0,0,0-1.11-2.05c-.62-.34-1.12,0-1.12.79v3.75a6.49,6.49,0,0,0-5.35-.18l-2.08-3.82c-.43-.8-1.13-1.2-1.57-.89s-.43,1.21,0,2l2.08,3.82a9.06,9.06,0,0,0-2.22,5.58L246,332c-.62-.35-1.11,0-1.11.79a2.54,2.54,0,0,0,1.11,2.05l2.93,1.65a24.39,24.39,0,0,0,2.22,8.09L249.09,346c-.43.31-.43,1.21,0,2a2.15,2.15,0,0,0,.79.86.7.7,0,0,0,.78,0l2.08-1.48a20.49,20.49,0,0,0,5.35,5.85V357a2.53,2.53,0,0,0,1.12,2c.61.35,1.11,0,1.11-.79v-3.75a6.45,6.45,0,0,0,5.35.18l2.08,3.83a2.13,2.13,0,0,0,.78.86.71.71,0,0,0,.79,0c.43-.31.43-1.2,0-2l-2.08-3.83a9,9,0,0,0,2.22-5.58l2.93,1.66c.62.34,1.11,0,1.11-.8A2.52,2.52,0,0,0,272.39,346.84Zm-5.17-2.92-5.33-3,3.77-2.69A19,19,0,0,1,267.22,343.92Zm-3.14-8.58L260.32,338v-6.81A15.83,15.83,0,0,1,264.08,335.34Zm-6-5.38v6.81l-3.76-6.94A5.08,5.08,0,0,1,258.09,330Zm-5.34,1,3.77,6.93-5.33-3A7,7,0,0,1,252.75,331Zm-1.56,6.76,5.33,3-3.77,2.69A19.08,19.08,0,0,1,251.19,337.72Zm3.14,8.59,3.76-2.69v6.81A15.94,15.94,0,0,1,254.33,346.31Zm6,5.37v-6.81l3.76,6.94A5,5,0,0,1,260.32,351.68Zm5.34-1-3.77-6.94,5.33,3A7.07,7.07,0,0,1,265.66,350.69Z"/>
              <polygon class="cls-7" points="248.31 361.4 258.95 368.03 261.43 366.5 259.51 341.13 255.72 338.45 253.52 339.25 248.31 361.4"/>
              <ellipse class="cls-9" cx="255.23" cy="342.73" rx="1.29" ry="2.01"/>
            </g>
            <g>
              <line class="cls-18" x1="228.06" y1="408.94" x2="182.27" y2="48.39"/>
              <line class="cls-18" x1="181.31" y1="45.32" x2="122.58" y2="353.24"/>
              <path class="cls-7" d="M162.32,382.81,176.68,47a4,4,0,0,1,4-3.81h0a4,4,0,0,1,4,4L186.74,384C181.33,390.4,164.69,389.33,162.32,382.81Z"/>
              <g>
                <path class="cls-19" d="M186.79,372.76a27,27,0,0,1-13.62,3.65c-4.9-.16-9.88-2.47-11.23-6.05"/>
                <path class="cls-20" d="M186.74,370.39a25.92,25.92,0,0,1-13.31,3.66c-4.79-.17-9.66-2.48-11-6.06"/>
                <path class="cls-21" d="M186.74,367.6a25.82,25.82,0,0,1-13.31,3.65c-4.79-.16-9.66-2.47-11-6.05"/>
                <path class="cls-22" d="M186.74,365.24a25,25,0,0,1-13,3.65c-4.69-.16-9.44-2.48-10.73-6.06"/>
                <path class="cls-23" d="M186.79,361.57c-3.81,2.55-8.35,4.47-13,4.28s-9.46-2.91-10.75-7.1"/>
                <path class="cls-24" d="M186.79,358.94a23.88,23.88,0,0,1-13,3.88c-4.69-.17-9.45-2.64-10.73-6.44"/>
                <path class="cls-25" d="M186.79,356.21c-3.77,2.37-8.26,4.15-12.91,4s-9.36-2.7-10.64-6.6"/>
                <path class="cls-26" d="M186.79,353.62a24.55,24.55,0,0,1-12.91,3.65c-4.65-.16-9.36-2.47-10.64-6"/>
                <path class="cls-26" d="M186.79,340.13a24.55,24.55,0,0,1-12.91,3.65c-4.65-.16-9.36-2.48-10.64-6"/>
              </g>
              <path class="cls-27" d="M176,63.13c-.33.58.2,1.27.8,1.55a8.08,8.08,0,0,0,8-.65"/>
              <path class="cls-28" d="M175.68,66c-.12,1,.89,1.69,1.83,2.07a10.79,10.79,0,0,0,3.89.78c1.33,0,2.88-.36,3.36-1.52"/>
              <path class="cls-27" d="M175.71,70.66a4.13,4.13,0,0,0,2.68,2.8,8.43,8.43,0,0,0,2.66.56c1.15,0,3.21-.54,3.66-1.6"/>
              <path class="cls-27" d="M175.36,75.57a3.67,3.67,0,0,0,2,3.64,6.07,6.07,0,0,0,6.64-.44,1.81,1.81,0,0,0,.78-1.33"/>
              <line class="cls-27" x1="184.78" y1="66.04" x2="271.34" y2="160.86"/>
              <line class="cls-27" x1="175.31" y1="65.29" x2="101.36" y2="68.89"/>
              <path class="cls-8" d="M280.33,168.64a1.91,1.91,0,0,1-.92-.24L88.26,64.83a1.93,1.93,0,1,1,1.84-3.4L281.25,165a1.94,1.94,0,0,1-.92,3.64Z"/>
              <g>
                <ellipse class="cls-9" cx="163.37" cy="341.16" rx="6.53" ry="9.8"/>
                <ellipse class="cls-6" cx="164.96" cy="342.69" rx="5.65" ry="8.27"/>
                <ellipse class="cls-9" cx="167.21" cy="342.77" rx="6.53" ry="9.8"/>
                <ellipse class="cls-17" cx="168.4" cy="343.92" rx="2.91" ry="4.37"/>
              </g>
              <g>
                <ellipse class="cls-9" cx="165.71" cy="225.46" rx="8.36" ry="5.6" transform="translate(-85.39 348.9) rotate(-79.87)"/>
                <ellipse class="cls-6" cx="166.96" cy="226.75" rx="7.06" ry="4.84" transform="translate(-86.58 349.26) rotate(-79.43)"/>
                <ellipse class="cls-9" cx="168.9" cy="226.82" rx="8.36" ry="5.6" transform="translate(-84.1 353.17) rotate(-79.87)"/>
                <ellipse class="cls-17" cx="169.83" cy="227.79" rx="3.73" ry="2.5" transform="translate(-84.29 354.89) rotate(-79.87)"/>
              </g>
              <line class="cls-29" x1="162.32" y1="225.46" x2="160.31" y2="339.56"/>
              <line class="cls-30" x1="162.32" y1="225.46" x2="167.45" y2="207.76"/>
              <line class="cls-27" x1="167.56" y1="206.73" x2="114.08" y2="113.16"/>
              <path class="cls-27" d="M96.06,64.21a3.89,3.89,0,0,0-1.48,4.44"/>
              <path class="cls-27" d="M94.46,63a2.75,2.75,0,0,0-2.12,2.45A7.1,7.1,0,0,0,93,68.84"/>
              <path class="cls-27" d="M275,160.77a2.57,2.57,0,0,0-2.16,2.08A7.61,7.61,0,0,0,273,166"/>
              <path class="cls-27" d="M272.86,159.83a.67.67,0,0,0-1,0,1.62,1.62,0,0,0-.32,1,6.79,6.79,0,0,0,.62,3.14"/>
              <path class="cls-27" d="M270.93,158.76a2.2,2.2,0,0,0-1.84,2.66"/>
              <circle class="cls-9" cx="169.21" cy="208.73" r="2.6"/>
              <line class="cls-27" x1="171.26" y1="207.15" x2="234.18" y2="186.58"/>
            </g>
            <polygon class="cls-6" points="368.68 294.55 358.54 296.97 359.03 304.02 360.38 304.96 360.86 298.25 370.79 295.42 368.68 294.55"/>
            <polygon class="cls-6" points="373.41 292.84 373.41 300.64 375.3 301.82 375.3 293.69 383.26 292.92 380.17 291.78 373.41 292.84"/>
            <g>
              <path class="cls-6" d="M305.5,278.8l-12.27,2.52,9.06,4.15,3.93-1.64L301,281.27l7.46-1.7C307.44,279.34,306.47,279.08,305.5,278.8Z"/>
              <path class="cls-6" d="M326.21,274.36l-11.32,2.1.41,6.22L309.69,284l.18,1.24,7.38-1.67v-5.18l13.84-2.35C329.47,275.49,327.84,274.93,326.21,274.36Z"/>
            </g>
            <ellipse class="cls-6" cx="341.84" cy="265.74" rx="2.16" ry="1.16" transform="translate(-23.79 497.67) rotate(-70.25)"/>
            <ellipse class="cls-6" cx="380.57" cy="278.8" rx="2.16" ry="1.16" transform="translate(-10.43 542.77) rotate(-70.25)"/>
            <path class="cls-16" d="M58.8,375.19c.89-2.13,1.58-3.93,1.58-3.93l-.2-.1-4.81,4.11c.49,1.63,1.05,3.24,1.7,4.83a3.6,3.6,0,0,1,0-.66l-.16.11,0-.06.23-.45A8.38,8.38,0,0,1,58.8,375.19Z"/>
            <path class="cls-16" d="M52.83,357.37c0-.34,0-.67,0-1l7.56-10.47-.52-.21L53,347.93S52.67,351.92,52.83,357.37Z"/>
            <path class="cls-16" d="M160.05,225.46c-.44,4.57,1.73,8.29,4.85,8.29l.21,0a4,4,0,0,0,3,1.38,4.91,4.91,0,0,0,.55,0l-.25,5.91a9.09,9.09,0,0,0,2.76-3,.42.42,0,0,0,.27-.24,27.94,27.94,0,0,0,1.22-3.28c0-.08.05-.15.07-.23a37.86,37.86,0,0,0,1.07-4.78c.44-2.91.75-6.48-.85-9.13a5,5,0,0,0-3.56-2.35l0,.47a4,4,0,0,0-2.84-1.23C163.39,217.17,160.5,220.88,160.05,225.46Z"/>
            <path class="cls-16" d="M173.31,125.85v0q2.87,1.47,5.78,2.86Z"/>
            <path class="cls-16" d="M180.28,109.8l4.76,2.67-.29-45.1h0l0-3.31.05,0h-.05l-.1-16.92a4,4,0,0,0-4-4,3.89,3.89,0,0,0-1.14.19c1.09,1.21,1.8,2,1.8,2Z"/>
            <path class="cls-16" d="M169.48,211.3l.21-5.11a1.91,1.91,0,0,0-.48-.06,2.6,2.6,0,1,0,0,5.2Z"/>
            <path class="cls-16" d="M88.26,64.83l4.17,2.26c0,.23.11.45.18.67l.58.21.11-.41.69.38-.09.28a59.66,59.66,0,0,1,13.6,7l63.11,34.19-.1-2.06L87.36,62.48A1.94,1.94,0,0,0,88.26,64.83Z"/>
            <path class="cls-16" d="M57.59,381.35a84.4,84.4,0,0,0,11.18,18.29l93.55-22.7a17.42,17.42,0,0,0,.24,4.45l.85-20.94A9,9,0,0,0,167,359a13.67,13.67,0,0,0,5.49-8.5,15.93,15.93,0,0,0,.3-3.15,22.08,22.08,0,0,0,.25-5.56,13.68,13.68,0,0,0-2.17-6.58.53.53,0,0,0-.11-.21l-.19-.2c-.19-.24-.38-.47-.58-.68a8.88,8.88,0,0,0-1.26-1,16,16,0,0,0-4.07-2.41l1.4-34.26-1.5,35.15a4.49,4.49,0,0,0-1.15-.16c-3.61,0-6.53,4.39-6.53,9.8,0,.1,0,.2,0,.31.21,1.91.42,3.82.67,5.55A307.7,307.7,0,0,0,58,381.82,3.08,3.08,0,0,1,57.59,381.35Z"/>
            <path class="cls-31" d="M386.46,283.08a9.89,9.89,0,0,0-1.4-6q0,.5,0,1a20.74,20.74,0,0,1-1.95,7.73c-.71,1.4-2,2.81-3.52,2.68a3,3,0,0,1-2.36-1.94,6.27,6.27,0,0,1-.27-3.16,15.11,15.11,0,0,1,2.3-6.36,1.17,1.17,0,0,1,.06-.2c-3.43,3.46-3,9.28-3,9.28l-27.45-11.87c-.23-7.23-2.89-10-4.6-11.08a8.23,8.23,0,0,1,.19,2A20.72,20.72,0,0,1,343,273c-.61,1.45-1.74,2.95-3.31,2.93a2.62,2.62,0,0,1-1.57-.6l.25,5-7,2-.47-6.2-13.63,2.37v5.18l-7.38,1.67-.78-5.42L301,281.27l5.25,2.56-3.93,1.64-8.13-3.61,1.11,10,1.51,13.61,10.4,6a14.3,14.3,0,0,1-.55,2.93l1.73,1.28,1.61,1.23a8.78,8.78,0,0,0-2.17,2.71c-2,3.75-2.26,8.35-2.24,12.51,0,2.12.14,4.24.36,6.34,0,.28.29.61.62.48,3-1.21,3.36-4.74,3.45-7.56.06-1.74,0-3.49.1-5.22a10.44,10.44,0,0,1,.93-4.38,3.84,3.84,0,0,1,2.76-1.94l3.27,2.56c5.12,4,10.17,8.15,15,12.56-16.77,56.77-93.45,74.54-93.45,74.54l-2.4-.63-1.53.34L209.2,396.35l12.38-2.71L244,405a126.21,126.21,0,0,0,16.24-7.09l-19.67-10.61,11.22-3.3s11.28,5.94,17.29,9c3-1.75,4.77-2.92,4.77-2.92l-28-14.39L217.07,384l-28.46-13.6,34.38-8.3-12.65-7h3.8l36.3-4.35c-.38,1.8-.74,3.61-1.11,5.41a17.48,17.48,0,0,0-.64,3.6l2.67-11.34-.7.5a.7.7,0,0,1-.78,0,2.15,2.15,0,0,1-.79-.86c-.43-.79-.43-1.69,0-2l2.08-1.48a24.21,24.21,0,0,1-2.17-7.73,8.86,8.86,0,0,1-3.85.41,240.29,240.29,0,0,0-57.92,5,27.79,27.79,0,0,0,0-4.08l-.73.1-1.1-174.15c.27-.12.53-.27.8-.4,0-.08-.11-.15-.16-.22a46.44,46.44,0,0,1-4.72,1.89,35.37,35.37,0,0,1-9.75,2l-.43,10.22,8,4.51L178.65,388a22.93,22.93,0,0,1-8.61,1l9.94,4.66L87.6,419.14c4,3.47,6.76,5.45,6.76,5.45,21.79,1.39,47.16-.55,68.94-3.2-4.28-1.89-14.83-8.57-14.83-8.57s10.75-3.35,12.21-3.31L180,419.15c6.61-1,12.57-1.95,17.6-2.81l-20.47-10.7,13.55-2.32,20.58,10.51,3-.6c2.48,1,1.46,1.08,4,1.81a149.38,149.38,0,0,1-32.17,7.49c-32.8,4.37-66.49,9.05-99.58,9.27-10.42-11.75-20.58-24-27.4-38.13S49,363.13,53,347.93l1.43-6.64h0c.3-1.53.61-3,1-4.49l9.83-8.6L57,330.09l2.42-6.87c1.69-4.65,3.11-7.79,3.37-8.73a12.46,12.46,0,0,0,.28-2L71,309l-.18-.19c-2.71-.43-7.59-1.49-7.59-1.49l.12-6.41-.17-.19c-.13-6.19-.39-12-.39-12l-.5-.41a112,112,0,0,1-3.09,12.35,8.58,8.58,0,0,1-1.84-2.84l.06,1.31-4.37-3.69-3.35-17.12-.22.07c0,5.72,0,11.56.11,17.18,3.8,1.82,4.94,6.27,5.91,10.36a27.26,27.26,0,0,0-15.21,3,18.77,18.77,0,0,0-9.38,12,5.29,5.29,0,0,1-.94,2.54,4.37,4.37,0,0,1-1.42.93c-6.79,3.23-14.18,4.22-21.68,3.91a29.05,29.05,0,0,0-5.12,7.7.42.42,0,0,0,0,.12c9.94.88,35.5-5.46,38.91-6.32l.19-.05h0l.21-.05c.21,4.26-.92,9-2.74,14.33a44.33,44.33,0,0,0,3.74,8.74c-6.34,15.21-2.75,32.28,2.3,48s12,31,13.54,47.4c-2.71,2.24-5.3,4.09-7.92,5.88,18.21,5.9,65.73,18.65,122.51,13.12l9.25,36.08a5.28,5.28,0,0,0,2.06.08,6.36,6.36,0,0,0,1.81-.57l-9.34-36a267.35,267.35,0,0,0,43.34-8.45L239.55,497a6.2,6.2,0,0,0,4-.62l-20.19-39.22a249.1,249.1,0,0,0,30.93-11.56l27.59,42.05a9.05,9.05,0,0,0,4.79.25l-28.83-43.94A248.42,248.42,0,0,0,291,425.12l29.62,39.34a5.72,5.72,0,0,0,4.22-.83l-30.64-40.7a261.81,261.81,0,0,0,24.63-19.39h0l21.74-4.29s3.52-16.48,2.67-23.72a38.84,38.84,0,0,1-6-4.29c-1.37-1.26-3-3.16-2.57-5.15l-.1-.05c1.22-5.21,1.68-8.29,1.68-8.29l23.55-6.89,2.72-26.65,19.71-5.7S385,306.43,386.65,292A26.61,26.61,0,0,0,386.46,283.08Zm-340,34.8c-2.83,3.83-7.64,4.11-12,2.12A21.93,21.93,0,0,0,42,317.25c2.24-1.51,3.94-4.13,3.58-6.81C48.09,312,48.17,315.52,46.42,317.88Zm314-19.63-.87-.44a5,5,0,0,0-.4,1.6,26.44,26.44,0,0,1-.4,3.88.5.5,0,0,1-1,0c-.49-1.2-1.15-2.33-1.65-3.53a.28.28,0,0,1,0-.09l-10.21,2.63L333.72,298a1.83,1.83,0,0,0-.7.81c-.65,1.07-1.29,1.77-2.63,1.5a15.82,15.82,0,0,1-4-1.9.5.5,0,0,1,0-.86c6-4.05,13.37-5.47,20.28-7.31,0-.28.12-.57.47-.53,3.5.3,6.66,2.06,9.95,3.15s6.81,1.43,10.23,2l1.34-.32,2.11.87Zm14.9-4.19c-.32-.16-1.87-1.22-1.87-1.22l6.76-1.06,2.61,1.14Z"/>
            <path class="cls-31" d="M180.23,112.64l-.27,16.5c1.72.82,3.46,1.6,5.2,2.37l-.09-14.23L265.68,161c-.95-.2-2-.44-3.2-.71l4.46,1.74c3.38.35,6.6,1.57,8.77,4.39l0,0,3.68,2a1.91,1.91,0,0,0,2.62-.78Z"/>
            <path class="cls-16" d="M269.32,333.61c.05.1.09.2.13.3.29-.65.5-1.32.73-2q-2.9,0-6,.11a24.55,24.55,0,0,1,1.53,2.16l2.08-1.49C268.18,332.42,268.88,332.81,269.32,333.61Z"/>
            <path class="cls-16" d="M258.09,332.22l-2.43.08,2.43,4.47Z"/>
            <path class="cls-16" d="M252.62,343.08l.9-3.83.23-.08-2.56-1.45A18.62,18.62,0,0,0,252.62,343.08Z"/>
            <path class="cls-16" d="M244.91,332.76l-2.78.15c1.12.38,2.22.83,3.3,1.32a2.6,2.6,0,0,1-.52-1.47v0Z"/>
            <path class="cls-16" d="M252.75,331l.78,1.42-1.7.07a8.45,8.45,0,0,0-.64,2.44l5.33,3Z"/>
            <path class="cls-16" d="M260.32,338l3.76-2.68a15.83,15.83,0,0,0-3.76-4.13,13,13,0,0,1,1.08.91l-1.08,0Z"/>
            <path class="cls-16" d="M265.66,338.23l-3.77,2.69,5.33,3A19,19,0,0,0,265.66,338.23Z"/>
            <path class="cls-16" d="M273.31,348l17.31-2.08,23.22,12.23,6-10.51c-6.55-3.77-13.22-7.45-20.39-9.84-9.87-3.3-19.83-3.61-30-2.31a.63.63,0,0,1-.11.12l-2.08,1.48a24.27,24.27,0,0,1,2.22,8.08l2.93,1.66A2.34,2.34,0,0,1,273.31,348Z"/>
            <polygon class="cls-16" points="260.32 349.56 262.71 349.28 260.32 344.87 260.32 349.56"/>
            <path class="cls-16" d="M266.74,348.79a9,9,0,0,0,.48-2l-5.33-3,2.86,5.28Z"/>
            <path class="cls-16" d="M245,332.22l0,0Z"/>
            <path class="cls-16" d="M244.94,332.44s0,0,0,.05S244.94,332.46,244.94,332.44Z"/>
            <path class="cls-16" d="M245.31,331.9a.6.6,0,0,0-.21.18A.6.6,0,0,1,245.31,331.9Z"/>
            <path class="cls-16" d="M262.34,330.05a.94.94,0,0,0-.1-.1A.94.94,0,0,1,262.34,330.05Z"/>
            <path class="cls-16" d="M252.25,331.64a6.17,6.17,0,0,0-.42.81A7.68,7.68,0,0,1,252.25,331.64Z"/>
            <path class="cls-16" d="M261.24,329.06l.21.18Z"/>
            <path class="cls-16" d="M250.43,329l.09-.12Z"/>
            <path class="cls-16" d="M245.58,331.84a.88.88,0,0,1,.44.13A.88.88,0,0,0,245.58,331.84Z"/>
            <path class="cls-16" d="M249.9,329.92l-.06.12Z"/>
            <line class="cls-32" x1="168.77" y1="442.36" x2="184.11" y2="501.37"/>
            <line class="cls-32" x1="210.27" y1="433.81" x2="242.38" y2="494.99"/>
            <line class="cls-32" x1="245.04" y1="426.12" x2="284.4" y2="486.01"/>
            <line class="cls-32" x1="282.92" y1="409.87" x2="322.1" y2="461.95"/>
            <line class="cls-32" x1="93.99" y1="369.7" x2="86.14" y2="373.39"/>
            <line class="cls-32" x1="114.55" y1="363.03" x2="107.71" y2="365.06"/>
            <line class="cls-32" x1="149.72" y1="353.24" x2="142.58" y2="355.1"/>
            <path class="cls-33" d="M168.4,333.84a5.42,5.42,0,0,0-4.73,2.79,9.25,9.25,0,0,0-1,5.58"/>
            <path class="cls-33" d="M170.22,219.43a5.44,5.44,0,0,0-4.74,2.78,9.35,9.35,0,0,0-1,5.58"/>
            <ellipse class="cls-8" cx="313.24" cy="323.91" rx="2.53" ry="4.01"/>
            <path class="cls-12" d="M313.78,320c-1.13.4-2,2-2,3.92s.85,3.52,2,3.91c1.14-.39,2-2,2-3.91S314.92,320.39,313.78,320Z"/>
            <line class="cls-34" x1="181.31" y1="45.32" x2="181.31" y2="1.5"/>
            <g>
              <g>
                <ellipse class="cls-35" cx="188.61" cy="427.92" rx="13.34" ry="11.69" transform="translate(-278.83 414.31) rotate(-64.55)"/>
                <ellipse class="cls-6" cx="188.61" cy="427.92" rx="12.01" ry="10.52" transform="translate(-278.83 414.31) rotate(-64.55)"/>
                <g class="cls-36">
                  <polygon class="cls-15" points="201.7 420.72 188.07 427.52 190.43 411.17 182 413.5 188.72 427.34 173.93 428.41 174.91 435.25 188.87 428.36 186.25 442.93 194.68 440.6 188.22 428.54 202.69 427.56 201.7 420.72"/>
                </g>
                <ellipse class="cls-35" cx="188.61" cy="427.92" rx="3.15" ry="2.76" transform="translate(-278.83 414.31) rotate(-64.55)"/>
              </g>
              <g>
                <ellipse class="cls-35" cx="261.89" cy="406.46" rx="13.34" ry="11.69" transform="translate(-211.68 308.87) rotate(-45.56)"/>
                <ellipse class="cls-6" cx="261.89" cy="406.46" rx="12.01" ry="10.52" transform="translate(-211.68 308.87) rotate(-45.56)"/>
                <g class="cls-37">
                  <polygon class="cls-15" points="274.74 397.61 261.27 406.17 261.78 390.49 253.22 394.03 261.93 405.9 246.56 409.29 248.41 415.53 262.21 406.83 261.22 420.89 269.77 417.34 261.55 407.1 276.6 403.85 274.74 397.61"/>
                </g>
                <ellipse class="cls-35" cx="261.89" cy="406.46" rx="3.15" ry="2.76" transform="translate(-211.68 308.87) rotate(-45.56)"/>
              </g>
              <g>
                <ellipse class="cls-35" cx="224" cy="418.16" rx="13.34" ry="11.69" transform="translate(-249.84 440.7) rotate(-64.55)"/>
                <ellipse class="cls-15" cx="224" cy="418.16" rx="12.01" ry="10.52" transform="translate(-249.84 440.7) rotate(-64.55)"/>
                <g class="cls-38">
                  <polygon class="cls-12" points="218.69 404.6 223.58 418.79 208.69 417.89 209.99 426.86 223.48 418.1 222.95 434.15 229.38 432.37 224.44 417.83 237.66 419.2 236.36 410.23 224.54 418.52 225.12 402.82 218.69 404.6"/>
                </g>
                <ellipse class="cls-35" cx="224" cy="418.16" rx="3.15" ry="2.76" transform="translate(-249.84 440.7) rotate(-64.55)"/>
              </g>
              <g>
                <ellipse class="cls-35" cx="292.3" cy="389.86" rx="13.78" ry="9.29" transform="translate(-171.45 539.43) rotate(-71.02)"/>
                <ellipse class="cls-15" cx="292.3" cy="389.86" rx="12.41" ry="8.36" transform="translate(-171.45 539.43) rotate(-71.02)"/>
                <g class="cls-39">
                  <polygon class="cls-12" points="291.09 375.07 291.84 390.45 280.64 387.2 279.73 396.63 291.91 389.72 288.11 406.17 293.41 405.34 292.7 389.6 302.52 393.07 303.42 383.63 292.63 390.32 296.39 374.24 291.09 375.07"/>
                </g>
                <ellipse class="cls-35" cx="292.3" cy="389.86" rx="3.26" ry="2.19" transform="translate(-171.45 539.43) rotate(-71.02)"/>
              </g>
            </g>
            <g class="cls-40">
              <path class="cls-9" d="M298.44,377.71a6.79,6.79,0,0,0-2.93-.17c-5.4.85-10.35,7.48-11.05,14.82-.47,4.82,1,8.73,3.62,10.62a6.68,6.68,0,0,0,2.94.18c5.4-.85,10.35-7.49,11.05-14.83C302.53,383.51,301.05,379.6,298.44,377.71ZM293,389.16a1.3,1.3,0,0,1-.37.81,1.51,1.51,0,0,1-.26.18l0,0a1.29,1.29,0,0,1-.47.23l-.08,0-.06,0-.34.19a.5.5,0,0,1-.55,0,.52.52,0,0,1-.18-.52,3.58,3.58,0,0,1,.09-.45,1.38,1.38,0,0,1,.18-1,7.11,7.11,0,0,1,.91-.91.5.5,0,0,1,.7,0,.24.24,0,0,1,.06.08.54.54,0,0,1,.37.13.53.53,0,0,1,.12.48C293,388.69,293,388.93,293,389.16Z"/>
              <path class="cls-9" d="M235.88,414.87a11.37,11.37,0,0,0-5-8.13,10.79,10.79,0,0,0-6.72-.24c-6.56,1.81-11.06,8.94-10.05,15.91a11.37,11.37,0,0,0,5,8.14,10.86,10.86,0,0,0,6.72.24C232.38,429,236.88,421.85,235.88,414.87Zm-11.52,3.44-.19.13a1,1,0,0,1-1,.54.5.5,0,0,1-.44-.27h0a.52.52,0,0,1-.23-.3,2.27,2.27,0,0,1,0-1.34,1.62,1.62,0,0,1,.41-.56v0a.13.13,0,0,0,0-.06v-.05a.51.51,0,0,1,.49-.5.45.45,0,0,1,.23.07.42.42,0,0,1,.38,0,.48.48,0,0,1,.31.45v.11a4.43,4.43,0,0,1,.28.68A1.06,1.06,0,0,1,224.36,418.31Z"/>
              <path class="cls-9" d="M200.48,424.63a11.39,11.39,0,0,0-5-8.13,10.79,10.79,0,0,0-6.72-.24c-6.56,1.81-11.06,8.94-10,15.91a11.41,11.41,0,0,0,5,8.14,10.86,10.86,0,0,0,6.72.24C197,438.73,201.49,431.6,200.48,424.63Zm-11,2.27a2.39,2.39,0,0,1-.21.34c-.05.08-.09.16-.15.24a1.67,1.67,0,0,1-.5.49,3.06,3.06,0,0,1-.73.28.5.5,0,0,1-.62-.48v0l-.1-.09a.55.55,0,0,1-.11-.3.56.56,0,0,1,.15-.35l.06-.08a.85.85,0,0,1,0-.17.67.67,0,0,1,.32-.38l.21-.2,0-.05h0a.31.31,0,0,0,0-.08h0a.51.51,0,0,1,.48-.44.49.49,0,0,1,.47.37l.09,0a.86.86,0,0,1,.38.22A.72.72,0,0,1,189.49,426.9Z"/>
              <path class="cls-9" d="M273.93,401.46a10.35,10.35,0,0,0-4.39-5.85,12.38,12.38,0,0,0-9.15.29c-6.65,2.76-10.51,10.15-8.61,16.52a10.32,10.32,0,0,0,4.4,5.85,12.36,12.36,0,0,0,9.14-.29C272,415.22,275.83,407.83,273.93,401.46Zm-11.47,5-.09.06-.37.26-.09.07,0,0-.16.14a.49.49,0,0,1-.54.1.47.47,0,0,1-.29-.42.57.57,0,0,1-.13-.08l-.19-.12a.54.54,0,0,1-.34-.63.56.56,0,0,1,.31-.33l.15-.14a.22.22,0,0,0,0-.08.63.63,0,0,1,.05-.38.52.52,0,0,1,.75-.13l.09-.05a.52.52,0,0,1,.57-.26.5.5,0,0,1,.35.51.57.57,0,0,1,.08.28,1.06,1.06,0,0,1-.05.31.71.71,0,0,1,.16.26.54.54,0,0,1,0,.31A.52.52,0,0,1,262.46,406.48Z"/>
            </g>
          </g>
          <g>
            <path class="cls-12" d="M95.38,66.21S145.74,140.8,268.24,162c0,0-46.64,91.31-6.84,172.33,0,0-145.5,9.65-197.74-79.09C63.66,255.26,13.92,167.16,95.38,66.21Z"/>
            <path class="cls-31" d="M261.4,334.35S115.9,344,63.66,255.26l-.14-.26a138.69,138.69,0,0,0,56.53,36.11,180.15,180.15,0,0,0,37.11,8c11,1.3,22.26,1.86,33.32.57,10.78-1.26,21.82-4.28,30.32-11.58a33.67,33.67,0,0,0,10.37-15.72,52.89,52.89,0,0,0,1.73-10.62c.33-4.08.68-8.06,1.38-12.1a226,226,0,0,1,13.35-45.32,270.1,270.1,0,0,1,17.19-35.55c.4-.69.81-1.36,1.22-2C257.29,186.32,226.94,264.19,261.4,334.35ZM98,94.45c0,.6.89,0,1-.59a43.64,43.64,0,0,0-4-23.87C92.83,78.27,93.16,87.47,98,94.45Zm169,68.14a89.61,89.61,0,0,0-34.68,17C245.74,177.57,256.34,171.31,267,162.59Z"/>
          </g>
          <line class="cls-27" x1="260.61" y1="334.65" x2="323.71" y2="351.3"/>
          <g>
            <path class="cls-41" d="M178.65,185.74a.51.51,0,0,0-.21-.44h0c-57.78-34.31-70.26,10.23-53,34.83-5,14-1.94,15.58-1.94,15.61a98.36,98.36,0,0,1,4.07-12.61c10.74-27.13,32.11-43.86,50.83-37.26h0c.13.07.24,0,.25-.1Z"/>
            <path class="cls-41" d="M174.56,193.34a.49.49,0,0,0-.22-.43c-.11-.08-.21-.06-.25,0-5.82,6.86-8.83,20.86-13.69,30.23-5.56,10.72-13.9,15.53-25.19,7.2q-1.76,16.24-3.51,32.39c-.07,0-28.54-37.22-25.77-60q2.52-22.26,5-45.36a193.54,193.54,0,0,1,25,10.81h0c.14.08.27,0,.29-.14a.53.53,0,0,0-.21-.44h0a191.19,191.19,0,0,0-27.46-14.48c-1.79,16.32-3.58,32.37-5.37,48-3.12,25.15,28,64.71,28.11,64.74,0,1.29,34.91,4.07,37.84-24.36q2.7-24.56,5.39-48.25Z"/>
          </g>
          <path class="cls-3" d="M137,469.63a20.11,20.11,0,0,1,12.2-3.74c3.88.12,7.88,1.34,11.56.1a2.93,2.93,0,0,0,2.15-1.93c.3-1.61-1.62-2.66-3.2-3.06-15.42-3.87-31.36,2.85-47.24,3.59-1.74.08-3.74,0-4.82-1.4s-1.42-3.28.16-2.54a22.47,22.47,0,0,0,10.93-3.8c-3.44-2.06-7.72-2.16-11.69-1.56s-7.83,1.81-11.82,2.17a6,6,0,0,1-3.24-.37c-1-.5-2-.21-1.65-1.25-.85-3,2.77-5.12,5.68-6.18s5.93-2.3,8.83-3.61a2.93,2.93,0,0,0,1.71-1.4c.61-1.6-1.59-2.75-3.29-2.94-11.7-1.29-23,4.07-33.45,9.51s-21.35,11.28-33.12,11c6.48,4.24,13.83,5,21.48,6.13C84.79,472.41,110.06,471,137,469.63Z"/>
          <path class="cls-42" d="M27.63,435.56A.79.79,0,0,1,28,435c.37-.21.82.08,1.12.39s3,5.79,2.06,4.81C28.82,437.6,27.48,436.48,27.63,435.56Z"/>
          <path class="cls-3" d="M101.81,437.4c1.31-.06,2.76-.16,3.69-1.09a.75.75,0,0,0,.25-.44.64.64,0,0,0-.12-.42,2.59,2.59,0,0,0-2.36-.92,6.4,6.4,0,0,0-3.5,1.09c-.45.31-3,2.49-2,2.91.41.19,1.81-.82,2.2-.92A9.27,9.27,0,0,1,101.81,437.4Z"/>
          <path class="cls-3" d="M340.34,410.72c3.74-3.13,9.21-2.44,14-3.11s10.3-4.86,8.47-9.38a368.73,368.73,0,0,1,43.92-19.18,13,13,0,0,0-8.12-2.2l36.6-5.55a189.42,189.42,0,0,1-23,6.56l3.06,1.8a215.92,215.92,0,0,1-48.25,19.75c2.31.59,3.1,3.77,2,5.91s-3.32,3.39-5.51,4.36a50.1,50.1,0,0,1-18.55,4.23c2.34,3.51-1.88,7.71-5.69,9.52-5.14,2.42-11.25,4.92-16.94,5.21,1.65-3.35,5.95-4.44,8.83-6.71C335.22,418.81,336.6,413.86,340.34,410.72Z"/>
          <path class="cls-3" d="M146.38,452.15a8.7,8.7,0,0,0-7.82,4.56,11.46,11.46,0,0,1,7-1.46,5.27,5.27,0,0,0,2.62,0c.82-.33,1.36-1.48.74-2.11a1.71,1.71,0,0,0-.9-.42,7.28,7.28,0,0,0-2.55-.09"/>
          <path class="cls-3" d="M300.63,409c1.35-4.63,3.66-9.67,8.24-11.21a7.64,7.64,0,0,0,.4,7.23,27.86,27.86,0,0,1,14.41-15.63,2.2,2.2,0,0,1,1.68-.26c1.18.46.8,2.22.18,3.33s-1.15,2.78,0,3.4a45,45,0,0,1,21.34-9.94c-1,4-8.17,4.6-8.06,8.73a60.92,60.92,0,0,0,10.16-2.28c-1.06.33-2.25,2.59-3.12,3.38-1.4,1.25-3.06,2.26-4.56,3.4-3.22,2.48-6.33,5.1-9.5,7.65-6.23,5-12.78,9.84-20.44,12.4-3,1-11.93,3.72-13.52-.22C296.64,416.08,299.84,411.66,300.63,409Z"/>
          <path class="cls-3" d="M360.75,374.37a1.92,1.92,0,0,1,1.14.07,1.31,1.31,0,0,1,.54,1.6,2.93,2.93,0,0,1-1.21,1.35c-1.82,1.2-4.06,1.51-6.19,2a20.45,20.45,0,0,0-4.46,1.74C350,377.74,358.09,374.79,360.75,374.37Z"/>
          <path class="cls-3" d="M370.48,378.66a12.58,12.58,0,0,1,8-2.73c.67,0,1.52.26,1.56.92s-.67,1-1.27,1.13c-3.36.77-7.12-.26-10.16,1.35"/>
        </g>
        <g>
          <path class="cls-5" d="M276.31,311.78a7.39,7.39,0,0,0-.74-3.13,2.57,2.57,0,0,0-2.72-1.35,3.19,3.19,0,0,0-1.82,1.88,10.57,10.57,0,0,0-.9,2.91,1.35,1.35,0,0,1,.06.84,9.9,9.9,0,0,0-.28,1.44,6.76,6.76,0,0,0,.73,2.15,3.1,3.1,0,0,0,1.05,1.19,2.72,2.72,0,0,0,3.17-.58,5.63,5.63,0,0,0,1.38-3.12A5.77,5.77,0,0,0,276.31,311.78Z"/>
          <path class="cls-5" d="M276.34,336.45a94.62,94.62,0,0,1,.42-16.58l-7.88-4.09A29.67,29.67,0,0,0,270.06,332C270.89,334.41,273.89,335.78,276.34,336.45Z"/>
          <path class="cls-5" d="M269.51,330.59a139.89,139.89,0,0,1-4.26,21.66,7.75,7.75,0,0,1-1,2.38c3.11.57,7.7-16,9-24.77.12-.84-.87-1.26-1.71-1.24a2.44,2.44,0,0,0-2,1.31C269.1,330.66,269.61,329.76,269.51,330.59Z"/>
          <path class="cls-5" d="M272.71,334.84a141.43,141.43,0,0,1,3.2,21.85,7.27,7.27,0,0,1-.13,2.55c3.05-3.52,1.93-17.66.18-26.33-.16-.82-1.23-.89-2-.6a2.45,2.45,0,0,0-1.47,1.91C272.34,335.05,272.52,334,272.71,334.84Z"/>
          <path class="cls-5" d="M260.54,356.87l.34-.3a34,34,0,0,0,5-1.62c.38-.53-.07-1.33-.69-1.54a2.85,2.85,0,0,0-1.91.25,6.9,6.9,0,0,0-3.79,3,1,1,0,0,0-.08.31Z"/>
          <path class="cls-5" d="M271.88,361l.34-.3a34,34,0,0,0,5-1.62,1.1,1.1,0,0,0-.69-1.54,2.84,2.84,0,0,0-1.91.24,6.88,6.88,0,0,0-3.79,3,1,1,0,0,0-.08.31Z"/>
          <path class="cls-5" d="M267.32,333.11a2.26,2.26,0,0,0,.32,1.05.79.79,0,0,0,1,.32,1.08,1.08,0,0,0,.28-.24c2-2.05,4.35-3.67,6.23-5.8a11.23,11.23,0,0,0,2.53-4.48c.19-.73.77-4-.64-3.41-1.19.48-1.83,3.05-2.39,4.07a27.37,27.37,0,0,1-3,4.34A26.87,26.87,0,0,1,267.32,333.11Z"/>
          <path class="cls-5" d="M259.3,328.82a2.29,2.29,0,0,0,.31,1.06.8.8,0,0,0,1,.31,1.27,1.27,0,0,0,.28-.24c2-2,4.34-3.67,6.23-5.8a11.26,11.26,0,0,0,2.52-4.48c.19-.72.77-4-.63-3.4-1.2.48-1.83,3-2.4,4.06a28.08,28.08,0,0,1-3,4.35A27.68,27.68,0,0,1,259.3,328.82Z"/>
        </g>
        <path class="cls-15" d="M269,315.67a14.7,14.7,0,0,0,2.52,13.46c0-.06-.1.09,0,.1s.12-.07.15-.14l.55-1.44a1.31,1.31,0,0,0,.12-.47,1.45,1.45,0,0,0-.2-.67,19.24,19.24,0,0,1-1.72-10.09Z"/>
        <g>
          <path class="cls-15" d="M375.16,289.86c-2.53,2.18-6.29,2.11-9.56,1.4-6.64-1.46-12.56-4.9-19.26-6.13a22.71,22.71,0,0,0,2.5-7.58,37.35,37.35,0,0,0-.36-6.06A30.19,30.19,0,0,1,350.29,258a41.83,41.83,0,0,0,6.71,1.82c1,2.3,3.3,3.72,5.29,5.27a30.74,30.74,0,0,1,9.09,11.61,9.57,9.57,0,0,1,1.05,4.29A14.16,14.16,0,0,0,375.16,289.86Z"/>
          <g>
            <path class="cls-5" d="M358,251.52a7.47,7.47,0,0,0-.74-3.14,2.57,2.57,0,0,0-2.72-1.35,3.21,3.21,0,0,0-1.82,1.89,10.61,10.61,0,0,0-.9,2.9,1.35,1.35,0,0,1,.06.84,9.9,9.9,0,0,0-.28,1.44,6.67,6.67,0,0,0,.73,2.15,3.1,3.1,0,0,0,1,1.19,2.69,2.69,0,0,0,3.17-.58,5.63,5.63,0,0,0,1.38-3.12A5.72,5.72,0,0,0,358,251.52Z"/>
            <path class="cls-5" d="M358.05,276.18a94.66,94.66,0,0,1,.42-16.58l-7.88-4.09a29.67,29.67,0,0,0,1.18,16.24C352.6,274.15,355.6,275.52,358.05,276.18Z"/>
            <path class="cls-5" d="M351.22,270.33A139.89,139.89,0,0,1,347,292a7.6,7.6,0,0,1-1,2.37c3.11.57,7.7-16,8.95-24.77.12-.83-.87-1.25-1.71-1.24a2.44,2.44,0,0,0-2,1.31C350.81,270.4,351.32,269.49,351.22,270.33Z"/>
            <path class="cls-5" d="M354.42,274.58a141.12,141.12,0,0,1,3.2,21.84,7.33,7.33,0,0,1-.13,2.56c3.05-3.52,1.93-17.67.18-26.34-.16-.82-1.23-.89-2-.6a2.45,2.45,0,0,0-1.47,1.91C354.05,274.78,354.23,273.76,354.42,274.58Z"/>
            <path class="cls-5" d="M342.25,296.6l.34-.29a34,34,0,0,0,5-1.62,1.1,1.1,0,0,0-.69-1.54,2.84,2.84,0,0,0-1.91.24,6.82,6.82,0,0,0-3.78,3,.8.8,0,0,0-.09.31C341.52,296.68,341.89,296.65,342.25,296.6Z"/>
            <path class="cls-5" d="M353.59,300.68l.34-.3a34,34,0,0,0,5-1.62c.38-.53-.07-1.33-.69-1.54a2.85,2.85,0,0,0-1.91.25,6.9,6.9,0,0,0-3.79,3,1,1,0,0,0-.08.31Z"/>
          </g>
          <path class="cls-5" d="M357.45,258.79a106.68,106.68,0,0,1,8.38,8.63c-2.17,2.34-5.54,3.83-8.32,5.41-.53.3-2.07-.06-2-.66a2.69,2.69,0,0,1,1-1.49l4.61-4.36c-1.82-.4-4.56-.81-5.7-2.28S355.6,259,357.45,258.79Z"/>
          <path class="cls-5" d="M351.34,260.5c-.19.74-1,1.1-1.72,1.35-2,.7-4.23.52-6.09,1.54a8.88,8.88,0,0,0-3.37,3.4,6.68,6.68,0,0,1,1.07-4.88c2.34-1,4.66-2.15,6.94-3.32,1.27-.65,2.68-1.51,2.88-2.93C352.28,257.38,351.87,258.45,351.34,260.5Z"/>
          <path class="cls-15" d="M355.19,260.79a1.7,1.7,0,0,1-.76.32,1.68,1.68,0,0,1-.72-.19c-1.45-.65-3-1.43-3.67-2.87a2.59,2.59,0,0,1-.2-1.75,1.7,1.7,0,0,1,1.2-1.23,3.42,3.42,0,0,0,.93,2.48,9.63,9.63,0,0,0,2.12,1.68,1.18,1.18,0,0,0,.72.28,1.59,1.59,0,0,0,.81-.48c.55-.45,1.59-.94,1.67,0C357.35,259.8,355.68,260.48,355.19,260.79Z"/>
        </g>
        <path class="cls-12" d="M94.49,446l-5.29-.92a47.92,47.92,0,0,0,15.63-6.67,1.6,1.6,0,0,0,.84-1c.13-.73-.72-1.24-1.45-1.41-2.72-.63-5.54.26-8.14,1.27A74.91,74.91,0,0,0,84.59,443c-2.54,1.55-9.28,5.38-8.79,8.76C81.73,449.63,89.4,450.05,94.49,446Z"/>
        <path class="cls-12" d="M101.68,460.08c5.51-2.47,11.87-1.9,17.77-3.19a10,10,0,0,0,5.67-2.91.83.83,0,0,0,.23-.49c0-.41-.54-.56-.95-.58C116.48,452.45,107.77,454.89,101.68,460.08Z"/>
        <path class="cls-12" d="M146.13,444.69a19,19,0,0,0-10.64,4.87c.22.91,1.51.92,2.42.69a35.59,35.59,0,0,0,11.18-5c.35-.24.74-.69.48-1a.82.82,0,0,0-.69-.19,19.61,19.61,0,0,0-4.8.93"/>
      </g>
    </g>
  </g>
</svg>
