<svg id="Layer_1" data-name="Layer 1" xmlns="http://www.w3.org/2000/svg" xmlns:xlink="http://www.w3.org/1999/xlink" viewBox="0 0 790.94 215.78">
  <defs>
    <style>
      .cls-1 {
        fill: none;
      }

      .cls-2 {
        clip-path: url(#clip-path);
      }

      .cls-3 {
        fill: #fff;
        opacity: 0.02;
      }

      .cls-4 {
        fill: #5b5c5e;
      }

      .cls-5 {
        fill: #848586;
      }

      .cls-6 {
        fill: #d6d6d7;
      }

      .cls-7 {
        fill: #c41f3d;
      }

      .cls-8 {
        fill: #c50f3c;
        fill-rule: evenodd;
      }
    </style>
    <clipPath id="clip-path">
      <rect class="cls-1" x="925.63" y="-421.66" width="1278.63" height="468.16"/>
    </clipPath>
  </defs>
  <g class="cls-2">
    <g>
      <path class="cls-3" d="M857.09-150.35c10.62-5.31,29.46-.16,30.43,8.32.26,2.35-.61,4.71-.27,7.05,1.17,8.11,19.72,12.66,29.4,7.21-6.92,10.44,4.11,24,21.7,26.59,15,2.24,30.32-2.59,42.76-8.28s24.16-12.54,38.94-15.26,34,.59,38.63,9.78c3.36,6.71-.36,16.18,9.77,19.25,9.06,2.75,20.3-3.28,29.52-.75,7.53,2.08,8.9,8.46,14.8,12,7.2,4.36,19.66,3.33,27.53-.56s12.25-9.83,16.35-15.55l28.74,24.17c-8.92-2.26-17.61,5.15-15.47,11s10.23,10,17.14,14.17,13.51,9.83,11.37,15.69c-1.44,4-6.53,6.93-11.37,9.64L1127.55,7.48C1111.78-4,1083.07-4.77,1060.18.19s-42.5,14.43-64.35,21-48.71,9.91-69.71,2.36c-13.53-4.87-22.78-13.64-36.76-18-20.2-6.29-48-2.71-63.23-13.13-18.46-12.66-1.93-34.32-14.72-49.47-7.33-8.69-22.78-13.36-33.14-20.76-34.86-24.89-2.57-54.71,20.54-76.62,8.89-8.42,14.9-15.82,32.09-17.66C850.08-174.15,879.28-162,857.09-150.35Z"/>
      <path class="cls-3" d="M865.49-134.59c8.09,3.43,17.76,7,27.07,5.13,18.93-3.85,15.08-25,33.94-29,17.71-3.74,33,12.15,51.58,10.69,16.54-1.31,23.25-15.15,39-18.6,13.06-2.86,27.19,2.6,36.07,9.24s15.16,14.73,25.95,20.16c23,11.58,62,8.89,77.51,24.62,7,7.08,7.72,17,18.74,21.6,13,5.49,31.21-.12,46.22,2.79,16.84,3.27,23.67,15.56,28.14,26.21,5.11,12.19,9.22,26.93-5,35.88-5,3.15-12.3,5.71-13,10.13-.77,5.15,8.34,9.23,8.11,14.41s-9.68,8.32-17.7,10.14C1175.71,19.35,1125.6,30,1077.88,22,1046.65,16.73,1019.26,3.77,987.27.8,962.11-1.53,933,1.92,913.94-8.58c-14.07-7.73-17.58-20.67-29.82-29.54-23.45-17-71-14.17-93.15-31.82a28.59,28.59,0,0,1-10.83-28.28c1.74-9.88,7.51-19.28,13.23-28.56,5-8.17,25.38-57,47.31-55.12,16.6,1.44,1.92,18.43.75,23.39C838.78-147.28,851.83-140.4,865.49-134.59Z"/>
      <path class="cls-3" d="M1065.57-23c-17.09-8.61-33.76-18.55-55-22-19.16-3.1-39.39-.45-59.15-1.11s-42-6.52-46.7-18.53c-3.15-8.09,2.57-17.08-2.67-24.73-9.64-14.08-48.34-13.64-55-28.37-2.19-4.79-.07-9.88.39-14.86s-1.69-10.8-8.91-12.94c-6.36-1.88-14.27,0-18.94,3.33s-6.88,7.63-8.95,11.83q-8.33,16.92-16.66,33.83c-8.21,16.67-16.51,33.74-15.27,51.16,1.42,19.77,16.2,39.4,41.58,51.24C836,13.18,855,17.31,873.66,21.33l66.06,14.26c17.6,3.8,35.49,7.63,54.08,8.2,27.81.85,55-5.71,79.07-14.41,14.39-5.19,45.85-17.49,41.34-30.43C1110.73-11,1077.54-17,1065.57-23Z"/>
      <path class="cls-3" d="M867-221.55c7.18,9.82,25.86,14.21,36,22.94,10.9,9.34,10.35,22.15,5.91,33.37s-12.26,22-14.51,33.44c-3.3,16.83,6.37,34.46,25.48,46.49,9.57,6,21.3,10.69,29.83,17.3C966.83-54.75,967.64-34.56,953-20.2,939.51-7,915.84.66,892.26,5.94c-19.49,4.36-42.35,7.29-60,.52-19.9-7.65-24.67-24.1-27.52-38.59q-5.62-28.59-11.24-57.2c-3.37-17.12-6.74-34.27-8.15-51.5-3.06-37.36,3.16-75,18.33-111.18,5.36-12.77,9.61-26.94,29.95-33.68,16.33-5.42,31.47-2.89,36.89,8.45C879.38-258.68,854.28-238.87,867-221.55Z"/>
      <path class="cls-3" d="M809.79-224.51c36.44-1.09,74.91,10.38,90.57,31,7.88,10.36,10.3,22.8,23.42,30.82,17.81,10.87,48.57,9.37,66.56,20.13,24.25,14.5,12.1,42.47,34.9,57.86,11.19,7.55,28.49,10.26,44.93,10.94s33.09-.29,49.3,1.57c45.34,5.19,76.56,30.53,103.27,54,10,8.75,20.41,18.74,17.68,29.34-3.72,14.42-29,21.87-50.93,26.92-25.15,5.8-52.39,11.66-78.2,7.13-20.44-3.59-36.53-13.13-54.11-20.58C1012.38,5.61,953.7,0,901.86,9.78c-25.65,4.84-52.44,13.28-77.85,8-19.08-4-32-14.82-43.7-25-32.79-28.7-67.06-60.36-64.39-95.58,1.27-16.71,10.92-32.68,16.07-49.1,3.29-10.48,4.2-21.17.89-31.69-1.91-6-7.89-13.05-3.44-19.11C739.92-217.1,787.64-223.85,809.79-224.51Z"/>
      <path class="cls-3" d="M854.55-163c10.62-5.31,29.46-.16,30.42,8.32.27,2.34-.6,4.71-.26,7,1.17,8.11,19.72,12.66,29.4,7.21-6.92,10.44,4.11,24,21.7,26.59,15,2.24,30.32-2.59,42.76-8.28s24.16-12.54,38.94-15.27,34,.6,38.63,9.79c3.36,6.71-.36,16.18,9.77,19.25,9.06,2.75,20.3-3.28,29.52-.75,7.52,2.07,8.9,8.46,14.8,12,7.2,4.37,19.66,3.34,27.53-.55s12.25-9.84,16.35-15.55L1182.85-89c-8.92-2.26-17.61,5.15-15.47,11s10.22,10,17.14,14.17S1198-54,1195.89-48.17c-1.44,4-6.53,6.93-11.37,9.63L1125-5.22c-15.77-11.49-44.48-12.25-67.37-7.29s-42.51,14.43-64.35,21-48.71,9.91-69.71,2.36C910,6,900.8-2.82,886.82-7.17c-20.2-6.29-48-2.71-63.23-13.14C805.13-33,821.66-54.62,808.87-69.77c-7.34-8.69-22.78-13.36-33.14-20.76-34.86-24.89-2.57-54.72,20.54-76.62,8.89-8.42,14.9-15.83,32.09-17.66C847.54-186.85,876.74-174.75,854.55-163Z"/>
      <path class="cls-3" d="M863-147.29c8.09,3.43,17.76,7,27.07,5.13,18.93-3.85,15.08-25,33.94-29,17.71-3.74,33,12.14,51.58,10.68,16.54-1.3,23.25-15.14,39-18.59,13.07-2.86,27.2,2.6,36.08,9.23s15.16,14.74,25.94,20.17c23,11.57,62,8.89,77.52,24.62,7,7.07,7.72,16.94,18.74,21.59,13,5.5,31.21-.11,46.22,2.8,16.84,3.27,23.67,15.56,28.14,26.21,5.11,12.18,9.22,26.93-5,35.88-5,3.15-12.3,5.71-13,10.12-.77,5.16,8.34,9.24,8.11,14.41-.23,5.34-9.68,8.32-17.71,10.14-46.45,10.54-96.56,21.21-144.28,13.18C1044.11,4,1016.72-8.93,984.73-11.9c-25.16-2.33-54.24,1.12-73.34-9.38C897.33-29,893.82-42,881.58-50.82c-23.46-17-71-14.17-93.15-31.82-9.83-7.82-12.57-18.4-10.83-28.28s7.51-19.28,13.23-28.56c5-8.17,25.38-57,47.31-55.12,16.6,1.43,1.92,18.43.75,23.39C836.24-160,849.28-153.1,863-147.29Z"/>
      <path class="cls-3" d="M1063-35.76c-17.09-8.61-33.76-18.54-55-22-19.16-3.1-39.39-.45-59.15-1.11s-42-6.52-46.7-18.54c-3.16-8.08,2.57-17.07-2.67-24.73-9.64-14.07-48.34-13.63-55-28.36-2.19-4.79-.07-9.89.38-14.87s-1.69-10.8-8.9-12.93c-6.36-1.88-14.27,0-18.95,3.33s-6.87,7.63-8.94,11.83q-8.32,16.92-16.66,33.83c-8.22,16.67-16.51,33.74-15.27,51.16,1.42,19.77,16.2,39.4,41.58,51.24C833.49.48,852.47,4.61,871.11,8.63l66.07,14.26c17.6,3.8,35.49,7.63,54.08,8.2,27.81.84,55-5.71,79.07-14.41,14.39-5.19,45.85-17.49,41.34-30.43C1108.19-23.75,1075-29.73,1063-35.76Z"/>
      <path class="cls-3" d="M807.25-237.21c36.44-1.09,74.91,10.38,90.57,31,7.88,10.35,10.3,22.8,23.42,30.81,17.81,10.88,48.57,9.38,66.55,20.13,24.26,14.51,12.11,42.47,34.91,57.87,11.19,7.55,28.49,10.26,44.93,10.94s33.09-.29,49.3,1.57c45.34,5.19,76.56,30.53,103.27,54,10,8.75,20.41,18.74,17.68,29.34-3.72,14.42-29,21.87-50.93,26.92-25.15,5.79-52.39,11.66-78.2,7.13-20.44-3.59-36.53-13.14-54.11-20.58-44.8-19-103.49-24.58-155.32-14.82-25.66,4.84-52.44,13.28-77.86,8-19.07-4-32-14.82-43.69-25C745-48.7,710.71-80.36,713.38-115.58c1.27-16.71,10.92-32.68,16.07-49.1,3.29-10.49,4.2-21.17.89-31.69-1.91-6-7.89-13-3.44-19.12C737.38-229.8,785.1-236.55,807.25-237.21Z"/>
      <path class="cls-3" d="M862.56-139c7.57,3.21,16.6,6.57,25.3,4.8,17.7-3.61,14.09-23.38,31.73-27.1,16.55-3.49,30.88,11.35,48.21,10,15.46-1.21,21.73-14.15,36.43-17.37,12.21-2.68,25.41,2.43,33.71,8.63s14.18,13.77,24.25,18.84c21.51,10.82,58,8.32,72.46,23,6.51,6.62,7.21,15.84,17.51,20.19,12.19,5.14,29.17-.11,43.21,2.62,15.73,3,22.12,14.53,26.29,24.49,4.78,11.39,8.62,25.17-4.63,33.54-4.67,2.94-11.5,5.34-12.12,9.46-.73,4.81,7.79,8.63,7.58,13.47s-9,7.77-16.55,9.48c-43.42,9.85-90.26,19.82-134.87,12.31-29.18-4.92-54.78-17-84.69-19.8-23.51-2.18-50.69,1-68.54-8.77C894.69-28.41,891.41-40.51,880-48.79,858.05-64.67,813.64-62,792.91-78.53A26.72,26.72,0,0,1,782.79-105c1.62-9.24,7-18,12.37-26.7,4.71-7.64,23.72-53.29,44.21-51.52,15.51,1.34,1.8,17.23.7,21.86C837.59-150.82,849.79-144.39,862.56-139Z"/>
      <path class="cls-3" d="M1069.73-21.29c-17-8.53-33.49-18.39-54.57-21.8-19-3.07-39.07-.45-58.67-1.1s-41.66-6.47-46.31-18.38c-3.13-8,2.55-16.94-2.65-24.53-9.55-14-47.94-13.52-54.6-28.13-2.17-4.75-.06-9.8.39-14.74s-1.68-10.71-8.83-12.83c-6.31-1.87-14.15,0-18.79,3.3s-6.82,7.57-8.87,11.73L800.3-94.21c-8.14,16.53-16.37,33.46-15.14,50.73C786.57-23.87,801.23-4.4,826.4,7.34c15.68,7.31,34.5,11.41,53,15.4l65.52,14.14c17.45,3.76,35.2,7.57,53.64,8.13,27.57.84,54.5-5.67,78.41-14.29,14.27-5.15,45.47-17.34,41-30.18C1114.51-9.38,1081.59-15.31,1069.73-21.29Z"/>
      <path class="cls-3" d="M816.21-230.17c35.83-1.07,73.64,10.21,89,30.45,7.74,10.18,10.12,22.42,23,30.3,17.5,10.69,47.75,9.21,65.43,19.79,23.84,14.26,11.9,41.75,34.32,56.89,11,7.42,28,10.08,44.17,10.75s32.53-.28,48.46,1.55c44.59,5.1,75.28,30,101.54,53.1,9.78,8.6,20.06,18.42,17.38,28.84-3.66,14.18-28.5,21.51-50.07,26.47-24.73,5.7-51.51,11.46-76.89,7-20.09-3.53-35.91-12.92-53.19-20.24C1015.38-3.92,957.69-9.42,906.73.18,881.5,4.93,855.17,13.23,830.18,8c-18.75-3.92-31.47-14.57-43-24.62C755-44.83,721.3-76,723.92-110.58c1.25-16.43,10.73-32.13,15.8-48.28,3.23-10.31,4.13-20.81.87-31.15-1.87-5.94-7.75-12.83-3.38-18.8C747.51-222.88,794.43-229.51,816.21-230.17Z"/>
      <path class="cls-3" d="M851.77-164.19c9.94-5,27.58-.14,28.48,7.79.25,2.2-.56,4.41-.24,6.61,1.09,7.59,18.46,11.85,27.52,6.74-6.48,9.78,3.84,22.43,20.32,24.9,14,2.1,28.38-2.43,40-7.75s22.61-11.74,36.45-14.29,31.86.55,36.17,9.16c3.14,6.28-.34,15.15,9.14,18,8.48,2.57,19-3.07,27.64-.7,7,1.94,8.33,7.91,13.85,11.26,6.74,4.09,18.41,3.12,25.78-.52s11.46-9.2,15.31-14.56q13.44,11.32,26.9,22.63c-8.35-2.11-16.49,4.82-14.49,10.31s9.58,9.35,16,13.26,12.65,9.21,10.65,14.7c-1.35,3.7-6.12,6.48-10.65,9L1105-16.43c-14.77-10.75-41.64-11.47-63.07-6.82S1002.11-9.74,981.66-3.61,936.05,5.67,916.4-1.4C903.72-6,895.07-14.17,882-18.25c-18.91-5.89-45-2.54-59.19-12.3C805.51-42.4,821-62.67,809-76.86c-6.87-8.13-21.33-12.5-31-19.43-32.63-23.3-2.4-51.22,19.23-71.73,8.33-7.89,13.95-14.82,30-16.53C845.21-186.47,872.55-175.13,851.77-164.19Z"/>
      <path class="cls-3" d="M815.75-226.25c34.15-1,70.21,9.73,84.88,29,7.39,9.71,9.66,21.38,22,28.89,16.69,10.19,45.52,8.78,62.38,18.86,22.73,13.6,11.34,39.81,32.72,54.24,10.48,7.08,26.7,9.62,42.1,10.25s31-.26,46.21,1.47c42.5,4.87,71.76,28.62,96.79,50.63,9.33,8.2,19.14,17.56,16.57,27.5-3.48,13.51-27.16,20.5-47.73,25.23-23.57,5.43-49.1,10.93-73.3,6.68-19.16-3.36-34.24-12.31-50.71-19.29-42-17.79-97-23-145.58-13.88-24,4.53-49.15,12.44-73,7.45-17.88-3.74-30-13.88-41-23.47-30.73-26.9-62.85-56.57-60.35-89.58,1.19-15.66,10.24-30.63,15.06-46,3.09-9.83,3.94-19.84.84-29.7-1.79-5.67-7.39-12.23-3.23-17.92C750.26-219.31,795-225.63,815.75-226.25Z"/>
    </g>
  </g>
  <g>
    <g>
      <path class="cls-4" d="M261.73,24.53v22h-22v-11H217.44v66.31H239.7v-11h22v22l-11,11.24H206.43l-11-11.24V24.53l11-11h44.28Z"/>
      <path class="cls-5" d="M258.74,43.8H242.45v-11H214.69v72.05h27.76v-11h16.29v17.89l-9.17,9.41h-42l-9.18-9.41v-86l9.18-9.18h42l9.17,9.18ZM208.27,18.09,200,26.35V111l8.26,8.49h40.61l8.26-8.49V95.42H244.29v11H212.86V31h31.43V42h12.85V26.35l-8.26-8.26Z"/>
      <path class="cls-6" d="M250.94,124.56l10.79-10.78v3.67l-11,11H206.43l-11-11v-3.67l10.78,10.78ZM218.13,40.13V36.22H239v3.91Zm21.57,11v-3.9h22v3.9Z"/>
      <path class="cls-4" d="M643.46,13.51V41l-5.5-5.5H599.18V57.79h27.76l5.51-5.51v33l-5.51-5.5H599.18v22H638l5.5-5.52V124.1H571.65l5.5-5.5V19l-5.5-5.51Z"/>
      <path class="cls-5" d="M640.48,32.78H596.43V60.54h33V76.83h-33v28h44.05v16.29H580.13V16.49h60.35Zm-1.61,73.65H594.59V75.23h33.27V62.38H594.59V31h44.28V18.09H581.74V119.51h57.13Z"/>
      <path class="cls-6" d="M576.69,19.25v3.66l-5-5h3.67Zm-1.14,105.31h67.91v3.91H571.65Zm62.18-88.34L643.46,42v3.68L638,40.13H599.87V36.22Zm-11,44.06L632.45,86v3.67l-5.51-5.51H599.87v-3.9Z"/>
      <path class="cls-4" d="M183.31,118.6l5.5,5.5h-33l5.51-5.5V19l-5.51-5.51h33L183.31,19Z"/>
      <path class="cls-5" d="M180.55,121.12H164.26V16.49h16.29Zm-1.83-103H165.87V119.51h12.85Z"/>
      <path class="cls-6" d="M160.82,19.25v3.66l-5-5h3.67Zm24.32,105.31,3.67,3.91h-33l3.9-3.91Zm.23-106.69h3.44l-4.82,5V19.25Z"/>
      <path class="cls-4" d="M479.54,24.53v88.33l-11,11.24H424.24l-11-11.24V24.53l11-11h44.28Zm-22,66.31H452l-11.24-22h16.75V35.54H435.25v66.31h22.26Z"/>
      <path class="cls-5" d="M476.55,111.71l-.46.46-8.26,8.5-.45.45h-42l-.45-.45-8.26-8.5-.46-.46v-86l9.17-9.18h42l9.17,9.18ZM426.07,18.09l-8.26,8.26V111l8.26,8.49h40.62L475,111V26.35l-8.26-8.26Zm4.59,88.34V31H462.1V73.4H448.33l6.42,12.85h7.35v20.18Zm14.92-34.64h14.68v-39H432.5v72.05h27.76v-17h-6.65Z"/>
      <path class="cls-6" d="M468.75,124.56l10.79-10.78v3.67l-11,11H424.24l-11-11v-3.67L424,124.56ZM435.94,40.13V36.22h20.88v3.91Zm15.6,51.39h5.28v3.67H452l-11.24-22h1.61Z"/>
      <path class="cls-4" d="M716.91,24.53v22h-22v-11H672.63v11l44.28,33.27v33l-11,11.24H661.61l-11-11.24v-22h22v11h22.25v-11L650.6,57.79V24.53l11-11H705.9Z"/>
      <path class="cls-5" d="M713.93,43.8H697.64v-11H669.87V48.16l43.37,32.58.69.46v30.51l-.46.46-8.26,8.5-.46.45h-42l-.46-.45-8.26-8.5-.46-.46V93.82h16.29v11h27.77V89.46L654.27,56.65l-.69-.46V25.67l9.18-9.18h42l9.18,9.18ZM663.45,18.09l-8.26,8.26V55.5l44.28,33v17.89H668v-11H655.19V111l8.26,8.49h40.61l8.26-8.49V82.11L668,48.85V31h31.43V42h12.85V26.35l-8.26-8.26Z"/>
      <path class="cls-6" d="M694.19,95,650.6,62.15V58.48l43.59,32.59Zm11.94,29.6,10.78-10.78v3.67l-11,11H661.61l-11-11v-3.67l10.79,10.78ZM673.32,40.13V36.22h20.87v3.91Zm21.56,11v-3.9h22v3.9Z"/>
      <path class="cls-4" d="M790.94,13.51V41.27l-5.51-5.51H768.91V168.38h5.51l-33.27,33,5.51-11V35.76H730.14l-5.51,5.51V13.51Z"/>
      <path class="cls-5" d="M788,32.78h-22V172.51L749.64,188.8v-156h-22V16.49H788ZM751.25,184.89l13.07-13.06V31.17h22V18.09H729.22V31.17h22Z"/>
      <path class="cls-6" d="M746.2,40.11H730.14l-5.51,5.52V42l5.74-5.73H746.2Zm24.55,132.63h3.67l-33.27,33,3.67-7.12ZM785.2,36.22,790.94,42v3.68l-5.51-5.52H769.37V36.22Z"/>
      <path class="cls-4" d="M563.31,13.51,557.8,19v93.84l-11,11.24H502.51l-11-11.24V19L486,13.51h33L513.52,19v82.83h22.26V19l-5.51-5.51Z"/>
      <path class="cls-5" d="M554.82,111.71l-.46.46-8.26,8.5-.46.45H503.88l-.68-.45-8.27-8.5-.45-.46V16.49h16.29v88.34h27.76V16.49h16.29ZM496.08,18.09V111l8.49,8.49H545l8.25-8.49V18.09H540.37v88.34H508.93V18.09Z"/>
      <path class="cls-6" d="M489.66,17.87,491,19.25v3.66l-5-5ZM547,124.56l10.78-10.78v3.67l-11,11H502.51l-11-11v-3.67l10.79,10.78ZM514.21,19.25l1.38-1.38H519l-4.82,5Zm20.88,0v3.66l-4.82-5h3.44Zm24.55-1.38h3.67l-5,5V19.25Z"/>
      <path class="cls-4" d="M77.33,124.1,0,201.41l5.51-11V19L0,13.51H71.82V41.27l-5.51-5.51H27.54v22H55.3l5.5-5.5v33l-5.5-5.51H27.54v66.31l44.28-44.05v22Z"/>
      <path class="cls-5" d="M68.83,128.45,8.49,188.8V16.49H68.83V32.78h-44v28h33V77.06h-33v76.18L68.83,109ZM23,75.23H56.21V62.38H23V31.17H67.23V18.09H10.09v166.8l57.14-57.12V113.09L23,157.36Z"/>
      <path class="cls-6" d="M5.05,19.24v3.67L0,18.09H3.67Zm68.6,109.21h3.68L0,205.78l3.67-7.12ZM66.08,36.22,71.82,42v3.68l-5.51-5.52H28.22V36.22Zm-11,44.27,5.73,5.75v3.67L55.3,84.4H28.22V80.49Z"/>
      <path class="cls-4" d="M151.39,24.53V68.8l-11,11H107.11V118.6l5.5,5.5h-33l5.51-5.5V19l-5.51-5.51h60.81ZM107.11,57.79h22.25V35.54H107.11Z"/>
      <path class="cls-5" d="M148.41,67.66l-9.18,9.17H104.36v44.29H88.06V16.49h51.17l9.18,9.18ZM89.67,18.09V119.51h12.85V75.23h36L146.8,67V26.35l-8.26-8.26ZM102.52,31H134V62.38H102.52Zm1.84,29.59h27.76V32.78H104.36Z"/>
      <path class="cls-6" d="M84.62,19.25v3.66l-5.05-5h3.67Zm24.32,105.31,3.67,3.91h-33l3.91-3.91ZM107.8,40.13V36.22h20.88v3.91Zm32.81,40.15L151.39,69.5v3.67l-11,11H107.8v-3.9Z"/>
      <g>
        <path class="cls-7" d="M96.92,164.12v11h18.27v7.28H96.92v18.32H89.58V156.78h29.31v7.34Z"/>
        <path class="cls-7" d="M151,201.28c-29,0-28.93-45.06,0-45.06S179.83,201.28,151,201.28Zm0-37.91c-19,0-19,30.82,0,30.82S170,163.37,151,163.37Z"/>
        <path class="cls-7" d="M199.28,182.39h-6v18.32H186V156.78H200.6s14.68,0,14.68,12.8c0,7.1-4.51,10.23-8.47,11.68l9,19.45h-8.1Zm-6-7.28h7.28s7.34,0,7.34-5.53-7.34-5.46-7.34-5.46h-7.28Z"/>
        <path class="cls-7" d="M271.7,179.12,290,200.71h-9.61L266.81,184l-4.14,4.64v12.05h-7.35V156.78h7.35v22.16l18-22.16h9.16Z"/>
        <path class="cls-7" d="M337.47,200.71h-7.4l-21.84-31.25v31.25h-7.34V156.78h7.4L330.19,188V156.78h7.28Z"/>
        <path class="cls-7" d="M372.43,201.28c-29,0-28.93-45.06,0-45.06S401.3,201.28,372.43,201.28Zm0-37.91c-18.95,0-19,30.82,0,30.82S391.45,163.37,372.43,163.37Z"/>
        <path class="cls-7" d="M447.68,202.47l-13.75-36.15-13.74,36.15-17.51-45.69h7.91l9.6,25.92,9.66-25.92H438l9.67,25.92,9.66-25.92h7.91Z"/>
        <path class="cls-7" d="M499,193.37v7.34h-23.6V156.78h7.34v36.59Z"/>
        <path class="cls-7" d="M516.52,164.12v11h18.26v7.28H516.52v11h22v7.34H509.18V156.78h29.31v7.34Z"/>
        <path class="cls-7" d="M558.44,156.78c10.67,0,25.67,2.45,25.67,22,0,18.76-14.75,22-25.67,22H551.1V156.78Zm18.27,22c0-17.57-18.27-14.81-18.27-14.81v29.62S576.71,196.07,576.71,178.75Z"/>
        <path class="cls-7" d="M636.64,175.73v25.05h-6.4l-.38-4c-3.58,3.33-7.28,4.58-12.49,4.58-11.8,0-21-8.22-21-22.59,0-13.06,9.85-22.6,22-22.6a21.62,21.62,0,0,1,15.51,6.47l-5.15,5.15a14.66,14.66,0,0,0-10.36-4.27c-8.09,0-14.62,5.64-14.62,15.25,0,10.73,6.53,15.25,14.62,15.25a14.47,14.47,0,0,0,11-5V182.2H617.62v-6.47Z"/>
        <path class="cls-7" d="M658.54,164.12v11H676.8v7.28H658.54v11h22v7.34H651.2V156.78h29.31v7.34Z"/>
      </g>
    </g>
    <g>
      <path class="cls-8" d="M388.75.35A.36.36,0,0,0,388.4,0h0C308.2,7.63,298,62.91,324.19,80.56c-4.52,20-.31,19.48-.31,19.48A146.79,146.79,0,0,1,327.4,82.4c10.22-38.89,35.52-72.83,61-81.69h0a.36.36,0,0,0,.32-.35Z"/>
      <path class="cls-8" d="M384.51,13.05a.35.35,0,0,0-.35-.35.36.36,0,0,0-.34.24c-6.62,13-8.53,31.58-13.58,45.81C364.46,75,354.21,86,338.36,85v39.58S296,105.38,296,74.6V16.93l34.59-3.16h0a.36.36,0,0,0,0-.71H292.2V74.6c0,34.63,46.15,53.87,46.15,53.87s46.17-19.56,46.17-53.87V13.05Z"/>
    </g>
  </g>
</svg>
