<svg width="1440" height="148" viewBox="0 0 1440 148" fill="none" xmlns="http://www.w3.org/2000/svg">
<g style="mix-blend-mode:multiply" opacity="0.5">
<path d="M691.544 131.988H703.21L703.079 148.432H691.331L691.544 131.988ZM455.486 148.432H467.234L468.628 131.988H456.962L455.486 148.432ZM337.563 148.432H349.311L351.346 131.988H339.663L337.563 148.432ZM249.125 148.432H260.857L263.384 131.988H251.701L249.125 148.432ZM371.888 107.477H383.472L385.31 91.4669H373.824L371.888 107.477ZM577.51 67.5943H588.996L589.718 52.0052H578.347L577.51 67.5943ZM75.7773 52.0052H64.4069L60.8956 67.5943H72.381L75.7773 52.0052ZM608.422 13.5756L607.799 28.7573H619.087L619.645 13.5756H608.422ZM522.823 28.7573H534.112L535.112 13.5756H523.89L522.823 28.7573ZM693.234 -9.07483H704.375L704.506 -23.8763H693.415L693.234 -9.07483ZM665.341 -9.07483H676.482L676.744 -23.8763H665.669L665.341 -9.07483ZM173.108 -9.07483L175.947 -23.8763H164.872L161.984 -9.07483H173.108ZM430.136 -60.3642H419.192L417.633 -45.9428H428.626L430.136 -60.3642ZM-6.31071 107.477H5.27326L9.11263 91.4669H-2.37281L-6.31071 107.477ZM43.5525 67.5943L47.1459 52.0052H35.7752L32.1163 67.5943H43.5525ZM-43.7695 28.7573H-32.481L-28.5431 13.5756H-39.7659L-43.7695 28.7573ZM36.7925 -23.8763H25.7173L22.1076 -9.07483H33.2486L36.7925 -23.8763ZM585.091 -81.8603H595.952L596.609 -95.9285H585.895L585.091 -81.8603ZM515.243 -95.9285H504.446L503.314 -81.8603H514.176L515.243 -95.9285ZM339.778 -81.8603H350.64L352.511 -95.9285H341.714L339.778 -81.8603ZM203.495 -81.8603H214.341L216.917 -95.9285H206.104L203.495 -81.8603ZM189.795 -95.9285H178.982L176.242 -81.8603H187.088L189.795 -95.9285ZM303.583 -130.624H292.918L290.768 -116.909H301.482L303.583 -130.624ZM615.182 -151.115H625.782L626.274 -164.491H615.74L615.182 -151.115ZM441.063 -164.491H430.529L429.069 -151.115H439.669L441.063 -164.491ZM705.934 -197.529H695.515L695.351 -184.466H705.819L705.934 -197.529ZM44.176 -164.491H33.6423L30.2458 -151.115H40.8289L44.176 -164.491ZM46.6371 144.291H52.462L54.2668 136.143H48.4584L46.6371 144.291ZM526.827 95.4864H521.1L520.542 103.43H526.285L526.827 95.4864ZM288.176 103.43H293.918L295.067 95.4864H289.341L288.176 103.43ZM259.134 103.43H264.877L266.091 95.4864H260.365L259.134 103.43ZM666.768 55.9025L666.604 63.6427H672.281L672.413 55.9025H666.768ZM300.777 55.9025H295.133L294 63.6427H299.661L300.777 55.9025ZM270.997 63.6427L272.195 55.9025H266.534L265.336 63.6427H270.997ZM475.634 17.3642H470.056L469.399 24.9143H474.978L475.634 17.3642ZM306.339 17.3642H300.76L299.661 24.9143H305.256L306.339 17.3642ZM478.883 -20.1692H473.37L472.73 -12.8228H478.243L478.883 -20.1692ZM423.097 -20.1692H417.584L416.796 -12.8228H422.309L423.097 -20.1692ZM81.7005 -12.8228H87.2299L88.8707 -20.1692H83.3577L81.7005 -12.8228ZM-12.2994 144.263H-6.47475L-4.5057 136.116H-10.3141L-12.2994 144.263ZM-100.622 144.263H-94.7976L-92.599 136.116H-98.3089L-100.622 144.263ZM-60.5382 17.3642H-66.1169L-68.1679 24.9143H-62.5728L-60.5382 17.3642ZM-95.5361 -56.7656H-100.967L-103.051 -49.5957H-97.6033L-95.5361 -56.7656ZM647.982 -92.4386H642.616L642.403 -85.4588H647.784L647.982 -92.4386ZM493.847 -194.284H488.679L488.104 -187.807H493.289L493.847 -194.284ZM362.995 -194.284H357.827L356.941 -187.807H362.126L362.995 -194.284ZM703.817 -258.188H698.763V-251.996H703.817V-258.188ZM476.783 -289.014H471.861L471.27 -282.971H476.192L476.783 -289.014ZM-81.9012 -194.27H-87.0861L-89.0385 -187.793H-83.8536L-81.9012 -194.27ZM359.599 152.927L359.467 154H385.064L385.178 152.927L388.608 122.414H363.29L359.599 152.927ZM270.997 152.927L270.833 154H296.429L296.577 152.927L300.875 122.414H275.558L270.997 152.927ZM123.327 152.927L123.114 154H148.693L148.907 152.927L154.682 122.414H129.365L123.327 152.927ZM50.8048 82.1378L42.9126 116.955H68.1805L75.7938 82.1378H50.8048ZM-72.8112 -104.144H-96.2415L-105.249 -73.5497H-81.5731L-72.8112 -104.144ZM155.814 152.927L155.601 154H175.29L175.487 152.927L180.262 126.502H160.77L155.814 152.927ZM629.506 112.882H648.917L649.606 86.1302H630.392L629.506 112.882ZM600.383 112.882H619.777L620.728 86.1302H601.515L600.383 112.882ZM542.102 112.882H561.496L562.973 86.1302H543.743L542.102 112.882ZM308.997 112.882H328.391L331.935 86.1302H312.705L308.997 112.882ZM458.308 72.8631H477.603L479.786 46.8043H460.818L458.308 72.8631ZM314.559 72.8631H333.691L337.153 46.8043H318.169L314.559 72.8631ZM-120.082 152.981V154.054L-119.787 152.981L-112.452 126.556H-120.082V152.981ZM-1.71646 72.8631H17.4315L23.6499 46.8043H4.68261L-1.71646 72.8631ZM147.332 -135.227H129.529L124.607 -112.292H142.557L147.332 -135.227ZM40.8289 -100.641L35.0534 -77.1347H53.2331L58.8446 -100.641H40.8289ZM627.291 152.927V154H648.933V152.927L649.655 125.144H628.21L627.291 152.927ZM302.533 152.927L302.385 154H324.01L324.158 152.927L327.833 125.144H306.388L302.533 152.927ZM213.931 152.927L213.75 154H235.392L235.573 152.927L240.035 125.144H218.607L213.931 152.927ZM395.351 114.24H416.681L419.717 84.7994H398.567L395.351 114.24ZM428.528 74.1803H449.71L452.385 45.5143H431.514L428.528 74.1803ZM604.403 -2.81476H624.929L625.897 -29.9735H605.584L604.403 -2.81476ZM-71.0721 114.24H-49.742L-42.1616 84.7994H-63.3112L-71.0721 114.24ZM62.2081 7.24756H41.6165L35.0534 35.1804H55.924L62.2081 7.24756ZM88.5919 -76.1569V-75.9397H108.609L110.25 -83.354L114.286 -101.808H94.4658L88.5919 -76.1569ZM477.275 -145.412H496.8L498.933 -170.126H479.589L477.275 -145.412ZM660.829 149.872H674.496L674.825 130.671H661.19L660.829 149.872ZM572.342 149.872H586.059L586.961 130.671H573.326L572.342 149.872ZM70.9371 149.872H84.654L88.6902 130.671H75.0719L70.9371 149.872ZM458.029 108.876H471.565L473.206 90.1768H459.768L458.029 108.876ZM428.938 108.876H442.474L444.246 90.1768H430.792L428.938 108.876ZM225.252 108.876H238.788L241.824 90.1768H228.369L225.252 108.876ZM605.206 68.8708H618.562L619.219 50.6608H605.945L605.206 68.8708ZM436.781 30.0066H449.907L451.548 12.2584H438.422L436.781 30.0066ZM408.445 30.0066H421.571L423.425 12.2584H410.299L408.445 30.0066ZM395.318 12.2584H382.192L380.092 30.0066H393.218L395.318 12.2584ZM471.828 -44.775H484.675L486.119 -61.627H473.354L471.828 -44.775ZM321.401 -61.627H308.603L306.126 -44.775H318.973L321.401 -61.627ZM21.5825 108.767H35.1189L39.4177 90.0681H25.9798L21.5825 108.767ZM-119.983 94.8889V108.767H-110.369L-105.167 90.0681H-118.622L-119.983 94.8889ZM-55.1893 68.8572H-41.8333L-37.1243 50.6472H-50.3983L-55.1893 68.8572ZM693.201 -80.6925H705.884L705.999 -97.1235H693.398L693.201 -80.6925ZM556.853 -80.6925H569.487L570.406 -97.1235H557.804L556.853 -80.6925ZM151.204 -97.1235V-97.042L147.922 -80.7468H160.605L163.887 -97.1778H151.286L151.204 -97.1235ZM384.982 -131.792H372.594L370.477 -115.809H382.996L384.982 -131.792ZM343.536 -115.809H356.071L358.204 -131.819H345.751L343.536 -115.809ZM117.223 -131.819H104.77L101.177 -115.809H113.696L117.223 -131.819ZM732.99 -165.659H720.701V-150.015H733.072L732.99 -165.659ZM362.716 -165.659H350.41L350.131 -163.554L348.261 -149.974H360.632L362.716 -165.659ZM490.024 -247.814H501.952L503.199 -262.357H491.337L490.024 -247.814ZM717.928 127.846L717.846 152.574H735.533V127.846H717.928ZM540.724 152.574H558.395L559.773 127.846H542.233L540.724 152.574ZM511.19 152.574H528.878L530.518 127.846H512.978L511.19 152.574ZM393.054 152.574H410.742L413.301 127.846H395.778L393.054 152.574ZM186.415 152.574H204.086L208.336 127.846H190.796L186.415 152.574ZM735.32 87.393H718.026V111.469H735.468L735.32 87.393ZM172.091 71.5866H189.303L193.536 48.1487H176.472L172.091 71.5866ZM136.519 48.1487H119.438L114.615 71.5866H131.826L136.519 48.1487ZM735.205 9.77335H718.354L718.272 32.6138H735.205V9.77335ZM338.137 32.6138L341.173 9.77335H324.322L321.155 32.6138H338.137ZM284.894 9.77335H268.044L264.434 32.6138H281.416L284.894 9.77335ZM735.09 -27.5428H718.453V-5.29977H735.205L735.09 -27.5428ZM231.208 -5.29977L235.031 -27.5428H218.361L214.407 -5.29977H231.208ZM663.224 -42.2628H679.78L680.157 -63.9898H663.749L663.224 -42.2628ZM296.134 -63.9898H279.726L276.297 -42.2628H292.852L296.134 -63.9898ZM-97.5049 111.524H-80.0635L-73.6152 87.4473H-90.9254L-97.5049 111.524ZM545.318 -99.5135H529.091L527.581 -78.3568H543.989L545.318 -99.5135ZM79.9778 -78.3568L84.9001 -99.5135H68.6729L63.7505 -78.3568H79.9778ZM428.249 145.621H436.042L437.093 134.69H429.332L428.249 145.621ZM693.808 104.734H701.504V94.1013H693.841L693.808 104.734ZM722.932 64.9328H730.529V54.6124H722.981L722.932 64.9328ZM701.947 54.5717H694.383L694.268 64.9328H701.848L701.947 54.5717ZM559.068 54.5717H551.438L550.815 64.9328H558.411L559.068 54.5717ZM522.216 64.9328H529.796L530.485 54.5717H522.922L522.216 64.9328ZM387.672 54.5717H380.125L378.894 64.9328H386.491L387.672 54.5717ZM235.523 64.9328H242.972L244.613 54.5717H237.049L235.523 64.9328ZM645.947 16.047H638.399L638.088 26.1365H645.57L645.947 16.047ZM561.332 16.047H553.867L553.276 26.1365H560.758L561.332 16.047ZM187.235 16.047L185.365 26.1365H192.863L194.701 16.047H187.235ZM157.078 26.1365H164.56L166.496 16.047H159.047L157.078 26.1365ZM452.122 -21.4728H444.755L443.803 -11.6414H451.187L452.122 -21.4728ZM340.763 -21.4728H333.396L332.05 -11.6414H339.434L340.763 -21.4728ZM312.869 -21.4728H305.502L304.058 -11.6414H311.458L312.869 -21.4728ZM284.976 -21.4728H277.609L276.083 -11.6414H283.467L284.976 -21.4728ZM620.466 -58.0285H613.181L612.803 -48.4415H620.105L620.466 -58.0285ZM557.64 -48.4415H564.942L565.483 -58.0285H558.215L557.64 -48.4415ZM530.059 -48.4415H537.36L538 -58.0285H530.715L530.059 -48.4415ZM15.889 145.662H23.6827L26.2096 134.731H18.4323L15.889 145.662ZM-72.4831 145.662H-64.6894L-61.8509 134.731H-69.6118L-72.4831 145.662ZM-79.9649 64.9735H-72.3846L-69.5953 54.6124H-77.1429L-79.9649 64.9735ZM-115.619 16.0877H-120V26.1772H-118.54L-115.619 16.0877ZM-31.2011 -11.6006H-23.8177L-21.2581 -21.4321H-28.6252L-31.2011 -11.6006ZM-19.0267 -57.9878L-21.537 -48.4007H-14.2356L-11.758 -57.9878H-19.0267ZM676.137 -93.5929H668.951L668.754 -84.2503H675.957L676.137 -93.5929ZM377.516 -93.5929H370.329L369.148 -84.2503H376.351L377.516 -93.5929ZM132.647 -90.877L133.221 -93.5929H126.034L124.902 -88.2698L124.033 -84.1959H131.236L132.647 -90.877ZM623.124 -128.383H616.036L615.658 -119.271H622.779L623.124 -128.383ZM518.491 -162.332H511.485L510.78 -153.437H517.802L518.491 -162.332ZM174.24 -162.332H167.234L165.413 -153.437H172.419L174.24 -162.332ZM207.056 -195.425H200.132L198.491 -186.747H205.431L207.056 -195.425ZM154.731 -195.425H147.807L145.953 -186.747H152.894L154.731 -195.425ZM60.1245 -128.41H53.0198L50.8048 -119.299H57.9257L60.1245 -128.41ZM33.3141 -128.41H26.226L23.9124 -119.299H31.0334L33.3141 -128.41ZM6.50385 -128.41H-0.584221L-2.97989 -119.299H4.14102L6.50385 -128.41ZM-76.5522 -119.299L-73.927 -128.41H-81.0151L-83.6731 -119.299H-76.5522ZM-90.5973 -162.332H-97.6033L-100.294 -153.437H-93.2554L-90.5973 -162.332ZM66.0641 -259.261H59.3041L57.2203 -250.991H63.9967L66.0641 -259.261ZM1570.66 51.9509L1572.21 57.4505L1574.07 63.9008V51.9509H1570.66ZM1535.56 91.4126H1524.07L1528.32 107.423H1539.91L1535.56 91.4126ZM1304.11 91.4126H1292.63L1295.64 107.423H1307.23L1304.11 91.4126ZM1275.18 91.4126H1263.7L1266.57 107.423H1278.15L1275.18 91.4126ZM1190.85 107.423L1188.39 91.4126H1176.9L1179.3 107.423H1190.85ZM1159.46 91.4126H1147.97L1150.22 107.423H1161.81L1159.46 91.4126ZM1557.82 67.54L1553.48 51.9509H1542.11L1546.4 67.54H1557.82ZM1450.73 28.703H1462.07L1458.28 13.5212H1447.06L1450.73 28.703ZM1306.19 13.5756L1309.2 28.7573H1320.49L1317.42 13.5756H1306.19ZM1120.16 13.5756H1108.94L1110.91 28.7573H1122.2L1120.16 13.5756ZM1504.58 -23.8763H1493.49L1497.43 -9.07483H1508.57L1504.58 -23.8763ZM1256.97 -9.07483L1254.26 -23.8763H1243.19L1245.83 -9.07483H1256.97ZM1217.87 -9.07483H1229.01L1226.45 -23.8763H1215.36L1217.87 -9.07483ZM1106.04 -9.07483H1117.16L1115.18 -23.8763H1104.1L1106.04 -9.07483ZM1128.83 -45.9428H1139.82L1137.74 -60.3642H1126.81L1128.83 -45.9428ZM1112.21 -45.9428L1110.27 -60.3642H1099.34L1101.21 -45.9428H1112.21ZM1018.4 -45.9428H1029.4L1027.89 -60.3642H1016.94L1018.4 -45.9428ZM1189.08 -81.8603L1186.78 -95.9285H1175.98L1178.21 -81.8603H1189.08ZM1443.66 -151.115L1440.18 -164.491H1429.63L1433.06 -151.115H1443.66ZM1257.53 -151.115L1254.95 -164.491H1244.42L1246.95 -151.115H1257.53ZM1044.84 -151.115L1043.29 -164.491H1032.74L1034.24 -151.115H1044.84ZM1558.4 -20.142H1552.9L1555 -12.7956H1560.52L1558.4 -20.142ZM1538.86 136.129L1541.04 144.277H1546.86L1544.67 136.129H1538.86ZM1450.78 136.129L1452.72 144.277H1458.54L1456.57 136.129H1450.78ZM1239.68 103.444H1245.42L1244.06 95.4999H1238.33L1239.68 103.444ZM1100.21 103.444L1099.24 95.4999H1093.5L1094.47 103.444H1100.21ZM1424.33 24.9279H1429.93L1428.12 17.3778H1422.69L1424.33 24.9279ZM1355.42 -56.752H1349.99L1351.55 -49.5821H1357.06L1355.42 -56.752ZM1158.53 -85.4453L1157.46 -92.425H1152.09L1153.14 -85.4453H1158.53ZM1287.62 -120.399L1286.24 -127.188H1280.94L1282.31 -120.399H1287.62ZM1300.3 -187.793L1298.94 -194.27H1293.77L1295.12 -187.793H1300.3ZM1189.78 -220.275L1188.7 -226.603H1183.58L1184.66 -220.275H1189.78ZM1107.48 -251.983L1106.61 -258.175H1101.54L1102.43 -251.983H1107.48ZM1574.12 87.6783V82.1378H1572.48L1574.12 87.6783ZM1244.57 42.8663H1219.96L1225.62 76.8148H1250.56L1244.57 42.8663ZM1180.91 -0.356903L1175.88 -32.5536H1151.96L1156.7 -0.356903H1180.91ZM1044.43 -0.356903H1068.73L1065 -32.4992H1040.98L1044.43 -0.356903ZM1360.85 -73.604L1354.01 -104.198H1330.58L1337.14 -73.604H1360.85ZM1431.89 126.447H1412.4L1418.37 152.873L1418.6 153.946H1438.29L1438.03 152.873L1431.89 126.447ZM1256.33 126.447H1236.86L1241.29 152.873L1241.47 153.946H1261.16L1260.98 152.873L1256.33 126.447ZM1527.45 46.75H1508.47L1515.36 72.8088H1534.51L1527.45 46.75ZM1071.45 46.75H1052.48L1055.34 72.8088H1074.48L1071.45 46.75ZM1023.98 46.75L1026.59 72.8088H1045.72L1042.95 46.75H1023.98ZM1298.96 -4.11838H1317.61L1312.58 -28.86H1294.05L1298.96 -4.11838ZM1565.26 -112.346L1558.38 -135.282H1540.58L1547.31 -112.346H1565.26ZM1475.7 -77.189H1493.88L1487.52 -100.695H1469.47L1475.7 -77.189ZM1227.82 125.144H1206.39L1210.77 152.927L1210.95 154H1232.57L1232.41 152.927L1227.82 125.144ZM1198.56 125.144H1177.13L1181.25 152.927L1181.41 154H1203.04L1202.88 152.927L1198.56 125.144ZM1480.97 84.7994H1459.77L1466.97 114.24H1488.3L1480.97 84.7994ZM1365.51 84.7994H1344.36L1350.43 114.24H1371.76L1365.51 84.7994ZM1055.68 84.7994L1058.96 114.24H1080.29L1076.85 84.7994H1055.68ZM1553.64 35.1804L1545.75 7.24756H1525.14L1532.79 35.1804H1553.64ZM1264.62 7.24756H1244.01L1248.93 35.1804H1269.72L1264.62 7.24756ZM1346.82 -2.81476L1341.03 -29.9735H1320.68L1326.29 -2.81476H1346.82ZM1130.24 -2.81476H1150.76L1146.79 -29.9735H1126.46L1130.24 -2.81476ZM1542.32 -101.808H1522.5L1529.82 -75.9397H1549.83L1542.32 -101.808ZM1236.56 -145.466L1231.9 -170.126H1212.56L1216.92 -145.507L1236.56 -145.466ZM1123.35 130.616L1125.84 149.817H1139.56L1136.98 130.616H1123.35ZM1387.12 130.616L1391.3 149.817H1405.02L1400.75 130.616H1387.12ZM1357.81 130.616L1361.8 149.817H1375.52L1371.45 130.616H1357.81ZM1328.51 130.616L1332.3 149.817H1346.02L1342.14 130.616H1328.51ZM1299.21 130.616L1302.81 149.817H1316.53L1312.76 130.616H1299.21ZM1152.65 130.616L1155.34 149.817H1169.06L1166.29 130.616H1152.65ZM1094.03 130.616L1096.34 149.817H1110.07L1107.66 130.616H1094.03ZM1565.29 90.1225H1551.85L1556.99 108.821H1570.36L1565.29 90.1225ZM1420.7 90.1225H1407.25L1411.5 108.821H1425.04L1420.7 90.1225ZM1131.52 90.1225H1118.08L1120.51 108.821H1133.91L1131.52 90.1225ZM1468.66 50.7423H1455.39L1459.87 68.9522H1473.23L1468.66 50.7423ZM1373.58 68.8708H1386.94L1382.9 50.6608H1369.63L1373.58 68.8708ZM1126.07 50.6608H1112.8L1115.16 68.8708H1128.52L1126.07 50.6608ZM1097.54 50.6608H1084.26L1086.45 68.8708H1099.8L1097.54 50.6608ZM1306.52 -44.7614L1303.13 -61.6134H1290.34L1293.63 -44.7614H1306.52ZM1534.59 -115.822L1529.96 -131.832H1517.51L1522.07 -115.822H1534.59ZM1259.37 -80.7332H1272.05L1268.88 -97.1642H1256.28L1259.37 -80.7332ZM1026.64 -80.7332L1024.9 -97.1642H1012.28L1013.92 -80.7332H1026.64ZM1130.63 -115.809L1128.32 -131.819H1115.86L1118.11 -115.809H1130.63ZM1267.34 127.846L1271.74 152.574H1289.43L1284.86 127.873L1267.34 127.846ZM1450.81 87.4338H1433.52L1439.18 111.51H1456.64L1450.81 87.4338ZM1393.02 87.4338H1375.73L1380.93 111.51H1398.37L1393.02 87.4338ZM1335.24 87.4338H1317.94L1322.68 111.51H1340.13L1335.24 87.4338ZM1219.68 87.4338H1202.37L1206.19 111.51H1223.63L1219.68 87.4338ZM1029.02 87.4338L1031.43 111.51H1048.87L1046.33 87.4338H1029.02ZM1343.49 71.5866H1360.7L1355.78 48.1487H1338.7L1343.49 71.5866ZM1156.15 48.1487H1139.07L1142.35 71.5866H1159.56L1156.15 48.1487ZM1193.64 32.6546H1210.62L1206.86 9.81409H1190.01L1193.64 32.6546ZM1519.89 -78.2753L1513.97 -99.5135H1497.74L1503.55 -78.3568L1519.89 -78.2753ZM1281.04 -99.5135L1285.21 -78.3568H1301.62L1297.27 -99.5135H1281.04ZM1566.91 134.731L1569.93 145.662H1574.13V134.731H1566.91ZM1478.87 134.731L1481.56 145.662H1489.35L1486.68 134.731H1478.87ZM1067.97 134.731L1069.2 145.662H1076.99L1075.75 134.731H1067.97ZM1432.96 64.9735H1440.54L1438.06 54.6124H1430.5L1432.96 64.9735ZM1318.25 64.9735H1325.88L1323.8 54.6124H1316.24L1318.25 64.9735ZM1201.89 54.6124L1203.53 64.9735H1211.13L1209.49 54.6124H1201.89ZM1180.87 54.6124H1173.29L1174.93 64.9735H1182.51L1180.87 54.6124ZM1374.63 26.2044L1372.42 16.1149H1364.95L1367.15 26.2044H1374.63ZM1090.38 16.1149H1082.92L1084.15 26.2044H1091.63L1090.38 16.1149ZM1450.12 -11.5734L1447.66 -21.4049H1440.3L1442.72 -11.5734H1450.12ZM1191.29 -11.5734H1198.69L1197.05 -21.4049H1189.7L1191.29 -11.5734ZM1438.54 -57.9606H1431.27L1433.63 -48.3736H1440.94L1438.54 -57.9606ZM1247.87 -48.3736L1246.13 -57.9606H1238.92L1240.56 -48.3736H1247.87ZM1157.82 -48.3736H1165.09L1163.63 -57.9606H1156.36L1157.82 -48.3736ZM1073.93 -57.9606L1075.09 -48.3736H1082.38L1081.2 -57.9606H1073.93ZM1568.14 -84.2503L1565.37 -93.5929H1558.19L1560.94 -84.2503H1568.14ZM1572.28 -153.383H1574.13L1572.28 -159.358L1571.39 -162.277H1564.39L1567.09 -153.383H1572.28ZM1537.64 -186.693L1535.05 -195.37H1528.13L1530.7 -186.693H1537.64ZM981.699 131.988L983.077 148.432H994.825L993.381 131.988H981.699ZM747.068 131.988L747.183 148.432H758.914L758.75 131.988H747.068ZM872.144 52.0052H860.774L861.479 67.5943H872.965L872.144 52.0052ZM899.348 28.7573L898.462 13.5756H887.239L888.06 28.7573H899.348ZM813.962 13.5756H802.739L803.133 28.7573H814.422L813.962 13.5756ZM979.779 -23.8763H968.687L969.934 -9.07483H981.059L979.779 -23.8763ZM864.925 -95.9557H854.128L854.752 -81.8875H865.614L864.925 -95.9557ZM772.762 -95.9557L772.976 -81.8875H783.838L783.559 -95.9557H772.762ZM888.043 -164.504H877.51L878.231 -151.129H888.831L888.043 -164.504ZM955.217 -184.48H965.685L964.536 -197.543H954.117L955.217 -184.48ZM813.634 103.403L813.404 95.4592H807.678L807.891 103.403H813.634ZM955.217 55.8753H949.572L950.147 63.6155H955.807L955.217 55.8753ZM754.894 24.9279V17.3778H749.316V24.9279H754.894ZM748.988 -20.1556V-12.8091H754.517V-20.1556H748.988ZM747.757 -187.779H752.942V-194.257H747.773L747.757 -187.779ZM957.284 -251.969L956.743 -258.161H951.689L952.214 -251.969H957.284ZM937.332 112.895L935.478 86.1438H916.248L917.889 112.895H937.332ZM887.371 86.1438L888.798 112.895H908.192L906.551 86.1438H887.371ZM848.845 86.1438H829.615L830.518 112.895H849.928L848.845 86.1438ZM742.785 46.7635L742.917 72.8224H762.048L761.753 46.7635H742.785ZM939.17 125.103H917.725L919.464 152.886V153.959H941.106V152.886L939.17 125.103ZM760.178 -170.126H740.833L740.948 -145.507H760.457L760.178 -170.126ZM951.295 130.616L952.706 149.817H966.44L964.93 130.616H951.295ZM863.366 130.616L864.236 149.817H877.953L877.001 130.616H863.366ZM745.903 90.1225L746.001 108.821H759.538L759.341 90.1225H745.903ZM889.34 68.8708H902.695L901.629 50.6608H888.355L889.34 68.8708ZM757.766 -61.6134H745.05L745.148 -44.7614H757.995L757.766 -61.6134ZM963.043 -80.7332H975.726L974.282 -97.1642H961.632L963.043 -80.7332ZM996.236 -149.988L994.727 -165.631H982.421L983.865 -149.988H996.236ZM755.83 -247.76L755.682 -262.303H743.819V-247.76H755.83ZM1007.7 127.9L1009.99 152.628H1027.67L1025.24 127.9H1007.7ZM832.011 127.9L832.864 152.628H850.535L849.551 127.9H832.011ZM802.723 127.9L803.33 152.628H821.018L820.263 127.9H802.723ZM1021.29 87.4881H1003.98L1006.2 111.564H1023.64L1021.29 87.4881ZM1013.68 9.80051H996.827L998.927 32.641H1015.91L1013.68 9.80051ZM1010.02 -27.5428H993.381L995.432 -5.29977H1012.2L1010.02 -27.5428ZM953.297 -42.2628L951.656 -63.9898H935.248L936.889 -42.2628H953.297ZM813.355 -99.5135H797.144L797.653 -78.3568H814.061L813.355 -99.5135ZM988.147 94.1013H980.485L981.371 104.734H989.066L988.147 94.1013ZM1006.7 64.9328H1014.28L1013.28 54.5717H1005.74L1006.7 64.9328ZM984.718 54.5717H977.154L978.023 64.9328H985.62L984.718 54.5717ZM834.652 64.9328H842.233L841.839 54.5717H834.275L834.652 64.9328ZM813.322 54.5717H805.758L806.021 64.9328H813.618L813.322 54.5717ZM925.699 26.1636L925.026 16.0742H917.561L918.217 26.1636H925.699ZM833.307 26.1636H840.805L840.412 16.0742H832.946L833.307 26.1636ZM892.539 -58.0285H885.27L885.796 -48.4415H893.097L892.539 -58.0285ZM837.934 -48.4415L837.573 -58.0285H830.288L830.633 -48.4415H837.934ZM945.487 -84.3182L944.765 -93.6608H937.595L938.284 -84.3182H945.487ZM780.769 -153.451L780.589 -162.345H773.599L773.73 -153.451H780.769ZM1477.08 -119.312L1474.64 -128.424H1467.55L1469.98 -119.312H1477.08ZM1443.07 -119.312H1450.19L1447.83 -128.424H1440.74L1443.07 -119.312ZM1416.18 -119.312H1423.3L1421.02 -128.424H1413.93L1416.18 -119.312ZM1342.6 -119.312L1340.59 -128.424H1333.5L1335.48 -119.312H1342.6ZM1235.02 -119.312L1233.38 -128.424H1226.29L1227.93 -119.312H1235.02ZM1301.49 -153.451H1308.51L1306.64 -162.345H1299.63L1301.49 -153.451ZM1416.04 -251.005L1413.91 -259.275H1407.15L1409.27 -251.005H1416.04Z" fill="#ffc039"/>
</g>
</svg>
