<svg id="Layer_1" data-name="Layer 1" xmlns="http://www.w3.org/2000/svg" viewBox="0 0 535.1 115.53">
  <defs>
    <style>
      .cls-1 {
        fill: #bcbec0;
      }
    </style>
  </defs>
  <g>
    <path class="cls-1" d="M26.83,0C37.15,0,43.27,5.19,46.34,10.92L35,16.71a9.21,9.21,0,0,0-8.19-4.86C20.37,11.85,16,16.78,16,23s4.33,11.12,10.79,11.12a12.72,12.72,0,0,0,7.26-2V30.16H25.5v-11H47.13V37a26.34,26.34,0,0,1-20.3,9C13.38,45.94,2.4,37.15,2.4,23S13.38,0,26.83,0Z"/>
    <path class="cls-1" d="M75,0c13.71,0,24.3,9.32,24.3,23s-10.59,23-24.3,23-24.3-9.32-24.3-23S61.31,0,75,0Zm0,11.85c-6.46,0-10.65,4.93-10.65,11.12S68.57,34.09,75,34.09,85.68,29.16,85.68,23,81.48,11.85,75,11.85Z"/>
    <path class="cls-1" d="M126,0c13.71,0,24.3,9.32,24.3,23s-10.59,23-24.3,23-24.3-9.32-24.3-23S112.31,0,126,0Zm0,11.85c-6.46,0-10.65,4.93-10.65,11.12S119.56,34.09,126,34.09,136.67,29.16,136.67,23,132.48,11.85,126,11.85Z"/>
    <path class="cls-1" d="M155.11.73H175c14,0,24.37,8,24.37,22.17S188.93,45.14,175,45.14H155.11ZM175,33.42A10.27,10.27,0,0,0,185.67,22.9c0-6-3.46-10.45-10.65-10.45h-6.46v21Z"/>
    <path class="cls-1" d="M221.08.73h13.45V33.42h16.84V45.14H221.08Z"/>
    <path class="cls-1" d="M255.43.73h13.65v25.7c0,4.26,2.2,7.66,7.72,7.66s7.66-3.4,7.66-7.66V.73h13.65v26.1c0,11.05-6.33,19.11-21.31,19.11s-21.37-8.06-21.37-19Z"/>
    <path class="cls-1" d="M302.9,23c0-13.72,10.52-23,24.1-23,12,0,17.84,6.79,20.5,12.92l-11.58,5.39A9.51,9.51,0,0,0,327,11.85c-6.13,0-10.45,4.93-10.45,11.12S320.87,34.09,327,34.09a9.51,9.51,0,0,0,8.92-6.46L347.5,33c-2.59,5.92-8.52,13-20.5,13C313.42,45.94,302.9,36.62,302.9,23Z"/>
    <path class="cls-1" d="M367.61,29.49l-2.47,3.33V45.14H351.7V.73h13.44V17.38L376.79.73h16.45L376.46,21.37,394,45.14H377.59Z"/>
    <path class="cls-1" d="M435.24,0c13.72,0,24.3,9.32,24.3,23s-10.58,23-24.3,23-24.3-9.32-24.3-23S421.53,0,435.24,0Zm0,11.85c-6.46,0-10.65,4.93-10.65,11.12s4.19,11.12,10.65,11.12S445.89,29.16,445.89,23,441.7,11.85,435.24,11.85Z"/>
    <path class="cls-1" d="M477.78,21.3V45.14H464.33V.73h13.85L493.62,23.1V.73h13.45V45.14H494.16Z"/>
    <path class="cls-1" d="M16.64,97.09,0,70.33H15.11l8.26,15,8.12-15H46.6L30.09,97.09v17.64H16.64Z"/>
    <path class="cls-1" d="M68.24,69.6c13.71,0,24.3,9.32,24.3,23s-10.59,23-24.3,23-24.3-9.32-24.3-23S54.52,69.6,68.24,69.6Zm0,11.85c-6.46,0-10.66,4.92-10.66,11.12s4.2,11.11,10.66,11.11,10.65-4.92,10.65-11.11S74.69,81.45,68.24,81.45Z"/>
    <path class="cls-1" d="M97.33,70.33H111V96c0,4.26,2.2,7.65,7.73,7.65s7.65-3.39,7.65-7.65V70.33H140v26.1c0,11-6.32,19.1-21.3,19.1s-21.37-8-21.37-19Z"/>
    <path class="cls-1" d="M165.5,100.49h-4.86v14.24H147.19V70.33h23.7c10.38,0,16,6.92,16,15.25,0,7.65-4.46,11.71-8,13.44l8.05,15.71H171.62Zm3.32-19h-8.18V89.3h8.18c2.27,0,4.4-1.46,4.4-3.92S171.09,81.51,168.82,81.51Z"/>
    <path class="cls-1" d="M211.16,101.69a10.44,10.44,0,0,0,5.73,2,4.62,4.62,0,0,0,4.92-5V70.33h13.45V98.89c0,11.38-6.85,16.64-17.17,16.64-4.33,0-8.92-.93-12.39-3.59Z"/>
    <path class="cls-1" d="M264.35,69.6c13.72,0,24.3,9.32,24.3,23s-10.58,23-24.3,23-24.3-9.32-24.3-23S250.64,69.6,264.35,69.6Zm0,11.85c-6.45,0-10.65,4.92-10.65,11.12s4.2,11.11,10.65,11.11S275,98.76,275,92.57,270.81,81.45,264.35,81.45Z"/>
    <path class="cls-1" d="M293.44,70.33h13.65V96c0,4.26,2.2,7.65,7.72,7.65s7.66-3.39,7.66-7.65V70.33h13.65v26.1c0,11-6.33,19.1-21.31,19.1s-21.37-8-21.37-19Z"/>
    <path class="cls-1" d="M361.61,100.49h-4.86v14.24H343.31V70.33H367c10.38,0,16,6.92,16,15.25,0,7.65-4.46,11.71-8,13.44l8.06,15.71H367.74Zm3.33-19h-8.19V89.3h8.19c2.27,0,4.4-1.46,4.4-3.92S367.21,81.51,364.94,81.51Z"/>
    <path class="cls-1" d="M401.89,90.9v23.83H388.44V70.33h13.85L417.73,92.7V70.33h13.45v44.4H418.27Z"/>
    <path class="cls-1" d="M438.37,70.33h33.69V81.51H451.82v5.2h19.77V97.89H451.82v5.66h20.24v11.18H438.37Z"/>
    <path class="cls-1" d="M489.9,97.09,473.25,70.33h15.11l8.26,15,8.12-15h15.11L503.34,97.09v17.64H489.9Z"/>
    <path class="cls-1" d="M520.85,70.33H535.1l-1.67,27.89H522.65Zm7.19,31a7.09,7.09,0,1,1-7.06,7.12A7.16,7.16,0,0,1,528,101.29Z"/>
  </g>
</svg>
