<svg xmlns="http://www.w3.org/2000/svg" xmlns:xlink="http://www.w3.org/1999/xlink" viewBox="0 0 50 50">
  <defs>
    <style>
      .cls-1, .cls-2 {
        fill: none;
      }

      .cls-2 {
        stroke: #a5a7aa;
        stroke-miterlimit: 10;
        stroke-width: 1.85px;
      }

      .cls-3 {
        clip-path: url(#clip-path);
      }

      .cls-4 {
        fill: #0095ff;
      }

      .cls-5 {
        fill: #fff;
      }
    </style>
    <clipPath id="clip-path">
      <circle class="cls-1" cx="25.28" cy="25" r="23.94" transform="translate(-7.64 11.58) rotate(-22.5)"/>
    </clipPath>
  </defs>
  <g id="Flags">
    <g>
      <circle class="cls-2" cx="25.28" cy="25" r="23.94" transform="translate(-3.45 45.95) rotate(-80.78)"/>
      <g class="cls-3">
        <g>
          <rect class="cls-4" x="-0.18" y="1.1" width="71.82" height="47.88"/>
          <g>
            <polygon class="cls-5" points="16.02 17.17 26.74 17.17 26.74 11.86 16.02 11.86 16.02 1.1 10.66 1.1 10.66 11.86 -0.18 11.86 -0.18 17.17 10.66 17.17 10.66 27.82 -0.18 27.82 -0.18 33.14 71.65 33.14 71.65 27.82 16.02 27.82 16.02 17.17"/>
            <rect class="cls-5" x="26.74" y="6.54" width="44.91" height="5.32"/>
            <rect class="cls-5" x="26.74" y="17.17" width="44.91" height="5.32"/>
            <rect class="cls-5" x="-0.18" y="38.46" width="71.82" height="5.32"/>
          </g>
        </g>
        <circle class="cls-1" cx="25.28" cy="25" r="23.94" transform="translate(-7.64 11.58) rotate(-22.5)"/>
      </g>
    </g>
  </g>
</svg>
