<svg xmlns="http://www.w3.org/2000/svg" viewBox="0 0 86.07 39.97">
  <defs>
    <style>
      .cls-1 {
        fill: #f5fffe;
      }

      .cls-2 {
        fill: #ffd255;
      }

      .cls-3 {
        fill: none;
        stroke: #515151;
        stroke-miterlimit: 10;
        stroke-width: 1.85px;
      }
    </style>
  </defs>
  <g id="Design">
    <g>
      <g>
        <rect class="cls-1" y="12.17" width="60.5" height="24.86" rx="11.72"/>
        <rect class="cls-1" x="25.57" y="2.41" width="60.5" height="24.86" rx="11.72"/>
      </g>
      <rect class="cls-2" x="20.73" width="49.34" height="39.97" rx="7.87"/>
      <g>
        <path class="cls-3" d="M34.49,25.52c-.29-.27-1.06-1-1.32-1.31a8.92,8.92,0,0,0-3.29-1.92"/>
        <line class="cls-3" x1="56.74" y1="23.76" x2="60.63" y2="22.19"/>
        <path class="cls-3" d="M57.38,11.67,54.83,13a1.43,1.43,0,0,1-.76.22H49.38c-1.5,0-3.1-.46-4.5.06l-4,1.51-2.62,2.28-.77.72a.38.38,0,0,0,0,.5c.47.67,1.57,2.23,5,.13l5.94-.6"/>
        <path class="cls-3" d="M35.61,28.28c-1.21,1.23,1.27,3,2.81,2.3"/>
        <path class="cls-3" d="M44.43,28.79a2,2,0,0,1,1.72.67l.08.09c.47.63,0,1.28-.59,1.85h0c-.44.45-1.56,1.59-2.19,1.63-1.12.08-2-.53-1.9-1.28"/>
        <path class="cls-3" d="M43,26.59l-4.68,4c-.16.14-.26.12.05.63s2.16.88,2.64.75a8,8,0,0,0,1.68-1.12l0,0,.84-.84c.58-.59,1.72-1.63,1-2.52v0a2.12,2.12,0,0,0-1.31-.72.17.17,0,0,1-.09-.29h0a1.66,1.66,0,0,0,.27-2.34h0a1.58,1.58,0,0,0-2.29-.21l-1.21.81c.42-.28.2-.79-.2-1.25a1.68,1.68,0,0,0-2.38-.38l-3.73,2.37a1.39,1.39,0,0,0-.24,1.83c.78,1.09,1.71,1.21,2.21,1s.23-.11.3-.16l4.16-3.45"/>
        <g>
          <path class="cls-3" d="M47.37,27.76c1.4,1.06,2.91,2.84,3.57,2.87.35,0,.66-.2,1.1-.58a1.57,1.57,0,0,0,.68-1.12c0-.47-.32-.63-.66-.94-.93-.85-1.73-1.75-2.66-2.52"/>
          <path class="cls-3" d="M51.12,27.1c1.41,1,1.86,1.8,2.51,1.83.35,0,.66-.2,1.1-.58a1.57,1.57,0,0,0,.68-1.12,1.33,1.33,0,0,0-.47-1.14"/>
          <path class="cls-3" d="M51.91,23.4c1.4,1.06,3.05,3,3.7,3,.35,0,.66-.19,1.1-.58s.63-.49.66-1-.35-.73-.63-1.1c-1-1.19-1.83-2.18-2.5-3a4.21,4.21,0,0,0-1.76-1.3l-4-1.59"/>
          <path class="cls-3" d="M46.34,30.76l.55.37a4.6,4.6,0,0,0,1.14.48c.63,0,1.1-.64,1.68-1.23"/>
        </g>
        <path class="cls-3" d="M34,12.49l2.24,1a2.32,2.32,0,0,0,1.25.08l3.92-.87a2.59,2.59,0,0,1,.83,0l2.18.73"/>
        <path class="cls-3" d="M33.64,11.05a.79.79,0,0,1,.42,1l-5,11.17a.68.68,0,0,1-.88.36l-3.65-1.49a.68.68,0,0,1-.36-.9L29.08,10a.79.79,0,0,1,1-.41Z"/>
        <path class="cls-3" d="M57.4,10.34l4.14,13.41a.57.57,0,0,0,.73.38l4-1.34a.57.57,0,0,0,.37-.71L62.55,8.51a.58.58,0,0,0-.75-.37l-4,1.49A.57.57,0,0,0,57.4,10.34Z"/>
        <path class="cls-3" d="M52.48,19.43A6.55,6.55,0,0,0,57,19"/>
      </g>
    </g>
  </g>
</svg>
