<svg width="1440" height="333" viewBox="0 0 1440 333" fill="none" xmlns="http://www.w3.org/2000/svg">
<g style="mix-blend-mode:screen" opacity="0.5">
<path d="M25.465 20.9342H16.9149L20.1792 11.6631H28.7108L25.465 20.9342ZM114.213 11.6631H105.7L102.714 20.9342H111.264L114.213 11.6631ZM169.854 11.6631L167.109 20.9342H175.659L178.367 11.6631H169.854ZM85.2421 35.1932H76.6548L73.5574 44.6868H82.1818L85.2421 35.1932ZM314.521 68.7917L316.802 59.1497H308.14L305.841 68.7917H314.521ZM238.756 108.342H229.928L227.294 118.355H236.141L238.756 108.342ZM18.6953 143.814H27.6351L31.0292 133.615H22.1265L18.6953 143.814ZM354.842 44.6682H363.466L365.543 35.1746H356.956L354.842 44.6682ZM538.068 35.1746H529.481L527.96 44.6682H536.584L538.068 35.1746ZM549.604 44.6682H558.229L559.62 35.1746H551.032L549.604 44.6682ZM614.519 44.6682H623.143L623.626 40.7373L624.33 35.1746H615.724L614.537 44.6497L614.519 44.6682ZM636.163 44.6682H644.788L645.882 35.1746H637.295L636.163 44.6682ZM336.332 68.7731L338.52 59.1312H329.859L327.633 68.7731H336.332ZM388.041 93.3416H396.814L398.817 83.4957H390.081L388.041 93.3416ZM501.011 93.3416H506.965L507.41 90.5974L508.578 83.4957H499.824L498.192 93.3416H501.011ZM652.392 93.3416H661.165L662.24 83.4957H653.486L652.392 93.3416ZM349.463 108.324H340.635L338.409 118.337H347.238L349.463 108.324ZM538.476 118.337H547.323L548.807 108.324H539.978L538.476 118.337ZM560.732 118.337H569.598L570.989 108.324H562.161L560.732 118.337ZM649.647 118.337H658.513L659.588 108.324H650.76L649.647 118.337ZM624.386 143.795H633.326L634.513 133.597H625.61L624.386 143.795ZM646.828 143.795H655.749L656.862 133.597H647.959L646.828 143.795ZM715.007 133.597L714.71 137.101L714.117 143.795H723.056L723.909 133.597H715.007ZM77.9347 169.717H86.9485L90.1571 159.333H81.1618L77.9347 169.717ZM191.072 169.717H200.085L202.867 159.333H193.872L191.072 169.717ZM216.425 159.333L213.699 169.717H222.713L225.421 159.333H216.425ZM115.344 196.121H124.451L127.548 185.552H118.478L115.344 196.121ZM0 223.045H1.2982L4.87788 212.272H0V223.045ZM575.978 169.736H584.992L586.365 159.352H577.388L575.978 169.736ZM338.112 223.045H347.238L349.519 212.272H340.375L338.112 223.045ZM499.583 223.045H508.856L510.544 212.272H501.382L499.583 223.045ZM684.107 223.045H693.381L694.382 212.272H685.22L684.107 223.045ZM325.278 13.9808H321.049L319.936 18.6164H324.184L325.278 13.9808ZM145.613 42.2577L147.022 37.548H142.756L141.328 42.2577H145.613ZM162.954 42.2577H167.238L168.611 37.548H164.345L162.954 42.2577ZM134.058 66.3626H138.361L139.808 61.5602H135.505L134.058 66.3626ZM155.869 66.3626H160.191L161.582 61.5602H157.279L155.869 66.3626ZM0.0740342 85.9803V87.8345L0.723362 85.9803H0.0740342ZM126.713 90.8755H131.072L132.537 85.9803H128.197L126.713 90.8755ZM30.2687 115.833H34.6643L36.315 110.864H31.9379L30.2687 115.833ZM297.958 110.864L296.771 115.833H301.167L302.354 110.864H297.958ZM362.873 18.635H367.12L368.14 13.9994H363.93L362.873 18.635ZM432.331 13.9994H428.084L427.175 18.635H431.423L432.331 13.9994ZM574.42 37.6222L573.753 42.3319H578.037L578.705 37.6222H574.42ZM686.148 42.3319L686.648 37.6222H682.383L681.9 42.3319H686.148ZM412.764 90.9311H417.123L418.087 86.0359H413.747L412.764 90.9311ZM447.614 141.292H452.047L452.956 136.23H448.541L447.614 141.292ZM56.0491 247.687H60.6487L62.3366 242.236H57.7555L56.0491 247.687ZM601.332 167.103H605.802L606.451 161.948H601.981L601.332 167.103ZM483.744 193.377H488.195L489.067 188.13H484.56L483.744 193.377ZM451.453 247.613H456.053L456.999 242.162H452.418L451.453 247.613ZM540.479 275.426H545.134L545.913 269.864H541.277L540.479 275.426ZM607.582 303.852H612.275L612.924 298.289H608.25L607.582 303.852ZM186.657 -0.241089H168.222L167.313 2.85549H185.86L186.657 -0.241089ZM81.0505 5.95207L74.3736 26.2372H92.9206L99.4492 5.95207H81.0505ZM157.483 26.2372L163.529 5.95207H144.982L138.787 26.2372H157.483ZM270.193 5.95207H251.646L246.268 26.2372H264.815L270.193 5.95207ZM323.98 50.0269L328.802 29.3894H310.255L305.284 50.0269H323.98ZM569.802 -3.07411e-05H551.366L550.884 3.09655H569.431L569.802 -3.07411e-05ZM562.958 66.752L561.845 74.4842H580.8L583.045 58.1485L583.694 53.4758H564.887L562.958 66.752ZM621.14 102.52H602L599.199 124.289H618.488L621.14 102.52ZM688.299 124.289H707.588L709.554 102.52H690.358L688.299 124.289ZM457.388 153.307H437.895L433.704 175.892H453.364L457.388 153.307ZM78.1572 0.0370899H64.0058L63.7462 0.815832H77.9161L78.1572 0.0370899ZM99.4492 0.0370899H85.2792L85.0196 0.815832H99.2081L99.4492 0.0370899ZM191.48 0.815832H205.65L205.872 0.0370899H191.702L191.48 0.815832ZM246.156 8.56647H231.949L227.702 24.142H242.002L246.156 8.56647ZM127.325 47.8946L132.203 32.041H117.848L112.914 47.8946H127.325ZM16.2101 55.9419H1.74331L0 60.8927V72.018H10.6089L16.2101 55.9419ZM124.859 55.9419H110.392L105.366 72.0736H119.907L124.859 55.9419ZM397.5 0.0370899H383.33L383.163 0.815832H397.315L397.5 0.0370899ZM418.792 0.0370899H404.622L404.455 0.815832H418.625L418.792 0.0370899ZM525.215 0.0370899H511.045L510.915 0.815832H525.085L525.215 0.0370899ZM459.762 8.56647H445.537L442.532 24.142H456.832L459.762 8.56647ZM587.867 8.56647H573.511L571.267 24.142H585.567L587.867 8.56647ZM345.902 72.0736H360.462L363.986 55.9419H349.519L345.902 72.0736ZM697.202 55.9419L695.644 72.0736H710.203L711.668 55.9419H697.202ZM733.405 55.9419H718.939L717.511 72.0736H732.07L733.405 55.9419ZM508.096 105.023H493.37L490.569 121.711H505.407L508.096 105.023ZM248.641 199.737H263.869L265.13 194.601L268.172 182.048H253.037L248.641 199.737ZM340.746 162.152L342.119 155.903H327.114L324.109 169.291L323.219 173.259H338.316L340.746 162.152ZM270.527 0.0370899H254.929L254.521 1.57607H270.119L270.527 0.0370899ZM140.438 7.78773H124.673L119.313 24.9393H135.059L140.438 7.78773ZM183.894 24.9393H199.64L204.481 7.78773H188.846L183.894 24.9393ZM62.8002 48.7475L68.5683 31.2993H52.7848L46.9239 48.7475H62.8002ZM38.9488 55.1817H23.0353L16.9149 72.9451H32.921L38.9488 55.1817ZM461.97 0.0927144H446.39L446.093 1.6317H461.691L461.97 0.0927144ZM610.958 0.0927144H595.36L595.156 1.6317H610.754L610.958 0.0927144ZM609.938 7.84336H594.303L591.966 24.9949H607.712L609.938 7.84336ZM631.285 7.84336H615.65L613.443 24.9949H629.153L631.285 7.84336ZM397.315 31.2066L393.605 48.6548H409.481L413.005 31.2066H397.315ZM499.212 31.2066H483.447L480.368 48.6548H496.245L499.212 31.2066ZM714.543 31.2066H698.778L697.09 48.6548H712.967L714.543 31.2066ZM337.575 79.4164H321.513L317.303 97.4951H333.476L337.575 79.4164ZM537.883 97.4951H554.037L556.689 79.4164H540.628L537.883 97.4951ZM486.711 104.17H470.52L470.093 106.599L467.274 122.583H483.577L486.711 104.17ZM623.106 122.583H639.409L641.523 104.17H625.443L623.106 122.583ZM276.759 174.093H293.451L297.94 154.995H281.433L276.759 174.093ZM518.037 227.587H534.971L535.787 222.025L537.864 207.803H521.06L518.037 227.587ZM659.588 21.7686H669.566V21.0084L670.661 10.8843H660.72L659.588 21.7686ZM307.436 10.8843H297.494L294.805 21.7686H304.783L307.436 10.8843ZM21.4588 34.3959H11.5362L7.64137 45.5212H17.7123L21.4588 34.3959ZM43.0105 34.3959H32.995L29.2856 45.5212H39.3382L43.0105 34.3959ZM193.928 34.3959H184.024L180.834 45.5212H190.905L193.928 34.3959ZM12.4636 94.176H22.7201L26.615 82.6984H16.4141L12.4636 94.176ZM38.4294 82.6984L34.5717 94.176H44.828L48.5374 82.6984H38.4294ZM70.5713 82.6984H60.3705L56.6611 94.176H66.9176L70.5713 82.6984ZM121.409 132.762H111.023L107.313 144.667H117.755L121.409 132.762ZM478.476 10.8843H468.535L466.551 21.7686H476.529L478.476 10.8843ZM499.843 10.8843H489.901L488.047 21.7686H498.044L499.843 10.8843ZM521.227 10.8843H511.286L509.431 21.7686H519.41L521.227 10.8843ZM542.594 10.8843H532.708L530.964 21.7686H540.943L542.594 10.8843ZM649.443 10.8843H639.502L638.203 21.7686H648.182L649.443 10.8843ZM692.101 11.3849V10.8843H682.16L681.659 15.8536L681.047 21.7686H691.025L692.101 11.3849ZM344.863 34.3959H334.848L332.27 45.5212H342.341L344.863 34.3959ZM452.659 34.3959H442.625L440.511 45.5212H450.582L452.659 34.3959ZM656.973 45.5212H667.044L668.231 34.3959H658.216L656.973 45.5212ZM392.214 69.6261H402.359L404.659 58.3524H394.551L392.214 69.6261ZM457.722 69.6261H467.886L469.908 58.3524H459.8L457.722 69.6261ZM654.321 69.6261H664.392L665.597 58.3524H655.489L654.321 69.6261ZM687.446 58.3524H677.375L676.206 69.6261H686.352L687.446 58.3524ZM490.847 132.781L488.863 144.685H499.323L501.178 132.781H490.847ZM248.938 158.462H238.459L235.362 170.589H245.897L248.938 158.462ZM60.315 184.662H49.7245L45.7925 197.011H56.4199L60.315 184.662ZM68.6426 197.011H79.27L82.9794 184.662H72.3891L68.6426 197.011ZM276.091 189.817L274.366 197.011H284.994L287.887 184.755V184.662H277.315L276.091 189.817ZM60.2593 223.935H70.9981L74.8558 211.363H64.1727L60.2593 223.935ZM509.098 158.462L507.243 170.589H517.778L519.632 158.462H509.098ZM710.982 170.589H721.517L722.537 158.462H712.058L710.982 170.589ZM617.245 197.085H627.873L629.301 184.736H618.711L617.245 197.085ZM74.3736 9.38234H61.5761L56.8836 23.4003H69.7368L74.3736 9.38234ZM223.881 9.38234H211.084L207.17 23.4003H220.023L223.881 9.38234ZM219.56 56.7763L215.609 71.2949H228.703L232.58 56.7763H219.56ZM263.034 56.7763L259.325 71.2949H272.419L276.128 56.7763H263.034ZM98.6701 95.9004H111.876L116.42 81.0666H103.288L98.6701 95.9004ZM142.775 95.9004H155.981L160.283 81.0666H147.152L142.775 95.9004ZM197.322 105.895H184.024L179.813 120.932H193.13L197.322 105.895ZM127.826 146.447H141.273L145.724 131.112H132.352L127.826 146.447ZM565.536 9.38234H552.757L550.624 23.4003H563.478L565.536 9.38234ZM417.049 47.1344H430.032L432.814 32.8754H419.831L417.049 47.1344ZM473.357 47.1344L475.898 32.8754H463.008L460.374 47.1344H473.357ZM519.002 32.8754H506.019L503.626 47.1344H516.609L519.002 32.8754ZM605.171 32.8754H592.188L590.334 47.1344H603.317L605.171 32.8754ZM734.444 32.8754H721.554L720.293 47.1344H733.276L734.444 32.8754ZM480.35 56.7763L477.79 71.2949H490.866L493.351 56.7763H480.35ZM630.748 71.2949H643.99L645.659 56.7763H632.677L630.748 71.2949ZM583.712 95.9004H596.899L598.847 81.0666H585.715L583.712 95.9004ZM301.371 172.424H314.929L318.49 156.812H304.987L301.371 172.424ZM482.65 172.424H496.226L498.767 156.812H485.283L482.65 172.424ZM48.0552 13.2762H42.4911L40.3769 19.4693H46.0522L48.0552 13.2762ZM75.4121 60.8185H69.6626L67.5667 67.2341H73.3348L75.4121 60.8185ZM184.265 60.8185H178.497L176.642 67.2341H182.429L184.265 60.8185ZM221.247 85.2201H215.554L213.699 91.747H219.523L221.247 85.2201ZM243.207 85.2201H237.402L235.696 91.747H241.519L243.207 85.2201ZM6.9737 116.742H12.853L15.2456 109.937H9.38468L6.9737 116.742ZM95.8324 116.742H101.712L103.771 110.085H97.9097L95.8324 116.742ZM125.934 110.085H120.073L118.052 116.742H123.931L125.934 110.085ZM140.271 116.742H146.151L148.098 110.085H142.219L140.271 116.742ZM347.497 13.2948H341.933L340.505 19.4879H346.18L347.497 13.2948ZM410.409 19.4879L411.67 13.2948H406.106L404.826 19.4879H410.409ZM711.112 13.2948H705.455L704.88 19.4879H710.444L711.112 13.2948ZM416.696 67.2527H422.464L423.726 60.837H417.957L416.696 67.2527ZM509.747 67.2527L510.804 60.837H505.036L503.96 67.2527H509.747ZM597.029 67.2527L597.864 60.837H592.114L591.242 67.2527H597.029ZM619.638 60.837H613.888L613.072 67.2527H618.84L619.638 60.837ZM455.849 91.7655H461.673L462.86 85.2386H457.036L455.849 91.7655ZM676.021 91.7655H681.845L682.494 85.2386H676.689L676.021 91.7655ZM384.647 116.742H390.526L391.88 110.085H386.019L384.647 116.742ZM584.584 116.742H590.463L591.354 110.085H585.474L584.584 116.742ZM379.398 142.163H385.315L386.706 135.395H380.789L379.398 142.163ZM542.26 142.163L543.261 135.395H537.345L536.325 142.163H542.26ZM609.511 142.163L610.364 135.395H604.448L603.576 142.163H609.511ZM670.846 142.163H676.763L677.449 135.395H671.532L670.846 142.163ZM63.2639 168.122L65.434 161.225H59.4802L57.2733 168.122H63.2639ZM260.901 168.122H266.892L268.58 161.225H262.607L260.901 168.122ZM224.827 221.19H230.911L232.765 214.033H226.682L224.827 221.19ZM194.577 248.559H200.735L202.589 241.272H196.45L194.577 248.559ZM241.111 248.559H247.269L249.124 241.272H242.966L241.111 248.559ZM764.806 20.9342H773.337L773.986 11.6631H765.473L764.806 20.9342ZM944.99 11.6631H936.477V20.9342H945.027L944.99 11.6631ZM848.675 68.7917H857.374L857.726 59.1497H849.065L848.675 68.7917ZM826.122 83.5142V84.2374L825.677 93.3601H834.45L834.895 83.5142H826.141H826.122ZM891.742 93.3601H900.514L900.718 83.5142H891.983L891.742 93.3601ZM757.887 116.612L757.758 118.355H766.605L767.031 112.273L767.309 108.342H758.481L757.887 116.612ZM844.595 169.736H853.572L853.943 159.352H844.966L844.595 169.736ZM912.533 169.736H921.547L921.676 159.352H912.7L912.533 169.736ZM819.389 223.045H828.57L829.053 212.272H819.909L819.389 223.045ZM748.206 250.468H757.479L758.24 239.492H748.966L748.206 250.468ZM895.265 37.6222L895.154 42.3319H899.42L899.531 37.6222H895.265ZM785.838 61.6158L785.541 66.4183H789.844L790.141 61.6158H785.838ZM942.43 86.0359H938.091V90.9311H942.43V86.0359ZM937.868 115.889H942.245V110.92H937.868V115.889ZM941.577 242.31H936.978V247.761H941.577V242.31ZM746.833 304.074H751.526L751.934 298.511H747.241L746.833 304.074ZM803.421 47.9317H817.831L818.666 32.0781H804.329L803.421 47.9317ZM825.083 47.9317H839.513L840.199 32.0781H825.751L825.083 47.9317ZM868.409 47.9317H882.839L883.247 32.0595H868.91L868.409 47.9317ZM947.809 55.979H933.342L933.194 72.1108H947.735L947.809 55.979ZM890.554 1.61313H906.152V0.074154H890.573L890.554 1.61313ZM820.651 7.82479H805.016L804.014 24.9764H819.76L820.651 7.82479ZM930.95 227.662H947.865L947.958 207.84H931.135L930.95 227.662ZM785.615 21.8427H795.594L796.261 10.9584H786.32L785.615 21.8427ZM849.974 21.8427H859.97L860.36 10.9584H850.419L849.974 21.8427ZM945.732 34.47H935.698L935.605 45.5953H945.676L945.732 34.47ZM826.196 69.7002H836.36L836.861 58.4266H826.753L826.196 69.7002ZM934.752 144.759H945.194V132.855H934.808L934.752 144.759ZM753.362 170.718H763.878L764.713 158.592H754.234L753.362 170.718ZM726.413 224.064H737.133L738.098 211.493H727.415L726.413 224.064ZM933.342 307.968H944.471V294.655H933.324L933.342 307.968ZM755.068 9.43796H742.271L741.14 23.4559H753.993L755.068 9.43796ZM883.21 9.43796H870.264L869.8 23.4559H882.653L883.21 9.43796ZM891.426 23.4559H904.279L904.557 9.43796H891.779L891.426 23.4559ZM753.269 32.931H740.286L739.136 47.19H752.119L753.269 32.931ZM749.56 81.1408H736.429L735.242 95.9746H748.447L749.56 81.1408ZM734.426 105.932L733.201 120.97H746.537L747.687 105.932H734.426ZM776.045 146.484H789.492L790.419 131.149H777.047L776.045 146.484ZM887.661 172.443H901.238L901.553 156.83H888.051L887.661 172.443ZM764.75 43.1663H770.481L770.926 36.8619H765.214L764.75 43.1663ZM746.982 67.2712L747.483 60.8556H741.714L741.214 67.2712H746.982ZM763.025 67.2712H768.793L769.257 60.8556H763.489L763.025 67.2712ZM872.341 60.8556V62.4688L872.193 67.2712H877.961L878.146 60.8556H872.397H872.341ZM893.949 67.2712H899.717L899.865 60.8556H894.097L893.949 67.2712ZM805.294 91.784H811.117V91.3947L811.451 85.1645H805.646L805.294 91.784ZM871.358 91.784H877.182L877.368 85.2572H871.562L871.358 91.784ZM824.991 142.182H830.907L831.223 135.414H825.306L824.991 142.182ZM869.819 142.182H875.754L875.958 135.414H870.041L869.819 142.182ZM778.493 168.141H784.484L784.911 161.243H778.938L778.493 168.141ZM913.219 221.19H919.321V214.033H913.237L913.219 221.19ZM322.978 194.304H329.006L330.564 187.277H324.536L322.978 194.304ZM345.809 194.304H351.856L353.34 187.277H347.238L345.809 194.304ZM368.641 194.304H374.687L376.134 187.277H370.106L368.641 194.304ZM437.154 194.304H443.2L444.461 187.277H438.433L437.154 194.304ZM534.544 194.304L535.583 187.277H529.555L528.498 194.304H534.544ZM455.311 221.19H461.395L462.637 214.033H456.554L455.311 221.19ZM322.069 304.927H328.338L329.952 297.343H323.701L322.069 304.927ZM981.843 20.9342V11.6631H973.33V14.3888V20.9898L981.843 20.9342ZM1153.46 20.9342L1152.77 11.6631H1144.26L1144.91 20.9342H1153.46ZM1229.78 11.6631L1230.73 20.9342H1239.26L1238.29 11.6631H1229.78ZM1295.07 20.9342H1303.62L1302.41 11.6631H1293.9L1295.07 20.9342ZM1210.6 35.1375L1211.47 44.6311H1220.1L1219.19 35.1375H1210.6ZM1069.2 59.0941H1060.54L1060.89 68.7361H1069.59L1069.2 59.0941ZM1460.8 59.0941H1452.14L1453.9 68.7361H1462.58L1460.8 59.0941ZM1048.56 93.3045L1048.24 83.4586H1039.49L1039.78 93.3045H1048.56ZM1114.08 83.4586H1105.35L1105.87 93.3045H1114.64L1114.08 83.4586ZM973.831 118.299H982.696V108.287H973.868L973.831 118.299ZM996.087 118.299H1004.93L1004.77 108.287H995.939L996.087 118.299ZM1403.45 108.287H1394.63L1396.2 118.299H1405.07L1403.45 108.287ZM1206.86 140.124L1206.28 133.56H1197.38L1198.21 143.498V143.758H1207.13L1206.86 140.124ZM1492.74 44.6311H1501.36L1499.51 35.1375H1490.9L1492.74 44.6311ZM1674.5 44.6311L1672 35.1375H1663.41L1665.89 44.6311H1674.5ZM1687.48 44.6311H1696.11L1693.53 35.1375H1684.94L1687.48 44.6311ZM1758.22 35.1375H1749.63L1752.42 44.6311H1761.02L1758.22 35.1375ZM1774.06 44.6311H1782.78L1779.9 35.1375H1771.3L1774.06 44.6311ZM1475.66 68.7361H1484.36L1482.5 59.0941H1473.84L1475.66 68.7361ZM1555.17 93.3045L1553.04 83.4586H1544.3L1546.4 93.3045H1555.17ZM1665.32 93.3045L1662.8 83.4586H1654.04L1656.55 93.3045H1665.32ZM1819.52 93.3045L1816.44 83.4586H1807.71L1810.75 93.3045H1819.52ZM1514.11 108.287H1505.3L1507.26 118.299H1516.11L1514.11 108.287ZM1704.64 108.287L1707.33 118.299H1716.18L1713.45 108.287H1704.64ZM1738.41 118.299L1735.59 108.287H1726.78L1729.55 118.299H1738.41ZM1827.33 118.299L1824.19 108.287H1815.38L1818.48 118.299H1827.33ZM1800.84 133.56L1803.9 143.758H1812.84L1809.75 133.56H1800.84ZM1823.19 133.56L1826.35 143.758H1835.28L1832.09 133.56H1823.19ZM1902.57 143.758L1899.14 133.56H1890.35L1893.76 143.758H1902.57ZM1064.25 159.296L1064.64 169.68H1073.65L1073.22 159.296H1064.25ZM1141.31 165.712L1140.9 159.296H1131.93L1132.52 169.142V169.68H1141.53L1141.31 165.712ZM1276.24 159.296H1267.26L1268.39 169.68H1277.41L1276.24 159.296ZM1380.1 159.296L1381.66 169.68H1390.68L1389.08 159.296H1380.1ZM1402.66 159.296L1404.29 169.68H1413.3L1411.63 159.296H1402.66ZM1315.71 185.515L1317.04 196.084H1326.15L1324.78 185.515H1315.71ZM1043.31 212.216L1043.62 222.989H1052.8L1052.45 212.216H1043.31ZM1204.17 212.216L1205.08 222.989H1214.35L1213.38 212.216H1204.17ZM974.498 239.436V250.413H983.772L983.679 239.436H974.498ZM1772.56 159.296H1763.56L1766.53 169.68H1775.54L1772.56 159.296ZM1548.86 212.216L1551.07 222.989H1560.34L1558.1 212.216H1548.86ZM1709.72 212.216L1712.54 222.989H1721.72L1718.88 212.216H1709.72ZM1893.58 212.216L1897.07 222.989H1906.34L1902.8 212.216H1893.58ZM1451.19 18.6164L1450.34 13.9808H1446.11L1446.95 18.6164H1451.19ZM1109.34 37.6222H1105.07L1105.31 42.3319H1109.52L1109.34 37.6222ZM1277.72 37.6222L1278.28 42.3319H1282.56L1282.01 37.6222H1277.72ZM1303.58 37.6222H1299.31L1299.91 42.3319H1304.26L1303.58 37.6222ZM1001.8 61.5417H997.478V66.3441H1001.95L1001.8 61.5417ZM1285.44 66.3441L1284.86 61.5417H1280.56L1281.14 66.3441H1285.44ZM1302.95 66.3441H1307.25L1306.64 61.5417H1302.41L1302.95 66.3441ZM1156.31 90.8569L1155.96 85.9618H1151.62L1151.97 90.8569H1156.31ZM1288.37 90.8569L1287.79 85.9618H1283.45L1284.03 90.8569H1288.37ZM1153.72 115.815H1158.11L1157.76 110.845H1153.37L1153.72 115.815ZM1198.14 115.815H1202.53L1202.09 110.845H1197.71L1198.14 115.815ZM1463.77 110.845L1464.66 115.815H1469.06L1468.15 110.845H1463.77ZM1494.07 18.6164L1493.15 13.9808H1488.92L1489.83 18.6164H1494.07ZM1558.36 18.6164L1557.34 13.9808H1553.09L1554.13 18.6164H1558.36ZM1713.67 37.6222H1709.41L1710.7 42.3319H1714.99L1713.67 37.6222ZM1818.82 42.3319H1823.1L1821.58 37.6222H1817.31L1818.82 42.3319ZM1574.49 90.8569L1573.42 85.9618H1569.06L1570.15 90.8569H1574.49ZM1626.17 141.218H1630.69L1629.47 136.156H1625.05L1626.17 141.218ZM1021.53 161.948L1021.64 167.103H1026.06L1025.93 161.948H1021.53ZM1167.22 242.236H1162.62L1163.01 247.687H1167.61L1167.22 242.236ZM1278.73 242.236L1279.32 247.687H1283.86L1283.27 242.236H1278.73ZM977.225 298.345V303.907H981.899V298.345H977.225ZM1192.48 327.215L1192.95 333H1197.67L1197.21 327.215H1192.48ZM1789.18 161.948L1790.7 167.103H1795.17L1793.65 161.948H1789.18ZM1682.96 188.204L1684.29 193.451H1688.8L1687.46 188.204H1682.96ZM1673.35 242.236L1674.69 247.687H1679.29L1677.95 242.236H1673.35ZM1773.95 270.049L1775.51 275.612H1780.14L1778.59 270.049H1773.95ZM1852.83 298.382L1854.56 303.944H1859.23L1857.52 298.382H1852.83ZM1306.3 3.09655L1305.9 -3.07411e-05H1287.46L1287.85 3.09655H1306.3ZM1223.36 26.4968L1221.38 6.21163H1202.83L1204.69 26.4968H1223.36ZM1287.85 26.4968L1285.37 6.21163H1266.82L1269.16 26.4968H1287.85ZM1395.42 26.4968L1392.14 6.21163H1373.59L1376.75 26.4968H1395.42ZM1462.51 40.4406L1460.5 29.649H1441.85L1445.02 47.2642L1445.56 50.2865H1464.34L1462.51 40.4406ZM1689.93 3.11511L1689.1 0.0185296H1670.66L1671.48 3.11511H1689.93ZM1725.47 53.4943H1706.66L1712.45 74.5027H1731.4L1725.47 53.4943ZM1770.7 124.27H1789.99L1783.5 102.501H1764.23L1770.7 124.27ZM1852.68 102.52L1859.71 124.289H1879.02L1871.8 102.52H1852.68ZM1621.51 153.307L1626.82 175.892H1646.48L1641 153.307H1621.51ZM1197.34 0.0370899H1183.17V0.815832H1197.34V0.0370899ZM1218.71 0.815832V0.0370899H1204.54V0.815832H1218.71ZM1325.15 0.815832L1325.06 0.0370899H1310.89L1310.98 0.815832H1325.15ZM1371.31 24.142L1368.92 8.56647H1354.71L1357.01 24.142H1371.31ZM1013.56 32.0595L1013.89 47.9131H1028.3L1027.91 32.0595H1013.56ZM1049.45 32.0595H1035.11L1035.56 47.9131H1049.98L1049.45 32.0595ZM1092.51 32.0595H1078.18L1078.88 47.9131H1093.31L1092.51 32.0595ZM1252.2 47.9131H1266.63L1264.78 32.0595H1250.48L1252.2 47.9131ZM1158.89 55.9605H1144.43L1145.54 72.0922H1160.08L1158.89 55.9605ZM1253.07 55.9605L1254.93 72.0922H1269.47L1267.62 55.9605H1253.07ZM1516.76 0.834393L1516.59 0.0555937H1502.42L1502.59 0.834393H1516.76ZM1538.05 0.834393L1537.88 0.0555937H1523.71L1523.88 0.834393H1538.05ZM1644.49 0.834393L1644.29 0.0555937H1630.14L1630.32 0.834393H1644.49ZM1571.79 24.1605H1586.18L1582.47 8.58503H1568.26L1571.79 24.1605ZM1714.93 24.1605L1710.56 8.58503H1696.33L1700.63 24.1605H1714.93ZM1509.84 72.0922L1506.58 55.9605H1492.11L1495.28 72.0922H1509.84ZM1854.26 55.9605H1839.79L1845.02 72.0922H1859.58L1854.26 55.9605ZM1861.53 55.9605L1866.89 72.0922H1881.45L1876 55.9605H1861.53ZM1671.33 105.042H1656.66L1660.89 121.73H1675.72L1671.33 105.042ZM1463.77 182.011H1448.62L1451.68 199.7H1466.9L1463.77 182.011ZM1511.71 155.866L1515.11 173.222H1530.2L1526.72 155.866H1511.71ZM1112.95 -3.07411e-05H1097.35V1.53901H1112.95V-3.07411e-05ZM1389.88 1.53901L1389.64 -3.07411e-05H1374.04L1374.28 1.53901H1389.88ZM1012.37 7.75067L1012.72 24.9022H1028.45L1028.01 7.75067H1012.37ZM1264.76 24.9022L1262.81 7.75067H1247.18L1249.03 24.9022H1264.76ZM1313.46 24.9022H1329.21L1326.85 7.75067H1311.2L1313.46 24.9022ZM1200.88 31.2066H1185.12L1186.58 48.6548H1202.46L1200.88 31.2066ZM1165.38 55.089L1166.74 72.8524H1182.76L1181.3 55.089H1165.38ZM1036.43 104.152L1036.95 122.564H1053.25L1052.62 104.152H1036.43ZM1565.94 1.53901H1581.54L1581.17 -3.07411e-05H1565.59V0.148339L1565.94 1.53901ZM1730.61 1.53901L1730.16 -3.07411e-05H1714.56L1715.01 1.53901H1730.61ZM1721.63 24.9022H1737.38L1732.4 7.75067H1716.77L1721.63 24.9022ZM1758.85 24.9022L1753.75 7.75067H1738.12L1743.12 24.9022H1758.85ZM1545.38 31.2066H1529.59L1533.3 48.6548H1549.18L1545.38 31.2066ZM1631.51 31.2066H1615.72L1619.99 48.6548H1635.87L1631.51 31.2066ZM1836.73 48.7475H1852.61L1846.86 31.2993H1831L1836.73 48.7475ZM1490.12 79.4905H1474.08L1477.48 97.5692H1493.63L1490.12 79.4905ZM1714.27 97.5692L1709.31 79.4905H1693.25L1698.09 97.5692H1714.27ZM1633.53 104.244L1638.04 122.657H1654.34L1649.74 104.244H1633.53ZM1810.17 122.657L1804.61 104.244H1788.34L1793.91 122.657H1810.17ZM1485.8 174.093L1482.32 154.995H1465.81L1469.26 174.093H1485.8ZM1170.84 207.766H1154.03L1155.39 227.587H1172.3L1170.84 207.766ZM1727.64 207.766L1732.96 227.587H1749.88L1744.46 207.766H1727.64ZM1797.95 21.75L1794.54 10.8657H1784.63L1788.01 21.75H1797.95ZM1004.03 21.75L1003.84 10.8657H993.898L994.047 21.75H1004.03ZM1067.96 10.8657H1058.02L1058.42 21.75H1068.4L1067.96 10.8657ZM1433.17 21.75L1431.31 10.8657H1421.37L1423.23 21.75H1433.17ZM1145.89 45.4656H1155.89L1155.07 34.3402H1145.06L1145.89 45.4656ZM1177.61 45.4656L1176.72 34.3402H1166.68L1167.54 45.4656H1177.61ZM1319.07 45.4656H1329.14L1327.62 34.3402H1317.58L1319.07 45.4656ZM1048.15 58.3153H1038.02L1038.36 69.589H1048.52L1048.15 58.3153ZM1170.41 82.6798L1171.28 94.1574H1181.54L1180.61 82.6798H1170.41ZM1203.57 94.1574L1202.55 82.6798H1192.35L1193.33 94.1574H1203.57ZM1214.29 82.6798L1215.37 94.1574H1225.61L1224.49 82.6798H1214.29ZM1162.36 132.744H1151.97L1152.79 144.648H1163.23L1162.36 132.744ZM1286.05 132.744L1287.44 144.648H1297.87L1296.44 132.744H1286.05ZM1602.26 10.8657H1592.32L1594.92 21.75H1604.89L1602.26 10.8657ZM1626.37 21.75L1623.66 10.8657H1613.72L1616.39 21.75H1626.37ZM1637.83 21.75H1647.83L1645.03 10.8657H1635.09L1637.83 21.75ZM1669.27 21.75L1666.4 10.8657H1656.45L1659.29 21.75H1669.27ZM1776.56 21.75L1773.24 10.8657H1763.3L1766.59 21.75H1776.56ZM1819.48 21.75L1815.98 10.8657H1806.05L1809.5 21.75H1819.48ZM1469.22 37.7891L1470.67 45.4656H1480.74L1478.59 34.3402H1468.57L1469.22 37.7891ZM1576.37 34.3773L1578.89 45.5026H1588.96L1586.38 34.3773H1576.37ZM1795.37 45.5026H1805.44L1801.97 34.3773H1791.94L1795.37 45.5026ZM1548.45 58.3524H1538.35L1540.74 69.6261H1550.9L1548.45 58.3524ZM1613.7 58.3524H1603.6L1606.27 69.6261H1616.43L1613.7 58.3524ZM1809.45 58.3524H1799.34L1802.83 69.6261H1812.97L1809.45 58.3524ZM1824.66 69.6261H1834.71L1831 58.3524H1820.89L1824.66 69.6261ZM1665.93 132.744L1668.96 144.648H1679.4L1676.34 132.744H1665.93ZM973.385 158.462V170.589H983.902V158.462H973.385ZM1086.13 158.462L1086.69 170.589H1097.22L1096.63 158.462H1086.13ZM1434.82 158.462H1424.34L1426.34 170.589H1436.88L1434.82 158.462ZM1246.55 184.662L1247.79 197.011H1258.44L1257.14 184.662H1246.55ZM1279.93 184.662H1269.34L1270.69 197.011H1281.32L1279.93 184.662ZM1474.17 184.662L1476.42 197.011H1487.05L1484.76 184.662H1474.17ZM950.628 211.363V223.935H961.367V211.363H950.628ZM1272.25 211.363L1273.62 223.935H1284.36L1282.94 211.363H1272.25ZM1163.14 294.525L1164.05 307.838H1175.18L1174.21 294.525H1163.14ZM1694.94 158.462L1698.11 170.589H1708.59L1705.38 158.462H1694.94ZM1897.9 158.462L1901.92 170.589H1912.46L1908.38 158.462H1897.9ZM1815.57 184.662L1819.28 197.011H1829.91L1826.2 184.662H1815.57ZM962.591 23.3446V9.32671H949.794V23.3446H962.647H962.591ZM1091.4 23.3446L1090.71 9.32671H1077.99L1078.6 23.3446H1091.4ZM1112.08 9.32671H1099.28L1100.02 23.3446H1112.88L1112.08 9.32671ZM1198.75 23.3446L1197.51 9.32671H1184.71L1185.9 23.3446H1198.75ZM1347.02 9.32671H1334.22L1336.18 23.3446H1349.04L1347.02 9.32671ZM962.573 32.8012H949.59V47.0602H962.573V32.8012ZM1362.58 56.7022L1364.73 71.2207H1377.82L1375.6 56.7022H1362.58ZM1408.44 71.2207H1421.52L1419.16 57.2955L1419.07 56.7022H1406.09L1406.98 62.0794L1408.44 71.2207ZM962.628 81.0296H949.497V95.8633H962.684L962.628 81.0296ZM1271.34 95.8633L1269.67 81.0296H1256.54L1258.14 95.8633H1271.34ZM1313.54 81.0296H1300.41L1302.26 95.8633H1315.39L1313.54 81.0296ZM949.423 105.821V120.858H962.74V105.821H949.423ZM1347.74 105.821L1349.85 120.858H1363.19L1361 105.821H1347.74ZM993.991 131.038L994.195 146.372H1007.62L1007.36 131.038H993.991ZM1319.99 131.038H1306.62L1308.47 146.372H1321.92L1319.99 131.038ZM1675.91 9.30821L1679.62 23.3261H1692.47L1688.63 9.30821H1675.91ZM1569.06 47.0602L1565.78 32.8012H1552.89L1556.02 47.0602H1569.06ZM1608.94 32.8012H1595.95L1599.33 47.0602H1612.31L1608.94 32.8012ZM1642.73 47.0602H1655.71L1652 32.8012H1639.02L1642.73 47.0602ZM1738.27 32.8012H1725.28L1729.34 47.0602H1742.33L1738.27 32.8012ZM1872.34 47.0602L1867.54 32.8012H1854.56L1859.3 47.0602H1872.34ZM1636.5 56.7022H1623.51L1627.06 71.2207H1640.15L1636.5 56.7022ZM1788.58 56.7022H1775.6L1779.96 71.2207H1793.03L1788.58 56.7022ZM1756.4 95.8263L1752.14 80.9925H1739.01L1743.22 95.8263H1756.4ZM1106.98 156.737L1107.8 172.35H1121.37L1120.48 156.737H1106.98ZM1490.11 156.737L1493.04 172.35H1506.61L1503.59 156.737H1490.11ZM1687.89 172.35L1683.89 156.737H1670.38L1674.33 172.35H1687.89ZM1173.32 19.3952L1172.84 13.202H1167.28L1167.76 19.3952H1173.32ZM974.869 36.7693V43.0736H980.6V36.7693H974.869ZM953.225 67.16H959.012V60.7444H953.243L953.225 67.16ZM980.823 67.16V60.7444H975.073V67.16H980.823ZM1089.62 60.7444H1083.85L1084.15 67.16H1089.94L1089.62 60.7444ZM1105.98 67.16H1111.75L1111.39 60.7444H1105.63L1105.98 67.16ZM1220.84 67.16L1220.23 60.7444H1214.48L1215.07 67.16H1220.84ZM1323.31 60.7444L1324.17 67.16H1329.95L1329.08 60.7444H1323.31ZM1024.89 85.1459H1019.09L1019.23 91.6728H1025.06L1024.89 85.1459ZM1090.79 85.1459H1084.98L1085.28 91.6728H1091.1L1090.79 85.1459ZM1370.51 85.1459L1371.5 91.6728H1377.32L1376.32 85.1459H1370.51ZM1398.34 85.1459H1392.53L1393.57 91.6728H1399.39L1398.34 85.1459ZM1174.73 109.937L1175.25 116.594H1181.13L1180.59 109.937H1174.73ZM1269.88 115.5L1269.25 109.937H1263.46L1264.18 116.594H1270.06L1269.88 115.5ZM1292.13 116.575L1291.34 109.918H1285.48L1286.26 116.575H1292.13ZM1308.47 116.575H1314.35L1313.54 109.937H1307.68L1308.47 116.575ZM1048.35 135.229H1042.44L1042.64 141.996H1048.58L1048.35 135.229ZM1087.17 135.229L1087.49 141.996H1093.4L1093.09 135.229H1087.17ZM1109.89 141.996H1115.83L1115.46 135.229H1109.54L1109.89 141.996ZM1473.41 19.321L1472.23 13.1279H1466.57L1467.74 19.321H1473.41ZM1530.72 13.1279L1530.84 13.61L1532.06 19.321H1537.73L1536.38 13.1279H1530.72ZM1837.86 19.321L1835.84 13.1279H1830.17L1832.19 19.321H1837.86ZM1562.66 60.6702L1564.09 67.0858H1569.86L1568.43 60.6702H1562.66ZM1649.74 60.6702L1651.37 67.0858H1657.14L1655.49 60.6702H1649.74ZM1744.42 67.0858L1742.57 60.6702H1736.82L1738.67 67.0858H1744.42ZM1764.34 60.6702H1758.67L1760.52 67.0858H1766.29L1764.34 60.6702ZM1612.15 85.1459L1613.7 91.6728H1619.53L1617.97 85.1459H1612.15ZM1831.8 85.1459L1833.88 91.6728H1839.7L1837.6 85.1459H1831.8ZM1553 116.668H1558.88L1557.43 110.011H1551.57L1553 116.668ZM1750.97 109.937L1752.82 116.594H1758.67L1756.81 109.937H1750.97ZM1556.91 135.247L1558.36 142.015H1564.29L1562.83 135.247H1556.91ZM1721.22 142.015L1719.37 135.247H1713.45L1715.3 142.015H1721.22ZM1780.57 135.247L1782.57 142.015H1788.49L1786.49 135.247H1780.57ZM1853.59 135.247H1847.69L1849.84 142.015H1855.78L1853.59 135.247ZM998.239 161.076V167.974H1004.23L1004.12 161.076H998.239ZM1253.2 167.974L1252.5 161.076H1246.51L1247.21 167.974H1253.2ZM1450.86 167.974H1456.83L1455.63 161.076H1449.65L1450.86 167.974ZM1050.41 194.341L1050.19 187.314H1044.16L1044.38 194.341H1050.41ZM1136.95 214.07L1137.34 221.19H1143.44L1143 214.033L1136.95 214.07ZM1435.87 214.07L1437.06 221.227H1443.16L1441.96 214.07H1435.87ZM1417.18 241.309L1418.33 248.596H1424.49L1423.32 241.309H1417.18ZM1463.55 241.309L1464.83 248.596H1470.97L1469.69 241.309H1463.55ZM1901.33 20.9342L1898.07 11.6631H1889.55L1892.8 20.9342H1901.33ZM1912.92 10.8286H1909.94L1912.92 19.2468L1913.81 21.713H1915.02V10.8286H1912.92ZM1882.93 23.3261L1878.11 9.30821H1865.31L1870.06 23.3261H1882.93ZM1878.13 47.0602H1891.11L1886.2 32.8012H1873.21L1878.13 47.0602ZM1907.8 95.8263L1902.7 80.9925H1889.57L1894.6 95.8263H1907.8ZM1911.23 105.821H1897.99L1903.09 120.858H1915.02V116.779L1912.92 110.734L1911.23 105.821ZM1901.96 43.0736H1907.67L1905.47 36.7693H1899.75L1901.96 43.0736ZM1892.11 60.7444H1886.34L1888.53 67.16H1894.3L1892.11 60.7444ZM1912.94 60.7444H1908.12L1910.34 67.16H1915.04V64.0263L1913.87 60.7444H1912.94ZM1522.49 187.314L1523.88 194.341H1529.93L1528.52 187.314H1522.49ZM1551.29 187.314H1545.26L1546.71 194.341H1552.79L1551.29 187.314ZM1575.59 194.341L1574.07 187.314H1568.04L1569.56 194.341H1575.59ZM1636.39 187.314L1638.06 194.341H1644.1L1642.41 187.314H1636.39ZM1735.45 194.341L1733.59 187.314H1727.56L1729.42 194.341H1735.45ZM1671.83 214.07H1665.75L1667.51 221.227H1673.61L1671.83 214.07ZM1567.97 297.38L1569.52 304.964H1575.79L1574.22 297.38H1567.97Z" fill="#e2f6f5"/>
</g>
</svg>
