<svg width="1440" height="556" viewBox="0 0 1440 556" fill="none" xmlns="http://www.w3.org/2000/svg">
<path d="M92.0882 50.674C-60.7512 -9.00964 -191.818 32.7137 -250 68.6344V356H1689V0.0166059C1436.43 -1.82548 1395.92 150.147 1317.4 177.778C1238.88 205.409 1138.36 127.581 968.814 140.936C799.271 154.291 756.76 205.409 614.223 228.896C471.686 252.383 283.138 125.279 92.0882 50.674Z" fill="url(#paint0_linear_25_950)"/>
<path d="M1339.15 50.674C1490.09 -9.00964 1619.54 32.7137 1677 68.6344V356H-238V0.0166059C11.439 -1.82548 51.448 150.147 128.996 177.778C206.545 205.409 305.826 127.581 473.272 140.936C640.717 154.291 682.702 205.409 823.474 228.896C964.247 252.383 1150.46 125.279 1339.15 50.674Z" fill="url(#paint1_linear_25_950)"/>
<defs>
<linearGradient id="paint0_linear_25_950" x1="719.5" y1="369.355" x2="719.5" y2="19.3585" gradientUnits="userSpaceOnUse">
<stop stop-color="#CEEEED"/>
<stop offset="1" stop-color="#CEEEED" stop-opacity="0"/>
</linearGradient>
<linearGradient id="paint1_linear_25_950" x1="719.5" y1="369.355" x2="719.5" y2="19.3585" gradientUnits="userSpaceOnUse">
<stop stop-color="#CEEEED"/>
<stop offset="1" stop-color="#CEEEED" stop-opacity="0"/>
</linearGradient>
</defs>
</svg>
