<?xml version="1.0" encoding="utf-8"?>
<!-- Generator: Adobe Illustrator 26.0.1, SVG Export Plug-In . SVG Version: 6.00 Build 0)  -->
<svg version="1.1" id="Layer_1" xmlns="http://www.w3.org/2000/svg" xmlns:xlink="http://www.w3.org/1999/xlink" x="0px" y="0px"
	 viewBox="0 0 1941.8 364" style="enable-background:new 0 0 1941.8 364;" xml:space="preserve">
<style type="text/css">
	.st0{fill:url(#SVGID_1_);}
	.st1{fill:url(#SVGID_00000026871719966064600760000016554866581755326355_);}
</style>
<linearGradient id="SVGID_1_" gradientUnits="userSpaceOnUse" x1="969.5" y1="-3.355" x2="969.5" y2="346.6415" gradientTransform="matrix(1 0 0 -1 0 366)">
	<stop  offset="0" style="stop-color:#CEEEED"/>
	<stop  offset="1" style="stop-color:#CEEEED;stop-opacity:0"/>
</linearGradient>
<path class="st0" d="M342.1,50.7C189.2-9,58.2,32.7,0,68.6V356h1939V0c-252.6-1.8-293.1,150.1-371.6,177.8s-179-50.2-348.6-36.8
	c-169.5,13.4-212.1,64.5-354.6,88S533.1,125.3,342.1,50.7z"/>
<linearGradient id="SVGID_00000048467421441369011450000008351961591378149011_" gradientUnits="userSpaceOnUse" x1="969.5" y1="-3.355" x2="969.5" y2="346.6415" gradientTransform="matrix(1 0 0 -1 0 366)">
	<stop  offset="0" style="stop-color:#CEEEED"/>
	<stop  offset="1" style="stop-color:#CEEEED;stop-opacity:0"/>
</linearGradient>
<path style="fill:url(#SVGID_00000048467421441369011450000008351961591378149011_);" d="M1589.2,50.7c150.9-59.7,280.4-18,337.8,18
	V356H12V0c249.4-1.8,289.4,150.1,367,177.8c77.5,27.6,176.8-50.2,344.3-36.8c167.4,13.4,209.4,64.5,350.2,88
	C1214.2,252.4,1400.5,125.3,1589.2,50.7z"/>
</svg>
