<svg xmlns="http://www.w3.org/2000/svg" xmlns:xlink="http://www.w3.org/1999/xlink" viewBox="0 0 225.32 66.06">
  <defs>
    <style>
      .cls-1 {
        fill: none;
      }

      .cls-2 {
        clip-path: url(#clip-path);
      }

      .cls-3 {
        opacity: 0.25;
      }

      .cls-4 {
        fill: #63514b;
      }

      .cls-5 {
        clip-path: url(#clip-path-2);
      }

      .cls-6 {
        fill: #ffd255;
        stroke: url(#linear-gradient);
      }

      .cls-6, .cls-7 {
        stroke-miterlimit: 10;
      }

      .cls-7 {
        stroke: #ffd255;
        opacity: 0.5;
        fill: url(#linear-gradient-2);
      }

      .cls-8 {
        fill: #5e5e5e;
      }
    </style>
    <clipPath id="clip-path">
      <rect class="cls-1" x="462.69" y="-182.24" width="258.81" height="151.8" rx="7.68"/>
    </clipPath>
    <clipPath id="clip-path-2">
      <rect class="cls-1" x="462.51" y="184.56" width="269.77" height="158.23" rx="8"/>
    </clipPath>
    <linearGradient id="linear-gradient" y1="31.25" x2="221.76" y2="31.25" gradientUnits="userSpaceOnUse">
      <stop offset="0" stop-color="#726144"/>
      <stop offset="0.28" stop-color="#ffd255"/>
      <stop offset="0.51" stop-color="#ffe49b"/>
      <stop offset="0.74" stop-color="#ffd255"/>
      <stop offset="1" stop-color="#726144"/>
    </linearGradient>
    <linearGradient id="linear-gradient-2" x1="0.5" y1="31.25" x2="221.26" y2="31.25" xlink:href="#linear-gradient"/>
  </defs>
  <g id="Layer_1" data-name="Layer 1">
    <g class="cls-2">
      <g class="cls-3">
        <path class="cls-4" d="M233.55-2.42l-3.68-.16c-1.86,0-3.75.1-5.65.27-5.36.49-10.87,1.53-16.42,2.48V2.7c6.95-.29,13.88-1,20.66-3.88A16.87,16.87,0,0,1,233.55-2.42Z"/>
        <path class="cls-4" d="M214.65,4.74c6.09.4,10.3-5.21,15.92-4.51C262,2.45,293.31,3.52,324.56,4l4.93.06,4.93,0,4.93,0,4.93,0,4.93,0c6.33.29,12-2.52,18.27-1.82,18.8.79,37.81.7,56.78.53,15-.13,30-.3,44.85-.13l4.37-.11,4.38-.11,4.35-.16,4.35-.15c1.45-.05,2.94-.1,5.09-.13l3.63.06c11.51.19,22.94.2,34.38.2-.69-.68-1.38-1.37-2.29-1.21.26.2.42.51.89.51h-14.7c-7.76,0-15.52,0-23.34-.07-1.77,0-3.2.09-4.63.14l-4.29.15L477,2c-1.44-.06-2.87-.1-4.3-.14s-2.9-.06-4.37-.07c-31.37-1.54-63.66.56-95.26-.14-6-.26-11.93,0-17.84.3-9.52.54-19,1.34-28.86.85l-1.32-.06-4.87-.1-5.46-.13q-16.85-.39-33.62-.86H261.8a50.61,50.61,0,0,1-10-1.39C248-.6,244.26-1.58,240.62-2.12l-1.46-.19a27.12,27.12,0,0,0-5.61-.11,16.87,16.87,0,0,0-5.09,1.24c-6.78,2.91-13.71,3.59-20.66,3.88V5.13c.87,0,1.75,0,2.64-.09C211.84,5,213.25,4.87,214.65,4.74Z"/>
        <path class="cls-4" d="M225.81,13.34c37.06-4,74.27-2.58,111.48-1.88q9.12.34,18.31.54l4.57.08c8,.08,15,.08,23,.22,1.6,0,3.15,0,4.69,0h4.51c22.86-.19,45.33-.19,68.59.43l4.12.09c4,.12,8.07.25,12.12.36l4-.47c1.55-.19,3.1-.39,4.66-.61s3.19-.44,5.72-.67c14.18-1.42,28.22,0,41.56-4.23a10.16,10.16,0,0,1-4.91,1.4c.7,1.41,2.1.7,2.62,1l2.72.36c1.82.23,3.65.45,5.47.65,1.37.15,2.74.29,4.29.41,6.84.92,13.42.67,20,.47,1.48-.05,2.95-.1,4.59-.14,7.35.8,14.35-.59,22,.79,12.86-.17,25.11-2.69,38.09.38,1.24.06,2.87.11,4.5.16s3.29.1,5.14.14c4.24,0,8.47.15,12.7.34l4.23.2c29.52,2.3,59-1.21,88.51-1.27,1.5,0,3.14,0,4.8-.06l5-.08,2.12,0c-2.42-.26-4.82-.57-7.22-.89-1.27-.17-2.49-.35-3.56-.57-29.2-5.34-59.39,2.39-88.72.38-1.71,0-3.37,0-5-.08a197.22,197.22,0,0,1-24.6-2.13c-12.45-2.07-23.53-1.42-35.93,1.28-8.2-1.23-17-.6-25.41-1.24l-3.74-.18C555.88,8.27,551,8,546,7.59c-2-.14-3.38-.27-4.75-.39q-4.18-.37-8.37-.63C518.94,8,505,8.66,491.29,9.65c-2,.23-3.43.47-4.67.69s-2.49.43-3.74.62-2.51.36-3.77.5H475.6l.7-.7q-2-.07-4.05-.12l-4.06-.1c-36.82.22-72.63-1.19-109.43-.77-1.54,0-3.17,0-4.79,0-24.39-.52-48.69-1.07-72.85-1.07-19.66,0-39.32-2.1-58.66,2.33-1.3.11-2.61.2-3.93.3h-3.64c-2.4,0-4.76,0-7.09,0v1.83q6.69.06,13.37.21C222.73,13.3,224.29,13.34,225.81,13.34Z"/>
        <path class="cls-4" d="M239.84,23.42q4.59.64,9.18,1c1,.09,2.06.17,3.19.24,6.53-.24,13.06-.62,19.59-1.06l4.89-.34c11.77-2.7,23.82-3.41,35.94-3.43-17.49-.55-34.91-1.39-52.64,1.18l-5,.17c-3.38.12-6.76.24-10.13.38l-3.91-.11L237,21.38l-4.49-.07q-12.36-.15-24.73.55v1.56C218.38,22.52,229,21.82,239.84,23.42Z"/>
        <path class="cls-4" d="M207.8,33.54v.23q6.22-.3,12.45-.52Q214,33.34,207.8,33.54Z"/>
        <path class="cls-4" d="M279.71,33.77l5.1-.06,5-.11c1.67,0,3.35-.09,5-.15,3.12-.22,5.23-.22,8-.22H300.8c4.42-.21,8.9-.17,13.39,0,1.53.06,3.06.13,4.63.22,10,1.2,19.87,4,29.7,3.31,1.56-.05,3.11-.12,4.64-.21,22-3.3,44.51-1.2,67-2.6,9.13-.7,18.26-3.51,27.58-4l3.08-.08c5.15-.12,10.42-.16,15.7-.39l4-.08c9.76-.27,19.4-.84,29.14-1.08l4.22-.08c4,.11,8.22.11,12.61.12A40.13,40.13,0,0,1,521,29.58c1.56.09,3.21.15,4.92.2l3.92.18,4.27.18c12.23-.36,24.14,1.58,36.32,1.4,2.25,0,4.51-.12,6.78-.33l3.4,0q12.15-.06,24.39-.55c1.09,0,2.18-.1,3.27-.15l.93,0,.48,0c.79,0,.7.65.74,1.36a1.59,1.59,0,0,0,.76,1.45l.1.06a18.76,18.76,0,0,0,2.86.52h3.69c46.37-.53,91.92-1.76,137.95-1.94l7.6,0h4.25a22.2,22.2,0,0,1,4-.59h.06A4.64,4.64,0,0,0,775.39,29c-3.67,1.23-6.8.85-10.33.73-44.32.7-89.3,1.38-133.8,1.78-1.44.08-2.85.15-4.26.2s-2.81.09-4.23.09a22.43,22.43,0,0,1-8-.25,16.27,16.27,0,0,1-2.53-.83A10,10,0,0,1,608,27.59c-9.58-.68-18.7,2.13-27.91,2.47-1.31.09-2.61.16-3.91.18C562,29,547.91,25.5,533.52,26.69c-1.17.07-2.34.16-3.53.27s-2.37.24-3.58.39c-1.56.09-3.1.14-4.4.08-1.41-.63-2.81-1.15-4-1.56-2.41-1.07-.31-2.47.4-3.18-7.73,1.41-14.75,2.11-22.49,3.17-1.58.22-3.17.44-4.75.64-6.35.79-12.71,1.37-19.12,1.62-1.6.06-3.16.1-4.56.1-6.49-.3-12.89-.63-19.26-.59-1.33,0-2.64,0-4,.07-8.69.61-17.12,2-25.54,3.42-23.17,2.81-46.34-1.4-68.83,3.27q-2.11.11-4.2,0a90.12,90.12,0,0,1-12.37-1.55l-4.11-.73c-7.38-1-14.4-2.42-22.13-1.1-1.06.09-2.11.2-3.16.33s-2.1.28-3.15.45c-4.38,0-9.16,0-13.63-.07l-2.12.08-5.66.21-3.88.15c-1.29,0-2.59.09-3.89.12a59.09,59.09,0,0,1-7.83.07c-1.66,0-3.32,0-5,0-8.59-.13-17.15-.51-25.67-.81S216.2,31,207.8,31.24v2.3q6.22-.21,12.45-.29C240.1,33,259.93,33.53,279.71,33.77Z"/>
        <path class="cls-4" d="M251.65,42.89c1.56,0,3.11,0,4.67,0s3.11,0,4.66.09,3.1.09,4.63.15a232.81,232.81,0,0,0,25.33.35c1.41,0,2.79-.12,4.08-.27,6.46-.89,12.08-3,17.69-4.4,1.58-.29,3.15-.5,4.7-.65s3.22-.18,4.86-.16l9.84,1.32c-3-.48-6.07-1-9.09-1.61-1.75-.05-3.43,0-5.13,0a89.45,89.45,0,0,0-24,4.16c-1.43.08-3,.06-4.52,0-14-.38-27.95-1.32-41.88-.69l-4.76,0c-11.65.1-23.33.61-35,1.42V44.6c13.11-.75,26.18-1.5,39.18-1.67Z"/>
        <path class="cls-4" d="M226.86,53.39l4.64-.09,4.63-.09A59.73,59.73,0,0,1,245.4,53l4.62-.09,4.63-.08,4.61-.08,4.61-.07,3,0c6.13.2,12.27.6,18.41,1.29h11.87c.49-.08,2-.08,2.72-.08a9.19,9.19,0,0,0-4.45.76q4.43,0,8.84,0c1.48,0,2.95,0,4.29-.13,4.52-.13,8.36-1.95,12.21-3.83,1.28-.62,2.57-1.25,3.88-1.83a14.12,14.12,0,0,1,5.06-1.75l-5.21-.27c-1.38.27-2.74.6-4.1,1a46.84,46.84,0,0,0-11.92,5.49c-1.28.16-2.74.22-4.21.27l-4.42.16-4.42.17c1.48-1.53,3,0,4.22-1H285a160.69,160.69,0,0,0-18.27-1.59l-3-.05c-15.65-.23-31.08.61-46.49,1.47l-4.65.25c-1.61.14-3.2.25-4.78.36v.36c4.83-.16,9.65-.3,14.42-.33Z"/>
        <path class="cls-4" d="M268.94,55.79q4.83.24,9.64.73c1.79.16,3.55.26,5.31.36l10.23.21c1.71,0,3.42.06,4.75.1a7.47,7.47,0,0,1,1.78-.17,9.22,9.22,0,0,1-4.45.76q4.65.16,9.28.21c1.54,0,3.09,0,4.6,0s2.9-.18,4.26-.34c5,.11,9.16-2.67,13.67-4.94a35.12,35.12,0,0,1,3.48-1.56c5.09-2.47,10-1.77,14.92-.36,17.56,2.81,33.7.7,50.56,1.4,7,0,14.74,2.81,21.76,2.81,28.79,2.11,57.57,0,86.36,1.4,8.42.71,16.14-2.1,24.57,0,8.87,2,17.75,1.45,26.62,3.35,27.43-2.15,55.5-6.1,82.9-4.05,11.24,1.18,22.47.87,33.71.33a4,4,0,0,0-.71.37c15.33,0,30,.69,45.27-1.35,9,1.35,18,1.36,27.21,2.13,1.59,0,3.23,0,4.87-.06,14.78-.33,29.54-1.42,44-1.16,1.68-.15,3.36-.29,5-.41,20.89-1.55,41.64-1.2,62.38-.48,1.64.11,3.29.22,5,.39,14.5,2.76,29.34,5.76,44,4.09V57.79c-15.06,1.37-30,.73-44.42-3.26-1.73-.18-3.41-.29-5.09-.4-21.07-.69-42.23-1.15-63.27.12-1.68.1-3.37.21-5.06.34-13.61.93-27.55.62-41.49.44-1.54,0-3.09,0-4.55-.1-8.31-1.31-16.54-2-24.75-.08-.73-1.21-2-.56-2.73-.56.6,0,.69-.51,1.14-.66-16.06,2.75-32.12,2.06-48.18,1.36h4.92c-14,0-27.39,0-40.73-.7-26.75-2.06-52.84,1.91-79.57,4.06l-.21,0-.4,0c-12.39-6-27.8-4.11-41.28-4.11h.71c-33,2.81-66,0-99-.7-5.62,0-11.93-1.41-17.55-1.41-16.85-.7-33.7-1.4-50.55-2.81-7-.7-14.75,0-22,.92-1.4.3-2.8.64-4.21,1a76.06,76.06,0,0,0-12.7,4.78c-1.44.06-2.94.08-4.45.1q-4.51.06-9,.06a9.19,9.19,0,0,1,4.45-.76,9,9,0,0,1-.94,0H283.6c-1.69-.07-3.4-.14-5.18-.26-4.65-.51-9.32-.83-14-1-.94,0-1.87-.07-2.81-.09-18-.29-35.93.58-53.81,1.46v1.55c18.79-.29,37.53-1,56.14-1.47C265.72,55.64,267.33,55.71,268.94,55.79ZM557,59.2l-1-.52A2.15,2.15,0,0,1,557,59.2Z"/>
        <path class="cls-4" d="M276.62,64.85c23.36.63,47.44,4.53,69.09-4.24,1.32-.18,2.63-.3,4-.38,9.21-.54,18.4,1,27.43.46,1.5,0,3,0,4.5,0,4,0,7.91.23,11.87.57,1.4.12,2.79.25,4.27.4,7.66,1.07,16.09,2.48,23.53,3.1,1.49.06,3.09.06,4.78.06l4.88,0,7.59,0,2.77,0c18.17.13,37.13-1.27,55.71-.47,1.38,0,3,0,4.68,0l5.2,0c18.74-.13,37.84.54,56.3,1.86a13.86,13.86,0,0,1-1.38-.63c12.57-.22,24.68-1.35,37.28-1.21,1.33,0,2.65-.08,4-.1s2.65,0,4,0,2.64,0,4,.09c5.77.47,12,1,17.86,2h.45c19.48-1.3,39.56-2.59,59.14-2.22a27.65,27.65,0,0,0-4.38-.58c9.83-.71,19.66,1.4,29.49.7.7,0,.7-2.11.7-2.11,16.36-1.36,32.72,3.22,49.09,2.2a11.32,11.32,0,0,1-1.83-.63c8.95.64,17.41,1.18,26.46.54h-.71C807,59.2,828.75,62,848.79,61.66l4,.11,8.05.28,5,.23c1.19.1,2.38.2,3.58.28s2.42.18,3.67.31c12,2.3,24.32,4.35,36.79,3.81V64c-15.1,1.72-30.2-2.87-45.22-3.55l-4.94-.21-4.93-.2-3.29-.12-3.3-.1c-23.66.78-47.54.07-71.41,2.18-7,.64-14.68-.47-21.84-.67a12.85,12.85,0,0,1,3.59.67c-25.29-1.33-50.57-.77-75.86-.71-6.3-1.39-11.91,0-18.19.74l-2.88.14c-1,.06-2.08.15-3,.25-11.92,1-23.45,1.63-35.57,1.68-4.21-1.4-8.41-1.4-12.42-1.62-1.25-.08-2.51-.15-3.77-.21-2.52-.13-5.07-.24-7.65-.4-1.48,0-2.92.07-4.27.14-10.53-.59-20.6,2.25-31,2.78-6.27-.68-13.22-.69-19.47-1.19l-4.55-.19-4.48-.17c-9.24-.54-17.67-.54-27.08-.53l-4.63,0h-4.52c-8.82,0-18.65,0-27.58.14l-4.06,0-3.74,0c-7.14-.18-14.16-.18-21,.21l-2.84.08c-2.8.07-5.59.11-8.37.09-1.24,0-2.47,0-3.71-.06-.95-.09-1.9-.2-2.85-.32s-1.89-.25-2.84-.39c-5.56-1.19-11.88-1.89-17.28-2.93-2.9-.36-5.64-.62-8.31-.79a153.61,153.61,0,0,0-16.06-.08c-1.53.07-3.07.15-4.6.25-9.16.25-18.28.25-28.11-1.85a14.25,14.25,0,0,0-8.18.54,28,28,0,0,0-3.59,1.56c-19.9,9.22-43.36,3-64.83,3.71-1.46.06-2.9.14-4.35.27-19.78-.29-39.37-.4-59.07.12v1.6q32-.12,64.14-.11Q274.28,64.79,276.62,64.85Zm283.58.05a2.8,2.8,0,0,0-1,0c-.5,0-1,0-1.5-.05h5.81C562.44,64.87,561.32,64.9,560.2,64.9Z"/>
      </g>
    </g>
    <g class="cls-5">
      <g class="cls-3">
        <path class="cls-4" d="M850.61,5.21H845.5c-5.07,0-10.14,0-15.22,0l-5.07,0c-15.53-4.5-30.9-.1-47-.84-2.2-.73-3.66-2.19-5.86-2.19-18.29,0-37.32,0-55.48,2.67l-2.8.14-2.8.13q-7.9.15-15.81.39l-7.41.13-7.42.16h-10.1c-1.45,0-2.9,0-4.38,0-3.46-.14-6.92-.25-10.38-.36l-5.19-.14C635.5,3.72,619.4,5.19,604,3.72c-8.79-1.46-18.3-3.66-27.81-2.19l-4.87.91c-20.43,5.2-41.16,3.76-61.57,3a37.78,37.78,0,0,1-4.24-.31C467.19,2.26,429.86,2.26,392.15,4c-1.57,0-3.14-.11-4.69-.18-2.61-.09-5.75.46-8.46-.4-2.71.86-5.82.29-8.24.29-3.26.12-6.44.21-9.62.29-28.66.71-57.67.36-86.36,1.39l-5.5.12C251,6,232.62,6.72,214.17,8a9.8,9.8,0,0,0,2.14.17c-.77,2.38-4.64.79-5.41,3.18,19.29-.67,38.73-1.35,58.16-2l5.41-.16c28.31-.87,56.74-.5,85.19-2.51q2.37-.16,4.74-.36c5.45-.4,9.84-1.13,15-1.13-.74,0-1.47-.74-2.2-.74,2.93-.73,6.59.74,9.7.69,1.48.15,3,.29,4.54.41,15,1.83,29.67-2.56,45-1.83,23.42,2.2,46.1,2.93,68.84,3.84,1.66,0,3.39,0,5.13,0C531.24,7.22,552,6.24,572.77,4,574.39,4,576,4,577.6,4c3.2.05,6.4.2,9.6.47,19,1.47,38.06.74,58,2.81,1.69,0,3.44,0,5.18.06q7.86.07,15.73.19h4.36l4.36,0,5.73,0h11.75c4.63.14,9.29.11,14,0L711,7.41c1.36-.1,2.72-.18,4.08-.25s2.9-.25,4.42-.4C737.23,5.19,754.79,3,772.35,4.45c2.2,0,5.13,1.47,7.32,2.2,13.91.73,27.08-1.46,40.94,1.68,1.41.16,3.1.22,4.81.27,34.7,1,69.45,1.54,103.22-2V4c-24.32,1.19-48.77,1.19-72.91,1.21Z"/>
        <path class="cls-4" d="M211.69,7.85c.23-2.74,3.87-.57,4.76-2.08a18.17,18.17,0,0,0-3.73-.17l-15.9.07V7.51q5.79.09,11.59.25Z"/>
        <path class="cls-4" d="M211.69,7.85a2.3,2.3,0,0,0,0,.28l2.5-.17-.22,0Z"/>
        <path class="cls-4" d="M255.1,15.19l4.92,0q10.82.26,21.63.28,25.34-.83,50.61-1.13,24.19-1.12,48.37-3.31l4.68.15,5.22.14c31.28-2.51,62.75-.31,94.33,1.47,1.71.09,3.47.16,5.23.24Q498,13.42,506,14c3.66.73,8-.73,12.44-1.47,2.13-.23,4.25-.39,6.34-.49-7.28.05-14.53,0-21.71-.24l-5.2-.09c-33.58.82-66.51-6.49-99.15-2-1.06,0-2.05,0-3.23,0q-9.16-.35-18.29-.83c.73,0,1.46.74,2.2.74-19.76.73-38.79,2.19-58.76,2.12l-5.08.13-5.07.11c-3.54-.17-6.47-.9-10.14.22l-5.1.1-5.1.09-5.11.08c-8.1.07-16.88.07-25.29.3l-4.87.07C242,13,229,13.38,216,14.16c-1.25,1.25-3.44-.07-4.23.95h1.84c.43.07.93.11,1.43.14C228.35,15.06,241.71,15.11,255.1,15.19Z"/>
        <path class="cls-4" d="M216.59,13.26a25.89,25.89,0,0,0-3.61-.13h-1.07a1.76,1.76,0,0,0-1,1.35l5.12-.33A2.37,2.37,0,0,0,216.59,13.26Z"/>
        <path class="cls-4" d="M216.31,12.1s-.77-.79-.49-.48c-.94-.1-2.67-.11-4.4-.13-4.87,0-9.73-.07-14.6-.09v1.81c5,0,10.06-.05,15.09-.07C213.35,12.52,215.72,13.92,216.31,12.1Z"/>
        <path class="cls-4" d="M213.62,16.83l1.31,0a4.71,4.71,0,0,0,2.15-1.57c-.47,0-1.24,0-2,0-.5,0-1-.07-1.43-.14h-5.37q-5.73,0-11.44.06v1.58l11.7.07Z"/>
        <path class="cls-4" d="M214.93,16.86l-.17,0,3.12,0s0,0,0,0C217.27,16.88,216.24,16.88,214.93,16.86Z"/>
        <path class="cls-4" d="M821.51,13.48l-5.25.08c-22,1.14-43.91-.32-65.86-1.79-11.71-.73-23.42.73-34.76,1.57-1.24,0-2.44,0-3.64-.07q-8.84-.35-17.67-.91c-1.79-.33-3.4-.68-5-1-9.26-2.05-18,1.16-26.57,3.12-1.06-.23-2.12-.44-3.19-.61l-1-.14-.1,0q-1.2-.16-2.4-.3a95.13,95.13,0,0,0-18.8-.26l-4.71.35c-17.61,2.71-35.17-.95-52.73-.95-1.61,0-3.22,0-4.86.13-22.95,3.53-45.64-3.05-68.33,3.53-7.31,1.83-14.63.52-21.95-.73l-4.34-.72c-3,0-5.91-1.47-8.83-.74.73,0,.73.73,1.46.73a442.66,442.66,0,0,0-83.4-.61h-5.2q-26.1,0-52.18.29Q307,14.7,281.65,15.5q-13.68.43-27.38,1l-4.92.13c-10.46.27-20.95.38-31.47.25.72.78,0,1.55-.8,1.55,11.62-.66,23.24-.84,34.87-.8l5.1,0c42.75,1.7,85.46-.72,128.16-2.19l5.13-.18c27.08-2.83,54.89-3.56,82,.1h-.73c2.92,0,5.12,1.46,7.68,1.09,1.28.24,2.56.51,3.84.78,6.41,1.33,12.81,2.7,19.21,1.79,19.76-2.2,38.06-3.66,57.82-2.2,5.12.74,10.24-1.46,15.62-2.16a35.23,35.23,0,0,1,4,.13c10.56.87,21.2,3.81,32.23,2.12l5-.21,5-.23,5-.26q1.4-.06,2.79-.15l2.8-.16a150.66,150.66,0,0,1,17.92-.63c1.09,0,2.18.08,3.28.15a61.67,61.67,0,0,1,9.2,1.22c8-2,15.92-3.7,23.26-3,1.62.25,3.23.48,4.89.7q10.67.36,21.37.67c1.48,0,3,0,4.5,0,31.9-4.74,63.36,1.84,95.51.42h5.31c36.91-.07,73.85-.44,110.78-1.63v-.4C893.06,12.11,857.34,12.81,821.51,13.48Z"/>
        <path class="cls-4" d="M221.66,24.85c8.84,1.38,17.05.95,25.79.44l3.85-.22c47.34-1.31,94.91-1.64,142.45-1.56l5.43,0c17.51-1.46,35.07,0,52.68.28,1.72,0,3.48,0,5.24.06q23.73.18,47.41.39a66.55,66.55,0,0,0,10.34-.33c-4.71,0-9.38-.12-14-.4Q479.46,22.34,458,22c-1.79,0-3.55-.08-5.25-.16-20-2.05-39.75.15-59.15.21l-5.37.08c-44.76.65-89.57,1.91-134.21.86-1.49,0-2.93.09-4.39.17-9.79.58-19.38,2.16-29.83.14-1.46,0-3.11,0-4.77,0-6.07,0-12.15,0-18.24,0v2.52c7-.06,13.89-.73,20.84-.94C219,24.87,220.33,24.84,221.66,24.85Z"/>
        <path class="cls-4" d="M241.55,34.64h5.27C293,38.12,337.65,29.34,383.76,33a60.84,60.84,0,0,0,12.53-.86c1.4-.21,2.8-.45,4.2-.69a140.15,140.15,0,0,1,15.19-2.23c-3.57-.28-7.08-.52-10.4-.45-1.6,0-3.19-.05-4.8-.05-11,0-22.28.85-33.55,1.36-38.79,0-76.85,2.92-115.65,2.62l-5.09.1c-16.53.39-32.95,1-49.37.48V34.5C211.69,34.52,226.62,34.6,241.55,34.64Z"/>
        <path class="cls-4" d="M224.22,38.12c2.62.93,5.19,1.77,7.74,2.49-5.52-2.09-11.13-4.45-17.25-3.22-6.42,1.37-12,3.89-17.89,5v1.78a8.33,8.33,0,0,0,4.71-.93C208.85,39.58,216.17,35.92,224.22,38.12Z"/>
        <path class="cls-4" d="M202.38,48a9.31,9.31,0,0,1-2.89.54c-.85.16-1.75.26-2.67.36v1.39l1.57,0A36.53,36.53,0,0,1,202.38,48Z"/>
        <path class="cls-4" d="M920.1,47.7c-22.6-.8-45.29,2.13-68-.07.73-.73,2.2-.73,2.93-.73-21.22-.73-42.45-4.39-64.4-1.46-5.12,0-11,1.46-16.1,1.46-1.63.07-3.26.12-4.89.17s-3.27.09-4.82.09c-16.64-.26-32.74-.26-49.41-.16l-4.95,0c-14.84-.09-29.67.08-44.42,1.19-1.87.05-3.63.07-5.39.09q-9.17-.06-18.39-.22a5.47,5.47,0,0,1,1.49.7c-2.19-.3-4.39-.55-6.58-.78l-1.15,0,.73,0c-33.23-3.35-66.45.76-99.67,0h1.54c-22.41,0-44.06-1.59-66.85-.86l-5.32,0-10.73,0c-1.79,0-3.69,0-6.91,0-8.72.07-17.22.1-25.8.11-1.43,0-2.86,0-4.22,0-1,0-2-.08-3-.12-5.76,2-12.21-1.43-18,.62-6.93-.08-13.86-.33-20.8-1.07-1.31-.14-2.63-.3-3.89-.5-10.6-3.5-20.84.89-30.35,1.62-26,3.25-51.47.72-76.84.12l-4.77-.09-3.33,0C244.68,48.35,232.25,44,219.1,41c-6-1.08-9.93,3.47-14.5,6,16.74-6.8,34.79.88,52.28,3.53-.47-.16-.56-.69-1.19-.69,3.66,0,6.59,0,10.28.13,1.58-.07,3.17-.12,4.75-.17,30-.81,59.38,2.7,90.35-3.62,3.66-.73,7.32.73,11,1.46,1.55.28,3.1.5,4.63.69,10.47,1.3,20.53.8,31.11.78q1.72,0,3.39,0a28.61,28.61,0,0,1,4.05.7,7.94,7.94,0,0,0-1.81-.63c1.52.06,3.07.16,4.71.32h4.4q13.22,0,26.36.15h7l5.4,0h5.43c2.38-.19,4.7-.19,7-.19H537.1c34.17,0,67.63.73,101.74.79a30.07,30.07,0,0,0-5.12-.79q12.6.26,25.21.32c1.76,0,3.53,0,5.39-.06a445.55,445.55,0,0,1,46.95-1.54c1.74,0,3.49,0,5.23.06,15.6.07,31.7.07,47.35.34,1.72,0,3.48-.06,5.24-.11,10.57-.31,21.17-1,31.81-2.35,18.29-2.93,35.85,2.92,53.42,2.19-1.47.73-2.2,1.47-3.66,1.47,22,2.19,43.91-.74,66,.54,1.67,0,3.34,0,5,0,2.34,0,4.67-.1,7-.19v-2.7l-4,.13ZM408.81,49c-1.07,0-2.13.13-3.1.13h-8C401.38,49.09,405.1,48.8,408.81,49Z"/>
        <path class="cls-4" d="M204.6,47q-1.11.45-2.22,1A14.61,14.61,0,0,0,204.6,47Z"/>
        <path class="cls-4" d="M202.45,57.56c21-8.47,42.26-2.61,64.56-.74,1.52-.07,3-.14,4.55-.19,16.6-.6,33-.09,49.39,0l5,0a309.31,309.31,0,0,0,32.95-2.47c7.31-.73,14.63,1.46,22.29,1.75,1.16,0,2.42,0,3.72,0l15.63-.18h5.61c1.41,0,2.53,0,2.82,0-2.49,0-4,0-6.35,0h15.46c59.52,2.39,118.26-1.59,177.78,1.59,12.3.64,24.6-2.25,36.9-2.26l-.57-.13,24.64-.46,4.93-.09c10.7-.41,21.26-1,31.8-1.47-8.77.14-17.56.45-26.37,1.17-1.81,0-3.46,0-5.14,0-10.15-.37-20.26-1.11-30.63-1.57,3.87,1.59,7.73,0,11.6,1.59-34.35-.79-69.45,0-103.82-.77-21.57,2.34-43.9,0-65.47.77l.78-.8c-17.89,1.37-36.35-.19-54.4-.16l-3.54,0a8.68,8.68,0,0,1,3.05.93H406.66c-1.12,0-2,0-2.92-.06a25,25,0,0,1,4.17-.74c-13.17-.74-26.35-.92-39.53-.67-1.65,0-3.3.06-4.95.11-3.09-.91-6.75.56-9.89.34-1.65.06-3.3.14-5,.22q-9.9.48-19.81,1.22l-5.54-.17-9.55-.35L308.93,54c-2.75.21-6.4-1.26-9.57-.36l-4.81-.17-4.78-.16L285,53.17c-5.53-1-10.52-.1-15.81-.21-1.06,0-2.13-.08-3.22-.2-3.7.73-6.63-.74-10.29-.74.73,0,.73.73,1.46.73-19.76-1.46-38.78-8.78-57.33,2-1,.08-2,.19-3,.29v2.69l.92,0C199.31,57.64,200.9,57.61,202.45,57.56Z"/>
        <path class="cls-4" d="M205.84,64.06c1.41,0,2.83,0,4.23-.11,19.27-5.34,38.3-3.88,57.5-1.4,1.57,0,3.15-.08,4.73-.11,7.92-.14,16,0,24,.21l5.59,0,4.19,0c7.18-.23,14.1-.31,21.07-.25l4.36,0c14.92-.14,30.29-.14,44.73,0l4.42-.1c7.36-.15,14.67-.19,21.91.09l5.41,0,3.86,0C476,63.84,541,63,605.12,63.84c12,0,24-4.64,36-2.42,7.32-.2,14.57-.15,21.82-.07,1.72,0,3.42-.05,5.27-.11,19.25-1.9,38.28-1.9,56.58-2.63,27.07-1.47,54.88-1.47,82-3.66a15,15,0,0,1,3.66.12c6.12.93,12.31,5,19,4.69L834,60q6.9.42,13.79,1c.88.12,2.53.18,4.35.21q16.46.33,32.88.47c1.83,0,3.7,0,5.76,0,9.63-.26,18.13-.26,27.09-.1l5.46-.09c1.78,0,3.55-.07,5.32-.12v-.92c-.2,0-.4,0-.6-.06l-5.65-.07-5.45-.08c-9.58-1.21-18.86.39-28.17-.37l-3.18,0q-15.58-.21-31.18-.39c-1.89,0-3.78,0-5-.13a68,68,0,0,0-12.88-1.86c-1.45-.08-2.89-.12-4.34-.14-6.29,1.24-12.08-.86-17.86-2.44-1.15-.31-2.31-.61-3.46-.85-48,3.08-95.59,1.62-144,6.25-1.87.11-3.6.17-5.34.23-8,.11-15.92-.06-23.92-.68a1.57,1.57,0,0,0,.24.21c-8.82-.47-17.54.59-25.75.59-67.34,3.15-133.92-.72-201.24-.8-.2,0-.44,0-.33.06h-9a166.64,166.64,0,0,0-17.33-.23c-1.46,0-2.91.1-4.37.17-16.54-.51-32.64,1.69-49.3,1.63H326.1c-7.06,0-14.12,0-20.86-.06l-4.1-.08-2.67-.06-3.42-.06c-7.66-.35-15.67-.48-23.57-.57-1.59,0-3.17,0-4.8-.08-20.5-4.15-40.26-6.34-60.47.35l-4.69.22c-1.56.08-3.13.18-4.7.29v2.45h.57C200.19,64.05,203,64.1,205.84,64.06ZM642,60.42a4.92,4.92,0,0,1,1.8.24Q642.87,60.53,642,60.42Z"/>
      </g>
    </g>
    <g>
      <path class="cls-4" d="M4.56,18.65V51.91A14.09,14.09,0,0,1,18.65,66v.06H211.27s0,0,0-.06a14.09,14.09,0,0,1,14.06-14.09V18.65A14.1,14.1,0,0,1,211.26,4.56H18.65A14.09,14.09,0,0,1,4.56,18.65Z"/>
      <path class="cls-6" d="M.5,14.59V47.85A14.09,14.09,0,0,1,14.59,62V62H207.21V62a14.11,14.11,0,0,1,14-14.1V14.59A14.09,14.09,0,0,1,207.21.5H14.59A14.09,14.09,0,0,1,.5,14.59Z"/>
      <path class="cls-7" d="M.5,14.59V47.85A14.09,14.09,0,0,1,14.59,62V62H207.21V62a14.11,14.11,0,0,1,14-14.1V14.59A14.09,14.09,0,0,1,207.21.5H14.59A14.09,14.09,0,0,1,.5,14.59Z"/>
      <g>
        <path class="cls-8" d="M97.85,18.11V40.72H94.79V30.43H82.6V40.72H79.54V18.11H82.6V28.19H94.79V18.11Z"/>
        <path class="cls-8" d="M106.69,40.72h-3.06V18.11h3.06Z"/>
        <path class="cls-8" d="M130.84,18.11l-9.22,22.61h-2.74l-9.21-22.61h2.44a1,1,0,0,1,.66.21,1.18,1.18,0,0,1,.38.52l6.38,16c.13.35.27.74.4,1.16s.25.87.35,1.33c.11-.46.22-.91.33-1.33s.25-.81.38-1.16l6.36-15.95a1.15,1.15,0,0,1,.37-.5,1,1,0,0,1,.67-.23Z"/>
      </g>
    </g>
  </g>
</svg>
