<svg width="52" height="47" viewBox="0 0 52 47" fill="none" xmlns="http://www.w3.org/2000/svg">
<path d="M16.1875 26.4862L13.7925 26.2608C11.7799 28.5052 9.63457 30.627 7.36808 32.6147V25.6551L1 25.0633V6.88894L31.375 1V12.0877M16.187 15.1591L5.80375 15.6943M26.5844 7.94558L5.80375 10.5662M16.187 21.0622L5.80375 20.8085M25.3586 28.1065L46.1251 29.1631M25.3586 21.4144L46.1251 24.0348M25.3586 34.7844L46.1251 34.2773M51 20.3577L20.625 14.4686V41.378L38.2075 39.7296C40.2201 41.974 42.3654 44.0958 44.6319 46.0835V39.1237L51 38.5321V20.3577Z" stroke="#515151" stroke-width="1.75" stroke-miterlimit="10" stroke-linecap="round" stroke-linejoin="round"/>
</svg>
