<svg id="Layer_1" data-name="Layer 1" xmlns="http://www.w3.org/2000/svg" viewBox="0 0 49.28 55.88">
  <defs>
    <style>
      .cls-1 {
        fill: none;
        stroke: #898989;
        stroke-linejoin: round;
      }
    </style>
  </defs>
  <g>
    <polyline class="cls-1" points="12.68 15.85 17.57 3.88 22.46 15.85"/>
    <polyline class="cls-1" points="13.77 25.63 13.77 23.46 12.68 22.37 12.68 20.19 22.46 20.19 22.46 22.37 21.38 23.46 21.38 25.63"/>
    <line class="cls-1" x1="23.55" y1="15.84" x2="11.59" y2="15.84"/>
    <line class="cls-1" x1="21.38" y1="15.84" x2="21.38" y2="20.19"/>
    <line class="cls-1" x1="13.77" y1="15.84" x2="13.77" y2="20.19"/>
    <polyline class="cls-1" points="30.08 35.42 24.64 25.63 19.2 35.42"/>
    <line class="cls-1" x1="18.12" y1="35.42" x2="31.16" y2="35.42"/>
    <line class="cls-1" x1="20.29" y1="35.42" x2="20.29" y2="38.68"/>
    <line class="cls-1" x1="28.99" y1="35.42" x2="28.99" y2="38.68"/>
    <line class="cls-1" x1="35.51" y1="40.85" x2="13.77" y2="40.85"/>
    <polygon class="cls-1" points="46.39 32.16 44.21 34.33 35.51 34.33 33.34 32.16 33.34 27.8 46.39 27.8 46.39 32.16"/>
    <line class="cls-1" x1="42.04" y1="27.81" x2="42.04" y2="31.07"/>
    <line class="cls-1" x1="37.69" y1="27.81" x2="37.69" y2="31.07"/>
    <line class="cls-1" x1="35.51" y1="34.33" x2="35.51" y2="51.73"/>
    <line class="cls-1" x1="39.86" y1="39.77" x2="39.86" y2="43.03"/>
    <polygon class="cls-1" points="15.94 32.16 13.77 34.33 5.07 34.33 2.89 32.16 2.89 27.8 15.94 27.8 15.94 32.16"/>
    <line class="cls-1" x1="11.59" y1="27.81" x2="11.59" y2="31.07"/>
    <line class="cls-1" x1="7.24" y1="27.81" x2="7.24" y2="31.07"/>
    <line class="cls-1" x1="13.77" y1="34.33" x2="13.77" y2="51.73"/>
    <line class="cls-1" x1="9.42" y1="39.77" x2="9.42" y2="43.03"/>
    <polyline class="cls-1" points="5.07 34.33 5.07 51.73 44.21 51.73 44.21 34.33"/>
    <path class="cls-1" d="M27.9,51.73V48.25a3.27,3.27,0,0,0-6.52,0v3.48"/>
    <polyline class="cls-1" points="39.86 22.37 34.43 11.49 28.99 22.37"/>
    <line class="cls-1" x1="27.9" y1="22.37" x2="40.95" y2="22.37"/>
    <line class="cls-1" x1="30.08" y1="22.37" x2="30.08" y2="28.89"/>
    <line class="cls-1" x1="38.77" y1="22.37" x2="38.77" y2="25.63"/>
  </g>
</svg>
