<svg width="52" height="46" viewBox="0 0 52 46" fill="none" xmlns="http://www.w3.org/2000/svg">
<path d="M8.40741 39.5V35.8333C8.40741 35.3471 8.60251 34.8808 8.9498 34.537C9.29709 34.1932 9.76812 34 10.2593 34H17.6667C18.1578 34 18.6288 34.1932 18.9761 34.537C19.3234 34.8808 19.5185 35.3471 19.5185 35.8333V39.5M29.0185 13.8334H51V45H1V13.8334H21.1296M26.9259 34H41.7407M26.9259 37.6667H41.7407M45.4444 34H47.2963M45.4444 37.6667H47.2963M12.1111 31.6717C11.5486 31.3502 11.0814 30.8879 10.7564 30.3312C10.4314 29.7745 10.2599 29.143 10.2593 28.5V26.6667C10.2593 25.6942 10.6495 24.7616 11.344 24.074C12.0386 23.3863 12.9807 23 13.963 23C14.9452 23 15.8873 23.3863 16.5819 24.074C17.2765 24.7616 17.6667 25.6942 17.6667 26.6667V28.5C17.666 29.143 17.4946 29.7745 17.1695 30.3312C16.8445 30.8879 16.3773 31.3502 15.8148 31.6717V34H12.1111V31.6717ZM4.7037 19.3334H23.2222V39.5H4.7037V19.3334ZM28.7778 15.6667H21.3704L19.7778 3.05338C19.7462 2.79482 19.7706 2.53256 19.8495 2.28407C19.9283 2.03559 20.0597 1.80658 20.2349 1.6123C20.4101 1.41803 20.6251 1.26294 20.8656 1.15737C21.1061 1.05179 21.3666 0.998165 21.6296 1.00005H28.5556C28.8186 0.998165 29.0791 1.05179 29.3196 1.15737C29.5601 1.26294 29.7751 1.41803 29.9503 1.6123C30.1255 1.80658 30.2569 2.03559 30.3357 2.28407C30.4146 2.53256 30.439 2.79482 30.4074 3.05338L28.7778 15.6667ZM26 12C26 12.5063 25.5854 12.9167 25.0741 12.9167C24.5627 12.9167 24.1481 12.5063 24.1481 12C24.1481 11.4938 24.5627 11.0834 25.0741 11.0834C25.5854 11.0834 26 11.4938 26 12ZM26.9259 19.3334H47.2963V23H26.9259V19.3334ZM26.9259 26.6667H45.4444V30.3334H26.9259V26.6667Z" stroke="#515151" stroke-width="1.75" stroke-linecap="round" stroke-linejoin="round"/>
</svg>
