<svg width="52" height="44" viewBox="0 0 52 44" fill="none" xmlns="http://www.w3.org/2000/svg">
<path d="M21.6522 30.3478H43.3913M21.6522 35.7826H43.3913M1 11.8696H46.6522M14.0435 11.8696V37.9565M5.34783 18.3913H9.69565M5.34783 23.8261H9.69565M5.34783 29.2609H9.69565M21.6522 18.3913H43.3913V24.913H21.6522V18.3913ZM3.17391 1H48.8261C50.0267 1 51 1.97329 51 3.17391V40.1304C51 41.3311 50.0267 42.3043 48.8261 42.3043H3.17391C1.97329 42.3043 1 41.3311 1 40.1304V3.17391C1 1.97329 1.97329 1 3.17391 1ZM8.6087 6.43478C8.6087 7.03509 8.12205 7.52174 7.52174 7.52174C6.92143 7.52174 6.43478 7.03509 6.43478 6.43478C6.43478 5.83447 6.92143 5.34783 7.52174 5.34783C8.12205 5.34783 8.6087 5.83447 8.6087 6.43478ZM14.0435 6.43478C14.0435 7.03509 13.5568 7.52174 12.9565 7.52174C12.3562 7.52174 11.8696 7.03509 11.8696 6.43478C11.8696 5.83447 12.3562 5.34783 12.9565 5.34783C13.5568 5.34783 14.0435 5.83447 14.0435 6.43478ZM19.4783 6.43478C19.4783 7.03509 18.9916 7.52174 18.3913 7.52174C17.791 7.52174 17.3043 7.03509 17.3043 6.43478C17.3043 5.83447 17.791 5.34783 18.3913 5.34783C18.9916 5.34783 19.4783 5.83447 19.4783 6.43478Z" stroke="#515151" stroke-width="1.75" stroke-linecap="round" stroke-linejoin="round"/>
</svg>
