<svg width="50" height="39" viewBox="0 0 50 39" fill="none" xmlns="http://www.w3.org/2000/svg">
<path d="M49.4904 0.0599786C49.3446 -0.000346869 49.1838 -0.0155275 49.029 0.0160735C48.8742 0.0476745 48.7326 0.124758 48.6229 0.237262L11.6772 37.1851C11.5677 37.2993 11.4939 37.4422 11.4646 37.5969C11.4353 37.7515 11.4517 37.9116 11.5119 38.0572C11.5745 38.2004 11.6784 38.3219 11.8107 38.4068C11.9431 38.4916 12.0978 38.5359 12.2555 38.5338H49.1875C49.2927 38.5362 49.3972 38.5168 49.4944 38.477C49.5916 38.4371 49.6794 38.3776 49.752 38.3023C49.8268 38.2295 49.8861 38.1425 49.9263 38.0466C49.9666 37.9506 49.9869 37.8477 49.9862 37.7439V0.795722C49.9853 0.638576 49.9378 0.485098 49.8497 0.354343C49.7616 0.223587 49.6367 0.121237 49.4904 0.0599786ZM14.1696 36.9536L48.3888 2.73021V9.26974H46.8465C46.7416 9.26974 46.6378 9.29024 46.5409 9.32995C46.444 9.36966 46.356 9.42787 46.2818 9.50124C46.2076 9.57462 46.1488 9.66182 46.1087 9.75769C46.0685 9.85356 46.0478 9.95627 46.0478 10.06C46.0478 10.1638 46.0685 10.2665 46.1087 10.3624C46.1488 10.4583 46.2076 10.5455 46.2818 10.6188C46.356 10.6922 46.444 10.7504 46.5409 10.7901C46.6378 10.8298 46.7416 10.85 46.8465 10.85H48.3888V14.4878H46.8465C46.7416 14.4878 46.6378 14.5083 46.5409 14.548C46.444 14.5877 46.356 14.6459 46.2818 14.7193C46.2076 14.7927 46.1488 14.8795 46.1087 14.9754C46.0685 15.0713 46.0478 15.174 46.0478 15.2778C46.0478 15.3815 46.0685 15.4846 46.1087 15.5804C46.1488 15.6763 46.2076 15.7632 46.2818 15.8366C46.356 15.9099 46.444 15.9681 46.5409 16.0079C46.6378 16.0476 46.7416 16.0681 46.8465 16.0681H48.3888V19.6922H46.8603C46.7457 19.6774 46.6292 19.6866 46.5186 19.7198C46.408 19.7531 46.3057 19.8094 46.2189 19.8848C46.132 19.9602 46.0624 20.0534 46.0147 20.1575C45.967 20.2617 45.9423 20.3748 45.9423 20.4892C45.9423 20.6035 45.967 20.7166 46.0147 20.8208C46.0624 20.925 46.132 21.0178 46.2189 21.0932C46.3057 21.1686 46.408 21.2249 46.5186 21.2582C46.6292 21.2914 46.7457 21.301 46.8603 21.2861H48.3888V24.9099H46.8603C46.7554 24.9099 46.6515 24.9304 46.5546 24.9702C46.4577 25.0099 46.3698 25.0681 46.2956 25.1414C46.2214 25.2148 46.1626 25.302 46.1225 25.3979C46.0823 25.4938 46.0616 25.5965 46.0616 25.7002C46.0616 25.804 46.0823 25.9067 46.1225 26.0026C46.1626 26.0985 46.2214 26.1857 46.2956 26.259C46.3698 26.3324 46.4577 26.3906 46.5546 26.4303C46.6515 26.47 46.7554 26.4905 46.8603 26.4905H48.3888V30.128H46.8603C46.6448 30.128 46.4382 30.2128 46.2858 30.3635C46.1335 30.5142 46.0478 30.7188 46.0478 30.9319C46.0478 31.1415 46.132 31.3422 46.2818 31.4904C46.4316 31.6386 46.6347 31.7219 46.8465 31.7219H48.3888V36.9672L14.1696 36.9536Z" fill="#515151"/>
<path d="M41.8066 17.7165C41.6608 17.6562 41.4999 17.641 41.3451 17.6726C41.1904 17.7042 41.0488 17.7813 40.939 17.8938L28.5458 30.3595C28.432 30.4681 28.3541 30.6082 28.3222 30.7613C28.2902 30.9144 28.3058 31.0737 28.3667 31.218C28.4286 31.3627 28.5321 31.486 28.6643 31.5732C28.7964 31.6604 28.9515 31.7074 29.1103 31.7083H41.5036C41.609 31.7101 41.7137 31.6911 41.8114 31.652C41.9092 31.613 41.998 31.5548 42.0725 31.4811C42.147 31.4073 42.2058 31.3193 42.2453 31.2226C42.2848 31.1259 42.3041 31.0226 42.3023 30.9183V18.4659C42.308 18.3056 42.2634 18.1477 42.1746 18.0135C42.0858 17.8794 41.9573 17.7755 41.8066 17.7165ZM30.9693 30.1144L40.7049 20.3734V30.1007L30.9693 30.1144Z" fill="#515151"/>
<path d="M8.22074 8.24789V2.49865C8.22075 2.2345 8.16793 1.97285 8.06534 1.72898C7.96275 1.4851 7.81243 1.26387 7.623 1.07772C7.43357 0.89157 7.20881 0.744162 6.96163 0.644321C6.71445 0.54448 6.44975 0.494178 6.18276 0.495975H2.05167C1.78468 0.495969 1.52031 0.548146 1.27381 0.649643C1.02732 0.751139 0.803534 0.899949 0.615386 1.08736C0.427237 1.27478 0.278413 1.49706 0.177499 1.74162C0.0765852 1.98617 0.0255743 2.24814 0.0273906 2.51228V31.2588C0.0267316 31.3817 0.0550174 31.503 0.110009 31.6131L3.41492 38.1114C3.48543 38.23 3.58605 38.3287 3.70681 38.3971C3.82758 38.4654 3.9643 38.5012 4.10343 38.5012C4.24257 38.5012 4.37929 38.4654 4.50005 38.3971C4.62082 38.3287 4.72144 38.23 4.79195 38.1114L8.11056 31.6131C8.16555 31.503 8.19383 31.3817 8.19317 31.2588V8.19334L8.22074 8.24789ZM2.0241 2.13078H6.15519C6.21306 2.13078 6.27033 2.14213 6.32379 2.16404C6.37726 2.18595 6.42584 2.21802 6.46676 2.2585C6.50768 2.29898 6.54018 2.34697 6.56232 2.39986C6.58447 2.45275 6.59585 2.50958 6.59585 2.56683V7.4576H1.56966V2.56683C1.56761 2.50787 1.57812 2.44893 1.60042 2.39421C1.62272 2.33948 1.65628 2.29026 1.69909 2.24919C1.7419 2.20811 1.79298 2.17609 1.84895 2.15572C1.90492 2.13536 1.96459 2.12693 2.0241 2.13078ZM1.59723 30.5095V9.03818H6.62334V30.5095H1.59723ZM4.10343 36.0541L2.09294 32.1033H6.12763L4.10343 36.0541Z" fill="#515151"/>
<path d="M12.2555 33.8336C12.4673 33.8336 12.6704 33.7503 12.8202 33.6021C12.97 33.4539 13.0542 33.2529 13.0542 33.0433V7.29427L18.7964 1.61322H38.0748V5.87734C38.0748 6.08691 38.1589 6.28794 38.3087 6.43613C38.4585 6.58432 38.6617 6.66763 38.8735 6.66763C39.0853 6.66763 39.2884 6.58432 39.4382 6.43613C39.588 6.28794 39.6721 6.08691 39.6721 5.87734V0.822924C39.6721 0.613354 39.588 0.412321 39.4382 0.264132C39.2884 0.115943 39.0853 0.0326322 38.8735 0.0326322H18.4659C18.3588 0.0316256 18.2526 0.0517576 18.1533 0.091505C18.0541 0.131252 17.9638 0.190057 17.8876 0.264465L11.6771 6.40885C11.5332 6.56079 11.4499 6.75919 11.443 6.96731V33.0433C11.443 33.1482 11.4641 33.2522 11.5051 33.349C11.5461 33.4457 11.6061 33.5335 11.6818 33.6071C11.7574 33.6806 11.8471 33.7385 11.9456 33.7774C12.0441 33.8163 12.1494 33.8354 12.2555 33.8336Z" fill="#515151"/>
<path d="M18.3007 3.19343V6.74942H14.8029C14.6883 6.73456 14.5718 6.74377 14.4612 6.77702C14.3506 6.81028 14.2485 6.86656 14.1616 6.942C14.0747 7.01744 14.005 7.11055 13.9573 7.21474C13.9096 7.31893 13.885 7.43198 13.885 7.54636C13.885 7.66074 13.9096 7.77379 13.9573 7.87798C14.005 7.98217 14.0747 8.07495 14.1616 8.15039C14.2485 8.22583 14.3506 8.28211 14.4612 8.31537C14.5718 8.34862 14.6883 8.35816 14.8029 8.3433H19.0994C19.3112 8.3433 19.5143 8.25999 19.6641 8.1118C19.8139 7.96362 19.898 7.76258 19.898 7.55301V3.19343C19.898 2.98386 19.8139 2.78283 19.6641 2.63464C19.5143 2.48645 19.3112 2.40314 19.0994 2.40314C18.8875 2.40314 18.6843 2.48645 18.5346 2.63464C18.3848 2.78283 18.3007 2.98386 18.3007 3.19343Z" fill="#515151"/>
<path d="M4.90209 13.2477C4.90209 13.0381 4.81797 12.8374 4.66818 12.6892C4.5184 12.5411 4.31529 12.4577 4.10347 12.4577C3.89165 12.4577 3.68845 12.5411 3.53867 12.6892C3.38889 12.8374 3.30477 13.0381 3.30477 13.2477V25.741C3.30477 25.9506 3.38889 26.1516 3.53867 26.2998C3.68845 26.448 3.89165 26.531 4.10347 26.531C4.31658 26.531 4.52117 26.4483 4.67314 26.3005C4.82512 26.1527 4.91226 25.9519 4.91587 25.741L4.90209 13.2477Z" fill="#515151"/>
</svg>
