<svg width="50" height="50" viewBox="0 0 50 50" fill="none" xmlns="http://www.w3.org/2000/svg">
<path d="M12.3718 33.2564C11.7968 33.2532 11.227 33.3644 10.6953 33.5833C10.1636 33.8023 9.68075 34.1246 9.27475 34.5317C8.44948 35.3578 7.9859 36.4777 7.9859 37.6454C7.9859 38.8131 8.44948 39.933 9.27475 40.759C10.1022 41.5753 11.2178 42.0329 12.3801 42.0329C13.5424 42.0329 14.658 41.5753 15.4855 40.759C16.3067 39.9308 16.7676 38.8117 16.7676 37.6454C16.7676 36.479 16.3067 35.3599 15.4855 34.5317C15.0764 34.1241 14.5906 33.8014 14.0562 33.5825C13.5218 33.3637 12.9493 33.2528 12.3718 33.2564ZM14.293 39.5666C13.913 39.9463 13.4291 40.2047 12.9022 40.3094C12.3754 40.4141 11.8294 40.3604 11.3332 40.1547C10.8369 39.9491 10.4129 39.6008 10.1145 39.1542C9.81609 38.7076 9.65686 38.1825 9.65686 37.6454C9.65686 37.1082 9.81609 36.5832 10.1145 36.1366C10.4129 35.6899 10.8369 35.3419 11.3332 35.1362C11.8294 34.9306 12.3754 34.8767 12.9022 34.9814C13.4291 35.086 13.913 35.3444 14.293 35.7241C14.5441 35.9785 14.7423 36.2803 14.8759 36.6119C15.0095 36.9435 15.0759 37.2982 15.0713 37.6557C15.0667 38.0131 14.9911 38.3662 14.8489 38.6943C14.7068 39.0223 14.501 39.3188 14.2433 39.5666H14.293Z" fill="#515151"/>
<path d="M37.5956 7.98282C36.8753 7.98619 36.167 8.1668 35.533 8.50867C34.899 8.85054 34.3589 9.34333 33.9603 9.94329C33.5617 10.5432 33.317 11.2319 33.2476 11.9488C33.1782 12.6658 33.2863 13.3888 33.5624 14.0541C33.8385 14.7193 34.2741 15.3065 34.8308 15.7636C35.3874 16.2207 36.048 16.5338 36.7542 16.6752C37.4605 16.8167 38.1907 16.782 38.8805 16.5745C39.5702 16.367 40.1982 15.9931 40.7092 15.4854C41.5345 14.6594 41.9981 13.5394 41.9981 12.3718C41.9981 11.2041 41.5345 10.0842 40.7092 9.25813C40.3001 8.85046 39.8144 8.52801 39.28 8.30913C38.7455 8.09025 38.173 7.97923 37.5956 7.98282ZM39.5168 14.293C39.0726 14.7375 38.488 15.0142 37.8626 15.076C37.2373 15.1378 36.6099 14.9808 36.0874 14.6319C35.5648 14.2829 35.1793 13.7635 34.9966 13.1623C34.814 12.561 34.8455 11.9151 35.0858 11.3344C35.3261 10.7538 35.7602 10.2745 36.3143 9.97806C36.8684 9.68163 37.5081 9.58641 38.1244 9.70877C38.7408 9.83112 39.2957 10.1635 39.6945 10.6491C40.0933 11.1347 40.3115 11.7434 40.3117 12.3718C40.3128 12.7287 40.2431 13.0822 40.1066 13.412C39.9702 13.7417 39.7697 14.0412 39.5168 14.293Z" fill="#515151"/>
<path d="M39.8481 0.761784C39.3586 0.277158 38.6985 0.0037233 38.0097 0C37.3259 0.00450784 36.6714 0.278153 36.1879 0.761784L23.253 13.6968C23.1051 13.8535 23.0228 14.0609 23.0228 14.2764C23.0228 14.4919 23.1051 14.6992 23.253 14.856C24.3042 16.0319 24.8657 17.5654 24.8226 19.1421C24.7795 20.7187 24.135 22.219 23.0211 23.3357C21.9045 24.4495 20.404 25.0942 18.8274 25.1373C17.2508 25.1804 15.7173 24.6187 14.5414 23.5676C14.3847 23.4197 14.1773 23.3373 13.9618 23.3373C13.7463 23.3373 13.5389 23.4197 13.3821 23.5676L0.761904 36.1878C0.518952 36.4281 0.326442 36.7146 0.19562 37.0302C0.0647974 37.3459 -0.00164013 37.6844 0.000119478 38.0261C-0.00319844 38.3656 0.0626195 38.7024 0.193598 39.0156C0.324577 39.3288 0.517909 39.6119 0.761904 39.8479L10.1194 49.222C10.6046 49.7011 11.2594 49.9691 11.9412 49.9674C12.6281 49.9699 13.2883 49.7021 13.7796 49.222L49.2387 13.7629C49.7262 13.2752 50 12.614 50 11.9245C50 11.235 49.7262 10.5738 49.2387 10.0862L39.8481 0.761784ZM48.0132 12.6036L12.554 48.0628C12.3799 48.2222 12.1524 48.3106 11.9163 48.3106C11.6803 48.3106 11.4529 48.2222 11.2788 48.0628L1.92126 38.7052C1.7533 38.5322 1.65935 38.3005 1.65935 38.0593C1.65935 37.8181 1.7533 37.5864 1.92126 37.4134L13.9949 25.3233C15.5062 26.4324 17.3645 26.9639 19.2338 26.822C21.103 26.68 22.8598 25.8739 24.1864 24.5493C25.5129 23.2248 26.3216 21.4694 26.4664 19.6004C26.6111 17.7314 26.0823 15.8723 24.9754 14.3593L37.3803 1.9542C37.5506 1.78729 37.7795 1.694 38.018 1.694C38.2564 1.694 38.4853 1.78729 38.6556 1.9542L48.0132 11.3117C48.1808 11.4853 48.2756 11.7164 48.2781 11.9577C48.2805 12.0777 48.2582 12.1971 48.2126 12.3082C48.167 12.4193 48.0992 12.5198 48.0132 12.6036Z" fill="#515151"/>
<path d="M22.5905 15.5517C22.4322 15.3939 22.2178 15.3053 21.9943 15.3053C21.7708 15.3053 21.5564 15.3939 21.3981 15.5517L15.1873 21.7458C15.0372 21.9081 14.9537 22.121 14.9537 22.3421C14.9537 22.5631 15.0372 22.776 15.1873 22.9383C15.3457 23.096 15.56 23.1847 15.7836 23.1847C16.0071 23.1847 16.2214 23.096 16.3798 22.9383L22.5905 16.7441C22.7483 16.5858 22.8368 16.3714 22.8368 16.1479C22.8368 15.9244 22.7483 15.71 22.5905 15.5517Z" fill="#515151"/>
<path d="M19.1953 24.048C19.3039 24.0493 19.4116 24.0279 19.5114 23.9851C19.6112 23.9423 19.701 23.8791 19.7749 23.7995L23.4352 20.1394C23.5212 20.0629 23.5907 19.9695 23.6395 19.8652C23.6882 19.7609 23.715 19.6479 23.7184 19.5329C23.7218 19.4178 23.7015 19.3032 23.6591 19.1963C23.6166 19.0893 23.5527 18.9922 23.4713 18.9108C23.39 18.8294 23.2928 18.7654 23.1858 18.723C23.0788 18.6805 22.9643 18.6603 22.8493 18.6637C22.7342 18.6671 22.621 18.6939 22.5167 18.7426C22.4124 18.7913 22.3192 18.8607 22.2427 18.9468L18.5991 22.6071C18.4413 22.7654 18.3528 22.9798 18.3528 23.2033C18.3528 23.4268 18.4413 23.6412 18.5991 23.7995C18.6762 23.8795 18.7689 23.9428 18.8714 23.9855C18.974 24.0282 19.0842 24.0496 19.1953 24.048Z" fill="#515151"/>
</svg>
