<svg width="51" height="45" viewBox="0 0 51 45" fill="none" xmlns="http://www.w3.org/2000/svg">
<g clip-path="url(#clip0_519_167)">
<path d="M29.3685 13.125C29.3158 12.825 29.2947 12.5062 29.2947 12.1875C29.2947 8.55938 32.5957 5.625 36.6771 5.625C40.7585 5.625 44.0595 8.55938 44.0595 12.1875V15.75C44.0595 18.3562 42.9522 20.8594 40.9695 22.7625C40.2628 23.4281 39.841 24.3281 39.841 25.3125C39.841 27.3844 41.7288 29.0625 44.0595 29.0625M49.3327 12.1875C49.3327 5.97188 43.6693 0.9375 36.6771 0.9375C29.6849 0.9375 24.0216 5.97188 24.0216 12.1875C24.0216 12.5063 24.0532 12.8156 24.0848 13.125M29.3158 32.8125L30.6341 37.6312C31.6465 41.325 35.3799 44.0625 39.841 44.0625C45.0825 44.0625 49.3327 40.2844 49.3327 35.625M2.92896 32.8125L8.2021 28.125V15C8.2021 13.9687 9.15127 13.125 10.3114 13.125H31.404C32.5641 13.125 33.5132 13.9687 33.5132 15V30.9375C33.5132 31.9687 32.5641 32.8125 31.404 32.8125H2.92896Z" stroke="#515151" stroke-width="1.75" stroke-miterlimit="10"/>
</g>
<defs>
<clipPath id="clip0_519_167">
<rect width="50" height="45" fill="white" transform="translate(0.387207)"/>
</clipPath>
</defs>
</svg>
