<svg width="52" height="52" viewBox="0 0 52 52" fill="none" xmlns="http://www.w3.org/2000/svg">
<path d="M38.5849 5.41765C38.9972 5.66974 39.5358 5.53987 39.7879 5.12758C40.04 4.7153 39.9101 4.17671 39.4978 3.92462L38.5849 5.41765ZM45.2795 8.74272C44.9572 8.38265 44.4041 8.35204 44.044 8.67434C43.6839 8.99664 43.6533 9.54982 43.9756 9.90989L45.2795 8.74272ZM19.6692 44.3258C19.2119 44.1696 18.7145 44.4136 18.5582 44.8709C18.402 45.3282 18.646 45.8256 19.1033 45.9818L19.6692 44.3258ZM13.7078 43.2212C14.1021 43.5006 14.6483 43.4075 14.9277 43.0133C15.2071 42.619 15.1141 42.0729 14.7198 41.7934L13.7078 43.2212ZM16.5155 36.3435L15.7328 35.9524C15.5645 36.2892 15.6306 36.696 15.8968 36.9622C16.1631 37.2285 16.5698 37.2945 16.9066 37.1262L16.5155 36.3435ZM22.8345 23.697L22.4434 22.9142C22.2739 22.9989 22.1365 23.1364 22.0518 23.3059L22.8345 23.697ZM35.481 17.378L36.2638 17.7691C36.4321 17.4323 36.366 17.0256 36.0997 16.7593C35.8335 16.493 35.4268 16.427 35.0899 16.5953L35.481 17.378ZM29.1621 30.0245L29.5532 30.8073C29.7227 30.7226 29.8601 30.5852 29.9448 30.4156L29.1621 30.0245ZM39.4978 3.92462C33.9217 0.51515 27.2618 -0.657788 20.8564 0.641477L21.2043 2.35655C27.1765 1.14516 33.3859 2.23877 38.5849 5.41765L39.4978 3.92462ZM20.8564 0.641477C14.4509 1.94074 8.77446 5.61594 4.96751 10.9287L6.39 11.948C9.93948 6.99458 15.232 3.56794 21.2043 2.35655L20.8564 0.641477ZM4.96751 10.9287C1.16055 16.2414 -0.494838 22.798 0.333946 29.2811L2.06982 29.0592C1.29709 23.0145 2.84052 16.9014 6.39 11.948L4.96751 10.9287ZM0.333946 29.2811C1.16273 35.7642 4.41428 41.6936 9.4353 45.8777L10.5556 44.5333C5.87419 40.6322 2.84255 35.1039 2.06982 29.0592L0.333946 29.2811ZM9.4353 45.8777C14.4563 50.0619 20.8748 52.1909 27.4011 51.837L27.3063 50.0896C21.2214 50.4196 15.237 48.4345 10.5556 44.5333L9.4353 45.8777ZM27.4011 51.837C33.9274 51.4831 40.078 48.6726 44.6171 43.97L43.358 42.7546C39.1258 47.1392 33.3912 49.7596 27.3063 50.0896L27.4011 51.837ZM44.6171 43.97C49.1562 39.2674 51.7475 33.0213 51.8704 26.4865L50.1207 26.4536C50.0062 32.5464 47.5901 38.3701 43.358 42.7546L44.6171 43.97ZM51.8704 26.4865C51.9933 19.9518 49.6386 13.6126 45.2795 8.74272L43.9756 9.90989C48.0399 14.4504 50.2353 20.3608 50.1207 26.4536L51.8704 26.4865ZM19.1033 45.9818C24.1669 47.7122 29.6981 47.4606 34.5837 45.2777L33.8698 43.6799C29.3881 45.6824 24.3142 45.9132 19.6692 44.3258L19.1033 45.9818ZM34.5837 45.2777C39.4694 43.0947 43.347 39.1424 45.4363 34.216L43.8252 33.5327C41.9086 38.0518 38.3516 41.6774 33.8698 43.6799L34.5837 45.2777ZM45.4363 34.216C47.5256 29.2895 47.6716 23.7546 45.8449 18.7249L44.2 19.3223C45.8757 23.9362 45.7418 29.0135 43.8252 33.5327L45.4363 34.216ZM45.8449 18.7249C44.0181 13.6952 40.3543 9.54398 35.5905 7.10651L34.7934 8.66442C39.1633 10.9004 42.5243 14.7084 44.2 19.3223L45.8449 18.7249ZM35.5905 7.10651C30.8267 4.66904 25.3165 4.12622 20.1687 5.58729L20.6465 7.27079C25.3688 5.93052 30.4234 6.42846 34.7934 8.66442L35.5905 7.10651ZM20.1687 5.58729C15.0209 7.04835 10.6174 10.4049 7.84437 14.9814L9.34106 15.8883C11.8849 11.6901 15.9243 8.61107 20.6465 7.27079L20.1687 5.58729ZM7.84437 14.9814C5.07132 19.558 4.13447 25.015 5.22234 30.2544L6.9358 29.8987C5.93786 25.0924 6.79726 20.0865 9.34106 15.8883L7.84437 14.9814ZM5.22234 30.2544C6.31021 35.4939 9.34207 40.1268 13.7078 43.2212L14.7198 41.7934C10.7149 38.9549 7.93373 34.7049 6.9358 29.8987L5.22234 30.2544ZM25.1233 8.32631V10.9125H26.8733V8.32631H25.1233ZM43.6707 25.1237H41.0845V26.8737H43.6707V25.1237ZM26.8733 43.6711V41.0849H25.1233V43.6711H26.8733ZM8.32589 26.8737H10.9121V25.1237H8.32589V26.8737ZM17.2983 36.7346L23.6172 24.0881L22.0518 23.3059L15.7328 35.9524L17.2983 36.7346ZM23.2256 24.4797L35.8721 18.1607L35.0899 16.5953L22.4434 22.9142L23.2256 24.4797ZM34.6983 16.9869L28.3793 29.6334L29.9448 30.4156L36.2638 17.7691L34.6983 16.9869ZM28.771 29.2418L16.1244 35.5608L16.9066 37.1262L29.5532 30.8073L28.771 29.2418ZM26.4164 26.8608C26.4164 27.0917 26.2292 27.2789 25.9983 27.2789V29.0289C27.1957 29.0289 28.1664 28.0582 28.1664 26.8608H26.4164ZM25.9983 27.2789C25.7674 27.2789 25.5802 27.0917 25.5802 26.8608H23.8302C23.8302 28.0582 24.8009 29.0289 25.9983 29.0289V27.2789ZM25.5802 26.8608C25.5802 26.6298 25.7674 26.4427 25.9983 26.4427V24.6927C24.8009 24.6927 23.8302 25.6634 23.8302 26.8608H25.5802ZM25.9983 26.4427C26.2292 26.4427 26.4164 26.6298 26.4164 26.8608H28.1664C28.1664 25.6634 27.1957 24.6927 25.9983 24.6927V26.4427Z" fill="#515151"/>
</svg>
