<svg width="36" height="50" viewBox="0 0 36 50" fill="none" xmlns="http://www.w3.org/2000/svg">
<path d="M32.1424 50H3.57138C2.62419 50 1.71579 49.6237 1.04603 48.954C0.376266 48.2842 0 47.3758 0 46.4286V17.8576C0 16.9104 0.376266 16.002 1.04603 15.3323C1.71579 14.6625 2.62419 14.2862 3.57138 14.2862H9.82129C10.0581 14.2862 10.2852 14.3803 10.4526 14.5477C10.6201 14.7152 10.7141 14.9423 10.7141 15.1791C10.7141 15.4159 10.6201 15.643 10.4526 15.8104C10.2852 15.9778 10.0581 16.0719 9.82129 16.0719H3.57138C3.09778 16.0719 2.64361 16.26 2.30873 16.5949C1.97385 16.9298 1.78569 17.384 1.78569 17.8576V46.4286C1.78569 46.9022 1.97385 47.3564 2.30873 47.6913C2.64361 48.0262 3.09778 48.2143 3.57138 48.2143H32.1424C32.616 48.2143 33.0702 48.0262 33.405 47.6913C33.7399 47.3564 33.9281 46.9022 33.9281 46.4286V17.8576C33.9281 17.384 33.7399 16.9298 33.405 16.5949C33.0702 16.26 32.616 16.0719 32.1424 16.0719H25.8925C25.6557 16.0719 25.4286 15.9778 25.2612 15.8104C25.0937 15.643 24.9996 15.4159 24.9996 15.1791C24.9996 14.9423 25.0937 14.7152 25.2612 14.5477C25.4286 14.3803 25.6557 14.2862 25.8925 14.2862H32.1424C33.0896 14.2862 33.998 14.6625 34.6678 15.3323C35.3375 16.002 35.7138 16.9104 35.7138 17.8576V46.4286C35.7138 47.3758 35.3375 48.2842 34.6678 48.954C33.998 49.6237 33.0896 50 32.1424 50Z" fill="#515151"/>
<path d="M26.7853 10.7148C26.6681 10.7149 26.5519 10.6919 26.4435 10.6471C26.3351 10.6023 26.2366 10.5366 26.1536 10.4537L17.8569 2.15692L9.56015 10.4537C9.39262 10.6212 9.16537 10.7153 8.92844 10.7153C8.69152 10.7153 8.46427 10.6212 8.29674 10.4537C8.12921 10.2862 8.03511 10.0589 8.03511 9.822C8.03511 9.58507 8.12921 9.35784 8.29674 9.19031L17.2252 0.261862C17.3081 0.178848 17.4066 0.112996 17.515 0.0680641C17.6234 0.0231324 17.7396 0 17.8569 0C17.9742 0 18.0904 0.0231324 18.1988 0.0680641C18.3072 0.112996 18.4057 0.178848 18.4886 0.261862L27.417 9.19031C27.542 9.31518 27.6272 9.47433 27.6617 9.64761C27.6962 9.8209 27.6785 10.0005 27.6109 10.1638C27.5432 10.327 27.4287 10.4665 27.2817 10.5646C27.1348 10.6627 26.962 10.715 26.7853 10.7148Z" fill="#515151"/>
<path d="M17.8569 33.9288C17.6201 33.9288 17.393 33.8347 17.2256 33.6673C17.0581 33.4999 16.964 33.2728 16.964 33.036V0.893553C16.964 0.656756 17.0581 0.429657 17.2256 0.262216C17.393 0.094775 17.6201 0.000708434 17.8569 0.000708434C18.0937 0.000708434 18.3208 0.094775 18.4882 0.262216C18.6557 0.429657 18.7497 0.656756 18.7497 0.893553V33.036C18.7497 33.2728 18.6557 33.4999 18.4882 33.6673C18.3208 33.8347 18.0937 33.9288 17.8569 33.9288Z" fill="#515151"/>
</svg>
