<svg width="52" height="52" viewBox="0 0 52 52" fill="none" xmlns="http://www.w3.org/2000/svg">
<path d="M1.00949 8.97294V1H8.94163M43.0679 1H51V8.97294M51 43.0175V51H43.0679M8.94163 50.9905H1V43.0175M21.5553 28.5862H28.5777V35.578M40.3954 23.4138H43.7502M21.5459 23.4138H23.2422M8.24035 28.5862H13.1588M8.24035 23.4138H16.5231M28.5777 41.8935V43.8272M23.3844 37.0449V43.8272M23.3844 8.16329V13.7453M28.5777 8.17279V23.4138H35.1926V28.5862H43.7691M8.24035 8.16329H18.2574V18.2318H8.24035V8.16329ZM12.7703 12.726H13.718V13.6786H12.7703V12.726ZM33.7331 8.16329H43.7502V18.2318H33.7331V8.16329ZM38.2726 12.726H39.2203V13.6786H38.2726V12.726ZM8.24035 33.7586H18.2574V43.8272H8.24035V33.7586ZM12.7703 38.3214H13.718V39.2739H12.7703V38.3214ZM33.7331 33.7586H43.7502V43.8272H33.7331V33.7586ZM38.2726 38.3214H39.2203V39.2739H38.2726V38.3214Z" stroke="#515151" stroke-width="1.75" stroke-miterlimit="10" stroke-linecap="round" stroke-linejoin="round"/>
</svg>
