<svg width="51" height="52" viewBox="0 0 51 52" fill="none" xmlns="http://www.w3.org/2000/svg">
<path d="M1 12.7021V51H49.9362V12.7021M41.4255 5.25532H38.234M46.7447 5.25532H43.5532M36.1064 5.25532H32.9149M23.3404 5.25532H4.19149M7.38298 44.617H12.7021M23.3404 44.617H43.5532M1 1H49.9362V9.51064H1V1ZM8.44681 36.1064V16.9574C8.44681 15.7824 9.39939 14.8298 10.5745 14.8298H40.3617C41.5368 14.8298 42.4894 15.7824 42.4894 16.9574V36.1064C42.4894 37.2815 41.5368 38.234 40.3617 38.234H10.5745C9.39939 38.234 8.44681 37.2815 8.44681 36.1064ZM21.2128 21.2128V31.8511L29.7234 26.5319L21.2128 21.2128ZM20.1489 44.617C20.1489 45.7921 19.1964 46.7447 18.0213 46.7447C16.8462 46.7447 15.8936 45.7921 15.8936 44.617C15.8936 43.4419 16.8462 42.4894 18.0213 42.4894C19.1964 42.4894 20.1489 43.4419 20.1489 44.617Z" stroke="#515151" stroke-width="1.75" stroke-miterlimit="10"/>
</svg>
