<svg width="51" height="51" viewBox="0 0 51 51" fill="none" xmlns="http://www.w3.org/2000/svg">
<path d="M13.5006 4.90625H36.9381M13.5006 43.1875H36.9381M24.4381 46.3125H26.0006M26.7818 29.125C26.7818 29.8976 26.5527 30.6528 26.1235 31.2952C25.6943 31.9376 25.0842 32.4382 24.3704 32.7339C23.6567 33.0295 22.8712 33.1069 22.1135 32.9562C21.3558 32.8055 20.6597 32.4334 20.1134 31.8871C19.5671 31.3408 19.1951 30.6448 19.0444 29.8871C18.8937 29.1293 18.971 28.3439 19.2667 27.6301C19.5623 26.9164 20.063 26.3063 20.7054 25.8771C21.3477 25.4478 22.103 25.2188 22.8756 25.2188C23.9116 25.2188 24.9051 25.6303 25.6377 26.3629C26.3703 27.0954 26.7818 28.089 26.7818 29.125ZM26.7818 29.125L26.7818 14.2812C28.1021 16.7734 28.3443 19.5938 32.2506 21.3125M43.3209 41.2734C47.2986 36.8119 49.4785 31.0327 49.4381 25.0556C49.3977 19.0785 47.1399 13.3292 43.1021 8.92189M40.4381 37.4375C43.2808 33.9132 44.8057 29.5079 44.7501 24.9803C44.6945 20.4527 43.0619 16.0862 40.1334 12.6328M7.11775 40.4922C3.14001 36.0307 0.960137 30.2514 1.00055 24.2743C1.04097 18.2972 3.29879 12.5479 7.3365 8.14064M10.0006 36.6563C7.15779 33.1319 5.63293 28.7266 5.68854 24.1991C5.74415 19.6715 7.37678 15.305 10.3053 11.8516M15.8443 1H34.5943C35.2159 1 35.8121 1.24694 36.2516 1.68648C36.6911 2.12602 36.9381 2.72215 36.9381 3.34375V47.0938C36.9381 47.7154 36.6911 48.3115 36.2516 48.751C35.8121 49.1906 35.2159 49.4375 34.5943 49.4375H15.8443C15.2227 49.4375 14.6266 49.1906 14.1871 48.751C13.7475 48.3115 13.5006 47.7154 13.5006 47.0938V3.34375C13.5006 2.72215 13.7475 2.12602 14.1871 1.68648C14.6266 1.24694 15.2227 1 15.8443 1Z" stroke="#515151" stroke-width="1.75" stroke-linecap="round" stroke-linejoin="round"/>
</svg>
