<svg width="52" height="36" viewBox="0 0 52 36" fill="none" xmlns="http://www.w3.org/2000/svg">
<path d="M13.1898 24.7012C12.8489 24.3337 12.0145 23.3402 11.6385 22.9319C10.53 21.7482 9.21572 20.8526 7.78384 20.3052M39.3383 22.3059L43.9098 20.1691M40.09 5.85135L37.105 7.70233C36.8355 7.90353 36.5206 8.00772 36.2 8.00175H30.6883C28.9255 8.00175 27.0569 7.37569 25.3999 8.08341L20.6991 10.1385L17.62 13.2416L16.7269 14.2215C16.6466 14.3093 16.5956 14.4268 16.5827 14.5537C16.5699 14.6806 16.5959 14.8087 16.6563 14.9156C17.2087 15.8139 18.5014 17.937 22.5324 15.0789L29.5131 14.2624M14.5056 28.4576C13.0953 30.1316 15.9981 32.5406 17.8197 31.5879M24.8714 29.2198C25.2458 29.1709 25.6249 29.227 25.9767 29.3833C26.3285 29.5396 26.6427 29.7916 26.8928 30.118L26.9867 30.2405C27.5508 31.0979 26.9868 31.9826 26.3052 32.7719C25.7763 33.3708 24.4601 34.9223 23.7197 34.9904C22.4152 35.0993 21.3693 34.2691 21.4868 33.2483M23.1789 26.1575L17.6671 31.6015C17.4791 31.792 17.3733 31.7648 17.7376 32.4589C18.102 33.153 20.2644 33.6566 20.8402 33.4797C21.5472 33.0692 22.2066 32.5571 22.8028 31.9554L23.8018 30.8121C24.4834 30.0091 25.8114 28.6073 24.977 27.396C24.5919 26.8566 24.0473 26.5024 23.4492 26.4025C23.4117 26.3975 23.3763 26.3804 23.3469 26.353C23.3174 26.3257 23.2953 26.2893 23.283 26.248C23.2707 26.2068 23.2687 26.1623 23.2773 26.1198C23.286 26.0773 23.3048 26.0385 23.3316 26.0078C23.739 25.6353 24.0023 25.091 24.064 24.4941C24.1257 23.8972 23.9807 23.2964 23.6607 22.823C23.3607 22.374 22.9202 22.0795 22.4343 22.0031C21.9484 21.9267 21.4561 22.0746 21.0635 22.4147L19.6532 23.5308C20.1351 23.1361 19.8766 22.442 19.4065 21.8295C19.2566 21.5767 19.0641 21.3616 18.8406 21.1972C18.617 21.0328 18.3671 20.9225 18.1058 20.8729C17.8444 20.8233 17.5772 20.8354 17.32 20.9086C17.0629 20.9818 16.8212 21.1145 16.6095 21.2987L12.2259 24.5243C11.9261 24.8292 11.7322 25.25 11.6804 25.7082C11.6285 26.1664 11.7221 26.6308 11.9439 27.0149C12.8605 28.512 13.9535 28.6617 14.5529 28.3759C15.1522 28.0901 14.8232 28.2126 14.8937 28.1445L19.7943 23.4491M28.3264 27.7499C29.9835 29.1925 31.7463 31.6151 32.5219 31.6559C32.9332 31.6559 33.2975 31.3973 33.8146 30.8665C34.0348 30.6941 34.2202 30.4686 34.3581 30.2056C34.496 29.9425 34.5833 29.648 34.6138 29.3422C34.6138 28.7026 34.2495 28.4848 33.8382 28.0629C32.7452 26.9196 31.8168 25.6811 30.7121 24.6332M32.7449 26.8516C34.402 28.2943 34.9191 29.3014 35.6947 29.3422C36.106 29.3422 36.4703 29.07 36.9874 28.5529C37.2076 28.3804 37.393 28.1549 37.5309 27.8918C37.6688 27.6288 37.756 27.3343 37.7865 27.0285C37.8071 26.7365 37.7665 26.4429 37.6683 26.1729C37.5701 25.9028 37.4172 25.6641 37.2225 25.477M33.6617 21.8295C35.3187 23.2586 37.1873 25.9125 38.0217 25.9125C38.4331 25.9125 38.7974 25.6403 39.3145 25.1095C39.8316 24.5787 40.0549 24.4426 40.0901 23.7485C40.1254 23.0544 39.6788 22.755 39.338 22.2514C38.2215 20.6318 37.1991 19.2844 36.4117 18.1684C35.8684 17.3695 35.1501 16.7538 34.3316 16.3855L29.6307 14.2215M27.1156 31.8329L27.762 32.3364C28.1821 32.6208 28.6325 32.8403 29.1017 32.9897C29.8421 32.9897 30.3945 32.1187 31.0761 31.3293M12.6373 6.981L15.2815 8.342C15.7532 8.53428 16.2615 8.57194 16.7505 8.45086L21.3573 7.2668C21.6798 7.1986 22.0103 7.1986 22.3328 7.2668L24.8947 8.24672M34.3316 16.4127C36.1013 16.9335 37.9737 16.7016 39.6083 15.7594M12.2027 5.00753C12.4296 5.12387 12.6076 5.33938 12.6978 5.60708C12.7881 5.87478 12.7833 6.17298 12.6845 6.4366L6.80847 21.6526C6.72338 21.8721 6.56778 22.0446 6.37472 22.1335C6.18166 22.2224 5.96631 22.2208 5.77428 22.1289L1.49651 20.101C1.29899 20.0048 1.14238 19.822 1.0609 19.5925C0.979424 19.363 0.979714 19.1054 1.06169 18.8761L6.82023 3.53767C6.91824 3.28914 7.09423 3.09314 7.31251 2.9895C7.53079 2.88585 7.775 2.88233 7.99544 2.97965L12.2027 5.00753ZM40.1138 4.04121L44.9791 22.3059C45.0356 22.5041 45.1576 22.6684 45.3184 22.7627C45.4791 22.8571 45.6657 22.8739 45.8371 22.8094L50.5379 20.9993C50.7046 20.9309 50.8425 20.7915 50.9233 20.6093C51.0042 20.4271 51.0218 20.2161 50.9727 20.0193L46.1427 1.5506C46.1149 1.44929 46.0697 1.35551 46.0099 1.2749C45.9501 1.19428 45.8768 1.1285 45.7945 1.08147C45.7122 1.03445 45.6225 1.00714 45.5309 1.00123C45.4393 0.995307 45.3476 1.01086 45.2613 1.047L40.4899 3.07492C40.3349 3.15323 40.2105 3.29551 40.141 3.4741C40.0715 3.65269 40.0618 3.85482 40.1138 4.04121Z" stroke="#515151" stroke-width="1.75" stroke-miterlimit="10" stroke-linecap="round" stroke-linejoin="round"/>
</svg>
