<svg width="51" height="45" viewBox="0 0 51 45" fill="none" xmlns="http://www.w3.org/2000/svg">
<g clip-path="url(#clip0_519_454)">
<path d="M36.8456 42.1875V44.0625M5.59562 42.1875V44.0625M1.42896 44.0625V40.275C1.42896 37.7062 3.74146 35.625 6.59562 35.625M18.0956 44.0625V40.275C18.0956 37.7062 15.7831 35.625 12.929 35.625M13.929 42.1875V44.0625M22.2206 34.6875C21.0644 34.6875 19.9915 35.0344 19.1373 35.6063M31.6477 35.6063C30.7831 35.025 29.7206 34.6875 28.5644 34.6875M45.179 42.1875V44.0625M32.679 44.0625V40.275C32.679 37.7062 34.9915 35.625 37.8456 35.625M49.3456 44.0625V40.275C49.3456 37.7062 47.0331 35.625 44.179 35.625M45.179 29.1844C45.179 31.2554 43.3135 32.9344 41.0123 32.9344C38.7111 32.9344 36.8456 31.2554 36.8456 29.1844C36.8456 27.1133 38.7111 25.4344 41.0123 25.4344C43.3135 25.4344 45.179 27.1133 45.179 29.1844ZM13.929 29.0625C13.929 31.1336 12.0635 32.8125 9.76229 32.8125C7.4611 32.8125 5.59562 31.1336 5.59562 29.0625C5.59562 26.9914 7.4611 25.3125 9.76229 25.3125C12.0635 25.3125 13.929 26.9914 13.929 29.0625ZM29.554 28.125C29.554 30.1961 27.6885 31.875 25.3873 31.875C23.0861 31.875 21.2206 30.1961 21.2206 28.125C21.2206 26.0539 23.0861 24.375 25.3873 24.375C27.6885 24.375 29.554 26.0539 29.554 28.125ZM41.0123 16.875V20.2406C41.0123 21.075 39.8873 21.4969 39.231 20.9062L33.7206 15.9469H29.554L26.2519 20.4C25.8352 20.9531 24.929 20.9531 24.5227 20.4L21.2206 15.9469H17.054L11.5435 20.9062C10.8873 21.4969 9.76229 21.075 9.76229 20.2406V16.875C9.76229 16.3594 9.29354 15.9375 8.72062 15.9375H3.51229C2.36646 15.9375 1.42896 15.0937 1.42896 14.0625V2.8125C1.42896 1.78125 2.36646 0.9375 3.51229 0.9375H47.2623C48.4081 0.9375 49.3456 1.78125 49.3456 2.8125V14.0625C49.3456 15.0937 48.4081 15.9375 47.2623 15.9375H42.054C41.481 15.9375 41.0123 16.3594 41.0123 16.875Z" stroke="#515151" stroke-width="1.75" stroke-linecap="round" stroke-linejoin="round"/>
</g>
<defs>
<clipPath id="clip0_519_454">
<rect width="50" height="45" fill="white" transform="translate(0.387207)"/>
</clipPath>
</defs>
</svg>
