<svg width="52" height="46" viewBox="0 0 52 46" fill="none" xmlns="http://www.w3.org/2000/svg">
<path d="M47.7509 27.1477C48.7799 26.1358 49.5971 24.9293 50.1549 23.5984C50.7127 22.2674 51 20.8388 51 19.3957C51 17.9526 50.7127 16.524 50.1549 15.193C49.5971 13.8621 48.7799 12.6556 47.7509 11.6437M23.8319 9.61062L44.4893 2V36.7914L23.8319 29.1808V9.61062ZM8.61062 27.0063C8.61062 27.583 8.83971 28.1361 9.2475 28.5439C9.65529 28.9517 10.2084 29.1808 10.7851 29.1808H23.8319V9.61062H10.7851C10.2084 9.61062 9.65529 9.83971 9.2475 10.2475C8.83971 10.6553 8.61062 11.2084 8.61062 11.7851V27.0063ZM14.8187 32.4425L17.6238 44.402H23.8319L21.266 32.4425H14.8187ZM5.34893 13.9595H3.17446C2.59776 13.9595 2.04467 14.1886 1.63688 14.5964C1.22909 15.0042 1 15.5573 1 16.134V22.6574C1 23.2341 1.22909 23.7872 1.63688 24.195C2.04467 24.6028 2.59776 24.8319 3.17446 24.8319H5.34893V13.9595Z" stroke="#515151" stroke-width="2" stroke-miterlimit="10"/>
</svg>
