<svg id="Layer_1" data-name="Layer 1" xmlns="http://www.w3.org/2000/svg" viewBox="0 0 43.62 55.52">
  <defs>
    <style>
      .cls-1 {
        fill: none;
        stroke: #898989;
        stroke-linecap: round;
        stroke-linejoin: round;
        stroke-width: 0.91px;
      }
    </style>
  </defs>
  <g>
    <circle class="cls-1" cx="21.81" cy="5.49" r="3.35"/>
    <line class="cls-1" x1="19.58" y1="13.3" x2="19.58" y2="7.99"/>
    <line class="cls-1" x1="24.04" y1="7.99" x2="24.04" y2="13.3"/>
    <line class="cls-1" x1="19.58" y1="53.46" x2="19.58" y2="45.74"/>
    <line class="cls-1" x1="24.04" y1="45.74" x2="24.04" y2="53.46"/>
    <polyline class="cls-1" points="7.31 17.77 3.96 17.77 3.96 13.3 39.66 13.3 39.66 17.77 36.31 17.77"/>
    <line class="cls-1" x1="32.97" y1="17.77" x2="10.66" y2="17.77"/>
    <polyline class="cls-1" points="7.31 16.65 7.31 52.35 21.81 44.54 36.31 52.35 36.31 16.65"/>
    <polygon class="cls-1" points="28.32 36.73 15.3 36.73 14 29.08 19.21 31.63 21.81 27.8 24.41 31.63 29.62 29.08 28.32 36.73"/>
  </g>
</svg>
