<svg width="42" height="52" viewBox="0 0 42 52" fill="none" xmlns="http://www.w3.org/2000/svg">
<path d="M13.8121 40.7805C15.5267 34.2647 10.2318 29.299 10.2318 29.299L12.3237 22.7764C12.5182 22.1111 12.5681 21.4119 12.4699 20.7257C12.3717 20.0396 12.1278 19.3824 11.7545 18.7984L11.0069 17.8176C10.2044 16.8573 8.59259 16.9328 8.20165 18.1331L3.62003 31.8985C2.99589 33.8189 3.48285 36.1989 3.78463 38.0713L1 41.0617M27.3374 42.8381C27.3374 42.8381 26.8916 47.2277 14.8889 48.085L12.214 51M33.3937 12.4129L36.5281 9.90947C36.7384 9.73961 36.9801 9.61284 37.2394 9.53642C37.4987 9.46 37.7705 9.43542 38.0393 9.46408C38.308 9.49275 38.5686 9.57409 38.8059 9.70347C39.0432 9.83285 39.2528 10.0077 39.4225 10.2181L39.7586 10.6296C40.0995 11.0539 40.2584 11.596 40.2005 12.1371C40.1427 12.6783 39.8728 13.1745 39.4499 13.5171L33.3663 18.4005M33.3663 38.1742V40.6982C33.3737 41.2084 33.1799 41.7009 32.8269 42.0693C32.4739 42.4377 31.9901 42.6523 31.4801 42.6667H16.7956M10.3416 14.0316V2.88615C10.3416 2.38709 10.5393 1.90838 10.8916 1.55486C11.2438 1.20133 11.7218 1.00181 12.2208 1H31.4732C31.9729 1.00181 32.4516 1.20111 32.8049 1.55444C33.1583 1.90777 33.3576 2.38646 33.3594 2.88615V20.0329M16.3841 34.4431H29.4362M20.2936 38.4829H23.4211M18.8738 17.6667H21.9328V21.7682M15.2593 17.6667H16.6996M24.8889 17.6667H28.5309M21.8916 10.8491V14.299M21.8916 23.8601V24.4842M32.7184 20.668L35.071 18.767C35.9549 18.0527 37.2504 18.1903 37.9646 19.0742L38.2966 19.4849C39.0108 20.3688 38.8733 21.6644 37.9894 22.3786L35.6368 24.2796C34.7529 24.9939 33.4573 24.8563 32.7431 23.9724L32.4112 23.5617C31.697 22.6778 31.8345 21.3822 32.7184 20.668ZM38.2839 26.0137C38.4538 26.224 38.5806 26.4657 38.657 26.725C38.7334 26.9843 38.758 27.2561 38.7293 27.5249C38.7007 27.7936 38.6193 28.0542 38.4899 28.2915C38.3606 28.5288 38.1857 28.7384 37.9753 28.9081L35.6228 30.808C35.4125 30.9778 35.1708 31.1046 34.9115 31.181C34.6522 31.2574 34.3804 31.282 34.1116 31.2533C33.8428 31.2247 33.5823 31.1433 33.345 31.0139C33.1076 30.8846 32.8981 30.7097 32.7284 30.4993L32.3992 30.0878C32.0583 29.6635 31.8993 29.1215 31.9572 28.5803C32.015 28.0391 32.2849 27.5429 32.7078 27.2003L35.0741 25.2935C35.2843 25.1237 35.526 24.9969 35.7853 24.9205C36.0446 24.8441 36.3164 24.8195 36.5852 24.8482C36.854 24.8768 37.1145 24.9582 37.3519 25.0876C37.5892 25.2169 37.7987 25.3918 37.9684 25.6022L38.2839 26.0137ZM38.2839 32.9753C38.4538 33.1856 38.5806 33.4273 38.657 33.6866C38.7334 33.9459 38.758 34.2177 38.7293 34.4864C38.7007 34.7552 38.6193 35.0157 38.4899 35.2531C38.3606 35.4904 38.1857 35.6999 37.9753 35.8697L35.6228 37.7695C35.4125 37.9394 35.1708 38.0662 34.9115 38.1426C34.6522 38.219 34.3804 38.2436 34.1116 38.2149C33.8428 38.1863 33.5823 38.1049 33.345 37.9755C33.1076 37.8462 32.8981 37.6713 32.7284 37.4609L32.3992 37.0494C32.0583 36.6251 31.8993 36.0831 31.9572 35.5419C32.015 35.0007 32.2849 34.5045 32.7078 34.1619L35.0741 32.2551C35.2843 32.0853 35.526 31.9585 35.7853 31.8821C36.0446 31.8057 36.3164 31.7811 36.5852 31.8098C36.854 31.8384 37.1145 31.9198 37.3519 32.0491C37.5892 32.1785 37.7987 32.3534 37.9684 32.5638L38.2839 32.9753ZM15.2593 10.8491H18.7092V14.299H15.2593V10.8491ZM25.0809 10.8491H28.5309V14.299H25.0809V10.8491ZM15.2593 21.0343H18.7092V24.4842H15.2593V21.0343ZM25.0809 21.0343H28.5309V24.4842H25.0809V21.0343Z" stroke="#515151" stroke-width="1.75" stroke-miterlimit="10" stroke-linecap="round" stroke-linejoin="round"/>
</svg>
