<svg width="52" height="33" viewBox="0 0 52 33" fill="none" xmlns="http://www.w3.org/2000/svg">
<path d="M24.9542 7.24172V11.3257M24.9542 20.4268V22.6309M21.6314 14.5359H24.9542V19.0633M17.6468 14.5359H19.2552M28.1776 14.5359H32.2616M43.5271 28.5483H45.8438M5.5605 25.0402V3.85941C5.56224 3.10273 5.86314 2.37744 6.39758 1.84176C6.93202 1.30608 7.65661 1.00349 8.41329 1H41.8326C42.5905 1.00175 43.3168 1.30357 43.8526 1.83943C44.3885 2.3753 44.6903 3.10158 44.6921 3.85941V6.20916M35.538 28.0386H29.4154L28.7535 28.8329H21.5189L20.857 28.0386H1C1 28.0386 1.80752 31.8181 4.57426 31.8181H35.538M17.6468 7.24172H21.7307V11.3257H17.6468V7.24172ZM28.1776 7.24172H32.2616V11.3257H28.1776V7.24172ZM17.6468 17.7527H21.7307V21.8366H17.6468V17.7527ZM28.1776 17.7527H32.2616V21.8366H28.1776V17.7527ZM51 30.7458C51.0018 31.0239 50.8949 31.2918 50.702 31.4921C50.509 31.6925 50.2454 31.8095 49.9674 31.8181H39.377C39.1078 31.7964 38.8567 31.674 38.6738 31.4752C38.491 31.2764 38.3899 31.0159 38.3908 30.7458V9.97537C38.3925 9.70091 38.5028 9.43829 38.6975 9.24483C38.8922 9.05138 39.1555 8.9428 39.43 8.94281H50.0204C50.2849 8.95639 50.5342 9.07115 50.7165 9.26334C50.8988 9.45553 51.0003 9.71045 51 9.97537V30.7458Z" stroke="#515151" stroke-width="1.75" stroke-linecap="round" stroke-linejoin="round"/>
</svg>
