<svg width="46" height="52" viewBox="0 0 46 52" fill="none" xmlns="http://www.w3.org/2000/svg">
<path d="M16.3814 39.5217C15.5638 35.634 14.3759 35.3716 12.4784 32.7643C10.1351 30.0162 8.8303 26.5332 8.79122 22.9219C8.81125 21.0893 9.19391 19.2787 9.9171 17.5947C10.6403 15.9107 11.6898 14.3864 13.0049 13.11C14.32 11.8336 15.8748 10.8305 17.5797 10.1579C19.2845 9.48535 21.1056 9.15672 22.938 9.19145C24.7691 9.15878 26.5885 9.48942 28.2916 10.1629C29.9946 10.8364 31.5476 11.8399 32.8611 13.1161C34.1746 14.3924 35.2226 15.916 35.9449 17.5989C36.6671 19.2819 37.0493 21.0911 37.0693 22.9224C37.0435 26.5362 35.737 30.0235 33.3822 32.7648C31.4846 35.372 30.2967 35.6345 29.4945 39.5222M29.4945 39.5222L29.448 39.5218H16.5817M29.4945 39.5222L29.4941 42.7771H16.3655M29.4941 42.808V46.0786H16.3655M28.6765 46.0784L26.2081 50.9998L19.6517 51L18.834 49.3646M22.9221 1V4.47113M15.2393 4.36341L15.8719 5.8907M4.37848 15.2393L5.89036 15.8719M4.37848 30.605L5.89036 29.9879M41.4815 30.605L39.9697 29.9879M41.4815 15.2393L39.9697 15.8719M30.6204 4.36341L29.9879 5.8907M7.41798 7.41798L9.88635 9.88631M1 22.9221H4.48656M7.41798 38.4264L9.88635 35.9735M38.4426 38.4264L35.9742 35.9735M44.8603 22.9221H41.3738M38.4426 7.41798L35.9742 9.88631M28.183 14.8077C29.3423 15.5422 30.336 16.5097 31.101 17.6491C31.8659 18.7885 32.3853 20.0746 32.6261 21.4257" stroke="#515151" stroke-width="1.75" stroke-miterlimit="10" stroke-linecap="round" stroke-linejoin="round"/>
</svg>
