<svg width="42" height="52" viewBox="0 0 42 52" fill="none" xmlns="http://www.w3.org/2000/svg">
<path d="M25.0001 22.768L23.8572 51M31.8572 22.768L29.5715 51M17.0001 22.768L18.1429 51M10.143 22.768L12.4287 51M1.25155 19.5105C1.0811 18.9829 0.996311 18.4336 1.00012 17.8817C1.00231 16.3702 1.60661 14.9154 2.69156 13.8098C2.33397 13.0399 2.14721 12.2082 2.14298 11.3667C2.14298 9.78276 2.8052 8.26373 3.984 7.14373C5.1628 6.02374 6.7616 5.39453 8.42867 5.39453C8.69505 5.37796 8.9623 5.37796 9.22868 5.39453C9.57377 4.19743 10.3028 3.13223 11.3145 2.34702C12.3262 1.5618 13.5703 1.09558 14.8738 1.01318C16.1772 0.930776 17.4753 1.23628 18.5876 1.88722C19.6999 2.53816 20.5711 3.50219 21.0801 4.64529C21.7838 4.38755 22.5315 4.25504 23.2858 4.25439C24.5032 4.25306 25.6946 4.58889 26.7143 5.22079C27.663 4.63422 28.7607 4.30191 29.8916 4.25892C31.0225 4.21593 32.1447 4.46386 33.1396 4.97654C34.1345 5.48922 34.9653 6.24762 35.5442 7.17168C36.1231 8.09574 36.4286 9.15117 36.4286 10.2265C36.427 10.4808 36.408 10.7347 36.3715 10.9866C37.699 11.3332 38.8705 12.0837 39.7064 13.1231C40.5423 14.1625 40.9967 15.4335 41 16.7416C41.0013 17.6866 40.7621 18.6179 40.3029 19.4562M20.4286 8.76064C20.052 8.6912 19.6694 8.65486 19.2858 8.65206C18.1334 8.65614 17.0092 8.99119 16.0608 9.61323C15.1124 10.2353 14.3841 11.1152 13.9715 12.1376C13.4704 11.9958 12.9514 11.9191 12.4287 11.9096C11.3828 11.9155 10.3588 12.1941 9.46806 12.7149C8.57735 13.2357 7.85414 13.9787 7.37725 14.8631M32.9086 15.3409C32.6823 14.079 31.9939 12.9336 30.9651 12.1071C29.9362 11.2806 28.6331 10.826 27.2858 10.8237M26.5886 17.5777C26.2651 16.9645 25.7932 16.4328 25.2117 16.0261C24.6302 15.6195 23.9556 15.3495 23.2432 15.2383C22.5308 15.1271 21.8007 15.1777 21.1129 15.3862C20.425 15.5947 19.7989 15.9549 19.2858 16.4376M34.1429 51L38.7143 22.768H3.28585L7.85726 51H34.1429Z" stroke="#5A5A5A" stroke-width="1.75" stroke-miterlimit="10" stroke-linecap="round"/>
</svg>
