<svg width="26" height="52" viewBox="0 0 26 52" fill="none" xmlns="http://www.w3.org/2000/svg">
<path d="M21.3704 16.7407H25.0741V30.6296C25.0741 33.5765 23.9035 36.4026 21.8197 38.4864C19.736 40.5701 16.9098 41.7407 13.963 41.7407H12.1111C9.16426 41.7407 6.33811 40.5701 4.25437 38.4864C2.17064 36.4026 1 33.5765 1 30.6296V16.7407H4.7037M4.7037 23.2222V8.40741C4.7037 6.44284 5.48412 4.55874 6.87328 3.16958C8.26244 1.78042 10.1465 1 12.1111 1H13.963C15.9275 1 17.8116 1.78042 19.2008 3.16958C20.59 4.55874 21.3704 6.44284 21.3704 8.40741V23.2222M21.3704 26.9259V30.6296C21.3704 32.5942 20.59 34.4783 19.2008 35.8675C17.8116 37.2566 15.9275 38.037 13.963 38.037H12.1111C10.1465 38.037 8.26244 37.2566 6.87328 35.8675C5.48412 34.4783 4.7037 32.5942 4.7037 30.6296V26.9259M1 20.4444H4.7037M21.3704 20.4444H25.0741M11.1852 47.2963V41.7037M14.8889 47.2963V41.7037M4.77778 23.2222H21.2963C21.8486 23.2222 22.2963 23.6699 22.2963 24.2222V25.9259C22.2963 26.4782 21.8486 26.9259 21.2963 26.9259H4.77778C4.22549 26.9259 3.77778 26.4782 3.77778 25.9259V24.2222C3.77778 23.6699 4.22549 23.2222 4.77778 23.2222ZM25.0741 51C25.0741 50.0177 24.6839 49.0757 23.9893 48.3811C23.2947 47.6865 22.3527 47.2963 21.3704 47.2963H4.7037C3.72142 47.2963 2.77937 47.6865 2.08479 48.3811C1.39021 49.0757 1 50.0177 1 51H25.0741Z" stroke="#515151" stroke-width="1.75" stroke-linecap="round" stroke-linejoin="round"/>
<path d="M13.0369 22.2963C13.5483 22.2963 13.9629 21.8817 13.9629 21.3704C13.9629 20.859 13.5483 20.4444 13.0369 20.4444C12.5256 20.4444 12.111 20.859 12.111 21.3704C12.111 21.8817 12.5256 22.2963 13.0369 22.2963Z" fill="#515151"/>
<path d="M9.33324 22.2963C9.84462 22.2963 10.2592 21.8817 10.2592 21.3704C10.2592 20.859 9.84462 20.4444 9.33324 20.4444C8.82187 20.4444 8.40732 20.859 8.40732 21.3704C8.40732 21.8817 8.82187 22.2963 9.33324 22.2963Z" fill="#515151"/>
<path d="M5.62954 22.2963C6.14091 22.2963 6.55547 21.8817 6.55547 21.3704C6.55547 20.859 6.14091 20.4444 5.62954 20.4444C5.11816 20.4444 4.70361 20.859 4.70361 21.3704C4.70361 21.8817 5.11816 22.2963 5.62954 22.2963Z" fill="#515151"/>
<path d="M5.62954 18.5926C6.14091 18.5926 6.55547 18.178 6.55547 17.6667C6.55547 17.1553 6.14091 16.7407 5.62954 16.7407C5.11816 16.7407 4.70361 17.1553 4.70361 17.6667C4.70361 18.178 5.11816 18.5926 5.62954 18.5926Z" fill="#515151"/>
<path d="M7.48139 20.4444C7.99277 20.4444 8.40732 20.0299 8.40732 19.5185C8.40732 19.0071 7.99277 18.5926 7.48139 18.5926C6.97002 18.5926 6.55547 19.0071 6.55547 19.5185C6.55547 20.0299 6.97002 20.4444 7.48139 20.4444Z" fill="#515151"/>
<path d="M11.1851 20.4444C11.6965 20.4444 12.111 20.0299 12.111 19.5185C12.111 19.0071 11.6965 18.5926 11.1851 18.5926C10.6737 18.5926 10.2592 19.0071 10.2592 19.5185C10.2592 20.0299 10.6737 20.4444 11.1851 20.4444Z" fill="#515151"/>
<path d="M14.8888 20.4444C15.4002 20.4444 15.8147 20.0299 15.8147 19.5185C15.8147 19.0071 15.4002 18.5926 14.8888 18.5926C14.3774 18.5926 13.9629 19.0071 13.9629 19.5185C13.9629 20.0299 14.3774 20.4444 14.8888 20.4444Z" fill="#515151"/>
<path d="M18.5925 20.4444C19.1039 20.4444 19.5184 20.0299 19.5184 19.5185C19.5184 19.0071 19.1039 18.5926 18.5925 18.5926C18.0811 18.5926 17.6666 19.0071 17.6666 19.5185C17.6666 20.0299 18.0811 20.4444 18.5925 20.4444Z" fill="#515151"/>
<path d="M16.7407 22.2963C17.252 22.2963 17.6666 21.8817 17.6666 21.3704C17.6666 20.859 17.252 20.4444 16.7407 20.4444C16.2293 20.4444 15.8147 20.859 15.8147 21.3704C15.8147 21.8817 16.2293 22.2963 16.7407 22.2963Z" fill="#515151"/>
<path d="M20.4444 22.2963C20.9557 22.2963 21.3703 21.8817 21.3703 21.3704C21.3703 20.859 20.9557 20.4444 20.4444 20.4444C19.933 20.4444 19.5184 20.859 19.5184 21.3704C19.5184 21.8817 19.933 22.2963 20.4444 22.2963Z" fill="#515151"/>
<path d="M20.4444 18.5926C20.9557 18.5926 21.3703 18.178 21.3703 17.6667C21.3703 17.1553 20.9557 16.7407 20.4444 16.7407C19.933 16.7407 19.5184 17.1553 19.5184 17.6667C19.5184 18.178 19.933 18.5926 20.4444 18.5926Z" fill="#515151"/>
<path d="M13.0369 18.5926C13.5483 18.5926 13.9629 18.178 13.9629 17.6667C13.9629 17.1553 13.5483 16.7407 13.0369 16.7407C12.5256 16.7407 12.111 17.1553 12.111 17.6667C12.111 18.178 12.5256 18.5926 13.0369 18.5926Z" fill="#515151"/>
<path d="M9.33324 18.5926C9.84462 18.5926 10.2592 18.178 10.2592 17.6667C10.2592 17.1553 9.84462 16.7407 9.33324 16.7407C8.82187 16.7407 8.40732 17.1553 8.40732 17.6667C8.40732 18.178 8.82187 18.5926 9.33324 18.5926Z" fill="#515151"/>
<path d="M16.7407 18.5926C17.252 18.5926 17.6666 18.178 17.6666 17.6667C17.6666 17.1553 17.252 16.7407 16.7407 16.7407C16.2293 16.7407 15.8147 17.1553 15.8147 17.6667C15.8147 18.178 16.2293 18.5926 16.7407 18.5926Z" fill="#515151"/>
<path d="M5.62954 14.8889C6.14091 14.8889 6.55547 14.4743 6.55547 13.963C6.55547 13.4516 6.14091 13.037 5.62954 13.037C5.11816 13.037 4.70361 13.4516 4.70361 13.963C4.70361 14.4743 5.11816 14.8889 5.62954 14.8889Z" fill="#515151"/>
<path d="M7.48139 16.7407C7.99277 16.7407 8.40732 16.3262 8.40732 15.8148C8.40732 15.3034 7.99277 14.8889 7.48139 14.8889C6.97002 14.8889 6.55547 15.3034 6.55547 15.8148C6.55547 16.3262 6.97002 16.7407 7.48139 16.7407Z" fill="#515151"/>
<path d="M11.1851 16.7407C11.6965 16.7407 12.111 16.3262 12.111 15.8148C12.111 15.3034 11.6965 14.8889 11.1851 14.8889C10.6737 14.8889 10.2592 15.3034 10.2592 15.8148C10.2592 16.3262 10.6737 16.7407 11.1851 16.7407Z" fill="#515151"/>
<path d="M14.8888 16.7407C15.4002 16.7407 15.8147 16.3262 15.8147 15.8148C15.8147 15.3034 15.4002 14.8889 14.8888 14.8889C14.3774 14.8889 13.9629 15.3034 13.9629 15.8148C13.9629 16.3262 14.3774 16.7407 14.8888 16.7407Z" fill="#515151"/>
<path d="M18.5925 16.7407C19.1039 16.7407 19.5184 16.3262 19.5184 15.8148C19.5184 15.3034 19.1039 14.8889 18.5925 14.8889C18.0811 14.8889 17.6666 15.3034 17.6666 15.8148C17.6666 16.3262 18.0811 16.7407 18.5925 16.7407Z" fill="#515151"/>
<path d="M20.4444 14.8889C20.9557 14.8889 21.3703 14.4743 21.3703 13.963C21.3703 13.4516 20.9557 13.037 20.4444 13.037C19.933 13.037 19.5184 13.4516 19.5184 13.963C19.5184 14.4743 19.933 14.8889 20.4444 14.8889Z" fill="#515151"/>
<path d="M13.0369 14.8889C13.5483 14.8889 13.9629 14.4743 13.9629 13.963C13.9629 13.4516 13.5483 13.037 13.0369 13.037C12.5256 13.037 12.111 13.4516 12.111 13.963C12.111 14.4743 12.5256 14.8889 13.0369 14.8889Z" fill="#515151"/>
<path d="M9.33324 14.8889C9.84462 14.8889 10.2592 14.4743 10.2592 13.963C10.2592 13.4516 9.84462 13.037 9.33324 13.037C8.82187 13.037 8.40732 13.4516 8.40732 13.963C8.40732 14.4743 8.82187 14.8889 9.33324 14.8889Z" fill="#515151"/>
<path d="M16.7407 14.8889C17.252 14.8889 17.6666 14.4743 17.6666 13.963C17.6666 13.4516 17.252 13.037 16.7407 13.037C16.2293 13.037 15.8147 13.4516 15.8147 13.963C15.8147 14.4743 16.2293 14.8889 16.7407 14.8889Z" fill="#515151"/>
<path d="M5.62954 11.1852C6.14091 11.1852 6.55547 10.7706 6.55547 10.2593C6.55547 9.74789 6.14091 9.33333 5.62954 9.33333C5.11816 9.33333 4.70361 9.74789 4.70361 10.2593C4.70361 10.7706 5.11816 11.1852 5.62954 11.1852Z" fill="#515151"/>
<path d="M7.48139 13.037C7.99277 13.037 8.40732 12.6225 8.40732 12.1111C8.40732 11.5997 7.99277 11.1852 7.48139 11.1852C6.97002 11.1852 6.55547 11.5997 6.55547 12.1111C6.55547 12.6225 6.97002 13.037 7.48139 13.037Z" fill="#515151"/>
<path d="M11.1851 13.037C11.6965 13.037 12.111 12.6225 12.111 12.1111C12.111 11.5997 11.6965 11.1852 11.1851 11.1852C10.6737 11.1852 10.2592 11.5997 10.2592 12.1111C10.2592 12.6225 10.6737 13.037 11.1851 13.037Z" fill="#515151"/>
<path d="M14.8888 13.037C15.4002 13.037 15.8147 12.6225 15.8147 12.1111C15.8147 11.5997 15.4002 11.1852 14.8888 11.1852C14.3774 11.1852 13.9629 11.5997 13.9629 12.1111C13.9629 12.6225 14.3774 13.037 14.8888 13.037Z" fill="#515151"/>
<path d="M18.5925 13.037C19.1039 13.037 19.5184 12.6225 19.5184 12.1111C19.5184 11.5997 19.1039 11.1852 18.5925 11.1852C18.0811 11.1852 17.6666 11.5997 17.6666 12.1111C17.6666 12.6225 18.0811 13.037 18.5925 13.037Z" fill="#515151"/>
<path d="M20.4444 11.1852C20.9557 11.1852 21.3703 10.7706 21.3703 10.2593C21.3703 9.74789 20.9557 9.33333 20.4444 9.33333C19.933 9.33333 19.5184 9.74789 19.5184 10.2593C19.5184 10.7706 19.933 11.1852 20.4444 11.1852Z" fill="#515151"/>
<path d="M13.0369 11.1852C13.5483 11.1852 13.9629 10.7706 13.9629 10.2593C13.9629 9.74789 13.5483 9.33333 13.0369 9.33333C12.5256 9.33333 12.111 9.74789 12.111 10.2593C12.111 10.7706 12.5256 11.1852 13.0369 11.1852Z" fill="#515151"/>
<path d="M9.33324 11.1852C9.84462 11.1852 10.2592 10.7706 10.2592 10.2593C10.2592 9.74789 9.84462 9.33333 9.33324 9.33333C8.82187 9.33333 8.40732 9.74789 8.40732 10.2593C8.40732 10.7706 8.82187 11.1852 9.33324 11.1852Z" fill="#515151"/>
<path d="M16.7407 11.1852C17.252 11.1852 17.6666 10.7706 17.6666 10.2593C17.6666 9.74789 17.252 9.33333 16.7407 9.33333C16.2293 9.33333 15.8147 9.74789 15.8147 10.2593C15.8147 10.7706 16.2293 11.1852 16.7407 11.1852Z" fill="#515151"/>
<path d="M5.20361 5.74074C5.33306 5.6662 5.48017 5.62782 5.62954 5.62963C5.87511 5.62963 6.11062 5.72718 6.28427 5.90083C6.45791 6.07447 6.55547 6.30999 6.55547 6.55556C6.55547 6.80113 6.45791 7.03664 6.28427 7.21029C6.11062 7.38393 5.87511 7.48148 5.62954 7.48148C5.46795 7.48051 5.30944 7.43726 5.16974 7.35604C5.03005 7.27482 4.91403 7.15846 4.83324 7.01852L5.20361 5.74074Z" fill="#515151"/>
<path d="M7.48139 9.33333C7.99277 9.33333 8.40732 8.91878 8.40732 8.40741C8.40732 7.89603 7.99277 7.48148 7.48139 7.48148C6.97002 7.48148 6.55547 7.89603 6.55547 8.40741C6.55547 8.91878 6.97002 9.33333 7.48139 9.33333Z" fill="#515151"/>
<path d="M11.1851 9.33333C11.6965 9.33333 12.111 8.91878 12.111 8.40741C12.111 7.89603 11.6965 7.48148 11.1851 7.48148C10.6737 7.48148 10.2592 7.89603 10.2592 8.40741C10.2592 8.91878 10.6737 9.33333 11.1851 9.33333Z" fill="#515151"/>
<path d="M14.8888 9.33333C15.4002 9.33333 15.8147 8.91878 15.8147 8.40741C15.8147 7.89603 15.4002 7.48148 14.8888 7.48148C14.3774 7.48148 13.9629 7.89603 13.9629 8.40741C13.9629 8.91878 14.3774 9.33333 14.8888 9.33333Z" fill="#515151"/>
<path d="M18.5925 9.33333C19.1039 9.33333 19.5184 8.91878 19.5184 8.40741C19.5184 7.89603 19.1039 7.48148 18.5925 7.48148C18.0811 7.48148 17.6666 7.89603 17.6666 8.40741C17.6666 8.91878 18.0811 9.33333 18.5925 9.33333Z" fill="#515151"/>
<path d="M21.2406 7.01852C21.1598 7.15846 21.0438 7.27482 20.9042 7.35604C20.7645 7.43726 20.6059 7.48051 20.4444 7.48148C20.1988 7.48148 19.9633 7.38393 19.7896 7.21029C19.616 7.03664 19.5184 6.80113 19.5184 6.55556C19.5184 6.30999 19.616 6.07447 19.7896 5.90083C19.9633 5.72718 20.1988 5.62963 20.4444 5.62963C20.5937 5.62782 20.7408 5.6662 20.8703 5.74074L21.2406 7.01852Z" fill="#515151"/>
<path d="M13.0369 7.48148C13.5483 7.48148 13.9629 7.06693 13.9629 6.55556C13.9629 6.04418 13.5483 5.62963 13.0369 5.62963C12.5256 5.62963 12.111 6.04418 12.111 6.55556C12.111 7.06693 12.5256 7.48148 13.0369 7.48148Z" fill="#515151"/>
<path d="M9.33324 7.48148C9.84462 7.48148 10.2592 7.06693 10.2592 6.55556C10.2592 6.04418 9.84462 5.62963 9.33324 5.62963C8.82187 5.62963 8.40732 6.04418 8.40732 6.55556C8.40732 7.06693 8.82187 7.48148 9.33324 7.48148Z" fill="#515151"/>
<path d="M16.7407 7.48148C17.252 7.48148 17.6666 7.06693 17.6666 6.55556C17.6666 6.04418 17.252 5.62963 16.7407 5.62963C16.2293 5.62963 15.8147 6.04418 15.8147 6.55556C15.8147 7.06693 16.2293 7.48148 16.7407 7.48148Z" fill="#515151"/>
<path d="M7.48139 5.62963C7.99277 5.62963 8.40732 5.21508 8.40732 4.7037C8.40732 4.19233 7.99277 3.77778 7.48139 3.77778C6.97002 3.77778 6.55547 4.19233 6.55547 4.7037C6.55547 5.21508 6.97002 5.62963 7.48139 5.62963Z" fill="#515151"/>
<path d="M11.1851 5.62963C11.6965 5.62963 12.111 5.21508 12.111 4.7037C12.111 4.19233 11.6965 3.77778 11.1851 3.77778C10.6737 3.77778 10.2592 4.19233 10.2592 4.7037C10.2592 5.21508 10.6737 5.62963 11.1851 5.62963Z" fill="#515151"/>
<path d="M14.8888 5.62963C15.4002 5.62963 15.8147 5.21508 15.8147 4.7037C15.8147 4.19233 15.4002 3.77778 14.8888 3.77778C14.3774 3.77778 13.9629 4.19233 13.9629 4.7037C13.9629 5.21508 14.3774 5.62963 14.8888 5.62963Z" fill="#515151"/>
<path d="M18.5925 5.62963C19.1039 5.62963 19.5184 5.21508 19.5184 4.7037C19.5184 4.19233 19.1039 3.77778 18.5925 3.77778C18.0811 3.77778 17.6666 4.19233 17.6666 4.7037C17.6666 5.21508 18.0811 5.62963 18.5925 5.62963Z" fill="#515151"/>
<path d="M13.0369 3.77778C13.5483 3.77778 13.9629 3.36323 13.9629 2.85185C13.9629 2.34048 13.5483 1.92593 13.0369 1.92593C12.5256 1.92593 12.111 2.34048 12.111 2.85185C12.111 3.36323 12.5256 3.77778 13.0369 3.77778Z" fill="#515151"/>
<path d="M9.33324 3.77778C9.84462 3.77778 10.2592 3.36323 10.2592 2.85185C10.2592 2.34048 9.84462 1.92593 9.33324 1.92593C8.82187 1.92593 8.40732 2.34048 8.40732 2.85185C8.40732 3.36323 8.82187 3.77778 9.33324 3.77778Z" fill="#515151"/>
<path d="M16.7407 3.77778C17.252 3.77778 17.6666 3.36323 17.6666 2.85185C17.6666 2.34048 17.252 1.92593 16.7407 1.92593C16.2293 1.92593 15.8147 2.34048 15.8147 2.85185C15.8147 3.36323 16.2293 3.77778 16.7407 3.77778Z" fill="#515151"/>
</svg>
