<svg width="52" height="52" viewBox="0 0 52 52" fill="none" xmlns="http://www.w3.org/2000/svg">
<path d="M26 1V50.9668M1.01658 26H50.9834M43.651 8.58131C39.8355 12.0319 33.349 14.3046 25.9834 14.3046C18.6178 14.3046 12.148 12.0484 8.33242 8.61442M43.651 43.4021C39.8355 39.9516 33.349 37.6788 25.9834 37.6788C18.6178 37.6788 12.148 39.935 8.33242 43.3689M25.7677 50.7015C21.8999 47.8612 18.7549 44.1504 16.5873 39.8692C14.4196 35.5881 13.2901 30.8567 13.2901 26.058C13.2901 21.2594 14.4196 16.5281 16.5873 12.247C18.7549 7.96581 21.8999 4.255 25.7677 1.41474M26.5972 50.7015C30.465 47.8612 33.61 44.1504 35.7777 39.8692C37.9454 35.5881 39.0749 30.8567 39.0749 26.058C39.0749 21.2594 37.9454 16.5281 35.7777 12.247C33.61 7.96581 30.465 4.255 26.5972 1.41474M25.9834 1.00001C30.9287 0.996732 35.7638 2.4602 39.8772 5.20524C43.9906 7.95028 47.1975 11.8536 49.0922 16.4214C50.987 20.9893 51.4844 26.0164 50.5216 30.8671C49.5589 35.7177 47.1792 40.1738 43.6835 43.6718C40.1879 47.1698 35.7333 49.5524 30.8833 50.5184C26.0334 51.4844 21.0058 50.9903 16.4367 49.0986C11.8676 47.2069 7.96222 44.0026 5.21445 39.891C2.46668 35.7794 1.00001 30.9453 1.00001 26C0.997826 22.7178 1.64242 19.4672 2.89698 16.4342C4.15154 13.4011 5.99143 10.645 8.31157 8.32332C10.6317 6.00164 13.3867 4.15994 16.4189 2.90336C19.4511 1.64679 22.7012 1.00001 25.9834 1.00001Z" stroke="#515151" stroke-width="1.75" stroke-linecap="round" stroke-linejoin="round"/>
</svg>
