<svg width="52" height="52" viewBox="0 0 52 52" fill="none" xmlns="http://www.w3.org/2000/svg">
<path d="M41.8733 35.942L49.8527 43.9139C50.6036 44.7088 51.0151 45.7651 50.9996 46.8586C50.9841 47.952 50.5429 48.9963 49.7698 49.7696C48.9967 50.5428 47.9526 50.9841 46.8593 50.9996C45.7661 51.0151 44.7099 50.6036 43.9152 49.8525L35.9089 41.8717M27.0787 24.4858L32.2192 25.9906C35.3178 26.6534 36.079 30.6125 36.5537 35.8435M19.6008 24.4858L14.4692 25.9906C11.3706 26.6534 10.6093 30.6125 10.1347 35.8435M45.6705 23.3392C45.6705 35.6769 35.6707 45.6785 23.3352 45.6785C10.9998 45.6785 1 35.6769 1 23.3392C1 11.0016 10.9998 1 23.3352 1C35.6707 1 45.6705 11.0016 45.6705 23.3392ZM23.3711 25.2023C21.8938 25.2023 20.4498 24.7642 19.2215 23.9434C17.9933 23.1225 17.0359 21.9558 16.4706 20.5908C15.9053 19.2258 15.7574 17.7237 16.0456 16.2747C16.3338 14.8256 17.0452 13.4945 18.0897 12.4497C19.1343 11.405 20.4651 10.6935 21.9139 10.4053C23.3628 10.117 24.8645 10.265 26.2293 10.8304C27.5941 11.3958 28.7606 12.3533 29.5813 13.5818C30.402 14.8102 30.84 16.2545 30.84 17.732C30.8353 19.7118 30.0469 21.6092 28.6472 23.0091C27.2475 24.409 25.3505 25.1976 23.3711 25.2023Z" stroke="#515151" stroke-width="1.75" stroke-linecap="round" stroke-linejoin="round"/>
</svg>
