<svg width="39" height="52" viewBox="0 0 39 52" fill="none" xmlns="http://www.w3.org/2000/svg">
<path d="M36.1905 22.2995V17.6692C36.1905 13.2483 34.4343 9.00838 31.3082 5.8823C28.1822 2.75622 23.9423 1 19.5213 1C15.1004 1 10.8605 2.75622 7.73445 5.8823C4.60836 9.00838 2.85213 13.2483 2.85213 17.6692V22.2995M17.1506 46.3773L12.5203 44.8771C9.71089 43.9596 7.26326 42.1778 5.52696 39.7863C3.79065 37.3947 2.85448 34.5156 2.85213 31.5602M35.2645 22.2995H37.1166C37.6281 22.2995 38.0427 22.7142 38.0427 23.2256V30.6341C38.0427 31.1456 37.6281 31.5602 37.1166 31.5602H35.2645C34.753 31.5602 34.3384 31.1456 34.3384 30.6341V23.2256C34.3384 22.7142 34.753 22.2995 35.2645 22.2995ZM1.92607 22.2995H3.7782C4.28965 22.2995 4.70427 22.7142 4.70427 23.2256V30.6341C4.70427 31.1456 4.28965 31.5602 3.7782 31.5602H1.92607C1.41461 31.5602 1 31.1456 1 30.6341V23.2256C1 22.7142 1.41461 22.2995 1.92607 22.2995ZM22.7904 44.5252C23.046 44.5208 23.3011 44.5488 23.5497 44.6085C24.3742 44.817 25.0845 45.3395 25.5292 46.0644C25.9738 46.7893 26.1175 47.6593 25.9297 48.4887C25.8441 48.8981 25.678 49.2863 25.4411 49.631C25.2042 49.9756 24.9012 50.2698 24.5497 50.4963C24.1982 50.7229 23.8052 50.8774 23.3935 50.9509C22.9818 51.0244 22.5596 51.0153 22.1514 50.9243C21.904 50.8672 21.6646 50.7801 21.4383 50.665L16.7431 48.2294L17.5395 44.6178L22.7904 44.5159V44.5252Z" stroke="#515151" stroke-width="1.75" stroke-linecap="round" stroke-linejoin="round"/>
</svg>
