<svg width="51" height="52" viewBox="0 0 51 52" fill="none" xmlns="http://www.w3.org/2000/svg">
<path d="M14.3386 21.6475H49.1268V46.1079C49.1282 46.7507 49.0026 47.3875 48.7573 47.9817C48.512 48.5759 48.1517 49.1158 47.6971 49.5703C47.2425 50.0249 46.7027 50.3852 46.1085 50.6305C45.5143 50.8759 44.8775 51.0014 44.2347 51H7.27227C6.62943 51.0014 5.99264 50.8759 5.39846 50.6305C4.80427 50.3852 4.26441 50.0249 3.80985 49.5703C3.35529 49.1158 2.995 48.5759 2.74966 47.9817C2.50431 47.3875 2.37875 46.7507 2.38019 46.1079V24.9089M44.7782 21.6475L39.3426 30.3445M33.9069 21.6475L28.4713 30.3445M23.0357 21.6475L17.6 30.3445M11.4686 22.7672L6.72871 30.3445M49.1268 30.3445H1.29306M3.83694 12.2221L11.4686 19.0819M14.2951 9.23246L21.9159 16.0923M24.7424 6.23199L32.3632 13.0918M35.1898 3.23151L42.8105 10.0913M7.81584 36.8673H43.6911M7.81584 43.3901H43.6911M19.7743 47.7386V43.3901M31.7327 47.7386V43.3901M48.0396 8.60193L46.8873 4.54694C46.5283 3.29947 45.6892 2.24528 44.554 1.61556C43.4189 0.985836 42.0804 0.831971 40.832 1.1877L4.55445 11.5372C3.3066 11.8964 2.25168 12.735 1.6202 13.8696C0.988717 15.0042 0.832018 16.3427 1.18434 17.5925L2.38019 21.6475L48.0396 8.60193Z" stroke="#515151" stroke-width="1.75" stroke-miterlimit="10"/>
</svg>
