<svg id="Layer_1" data-name="Layer 1" xmlns="http://www.w3.org/2000/svg" viewBox="0 0 47.89 55.02">
  <defs>
    <style>
      .cls-1 {
        fill: none;
        stroke: #898989;
        stroke-miterlimit: 10;
      }
    </style>
  </defs>
  <g>
    <line class="cls-1" x1="44.94" y1="19.43" x2="2.95" y2="19.43"/>
    <polyline class="cls-1" points="9.24 13.13 9.24 15.23 14.49 15.23 14.49 13.13"/>
    <polyline class="cls-1" points="33.39 13.13 33.39 15.23 38.64 15.23 38.64 13.13"/>
    <path class="cls-1" d="M9.24,11H5.05A2.1,2.1,0,0,0,3,13.13V45.68a2.1,2.1,0,0,0,2.1,2.1H42.84a2.1,2.1,0,0,0,2.1-2.1V13.13a2.1,2.1,0,0,0-2.1-2.1h-4.2V7.88a1,1,0,0,0-1-1H34.44a1,1,0,0,0-1,1V11H14.49V7.88a1,1,0,0,0-1.05-1H10.29a1,1,0,0,0-1,1Z"/>
    <line class="cls-1" x1="17.64" y1="27.83" x2="21.84" y2="27.83"/>
    <line class="cls-1" x1="26.04" y1="27.83" x2="30.24" y2="27.83"/>
    <line class="cls-1" x1="34.44" y1="27.83" x2="38.64" y2="27.83"/>
    <line class="cls-1" x1="9.24" y1="33.08" x2="13.44" y2="33.08"/>
    <line class="cls-1" x1="17.64" y1="33.08" x2="21.84" y2="33.08"/>
    <line class="cls-1" x1="26.04" y1="33.08" x2="30.24" y2="33.08"/>
    <line class="cls-1" x1="34.44" y1="33.08" x2="38.64" y2="33.08"/>
    <line class="cls-1" x1="9.24" y1="38.33" x2="13.44" y2="38.33"/>
    <line class="cls-1" x1="17.64" y1="38.33" x2="21.84" y2="38.33"/>
    <line class="cls-1" x1="26.04" y1="38.33" x2="30.24" y2="38.33"/>
  </g>
</svg>
