<svg width="48" height="52" viewBox="0 0 48 52" fill="none" xmlns="http://www.w3.org/2000/svg">
<path d="M17.9792 40.6182V33.0831C17.9792 32.3385 18.1261 31.6011 18.4116 30.9133C18.6971 30.2255 19.1155 29.6007 19.6429 29.075C20.1703 28.5492 20.7961 28.1327 21.4848 27.8493C22.1734 27.5658 22.9113 27.4213 23.656 27.4235H28.3611C29.8621 27.4235 31.3017 26.8272 32.3631 25.7658C33.4245 24.7044 34.0208 23.2647 34.0208 21.7636V8.55189M30.2528 11.3818L34.0203 7.59734L37.7878 11.3818M46.2776 45.3403V1H6.65944V44.4027M6.69388 50.9829C5.19283 50.9829 3.75325 50.3866 2.69184 49.3252C1.63043 48.2638 1.03413 46.8243 1.03413 45.3233M34.975 45.3233C34.9727 46.0672 35.1176 46.804 35.4012 47.4917C35.6848 48.1794 36.1016 48.8042 36.6276 49.3302C37.1536 49.8562 37.7785 50.2731 38.4662 50.5568C39.1538 50.8404 39.8908 50.9852 40.6346 50.9829C42.1357 50.9829 43.5759 50.3866 44.6373 49.3252C45.6987 48.2638 46.295 46.8243 46.295 45.3233M1 45.3403H34.9585M6.65944 51H39.6803M37.788 33.2367L31.3441 39.6805M31.3441 33.2367L37.788 39.6805M22.684 17.0417C22.684 19.1224 20.9972 20.8091 18.9165 20.8091C16.8358 20.8091 15.149 19.1224 15.149 17.0417C15.149 14.961 16.8358 13.2741 18.9165 13.2741C20.9972 13.2741 22.684 14.961 22.684 17.0417Z" stroke="#515151" stroke-width="1.75" stroke-miterlimit="10" stroke-linecap="round" stroke-linejoin="round"/>
</svg>
