<svg width="52" height="52" viewBox="0 0 52 52" fill="none" xmlns="http://www.w3.org/2000/svg">
<path d="M6.64516 51C8.14235 51 9.57822 50.4052 10.6369 49.3466C11.6956 48.2879 12.2903 46.852 12.2903 45.3548V2.6129C12.2903 2.18513 12.4603 1.77489 12.7627 1.47241C13.0652 1.16993 13.4755 1 13.9032 1H49.3871C49.8149 1 50.2251 1.16993 50.5276 1.47241C50.8301 1.77489 51 2.18513 51 2.6129V45.3548C51 46.852 50.4052 48.2879 49.3466 49.3466C48.2879 50.4052 46.852 51 45.3548 51H6.64516ZM6.64516 51C5.14797 51 3.7121 50.4052 2.65343 49.3466C1.59476 48.2879 1 46.852 1 45.3548V15.5161C1 15.0884 1.16993 14.6781 1.47241 14.3756C1.77489 14.0732 2.18513 13.9032 2.6129 13.9032H7.45161M4.22581 50.4516C5.19164 49.9956 6.00781 49.2743 6.579 48.3718C7.1502 47.4693 7.45285 46.4229 7.45161 45.3548V5.83871C7.45161 5.41094 7.62154 5.00069 7.92402 4.69821C8.2265 4.39574 8.63675 4.22581 9.06452 4.22581H12.2903M36.4839 5.83871H47.7742M36.4839 10.6774H47.7742M36.4839 15.5161H47.7742M36.4839 20.3548H47.7742M15.5161 25.1935H47.7742M15.5161 30.0323H47.7742M15.5161 34.871H47.7742M15.5161 39.7097H47.7742M15.5161 44.5484H39.7097M15.5161 5.83871H33.2581V20.3548H15.5161V5.83871Z" stroke="#515151" stroke-width="1.75" stroke-linecap="round" stroke-linejoin="round"/>
</svg>
