<svg width="51" height="45" viewBox="0 0 51 45" fill="none" xmlns="http://www.w3.org/2000/svg">
<g clip-path="url(#clip0_519_181)">
<path d="M40.1193 17.1562C39.3515 13.4437 37.6193 10.1062 35.2086 7.425C31.7622 3.5625 26.905 1.10625 21.4765 0.95625M21.4765 0.95625C21.2979 0.95625 21.1015 0.95625 20.9229 0.95625C20.7443 0.95625 20.5479 0.95625 20.3693 0.95625M21.4765 0.95625C25.03 1.3125 28.1372 5.00625 29.9229 10.4437C30.6372 12.5625 31.155 14.9437 31.4229 17.5125M20.3693 0.95625C14.9586 1.10625 10.1015 3.54375 6.63717 7.40625M20.3693 0.95625C16.8157 1.3125 13.7265 4.9875 11.9229 10.425C10.8336 13.6312 10.2086 17.4562 10.2086 21.5625M6.63717 7.40625C3.31574 11.1 1.28003 16.0875 1.28003 21.5625M6.63717 7.40625C15.1729 13.8562 26.6729 13.8563 35.2086 7.40625M1.28003 21.5625C1.28003 27.0375 3.31574 32.025 6.63717 35.7187M1.28003 21.5625H10.2086M6.63717 35.7187C10.1015 39.5812 14.9586 42.0187 20.3693 42.1687M6.63717 35.7187C8.29789 34.4625 10.0836 33.45 11.9229 32.7M20.3693 42.1687C20.5479 42.1687 20.7443 42.1687 20.9229 42.1687C21.1015 42.1687 21.2979 42.1687 21.4765 42.1687M20.3693 42.1687C16.8157 41.8125 13.7265 38.1375 11.9229 32.7M21.4765 42.1687C23.8336 42.1125 26.1015 41.6062 28.1729 40.725M21.4765 42.1687C23.2622 42 24.9586 40.95 26.405 39.2812M10.2086 21.5625C10.2086 25.6687 10.8336 29.4937 11.9229 32.7M10.2086 21.5625L26.28 21.5625M11.9229 32.7C14.8157 31.4812 17.8693 30.8812 20.9229 30.8812C21.8157 30.8812 22.6907 30.9375 23.5836 31.0312M20.9229 0.9375V42.1875M49.4943 44.0625L43.3157 37.575M45.9229 30C45.9229 35.6954 41.5257 40.3125 36.1015 40.3125C30.6772 40.3125 26.28 35.6954 26.28 30C26.28 24.3046 30.6772 19.6875 36.1015 19.6875C41.5257 19.6875 45.9229 24.3046 45.9229 30Z" stroke="#515151" stroke-width="1.75" stroke-linecap="round" stroke-linejoin="round"/>
</g>
<defs>
<clipPath id="clip0_519_181">
<rect width="50" height="45" fill="white" transform="translate(0.387207)"/>
</clipPath>
</defs>
</svg>
