<svg width="42" height="49" viewBox="0 0 42 49" fill="none" xmlns="http://www.w3.org/2000/svg">
<path d="M28.7458 2.7508C28.2976 2.74875 27.8534 2.83551 27.4389 3.00609C27.0244 3.17667 26.6478 3.42769 26.3309 3.74463C26.0139 4.06157 25.7629 4.43816 25.5924 4.85266C25.4218 5.26715 25.335 5.71134 25.337 6.15956C25.335 6.60777 25.4218 7.05197 25.5924 7.46646C25.7629 7.88096 26.0139 8.25754 26.3309 8.57448C26.6478 8.89142 27.0244 9.1424 27.4389 9.31298C27.8534 9.48356 28.2976 9.57037 28.7458 9.56832M12.8177 9.21194C13.2653 9.21194 13.7085 9.30009 14.1221 9.4714C14.5357 9.6427 14.9115 9.89378 15.228 10.2103C15.5445 10.5268 15.7956 10.9026 15.9669 11.3162C16.1383 11.7298 16.2264 12.1731 16.2264 12.6207C16.2264 13.0683 16.1383 13.5116 15.9669 13.9251C15.7956 14.3387 15.5445 14.7145 15.228 15.031C14.9115 15.3476 14.5357 15.5987 14.1221 15.77C13.7085 15.9413 13.2653 16.0294 12.8177 16.0294M37.8409 18.6015V37.5819C37.8409 38.4367 37.5014 39.2564 36.897 39.8608C36.2926 40.4652 35.4728 40.8047 34.618 40.8047H34.0603C33.637 40.8047 33.218 40.7214 32.827 40.5594C32.436 40.3975 32.0807 40.1601 31.7814 39.8608C31.4822 39.5616 31.2448 39.2063 31.0828 38.8153C30.9209 38.4243 30.8374 38.0052 30.8374 37.5819V25.7908C30.8374 24.9361 30.4979 24.1163 29.8935 23.5119C29.2891 22.9075 28.4694 22.568 27.6147 22.568C26.76 22.568 25.9401 22.9075 25.3358 23.5119C24.7314 24.1163 24.3919 24.9361 24.3919 25.7908V44.6938C24.3919 45.5485 24.0524 46.3683 23.448 46.9727C22.8436 47.5771 22.0238 47.9166 21.169 47.9166H20.6578C19.8016 47.9166 18.9802 47.5776 18.3734 46.9736C17.7665 46.3697 17.4235 45.55 17.4194 44.6938V30.8729C17.4194 30.0209 17.0821 29.2034 16.481 28.5995C15.88 27.9955 15.0642 27.6542 14.2121 27.6501C13.3574 27.6501 12.5377 27.9897 11.9333 28.5941C11.3289 29.1984 10.9893 30.0182 10.9893 30.8729V41.1301C10.9893 41.9849 10.6498 42.8046 10.0454 43.409C9.44099 44.0134 8.62128 44.3529 7.76654 44.3529H7.2397C6.38495 44.3529 5.56525 44.0134 4.96085 43.409C4.35646 42.8046 4.01686 41.9849 4.01686 41.1301V36.4819M3.93943 26.4261V22.2736M35.6871 1C36.9707 1.0041 38.2003 1.51682 39.1064 2.42587C40.0126 3.33492 40.5214 4.56612 40.5214 5.84967V8.48371C40.6714 10.7076 40.1822 12.928 39.1114 14.8828H36.3689V11.3191H32.17V1H35.6871ZM5.87623 7.46108C4.59001 7.46108 3.35644 7.97202 2.44695 8.88152C1.53745 9.79101 1.02651 11.0246 1.02651 12.3108V14.9448C0.87644 17.1687 1.36573 19.3891 2.43654 21.3439H5.19448V17.7803H9.39346V7.46108H5.87623ZM2.01814 26.4261H5.82973V36.4354H2.01814V26.4261Z" stroke="#515151" stroke-width="1.75" stroke-miterlimit="10" stroke-linecap="round" stroke-linejoin="round"/>
</svg>
