<svg width="52" height="51" viewBox="0 0 52 51" fill="none" xmlns="http://www.w3.org/2000/svg">
<path d="M25.4681 49.9362L25.4681 50.8112L25.4681 49.9362ZM31.8511 11.6383L32.7261 11.6383L31.8511 11.6383ZM14.2872 15.1277L14.0165 15.9597L14.2872 15.1277ZM18.383 23.1702L17.5508 22.8998L17.5508 22.8998L18.383 23.1702ZM40.5957 27.266L40.3253 26.4338L40.3253 26.4338L40.5957 27.266ZM32.5532 23.1702L33.3853 22.8995L32.5532 23.1702ZM12.1702 32.9149L12.8788 33.4283L12.8788 33.4283L12.1702 32.9149ZM21.0957 31.5L21.6108 30.7926L21.0957 31.5ZM28.4362 40.3617L27.7286 40.8764L28.4362 40.3617ZM29.8404 31.4468L30.3555 32.1541L29.8404 31.4468ZM51 50.8112C51.4832 50.8112 51.875 50.4194 51.875 49.9362C51.875 49.4529 51.4832 49.0612 51 49.0612V50.8112ZM39.2979 49.0612C38.8146 49.0612 38.4229 49.4529 38.4229 49.9362C38.4229 50.4194 38.8146 50.8112 39.2979 50.8112V49.0612ZM25.4681 49.0612C20.8018 49.0612 16.2403 47.6775 12.3605 45.085L11.3882 46.5401C15.5559 49.3248 20.4557 50.8112 25.4681 50.8112V49.0612ZM12.3605 45.085C8.48061 42.4926 5.45664 38.8078 3.67093 34.4968L2.05414 35.1665C3.9723 39.7973 7.22057 43.7554 11.3882 46.5401L12.3605 45.085ZM3.67093 34.4968C1.88523 30.1857 1.418 25.4419 2.32834 20.8653L0.61197 20.5239C-0.365899 25.44 0.135985 30.5356 2.05414 35.1665L3.67093 34.4968ZM2.32834 20.8653C3.23869 16.2887 5.48571 12.0848 8.78526 8.78526L7.54782 7.54783C4.00353 11.0921 1.58984 15.6078 0.61197 20.5239L2.32834 20.8653ZM8.78526 8.78526C12.0848 5.48571 16.2887 3.23869 20.8653 2.32835L20.5239 0.611971C15.6078 1.58984 11.0921 4.00353 7.54782 7.54783L8.78526 8.78526ZM20.8653 2.32835C25.4419 1.418 30.1857 1.88522 34.4968 3.67093L35.1665 2.05414C30.5356 0.13598 25.44 -0.365897 20.5239 0.611971L20.8653 2.32835ZM34.4968 3.67093C38.8078 5.45663 42.4926 8.48062 45.085 12.3605L46.5401 11.3882C43.7554 7.22058 39.7973 3.9723 35.1665 2.05414L34.4968 3.67093ZM45.085 12.3605C47.6775 16.2403 49.0612 20.8018 49.0612 25.4681H50.8112C50.8112 20.4557 49.3248 15.5559 46.5401 11.3882L45.085 12.3605ZM49.0612 25.4681C49.0612 31.7254 46.5755 37.7264 42.1509 42.1509L43.3884 43.3884C48.1411 38.6356 50.8112 32.1895 50.8112 25.4681H49.0612ZM42.1509 42.1509C37.7264 46.5755 31.7254 49.0612 25.4681 49.0612L25.4681 50.8112C32.1895 50.8112 38.6356 48.1411 43.3884 43.3884L42.1509 42.1509ZM28.4707 25.4681C28.4707 24.8742 28.2946 24.2937 27.9647 23.7999L26.5096 24.7721C26.6473 24.9782 26.7207 25.2203 26.7207 25.4681H28.4707ZM27.9647 23.7999C27.6348 23.3061 27.1658 22.9213 26.6172 22.694L25.9475 24.3108C26.1763 24.4056 26.372 24.5661 26.5096 24.7721L27.9647 23.7999ZM26.6172 22.694C26.0685 22.4667 25.4648 22.4073 24.8823 22.5231L25.2237 24.2395C25.4667 24.1912 25.7186 24.216 25.9475 24.3108L26.6172 22.694ZM24.8823 22.5231C24.2998 22.639 23.7648 22.925 23.3449 23.3449L24.5823 24.5823C24.7575 24.4071 24.9807 24.2878 25.2237 24.2395L24.8823 22.5231ZM23.3449 23.3449C22.9249 23.7648 22.639 24.2998 22.5231 24.8823L24.2395 25.2237C24.2878 24.9807 24.4071 24.7575 24.5823 24.5823L23.3449 23.3449ZM22.5231 24.8823C22.4073 25.4647 22.4667 26.0685 22.694 26.6172L24.3108 25.9475C24.216 25.7186 24.1912 25.4667 24.2395 25.2237L22.5231 24.8823ZM22.694 26.6172C22.9213 27.1658 23.3061 27.6348 23.7999 27.9647L24.7721 26.5096C24.5661 26.372 24.4056 26.1764 24.3108 25.9475L22.694 26.6172ZM23.7999 27.9647C24.2937 28.2946 24.8742 28.4707 25.4681 28.4707V26.7207C25.2203 26.7207 24.9781 26.6473 24.7721 26.5096L23.7999 27.9647ZM25.4681 28.4707C26.2644 28.4707 27.0282 28.1544 27.5913 27.5913L26.3539 26.3539C26.1189 26.5888 25.8003 26.7207 25.4681 26.7207V28.4707ZM27.5913 27.5913C28.1544 27.0282 28.4707 26.2644 28.4707 25.4681H26.7207C26.7207 25.8003 26.5888 26.1189 26.3539 26.3539L27.5913 27.5913ZM32.7261 11.6383C32.7261 10.2028 32.3004 8.79956 31.5029 7.60599L30.0478 8.57824C30.653 9.48402 30.9761 10.5489 30.9761 11.6383L32.7261 11.6383ZM31.5029 7.60599C30.7054 6.41242 29.5718 5.48215 28.2456 4.93281L27.5759 6.5496C28.5823 6.96648 29.4426 7.67246 30.0478 8.57824L31.5029 7.60599ZM28.2456 4.93281C26.9194 4.38347 25.46 4.23974 24.0521 4.51979L24.3935 6.23616C25.462 6.02364 26.5694 6.13271 27.5759 6.5496L28.2456 4.93281ZM24.0521 4.51979C22.6442 4.79984 21.351 5.49109 20.3359 6.50614L21.5734 7.74358C22.3437 6.97327 23.3251 6.44869 24.3935 6.23616L24.0521 4.51979ZM20.3359 6.50614C19.3209 7.52119 18.6296 8.81444 18.3496 10.2223L20.066 10.5638C20.2785 9.4953 20.8031 8.51388 21.5734 7.74358L20.3359 6.50614ZM18.3496 10.2223C18.0695 11.6303 18.2133 13.0896 18.7626 14.4158L20.3794 13.7461C19.9625 12.7397 19.8534 11.6322 20.066 10.5638L18.3496 10.2223ZM18.7626 14.4158C19.3119 15.742 20.2422 16.8756 21.4358 17.6731L22.408 16.218C21.5022 15.6128 20.7963 14.7526 20.3794 13.7461L18.7626 14.4158ZM21.4358 17.6731C22.6293 18.4706 24.0326 18.8963 25.4681 18.8963V17.1463C24.3787 17.1463 23.3138 16.8232 22.408 16.218L21.4358 17.6731ZM25.4681 18.8963C27.393 18.8963 29.2391 18.1316 30.6003 16.7705L29.3628 15.533C28.3299 16.566 26.9289 17.1463 25.4681 17.1463V18.8963ZM30.6003 16.7705C31.9614 15.4093 32.7261 13.5632 32.7261 11.6383H30.9761C30.9761 13.0991 30.3958 14.5001 29.3628 15.533L30.6003 16.7705ZM14.5579 14.2956C13.1928 13.8515 11.7266 13.8221 10.3447 14.2114L10.8192 15.8958C11.8678 15.6004 12.9805 15.6227 14.0165 15.9597L14.5579 14.2956ZM10.3447 14.2114C8.9629 14.6006 7.72755 15.3908 6.79489 16.4822L8.12526 17.6191C8.83305 16.7909 9.77054 16.1912 10.8192 15.8958L10.3447 14.2114ZM6.79489 16.4822C5.86223 17.5735 5.27414 18.917 5.10504 20.3426L6.84286 20.5487C6.97118 19.4669 7.41747 18.4473 8.12526 17.6191L6.79489 16.4822ZM5.10504 20.3426C4.93594 21.7682 5.19342 23.2119 5.84489 24.4912L7.40432 23.697C6.90993 22.7262 6.71453 21.6306 6.84286 20.5487L5.10504 20.3426ZM5.84489 24.4912C6.49637 25.7704 7.51259 26.8278 8.76502 27.5294L9.62037 26.0027C8.66991 25.4702 7.89872 24.6678 7.40432 23.697L5.84489 24.4912ZM8.76502 27.5294C10.0175 28.2311 11.4498 28.5456 12.881 28.4332L12.7439 26.6885C11.6578 26.7739 10.5708 26.5352 9.62037 26.0027L8.76502 27.5294ZM12.881 28.4332C14.3122 28.3207 15.6779 27.7864 16.8054 26.8977L15.7221 25.5233C14.8665 26.1977 13.83 26.6032 12.7439 26.6885L12.881 28.4332ZM16.8054 26.8977C17.9329 26.009 18.7715 24.806 19.2151 23.4406L17.5508 22.8998C17.2141 23.9359 16.5777 24.8489 15.7221 25.5233L16.8054 26.8977ZM19.2151 23.4406C19.8099 21.6103 19.6535 19.6188 18.7801 17.9038L17.2207 18.698C17.8834 19.9994 18.0022 21.5108 17.5508 22.8998L19.2151 23.4406ZM18.7801 17.9038C17.9068 16.1889 16.388 14.891 14.5579 14.2956L14.0165 15.9597C15.4054 16.4116 16.5579 17.3965 17.2207 18.698L18.7801 17.9038ZM40.8662 28.0981C42.2315 27.6544 43.4346 26.8158 44.3232 25.6884L42.9488 24.6051C42.2744 25.4607 41.3614 26.0971 40.3253 26.4338L40.8662 28.0981ZM44.3232 25.6884C45.2119 24.5609 45.7462 23.1952 45.8587 21.764L44.1141 21.6269C44.0287 22.713 43.6232 23.7494 42.9488 24.6051L44.3232 25.6884ZM45.8587 21.764C45.9711 20.3328 45.6566 18.9004 44.955 17.648L43.4282 18.5033C43.9607 19.4538 44.1994 20.5408 44.1141 21.6269L45.8587 21.764ZM44.955 17.648C44.2533 16.3956 43.196 15.3794 41.9167 14.7279L41.1226 16.2873C42.0934 16.7817 42.8958 17.5529 43.4282 18.5033L44.955 17.648ZM41.9167 14.7279C40.6374 14.0764 39.1937 13.8189 37.7681 13.988L37.9742 15.7258C39.0561 15.5975 40.1517 15.7929 41.1226 16.2873L41.9167 14.7279ZM37.7681 13.988C36.3425 14.1571 34.9991 14.7452 33.9077 15.6779L35.0446 17.0082C35.8729 16.3004 36.8924 15.8542 37.9742 15.7258L37.7681 13.988ZM33.9077 15.6779C32.8164 16.6105 32.0261 17.8459 31.6369 19.2277L33.3213 19.7022C33.6167 18.6535 34.2164 17.716 35.0446 17.0082L33.9077 15.6779ZM31.6369 19.2277C31.2477 20.6095 31.277 22.0758 31.7211 23.4409L33.3853 22.8995C33.0482 21.8635 33.026 20.7508 33.3213 19.7022L31.6369 19.2277ZM31.7211 23.4409C32.3165 25.271 33.6144 26.7897 35.3293 27.6631L36.1235 26.1037C34.822 25.4409 33.8371 24.2884 33.3853 22.8995L31.7211 23.4409ZM35.3293 27.6631C37.0443 28.5364 39.0359 28.6929 40.8662 28.0981L40.3253 26.4338C38.9363 26.8852 37.4249 26.7664 36.1235 26.1037L35.3293 27.6631ZM11.4617 32.4015C10.6198 33.5633 10.1411 34.9486 10.0862 36.3824L11.8349 36.4494C11.8766 35.3613 12.2398 34.31 12.8788 33.4283L11.4617 32.4015ZM10.0862 36.3824C10.0313 37.8161 10.4025 39.234 11.153 40.4568L12.6445 39.5414C12.075 38.6134 11.7932 37.5374 11.8349 36.4494L10.0862 36.3824ZM11.153 40.4568C11.9036 41.6797 12.9997 42.6526 14.303 43.2528L15.035 41.6632C14.0459 41.2078 13.2141 40.4694 12.6445 39.5414L11.153 40.4568ZM14.303 43.2528C15.6062 43.8529 17.0581 44.0534 18.4752 43.8287L18.2012 42.1003C17.1258 42.2708 16.024 42.1187 15.035 41.6632L14.303 43.2528ZM18.4752 43.8287C19.8923 43.6041 21.211 42.9645 22.2648 41.9907L21.0771 40.7054C20.2774 41.4444 19.2766 41.9298 18.2012 42.1003L18.4752 43.8287ZM22.2648 41.9907C23.3185 41.0169 24.06 39.7526 24.3956 38.3576L22.6941 37.9483C22.4395 39.007 21.8768 39.9664 21.0771 40.7054L22.2648 41.9907ZM24.3956 38.3576C24.7311 36.9626 24.6456 35.4994 24.15 34.1529L22.5077 34.7575C22.8839 35.7793 22.9487 36.8897 22.6941 37.9483L24.3956 38.3576ZM24.15 34.1529C23.6543 32.8065 22.7707 31.6371 21.6108 30.7926L20.5807 32.2074C21.461 32.8483 22.1316 33.7357 22.5077 34.7575L24.15 34.1529ZM21.6108 30.7926C20.8391 30.2308 19.9642 29.8267 19.0362 29.6035L18.6269 31.305C19.3312 31.4744 19.9951 31.781 20.5807 32.2074L21.6108 30.7926ZM19.0362 29.6035C18.1082 29.3803 17.1452 29.3423 16.2025 29.4918L16.4765 31.2202C17.1919 31.1068 17.9227 31.1356 18.6269 31.305L19.0362 29.6035ZM16.2025 29.4918C15.2598 29.6412 14.3558 29.9751 13.5423 30.4744L14.4577 31.9659C15.075 31.587 15.7611 31.3336 16.4765 31.2202L16.2025 29.4918ZM13.5423 30.4744C12.7288 30.9737 12.0218 31.6286 11.4617 32.4015L12.8788 33.4283C13.3038 32.8418 13.8403 32.3448 14.4577 31.9659L13.5423 30.4744ZM27.7286 40.8764C28.5732 42.0374 29.743 42.9218 31.0903 43.4178L31.6949 41.7755C30.6725 41.3991 29.7847 40.728 29.1437 39.847L27.7286 40.8764ZM31.0903 43.4178C32.4375 43.9138 33.9016 43.9991 35.2973 43.6629L34.8875 41.9616C33.8283 42.2167 32.7173 42.1519 31.6949 41.7755L31.0903 43.4178ZM35.2973 43.6629C36.693 43.3268 37.9577 42.5842 38.9314 41.5292L37.6454 40.3423C36.9065 41.143 35.9467 41.7065 34.8875 41.9616L35.2973 43.6629ZM38.9314 41.5292C39.9051 40.4742 40.544 39.1542 40.7674 37.736L39.0387 37.4637C38.8692 38.54 38.3843 39.5417 37.6454 40.3423L38.9314 41.5292ZM40.7674 37.736C40.9908 36.3179 40.7886 34.8654 40.1863 33.5621L38.5977 34.2962C39.0548 35.2852 39.2082 36.3875 39.0387 37.4637L40.7674 37.736ZM40.1863 33.5621C39.5841 32.2589 38.6089 31.1636 37.3841 30.4146L36.4712 31.9076C37.4007 32.476 38.1407 33.3072 38.5977 34.2962L40.1863 33.5621ZM37.3841 30.4146C36.1593 29.6657 34.7399 29.2968 33.3055 29.3546L33.376 31.1032C34.4646 31.0593 35.5417 31.3393 36.4712 31.9076L37.3841 30.4146ZM33.3055 29.3546C31.871 29.4124 30.4859 29.8944 29.3254 30.7395L30.3555 32.1541C31.2362 31.5128 32.2874 31.1471 33.376 31.1032L33.3055 29.3546ZM29.3254 30.7395C27.7697 31.8723 26.7277 33.5765 26.4282 35.4774L28.1569 35.7497C28.3841 34.3071 29.175 33.0138 30.3555 32.1541L29.3254 30.7395ZM26.4282 35.4774C26.1288 37.3783 26.5965 39.3203 27.7286 40.8764L29.1437 39.847C28.2846 38.666 27.9297 37.1923 28.1569 35.7497L26.4282 35.4774ZM51 49.0612H39.2979V50.8112H51V49.0612Z" fill="#5A5A5A"/>
</svg>
