<svg width="50" height="45" viewBox="0 0 50 45" fill="none" xmlns="http://www.w3.org/2000/svg">
<path d="M18.3722 43.1592H1.80094V37.1501H3.45053C3.56779 37.1501 3.68387 37.1269 3.7922 37.0818C3.90053 37.0367 3.99895 36.9706 4.08187 36.8872C4.16478 36.8039 4.2306 36.7049 4.27547 36.596C4.32034 36.4871 4.34345 36.3704 4.34345 36.2525C4.33956 36.0157 4.24423 35.7897 4.07762 35.6222C3.91101 35.4547 3.68612 35.3589 3.45053 35.355H1.80094V29.4524H3.46568C3.70127 29.4484 3.92615 29.3527 4.09276 29.1852C4.25938 29.0177 4.35461 28.7916 4.35851 28.5548C4.35851 28.3168 4.26446 28.0885 4.09701 27.9202C3.92957 27.7518 3.70249 27.6572 3.46568 27.6572H1.80094V21.6786H3.46568C3.70249 21.6786 3.92957 21.584 4.09701 21.4157C4.26446 21.2473 4.35851 21.0191 4.35851 20.781C4.35461 20.5442 4.25938 20.3182 4.09276 20.1507C3.92615 19.9832 3.70127 19.8874 3.46568 19.8835H1.78588V14.0721H3.46568C3.70249 14.0721 3.92957 13.9775 4.09701 13.8092C4.26446 13.6409 4.35851 13.4126 4.35851 13.1746C4.35461 12.9377 4.25938 12.7117 4.09276 12.5442C3.92615 12.3767 3.70127 12.2809 3.46568 12.277H1.78588V3.14925L22.2767 23.4585C22.4438 23.6248 22.6695 23.7181 22.9047 23.7181C23.1398 23.7181 23.3656 23.6248 23.5328 23.4585C23.6991 23.2879 23.7923 23.0585 23.7923 22.8195C23.7923 22.5806 23.6991 22.3512 23.5328 22.1806L1.51349 0.289209C1.38665 0.168292 1.2278 0.0867214 1.05599 0.0543387C0.884183 0.0219561 0.706711 0.0401458 0.544918 0.106661C0.382985 0.17339 0.244538 0.287259 0.14746 0.43364C0.0503811 0.580022 -0.000874651 0.7522 0.000133093 0.928126V44.0568C-0.0019164 44.1752 0.0197211 44.2929 0.0638669 44.4027C0.108013 44.5125 0.173685 44.6123 0.257008 44.6961C0.340331 44.7798 0.439635 44.8458 0.54889 44.8902C0.658145 44.9346 0.775141 44.9564 0.89296 44.9543H18.357C18.5938 44.9543 18.821 44.8598 18.9885 44.6915C19.1559 44.5231 19.2499 44.2948 19.2499 44.0568C19.2499 43.8187 19.1559 43.5905 18.9885 43.4221C18.821 43.2538 18.5938 43.1592 18.357 43.1592H18.3722Z" fill="#515151"/>
<path d="M30.5697 29.2851C30.4 29.1178 30.1718 29.0242 29.9342 29.0242C29.6965 29.0242 29.4683 29.1178 29.2986 29.2851C29.1332 29.4531 29.0403 29.68 29.0403 29.9164C29.0403 30.1528 29.1332 30.3797 29.2986 30.5477L42.0257 43.2049H24.1684C23.9316 43.2049 23.7045 43.2995 23.537 43.4678C23.3696 43.6361 23.2755 43.8644 23.2755 44.1024C23.2755 44.3405 23.3696 44.5688 23.537 44.7371C23.7045 44.9055 23.9316 45 24.1684 45H44.1897C44.3681 44.9988 44.5422 44.9447 44.6903 44.8446C44.8383 44.7445 44.9538 44.6028 45.0221 44.4371C45.0883 44.2734 45.105 44.0937 45.07 43.9205C45.035 43.7472 44.9499 43.5883 44.8254 43.4635L30.5697 29.2851Z" fill="#515151"/>
<path d="M19.9309 31.5518C20.0973 31.3811 20.1904 31.1518 20.1904 30.9128C20.1904 30.6739 20.0973 30.4445 19.9309 30.2739L9.4888 19.8986C9.36467 19.7735 9.20656 19.688 9.03426 19.6528C8.86196 19.6176 8.68312 19.6344 8.52024 19.7009C8.35829 19.772 8.22048 19.889 8.12371 20.0376C8.02694 20.1862 7.97543 20.36 7.97546 20.5376V35.0812C7.97341 35.1996 7.99514 35.3172 8.03929 35.4271C8.08343 35.5369 8.1491 35.6367 8.23242 35.7204C8.31575 35.8042 8.41496 35.8702 8.52421 35.9146C8.63347 35.959 8.75055 35.9808 8.86837 35.9787H16.8739C16.9917 35.9808 17.1087 35.959 17.218 35.9146C17.3272 35.8702 17.4265 35.8042 17.5099 35.7204C17.5932 35.6367 17.6588 35.5369 17.703 35.4271C17.7471 35.3172 17.7689 35.1996 17.7668 35.0812C17.7668 34.8431 17.6727 34.6148 17.5052 34.4465C17.3378 34.2781 17.1107 34.1836 16.8739 34.1836H9.76119V22.6826L18.6748 31.5518C18.842 31.718 19.0676 31.8113 19.3028 31.8113C19.538 31.8113 19.7637 31.718 19.9309 31.5518Z" fill="#515151"/>
<path d="M38.8175 12.5509C38.8175 11.6693 38.5575 10.8075 38.0703 10.0745C37.5831 9.34147 36.8905 8.77013 36.0803 8.43276C35.2701 8.09539 34.3786 8.00714 33.5184 8.17913C32.6583 8.35112 31.8682 8.77565 31.2481 9.39903C30.6279 10.0224 30.2056 10.8166 30.0346 11.6812C29.8635 12.5459 29.9513 13.4422 30.2869 14.2566C30.6225 15.0711 31.1909 15.7673 31.92 16.2571C32.6492 16.7468 33.5065 17.0082 34.3835 17.0082C35.5582 17.0042 36.6837 16.5333 37.5144 15.6983C38.3451 14.8632 38.8135 13.7318 38.8175 12.5509ZM31.72 12.5509C31.717 12.0207 31.8706 11.5015 32.1615 11.0592C32.4523 10.6169 32.8672 10.2713 33.3537 10.0664C33.8401 9.86137 34.376 9.80618 34.8937 9.90777C35.4113 10.0094 35.8874 10.2631 36.2614 10.637C36.6354 11.0108 36.8906 11.4879 36.9946 12.0077C37.0986 12.5275 37.0467 13.0666 36.8456 13.5567C36.6444 14.0469 36.3031 14.4659 35.8647 14.7608C35.4264 15.0557 34.9109 15.2131 34.3835 15.2131C33.6797 15.2131 33.0045 14.9331 32.5055 14.4343C32.0064 13.9354 31.724 13.2583 31.72 12.5509Z" fill="#515151"/>
<path d="M34.3834 7.78921C34.619 7.78529 34.8439 7.68946 35.0105 7.52198C35.1771 7.3545 35.2724 7.12848 35.2763 6.89165V6.78515H35.4729C35.8672 6.76328 36.2397 6.59601 36.5189 6.31532C36.7981 6.03462 36.9645 5.66022 36.9863 5.26386V1.59754C36.9966 1.39145 36.9651 1.18544 36.8937 0.991999C36.8222 0.798556 36.7123 0.621726 36.5707 0.472304C36.4292 0.322882 36.2589 0.203972 36.0702 0.122808C35.8815 0.0416435 35.6782 -6.17756e-05 35.4729 0.000196324H33.2787C33.0697 -0.00317891 32.8623 0.0369996 32.6696 0.118165C32.4769 0.199331 32.303 0.319721 32.1588 0.471793C31.8686 0.774097 31.7059 1.17745 31.7047 1.59754V5.18781C31.7047 5.59128 31.8642 5.97821 32.148 6.26351C32.4318 6.5488 32.8167 6.7091 33.2181 6.7091H33.43V6.81561C33.4187 6.94501 33.4355 7.07531 33.4792 7.19755C33.5229 7.3198 33.5925 7.43103 33.6832 7.52361C33.7738 7.61618 33.8833 7.68787 34.0042 7.73373C34.1251 7.77959 34.2545 7.79851 34.3834 7.78921ZM33.4754 1.79531H35.2763V4.9444H33.4754V1.79531Z" fill="#515151"/>
<path d="M20.4152 41.4554C20.4822 41.6147 20.5935 41.7511 20.7358 41.8482C20.8781 41.9454 21.0452 41.9991 21.2172 42.0031C21.3866 42.0056 21.5531 41.9579 21.6957 41.8659C21.8384 41.7739 21.9509 41.6417 22.0193 41.4858L32.8699 18.4991C32.9702 18.2833 32.9812 18.0362 32.9003 17.8122C32.8194 17.5882 32.6534 17.4058 32.4386 17.3049C32.2239 17.204 31.9781 17.193 31.7553 17.2744C31.5325 17.3557 31.351 17.5226 31.2506 17.7385L21.2928 38.9301L20.5968 37.2566C22.5792 32.495 28.1635 21.1309 30.4486 16.3845C30.5029 16.28 30.5358 16.1655 30.5454 16.048C30.555 15.9304 30.5411 15.8121 30.5044 15.7C30.4677 15.588 30.409 15.4845 30.3318 15.3956C30.2547 15.3068 30.1606 15.2344 30.0551 15.1827C29.9498 15.1307 29.8353 15.1001 29.7182 15.0926C29.6011 15.0851 29.4837 15.1008 29.3726 15.139C29.2616 15.1771 29.1592 15.2369 29.0711 15.3149C28.9831 15.3929 28.9111 15.4875 28.8595 15.5935C26.4533 20.4768 20.6724 32.3277 18.811 36.8915C18.7657 36.9999 18.7422 37.1163 18.7422 37.2338C18.7422 37.3514 18.7657 37.4678 18.811 37.5761L20.4152 41.4554Z" fill="#515151"/>
<path d="M21.2324 42.2313C21.1139 42.2313 20.9966 42.255 20.8873 42.301C20.7779 42.3471 20.6788 42.4146 20.5957 42.4995C20.5126 42.5845 20.4472 42.6852 20.4032 42.7959C20.3592 42.9065 20.3375 43.0249 20.3396 43.144C20.3396 43.7221 20.3396 44.072 20.3396 44.072C20.3473 44.3062 20.4443 44.5284 20.6105 44.6927C20.7767 44.8569 20.9994 44.9506 21.2324 44.9544C21.4679 44.9465 21.6912 44.8468 21.8549 44.6765C22.0187 44.5062 22.1103 44.2785 22.1101 44.0416C22.1101 44.0416 22.1101 43.6917 22.1101 43.1288C22.1102 42.8934 22.0182 42.6674 21.854 42.4995C21.6898 42.3316 21.4666 42.2353 21.2324 42.2313Z" fill="#515151"/>
<path d="M39.8466 15.5934C39.7462 15.3775 39.5647 15.2106 39.342 15.1293C39.1192 15.048 38.8733 15.059 38.6586 15.1598C38.4439 15.2607 38.2778 15.4432 38.1969 15.6671C38.116 15.8911 38.1269 16.1382 38.2273 16.354L48.1549 37.3175L47.4739 38.9757L37.516 17.7688C37.4086 17.5577 37.2249 17.396 37.0026 17.3168C36.7802 17.2376 36.5362 17.2469 36.3205 17.3429C36.1078 17.448 35.9444 17.6325 35.8652 17.8571C35.7861 18.0816 35.7974 18.3284 35.8967 18.5447L46.7172 41.4554C46.7872 41.6101 46.9001 41.7412 47.0424 41.833C47.1847 41.9247 47.3502 41.9732 47.5193 41.9726C47.6903 41.9651 47.856 41.9099 47.9977 41.8132C48.1393 41.7165 48.2514 41.5821 48.3214 41.425L49.9256 37.5456C49.9747 37.4303 50 37.3061 50 37.1805C50 37.055 49.9747 36.9308 49.9256 36.8155L39.8466 15.5934Z" fill="#515151"/>
<path d="M47.5343 42.1552C47.3001 42.1552 47.0753 42.2476 46.9083 42.4127C46.7412 42.5777 46.6454 42.8022 46.6414 43.0376C46.6414 43.57 46.6414 44.0416 46.6414 44.0416C46.6413 44.2785 46.7328 44.5062 46.8966 44.6765C47.0604 44.8468 47.2836 44.9465 47.5192 44.9544C47.7534 44.9544 47.9782 44.8619 48.1453 44.6969C48.3123 44.5318 48.4081 44.3074 48.4121 44.072C48.4121 44.072 48.4121 43.5852 48.4121 43.0528C48.4141 42.9356 48.3929 42.8193 48.3497 42.7105C48.3065 42.6016 48.2421 42.5025 48.1604 42.419C48.0787 42.3354 47.9813 42.2691 47.8738 42.2238C47.7663 42.1785 47.6509 42.1552 47.5343 42.1552Z" fill="#515151"/>
</svg>
