<svg xmlns="http://www.w3.org/2000/svg" xmlns:xlink="http://www.w3.org/1999/xlink" viewBox="0 0 225.32 66.06">
  <defs>
    <style>
      .cls-1 {
        fill: none;
      }

      .cls-2 {
        clip-path: url(#clip-path);
      }

      .cls-3 {
        opacity: 0.25;
      }

      .cls-4 {
        fill: #63514b;
      }

      .cls-5 {
        fill: #ffd255;
        stroke: url(#linear-gradient);
      }

      .cls-5, .cls-6 {
        stroke-miterlimit: 10;
      }

      .cls-6 {
        stroke: #ffd255;
        opacity: 0.5;
        fill: url(#linear-gradient-2);
      }

      .cls-7 {
        fill: #5e5e5e;
      }
    </style>
    <clipPath id="clip-path">
      <rect class="cls-1" x="464.72" y="88.2" width="258.81" height="151.8" rx="7.68"/>
    </clipPath>
    <linearGradient id="linear-gradient" y1="31.25" x2="221.76" y2="31.25" gradientUnits="userSpaceOnUse">
      <stop offset="0" stop-color="#726144"/>
      <stop offset="0.28" stop-color="#ffd255"/>
      <stop offset="0.51" stop-color="#ffe49b"/>
      <stop offset="0.74" stop-color="#ffd255"/>
      <stop offset="1" stop-color="#726144"/>
    </linearGradient>
    <linearGradient id="linear-gradient-2" x1="0.5" y1="31.25" x2="221.26" y2="31.25" xlink:href="#linear-gradient"/>
  </defs>
  <g id="Layer_1" data-name="Layer 1">
    <g class="cls-2">
      <g class="cls-3">
        <path class="cls-4" d="M233.24,8.07q28.9.11,57.69.15c1.6,0,3.18,0,4.69-.06C307,8.79,318.25,6,329.49,5.28c19.65-.7,38.61,4.92,58.27,2.11h-3.51c11.93-2.11,23.17,2.1,34.4,2.81,1.35.06,2.7.1,4,.13s2.87,0,4.37-.08c34.42-1.46,68.12-6.37,102.41-2a34.2,34.2,0,0,0,3.88-.09q13.93-.87,27.92-2.39Q548.12,6.81,535,7.33c-1.54.06-3.09.12-4.24.08-34.83-6.34-69.93,0-105.35.8-1.55,0-3.08,0-4.61,0A131.79,131.79,0,0,1,397.59,6a24.07,24.07,0,0,0-12.07,0c-15.4,2.08-30.8,0-46.21-2.12H340c-4.92-.71-9.83-2.11-14,0C315.44,6.68,304.91,6,294.42,7.3c-1.52.08-3.11.11-4.73.13-16.16.2-32.3.23-48.4-.28h-4.93c-8.84,0-17.71,0-26.54-.07V8.45q9.15-.22,18.28-.34Z"/>
        <path class="cls-4" d="M249.28,17.44c11.12-.76,22.25,3.82,33.37,1.53,11.87-1.36,23.59-1.06,35.29-.51l4.38.22c20.5-.06,41.57,4.15,59.82-2.17,10.12-3.54,19.87.21,29.52,2.32q5.43.15,10.94.39a25.91,25.91,0,0,1,3.33-.32c.79,0,1.58-.07,2.38-.13,16.09-3.3,32.06-4.74,48.61-1.55,5.62,1.4,11.94-1.41,17.56,0,9.12,1.4,17.55,1.4,27,1.12l4.86-.07c3.28-1.05,6.09-.35,9.62-.07h4.8c3.21,0,6.43,0,9.64.08l4.93.1c5.88.25,11.5.25,17.12.95a4.38,4.38,0,0,0-1.61-2.09c-5.08.1-10.17.58-15.36-.45l-5-.14c-7.3-.19-14.58-.26-21.85-.28h-4.36c-8.67-1.24-17.8-.54-26.22-1.24-26.68-2.81-53.36,0-80,2.11-2.53-.14-5-.37-7.52-.63-9.95-1-19.72-2.6-30.39-1.48-21.77,3.51-43.53.7-65.5.8-1.48-.09-3-.15-4.42-.18-10.24-.21-20.05,1-30.43,1.71-9.64.76-20-1.53-29.67-1.53-8.15.77-15.57,1.53-23.45,1.24l-4.78,0q-6,0-12-.15v.45c5,.21,10,.76,15,1.42A149.68,149.68,0,0,0,249.28,17.44Z"/>
        <path class="cls-4" d="M219.89,18.77h0a52.48,52.48,0,0,0-10.11-.47v.39c1.66,0,3.32.06,5,.07S218.19,18.78,219.89,18.77Z"/>
        <path class="cls-4" d="M219.93,18.77c10,1.32,19.91,4.59,30,4.2l4.75-.11c7.91-.2,15.77-.52,23.49-.84,14.83-.38,29.67,1,44.46,1.8,1.64.1,3.28.19,4.93.27a279.47,279.47,0,0,0,49.64-2c12.35-2.25,23.81-1.8,35.81-.81,3,.25,6,.53,9.5.67,11.56-.56,22.09-2.67,33.32-1.26,16.15,2.1,31.6,0,47.82,2.5h4.67q32.65,0,65.46-.41l-1.34-1.34c-6.06.54-11.51-.76-17.62-.68l-2.75,0q-3.76-.06-7.53-.09l-4.88,0c-10.82,0-21.63.15-32.42.29-1.55,0-3.09,0-4.46,0-18.16-.18-35.72-2.29-54-3-6.91-.63-13.81.42-20.53.85-.8.06-1.59.1-2.38.13a25.91,25.91,0,0,0-3.33.32q-5.5-.24-10.94-.39c-4.5-.13-9-.21-13.37-.21-23.87,0-49.15,4.21-73.78,3.2l-4.75-.32c-12.65-.85-25.33-1.6-37.85-.24-10.38.76-21,.76-31.55.57l-4.57-.1c-7-.8-14-2-21-2.89-5-.66-10-1.21-15-1.42v.88A52.48,52.48,0,0,1,219.93,18.77Z"/>
        <path class="cls-4" d="M258.25,28c1.43-.07,2.85-.13,4.27-.17s2.82-.08,4.23-.09c21.31.71,41.67,1.41,62.55,1.27l5,0,5,0,5-.05c3.39.24,6.2.94,10-.13l5-.08c43.52-.72,87-2.32,130.84-.95l5.09.11,5.09.09a62.72,62.72,0,0,1,10.21.15l5.06,0c25.45.23,50.89,0,76.3-.39l5.08-.07,5.08-.07c23.71-.35,47.39-.74,71-.85,1.61,0,3.23-.07,4.85-.09,9.72-.15,19.48-.1,29.25.45,1.46-.06,3-.1,4.55-.13l18.73-.39c3,0,6.67,1.53,10.38,1.53,7.68.54,15.36.6,23,.52l4.6-.06c39.72-3.65,79-.14,119,.26h9.93q7.14,0,14.36,0V27.46a69.18,69.18,0,0,1-7.75.22,30.18,30.18,0,0,1-3.53-.37c-25.62-.26-50.9-1.67-76.17-2.37-17.56,0-34.41,1.4-52.07,1.11l-4.73-.15q-2.24-.06-4.47-.06c-16.1,0-32.2.17-48.35.4l-4.82.08c-11.86-.3-23.72-.33-35.58-.39l-4.46,0c-50.53-.26-101.78-1.66-152.33.44-40,1.41-80.74-3.51-120.76,0-29.46,2.78-58.48,1.16-87.91.46l-4.64-.1c-2.94-1.06-6.45-.36-9.31-.14l-4.69,0h-4.69c-1.5,0-3,0-4.46.06a94.77,94.77,0,0,1-13.3.27l-4.62.05-4.61,0c-16.23.78-31.68-6.95-47.83-4.14l-1,.18v2a35.93,35.93,0,0,1,4.52-.78C229.09,22.13,243.83,29.85,258.25,28Z"/>
        <path class="cls-4" d="M229.09,27.75c11.93,2.81,23.17,2.81,34.26,3,1.62.14,3.23.26,4.85.38,37.12,2.67,74.12.15,110.88,1.59l4.85-.11q10.17-.24,20.33-.6l5.11-.17c5.07.78,10-.62,15.21-.52l5.09-.16,5.1-.14,5.08-.14,5.08-.11c10.19-.2,20.4-.27,30.64-.06q2.56,0,5.13.12c1.72,0,3.42.1,5.13.17s3.42.14,5.14.22l5,.22c16.72,1.18,32.87.48,49.82.75l5,0c3.33,0,6.66-.06,10-.1l5-.06c15,.62,30.43-.78,45-.73l5-.07,5-.06c33.71-.62,66.71,1.48,100.53,1.09l4.88,0q20.4.1,40.79.38l4.84,0c32.22-2.14,63.81,0,96.2.62,1.6,0,3.23,0,4.86,0l39,.09v-.79q-18-.6-36-.8l-5-.07a1016.19,1016.19,0,0,0-102.67-.42l-4.47-.08c-13.44-.21-27-.38-40.29-.74l-4.74-.13c-31.85-2-64.15-1.27-95.91-.11l-4.88,0-4.88,0h-4.88c-13.28.18-25.91.18-39,0h-4.9q-9.74,0-19.49,0h-4.85a90,90,0,0,1-9.74.05l-4.89,0-4.87.05c-8.38.06-16.1.06-24.58.2h-4.94l-4.95,0-4.95,0L476,30.56c-18.16-.22-36.38-.58-54.5-.48l-4.94,0c-1.65,0-3.3,0-4.94.06q-7.4.12-14.77.38-6.92.2-13.76.44l-4.53.16c-37,2.11-74.63-1-111.78-.95l-4.85,0c-14.63.32-29.37-5.3-44.12-3.9a35.39,35.39,0,0,0-8,2v2.38a33.51,33.51,0,0,0,7.33-3C220.66,26.34,224.87,27.05,229.09,27.75Z"/>
        <path class="cls-4" d="M214,46.93a50.92,50.92,0,0,1,5.43-1.3c15.52-4.41,31.89,1.1,48.45,1.44l5.19,0q18.84.2,37.66.53,116.19.48,232.52.44c31.62-.45,63.24-.29,94.85-.35q20-.12,40-.29c11.58-.15,23.16-.38,34.75-.75,6.73-.61,14-2.29,21.53-2.52-8.46-.67-16.44,1.78-25.05,1.12-14,0-28.08-.7-42.12-.7-131.13,4-261.78,1.45-392.8,1h-5.11c-12.11.45-22.64-1.65-34.58-4.46-7.72-1.41-14,4.21-21.68,4.35-1,.05-2.11.07-3.2.08V47h1.33C212.13,47,213.1,47,214,46.93Z"/>
        <path class="cls-4" d="M215,48.72c18.29-6.23,36.54.09,54.6-.49h4.95c38,.06,75.92.86,113.82,2.19l4.18.11,2.61.07,2.91.08c93.59,2.34,187.67-2.57,281-2.57,12.64.7,24.58,3.51,37.22,1.4a186.28,186.28,0,0,1,23.14-.44l4.62.1q6.95.13,13.88.32l5.12,0,11.63.09,3.93,0c9.36-.11,19.13-.13,28.69,0,1.37,0,2.75,0,4.13,0,15.79-2.2,30.53-2.91,46-3.61,16.85-.7,33.7,2.81,51.34,2.48l3.12.08v-.63l-3.38-.19c-13.86-.33-27.2-2.44-41.25-3.84a128,128,0,0,0-16-.15c-12.92.6-25.86,2.6-38.89,3.44-1.47.08-2.92.13-4.37.18h0c-10,.05-20,.08-29.88.14l-4.59,0q-6.65,0-13.29.06c-1.69,0-3.38,0-5-.09q-7-.33-14-.52c-1.56,0-3.12-.09-4.77-.12q-29.1.35-58.26.59-20,.16-40,.29-47.39.28-94.85.35-116.23.18-232.52-.44l-44.27-.19-2.75,0c-14.92-.63-29.65-4.45-44.28-1.8a50.92,50.92,0,0,0-5.43,1.3l-1,.31-3.22,0v1.6h.26C211.74,48.84,213.39,48.8,215,48.72Z"/>
        <path class="cls-4" d="M228.85,59c10.07,1.06,20.6-.34,30.53.63l5,.18c29.24.88,58.83-1.43,88.19-1.8-28.78.07-58.06.17-87.37,0l-5,0c-11.38-.06-23.32-1.47-34.65-.31l-4.95-.07c-3.58,0-7.14-.12-10.71-.18v1.08c4.91.07,9.84.2,14.77.35Z"/>
        <path class="cls-4" d="M221.27,67.28a120.21,120.21,0,0,1,14.32.13l4.76.06,4.37,0,4.37.06c2.46.19,6,.19,8.74.11l4.37.06,4.37.06c1.46,0,2.91,0,4.28,0,14.4-1.47,29.15-2.87,43.89-3.57,19.66-.71,39.32,2.8,59.13,1.87,1.6,0,3.21-.11,4.81-.18s3.2-.15,4.8-.25l4.88,0c3.26,0,6.52.08,9.78.14l5,.08c16.17,1.1,33-.3,48.85,1.06l4.9.08,4.91.08,4.9.06c27.74-.18,55.82.53,83.35-2.68l4.8-.48,3.49-.37c.9.19,1.8.36,2.71.51,1.16.18,2.31.32,3.49.42,16.95,1.72,33.1-6,49.16-1l3.94.78c1.32.26,2.62.5,4,.7,4.13,1.24,8.34.54,12.55.54a12,12,0,0,1-4.91-.7c36.51-1.41,73.72,0,110-1.49l4.24-.06c2.81,0,5.6-.09,8.36-.16H755a34.47,34.47,0,0,1,3.76.23c6.37.71,13.18,2.83,20,2.85l4.73,0q6.3.06,12.58,0l3.14,0c1.5-.26,3-.49,4.49-.69s3-.38,4.5-.54c16.88-3.65,33-.84,50.08.17l4.57.28c12.25.7,24.57,1.29,36.93.76h12V65.05c-1.22-.06-2.45-.12-3.66-.16s-2.68-.08-4-.11c-11.25-.23-22.69-.63-34.17-1.06-1.64-.06-3.28-.12-4.91-.2-17.53,0-35.09-5.58-52.93-1l-3.5.48c-3.43.38-6.86.74-10.31.86l-4.78-.07q-7.18-.09-14.35-.16c-1.76,0-3.56-.06-5.52-.23C768.48,63,763.24,62,758,61.17c-1.31-.19-2.61-.38-3.88-.55a57.43,57.43,0,0,0-13.21-.7c-1.48.07-3,.19-4.56.33-34.09,6.81-69.19-.21-104.29,4H637c-5.62.7-11.23-.71-17.16-.88l-4.13-.55c-1.36-.19-2.7-.37-3.84-.55-16.29-2.94-32.44,2-48.59.85a29.56,29.56,0,0,1-3.57-.62,26.89,26.89,0,0,1-3-.89c.27.21.43.53.9.53-1.28.12-2.59.25-3.91.4s-2.62.3-3.73.45c-28.16,3.36-56.25-.85-84,1.7-1.67,0-3.29.06-4.9.08l-4.85.07-4.47.06c-17.71,0-36,0-53.66-.3l-4.84-.16-4.85-.19a16.49,16.49,0,0,1-4.44-.79c-6.51-.34-13-.5-19.61-.55h-4.93c-27.19-.06-54.57-3.57-82-.06-7,1.32-14,1.26-21.08,1.21l-4.23,0c-4.18.22-7.69.22-11.67.24H237.2c-2.25,0-4.46,0-6.42.12l-4.39,0-4.42.06-4.44.08a38.29,38.29,0,0,1-7.71.39v2.24q3.33,0,6.66,0Z"/>
      </g>
    </g>
    <g>
      <path class="cls-4" d="M4.56,18.65V51.91A14.09,14.09,0,0,1,18.65,66v.06H211.27s0,0,0-.06a14.09,14.09,0,0,1,14.06-14.09V18.65A14.1,14.1,0,0,1,211.26,4.56H18.65A14.09,14.09,0,0,1,4.56,18.65Z"/>
      <path class="cls-5" d="M.5,14.59V47.85A14.09,14.09,0,0,1,14.59,62V62H207.21V62a14.11,14.11,0,0,1,14-14.1V14.59A14.09,14.09,0,0,1,207.21.5H14.59A14.09,14.09,0,0,1,.5,14.59Z"/>
      <path class="cls-6" d="M.5,14.59V47.85A14.09,14.09,0,0,1,14.59,62V62H207.21V62a14.11,14.11,0,0,1,14-14.1V14.59A14.09,14.09,0,0,1,207.21.5H14.59A14.09,14.09,0,0,1,.5,14.59Z"/>
      <g>
        <path class="cls-7" d="M26.77,40.72H23.71V18.11h3.06Z"/>
        <path class="cls-7" d="M34.29,27.06A9.2,9.2,0,0,1,35.4,26a6.6,6.6,0,0,1,1.24-.81A5.86,5.86,0,0,1,38,24.67a6.66,6.66,0,0,1,1.59-.19,5.77,5.77,0,0,1,2.31.44,4.41,4.41,0,0,1,1.67,1.23,5.35,5.35,0,0,1,1,1.92A8.33,8.33,0,0,1,45,30.54V40.72H42.13V30.54a4.23,4.23,0,0,0-.83-2.81,3.07,3.07,0,0,0-2.51-1,4.73,4.73,0,0,0-2.33.6,7.75,7.75,0,0,0-2,1.63V40.72H31.64v-16h1.69a.68.68,0,0,1,.74.58Z"/>
        <path class="cls-7" d="M50.07,40.72V27.13l-1.77-.2a1.33,1.33,0,0,1-.55-.24.61.61,0,0,1-.21-.49V25.05h2.53V24.2a7.82,7.82,0,0,1,.4-2.52,5.61,5.61,0,0,1,3.27-3.47,7.28,7.28,0,0,1,2.87-.52c.81,0,1.59,0,2.35.09s1.48.1,2.18.11h1.91V40.72H60.26V19.86c-.57,0-1.14,0-1.71-.08s-1.08,0-1.51,0a4.1,4.1,0,0,0-3.15,1.17A4.65,4.65,0,0,0,52.8,24.2v.85h4.14v2H52.88V40.72Z"/>
        <path class="cls-7" d="M67.18,27A9.43,9.43,0,0,1,70,25.08a8.82,8.82,0,0,1,3.39-.63,5.94,5.94,0,0,1,2.38.45,4.7,4.7,0,0,1,1.75,1.23A5.19,5.19,0,0,1,78.63,28,7.74,7.74,0,0,1,79,30.49V40.72H77.75a1.23,1.23,0,0,1-.63-.14.91.91,0,0,1-.35-.53l-.31-1.51a15.27,15.27,0,0,1-1.23,1,6.81,6.81,0,0,1-1.26.76,7.39,7.39,0,0,1-1.42.47,7.7,7.7,0,0,1-1.66.17,5.88,5.88,0,0,1-1.75-.26,4.3,4.3,0,0,1-1.43-.78,3.69,3.69,0,0,1-1-1.32,4.54,4.54,0,0,1-.36-1.88,3.6,3.6,0,0,1,.52-1.83,4.58,4.58,0,0,1,1.69-1.55,11.13,11.13,0,0,1,3.05-1.11,22.89,22.89,0,0,1,4.6-.5V30.49a4.3,4.3,0,0,0-.8-2.81,2.9,2.9,0,0,0-2.35-1,5.17,5.17,0,0,0-1.75.26,6.82,6.82,0,0,0-1.21.59c-.34.21-.64.41-.88.58a1.26,1.26,0,0,1-.74.26.81.81,0,0,1-.49-.15,1.34,1.34,0,0,1-.34-.37Zm9.07,6.53a25.1,25.1,0,0,0-3.3.31,9.54,9.54,0,0,0-2.23.64,3,3,0,0,0-1.24.93,2,2,0,0,0-.39,1.2,2.62,2.62,0,0,0,.21,1.09,2,2,0,0,0,.56.75,2.24,2.24,0,0,0,.83.42,3.84,3.84,0,0,0,1,.14,5.69,5.69,0,0,0,1.35-.15,5.05,5.05,0,0,0,1.16-.44,6.19,6.19,0,0,0,1-.68,8.88,8.88,0,0,0,1-.89Z"/>
        <path class="cls-7" d="M83.27,40.72v-16H85a.68.68,0,0,1,.74.58L85.91,27a8.1,8.1,0,0,1,2-1.78,4.75,4.75,0,0,1,2.56-.7,3.76,3.76,0,0,1,2.61.9,5,5,0,0,1,1.44,2.43,5.42,5.42,0,0,1,.89-1.5,5.27,5.27,0,0,1,1.23-1,5.35,5.35,0,0,1,1.44-.6,6.78,6.78,0,0,1,1.55-.19,5.9,5.9,0,0,1,2.25.41,4.43,4.43,0,0,1,1.67,1.17,5.22,5.22,0,0,1,1,1.9,8.45,8.45,0,0,1,.37,2.58V40.72h-2.83V30.54a4.31,4.31,0,0,0-.82-2.85,2.94,2.94,0,0,0-2.36-1,3.6,3.6,0,0,0-1.32.25,3.09,3.09,0,0,0-1.1.72,3.46,3.46,0,0,0-.75,1.19,4.7,4.7,0,0,0-.27,1.66V40.72H92.67V30.54a4.45,4.45,0,0,0-.77-2.87,2.76,2.76,0,0,0-2.26-1,3.55,3.55,0,0,0-1.92.56,6.46,6.46,0,0,0-1.62,1.53V40.72Z"/>
        <path class="cls-7" d="M109.22,40.72v-16h1.69a.69.69,0,0,1,.74.58l.2,1.64a8.33,8.33,0,0,1,2-1.78,4.75,4.75,0,0,1,2.56-.7,3.76,3.76,0,0,1,2.61.9,5,5,0,0,1,1.44,2.43,5.42,5.42,0,0,1,.89-1.5,5.27,5.27,0,0,1,1.23-1,5.35,5.35,0,0,1,1.44-.6,6.78,6.78,0,0,1,1.55-.19,5.9,5.9,0,0,1,2.25.41,4.43,4.43,0,0,1,1.67,1.17,5.22,5.22,0,0,1,1.05,1.9,8.46,8.46,0,0,1,.36,2.58V40.72h-2.82V30.54a4.31,4.31,0,0,0-.82-2.85,3,3,0,0,0-2.37-1,3.59,3.59,0,0,0-1.31.25,3.09,3.09,0,0,0-1.1.72,3.46,3.46,0,0,0-.75,1.19,4.7,4.7,0,0,0-.27,1.66V40.72h-2.83V30.54a4.51,4.51,0,0,0-.77-2.87,2.76,2.76,0,0,0-2.26-1,3.55,3.55,0,0,0-1.92.56A6.67,6.67,0,0,0,112,28.81V40.72Z"/>
        <path class="cls-7" d="M134.76,27a9.27,9.27,0,0,1,2.85-1.91,8.84,8.84,0,0,1,3.4-.63,6,6,0,0,1,2.38.45,4.87,4.87,0,0,1,1.75,1.23,5.19,5.19,0,0,1,1.07,1.9,8,8,0,0,1,.36,2.46V40.72h-1.24a1.18,1.18,0,0,1-.63-.14.87.87,0,0,1-.35-.53L144,38.54a15.27,15.27,0,0,1-1.23,1,6.81,6.81,0,0,1-1.26.76,7.07,7.07,0,0,1-1.41.47,7.7,7.7,0,0,1-1.66.17,5.9,5.9,0,0,1-1.76-.26,4.25,4.25,0,0,1-1.42-.78,3.72,3.72,0,0,1-1-1.32,4.71,4.71,0,0,1-.35-1.88,3.51,3.51,0,0,1,.52-1.83,4.58,4.58,0,0,1,1.69-1.55,11.18,11.18,0,0,1,3-1.11,23,23,0,0,1,4.61-.5V30.49a4.24,4.24,0,0,0-.81-2.81,2.88,2.88,0,0,0-2.35-1,5.15,5.15,0,0,0-1.74.26,6.5,6.5,0,0,0-1.21.59c-.35.21-.64.41-.89.58a1.21,1.21,0,0,1-.73.26.81.81,0,0,1-.49-.15,1.38,1.38,0,0,1-.35-.37Zm9.07,6.53a25.27,25.27,0,0,0-3.31.31,9.3,9.3,0,0,0-2.22.64,3.08,3.08,0,0,0-1.25.93,2.06,2.06,0,0,0-.38,1.2,2.79,2.79,0,0,0,.2,1.09,2.24,2.24,0,0,0,.56.75,2.37,2.37,0,0,0,.84.42,3.77,3.77,0,0,0,1,.14,5.72,5.72,0,0,0,1.36-.15,5.24,5.24,0,0,0,1.16-.44,6.19,6.19,0,0,0,1-.68,9.91,9.91,0,0,0,1-.89Z"/>
        <path class="cls-7" d="M165.47,40.72h-2.81V27.09h-8.23v9.59a2,2,0,0,0,.49,1.5,1.71,1.71,0,0,0,1.26.49,2.16,2.16,0,0,0,.76-.12,3.84,3.84,0,0,0,.57-.26l.4-.26a.5.5,0,0,1,.29-.12.47.47,0,0,1,.39.27l.82,1.34a5.19,5.19,0,0,1-1.75,1.06,5.89,5.89,0,0,1-2.11.39,3.84,3.84,0,0,1-2.91-1.06,4.2,4.2,0,0,1-1-3V27.09H149.7a.64.64,0,0,1-.43-.15.58.58,0,0,1-.17-.47V25.35l2.62-.34.64-4.93a.64.64,0,0,1,.22-.38.61.61,0,0,1,.43-.15h1.42v5.5h11Zm.7-21.11a1.84,1.84,0,0,1-.17.77,2.26,2.26,0,0,1-.44.62,2.09,2.09,0,0,1-.64.42,1.83,1.83,0,0,1-.77.16,1.8,1.8,0,0,1-.77-.16,1.89,1.89,0,0,1-.62-.42,2.22,2.22,0,0,1-.43-.62,2,2,0,0,1-.16-.77,2.09,2.09,0,0,1,.16-.78,2.23,2.23,0,0,1,.43-.65,1.92,1.92,0,0,1,.62-.43,1.8,1.8,0,0,1,.77-.16,1.83,1.83,0,0,1,.77.16,2.12,2.12,0,0,1,.64.43,2.26,2.26,0,0,1,.44.65A1.92,1.92,0,0,1,166.17,19.61Z"/>
        <path class="cls-7" d="M176.81,24.48a8.16,8.16,0,0,1,3.16.59,7,7,0,0,1,2.4,1.65,7.29,7.29,0,0,1,1.52,2.6,11.2,11.2,0,0,1,0,6.81,7.2,7.2,0,0,1-1.52,2.58,6.69,6.69,0,0,1-2.4,1.65,8.16,8.16,0,0,1-3.16.58,8.27,8.27,0,0,1-3.18-.58,6.53,6.53,0,0,1-2.4-1.65,7.2,7.2,0,0,1-1.52-2.58,10.13,10.13,0,0,1-.53-3.41,10.11,10.11,0,0,1,.53-3.4,7.29,7.29,0,0,1,1.52-2.6,6.77,6.77,0,0,1,2.4-1.65A8.27,8.27,0,0,1,176.81,24.48Zm0,14.26a4.1,4.1,0,0,0,3.54-1.58,7.41,7.41,0,0,0,1.16-4.43,7.44,7.44,0,0,0-1.16-4.44,4.09,4.09,0,0,0-3.54-1.6,5,5,0,0,0-2.09.41,3.91,3.91,0,0,0-1.48,1.19,5.22,5.22,0,0,0-.88,1.9,9.91,9.91,0,0,0-.29,2.54,7.34,7.34,0,0,0,1.17,4.43A4.14,4.14,0,0,0,176.81,38.74Z"/>
        <path class="cls-7" d="M190.61,27.06A9.2,9.2,0,0,1,191.72,26a6.6,6.6,0,0,1,1.24-.81,5.94,5.94,0,0,1,1.39-.52,6.52,6.52,0,0,1,1.58-.19,5.77,5.77,0,0,1,2.31.44,4.41,4.41,0,0,1,1.67,1.23,5.35,5.35,0,0,1,1,1.92,8.33,8.33,0,0,1,.35,2.47V40.72h-2.83V30.54a4.28,4.28,0,0,0-.82-2.81,3.09,3.09,0,0,0-2.52-1,4.73,4.73,0,0,0-2.33.6,7.75,7.75,0,0,0-2,1.63V40.72H188v-16h1.69a.68.68,0,0,1,.74.58Z"/>
      </g>
    </g>
  </g>
</svg>
