<svg id="BG" xmlns="http://www.w3.org/2000/svg" xmlns:xlink="http://www.w3.org/1999/xlink" viewBox="0 0 950.44 400.79">
  <defs>
    <style>
      .cls-1 {
        fill: none;
      }

      .cls-2 {
        fill: #645452;
      }

      .cls-3 {
        fill: #938480;
      }

      .cls-4 {
        fill: #387c70;
      }

      .cls-5 {
        fill: #57a98d;
      }

      .cls-6 {
        fill: #266055;
      }

      .cls-7 {
        fill: #1b7a98;
      }

      .cls-8 {
        fill: #fff2e1;
      }

      .cls-9 {
        fill: #0b97cc;
      }

      .cls-10 {
        fill: #fff;
      }

      .cls-11 {
        fill: #fff3c0;
      }

      .cls-12 {
        fill: #7b8c8d;
      }

      .cls-13 {
        fill: #987156;
      }

      .cls-14 {
        fill: #c3b5ab;
      }

      .cls-15 {
        fill: #ffca4b;
      }

      .cls-16 {
        fill: #483f39;
      }

      .cls-17 {
        fill: #afc7c6;
      }

      .cls-18 {
        clip-path: url(#clip-path);
      }

      .cls-19 {
        clip-path: url(#clip-path-2);
      }

      .cls-20 {
        clip-path: url(#clip-path-3);
      }

      .cls-21 {
        fill: #9f8080;
      }

      .cls-22 {
        fill: #d3be92;
      }

      .cls-23 {
        fill: #e3d5c4;
      }

      .cls-24 {
        fill: #ee552b;
      }

      .cls-25 {
        fill: #735747;
      }

      .cls-26 {
        fill: #806f9b;
      }

      .cls-27 {
        clip-path: url(#clip-path-4);
      }

      .cls-28 {
        fill: #534030;
      }

      .cls-29 {
        fill: #3c3026;
      }

      .cls-30 {
        fill: #453e5a;
      }

      .cls-31 {
        fill: #6b6964;
      }

      .cls-32 {
        fill: #80898c;
      }

      .cls-33 {
        fill: #acbabc;
      }

      .cls-34 {
        fill: #8c9596;
      }

      .cls-35 {
        fill: #5e6d6f;
      }

      .cls-36 {
        fill: #8c8d84;
      }

      .cls-37 {
        fill: #035778;
      }

      .cls-38 {
        fill: #8c7629;
      }

      .cls-39 {
        fill: #23211e;
      }

      .cls-40 {
        fill: #607475;
      }

      .cls-41 {
        fill: #746f55;
      }

      .cls-42 {
        fill: #7d7c72;
      }

      .cls-43 {
        fill: #832f15;
      }

      .cls-44 {
        fill: #0a4458;
      }

      .cls-45 {
        fill: #c6dce0;
      }

      .cls-46 {
        fill: #1f4d8e;
      }

      .cls-47 {
        fill: #01104d;
      }

      .cls-48 {
        fill: #000127;
      }

      .cls-49 {
        fill: #16427d;
      }

      .cls-50 {
        fill: #013852;
      }

      .cls-51 {
        fill: #8fa4a9;
      }

      .cls-52 {
        fill: #103164;
      }

      .cls-53 {
        fill: #000731;
      }

      .cls-54 {
        fill: #000016;
      }

      .cls-55 {
        fill: #0a2956;
      }

      .cls-56 {
        fill: #cdbaae;
      }

      .cls-57 {
        fill: #ffe5aa;
      }

      .cls-58 {
        fill: #d7a96d;
      }

      .cls-59 {
        fill: #6d8083;
      }

      .cls-60 {
        fill: #013044;
      }

      .cls-61 {
        fill: #dff0f0;
      }

      .cls-62 {
        fill: #564949;
      }

      .cls-63 {
        fill: #827e70;
      }

      .cls-64 {
        fill: #e5dfd9;
      }

      .cls-65 {
        fill: #b2ada8;
      }

      .cls-66 {
        fill: #7e8280;
      }

      .cls-67 {
        fill: #616562;
      }

      .cls-68 {
        fill: #c6f0b0;
      }

      .cls-69 {
        fill: #93ccac;
      }

      .cls-70 {
        fill: #507764;
      }

      .cls-71 {
        fill: #2e5042;
      }

      .cls-72 {
        fill: #fdc327;
      }

      .cls-73 {
        clip-path: url(#clip-path-5);
      }

      .cls-74 {
        fill: #fcc74b;
      }

      .cls-75 {
        fill: #8c7112;
      }

      .cls-76 {
        fill: #8b7429;
      }

      .cls-77 {
        fill: #d0f0ef;
      }

      .cls-78 {
        fill: #f5fffe;
      }
    </style>
    <clipPath id="clip-path">
      <path class="cls-1" d="M503.2,352.35l-1.54-48a9.73,9.73,0,1,1,19.45.09L519,355.62l-15.82-3.27"/>
    </clipPath>
    <clipPath id="clip-path-2">
      <path class="cls-1" d="M419.8,335.47l-1.54-48a9.73,9.73,0,1,1,19.45.08l-2.09,51.14-15.82-3.27"/>
    </clipPath>
    <clipPath id="clip-path-3">
      <path class="cls-1" d="M429.94,295.5v.22l4,.89a1.63,1.63,0,0,0-.11-.23l-3.88-.88m-1.79-.4a2.2,2.2,0,0,0-.25.17l.38.08v-.22l-.13,0"/>
    </clipPath>
    <clipPath id="clip-path-4">
      <path class="cls-1" d="M481.42,197.35c.49,12.4-5.83,22.46-14.12,22.46s-15.41-10.06-15.91-22.46,5.82-22.46,14.12-22.46,15.41,10.06,15.91,22.46"/>
    </clipPath>
    <clipPath id="clip-path-5">
      <path class="cls-1" d="M574.25,61.64c7,13.16,6.69,27-.67,30.89s-19-3.59-26-16.74-6.69-27,.66-30.9,19,3.59,26,16.75"/>
    </clipPath>
  </defs>
  <g>
    <g>
      <polygon class="cls-2" points="428.52 370.08 413.77 376.25 407.59 377.73 413.81 367.17 410.18 365.42 402.69 379.63 398.07 386.25 396.67 390.28 402.19 390.26 404.29 382.04 415.78 377.71 430.61 373.41 428.52 370.08"/>
      <path class="cls-3" d="M428.52,370.08l-14.75,6.17L403,379.8l5.59-7,3.78-4.27c-1.79,1.27-2.86,2.7-5.1,2.43l-4.58,8.69-3,7.62-3,3h1.59a8.42,8.42,0,0,1,1.84-2.74c1.4-5.12,6.6-8.07,12.33-9.22.37-.08.74-.14,1.11-.2,5.23-2.29,10.53-4.49,15.69-6.9Z"/>
      <path class="cls-4" d="M371.28,353.82l-4.64,10.8c-1,2.3.18,4.85,2.73,6l17.37,7.62a6.4,6.4,0,0,0,7.65-1.89l23.56-34a4.22,4.22,0,0,0,.12-4.75L403.88,315a5,5,0,0,0-1.51-1.53l-22.12-14.74a6.58,6.58,0,0,0-7.51.3L350.83,316.4a4.51,4.51,0,0,0-1.8,4.08L351.17,338a4.91,4.91,0,0,0,3.11,3.82l14.2,6.05C371.08,348.94,372.27,351.51,371.28,353.82Z"/>
      <path class="cls-4" d="M407.71,370.7,423.62,377a10.44,10.44,0,0,0,9.27-.87l11.89-7.95c3.58-2.39,3.7-6.55.25-9l-12.41-8.89a10.27,10.27,0,0,0-11.2-.06L406,360.76C401.85,363.64,402.71,368.73,407.71,370.7Z"/>
      <path class="cls-5" d="M384.91,312.72a53.35,53.35,0,0,1,8.24-5.4l-12.9-8.6a6.58,6.58,0,0,0-7.51.3L350.83,316.4a4.53,4.53,0,0,0-.87.88c.4,7.32,1.44,14.75,7.17,20.05a30,30,0,0,0,14.54,7C369.17,332.7,374.38,321.16,384.91,312.72Z"/>
      <path class="cls-5" d="M412.18,328.2l-4.68-7.45c-7.27,3.09-13.31,7.73-15.06,13.8C400,335.69,406.55,332.63,412.18,328.2Z"/>
      <path class="cls-5" d="M376.43,363.34c-3.37,1.38-6.68,2.83-9.88,4.35a5.09,5.09,0,0,0,2.82,2.9l8.4,3.68A11.09,11.09,0,0,0,376.43,363.34Z"/>
      <path class="cls-5" d="M420.38,366.75c6.74-5.81,17.22-6.17,26.91-4.65a5.89,5.89,0,0,0-2.26-3l-12.41-8.89-.33-.2c-10,5.09-19.5,11.33-26.3,19.29l-.24.3a8.53,8.53,0,0,0,2,1.09l8.21,3.22A13.46,13.46,0,0,1,420.38,366.75Z"/>
      <path class="cls-5" d="M411.49,332.17a121.35,121.35,0,0,0-30.36-12.45l.93.81c.6.5,1.48,1.18,2.55,2a58.06,58.06,0,0,0,8.7,5.4c3.52,1.77,8,2.64,11.65,3.31S411.49,332.17,411.49,332.17Z"/>
      <path class="cls-5" d="M368.15,328.41a136.31,136.31,0,0,0-26-1.05s1.67-3.24,10.26-3.51a31.72,31.72,0,0,1,6.14.61,41.16,41.16,0,0,1,5,1.62,23.1,23.1,0,0,1,3.34,1.6C367.72,328.12,368.15,328.41,368.15,328.41Z"/>
      <path class="cls-6" d="M385.37,336.27q-5.13-1.83-10.46-3.2a6.33,6.33,0,0,0,.61,2,8.15,8.15,0,0,0,3.37,3.53,4,4,0,0,0,4.57-.39A8.52,8.52,0,0,0,385.37,336.27Z"/>
      <path class="cls-5" d="M356.17,332c-2.89-.2-5.78-.52-8.69-.5-1.45,0-2.9-.08-4.36-.08l-4.36.15a6.32,6.32,0,0,0,1.48,1.44,9,9,0,0,0,4.68,1.57c2.17.19,4.91-.66,7.19-1.23S356.17,332,356.17,332Z"/>
      <path class="cls-5" d="M369.88,319.3c-3.48-.67-7-1-10.56-1.51,0,0,0,1.2,4.26,2.59a6.67,6.67,0,0,0,4.71,0A4.45,4.45,0,0,0,369.88,319.3Z"/>
      <path class="cls-5" d="M354.93,313.66c-2.49-.23-5-.3-7.5-.34l-3.75-.07-3.75.11a4.82,4.82,0,0,0,1.54,1.05,20,20,0,0,0,5.87,1.55,9.8,9.8,0,0,0,5.93-.88A4.71,4.71,0,0,0,354.93,313.66Z"/>
      <path class="cls-5" d="M400,344.05c-1.35-.76-2.71-1.51-4.12-2.2,0,0,.39,1.59,1.33,2.07A5.42,5.42,0,0,0,400,344.05Z"/>
      <path class="cls-5" d="M364,337.09c-2.16-.37-4.35-.6-6.52-.91a5,5,0,0,0,3.05,2A3.52,3.52,0,0,0,364,337.09Z"/>
      <path class="cls-5" d="M390.15,346a91.23,91.23,0,0,0-9.74-3.92,12.44,12.44,0,0,1,1.72-.27,8.77,8.77,0,0,1,3.31.3,10.51,10.51,0,0,1,3.18,2.21C389.52,345.21,390.15,346,390.15,346Z"/>
      <path class="cls-6" d="M420.54,345.18c-3-1.44-6-2.78-9.1-3.91l1.26,1.47c.71.85,1.61,1.89,2.41,2.69C416.63,347.05,420.54,345.18,420.54,345.18Z"/>
      <path class="cls-5" d="M359.1,345.16l-3.83-1a3.25,3.25,0,0,1,1.76-.31A4.82,4.82,0,0,1,359.1,345.16Z"/>
      <path class="cls-5" d="M373.62,325c-1.95-.25-3.89-.5-5.84-.67,0,0,0,.78,2.65,1.23S373.62,325,373.62,325Z"/>
      <path class="cls-5" d="M370.68,334.29q-3.15-1-6.39-1.84a4.15,4.15,0,0,1,2.87-.34A7.72,7.72,0,0,1,370.68,334.29Z"/>
      <path class="cls-5" d="M394.78,334.86,391,333.25l-3.89-1.46s.1,1.58,2.57,2.71A7.9,7.9,0,0,0,394.78,334.86Z"/>
      <path class="cls-5" d="M408.13,353c-1.62-1.26-3.29-2.48-5-3.62a8,8,0,0,0,1.62,2.71A4,4,0,0,0,408.13,353Z"/>
      <path class="cls-5" d="M396.77,351.52c-1-.63-2-1.19-3.08-1.77a3.15,3.15,0,0,1,2.14.15A1.36,1.36,0,0,1,396.77,351.52Z"/>
      <path class="cls-5" d="M413.08,325.72a118,118,0,0,0-12.14-5.87s2.38-.67,7.17,1.28S413.08,325.72,413.08,325.72Z"/>
      <path class="cls-5" d="M408.34,357a58.29,58.29,0,0,1,10.44,7.46,10.29,10.29,0,0,1-2.06-.15,11.7,11.7,0,0,1-4.42-1.72,9.45,9.45,0,0,1-3.19-3.57A7.84,7.84,0,0,1,408.34,357Z"/>
      <path class="cls-5" d="M415.22,338.14c1.8.57,3.54,1.25,5.34,1.9a10.31,10.31,0,0,0-2.86-2.7A1.92,1.92,0,0,0,415.22,338.14Z"/>
      <path class="cls-5" d="M420.78,351.81a51.06,51.06,0,0,1,10.91,11.51,7.57,7.57,0,0,0-.16-2.34,10.6,10.6,0,0,0-2.76-5.13,13.57,13.57,0,0,0-5.31-3.36A13,13,0,0,0,420.78,351.81Z"/>
      <path class="cls-5" d="M414.59,351.72c1,.86,2,1.69,2.93,2.59a3.66,3.66,0,0,1-2.19-.33C414.43,353.44,414.59,351.72,414.59,351.72Z"/>
      <path class="cls-5" d="M412.12,346.86a93.1,93.1,0,0,0-8.29-5,8,8,0,0,0,.8,1.18,9.25,9.25,0,0,0,2.38,2.05,17.51,17.51,0,0,0,3.34,1.3C411.36,346.72,412.12,346.86,412.12,346.86Z"/>
      <g>
        <g>
          <path class="cls-7" d="M377.51,211.47l14.09-6.61s62.69-81.59,62.28-82.42-4.18-2-4.18-2l-72.19,91"/>
          <path class="cls-8" d="M390.26,210.85l-1.86,1.86,2.05.64-1.14,1.8,1.67.66c1.2-1.51,2.38-3,3.61-4.52,2.72-3.7,5.35-7.46,8.09-11.15.34-2.59,2-4.79,3.45-6.87,2.13-3,4-6.14,6.08-9.18,4-5.85,8.58-11.29,12.77-17s8.07-11.25,11.79-17.1c3.15-4.94,6.55-9.7,9.74-14.62a98.2,98.2,0,0,1,6-8.49c-.34-1.58-.86-2.44-2.47-2.67q-29.29,40.22-62.86,80.63l2.06,1.65-1.65,3.5Z"/>
          <path class="cls-9" d="M446.64,120.09c-11.28,14.13-66.21,82.49-69.73,86.28-3.9,4.2.6,5.1.6,5.1,19-16.12,64.26-78.61,73.79-91.48-1.56,0-3.11,0-4.66.1"/>
          <path class="cls-8" d="M514.05,391.87c-2.15-1.82-5.37-1.84-8-2.28-2.48-.42-5.14-1.24-6.78-3.29-1.91-2.39-1.95-5.69-3.31-8.34a14.25,14.25,0,0,0-7.12-6.27c-6.6-3-14.15-4.23-21.21-5.62-7.8-1.53-15.5-3.21-23.18-5.27-5.32-1.43-10.67-2.74-16-4.07a1.61,1.61,0,0,1-.31.25c-3.52,1.83-7.18,3.57-11.14,4.13a17.79,17.79,0,0,1-10.55-1.88c-3.56-1.77-6.79-3.78-10.58-5.08-.73-.25-1.48-.48-2.22-.71l-3.29,2.28c5.53,6.49,13.54,10.87,20.88,14.86,3.72,2,7.55,3.9,11.15,6.12,5.19,3.21,10.3,6.56,15.41,9.9,8.17,5.35,15.83,10.9,22.31,18.29a108.74,108.74,0,0,1,14.05,20.74L489,430.82A1.33,1.33,0,0,1,489,430c1.61-6.13,9.13-8.3,11.94-13.76,1.72-3.34,2.43-7.21,4.46-10.39A25.72,25.72,0,0,1,510,401C512.2,399,517.59,394.88,514.05,391.87Z"/>
          <path class="cls-10" d="M478.25,422.07,478,422a40.86,40.86,0,0,1-3.88-2.78,8.49,8.49,0,0,1-2-2.36c-1.11-2-1-4.52-1-6.77l.07-.35c-4.41-3.51-8.28-7.79-8.56-13.64l-.1-.05c-5.71-4.06-12-7.22-18.19-10.45-5.81-3-11.41-6.4-17.11-9.63-5.94-3.37-11.93-6.64-17.81-10.11s-12.22-6.91-18.1-10.79L374,367l.2,5.42-5.42,2.61.6,5.61L364,382.37l.76,5.14L478.13,427c.06-1.65.12-3.3.12-4.95"/>
          <path class="cls-11" d="M537,189.54c2.52-10.77-48.22-46.07-72.26-62.1l-.06.08c-10.68,15-2-13.67-11.59,2.08-8.25,13.59-34.69,67.11-47,82.15a1.33,1.33,0,0,1,.17,1.08c-.08.26-.15.53-.22.79a1.44,1.44,0,0,1,.09.94c-.19.68-.42,1.36-.66,2a1.3,1.3,0,0,1,0,.62c-.1.29-.21.57-.32.86,1.31,11.46,2.47,27.68,3.44,44.58,7.64,4.75,16.33,7.5,25.18,9.15,9.58,1.78,19.34,2.34,29.06,2.74,10.35.43,20.7.86,31.05,1.55,14.61,1,29.22,2.42,43.7,4.66C536.2,238.6,535.37,196.31,537,189.54Z"/>
          <path class="cls-12" d="M478.4,177.73a31.56,31.56,0,0,1,7.45,19.62c.57,14.37-7.67,26-18.41,26a16.85,16.85,0,0,1-11.23-4.61c3.57,4,8.14,6.41,13,6.41,10.74,0,19-11.65,18.4-26-.36-8.87-4-16.71-9.24-21.41"/>
          <path class="cls-8" d="M522.9,230.24l5.32-2.75c1.7-3.78,2.61-7.73,1.61-11.88-1.13-4.74-4.25-8.71-7.46-12.24s-6.61-6.94-9.8-10.51c-7.11-8-13.51-16.66-19.79-25.29-6.39-8.78-12.5-17.76-18.23-27-4.67-7.49-9.75-15.3-12-24l-4.66.35-7,8.25C451.12,126.07,486,196.2,522.9,230.24Z"/>
          <path class="cls-9" d="M614,174c-33.64-31.54-56.33-79.71-56.33-79.71l1.45-.64c1.47-.74-.14-3.89-1.14-3.87l-12.91-.42s-93.88,28.19-97.48,29.39c-1.91.64-2.05,2.49-.93,4,1.45,1.91,4.82,1.73,7.08,2.12,2.85.49,3.09,3.31,4.38,5.58s2.67,4.58,4,6.85c2.94,4.88,6,9.69,9.1,14.46,6.46,9.92,13.18,19.66,20,29.31q13.82,19.45,28.3,38.39a4.31,4.31,0,0,0,5.58,1.15c15.8-8.89,76.9-38.61,88.47-44.22A1.44,1.44,0,0,0,614,174"/>
          <polyline class="cls-13" points="589.07 231.3 544.88 255.33 544.25 228.1 588.44 204.06 589.07 231.3"/>
          <path class="cls-14" d="M547.36,251.32l.1-22.9,39-21.24-.1,22.9-39,21.24m1.76-21.91-.08,19.1,35.71-19.42.08-19.1-35.71,19.42"/>
          <polyline class="cls-15" points="571.99 222.99 562.52 228.43 562.54 224.27 572.01 218.84 571.99 222.99"/>
          <polyline class="cls-16" points="586.94 271.35 545.7 293.79 545.47 270.06 586.65 247.87 586.94 271.35"/>
          <polyline class="cls-13" points="590.96 313.25 546.82 344.1 546.19 316.96 590.33 286.11 590.96 313.25"/>
          <path class="cls-14" d="M549.3,339.77l.09-22.27,39-27.26-.09,22.27-39,27.26m1.75-21.4L551,336.56l35.68-24.93.07-18.19-35.67,24.93"/>
          <polyline class="cls-15" points="573.9 307.58 564.44 314.47 564.46 310.31 573.92 303.42 573.9 307.58"/>
          <polyline class="cls-13" points="476.31 262.52 527.61 269.35 526.06 235.86 477.67 230.64 476.31 262.52"/>
          <path class="cls-14" d="M524.43,266.61l-44.94-5.74,1.23-27.47L523,237.8l1.39,28.81m-43.2-7.2,41.44,5.3-1.22-25.4-39.15-4.07-1.07,24.17"/>
          <polyline class="cls-13" points="461.37 227.48 411.66 221.6 412.59 252.6 461.37 259.21 461.37 227.48"/>
          <path class="cls-13" d="M485.85,197.35c.57,14.37-7.67,26-18.41,26s-19.9-11.65-20.48-26,7.67-26,18.4-26,19.91,11.65,20.49,26"/>
          <path class="cls-14" d="M458.17,256.54l-42.78-6.46-.79-26.31,43.57,5.86v26.91M417,248.64l39.5,6V231.09l-40.19-5.41.69,23"/>
          <polyline class="cls-15" points="427.89 229.1 428.31 233.91 442.51 236 443.14 231.4 427.89 229.1"/>
          <polyline class="cls-15" points="492.16 238.29 492.57 243.09 506.77 245.18 507.4 240.59 492.16 238.29"/>
          <path class="cls-13" d="M461.89,297.61c-.05,1.87-.14,3.73-.19,5.61,0,5.24,0,10.48-.05,15.73l0,.05c.23,9.69.92,19.36,1.38,29l.15,0,18.22,4.34,3.48-50.77-23-3.94"/>
          <polyline class="cls-17" points="463.2 347.98 463.11 297.81 454.52 296.34 456.26 350.58 463.2 347.98"/>
          <polyline points="472.66 350.45 471.55 350.43 472.37 300.52 473.48 300.54 472.66 350.45"/>
          <path class="cls-15" d="M469.32,339.59a3,3,0,0,1-2.29-1l.85-.72a1.94,1.94,0,0,0,1.66.65l.16,0-.07-.23a11.26,11.26,0,0,0-1.47-3.28l-.41-.6a8.2,8.2,0,0,1-1.2-2.15,2.94,2.94,0,0,1,.94-3.39,2,2,0,0,1,2.21.11,1.57,1.57,0,0,1,.73,1.64l-1.09-.23-.26-.5a1,1,0,0,0-1-.08,1.87,1.87,0,0,0-.48,2.11,7.05,7.05,0,0,0,1.05,1.85l.43.64a12.42,12.42,0,0,1,1.61,3.58,1.35,1.35,0,0,1-.09,1.16,1.29,1.29,0,0,1-.93.51l-.36,0"/>
          <path class="cls-15" d="M475.89,341.07a3,3,0,0,1-2.28-1l.84-.72a2,2,0,0,0,1.66.64l.16,0-.06-.24a11.7,11.7,0,0,0-1.48-3.26l-.41-.6a8.39,8.39,0,0,1-1.2-2.16,3,3,0,0,1,.94-3.38,2,2,0,0,1,2.21.1A1.57,1.57,0,0,1,477,332l-1.09-.23-.26-.5a1,1,0,0,0-1-.08,1.9,1.9,0,0,0-.48,2.11,7.23,7.23,0,0,0,1.05,1.86l.43.63a12.56,12.56,0,0,1,1.62,3.58,1.38,1.38,0,0,1-.1,1.17,1.26,1.26,0,0,1-.93.5l-.36,0"/>
          <path class="cls-17" d="M503.2,352.35l-1.54-48a9.73,9.73,0,1,1,19.45.09L519,355.62l-15.82-3.27"/>
          <g class="cls-18">
            <path class="cls-14" d="M512.14,350.16h0a.83.83,0,0,1-.82-.84l.55-54.89a.83.83,0,0,1,.83-.83h0a.84.84,0,0,1,.83.84l-.55,54.9a.83.83,0,0,1-.83.82"/>
            <path class="cls-14" d="M519.62,339.79h-.16l-15.25-2.89a.83.83,0,0,1-.66-1,.84.84,0,0,1,1-.67l15.25,2.89a.84.84,0,0,1,.66,1,.82.82,0,0,1-.81.67"/>
            <path class="cls-14" d="M520.12,325.24H520l-16.54-3a.82.82,0,0,1-.67-1,.81.81,0,0,1,1-.67l16.54,3a.83.83,0,0,1-.14,1.65"/>
            <path class="cls-14" d="M520.91,310.78h-.14l-17.24-3a.84.84,0,0,1,.28-1.65l17.24,3a.83.83,0,0,1-.14,1.65"/>
          </g>
          <path class="cls-17" d="M419.8,335.47l-1.54-48a9.73,9.73,0,1,1,19.45.08l-2.09,51.14-15.82-3.27"/>
          <g class="cls-19">
            <path class="cls-14" d="M428.74,333.28h0a.84.84,0,0,1-.83-.84l.55-54.89a.82.82,0,0,1,.83-.82h0a.82.82,0,0,1,.82.84l-.54,54.89a.83.83,0,0,1-.84.82"/>
            <path class="cls-14" d="M436.22,322.91h-.15L420.81,320a.83.83,0,0,1-.66-1,.86.86,0,0,1,1-.67l15.25,2.89a.85.85,0,0,1,.67,1,.83.83,0,0,1-.82.67"/>
            <path class="cls-14" d="M436.72,308.36h-.15l-16.55-3a.84.84,0,0,1-.67-1,.82.82,0,0,1,1-.67l16.55,3a.83.83,0,0,1-.15,1.65"/>
            <path class="cls-14" d="M437.52,293.91h-.15l-17.24-3a.83.83,0,1,1,.28-1.64l17.25,3a.85.85,0,0,1,.68,1,.84.84,0,0,1-.82.69"/>
          </g>
          <g class="cls-20">
            <rect class="cls-21" x="427.9" y="295.1" width="6.03" height="1.51"/>
          </g>
          <path class="cls-22" d="M428.28,295.13v.22l1.66.37v-.22l-1.66-.37"/>
          <path class="cls-23" d="M488.72,430.71l-123.93-43.2-.76-5.14L488.2,425.54l.52,5.17m4.12-14.35-124-41.29.6,5.61,124.17,43.07-.73-7.39m5.42-2.77-1-7.1L374,367l.2,5.42,124,41.13"/>
          <path class="cls-23" d="M497,396.59c.7-3.93-1.42-8.13-4-11a19,19,0,0,0-2.15-2c-1.17-.41-2.38-.73-3.58-1.05a32,32,0,0,0-4.3-.69c-.76.19-5.16,1.72-5.16,1.72l-1.27,5.19c-1.47,3.48,3.09,7.3,10.19,8.54A23.34,23.34,0,0,0,497,396.9,1.6,1.6,0,0,1,497,396.59Z"/>
          <path class="cls-8" d="M501.05,386.9c-1.32,3.14-7.59,4.78-14,3.66s-10.52-4.58-9.2-7.72,7.6-4.78,14-3.66,10.53,4.58,9.2,7.72"/>
          <path class="cls-23" d="M495.94,372.28c0-.5.05-1,.08-1.49,0,0,0-.05,0-.07-.59-4.87-.6-9.82-.82-14.72a179.9,179.9,0,0,0-1.53-18.24,1.54,1.54,0,0,1,2-1.64c-.08-1.19-.16-2.38-.28-3.57-.37-3.78-1.1-7.67-3.35-10.82-2-2.84-5-4.79-8.11-6.44-1.54,25.54-4,67.91-4,67.91-.12,2.65,2.94,4.53,7.83,5.34a21,21,0,0,0,7.86-.3A109.08,109.08,0,0,1,495.94,372.28Z"/>
          <path class="cls-14" d="M496.39,386.1a.83.83,0,0,1-.83-.81l-1.83-82.38a.83.83,0,0,1,.81-.85.84.84,0,0,1,.86.81l1.83,82.38a.84.84,0,0,1-.82.85h0"/>
          <path class="cls-14" d="M487.24,386.77h0a.83.83,0,0,1-.8-.86l2.66-83.37a.84.84,0,0,1,.83-.81h0a.84.84,0,0,1,.81.86L488.07,386a.83.83,0,0,1-.83.81"/>
          <path class="cls-14" d="M481.42,384.11h-.05a.83.83,0,0,1-.78-.88l4.66-80.39a.86.86,0,0,1,.87-.78.84.84,0,0,1,.79.88l-4.66,80.38a.83.83,0,0,1-.83.79"/>
          <path class="cls-23" d="M408.08,368.55a12.37,12.37,0,0,0-5.31-9.46,22.15,22.15,0,0,0-11-3.51.94.94,0,0,1-.16,0c-1.45.48-3.08,1-3.08,1l-1.27,5.19c-1.46,3.48,3.1,7.3,10.19,8.54a22.32,22.32,0,0,0,11.26-.72A1.37,1.37,0,0,1,408.08,368.55Z"/>
          <path class="cls-8" d="M411.69,360c-1.33,3.14-7.6,4.77-14,3.65s-10.53-4.58-9.2-7.72,7.59-4.78,14-3.65,10.52,4.57,9.2,7.72"/>
          <path class="cls-23" d="M407.27,346.58q-.16-10.54-.5-21.08c-.15-5-.17-10-.8-15-1-8-4-16.18-11.56-19.52-1.55,25.71-3.86,65.23-3.86,65.23-.13,2.65,2.93,4.53,7.83,5.34a19.92,19.92,0,0,0,9-.65C407.36,356.15,407.35,351.37,407.27,346.58Z"/>
          <path class="cls-14" d="M407,359.14a.83.83,0,0,1-.83-.81L404.37,276a.83.83,0,0,1,.81-.85c.51.08.84.36.85.82l1.83,82.37a.83.83,0,0,1-.81.85h0"/>
          <path class="cls-14" d="M397.88,359.81h0A.84.84,0,0,1,397,359l2.67-83.38a.76.76,0,0,1,.86-.8.83.83,0,0,1,.8.86L398.71,359a.84.84,0,0,1-.83.81"/>
          <path class="cls-14" d="M392.05,357.15H392a.83.83,0,0,1-.78-.89l4.66-80.37a.84.84,0,0,1,.88-.79.83.83,0,0,1,.78.88l-4.66,80.38a.83.83,0,0,1-.83.79"/>
          <path class="cls-8" d="M424.18,260.27c2.27,1.93,4.62,3.77,7,5.53,15.65,11.4,33.15,19.81,49.57,30l16.67,3.76,40.07-22.64Z"/>
          <polyline class="cls-23" points="376.4 272.25 376.4 283.44 497.44 310.72 537.51 288.08 537.51 276.9 496.28 296.84 376.4 272.25"/>
          <path class="cls-24" d="M457.32,351.15l-10.07,5.27a1,1,0,0,0,.19,1.92L471,365a1.05,1.05,0,0,0,1-.26l6.77-6.77a1,1,0,0,0-.48-1.74l-20.27-5.21-.74.09"/>
          <path class="cls-14" d="M497.56,301.7l-.3-.06L374.33,275.7a.83.83,0,0,1-.64-1,.84.84,0,0,1,1-.65L497.32,300l39.77-20.73a.83.83,0,0,1,.77,1.48l-40.3,21"/>
          <path class="cls-14" d="M497.84,306.49l-.29-.06L374.62,280.5a.84.84,0,0,1,.34-1.64L497.6,304.74,537.37,284a.83.83,0,1,1,.77,1.47l-40.3,21"/>
          <path class="cls-25" d="M468.11,210.83c-2.35-2.63-3.41-6.13-5.77-8.7a12,12,0,0,0-10.82-3.1c1,11.62,7.87,20.78,15.78,20.78a11.5,11.5,0,0,0,8.68-4.36A14.48,14.48,0,0,1,468.11,210.83Z"/>
          <path class="cls-26" d="M474.64,179.35l-.54.17a17.2,17.2,0,0,0-4.29,1.91c-2.52,1.72-4.33,4.71-5.8,7.32a15.77,15.77,0,0,0-1.93,9.38c.24,2.9,1.12,5.7,1,8.62,2.61,5.57,6.76,9.45,11.41,10.2,4.43-3.85,7.24-11.18,6.91-19.6C481.12,190,478.48,183.44,474.64,179.35Z"/>
          <g class="cls-27">
            <path class="cls-14" d="M468.78,218a.84.84,0,0,1-.83-.8l-1.64-42.11A.83.83,0,1,1,468,175l1.64,42.1a.84.84,0,0,1-.8.87h0"/>
            <path class="cls-14" d="M481.42,198.18h-.08l-22.95-2.07a.83.83,0,1,1,.15-1.65l22.95,2.06a.83.83,0,0,1,.75.91.82.82,0,0,1-.82.75"/>
            <path class="cls-14" d="M467.42,181.1l-.87.3,1.4,35.77a.84.84,0,0,0,.83.8h0a.84.84,0,0,0,.8-.87l-1.41-36.22Z"/>
            <path class="cls-14" d="M481.49,196.52l-20.11-1.81a6.37,6.37,0,0,0-.26,1.13c0,.17,0,.34-.05.52l20.27,1.82h.08a.82.82,0,0,0,.82-.75A.83.83,0,0,0,481.49,196.52Z"/>
          </g>
          <path class="cls-28" d="M476,180.93l.18.24h0l-.21-.25m-10.16-6.33c-4.13,0-8.2,2.88-10.64,6.35-3.56,5.06-4.84,13.24-3.52,19.57-.14-1-.23-2.1-.28-3.17-.49-12.4,5.82-22.46,14.12-22.46.27,0,.54,0,.8,0h0a11.63,11.63,0,0,1,1.67.27h0a12.74,12.74,0,0,1,5.2,2.75,12.41,12.41,0,0,0-5.19-3.07,8.88,8.88,0,0,0-2.16-.27"/>
          <path class="cls-29" d="M476,180.91l.2.26h0l-.18-.24,0,0m-8-5.72h0a12.75,12.75,0,0,1,5.25,2.78l-.05,0a12.74,12.74,0,0,0-5.2-2.75m-2.47-.3c-8.3,0-14.61,10.06-14.12,22.46.05,1.07.14,2.13.28,3.17a18.65,18.65,0,0,0,.59,2.2,2.94,2.94,0,0,1,2.36-2.6,4.46,4.46,0,0,1,.88-.09c3.93,0,6.61,5.67,8.49,8.46a30.25,30.25,0,0,1-3.65-12.2l-1.95-.18a.84.84,0,0,1-.76-.84.13.13,0,0,0,0-.06.83.83,0,0,1,.82-.76h.08l1.69.15c-.31-7.9,2.14-14.83,6.11-18.83l0-.72v-.14c-.26,0-.53,0-.8,0"/>
          <path class="cls-30" d="M460.34,196.29a30.25,30.25,0,0,0,3.65,12.2l.15.23c0-.63,0-1.27,0-1.92-.16-1.09-.34-2.18-.46-3.28-.17-1.7-.24-3.4-.34-5.1l0-.44c0-.46,0-.94,0-1.42l-3-.27m6-20.51c-4,4-6.42,10.93-6.11,18.83l3.08.28a12.74,12.74,0,0,1,2.26-7.36,16.68,16.68,0,0,1,1.15-1.8l-.38-9.95m1.64-.58.34,8.72a11.64,11.64,0,0,1,2.52-1.84,8.5,8.5,0,0,1,3.94-1.07,5.87,5.87,0,0,1,1.39.16l-.2-.26a36.23,36.23,0,0,0-2.74-2.93A12.75,12.75,0,0,0,468,175.2"/>
          <path class="cls-31" d="M466.31,174.92h0v.14l.38,9.75c.28-2.31.85-2.39,1.59-1.81l-.3-7.8h0a11.63,11.63,0,0,0-1.67-.27"/>
          <path class="cls-31" d="M458.46,194.45a.83.83,0,0,0-.82.76.13.13,0,0,1,0,.06.84.84,0,0,0,.76.84l4.47.46a1.1,1.1,0,0,1,0-1.73l-2.67-.23-1.69-.15h-.08"/>
          <polygon class="cls-10" points="488.08 295.09 429.6 261.06 409.18 258.07 376.4 272.25 488.08 295.09"/>
          <path class="cls-10" d="M401.8,364.67a17.64,17.64,0,0,1-11.64-4.43c-1.6-1.42-2.9-3.64-1.79-5.62a1,1,0,0,1,1.7,1c-.59,1,.59,2.51,1.38,3.21a15.66,15.66,0,0,0,10.81,3.93,1,1,0,1,1,.06,1.94h-.52"/>
          <path class="cls-10" d="M490.57,392a17.61,17.61,0,0,1-11.63-4.43c-1.53-1.35-2.91-3.64-1.79-5.62a1,1,0,0,1,1.33-.36,1,1,0,0,1,.36,1.32c-.59,1,.6,2.51,1.39,3.21A15.71,15.71,0,0,0,491,390.09a1,1,0,0,1,1,.94,1,1,0,0,1-.94,1Z"/>
          <path class="cls-10" d="M388.8,210.8l-.58-.2a1,1,0,0,1-.19-1.36l54.56-73a1,1,0,0,1,1.56,1.16l-54.57,73a1,1,0,0,1-.78.39"/>
          <path class="cls-10" d="M520,224.59a.94.94,0,0,1-.73-.34c-21.85-25.15-44.06-57.48-66-96.1a1,1,0,0,1,1.69-1c21.9,38.5,44,70.73,65.79,95.78a1,1,0,0,1-.09,1.37l-.64.24"/>
          <path class="cls-15" d="M610,173.71c-.43-.45-43.47-46-54.06-78.24a.83.83,0,0,0-1.05-.53.84.84,0,0,0-.53,1c9.9,30.15,47.69,71.61,53.65,78l-84.6,39.33a976.48,976.48,0,0,1-60.44-88c.12-1.5,0-3.26-1.36-4.2a4.78,4.78,0,0,0-1.95-.64,35.24,35.24,0,0,1-9-2.76c-.22.09-.44.2-.67.28a11.32,11.32,0,0,1-1.12.26.77.77,0,0,0,.4.67,37.67,37.67,0,0,0,10.15,3.21,3.32,3.32,0,0,1,1.22.35c.74.51.71,1.84.6,2.94l0,.27.14.23a971.21,971.21,0,0,0,61.1,89l.41.52L609.75,175l1-.49Z"/>
          <path class="cls-15" d="M466.7,120.41a6,6,0,0,0-3.15-2.28,17.75,17.75,0,0,0-2.76-.65l-.73-.14a31.39,31.39,0,0,1-4-1.08l-2.16.77a.78.78,0,0,0,.31.29,32.5,32.5,0,0,0,5.57,1.59l.74.14a16,16,0,0,1,2.52.59,4.56,4.56,0,0,1,2.34,1.64,2.07,2.07,0,0,1,.1,2.28.8.8,0,0,0,.18,1.12l.47.15.65-.34A3.66,3.66,0,0,0,466.7,120.41Z"/>
          <path class="cls-15" d="M549.77,93a6.08,6.08,0,0,0-1.84-.42A47.54,47.54,0,0,1,540,90.94c-.79.23-1.59.45-2.38.69,0,0,.07.11.14.13A49.55,49.55,0,0,0,547.82,94a4.42,4.42,0,0,1,1.35.28c.47.22.75.63.57,1.87a.71.71,0,0,0,.6.79h.09a.69.69,0,0,0,.69-.59C551.21,95.71,551.48,93.82,549.77,93Z"/>
          <path class="cls-15" d="M555.51,93.09l-.36-.36A6.33,6.33,0,0,0,552,91.07a27.26,27.26,0,0,0-2.8-.47l-.74-.1c-1.43-.2-2.83-.49-4.21-.82-.69.21-1.38.43-2.08.63a.66.66,0,0,0,.43.4,43.67,43.67,0,0,0,5.66,1.17l.76.1a23.41,23.41,0,0,1,2.64.45,5,5,0,0,1,2.47,1.24l.42.42.37.44a.69.69,0,0,0,0,1l.49.2.49-.2a1.44,1.44,0,0,0,.47-1A2.1,2.1,0,0,0,555.51,93.09Z"/>
          <path class="cls-32" d="M454.59,119.75a.55.55,0,0,1-.56-.55V85.36a.56.56,0,1,1,1.11,0V119.2A.55.55,0,0,1,454.59,119.75Z"/>
          <path class="cls-33" d="M459.83,93.37A1.82,1.82,0,0,1,458,91.55V79.81a1.83,1.83,0,0,1,3.65,0V91.55a1.82,1.82,0,0,1-1.82,1.82"/>
          <path class="cls-32" d="M450.63,92.25l-.5-.31a.55.55,0,0,1,.26-.74l8.34-4.12a.55.55,0,1,1,.49,1l-8.34,4.13-.25,0"/>
          <path class="cls-33" d="M449.91,108a1.83,1.83,0,0,1-1.83-1.83V75a1.83,1.83,0,0,1,3.65,0v31.16a1.83,1.83,0,0,1-1.82,1.83"/>
          <path class="cls-10" d="M448.51,75.47a.87.87,0,0,0,1.07.61,1.18,1.18,0,0,0,.56-.83c.13-.45.21-1.19-.28-1.46a1.09,1.09,0,0,0-1,.06c-.28.15-.25.39-.32.66a1.84,1.84,0,0,0,0,1"/>
          <path class="cls-10" d="M458.48,80.39a.87.87,0,0,0,1.07.61,1.22,1.22,0,0,0,.57-.84c.12-.44.2-1.18-.29-1.45a1.09,1.09,0,0,0-1,.06c-.27.14-.25.38-.31.66a1.74,1.74,0,0,0,0,1"/>
          <path class="cls-34" d="M449.31,107.88a2,2,0,0,0,.59.1h0a2,2,0,0,1-.59-.1"/>
          <path class="cls-35" d="M451.61,74.39l-.37.36c-1,1.49-1,3.38-.95,5.16A162.32,162.32,0,0,1,449,101.39a33.24,33.24,0,0,0-.39,6.06,1.83,1.83,0,0,0,.69.43,2,2,0,0,0,.59.1,1.83,1.83,0,0,0,1.83-1.83V75h0l-.12-.6"/>
          <path class="cls-35" d="M461.13,79.8c-1.32,0-1.43,2.17-1.69,3.19-.36,1.39-.65,2.79-.92,4.19l.21-.1A.53.53,0,0,1,459,87a.55.55,0,0,1,.25,1l-1,.47L458,90.11v1.44a1.83,1.83,0,0,0,3.65,0V79.94l-.44-.13h-.08"/>
          <polyline class="cls-12" points="526.16 238.02 527.61 269.35 477.14 262.63 478.02 264.24 528.82 270.9 527.67 238.72 526.16 238.02"/>
          <polyline class="cls-28" points="524.68 237.34 526.52 267.91 476.64 261.71 477.14 262.63 527.61 269.35 526.16 238.02 524.68 237.34"/>
          <path class="cls-34" d="M488.69,430.7h0m-76.8-89.92-.1.07-2.54,1.76h0l2.54-1.76h0l.1-.07h0M597,331.05c0,4.46-.31,5.07.13,9.55h0c0-.35-.06-.75-.1-1.12-.28-3.5,0-4.37,0-8.43M410,291.28c.77,16.62,1.32,31.58,1.63,40.59h0c-.31-9-.86-24-1.62-40.59h0m-15.38-3.37c0,.8-.09,1.61-.14,2.43.05-.82.1-1.63.14-2.43h0m200.27-91.3c-.31,34.46-.54,96.46,1.29,130.72l.71-.57h0l-.71.56c-1.82-34.26-1.6-96.25-1.29-130.71m19.84-13.82L594.89,193h0l19.81-10.24M557.65,94.3h0S580.34,142.47,614,174l.11.12L614,174c-33.64-31.54-56.33-79.71-56.33-79.71m1.48-.66h0m0,0h0"/>
          <path class="cls-36" d="M488.69,430.7h0m-.49-5.16h0l.52,5.17.21.08-.73-5.25m10.15-64L499,382a5.18,5.18,0,0,1,2.25,3.36l.29.07.72,7.78c-.6,1.42-2.11,2.56-4.17,3.33l14.2-2.43,27.39-22.52-41.37-10.06m-27,3.52a1,1,0,0,1-.29,0l-23.58-6.7a1,1,0,0,1-.19-1.92l10.07-5.27.74-.09,20.27,5.21a1,1,0,0,1,.48,1.74L472,364.78a1.06,1.06,0,0,1-.73.3m-59.52-24.23-2.54,1.76.42,12.46a5.16,5.16,0,0,1,2.25,3.37l.3.06.71,7.78a4.27,4.27,0,0,1-.76,1.17l.17.1a6.44,6.44,0,0,0,.74-1c5.77-1.26,10.74-2.84,16.41-4.53l50.37,11.82,1.5-21.58-8.69-2.07v.22l-1.11,0V350l-8.36-2-.15,0h0l-6.79,2.55-44.47-9.73m.1-.07h0m-.29-8.91h0c.2,5.53.31,8.83.31,8.91,0-.08-.1-3.38-.29-8.91"/>
          <path class="cls-34" d="M412.17,367.45a8.1,8.1,0,0,1-3.18,2.07,7.4,7.4,0,0,0,3.35-2l-.17-.1"/>
          <path class="cls-12" d="M410,291.28c.76,16.62,1.31,31.58,1.62,40.59.19,5.53.29,8.83.29,8.91h0l-.1.07,44.47,9.73,6.79-2.55h0l-6.79,2.55-1.58-49.33-17.37-3.88L435.73,336c.62.2,1.23.42,1.84.64a.72.72,0,0,1,.47.64c0,.85.06,1.7.1,2.54,0,.41.14.94-.35,1.11a.91.91,0,0,1-.23,0,3.58,3.58,0,0,1-1-.31c-.68-.25-1.37-.48-2.06-.71-1.36-.44-2.73-.85-4.11-1.21A54,54,0,0,0,418.2,337a.68.68,0,0,1-.67-.64l-.09-1.35c0-.44-.29-1.49.2-1.77a1.43,1.43,0,0,1,.68-.13c.37,0,.77.07,1.05.08h.36l-1.29-40L410,291.28m127.68-5.54-.14.08v2.26l-18.24,10.3a9.67,9.67,0,0,1,1.84,6v.12l-2,48.43c.61.2,1.22.42,1.83.64a.72.72,0,0,1,.47.64c0,.85.07,1.69.1,2.54,0,.4.15.94-.35,1.1a.57.57,0,0,1-.22,0,3.22,3.22,0,0,1-1-.32c-.69-.24-1.38-.48-2.07-.7-1.35-.44-2.72-.85-4.1-1.21a53.41,53.41,0,0,0-12.19-1.78.69.69,0,0,1-.67-.64c0-.45-.05-.9-.08-1.35s-.29-1.49.2-1.77a1.41,1.41,0,0,1,.67-.13c.38,0,.78.06,1.06.07l.35,0-1.34-41.8-4.34,2.46-.37-.09.17.15-.6-.14,1.71,50.92,41.37,10.06,1.08-.88c-.3-7.07-1.89-45.35-3.15-85m-.14-4.51V284l.09,0-.09-2.71M522.8,230.15l0,.1.11-.05-.06,0"/>
          <path class="cls-36" d="M614.7,182.79,524,229.67c-.85-2,.37-3.08,1.63-4.65a6.87,6.87,0,0,0,1.61-5.58l-2.09,1.15a4.34,4.34,0,0,1-2.14.57h-.13a12.91,12.91,0,0,0,1.31,1.66c-.46.31-1,.64-1.48.94a6.31,6.31,0,0,0,1.09,2,13.13,13.13,0,0,0-1.72,1.44,4,4,0,0,0,1.57,1.75c-.22.43-.61.82-.86,1.24l.06,0,.58-.24,12.72-6.57L594.89,193l19.81-10.24"/>
          <path class="cls-37" d="M558.54,90.93H557.2l-3.08,1a4.53,4.53,0,0,1,1,.82l.36.36a2.1,2.1,0,0,1,.84,1.41,1.36,1.36,0,0,1-.36.9c10.61,32.24,53.62,77.75,54,78.2l.8.84-1.05.49L523,215.31l-.27-.34-.52,1.91c.33.47.66.79,1,1.26s.68,1.08.43,1.6l-.54.53-.69.27a5.13,5.13,0,0,1,.54.61H523a4.34,4.34,0,0,0,2.14-.57l2.09-1.15c18.47-10.06,75.27-37.68,86.38-43.07a1.4,1.4,0,0,0,.68-.68h0a1.4,1.4,0,0,0-.18-1.55L614,174c-33.64-31.54-56.33-79.71-56.33-79.71h0l1.45-.64h0a1.27,1.27,0,0,0,.51-1.36l-1.12-1.34"/>
          <path class="cls-28" d="M562.52,228.43l0-4.16,9.47-5.44,0,4.16-9.47,5.44M584.83,210l-35.71,19.42-.08,19.1,35.71-19.42.08-19.1m-37.47,41.33.1-22.9,39-21.24-.1,22.9-39,21.24m41.08-47.26-44.19,24,.63,27.23,44.19-24-.63-27.24"/>
          <path class="cls-31" d="M549,248.51l.08-19.1L584.83,210l-.08,19.1L549,248.51m37.47-41.33-39,21.24-.1,22.9,39-21.24.1-22.9"/>
          <polyline class="cls-38" points="572.01 218.84 562.54 224.27 562.52 228.43 571.99 222.99 572.01 218.84"/>
          <polyline class="cls-39" points="586.65 247.87 545.47 270.06 545.7 293.79 586.94 271.35 586.65 247.87"/>
          <path class="cls-28" d="M564.44,314.47l0-4.16,9.46-6.89,0,4.16-9.46,6.89m22.28-21-35.67,24.93L551,336.56l35.68-24.93.07-18.19M549.3,339.77l.09-22.27,39-27.26-.09,22.27-39,27.26m41-53.66L546.19,317l.63,27.14L591,313.25l-.63-27.14"/>
          <path class="cls-31" d="M551,336.56l.08-18.19,35.67-24.93-.07,18.19L551,336.56m37.43-46.32-39,27.26-.09,22.27,39-27.26.09-22.27"/>
          <polyline class="cls-38" points="573.92 303.42 564.46 310.31 564.44 314.47 573.9 307.58 573.92 303.42"/>
          <path class="cls-28" d="M473.4,305.43,473,332.24a2.54,2.54,0,0,1,1.1-2,1.83,1.83,0,0,1,1-.29,2.12,2.12,0,0,1,1.21.39A1.57,1.57,0,0,1,477,332l-1.09-.23-.26-.5a1.11,1.11,0,0,0-.6-.18.73.73,0,0,0-.39.1,1.9,1.9,0,0,0-.48,2.11,7.23,7.23,0,0,0,1.05,1.86l.43.63a12.56,12.56,0,0,1,1.62,3.58,1.38,1.38,0,0,1-.1,1.17,1.26,1.26,0,0,1-.93.5l-.36,0a3,3,0,0,1-2.28-1l.84-.72a2,2,0,0,0,1.45.65h.21l.16,0-.06-.24a11.7,11.7,0,0,0-1.48-3.26l-.41-.6a8.39,8.39,0,0,1-1.2-2.16,3.41,3.41,0,0,1-.16-.92l-.29,17.5,8.69,2.07,2.4-34.51s0,.06,0,.09c.22-3.66.42-7,.61-10l-11-2.46m-4.06,33.05h.2l.16,0-.07-.23a11.26,11.26,0,0,0-1.47-3.28l-.41-.6a8.2,8.2,0,0,1-1.2-2.15,2.94,2.94,0,0,1,.94-3.39,1.89,1.89,0,0,1,1-.27,2.07,2.07,0,0,1,1.22.38,1.57,1.57,0,0,1,.73,1.64l-1.09-.23-.26-.5a1.12,1.12,0,0,0-.6-.19.69.69,0,0,0-.39.11,1.87,1.87,0,0,0-.48,2.11,7.05,7.05,0,0,0,1.05,1.85l.43.64a12.42,12.42,0,0,1,1.61,3.58,1.35,1.35,0,0,1-.09,1.16,1.29,1.29,0,0,1-.93.51l-.36,0a3,3,0,0,1-2.29-1l.85-.72a1.91,1.91,0,0,0,1.46.66m-6.22-35.35L463.2,348l-.15,0h0l.15,0,8.36,2,.74-44.78-9.18-2.06"/>
          <path d="M472.3,305.19,471.56,350v.46l1.11,0v-.22l.29-17.5a4,4,0,0,1,0-.49l.44-26.81-1.1-.24"/>
          <path class="cls-38" d="M468.48,328.51a1.89,1.89,0,0,0-1,.27,2.94,2.94,0,0,0-.94,3.39,8.2,8.2,0,0,0,1.2,2.15l.41.6a11.26,11.26,0,0,1,1.47,3.28l.07.23-.16,0h-.2a1.91,1.91,0,0,1-1.46-.66l-.85.72a3,3,0,0,0,2.29,1l.36,0a1.29,1.29,0,0,0,.93-.51,1.35,1.35,0,0,0,.09-1.16,12.42,12.42,0,0,0-1.61-3.58l-.43-.64a7.05,7.05,0,0,1-1.05-1.85,1.87,1.87,0,0,1,.48-2.11.69.69,0,0,1,.39-.11,1.12,1.12,0,0,1,.6.19l.26.5,1.09.23a1.57,1.57,0,0,0-.73-1.64,2.07,2.07,0,0,0-1.22-.38"/>
          <path class="cls-38" d="M475.06,330a1.83,1.83,0,0,0-1,.29,2.54,2.54,0,0,0-1.1,2,4,4,0,0,0,0,.49,3.41,3.41,0,0,0,.16.92,8.39,8.39,0,0,0,1.2,2.16l.41.6a11.7,11.7,0,0,1,1.48,3.26l.06.24-.16,0h-.21a2,2,0,0,1-1.45-.65l-.84.72a3,3,0,0,0,2.28,1l.36,0a1.26,1.26,0,0,0,.93-.5,1.38,1.38,0,0,0,.1-1.17,12.56,12.56,0,0,0-1.62-3.58l-.43-.63a7.23,7.23,0,0,1-1.05-1.86,1.9,1.9,0,0,1,.48-2.11.73.73,0,0,1,.39-.1,1.11,1.11,0,0,1,.6.18l.26.5L477,332a1.57,1.57,0,0,0-.73-1.64,2.12,2.12,0,0,0-1.21-.39"/>
          <path class="cls-40" d="M521.11,304.36v.12l-.19,4.63-.07,1.67-.52,12.82h0l-.07,1.63h0l-.53,12.91h0l-.07,1.65h0l-.4,9.95c-2.09-.4-4.19-.79-6.28-1.16v.76a.83.83,0,0,1-.83.82h0a.83.83,0,0,1-.82-.84v-1q-2.58-.45-5.17-.87l-.33-10.22-1.61-.3a.83.83,0,0,1-.66-1,.85.85,0,0,1,.84-.68h.13l1.25.24-.42-12.94-1.93-.36a.83.83,0,0,1,.13-1.65.52.52,0,0,1,.17,0l1.58.29L504.89,308l-1.36-.23a.85.85,0,0,1-.48-.27l-1.27.72,1.34,41.8,1.44.07c1.14.06,2.29.16,3.43.28a54.43,54.43,0,0,1,11.14,2.5l2-48.43v-.12"/>
          <path class="cls-30" d="M518,339.51q-.18,2.63-.42,5.25a4,4,0,0,1-.19,1,2.66,2.66,0,0,1-1.09,1.21,5.87,5.87,0,0,1-3.22.9H513v.74c2.09.37,4.19.76,6.28,1.16l.4-9.95h-.2l-1.43-.27m-12.21-2.32.33,10.22q2.6.42,5.17.87v-.68a5.22,5.22,0,0,1-2-1.07c-1.91-1.68-1.41-4.86-1.57-7.22,0-.59-.07-1.18-.11-1.78l-1.79-.34M518.5,325c0,4.29-.1,8.59-.36,12.87l1.59.31.53-12.91H520L518.5,325m-13.15-2.41.42,12.94,1.75.33a75.26,75.26,0,0,1,.23-12.83l-2.4-.44m8-13.05,0,2.44a4.69,4.69,0,0,1,1-.12,3.32,3.32,0,0,1,1.65.42c1.95,1.08,2.3,3.68,2.38,5.91.07,1.7.11,3.41.13,5.11l1.78.33h.07l.52-12.82h-.08l-7.4-1.27M504.89,308l.41,12.81,2.68.49q.22-1.48.57-2.94a10.55,10.55,0,0,1,2.33-5,5.09,5.09,0,0,1,.79-.67l0-3.48L504.89,308m6.88-5.42-6.67,3.77,6.62,1.14,0-4.91m7.5-4.24-5.82,3.29-.06,6.14,7.53,1.3.19-4.63v-.12a9.67,9.67,0,0,0-1.84-6"/>
          <path class="cls-31" d="M511.32,347.6v1.72a.83.83,0,0,0,.82.84h0a.83.83,0,0,0,.83-.82v-1.5a6.67,6.67,0,0,1-1.67-.24m.39-38.39,0,3.48a5,5,0,0,1,1.67-.75l0-2.44-1.66-.29m1.74-7.54-1.68.95,0,4.91,1.67.28.06-6.14"/>
          <path class="cls-31" d="M518.14,337.83c0,.56-.07,1.12-.11,1.68l1.43.27h.2l.07-1.65h0l-1.59-.31m-13.75-2.59a.85.85,0,0,0-.84.68.83.83,0,0,0,.66,1l1.61.3,1.79.34-.09-1.71-1.75-.33-1.25-.24h-.13"/>
          <path class="cls-31" d="M518.48,323.26c0,.57,0,1.13,0,1.7l1.46.27h.3l.07-1.63h-.07l-1.78-.33m-14.93-2.72a.83.83,0,0,0-.13,1.65l1.93.36,2.4.44c.07-.55.14-1.1.23-1.65l-2.68-.49-1.58-.29a.52.52,0,0,0-.17,0"/>
          <path class="cls-31" d="M505.1,306.39l-2.05,1.15a.85.85,0,0,0,.48.27l1.36.23,6.82,1.17,1.66.29,7.4,1.27h.08l.07-1.67-7.53-1.3-1.67-.28-6.62-1.14"/>
          <path class="cls-40" d="M418.44,293.16l1.29,40,1.43.07c1.15.07,2.29.16,3.44.29A54.32,54.32,0,0,1,435.73,336l1.58-38.66h0l-.38,9.36h0l-.07,1.63h0l-.53,12.91h0l-.07,1.65h0l-.41,9.95q-3.14-.6-6.28-1.16v.76a.83.83,0,0,1-.84.82h0a.84.84,0,0,1-.83-.84v-1q-2.58-.45-5.16-.87l-.33-10.22-1.62-.31a.83.83,0,0,1-.66-1,.86.86,0,0,1,.85-.68h.12l1.25.24L422,305.67l-1.94-.35a.84.84,0,0,1,.13-1.66l.17,0,1.58.29-.32-10.11-3.14-.7"/>
          <path class="cls-30" d="M434.32,322.57c-.11,1.57-.24,3.13-.39,4.7a3.55,3.55,0,0,1-.19,1,2.66,2.66,0,0,1-1.09,1.21,5.81,5.81,0,0,1-3,.9l0,1.35q3.15.56,6.28,1.16l.41-9.95h-.2l-1.75-.33m-11.89-2.25.33,10.22q2.58.42,5.16.87v-1.23a5.34,5.34,0,0,1-2.31-1.14c-1.91-1.68-1.42-4.86-1.57-7.23,0-.4-.05-.8-.08-1.2l-1.54-.29M434.83,308q0,6.44-.4,12.87l1.9.36.53-12.91h-.29l-1.74-.32M422,305.67l.41,12.94,1.5.28a79.75,79.75,0,0,1,.14-12.84l-2.05-.38m12-9.06a11,11,0,0,1,.75,4.05c.07,1.89.12,3.78.14,5.68l2.05.37h.06l.38-9.36-3.38-.75m-12.35-2.75L421.9,304l2.32.43c.17-1.17.39-2.34.66-3.49a10.58,10.58,0,0,1,2.32-5,5,5,0,0,1,.7-.6l-6.32-1.41"/>
          <path class="cls-31" d="M427.93,330.18v2.26a.84.84,0,0,0,.83.84h0a.83.83,0,0,0,.84-.82v-.76l0-1.35h-.17a6.33,6.33,0,0,1-1.5-.17"/>
          <path class="cls-31" d="M434.43,320.9c0,.55-.07,1.11-.11,1.67l1.75.33h.2l.07-1.65h0l-1.9-.36M421,318.36a.86.86,0,0,0-.85.68.83.83,0,0,0,.66,1l1.62.31,1.54.29c0-.57-.07-1.14-.1-1.72l-1.5-.28-1.25-.24H421"/>
          <path class="cls-31" d="M434.82,306.34c0,.56,0,1.12,0,1.69l1.74.32h.29l.07-1.63h-.06l-2.05-.37m-14.67-2.68a.84.84,0,0,0-.13,1.66l1.94.35,2.05.38q.09-.82.21-1.65L421.9,304l-1.58-.29-.17,0"/>
          <path class="cls-41" d="M511.42,338.25l-.1,9.35a6.67,6.67,0,0,0,1.67.24l.09-9.27-1.66-.32m.14-14.56-.13,12.87,1.67.32.12-12.89-1.66-.3m1.78-11.75a5,5,0,0,0-1.67.75l-.09,9.31,1.66.3.1-10.36"/>
          <path class="cls-41" d="M507.52,335.82l.09,1.71,3.81.72,1.66.32,4.95.94c0-.56.08-1.12.11-1.68l-5-.95-1.67-.32-3.91-.74"/>
          <path class="cls-41" d="M508,321.34c-.09.55-.16,1.1-.23,1.65l3.81.7,1.66.3,5.28,1c0-.57,0-1.13,0-1.7l-5.24-1-1.66-.3-3.6-.66"/>
          <path class="cls-41" d="M428,321.38l-.09,8.8a6.33,6.33,0,0,0,1.5.17h.17l.08-8.66-1.66-.31m.15-14.57L428,319.68l1.66.32.13-12.89-1.66-.3m.11-11.46-.1,9.77,1.67.31.09-9.71-1.66-.37"/>
          <path class="cls-41" d="M423.87,318.89c0,.58.07,1.15.1,1.72l4,.77,1.66.31,4.64.88c0-.56.08-1.12.11-1.67l-4.73-.9-1.66-.32-4.17-.79"/>
          <path class="cls-41" d="M424.22,304.4q-.12.83-.21,1.65l4.16.76,1.66.3,5,.92c0-.57,0-1.13,0-1.69l-5-.91-1.67-.31-4-.72"/>
          <path class="cls-42" d="M501.29,385.39a3.06,3.06,0,0,1-.24,1.51c-.72,1.71-2.9,3-5.78,3.59l.22.17L495,397.1l3.1-.53c2.06-.77,3.57-1.91,4.17-3.33l-.72-7.78-.29-.07"/>
          <path class="cls-36" d="M499,382l.12,3.69c-.08,1.66-3,2.66-6.24,3l2.35,1.81c2.88-.61,5.06-1.88,5.78-3.59a3.06,3.06,0,0,0,.24-1.51A5.18,5.18,0,0,0,499,382"/>
          <path class="cls-42" d="M490.52,309.27l-.39,12.33a3.14,3.14,0,0,0,1.9.69,2.59,2.59,0,0,0,.48,0v66.11l.42.32c3.24-.3,6.16-1.3,6.24-3L499,382l-.69-20.47-1.71-50.92-1.08-.24,1.67,74.85a.84.84,0,0,1-.82.85h0a.83.83,0,0,1-.83-.81L493.89,310l-3.37-.75m-3.93-.88-.64,11h.11a1.24,1.24,0,0,0,1.06,1.12,1.5,1.5,0,0,0,.37,0,1.71,1.71,0,0,0,1-.34l.36-11.31-2.28-.51m-2.2-.5c-.19,2.95-.39,6.33-.61,10a1.77,1.77,0,0,0,.54,1L485,308l-.56-.13"/>
          <path class="cls-31" d="M493.89,310l1.67,75.27a.83.83,0,0,0,.83.81h0a.84.84,0,0,0,.82-.85l-1.67-74.85-1.67-.38"/>
          <path class="cls-31" d="M488.87,308.9l-.36,11.31a1.48,1.48,0,0,0,.33-.33,3.91,3.91,0,0,0,1.29,1.72l.39-12.33-1.65-.37"/>
          <path class="cls-31" d="M485,308l-.63,10.82a2.22,2.22,0,0,0,1.5.57H486l.64-11L485,308"/>
          <path class="cls-42" d="M411.92,358.44a3.07,3.07,0,0,1-.23,1.51c-.75,1.76-3.06,3.05-6.08,3.64V370a11.93,11.93,0,0,0,3.38-.45,8.1,8.1,0,0,0,3.18-2.07,4.27,4.27,0,0,0,.76-1.17l-.71-7.78-.3-.06"/>
          <path class="cls-36" d="M409.67,355.07l.13,3.69c-.08,1.6-2.77,2.58-5.86,2.92l1.67,1.85v.06c3-.59,5.33-1.88,6.08-3.64a3.07,3.07,0,0,0,.23-1.51,5.16,5.16,0,0,0-2.25-3.37"/>
          <path class="cls-42" d="M400.93,289.28l-.45,14.37a3.2,3.2,0,0,0,1.5.37h.71a1.4,1.4,0,0,1,1.18.41l-.33,56.82.4.44c3.09-.34,5.78-1.32,5.86-2.92l-.13-3.69-.42-12.46h0l-1.74-51.88-1.16-.26,1.51,67.82a.83.83,0,0,1-.81.85h0a.83.83,0,0,1-.83-.81l-1.52-68.23-3.75-.82m-4.11-.9-.4,6.91a4.88,4.88,0,0,1,.86.77c.67.87.51,2.08.57,3.17a5.8,5.8,0,0,0,1,2.95l.42-13.27-2.46-.53m-2.23-.47c0,.8-.09,1.61-.14,2.43,0,.43-.05.87-.08,1.31a8,8,0,0,0,.5,1.62l.31-5.24-.59-.12"/>
          <path class="cls-31" d="M404.68,290.1l1.52,68.23a.83.83,0,0,0,.83.81h0a.83.83,0,0,0,.81-.85l-1.51-67.82-1.67-.37"/>
          <path class="cls-31" d="M399.28,288.91l-.42,13.27a4.46,4.46,0,0,0,1.62,1.47l.45-14.37-1.65-.37"/>
          <path class="cls-31" d="M395.18,288l-.31,5.24a5.24,5.24,0,0,0,1.43,1.93l.12.09.4-6.91-1.64-.35"/>
          <path class="cls-42" d="M537.51,285.82l-39.67,20.67-.29-.06-1.46-.3a5.93,5.93,0,0,0-.3,1.52,3.76,3.76,0,0,0,1.28,3l.37.09,4.34-2.46,1.27-.72,2.05-1.15,6.67-3.77,1.68-.95,5.82-3.29,18.24-10.3v-2.26m0-4.94L497.56,301.7l-.3-.06-.71-.15a2.74,2.74,0,0,0,.81,2.93l-.3.21.54.11L537.37,284a.42.42,0,0,1,.14-.06v-3.08m0-4-41.23,19.94a2,2,0,0,0-.63,2.13,2.08,2.08,0,0,0,.62.76l1.05.22,39.77-20.73a.85.85,0,0,1,.38-.09h0V276.9"/>
          <path class="cls-37" d="M513.74,203.19l3.63,5.87a3.12,3.12,0,0,0,1.81,1.35q-2.76-3.63-5.44-7.22m-53.93-81.1-3.22,1,1.13,3.57,3.58-1.15,0-.21c.11-1.1.14-2.43-.61-2.94a2.64,2.64,0,0,0-.9-.3m4.87-1.56-2.61.84A4.6,4.6,0,0,1,463,125l2.32-.74a.8.8,0,0,1,.12-.7,2.07,2.07,0,0,0-.1-2.28,3.47,3.47,0,0,0-.68-.75m75.79-14h0l.61,1.1-.61-1.1m-4.81-8.75L466.39,120a3.25,3.25,0,0,1,.31.42,3.83,3.83,0,0,1,.48,3.26l70.36-22.42-1.88-3.43M557,152.33h0l0-.34v-.08l0-.17,0,0,.06-.06.24-.26.26-.23.06-.05.58-.38.6-.31.81-.33,12.78-4.65a2.84,2.84,0,0,1,1-.18,2.91,2.91,0,0,1,2.48,1.39l15.35,25.16A2.91,2.91,0,0,1,590,176l-14,6.18a3,3,0,0,1-1.17.24,2.89,2.89,0,0,1-2.53-1.48l-15-26.72-.17-.72,0-.22h0l0-.46v-.45M554.8,97.06l-4.18,15.34a73.23,73.23,0,0,1,.49,10.54,1.1,1.1,0,0,1-.42.88,1.2,1.2,0,0,1-.75.26h0a1.15,1.15,0,0,1-1-.54l-8.4-12.88h0L548,122,544.47,135l7.59,13.3,0,.74v0h0l-.06.29-.13.54c0,.07-.15.37-.15.39h0l.06-.12h0a.38.38,0,0,1-.06.12l-.18.36-.29.46h0l0,0-.2.22-.39.36-4.68,1.9h0l-12.76,5.16a4.27,4.27,0,0,1-1.55.3,4.13,4.13,0,0,1-3.67-2.21l-10.8-20.55a3.39,3.39,0,0,1-.18-.39l-.33.12a3.91,3.91,0,0,0-.59.26L527.45,158a2.55,2.55,0,0,1-1.3,3.56L525,162l.2.39a3.9,3.9,0,0,0,.85,1.11l1.08-.44a3,3,0,0,1,1.16-.23,3.11,3.11,0,0,1,2.53,1.31l1-.4a2.78,2.78,0,0,1,1.67-3.19l18.6-7.52a2.86,2.86,0,0,1,1-.2h0a2.78,2.78,0,0,1,2.42,1.42h0l15,26.76a2.69,2.69,0,0,1,.35,1.37,2.76,2.76,0,0,1-1.65,2.52l-19.1,8.39h0l0,0-.07,0h0l-.09,0a2.53,2.53,0,0,1-.85.14H549a2.75,2.75,0,0,1-2.31-1.36l0,0a.43.43,0,0,1,0-.07l-14.05-26.69-.9.36,7.76,14.74h0l5.92,11.25h0a3.08,3.08,0,0,1-1.48,4.27L524,204.7a3.06,3.06,0,0,1-3.87-1.2L503.72,177l-1.57.64a3.09,3.09,0,0,0-1.47,4.49l1.5,2.43c5.84,8.18,12.2,16.85,19,25.76l.06,0,3.1-1.36L523.23,213l.22.29L608,173.91c-5.88-6.33-42.77-46.81-53.24-76.85m-2.69-4.5-2,.64c1.34.88,1.11,2.56,1,3.14a.69.69,0,0,1-.69.59h-.09a.71.71,0,0,1-.6-.79c.18-1.24-.1-1.65-.57-1.87a4.42,4.42,0,0,0-1.35-.28l-.13,0-8,2.56,1.89,3.43,12.81-4.08a.83.83,0,0,1,.3-.93.66.66,0,0,1,.2-.42l-.37-.44-.42-.42a4.42,4.42,0,0,0-2-1.11"/>
          <path class="cls-43" d="M458.06,351.06l-.74.09-10.07,5.27a1,1,0,0,0,.19,1.92L471,365a1,1,0,0,0,.29,0,1.06,1.06,0,0,0,.73-.3l6.77-6.77a1,1,0,0,0-.48-1.74l-20.27-5.21"/>
          <path class="cls-31" d="M537.47,279.13a.85.85,0,0,0-.38.09L497.32,300l-1.05-.22a2,2,0,0,0,1.15.38h.14a2.58,2.58,0,0,0-1,1.38l.71.15.3.06,39.95-20.82.35-.18a.83.83,0,0,0-.35-1.57h0"/>
          <path class="cls-31" d="M537.76,283.92l-.16,0-.09,0a.42.42,0,0,0-.14.06L497.6,304.74l-.54-.11a3.52,3.52,0,0,0-1,1.5l1.46.3.29.06,39.67-20.67.14-.08.49-.25a.82.82,0,0,0,.35-1.12.83.83,0,0,0-.73-.45"/>
          <path class="cls-38" d="M502.18,184.53l11.56,18.66q2.67,3.59,5.44,7.22a3.24,3.24,0,0,0,.82.11,3,3,0,0,0,1.18-.23c-6.8-8.91-13.16-17.58-19-25.76m-40.11-63.16-2.26.72a2.64,2.64,0,0,1,.9.3c.75.51.72,1.84.61,2.94l0,.21L463,125a4.6,4.6,0,0,0-.95-3.63M556,95.4l-.11.12-.49.2-.21-.08-.38,1.42c10.47,30,47.36,70.52,53.24,76.85l-84.59,39.34-.22-.29-.55,2,.27.34,86.84-40.38,1.05-.49-.8-.84c-.43-.45-43.44-46-54-78.2M554.7,95a.83.83,0,0,0-.3.93l.77-.25-.27-.11a.7.7,0,0,1-.2-.57"/>
          <path class="cls-38" d="M466.39,120l-1.71.54a3.47,3.47,0,0,1,.68.75,2.07,2.07,0,0,1,.1,2.28.8.8,0,0,0-.12.7l1.84-.59a3.83,3.83,0,0,0-.48-3.26,3.25,3.25,0,0,0-.31-.42"/>
          <path class="cls-38" d="M550.1,93.2l-2.41.77.13,0a4.42,4.42,0,0,1,1.35.28c.47.22.75.63.57,1.87a.71.71,0,0,0,.6.79h.09a.69.69,0,0,0,.69-.59c.09-.58.32-2.26-1-3.14"/>
          <path class="cls-38" d="M554.12,91.91l-2,.65a4.42,4.42,0,0,1,2,1.11l.42.42.37.44a.66.66,0,0,0-.2.42.7.7,0,0,0,.2.57l.27.11h0v0l.21.08.49-.2.11-.12a1.36,1.36,0,0,0,.36-.9,2.1,2.1,0,0,0-.84-1.41l-.36-.36a4.53,4.53,0,0,0-1-.82"/>
          <path class="cls-34" d="M377.46,211.46h0"/>
          <path class="cls-44" d="M448.38,124c-13.64,18.56-53.36,72.68-70.87,87.52l10.59-5,.78-.25-1.71-1.38q33.34-40.25,62.63-80.27l-.71-.42a5.88,5.88,0,0,1-.71-.23"/>
          <path class="cls-36" d="M449.8,124.6q-29.19,40-62.63,80.27l1.35,1.08,62.39-80.71h0l-1.11-.64"/>
          <path class="cls-37" d="M448.15,123.86l-71.33,87.38a6.19,6.19,0,0,0,.64.22h.05c17.51-14.84,57.23-69,70.87-87.52a1.09,1.09,0,0,1-.23-.09"/>
          <polyline class="cls-36" points="450.91 125.24 450.91 125.24 450.91 125.24 450.91 125.24 450.91 125.24"/>
          <path class="cls-37" d="M448.28,123.71l-.13.15a1.09,1.09,0,0,0,.23.09,5.88,5.88,0,0,0,.71.23l-.81-.47"/>
          <path class="cls-34" d="M393.15,216.62h0m0,0h0m10.38-9.19h0c.6,3.1,1.17,7.31,1.72,12.32h0c-.55-5-1.13-9.21-1.73-12.31"/>
          <path class="cls-36" d="M451.48,126.46l-7.14,10.46a1,1,0,0,1-.19.53l-2,2.67-1.4,2c2.08-2.64,4.16-5.29,6.14-8,1.66-2.3,3.32-4.68,4.84-7.16-.1-.19-.18-.36-.26-.52"/>
          <path class="cls-12" d="M453.65,130.77l-50.52,74.8c.14.57.27,1.19.4,1.86.6,3.1,1.18,7.3,1.73,12.31,14.35-21.31,53.67-79,53.67-79l-5.28-9.94"/>
          <path class="cls-36" d="M451.54,126.37l-.06.09c.08.16.16.33.26.52.42.85,1,2,1.72,3.41l-1.92-4"/>
          <path class="cls-34" d="M444.34,136.92l-2.18,3.2,2-2.67a1,1,0,0,0,.19-.53"/>
          <path class="cls-34" d="M389.85,215.39h0"/>
          <polyline class="cls-12" points="461.37 227.98 461.37 259.21 412.59 252.6 412.57 252.09 412.27 252.05 413.65 254.58 464.45 261.25 463.31 229.06 461.37 227.98"/>
          <polyline class="cls-28" points="461 227.77 461.05 258.66 412.57 252.09 412.59 252.6 461.37 259.21 461.37 227.98 461 227.77"/>
          <path class="cls-37" d="M485.32,147.21l-2.11.76a2.55,2.55,0,0,0-1.31,3.75l14.79,23.89a2.56,2.56,0,0,0,2.18,1.21,2.72,2.72,0,0,0,1-.18l3.19-1.3a3.1,3.1,0,0,1,1.9-3.28L524.86,164a3,3,0,0,0-.18-.45l-.61-1.15-21.47,8.71a2.49,2.49,0,0,1-1,.19,2.56,2.56,0,0,1-2.17-1.21l-14.15-22.85"/>
          <path class="cls-45" d="M569.25,184.9l-19.1,8.39a2.77,2.77,0,0,1-3.56-1.25L532,164.4a2.77,2.77,0,0,1,1.42-3.85l18.6-7.52a2.77,2.77,0,0,1,3.45,1.22l15,26.76a2.77,2.77,0,0,1-1.3,3.89"/>
          <path class="cls-46" d="M535.39,161.92l16.47-6.65a1.91,1.91,0,0,1,2.4.84l13.92,24.76a1.92,1.92,0,0,1-.9,2.71L550.34,191a1.94,1.94,0,0,1-2.48-.87l-13.45-25.55a1.93,1.93,0,0,1,1-2.69"/>
          <path class="cls-45" d="M551,151.34l.2-.22,0,0h0l.29-.46.24-.48c-.16.35.06-.17.09-.27l.13-.54.06-.29h0v0l0-.74-9.34-16.37a4.27,4.27,0,0,0-1.21-1.33l-5.79-4.08a4.14,4.14,0,0,0-3.78-.52l-12.52,4.5a4.13,4.13,0,0,0-2.27,5.82L528,156.84a4.14,4.14,0,0,0,5.22,1.91l17.44-7.05.39-.36"/>
          <path class="cls-46" d="M519.86,132.43l12.86-4.61a1.93,1.93,0,0,1,1.76.23l5.92,4.18.56.62,8.46,14.82a1.92,1.92,0,0,1-1,2.74L532.24,157a1.93,1.93,0,0,1-2.43-.89l-11-20.94a1.92,1.92,0,0,1,1.06-2.71"/>
          <path class="cls-45" d="M526.15,161.52l-23.55,9.56a2.55,2.55,0,0,1-3.13-1l-14.79-23.89a2.55,2.55,0,0,1,1.31-3.75l25.92-9.29a2.56,2.56,0,0,1,3.13,1.22L527.45,158a2.55,2.55,0,0,1-1.3,3.56"/>
          <path class="cls-46" d="M488.25,143.72l23.22-8.31a1.92,1.92,0,0,1,2.35.92L525,157.56a1.92,1.92,0,0,1-1,2.68l-21.08,8.56a1.93,1.93,0,0,1-2.36-.78l-13.29-21.46a1.94,1.94,0,0,1,1-2.84"/>
          <path class="cls-45" d="M543.84,196,524,204.7a3.08,3.08,0,0,1-3.87-1.2l-16.69-26.95a3.09,3.09,0,0,1,1.46-4.49l22.18-9a3.09,3.09,0,0,1,3.9,1.42l14.32,27.22a3.08,3.08,0,0,1-1.48,4.27"/>
          <polyline class="cls-46" points="504.47 174.4 528.77 164.53 544.1 193.67 522.35 203.26 504.47 174.4"/>
          <path class="cls-45" d="M591.34,171.8,576,146.64a2.89,2.89,0,0,0-3.47-1.21l-12.78,4.65-.81.33-.6.31-.58.38-.06.05-.26.23-.24.26-.06.06,0,0,0,.17V152l0,.34v.45l0,.46h0l0,.22.17.72,15,26.72a2.91,2.91,0,0,0,3.7,1.24L590,176a2.91,2.91,0,0,0,1.32-4.17"/>
          <path class="cls-46" d="M558.71,152.66l1.78-.73,11.92-4.34a1.92,1.92,0,0,1,2.31.81L589,171.84a1.93,1.93,0,0,1-.87,2.77L576,180a2,2,0,0,1-2.46-.82l-14.87-26.47"/>
          <path class="cls-47" d="M527.24,184.88l-.64.28,7.21,12.43.6-.34-7.17-12.37M518.05,169l-.6.35,8.8,15.17.64-.28L518.05,169"/>
          <path class="cls-47" d="M509.14,153.67l-.66.24c2,3.38,3.95,6.75,5.86,10l.6-.35c-1.89-3.24-3.84-6.58-5.8-9.92m-8.23-14.08-.6.35c2.29,3.94,4.68,8,7.07,12.09l.74,1.27.66-.24-.81-1.38c-2.38-4.07-4.77-8.15-7.06-12.09"/>
          <path class="cls-47" d="M535.27,143.41,525.55,147l.24.65,9.83-3.59-.35-.61m9.17-3.35-8.51,3.11.35.61,8.4-3.07-.24-.65"/>
          <path class="cls-47" d="M508.12,153.3l-13.24,4.84.24.65,13.36-4.88-.36-.61m12-4.38-11.33,4.14.36.61,11.2-4.1-.23-.65"/>
          <path class="cls-48" d="M508.78,153.06l-.66.24.36.61.66-.24-.36-.61"/>
          <polyline class="cls-49" points="514.09 189.92 514.3 190.41 514.37 190.38 514.09 189.92"/>
          <path class="cls-47" d="M526.25,184.55,514,189.77l.07.15.28.46,12.23-5.22-.35-.61M536.78,180l-9.89,4.23.35.61,9.82-4.2-.28-.64"/>
          <polyline class="cls-48" points="526.89 184.28 526.25 184.55 526.6 185.16 527.24 184.88 526.89 184.28"/>
          <path class="cls-49" d="M544.07,158.29l-.61.33,0,0,.65-.26-.06-.1"/>
          <path class="cls-47" d="M544.13,158.39l-.65.26c.27.49.54,1,.82,1.48l.24-1-.41-.75"/>
          <path class="cls-47" d="M536.28,143.78l-.66.24c1.76,3.13,3.54,6.3,5.2,9.32l.61-.34c-1.64-3-3.4-6.12-5.15-9.22m-7.94-14.16-.61.34c2.09,3.79,4.37,7.83,6.57,11.73l1,1.72.66-.24-1-1.82c-2.21-3.9-4.48-7.94-6.57-11.73"/>
          <path class="cls-48" d="M535.93,143.17l-.66.24.35.61.66-.24-.35-.61"/>
          <path class="cls-50" d="M549,193.52h0m.94-.14a2.53,2.53,0,0,1-.85.14,2.53,2.53,0,0,0,.85-.14m.12,0h0m.12-.05,0,0,0,0m-3.52-1.18,0,0,0,0m6.46-39.28a2.86,2.86,0,0,0-1,.2h0a2.86,2.86,0,0,1,1-.2h0"/>
          <path class="cls-51" d="M553.09,152.83a2.86,2.86,0,0,0-1,.2h0l-6.67,2.7c-.2.8-.4,1.59-.59,2.39l7.06-2.85a1.84,1.84,0,0,1,.72-.14,1.93,1.93,0,0,1,1.68,1l13.92,24.76a1.92,1.92,0,0,1-.9,2.71L550.34,191a1.93,1.93,0,0,1-2.48-.87l-7.42-14.1c-.24,1-.47,2-.7,3l6.85,13a.43.43,0,0,0,0,.07l0,0a2.75,2.75,0,0,0,2.31,1.36h.09a2.53,2.53,0,0,0,.85-.14l.09,0h0l.07,0,0,0h0l19.1-8.39a2.76,2.76,0,0,0,1.65-2.52,2.69,2.69,0,0,0-.35-1.37l-15-26.76h0a2.78,2.78,0,0,0-2.42-1.42"/>
          <path class="cls-52" d="M552.58,155.13a1.84,1.84,0,0,0-.72.14l-7.06,2.85c-.09.34-.17.68-.26,1,2.41,4.36,4.9,8.84,7.4,13.33l.53.95,8.83-3.77.27.64L552.81,174c2.38,4.26,4.74,8.51,7,12.63l-.61.33c-2.28-4.14-4.66-8.4-7-12.68l-9.87,4.22-.28-.64,9.81-4.19-.49-.89c-2.38-4.26-4.75-8.53-7-12.68q-2,8-3.86,15.93l7.42,14.1a1.93,1.93,0,0,0,2.48.87l16.94-7.45a1.92,1.92,0,0,0,.9-2.71l-13.92-24.76a1.93,1.93,0,0,0-1.68-1"/>
          <path class="cls-53" d="M551.83,173.7,542,177.89l.28.64,9.87-4.22c-.11-.21-.22-.41-.34-.61m9.47-4-8.83,3.77.34.61,8.76-3.74-.27-.64"/>
          <path class="cls-53" d="M552.81,174l-.64.28c2.38,4.28,4.76,8.54,7,12.68l.61-.33c-2.27-4.12-4.63-8.37-7-12.63m-8.27-14.89-.24,1c2.29,4.15,4.66,8.42,7,12.68l.49.89.64-.28-.53-.95c-2.5-4.49-5-9-7.4-13.33"/>
          <path class="cls-54" d="M552.47,173.42l-.64.28c.12.2.23.4.34.61l.64-.28-.34-.61"/>
          <polyline class="cls-50" points="550.61 151.7 545.93 153.59 545.93 153.6 550.61 151.7"/>
          <path class="cls-51" d="M548.79,142.54c-.24.91-.49,1.82-.74,2.73l1.37,2.4a1.92,1.92,0,0,1-1,2.74l-1.94.79c-.19.8-.39,1.6-.59,2.39l4.68-1.89.39-.36.2-.22,0,0h0l.29-.46.18-.36h0s.12-.32.15-.39l.13-.54.06-.29h0v0l0-.74-3.27-5.73"/>
          <path class="cls-52" d="M548.05,145.27c-.18.65-.36,1.3-.53,2-.34,1.32-.67,2.64-1,4l1.94-.79a1.92,1.92,0,0,0,1-2.74l-1.37-2.4"/>
          <path class="cls-51" d="M551.76,150.15l-.06.12a.38.38,0,0,0,.06-.12"/>
          <path class="cls-51" d="M539.4,180.45l-.69,3,5.39,10.25-8.66,3.82c-.19.81-.38,1.62-.56,2.43l9-3.95a3.08,3.08,0,0,0,1.48-4.27h0l-5.92-11.25"/>
          <path class="cls-52" d="M538.71,183.42c-1.1,4.68-2.19,9.38-3.27,14.07l8.66-3.82-5.39-10.25"/>
          <path class="cls-51" d="M568.23,149.11l4.18-1.52a1.92,1.92,0,0,1,2.31.81L589,171.84a1.93,1.93,0,0,1-.87,2.77L576,180a1.9,1.9,0,0,1-.77.16,1.94,1.94,0,0,1-1.69-1l-14.87-26.47,1.78-.73,7.6-2.77.13-.07v0m5.28-3.86a2.84,2.84,0,0,0-1,.18l-12.78,4.65-.81.33-.6.31-.58.38-.06.05-.26.23-.24.26-.06.06,0,0,0,.17V152l0,.34v.45l0,.46h0l0,.22.17.72,15,26.72a2.89,2.89,0,0,0,2.53,1.48,3,3,0,0,0,1.17-.24L590,176a2.91,2.91,0,0,0,1.32-4.17L576,146.64a2.91,2.91,0,0,0-2.48-1.39"/>
          <path class="cls-52" d="M573.07,147.47a1.92,1.92,0,0,0-.66.12l-4.18,1.52,7.92,14.38,6-2.54.27.64-5.9,2.52,6.85,12.42-.61.34-6.88-12.49-8.42,3.6-.28-.64,8.36-3.57-7.9-14.34.48-.27-7.6,2.77-1.78.73,14.87,26.47a1.94,1.94,0,0,0,1.69,1A1.9,1.9,0,0,0,576,180l12.11-5.34a1.93,1.93,0,0,0,.87-2.77l-14.3-23.44a1.93,1.93,0,0,0-1.65-.93"/>
          <path class="cls-53" d="M575.51,163.77l-8.36,3.57.28.64,8.42-3.6-.34-.61m6.61-2.82-6,2.54.34.62,5.9-2.52-.27-.64"/>
          <polyline class="cls-55" points="568.22 149.09 568.09 149.16 568.23 149.11 568.22 149.09"/>
          <path class="cls-53" d="M576.49,164.11l-.64.27,6.88,12.49.61-.34-6.85-12.42m-8.26-15-.14,0-.48.27,7.9,14.34.64-.28-7.92-14.38"/>
          <polyline class="cls-54" points="576.15 163.49 575.51 163.77 575.85 164.38 576.49 164.1 576.15 163.49"/>
          <path class="cls-56" d="M501.1,239.64l1,.15-.16,0-.82-.11"/>
          <path class="cls-57" d="M493.59,238.63a1,1,0,0,0-.15,1.93l8.21,1.11h.14a1,1,0,0,0,.29-1.89l-1-.15-7.39-1h-.12"/>
          <path class="cls-56" d="M434.53,230.1l3.1.47a1.1,1.1,0,0,0-.29-.09l-2.81-.38"/>
          <path class="cls-57" d="M429,229.36a1,1,0,0,0-1,.84,1,1,0,0,0,.83,1.09l8.21,1.12h.13a1,1,0,0,0,.42-1.85l-3.1-.47-5.4-.73H429"/>
          <path class="cls-58" d="M476.82,262.16h0a1,1,0,0,1-.94-1l.94-28.61a2.21,2.21,0,0,1,.74-1.57,2.29,2.29,0,0,1,1.64-.55l45.54,4.16a1,1,0,0,1,.88,1,1,1,0,0,1-1.06.88L479,232.36l-1.24.21,1,0-.94,28.61A1,1,0,0,1,476.82,262.16Z"/>
          <path class="cls-58" d="M412.66,252.45a1,1,0,0,1-1-.94l-1-28.62a2.26,2.26,0,0,1,.73-1.63,2.21,2.21,0,0,1,1.64-.55l47.54,5.68a1,1,0,0,1-.23,1.93l-47.5-5.68-1.21.22,1,0,1,28.62a1,1,0,0,1-.94,1Z"/>
          <path class="cls-13" d="M545.59,255.14a1,1,0,0,1-1-.94l-.81-25.52a2.73,2.73,0,0,1,1.45-2.5l42-22.38a1,1,0,0,1,1.32.4,1,1,0,0,1-.41,1.31l-42,22.38a.8.8,0,0,0-.42.73l.81,25.52a1,1,0,0,1-.94,1Z"/>
          <path class="cls-13" d="M547.27,344.63a1,1,0,0,1-1-.94l-.81-25.51a2.74,2.74,0,0,1,1.45-2.51L589.29,286a1,1,0,0,1,1.35.24,1,1,0,0,1-.24,1.35L548,317.33a.86.86,0,0,0-.52.79l.81,25.51a1,1,0,0,1-.94,1Z"/>
          <path class="cls-45" d="M545.85,114.11c-.73,0-2.37-4-2.75-4.65L529.17,84.22c-.55-1-.86-1.68.15-2.23a2.08,2.08,0,0,1,2.83.82L547.67,111a2.08,2.08,0,0,1-.81,2.83,2.17,2.17,0,0,1-1,.26"/>
          <path class="cls-33" d="M545.24,116.79a9.15,9.15,0,0,0,1.56,1.26,14.2,14.2,0,0,0,2.31,1.23h0l.15.06.29.11c.21.09.43.16.65.24l.07,0,.62-.09.2,0a44,44,0,0,0-1.34-11.26,2.89,2.89,0,0,0-2.72-2,7.11,7.11,0,0,0-4.73,2c0,.31.06.61.08.92a1,1,0,0,1,.2.43A21.79,21.79,0,0,0,545.24,116.79Z"/>
          <path class="cls-34" d="M528.49,84.79v0m0,0v0m0,0h0m0,0v0m0,0h0"/>
          <path class="cls-59" d="M529.09,82.19a2,2,0,0,0-.64,2.51h0v0h0v0h0v0h0l13.23,24a9.83,9.83,0,0,1,1.37-1.21l-.3.13c-1.35-2.6-2.56-5.3-3.94-7.91a85.36,85.36,0,0,0-4.49-8.25c-1.29-2.14-2.52-4.32-3.66-6.54l-1.62-2.87"/>
          <path class="cls-37" d="M540.49,110.38l0,.07h0l0-.07m0,0v0"/>
          <path class="cls-60" d="M550.69,123.82a1.2,1.2,0,0,1-.75.26h0a1.2,1.2,0,0,0,.75-.26"/>
          <path class="cls-35" d="M543.43,107.49l-.33.14a9.83,9.83,0,0,0-1.37,1.21v0a13.57,13.57,0,0,0-1.21,1.47v0l0,0,0,.07L549,123.54a1.15,1.15,0,0,0,1,.54,1.2,1.2,0,0,0,.75-.26,1.1,1.1,0,0,0,.42-.88c0-1.46,0-3.23-.05-5.08a3.49,3.49,0,0,1-1,.14,5.47,5.47,0,0,1-4.07-2.12,12.23,12.23,0,0,1-2.18-3.95,9.79,9.79,0,0,1-.44-2.28,13.33,13.33,0,0,0,.08-2.16"/>
          <path class="cls-61" d="M546.27,111.5l.55.17c.35-.06.48-.5.47-.87a3.7,3.7,0,0,0-1-2.4c-.5-.55-1.59-1.51-2.09-.44S545.42,111,546.27,111.5Z"/>
          <path class="cls-24" d="M471,364.65l-.25,0-23.11-6.27a1,1,0,0,1-.68-1.19,1,1,0,0,1,1.19-.68l23.11,6.26a1,1,0,0,1-.26,1.91Z"/>
        </g>
        <path class="cls-62" d="M513.08,338.57l-.09,9.27h.12a5.87,5.87,0,0,0,3.22-.9,2.66,2.66,0,0,0,1.09-1.21,4,4,0,0,0,.19-1q.24-2.62.42-5.25l-4.95-.94m-5.47-1c0,.6.08,1.19.11,1.78.16,2.36-.34,5.54,1.57,7.22a5.22,5.22,0,0,0,2,1.07l.1-9.35-3.81-.72M513.22,324l-.12,12.89,5,.95c.26-4.28.38-8.58.36-12.87l-5.28-1m-5.47-1a75.26,75.26,0,0,0-.23,12.83l3.91.74.13-12.87-3.81-.7m3.92-10.3a5.09,5.09,0,0,0-.79.67,10.55,10.55,0,0,0-2.33,5q-.35,1.46-.57,2.94l3.6.66.09-9.31m2.65-.87a4.69,4.69,0,0,0-1,.12l-.1,10.36,5.24,1c0-1.7-.06-3.41-.13-5.11-.08-2.23-.43-4.83-2.38-5.91a3.32,3.32,0,0,0-1.65-.42"/>
        <path class="cls-36" d="M448.65,125.29c.22.07,7.7,1.48,7.7,1.48l-.45-2.2L451,123l-3.55-.07Z"/>
        <path class="cls-37" d="M447.13,120.65c-.56-.19-1,.77-1.06,1.36a2,2,0,0,0,1,1.76,36,36,0,0,0,5.89,1.52,6.18,6.18,0,0,1,1.67.4c.59.28,1.06.78,1.66,1a2.31,2.31,0,0,0,2.23-.28.52.52,0,0,0,.21-.25.63.63,0,0,0,0-.33l-.37-1.2a1.82,1.82,0,0,0-.62-1.06,1.74,1.74,0,0,0-.55-.21C453.87,122.57,450.32,121.72,447.13,120.65Z"/>
        <path class="cls-62" d="M429.68,321.69l-.08,8.66a5.81,5.81,0,0,0,3-.9,2.66,2.66,0,0,0,1.09-1.21,3.55,3.55,0,0,0,.19-1c.15-1.57.28-3.13.39-4.7l-4.64-.88M424,320.61c0,.4,0,.8.08,1.2.15,2.37-.34,5.55,1.57,7.23a5.34,5.34,0,0,0,2.31,1.14l.09-8.8-4-.77m5.86-13.5L429.7,320l4.73.9q.4-6.43.4-12.87l-5-.92M424,306.05a79.75,79.75,0,0,0-.14,12.84l4.17.79.13-12.87-4.16-.76m5.93-10.33-.09,9.71,5,.91c0-1.9-.07-3.79-.14-5.68a11,11,0,0,0-.75-4.05l-4-.89m-2-.45a5,5,0,0,0-.7.6,10.58,10.58,0,0,0-2.32,5c-.27,1.15-.49,2.32-.66,3.49l4,.72.1-9.77-.38-.08"/>
        <path class="cls-31" d="M501.71,350a1.41,1.41,0,0,0-.67.13c-.49.28-.23,1.33-.2,1.77s.05.9.08,1.35a.69.69,0,0,0,.67.64,53.41,53.41,0,0,1,12.19,1.78c1.38.36,2.75.77,4.1,1.21.69.22,1.38.46,2.07.7a3.22,3.22,0,0,0,1,.32.57.57,0,0,0,.22,0c.5-.16.37-.7.35-1.1,0-.85-.06-1.69-.1-2.54a.72.72,0,0,0-.47-.64c-.61-.22-1.22-.44-1.83-.64a54.43,54.43,0,0,0-11.14-2.5c-1.14-.12-2.29-.22-3.43-.28l-1.44-.07-.35,0c-.28,0-.68-.07-1.06-.07"/>
        <path class="cls-31" d="M418.32,333.09a1.43,1.43,0,0,0-.68.13c-.49.28-.23,1.33-.2,1.77l.09,1.35a.68.68,0,0,0,.67.64,54,54,0,0,1,12.18,1.78c1.38.36,2.75.77,4.11,1.21.69.23,1.38.46,2.06.71a3.58,3.58,0,0,0,1,.31.91.91,0,0,0,.23,0c.49-.17.36-.7.35-1.11,0-.84-.07-1.69-.1-2.54a.72.72,0,0,0-.47-.64c-.61-.22-1.22-.44-1.84-.64a54.32,54.32,0,0,0-11.13-2.49c-1.15-.13-2.29-.22-3.44-.29l-1.43-.07h-.36c-.28,0-.68-.08-1.05-.08"/>
        <path class="cls-15" d="M473.24,333.13a.27.27,0,0,0-.08.18,1.26,1.26,0,0,0,.21.84c.16.25.36.47.53.72a6.49,6.49,0,0,0,.88,1.4c.13.11.35.18.43,0a.33.33,0,0,0,0-.22C475.12,335.71,473.82,332.61,473.24,333.13Z"/>
        <path class="cls-15" d="M466.49,331.92a1.65,1.65,0,0,0,.13.53,3,3,0,0,0,1,1.45.33.33,0,0,0,.21.07.23.23,0,0,0,.15-.19.53.53,0,0,0-.05-.25,5.22,5.22,0,0,0-.61-1.31C467.18,332.07,466.48,331.46,466.49,331.92Z"/>
      </g>
      <polyline class="cls-31" points="540.85 370.7 540.8 370.74 539.72 371.63 512.33 394.14 512.5 394.11 497.29 406.49 498.26 413.59 496.21 412.91 492.84 416.36 493.57 423.75 488.2 425.54 488.93 430.79 489.17 430.87 541.57 387.05 540.27 371.39 540.86 370.93 540.85 370.7"/>
      <path class="cls-31" d="M596.86,326.76l-.71.57-55.29,43.6-.59.46,1.3,15.66L597.1,340.6c-.44-4.48-.11-5.09-.13-9.55,0-1.13,0-2.52-.11-4.29h0"/>
      <path class="cls-63" d="M546.82,344.1,546.19,317l44.14-30.85.63,27.14L546.82,344.1m-1.12-50.31-.23-23.73,41.18-22.19.29,23.48L545.7,293.79m-.82-38.46-.63-27.23,44.19-24,.63,27.24-44.19,24m50-62.3-58.73,30.36c.14,11.93.45,26,.85,40.6l.5,12.91v2.23a.83.83,0,0,1,.35,1.57l-.35.18v.35l.09,2.71.16,0a.83.83,0,0,1,.73.45.82.82,0,0,1-.35,1.12l-.49.25c1.26,39.65,2.85,77.93,3.15,85l.05,0v.23l55.29-43.6c-1.83-34.26-1.6-96.26-1.29-130.72,0-1.23,0-2.42,0-3.58h0"/>
      <g>
        <polygon class="cls-2" points="689.51 336.45 674.76 343.31 668.58 344.96 674.8 333.21 671.17 331.27 663.68 347.06 659.06 354.43 657.66 358.9 663.18 358.88 665.28 349.74 676.77 344.93 691.6 340.15 689.51 336.45"/>
        <polygon class="cls-2" points="639.45 334.38 636.8 331.37 625.57 341.74 624.26 345.25 618.85 338.1 613.96 325.9 612.39 328.35 616.76 341.03 620.87 348.84 622.11 351.04 617.19 364.24 624.2 364.22 625.5 359.52 625.49 362.75 632.78 362.73 628.03 350.39 629.47 345.19 639.45 334.38"/>
        <path class="cls-3" d="M689.51,336.45l-14.75,6.86L664,347.25l5.59-7.8,3.78-4.74c-1.79,1.4-2.86,3-5.1,2.7l-4.58,9.65-3,8.47-3,3.37h1.59a9.37,9.37,0,0,1,1.84-3.06c1.4-5.68,6.6-9,12.33-10.25l1.11-.21c5.23-2.55,10.53-5,15.69-7.67Z"/>
        <path class="cls-3" d="M636.8,331.37l-3.74,3.45a8.39,8.39,0,0,1-2.86,2.65l-4.34,9.1-1.59-1.32-7.57-6.9,1.5-1.87a10.18,10.18,0,0,1-3.52-8.79L614,325.9l-1.57,2.45,4.05,11.77c7,2.52,8.36,11.72,3.67,16.28l-2.92,7.84h2.56c-.54-2.38,1.49-5.62,3.31-6.54l1.91-7,.84,6.93.08.13c.32.42-.08,1.61.75,3.69a3.29,3.29,0,0,0,1.79,1.33c-1.47-3.59,1.32-5.35-1.39-8.91-1.07-1.4-1.59-4.44-1.19-5.13l3.38-7.95,1.67,2.89c-.27-4.53,2.35-9.13,8-9.92Z"/>
        <path class="cls-4" d="M632.27,318.38l-4.64,12a5.25,5.25,0,0,0,2.73,6.63l17.37,8.47a6,6,0,0,0,7.65-2.09l23.56-37.78a5.13,5.13,0,0,0,.12-5.28l-14.19-25.11a5.45,5.45,0,0,0-1.51-1.7l-22.12-16.38a6.06,6.06,0,0,0-7.51.32l-21.91,19.32a5.28,5.28,0,0,0-1.8,4.54l2.14,19.43a5.39,5.39,0,0,0,3.11,4.25l14.2,6.72A5.26,5.26,0,0,1,632.27,318.38Z"/>
        <path class="cls-4" d="M668.7,337.14l15.91,6.94a9.52,9.52,0,0,0,9.27-1l11.89-8.83c3.58-2.66,3.7-7.28.25-10l-12.41-9.89a9.44,9.44,0,0,0-11.2-.06L667,326.09C662.84,329.29,663.7,335,668.7,337.14Z"/>
        <path class="cls-5" d="M645.9,272.7a53.18,53.18,0,0,1,8.24-6l-12.9-9.55a6.06,6.06,0,0,0-7.51.32l-21.91,19.32a5.32,5.32,0,0,0-.87,1c.4,8.14,1.44,16.4,7.17,22.29a29,29,0,0,0,14.54,7.77C630.16,294.91,635.37,282.07,645.9,272.7Z"/>
        <path class="cls-5" d="M673.17,289.9l-4.68-8.28c-7.27,3.43-13.31,8.59-15.06,15.34C661,298.22,667.54,294.82,673.17,289.9Z"/>
        <path class="cls-5" d="M637.42,329c-3.37,1.53-6.68,3.14-9.88,4.83a5.46,5.46,0,0,0,2.82,3.22l8.4,4.1A13.48,13.48,0,0,0,637.42,329Z"/>
        <path class="cls-5" d="M681.37,332.75c6.74-6.46,17.22-6.86,26.91-5.17a6.52,6.52,0,0,0-2.26-3.32l-12.41-9.89-.33-.21c-10,5.65-19.5,12.59-26.3,21.43l-.24.34a8.11,8.11,0,0,0,2,1.21l8.21,3.58A15.31,15.31,0,0,1,681.37,332.75Z"/>
        <path class="cls-5" d="M672.48,294.32a114.79,114.79,0,0,0-30.36-13.84l.93.89c.6.56,1.48,1.31,2.55,2.23a57.1,57.1,0,0,0,8.7,6c3.52,2,8,2.94,11.65,3.69S672.48,294.32,672.48,294.32Z"/>
        <path class="cls-5" d="M629.14,290.13a123.11,123.11,0,0,0-26-1.16s1.67-3.6,10.26-3.91a28.16,28.16,0,0,1,6.14.69,36.9,36.9,0,0,1,5,1.8,21.29,21.29,0,0,1,3.34,1.77C628.71,289.81,629.14,290.13,629.14,290.13Z"/>
        <path class="cls-6" d="M646.36,298.87q-5.13-2-10.46-3.56a7.69,7.69,0,0,0,.61,2.24,8.8,8.8,0,0,0,3.37,3.92,3.67,3.67,0,0,0,4.57-.43A9,9,0,0,0,646.36,298.87Z"/>
        <path class="cls-5" d="M617.16,294.15c-2.89-.22-5.78-.58-8.69-.56-1.45,0-2.9-.09-4.36-.09l-4.36.17a6.72,6.72,0,0,0,1.48,1.6,8.48,8.48,0,0,0,4.68,1.74c2.17.22,4.91-.73,7.19-1.36S617.16,294.15,617.16,294.15Z"/>
        <path class="cls-5" d="M630.87,280c-3.48-.75-7-1.13-10.56-1.68,0,0,0,1.34,4.26,2.89a6.06,6.06,0,0,0,4.71,0A4.51,4.51,0,0,0,630.87,280Z"/>
        <path class="cls-5" d="M615.92,273.74c-2.49-.26-5-.33-7.5-.37l-3.75-.08-3.75.12a4.92,4.92,0,0,0,1.54,1.16,18.62,18.62,0,0,0,5.87,1.73,9.06,9.06,0,0,0,5.93-1A4.9,4.9,0,0,0,615.92,273.74Z"/>
        <path class="cls-5" d="M661,307.51c-1.35-.84-2.71-1.67-4.12-2.44,0,0,.39,1.77,1.33,2.31A4.91,4.91,0,0,0,661,307.51Z"/>
        <path class="cls-5" d="M625,299.78c-2.16-.41-4.35-.66-6.52-1a5.08,5.08,0,0,0,3,2.26A3.35,3.35,0,0,0,625,299.78Z"/>
        <path class="cls-5" d="M651.14,309.68a86,86,0,0,0-9.74-4.36,11.31,11.31,0,0,1,1.72-.3,7.73,7.73,0,0,1,3.31.33,10.63,10.63,0,0,1,3.18,2.45C650.51,308.81,651.14,309.68,651.14,309.68Z"/>
        <path class="cls-6" d="M681.53,308.77a99.16,99.16,0,0,0-9.09-4.34l1.25,1.63c.71.95,1.61,2.1,2.41,3C677.62,310.86,681.53,308.77,681.53,308.77Z"/>
        <path class="cls-5" d="M620.09,308.75l-3.83-1.08a2.94,2.94,0,0,1,1.76-.34A4.76,4.76,0,0,1,620.09,308.75Z"/>
        <path class="cls-5" d="M634.61,286.36c-2-.28-3.89-.56-5.84-.75,0,0,0,.87,2.65,1.37S634.61,286.36,634.61,286.36Z"/>
        <path class="cls-5" d="M631.67,296.67c-2.1-.74-4.23-1.41-6.39-2a3.78,3.78,0,0,1,2.87-.38A7.73,7.73,0,0,1,631.67,296.67Z"/>
        <path class="cls-5" d="M655.77,297.31,652,295.52l-3.89-1.62s.1,1.75,2.57,3A7.13,7.13,0,0,0,655.77,297.31Z"/>
        <path class="cls-5" d="M669.12,317.45c-1.62-1.4-3.29-2.76-5-4a9.24,9.24,0,0,0,1.62,3C667.65,318,669.12,317.45,669.12,317.45Z"/>
        <path class="cls-5" d="M657.76,315.83c-1-.7-2-1.33-3.08-2a2.8,2.8,0,0,1,2.14.16A1.58,1.58,0,0,1,657.76,315.83Z"/>
        <path class="cls-5" d="M674.07,287.14a112.43,112.43,0,0,0-12.14-6.52s2.38-.74,7.17,1.42S674.07,287.14,674.07,287.14Z"/>
        <path class="cls-5" d="M669.33,321.91a59,59,0,0,1,10.44,8.29,8.87,8.87,0,0,1-2.06-.17,10.94,10.94,0,0,1-4.42-1.91,10.22,10.22,0,0,1-3.19-4A9.43,9.43,0,0,1,669.33,321.91Z"/>
        <path class="cls-5" d="M676.21,301c1.8.63,3.54,1.39,5.34,2.12a10.91,10.91,0,0,0-2.86-3C677.14,299.2,676.21,301,676.21,301Z"/>
        <path class="cls-5" d="M681.77,316.14a54.71,54.71,0,0,1,10.91,12.8,9.4,9.4,0,0,0-.16-2.61,12.3,12.3,0,0,0-2.76-5.7,13.51,13.51,0,0,0-5.31-3.73A12.29,12.29,0,0,0,681.77,316.14Z"/>
        <path class="cls-5" d="M675.58,316.05c1,.95,2,1.88,2.93,2.87a3.31,3.31,0,0,1-2.19-.36C675.42,318,675.58,316.05,675.58,316.05Z"/>
        <path class="cls-5" d="M673.11,310.64a91.67,91.67,0,0,0-8.29-5.51,8.84,8.84,0,0,0,.8,1.31,9.5,9.5,0,0,0,2.38,2.28,16.66,16.66,0,0,0,3.34,1.45A18.15,18.15,0,0,0,673.11,310.64Z"/>
        <polygon class="cls-2" points="599.67 415.93 598.17 414.3 596.73 407.25 595.44 385.47 592.03 382.02 590.32 408.17 591.13 423.43 601.97 424.27 599.22 418.71 599.67 415.93"/>
        <polygon class="cls-2" points="567.41 393.44 569.97 382.09 565.16 388.2 560.54 375.45 557.04 357.72 554.2 357.5 555.14 370.81 559.55 386.64 564.46 398.8 566.04 404.32 568.61 414.65 568.3 419.41 566.75 423.24 576.3 423.98 577.44 422.38 579.9 420.59 573.37 405.44 567.41 393.44"/>
        <path class="cls-3" d="M592.44,412.6a42.21,42.21,0,0,1,3.38-20.71l-.38-6.42L592,382l-1.72,26.14.82,15.27,4.69.37A28.8,28.8,0,0,1,592.44,412.6Z"/>
        <path class="cls-3" d="M570.26,410c-1.7-4.65-4.66-11.27-3.69-17.5a15.69,15.69,0,0,1,2.55-6.64l.85-3.77-4.81,6.11-4.61-12.75-.19-.94c-1.37.16-2.73.27-4.09.36l1,3.39A106.31,106.31,0,0,1,564,395c3.14,9.93,6.67,18.83,8.79,28.69l3.53.28,1.14-1.6.22-.16A37.93,37.93,0,0,1,570.26,410Z"/>
        <path class="cls-4" d="M634.68,368.35l-37.56-44.13a8.66,8.66,0,0,0-9.29-2.78L541.6,336.25a9.47,9.47,0,0,0-5.9,5.84l-15.42,42.08A10.35,10.35,0,0,0,524,396.31l9.1,6a8.51,8.51,0,0,0,8.21.69l30.08-13.4a8.49,8.49,0,0,1,7.62.33l23.48,13a8.57,8.57,0,0,0,10-1.17l21.3-19A10.5,10.5,0,0,0,634.68,368.35Zm-67.53,11.84-12.66,3.42c-2.85.76-5.3-2.28-4.23-5.24l6.82-18.72a3.5,3.5,0,0,1,6.68-.06l5.85,15.31A4,4,0,0,1,567.15,380.19Z"/>
        <path class="cls-5" d="M550.77,386.2c-3.66-18.78,2.32-39.25,12.87-57l-22,7.06a9.47,9.47,0,0,0-5.9,5.84l-15.42,42.08a10.54,10.54,0,0,0-.57,4.79A48.52,48.52,0,0,1,550.77,386.2Z"/>
        <path class="cls-5" d="M594,391l2.88,2.76C610.26,381.32,612.27,356.53,608,337l-10.87-12.77a9.67,9.67,0,0,0-2-1.8c-8.74,9.14-15.55,20.64-20.69,32.38-3.14,7.18-4.56,14-4.24,20.48C579.37,378.37,586.81,384.13,594,391Z"/>
        <path class="cls-5" d="M600.05,347.1a94.55,94.55,0,0,0-19.29,5.12s.35.16,1,.37,1.48.43,2.55.72a17.74,17.74,0,0,0,3.65.51,21,21,0,0,0,4.28-.39,10.4,10.4,0,0,0,3.72-1.58,11.81,11.81,0,0,0,2.41-2.06A10,10,0,0,0,600.05,347.1Z"/>
        <path class="cls-5" d="M582.93,338.52a115.65,115.65,0,0,0-9.73,7.12,11.12,11.12,0,0,0,2-.09,10.28,10.28,0,0,0,4.41-1.67,7.27,7.27,0,0,0,2.89-3.43A6.14,6.14,0,0,0,582.93,338.52Z"/>
        <path class="cls-5" d="M588.53,334.73c-2.39-.31-4.76-.4-7.18-.48l-3.65-.12-3.66.11a11.85,11.85,0,0,1,2.08-1.3,15.22,15.22,0,0,1,6.06-1.49,6.5,6.5,0,0,1,5.15,1.55A4.5,4.5,0,0,1,588.53,334.73Z"/>
        <path class="cls-5" d="M572.28,338.21c-2.84,1.27-5.61,2.73-8.38,4.15-2.68,1.63-5.45,3.05-8,4.84a3.91,3.91,0,0,0,2,.24,22.56,22.56,0,0,0,7.44-1.79c3.66-1.23,5.37-3,6.19-4.63A6,6,0,0,0,572.28,338.21Z"/>
        <path class="cls-5" d="M571.63,358.66l-5.57,3c-1.83,1.06-3.6,2.25-5.4,3.35a11.07,11.07,0,0,1,.43-2.33,17.27,17.27,0,0,1,2.75-5.55,3.75,3.75,0,0,1,5-1.13,8.62,8.62,0,0,1,2.51,2Z"/>
        <path class="cls-5" d="M594.17,319a121.79,121.79,0,0,0-17.89,4.54,25.07,25.07,0,0,1,2.24-2.07,13.24,13.24,0,0,1,4.89-2.79,25.53,25.53,0,0,1,6.71-.28A40.74,40.74,0,0,1,594.17,319Z"/>
        <path class="cls-5" d="M561,333.55q-3.72,2.71-7.31,5.51c-2.32,2-4.67,3.9-6.88,6,0,0,.05-.25.16-.67a11,11,0,0,1,.64-1.71,17.26,17.26,0,0,1,3.42-4.92c1.69-1.78,4.27-2.74,6.32-3.38,1-.31,1.94-.52,2.59-.65A9.55,9.55,0,0,1,561,333.55Z"/>
        <path class="cls-5" d="M580.51,371,577,372.2l-3.4,1.44a5.28,5.28,0,0,1,2.45-4.46C578.76,367.75,580.51,371,580.51,371Z"/>
        <path class="cls-5" d="M594.9,360.17c-3,.62-6,1.67-8.92,2.59a4.24,4.24,0,0,1,.45-1.2,5.54,5.54,0,0,1,2.06-2.13,5.45,5.45,0,0,1,4-.15A14.63,14.63,0,0,1,594.9,360.17Z"/>
        <path class="cls-5" d="M562.56,321.5c-3.58,4.77-7.67,8.07-15.3,8A142.47,142.47,0,0,1,562.56,321.5Z"/>
        <path class="cls-5" d="M550.31,360c-1.8,1.16-3.45,2.56-5.16,3.88l-2.55,2L540.17,368a3.78,3.78,0,0,0,1.71.05,8.08,8.08,0,0,0,2-.63,13.15,13.15,0,0,0,2.73-1.5C550.61,363,550.31,360,550.31,360Z"/>
        <path class="cls-5" d="M556,369.39c-.8.57-1.59,1.14-2.34,1.78a2.06,2.06,0,0,0,1.76-.35A1.42,1.42,0,0,0,556,369.39Z"/>
        <path class="cls-6" d="M569,370.25l-4.17,2.84a9,9,0,0,1,1.72-2.8A2,2,0,0,1,569,370.25Z"/>
        <path class="cls-5" d="M563.62,350.56l-3,1.6L557.82,354A14.56,14.56,0,0,1,559.9,351C561,350,563.62,350.56,563.62,350.56Z"/>
        <path class="cls-5" d="M589.46,324.74l-4.21,2a3.72,3.72,0,0,0,3,.64C589.72,327,589.46,324.74,589.46,324.74Z"/>
        <path class="cls-5" d="M593.28,341.35c-2.44.8-4.93,1.36-7.31,2.35a15.92,15.92,0,0,1,3.35-2.53c1.53-.79,4.18-.21,4.18-.21Z"/>
        <path class="cls-5" d="M532.63,344.38c-3.41,2.67-6.56,5.67-9.74,8.62a17.21,17.21,0,0,1,3.31-6.37,6.21,6.21,0,0,1,4.23-2.33A6.73,6.73,0,0,1,532.63,344.38Z"/>
        <path class="cls-5" d="M543.64,353.08l-4.91,4a6.77,6.77,0,0,0,3.26-.82,3.58,3.58,0,0,0,1.33-1.91A7.41,7.41,0,0,0,543.64,353.08Z"/>
        <path class="cls-5" d="M557.4,378.87c-2.7,2.35-5.16,5-7.66,7.58a8.1,8.1,0,0,0,5-2.16,10.17,10.17,0,0,0,2.09-3.45A11.76,11.76,0,0,0,557.4,378.87Z"/>
      </g>
      <path class="cls-42" d="M614.31,175.69a1.4,1.4,0,0,1-.68.68c-11.11,5.39-67.91,33-86.38,43.07a6.87,6.87,0,0,1-1.61,5.58c-1.26,1.57-2.48,2.63-1.63,4.65l90.69-46.88-1.45-1.23,2.27-1.45-2.06-1.23,1.65-.62-1.86-.83,3.1-1-2-.71"/>
      <path class="cls-42" d="M451.74,127c-1.52,2.48-3.18,4.86-4.84,7.16-2,2.72-4.06,5.37-6.14,8-17.45,25.54-50.07,73.11-50.9,73.24l3.29,1.23h0a89.66,89.66,0,0,0,10.38-9.19h0c-.13-.67-.26-1.29-.4-1.86l50.52-74.8-.19-.38c-.72-1.41-1.3-2.56-1.72-3.41"/>
      <g>
        <polyline class="cls-25" points="585.54 250.39 621.17 255.18 621.17 276.29 585.54 271.5 585.54 250.39"/>
        <path class="cls-64" d="M568.06,260.18c.76-.5,15.38-9,15.38-9l-.26,21.62-14.07,7.29-1.05-19.94"/>
        <path class="cls-65" d="M568.06,260.18l.16.24c.35-.24,4.21-2.49,7.95-4.67s7.4-4.29,7.4-4.3l-.13-.24h-.28l-.25,21.45-13.55,7-1-19.51h-.28l.16.24-.16-.24-.27,0,1.06,20.37L583.46,273l.26-22.27-.42.24s-14.61,8.46-15.39,9l-.13.09v.16l.27,0"/>
        <path class="cls-64" d="M574.87,259.22c.76-.5,15.38-9,15.38-9L590,271.87l-14.08,7.29-1-19.94"/>
        <path class="cls-65" d="M574.87,259.22l.16.23c.35-.23,4.21-2.49,8-4.66l7.41-4.3-.14-.24H590l-.25,21.45-13.55,7-1-19.51-.28,0,.16.23-.16-.23h-.27l1.06,20.37L590.27,272l.26-22.27-.42.24s-14.61,8.46-15.39,9l-.13.09v.15h.27"/>
        <path class="cls-64" d="M579.54,260.36c.75-.5,15.37-9,15.37-9L594.66,273l-14.08,7.29-1-19.94"/>
        <path class="cls-65" d="M579.54,260.36l.15.23c.35-.23,4.21-2.49,7.95-4.66l7.41-4.3-.14-.24h-.28l-.25,21.45-13.54,7-1-19.51h-.27l.15.23-.15-.23-.28,0,1.07,20.36,14.6-7.56.26-22.27-.42.24s-14.6,8.46-15.39,9l-.13.09v.16l.28,0"/>
        <path class="cls-64" d="M586.76,260.36c.75-.5,15.37-9,15.37-9L601.88,273l-14.07,7.29-1-19.94"/>
        <path class="cls-65" d="M586.76,260.36l.15.23c.35-.23,4.21-2.49,8-4.66l7.4-4.3-.14-.24h-.28l-.24,21.45-13.55,7-1-19.51h-.28l.15.23-.15-.23-.28,0,1.07,20.36,14.61-7.56.25-22.27-.42.24s-14.6,8.46-15.38,9l-.13.09v.16l.28,0"/>
        <path class="cls-64" d="M589.27,258.23c.76-.51,15.38-9,15.38-9l-.26,21.61-14.07,7.3-1.05-19.94"/>
        <path class="cls-65" d="M589.27,258.23l.16.23c.35-.24,4.21-2.49,8-4.67l7.41-4.29-.14-.24h-.28l-.25,21.45-13.55,7-1-19.51-.28,0,.16.23-.16-.23H589l1.06,20.37L604.67,271l.26-22.27-.42.25s-14.61,8.45-15.39,9l-.13.08v.16h.27"/>
        <path class="cls-64" d="M595,260.7c.76-.5,15.38-9,15.38-9l-.25,21.61L596,280.64l-1-19.94"/>
        <path class="cls-65" d="M595,260.7l.16.24c.35-.24,4.21-2.49,8-4.67l7.4-4.29-.13-.24h-.28l-.25,21.45-13.55,7-1-19.51H595l.16.24-.16-.24-.27,0,1.06,20.37,14.61-7.57.26-22.27-.42.25s-14.61,8.45-15.39,9l-.13.09v.16l.27,0"/>
        <path class="cls-64" d="M600.33,262.12c.76-.5,15.38-9,15.38-9l-.25,21.62-14.08,7.29-1-19.94"/>
        <path class="cls-65" d="M600.33,262.12l.16.23c.35-.23,4.21-2.49,8-4.66l7.41-4.3-.14-.24h-.28l-.25,21.45-13.55,7-1-19.5h-.28l.16.23-.16-.23-.27,0,1.06,20.36,14.61-7.56.26-22.27-.42.24s-14.61,8.46-15.39,9l-.13.09v.16l.27,0"/>
        <path class="cls-64" d="M606.87,262.12c.75-.5,15.37-9,15.37-9L622,274.77l-14.08,7.29-1-19.94"/>
        <path class="cls-65" d="M606.87,262.12l.15.23c.35-.23,4.21-2.49,8-4.66l7.4-4.3-.14-.24H622l-.25,21.45-13.54,7-1-19.5h-.28l.15.23-.15-.23-.28,0,1.07,20.36,14.61-7.56.25-22.27-.42.24s-14.6,8.46-15.39,9l-.13.09v.16l.28,0"/>
        <path class="cls-64" d="M549.56,270.17c.75-.51,15.37-9,15.37-9l-.25,21.61L550.6,290.1l-1-19.93"/>
        <path class="cls-65" d="M549.56,270.17l.15.23c.35-.24,4.21-2.49,8-4.67s7.39-4.29,7.4-4.29l-.14-.24h-.28l-.25,21.45-13.54,7-1-19.51-.27,0,.15.23-.15-.23h-.28l1.07,20.37L565,283l.26-22.27-.42.25s-14.6,8.45-15.39,9l-.13.08v.16h.28"/>
        <path class="cls-64" d="M556.09,270.17c.76-.51,15.38-9,15.38-9l-.25,21.61-14.08,7.29-1-19.93"/>
        <path class="cls-65" d="M556.09,270.17l.16.23c.35-.24,4.21-2.49,8-4.67l7.4-4.29-.13-.24h-.28l-.25,21.45-13.55,7-1-19.51-.28,0,.16.23-.16-.23h-.27l1.06,20.37L571.49,283l.26-22.28-.42.25s-14.61,8.45-15.39,9l-.13.08v.16h.27"/>
        <path class="cls-64" d="M561.86,270.21c.75-.5,15.37-9,15.37-9L577,282.86l-14.08,7.28-1-19.93"/>
        <path class="cls-65" d="M561.86,270.21l.15.23c.35-.24,4.21-2.49,8-4.67l7.41-4.29-.14-.24H577l-.25,21.45-13.54,7-1-19.51-.27,0,.15.23-.15-.23h-.28l1.07,20.37,14.6-7.56.26-22.28-.42.25s-14.6,8.46-15.39,9l-.13.08v.16h.28"/>
        <path class="cls-64" d="M567.15,271.17c.76-.5,15.38-9,15.38-9l-.26,21.62-14.07,7.29-1.05-19.94"/>
        <path class="cls-65" d="M567.15,271.17l.16.23c.35-.23,4.21-2.49,8-4.66l7.4-4.3-.13-.24h-.28L582,283.65l-13.55,7-1-19.5h-.28l.16.23-.16-.23-.27,0,1.06,20.36L582.55,284l.26-22.27-.42.24s-14.61,8.46-15.39,9l-.13.09v.16l.27,0"/>
        <path class="cls-64" d="M569.67,272.89c.75-.5,15.37-9,15.37-9l-.25,21.62-14.08,7.29-1-19.94"/>
        <path class="cls-65" d="M569.67,272.89l.15.23c.35-.24,4.21-2.49,8-4.66l7.4-4.3-.14-.24h-.28l-.25,21.45-13.54,7-1-19.51-.27,0,.15.23-.15-.23h-.28l1.07,20.37,14.6-7.56.26-22.27-.42.24s-14.6,8.46-15.39,9l-.13.09v.15h.28"/>
        <path class="cls-64" d="M576.2,271.93c.76-.51,15.38-9,15.38-9l-.26,21.61-14.07,7.29-1-19.93"/>
        <path class="cls-65" d="M576.2,271.93l.16.23c.35-.24,4.21-2.49,7.95-4.67l7.4-4.29-.13-.24h-.28l-.25,21.45-13.55,7-1-19.51-.28,0,.16.23-.16-.23h-.28L577,292.31l14.61-7.57.26-22.27-.42.25s-14.61,8.45-15.39,9l-.13.09v.16h.28"/>
        <path class="cls-64" d="M580.73,272.93c.75-.5,15.37-9,15.37-9l-.25,21.62-14.08,7.29-1-19.94"/>
        <path class="cls-65" d="M580.73,272.93l.15.23c.35-.23,4.21-2.49,8-4.66l7.4-4.3-.14-.24h-.28l-.25,21.45-13.54,7-1-19.5h-.27l.15.23-.15-.23h-.28l1.07,20.37,14.6-7.56.26-22.27-.42.24s-14.6,8.46-15.39,9l-.13.09v.15h.28"/>
        <path class="cls-64" d="M587.26,272.93c.76-.5,15.38-9,15.38-9l-.26,21.62-14.07,7.29-1-19.94"/>
        <path class="cls-65" d="M587.26,272.93l.16.23c.35-.23,4.21-2.49,8-4.66l7.4-4.3-.13-.24h-.28l-.25,21.45-13.55,7-1-19.5h-.28l.16.23-.16-.23H587l1.06,20.37,14.61-7.56.26-22.27-.42.24s-14.61,8.46-15.39,9l-.13.09v.15h.27"/>
        <path class="cls-25" d="M548.63,270.3c2.23,2.79,4.12,5.86,6.38,8.62,3.64,4.44,6.09,9.69,9.72,14.12a1.38,1.38,0,0,1,.29.58L582,295.9V274.78Z"/>
        <polyline class="cls-13" points="624.35 275.53 580.51 299.86 578.85 299.29 577.94 271.72 622.08 247.74 623.72 248.3 624.35 275.53"/>
        <polyline class="cls-14" points="620.89 273.83 620.48 273.1 584.64 293 584.72 273.91 620.13 254.25 620.05 273.83 620.89 273.83 620.48 273.1 620.89 273.83 621.72 273.84 621.81 251.42 583.06 272.93 582.96 295.83 621.72 274.32 621.72 273.84 620.89 273.83"/>
        <polyline class="cls-15" points="608.03 267.96 598.63 273.46 598.65 269.3 608.05 263.8 608.03 267.96"/>
        <path class="cls-28" d="M602.65,267l5.4-3.16,0,4.16-9.4,5.5,0-4.16.31-.18a1.25,1.25,0,0,1,.58-.66c1-.54,2.07-1,3.11-1.5m17.48-12.71-35.41,19.66L584.64,293l35.42-19.66.07-19.09M583,295.83l.1-22.9,38.75-21.51-.09,22.42v.48L583,295.83m40.76-47.53c-13.65,7.88-29.79,17.17-43.84,24.33,0,8.49.72,18.45.63,27.23l43.84-24.33-.63-27.23"/>
        <path class="cls-31" d="M584.64,293l.08-19.09,35.41-19.66-.07,19.09L584.64,293m37.17-41.58-38.75,21.51-.1,22.9,38.76-21.51v-.48l.09-22.42"/>
        <path class="cls-38" d="M608.05,263.8l-5.4,3.16,1-.48a1.53,1.53,0,0,1,.71-.18,1.38,1.38,0,0,1,.69,2.57c-1.37.68-2.77,1.27-4.12,2a1.5,1.5,0,0,1-.7.17,1.41,1.41,0,0,1-1.2-.67,1.39,1.39,0,0,1-.08-1.24l-.31.18,0,4.16L608,268l0-4.16"/>
        <path class="cls-34" d="M585.54,250.39l0,2.17c-.69.4-1,.56-1.75,1v-2.92s-15.45,8.86-16.21,9.36l.19,2.95.18-.1-.13-2.64.27,0-.27,0V260l.13-.09c.78-.52,15.38-9,15.39-9l.42-.24,0,3,1.86-1.08v-2.27"/>
        <path class="cls-29" d="M585.54,250.39v2.27l2.64-1.53V251l.11-.27-2.76-.38"/>
        <path class="cls-66" d="M574.6,259.23v-.15l.13-.09.58-.35v0l2.48-1.43,5.35-3.12,0-2.36"/>
        <path class="cls-66" d="M583.15,251.7l-7,4.05c-3.47,2-7,4.1-7.82,4.58l.11,2.21,2.28-1.24.59-.34.42-.25,0,3.41,3-1.77-.16-3.12"/>
        <path class="cls-67" d="M583.72,250.73l-.42.24s-14.61,8.46-15.39,9l-.13.09v.16l.27,0-.27,0,.13,2.64.54-.3-.11-2.21c.78-.48,4.35-2.56,7.82-4.58l7-4.05,0,2.36.56-.32,0-3"/>
        <path class="cls-34" d="M565.37,260.45s-16.92,9.2-17.68,9.7l-1.35-.16,2.95.4v-.21h0V270l.13-.08c.79-.53,15.38-9,15.39-9l.42-.25,0,3.81.48-.29-.28-3.78"/>
        <path class="cls-66" d="M564.65,261.68l-7,4.05c-3.47,2-7,4.1-7.83,4.58v.16l6,.81,0-1.1h0V270l.13-.08c.41-.28,4.72-2.79,8.67-5.09l0-3.17"/>
        <path class="cls-67" d="M565.21,260.71l-.42.25s-14.6,8.45-15.39,9l-.13.08v.16h0v.21l.56.08v-.16c.78-.48,4.36-2.56,7.83-4.58l7-4.05,0,3.17.26-.15.3-.18,0-3.81"/>
        <polyline class="cls-34" points="546.33 269.99 546.33 291.11 549.41 291.52 546.33 291.11 546.33 269.99 546.33 269.99"/>
        <path class="cls-29" d="M551.46,270.79l1.21.16s0-.07,0-.1l-2.83-.38-.56-.08-2.95-.4h0v21.12l3.08.41L567.72,294Z"/>
        <polyline class="cls-34" points="590.51 251.06 590.51 251.06 594.1 251.54 594.1 251.54 590.51 251.06"/>
        <path class="cls-29" d="M590.51,251.06v1.61l.09.91,3.51-2-3.59-.48"/>
      </g>
      <g>
        <path class="cls-68" d="M605.23,261.35a34,34,0,0,0,4.94-7.92c4.39-9,6.5-20.31,16.27-25.18,4-2,8.6-2.35,12.93-3.49s8.93-2.87,12-6.41c0,0,.08,0,.12-.09-2.94-4.81-7.79-8.55-12.94-6.24-1.89.79-3.84,1.48-5.77,2.16-5.2,1.83-10.57,3.77-14.52,7.62-5.83,5.68-7.41,14.28-9.1,22.24-1,4.72-2.23,9.58-4.64,13.8-1.72,3-7.79,6.37-8.08,9.31a6.9,6.9,0,0,0,3.25.11C601.33,265.09,603.41,263.37,605.23,261.35Z"/>
        <path class="cls-69" d="M648,218.59c-5.08,3.39-11,4.57-17,5.52-5.09.82-9.53,3.18-12.44,7.52-2.59,3.86-4,8.36-5.6,12.67-1.75,4.63-3.79,9.14-7.12,12.87a1.17,1.17,0,0,1-1.21.38,4,4,0,0,1-2,1.92,9.52,9.52,0,0,1-7.23.64,16.59,16.59,0,0,1-4.54-3.31,16.68,16.68,0,0,0-6.53-3.7,9.11,9.11,0,0,0-7.29,1,10,10,0,0,1,6.08.37c2.16,1,3.49,3.18,4.79,5.19a22.36,22.36,0,0,0,5.08,5.95,8.5,8.5,0,0,0,8,1.33,15.05,15.05,0,0,0,6.29-5.11,23.78,23.78,0,0,0,1.78-2.63c3.68-6.26,5.88-13.33,9.73-19.49S628.83,228.06,636.1,228c4.18,0,8.13,1.74,12.14,3,8.34,2.83,7.23-7.57,2.22-14.34A26.9,26.9,0,0,1,648,218.59Z"/>
      </g>
      <g>
        <path class="cls-68" d="M643.27,224c2.74-2.42,6.24-4,9.29-6,3.36-2.2,6.82-4.66,9.18-8a10.6,10.6,0,0,0,2.1-5.17c.18-2.12-.45-4.29-.73-6.38a14.59,14.59,0,0,1,.1-5.51,18.89,18.89,0,0,1,2.75-5.45c2.1-3.39,3.48-7.36,6.36-10.23,2.15-2.13,5-2.87,7.92-3.4,3.26-.6,6.58-.93,9.79-1.75,2.55-.65,5.73-1.67,6.65-4.43a1.47,1.47,0,0,1,.22-.39,8.39,8.39,0,0,0-3.57-6.8c-4.91-3.37-12.51-2.22-18.08-2a37.88,37.88,0,0,1-8.83-.49,15.17,15.17,0,0,1-7.61-3.86c-.93,2.59.28,5.58,2.33,7.4a12,12,0,0,0,1.17.85,7.53,7.53,0,0,0-3.64,6.91c.06,1.1.42,2.17.39,3.26-.16,6.14-11.33,7.9-10.58,14,.22,1.85,1.59,3.32,2.46,5,2.56,4.88.38,11.17-3.6,15a35.31,35.31,0,0,1-7.53,4.84c-1.32,4.54-.42,9.16,2.62,13.46A7.66,7.66,0,0,1,643.27,224Z"/>
        <path class="cls-69" d="M695.92,167c-3.57,2.44-9,1.5-13,1-5.13-.65-13.6-2.49-16.73,3,0,.41,0,.83.06,1.24.21,2.82.2,6-2.13,8-2,1.74-5,1.65-6.77,3.79-2.12,2.6-.65,6.25.32,9a18.57,18.57,0,0,1,1.12,10c-1.2,6.28-5.53,12.06-10.79,15.57a28.37,28.37,0,0,1-7.33,3.4,25.11,25.11,0,0,0,8.5,9.53,49.62,49.62,0,0,0,6.64.85c8.14-.3,14.37-7.6,17.43-15.15a60.55,60.55,0,0,1,3.61-7.31,66.85,66.85,0,0,1,6.18-5.36c3-2.24,6.24-4.33,8.17-7.51,1.73-2.85,1.94-6.93-.2-9.35A62.74,62.74,0,0,0,695.33,177c.93-3.21,2-7.23,1.43-10.73a4.15,4.15,0,0,1-.84.76"/>
        <path class="cls-8" d="M669.92,207.08l1.12-2.47,13,6.18,8.18-7.24-.36,3.89s-5.35,5.29-5.61,5.69-4.14.2-4.54.07-9.36-3.75-9.36-3.75l-1.15.65-1.3-3"/>
        <path class="cls-70" d="M671.21,204.69h0m-.17-.08-9.2,17.75,9.2-17.75h0"/>
        <path class="cls-36" d="M671,204.61l-9.2,17.75.81,1.72a69,69,0,0,0,8.89-16.64l.41.2c-.31-.46-.6-.95-.87-1.45a1.31,1.31,0,0,1,.14-1.49h0l-.17-.08m21.57-1.31h0l-.57.5v.06h0v0a15.15,15.15,0,0,1-1.69,5v0c.82-.6,1.65-1.18,2.49-1.76l-.2-3.86"/>
        <path class="cls-9" d="M676.08,230.43c3.1-5.83,6.58-11.46,9.23-17.52a80.75,80.75,0,0,1-13.77-5.47,69.21,69.21,0,0,1-9.3,17.21c5,1.31,9.67,2.64,13.84,5.78"/>
        <path class="cls-37" d="M692.81,207.16c-.84.58-1.67,1.16-2.49,1.76-1.73,1.25-3.42,2.55-5.08,3.88l0,.08-9.11,17.55c2.17-2.34,4.15-2.14,5.75-4.9,3.48-6,7.49-12.35,11-18.37"/>
        <path class="cls-68" d="M653.34,204.4q-1.41,7.35-2.23,14.8c-.15,1.33,2.4,1,3.74.93l6.57-.29c.7,1.11,1.56,2.23,2.87,2.14a5,5,0,0,0,3.39-1.81,4.3,4.3,0,0,0,.81-4.59c-.81-1.61-2.77-2.25-4.56-2.41a15,15,0,0,0-7,1,14,14,0,0,1-.18-5.76"/>
        <path class="cls-69" d="M687,222.15a9.18,9.18,0,0,0,2.25-3.65c.42-1.31,0-4.32-2.21-2.8a11.28,11.28,0,0,0-4.23,6.64,1.93,1.93,0,0,0,0,1.09c.4,1.1,2,.45,2.69,0A9.46,9.46,0,0,0,687,222.15Z"/>
        <path class="cls-70" d="M685,189.26l-.08.17c-1.1,3.19-.59,5.92,1.15,6.08h.16c1.65,0,3.74-2.21,4.85-5.12l0-.09-6-1-.06-.09m-8.69-1.41c-.1.24-.2.49-.29.74-1.1,3.19-.59,5.92,1.15,6.08h.16c1.72,0,3.91-2.4,5-5.49l.08-.27-6-1-.07-.1"/>
        <path class="cls-15" d="M676.41,188l6.06,1,.48-.35-.34-.48-6.07-1-.47.34.34.48m15.24,2.19,0-.1.13-.46-6.59-1.06-.47.35.34.48,6.12,1,.07-.41-.4-.11,0,.1.28.52.52-.29"/>
        <path class="cls-15" d="M683.14,188.81a1.3,1.3,0,0,1,.56-.57,2,2,0,0,1,1-.38h.07l.25.46-.2.48v.58h.59a1.51,1.51,0,0,0,.44-1.07,1.29,1.29,0,0,0-.77-1.23l-.38-.07a2.87,2.87,0,0,0-1.44.52,1.86,1.86,0,0,0-.94,1.19l.37.46.46-.38Z"/>
        <path class="cls-71" d="M670.48,194.59h-.06a.54.54,0,0,0-.49.61,4.94,4.94,0,0,0,5,4.42,4.91,4.91,0,0,0,1.92-.38.55.55,0,0,0,.3-.72.56.56,0,0,0-.51-.34.54.54,0,0,0-.22,0,3.8,3.8,0,0,1-1.49.29,3.84,3.84,0,0,1-3.87-3.43.55.55,0,0,0-.55-.5"/>
        <path class="cls-71" d="M680.58,180.71a1.39,1.39,0,0,0-1.17.63h0l-1.64,2.53a1.39,1.39,0,0,0,.4,1.92,1.42,1.42,0,0,0,.76.22,1.37,1.37,0,0,0,1.16-.63l1.65-2.52a1.4,1.4,0,0,0-1.16-2.15"/>
        <path class="cls-71" d="M689.63,182.51a1.37,1.37,0,0,0-1.16.63l-1.65,2.52a1.38,1.38,0,0,0,.41,1.92,1.36,1.36,0,0,0,.75.22,1.39,1.39,0,0,0,1.17-.63c.54-.84,1.09-1.68,1.64-2.52a1.39,1.39,0,0,0-.4-1.92,1.42,1.42,0,0,0-.76-.22"/>
        <path class="cls-71" d="M682.79,172h0a2.29,2.29,0,0,0-2.19,1.43.56.56,0,0,0,.34.71.63.63,0,0,0,.19,0,.55.55,0,0,0,.52-.37,1.19,1.19,0,0,1,1.14-.69h0a1,1,0,0,1,.81.33l.78.07.07-.78a2.14,2.14,0,0,0-1.65-.73"/>
        <path class="cls-71" d="M691.61,174.16a.55.55,0,0,0-.55.5.55.55,0,0,0,.5.6h0a1.81,1.81,0,0,1,1.51,1.72l0,.3a.55.55,0,0,0,.42.66h.12a.55.55,0,0,0,.54-.43l.06-.54a2.89,2.89,0,0,0-2.51-2.82h-.06"/>
      </g>
      <g>
        <path class="cls-45" d="M538.2,78.11l-8.49,4.51a2.08,2.08,0,0,0,1.95,3.67l7-3.7C538.43,81.1,538.28,79.61,538.2,78.11Z"/>
        <path class="cls-33" d="M532,82.89c-.83-1.91-2.16-2.72-4.07-1.89s-2.36,2.63-1.53,4.54,2.22,2.18,4.13,1.34,2.26-2,1.43-3.87"/>
        <path class="cls-72" d="M559.74,92.8l.2.12a1.54,1.54,0,0,1,1,.14l.36.17h0l.06,0c.21.08.43.15.64.21a8.88,8.88,0,0,0,1.32.28l.13,0,.32,0,.67.07,1.33.14a1.82,1.82,0,0,1,.83.31,16,16,0,0,0,7-1.8l-25.3-47.64c-5,2.65-8.09,7.65-9.14,13.62a1.43,1.43,0,0,1,.47.91A48.07,48.07,0,0,0,547.08,81a38.48,38.48,0,0,0,7.69,8.37c1.53,1.12,3.09,2.19,4.68,3.23Z"/>
        <path class="cls-8" d="M574.25,61.64a49.67,49.67,0,0,0-2.73-4.52,1.22,1.22,0,0,1-.84-.2c-4.73-3.13-10.45-4.6-16-5.14-3.11-.3-6.23-.23-9.33-.63-.55-.07-1.15-.15-1.76-.25-2.12,6.24-.8,15.72,4.07,24.89,7,13.15,18.61,20.65,26,16.74S581.24,74.8,574.25,61.64Z"/>
        <g class="cls-73">
          <path class="cls-23" d="M562.39,67.94l-.36.19A17.42,17.42,0,0,1,564.2,76c0,2.5-.82,4.37-2.29,5.15a3.78,3.78,0,0,1-1.71.41c-2.83,0-6.68-2.93-9.15-7.6a17.42,17.42,0,0,1-2.17-7.87c0-2.5.82-4.37,2.29-5.15a3.65,3.65,0,0,1,1.71-.4c2.83,0,6.68,2.93,9.15,7.59l.36-.19.37-.2c-2.58-4.82-6.51-8-9.88-8a4.49,4.49,0,0,0-2.1.51c-1.86,1-2.73,3.23-2.73,5.88a18.16,18.16,0,0,0,2.27,8.26c2.58,4.82,6.51,8,9.88,8a4.38,4.38,0,0,0,2.1-.51c1.86-1,2.73-3.23,2.73-5.88a18.16,18.16,0,0,0-2.27-8.26l-.37.2"/>
          <path class="cls-23" d="M565.33,66.38l-.37.19c2.86,5.37,4.3,10.79,4.3,15,0,3.69-1.1,6.39-3.15,7.47a4.85,4.85,0,0,1-2.28.54c-2.27,0-5.09-1.36-7.88-3.83a36.54,36.54,0,0,1-7.83-10.25c-2.86-5.37-4.3-10.79-4.3-15,0-3.69,1.1-6.39,3.15-7.47a4.85,4.85,0,0,1,2.28-.54c2.27,0,5.09,1.36,7.88,3.83A36.73,36.73,0,0,1,565,66.57l.37-.19.37-.2a37.66,37.66,0,0,0-8-10.49c-2.88-2.53-5.83-4-8.43-4a5.57,5.57,0,0,0-2.67.64c-2.47,1.32-3.59,4.38-3.59,8.2,0,4.41,1.49,9.93,4.39,15.41a37.66,37.66,0,0,0,8,10.49c2.88,2.53,5.83,4,8.43,4a5.57,5.57,0,0,0,2.67-.64c2.46-1.32,3.59-4.38,3.59-8.2,0-4.41-1.49-9.93-4.39-15.41l-.37.2"/>
          <path class="cls-23" d="M557.31,71.15a36.2,36.2,0,0,1-1-26.6l-.79-.28a37.12,37.12,0,0,0,1,27.22l.76-.34"/>
          <path class="cls-23" d="M557.27,71.38a27.61,27.61,0,0,1,13.67-15l-.36-.75a28.43,28.43,0,0,0-14.09,15.44l.78.29"/>
          <path class="cls-23" d="M557.32,72.44a31.83,31.83,0,0,0,16.23,4.69,27.51,27.51,0,0,0,5.63-.57l-.16-.81a27.36,27.36,0,0,1-5.47.55,30.88,30.88,0,0,1-15.8-4.58l-.43.72"/>
          <path class="cls-23" d="M555.49,72.37c3.85,9.44,12.75,15.28,21.56,17l.16-.81c-8.58-1.69-17.24-7.39-21-16.51l-.77.31h0"/>
          <path class="cls-23" d="M556,70.85c-2.72,2.74-3.82,7.36-3.83,10.7a11.3,11.3,0,0,0,.1,1.59l.82-.12a10.94,10.94,0,0,1-.09-1.47c0-3.16,1.11-7.65,3.58-10.11l-.58-.59"/>
          <path class="cls-23" d="M555.82,70a21.77,21.77,0,0,1-12.55-7.52l-.64.53a22.69,22.69,0,0,0,13,7.81l.17-.82"/>
        </g>
        <path class="cls-45" d="M557.52,72.13,579,60.72a1.39,1.39,0,0,0-1.3-2.45L556.21,69.68a1.39,1.39,0,0,0,1.31,2.45"/>
        <path class="cls-74" d="M575.94,60.58a1.21,1.21,0,0,1,.5,0,4.74,4.74,0,0,0,.65.16l.22,0h.41a6.79,6.79,0,0,0,.78,0h.18l.38-.07a10.69,10.69,0,0,0,1.57-.42l.22-.08.21-.1a6.25,6.25,0,0,0,.63-.33l.61-.37.3-.21,0,0s0,0,.05,0,.31-.27.46-.43l.23-.25,0,0a6.26,6.26,0,0,0,.34-.55c.05-.09.09-.17.13-.26l0-.11a6.36,6.36,0,0,0,.19-.66,2,2,0,0,0,0-.24c0-.07,0-.14-.06-.2l0-.1A3.06,3.06,0,0,0,579.94,55l-2.74,1.45a3.07,3.07,0,0,0-1.26,4.14Z"/>
        <path class="cls-34" d="M575.63,62.51l-.74.39h0l.74-.39m-5-6.86-.07,0,.26.36h0l-.19-.4M548,45l-.06,0,.06,0m.13-.07-.09,0,.09,0m1-.45a8.67,8.67,0,0,0-.82.38l-.11.06.11-.06h0a8.67,8.67,0,0,1,.82-.38m.06,0h0m.07,0h0"/>
        <path class="cls-75" d="M548.28,44.89l-.11.06h0l-.09,0,0,0-.06,0a16.26,16.26,0,0,0-4.13,3.33,32.16,32.16,0,0,0,.36,19.69c1.88,5.67,5.34,12.63,9.83,16.9a45.54,45.54,0,0,1-6.4-9.2c-7-13.16-6.69-27,.66-30.9"/>
        <path class="cls-36" d="M562.2,81.93a4.36,4.36,0,0,1-1.74.45c-.08.38-.17.76-.25,1.13,1.33,1.39,2.69,3,4,4.35a14.54,14.54,0,0,0,2.47-2.54,30,30,0,0,1-4.5-3.39m2.2-2.4,0,0a5,5,0,0,1-1.44,1.92,28.74,28.74,0,0,0,4.23,3.16,7,7,0,0,0,.43-.92c-1.09-1.34-2.1-2.84-3.19-4.18m-11.12-1a17,17,0,0,0-.28,3,10.35,10.35,0,0,0,.07,1.29,29.54,29.54,0,0,0,2.3,2.41c.8-1.27.38-3.1,0-4.72a16.11,16.11,0,0,1-2.14-2m2.32-5.94a14.49,14.49,0,0,0-2.11,4.93,16.36,16.36,0,0,0,1.71,1.72v-.07a30.45,30.45,0,0,1-.15-4.37,22.75,22.75,0,0,0,5.3,6.71,3.48,3.48,0,0,0,1.21-.24,26.41,26.41,0,0,1-5.95-8.68m1.9-.5a1.31,1.31,0,0,1-.63.16,1.51,1.51,0,0,1-.56-.11,25.68,25.68,0,0,0,6,8.72,3.72,3.72,0,0,0,1-1.09h-.19a3.89,3.89,0,0,1-.62,0,39.31,39.31,0,0,1-4.93-6.8l-.22-.36.14-.07-.16-.09.18-.31m-1.45-.1-.14.18.26-.11-.12-.07m6.6-2.63L558,71.87l.35.2q2.24-1.16,4.44-2.34l-.14-.33m-13.57-1.06a19.12,19.12,0,0,0,2,5.62,19.33,19.33,0,0,0,1.79,2.79,13.74,13.74,0,0,1,2.71-5.41,1.28,1.28,0,0,1-.06-.61,23.72,23.72,0,0,1-6.41-2.39m16.53-.51L563.38,69l.15.33,2.23-1.19-.15-.32m-21.38-3.12a37.92,37.92,0,0,0,3.89,10.81,40.55,40.55,0,0,0,4,6.23v-.2a18,18,0,0,1,.42-3.78,20.72,20.72,0,0,1-2.27-3.42,19.29,19.29,0,0,1-2.16-6.55,21.92,21.92,0,0,1-3.93-3.09m30.66-1.81-8.55,4.54c0,.11.1.21.16.32q4.25-2.27,8.54-4.49l-.16-.36h0m-20.4-2.1a36.27,36.27,0,0,0,1.72,7.57,17.63,17.63,0,0,1,2.59-4.69,11.22,11.22,0,0,0-4.31-2.88m-1.57-.26h0a3.65,3.65,0,0,0-1.71.4c-1.47.78-2.29,2.65-2.29,5.15,0,.39,0,.79.06,1.21a22.71,22.71,0,0,0,6.82,2.64l.06-.23a36.71,36.71,0,0,1-2.19-9.11,4.34,4.34,0,0,0-.71-.06m17.85-4.49.17.35c-.58.28-1.15.58-1.71.91a12.47,12.47,0,0,1,1.73-.12h.53c-.23-.34-.44-.73-.67-1.06l-.05-.09h0m-16.45-1.84c-.05.77-.08,1.55-.08,2.33,0,1.13,0,2.25.16,3.38a11.26,11.26,0,0,1,4.93,3.1,19.08,19.08,0,0,1,2-2.07,31,31,0,0,0-4.25-4.63,21,21,0,0,0-2.81-2.11m-5.06-1.72h0A4.85,4.85,0,0,0,547,53c-2.05,1.08-3.15,3.78-3.15,7.47a22.43,22.43,0,0,0,.18,2.77,21.26,21.26,0,0,0,4.07,3.48c0-.22,0-.44,0-.66,0-2.65.87-4.88,2.73-5.88a4.49,4.49,0,0,1,2.1-.51c.22,0,.44,0,.67,0-.09-1.07-.14-2.14-.14-3.21s0-1.87.1-2.8a9.3,9.3,0,0,0-4.25-1.25m3.33-8.63a9.4,9.4,0,0,0-3.36.6h0l-.05,0h-.06a8.67,8.67,0,0,0-.82.38h0c-7.35,3.91-7.65,17.74-.66,30.9A45.54,45.54,0,0,0,554,85h0c-.54-.6-1.07-1.22-1.6-1.87l-.18-.24a46.08,46.08,0,0,1-4.62-7.09,44.29,44.29,0,0,1-4.38-12l0-.16h0q-.09-.51-.18-1l.07-.06c-.07-.71-.1-1.41-.1-2.08,0-3.82,1.12-6.88,3.59-8.2a5.57,5.57,0,0,1,2.67-.64,9.75,9.75,0,0,1,4.34,1.18,36.53,36.53,0,0,1,1.91-8.57l.79.28a35.19,35.19,0,0,0-1.9,8.73,21.5,21.5,0,0,1,3.29,2.41A32.48,32.48,0,0,1,562,60.43a15.89,15.89,0,0,1,4.77-2.57,27.8,27.8,0,0,1,3.69-2.16c-5.44-7.34-12.25-11.84-17.9-11.84"/>
        <path class="cls-42" d="M561.55,81.31a3.48,3.48,0,0,1-1.21.24l.26.22c0,.2-.09.41-.14.61a4.36,4.36,0,0,0,1.74-.45l-.65-.62m2.82-1.76a2.64,2.64,0,0,1-1.07.26,3.72,3.72,0,0,1-1,1.09l.62.57a5,5,0,0,0,1.44-1.92m-10.88-2c-.08.34-.15.68-.21,1a16.11,16.11,0,0,0,2.14,2c-.09-.44-.17-.86-.22-1.25a16.36,16.36,0,0,1-1.71-1.72M563.38,69l-.73.39.14.33.74-.39-.15-.33M548.16,67.8a19.29,19.29,0,0,0,2.16,6.55,20.72,20.72,0,0,0,2.27,3.42c.07-.34.15-.68.25-1A19.33,19.33,0,0,1,551.05,74a19.12,19.12,0,0,1-2-5.62c-.31-.17-.62-.35-.92-.54m6.24-7.88c0,.29.06.59.09.88a11.22,11.22,0,0,1,4.31,2.88c.17-.23.35-.44.53-.66a11.26,11.26,0,0,0-4.93-3.1m-1.52-.22a4.49,4.49,0,0,0-2.1.51c-1.86,1-2.73,3.23-2.73,5.88,0,.22,0,.44,0,.66.28.19.58.37.87.55,0-.42-.06-.82-.06-1.21,0-2.5.82-4.37,2.29-5.15a3.65,3.65,0,0,1,1.71-.4h0a4.34,4.34,0,0,1,.71.06c0-.29-.06-.57-.08-.85-.23,0-.45,0-.67,0"/>
        <path class="cls-42" d="M553.07,82.84c0,.06,0,.12,0,.18l-.67.1c.53.65,1.06,1.27,1.6,1.87.29.28.59.54.89.8a2.87,2.87,0,0,0,.46-.54,29.54,29.54,0,0,1-2.3-2.41m13.27-15.4-.73.39.15.32.74-.39c-.06-.11-.11-.21-.16-.32m-23.13-3.8,0,.16a44.29,44.29,0,0,0,4.38,12,46.08,46.08,0,0,0,4.62,7.09,9.93,9.93,0,0,1-.07-1.13,40.55,40.55,0,0,1-4-6.23,37.92,37.92,0,0,1-3.89-10.81c-.35-.35-.69-.7-1-1.07m11.18-10.36c0,.31,0,.62-.07.93a21,21,0,0,1,2.81,2.11A31,31,0,0,1,561.38,61l.65-.52a32.48,32.48,0,0,0-4.35-4.74,21.5,21.5,0,0,0-3.29-2.41m-5.14-1.62a5.57,5.57,0,0,0-2.67.64c-2.47,1.32-3.59,4.38-3.59,8.2,0,.67,0,1.37.1,2.08l.18-.15c.24.29.48.57.73.84a22.43,22.43,0,0,1-.18-2.77c0-3.69,1.1-6.39,3.15-7.47a4.85,4.85,0,0,1,2.28-.54h0a9.3,9.3,0,0,1,4.25,1.25c0-.3,0-.6.08-.9a9.75,9.75,0,0,0-4.34-1.18"/>
        <path class="cls-42" d="M555.5,44.27a36.53,36.53,0,0,0-1.91,8.57c0,.3-.05.6-.08.9-.07.93-.1,1.87-.1,2.8s.05,2.14.14,3.21c0,.28.05.56.08.85a36.71,36.71,0,0,0,2.19,9.11c.1-.41.21-.82.35-1.23a.76.76,0,0,0,0-.11,36.27,36.27,0,0,1-1.72-7.57c0-.29-.07-.59-.09-.88-.11-1.13-.16-2.25-.16-3.38,0-.78,0-1.56.08-2.33,0-.31,0-.62.07-.93a35.19,35.19,0,0,1,1.9-8.73l-.79-.28"/>
        <path class="cls-42" d="M570.51,55.69h0a27.8,27.8,0,0,0-3.69,2.16,14.7,14.7,0,0,1,2.43-.55c.56-.33,1.13-.63,1.71-.91l-.17-.35-.26-.36"/>
        <path class="cls-42" d="M558,71.87l-.48.26h0l-.18.31.16.09.87-.46-.35-.2"/>
        <path class="cls-42" d="M556.17,72.1l-.26.11a4.56,4.56,0,0,0-.31.42,26.41,26.41,0,0,0,5.95,8.68l.65.62a30,30,0,0,0,4.5,3.39,7.52,7.52,0,0,0,.46-.69,28.74,28.74,0,0,1-4.23-3.16l-.62-.57a25.68,25.68,0,0,1-6-8.72l-.14-.08"/>
        <path class="cls-42" d="M555.55,71.34a13.74,13.74,0,0,0-2.71,5.41c-.1.34-.18.68-.25,1a18,18,0,0,0-.42,3.78v.2a9.93,9.93,0,0,0,.07,1.13l.18.24.67-.1c0-.06,0-.12,0-.18a10.35,10.35,0,0,1-.07-1.29,17,17,0,0,1,.28-3c.06-.33.13-.67.21-1a14.49,14.49,0,0,1,2.11-4.93,4.56,4.56,0,0,1,.31-.42l.14-.18a1.28,1.28,0,0,1-.41-.48,1,1,0,0,1-.09-.21"/>
        <path class="cls-42" d="M543.27,62.43l-.18.15-.07.06q.09.48.18,1h0c.33.37.67.72,1,1.07a21.92,21.92,0,0,0,3.93,3.09c.3.19.61.37.92.54a23.72,23.72,0,0,0,6.41,2.39,1.33,1.33,0,0,1,.22-.6c0-.06,0-.13,0-.19a22.71,22.71,0,0,1-6.82-2.64c-.29-.18-.59-.36-.87-.55A21.26,21.26,0,0,1,544,63.27c-.25-.27-.49-.55-.73-.84"/>
        <path class="cls-34" d="M580.13,61.94l0,0,0,0m3.92-5.72,0,0,0,.1a3,3,0,0,1-.32,3.36,3,3,0,0,0,.32-3.36l0-.1,0,0"/>
        <path class="cls-59" d="M575.76,60.18a123.65,123.65,0,0,1-19.31,10.61l-.25.13-.51-.69,0-.1a1.33,1.33,0,0,0-.22.6,1.28,1.28,0,0,0,.06.61,1,1,0,0,0,.09.21,1.28,1.28,0,0,0,.41.48l.12.07.14.08a1.51,1.51,0,0,0,.56.11,1.31,1.31,0,0,0,.63-.16h0l.48-.26,4.65-2.47.73-.39,2.23-1.18.73-.39,8.55-4.54.74-.39,1.36-.73a3,3,0,0,1-1-1.1l0-.1a2.87,2.87,0,0,1-.18-.4"/>
        <path class="cls-76" d="M583.26,55.3l-.09.08a2.63,2.63,0,0,1-.56,3,5.59,5.59,0,0,1-3,1.39,14,14,0,0,1-3,.31q-.41,0-.81,0l-.12.08a2.87,2.87,0,0,0,.18.4l0,.1a3,3,0,0,0,1,1.1l0,0a3.17,3.17,0,0,0,1.73.53,3,3,0,0,0,1.32-.32l0,0h0l2.73-1.45a3.08,3.08,0,0,0,.94-.77,3,3,0,0,0,.32-3.36l0-.1,0,0a3.06,3.06,0,0,0-.79-.92"/>
        <path class="cls-59" d="M541.67,76.27l-4.13,2.19.3,4.55L543.59,80c-.31-.51-.6-1-.88-1.57-.38-.7-.72-1.41-1-2.12"/>
        <path class="cls-75" d="M539.3,57.68a30.65,30.65,0,0,0,2.38,18.58h0c.32.71.66,1.42,1,2.12.28.54.57,1.06.88,1.57h0c5.41,9,14.11,14.47,22.2,14.47a16.86,16.86,0,0,0,4.13-.5,13.53,13.53,0,0,1-2.15.27,1.55,1.55,0,0,1-.33,0c-7.89-1.54-12.32-6.39-17.28-12.72s-8-15.56-10.59-23.18l-.29-.58"/>
        <path class="cls-34" d="M530,88.19a4.73,4.73,0,0,1-.53,0h0a4.73,4.73,0,0,0,.53,0"/>
        <path class="cls-59" d="M531.79,81.51h0a3.72,3.72,0,0,1,1.41,2.94,3.72,3.72,0,0,0-1.41-2.94"/>
        <path class="cls-35" d="M528.19,85.78a1.65,1.65,0,0,1-.58-.1c-2-.75-.73-3.58.42-4.5a1.76,1.76,0,0,1,1.12-.44c1.24,0,2.2,1.6,1.86,3a2.56,2.56,0,0,1-.88,1.31,3.31,3.31,0,0,1-1.32.67,2.16,2.16,0,0,1-.62.09m1.24-5.1a3.87,3.87,0,0,0-1.51.32l-.43.22a3.78,3.78,0,0,0,1.94,7,4.73,4.73,0,0,0,.53,0,3.89,3.89,0,0,0,1-.28,3.76,3.76,0,0,0,2.26-3.46,3.72,3.72,0,0,0-1.41-2.94,3.81,3.81,0,0,0-2.36-.83"/>
      </g>
    </g>
    <path class="cls-77" d="M247.58,256.52c27.84,10.73,57.78,29.64,60.64,59.34l88.9,18.33c8,1.64,16.11,3.29,24.16,2.14,13.36-1.9,24.38-11.12,36.78-16.46,31.38-13.52,67.1-1.17,100.05,7.9,3.49,1,7.22,1.88,10.7.87,5.37-1.57,8.36-7.1,11.4-11.81,24.91-38.58,79-41.92,124.95-41.56,6.24.05,12.73,0,18.35-2.69s9.53-7.68,13.77-12.15c39.78-42,106-42.55,163.19-33.82,54.37,8.29,109.73,23.16,152.45,57.82,9.77,7.93,19,17.18,23.7,28.86,9.43,23.49-2.52,51.33-22,67.47s-44.91,23-69.67,28.22c-56.4,11.91-113.9,17.69-171.39,21.89-242.38,17.71-486,7.62-728.21-12.78-21-1.76-43.68-4.38-58.82-19-37.9-36.57-.28-84.9,22.64-116.31,25.78-35.32,71.16-45.73,113.34-44.36C191.6,239.38,220.48,246.07,247.58,256.52Z"/>
    <rect class="cls-78" x="86.92" y="308.75" width="192.01" height="70.12" rx="35.06"/>
    <rect class="cls-78" x="168.08" y="281.22" width="192.01" height="70.12" rx="35.06"/>
  </g>
</svg>
