<svg xmlns="http://www.w3.org/2000/svg" viewBox="0 0 86.07 39.97">
  <defs>
    <style>
      .cls-1 {
        fill: #f5fffe;
      }

      .cls-2 {
        fill: #ffd255;
      }

      .cls-3 {
        fill: none;
        stroke: #515151;
        stroke-miterlimit: 10;
        stroke-width: 1.85px;
      }
    </style>
  </defs>
  <g id="Design">
    <g>
      <g>
        <rect class="cls-1" y="12.17" width="60.5" height="24.86" rx="11.72"/>
        <rect class="cls-1" x="25.57" y="2.41" width="60.5" height="24.86" rx="11.72"/>
      </g>
      <rect class="cls-2" x="20.73" width="49.34" height="39.97" rx="7.87"/>
      <g>
        <path class="cls-3" d="M46.28,8.62a9,9,0,0,0-9.16,8.9c-.06,2.58,1,4.45,2.39,6.38,1.23,1.68,2,1.86,2.52,4.38"/>
        <path class="cls-3" d="M46.28,8.62a9,9,0,0,1,9.17,8.9c.06,2.58-1,4.45-2.39,6.38-1.23,1.68-2,1.86-2.52,4.38"/>
        <polyline class="cls-3" points="50.54 28.28 50.51 28.28 42.17 28.28"/>
        <polyline class="cls-3" points="42.03 30.39 50.54 30.39 50.54 28.28"/>
        <polyline class="cls-3" points="50.54 30.41 50.54 32.53 42.03 32.53"/>
        <polyline class="cls-3" points="50.01 32.53 48.41 35.72 46.28 35.72"/>
        <line class="cls-3" x1="46.28" y1="3.3" x2="46.28" y2="5.56"/>
        <line class="cls-3" x1="41.3" y1="5.49" x2="41.71" y2="6.47"/>
        <line class="cls-3" x1="34.26" y1="12.54" x2="35.24" y2="12.94"/>
        <line class="cls-3" x1="34.26" y1="22.5" x2="35.24" y2="22.09"/>
        <line class="cls-3" x1="58.31" y1="22.5" x2="57.33" y2="22.09"/>
        <line class="cls-3" x1="58.31" y1="12.54" x2="57.33" y2="12.94"/>
        <line class="cls-3" x1="51.27" y1="5.49" x2="50.86" y2="6.47"/>
        <line class="cls-3" x1="36.23" y1="7.47" x2="37.83" y2="9.06"/>
        <line class="cls-3" x1="32.07" y1="17.52" x2="34.33" y2="17.52"/>
        <line class="cls-3" x1="36.23" y1="27.57" x2="37.83" y2="25.97"/>
        <line class="cls-3" x1="56.34" y1="27.57" x2="54.74" y2="25.97"/>
        <line class="cls-3" x1="60.5" y1="17.52" x2="58.24" y2="17.52"/>
        <line class="cls-3" x1="56.34" y1="7.47" x2="54.74" y2="9.06"/>
        <path class="cls-3" d="M49.68,12.25a6.39,6.39,0,0,1,2.88,4.3"/>
        <polyline class="cls-3" points="46.28 35.72 44.16 35.72 43.63 34.66"/>
      </g>
    </g>
  </g>
</svg>
