<?xml version="1.0" encoding="UTF-8"?><svg id="Layer_2" xmlns="http://www.w3.org/2000/svg" xmlns:xlink="http://www.w3.org/1999/xlink" viewBox="0 0 124.36 124.36"><defs><style>.cls-1,.cls-2,.cls-3,.cls-4,.cls-5,.cls-6,.cls-7,.cls-8{fill:none;}.cls-2,.cls-3{stroke-width:1.07px;}.cls-2,.cls-3,.cls-4,.cls-5,.cls-6,.cls-7,.cls-8{stroke-miterlimit:10;}.cls-2,.cls-6{stroke:#52496b;}.cls-3{stroke:#01a4a0;}.cls-9{clip-path:url(#clippath);}.cls-10{fill:#01a4a0;}.cls-11{fill:#017d77;}.cls-12{fill:#eca9f3;}.cls-13{fill:#ebe4f9;}.cls-14{fill:#fff;}.cls-15{fill:#f1fffb;}.cls-16{fill:#999d91;}.cls-17{fill:#b8abd1;}.cls-18{fill:#a195be;}.cls-19{fill:#be65b4;}.cls-20{fill:#d2eae9;}.cls-21{fill:#d3dcbb;}.cls-22{fill:#c4fff7;}.cls-23{fill:#07535b;}.cls-24{fill:#32ffa3;}.cls-25{fill:#38ffca;}.cls-26{fill:#7ac7c0;}.cls-27{fill:#52496b;}.cls-28{fill:#756a8c;}.cls-4{stroke:#b0e0dd;}.cls-4,.cls-5{stroke-linecap:round;}.cls-4,.cls-5,.cls-6,.cls-7,.cls-8{stroke-width:2.13px;}.cls-5{stroke:#7fabac;}.cls-7{stroke:#32ffa3;}.cls-8{stroke:#008052;}</style><clipPath id="clippath"><circle class="cls-1" cx="62.18" cy="62.18" r="62.18"/></clipPath></defs><g id="Layer_1-2"><g class="cls-9"><rect class="cls-14" x="-11.6" y="-29.71" width="155.91" height="178.44"/><g><g id="Base"><polygon class="cls-13" points="-29.45 150.6 -34.62 84.86 -17.23 50.79 6.12 99.62 2.41 165.59 -29.45 150.6"/><polygon class="cls-18" points="2.41 165.59 95.67 116.46 98.72 57.08 6.12 99.62 2.41 165.59"/><path class="cls-17" d="M27.03,112.29h0c-4.53,2.65-8.19,9.09-8.17,14.39l.06,20.74,16.41-8.53-.07-21.8c-.02-5.3-3.7-7.46-8.23-4.81Z"/><path class="cls-11" d="M27.03,112.29c-4.53,2.65-8.19,9.09-8.17,14.39l.05,17.52,14.34-7.32-.07-21.8c0-1.44-.29-2.64-.77-3.58-1.44-.63-3.32-.42-5.38,.78Z"/><path class="cls-17" d="M83.12,83.55h0c-3.62,2.13-6.5,8.14-6.44,13.42l.24,20.64,13.11-6.68-.25-21.69c-.06-5.28-3.04-7.82-6.66-5.69Z"/><path class="cls-10" d="M31.23,135.44c-.4-4.83-.73-8.49-.69-13.33-3.9,2.36-7.79,3.57-11.68,5.95l.05,16.15,12.35-6.3c-.01-.82-.02-1.65-.03-2.47Z"/><path class="cls-11" d="M83.12,83.55c-3.62,2.13-6.5,8.14-6.44,13.42l.2,17.44,11.46-5.71-.25-21.69c-.02-1.43-.25-2.65-.66-3.64-1.17-.78-2.68-.79-4.32,.18Z"/><path class="cls-27" d="M34.09,127.89l-6.59,3.6,.05-8.6,7.03-3.55c.26-.13,.37-.45,.24-.72-.13-.26-.45-.37-.72-.24l-6.03,3.05,4.04-8.96c.12-.27,0-.58-.27-.71-.27-.12-.58,0-.71,.27l-4.36,9.65-4.88-4.65c-.21-.2-.55-.19-.75,.02-.2,.21-.19,.55,.02,.75l4.88,4.65-7.35,3.71c0,.19,0,.38-.07,.57,0,.06,0,.12,0,.18,0,.08-.01,.16-.02,.24,.07,.04,.15,.07,.24,.07s.16-.02,.24-.06l7.39-3.73-.05,8.64-7.7,4.2c.04,.35,.07,.71,.09,1.06,.01,0,.03,.01,.04,.01,.09,0,.17-.02,.26-.07l7.31-3.99-.05,8.24c0,.29,.24,.53,.53,.54h0c.29,0,.53-.24,.53-.53l.05-8.83,7.11-3.88c.26-.14,.35-.47,.21-.72-.14-.26-.47-.35-.72-.21Z"/><path class="cls-10" d="M89.05,105.64c-.4-4.83-3.22-5.41-3.18-10.24-3.9,2.36-5.29,2.08-9.18,4.45l.05,14.56,9.85-4.81c-.01-.82,2.48-3.14,2.47-3.96Z"/><path class="cls-27" d="M90.63,100.29c-.14-.26-.46-.35-.72-.21l-6.59,3.6,.05-8.6,6-3.03c.26-.13,.37-.45,.24-.72-.13-.26-.45-.37-.72-.24l-4.77,2.41,4.51-7.93c.15-.26,.14-.64-.12-.78-.26-.15-.63-.07-.77,.19l-5.09,8.94-4.25-4.05s-.08-.06-.13-.08c-.01,.03-.02,.07-.03,.1-.1,.27-.22,.54-.35,.81-.02,.04-.06,.06-.08,.08l4.05,3.86-5.13,2.6c.04,.38,.02,.77,.02,1.15,.05,0,.09-.01,.14-.03l5.42-2.74-.05,8.64-5.6,3.06c0,.17,0,.35,0,.52,0,.19,0,.38,0,.57,0,0,0,.01,0,.02,0,0,.01,0,.02,0,.09,0,.17-.02,.26-.07l5.3-2.89-.05,8.24c0,.29,.24,.53,.53,.54h0c.29,0,.53-.24,.53-.53l.05-8.83,7.11-3.88c.26-.14,.35-.47,.21-.72Z"/><path class="cls-28" d="M40.19,145.91l.76-32.24c.03-1.18,.71-2.28,1.73-2.8l25.47-12.94c1.87-.95,3.86,.45,3.72,2.6l-1.86,29.87-29.82,15.5Z"/><path class="cls-27" d="M68.31,97.9s0-.02,0-.03c-.05,.02-.11,.03-.16,.06l-25.47,12.94c-1.02,.52-1.7,1.62-1.73,2.8l-.62,26.82,26.16-13.6,1.82-28.99Z"/><path class="cls-19" d="M-21.13,41.8S41.62,26.71,74.58,9.82c2.03-1.04,4.48-.19,5.54,1.89,4.85,9.48,18.95,46.67,28.15,58.11,.99,1.23,.62,3.1-.76,3.8L17.43,120.08s-8.34-10.85-15.56-25.24c-7.22-14.39-22.99-53.03-22.99-53.03Z"/><polygon class="cls-12" points="-16.42 42.76 -10.9 51.95 31.63 40.07 28.41 30.65 -16.42 42.76"/><path class="cls-21" d="M49.28-43.38c1.63,24.09,4.25,47.98,7.92,71.68l-22.93,7.12-5.89-7.39-6.84,2.26c2.55-23.14,3.44-46.25,2.69-69.34l25.05-4.32Z"/><path class="cls-27" d="M47.58,78.36l-26.17,9.91c-3.1,1.17-6.61-.38-7.83-3.46l-7.82-19.92,11.55-3.64c1.45-.46,2.66-1.51,3.31-2.89,.65-1.38,.69-2.98,.12-4.39l-8.29-20.48c-.11-.27-.24-.52-.39-.77-.47,.09-.94,.2-1.41,.28-.3,.09-.6,.17-.9,.26,.3,.28,.56,.61,.72,1.02l8.3,20.49c.35,.88,.33,1.83-.08,2.68s-1.12,1.48-2.02,1.76l-11.69,3.68L-4.54,38.63c-.18-.46-.43-.87-.72-1.24-.75,.27-1.5,.53-2.26,.79,.44,.3,.79,.71,.99,1.23L11.59,85.59c1.27,3.22,4.4,5.2,7.68,5.2,.96,0,1.94-.17,2.88-.53l26.17-9.91-.76-2Z"/><path class="cls-27" d="M108.28,69.82c-.48-.6-.98-1.28-1.48-2.01-1.89,.88-3.83,1.67-5.72,2.54-1.01,.46-2.01,.94-2.99,1.47-1.07,.58-2,1.38-3.27,1.28-2.22-.17-4.52-.77-6.57-1.62-1.74-.72-2.41-3.1-.55-4.2,4.74-2.79,10.2-3.75,15.22-5.85-4.27-7.71-8.92-18.08-13.02-27.52-.89,.51-2.17,.47-2.93-.25,0,0,0,0,0,0-.84,.8-2.2,1-3.16,0-.09-.09-.16-.19-.24-.28-.22,.15-.46,.27-.69,.34-.86,.24-1.62-.06-2.2-.62-.63,.27-1.39,.24-2.09-.25-.63,.26-1.35,.27-1.96-.15-2.62-1.8-5.71-3.14-8.09-5.28-.41,.17-.82,.33-1.23,.5-1.15,.48-2.53-.53-2.82-1.6-.36-1.31,.46-2.34,1.6-2.82,.27-.11,.55-.22,.82-.33,.32-.46,.77-.83,1.29-.99,4.93-1.52,9.72-3.39,14.74-4.43-1.11-2.52-2.06-4.59-2.79-6.03-1.06-2.08-3.52-2.93-5.54-1.89-7.29,3.73-16.03,7.38-25.23,10.79-1.06,1.52-1.74,2.53-1.72,2.6,.08,.29-.4,8.12-.4,8.12,0,0-.45,6.3,11.8,9.13,12.24,2.83,35.48,16.58,36.01,19.36s-26.54,6.77-27.41,8.15c-.82,1.31-13.15,30.39-14.55,33.71l54.43-28.06c1.38-.71,1.75-2.57,.76-3.8Z"/><path class="cls-16" d="M49.28-43.38l-10.78,1.86-5.25,2.43S30.76,.2,34.27,35.41h0s22.93-7.11,22.93-7.11c-3.67-23.7-6.29-47.59-7.92-71.68Z"/><path class="cls-15" d="M-49.68,90.04s18.76-28.11,25.2-45.26c0,0,3.95-6.8,7.06,.07,3.12,6.87,26.45,66.61,34.84,75.22,0,0-4.45,1.27-7.93-1.91-3.48-3.18-31.2-68.11-31.2-68.11,0,0-18.41,38.36-21.77,39.72-3.36,1.36-6.21,.26-6.21,.26Z"/><path class="cls-10" d="M63.8,78.98c-.11-.05-.22-.12-.29-.24-2.37-3.94-4.12-8.25-5.49-12.64-.71-2.25-1.31-4.52-1.8-6.83l-24.23,11.97c-1.63,.81-2.35,2.79-1.6,4.44,.75,1.65,2.67,2.33,4.3,1.52l1.17-.58,7.52,16.58-1.17,.58c-1.63,.81-2.35,2.79-1.6,4.44l.13,.28c.75,1.65,2.67,2.33,4.3,1.52l14.81-7.32c1.24-2.59,2.73-5.02,4.39-7.32,.15-.74,.48-1.42,.89-2.07-.49-1.43-.94-2.88-1.34-4.34Z"/><path class="cls-25" d="M57.01,90l-21.04-13.13-.11-.24-.15,.08-.92-.58c-.1-.09-.21-.17-.32-.23-.53-.28-1.18-.42-1.77-.23-.11,.04-.21,.08-.31,.13-.07-.01-.14-.03-.22-.04-.29-.16-.57-.33-.83-.53-.24-.2-.46-.41-.66-.64-.04-.06-.08-.11-.11-.18,0,.01,0,.02,.01,.03-.06-.1-.12-.2-.2-.29-.07-.1-.15-.19-.23-.27,.02-.16,.07-.31,.11-.47-.09-.03-.15-.12-.15-.27,0-1.15,1.89-1.91,1.89-1.91l1.64-.81h0s2.78-1.37,2.78-1.37h0l4.51-2.23h0l7.47-3.69,3.83,11.94c-2.03-1.49-4.06-2.98-6.11-4.43-1.28-.9-2.54-1.82-3.8-2.76l-4.84,2.01c1.88,1.5,3.81,2.93,5.76,4.32,3.82,2.71,7.57,5.52,11.36,8.27l2.41,7.51Zm-16.82,5.74l1.53,1.02,2.47-2.42-2.47-1.05-1.53,2.45Z"/><path class="cls-23" d="M86.37,75.96l-.13-.28c-.75-1.65-2.67-2.33-4.3-1.52l-1.3,.64-7.52-16.58,1.3-.64c1.63-.81,2.35-2.79,1.6-4.44h0c-.75-1.65-2.67-2.33-4.3-1.52l-23.63,11.67c-.55,1.56-1.24,3.08-1.59,4.73-.58,2.78,0,5.72,.86,8.39,1.27,4,3.53,9.98,7.97,11.37,.97,.3,1.69,1.18,1.69,2.21,0,1.54-.49,3.14-1.13,4.67l28.89-14.27c1.63-.81,2.35-2.79,1.6-4.44Z"/><line class="cls-6" x1="48.67" y1="92.33" x2="60.46" y2="83.19"/><line class="cls-6" x1="41.76" y1="75.04" x2="49.66" y2="68.92"/><polygon class="cls-27" points="35.86 76.63 37.31 75.19 45.22 92.79 43.38 93.2 35.86 76.63"/><line class="cls-6" x1="50.31" y1="91.06" x2="52.22" y2="75.08"/><path class="cls-8" d="M-13.7,41.55l4.86-5.93c1.83-2.27,5.43-1.72,6.5,.99L15.79,82.78c1.44,3.64,5.54,5.45,9.2,4.06l26.17-9.91"/><path class="cls-8" d="M3.29,36.4l4.86-5.93c1.83-2.27,5.43-1.72,6.5,.99l8.3,20.49c.97,2.39-.31,5.09-2.76,5.86l-12.84,4.05"/><path class="cls-7" d="M-15.83,40.48l4.86-5.93c1.83-2.27,5.43-1.72,6.5,.99L13.65,81.71c1.44,3.64,5.54,5.45,9.2,4.06l26.17-9.91"/><polygon class="cls-28" points="68.98 121.79 67.64 121.79 68.31 110.27 69.65 110.27 68.98 121.79"/><path class="cls-7" d="M1.16,35.33l4.86-5.93c1.83-2.27,5.43-1.72,6.5,.99l8.3,20.49c.97,2.39-.31,5.09-2.76,5.86l-12.84,4.05"/><g><path class="cls-17" d="M67.01,122.45l-13.82,8.32-1.42-.56,.41-12.73c.15-4.76,3.69-10.35,7.9-12.49h0c1.58-.8,3.03-1.01,4.21-.7,.72,.19,1.84,.39,2.33,.93,.87,.95,.86,2.6,.8,4.5l-.41,12.73Z"/><path class="cls-20" d="M68.43,123.01l-15.24,7.76,.41-12.73c.15-4.76,3.69-10.35,7.9-12.49h0c4.21-2.14,7.5-.03,7.34,4.73l-.41,12.73Z"/><path class="cls-15" d="M53.52,120.63l-.33,10.14,15.24-7.76,.37-11.43c-5.15,2.92-10.27,5.9-15.28,9.05Z"/><path class="cls-17" d="M66.81,121.17l-9.71,4.94,.26-8.11c.1-3.03,2.35-6.59,5.03-7.96h0c2.68-1.37,4.78-.02,4.68,3.01l-.26,8.11Z"/><path class="cls-20" d="M57.33,118.86l.03-.85c.04-1.18,.41-2.44,1-3.62-.24,.47-.44,.96-.59,1.45l8.3-3.68c.02,.21,.05,.4,.04,.63l-.07,2.22-8.71,3.86Zm8.52-7.8c-.25-.7-.65-1.23-1.2-1.53-.67-.06-1.44,.1-2.26,.52-1.64,.83-3.1,2.49-4.03,4.33l7.49-3.32Zm.06,7.71l.08-2.57-8.71,3.86-.08,2.57,8.71-3.86Zm-8.75,5.06l.02-.66-.07,2.15,8.73-4.44,.03-.91-8.71,3.86Z"/><path class="cls-17" d="M48.48,112.39c-1.19-.31-2.63-.1-4.21,.7-1.23,.62-2.39,1.55-3.44,2.65l-.49,21.35,10.86-6.54,.41-12.73c.06-1.89,.07-3.54-.8-4.5-.5-.54-1.62-.75-2.33-.93Z"/><path class="cls-20" d="M45.69,113.65c-1.84,.94-3.56,2.54-4.92,4.44l-.44,19.28,12.29-6.26,.41-12.73c.15-4.76-3.13-6.87-7.34-4.73Z"/><path class="cls-15" d="M51.93,121.61c-2.93,1.87-5.76,3.91-8.61,5.92,.03,1.24,.17,2.48,.32,3.68,.17,1.41,.33,2.82,.47,4.23l8.52-4.34,.33-10.13c-.34,.21-.69,.42-1.03,.64Z"/><path class="cls-17" d="M51.01,129.27l-9.71,4.94,.26-8.11c.1-3.03,2.35-6.59,5.03-7.96h0c2.68-1.37,4.78-.02,4.68,3.01l-.26,8.11Z"/><path class="cls-20" d="M41.53,126.95l.03-.85c.04-1.18,.41-2.44,1-3.62-.24,.47-.44,.96-.59,1.45l8.3-3.68c.02,.21,.05,.4,.04,.63l-.07,2.22-8.71,3.86Zm8.52-7.8c-.25-.7-.65-1.23-1.2-1.53-.67-.06-1.44,.1-2.26,.52-1.64,.83-3.1,2.49-4.03,4.33l7.49-3.32Zm.06,7.71l.08-2.57-8.71,3.86-.08,2.57,8.71-3.86Zm-8.75,5.06l.02-.66-.07,2.15,8.73-4.44,.03-.91-8.71,3.86Z"/><polygon class="cls-15" points="57.19 123.17 57.13 125.32 65.85 120.88 65.88 119.97 57.17 123.83 57.19 123.17"/><polygon class="cls-15" points="57.21 122.63 65.92 118.77 66 116.19 57.3 120.06 57.21 122.63"/><path class="cls-15" d="M65.59,113.08c-.67,.38-1.32,.8-1.96,1.22-1.15,.77-2.27,1.59-3.46,2.27-.93,.54-1.88,1.06-2.81,1.59l-.02,.69,8.71-3.86,.07-2.19c-.18,.1-.44,.24-.52,.28Z"/><path class="cls-15" d="M47.57,123.6c-1.39,.76-2.77,1.52-4.16,2.29,.02,.07,.03,.14,.05,.21l6.78-3.01,.03-.98c-.9,.5-1.8,.99-2.7,1.49Z"/><path class="cls-15" d="M43.69,127.18c.15,.79,.28,1.58,.38,2.37l6.05-2.68,.08-2.57-6.51,2.89Z"/></g><circle class="cls-27" cx="33.42" cy="74.17" r="1.02"/><circle class="cls-27" cx="44.2" cy="96.75" r="1.02"/><g id="bighorn3"><path class="cls-23" d="M74.86-31.47c-6.1-8.09-14.95-4.79-22.26,1.78-6.37,5.72-11.57,13.92-12.78,19.24-1.79,7.86,.43,16.32,3.29,23.65,1.43,3.64,3.13,7.18,5.07,10.57,1.44,2.51,3.16,6.62,6.48,6.77,1.18,.05,2.35-.28,3.46-.69,2.31-.86,4.59-2.15,5.9-4.24,2.31-3.66,.78-7.34-.75-10.88-1.22-2.82-1.7-5.98-1.72-9.04-.03-5.67,1.66-12.99,7.31-15.63,1.88-.88,3.92-1.54,5.47-2.92,1.97-1.75,2.86-4.43,3.19-7.04,.5-4.02-.23-8.32-2.67-11.56Z"/><path class="cls-10" d="M41.19-5.73c.1,5.96,1.44,11.85,3.71,17.35,1.44,3.48,4.56,12.54,9.27,12.39,1.2-.04,2.37-.69,3.03-1.69,.64-.97,.8-2.19,.67-3.34-.31-2.88-1.92-5.74-2.62-8.61s-1.2-5.76-1.35-8.69c-.25-4.87,.43-11.1,5.43-13.42-1.5-4.22-2.01-9.6-2.01-12.71,.64-5.1,3.18-9.04,6.94-11.63-8.37,3.44-16.81,9.5-21.48,17.93-1.1,4.05-1.67,8.2-1.6,12.42Z"/><path class="cls-25" d="M47.52,12.34c.87,1.84,1.94,3.54,3.22,5.07,.62,.14,1.24-.4,1.4-1.02s0-1.27-.16-1.89c-1.36-5.05-3.05-10.07-3.38-15.29-.24-3.76,.3-7.74,2.11-11.09,.47-.87,7.03-6.99,7.12-6.39-.34-2.35-.48-4.56-.48-6.17,.46-3.69,1.94-6.77,4.14-9.17-4.2,2.51-8.06,5.63-10.88,9.67-6.58,9.42-8.33,25.23-3.07,36.28Z"/><path class="cls-5" d="M63.17-2.42s-2.21,7.69-18.29,3.86C37.04-.43,24.44-7.34,24.44-7.34"/><path class="cls-5" d="M61.66,6.88s2.48,7.93-12.83,6.94c-7.46-.48-24.65-4.4-24.65-4.4"/><path class="cls-4" d="M56.92,2.11c-2.72,.6-6.58,.63-12.04-.67C37.04-.43,24.44-7.34,24.44-7.34"/><path class="cls-4" d="M57.87,12.95c-1.94,.73-4.81,1.14-9.04,.87-7.46-.48-24.65-4.4-24.65-4.4"/></g><g id="bighorn2"><path class="cls-23" d="M95.24,48.49c.25,.47,.45,.95,.64,1.43,1.29-.94,2.3-2.41,3.4-3.67,1.52-1.74,3.51-3.08,5.77-3.65,1.89-.48,3.7-.34,5.34,.26-.98-1.47-2.23-2.75-3.64-3.71-8.15-5.57-34.77-13.17-41.42-21.04-.27-.32-.52-.66-.76-1.01-2.88-.25-5.71-1.17-8.16-.79-.11,.38-.29,.75-.56,.98-1.04,.89-2.17,1.71-3.06,2.77-.2,.29-.39,.59-.53,.91-.14,.32-.42,.57-.73,.75-.7,2.59-.46,5.46,.58,8.08,.98,1.3,1.86,2.3,2.55,2.89,4.8,4.14,29.59,8.57,35.73,11.27,2.15,.95,3.76,2.47,4.87,4.53Z"/><path class="cls-10" d="M51.97,23.44c-.22-.24-.45-.47-.67-.72,.36-2.06,1.27-3.99,2.84-5.56,.97-.65,2.04-.9,3.18-.94,.19,.26,.41,.5,.61,.74-1.4,.51-2.68,1.38-3.74,2.57-1.05,1.18-1.78,2.51-2.23,3.9Zm56.09,16.74c-1.99-.81-4.03-1.52-6.08-2.19-.47,.07-.94,.19-1.39,.37-1.8,.75-3.34,2.45-4.12,4.55-.71,1.91-.84,4.15-.4,6.5l-.37,.07c.69,1.67,1.06,3.39,2.57,4.63,1.43,1.18,3.26,1.77,5.08,2.11,1.55,.29,3.16,.41,4.69,.02,1.52-.39,2.96-1.36,3.63-2.78,2.17-4.63,.03-10.04-3.61-13.28Zm-40.91-8.85c.16-2.24,1.09-4.2,2.64-5.54,.04-.04,.09-.07,.13-.1-3.96-2.02-8.17-4.48-11.25-7.83-1.38,.42-2.65,1.23-3.68,2.4-1.09,1.23-1.81,2.65-2.18,4.1,2.33,2.44,4.92,4.59,7.89,6.3,2.12,1.22,4.34,2.19,6.6,3.04-.15-.76-.21-1.55-.15-2.37Zm28.32,11.22c.89-2.4,2.6-4.27,4.69-5.15-1.1-.36-2.21-.72-3.31-1.08-8.81-2.94-17.52-5.93-25.85-10.07-.17,.12-.35,.22-.52,.36-1.33,1.15-2.14,2.85-2.27,4.8-.07,.97,.04,1.9,.3,2.75,4.68,1.66,9.54,2.85,14.24,4.48,4.21,1.46,9.83,3.71,12.03,7.9,.02-1.41,.24-2.77,.69-3.99Z"/><g><path class="cls-25" d="M109.21,46.84c-.82-4.01-4.54-6.82-8.4-8.18-.16-.06-.33-.1-.5-.16-1.64,.78-3.03,2.34-3.78,4.26,.6,.43,1.2,.88,1.77,1.41,.51,.48,1.04,.99,1.71,1.17,.63,.17,1.29,.03,1.93-.05,2.5-.33,5.11,.23,7.26,1.55Z"/><path class="cls-25" d="M61.8,22.05c-1.03-.98-1.98-2.1-3.64-1.84-2.06,.32-2.56,1.92-.91,3.3,3.07,2.57,6.58,4.41,10.23,5.94,.27-.92,.68-1.76,1.22-2.5-2.53-1.34-4.76-2.85-6.91-4.9Z"/><path class="cls-25" d="M87.98,38.16c2.62,1.48,5.22,2.45,7.66,3.98,.72-1.73,1.88-3.15,3.29-4.09-4.18-1.19-8.47-1.61-12.49-3.46-5.05-2.33-10.32-4.13-15.37-6.48-.48-.22-.94-.45-1.4-.67-.55,.69-.95,1.51-1.2,2.4,3.33,1.34,6.77,2.47,10.11,3.7,3.43,1.26,6.27,2.85,9.39,4.61Z"/></g></g><g id="bighorn1"><path class="cls-23" d="M111.43,50.23c-.08-.16-.19-.31-.29-.46-.27,.11-.55,.18-.8,.15-.45-.05-.9-.1-1.34-.23-.46-.13-.9-.32-1.34-.51-.62-.26-1.22-.58-1.79-.93-.6-.36-1.18-.75-1.75-1.15-1.8,0-3.52,.29-4.68,.76-.09,.04-.17,.09-.26,.13,.12,.35,.2,.7,.23,1.13,.04,.61-.13,1.15-.38,1.69-.41,.86-1.25,1.39-2.12,1.7-.59,.21-1.27,.28-1.9,.25-.01,.01-.02,.02-.03,.04-.37,.4-1.07,.69-1.62,.67-.53-.02-1.01-.2-1.53-.27,.02,0,.03,0,.05,0-.21-.05-.4-.13-.59-.23-.65,.29-1.31,.56-1.98,.8,0,.06,.02,.11,.02,.17v.2c0,.41-.11,.8-.31,1.15-.12,.15-.24,.31-.36,.46-.28,.28-.62,.48-1.01,.59-.2,.03-.4,.05-.61,.08-.31,.01-.61-.05-.88-.2-.28-.09-.53-.25-.74-.47-.2-.19-.34-.41-.43-.65-2.63,.69-5.31,1.24-7.92,1.89,.05-3.46-.18-3.72-.9-5.37-1.09-2.53-.78-2.06-1.95-2.63-1.18-.56-4.13-.11-4.29,.74s.53,5.61,.93,6.49c.3,.67,2.31,5.94,3.24,8.41-.53,.99-1.51-.69-.42,.88,.49,.7,2.8,.08,3.43-.02,4.13-.7,8.2-1.86,12.23-3.01,4.6-1.3,9.18-2.7,13.73-4.18,1.66-.54,3.32-1.09,4.97-1.67,1.03-.36,1.53-.74,2.23-1.62,1.04-1.3,1.96-3.16,1.14-4.8Z"/><g><path class="cls-10" d="M91.29,53.82c.52,.52,.9,1.26,1.14,2.21,.3,1.18,.33,2.42,.12,3.62,4.14-.95,8.26-1.98,12.3-3.26,.52-.16,1.09-.34,1.67-.53,.13-.86,.08-1.83-.18-2.91-.19-.82-.43-1.44-.76-1.97-.41-.68-1.03-1.3-1.93-1.96-.73-.53-1.32-.84-1.9-.99-1.08-.28-2.21-.06-3.36,.38-.92,.56-1.76,1.28-2.62,1.94-1.61,1.24-3.36,2.18-5.19,2.95,.25,.15,.48,.32,.7,.53Z"/><path class="cls-10" d="M111.41,50.24c-.06-.26-.16-.52-.29-.78-.37-.76-1-1.36-1.71-1.83-1.25-.83-2.75-1.24-4.25-1.21-.4,0-1.94,0-2.17,.41-.32,.56,.96,1.09,1.29,1.33,1.02,.74,1.72,1.46,2.21,2.27,.38,.63,.66,1.35,.88,2.28,.24,.99,.31,1.9,.25,2.75,2.1-.86,4.36-2.81,3.77-5.21Z"/><path class="cls-10" d="M91.39,59.92c.29-1.18,.31-2.44,.01-3.62-.19-.76-.49-1.34-.87-1.72-.36-.36-.83-.57-1.37-.73-1.37,.49-2.77,.91-4.18,1.28,1.54,1.57,2.71,3.58,2.85,5.59,1.15-.26,2.3-.51,3.44-.77,.04,0,.08-.02,.12-.03Z"/></g></g><g id="head"><path class="cls-26" d="M76.39,72.26c-.4-.4-.79-.8-1.19-1.2,.24-3.65,.85-7.29,.67-10.95-.21-4.34-2.4-10.96-7.02-12.24-4.62-1.28-15.48-3.3-20.9,5.24-6.11,9.64-.14,24.03,7.35,32.58,1.24,1.42,5.26,3.81,6.94,4.59,4.88,2.28,11.35-.86,12.8-6.21,.51-1.87,.46-3.81,.32-5.76,.65-.26,1.29-.56,1.87-.74,.3-.09,3.14-1.25,3.34-1.05-1.4-1.42-2.8-2.84-4.2-4.25Z"/><path class="cls-22" d="M80.34,71.82l-4.99,2.26c-1.21,.55-2.24-.1-2.3-1.43l-.36-7.66c-.06-1.34,.86-2.87,2.07-3.41l4.99-2.26c1.21-.55,2.24,.1,2.3,1.43l.36,7.66c.06,1.34-.86,2.87-2.07,3.41Z"/><path class="cls-22" d="M50.85,79.53c-4.48-7.43-7.09-16.64-4.15-23.93,.76-.02,1.47-.45,1.96-1.12,1.36-1.86,4.88-3.45,7.94-3.65-.81,.75-1.6,1.52-2.31,2.36-1.62,1.9-2.65,4.09-3.15,6.54-1.14,5.49-2.28,12.78,3.63,15.93,.2,.11,.41,.18,.61,.23-.39,.47-.82,.91-1.26,1.32-.22,.2-.44,.4-.67,.59-.14,.11-.28,.22-.41,.34,.42-.35-.04,.02-.1,.07-.51,.38-1.05,.73-1.59,1.06-.16,.09-.32,.17-.48,.26Zm8.21-.81c-.22,.28-.44,.56-.67,.83-1.39,1.57-3.1,2.82-4.94,3.82,.61,.81,1.23,1.59,1.87,2.32,1.24,1.42,5.26,3.81,6.94,4.59,.27,.13,.55,.23,.82,.32-1.92-3.73-3.23-7.75-4.02-11.89Z"/><path class="cls-13" d="M54.78,66.88c-.03,.75,0,1.44,.15,2.08,.29-1.09,.56-2.17,.89-3.23,0-.05-.02-.1-.02-.15-.32,.01-.63-.04-.93-.16-.04,.49-.07,.98-.09,1.46Z"/><g><path class="cls-23" d="M57.5,77.94c1.27-1.59,1.71-4.44,.95-7.65-1.13-4.81-4.5-8.59-7.53-8.44-.95,.05-2.62,1.12-3.24,1.84l-1.87,1.24,.6,1.66c-.26,1.41-.2,3.09,.22,4.88,.61,2.57,1.86,4.85,3.35,6.39l1.07,1.52,1.42,2.22,3.04-2.05c.43-.23,.81-.55,1.13-.95h0l.86-.64Z"/><ellipse class="cls-10" cx="49.24" cy="73.26" rx="5.34" ry="9.03" transform="translate(-21.26 20.14) rotate(-19.1)"/><g><path class="cls-10" d="M68.8,45.58c-3.7,.13-7.78,1.49-12.06,3.51-4.57,2.15-7.4,6.86-7.15,11.93l.11,2.29,.02,.02c2.18-.07,4.52,1.73,6.13,4.46l-.15-2.87c-.26-5.04,2.52-9.74,7.05-11.91,4.32-2.07,7.77-4.01,12.57-4.42l-6.53-3Z"/><path class="cls-25" d="M55.19,49.97c-1.63,1.08-2.96,2.51-3.92,4.17l5.38,2.39c.69-1.41,1.68-2.51,3.1-3.14l-4.56-3.42Z"/><path class="cls-23" d="M55.37,69.9l-.23-4.51c-.27-5.27,2.62-10.14,7.36-12.41,.51-.25,1.01-.49,1.5-.73,3.72-1.81,6.93-3.38,11.26-3.74l.1,1.06c-4.13,.35-7.25,1.87-10.86,3.63-.49,.24-.99,.48-1.51,.73-4.34,2.09-6.99,6.56-6.74,11.41l.23,4.51-1.1,.05Z"/></g><path class="cls-25" d="M54.3,66.14c.2,.52-2.44,1.03-2.44,1.03l-1.48,5.41-.4,.14c-2.27,.79-4.74-.42-5.51-2.7-.29-.86-.53-1.87-.72-3.06,0,0,.19-.78,2.06-2.03,1.87-1.24,3.42-2.44,3.42-2.44l.49,.84s3.56,.24,4.57,2.81Z"/></g><path class="cls-22" d="M68.72,76.78l-4.99,2.26c-1.21,.55-2.24-.1-2.3-1.43l-.36-7.66c-.06-1.34,.86-2.87,2.07-3.41l4.99-2.26c1.21-.55,2.24,.1,2.3,1.43l.36,7.66c.06,1.34-.86,2.87-2.07,3.41Z"/><path class="cls-15" d="M63.62,68.57c.74-.97,2.32-1,3.02-2,.08-.11,.15-.24,.16-.39,.02-.27-.19-.51-.43-.62s-.53-.1-.79-.07c-1.61,.17-4.16,1.37-4.4,3.21-.07,.52,.24,2.17,.9,2.3,1.01,.2,1.09-1.84,1.55-2.44Z"/><path class="cls-15" d="M77.48,61.93c-.93,.19-1.7,.89-2.19,1.71s-.75,1.75-1.01,2.67c-.57,.04-1.11-.36-1.37-.87-.49-.96-.1-2.19,.64-2.98s1.77-1.23,2.77-1.65c.3-.13,.62-.26,.95-.25s.68,.2,.76,.52-.24,.7-.55,.6"/><polygon class="cls-3" points="68.2 73.13 64.92 74.49 64.92 70.11 68.2 68.76 68.2 73.13"/><polygon class="cls-3" points="78.32 69.23 75.05 70.59 75.05 66.21 78.32 64.86 78.32 69.23"/><polygon class="cls-26" points="80.59 76.52 71.87 68.26 72.17 78.72 80.59 76.52"/></g></g><g id="bighorn4"><path class="cls-10" d="M154.73-19.48c-.94-19.94-10.91-35.65-22.26-35.1-6.43,.31-11.92,5.77-15.31,14.07-1.67,1.78-3.55,2.83-5.31,3.16-7.02,1.31-26.24-3.97-39.01-1.37-8.17,1.66-14.62,3.95-17.82,12.43-1.67,4.42-1.52,9.63,.95,13.66,.85,1.38,1.84,2.44,2.94,3.27,.52,.05,1.04,.12,1.55,.2,2.79-.21,5.61,.05,7.89,1.59,.89,.14,1.79,.25,2.69,.27,4.12,.11,8.13-1.3,11.94,.79,6.05,.26,12.13,.85,17.98,2.2,7.05,1.89,17.56,10.36,24.38,17.57,3.17,2.93,6.76,4.52,10.51,4.34,11.35-.55,19.8-17.16,18.86-37.1Z"/><path class="cls-25" d="M135.64-4.86c-2.41-.54-4.91-.39-7.37-.53-1.72-.1-5.53-1.92-7.07-1.17-.12,.06-.21,.13-.31,.2,.53,4.6,1.84,8.73,3.68,12,.52,.53,1.06,1.04,1.62,1.53,1.56,1.35,3.36,2.55,5.4,2.84,2.42,.34,4.88-.67,6.77-2.22,2.46-2.02,4.16-5.45,2.99-8.41-.91-2.29-3.3-3.69-5.71-4.23Z"/><path class="cls-23" d="M122.52,10.41c-.94-1.77-1.76-3.61-2.56-5.46-.9-.84-1.8-1.69-2.68-2.52-4.48-4.2-9.47-7.56-15.26-9.7-3.89-1.44-7.88-2.38-11.94-2.93-1.83-2.74-3.04-6.32-3.56-9.7-.92-5.95,.44-12.01,3.53-15.8,1.16-1.42,2.47-2.39,3.87-2.89-.66-.07-1.32-.15-1.98-.22-.97,.6-1.88,1.41-2.71,2.43-3.27,4.02-4.71,10.39-3.75,16.63,.49,3.22,1.61,6.61,3.28,9.38-2.14-.24-4.3-.39-6.48-.43-5.78-.11-11.48,.4-17.23,.72-.04,0-.08,0-.12,0-1.85-1.92-3.34-4.71-4.49-8.45-1.43-4.65-.97-10.25,1.17-14.28,.77-1.45,1.71-2.6,2.77-3.44-1.02,.45-1.97,.97-2.88,1.57-.3,.43-.58,.88-.84,1.37-2.27,4.27-2.76,10.19-1.25,15.1,1.07,3.48,2.43,6.19,4.11,8.19-1.86,.06-3.83,.01-5.72-.33,4.67,4.62,11.91,3.58,18.25,3.65,5.8,.07,11.73,.31,17.54,1.08,.6,.08,1.2,.16,1.79,.25h0c1.89,.29,3.77,.63,5.62,1.06,6.13,1.64,14.88,8.26,21.54,14.7Z"/><path class="cls-23" d="M151.98-19.56c-.83-17.65-8.72-31.6-17.63-31.17-8.9,.43-15.44,15.09-14.61,32.74,.13,2.67,.42,5.25,.84,7.72,.45-3.04,1.15-5.96,2.04-8.29,.29-.77,.76-1.64,1.58-1.72,.51-.05,.98,.23,1.42,.49,3.83,2.22,9.09,2.94,12.45,.06,1.85-1.58,3.42-4.27,5.83-3.89,1.31,.2,2.27,1.32,2.96,2.45,2.16,3.57,2.73,7.94,2.22,12.07-.51,4.14-2.04,8.08-3.85,11.84-2.19,4.56-5.44,9.37-10.42,10.17,.84,.22,1.69,.32,2.56,.27,8.9-.43,15.44-15.09,14.61-32.74Z"/><path class="cls-2" d="M122.24-2.32l10.62,2.59c4.85,1.18,8.36,5.57,8.6,10.74l.98,19.69"/></g><g id="headphones_antenna"><line class="cls-2" x1="48.68" y1="72.35" x2="46.96" y2="37.56"/><ellipse class="cls-24" cx="46.98" cy="37.98" rx="1.45" ry="1.51" transform="translate(-1.14 1.46) rotate(-1.76)"/><ellipse class="cls-24" cx="48.5" cy="72.77" rx="2.06" ry="2.29"/></g></g></g></g></svg>