<svg xmlns="http://www.w3.org/2000/svg" xmlns:xlink="http://www.w3.org/1999/xlink" viewBox="0 0 225.32 66.06">
  <defs>
    <style>
      .cls-1 {
        fill: none;
      }

      .cls-2 {
        clip-path: url(#clip-path);
      }

      .cls-3 {
        opacity: 0.25;
      }

      .cls-4 {
        fill: #63514b;
      }

      .cls-5 {
        clip-path: url(#clip-path-2);
      }

      .cls-6 {
        fill: #ffd255;
        stroke: url(#linear-gradient);
      }

      .cls-6, .cls-7 {
        stroke-miterlimit: 10;
      }

      .cls-7 {
        stroke: #ffd255;
        opacity: 0.5;
        fill: url(#linear-gradient-2);
      }

      .cls-8 {
        fill: #5e5e5e;
      }
    </style>
    <clipPath id="clip-path">
      <rect class="cls-1" x="468.59" y="209.63" width="269.77" height="158.23" rx="8"/>
    </clipPath>
    <clipPath id="clip-path-2">
      <rect class="cls-1" x="468.59" y="-192.52" width="269.77" height="158.23" rx="8"/>
    </clipPath>
    <linearGradient id="linear-gradient" y1="31.25" x2="221.76" y2="31.25" gradientUnits="userSpaceOnUse">
      <stop offset="0" stop-color="#726144"/>
      <stop offset="0.28" stop-color="#ffd255"/>
      <stop offset="0.51" stop-color="#ffe49b"/>
      <stop offset="0.74" stop-color="#ffd255"/>
      <stop offset="1" stop-color="#726144"/>
    </linearGradient>
    <linearGradient id="linear-gradient-2" x1="0.5" y1="31.25" x2="221.26" y2="31.25" xlink:href="#linear-gradient"/>
  </defs>
  <g id="Layer_1" data-name="Layer 1">
    <g class="cls-2">
      <g class="cls-3">
        <path class="cls-4" d="M213.12,6.2l4.92,0c7.14-.08,13.73-2.27,21-1.54,19,1.46,37.33.73,56.56.76,1.6,0,3.2,0,4.8,0,15.95.1,31.71.72,47.17.72q11.46,0,22.91,0l4.58,0c13.28,0,26.45-1.41,39.56-.83,1.65,0,3.32,0,5-.07,26.73-.51,53.32-.5,79.83-.48l5.23-.06Q523,4.4,541.36,4.27l5.24,0c7.17-.32,13.75-.32,20.94-.09h5.24c33.17,0,66.33.28,99.5,1.28,1.85.11,3.6.11,5.33.09,10.9-.12,21.63-.14,32.46-.12,1.6,0,3.19,0,4.89,0A393.6,393.6,0,0,1,767.1,3.19c1.68,0,3.34.06,5.08.11,42,2.46,84.42,2.15,126.79,2.22h5.1c6.83-.16,13.41-.16,20.31.1l5.08,0,5.26.07V3.14c-13.8-1-27.57.68-41.17-.12l-5.11,0c-39-.28-77.93-.29-117-1.15l-5-.06q-7.18-.06-14.33-.06c-12.44,0-25.61,2.2-38.08,2.2l-4.43,0q-15.17-.1-30.23-.1h-4.78q-48.08-.41-96.33-.36h-5.36c-12.53-.25-25-.25-37.53.08l-5.36,0-10.73,0-5.36,0c-31,.24-61.78-.16-92.72.25-1.62,0-3.25,0-4.83,0-14.07-.71-28,.75-41.68.65-1.42,0-2.84-.07-4.26-.17-7.1-.54-14.29-2.09-22-1.42C332.44,5.44,316.8,4.81,301.23,4.2L296.56,4c-21.62.62-42.84-2.31-64.79-1.57-6.59,0-13.18,2.19-20,1.43-1.53,0-3.08,0-4.63,0H202.9V6.19l5.28,0Z"/>
        <path class="cls-4" d="M228,16.39l4,0h4.06c16.9-.07,33.73-.07,50.92-.13l5.07,0q55.74.18,111.7.42l5.3,0c36.2,1.06,71.88-4,107.57-4.06.15-1.44.3-2.93-1.67-2.93a694.14,694.14,0,0,1-101.43,6c-1.35,0-2.7-.11-4.05-.2s-2.69-.2-4-.34L400,15.14c-36.17-.43-72.36-.94-108.61-1.07l-5.2,0c-18.55.1-36.85.1-55.11.49l-4.06.08-5.59.13-5.58.15-5.54.17-5.53.19-1.87.08v1.24l19.73-.17Z"/>
        <path class="cls-4" d="M225.86,21.36c15.51.56,31.19.46,46.94.16l5.62-.11c36-.16,71.51-2.54,107.84-1.75l15.88.29,5.35.08c30.65-1.48,60.66,1.44,92.12-3,.91-.26,1.84-.51,2.77-.74-29.79.5-59.16,4.2-89,2.87l-2.92,0c-2.66-.09-5.31-.2-8-.31-43.29-1.6-88.12,1.59-132,.65-1.61,0-3.45,0-5.3.05-.92,0-1.87,0-2.94.05s-2.23.06-3.58.12c-10.73.72-21.55,1.51-32.7.49-1.36,0-3.21,0-5.05.06-6,.12-12,.28-18,.43v.74l18.39-.14C223.1,21.3,224.86,21.29,225.86,21.36Z"/>
        <path class="cls-4" d="M856.7,30.28h-5.12c-5.07,0-10.14,0-15.21,0l-5.08,0c-15.53-4.5-30.9-.11-47-.84-2.19-.73-3.66-2.19-5.85-2.19-18.3,0-37.33,0-55.49,2.67l-2.8.13-2.8.14q-7.9.15-15.81.38l-7.41.14-7.41.16h-10.1c-1.46,0-2.91,0-4.39,0q-5.19-.2-10.38-.35l-5.19-.14c-15.07-1.65-31.17-.19-46.54-1.65-8.78-1.46-18.3-3.66-27.81-2.19l-4.87.91c-20.42,5.2-41.16,3.76-61.57,3a39.9,39.9,0,0,1-4.23-.31c-38.37-2.91-75.69-2.91-113.41-1.16-1.57,0-3.14-.11-4.69-.18-2.61-.1-5.75.46-8.46-.4-2.7.85-5.82.29-8.24.29-3.26.11-6.43.21-9.62.29-28.65.71-57.67.36-86.35,1.39l-5.5.12c-18.34.46-36.67,1.2-55.12,2.44a9.79,9.79,0,0,0,2.14.16c-.77,2.39-4.64.8-5.41,3.19,19.29-.68,38.73-1.35,58.16-2l5.41-.16c28.31-.87,56.74-.5,85.19-2.51,1.59-.12,3.17-.23,4.75-.36,5.45-.4,9.84-1.14,15-1.14-.73,0-1.46-.73-2.2-.73,2.93-.73,6.59.73,9.71.69,1.47.15,3,.28,4.53.4,15,1.84,29.67-2.55,45-1.82,23.42,2.2,46.11,2.93,68.84,3.84,1.66,0,3.4,0,5.13,0,20.82-.3,41.62-1.29,62.36-3.51,1.62-.06,3.22-.06,4.82,0,3.2.05,6.4.2,9.61.47,19,1.47,38.05.73,58,2.81,1.7,0,3.44,0,5.19.06,5.23,0,10.48.11,15.72.19h4.36l4.36,0,5.74,0h11.74c4.63.14,9.29.1,14,0l4.68-.14c1.35-.1,2.71-.18,4.07-.25s2.91-.25,4.43-.4c17.72-1.58,35.28-3.77,52.85-2.31,2.19,0,5.12,1.47,7.32,2.2,13.9.73,27.07-1.47,40.93,1.68,1.41.16,3.11.22,4.82.27,34.69,1,69.44,1.54,103.21-2V29.07c-24.32,1.19-48.77,1.19-72.9,1.21Z"/>
        <path class="cls-4" d="M217.77,32.92c.24-2.75,3.88-.57,4.76-2.08a17.31,17.31,0,0,0-3.72-.17l-15.91.07v1.84c3.86.06,7.73.14,11.59.25Z"/>
        <path class="cls-4" d="M217.77,32.92c0,.09,0,.17,0,.27l2.5-.16L220,33Z"/>
        <path class="cls-4" d="M261.18,40.26l4.92,0q10.81.26,21.63.27,25.33-.81,50.61-1.12,24.2-1.12,48.37-3.31l4.68.15,5.22.14c31.29-2.51,62.75-.31,94.34,1.47l5.22.24q7.92.36,15.88.91c3.66.73,8.05-.74,12.45-1.47q3.19-.34,6.34-.49c-7.29.05-14.54,0-21.71-.24l-5.21-.09c-33.58.82-66.51-6.5-99.14-2-1.06,0-2,0-3.23,0q-9.17-.35-18.3-.83c.74,0,1.47.74,2.2.74-19.76.73-38.79,2.19-58.76,2.12l-5.08.12-5.07.12c-3.54-.17-6.47-.9-10.14.22l-5.1.1-5.1.09-5.1.08c-8.11.07-16.89.07-25.3.3l-4.87.07c-12.9.2-25.83.58-38.82,1.36-1.26,1.25-3.45-.08-4.24,1h1.84a12.65,12.65,0,0,0,1.43.13C234.44,40.12,247.79,40.18,261.18,40.26Z"/>
        <path class="cls-4" d="M222.67,38.32a28.09,28.09,0,0,0-3.61-.12H218a1.78,1.78,0,0,0-1,1.35q2.57-.18,5.13-.33A2.4,2.4,0,0,0,222.67,38.32Z"/>
        <path class="cls-4" d="M222.39,37.17s-.77-.79-.49-.48c-.94-.1-2.67-.11-4.4-.13q-7.31-.06-14.6-.09v1.81L218,38.21C219.43,37.59,221.8,39,222.39,37.17Z"/>
        <path class="cls-4" d="M219.7,41.9l1.32,0a4.74,4.74,0,0,0,2.14-1.57c-.47,0-1.24,0-2,0a12.65,12.65,0,0,1-1.43-.13h-5.37l-11.44.06v1.58l11.7.06Z"/>
        <path class="cls-4" d="M221,41.93l-.18,0L224,42l0,0C223.35,42,222.32,42,221,41.93Z"/>
        <path class="cls-4" d="M827.59,38.55l-5.24.08c-22,1.14-43.91-.33-65.87-1.79-11.71-.73-23.42.73-34.76,1.57-1.23,0-2.44,0-3.64-.07q-8.83-.35-17.67-.91c-1.78-.33-3.4-.68-4.95-1-9.26-2.05-18,1.16-26.58,3.12-1.06-.24-2.12-.44-3.18-.61l-1-.14-.1,0-2.4-.3a95.13,95.13,0,0,0-18.8-.26l-4.71.34c-17.6,2.72-35.17-.94-52.73-.94-1.6,0-3.21,0-4.86.13-23,3.53-45.64-3.05-68.32,3.53-7.32,1.83-14.64.52-22-.73l-4.33-.72c-3,0-5.91-1.48-8.84-.74.73,0,.73.73,1.46.73a443.4,443.4,0,0,0-83.39-.62h-5.21q-26.08,0-52.18.29-25.27.33-50.61,1.12-13.68.45-27.38,1l-4.92.13C245,42,234.49,42.12,224,42c.72.79,0,1.56-.8,1.56,11.62-.66,23.25-.84,34.87-.8l5.1,0c42.75,1.7,85.47-.73,128.17-2.19l5.12-.18c27.08-2.83,54.89-3.56,82,.1h-.73c2.93,0,5.12,1.46,7.68,1.09,1.28.24,2.56.51,3.85.77,6.4,1.34,12.8,2.71,19.21,1.8,19.75-2.2,38.05-3.66,57.81-2.2,5.12.74,10.24-1.46,15.63-2.16a35.31,35.31,0,0,1,4,.13c10.55.87,21.19,3.81,32.22,2.12l5-.21,5-.24,5-.25,2.79-.15,2.8-.16a150.66,150.66,0,0,1,17.92-.63c1.09,0,2.18.08,3.28.15a60.23,60.23,0,0,1,9.2,1.22c8-2,15.92-3.7,23.27-3,1.61.26,3.22.49,4.88.71q10.66.36,21.37.67c1.48,0,3,0,4.5,0,31.9-4.74,63.37,1.84,95.52.42H824c36.91-.07,73.84-.44,110.77-1.63v-.4C899.14,37.18,863.42,37.88,827.59,38.55Z"/>
        <path class="cls-4" d="M227.74,49.91c8.85,1.39,17,1,25.8.44l3.85-.21c47.33-1.31,94.9-1.65,142.44-1.56l5.43,0c17.51-1.46,35.08,0,52.68.28,1.73,0,3.49.05,5.24.06q23.74.18,47.41.39A66.55,66.55,0,0,0,520.93,49c-4.71,0-9.38-.12-14-.4-14.25-.76-28.53-1.22-42.82-1.46-1.79,0-3.55-.07-5.24-.15-20-2-39.76.15-59.16.21l-5.37.08c-44.76.65-89.57,1.91-134.21.86-1.48,0-2.93.09-4.38.17-9.8.58-19.39,2.15-29.83.14-1.47,0-3.12,0-4.78,0-6.07,0-12.15,0-18.24,0v2.52c6.95-.07,13.9-.73,20.84-1C225.08,49.93,226.42,49.91,227.74,49.91Z"/>
        <path class="cls-4" d="M247.64,59.71h5.27c46.18,3.47,90.83-5.32,136.93-1.66a61.54,61.54,0,0,0,12.53-.86c1.4-.21,2.8-.45,4.2-.69a140.15,140.15,0,0,1,15.19-2.23,103.57,103.57,0,0,0-10.4-.45c-1.6,0-3.19,0-4.79,0-11,0-22.29.84-33.56,1.36-38.79,0-76.84,2.92-115.64,2.62l-5.1.1c-16.52.39-33,1-49.37.48v1.23C217.77,59.58,232.71,59.67,247.64,59.71Z"/>
        <path class="cls-4" d="M230.3,63.19c2.62.93,5.19,1.77,7.75,2.49-5.53-2.09-11.14-4.45-17.26-3.23-6.41,1.38-12,3.9-17.89,5v1.78a8.38,8.38,0,0,0,4.72-.93C214.93,64.65,222.25,61,230.3,63.19Z"/>
        <path class="cls-4" d="M926.18,72.77c-22.6-.8-45.29,2.13-68-.07.73-.73,2.19-.73,2.92-.73-21.22-.73-42.44-4.39-64.4-1.47-5.12,0-11,1.47-16.1,1.47-1.63.07-3.26.12-4.89.17s-3.27.09-4.82.09c-16.63-.26-32.73-.26-49.41-.16l-5,0c-14.84-.09-29.67.08-44.41,1.19-1.88,0-3.64.07-5.39.08q-9.18,0-18.4-.21a4.94,4.94,0,0,1,1.49.7q-3.29-.45-6.58-.78l-1.15,0,.73,0c-33.22-3.35-66.45.76-99.67,0h1.54c-22.41,0-44.05-1.59-66.84-.86l-5.33,0-10.73,0c-1.78,0-3.68,0-6.91,0-8.72.07-17.22.1-25.8.11-1.42,0-2.86,0-4.22,0-1-.05-2-.08-3-.12-5.76,2-12.2-1.43-18,.62-6.93-.09-13.86-.33-20.79-1.07-1.32-.15-2.64-.3-3.9-.5-10.59-3.5-20.84.89-30.35,1.62-26,3.25-51.46.72-76.84.12q-2.38-.06-4.77-.09l-3.33,0c-13.16.72-25.58-3.66-38.74-6.59-6-1.08-9.93,3.47-14.5,6,16.74-6.8,34.79.88,52.29,3.52-.48-.15-.57-.68-1.2-.68,3.66,0,6.59,0,10.28.13,1.59-.07,3.17-.12,4.75-.17,30.05-.81,59.38,2.7,90.35-3.62,3.66-.74,7.32.73,11,1.46,1.56.27,3.1.5,4.63.69,10.47,1.3,20.54.8,31.11.78,1.16,0,2.28,0,3.39,0a28.61,28.61,0,0,1,4.05.7,7.86,7.86,0,0,0-1.8-.63c1.52.06,3.06.16,4.7.32h4.41q13.2,0,26.35.15h7l5.4,0q2.71,0,5.43,0c2.39-.19,4.71-.19,7-.19h63.39c34.17,0,67.63.73,101.74.79a30.07,30.07,0,0,0-5.12-.79q12.6.26,25.21.32c1.77,0,3.54,0,5.39-.06a445.63,445.63,0,0,1,47-1.54c1.75,0,3.49,0,5.24.06,15.6.07,31.7.07,47.35.33,1.71,0,3.47,0,5.23-.1,10.57-.31,21.17-1,31.81-2.35,18.29-2.93,35.86,2.92,53.42,2.19-1.46.73-2.19,1.47-3.66,1.47,22,2.19,43.91-.74,66,.53,1.67,0,3.34,0,5,0,2.34,0,4.68-.1,7-.2V72.5l-4,.13ZM414.9,74c-1.08,0-2.13.13-3.1.13h-8.05C407.46,74.16,411.18,73.87,414.9,74Z"/>
      </g>
    </g>
    <g class="cls-5">
      <g class="cls-3">
        <path class="cls-4" d="M229.75-5.08l-3.84-.17c-1.94,0-3.9.11-5.88.29-5.59.5-11.33,1.59-17.13,2.58V.26c7.25-.31,14.48-1,21.55-4A17.31,17.31,0,0,1,229.75-5.08Z"/>
        <path class="cls-4" d="M210.05,2.39c6.35.41,10.74-5.44,16.59-4.71,32.78,2.32,65.4,3.44,98,3.88l5.14.06,5.14,0,5.14.05,5.14,0,5.14,0c6.6.3,12.45-2.63,19-1.89,19.59.81,39.42.72,59.18.55C444.2.29,459.83.11,475.29.29l4.55-.11L484.4.06l4.54-.16,4.53-.17c1.51,0,3.07-.1,5.31-.13l3.79.06c12,.2,23.91.22,35.83.22C537.68-.84,537-1.55,536-1.39c.26.21.43.53.92.53H521.62q-12.12,0-24.33-.08c-1.84,0-3.34.1-4.83.16L488-.63l-4.46.13L479-.64c-1.51,0-3-.06-4.54-.07-32.7-1.61-66.36.59-99.3-.15-6.27-.27-12.43,0-18.59.31C346.68,0,336.77.86,326.52.34L325.15.27,320.07.18,314.38,0q-17.56-.4-35.05-.9H259.2a53.51,53.51,0,0,1-10.45-1.46c-3.91-.86-7.84-1.88-11.64-2.45-.5-.07-1-.14-1.51-.19a28.05,28.05,0,0,0-5.85-.12,17.31,17.31,0,0,0-5.3,1.3c-7.07,3-14.3,3.73-21.55,4V2.79c.91,0,1.83,0,2.76-.09C207.12,2.63,208.6,2.52,210.05,2.39Z"/>
        <path class="cls-4" d="M221.68,11.35c38.63-4.16,77.41-2.69,116.2-2q9.51.36,19.09.56c1.59,0,3.19.07,4.76.08,8.35.09,15.67.09,24,.23,1.67.05,3.28.05,4.88.06h4.7c23.83-.2,47.25-.2,71.5.45q2.16,0,4.29.09l12.63.37,4.22-.49q2.43-.28,4.86-.63c1.62-.22,3.32-.46,6-.7,14.78-1.48,29.41,0,43.32-4.41a10.59,10.59,0,0,1-5.12,1.46c.73,1.47,2.19.73,2.73,1l2.84.37q2.85.36,5.7.68c1.43.16,2.86.3,4.47.43,7.13,1,14,.7,20.8.48l4.79-.13c7.66.83,15-.62,23,.81,13.41-.17,26.18-2.8,39.7.4,1.3.06,3,.11,4.7.17l5.36.15c4.42,0,8.83.15,13.23.35l4.41.21c30.77,2.4,61.51-1.26,92.26-1.33,1.56,0,3.28,0,5-.06l5.18-.08,2.21,0c-2.52-.26-5-.58-7.53-.92-1.33-.18-2.6-.37-3.71-.59-30.44-5.57-61.91,2.48-92.48.39-1.78,0-3.51,0-5.25-.08a206.6,206.6,0,0,1-25.65-2.22C625.69,4.3,614.14,5,601.21,7.8c-8.54-1.29-17.73-.63-26.48-1.3l-3.9-.18c-5.1-.26-10.2-.52-15.39-1-2-.14-3.52-.28-5-.41-2.91-.26-5.82-.47-8.73-.65-14.53,1.45-29.07,2.18-43.35,3.21-2.11.24-3.58.49-4.87.72s-2.6.45-3.9.65-2.61.37-3.93.52h-3.66l.73-.73-4.22-.13-4.23-.1c-38.38.23-75.71-1.24-114.07-.81-1.6,0-3.3,0-5,0C329.84,7,304.52,6.46,279.33,6.46c-20.49,0-41-2.19-61.14,2.43l-4.1.31H210.3c-2.5,0-5,0-7.4,0v1.9q7,.06,13.95.22C218.47,11.31,220.09,11.34,221.68,11.35Z"/>
        <path class="cls-4" d="M236.3,21.85c3.19.45,6.38.81,9.57,1.1,1.08.09,2.16.18,3.33.25,6.81-.25,13.62-.65,20.42-1.1l5.1-.36c12.26-2.81,24.83-3.55,37.45-3.58-18.22-.56-36.37-1.45-54.86,1.23l-5.22.18q-5.28.18-10.57.4l-4.07-.12-4.08-.12-4.69-.07q-12.88-.16-25.78.57v1.63C213.94,20.91,225,20.19,236.3,21.85Z"/>
        <path class="cls-4" d="M202.9,32.4v.24q6.49-.3,13-.54Q209.4,32.19,202.9,32.4Z"/>
        <path class="cls-4" d="M277.86,32.64l5.32-.07c1.75,0,3.49-.06,5.23-.1l5.24-.16c3.25-.23,5.44-.23,8.37-.23h-2.17c4.6-.21,9.27-.17,14,0,1.59.07,3.19.14,4.82.24,10.47,1.25,20.71,4.18,31,3.44,1.62,0,3.24-.12,4.84-.21,23-3.44,46.39-1.25,69.81-2.71,9.51-.73,19-3.66,28.74-4.19l3.21-.09c5.37-.12,10.86-.16,16.36-.4l4.22-.09c10.17-.27,20.22-.87,30.37-1.12l4.4-.08c4.17.11,8.56.11,13.15.13a42.7,42.7,0,0,1,4.7,1.3c1.63.1,3.35.16,5.13.21l4.09.19,4.45.19c12.74-.37,25.16,1.64,37.85,1.46,2.35,0,4.71-.13,7.08-.35l3.54,0q12.68,0,25.42-.57l3.41-.15,1,0,.5,0c.83,0,.73.68.78,1.42a1.66,1.66,0,0,0,.78,1.51l.11.06a20,20,0,0,0,3,.55l3.84,0c48.34-.55,95.81-1.83,143.8-2l7.92,0h4.43a24,24,0,0,1,4.16-.62h.06a4.8,4.8,0,0,0,3.85-2.3c-3.82,1.28-7.09.89-10.77.77-46.19.72-93.08,1.44-139.46,1.84-1.51.09-3,.17-4.45.22s-2.92.09-4.4.08a23.17,23.17,0,0,1-8.35-.25,16.65,16.65,0,0,1-2.64-.87,10.31,10.31,0,0,1-4.36-3.27c-10-.71-19.51,2.22-29.1,2.57-1.36.1-2.73.17-4.08.2-14.87-1.29-29.5-4.94-44.51-3.71-1.22.08-2.44.17-3.67.28s-2.48.25-3.74.42c-1.62.08-3.23.14-4.59.07-1.47-.65-2.93-1.19-4.14-1.63-2.52-1.11-.32-2.57.41-3.3-8.05,1.46-15.37,2.19-23.43,3.29-1.66.24-3.31.46-5,.67-6.61.83-13.25,1.43-19.92,1.69-1.67.06-3.3.1-4.77.11-6.76-.32-13.43-.66-20.06-.62-1.39,0-2.76,0-4.16.07-9.05.64-17.84,2.11-26.62,3.57-24.15,2.93-48.3-1.46-71.74,3.41-1.47.08-2.93.08-4.38,0a96.19,96.19,0,0,1-12.89-1.61L329.47,31c-7.69-1.07-15-2.53-23.07-1.15-1.1.09-2.2.2-3.29.34s-2.19.29-3.28.47c-4.56,0-9.55,0-14.21-.07l-2.21.08-5.9.22c-1.34.06-2.69.11-4,.15l-4.05.13a60.68,60.68,0,0,1-8.16.07c-1.74,0-3.47,0-5.2,0-8.95-.13-17.87-.53-26.76-.85s-17.64-.53-26.4-.3v2.4q6.49-.21,13-.3C236.58,31.82,257.25,32.4,277.86,32.64Z"/>
        <path class="cls-4" d="M248.62,42.15q2.43,0,4.86,0t4.86.09c1.62,0,3.23.1,4.83.16a239.82,239.82,0,0,0,26.4.36c1.47,0,2.91-.12,4.26-.28,6.73-.92,12.58-3.12,18.44-4.58,1.64-.31,3.28-.53,4.89-.68s3.36-.19,5.07-.17l10.25,1.38c-3.16-.5-6.32-1.05-9.47-1.68-1.82-.05-3.58,0-5.34,0a92.62,92.62,0,0,0-25,4.33c-1.49.08-3.1.06-4.72,0-14.57-.4-29.13-1.37-43.65-.72l-5,0c-12.14.11-24.32.64-36.45,1.48v2c13.68-.78,27.3-1.57,40.85-1.74Z"/>
        <path class="cls-4" d="M222.78,53.09l4.84-.09,4.82-.1a64.85,64.85,0,0,1,9.66-.18l4.82-.09,4.82-.09,4.81-.08,4.8-.08,3.18.06c6.38.21,12.78.63,19.18,1.34h12.38c.51-.08,2.05-.08,2.83-.08a9.6,9.6,0,0,0-4.64.79c3.08,0,6.15,0,9.22,0,1.53,0,3.07,0,4.47-.12,4.71-.14,8.71-2,12.72-4,1.34-.65,2.68-1.31,4.05-1.91A14.91,14.91,0,0,1,330,46.57l-5.42-.27c-1.44.28-2.86.63-4.28,1a48.58,48.58,0,0,0-12.42,5.73c-1.34.16-2.86.22-4.39.27l-4.61.17-4.61.18c1.54-1.59,3.09,0,4.41-1-.59,0-1.71,0-2.95,0l-7.42,0h-4.95a167.56,167.56,0,0,0-19-1.66l-3.13,0c-16.31-.24-32.39.63-48.46,1.53l-4.85.26c-1.67.14-3.33.26-5,.37v.38c5-.17,10.07-.31,15-.34Z"/>
        <path class="cls-4" d="M266.64,55.59q5,.25,10,.76c1.87.17,3.7.27,5.54.38q5.32.14,10.67.22l4.95.1a7.62,7.62,0,0,1,1.85-.18,9.52,9.52,0,0,1-4.64.8c3.23.12,6.45.19,9.68.22,1.61,0,3.22,0,4.79,0s3-.19,4.44-.35c5.22.1,9.55-2.79,14.25-5.16a38.16,38.16,0,0,1,3.63-1.62c5.31-2.57,10.43-1.84,15.55-.38,18.3,2.93,35.13.73,52.7,1.46,7.31,0,15.36,2.93,22.68,2.93,30,2.2,60,0,90,1.47,8.78.73,16.83-2.2,25.61,0,9.25,2.13,18.5,1.51,27.75,3.49,28.59-2.25,57.85-6.37,86.41-4.23,11.71,1.24,23.42.91,35.13.34a4.76,4.76,0,0,0-.73.4c16,0,31.23.71,47.19-1.42,9.39,1.41,18.79,1.43,28.35,2.22,1.66,0,3.37,0,5.08-.06,15.4-.34,30.79-1.48,45.83-1.21,1.75-.15,3.5-.3,5.25-.43,21.77-1.61,43.4-1.25,65-.5,1.71.12,3.43.23,5.19.41,15.11,2.87,30.58,6,45.85,4.27V57.68c-15.69,1.42-31.26.76-46.3-3.4-1.8-.18-3.55-.3-5.3-.42-22-.71-44-1.2-66,.13-1.76.1-3.52.22-5.28.35-14.19,1-28.71.65-43.24.46-1.61,0-3.23,0-4.75-.1-8.66-1.37-17.23-2.09-25.8-.09-.75-1.25-2.14-.58-2.84-.58.63,0,.72-.53,1.19-.69-16.74,2.87-33.48,2.15-50.22,1.42h5.12c-14.64,0-28.54,0-42.45-.73C621,51.88,593.82,56,566,58.26l-.22,0-.42,0c-12.91-6.3-29-4.28-43-4.28H523c-34.39,2.93-68.79,0-103.18-.73-5.86,0-12.45-1.47-18.3-1.47-17.56-.73-35.13-1.46-52.69-2.92-7.32-.73-15.37,0-22.91,1-1.46.31-2.92.67-4.38,1.07a80.46,80.46,0,0,0-13.25,5c-1.5.07-3.07.09-4.63.11-3.14,0-6.28.07-9.41.07a9.5,9.5,0,0,1,4.64-.8s-.78,0-1,0h-16c-1.76-.07-3.54-.14-5.39-.27-4.86-.53-9.72-.87-14.6-1.06L259,53.8c-18.75-.3-37.45.61-56.1,1.52v1.62c19.6-.3,39.13-1,58.53-1.54C263.29,55.44,265,55.51,266.64,55.59Zm300.3,3.56c-.34-.19-.68-.37-1-.54A2.22,2.22,0,0,1,566.94,59.15Z"/>
        <path class="cls-4" d="M274.65,65c24.34.66,49.45,4.72,72-4.42,1.37-.19,2.75-.31,4.12-.39,9.6-.57,19.18,1,28.59.47,1.56,0,3.13,0,4.69,0q6.18.06,12.37.6c1.46.12,2.92.26,4.46.42,8,1.11,16.76,2.58,24.52,3.23,1.56.06,3.22.06,5,0l5.09,0,7.91-.06,2.89,0c18.94.14,38.7-1.33,58.07-.49h4.87l5.42,0c19.54-.13,39.44.56,58.69,2-.47-.18-1-.43-1.44-.67,13.1-.23,25.73-1.4,38.86-1.25,1.38,0,2.77-.09,4.15-.11s2.76,0,4.14,0,2.76,0,4.2.09c6,.5,12.47,1.08,18.62,2.07h.46c20.31-1.35,41.24-2.7,61.64-2.32a28.8,28.8,0,0,0-4.56-.61c10.25-.73,20.49,1.47,30.74.74.73,0,.73-2.2.73-2.2,17-1.42,34.11,3.35,51.17,2.29a13,13,0,0,1-1.91-.65c9.33.66,18.15,1.23,27.58.56H807c20.49-5.13,43.18-2.2,64.06-2.56l4.19.11,8.4.29,5.18.24c1.25.11,2.49.2,3.74.29s2.52.19,3.82.33c12.48,2.39,25.36,4.52,38.35,4V64.16c-15.74,1.79-31.47-3-47.14-3.69l-5.14-.23L877.3,60l-3.43-.12-3.43-.1c-24.68.81-49.56.07-74.44,2.27-7.35.67-15.31-.49-22.76-.7a13.27,13.27,0,0,1,3.73.7c-26.35-1.39-52.71-.8-79.07-.74-6.57-1.45-12.42,0-19,.77-.85,0-1.91.08-3,.15s-2.17.16-3.16.26c-12.43,1-24.44,1.69-37.08,1.75-4.38-1.46-8.76-1.46-13-1.69-1.3-.09-2.61-.16-3.92-.22-2.63-.14-5.28-.25-8-.41-1.54,0-3.05.06-4.46.14-11-.62-21.47,2.34-32.32,2.9-6.54-.71-13.78-.72-20.3-1.24-1.6-.08-3.16-.14-4.73-.2l-4.67-.17c-9.64-.57-18.42-.57-28.23-.56l-4.83,0H506.6c-9.18,0-19.43,0-28.74.14l-4.23,0-3.9,0c-7.44-.18-14.76-.18-21.88.23l-3,.08c-2.92.07-5.82.11-8.72.09q-1.94,0-3.87-.06l-3-.33c-1-.13-2-.26-3-.41-5.78-1.24-12.37-2-18-3.05-3-.38-5.88-.65-8.66-.82A158.58,158.58,0,0,0,383,58.63c-1.59.07-3.19.16-4.79.26-9.54.26-19.06.26-29.3-1.93a15,15,0,0,0-8.53.56,30.36,30.36,0,0,0-3.74,1.62C315.85,68.76,291.39,62.28,269,63c-1.51.06-3,.15-4.52.29-20.62-.3-41-.41-61.59.13V65.1Q236.29,65,269.76,65C271.39,65,273,65,274.65,65Zm295.59,0a3.1,3.1,0,0,0-1,0c-.52,0-1,0-1.56,0h6.06C572.57,65.06,571.4,65.1,570.24,65.09Z"/>
      </g>
    </g>
    <g>
      <path class="cls-4" d="M4.56,18.65V51.91A14.09,14.09,0,0,1,18.65,66v.06H211.27s0,0,0-.06a14.09,14.09,0,0,1,14.06-14.09V18.65A14.1,14.1,0,0,1,211.26,4.56H18.65A14.09,14.09,0,0,1,4.56,18.65Z"/>
      <path class="cls-6" d="M.5,14.59V47.85A14.09,14.09,0,0,1,14.59,62V62H207.21V62a14.11,14.11,0,0,1,14-14.1V14.59A14.09,14.09,0,0,1,207.21.5H14.59A14.09,14.09,0,0,1,.5,14.59Z"/>
      <path class="cls-7" d="M.5,14.59V47.85A14.09,14.09,0,0,1,14.59,62V62H207.21V62a14.11,14.11,0,0,1,14-14.1V14.59A14.09,14.09,0,0,1,207.21.5H14.59A14.09,14.09,0,0,1,.5,14.59Z"/>
      <g>
        <path class="cls-8" d="M91.8,38.15v2.57H79V18.11h3v20Z"/>
        <path class="cls-8" d="M98.08,19.72a1.83,1.83,0,0,1-.16.77,2.47,2.47,0,0,1-.44.63,2,2,0,0,1-.65.43,1.91,1.91,0,0,1-.78.16,1.8,1.8,0,0,1-.77-.16,2,2,0,0,1-.62-.43,2.43,2.43,0,0,1-.43-.63,2,2,0,0,1-.15-.77,2.08,2.08,0,0,1,.15-.78,2.23,2.23,0,0,1,.43-.65,2,2,0,0,1,.62-.43,1.8,1.8,0,0,1,.77-.16,1.91,1.91,0,0,1,.78.16,2,2,0,0,1,.65.43,2.26,2.26,0,0,1,.44.65A1.91,1.91,0,0,1,98.08,19.72Zm-.6,5v16h-2.8v-16Z"/>
        <path class="cls-8" d="M115.78,24.74l-6.51,16h-2.53l-6.51-16h2.28a.86.86,0,0,1,.87.58l4.06,10.29c.12.38.23.76.33,1.13l.27,1.11c.08-.37.17-.74.26-1.11s.21-.75.35-1.13l4.1-10.29a1,1,0,0,1,.32-.42.83.83,0,0,1,.52-.16Z"/>
        <path class="cls-8" d="M130.89,38.48a5.22,5.22,0,0,1-1.24,1.09,8.08,8.08,0,0,1-1.56.77,9.77,9.77,0,0,1-1.71.45,10.43,10.43,0,0,1-1.75.15,8.19,8.19,0,0,1-3-.56,6.83,6.83,0,0,1-2.42-1.64,7.62,7.62,0,0,1-1.58-2.68A10.82,10.82,0,0,1,117,32.4a9.37,9.37,0,0,1,.51-3.12A7.53,7.53,0,0,1,119,26.76a6.79,6.79,0,0,1,2.35-1.67,7.79,7.79,0,0,1,3.12-.61,7.19,7.19,0,0,1,2.66.49,6,6,0,0,1,2.11,1.38,6.46,6.46,0,0,1,1.4,2.24,8.47,8.47,0,0,1,.5,3,1.74,1.74,0,0,1-.14.88.57.57,0,0,1-.53.22H119.79a9.24,9.24,0,0,0,.42,2.64,5.18,5.18,0,0,0,1,1.87,4.19,4.19,0,0,0,1.58,1.12,5.35,5.35,0,0,0,2.05.37,5.8,5.8,0,0,0,1.82-.25A8.45,8.45,0,0,0,128,38c.36-.19.67-.37.92-.53a1.19,1.19,0,0,1,.64-.25.6.6,0,0,1,.53.27ZM128.62,31a5.65,5.65,0,0,0-.27-1.79,4.12,4.12,0,0,0-.81-1.4,3.66,3.66,0,0,0-1.29-.92,4.38,4.38,0,0,0-1.71-.32,4.3,4.3,0,0,0-3.2,1.18A5.52,5.52,0,0,0,119.88,31Z"/>
        <path class="cls-8" d="M137.25,27.94a7.07,7.07,0,0,1,1.86-2.56,4.06,4.06,0,0,1,2.7-.93,4.44,4.44,0,0,1,1,.11,2.8,2.8,0,0,1,.83.35L143.4,27a.45.45,0,0,1-.47.39,3.48,3.48,0,0,1-.65-.09,4.57,4.57,0,0,0-1-.1,4,4,0,0,0-1.35.22,3.26,3.26,0,0,0-1.06.66,4.55,4.55,0,0,0-.83,1.07,9,9,0,0,0-.67,1.46v10.1h-2.83v-16h1.61a.85.85,0,0,1,.63.17,1,1,0,0,1,.24.6Z"/>
      </g>
    </g>
  </g>
</svg>
