<svg id="Layer_1" data-name="Layer 1" xmlns="http://www.w3.org/2000/svg" xmlns:xlink="http://www.w3.org/1999/xlink" viewBox="0 0 124.36 124.34">
  <defs>
    <style>
      .cls-1 {
        fill: none;
      }

      .cls-2 {
        fill: #fff;
      }

      .cls-3 {
        fill: #1b7a98;
      }

      .cls-4 {
        fill: #fff2e1;
      }

      .cls-5 {
        fill: #0b97cc;
      }

      .cls-6 {
        fill: #dff0f0;
      }

      .cls-7 {
        fill: #7b8c8d;
      }

      .cls-8 {
        fill: #987156;
      }

      .cls-9 {
        fill: #c3b5ab;
      }

      .cls-10 {
        fill: #ffca4b;
      }

      .cls-11 {
        fill: #483f39;
      }

      .cls-12 {
        fill: #afc7c6;
      }

      .cls-13 {
        clip-path: url(#clip-path);
      }

      .cls-14 {
        clip-path: url(#clip-path-2);
      }

      .cls-15 {
        clip-path: url(#clip-path-3);
      }

      .cls-16 {
        fill: #9f8080;
      }

      .cls-17 {
        fill: #d3be92;
      }

      .cls-18 {
        fill: #e3d5c4;
      }

      .cls-19 {
        fill: #735747;
      }

      .cls-20 {
        fill: #806f9b;
      }

      .cls-21 {
        clip-path: url(#clip-path-4);
      }

      .cls-22 {
        fill: #534030;
      }

      .cls-23 {
        fill: #3c3026;
      }

      .cls-24 {
        fill: #453e5a;
      }

      .cls-25 {
        fill: #6b6964;
      }

      .cls-26 {
        fill: #80898c;
      }

      .cls-27 {
        fill: #acbabc;
      }

      .cls-28 {
        fill: #8c9596;
      }

      .cls-29 {
        fill: #5e6d6f;
      }

      .cls-30 {
        fill: #8c8d84;
      }

      .cls-31 {
        fill: #035778;
      }

      .cls-32 {
        fill: #8c7629;
      }

      .cls-33 {
        fill: #23211e;
      }

      .cls-34 {
        fill: #607475;
      }

      .cls-35 {
        fill: #746f55;
      }

      .cls-36 {
        fill: #7d7c72;
      }

      .cls-37 {
        fill: #0a4458;
      }

      .cls-38 {
        fill: #c6dce0;
      }

      .cls-39 {
        fill: #1f4d8e;
      }

      .cls-40 {
        fill: #01104d;
      }

      .cls-41 {
        fill: #000127;
      }

      .cls-42 {
        fill: #16427d;
      }

      .cls-43 {
        fill: #013852;
      }

      .cls-44 {
        fill: #8fa4a9;
      }

      .cls-45 {
        fill: #103164;
      }

      .cls-46 {
        fill: #000731;
      }

      .cls-47 {
        fill: #000016;
      }

      .cls-48 {
        fill: #0a2956;
      }

      .cls-49 {
        fill: #cdbaae;
      }

      .cls-50 {
        fill: #ffe5aa;
      }

      .cls-51 {
        fill: #d7a96d;
      }

      .cls-52 {
        fill: #6d8083;
      }

      .cls-53 {
        fill: #013044;
      }

      .cls-54 {
        fill: #564949;
      }

      .cls-55 {
        fill: #6f8382;
      }

      .cls-56 {
        fill: #e5dfd9;
      }

      .cls-57 {
        fill: #b2ada8;
      }

      .cls-58 {
        fill: #7e8280;
      }

      .cls-59 {
        fill: #616562;
      }

      .cls-60 {
        fill: #fdc327;
      }

      .cls-61 {
        clip-path: url(#clip-path-5);
      }

      .cls-62 {
        fill: #fcc74b;
      }

      .cls-63 {
        fill: #8c7112;
      }

      .cls-64 {
        fill: #8b7429;
      }
    </style>
    <clipPath id="clip-path">
      <path class="cls-1" d="M63.28,148.41l-.68-21.06a4.27,4.27,0,1,1,8.54,0l-.92,22.46-6.94-1.44"/>
    </clipPath>
    <clipPath id="clip-path-2">
      <path class="cls-1" d="M26.65,141,26,119.94a4.27,4.27,0,1,1,8.54,0l-.92,22.46L26.65,141"/>
    </clipPath>
    <clipPath id="clip-path-3">
      <path class="cls-1" d="M31.1,123.45v.09l1.75.39a.47.47,0,0,0-.05-.1l-1.7-.38m-.79-.18-.11.07.17,0v-.1h-.06"/>
    </clipPath>
    <clipPath id="clip-path-4">
      <path class="cls-1" d="M53.71,80.34c.22,5.44-2.56,9.86-6.2,9.86s-6.77-4.42-7-9.86,2.56-9.87,6.2-9.87,6.77,4.42,7,9.87"/>
    </clipPath>
    <clipPath id="clip-path-5">
      <path class="cls-1" d="M94.48,20.73c3.07,5.78,2.94,11.85-.29,13.57s-8.34-1.58-11.41-7.36-2.93-11.85.3-13.57,8.33,1.58,11.4,7.36"/>
    </clipPath>
  </defs>
  <rect class="cls-2" x="-11.6" y="-29.71" width="155.91" height="178.44"/>
  <g>
    <g>
      <g>
        <path class="cls-3" d="M8.07,86.54l6.19-2.91S41.79,47.8,41.61,47.44s-1.83-.87-1.83-.87l-31.71,40"/>
        <path class="cls-4" d="M13.67,86.27l-.81.81.89.28-.49.79.73.29c.53-.66,1-1.33,1.58-2,1.2-1.62,2.35-3.28,3.55-4.9a7.16,7.16,0,0,1,1.52-3c.94-1.32,1.77-2.7,2.67-4,1.74-2.57,3.77-5,5.61-7.45s3.54-4.94,5.18-7.51c1.38-2.17,2.88-4.26,4.28-6.42A40.61,40.61,0,0,1,41,49.4c-.15-.7-.38-1.07-1.09-1.17Q27.05,65.89,12.31,83.64l.91.72-.73,1.54Z"/>
        <path class="cls-5" d="M38.43,46.4c-5,6.21-29.08,36.23-30.62,37.9-1.71,1.84.26,2.24.26,2.24C16.43,79.46,36.29,52,40.48,46.36c-.68,0-1.37,0-2,0"/>
        <path class="cls-6" d="M78.1,76.91c1.11-4.74-21.18-20.24-31.74-27.28l0,0c-4.7,6.58-.9-6-5.1.92-3.62,6-15.23,29.47-20.65,36.08a.58.58,0,0,1,.08.48c0,.11-.07.23-.1.34a.58.58,0,0,1,0,.41,9.43,9.43,0,0,1-.29.9.61.61,0,0,1,0,.27l-.15.38c.58,5,1.09,12.15,1.52,19.58a32.06,32.06,0,0,0,11.05,4,91.06,91.06,0,0,0,12.77,1.2c4.55.19,9.09.38,13.64.68,6.42.42,12.83,1.06,19.19,2C77.77,98.45,77.4,79.88,78.1,76.91Z"/>
        <path class="cls-7" d="M52.38,71.72a13.78,13.78,0,0,1,3.27,8.62c.26,6.31-3.36,11.42-8.08,11.42a7.39,7.39,0,0,1-4.93-2,7.75,7.75,0,0,0,5.72,2.81c4.72,0,8.33-5.11,8.08-11.43a13.37,13.37,0,0,0-4.06-9.4"/>
        <path class="cls-4" d="M71.93,94.78l2.34-1.21A8,8,0,0,0,75,88.36,12.77,12.77,0,0,0,71.7,83c-1.42-1.56-2.91-3-4.31-4.62-3.12-3.5-5.93-7.31-8.69-11.11s-5.49-7.8-8-11.84c-2-3.29-4.28-6.72-5.25-10.52l-2,.15-3.08,3.62C40.4,49,55.71,79.83,71.93,94.78Z"/>
        <path class="cls-5" d="M111.93,70.09c-14.77-13.86-24.74-35-24.74-35l.64-.28c.65-.32-.06-1.71-.5-1.7l-5.67-.18S40.42,45.29,38.84,45.82c-.84.28-.9,1.09-.4,1.74.63.84,2.11.76,3.1.93,1.26.22,1.36,1.46,1.93,2.45s1.17,2,1.77,3c1.3,2.14,2.64,4.26,4,6.35C52.08,64.66,55,68.94,58,73.18Q64.1,81.72,70.47,90a1.9,1.9,0,0,0,2.45.5c6.94-3.9,33.78-17,38.86-19.42a.63.63,0,0,0,.15-1"/>
        <polyline class="cls-8" points="100.99 95.25 81.58 105.8 81.31 93.84 100.72 83.28 100.99 95.25"/>
        <path class="cls-9" d="M82.67,104l0-10.06,17.15-9.33,0,10.06L82.67,104m.77-9.62,0,8.39L99.1,94.27l0-8.38L83.44,94.42"/>
        <polyline class="cls-10" points="93.49 91.6 89.33 93.99 89.34 92.16 93.5 89.77 93.49 91.6"/>
        <polyline class="cls-11" points="100.06 112.84 81.94 122.69 81.84 112.27 99.93 102.53 100.06 112.84"/>
        <polyline class="cls-8" points="101.82 131.24 82.44 144.79 82.16 132.87 101.55 119.32 101.82 131.24"/>
        <path class="cls-9" d="M83.52,142.89l0-9.78,17.14-12,0,9.79-17.14,12m.77-9.4,0,8,15.67-10.95,0-8-15.67,11"/>
        <polyline class="cls-8" points="51.46 108.96 74 111.96 73.32 97.25 52.06 94.96 51.46 108.96"/>
        <path class="cls-9" d="M72.6,110.76l-19.74-2.53.54-12.06L72,98.1l.61,12.66m-19-3.17,18.21,2.33-.54-11.16L54.1,97l-.48,10.61"/>
        <polyline class="cls-8" points="44.91 93.57 23.07 90.99 23.48 104.61 44.91 107.5 44.91 93.57"/>
        <path class="cls-8" d="M55.65,80.34c.26,6.31-3.36,11.42-8.08,11.42s-8.74-5.11-9-11.42,3.36-11.43,8.08-11.43,8.74,5.11,9,11.43"/>
        <path class="cls-9" d="M43.5,106.33l-18.79-2.84-.35-11.55L43.5,94.51v11.82m-18.08-3.47,17.35,2.62V95.15L25.12,92.78l.3,10.08"/>
        <polyline class="cls-10" points="30.2 94.28 30.38 96.39 36.62 97.31 36.9 95.29 30.2 94.28"/>
        <polyline class="cls-10" points="58.43 98.32 58.61 100.43 64.85 101.34 65.12 99.33 58.43 98.32"/>
        <polyline class="cls-12" points="45.71 146.49 45.67 124.46 41.9 123.81 42.66 147.64 45.71 146.49"/>
        <path class="cls-12" d="M63.28,148.41l-.68-21.06a4.27,4.27,0,1,1,8.54,0l-.92,22.46-6.94-1.44"/>
        <g class="cls-13">
          <path class="cls-9" d="M67.2,147.45h0a.36.36,0,0,1-.36-.37L67.08,123a.36.36,0,0,1,.36-.36h0a.37.37,0,0,1,.36.37l-.24,24.11a.37.37,0,0,1-.37.36"/>
        </g>
        <path class="cls-12" d="M26.65,141,26,119.94a4.27,4.27,0,1,1,8.54,0l-.92,22.46L26.65,141"/>
        <g class="cls-14">
          <path class="cls-9" d="M30.57,140h0a.37.37,0,0,1-.36-.37l.24-24.11a.36.36,0,0,1,.36-.36h0a.37.37,0,0,1,.36.37l-.24,24.11a.37.37,0,0,1-.37.36"/>
          <path class="cls-9" d="M34.43,122.75h-.07l-7.57-1.3a.38.38,0,0,1-.3-.43.36.36,0,0,1,.42-.29l7.58,1.3a.36.36,0,0,1,.3.42.37.37,0,0,1-.36.31"/>
        </g>
        <g class="cls-15">
          <rect class="cls-16" x="30.2" y="123.27" width="2.65" height="0.66"/>
        </g>
        <path class="cls-17" d="M30.37,123.28v.1l.73.16v-.09l-.73-.17"/>
        <path class="cls-18" d="M21.14,145.88c-.05-3.09-.12-6.17-.22-9.26a65.4,65.4,0,0,0-.35-6.57c-.44-3.5-1.75-7.11-5.08-8.58-.68,11.3-1.69,28.65-1.69,28.65-.06,1.17,1.29,2,3.44,2.35a9,9,0,0,0,4-.28C21.18,150.08,21.18,148,21.14,145.88Z"/>
        <path class="cls-9" d="M21,151.4a.37.37,0,0,1-.37-.36l-.8-36.18a.35.35,0,0,1,.35-.37c.23,0,.37.15.38.35L21.4,151a.36.36,0,0,1-.36.38h0"/>
        <path class="cls-9" d="M17,151.69h0a.36.36,0,0,1-.35-.38l1.17-36.62a.34.34,0,0,1,.38-.35.37.37,0,0,1,.35.38l-1.17,36.62a.36.36,0,0,1-.36.35"/>
        <path class="cls-9" d="M14.46,150.52h0a.37.37,0,0,1-.35-.39l2.05-35.3a.37.37,0,0,1,.73,0l-2.05,35.31a.36.36,0,0,1-.36.34"/>
        <path class="cls-4" d="M28.57,108c1,.85,2,1.66,3.08,2.43,6.87,5,14.56,8.7,21.78,13.17l7.31,1.65,17.61-9.94Z"/>
        <polyline class="cls-18" points="7.58 113.24 7.58 118.15 60.74 130.13 78.35 120.19 78.35 115.28 60.24 124.03 7.58 113.24"/>
        <path class="cls-9" d="M60.8,126.17l-.13,0-54-11.39a.37.37,0,0,1-.29-.43.38.38,0,0,1,.44-.29L60.69,125.4l17.47-9.1a.36.36,0,1,1,.34.64l-17.7,9.23"/>
        <path class="cls-9" d="M60.92,128.27l-.13,0-54-11.4a.36.36,0,0,1,.15-.71l53.87,11.37,17.47-9.11a.36.36,0,0,1,.33.65l-17.7,9.22"/>
        <path class="cls-19" d="M47.86,86.26c-1-1.16-1.49-2.7-2.53-3.83a5.3,5.3,0,0,0-4.75-1.36C41,86.18,44,90.2,47.51,90.2a5.07,5.07,0,0,0,3.81-1.91A6.4,6.4,0,0,1,47.86,86.26Z"/>
        <path class="cls-20" d="M50.73,72.43l-.23.08a7.6,7.6,0,0,0-1.89.83,9.44,9.44,0,0,0-2.55,3.22,7,7,0,0,0-.84,4.12,32.18,32.18,0,0,1,.44,3.78c1.15,2.45,3,4.16,5,4.48,1.95-1.68,3.19-4.9,3-8.6A12.42,12.42,0,0,0,50.73,72.43Z"/>
        <g class="cls-21">
          <path class="cls-9" d="M48.16,89.39a.37.37,0,0,1-.37-.35l-.72-18.49a.36.36,0,0,1,.35-.38.35.35,0,0,1,.38.35L48.52,89a.36.36,0,0,1-.35.38h0"/>
          <path class="cls-9" d="M53.71,80.7h0L43.6,79.79a.37.37,0,0,1-.34-.39.38.38,0,0,1,.4-.34L53.74,80a.37.37,0,0,1,.33.4.35.35,0,0,1-.36.33"/>
          <path class="cls-9" d="M47.56,73.2l-.38.13L47.79,89a.37.37,0,0,0,.37.35h0a.36.36,0,0,0,.35-.38L47.9,73.1Z"/>
          <path class="cls-9" d="M53.74,80l-8.83-.79a4.37,4.37,0,0,0-.12.49,1.79,1.79,0,0,1,0,.23l8.91.8h0a.35.35,0,0,0,.36-.33A.37.37,0,0,0,53.74,80Z"/>
        </g>
        <path class="cls-22" d="M51.32,73.12a.76.76,0,0,1,.08.11h0l-.1-.11m-4.46-2.78a6.17,6.17,0,0,0-4.67,2.79,12,12,0,0,0-1.55,8.6c-.06-.46-.1-.92-.12-1.39-.22-5.45,2.56-9.87,6.2-9.87l.36,0h0a6.13,6.13,0,0,1,.73.11h0a5.68,5.68,0,0,1,2.28,1.21,5.37,5.37,0,0,0-2.28-1.35,3.81,3.81,0,0,0-1-.12"/>
        <path class="cls-23" d="M51.32,73.12a1,1,0,0,1,.08.11h0a.76.76,0,0,0-.08-.11h0M47.81,70.6h0a5.59,5.59,0,0,1,2.3,1.22l0,0a5.68,5.68,0,0,0-2.28-1.21m-1.09-.13c-3.64,0-6.42,4.42-6.2,9.87,0,.47.06.93.12,1.39a9.85,9.85,0,0,0,.26,1,1.29,1.29,0,0,1,1-1.15,2.58,2.58,0,0,1,.39,0c1.72,0,2.9,2.49,3.72,3.72a13.53,13.53,0,0,1-1.6-5.36l-.85-.08a.36.36,0,0,1-.34-.37v0a.38.38,0,0,1,.37-.34h0l.74.07a11.27,11.27,0,0,1,2.68-8.27v-.31h0a.07.07,0,0,1,0-.05l-.36,0"/>
        <path class="cls-24" d="M44.45,79.87a13.53,13.53,0,0,0,1.6,5.36.61.61,0,0,1,.07.1c0-.28,0-.56,0-.84-.07-.48-.15-1-.2-1.45-.08-.74-.11-1.49-.15-2.24l0-.19c0-.2,0-.41,0-.62l-1.3-.12m2.63-9a11.27,11.27,0,0,0-2.68,8.27l1.36.12a5.58,5.58,0,0,1,1-3.23,6.64,6.64,0,0,1,.51-.79l-.18-4.37m.73-.25L48,74.44a5.12,5.12,0,0,1,1.1-.81,3.74,3.74,0,0,1,1.73-.47,2.48,2.48,0,0,1,.61.07,1,1,0,0,0-.08-.11,14.77,14.77,0,0,0-1.21-1.29,5.59,5.59,0,0,0-2.3-1.22"/>
        <path class="cls-25" d="M47.08,70.49h0a.07.07,0,0,0,0,.05h0l.17,4.28c.12-1,.37-1,.7-.8l-.13-3.42h0a6.13,6.13,0,0,0-.73-.11"/>
        <path class="cls-25" d="M43.63,79.06a.38.38,0,0,0-.37.34v0a.36.36,0,0,0,.34.37l2,.2a.48.48,0,0,1,0-.76l-1.18-.1-.74-.07h0"/>
        <polygon class="cls-2" points="56.64 123.27 30.95 108.32 21.98 107.01 7.58 113.24 56.64 123.27"/>
        <path class="cls-2" d="M13,86.24l-.25-.08a.43.43,0,0,1-.09-.6l24-32a.42.42,0,0,1,.59-.09.43.43,0,0,1,.09.6l-24,32a.42.42,0,0,1-.34.17"/>
        <path class="cls-2" d="M70.66,92.3a.44.44,0,0,1-.33-.15c-9.59-11-19.35-25.25-29-42.21a.42.42,0,0,1,.16-.58.44.44,0,0,1,.58.16C51.7,66.43,61.42,80.59,71,91.59a.44.44,0,0,1,0,.61l-.27.1"/>
        <path class="cls-10" d="M110.19,70c-.19-.2-19.1-20.2-23.75-34.36a.35.35,0,0,0-.46-.23.36.36,0,0,0-.23.46c4.35,13.24,20.94,31.45,23.56,34.27L72.16,87.37A432.07,432.07,0,0,1,45.6,48.7,1.88,1.88,0,0,0,45,46.86a2,2,0,0,0-.86-.28,15.84,15.84,0,0,1-3.93-1.21l-.3.12a3.88,3.88,0,0,1-.49.11.35.35,0,0,0,.18.3,16.94,16.94,0,0,0,4.46,1.41,1.33,1.33,0,0,1,.53.15c.33.22.31.81.27,1.29l0,.12.07.1A426.05,426.05,0,0,0,71.75,88l.18.23,38.15-17.73.46-.22Z"/>
        <path class="cls-10" d="M47.25,46.54a2.69,2.69,0,0,0-1.39-1,8.86,8.86,0,0,0-1.21-.29l-.32,0a15.41,15.41,0,0,1-1.77-.48l-.94.34a.33.33,0,0,0,.13.13,15.63,15.63,0,0,0,2.45.7l.32.06a6.43,6.43,0,0,1,1.11.26,2,2,0,0,1,1,.72.91.91,0,0,1,0,1,.35.35,0,0,0,.08.49l.2.06.29-.14A1.62,1.62,0,0,0,47.25,46.54Z"/>
        <path class="cls-10" d="M83.73,34.51a2.74,2.74,0,0,0-.81-.19,21.55,21.55,0,0,1-3.47-.72l-1,.3s0,.05.06.06a21.61,21.61,0,0,0,4.41,1,2.06,2.06,0,0,1,.6.12c.2.1.33.28.25.82a.31.31,0,0,0,.26.35h0a.32.32,0,0,0,.31-.26A1.3,1.3,0,0,0,83.73,34.51Z"/>
        <path class="cls-10" d="M86.25,34.54l-.16-.16a2.76,2.76,0,0,0-1.39-.72,10.19,10.19,0,0,0-1.23-.21l-.32-.05A15.92,15.92,0,0,1,81.3,33l-.92.28a.34.34,0,0,0,.19.18,20.34,20.34,0,0,0,2.49.51l.33.05a10,10,0,0,1,1.16.19,2.26,2.26,0,0,1,1.09.55l.18.18.16.2a.3.3,0,0,0,0,.43l.22.09.22-.09a.66.66,0,0,0,.2-.45A.92.92,0,0,0,86.25,34.54Z"/>
        <path class="cls-26" d="M41.92,46.25a.24.24,0,0,1-.24-.24V31.15a.25.25,0,1,1,.49,0V46A.25.25,0,0,1,41.92,46.25Z"/>
        <path class="cls-27" d="M44.23,34.67a.8.8,0,0,1-.8-.8V28.71a.8.8,0,0,1,1.6,0v5.16a.8.8,0,0,1-.8.8"/>
        <path class="cls-26" d="M40.19,34.17,40,34a.25.25,0,0,1,.11-.33l3.66-1.81a.25.25,0,1,1,.22.44L40.3,34.15l-.11,0"/>
        <path class="cls-27" d="M39.87,41.08a.8.8,0,0,1-.8-.8V26.59a.8.8,0,0,1,1.6,0V40.28a.8.8,0,0,1-.8.8"/>
        <path class="cls-2" d="M39.26,26.8a.38.38,0,0,0,.47.27.51.51,0,0,0,.24-.36c.06-.2.09-.53-.12-.64a.48.48,0,0,0-.45,0c-.12.07-.11.17-.14.29a.75.75,0,0,0,0,.42"/>
        <path class="cls-2" d="M43.64,29a.38.38,0,0,0,.47.27.51.51,0,0,0,.24-.36c.06-.2.09-.52-.12-.64a.48.48,0,0,0-.45,0c-.12.07-.11.17-.14.29a.75.75,0,0,0,0,.42"/>
        <path class="cls-28" d="M39.61,41a.75.75,0,0,0,.26,0h0a.75.75,0,0,1-.26,0"/>
        <path class="cls-29" d="M40.62,26.33l-.17.16A4,4,0,0,0,40,28.75a70.89,70.89,0,0,1-.57,9.44,14.8,14.8,0,0,0-.17,2.66.89.89,0,0,0,.31.19.75.75,0,0,0,.26,0,.8.8,0,0,0,.8-.8V26.59h0l-.05-.26"/>
        <path class="cls-29" d="M44.8,28.71c-.58,0-.63.95-.75,1.4-.15.61-.28,1.22-.4,1.84l.09-.05a.22.22,0,0,1,.11,0,.24.24,0,0,1,.11.46l-.42.21c0,.22-.08.45-.11.68v.64a.8.8,0,1,0,1.6,0v-5.1l-.2-.06h0"/>
        <polyline class="cls-7" points="73.36 98.2 74 111.96 51.83 109.01 52.22 109.71 74.53 112.64 74.02 98.51 73.36 98.2"/>
        <polyline class="cls-22" points="72.71 97.9 73.52 111.33 51.61 108.6 51.83 109.01 74 111.96 73.36 98.2 72.71 97.9"/>
        <path class="cls-28" d="M56.9,182.83h0m-33.73-39.5,0,0-1.12.78h0l1.12-.78h0l0,0h0m81.29-4.27a30.85,30.85,0,0,0,.06,4.19h0c0-.15,0-.33,0-.49-.13-1.53,0-1.92,0-3.7M22.33,121.59c.33,7.3.58,13.87.71,17.83h0c-.13-4-.38-10.53-.71-17.83h0m-6.76-1.48-.06,1.07.06-1.07h0m88-40.1c-.14,15.14-.24,42.37.56,57.41l.32-.24h0l-.32.24c-.8-15-.7-42.27-.56-57.41m8.71-6.07-8.7,4.5h0l8.7-4.5M87.19,35.07h0s10,21.16,24.74,35a.12.12,0,0,1,0,0,.12.12,0,0,0,0,0c-14.77-13.86-24.74-35-24.74-35m.65-.28h0m0,0h0"/>
        <path class="cls-7" d="M22.33,121.59c.33,7.3.58,13.87.71,17.83.09,2.43.13,3.88.13,3.91h0l0,0,19.53,4.28,3-1.12h0l-3,1.12L42,126l-7.63-1.71-.7,17,.81.28a.33.33,0,0,1,.21.28c0,.37,0,.74,0,1.12,0,.17.06.41-.15.48l-.1,0a1.47,1.47,0,0,1-.45-.14l-.9-.31c-.6-.2-1.2-.38-1.81-.53a23.6,23.6,0,0,0-5.35-.79.29.29,0,0,1-.29-.28c0-.19,0-.39,0-.59s-.13-.66.09-.78a.65.65,0,0,1,.29,0c.17,0,.34,0,.47,0h.15l-.56-17.58-3.72-.83m56.08-2.43-.06,0v1l-8,4.52a4.27,4.27,0,0,1,.8,2.63v0l-.87,21.27.81.28a.34.34,0,0,1,.21.28c0,.38,0,.75,0,1.12,0,.18.06.41-.15.48l-.1,0a1.47,1.47,0,0,1-.45-.14l-.9-.31c-.6-.19-1.2-.37-1.81-.53a23,23,0,0,0-5.35-.78.3.3,0,0,1-.29-.28c0-.2,0-.4,0-.59s-.13-.66.09-.78a.54.54,0,0,1,.29-.06c.17,0,.34,0,.47,0h.15l-.59-18.36-1.91,1.08-.16,0,.08.06-.27-.05.76,22.36,18.17,4.42.47-.39c-.13-3.1-.83-19.91-1.38-37.33m-.06-2v1.2h0l0-1.19M71.89,94.74l0,.05,0,0,0,0"/>
        <path class="cls-30" d="M112.25,73.94,72.42,94.53c-.38-.89.16-1.35.71-2A3,3,0,0,0,73.84,90l-.92.5a1.87,1.87,0,0,1-.94.25h0a5,5,0,0,0,.57.73l-.65.41a2.73,2.73,0,0,0,.48.87,5.09,5.09,0,0,0-.76.63,1.77,1.77,0,0,0,.69.77c-.1.19-.26.36-.37.54l0,0,.26-.11,5.58-2.89,25.8-13.33,8.7-4.5"/>
        <path class="cls-31" d="M87.58,33.59H87L85.64,34a1.8,1.8,0,0,1,.45.35l.16.16a.92.92,0,0,1,.37.62.6.6,0,0,1-.16.4C91.12,49.72,110,69.71,110.2,69.91l.35.36-.46.22L72,88.23l-.12-.15-.23.83c.15.21.29.35.44.56s.3.47.19.7L72,90.4l-.3.12c.09.09.16.18.24.27h0a1.87,1.87,0,0,0,.94-.25l.92-.5C82,85.62,106.9,73.49,111.78,71.12a.62.62,0,0,0,.3-.3h0a.63.63,0,0,0-.08-.68.12.12,0,0,0,0,0c-14.77-13.86-24.74-35-24.74-35h0l.64-.28h0a.56.56,0,0,0,.22-.6l-.49-.59"/>
        <path class="cls-22" d="M89.33,94V92.16l4.16-2.39V91.6L89.33,94m9.8-8.1L83.44,94.42l0,8.39L99.1,94.27l0-8.38M82.67,104l0-10.06,17.15-9.33,0,10.06L82.67,104m18-20.76L81.31,93.84l.27,12L101,95.25l-.27-12"/>
        <path class="cls-25" d="M83.41,102.81l0-8.39,15.69-8.53,0,8.38-15.69,8.54M99.87,84.65,82.72,94l0,10.06,17.16-9.33,0-10.06"/>
        <polyline class="cls-32" points="93.5 89.77 89.34 92.16 89.33 93.99 93.49 91.6 93.5 89.77"/>
        <polyline class="cls-33" points="99.93 102.53 81.84 112.27 81.94 122.69 100.06 112.84 99.93 102.53"/>
        <path class="cls-22" d="M90.18,131.78V130l4.16-3v1.83l-4.15,3m9.78-9.24-15.67,11,0,8,15.67-10.95,0-8M83.52,142.89l0-9.78,17.14-12,0,9.79-17.14,12m18-23.57L82.16,132.87l.27,11.92,19.39-13.55-.27-11.92"/>
        <path class="cls-25" d="M84.26,141.48l0-8,15.67-11,0,8L84.26,141.48m16.44-20.35-17.14,12,0,9.78,17.14-12,0-9.79"/>
        <path class="cls-34" d="M26.05,122.42,26.61,140q.32,0,.63,0c.51,0,1,.07,1.51.12a24,24,0,0,1,4.89,1.1l.7-17h0l-.17,4.12h0l0,.71h0l-.23,5.67h0l0,.73h0l-.18,4.37q-1.38-.27-2.76-.51v.33a.37.37,0,0,1-.37.36h0a.37.37,0,0,1-.36-.37v-.45c-.75-.14-1.51-.26-2.27-.38l-.14-4.49-.71-.14a.36.36,0,0,1,.08-.72h.06l.55.11-.19-5.69-.85-.15a.37.37,0,0,1,.06-.73h.07l.7.13-.14-4.45-1.38-.3"/>
        <path class="cls-24" d="M33,135.34c-.05.68-.1,1.37-.17,2.06a1.63,1.63,0,0,1-.08.43,1.29,1.29,0,0,1-.48.53,2.53,2.53,0,0,1-1.34.39v.6q1.38.24,2.76.51l.18-4.37h-.09l-.77-.14m-5.22-1,.14,4.49c.76.12,1.52.24,2.27.38v-.54a2.44,2.44,0,0,1-1-.5c-.84-.74-.62-2.14-.69-3.18l0-.53-.68-.12m5.44-5.4c0,1.88-.05,3.77-.17,5.65l.84.16.23-5.67H34l-.77-.14m-5.65-1,.19,5.69.65.12a34.26,34.26,0,0,1,.07-5.64l-.91-.17m5.26-4a4.85,4.85,0,0,1,.33,1.78q0,1.25.06,2.49l.9.17h0l.17-4.12-1.49-.33m-5.42-1.21.14,4.45,1,.18c.07-.51.17-1,.29-1.53a4.55,4.55,0,0,1,1-2.21,1.93,1.93,0,0,1,.3-.27l-2.77-.62"/>
        <path class="cls-35" d="M30.26,134.81l0,3.87a2.84,2.84,0,0,0,.66.07H31l0-3.8-.73-.14m.06-6.4-.06,5.66.73.14.06-5.66-.73-.14m.05-5,0,4.29.73.13,0-4.26-.73-.16"/>
        <path class="cls-36" d="M18.36,120.71l-.2,6.32a1.46,1.46,0,0,0,.66.16h.31a.63.63,0,0,1,.52.18l-.15,25,.18.19c1.36-.15,2.54-.58,2.57-1.28l-.05-1.62L22,144.14h0l-.76-22.79-.51-.11L21.4,151a.36.36,0,0,1-.36.38h0a.37.37,0,0,1-.37-.36l-.66-30-1.65-.37m-1.81-.39-.17,3a1.94,1.94,0,0,1,.37.33,2.33,2.33,0,0,1,.25,1.39,2.64,2.64,0,0,0,.45,1.3l.18-5.83-1.08-.23m-1-.21-.06,1.07,0,.57a2.79,2.79,0,0,0,.22.71l.13-2.3-.26,0"/>
        <path class="cls-25" d="M20,121.08l.66,30a.37.37,0,0,0,.37.36h0a.36.36,0,0,0,.36-.38l-.66-29.78-.73-.16"/>
        <path class="cls-25" d="M17.63,120.55l-.18,5.83a2.1,2.1,0,0,0,.71.65l.2-6.32-.73-.16"/>
        <path class="cls-25" d="M15.83,120.16l-.13,2.3a2.23,2.23,0,0,0,.62.85l.06,0,.17-3-.72-.16"/>
        <path class="cls-36" d="M78.35,119.19l-17.43,9.08-.13,0-.63-.14a2.36,2.36,0,0,0-.14.67,1.67,1.67,0,0,0,.56,1.31l.16,0,1.91-1.08.56-.31.9-.51L67,126.57l.74-.41,2.56-1.45,8-4.52v-1m0-2.17L60.8,126.17l-.13,0-.31-.06a1.19,1.19,0,0,0,.35,1.28l-.13.1.24.05,17.47-9.11.06,0V117m0-1.74L60.24,124A.87.87,0,0,0,60,125a.87.87,0,0,0,.27.33l.46.1,17.47-9.1a.37.37,0,0,1,.17,0h0v-1"/>
        <path class="cls-31" d="M67.91,82.9l1.59,2.58a1.38,1.38,0,0,0,.8.59C69.49,85,68.69,84,67.91,82.9M44.22,47.28l-1.42.45.5,1.57,1.57-.5v-.1c0-.48.06-1.06-.26-1.29a1.18,1.18,0,0,0-.4-.13m2.14-.68L45.21,47a2.05,2.05,0,0,1,.42,1.6l1-.33a.33.33,0,0,1,.05-.3.91.91,0,0,0,0-1,1.36,1.36,0,0,0-.3-.33m33.29-6.14h0l.26.49-.26-.49m-2.12-3.84L47.11,46.36l.14.18a1.64,1.64,0,0,1,.2,1.43l30.91-9.85-.83-1.5m9.39,23.94h0l0-.15V60.3h0l0,0,.1-.11.12-.11,0,0,.26-.16.26-.14.36-.15,5.61-2a1.27,1.27,0,0,1,1.53.53l6.74,11a1.34,1.34,0,0,1,.18.66,1.26,1.26,0,0,1-.76,1.18l-6.16,2.71a1.34,1.34,0,0,1-.51.11,1.3,1.3,0,0,1-1.12-.65L87,61.38,87,61.06l0-.09h0l0-.2v-.2m-1-24.27L84.1,43a31.85,31.85,0,0,1,.22,4.63.49.49,0,0,1-.19.39.54.54,0,0,1-.32.11h0a.51.51,0,0,1-.43-.23l-3.69-5.66h0l3.26,5L81.4,52.94l3.34,5.84v.34h0l0,.13-.06.24-.06.17h0l0,0h0l0,0-.08.16-.13.2h0l-.09.1-.17.16L82,61.12h0l-5.6,2.26a1.83,1.83,0,0,1-2.29-.84l-4.75-9c0-.06-.05-.12-.08-.17l-.14,0-.26.11,5,9.53a1.12,1.12,0,0,1-.57,1.56l-.52.21.09.17a1.81,1.81,0,0,0,.37.49l.47-.2a1.54,1.54,0,0,1,.51-.1,1.34,1.34,0,0,1,1.11.58l.45-.18a1.2,1.2,0,0,1,.73-1.4l8.17-3.3a1.17,1.17,0,0,1,.45-.09h0a1.22,1.22,0,0,1,1.06.62h0l6.61,11.76a1.3,1.3,0,0,1,.15.6,1.22,1.22,0,0,1-.72,1.11L83.9,78.55h-.11a1.61,1.61,0,0,1-.37.07h0a1.21,1.21,0,0,1-1-.59v0L76.16,66.28l-.39.16,3.41,6.47h0l2.6,5h0a1.36,1.36,0,0,1-.65,1.87l-8.71,3.84a1.49,1.49,0,0,1-.54.11A1.36,1.36,0,0,1,70.72,83L63.51,71.39l-.7.28a1.35,1.35,0,0,0-.64,2l.66,1.06c2.56,3.6,5.36,7.41,8.34,11.32h0l1.36-.6-.49,1.78.1.13L109.33,70c-2.59-2.78-18.79-20.56-23.39-33.75m-1.18-2-.88.28A1.37,1.37,0,0,1,84.33,36a.32.32,0,0,1-.31.26h0a.31.31,0,0,1-.26-.35c.08-.54,0-.72-.25-.82a2.06,2.06,0,0,0-.6-.12h-.05l-3.51,1.12.83,1.51,5.62-1.79a.37.37,0,0,1,.13-.41.31.31,0,0,1,.09-.18l-.16-.2-.18-.18a1.92,1.92,0,0,0-.88-.49"/>
        <path class="cls-25" d="M78.33,116.25a.37.37,0,0,0-.17,0l-17.47,9.1-.46-.1a.87.87,0,0,0,.51.17h.06a1.08,1.08,0,0,0-.44.61l.31.06.13,0L78.35,117l.15-.08a.35.35,0,0,0,.15-.49.37.37,0,0,0-.3-.2h0"/>
        <path class="cls-25" d="M78.45,118.36h-.1l-.06,0-17.47,9.11-.24-.05a1.53,1.53,0,0,0-.42.65l.63.14.13,0,17.43-9.08.06,0,.21-.11a.36.36,0,0,0-.17-.69"/>
        <path class="cls-32" d="M62.83,74.7l5.08,8.2c.78,1,1.58,2.11,2.39,3.17a1.36,1.36,0,0,0,.36.05,1.29,1.29,0,0,0,.51-.1c-3-3.91-5.78-7.72-8.34-11.32M45.21,47l-1,.32a1.18,1.18,0,0,1,.4.13c.32.23.31.81.26,1.29v.1l.76-.24a2.05,2.05,0,0,0-.42-1.6m41.25-11.4,0,0-.22.09-.09,0-.17.63c4.6,13.19,20.8,31,23.39,33.75L72.17,87.32l-.1-.13-.24.89.12.15,38.14-17.74.46-.22-.35-.36c-.19-.2-19.08-20.19-23.74-34.35m-.57-.2a.37.37,0,0,0-.13.41l.34-.11-.12,0a.38.38,0,0,1-.09-.25"/>
        <path class="cls-32" d="M47.11,46.36l-.75.24a1.36,1.36,0,0,1,.3.33.91.91,0,0,1,0,1,.33.33,0,0,0-.05.3l.8-.26a1.64,1.64,0,0,0-.2-1.43l-.14-.18"/>
        <path class="cls-32" d="M83.88,34.59l-1.06.34h.05a2.06,2.06,0,0,1,.6.12c.2.1.33.28.25.82a.31.31,0,0,0,.26.35h0a.32.32,0,0,0,.31-.26,1.37,1.37,0,0,0-.45-1.38"/>
        <path class="cls-32" d="M85.64,34l-.88.28a1.92,1.92,0,0,1,.88.49l.18.18.16.2a.31.31,0,0,0-.09.18.38.38,0,0,0,.09.25l.12,0h0l.09,0,.22-.09,0,0a.6.6,0,0,0,.16-.4.92.92,0,0,0-.37-.62l-.16-.16a1.8,1.8,0,0,0-.45-.35"/>
        <path class="cls-28" d="M8.05,86.53h0"/>
        <path class="cls-37" d="M39.2,48.1C33.21,56.25,15.76,80,8.07,86.54l4.65-2.19.34-.11-.75-.6Q27,66,39.82,48.38l-.31-.18-.31-.1"/>
        <path class="cls-30" d="M39.82,48.38Q27,66,12.31,83.64l.6.47,27.4-35.45h0l-.49-.28"/>
        <path class="cls-31" d="M39.1,48.06,7.77,86.44l.28.09h0C15.76,80,33.21,56.25,39.2,48.1l-.1,0"/>
        <polyline class="cls-30" points="40.31 48.66 40.31 48.66 40.31 48.66 40.31 48.66 40.31 48.66"/>
        <path class="cls-31" d="M39.15,48l0,.07.1,0,.31.1L39.15,48"/>
        <path class="cls-28" d="M14.94,88.8h0m0,0h0m4.56-4h0c.26,1.35.52,3.2.76,5.4h0c-.24-2.2-.5-4-.76-5.41"/>
        <path class="cls-30" d="M40.56,49.2c-.18.27-1.36,2-3.14,4.59a.41.41,0,0,1-.08.24l-.88,1.17c-.19.29-.4.59-.61.89.92-1.16,1.83-2.32,2.7-3.52.73-1,1.46-2,2.12-3.14l-.11-.23"/>
        <path class="cls-7" d="M41.51,51.09,19.33,84l.17.81c.26,1.36.52,3.21.76,5.41,6.3-9.36,23.57-34.71,23.57-34.71l-2.32-4.37"/>
        <path class="cls-30" d="M40.58,49.16l0,0,.11.23c.19.37.44.88.76,1.5l-.85-1.77"/>
        <path class="cls-28" d="M37.42,53.79l-1,1.41L37.34,54a.41.41,0,0,0,.08-.24"/>
        <polyline class="cls-28" points="13.49 88.26 13.49 88.26 13.5 88.26 13.49 88.26"/>
        <polyline class="cls-7" points="44.91 93.79 44.91 107.5 23.48 104.61 23.47 104.38 23.34 104.36 23.95 105.47 46.26 108.4 45.75 94.27 44.91 93.79"/>
        <polyline class="cls-22" points="44.74 93.7 44.76 107.27 23.47 104.38 23.48 104.61 44.91 107.5 44.91 93.79 44.74 93.7"/>
        <path class="cls-31" d="M55.42,58.31l-.92.34a1.12,1.12,0,0,0-.58,1.65l6.5,10.49a1.11,1.11,0,0,0,.95.53,1.2,1.2,0,0,0,.42-.08l1.41-.57A1.36,1.36,0,0,1,64,69.23l8.76-3.56a1.54,1.54,0,0,0-.08-.19L72.44,65,63,68.8a1.31,1.31,0,0,1-.43.08,1.11,1.11,0,0,1-1-.53l-6.22-10"/>
        <path class="cls-38" d="M92.29,74.87,83.9,78.55A1.21,1.21,0,0,1,82.34,78L76,65.87a1.22,1.22,0,0,1,.62-1.7l8.17-3.3a1.21,1.21,0,0,1,1.51.53l6.61,11.76a1.22,1.22,0,0,1-.57,1.71"/>
        <path class="cls-39" d="M77.42,64.77l7.23-2.92a.84.84,0,0,1,1,.37L91.82,73.1a.85.85,0,0,1-.4,1.19L84,77.56a.85.85,0,0,1-1.09-.38L77,66a.85.85,0,0,1,.44-1.18"/>
        <path class="cls-38" d="M84.27,60.13l.09-.1h0l.13-.2.11-.21c-.08.15,0-.08,0-.12l.06-.24,0-.13h0v-.34l-4.11-7.19A1.73,1.73,0,0,0,80.1,51l-2.54-1.8A1.81,1.81,0,0,0,75.9,49l-5.5,2a1.82,1.82,0,0,0-1,2.56l4.75,9a1.81,1.81,0,0,0,2.29.84l7.66-3.09.17-.16"/>
        <path class="cls-39" d="M70.59,51.82l5.65-2a.87.87,0,0,1,.78.11l2.59,1.83.25.28,3.72,6.51a.85.85,0,0,1-.42,1.2L76,62.6A.86.86,0,0,1,75,62.21L70.13,53a.85.85,0,0,1,.46-1.19"/>
        <path class="cls-38" d="M73.36,64.6,63,68.8a1.14,1.14,0,0,1-1.38-.45l-6.5-10.49a1.12,1.12,0,0,1,.58-1.65L67.1,52.13a1.13,1.13,0,0,1,1.38.53L73.93,63a1.12,1.12,0,0,1-.57,1.56"/>
        <path class="cls-39" d="M56.71,56.78l10.2-3.65a.85.85,0,0,1,1,.4l4.9,9.33A.84.84,0,0,1,72.41,64l-9.26,3.75a.83.83,0,0,1-1-.33L56.28,58a.85.85,0,0,1,.43-1.25"/>
        <path class="cls-38" d="M81.13,79.73l-8.71,3.84a1.37,1.37,0,0,1-1.7-.53L63.39,71.2a1.35,1.35,0,0,1,.64-2l9.74-4a1.35,1.35,0,0,1,1.71.63l6.3,12a1.36,1.36,0,0,1-.65,1.87"/>
        <polyline class="cls-39" points="63.84 70.25 74.51 65.92 81.24 78.72 71.69 82.93 63.84 70.25"/>
        <path class="cls-38" d="M102,69.11l-6.74-11a1.29,1.29,0,0,0-1.53-.53l-5.61,2-.36.15-.26.14-.26.16,0,0-.12.11-.1.11,0,0h0v.11l0,.15v.2l0,.2h0l0,.09.07.32,6.59,11.74a1.29,1.29,0,0,0,1.63.54L101.41,71a1.28,1.28,0,0,0,.58-1.84"/>
        <path class="cls-39" d="M87.66,60.71l.78-.32,5.24-1.91a.84.84,0,0,1,1,.35L101,69.13a.85.85,0,0,1-.38,1.22l-5.32,2.34a.84.84,0,0,1-1.08-.36L87.66,60.71"/>
        <path class="cls-40" d="M73.83,74.86l-.28.12,3.17,5.46.27-.15-3.16-5.43m-4-7-.27.15,3.87,6.66.28-.12L69.8,67.9"/>
        <path class="cls-40" d="M65.89,61.15l-.3.11c.88,1.48,1.74,3,2.58,4.4l.26-.15-2.54-4.36M62.27,55l-.26.15c1,1.73,2.05,3.52,3.1,5.31l.33.56.29-.11-.36-.6L62.27,55"/>
        <path class="cls-40" d="M77.36,56.65l-4.27,1.56.11.28,4.32-1.58-.16-.26m4-1.48-3.74,1.37.16.27,3.68-1.35-.1-.29"/>
        <path class="cls-40" d="M65.44,61l-5.82,2.13.11.28,5.86-2.14L65.44,61m5.26-1.92-5,1.81.16.27,4.92-1.8-.11-.28"/>
        <path class="cls-41" d="M65.73,60.88l-.29.11.15.27.3-.11-.16-.27"/>
        <polyline class="cls-42" points="68.06 77.07 68.15 77.29 68.18 77.28 68.06 77.07"/>
        <path class="cls-40" d="M73.4,74.71,68,77l0,.06.12.21L73.55,75l-.15-.27m4.63-2-4.35,1.86.15.27L78.15,73,78,72.73"/>
        <polyline class="cls-41" points="73.68 74.59 73.4 74.71 73.55 74.98 73.83 74.86 73.68 74.59"/>
        <path class="cls-42" d="M81.23,63.18l-.27.15h0l.28-.12,0,0"/>
        <path class="cls-40" d="M81.25,63.22l-.28.12.36.65c0-.15.07-.29.11-.44s-.13-.22-.19-.33"/>
        <path class="cls-40" d="M77.81,56.81l-.29.1c.77,1.38,1.55,2.77,2.28,4.09l.27-.14c-.72-1.31-1.5-2.69-2.26-4m-3.49-6.22-.27.15C75,52.4,76,54.17,76.94,55.89l.42.76.29-.11-.45-.8c-1-1.71-2-3.49-2.88-5.15"/>
        <path class="cls-41" d="M77.65,56.54l-.29.11.16.26.29-.1-.16-.27"/>
        <path class="cls-43" d="M83.38,78.65h0m.41-.06a1.61,1.61,0,0,1-.37.07,1.61,1.61,0,0,0,.37-.07m0,0h0m.06,0h0M82.35,78v0m2.84-17.26a1.17,1.17,0,0,0-.45.09h0a1.17,1.17,0,0,1,.45-.09h0"/>
        <path class="cls-44" d="M85.19,60.78a1.17,1.17,0,0,0-.45.09h0l-2.93,1.18c-.09.35-.18.71-.26,1.06l3.1-1.26a.87.87,0,0,1,.32-.06.84.84,0,0,1,.73.43L91.82,73.1a.85.85,0,0,1-.4,1.19L84,77.56a.8.8,0,0,1-.34.07.86.86,0,0,1-.75-.45L79.63,71l-.3,1.3,3,5.72v0a1.21,1.21,0,0,0,1,.59h0a1.61,1.61,0,0,0,.37-.07h.11l8.39-3.68A1.22,1.22,0,0,0,93,73.76a1.3,1.3,0,0,0-.15-.6L86.25,61.4h0a1.22,1.22,0,0,0-1.06-.62"/>
        <path class="cls-45" d="M85,61.79a.87.87,0,0,0-.32.06l-3.1,1.26c0,.15-.08.29-.11.44,1,1.92,2.15,3.89,3.25,5.86l.23.42,3.87-1.66.13.28-3.85,1.64c1,1.88,2.08,3.74,3.07,5.55l-.26.15c-1-1.82-2-3.7-3.09-5.57l-4.34,1.85-.12-.28L84.64,70l-.22-.39c-1-1.88-2.09-3.75-3.09-5.57-.58,2.33-1.14,4.66-1.7,7l3.26,6.19a.86.86,0,0,0,.75.45.8.8,0,0,0,.34-.07l7.44-3.27a.85.85,0,0,0,.4-1.19L85.7,62.22a.84.84,0,0,0-.73-.43"/>
        <path class="cls-46" d="M84.64,70l-4.31,1.84.12.28,4.34-1.85L84.64,70m4.15-1.78-3.87,1.66.15.26,3.85-1.64-.13-.28"/>
        <path class="cls-46" d="M85.07,70.09l-.28.13c1,1.87,2.09,3.75,3.09,5.57l.26-.15c-1-1.81-2-3.67-3.07-5.55m-3.63-6.54c0,.15-.08.29-.11.44,1,1.82,2,3.69,3.09,5.57l.22.39.28-.12-.23-.42c-1.1-2-2.2-3.94-3.25-5.86"/>
        <path class="cls-47" d="M84.92,69.83l-.28.12.15.27.28-.13-.15-.26"/>
        <polyline class="cls-43" points="84.1 60.29 82.04 61.12 82.04 61.12 84.1 60.29"/>
        <path class="cls-44" d="M83.3,56.26,83,57.46l.61,1.06a.85.85,0,0,1-.42,1.2l-.85.34L82,61.12l2.06-.83.17-.16.09-.1h0l.13-.2.08-.16h0l.06-.17.06-.24,0-.13h0v-.34L83.3,56.26"/>
        <path class="cls-45" d="M83,57.46c-.07.29-.15.57-.23.86-.15.58-.29,1.16-.43,1.74l.85-.34a.85.85,0,0,0,.42-1.2L83,57.46"/>
        <path class="cls-44" d="M84.61,59.61l0,0,0,0"/>
        <path class="cls-44" d="M79.18,72.91c-.11.44-.21.87-.31,1.31l2.37,4.5-3.8,1.68c-.09.35-.17.71-.25,1.06l3.94-1.73a1.37,1.37,0,0,0,.65-1.87h0l-2.6-5"/>
        <path class="cls-45" d="M78.87,74.22c-.48,2-1,4.12-1.43,6.18l3.8-1.68-2.37-4.5"/>
        <path class="cls-44" d="M91.84,59.15l1.84-.67a.71.71,0,0,1,.29,0,.86.86,0,0,1,.72.4L101,69.13a.85.85,0,0,1-.38,1.22l-5.32,2.34a.85.85,0,0,1-1.08-.36L87.66,60.71l.78-.32,3.34-1.22,0,0h0m2.32-1.7a1.32,1.32,0,0,0-.44.08l-5.61,2-.36.15-.26.14-.26.16,0,0-.12.11-.1.11,0,0h0v.11l0,.15v.2l0,.2h0l0,.09.07.32,6.59,11.74a1.3,1.3,0,0,0,1.12.65,1.34,1.34,0,0,0,.51-.11L101.41,71a1.26,1.26,0,0,0,.76-1.18,1.34,1.34,0,0,0-.18-.66l-6.74-11a1.3,1.3,0,0,0-1.09-.61"/>
        <path class="cls-45" d="M94,58.43a.71.71,0,0,0-.29,0l-1.84.67,3.48,6.32,2.62-1.12.12.28-2.59,1.1,3,5.46-.26.15-3-5.49-3.7,1.58-.12-.28L95,65.59l-3.47-6.3.21-.12-3.34,1.22-.78.32,6.53,11.62a.85.85,0,0,0,1.08.36l5.32-2.34a.85.85,0,0,0,.38-1.22l-6.28-10.3a.86.86,0,0,0-.72-.4"/>
        <path class="cls-46" d="M95,65.59l-3.67,1.56.12.28,3.7-1.58L95,65.59m2.9-1.24-2.62,1.12.15.26,2.59-1.1-.12-.28"/>
        <polyline class="cls-48" points="91.83 59.14 91.78 59.17 91.84 59.15 91.83 59.14"/>
        <path class="cls-46" d="M95.47,65.73l-.28.12,3,5.49.26-.15-3-5.46m-3.63-6.58-.06,0-.21.12L95,65.59l.28-.12-3.48-6.32"/>
        <polyline class="cls-47" points="95.32 65.47 95.04 65.58 95.19 65.85 95.47 65.73 95.32 65.47"/>
        <path class="cls-49" d="M62.36,98.91l.42.06h-.07l-.35,0"/>
        <path class="cls-50" d="M59.06,98.47a.42.42,0,0,0-.43.36.41.41,0,0,0,.36.48l3.61.49h.06a.43.43,0,0,0,.42-.37.44.44,0,0,0-.3-.47l-.42-.06-3.25-.44h0"/>
        <path class="cls-49" d="M33.12,94.72l1.36.21a.28.28,0,0,0-.13,0l-1.23-.17"/>
        <path class="cls-50" d="M30.69,94.4a.42.42,0,0,0-.06.84l3.61.49h0a.44.44,0,0,0,.43-.37.43.43,0,0,0-.24-.44l-1.36-.21-2.37-.32h-.06"/>
        <path class="cls-51" d="M51.69,108.8h0a.43.43,0,0,1-.42-.44l.42-12.57A1,1,0,0,1,52,95.1a1,1,0,0,1,.72-.24l20,1.83a.42.42,0,0,1,.39.46.43.43,0,0,1-.46.39l-20-1.83-.55.1h.43l-.41,12.57A.43.43,0,0,1,51.69,108.8Z"/>
        <path class="cls-51" d="M23.51,104.53a.43.43,0,0,1-.43-.41l-.45-12.56a1,1,0,0,1,.32-.72.92.92,0,0,1,.72-.24l20.88,2.49a.43.43,0,1,1-.1.85L23.59,91.45l-.53.09.42,0,.45,12.57a.41.41,0,0,1-.41.44Z"/>
        <path class="cls-8" d="M81.89,105.72a.42.42,0,0,1-.42-.42l-.36-11.2a1.21,1.21,0,0,1,.64-1.1l18.43-9.83a.43.43,0,0,1,.58.17.43.43,0,0,1-.17.58L82.15,93.75a.33.33,0,0,0-.18.32l.35,11.21a.43.43,0,0,1-.41.44Z"/>
        <path class="cls-8" d="M82.63,145a.42.42,0,0,1-.42-.42l-.36-11.2a1.21,1.21,0,0,1,.64-1.1l18.6-13a.43.43,0,0,1,.59.11.42.42,0,0,1-.1.59L82.93,133a.4.4,0,0,0-.23.35l.36,11.21a.43.43,0,0,1-.42.44Z"/>
        <path class="cls-38" d="M82,43.77c-.32,0-1-1.74-1.21-2L74.68,30.65c-.24-.45-.37-.74.07-1A.92.92,0,0,1,76,30l6.82,12.39a.92.92,0,0,1-.36,1.24.87.87,0,0,1-.44.11"/>
        <path class="cls-27" d="M81.74,45a4.6,4.6,0,0,0,.68.56,8.3,8.3,0,0,0,1,.54s0,0,0,0l.06,0,.13.05.29.1h0l.27,0,.09,0a19.34,19.34,0,0,0-.59-4.94,1.26,1.26,0,0,0-1.19-.89,3.05,3.05,0,0,0-2.08.9c0,.13,0,.26,0,.4a.46.46,0,0,1,.08.19A9.64,9.64,0,0,0,81.74,45Z"/>
        <path class="cls-28" d="M74.38,30.9h0m0,0h0m0,0h0m0,0h0m0,0h0"/>
        <path class="cls-52" d="M74.65,29.76a.9.9,0,0,0-.29,1.1h0L80.2,41.46a4.07,4.07,0,0,1,.6-.53l-.13.06c-.59-1.15-1.12-2.33-1.73-3.48a37.17,37.17,0,0,0-2-3.62C76.4,33,75.86,32,75.36,31c-.24-.43-.47-.85-.71-1.26"/>
        <path class="cls-31" d="M79.65,42.14l0,0h0l0,0m0,0h0"/>
        <path class="cls-53" d="M84.13,48a.54.54,0,0,1-.32.11h0a.54.54,0,0,0,.32-.11"/>
        <path class="cls-29" d="M81,40.87l-.15.06a4.07,4.07,0,0,0-.6.53h0a4.51,4.51,0,0,0-.53.65h0v0l0,0,3.75,5.75a.51.51,0,0,0,.43.23.54.54,0,0,0,.32-.11.49.49,0,0,0,.19-.39c0-.64,0-1.41,0-2.23a1.76,1.76,0,0,1-.45.07,2.39,2.39,0,0,1-1.79-.94,5.23,5.23,0,0,1-1-1.73,3.86,3.86,0,0,1-.2-1,6.25,6.25,0,0,0,0-1"/>
        <path class="cls-6" d="M82.2,42.63l.23.08c.16,0,.21-.23.21-.39a1.56,1.56,0,0,0-.42-1c-.22-.25-.7-.67-.92-.2S81.82,42.39,82.2,42.63Z"/>
      </g>
      <path class="cls-30" d="M39.32,48.69c.09,0,3.38.65,3.38.65l-.2-1-2.16-.7-1.56,0Z"/>
      <path class="cls-31" d="M38.65,46.65c-.25-.08-.44.34-.47.6a.87.87,0,0,0,.44.77,14.71,14.71,0,0,0,2.59.66,2.6,2.6,0,0,1,.73.18c.26.13.47.34.73.45a1,1,0,0,0,1-.12.31.31,0,0,0,.09-.11.26.26,0,0,0,0-.15l-.16-.53a.8.8,0,0,0-.27-.46.68.68,0,0,0-.25-.09C41.61,47.49,40.05,47.12,38.65,46.65Z"/>
      <path class="cls-54" d="M31,135l0,3.8a2.53,2.53,0,0,0,1.34-.39,1.29,1.29,0,0,0,.48-.53,1.63,1.63,0,0,0,.08-.43c.07-.69.12-1.38.17-2.06L31,135m-2.51-.48,0,.53c.07,1-.15,2.44.69,3.18a2.44,2.44,0,0,0,1,.5l0-3.87-1.78-.34m2.57-5.92L31,134.21l2.08.39c.12-1.88.18-3.77.17-5.65l-2.19-.4m-2.55-.47a34.26,34.26,0,0,0-.07,5.64l1.83.35.06-5.66-1.82-.33m2.6-4.54,0,4.26,2.18.4q0-1.24-.06-2.49a4.85,4.85,0,0,0-.33-1.78l-1.75-.39m-.9-.2a1.93,1.93,0,0,0-.3.27,4.55,4.55,0,0,0-1,2.21c-.12.51-.22,1-.29,1.53l1.74.32,0-4.29-.17,0"/>
    </g>
    <path class="cls-55" d="M82.43,144.79l-.27-11.92,19.39-13.55.27,11.92L82.43,144.79M82,122.69l-.11-10.42,18.09-9.74.13,10.31L82,122.69m-.37-16.89-.27-12,19.41-10.56.27,12L81.58,105.8m22-27.36L77.75,91.77c.06,5.24.2,11.41.38,17.84l.22,5.67v1a.37.37,0,0,1,.3.2.35.35,0,0,1-.15.49l-.15.08v.16l0,1.19h.07a.36.36,0,0,1,.17.69l-.21.11c.55,17.42,1.25,34.23,1.38,37.33l0,0v.11l24.28-19.16c-.8-15-.7-42.27-.56-57.41,0-.54,0-1.06,0-1.57h0"/>
    <path class="cls-36" d="M112.08,70.82a.62.62,0,0,1-.3.3C106.9,73.49,82,85.62,73.84,90a3,3,0,0,1-.71,2.45c-.55.69-1.09,1.15-.71,2l39.83-20.59-.64-.54,1-.63-.91-.55.73-.27-.82-.36,1.36-.46-.89-.31"/>
    <path class="cls-36" d="M40.67,49.43c-.66,1.09-1.39,2.13-2.12,3.14-.87,1.2-1.78,2.36-2.7,3.52-7.66,11.22-22,32.11-22.35,32.17l1.44.54h0a39.75,39.75,0,0,0,4.56-4h0L19.33,84,41.51,51.09l-.08-.16c-.32-.62-.57-1.13-.76-1.5"/>
    <g>
      <polyline class="cls-19" points="99.44 103.63 115.09 105.74 115.09 115.01 99.44 112.91 99.44 103.63"/>
      <path class="cls-56" d="M91.77,107.93c.33-.22,6.75-3.94,6.75-3.94l-.11,9.5-6.19,3.2-.45-8.76"/>
      <path class="cls-57" d="M91.77,107.93l.06.11c.16-.11,1.85-1.1,3.5-2.05l3.25-1.89-.06-.11H98.4l-.11,9.42-6,3.09-.45-8.57h-.12l.06.11-.06-.11h-.13l.47,9,6.42-3.33.11-9.78-.18.11S92,107.6,91.7,107.83l-.06,0v.07h.13"/>
      <path class="cls-56" d="M94.76,107.51c.33-.22,6.75-3.94,6.75-3.94l-.11,9.5-6.18,3.2-.46-8.76"/>
      <path class="cls-57" d="M94.76,107.51l.06.1,3.5-2,3.25-1.88-.06-.11h-.12l-.11,9.42-6,3.08-.45-8.57h-.12l.06.1-.06-.1h-.12l.46,8.94,6.42-3.32.11-9.78-.18.11s-6.42,3.71-6.76,3.94l-.06,0v.07h.12"/>
      <path class="cls-56" d="M96.81,108c.33-.22,6.75-3.94,6.75-3.94l-.11,9.5-6.19,3.2L96.81,108"/>
      <path class="cls-57" d="M96.81,108l.06.1c.16-.1,1.85-1.09,3.5-2l3.25-1.89-.06-.11h-.12l-.11,9.42-6,3.08L96.93,108h-.12l.06.1-.06-.1h-.13l.47,8.94,6.42-3.32.11-9.78-.18.11s-6.42,3.71-6.76,3.94l-.06,0V108h.13"/>
      <path class="cls-56" d="M100,108c.33-.22,6.75-3.94,6.75-3.94l-.11,9.5-6.18,3.2L100,108"/>
      <path class="cls-57" d="M100,108l.07.1c.15-.1,1.84-1.09,3.49-2l3.25-1.89-.06-.11h-.12l-.11,9.42-6,3.08L100.1,108H100l.07.1L100,108h-.12l.46,8.94,6.42-3.32.11-9.78-.18.11s-6.42,3.71-6.76,3.94l-.06,0V108H100"/>
      <path class="cls-56" d="M101.08,107.07c.33-.22,6.75-3.94,6.75-3.94l-.11,9.5-6.18,3.2-.46-8.76"/>
      <path class="cls-57" d="M101.08,107.07l.07.11c.15-.11,1.85-1.1,3.49-2.05l3.26-1.89-.07-.11h-.12l-.11,9.42-5.95,3.09-.45-8.57h-.12l.07.11-.07-.11H101l.47,9,6.41-3.33.12-9.78-.19.11s-6.41,3.71-6.76,3.94l-.05,0v.07h.12"/>
      <path class="cls-56" d="M103.59,108.16c.33-.22,6.75-3.94,6.75-3.94l-.11,9.5-6.18,3.2-.46-8.76"/>
      <path class="cls-57" d="M103.59,108.16l.07.1c.15-.1,1.85-1.09,3.49-2l3.25-1.89-.06-.11h-.12l-.11,9.42-6,3.08-.45-8.56h-.12l.07.1-.07-.1h-.12l.47,8.94,6.41-3.32.12-9.78-.19.11s-6.41,3.71-6.76,3.94l-.06,0v.07h.12"/>
      <path class="cls-56" d="M105.94,108.78c.33-.22,6.75-3.93,6.75-3.93l-.11,9.49-6.18,3.2-.46-8.76"/>
      <path class="cls-57" d="M105.94,108.78l.07.11c.15-.11,1.85-1.1,3.49-2l3.25-1.89-.06-.1h-.12l-.11,9.43-5.95,3.08-.45-8.57h-.12l.07.11-.07-.11h-.12l.47,8.95,6.41-3.33.12-9.78-.19.11s-6.41,3.72-6.76,3.94l-.06,0v.07h.12"/>
      <path class="cls-56" d="M108.81,108.78c.33-.22,6.75-3.93,6.75-3.93l-.11,9.49-6.18,3.2-.46-8.76"/>
      <path class="cls-57" d="M108.81,108.78l.07.11c.15-.11,1.85-1.1,3.49-2l3.25-1.89-.06-.1h-.12l-.11,9.43-6,3.08-.45-8.57h-.12l.07.11-.07-.11h-.12l.47,8.95,6.41-3.33.12-9.78-.19.11s-6.41,3.72-6.76,3.94l-.06,0v.07h.12"/>
      <path class="cls-56" d="M83.64,112.32c.33-.22,6.75-3.94,6.75-3.94l-.11,9.49-6.18,3.21-.46-8.76"/>
      <path class="cls-57" d="M83.64,112.32l.07.1c.15-.1,1.85-1.09,3.49-2l3.25-1.89-.06-.1h-.12l-.11,9.42-6,3.08-.45-8.57h-.12l.07.1-.07-.1h-.12l.46,9L90.4,118l.11-9.78-.18.1s-6.42,3.72-6.76,4l-.06,0v.06h.12"/>
      <path class="cls-56" d="M86.51,112.32c.33-.22,6.75-3.94,6.75-3.94l-.11,9.49L87,121.08l-.46-8.76"/>
      <path class="cls-57" d="M86.51,112.32l.07.1c.15-.1,1.85-1.09,3.49-2l3.25-1.89-.06-.1h-.12L93,117.8l-6,3.08-.45-8.57h-.12l.07.1-.07-.1h-.12l.47,9L93.27,118l.11-9.78-.18.1s-6.42,3.72-6.76,4l-.06,0v.06h.12"/>
      <path class="cls-56" d="M89,112.34c.33-.22,6.75-3.94,6.75-3.94l-.11,9.49-6.18,3.2L89,112.34"/>
      <path class="cls-57" d="M89,112.34l.07.1c.15-.11,1.85-1.1,3.49-2l3.25-1.89-.06-.1h-.12l-.11,9.42-6,3.08-.45-8.57H89l.07.1-.07-.1h-.12l.47,9L95.8,118l.12-9.79-.19.11S89.32,112,89,112.23l-.06,0v.07H89"/>
      <path class="cls-56" d="M91.37,112.76c.33-.22,6.75-3.94,6.75-3.94l-.11,9.5-6.18,3.2-.46-8.76"/>
      <path class="cls-57" d="M91.37,112.76l.06.1,3.5-2,3.25-1.88-.06-.11H98l-.11,9.42-6,3.08-.45-8.57h-.12l.06.1-.06-.1h-.13l.47,8.94,6.42-3.32.11-9.78-.18.11s-6.42,3.71-6.76,3.94l-.06,0v.07h.13"/>
      <path class="cls-56" d="M92.47,113.51c.33-.22,6.75-3.94,6.75-3.94l-.11,9.5-6.18,3.2-.46-8.76"/>
      <path class="cls-57" d="M92.47,113.51l.07.11c.15-.11,1.85-1.1,3.49-2.05l3.25-1.89-.06-.11H99.1L99,119,93,122.08l-.45-8.57h-.12l.07.11-.07-.11h-.12l.47,9,6.41-3.33.12-9.78-.19.11s-6.41,3.71-6.76,3.94l-.06,0v.07h.12"/>
      <path class="cls-56" d="M95.34,113.09c.33-.22,6.75-3.94,6.75-3.94l-.11,9.5-6.18,3.2-.46-8.76"/>
      <path class="cls-57" d="M95.34,113.09l.07.1c.15-.1,1.85-1.09,3.49-2l3.25-1.88-.06-.11H102l-.11,9.42-6,3.08-.45-8.57h-.12l.07.1-.07-.1h-.12l.47,8.94,6.41-3.32.12-9.78-.19.11s-6.41,3.71-6.76,3.94l0,0v.07h.12"/>
      <path class="cls-56" d="M97.33,113.53c.33-.22,6.75-3.94,6.75-3.94l-.11,9.5-6.18,3.2-.46-8.76"/>
      <path class="cls-57" d="M97.33,113.53l.07.1c.15-.1,1.85-1.09,3.49-2l3.25-1.89-.06-.11H104l-.11,9.42-5.95,3.08-.45-8.56h-.12l.07.1-.07-.1h-.12l.46,8.94,6.42-3.32.11-9.78-.18.11s-6.42,3.71-6.76,3.94l-.06,0v.07h.12"/>
      <path class="cls-56" d="M100.2,113.53c.33-.22,6.75-3.94,6.75-3.94l-.11,9.5-6.18,3.2-.46-8.76"/>
      <path class="cls-57" d="M100.2,113.53l.07.1c.15-.1,1.85-1.09,3.49-2L107,109.7l-.06-.11h-.12l-.11,9.42-6,3.08-.45-8.56h-.12l.07.1-.07-.1h-.12l.47,8.94,6.41-3.32.12-9.78-.19.11s-6.42,3.71-6.76,3.94l-.06,0v.07h.12"/>
      <path class="cls-19" d="M83.23,112.38c1,1.22,1.81,2.57,2.8,3.78,1.6,2,2.68,4.26,4.27,6.2a.64.64,0,0,1,.13.26l7.44,1v-9.27Z"/>
      <polyline class="cls-8" points="116.49 114.67 97.23 125.36 96.5 125.11 96.1 113 115.49 102.47 116.21 102.71 116.49 114.67"/>
      <polyline class="cls-9" points="114.97 113.93 114.79 113.61 99.05 122.35 99.08 113.96 114.64 105.33 114.6 113.93 114.97 113.93 114.79 113.61 114.97 113.93 115.33 113.93 115.37 104.08 98.35 113.53 98.31 123.59 115.33 114.14 115.33 113.93 114.97 113.93"/>
      <polyline class="cls-10" points="109.32 111.35 105.19 113.77 105.2 111.94 109.33 109.52 109.32 111.35"/>
      <path class="cls-22" d="M107,110.91l2.37-1.39v1.83l-4.13,2.42v-1.83l.14-.08a.55.55,0,0,1,.25-.29c.45-.24.91-.44,1.37-.66m7.68-5.58L99.08,114l0,8.39,15.55-8.64,0-8.38M98.31,123.59l0-10.06,17-9.45,0,9.85v.21l-17,9.45m17.9-20.88c-6,3.47-13.08,7.54-19.25,10.69,0,3.73.31,8.1.27,12l19.26-10.69-.28-12"/>
      <path class="cls-25" d="M99.05,122.35l0-8.39,15.56-8.63,0,8.38-15.55,8.64m16.32-18.27-17,9.45,0,10.06,17-9.45v-.21l0-9.85"/>
      <path class="cls-32" d="M109.33,109.52,107,110.91l.44-.21a.71.71,0,0,1,.31-.08.6.6,0,0,1,.52.29.62.62,0,0,1-.21.84c-.6.3-1.22.56-1.82.87a.67.67,0,0,1-.3.08.64.64,0,0,1-.53-.3.57.57,0,0,1,0-.54l-.14.08v1.83l4.13-2.42v-1.83"/>
      <path class="cls-28" d="M99.44,103.63v1c-.3.17-.45.24-.77.43v-1.28s-6.79,3.89-7.12,4.11l.08,1.29.08,0-.06-1.16h0v-.07l.06,0c.34-.23,6.75-3.94,6.76-3.94l.18-.11v1.32l.81-.47v-1"/>
      <path class="cls-23" d="M99.44,103.63v1l1.16-.67v0l.05-.12-1.21-.17"/>
      <path class="cls-58" d="M94.64,107.52v-.07l.06,0,.25-.16h0l1.09-.62,2.35-1.38v-1"/>
      <path class="cls-58" d="M98.39,104.21,95.33,106c-1.53.88-3.1,1.8-3.44,2l0,1,1-.55.26-.15.18-.1v1.49l1.34-.78-.07-1.36"/>
      <path class="cls-59" d="M98.64,103.78l-.18.11S92,107.6,91.7,107.83l-.06,0v.07h0l.06,1.16.24-.13,0-1c.34-.21,1.91-1.13,3.44-2l3.06-1.78v1l.25-.14v-1.32"/>
      <path class="cls-28" d="M90.58,108.05s-7.43,4-7.76,4.26l-.6-.07,1.3.18v-.1h0v-.06l.06,0c.34-.23,6.76-3.94,6.76-4l.18-.1,0,1.67.22-.13-.13-1.66"/>
      <path class="cls-58" d="M90.27,108.59l-3.07,1.78-3.44,2v.07l2.64.36,0-.49h0v-.06l.06,0c.18-.12,2.07-1.23,3.81-2.24l0-1.39"/>
      <path class="cls-59" d="M90.51,108.17l-.18.1s-6.42,3.72-6.76,4l-.06,0v.06h0v.1l.25,0v-.07l3.44-2,3.07-1.78,0,1.39.11-.06.13-.08,0-1.67"/>
      <polyline class="cls-28" points="82.22 112.24 82.22 121.52 83.57 121.7 82.22 121.52 82.22 112.24 82.22 112.24"/>
      <path class="cls-23" d="M84.47,112.59l.54.07s0,0,0,0l-1.24-.17-.25,0-1.3-.18h0v9.28l1.35.18,8,1.08Z"/>
      <polyline class="cls-28" points="101.63 103.92 101.63 103.92 103.2 104.14 103.2 104.14 101.63 103.92"/>
      <path class="cls-23" d="M101.63,103.93v.7l0,.4,1.54-.89-1.57-.21"/>
    </g>
    <g>
      <path class="cls-38" d="M78.65,28l-3.73,2a.92.92,0,0,0,.86,1.62l3.06-1.63C78.75,29.28,78.68,28.62,78.65,28Z"/>
      <path class="cls-27" d="M75.92,30.06c-.36-.84-1-1.19-1.79-.83a1.4,1.4,0,0,0-.67,2c.37.83,1,.95,1.81.59s1-.87.63-1.7"/>
      <path class="cls-60" d="M88.11,34.41l.09.06a.66.66,0,0,1,.44.06l.16.08h0l.28.09a4,4,0,0,0,.58.12h.06l.14,0,.29,0,.59.06a.76.76,0,0,1,.36.14,7.13,7.13,0,0,0,3.06-.79L83.08,13.37a8.11,8.11,0,0,0-4,6,.58.58,0,0,1,.21.39,21.1,21.1,0,0,0,3.28,9.48,16.88,16.88,0,0,0,3.38,3.68c.67.49,1.36,1,2,1.42Z"/>
      <path class="cls-4" d="M94.48,20.73a20.58,20.58,0,0,0-1.2-2,.53.53,0,0,1-.37-.08,15.24,15.24,0,0,0-7-2.26c-1.36-.13-2.74-.1-4.1-.28-.24,0-.5-.06-.77-.11-.93,2.74-.35,6.91,1.78,10.93C85.85,32.72,91,36,94.19,34.3S97.55,26.51,94.48,20.73Z"/>
      <g class="cls-61">
        <path class="cls-18" d="M89.28,23.49l-.17.09a7.63,7.63,0,0,1,1,3.46,2.41,2.41,0,0,1-1,2.26,1.6,1.6,0,0,1-.75.18c-1.24,0-2.93-1.29-4-3.34a7.63,7.63,0,0,1-1-3.46,2.41,2.41,0,0,1,1-2.26,1.54,1.54,0,0,1,.75-.18c1.24,0,2.93,1.29,4,3.34l.17-.09.16-.08c-1.14-2.12-2.86-3.52-4.34-3.53a1.92,1.92,0,0,0-.92.22A2.74,2.74,0,0,0,83,22.68a8,8,0,0,0,1,3.63c1.13,2.12,2.86,3.52,4.34,3.53a1.92,1.92,0,0,0,.92-.22A2.76,2.76,0,0,0,90.43,27a8,8,0,0,0-1-3.63l-.16.08"/>
        <path class="cls-18" d="M90.57,22.81l-.17.09a14.68,14.68,0,0,1,1.89,6.59c0,1.62-.48,2.81-1.38,3.28a2.11,2.11,0,0,1-1,.24,5.75,5.75,0,0,1-3.47-1.68A16.33,16.33,0,0,1,83,26.83a14.75,14.75,0,0,1-1.89-6.6c0-1.62.48-2.81,1.38-3.28a2.11,2.11,0,0,1,1-.24A5.71,5.71,0,0,1,87,18.39,16.07,16.07,0,0,1,90.4,22.9l.17-.09.16-.09a16.55,16.55,0,0,0-3.52-4.6,6,6,0,0,0-3.71-1.77,2.49,2.49,0,0,0-1.17.28c-1.08.58-1.58,1.92-1.58,3.6A15.22,15.22,0,0,0,82.68,27a16.36,16.36,0,0,0,3.52,4.6,6,6,0,0,0,3.71,1.77,2.49,2.49,0,0,0,1.17-.28c1.08-.58,1.58-1.92,1.58-3.6a15.22,15.22,0,0,0-1.93-6.77l-.16.09"/>
        <path class="cls-18" d="M87,24.91a16,16,0,0,1-.45-11.69l-.34-.12a16,16,0,0,0-.92,5.39,16.17,16.17,0,0,0,1.38,6.57l.33-.15"/>
        <path class="cls-18" d="M87,25a12.11,12.11,0,0,1,6-6.58l-.16-.33a12.47,12.47,0,0,0-6.19,6.78L87,25"/>
        <path class="cls-18" d="M87.05,25.47a13.91,13.91,0,0,0,7.13,2.06,12.18,12.18,0,0,0,2.47-.25l-.07-.35a12.21,12.21,0,0,1-2.4.24,13.66,13.66,0,0,1-7-2l-.18.31"/>
        <path class="cls-18" d="M86.24,25.44a12.83,12.83,0,0,0,9.47,7.47l.07-.35a12.54,12.54,0,0,1-9.2-7.25l-.34.13h0"/>
        <path class="cls-18" d="M86.47,24.78a7.08,7.08,0,0,0-1.69,4.69,5,5,0,0,0,0,.7l.36-.05a4.28,4.28,0,0,1,0-.65A6.76,6.76,0,0,1,86.72,25l-.25-.26"/>
        <path class="cls-18" d="M86.39,24.38a9.56,9.56,0,0,1-5.51-3.3l-.28.23a9.92,9.92,0,0,0,5.71,3.43l.08-.36"/>
      </g>
      <path class="cls-38" d="M87.13,25.34l9.43-5A.61.61,0,1,0,96,19.25l-9.43,5a.6.6,0,0,0-.25.82.61.61,0,0,0,.82.26"/>
      <path class="cls-62" d="M95.23,20.26a.75.75,0,0,1,.21,0,1.53,1.53,0,0,0,.29.07H96l.34,0h.08l.17,0a5.27,5.27,0,0,0,.68-.19l.1,0,.1-.05.27-.14.27-.16.13-.1h0l0,0,.21-.19.1-.11,0,0,.15-.24,0-.12s0,0,0-.05.06-.19.08-.28l0-.11a.32.32,0,0,1,0-.09l0,0A1.34,1.34,0,0,0,97,17.81l-1.2.64a1.34,1.34,0,0,0-.55,1.81Z"/>
      <path class="cls-28" d="M95.09,21.11l-.32.17h0l.32-.17m-2.22-3,0,0,.11.15h0l-.08-.17M83,13.44h0m.06,0,0,0,0,0m.42-.19a3,3,0,0,0-.36.16l0,0,0,0h0a3,3,0,0,1,.36-.16m0,0h0m0,0h0"/>
      <path class="cls-63" d="M83.08,13.37l0,0h0l0,0,0,0h0a7.54,7.54,0,0,0-1.81,1.46,14.13,14.13,0,0,0,.16,8.65A19.17,19.17,0,0,0,85.6,31a20.3,20.3,0,0,1-2.82-4c-3.06-5.78-2.93-11.85.3-13.57"/>
      <path class="cls-30" d="M89.19,29.64a2,2,0,0,1-.76.2c0,.17-.08.33-.11.5.58.61,1.18,1.29,1.76,1.9a6,6,0,0,0,1.09-1.11,13,13,0,0,1-2-1.49m1-1.05h0a2.22,2.22,0,0,1-.63.84,13.24,13.24,0,0,0,1.86,1.39,3.75,3.75,0,0,0,.19-.41c-.48-.59-.92-1.24-1.4-1.83m-4.89-.42a7.66,7.66,0,0,0-.12,1.3,4.91,4.91,0,0,0,0,.57,12.87,12.87,0,0,0,1,1.06,3,3,0,0,0,0-2.08,6.69,6.69,0,0,1-.94-.85m1-2.62a6.57,6.57,0,0,0-.93,2.17,7.78,7.78,0,0,0,.76.76v0a12.24,12.24,0,0,1-.06-1.91,10,10,0,0,0,2.33,2.95,1.78,1.78,0,0,0,.52-.11,11.68,11.68,0,0,1-2.61-3.82m.84-.21a.72.72,0,0,1-.28.07.7.7,0,0,1-.25-.05,11.4,11.4,0,0,0,2.64,3.83,1.81,1.81,0,0,0,.43-.48h-.08l-.27,0a17.29,17.29,0,0,1-2.17-3l-.1-.15.07,0-.07,0,.08-.13m-.64-.05-.06.08.11-.05-.05,0m2.9-1.15-2,1.08.15.09,2-1-.06-.14m-6-.47a8.14,8.14,0,0,0,.87,2.47,8.32,8.32,0,0,0,.78,1.23A6,6,0,0,1,86.27,25a.63.63,0,0,1,0-.27,10.43,10.43,0,0,1-2.81-1m7.26-.22-1,.52.06.14,1-.52-.06-.14M81.3,22.08A16.8,16.8,0,0,0,83,26.83a17.83,17.83,0,0,0,1.77,2.73v-.09A8.36,8.36,0,0,1,85,27.82a9.89,9.89,0,0,1-1-1.51,8.79,8.79,0,0,1-1-2.87,10.19,10.19,0,0,1-1.72-1.36m13.47-.8-3.76,2s0,.09.07.14q1.86-1,3.75-2l-.07-.15h0m-9-.92a16.32,16.32,0,0,0,.76,3.32,8,8,0,0,1,1.14-2.06,5,5,0,0,0-1.9-1.26m-.69-.12h0a1.54,1.54,0,0,0-.75.18,2.41,2.41,0,0,0-1,2.26,5.17,5.17,0,0,0,0,.54,10.09,10.09,0,0,0,3,1.15l0-.1a15.68,15.68,0,0,1-1-4,1.73,1.73,0,0,0-.32,0m7.84-2,.08.16a6.72,6.72,0,0,0-.75.4,4.77,4.77,0,0,1,.76-.06h.23c-.1-.15-.19-.32-.3-.46l0-.05h0m-7.22-.81c0,.35,0,.69,0,1,0,.49,0,1,.06,1.48a4.91,4.91,0,0,1,2.17,1.37,7.74,7.74,0,0,1,.9-.91,13.82,13.82,0,0,0-1.87-2,10.75,10.75,0,0,0-1.23-.93m-2.22-.75h0a2.11,2.11,0,0,0-1,.24c-.9.47-1.38,1.66-1.38,3.28a8.8,8.8,0,0,0,.08,1.22A9.55,9.55,0,0,0,83,23v-.3a2.74,2.74,0,0,1,1.2-2.58,1.92,1.92,0,0,1,.92-.22l.29,0q-.06-.7-.06-1.41c0-.41,0-.82,0-1.23a4.06,4.06,0,0,0-1.87-.55M85,12.92a4.31,4.31,0,0,0-1.48.26h0a3,3,0,0,0-.36.16h0c-3.23,1.72-3.36,7.79-.3,13.57a20.3,20.3,0,0,0,2.82,4h0c-.24-.27-.47-.54-.7-.83l-.09-.1a21.5,21.5,0,0,1-2-3.12,19.56,19.56,0,0,1-1.92-5.26v-.07h0c0-.14-.06-.29-.08-.43l0,0c0-.31,0-.62,0-.91,0-1.68.5-3,1.58-3.6a2.49,2.49,0,0,1,1.17-.28,4.23,4.23,0,0,1,1.91.52,16.2,16.2,0,0,1,.84-3.77l.34.12a15.77,15.77,0,0,0-.83,3.84,9.34,9.34,0,0,1,1.45,1.06,13.87,13.87,0,0,1,1.91,2.08,6.85,6.85,0,0,1,2.09-1.13,12,12,0,0,1,1.62-.95c-2.39-3.22-5.38-5.2-7.86-5.2"/>
      <path class="cls-36" d="M88.9,29.37a1.78,1.78,0,0,1-.52.11l.11.09-.06.27a2,2,0,0,0,.76-.2l-.29-.27m1.24-.77a1.35,1.35,0,0,1-.47.11,1.81,1.81,0,0,1-.43.48l.27.25a2.22,2.22,0,0,0,.63-.84m-4.78-.88-.09.45a6.69,6.69,0,0,0,.94.85q-.06-.29-.09-.54a7.78,7.78,0,0,1-.76-.76M89.71,24l-.32.17.06.14.32-.17L89.71,24M83,23.44a8.79,8.79,0,0,0,1,2.87,9.89,9.89,0,0,0,1,1.51c0-.15.07-.3.11-.45a8.32,8.32,0,0,1-.78-1.23,8.14,8.14,0,0,1-.87-2.47L83,23.44M85.76,20c0,.13,0,.26,0,.39a5,5,0,0,1,1.9,1.26l.23-.28A4.91,4.91,0,0,0,85.76,20m-.66-.09a1.92,1.92,0,0,0-.92.22A2.74,2.74,0,0,0,83,22.68V23l.39.24a5.17,5.17,0,0,1,0-.54,2.41,2.41,0,0,1,1-2.26,1.54,1.54,0,0,1,.75-.18h0a1.73,1.73,0,0,1,.32,0c0-.12,0-.25,0-.37l-.29,0"/>
      <path class="cls-36" d="M85.18,30s0,.05,0,.08l-.29,0c.23.29.46.56.7.83l.39.34a1.07,1.07,0,0,0,.2-.23,12.87,12.87,0,0,1-1-1.06M91,23.28l-.32.17.06.14.33-.17c0-.05,0-.1-.07-.14M80.85,21.61v.07a19.56,19.56,0,0,0,1.92,5.26,21.5,21.5,0,0,0,2,3.12c0-.16,0-.32,0-.5A17.83,17.83,0,0,1,83,26.83a16.8,16.8,0,0,1-1.71-4.75c-.16-.15-.3-.31-.45-.47m4.91-4.55,0,.4a10.75,10.75,0,0,1,1.23.93,13.82,13.82,0,0,1,1.87,2l.29-.23a13.87,13.87,0,0,0-1.91-2.08,9.34,9.34,0,0,0-1.45-1.06m-2.26-.71a2.49,2.49,0,0,0-1.17.28c-1.08.58-1.58,1.92-1.58,3.6,0,.29,0,.6,0,.91l.08-.06.32.37a8.8,8.8,0,0,1-.08-1.22c0-1.62.48-2.81,1.38-3.28a2.11,2.11,0,0,1,1-.24h0a4.06,4.06,0,0,1,1.87.55l0-.39a4.23,4.23,0,0,0-1.91-.52"/>
      <path class="cls-36" d="M86.25,13.1a16.2,16.2,0,0,0-.84,3.77l0,.39c0,.41,0,.82,0,1.23s0,.94.06,1.41c0,.12,0,.25,0,.37a15.68,15.68,0,0,0,1,4,5.44,5.44,0,0,1,.15-.54l0-.05a16.32,16.32,0,0,1-.76-3.32c0-.13,0-.26,0-.39,0-.49-.06-1-.06-1.48,0-.34,0-.68,0-1l0-.4a15.77,15.77,0,0,1,.83-3.84l-.34-.12"/>
      <path class="cls-36" d="M92.84,18.12h0a12,12,0,0,0-1.62.95,5.7,5.7,0,0,1,1.07-.24,6.72,6.72,0,0,1,.75-.4L93,18.27l-.11-.15"/>
      <path class="cls-36" d="M87.35,25.22l-.22.12h0l-.08.13.07,0,.38-.2-.15-.09"/>
      <path class="cls-36" d="M86.54,25.32l-.11.05-.14.18a11.68,11.68,0,0,0,2.61,3.82l.29.27a13,13,0,0,0,2,1.49l.2-.3a13.24,13.24,0,0,1-1.86-1.39l-.27-.25a11.4,11.4,0,0,1-2.64-3.83l-.06,0"/>
      <path class="cls-36" d="M86.27,25a6,6,0,0,0-1.19,2.38c0,.15-.08.3-.11.45a8.36,8.36,0,0,0-.19,1.65v.09c0,.18,0,.34,0,.5l.09.1.29,0s0-.05,0-.08a4.91,4.91,0,0,1,0-.57,7.66,7.66,0,0,1,.12-1.3l.09-.45a6.57,6.57,0,0,1,.93-2.17l.14-.18.06-.08a.53.53,0,0,1-.18-.21.36.36,0,0,1,0-.09"/>
      <path class="cls-36" d="M80.88,21.08l-.08.06,0,0c0,.14,0,.29.08.43h0c.15.16.29.32.45.47A10.19,10.19,0,0,0,83,23.44l.41.23a10.43,10.43,0,0,0,2.81,1,.64.64,0,0,1,.1-.26l0-.09a10.09,10.09,0,0,1-3-1.15L83,23a9.55,9.55,0,0,1-1.78-1.53l-.32-.37"/>
      <path class="cls-28" d="M97.06,20.86h0m1.73-2.51v0l0,0a1.35,1.35,0,0,1-.14,1.48,1.35,1.35,0,0,0,.14-1.48l0,0v0"/>
      <path class="cls-52" d="M95.15,20.09a55,55,0,0,1-8.48,4.66l-.11.05-.23-.3v0a.64.64,0,0,0-.1.26.63.63,0,0,0,0,.27.36.36,0,0,0,0,.09.53.53,0,0,0,.18.21l.05,0,.06,0a.7.7,0,0,0,.25.05.72.72,0,0,0,.28-.07h0l.22-.12,2-1.08.32-.17,1-.52.32-.17,3.76-2,.32-.17.6-.32a1.36,1.36,0,0,1-.44-.48l0,0a.89.89,0,0,1-.08-.17"/>
      <path class="cls-64" d="M98.44,18l0,0a1.15,1.15,0,0,1-.24,1.34,2.49,2.49,0,0,1-1.3.61,6.37,6.37,0,0,1-1.3.13H95.2l0,0a.89.89,0,0,0,.08.17l0,0a1.36,1.36,0,0,0,.44.48h0a1.38,1.38,0,0,0,.76.23,1.25,1.25,0,0,0,.59-.14h0l1.2-.63a1.43,1.43,0,0,0,.42-.34,1.35,1.35,0,0,0,.14-1.48l0,0v0a1.23,1.23,0,0,0-.35-.4"/>
      <path class="cls-52" d="M80.17,27.15l-1.81,1c0,.66.09,1.33.13,2L81,28.78q-.21-.34-.39-.69c-.17-.31-.32-.62-.46-.94"/>
      <path class="cls-63" d="M79.13,19a13.43,13.43,0,0,0,1.05,8.16h0c.14.32.29.63.46.94s.25.46.39.69h0c2.37,4,6.19,6.36,9.75,6.36a7.35,7.35,0,0,0,1.81-.22,6,6,0,0,1-.94.12l-.15,0c-3.47-.67-5.41-2.8-7.59-5.59s-3.51-6.83-4.65-10.17L79.13,19"/>
      <path class="cls-28" d="M75,32.39l-.23,0h0l.23,0"/>
      <path class="cls-52" d="M75.83,29.46h0a1.63,1.63,0,0,1,.49.63,1.69,1.69,0,0,1,.13.66,1.69,1.69,0,0,0-.13-.66,1.63,1.63,0,0,0-.49-.63"/>
      <path class="cls-29" d="M74.25,31.33a.69.69,0,0,1-.25,0c-.9-.33-.32-1.57.18-2a.82.82,0,0,1,.49-.19,1,1,0,0,1,.82,1.3,1.14,1.14,0,0,1-.38.58,1.44,1.44,0,0,1-.58.29.9.9,0,0,1-.28,0m.55-2.24a1.79,1.79,0,0,0-.67.14l-.18.1a1.66,1.66,0,0,0,.85,3.08l.23,0a1.73,1.73,0,0,0,.43-.12,1.67,1.67,0,0,0,1-1.52,1.69,1.69,0,0,0-.13-.66,1.7,1.7,0,0,0-1.52-1"/>
    </g>
  </g>
</svg>
