<svg xmlns="http://www.w3.org/2000/svg" viewBox="0 0 122.2 122.2">
  <defs>
    <style>
      .cls-1 {
        isolation: isolate;
      }

      .cls-2 {
        fill: #fff;
      }

      .cls-3 {
        fill: #798d91;
      }

      .cls-4 {
        fill: #e2e0db;
      }

      .cls-5 {
        fill: #4f7b84;
      }

      .cls-6 {
        fill: #a4bbc0;
      }

      .cls-7 {
        fill: #575763;
      }

      .cls-8 {
        fill: #93a5a6;
      }

      .cls-9 {
        fill: #335b65;
      }

      .cls-10 {
        fill: #dacb95;
      }

      .cls-11 {
        fill: #857681;
      }

      .cls-12 {
        fill: #d25f56;
      }

      .cls-13 {
        fill: #8b201d;
      }

      .cls-14 {
        fill: #894641;
      }

      .cls-15 {
        fill: #ffde91;
      }

      .cls-16 {
        fill: #edaa74;
      }

      .cls-17 {
        fill: #cf8a45;
      }

      .cls-18 {
        fill: #d3cfb6;
      }

      .cls-19 {
        fill: #ce9d63;
      }

      .cls-20 {
        fill: none;
        stroke: #4f7b84;
        stroke-linecap: round;
        stroke-miterlimit: 10;
        stroke-width: 1.55px;
      }

      .cls-21 {
        opacity: 0.6;
        mix-blend-mode: screen;
      }

      .cls-22 {
        fill: #ffd255;
      }
    </style>
  </defs>
  <g class="cls-1">
    <g id="Layer_1" data-name="Layer 1">
      <g>
        <rect class="cls-2" x="-11.19" y="-17.71" width="153.2" height="175.33"/>
        <g>
          <path class="cls-3" d="M40.3,47.82l.9,10.68a.78.78,0,0,0,1.55-.13l-.91-10.68a.77.77,0,1,0-1.54.13"/>
          <path class="cls-3" d="M80.05,47.18,78.7,58.35a.77.77,0,0,0,.67.86.78.78,0,0,0,.87-.68L81.6,47.37a.78.78,0,0,0-1.55-.19"/>
          <path class="cls-3" d="M74.71,45.54,73.3,59.09a.77.77,0,1,0,1.54.16L76.26,45.7a.78.78,0,0,0-1.55-.16"/>
          <path class="cls-3" d="M44.51,45.64l.42,13.56a.78.78,0,1,0,1.55-.05l-.42-13.56a.78.78,0,1,0-1.55,0"/>
          <polyline class="cls-4" points="48.64 59.17 45.34 184.67 54.88 192.74 79.47 184.3 74.69 61.37 48.64 59.17"/>
          <path class="cls-5" d="M48.2,83.87l.18,0c1.86-.48.87-.08,0,0L48,84h0c.37-.09.76-.14,1.13-.22a26,26,0,0,0,2.76-.86l.08,0c.42-.21.84-.42,1.24-.64,1-.53,1.95-1.1,2.88-1.72l1.22-.83a7.5,7.5,0,0,0,.6-.51c.82-.82.48-.45,0,0l-.4.4c1.62-1.63,3.55-3,5.2-4.63s3.25-3.38,4.77-5.17c.77-.91,1.47-1.87,2.25-2.77-1.84,2.14-.28.34.1-.17l.85-1.18c1-1.41,2-2.87,2.86-4.35L48.64,59.17,48,83.87h.21"/>
          <path class="cls-5" d="M53.84,116.62l.15-.05.16-.08,1.51-.71c1.09-.54,2.17-1.12,3.22-1.74s1.91-1.14,2.83-1.76c.56-.37,1.1-.75,1.65-1.14l.88-.68.72-.6,1.26-1.09q1.35-1.23,2.64-2.55c.85-.88,1.67-1.78,2.46-2.71.34-.39.66-.8,1-1.2l.08-.12a59.61,59.61,0,0,0,3.66-5.81l-.36-9.31c-.51.51-1,1.08-1.48,1.57-7.43,7-16.47,12.84-26.68,12.92l-.45,17.17a57.48,57.48,0,0,0,6.76-2.11"/>
          <path class="cls-5" d="M44,61.82c0,.74,1.39,10.9,1.39,10.9s10.07,7,32.23,0l1.9-10.9H44"/>
          <path class="cls-3" d="M60.94,42.66c-13.68,0-24.77,3-24.77,6.61,0,.93.74,1.82,2.06,2.62,2-2.22,5.37-3.27,8.09-4A75.48,75.48,0,0,1,58.93,46a72.66,72.66,0,0,1,15.81.14c3,.43,6.38,1.15,8.51,3.51a5.08,5.08,0,0,1,1,1.73,3,3,0,0,0,1.42-2.12C85.7,45.62,74.61,42.66,60.94,42.66Z"/>
          <path class="cls-6" d="M93.34,178.8h0c.41,1.48.72,3,1.12,4.5h0v.08l0,.06h0c-.43-1.53-.74-3.12-1.17-4.65h0M77.57,135.55h0l1.07,27.56h0l-1.07-27.57h0m-.1-5.52h0m-.34-6,.06,1.57.07,1.87h0L77.13,124M75.89,92.12l0,1.2.11,3.06h0l.47,12-.47-12-.16-4.26M75.5,81.9h0l.3,7.61-.3-7.61h0M48.25,74.1l-.12,4.58.12-4.58h0m26.91-.66h0l.23,5.87h0l-.13-3.4v-.07l-.1-2.4m-31-7.63.3.08v0l-.29,0"/>
          <polyline class="cls-7" points="75.4 79.31 75.39 79.31 75.49 81.9 75.5 81.9 75.4 79.31"/>
          <path class="cls-8" d="M79.47,184.3l-1.9.65h0l1.9-.65m-1.9-48.74c-.14.49-.25,1-.42,1.48s-.34,1-.52,1.49-.2.72-.16.72h0c-.55,1.68-2.16,3.66-3,4.92l-.11.1c-.42.44-.8.91-1.23,1.35-.77.79-1.65,1.45-2.43,2.22l-.1.06c-.57.35-1.11.75-1.68,1.1s-.94.56-1.42.83c.26,3.1.34,6.21.36,9.31l2.4,8.94a49.79,49.79,0,0,0,9.38-5l-1.07-27.56M76.05,96.38a59.61,59.61,0,0,1-3.66,5.81l-.08.12c-.33.4-.65.81-1,1.2-.79.93-1.61,1.83-2.46,2.71s-1.74,1.73-2.64,2.55L65,109.86l0,0,.67,20.69a62.63,62.63,0,0,0,11.5-7.81l.11,2.8L77.13,124l0-1.23-.56-14.44-.47-12M58.4,78.66a6.14,6.14,0,0,0-.5.49c.28-.26.5-.49.5-.49m16.76-5.22a65,65,0,0,1-10,2v.36s-1.43.09-3.55.1c-1.37,1.21-2.83,2.33-4.1,3.61l.4-.4a7.5,7.5,0,0,1-.6.51l-1.22.83c-.93.62-1.89,1.19-2.88,1.72-.4.22-.82.43-1.24.64l-.08,0c-.53.19-1.07.38-1.61.54C52.74,85.59,57,88,64.25,89l.23,7.28a59.77,59.77,0,0,0,9.73-7.61c.52-.49,1-1.06,1.48-1.57l.25,6.25,0-1.2,0-1.18,0-1.43-.3-7.61-.1-2.59-.23-5.87"/>
          <path class="cls-9" d="M57.9,79.15a6.14,6.14,0,0,1,.5-.49s-.22.23-.5.49M48.25,74.1l-.12,4.58L48.07,81a13.74,13.74,0,0,0,2.2,2.41c.54-.16,1.08-.35,1.61-.54l.08,0c.42-.21.84-.42,1.24-.64,1-.53,1.95-1.1,2.88-1.72l1.22-.83a7.5,7.5,0,0,0,.6-.51l-.4.4c1.27-1.28,2.73-2.4,4.1-3.61h-.23c-3.73,0-9.41-.29-13.12-1.84"/>
          <path class="cls-9" d="M75.69,87.07c-.51.51-1,1.08-1.48,1.57a59.77,59.77,0,0,1-9.73,7.61l.43,13.65,0,0,1.26-1.09q1.35-1.23,2.64-2.55c.85-.88,1.67-1.78,2.46-2.71.34-.39.66-.8,1-1.2l.08-.12a59.61,59.61,0,0,0,3.66-5.81h0l-.11-3.06-.25-6.25"/>
          <path class="cls-9" d="M78.77,65.81a63.57,63.57,0,0,1-14.55,1.35,167.67,167.67,0,0,1-19.8-1.32v0h0c.14,1.1.3,2.28.44,3.34a105.2,105.2,0,0,0,20.28,2.34v3.91a65,65,0,0,0,10-2h0v0c.8-.22,1.58-.43,2.41-.69l1.2-6.91"/>
          <path class="cls-6" d="M48.16,74.06l.09,0h0l-.09,0"/>
          <path class="cls-9" d="M48,74l.17.07.09,0h0L48,74"/>
          <polyline class="cls-10" points="85.6 115.66 85.47 115.84 85.47 115.84 85.6 115.66 85.6 115.66"/>
          <path class="cls-3" d="M84.28,55.9c0-2.49-10.41-4.51-23.24-4.51s-23.24,2-23.24,4.51S48.21,60.41,61,60.41,84.28,58.39,84.28,55.9Z"/>
          <g>
            <path class="cls-4" d="M70.36,47.94l3.17-17.61c-4.44-3.8-9.88-3.52-15.53-3.25-1.78.08-3.58.17-5.37.13-1.17,1.37-2.39,2.69-3.52,4.09l1.31.49V47.18l-3.34,1,.66,4.64a65.06,65.06,0,0,0,17.31,1.63,42.82,42.82,0,0,0,8.48-1V49.27l-3.17-1.33"/>
            <path class="cls-11" d="M63.34,50.42c-5.29,1-8.63-.41-12.92-3.52V45.62l-3.34,1,.39,8.21a80.48,80.48,0,0,0,13.47,1.07,80.72,80.72,0,0,0,12.59-.95V48.18l-3-1.28c-1,2.78-3.71,2.83-7.24,3.52"/>
            <path class="cls-12" d="M48.82,32a62.13,62.13,0,0,0,28.84-.69L60.8,8.82,45.47,30.53l3.35,1.26V32"/>
            <path class="cls-4" d="M70.89,47.75c0,1.66-4.68,3-10.47,3S50,49.41,50,47.75s4.68-3,10.46-3,10.47,1.34,10.47,3"/>
            <path class="cls-13" d="M52.17,23.18v.12a4.69,4.69,0,0,0,.42,1.95v0l.22.25.1.12.4-.09h0l0,0c.64-.3,1.25-.64,1.86-1L55,24.09c-.59.36-1.19.69-1.81,1l.11.23-.05-.25-.11,0L53,25l-.2.17.24-.1a4.2,4.2,0,0,1-.38-1.74v-.11h-.52"/>
            <path class="cls-13" d="M53.72,21A3.81,3.81,0,0,0,54,22a1.06,1.06,0,0,0,.92.46,1.17,1.17,0,0,0,.46-.08,2.93,2.93,0,0,0,1-.81L56,21.22a2.45,2.45,0,0,1-.83.68l-.28.05a.52.52,0,0,1-.47-.22c-.12-.16-.08-.48-.18-.88l-.5.15"/>
            <path class="cls-13" d="M56.17,18.24a2.11,2.11,0,0,0-.14.68.76.76,0,0,0,.35.7.68.68,0,0,0,.36.1.89.89,0,0,0,.57-.21,1.85,1.85,0,0,0,.46-.62l-.46-.25a1.35,1.35,0,0,1-.33.47l-.24.09-.1,0c-.06,0-.09-.1-.1-.26a1.62,1.62,0,0,1,.11-.5l-.48-.18"/>
            <path class="cls-13" d="M57,20.7c.12.78.24,1.57.37,2.35l.07.26a.5.5,0,0,0,.27.27l.17,0a.71.71,0,0,0,.54-.35,11.58,11.58,0,0,0,1-1.59l-.47-.23A11.11,11.11,0,0,1,58,23l-.1.11,0,0v0h0v.06l0,0h0v.06l0,0,0,0,0,0h0l0,0,0,0,0,0,0-.1c-.13-.78-.25-1.56-.36-2.35L57,20.7Z"/>
            <path class="cls-13" d="M57.17,25.66a1.93,1.93,0,0,0,.24.85.93.93,0,0,0,.74.43l.22,0a1.14,1.14,0,0,0,.49-.4l.79-1-.41-.32-.79,1c-.1.13-.18.22-.25.23h-.05a.38.38,0,0,1-.3-.19,1.52,1.52,0,0,1-.17-.63l-.51.06Z"/>
            <path class="cls-13" d="M53.54,29A5.9,5.9,0,0,0,54,31v0l.21.27,0,.06.06,0,.19,0a.75.75,0,0,0,.57-.33l.8-.93-.4-.33-.79.93-.13.12,0,0h0v0l0,0h0v0l0,0-.11.24.21-.16-.19-.25-.2.16.23-.1a5.61,5.61,0,0,1-.41-1.81l-.52,0"/>
            <path class="cls-13" d="M61.39,17.58a2.52,2.52,0,0,0,.83,1.22.89.89,0,0,0,.5.21l.13,0a.74.74,0,0,0,.49-.49,2.47,2.47,0,0,0,.17-.89l0-.33-.52.07,0,.26a1.85,1.85,0,0,1-.13.7l-.08.14-.05,0h0l-.17-.1a2,2,0,0,1-.67-1l-.49.15"/>
            <path class="cls-13" d="M63.11,22.49A3.79,3.79,0,0,0,64,23.7a.87.87,0,0,0,.56.26l.18,0,0,0,.25-.22,0,0,0,0a1.88,1.88,0,0,0,.32-1.05v-.25l-.52.07v.18a1.36,1.36,0,0,1-.23.76l.22.15-.18-.2-.21.19.18.2-.09-.25h0l-.22-.12a3.64,3.64,0,0,1-.78-1.05l-.46.22"/>
            <path class="cls-13" d="M61.24,27.29A6.79,6.79,0,0,0,62.31,30l.18.21a.57.57,0,0,0,.34.15h0a.69.69,0,0,0,.54-.32,8,8,0,0,0,1.08-1.72L64,28.12a8,8,0,0,1-1,1.62l-.11.11,0,0h0l-.12-.14a6.25,6.25,0,0,1-1-2.52l-.51.08Z"/>
            <path class="cls-6" d="M70.58,46.9l0,.05v0h0a.2.2,0,0,0,0-.08l3,1.28v0l-3-1.28m.62-3.63L70.71,46l0-.24q2,.12,3.9.39l-.13,1.18,3.35-2.85a54.65,54.65,0,0,0-6.67-1.21M61.32,9.52h0L77.66,31.27l-.1,0,.1,0L61.32,9.52"/>
            <path class="cls-8" d="M73.19,32.24c-.8.15-1.61.28-2.41.4a66.22,66.22,0,0,1-10.51.87,41.35,41.35,0,0,1-9.85-1.07v1.15a30.26,30.26,0,0,0,13.33,3.1q1.14,0,2.34-.09L64.42,45c3,.35,5.27,1.08,6.11,2v0h0l.17-1,.49-2.73h0l2-11"/>
            <path class="cls-7" d="M70.58,46.9a.2.2,0,0,1,0,.08,1.15,1.15,0,0,1,.35.77c0,1.34-3.07,2.47-7.32,2.86l5.94,4.83,4-.52V48.18l-3-1.28"/>
            <path class="cls-14" d="M61.32,9.52l7.17,21.59a23.87,23.87,0,0,1-7,1.82c.88,0,1.82.08,2.84.08a58.42,58.42,0,0,0,6.61-.39h0l-.11,0c.8-.12,1.61-.25,2.41-.4v-.09c1.46-.27,2.94-.5,4.36-.86l.1,0L61.32,9.52"/>
            <path class="cls-8" d="M64.42,45l-1.08,5.43.23.19c4.25-.39,7.32-1.52,7.32-2.86a1.15,1.15,0,0,0-.35-.77h0c-.84-.9-3.13-1.63-6.11-2"/>
            <path class="cls-15" d="M45.47,30.53a20.28,20.28,0,0,0,5,1.91v-.13c-.54-.11-1.07-.22-1.6-.35v-.17l-.63-.24c-.89-.29-1.8-.63-2.72-1"/>
            <path class="cls-16" d="M48.19,31.55l.63.24V32c.53.13,1.06.24,1.6.35h0v-.09c-.53-.11-1.08-.13-1.6-.26v-.17l-.63-.24h0m4-7.56L48.8,30l-3.33.5h0l2.72,1a31,31,0,0,0,9.75,1.58,31.48,31.48,0,0,0,3.5-.2c-6.1-.37-9-1.82-9-1.82l2.37-6.32c-.46.27-.93.52-1.42.75l0,0h0l-.4.09-.1-.12-.22-.25v0A4.67,4.67,0,0,1,52.22,24m1.55-2.74-1.1,1.94h0v.11A4.28,4.28,0,0,0,53,25l.07.08.08,0c.61-.29,1.2-.62,1.78-1l.06.1.78-2.09a1.89,1.89,0,0,1-.48.28,1.17,1.17,0,0,1-.46.08h0A1.06,1.06,0,0,1,54,22a1.77,1.77,0,0,1-.18-.75m7-12.43h0L54,20.94l.27-.09c.1.4.06.72.18.88a.52.52,0,0,0,.47.22l.28-.05a2.45,2.45,0,0,0,.83-.68l.12.11.61-1.61a.79.79,0,0,1-.33-.1.76.76,0,0,1-.35-.7,2.11,2.11,0,0,1,.14-.68l.48.18a1.62,1.62,0,0,0-.11.5c0,.16,0,.22.1.26l.1,0,.19-.07L60.8,8.82"/>
            <path class="cls-17" d="M52.67,23.19l-.45.8a4.67,4.67,0,0,0,.37,1.26v0l.22.25.1.12.4-.09h0l0,0c.49-.23,1-.48,1.42-.75l.23-.6-.06-.1c-.58.35-1.17.68-1.78,1l-.08,0L53,25a4.28,4.28,0,0,1-.36-1.7v-.11h0"/>
            <path class="cls-17" d="M54.22,20.85l-.27.09-.18.31A1.77,1.77,0,0,0,54,22a1.06,1.06,0,0,0,.91.46h0a1.17,1.17,0,0,0,.46-.08,1.89,1.89,0,0,0,.48-.28l.29-.77L56,21.22a2.45,2.45,0,0,1-.83.68l-.28.05a.52.52,0,0,1-.47-.22c-.12-.16-.08-.48-.18-.88"/>
            <path class="cls-17" d="M56.17,18.24a2.11,2.11,0,0,0-.14.68.76.76,0,0,0,.35.7.79.79,0,0,0,.33.1l.22-.59-.19.07-.1,0c-.06,0-.09-.1-.1-.26a1.62,1.62,0,0,1,.11-.5l-.48-.18"/>
            <path class="cls-18" d="M50.42,32.31v.13a41.35,41.35,0,0,0,9.85,1.07,66.22,66.22,0,0,0,10.51-.87,65.12,65.12,0,0,1-9.45.7,56.51,56.51,0,0,1-10.91-1"/>
            <path class="cls-19" d="M48.19,31.55l.63.24V32c.52.13,1.07.15,1.6.26v.09a56.51,56.51,0,0,0,10.91,1,65.12,65.12,0,0,0,9.45-.7l.11,0a58.42,58.42,0,0,1-6.61.39c-1,0-2,0-2.84-.08a31.48,31.48,0,0,1-3.5.2,31,31,0,0,1-9.75-1.58"/>
            <path class="cls-10" d="M45.47,30.53h0c.92.39,1.83.73,2.72,1l-2.72-1"/>
            <path class="cls-2" d="M51.65,36.54V48.26a.78.78,0,0,0,1.55,0V36.54a.78.78,0,1,0-1.55,0"/>
          </g>
          <ellipse class="cls-2" cx="60.72" cy="43.7" rx="5.56" ry="2.7" transform="matrix(0.97, -0.26, 0.26, 0.97, -9.3, 17.36)"/>
          <path class="cls-3" d="M60.94,55.87c-13.68,0-24.77-3-24.77-6.6l.53,10.38A2.22,2.22,0,0,0,36.17,61a2.31,2.31,0,0,0,.68,1.48v0h0c2.58,2.92,12.33,5.09,24,5.09,13.67,0,24.76-3,24.76-6.6V49.27C85.7,52.91,74.61,55.87,60.94,55.87Z"/>
          <path class="cls-11" d="M51.2,55.34c-2.32.72-3.76,1.72-3.76,2.82,0,2.2,5.72,4,12.78,4S73,60.36,73,58.16c0-1-1.34-2-3.48-2.72-2.68.26-5.55.43-8.57.43A86.85,86.85,0,0,1,51.2,55.34Z"/>
          <path class="cls-5" d="M36.77,53.22c8.11,5.2,18.59,6.2,28,5.77a59.53,59.53,0,0,0,20.9-5V49.27c0,3.64-11.09,6.6-24.76,6.6s-24.77-3-24.77-6.6l.19,3.8A3.39,3.39,0,0,1,36.77,53.22Z"/>
          <path class="cls-5" d="M64.8,64.17c-9.36.43-19.68-.63-28.13-5.07l0,.55A2.22,2.22,0,0,0,36.17,61a2.31,2.31,0,0,0,.68,1.48v0h0c2.58,2.92,12.33,5.09,24,5.09,13.67,0,24.76-3,24.76-6.6V59.52A65.3,65.3,0,0,1,64.8,64.17Z"/>
          <line class="cls-20" x1="80.77" y1="54.5" x2="80.9" y2="63.36"/>
          <line class="cls-20" x1="74.54" y1="56.65" x2="74.78" y2="64.2"/>
          <line class="cls-20" x1="67.52" y1="57.58" x2="67.12" y2="66.72"/>
          <line class="cls-20" x1="59.17" y1="58.44" x2="58.77" y2="67.59"/>
          <line class="cls-20" x1="50.57" y1="56.92" x2="49.96" y2="64.86"/>
          <line class="cls-20" x1="43.95" y1="55.9" x2="43.95" y2="64.2"/>
          <line class="cls-20" x1="38.37" y1="54.17" x2="38.78" y2="61.82"/>
          <line class="cls-20" x1="85.14" y1="52.4" x2="85" y2="60.89"/>
          <g class="cls-21">
            <path class="cls-22" d="M41,46a7.68,7.68,0,0,0-2.64,1.58A4.61,4.61,0,0,0,36.87,50c-.09.85.7,1.46,1.59,1.83s1.95.63,2.91,1a71.73,71.73,0,0,0,12.15,2.39,96.83,96.83,0,0,0,12.41.49c4.15-.12,8.31-.41,12.48-.83a76.43,76.43,0,0,1-12.42,2,69.33,69.33,0,0,1-12.64-.16A56.1,56.1,0,0,1,41,53.93l-1.49-.56A13.24,13.24,0,0,1,38,52.74a4.6,4.6,0,0,1-1.39-1.05,2.17,2.17,0,0,1-.51-1.79,3.21,3.21,0,0,1,.82-1.52A7,7,0,0,1,41,46Z"/>
          </g>
        </g>
      </g>
    </g>
  </g>
</svg>
