<svg id="Layer_1" data-name="Layer 1" xmlns="http://www.w3.org/2000/svg" viewBox="0 0 150.18 172.84">
  <defs>
    <style>
      .cls-1 {
        fill: #b9e4ef;
      }

      .cls-2 {
        fill: #f5fffe;
        opacity: 0.4;
      }

      .cls-3 {
        fill: #958581;
      }

      .cls-4 {
        fill: #645351;
      }

      .cls-5 {
        fill: #f2ecd6;
      }

      .cls-6 {
        fill: #ffd255;
      }

      .cls-7 {
        fill: #cb715a;
      }

      .cls-8 {
        fill: #d45f56;
      }

      .cls-9 {
        fill: #7e5e5d;
      }

      .cls-10 {
        fill: #5e5e5e;
      }
    </style>
  </defs>
  <g>
    <circle class="cls-1" cx="76.86" cy="86.12" r="63.54"/>
    <g>
      <circle class="cls-2" cx="77.89" cy="85.98" r="43.82"/>
      <g>
        <path class="cls-3" d="M76.39,151.61a65.44,65.44,0,1,1,65.44-65.44A65.51,65.51,0,0,1,76.39,151.61ZM76.39,21a65.14,65.14,0,1,0,65.13,65.14A65.21,65.21,0,0,0,76.39,21Z"/>
        <g>
          <path class="cls-3" d="M61.81,66.22h0l-.08,0-4.44-6.12a.11.11,0,0,1,0-.16.12.12,0,0,1,.17,0l4.37,6c.46-.33.93-.65,1.43-1l-3.89-6.35a.12.12,0,0,1,.21-.13l4,6.45a.12.12,0,0,1,0,.17c-.56.35-1.11.71-1.61,1.08Z"/>
          <path class="cls-3" d="M65.12,64.18h0a.12.12,0,0,1-.08-.06l-3.43-6.73a.12.12,0,0,1,.06-.16.12.12,0,0,1,.16.05l3.38,6.63c.45-.24,1-.5,1.55-.74L63.88,56.3a.12.12,0,0,1,.23-.09l2.89,7a.14.14,0,0,1-.07.16c-.64.27-1.24.57-1.75.83Z"/>
          <path class="cls-3" d="M63.43,65.14h0a.1.1,0,0,1-.08,0l-4-6.45a.12.12,0,0,1,.21-.13l3.89,6.35c.53-.32,1-.6,1.49-.84l-3.38-6.63a.12.12,0,0,1,.06-.16.12.12,0,0,1,.16.05L65.23,64a.13.13,0,0,1,0,.17c-.54.27-1.09.58-1.69,1Z"/>
          <path class="cls-3" d="M60.27,67.42h0a.12.12,0,0,1-.08,0l-4.9-5.74a.12.12,0,0,1,0-.17.12.12,0,0,1,.17,0l4.83,5.65c.39-.34.82-.67,1.35-1.06l-4.37-6a.11.11,0,0,1,0-.16.12.12,0,0,1,.17,0L61.91,66a.14.14,0,0,1,0,.17c-.61.44-1.09.82-1.53,1.19A.11.11,0,0,1,60.27,67.42Z"/>
          <path class="cls-3" d="M70.6,62.16a.11.11,0,0,1-.12-.09l-1.77-7.36a.12.12,0,0,1,.24-.05l1.73,7.24c.54-.13,1.09-.23,1.69-.33L71.2,54.2a.13.13,0,0,1,.1-.14.12.12,0,0,1,.14.1l1.19,7.49a.14.14,0,0,1,0,.09s0,0-.07,0c-.69.11-1.31.23-1.91.37Z"/>
          <path class="cls-3" d="M66.89,63.35a.13.13,0,0,1-.12-.08l-2.89-7a.12.12,0,0,1,.23-.09L67,63.07c.51-.21,1-.4,1.61-.59l-2.29-7.07a.12.12,0,0,1,.07-.15.12.12,0,0,1,.16.08l2.33,7.18a.1.1,0,0,1,0,.09.11.11,0,0,1-.07.06c-.64.21-1.25.44-1.82.67Z"/>
          <path class="cls-3" d="M51.56,86.28H44A.12.12,0,0,1,44,86h7.43c0-.57,0-1.12.09-1.72l-7.42-.58a.12.12,0,0,1-.11-.13.12.12,0,0,1,.13-.11l7.54.59a.12.12,0,0,1,.11.13c-.05.69-.09,1.3-.09,1.94A.12.12,0,0,1,51.56,86.28Z"/>
          <path class="cls-3" d="M58.83,68.73a.12.12,0,0,1-.09,0l-5.33-5.33a.14.14,0,0,1,0-.17.13.13,0,0,1,.18,0l5.24,5.25c.42-.42.86-.8,1.27-1.16l-4.82-5.64a.12.12,0,0,1,0-.17.12.12,0,0,1,.17,0l4.9,5.74a.12.12,0,0,1,0,.17c-.47.4-1,.83-1.43,1.3A.12.12,0,0,1,58.83,68.73Z"/>
          <path class="cls-3" d="M68.72,62.68h-.06a.13.13,0,0,1-.06-.07l-2.33-7.19a.12.12,0,0,1,.07-.15.12.12,0,0,1,.16.08l2.29,7.07c.58-.19,1.15-.33,1.66-.46l-1.74-7.24a.12.12,0,0,1,.24-.05L70.71,62a.11.11,0,0,1-.09.14c-.56.14-1.22.3-1.87.51Z"/>
          <path class="cls-3" d="M72.51,61.79a.12.12,0,0,1-.12-.1L71.2,54.2a.13.13,0,0,1,.1-.14.12.12,0,0,1,.14.1l1.17,7.37c.61-.09,1.17-.16,1.7-.21l-.58-7.42a.12.12,0,0,1,.11-.13.14.14,0,0,1,.13.11l.59,7.55a.11.11,0,0,1,0,.08.14.14,0,0,1-.08.05c-.59,0-1.22.12-1.92.23Z"/>
          <path class="cls-3" d="M51.89,82.4h0l-7.49-1.19a.12.12,0,0,1-.1-.13.12.12,0,0,1,.14-.11l7.37,1.17q.14-.89.33-1.68l-7.25-1.74a.12.12,0,0,1-.08-.15.12.12,0,0,1,.14-.09l7.36,1.77a.12.12,0,0,1,.09.15c-.14.6-.26,1.22-.37,1.9a.14.14,0,0,1,0,.08Z"/>
          <path class="cls-3" d="M52.26,80.49h0l-7.37-1.77a.12.12,0,0,1-.08-.15.12.12,0,0,1,.14-.09l7.24,1.74c.12-.47.27-1.06.46-1.65l-7.07-2.3a.12.12,0,1,1,.07-.23l7.19,2.33s0,0,.07.06a.17.17,0,0,1,0,.1c-.21.67-.38,1.35-.51,1.87a.13.13,0,0,1-.05.07Z"/>
          <path class="cls-3" d="M52.78,78.61h0l-7.18-2.33a.12.12,0,1,1,.07-.23l7.07,2.3c.19-.59.39-1.12.59-1.61l-6.86-2.85a.12.12,0,0,1-.07-.16.12.12,0,0,1,.16-.06l7,2.89a.11.11,0,0,1,.07.06.17.17,0,0,1,0,.1c-.23.55-.45,1.15-.67,1.82A.11.11,0,0,1,52.78,78.61Z"/>
          <path class="cls-3" d="M51.65,84.33h0l-7.54-.59a.12.12,0,0,1-.11-.13.12.12,0,0,1,.13-.11l7.42.58c.05-.52.11-1.08.21-1.7l-7.37-1.17a.12.12,0,0,1-.1-.13.12.12,0,0,1,.14-.11l7.49,1.19a.12.12,0,0,1,.1.14c-.12.72-.19,1.33-.24,1.92a.09.09,0,0,1,0,.08A.11.11,0,0,1,51.65,84.33Z"/>
          <path class="cls-3" d="M53.45,76.78H53.4l-7-2.89a.12.12,0,0,1-.07-.16.12.12,0,0,1,.16-.06l6.86,2.84c.24-.55.5-1.09.74-1.55l-6.63-3.38a.12.12,0,0,1,.11-.21l6.73,3.43a.11.11,0,0,1,.06.07.14.14,0,0,1,0,.09c-.26.51-.57,1.12-.83,1.76A.12.12,0,0,1,53.45,76.78Z"/>
          <path class="cls-3" d="M55.24,73.32h-.07l-6.45-4a.13.13,0,0,1,0-.16.12.12,0,0,1,.17,0L55.2,73c.31-.5.63-1,.95-1.43l-6-4.37a.12.12,0,0,1,0-.17.12.12,0,0,1,.17,0l6.11,4.44a.14.14,0,0,1,0,.08.09.09,0,0,1,0,.09q-.56.76-1.08,1.62A.12.12,0,0,1,55.24,73.32Z"/>
          <path class="cls-3" d="M57.52,70.17a.11.11,0,0,1-.08,0l-5.74-4.9a.12.12,0,0,1,0-.17.12.12,0,0,1,.17,0l5.65,4.82c.35-.42.74-.85,1.15-1.27l-5.25-5.25a.14.14,0,0,1,0-.17.13.13,0,0,1,.18,0l5.33,5.33a.14.14,0,0,1,0,.09.11.11,0,0,1,0,.08c-.47.47-.91,1-1.31,1.44a.12.12,0,0,1-.08,0Z"/>
          <path class="cls-3" d="M56.32,71.7a.1.1,0,0,1-.07,0l-6.12-4.44a.12.12,0,0,1,0-.17.12.12,0,0,1,.17,0l6,4.37c.39-.52.73-1,1.06-1.35L51.7,65.24a.12.12,0,0,1,0-.17.12.12,0,0,1,.17,0L57.6,70a.12.12,0,0,1,0,.08.16.16,0,0,1,0,.09c-.37.44-.75.92-1.19,1.52A.11.11,0,0,1,56.32,71.7Z"/>
          <path class="cls-3" d="M54.28,75l-.06,0-6.73-3.43a.12.12,0,0,1,.11-.21l6.63,3.37c.24-.47.52-1,.84-1.49l-6.35-3.89a.13.13,0,0,1,0-.16.12.12,0,0,1,.17,0L55.3,73.1a.13.13,0,0,1,.06.07.18.18,0,0,1,0,.1c-.37.6-.68,1.15-1,1.68A.14.14,0,0,1,54.28,75Z"/>
          <path class="cls-3" d="M74.44,61.56a.12.12,0,0,1-.12-.11l-.59-7.55a.12.12,0,0,1,.11-.13.14.14,0,0,1,.13.11l.58,7.43c.53-.05,1.12-.09,1.71-.09V53.78a.13.13,0,0,1,.13-.12.13.13,0,0,1,.12.12v7.56a.13.13,0,0,1-.12.12c-.68,0-1.35,0-1.94.1Z"/>
          <path class="cls-3" d="M97.53,73.32a.11.11,0,0,1-.1-.06c-.35-.56-.71-1.1-1.08-1.61a.12.12,0,0,1,0-.17L102.49,67a.12.12,0,0,1,.17,0,.12.12,0,0,1,0,.17l-6,4.37c.32.46.64.94.95,1.43l6.35-3.89a.12.12,0,0,1,.12.2l-6.45,4Z"/>
          <path class="cls-3" d="M98.49,75a.13.13,0,0,1-.11-.06c-.28-.55-.59-1.1-.95-1.69a.1.1,0,0,1,0-.09.16.16,0,0,1,.06-.08l6.45-4a.12.12,0,0,1,.12.2l-6.34,3.9c.31.52.59,1,.84,1.49l6.63-3.38a.12.12,0,0,1,.16.06.12.12,0,0,1,0,.16L98.54,75Z"/>
          <path class="cls-3" d="M99.32,76.78h0s0,0-.06-.07c-.26-.64-.57-1.24-.83-1.75a.16.16,0,0,1,0-.1s0,0,.06-.07l6.74-3.43a.12.12,0,0,1,.16.06.12.12,0,0,1,0,.16L98.65,75c.24.46.5,1,.74,1.55l6.86-2.85a.12.12,0,1,1,.09.23l-7,2.89Z"/>
          <path class="cls-3" d="M96.45,71.7a.12.12,0,0,1-.1,0c-.45-.61-.83-1.1-1.2-1.53a.09.09,0,0,1,0-.09.09.09,0,0,1,0-.08l5.74-4.9a.12.12,0,0,1,.17,0,.12.12,0,0,1,0,.17l-5.64,4.83c.33.39.67.82,1,1.35l6-4.37a.12.12,0,0,1,.17,0,.12.12,0,0,1,0,.17l-6.11,4.44A.11.11,0,0,1,96.45,71.7Z"/>
          <path class="cls-3" d="M101.12,84.33a.11.11,0,0,1-.08,0,.09.09,0,0,1,0-.08c0-.59-.12-1.2-.24-1.92a.12.12,0,0,1,.1-.14L108.35,81a.12.12,0,0,1,0,.24L101,82.38c.1.63.16,1.17.21,1.7l7.42-.58a.11.11,0,0,1,.13.11.12.12,0,0,1-.11.13l-7.54.59Z"/>
          <path class="cls-3" d="M95.25,70.16a.13.13,0,0,1-.1,0c-.4-.47-.83-1-1.3-1.43a.13.13,0,0,1,0-.18l5.33-5.33a.14.14,0,0,1,.17,0,.13.13,0,0,1,0,.18L94.11,68.6c.41.42.79.85,1.15,1.27l5.65-4.82a.12.12,0,0,1,.17,0,.12.12,0,0,1,0,.17l-5.74,4.9A.11.11,0,0,1,95.25,70.16Z"/>
          <path class="cls-3" d="M100,78.61a.12.12,0,0,1-.11-.09c-.22-.67-.44-1.26-.67-1.82a.14.14,0,0,1,0-.09s0,0,.06-.07l7-2.89a.12.12,0,1,1,.09.23l-6.86,2.84c.2.5.4,1,.59,1.61l7.07-2.3a.12.12,0,0,1,.15.08.13.13,0,0,1-.08.16L100,78.6Z"/>
          <path class="cls-3" d="M108.77,86.28h-7.55a.12.12,0,0,1-.12-.12c0-.63,0-1.25-.1-1.94a.12.12,0,0,1,.11-.13l7.54-.59a.11.11,0,0,1,.13.11.12.12,0,0,1-.11.13l-7.42.58c0,.6.08,1.16.09,1.72h7.43a.12.12,0,1,1,0,.24Z"/>
          <path class="cls-3" d="M100.51,80.49a.12.12,0,0,1-.12-.1c-.18-.76-.34-1.33-.51-1.87a.12.12,0,0,1,.07-.15L107.14,76a.12.12,0,0,1,.15.08.13.13,0,0,1-.08.16l-7.07,2.29c.16.48.3,1,.46,1.66l7.24-1.74a.11.11,0,0,1,.14.09.11.11,0,0,1-.08.14l-7.36,1.77Z"/>
          <path class="cls-3" d="M89.33,65.13a.07.07,0,0,1-.06,0c-.59-.36-1.14-.67-1.69-1a.12.12,0,0,1,0-.16L91,57.26a.12.12,0,0,1,.16,0,.12.12,0,0,1,.06.16L87.8,64c.48.25,1,.53,1.49.84l3.89-6.35a.14.14,0,0,1,.17,0,.12.12,0,0,1,0,.17l-4,6.45a.16.16,0,0,1-.08.06Z"/>
          <path class="cls-3" d="M82.16,62.16h0c-.6-.14-1.22-.27-1.9-.37a.14.14,0,0,1-.08,0,.15.15,0,0,1,0-.09l1.19-7.49a.12.12,0,1,1,.24,0l-1.17,7.37c.6.09,1.15.2,1.68.33l1.74-7.25a.12.12,0,0,1,.24.06l-1.77,7.36A.11.11,0,0,1,82.16,62.16Z"/>
          <path class="cls-3" d="M84,62.67h0c-.67-.22-1.35-.39-1.88-.51a.13.13,0,0,1-.07-.06.09.09,0,0,1,0-.09l1.76-7.36a.12.12,0,0,1,.24.06L82.31,62c.48.12,1.07.27,1.65.45l2.3-7.07a.12.12,0,0,1,.15-.08.12.12,0,0,1,.08.16l-2.33,7.18A.13.13,0,0,1,84,62.67Z"/>
          <path class="cls-3" d="M80.25,61.79h0c-.7-.11-1.33-.19-1.92-.23a.14.14,0,0,1-.08-.05.12.12,0,0,1,0-.09l.59-7.54a.12.12,0,0,1,.13-.11.12.12,0,0,1,.11.13l-.58,7.42c.53,0,1.09.12,1.7.21l1.17-7.37a.12.12,0,1,1,.24,0l-1.19,7.49A.12.12,0,0,1,80.25,61.79Z"/>
          <path class="cls-3" d="M85.87,63.35h0c-.57-.24-1.17-.46-1.82-.67a.16.16,0,0,1-.08-.06.14.14,0,0,1,0-.09l2.33-7.19a.12.12,0,0,1,.15-.08.12.12,0,0,1,.08.16L84.2,62.48c.57.18,1.1.38,1.61.59l2.84-6.87a.12.12,0,0,1,.16-.06.12.12,0,0,1,.07.15l-2.89,7-.07.07Z"/>
          <path class="cls-3" d="M91,66.21l-.07,0c-.5-.37-1-.73-1.61-1.08a.12.12,0,0,1,0-.16l4-6.46a.14.14,0,0,1,.17,0,.12.12,0,0,1,0,.17L89.5,65c.5.31,1,.63,1.43,1l4.37-6a.12.12,0,0,1,.17,0,.14.14,0,0,1,0,.17l-4.45,6.11a.09.09,0,0,1-.08,0Z"/>
          <path class="cls-3" d="M93.93,68.72a.11.11,0,0,1-.08,0c-.48-.48-1-.93-1.44-1.31a.12.12,0,0,1,0-.17l4.9-5.74a.12.12,0,0,1,.17,0,.12.12,0,0,1,0,.17l-4.82,5.65c.4.34.84.73,1.27,1.15l5.25-5.25a.14.14,0,0,1,.17,0,.13.13,0,0,1,0,.18L94,68.69A.12.12,0,0,1,93.93,68.72Z"/>
          <path class="cls-3" d="M92.49,67.41a.13.13,0,0,1-.08,0c-.44-.38-.94-.77-1.53-1.19a.22.22,0,0,1,0-.08.16.16,0,0,1,0-.09L95.3,59.9a.12.12,0,0,1,.17,0,.14.14,0,0,1,0,.17l-4.38,6c.51.38,1,.72,1.36,1.06l4.82-5.65a.12.12,0,0,1,.17,0,.12.12,0,0,1,0,.17l-4.9,5.74A.1.1,0,0,1,92.49,67.41Z"/>
          <path class="cls-3" d="M78.32,61.56h0c-.63-.05-1.27-.1-1.92-.1a.13.13,0,0,1-.13-.12V53.78a.13.13,0,0,1,.13-.12.13.13,0,0,1,.12.12v7.44c.57,0,1.14,0,1.7.08l.58-7.42a.12.12,0,0,1,.13-.11.12.12,0,0,1,.11.13l-.59,7.54A.13.13,0,0,1,78.32,61.56Z"/>
          <path class="cls-3" d="M87.64,64.17h-.06c-.51-.26-1.11-.56-1.75-.82a.14.14,0,0,1-.07-.16l2.89-7a.12.12,0,0,1,.16-.06.12.12,0,0,1,.07.15L86,63.16c.57.24,1.1.5,1.55.73L91,57.26a.12.12,0,0,1,.16,0,.12.12,0,0,1,.06.16l-3.43,6.74a.13.13,0,0,1-.07.06Z"/>
          <path class="cls-3" d="M100.88,82.4l-.07,0a.14.14,0,0,1,0-.08c-.1-.67-.22-1.3-.37-1.91a.11.11,0,0,1,.09-.14l7.36-1.77a.11.11,0,0,1,.14.09.11.11,0,0,1-.08.14l-7.25,1.74c.13.55.24,1.1.33,1.69L108.35,81a.12.12,0,0,1,0,.24L100.9,82.4Z"/>
          <path class="cls-3" d="M91.08,115.13a.11.11,0,0,1-.1-.06l-3.43-6.74a.12.12,0,0,1,0-.16c.53-.27,1.08-.58,1.69-1a.13.13,0,0,1,.09,0,.13.13,0,0,1,.07,0l4,6.46a.13.13,0,0,1,0,.16.12.12,0,0,1-.17,0l-3.89-6.35c-.53.33-1,.6-1.49.85L91.19,115a.12.12,0,0,1,0,.16Z"/>
          <path class="cls-3" d="M95.41,112.47a.1.1,0,0,1-.09,0l-4.45-6.11a.12.12,0,0,1,0-.17c.6-.44,1.09-.82,1.53-1.2a.13.13,0,0,1,.17,0l4.9,5.74a.12.12,0,0,1,0,.17.13.13,0,0,1-.17,0l-4.82-5.64c-.39.33-.83.67-1.35,1.05l4.37,6a.12.12,0,0,1,0,.17Z"/>
          <path class="cls-3" d="M101,107.3a.11.11,0,0,1-.08,0l-5.74-4.9a.12.12,0,0,1,0-.08.16.16,0,0,1,0-.09c.37-.44.75-.92,1.19-1.53a.12.12,0,0,1,.17,0l6.12,4.44a.13.13,0,0,1-.15.2l-6-4.38c-.39.53-.73,1-1.06,1.36l5.65,4.82a.12.12,0,0,1,0,.17A.11.11,0,0,1,101,107.3Z"/>
          <path class="cls-3" d="M99.28,109.18a.15.15,0,0,1-.09,0l-5.33-5.33a.12.12,0,0,1,0-.09.11.11,0,0,1,0-.08c.48-.48.93-1,1.31-1.44a.12.12,0,0,1,.08,0,.16.16,0,0,1,.09,0l5.74,4.9a.12.12,0,0,1,0,.17.12.12,0,0,1-.17,0l-5.65-4.82c-.34.4-.73.85-1.15,1.27L99.36,109a.12.12,0,0,1,0,.17A.12.12,0,0,1,99.28,109.18Z"/>
          <path class="cls-3" d="M97.41,110.9a.14.14,0,0,1-.1-.05l-4.9-5.73a.14.14,0,0,1,0-.18c.44-.38.95-.82,1.43-1.3a.11.11,0,0,1,.17,0L99.36,109a.12.12,0,1,1-.17.17L94,103.9c-.43.41-.88.81-1.27,1.15l4.82,5.65a.12.12,0,0,1,0,.17A.11.11,0,0,1,97.41,110.9Z"/>
          <path class="cls-3" d="M93.3,113.89a.11.11,0,0,1-.1-.06l-4-6.45a.12.12,0,0,1,0-.17c.56-.34,1.11-.71,1.61-1.07a.1.1,0,0,1,.09,0,.12.12,0,0,1,.08,0l4.44,6.12a.12.12,0,0,1,0,.17.12.12,0,0,1-.17,0l-4.38-6c-.45.33-.92.65-1.42,1l3.89,6.35a.13.13,0,0,1,0,.16Z"/>
          <path class="cls-3" d="M84,117.77a.11.11,0,0,1-.12-.09l-1.77-7.36a.12.12,0,0,1,.09-.14c.56-.14,1.22-.31,1.87-.52a.12.12,0,0,1,.15.08l2.34,7.19a.12.12,0,0,1-.08.15.12.12,0,0,1-.15-.08L84,109.93c-.57.18-1.15.33-1.65.45l1.73,7.24a.12.12,0,0,1-.08.15Z"/>
          <path class="cls-3" d="M88.78,116.2a.11.11,0,0,1-.11-.07l-2.89-7a.11.11,0,0,1,.06-.15c.64-.27,1.25-.57,1.76-.83a.1.1,0,0,1,.09,0,.11.11,0,0,1,.07.06L91.19,115a.12.12,0,0,1,0,.16.12.12,0,0,1-.16-.05l-3.38-6.63c-.46.23-1,.49-1.55.73L88.89,116a.12.12,0,0,1-.06.16Z"/>
          <path class="cls-3" d="M81.45,118.28a.13.13,0,0,1-.12-.11l-1.18-7.48a.09.09,0,0,1,0-.09.1.1,0,0,1,.08,0c.68-.11,1.31-.23,1.9-.37a.12.12,0,0,1,.15.08l1.76,7.36a.12.12,0,1,1-.23.06l-1.74-7.24c-.53.12-1.08.23-1.68.33l1.16,7.37a.11.11,0,0,1-.1.13Z"/>
          <path class="cls-3" d="M86.39,117.08a.12.12,0,0,1-.11-.08l-2.34-7.18a.13.13,0,0,1,.08-.16c.68-.22,1.27-.44,1.82-.66a.12.12,0,0,1,.16.06l2.89,7a.12.12,0,0,1-.06.16.13.13,0,0,1-.16-.07l-2.85-6.86c-.49.2-1,.39-1.61.59l2.3,7.07a.12.12,0,0,1-.08.15Z"/>
          <path class="cls-3" d="M107.18,96.29h0L100,94a.12.12,0,0,1-.08-.15c.22-.68.39-1.36.51-1.88a.13.13,0,0,1,.06-.07.15.15,0,0,1,.09,0l7.36,1.77a.12.12,0,0,1,.09.15.13.13,0,0,1-.15.09L100.6,92.1c-.11.47-.26,1.06-.45,1.65l7.07,2.3a.12.12,0,0,1,0,.24Z"/>
          <path class="cls-3" d="M102.57,105.31l-.07,0-6.11-4.45a.12.12,0,0,1,0-.17c.37-.51.74-1,1.08-1.61a.08.08,0,0,1,.07,0,.09.09,0,0,1,.09,0l6.46,4a.12.12,0,0,1,0,.16.12.12,0,0,1-.17,0l-6.35-3.89c-.3.49-.62,1-1,1.43l6,4.37a.12.12,0,0,1,0,.17A.12.12,0,0,1,102.57,105.31Z"/>
          <path class="cls-3" d="M108.37,91.35h0l-7.48-1.18a.12.12,0,0,1-.1-.14c.11-.7.18-1.33.23-1.93a.12.12,0,0,1,.13-.11l7.54.6a.12.12,0,1,1,0,.24l-7.42-.59c0,.53-.11,1.09-.21,1.71l7.37,1.17a.11.11,0,0,1,.1.13A.13.13,0,0,1,108.37,91.35Z"/>
          <path class="cls-3" d="M107.87,93.84h0l-7.36-1.77a.15.15,0,0,1-.09-.15c.15-.58.27-1.2.38-1.9a.12.12,0,0,1,0-.08.16.16,0,0,1,.1,0l7.48,1.19a.11.11,0,0,1,.1.13.11.11,0,0,1-.14.1L101,90.18c-.1.61-.21,1.16-.33,1.68l7.24,1.74a.12.12,0,0,1,.09.15A.12.12,0,0,1,107.87,93.84Z"/>
          <path class="cls-3" d="M44.11,88.82a.12.12,0,0,1-.12-.11.11.11,0,0,1,.11-.13L51.52,88c0-.55-.08-1.12-.09-1.71H44a.12.12,0,0,1-.16-.11A.12.12,0,0,1,44,86h7.56a.12.12,0,0,1,.12.12c0,.67,0,1.31.09,1.93a.11.11,0,0,1-.11.13l-7.54.6Z"/>
          <path class="cls-3" d="M108.66,88.82h0l-7.54-.6a.11.11,0,0,1-.11-.13c0-.62.1-1.27.1-1.92a.12.12,0,0,1,.12-.13h7.55a.12.12,0,0,1,.12.12.13.13,0,0,1-.16.12h-7.39c0,.59,0,1.16-.09,1.71l7.42.59a.11.11,0,0,1,.11.13A.11.11,0,0,1,108.66,88.82Z"/>
          <path class="cls-3" d="M105.23,101h0l-6.74-3.43a.13.13,0,0,1,0-.17c.26-.51.56-1.12.83-1.75a.12.12,0,0,1,.16-.07l7,2.89a.14.14,0,0,1,.07.16.12.12,0,0,1-.16.06l-6.87-2.84c-.23.56-.49,1.09-.73,1.55l6.63,3.38a.12.12,0,0,1,0,.16A.11.11,0,0,1,105.23,101Z"/>
          <path class="cls-3" d="M104,103.2l-.06,0-6.45-4a.12.12,0,0,1,0-.17c.37-.6.68-1.15,1-1.69a.12.12,0,0,1,.16-.05l6.74,3.43a.12.12,0,0,1,0,.16.12.12,0,0,1-.16.06l-6.63-3.38c-.24.48-.52,1-.84,1.49l6.35,3.9a.12.12,0,0,1,0,.16A.14.14,0,0,1,104,103.2Z"/>
          <path class="cls-3" d="M106.3,98.67h0l-7-2.89a.11.11,0,0,1-.06-.15c.23-.57.45-1.18.66-1.82a.11.11,0,0,1,.16-.08l7.18,2.33a.12.12,0,0,1,.08.15.12.12,0,0,1-.15.08L100.08,94c-.19.56-.39,1.1-.59,1.61l6.86,2.84a.14.14,0,0,1,.07.16A.12.12,0,0,1,106.3,98.67Z"/>
          <path class="cls-3" d="M78.93,118.57a.12.12,0,0,1-.12-.12l-.6-7.54a.16.16,0,0,1,0-.09.12.12,0,0,1,.08,0c.59,0,1.22-.12,1.93-.23a.12.12,0,0,1,.14.1l1.18,7.49a.11.11,0,0,1-.1.13.12.12,0,0,1-.14-.1l-1.16-7.36c-.62.09-1.18.16-1.71.2l.59,7.42a.14.14,0,0,1-.11.14Z"/>
          <path class="cls-3" d="M47.54,101a.12.12,0,0,1-.11-.07.12.12,0,0,1,0-.16l6.63-3.38c-.23-.46-.5-1-.73-1.55l-6.87,2.84a.12.12,0,0,1-.16-.06.13.13,0,0,1,.07-.16l7-2.89a.07.07,0,0,1,.09,0,.09.09,0,0,1,.06.06c.27.65.57,1.25.83,1.76a.11.11,0,0,1-.05.16L47.59,101Z"/>
          <path class="cls-3" d="M51.77,107.3a.15.15,0,0,1-.09,0,.12.12,0,0,1,0-.17l5.65-4.83c-.34-.39-.67-.83-1.06-1.35l-6,4.37a.12.12,0,0,1-.17,0,.11.11,0,0,1,0-.16l6.12-4.45a.12.12,0,0,1,.17,0c.44.6.82,1.09,1.19,1.53a.12.12,0,0,1,0,.17l-5.74,4.9A.11.11,0,0,1,51.77,107.3Z"/>
          <path class="cls-3" d="M46.47,98.67a.14.14,0,0,1-.12-.07.13.13,0,0,1,.07-.16l6.86-2.85c-.2-.5-.39-1-.59-1.61l-7.07,2.3a.12.12,0,0,1-.15-.08.12.12,0,0,1,.08-.15l7.18-2.34a.16.16,0,0,1,.1,0,.13.13,0,0,1,.06.07c.21.67.43,1.26.66,1.82a.12.12,0,0,1-.06.16l-7,2.89Z"/>
          <path class="cls-3" d="M48.78,103.19a.16.16,0,0,1-.11,0,.14.14,0,0,1,0-.17l6.35-3.89c-.31-.52-.59-1-.84-1.49L47.59,101a.12.12,0,0,1-.11-.21l6.74-3.43a.11.11,0,0,1,.16.05c.28.54.59,1.1.95,1.69a.13.13,0,0,1,0,.09.11.11,0,0,1-.06.07l-6.45,4Z"/>
          <path class="cls-3" d="M53.49,109.17a.12.12,0,0,1-.09,0,.14.14,0,0,1,0-.17l5.25-5.24c-.41-.42-.8-.86-1.16-1.27l-5.64,4.82a.12.12,0,0,1-.17,0,.12.12,0,0,1,0-.17l5.74-4.91a.12.12,0,0,1,.17,0c.4.46.83,1,1.3,1.43a.11.11,0,0,1,0,.17l-5.33,5.33A.09.09,0,0,1,53.49,109.17Z"/>
          <path class="cls-3" d="M45.59,96.29a.14.14,0,0,1-.12-.09.12.12,0,0,1,.08-.15l7.07-2.3c-.19-.58-.34-1.18-.45-1.65l-7.24,1.73a.12.12,0,1,1-.06-.23l7.36-1.77a.1.1,0,0,1,.09,0,.11.11,0,0,1,.06.07c.12.52.29,1.21.51,1.87a.12.12,0,0,1-.08.15l-7.19,2.34Z"/>
          <path class="cls-3" d="M44.9,93.84a.12.12,0,0,1,0-.24l7.24-1.74c-.12-.54-.23-1.09-.32-1.68l-7.37,1.16a.12.12,0,0,1-.14-.1.12.12,0,0,1,.1-.14l7.49-1.18a.1.1,0,0,1,.09,0A.22.22,0,0,1,52,90c.1.68.22,1.3.37,1.9a.13.13,0,0,1-.09.15l-7.36,1.76Z"/>
          <path class="cls-3" d="M76.39,118.67a.12.12,0,0,1-.13-.12V111a.12.12,0,0,1,.13-.12c.66,0,1.34,0,1.93-.1a.12.12,0,0,1,.13.11l.6,7.54a.14.14,0,0,1-.11.14.12.12,0,0,1-.13-.12L78.22,111c-.53,0-1.12.09-1.71.09v7.43A.12.12,0,0,1,76.39,118.67Z"/>
          <path class="cls-3" d="M44.4,91.34a.12.12,0,0,1-.12-.1.12.12,0,0,1,.1-.14l7.37-1.16c-.1-.62-.16-1.18-.21-1.71l-7.42.59a.12.12,0,0,1-.13-.11.11.11,0,0,1,.11-.13l7.54-.6a.14.14,0,0,1,.09,0,.09.09,0,0,1,0,.08c0,.59.13,1.22.24,1.93a.13.13,0,0,1-.11.14l-7.48,1.18Z"/>
          <path class="cls-3" d="M55.36,110.89a.11.11,0,0,1-.08,0,.12.12,0,0,1,0-.17L60.09,105c-.41-.35-.85-.74-1.27-1.15l-5.25,5.24a.11.11,0,0,1-.17,0,.14.14,0,0,1,0-.17l5.33-5.33a.14.14,0,0,1,.17,0c.48.48,1,.91,1.44,1.31a.12.12,0,0,1,0,.17l-4.9,5.74A.11.11,0,0,1,55.36,110.89Z"/>
          <path class="cls-3" d="M50.19,105.3a.1.1,0,0,1-.09,0,.11.11,0,0,1,0-.16l6-4.38c-.32-.45-.64-.92-1-1.42l-6.35,3.89a.12.12,0,1,1-.13-.21l6.46-4a.11.11,0,0,1,.16,0c.35.56.71,1.11,1.08,1.61a.13.13,0,0,1,0,.09.14.14,0,0,1,0,.08l-6.11,4.44A.12.12,0,0,1,50.19,105.3Z"/>
          <path class="cls-3" d="M68.81,117.77h0a.12.12,0,0,1-.09-.15l1.73-7.24c-.65-.16-1.17-.3-1.65-.45L66.48,117a.11.11,0,0,1-.15.07.12.12,0,0,1-.08-.15l2.34-7.18a.11.11,0,0,1,.15-.08c.53.17,1.1.33,1.87.51a.13.13,0,0,1,.09.15l-1.77,7.36A.12.12,0,0,1,68.81,117.77Z"/>
          <path class="cls-3" d="M66.37,117.08h0a.12.12,0,0,1-.08-.15l2.3-7.07c-.58-.19-1.11-.38-1.61-.59l-2.85,6.87a.11.11,0,0,1-.15.06.11.11,0,0,1-.07-.16l2.89-7a.14.14,0,0,1,.06-.07h.1c.56.24,1.16.45,1.82.67a.13.13,0,0,1,.07.06.14.14,0,0,1,0,.09L66.48,117A.11.11,0,0,1,66.37,117.08Z"/>
          <path class="cls-3" d="M57.35,112.47a.11.11,0,0,1-.07,0,.13.13,0,0,1,0-.17l4.37-6c-.52-.39-.95-.73-1.35-1.06l-4.82,5.65a.12.12,0,0,1-.17,0,.12.12,0,0,1,0-.17l4.9-5.74a.12.12,0,0,1,.08,0s.06,0,.09,0c.44.37.92.75,1.52,1.19a.12.12,0,0,1,0,.17l-4.44,6.12A.14.14,0,0,1,57.35,112.47Z"/>
          <path class="cls-3" d="M73.83,118.56h0a.12.12,0,0,1-.11-.13L74.3,111c-.53,0-1.08-.11-1.71-.21l-1.16,7.37a.12.12,0,0,1-.14.1.12.12,0,0,1-.1-.14l1.18-7.48a.12.12,0,0,1,.14-.1c.73.11,1.34.18,1.93.23a.12.12,0,0,1,.08,0,.16.16,0,0,1,0,.09l-.6,7.54A.11.11,0,0,1,73.83,118.56Z"/>
          <path class="cls-3" d="M61.68,115.13l-.06,0a.12.12,0,0,1,0-.16L65,108.32c-.48-.24-1-.52-1.5-.84l-3.89,6.35a.13.13,0,0,1-.16,0,.12.12,0,0,1,0-.17l4-6.45s0,0,.07,0a.11.11,0,0,1,.1,0c.6.37,1.15.68,1.68,1a.14.14,0,0,1,.06.17l-3.43,6.73A.15.15,0,0,1,61.68,115.13Z"/>
          <path class="cls-3" d="M76.39,118.67a.12.12,0,0,1-.13-.12v-7.43c-.56,0-1.1,0-1.72-.09L74,118.45a.11.11,0,0,1-.13.11.12.12,0,0,1-.11-.13l.6-7.54a.11.11,0,0,1,.13-.11c.71.06,1.31.1,2,.1a.12.12,0,0,1,.12.12v7.55A.12.12,0,0,1,76.39,118.67Z"/>
          <path class="cls-3" d="M71.31,118.27h0a.12.12,0,0,1-.1-.14l1.16-7.36c-.59-.1-1.14-.21-1.68-.33l-1.74,7.24a.12.12,0,0,1-.14.09.12.12,0,0,1-.09-.15l1.76-7.36a.13.13,0,0,1,.15-.09c.6.15,1.23.27,1.9.38a.12.12,0,0,1,.08,0,.1.1,0,0,1,0,.09l-1.18,7.49A.12.12,0,0,1,71.31,118.27Z"/>
          <path class="cls-3" d="M64,116.2h0a.11.11,0,0,1-.07-.16l2.84-6.86c-.57-.24-1.12-.51-1.55-.73l-3.37,6.62a.13.13,0,0,1-.17,0,.12.12,0,0,1,0-.16L65,108.22a.11.11,0,0,1,.07-.06h.09c.48.25,1.1.56,1.76.83a.12.12,0,0,1,.06.16l-2.89,7A.12.12,0,0,1,64,116.2Z"/>
          <path class="cls-3" d="M59.46,113.89l-.06,0a.12.12,0,0,1,0-.17l3.89-6.35c-.5-.31-1-.63-1.43-.95l-4.37,6a.13.13,0,0,1-.2-.15l4.45-6.11s0,0,.07,0,.07,0,.09,0q.77.56,1.62,1.08a.14.14,0,0,1,0,.17l-4,6.45A.11.11,0,0,1,59.46,113.89Z"/>
        </g>
        <path class="cls-3" d="M76.39,150.37a64.2,64.2,0,1,1,64.19-64.2A64.27,64.27,0,0,1,76.39,150.37Zm0-127.19a63,63,0,1,0,63,63A63.06,63.06,0,0,0,76.39,23.18Z"/>
        <path class="cls-3" d="M76.39,130.87a44.7,44.7,0,1,1,44.69-44.7A44.75,44.75,0,0,1,76.39,130.87Zm0-88.79a44.09,44.09,0,1,0,44.09,44.09A44.14,44.14,0,0,0,76.39,42.08Z"/>
        <path class="cls-3" d="M76.39,129.47a43.3,43.3,0,1,1,43.3-43.3A43.35,43.35,0,0,1,76.39,129.47Zm0-85.39a42.09,42.09,0,1,0,42.09,42.09A42.14,42.14,0,0,0,76.39,44.08Z"/>
        <path class="cls-3" d="M76.39,108.28a22.11,22.11,0,1,1,22.1-22.11A22.14,22.14,0,0,1,76.39,108.28Zm0-40.58A18.47,18.47,0,1,0,94.86,86.17,18.49,18.49,0,0,0,76.39,67.7Z"/>
        <path class="cls-3" d="M76.39,111.61a25.44,25.44,0,1,1,25.43-25.44A25.47,25.47,0,0,1,76.39,111.61Zm0-49.67a24.23,24.23,0,1,0,24.22,24.23A24.26,24.26,0,0,0,76.39,61.94Z"/>
        <path class="cls-3" d="M78.07,27.83H74.7a.61.61,0,0,1,0-1.22h3.37a.61.61,0,0,1,0,1.22Zm.61,117.29a.61.61,0,0,0-.61-.61H74.7a.61.61,0,0,0,0,1.21h3.37A.61.61,0,0,0,78.68,145.12ZM18,87.85V84.48a.61.61,0,0,0-1.21,0v3.37a.61.61,0,1,0,1.21,0Zm117.9,0V84.48a.61.61,0,0,0-1.21,0v3.37a.61.61,0,1,0,1.21,0Zm-102-41.74,2.38-2.39a.6.6,0,0,0-.85-.85l-2.39,2.38a.62.62,0,0,0,0,.86.65.65,0,0,0,.43.17A.63.63,0,0,0,33.94,46.11Zm83.37,83.36,2.38-2.38a.61.61,0,0,0-.86-.86l-2.38,2.38a.61.61,0,0,0,.43,1A.61.61,0,0,0,117.31,129.47Zm-81,0a.6.6,0,0,0,0-.86l-2.38-2.38a.61.61,0,1,0-.86.86l2.39,2.38a.58.58,0,0,0,.42.18A.6.6,0,0,0,36.32,129.47Zm83.37-83.36a.62.62,0,0,0,0-.86l-2.38-2.38a.6.6,0,0,0-.86,0,.59.59,0,0,0,0,.85l2.38,2.39a.63.63,0,0,0,.86,0Z"/>
        <g>
          <rect class="cls-3" x="32.46" y="40.52" width="1.21" height="4.64" transform="translate(-20.61 35.93) rotate(-45)"/>
          <rect class="cls-3" x="75.78" y="22.58" width="1.21" height="4.64"/>
          <rect class="cls-3" x="75.78" y="145.12" width="1.21" height="4.64"/>
          <rect class="cls-3" x="12.79" y="85.56" width="4.64" height="1.21"/>
          <rect class="cls-3" x="135.33" y="85.56" width="4.64" height="1.21"/>
          <rect class="cls-3" x="119.11" y="127.17" width="1.21" height="4.64" transform="translate(-56.5 122.58) rotate(-45)"/>
          <rect class="cls-3" x="30.74" y="128.89" width="4.64" height="1.21" transform="translate(-81.9 61.33) rotate(-45.01)"/>
          <rect class="cls-3" x="117.39" y="42.24" width="4.64" height="1.21" transform="translate(4.76 97.17) rotate(-44.99)"/>
          <path class="cls-3" d="M21.92,64.22a.68.68,0,0,1-.23,0L17.4,62.39a.61.61,0,0,1-.33-.79.62.62,0,0,1,.8-.33l4.29,1.78a.61.61,0,0,1,.32.79A.59.59,0,0,1,21.92,64.22Z"/>
          <path class="cls-3" d="M135.14,111.11a.52.52,0,0,1-.24,0l-4.29-1.77a.61.61,0,0,1-.32-.79.6.6,0,0,1,.79-.33l4.29,1.78a.61.61,0,0,1,.33.79A.62.62,0,0,1,135.14,111.11Z"/>
          <path class="cls-3" d="M52.05,145.53a.59.59,0,0,1-.23-.05.6.6,0,0,1-.33-.79l1.78-4.29a.6.6,0,0,1,.79-.33.61.61,0,0,1,.33.79l-1.78,4.29A.6.6,0,0,1,52.05,145.53Z"/>
          <path class="cls-3" d="M98.94,32.31a.66.66,0,0,1-.23,0,.61.61,0,0,1-.33-.79l1.78-4.3a.61.61,0,0,1,1.12.47L99.5,31.94A.6.6,0,0,1,98.94,32.31Z"/>
          <path class="cls-3" d="M17.63,111.11a.62.62,0,0,1-.56-.37.61.61,0,0,1,.33-.79l4.29-1.78a.61.61,0,0,1,.47,1.12l-4.3,1.77A.46.46,0,0,1,17.63,111.11Z"/>
          <path class="cls-3" d="M130.85,64.22a.59.59,0,0,1-.56-.38.61.61,0,0,1,.32-.79l4.29-1.78a.62.62,0,0,1,.8.33.61.61,0,0,1-.33.79l-4.29,1.78A.68.68,0,0,1,130.85,64.22Z"/>
          <path class="cls-3" d="M100.72,145.53a.6.6,0,0,1-.56-.38l-1.78-4.29a.61.61,0,0,1,.33-.79.6.6,0,0,1,.79.33l1.78,4.29a.6.6,0,0,1-.33.79A.59.59,0,0,1,100.72,145.53Z"/>
          <path class="cls-3" d="M53.83,32.31a.6.6,0,0,1-.56-.37l-1.78-4.29a.61.61,0,0,1,1.12-.46l1.78,4.29a.61.61,0,0,1-.33.79A.66.66,0,0,1,53.83,32.31Z"/>
        </g>
        <g>
          <path class="cls-3" d="M37.64,78.92h-.09l-3-.61a.47.47,0,0,1-.36-.53.46.46,0,0,1,.54-.36l3,.61a.45.45,0,0,1-.09.9Z"/>
          <path class="cls-3" d="M118.18,94.94h-.09l-3-.61a.47.47,0,0,1-.36-.53.46.46,0,0,1,.54-.36l3,.61a.45.45,0,0,1,.36.53A.47.47,0,0,1,118.18,94.94Z"/>
          <path class="cls-3" d="M68.07,128.42H68a.45.45,0,0,1-.35-.53l.6-3.06a.46.46,0,0,1,.54-.35.47.47,0,0,1,.36.53l-.61,3.05A.47.47,0,0,1,68.07,128.42Z"/>
          <path class="cls-3" d="M84.09,47.88H84a.45.45,0,0,1-.35-.53l.6-3.06a.46.46,0,0,1,.54-.35.45.45,0,0,1,.35.53l-.6,3A.47.47,0,0,1,84.09,47.88Z"/>
          <path class="cls-3" d="M41,110.3a.47.47,0,0,1-.38-.2.46.46,0,0,1,.13-.63l2.59-1.73a.46.46,0,0,1,.63.12.45.45,0,0,1-.13.63l-2.58,1.73A.5.5,0,0,1,41,110.3Z"/>
          <path class="cls-3" d="M109.23,64.68a.45.45,0,0,1-.25-.83l2.59-1.73a.45.45,0,1,1,.5.75l-2.59,1.73A.44.44,0,0,1,109.23,64.68Z"/>
          <path class="cls-3" d="M100.06,122.06a.44.44,0,0,1-.38-.21L98,119.27a.45.45,0,0,1,.75-.51l1.73,2.59a.45.45,0,0,1-.13.63A.44.44,0,0,1,100.06,122.06Z"/>
          <path class="cls-3" d="M54.44,53.78a.46.46,0,0,1-.38-.2L52.33,51a.46.46,0,0,1,.76-.51l1.73,2.59a.45.45,0,0,1-.13.63A.46.46,0,0,1,54.44,53.78Z"/>
          <path class="cls-3" d="M34.59,94.94a.45.45,0,0,1-.09-.9l3.06-.61a.45.45,0,0,1,.17.89l-3,.61Z"/>
          <path class="cls-3" d="M115.13,78.92A.45.45,0,0,1,115,78l3-.61a.46.46,0,0,1,.54.36.45.45,0,0,1-.36.53l-3,.61Z"/>
          <path class="cls-3" d="M84.7,128.42a.47.47,0,0,1-.45-.37l-.6-3.05a.45.45,0,0,1,.89-.18l.6,3.06a.45.45,0,0,1-.35.53Z"/>
          <path class="cls-3" d="M68.68,47.88a.47.47,0,0,1-.45-.36l-.6-3.06a.45.45,0,0,1,.35-.53.46.46,0,0,1,.54.35l.6,3.06a.45.45,0,0,1-.35.53Z"/>
          <path class="cls-3" d="M52.71,122.06a.46.46,0,0,1-.25-.08.45.45,0,0,1-.13-.63l1.73-2.59a.46.46,0,0,1,.76.51l-1.73,2.59A.46.46,0,0,1,52.71,122.06Z"/>
          <path class="cls-3" d="M98.33,53.78a.39.39,0,0,1-.25-.08.46.46,0,0,1-.13-.63l1.73-2.59a.46.46,0,0,1,.63-.12.45.45,0,0,1,.13.63l-1.73,2.59A.46.46,0,0,1,98.33,53.78Z"/>
          <path class="cls-3" d="M111.82,110.3a.44.44,0,0,1-.25-.08L109,108.49a.45.45,0,0,1-.13-.63.46.46,0,0,1,.63-.12l2.59,1.73a.45.45,0,0,1,.13.63A.47.47,0,0,1,111.82,110.3Z"/>
          <path class="cls-3" d="M43.54,64.68a.46.46,0,0,1-.25-.08L40.7,62.87a.45.45,0,1,1,.51-.75l2.58,1.73a.45.45,0,0,1-.25.83Z"/>
        </g>
        <g>
          <g>
            <path class="cls-3" d="M114.36,50.16l.45-3.43-1.9,1.9-.52-.52L115.45,45l.27.26-.4,3.3,1.84-1.85.53.52-3.11,3.11Z"/>
            <path class="cls-3" d="M111.44,50.56l-.71.72,1,1-.46.46-1-1-.92.92,1.39,1.39-.49.48-1.93-1.93,3.06-3.06,2,2-.48.48Z"/>
          </g>
          <g>
            <path class="cls-3" d="M40.11,124.47l-.68.29a1.58,1.58,0,0,0-.41-.86c-.32-.32-.59-.37-.82-.14a.68.68,0,0,0-.18.41,2.12,2.12,0,0,0,.14.78,3.3,3.3,0,0,1,.19.77,1.24,1.24,0,0,1-.08.46,1.34,1.34,0,0,1-.29.41,1,1,0,0,1-.84.33,1.36,1.36,0,0,1-.91-.44,1.76,1.76,0,0,1-.58-1l.63-.31a1.48,1.48,0,0,0,.4.81.56.56,0,0,0,.4.19.45.45,0,0,0,.36-.15c.17-.18.16-.55,0-1.13a2.64,2.64,0,0,1-.16-.72,1.17,1.17,0,0,1,.08-.5,1.45,1.45,0,0,1,.31-.45,1,1,0,0,1,.9-.32,1.73,1.73,0,0,1,1,.55A1.89,1.89,0,0,1,40.11,124.47Z"/>
            <path class="cls-3" d="M42.79,118.16l.22.22L41.75,121l2.58-1.29.23.23L42.46,124l-.57-.57,1.27-2.42-2.47,1.23-.23-.24,1.22-2.48-2.42,1.28-.57-.57Z"/>
          </g>
          <g>
            <path class="cls-3" d="M40.2,48.41,36.77,48l1.9,1.9-.52.52-3.06-3.06.26-.27,3.29.4-1.85-1.84.53-.53,3.1,3.11Z"/>
            <path class="cls-3" d="M44.48,52.7l-.22.22-2.61-1.26,1.29,2.58-.23.22-4.11-2.1.57-.56,2.42,1.27L40.36,50.6l.24-.24,2.47,1.23L41.8,49.17l.57-.57Z"/>
          </g>
          <g>
            <path class="cls-3" d="M114.69,122.83l.29.69a1.51,1.51,0,0,0-.86.41q-.48.48-.15.81a.68.68,0,0,0,.42.19,2,2,0,0,0,.78-.15,3.15,3.15,0,0,1,.77-.18,1,1,0,0,1,.45.08,1.24,1.24,0,0,1,.42.28,1.13,1.13,0,0,1,.33.85,1.38,1.38,0,0,1-.44.9,1.78,1.78,0,0,1-1,.59l-.31-.64a1.42,1.42,0,0,0,.81-.4.56.56,0,0,0,.19-.39.48.48,0,0,0-.15-.36c-.18-.18-.55-.16-1.13,0a2.74,2.74,0,0,1-.72.17,1.1,1.1,0,0,1-.51-.09,1.23,1.23,0,0,1-.44-.3,1.06,1.06,0,0,1-.32-.91,1.63,1.63,0,0,1,.55-1A1.9,1.9,0,0,1,114.69,122.83Z"/>
            <path class="cls-3" d="M112.25,121.53l-.71-.72-1,1-.46-.46,1-1-.91-.92-1.39,1.39-.49-.48,1.94-1.94,3.06,3.07-2,2-.48-.48Z"/>
          </g>
        </g>
      </g>
      <g>
        <polygon class="cls-4" points="78.98 83.89 52.7 62.35 76.61 86.26 78.98 83.89"/>
        <polygon class="cls-4" points="100.52 110.17 74.23 88.64 76.61 86.26 100.52 110.17"/>
        <polygon class="cls-4" points="100.52 62.35 78.98 88.64 76.61 86.26 100.52 62.35"/>
        <polygon class="cls-4" points="74.23 83.89 52.7 110.17 76.61 86.26 74.23 83.89"/>
        <polygon class="cls-5" points="52.7 62.35 74.23 88.64 76.61 86.26 52.7 62.35"/>
        <polygon class="cls-5" points="78.98 83.89 100.52 110.17 76.61 86.26 78.98 83.89"/>
        <polygon class="cls-5" points="74.23 83.89 100.52 62.35 76.61 86.26 74.23 83.89"/>
        <polygon class="cls-5" points="52.7 110.17 78.98 88.64 76.61 86.26 52.7 110.17"/>
      </g>
      <g>
        <polygon class="cls-5" points="76.39 41.96 72 86.17 76.39 86.17 76.39 41.96"/>
        <polygon class="cls-5" points="76.39 130.38 80.78 86.17 76.39 86.17 76.39 130.38"/>
        <polygon class="cls-5" points="32.17 86.17 76.39 90.56 76.39 86.17 32.17 86.17"/>
        <polygon class="cls-5" points="120.6 86.17 76.39 81.78 76.39 86.17 120.6 86.17"/>
        <polygon class="cls-4" points="72 86.17 76.39 130.38 76.39 86.17 72 86.17"/>
        <polygon class="cls-4" points="76.39 86.17 80.78 86.17 76.39 41.96 76.39 86.17"/>
        <polygon class="cls-4" points="76.39 90.56 120.6 86.17 76.39 86.17 76.39 90.56"/>
        <polygon class="cls-4" points="76.39 86.17 76.39 81.78 32.17 86.17 76.39 86.17"/>
      </g>
    </g>
    <rect class="cls-6" x="5.43" y="20.73" width="7.25" height="7.25"/>
    <rect class="cls-6" x="14.38" y="30.41" width="4.76" height="4.76"/>
    <rect class="cls-6" x="26.12" y="20.73" width="6.48" height="4.99"/>
    <rect class="cls-6" x="21.35" y="31.73" width="2.92" height="2.92"/>
    <rect class="cls-6" x="140.1" y="140.89" width="9.23" height="9.23" transform="translate(289.42 291.01) rotate(180)"/>
    <rect class="cls-6" x="135.62" y="131.87" width="4.76" height="4.76" transform="translate(275.99 268.5) rotate(180)"/>
    <rect class="cls-6" x="122.16" y="141.33" width="6.48" height="4.99" transform="translate(250.79 287.64) rotate(180)"/>
    <rect class="cls-6" x="125.35" y="132.39" width="3.72" height="3.72" transform="translate(254.41 268.5) rotate(180)"/>
    <g>
      <polygon class="cls-4" points="77 3.44 76.65 0 67.3 86.35 76.4 86.42 77 3.44"/>
      <polygon class="cls-7" points="85.51 86.49 77 3.44 76.4 86.42 85.51 86.49"/>
      <polygon class="cls-8" points="67.3 86.35 75.4 172.84 75.8 169.4 76.4 86.42 67.3 86.35"/>
      <polygon class="cls-9" points="76.4 86.42 75.8 169.4 85.51 86.49 76.4 86.42"/>
      <path class="cls-5" d="M84.33,83.07A8.67,8.67,0,1,1,73,78.29,8.68,8.68,0,0,1,84.33,83.07Z"/>
      <path class="cls-7" d="M78.73,83.93a3.42,3.42,0,1,1-4.84,0A3.43,3.43,0,0,1,78.73,83.93Z"/>
    </g>
    <g>
      <rect class="cls-9" x="8.39" y="73.22" width="139.04" height="26.42"/>
      <rect class="cls-9" x="132.96" y="93.6" width="17.23" height="12.4"/>
      <rect class="cls-9" x="1.28" y="93.16" width="14.16" height="14.16"/>
      <rect class="cls-9" x="14.86" y="115.16" width="7.72" height="7.72"/>
      <rect class="cls-6" x="7.08" y="71.26" width="139.04" height="26.42"/>
      <rect class="cls-6" x="131.68" y="91.05" width="17.23" height="12.4"/>
      <rect class="cls-6" y="90.6" width="14.16" height="14.16"/>
      <rect class="cls-6" x="13.58" y="112.61" width="7.72" height="7.72"/>
      <rect class="cls-9" x="137.07" y="60.17" width="7.72" height="7.72"/>
      <rect class="cls-6" x="135.79" y="57.61" width="7.72" height="7.72"/>
      <g>
        <path class="cls-10" d="M18.37,83.38a6.79,6.79,0,0,1,.25-1.86,7.06,7.06,0,0,1,.71-1.67,7.15,7.15,0,0,1,1.09-1.42,7.39,7.39,0,0,1,1.41-1.09,6.88,6.88,0,0,1,1.67-.71,7.06,7.06,0,0,1,1.85-.25,7.19,7.19,0,0,1,1.86.25,6.88,6.88,0,0,1,1.67.71,7.09,7.09,0,0,1,1.41,1.09,7.2,7.2,0,0,1,1.1,1.42,7.46,7.46,0,0,1,.7,1.67,6.79,6.79,0,0,1,.25,1.86,6.72,6.72,0,0,1-.25,1.85,7.27,7.27,0,0,1-.7,1.67,7.15,7.15,0,0,1-2.51,2.5,6.51,6.51,0,0,1-1.67.71,6.79,6.79,0,0,1-1.86.25,6.66,6.66,0,0,1-1.85-.25,6.51,6.51,0,0,1-1.67-.71,7.39,7.39,0,0,1-1.41-1.09,7.09,7.09,0,0,1-1.09-1.41,7,7,0,0,1-.71-1.66A6.79,6.79,0,0,1,18.37,83.38Zm1,0A6.36,6.36,0,0,0,19.55,85a6.47,6.47,0,0,0,.59,1.46,6,6,0,0,0,.94,1.24,5.89,5.89,0,0,0,1.22,1,5.51,5.51,0,0,0,1.43.61,6.07,6.07,0,0,0,3.24,0,5.64,5.64,0,0,0,1.45-.61,6,6,0,0,0,1.23-1,6,6,0,0,0,.94-1.24A6.52,6.52,0,0,0,31.2,85a6.36,6.36,0,0,0,.21-1.64,6.22,6.22,0,0,0-.47-2.4,6.3,6.3,0,0,0-1.29-2,6,6,0,0,0-1.93-1.32,5.91,5.91,0,0,0-2.37-.49,6.21,6.21,0,0,0-1.62.22A6.06,6.06,0,0,0,21.08,79a6.29,6.29,0,0,0-1.74,4.37Zm8.46,2.31a.36.36,0,0,1,.26.11l.57.61a3.72,3.72,0,0,1-1.33,1,4.74,4.74,0,0,1-1.9.35,4.45,4.45,0,0,1-1.71-.32,4,4,0,0,1-1.32-.91,4.16,4.16,0,0,1-.85-1.39,5,5,0,0,1-.3-1.76,4.65,4.65,0,0,1,.33-1.77,4,4,0,0,1,.9-1.39,4.34,4.34,0,0,1,1.38-.9A4.72,4.72,0,0,1,25.57,79a4.39,4.39,0,0,1,1.76.32,4.31,4.31,0,0,1,1.27.86l-.44.62L28,80.9a.38.38,0,0,1-.19,0,.5.5,0,0,1-.28-.1,4.41,4.41,0,0,0-.38-.24,4.86,4.86,0,0,0-.61-.24,3.41,3.41,0,0,0-.92-.11,3.32,3.32,0,0,0-1.22.22,2.54,2.54,0,0,0-.92.62,2.62,2.62,0,0,0-.58,1,4,4,0,0,0-.2,1.29A3.89,3.89,0,0,0,23,84.68a2.81,2.81,0,0,0,.56,1,2.44,2.44,0,0,0,.87.59,2.79,2.79,0,0,0,1.09.21,3.92,3.92,0,0,0,.84-.08,3.33,3.33,0,0,0,.58-.18,3.28,3.28,0,0,0,.46-.25A4.79,4.79,0,0,1,27.8,85.69Z"/>
        <path class="cls-10" d="M42.74,88.61a.6.6,0,0,1,.44.16.57.57,0,0,1,.16.42v1H34.2v-.59a1,1,0,0,1,.08-.37.92.92,0,0,1,.24-.35l4.39-4.41c.36-.37.69-.73,1-1.07a8.53,8.53,0,0,0,.77-1,4.9,4.9,0,0,0,.48-1,3.52,3.52,0,0,0,.17-1.13,2.64,2.64,0,0,0-.19-1.06,2,2,0,0,0-.52-.75,2.16,2.16,0,0,0-.78-.45,3.32,3.32,0,0,0-1-.14,3,3,0,0,0-1,.15,2.66,2.66,0,0,0-.78.42,3,3,0,0,0-.57.65,2.55,2.55,0,0,0-.32.82.84.84,0,0,1-.31.45.93.93,0,0,1-.55.06l-.89-.15A4.9,4.9,0,0,1,35,78.58a3.9,3.9,0,0,1,1-1.21,4.08,4.08,0,0,1,1.34-.74,5.24,5.24,0,0,1,3.26,0,3.77,3.77,0,0,1,1.31.75,3.5,3.5,0,0,1,.87,1.2,3.92,3.92,0,0,1,.31,1.61,4.36,4.36,0,0,1-.22,1.42,6,6,0,0,1-.63,1.24,8.82,8.82,0,0,1-.9,1.16c-.34.38-.7.76-1.09,1.14l-3.61,3.69a6.76,6.76,0,0,1,.78-.17,4.93,4.93,0,0,1,.75-.06Z"/>
        <path class="cls-10" d="M54.91,83.38a11,11,0,0,1-.39,3.11,6.71,6.71,0,0,1-1.05,2.18A4.32,4.32,0,0,1,51.88,90,4.76,4.76,0,0,1,48,90a4.34,4.34,0,0,1-1.57-1.28,6.33,6.33,0,0,1-1-2.18A11,11,0,0,1,45,83.38a11.1,11.1,0,0,1,.38-3.12,6.33,6.33,0,0,1,1-2.18A4.27,4.27,0,0,1,48,76.79a4.76,4.76,0,0,1,3.91,0,4.25,4.25,0,0,1,1.59,1.29,6.71,6.71,0,0,1,1.05,2.18A11.08,11.08,0,0,1,54.91,83.38Zm-1.77,0a11.49,11.49,0,0,0-.26-2.63A5.3,5.3,0,0,0,52.17,79a2.66,2.66,0,0,0-4.48,0,5.31,5.31,0,0,0-.7,1.72A13.43,13.43,0,0,0,47,86a5.24,5.24,0,0,0,.7,1.71,2.71,2.71,0,0,0,1,.93,2.76,2.76,0,0,0,1.22.28,2.62,2.62,0,0,0,2.24-1.21A5.24,5.24,0,0,0,52.88,86,11.43,11.43,0,0,0,53.14,83.38Z"/>
        <path class="cls-10" d="M64.92,88.61a.6.6,0,0,1,.44.16.57.57,0,0,1,.16.42v1H56.38v-.59a1,1,0,0,1,.08-.37.92.92,0,0,1,.24-.35l4.38-4.41c.37-.37.7-.73,1-1.07a7.48,7.48,0,0,0,.76-1,5,5,0,0,0,.49-1,3.52,3.52,0,0,0,.17-1.13,2.64,2.64,0,0,0-.19-1.06A2.07,2.07,0,0,0,62,78a3.32,3.32,0,0,0-1-.14,3,3,0,0,0-1,.15,2.66,2.66,0,0,0-.78.42,2.72,2.72,0,0,0-.57.65,2.55,2.55,0,0,0-.32.82.84.84,0,0,1-.31.45.93.93,0,0,1-.55.06l-.89-.15a4.9,4.9,0,0,1,.52-1.66,4,4,0,0,1,1-1.21,4.13,4.13,0,0,1,1.35-.74,5.24,5.24,0,0,1,3.26,0,3.77,3.77,0,0,1,1.31.75,3.5,3.5,0,0,1,.87,1.2,3.92,3.92,0,0,1,.31,1.61A4.11,4.11,0,0,1,65,81.61a5.53,5.53,0,0,1-.62,1.24A8.82,8.82,0,0,1,63.5,84c-.34.38-.7.76-1.09,1.14L58.8,88.84a6.6,6.6,0,0,1,.77-.17,5.06,5.06,0,0,1,.76-.06Z"/>
        <path class="cls-10" d="M76.3,88.93v1.3H69v-1.3H71.9V79.58c0-.28,0-.56,0-.85l-2.44,2.1a.67.67,0,0,1-.25.13A.88.88,0,0,1,69,81a.68.68,0,0,1-.2-.07.4.4,0,0,1-.13-.13L68.14,80l4.08-3.53h1.39V88.93Z"/>
        <path class="cls-10" d="M95.43,83.64V88.9A7.72,7.72,0,0,1,93.23,90a8.4,8.4,0,0,1-2.57.37,8.24,8.24,0,0,1-3-.51,6.48,6.48,0,0,1-2.27-1.44A6.2,6.2,0,0,1,84,86.22a7.67,7.67,0,0,1-.51-2.84,8,8,0,0,1,.5-2.86,6.12,6.12,0,0,1,3.61-3.64,7.84,7.84,0,0,1,2.9-.51,8.89,8.89,0,0,1,1.51.12,6.74,6.74,0,0,1,1.29.35,6.25,6.25,0,0,1,1.1.54,7.64,7.64,0,0,1,1,.72l-.53.85a.58.58,0,0,1-.32.24A.59.59,0,0,1,94,79.1l-.53-.33a6,6,0,0,0-.72-.37,7.56,7.56,0,0,0-1-.3A7,7,0,0,0,90.4,78a5.56,5.56,0,0,0-2.09.38,4.44,4.44,0,0,0-1.6,1.08,4.8,4.8,0,0,0-1,1.7,6.54,6.54,0,0,0-.35,2.24,6.91,6.91,0,0,0,.36,2.31,4.8,4.8,0,0,0,1.06,1.73,4.31,4.31,0,0,0,1.66,1.08,6,6,0,0,0,2.18.38,5.84,5.84,0,0,0,1.7-.22,7.24,7.24,0,0,0,1.45-.59v-3H91.63a.39.39,0,0,1-.29-.1.33.33,0,0,1-.11-.26v-1Z"/>
        <path class="cls-10" d="M100,77.5a1,1,0,0,1-.1.46,1.16,1.16,0,0,1-.26.39,1.2,1.2,0,0,1-.4.26,1.24,1.24,0,0,1-.47.1,1.19,1.19,0,0,1-.46-.1,1.12,1.12,0,0,1-.38-.26,1.16,1.16,0,0,1-.26-.39,1.14,1.14,0,0,1-.09-.46,1.27,1.27,0,0,1,.09-.47,1.16,1.16,0,0,1,.26-.39,1.15,1.15,0,0,1,.38-.27,1.18,1.18,0,0,1,.46-.09,1.2,1.2,0,0,1,.87.36,1.16,1.16,0,0,1,.26.39A1.1,1.1,0,0,1,100,77.5Zm-.36,3v9.69h-1.7V80.54Z"/>
        <path class="cls-10" d="M104.14,76.14V90.23h-1.7V76.14Z"/>
        <path class="cls-10" d="M114.75,88.87a3.42,3.42,0,0,1-.75.66,4.86,4.86,0,0,1-.94.47,6.11,6.11,0,0,1-1,.27,6.41,6.41,0,0,1-1.06.09,4.84,4.84,0,0,1-1.85-.34,4.24,4.24,0,0,1-1.47-1,4.65,4.65,0,0,1-1-1.62,6.64,6.64,0,0,1-.34-2.22,5.61,5.61,0,0,1,.31-1.9,4.69,4.69,0,0,1,.89-1.52,4.08,4.08,0,0,1,1.43-1,4.59,4.59,0,0,1,1.89-.37,4.43,4.43,0,0,1,1.61.29,3.61,3.61,0,0,1,1.28.84,3.84,3.84,0,0,1,.85,1.36,5.26,5.26,0,0,1,.31,1.84,1,1,0,0,1-.09.53.37.37,0,0,1-.33.14H108a5.62,5.62,0,0,0,.26,1.59,3.11,3.11,0,0,0,.62,1.14,2.59,2.59,0,0,0,1,.68,3.26,3.26,0,0,0,1.24.22,3.52,3.52,0,0,0,1.1-.15,4.75,4.75,0,0,0,.8-.32,4.44,4.44,0,0,0,.56-.32.74.74,0,0,1,.39-.15.36.36,0,0,1,.32.17Zm-1.37-4.54a3.41,3.41,0,0,0-.17-1.09,2.46,2.46,0,0,0-.49-.85,2.09,2.09,0,0,0-.78-.55,2.61,2.61,0,0,0-1-.2,2.65,2.65,0,0,0-1.94.71,3.37,3.37,0,0,0-.88,2Z"/>
        <path class="cls-10" d="M116.74,81.91a5.6,5.6,0,0,1,1.73-1.16,5.44,5.44,0,0,1,2.06-.38,3.63,3.63,0,0,1,1.44.27,2.89,2.89,0,0,1,1.06.74,3.07,3.07,0,0,1,.65,1.16A4.71,4.71,0,0,1,123.9,84v6.2h-.75a.7.7,0,0,1-.39-.09.58.58,0,0,1-.21-.32l-.19-.91c-.25.23-.5.44-.74.62a4.35,4.35,0,0,1-.77.46,4.06,4.06,0,0,1-.85.29,5.24,5.24,0,0,1-1,.1,3.32,3.32,0,0,1-1.06-.16,2.44,2.44,0,0,1-.87-.47,2.26,2.26,0,0,1-.58-.8,2.83,2.83,0,0,1-.22-1.14,2.16,2.16,0,0,1,.32-1.11,2.84,2.84,0,0,1,1-.94,6.68,6.68,0,0,1,1.85-.67,13.37,13.37,0,0,1,2.79-.3V84a2.58,2.58,0,0,0-.49-1.71,1.76,1.76,0,0,0-1.42-.57,3.22,3.22,0,0,0-1.06.15,4.64,4.64,0,0,0-.74.36l-.53.35a.75.75,0,0,1-.45.16.48.48,0,0,1-.29-.09.77.77,0,0,1-.21-.23Zm5.5,4a13.2,13.2,0,0,0-2,.18,5.51,5.51,0,0,0-1.35.39,2,2,0,0,0-.76.56,1.26,1.26,0,0,0-.23.73,1.62,1.62,0,0,0,.12.66,1.12,1.12,0,0,0,.34.45,1.3,1.3,0,0,0,.51.26,2.07,2.07,0,0,0,.62.08,3.58,3.58,0,0,0,.83-.09,3.25,3.25,0,0,0,.7-.26,4.25,4.25,0,0,0,.63-.41,5,5,0,0,0,.59-.55Z"/>
        <path class="cls-10" d="M134.5,76.14V90.23h-1a.44.44,0,0,1-.46-.36l-.15-1.17a5.56,5.56,0,0,1-1.42,1.2,3.55,3.55,0,0,1-1.83.46,3.52,3.52,0,0,1-1.51-.32A3.1,3.1,0,0,1,127,89.1a4.65,4.65,0,0,1-.74-1.55,8.09,8.09,0,0,1-.25-2.13,6.76,6.76,0,0,1,.28-2,5.15,5.15,0,0,1,.82-1.6,3.78,3.78,0,0,1,1.32-1.06,3.85,3.85,0,0,1,1.75-.39,3.57,3.57,0,0,1,1.53.3,3.66,3.66,0,0,1,1.13.84V76.14Zm-1.7,6.71a2.76,2.76,0,0,0-1-.9,3,3,0,0,0-1.24-.25,2.46,2.46,0,0,0-2.08,1,4.58,4.58,0,0,0-.72,2.76,6.93,6.93,0,0,0,.16,1.62,3.15,3.15,0,0,0,.48,1.11,1.8,1.8,0,0,0,.77.63,2.48,2.48,0,0,0,1,.2,2.73,2.73,0,0,0,1.47-.38,4,4,0,0,0,1.15-1.08Z"/>
      </g>
    </g>
  </g>
</svg>
