<svg id="Layer_1" data-name="Layer 1" xmlns="http://www.w3.org/2000/svg" viewBox="0 0 124.36 124.36">
  <defs>
    <style>
      .cls-1 {
        fill: #fff;
      }

      .cls-2 {
        fill: #a39d99;
      }

      .cls-3, .cls-5 {
        fill: #837973;
      }

      .cls-4 {
        fill: #f4eed8;
      }

      .cls-5 {
        opacity: 0.3;
      }

      .cls-6 {
        fill: #4c4644;
      }

      .cls-7 {
        fill: #645452;
      }

      .cls-16, .cls-8 {
        fill: #f3ecd7;
      }

      .cls-9 {
        fill: #a19c98;
      }

      .cls-10 {
        fill: #cb4c2d;
      }

      .cls-11 {
        fill: #4c4744;
      }

      .cls-12 {
        fill: #232828;
      }

      .cls-13 {
        fill: #ee6031;
      }

      .cls-14 {
        fill: #8c201c;
      }

      .cls-15 {
        fill: #f4c3a6;
      }

      .cls-16 {
        opacity: 0.7;
      }

      .cls-17 {
        fill: #eabca6;
      }

      .cls-18 {
        fill: #d7b0a0;
      }

      .cls-19, .cls-20 {
        fill: #817873;
      }

      .cls-20 {
        opacity: 0.3;
      }
    </style>
  </defs>
  <g>
    <rect class="cls-1" x="-11.6" y="-29.71" width="155.91" height="178.44"/>
    <g>
      <polygon class="cls-2" points="85.41 108.33 41.93 106.82 43.44 144.63 85.41 144.63 85.41 108.33"/>
      <polygon class="cls-3" points="42.24 115.34 41.86 105.85 85.34 107.36 85.34 124.62 42.24 115.34"/>
      <polygon class="cls-3" points="87.61 111.81 90.21 102.82 90.29 77.08 84.93 85.94 87.61 111.81"/>
      <path class="cls-2" d="M57.85,86.72,46.36,84l2.24-4.74,2-1.83,2.86-.77v6.54h6.74s1.25-5.85,1.51-5.77S65,77.08,65,77.08v7.35l9.5-.83.85-6,2.86-.65V84Z"/>
      <path class="cls-3" d="M88.3,77.75H84.93v4.48H77V77.77l-6.7,0v4.43h-6.7V77.85l-6.42.06v4.32H50.5V78c-1.72,0-3.23.07-4.47.11v-.37l-.79.4-1.45.07,0,.66-10.7,5.55,3.59,13.46,29.78-2.8H81.3Z"/>
      <g>
        <polygon class="cls-4" points="48.01 78.05 50.54 78.05 50.49 78.01 53.91 76.42 43.69 76.42 29 83.97 37.64 83.97 40.3 82.36 40.12 82.36 48.01 78.05"/>
        <path class="cls-4" d="M63.14,78.05l0,0,.46-.19L65,77.08H58.76l-1.53.81a.28.28,0,0,1,0,.12v0Z"/>
        <path class="cls-4" d="M71.72,76.91a.5.5,0,0,0-.33.12l-1.09.85h6.4a.57.57,0,0,0,.31-.1l1.21-.87Z"/>
        <polygon class="cls-4" points="84.85 77.08 83.95 78.05 84.06 78.05 79.58 83.97 87.61 83.97 90.29 77.08 84.85 77.08"/>
      </g>
      <rect class="cls-5" x="42.64" y="120.45" width="2.07" height="4.69"/>
      <path class="cls-6" d="M63.82,85.77l2-1.6h1.9l.19-.23,0,.23h2.8l1-16L68.93,68l-.61,9.53-4.45-3.24L63.8,72,61,72l.08,2.43-8.16,1.68-.21-4.89-2.79.11.53,12.52,2.79-1.5h0l8.17.4L61.65,91l2.17-.07Zm3.62-5.55-3.23,3.84L64,77.71ZM53.08,79.7l0-.83,8.14-1.67.1,2.89Z"/>
      <g>
        <path class="cls-6" d="M57.26,24.89l.79,12.71-2.51-.05L54.58,25Zm9.49-4.49L65.69,37.67l2.7-.11,1-17Zm-6.63,3.5.4,13.55,2.69.11-.4-13.73Z"/>
        <g>
          <path class="cls-7" d="M74.38,32.5H42.63c-1,0-2.35-2.12-1.72-3.07L53.09,11.3A4,4,0,0,1,56,9.58l32-.36c1,0,2.32,1.81,1.3,3.5l-12,18.07A4,4,0,0,1,74.38,32.5Z"/>
          <path class="cls-8" d="M73.48,30.71H41.73c-.95,0-1.21-.77-.58-1.72l12-18.07A4,4,0,0,1,56,9.21H87.75c1,0,1.22.77.59,1.71L76.34,29A4,4,0,0,1,73.48,30.71Z"/>
          <path class="cls-7" d="M56.18,11.33l-3.42,5.16c-.14.2,0,.37.34.37h8.28a1.12,1.12,0,0,0,.84-.37l3.42-5.16c.14-.21,0-.37-.34-.37H57A1.09,1.09,0,0,0,56.18,11.33Zm.94.37h7.1l-2.94,4.42h-7.1Zm4.83.73H58.41a1.12,1.12,0,0,0-.84.37L56.1,15c-.13.21,0,.37.35.37H60a1.07,1.07,0,0,0,.83-.37L62.3,12.8C62.44,12.6,62.28,12.43,62,12.43Zm-2.06,2.21H57.53l1-1.47h2.36Zm-2.42,8.12H49.19a1.12,1.12,0,0,0-.84.36l-3.42,5.17c-.14.2,0,.36.34.36h8.28a1.12,1.12,0,0,0,.84-.36l3.42-5.17C58,22.92,57.79,22.76,57.47,22.76Zm-4,5.16h-7.1l2.94-4.43h7.1Zm-4.83-.74h3.55a1.1,1.1,0,0,0,.83-.37l1.47-2.21c.14-.2,0-.37-.35-.37H50.58a1.11,1.11,0,0,0-.84.37l-1.47,2.21C48.14,27,48.29,27.18,48.62,27.18ZM50.68,25H53l-1,1.47H49.7Zm22.63,3.32,1.47-2.22c.13-.2,0-.37-.35-.37H70.88a1.1,1.1,0,0,0-.83.37l-1.47,2.22c-.14.2,0,.36.35.36h3.54A1.12,1.12,0,0,0,73.31,28.29Zm-.94-.37H70l1-1.48h2.36ZM59.51,26.81a1.07,1.07,0,0,0,.83-.37l1-1.47c.14-.21,0-.37-.35-.37H58.61a1.09,1.09,0,0,0-.84.37l-1,1.47c-.13.21,0,.37.35.37Zm-.8-1.47h1.18l-.49.73H58.22ZM80.16,18c.14-.2,0-.37-.34-.37H77.45a1.12,1.12,0,0,0-.84.37l-1,1.48c-.14.2,0,.37.34.37h2.37a1.1,1.1,0,0,0,.83-.37Zm-1.91,1.11H77.06l.49-.74h1.19Zm-7.14,1.84-1,1.48c-.14.2,0,.37.35.37h2.36a1.12,1.12,0,0,0,.84-.37l1-1.48c.13-.2,0-.37-.35-.37H72A1.11,1.11,0,0,0,71.11,20.91Zm.94.37h1.18l-.49.74H71.56Zm0-4.42h8.28a1.1,1.1,0,0,0,.83-.37l3.43-5.16c.13-.21,0-.37-.35-.37H75.94a1.07,1.07,0,0,0-.83.37l-3.43,5.16C71.54,16.69,71.7,16.86,72,16.86Zm4-5.16h7.1L80.2,16.12H73.11Zm4.84.73H77.33a1.12,1.12,0,0,0-.84.37L75,15c-.13.21,0,.37.35.37h3.55a1.05,1.05,0,0,0,.83-.37l1.47-2.21C81.36,12.6,81.2,12.43,80.88,12.43Zm-2.06,2.21H76.45l1-1.47H79.8Zm-5.18,9.59H63l.49-.74h3l.49-.73H64.56c-.32,0-.48-.17-.34-.37l2.44-3.69H63.12l-.74,1.11h2.37l-.49.73h-3c-.33,0-.48-.16-.35-.37l1-1.47H58.39l.48-.74h8.87c.33,0,.49.17.35.37L65.64,22h1.78l1.71-2.58a1.09,1.09,0,0,1,.84-.37h1.18L71.88,18a1.12,1.12,0,0,1,.84-.37h3l-.49.74H72.82l-.73,1.11a1.12,1.12,0,0,1-.84.37H70.07l-2.45,3.68h6.51ZM71,13.91H69.85l.48-.74h1.19Zm2.65-2.21H72.5L73,11h1.18Zm.43,7.37-.49.74H72.43l.49-.74Zm-2.88-3.69H70.05l.49-.74h1.18Zm-1.47,2.21H71l-.49.74H69.27Zm-2.91,8.85H68l-.49.74H66.36Zm-5.33,0h1.19l-.49.74H61Zm-2.09-6.63-.49.73H57.75l.49-.73Zm-6.22-2.22-.49.74H51.53l.49-.74Zm-3.63,3.69h1.18l-.49.74H49.09Zm7.17-3.69-.49.74H55.08l.49-.74Zm7,8.11H62.61L63.1,25h1.18Zm6.75-.36L71,24.6h1.18l-.49.74ZM68.36,11.7H66.58l.49-.74h4.14l-.49.74H69.54l-3.67,5.53H64.69Zm-.57,4.42h2.95l-.49.74h-3ZM56.41,27.92H67.05l-.49.73H55.92Zm4.5-5.9-.73,1.1H62l-.49.74H59.1c-.33,0-.48-.16-.35-.37l1-1.47H52c-.32,0-.48-.17-.34-.37l1.22-1.84H50.56l.48-.74h5.33c.32,0,.48.16.34.37L56,20.54H54.8l.49-.73H54.1l-1,1.47H63.77l-.49.74ZM66.05,25H69.6l-.49.73h-3l-1,1.48H64l1.23-1.84A1.05,1.05,0,0,1,66.05,25Zm11.22-4.43h1.18L75.76,24.6H74.57Z"/>
        </g>
        <g>
          <polyline class="cls-9" points="72.11 57.57 70.73 58.35 46.08 57.83 48.91 91.81 71.34 91.48 72.11 57.57"/>
          <polygon class="cls-7" points="71.34 91.81 75.63 88.75 77.06 53.66 72.16 55.5 71.34 91.81"/>
          <polyline class="cls-10" points="42.17 57.74 70.73 58.35 79.71 53.26 71.34 45.3 70.94 37.14 56.25 36.73 51.76 37.95 51.56 44.69 42.17 57.13 42.17 57.74"/>
          <path class="cls-10" d="M61.54,38H51.76l-.2,6.73,15.63.25V38c-.86.06-1.71.07-2.56.07H64c-.82,0-1.63-.06-2.44-.12"/>
          <line class="cls-10" x1="71.35" y1="45.3" x2="70.94" y2="37.14"/>
          <path class="cls-11" d="M66.05,80.49V80h-14a2,2,0,0,1-2-2V64a2,2,0,0,1,2-2h14a2,2,0,0,1,2,2V78a2,2,0,0,1-2,2v.9A2.93,2.93,0,0,0,69,78V64a2.93,2.93,0,0,0-2.93-2.93h-14A2.93,2.93,0,0,0,49.14,64V78a2.93,2.93,0,0,0,2.92,2.93h14Z"/>
          <rect class="cls-11" x="52.81" y="64.77" width="12.49" height="12.49" rx="1.63"/>
          <path class="cls-12" d="M63.67,64.77H56.75V73a.94.94,0,0,0,.94,1H65.3V66.4A1.63,1.63,0,0,0,63.67,64.77Z"/>
          <path class="cls-13" d="M68.41,57.48h-.2a.22.22,0,0,0,.12.21l.07,0a.1.1,0,0,0,.09-.08l-.08-.15m-.33,0H66.47l-3.21-.08c-2.14-.07-4.27-.29-6.41-.44Q50.44,56.53,44,56.2v-.09l3,0c3.28,0,6.55,0,9.83.15,2.14.06,4.29.08,6.42.27,1.07.11,2.14.21,3.2.35l1.59.22.2,0,.1,0,.17,0a.45.45,0,0,1,.16.55.31.31,0,0,1-.3.19.27.27,0,0,1-.21-.09.37.37,0,0,1-.12-.34h0M55.55,53.14l0-.08a4.64,4.64,0,0,1,1.81-.58c.2,0,.41-.07.61-.07a1.13,1.13,0,0,1,.36.06,1.6,1.6,0,0,1,.83.62l0,.08a3,3,0,0,1-.94.19h-.06a7.72,7.72,0,0,1-.78-.16,6.86,6.86,0,0,0-1.12-.09c-.21,0-.44,0-.66,0M51.2,52.9a1.81,1.81,0,0,1-.54-.18c-.4-.12-.82-.23-1.25-.32v-.09a4.59,4.59,0,0,1,1.33-.3c.14,0,.29,0,.43,0a.58.58,0,0,1,.26.05,1.16,1.16,0,0,1,.56.54l0,.09a1.42,1.42,0,0,1-.7.25h0M56,49.41H57.3a7,7,0,0,1,1,.06,10.15,10.15,0,0,1,2.34.53v.09a10.33,10.33,0,0,1-2.39.28h-.15c-.74,0-1.47-.15-2.21-.22-1.57-.17-3.15-.36-4.72-.58v-.08c1.36,0,2.73-.06,4.09-.06H56m-4.46-4.72L42.17,57.13v.61l28.56.61h0L67.19,45.3v-.36l-15.63-.25"/>
          <path class="cls-14" d="M53,37.61,51.76,38h9.78l-1.64-.12c-2.29-.12-4.57-.19-6.86-.23m3.21-.88-2.18.6q2.91-.18,5.84-.21l2,0c.71,0,1.42,0,2.12.08a26.78,26.78,0,0,1,4.07.67v.09c-.3,0-.6.06-.9.07V45.3l3.49,13.05h0l9-5.1-8.36-8-.41-8.16-14.69-.41"/>
          <path class="cls-15" d="M68.21,57.48h.2l.08.15a.1.1,0,0,1-.09.08l-.07,0a.22.22,0,0,1-.12-.21M47.06,56.09l-3,0v.09q6.42.33,12.82.76c2.14.15,4.27.37,6.41.44l3.21.08H68.1a.37.37,0,0,0,.12.34.27.27,0,0,0,.21.09.31.31,0,0,0,.3-.19.45.45,0,0,0-.16-.55l-.17,0-.1,0-.2,0-1.59-.22c-1.06-.14-2.13-.24-3.2-.35-2.13-.19-4.28-.21-6.42-.27-3.28-.1-6.55-.15-9.83-.15"/>
          <path class="cls-15" d="M51.16,52c-.14,0-.29,0-.43,0a4.59,4.59,0,0,0-1.33.3v.09c.43.09.85.2,1.25.32a1.81,1.81,0,0,0,.54.18h0a1.42,1.42,0,0,0,.7-.25l0-.09a1.16,1.16,0,0,0-.56-.54.58.58,0,0,0-.26-.05"/>
          <path class="cls-15" d="M58,52.41c-.2,0-.41.05-.61.07a4.64,4.64,0,0,0-1.81.58l0,.08c.22,0,.45,0,.66,0a6.86,6.86,0,0,1,1.12.09,7.72,7.72,0,0,0,.78.16h.06a3,3,0,0,0,.94-.19l0-.08a1.6,1.6,0,0,0-.83-.62,1.13,1.13,0,0,0-.36-.06"/>
          <path class="cls-15" d="M57.3,49.39h-2c-1.36,0-2.73,0-4.09.06v.08c1.57.22,3.15.41,4.72.58.74.07,1.47.22,2.21.22h.15a10.33,10.33,0,0,0,2.39-.28V50a10.15,10.15,0,0,0-2.34-.53,7,7,0,0,0-1-.06"/>
          <path class="cls-16" d="M54.07,37.33c-.79.05-1.58.1-2.36.17v.09l1.33,0,1-.28"/>
          <path class="cls-17" d="M67.19,38H61.54c.81.06,1.62.11,2.44.12h.65c.85,0,1.7,0,2.56-.07v0"/>
          <path class="cls-18" d="M61.9,37.1l-2,0q-2.92,0-5.84.21l-1,.28c2.29,0,4.57.11,6.86.23l1.64.12h5.65v0c.3,0,.6,0,.9-.07v-.09A26.78,26.78,0,0,0,64,37.18c-.7-.06-1.41-.08-2.12-.08"/>
          <polygon class="cls-19" points="53.21 90.71 49.09 90.71 48.83 88.37 53.21 88.37 53.21 90.71"/>
          <rect class="cls-20" x="50" y="83.65" width="5.08" height="3.9"/>
          <path class="cls-14" d="M52.49,45.88A3.21,3.21,0,0,0,52.28,47v.09a.72.72,0,0,0,.14.44.52.52,0,0,0,.37.16,1,1,0,0,0,.52-.19,4.19,4.19,0,0,0,1.11-1.15l-.37-.25a3.78,3.78,0,0,1-1,1,.66.66,0,0,1-.26.11h0a.52.52,0,0,1,0-.15V47a2.85,2.85,0,0,1,.18-1l-.42-.15Z"/>
          <path class="cls-14" d="M54.89,46.94c0,.1,0,.22,0,.34a1.08,1.08,0,0,0,.07.43.71.71,0,0,0,.3.37.8.8,0,0,0,.33.08,1.27,1.27,0,0,0,.81-.41A4.54,4.54,0,0,0,57,47a.42.42,0,0,0,.06-.23l0-.17-.07-.1-.17-.07-.18.07.29.34-.11-.13v.17l.11,0-.11-.13v0l-.13.14.13,0v-.19l-.13.14.09-.1-.13,0,0,.06.09-.1-.13,0h0l.07,0-.06,0v0l.07,0-.06,0a4.12,4.12,0,0,1-.56.69.86.86,0,0,1-.5.28l-.11,0-.11-.14a.91.91,0,0,1,0-.27,1.33,1.33,0,0,1,0-.28l-.45-.06Z"/>
          <path class="cls-14" d="M61.4,50.72A6.06,6.06,0,0,0,62,52.05a.75.75,0,0,0,.37.35l.16,0a.85.85,0,0,0,.62-.39l1.15-1.48-.35-.28-1.16,1.49a.58.58,0,0,1-.26.22h0a.34.34,0,0,1-.12-.15,6,6,0,0,1-.56-1.24l-.42.14Z"/>
          <path class="cls-14" d="M62.9,48.49a1.57,1.57,0,0,0,.23.68.73.73,0,0,0,.6.34l.19,0a.77.77,0,0,0,.39-.33,2.55,2.55,0,0,0,.44-1l-.44-.1a2.15,2.15,0,0,1-.36.8.38.38,0,0,1-.17.17h-.05a.32.32,0,0,1-.23-.15,1.4,1.4,0,0,1-.16-.5l-.44.07Z"/>
          <path class="cls-14" d="M64.51,52.42a1.94,1.94,0,0,0,.28.78.91.91,0,0,0,.69.38l.21,0a.84.84,0,0,0,.45-.39,1.43,1.43,0,0,0,.2-.73v-.15l-.45,0v.1a1,1,0,0,1-.14.5.47.47,0,0,1-.2.2h-.07a.44.44,0,0,1-.32-.19,1.56,1.56,0,0,1-.21-.61l-.44.09Z"/>
          <path class="cls-14" d="M47.45,52.73a2.88,2.88,0,0,0-.06.59,3,3,0,0,0,.37,1.43l.09.15.17,0a3,3,0,0,0,1.73-1.31l-.38-.24a2.57,2.57,0,0,1-1.47,1.12l.06.21.19-.11a2.49,2.49,0,0,1-.31-1.2,2.73,2.73,0,0,1,0-.5l-.44-.09Z"/>
          <path class="cls-14" d="M52.54,53.67a1.93,1.93,0,0,0,.24.79.86.86,0,0,0,.68.39l.21,0a.84.84,0,0,0,.37-.28,2.48,2.48,0,0,0,.58-1.26l-.44-.07a2,2,0,0,1-.48,1,.46.46,0,0,1-.18.15h-.06a.39.39,0,0,1-.31-.19,1.53,1.53,0,0,1-.17-.6l-.44.06Z"/>
          <path class="cls-14" d="M53.91,51.38a.84.84,0,0,0,.38.59,1.16,1.16,0,0,0,1,.14,2.59,2.59,0,0,0,1.14-1l-.36-.26a2.17,2.17,0,0,1-.92.85l-.23,0a.78.78,0,0,1-.4-.12.35.35,0,0,1-.18-.27l-.45.05Z"/>
          <path class="cls-14" d="M61.8,46.42a2.1,2.1,0,0,0,.2,1,1,1,0,0,0,.79.5.74.74,0,0,0,.25,0,1,1,0,0,0,.39-.29,3.87,3.87,0,0,0,.74-1.17l-.41-.17a3.49,3.49,0,0,1-.66,1,.64.64,0,0,1-.22.18l-.09,0a.54.54,0,0,1-.4-.27,1.76,1.76,0,0,1-.15-.8Z"/>
        </g>
      </g>
      <rect class="cls-4" x="34.86" y="89.13" width="48.99" height="3.8"/>
      <polygon class="cls-2" points="79.44 83.97 79.44 91.9 70.99 91.9 70.99 83.97 62.55 83.97 62.55 91.9 54.1 91.9 54.1 83.97 46.02 83.97 46.02 91.9 37.57 91.9 37.57 83.97 29 83.97 30.79 111.81 87.61 111.81 87.61 83.97 79.44 83.97"/>
      <rect class="cls-3" x="32.87" y="102.29" width="8.58" height="4.54"/>
      <rect class="cls-3" x="36.55" y="97.26" width="7.61" height="4.28"/>
      <polygon class="cls-4" points="46.02 83.97 54.01 83.97 56.01 82.36 48.02 82.36 46.02 83.97"/>
      <polygon class="cls-4" points="62.59 83.97 70.99 83.97 72.93 82.36 64.53 82.36 62.59 83.97"/>
    </g>
  </g>
</svg>
