<svg xmlns="http://www.w3.org/2000/svg" xmlns:xlink="http://www.w3.org/1999/xlink" viewBox="0 0 124.37 124.36">
  <defs>
    <style>
      .cls-1, .cls-10, .cls-12, .cls-14, .cls-17 {
        fill: none;
      }

      .cls-2 {
        isolation: isolate;
      }

      .cls-3 {
        fill: #fff;
      }

      .cls-4 {
        fill: #504e51;
      }

      .cls-5 {
        fill: #737373;
      }

      .cls-6 {
        fill: #989898;
      }

      .cls-7 {
        fill: #cecece;
      }

      .cls-15, .cls-16, .cls-8 {
        fill: #4f4f4f;
      }

      .cls-9 {
        clip-path: url(#clip-path);
      }

      .cls-10 {
        stroke: #989898;
        stroke-width: 0.57px;
      }

      .cls-10, .cls-12, .cls-14, .cls-17 {
        stroke-miterlimit: 10;
      }

      .cls-11 {
        fill: #f4f4f4;
      }

      .cls-12, .cls-14 {
        stroke: #4f4f4f;
      }

      .cls-12 {
        stroke-width: 0.63px;
      }

      .cls-13 {
        fill: #c50f3c;
      }

      .cls-14, .cls-17 {
        stroke-linecap: round;
      }

      .cls-14 {
        stroke-width: 0.54px;
      }

      .cls-15 {
        opacity: 0.6;
      }

      .cls-15, .cls-16 {
        mix-blend-mode: multiply;
      }

      .cls-16 {
        opacity: 0.4;
      }

      .cls-17 {
        stroke: #cecece;
        stroke-width: 1.26px;
      }
    </style>
    <clipPath id="clip-path">
      <path class="cls-1" d="M238.75,62.77,218.23,52.19s-40.18.71-54.8,4.37l14.46,8L72.25,90.43l13.9,13.37-.22-1.43c.78-.19,86.21-23.41,107.63-29.23L216,85.47S240,66,240.16,66A34,34,0,0,0,238.75,62.77Z"/>
    </clipPath>
  </defs>
  <g class="cls-2">
    <g id="Layer_1" data-name="Layer 1">
      <g>
        <rect class="cls-3" x="-17.92" y="-25.5" width="155.91" height="178.44"/>
        <g>
          <ellipse class="cls-4" cx="116.41" cy="58.99" rx="8.06" ry="8.41" transform="matrix(0.28, -0.96, 0.96, 0.28, 26.78, 153.85)"/>
          <ellipse class="cls-4" cx="96.07" cy="66.73" rx="8.61" ry="6.46" transform="translate(8.76 144.57) rotate(-76.5)"/>
          <g>
            <g>
              <path class="cls-5" d="M218.68,91.47c.45-1.27,27.5-25.45,27.5-25.45l.9-12.52-15.79-7.43H218.68S118.29,41.92,65.14,81.16l40.39,42.4L204,106.14Z"/>
              <polygon class="cls-6" points="163.43 56.56 163.43 69.92 80.06 100.96 88.86 111.74 193.66 84.1 209.44 92.83 218.68 84.75 192.76 58.55 163.43 56.56"/>
              <path class="cls-6" d="M126.17,81.44l5.11-1.22-13.72-7-6-1v1.88l13.73,7.47Z"/>
              <path class="cls-6" d="M106.79,85.65q2.77-.56,5.53-1.14L99.64,77.88l-6-1v1.88l12.48,7Z"/>
              <path class="cls-7" d="M126.17,79.55c1.7-.39,3.4-.81,5.11-1.22l-13.72-7-6,.9,13.73,7.46Z"/>
              <path class="cls-7" d="M106.79,83.77c1.85-.37,3.69-.76,5.53-1.15L99.64,76l-6,.91,12.48,7Z"/>
              <path class="cls-7" d="M238.75,62.77,218.23,52.19s-40.18.71-54.8,4.37l14.46,8L72.25,90.43l13.9,13.37-.22-1.43c.78-.19,86.21-23.41,107.63-29.23L216,85.47S240,66,240.16,66A34,34,0,0,0,238.75,62.77Z"/>
              <path class="cls-8" d="M85,73c1.63-.73,3.46-1.52,5.49-2.35.21,1.29.43,2.59.67,3.88.07.44.16.88.24,1.32-2,.81-3.82,1.59-5.46,2.31C85.66,76.4,85.34,74.68,85,73Zm17.45-1.36c2-.71,4.12-1.43,6.32-2.15,0-.24-.11-.49-.16-.73-.3-1.5-.57-3-.83-4.52q-3.3,1.1-6.28,2.17C101.8,68.12,102.12,69.87,102.49,71.6ZM124,65q2.67-.69,5.45-1.37c0-.15-.07-.3-.11-.45-.36-1.61-.69-3.23-1-4.85-1.79.43-3.53.88-5.24,1.34C123.41,61.42,123.7,63.2,124,65Zm18.83-4.23q3.48-.65,7.09-1.22c-.23-1.82-.43-3.65-.62-5.48q-3.89.63-7.61,1.34A51,51,0,0,0,142.86,60.74Z"/>
              <g class="cls-9">
                <g>
                  <line class="cls-10" x1="124.48" y1="63.22" x2="181.04" y2="92.88"/>
                  <g>
                    <line class="cls-10" x1="86.89" y1="75.34" x2="143.46" y2="105"/>
                    <line class="cls-10" x1="92.39" y1="73.27" x2="148.96" y2="102.93"/>
                    <line class="cls-10" x1="100.66" y1="72" x2="157.22" y2="101.65"/>
                    <line class="cls-10" x1="106.16" y1="69.93" x2="162.72" y2="99.58"/>
                    <line class="cls-10" x1="119.52" y1="71.52" x2="176.08" y2="101.18"/>
                  </g>
                  <g>
                    <line class="cls-10" x1="45.48" y1="84.33" x2="102.04" y2="113.99"/>
                    <line class="cls-10" x1="50.98" y1="82.26" x2="107.54" y2="111.92"/>
                    <line class="cls-10" x1="59.24" y1="80.98" x2="115.81" y2="110.64"/>
                    <line class="cls-10" x1="64.74" y1="78.91" x2="121.31" y2="108.57"/>
                    <line class="cls-10" x1="78.1" y1="80.51" x2="134.67" y2="110.16"/>
                    <line class="cls-10" x1="83.6" y1="78.44" x2="140.16" y2="108.09"/>
                  </g>
                </g>
              </g>
            </g>
            <path class="cls-5" d="M280,18c-2.8,1.43-7.32,2.24-10,.06-.36.11-.73.22-1.09.31a48.31,48.31,0,0,1-10.48,1.47,11.41,11.41,0,0,0-1.63,1.77,18.08,18.08,0,0,0-1.75,2.89c-.32.67-.56,1.4-.84,2.09s-.54,1.29-.82,1.93a70.12,70.12,0,0,1-4,7.74c-1.11,1.86-2.22,3.69-3.21,5.62-1.75,3.44-3.28,7-5.19,10.37-.54,1-1.13,1.9-1.75,2.81l2,1c-20,30-61.45,41.9-95.27,46.5a4.92,4.92,0,0,1-.58.44c-2,1.33-4.52,1.65-6.83,2.13a58.16,58.16,0,0,0-9.2,2.82c-6.33,2.42-12.45,5.69-19.2,6.76a37,37,0,0,1-17.32-1.4,40.94,40.94,0,0,1-15-9A42.13,42.13,0,0,1,67.18,88.53,52.1,52.1,0,0,1,64.2,70c0-3.25.2-6.5.48-9.73.14-1.62.29-3.23.46-4.84.19-1.83.22-3.66.35-5.49a46.91,46.91,0,0,1,.67-5,25.93,25.93,0,0,0,.68-4.08A4.44,4.44,0,0,0,65.91,38a1.83,1.83,0,0,0-1.17-.77c-1.1-.1-2.07,1.1-2.67,1.87A25.73,25.73,0,0,0,59.4,43.5v0l.31-.08c.38,7.47-5.59,17.17-9.7,31s3.73,35.08,13.06,47.77a15.14,15.14,0,0,0,1.52,1.72c20.19,6.7,108.05,30.46,178.64-35.21a119.49,119.49,0,0,0,8.28-27l15.3-4.48,1.77-17.31,12.8-3.71s1.74-7.85,2.83-17.22a17,17,0,0,0-.14-5.9A8.31,8.31,0,0,1,280,18Z"/>
            <polygon class="cls-11" points="72.25 22.7 79.17 30.02 72.25 33.07 72.25 22.7"/>
            <polygon class="cls-11" points="71.64 39.29 75.71 42.23 67.58 49.34 69.81 38.16 71.64 39.29"/>
            <polygon class="cls-11" points="67.58 52.19 72.25 54.02 65.95 62.77 65.14 55.39 67.58 52.19"/>
            <path class="cls-11" d="M66.36,67.76l5.89,2.73S69.41,78,68.7,77.41s-2.34-4.81-2.34-4.81Z"/>
            <polyline class="cls-12" points="50.71 95.9 53.13 95.9 58.08 100.96 62.97 100.06 65.14 100.96"/>
            <polyline class="cls-12" points="48.97 85.47 50.71 84.1 55.08 88.69 59.03 86.8"/>
            <polyline class="cls-12" points="57.92 73.98 54 75.1 50.71 72.6"/>
            <polyline class="cls-12" points="55.08 62.77 56.73 63.86 60.1 63.31"/>
            <polyline class="cls-12" points="69.31 115.12 66.36 116.93 61.9 114.72 58.53 115.12"/>
            <path class="cls-6" d="M249.23,22.7l-2.17,5.19L234.45,22.7l-.79-6.11-9.54-4.2,1.71,15.34,6.76,3.93c-.22,3.7-4.58,11.12-5.46,12.21-.41.52-2.13.89-3.8,1.14C208,44.61,117.7,43.78,67.58,77.44v2.23C117.81,45.93,208.4,46.83,223.44,47.23l17.87,8.85c-20,30-61.45,41.9-95.27,46.5-.18.16-4.57,1.9-4.77,2,0,0,7.93,1.71,48.33-9.73S246.08,55,247.26,50.72,250,41,250,41l5.25,2.36,2.45-17.69Z"/>
            <path class="cls-13" d="M132,122.27a5.57,5.57,0,0,0,4.42,3.11,12.28,12.28,0,0,0,5.55-.78c5.84-2,11.5-6.38,12.33-12.48a12,12,0,0,0-2.86-9.35,10.71,10.71,0,0,0-.81-.84,301.31,301.31,0,0,1-56.25,3.21s-10.9-5.23-22.24-24.86S73.18,36,73.84,33.62s0-16.79,0-16.79l-3.93-3.27.44,10-2.84-2.4L65.33,10.07l-3.71,1.31,2.62,9.15c-3.49.22-12.21,3.71-14.39,4.8S47.67,29.91,47,33.4,35.24,41,33.71,41.9s0,5.67,0,5.67C40,48.41,58,43.89,59.57,43.48c1.78-.7,3.6-1.38,5.27-2.1.53,4.61-.8,9.19-1.72,13.73a78.42,78.42,0,0,0-1.48,19C62.18,86.22,66.27,99,75.52,106.9a4,4,0,0,0-1.42,3.38,7.54,7.54,0,0,0,1.27,3.56c2.78,4.45,8.08,7,13,8.75a39.84,39.84,0,0,0,31.81-2.33c7.29-3.9,13.35-10.75,21.21-13.35,2.49-.82,5.57-.84,7.38,1.07,2,2.07,1.52,5.48.11,8a16.34,16.34,0,0,1-8.25,6.79c-2.23.89-5.09,1.27-6.74-.46a3.66,3.66,0,0,1-.16-4.73A3.65,3.65,0,0,0,132,122.27Z"/>
            <path class="cls-8" d="M62.87,30c-3.72,1.74-6.8,4.33-7.79,8.32a7.19,7.19,0,0,1,3.21-1.14,7.19,7.19,0,0,0,3-1.3A4.3,4.3,0,0,0,62.81,33,9,9,0,0,0,62.87,30Z"/>
            <path class="cls-7" d="M94.73,69.87v0a1.17,1.17,0,0,0-1.62-.66l-8.18,4,.57,2.39,8.65-4.27A1.17,1.17,0,0,0,94.73,69.87Z"/>
            <path class="cls-7" d="M108.88,66.18v0a1.17,1.17,0,0,0-1.43-1l-5.91,1.36c.18.78.26,1.64.42,2.42l6-1.47A1.16,1.16,0,0,0,108.88,66.18Z"/>
            <path class="cls-7" d="M130.76,59.61v0a1.17,1.17,0,0,0-1.43-1L123.21,60l.39,2.37,6.26-1.5A1.18,1.18,0,0,0,130.76,59.61Z"/>
          </g>
          <line class="cls-14" x1="150.82" y1="-141.24" x2="112.66" y2="58.79"/>
          <path class="cls-15" d="M71.23,73.05c.58-1.38,1-2.56,1-2.56l-.12,0L69,73.1c.32,1.06.69,2.1,1.11,3.14a2,2,0,0,1,0-.43.41.41,0,0,1-.11.07v0l.15-.29A5.4,5.4,0,0,1,71.23,73.05Z"/>
          <path class="cls-15" d="M67.35,61.47v-.64L72.25,54l-.33-.13-4.49,1.45S67.25,57.94,67.35,61.47Z"/>
          <path class="cls-15" d="M70.45,77.05a54.79,54.79,0,0,0,7.26,11.89l60.77-14.76a11.75,11.75,0,0,0,.15,2.9l.56-13.6a6.27,6.27,0,0,0,2.31-1A8.91,8.91,0,0,0,145.06,57a10,10,0,0,0,.19-2.05,13.66,13.66,0,0,0,.16-3.61,8.83,8.83,0,0,0-1.4-4.27.5.5,0,0,0-.08-.14l-.12-.13a5.2,5.2,0,0,0-.38-.44,4.49,4.49,0,0,0-.82-.68A10.3,10.3,0,0,0,140,44.1l.9-22.25-1,22.83a3.22,3.22,0,0,0-.75-.1c-2.34,0-4.24,2.85-4.24,6.36v.2c.14,1.25.28,2.49.44,3.61a200.27,200.27,0,0,0-64.64,22.6A1.53,1.53,0,0,1,70.45,77.05Z"/>
          <path class="cls-16" d="M284.08,13.22a6.37,6.37,0,0,0-.91-3.9,4.33,4.33,0,0,1,0,.63,13.37,13.37,0,0,1-1.26,5c-.46.91-1.27,1.83-2.29,1.74a1.93,1.93,0,0,1-1.53-1.26,4.1,4.1,0,0,1-.18-2.06,10,10,0,0,1,1.5-4.13l0-.13c-2.22,2.25-2,6-2,6L259.62,7.45c-.14-4.7-1.87-6.51-3-7.2a5.6,5.6,0,0,1,.12,1.28,13.38,13.38,0,0,1-.89,5.1c-.39.94-1.13,1.92-2.15,1.91a1.77,1.77,0,0,1-1-.39l.17,3.23-4.58,1.3-.31-4-8.85,1.54v3.36l-4.8,1.09-.5-3.53-5.28.92L232,13.7l-2.55,1.07-5.29-2.35.72,6.47,1,8.84,6.76,3.93a10.11,10.11,0,0,1-.36,1.9l1.12.83,1,.8A5.89,5.89,0,0,0,233,37c-1.29,2.44-1.46,5.43-1.45,8.13,0,1.38.09,2.75.23,4.12,0,.18.2.39.41.31,2-.79,2.18-3.08,2.24-4.92,0-1.13,0-2.26.06-3.39a6.94,6.94,0,0,1,.61-2.84,2.46,2.46,0,0,1,1.79-1.26L239,38.76c3.33,2.62,6.61,5.3,9.72,8.16C237.82,83.8,188,95.34,188,95.34l-1.56-.41-1,.22L168.93,86.8,177,85l14.59,7.35a81.74,81.74,0,0,0,10.55-4.61l-12.78-6.89,7.29-2.14s7.32,3.86,11.23,5.86c1.93-1.14,3.1-1.9,3.1-1.9l-18.22-9.35L174,78.75l-18.48-8.84,22.33-5.39L169.68,60h2.46l23.58-2.83L195,60.69a11,11,0,0,0-.41,2.34l1.73-7.37-.45.33a.47.47,0,0,1-.51,0,1.4,1.4,0,0,1-.51-.56c-.28-.52-.28-1.1,0-1.3l1.35-1a15.55,15.55,0,0,1-1.41-5,5.7,5.7,0,0,1-2.51.27,155.91,155.91,0,0,0-37.62,3.23,18,18,0,0,0,0-2.65l-.48.07L153.45-64.1a19,19,0,0,0,5.79-4l0,0,0-.1.06-.06a33.11,33.11,0,0,0,16.5,17.82A30.18,30.18,0,0,0,200-49.28c5.3-2.1,9.18-9,9.34-14.81l.92.49c0,.26.08.52.13.78l.22-.59,3.92,2.13a1.3,1.3,0,0,0,.6.15,1.26,1.26,0,0,0,1.11-.66L150.11-97.51l-.17,10.72c1.12.53,2.24,1,3.37,1.54l-.05-9.24,52.37,28.38-2.08-.47,4.33,1.69c-3,4-8,6.11-13,6.92-14.79,2.42-30.7-5.91-37.15-19.44-1.28,4.11-5.75,6.46-10,6.91-6.79.71-13.6-2.34-18.55-7s-8.24-10.89-10.67-17.27a3.92,3.92,0,0,0-1.81-2.48,4.14,4.14,0,0,0-2.21,0,21.37,21.37,0,0,1-16.1-4.07A22.55,22.55,0,0,1,94-105.83a30.58,30.58,0,0,0,2.88,6.1c2.21,3.62,5.14,7,9,8.67,3.73,1.62,8.46,1.37,11.49-1.29l.31.15.08-.3a34,34,0,0,0,5.86,18.41,27,27,0,0,0,16.66,11.5,22.3,22.3,0,0,0,4.16.4l-.29,6.88,5.19,2.93-.28,133.72a15,15,0,0,1-5.6.67L150,85l-60,16.56c2.62,2.26,4.39,3.54,4.39,3.54,14.15.9,30.64-.36,44.79-2.08-2.78-1.22-9.64-5.57-9.64-5.57s7-2.17,7.93-2.15l12.53,6.26c4.29-.63,8.17-1.26,11.43-1.82l-13.3-7,8.81-1.51,13.37,6.83,1.92-.39c1.62.66,1,.7,2.63,1.18a97.06,97.06,0,0,1-20.9,4.86c-21.31,2.84-43.19,5.88-64.69,6-6.77-7.64-13.37-15.59-17.8-24.78s-6.55-19.83-4-29.71L68.37,51h0c.19-1,.4-2,.62-2.91l6.39-5.59-5.3,1.23,1.57-4.46c1.1-3,2-5.06,2.19-5.67A10,10,0,0,0,74,32.3L79.17,30l-.12-.12c-1.76-.29-4.93-1-4.93-1l.08-4.17-.11-.12c-.08-4-.25-7.81-.25-7.81l-.33-.27a71.24,71.24,0,0,1-2,8,5.55,5.55,0,0,1-1.19-1.84l0,.85-2.84-2.4L65.33,10.07l-.14,0c0,3.71,0,7.51.07,11.15,2.47,1.19,3.21,4.08,3.84,6.74a17.66,17.66,0,0,0-9.88,1.93,12.14,12.14,0,0,0-6.09,7.81,3.45,3.45,0,0,1-.62,1.64,2.64,2.64,0,0,1-.92.61,29.66,29.66,0,0,1-14.08,2.54,18.9,18.9,0,0,0-3.33,5s0,.05,0,.08c6.45.57,23.06-3.55,25.28-4.11l.12,0h0l.13,0a25.75,25.75,0,0,1-1.77,9.31,28.71,28.71,0,0,0,2.42,5.68c-4.11,9.88-1.78,21,1.5,31.16s7.83,20.13,8.79,30.79c-1.75,1.46-3.44,2.66-5.14,3.82a203.44,203.44,0,0,0,79.59,8.52l6,23.44a3.49,3.49,0,0,0,1.33.06,4.4,4.4,0,0,0,1.18-.38l-6.07-23.37A172.71,172.71,0,0,0,175.7,127l13,25.17a4.07,4.07,0,0,0,2.63-.41l-13.12-25.47a162.74,162.74,0,0,0,20.1-7.51l17.92,27.31a5.86,5.86,0,0,0,3.11.17l-18.73-28.55a161.78,161.78,0,0,0,21.52-12.2L241.32,131a3.71,3.71,0,0,0,2.74-.53l-19.9-26.44a172.22,172.22,0,0,0,16-12.6h0l14.12-2.78S256.57,78,256,73.28a25.35,25.35,0,0,1-3.87-2.79c-.89-.82-2-2-1.67-3.34l-.06,0c.79-3.38,1.09-5.38,1.09-5.38l15.3-4.48,1.77-17.31,12.8-3.71s1.74-7.85,2.83-17.22A17.28,17.28,0,0,0,284.08,13.22ZM63.19,35.82c-1.84,2.49-5,2.67-7.77,1.38a14.07,14.07,0,0,0,4.91-1.79A4.87,4.87,0,0,0,62.66,31C64.27,32,64.32,34.29,63.19,35.82Zm204-12.75-.56-.29a3.18,3.18,0,0,0-.26,1,17.49,17.49,0,0,1-.26,2.52.32.32,0,0,1-.62,0c-.33-.78-.75-1.51-1.08-2.29a.13.13,0,0,0,0-.06l-6.63,1.71-7.9-2.79c-.21.09-.31.29-.45.52-.42.7-.84,1.15-1.71,1a10.63,10.63,0,0,1-2.59-1.24.33.33,0,0,1,0-.56c3.91-2.63,8.69-3.55,13.18-4.75a.28.28,0,0,1,.3-.34c2.28.2,4.33,1.34,6.47,2.05a45.18,45.18,0,0,0,6.65,1.3l.87-.2,1.36.56Zm9.68-2.72c-.21-.11-1.21-.79-1.21-.79l4.39-.69,1.69.74Z"/>
          <line class="cls-17" x1="94.09" y1="69.48" x2="88.99" y2="71.88"/>
          <line class="cls-17" x1="107.45" y1="65.15" x2="103.01" y2="66.47"/>
        </g>
      </g>
    </g>
  </g>
</svg>
