<svg id="Layer_1" data-name="Layer 1" xmlns="http://www.w3.org/2000/svg" xmlns:xlink="http://www.w3.org/1999/xlink" viewBox="0 0 124.36 124.36">
  <defs>
    <style>
      .cls-1 {
        fill: none;
      }

      .cls-2 {
        fill: #fff;
      }

      .cls-3 {
        fill: #655552;
      }

      .cls-4 {
        fill: #638e89;
      }

      .cls-5 {
        fill: #517f7c;
      }

      .cls-6 {
        fill: #585c5b;
      }

      .cls-7 {
        fill: #957f7b;
      }

      .cls-8 {
        fill: #da995c;
      }

      .cls-9 {
        fill: #937672;
      }

      .cls-10 {
        fill: #e4a450;
      }

      .cls-11 {
        fill: #735754;
      }

      .cls-12 {
        fill: #808680;
      }

      .cls-13 {
        fill: #dc9955;
      }

      .cls-14 {
        fill: #d36259;
      }

      .cls-15 {
        fill: #898a85;
      }

      .cls-16 {
        fill: #c09064;
      }

      .cls-17 {
        fill: #d47069;
      }

      .cls-18 {
        fill: #be9257;
      }

      .cls-19 {
        fill: #6a5f5b;
      }

      .cls-20 {
        fill: #875f5b;
      }

      .cls-21 {
        fill: #bd706a;
      }

      .cls-22 {
        fill: #81827e;
      }

      .cls-23 {
        fill: #bb8c61;
      }

      .cls-24 {
        fill: #745c5d;
      }

      .cls-25 {
        fill: #b48a5c;
      }

      .cls-26 {
        fill: #727e79;
      }

      .cls-27 {
        fill: #ae885c;
      }

      .cls-28 {
        fill: #a1625f;
      }

      .cls-29 {
        fill: #9f716c;
      }

      .cls-30 {
        fill: #9f866a;
      }

      .cls-31 {
        fill: #777a78;
      }

      .cls-32 {
        fill: #9d8166;
      }

      .cls-33 {
        fill: #6e6764;
      }

      .cls-34 {
        fill: #766e6b;
      }

      .cls-35 {
        fill: #898985;
      }

      .cls-36 {
        fill: #b8b7b6;
      }

      .cls-37 {
        fill: #897975;
      }

      .cls-38 {
        fill: #616f6e;
      }

      .cls-39 {
        fill: #807c78;
      }

      .cls-40 {
        fill: #616f6f;
      }

      .cls-41 {
        fill: #958581;
      }

      .cls-42 {
        fill: #8e8280;
      }

      .cls-43 {
        fill: #c0bcbb;
      }

      .cls-44 {
        fill: #515151;
      }

      .cls-45 {
        fill: #929d9e;
      }

      .cls-46 {
        fill: #646a6a;
      }

      .cls-47 {
        fill: #345656;
      }

      .cls-48 {
        fill: #5f6e6e;
      }

      .cls-49 {
        fill: #ecdbd0;
      }

      .cls-50 {
        fill: #b89f92;
      }

      .cls-51 {
        fill: #cdbaae;
      }

      .cls-52 {
        fill: #4c5656;
      }

      .cls-53 {
        fill: #aa5f59;
      }

      .cls-54 {
        fill: #555655;
      }

      .cls-55 {
        fill: #4a4c4b;
      }

      .cls-56 {
        fill: #5c524e;
      }

      .cls-57 {
        fill: #585054;
      }

      .cls-58 {
        fill: #425a5c;
      }

      .cls-59 {
        fill: #817976;
      }

      .cls-60 {
        fill: #514746;
      }

      .cls-61 {
        fill: #5f5452;
      }

      .cls-62 {
        fill: #4c403e;
      }

      .cls-63 {
        fill: #c9cbcb;
      }

      .cls-64 {
        fill: #495758;
      }

      .cls-65 {
        fill: #677271;
      }

      .cls-66 {
        fill: #4b5758;
      }

      .cls-67 {
        fill: #485859;
      }

      .cls-68 {
        fill: #778687;
      }

      .cls-69 {
        fill: #54686a;
      }

      .cls-70 {
        fill: #5c6d6e;
      }

      .cls-71 {
        fill: #5b5553;
      }

      .cls-72 {
        fill: #494953;
      }

      .cls-73 {
        fill: #e5b150;
      }

      .cls-74 {
        fill: #d4a550;
      }

      .cls-75 {
        fill: #dfc2a8;
      }

      .cls-76 {
        fill: #f9e2a7;
      }

      .cls-77 {
        fill: #f5dea7;
      }

      .cls-78 {
        fill: #757876;
      }

      .cls-79 {
        fill: #c0977b;
      }

      .cls-80 {
        fill: #7d5e5c;
      }

      .cls-81 {
        fill: #465859;
      }

      .cls-82 {
        fill: #827165;
      }

      .cls-83 {
        fill: #deaa4f;
      }

      .cls-84 {
        fill: #a48251;
      }

      .cls-85 {
        fill: #5d5452;
      }

      .cls-86 {
        fill: #d36057;
      }

      .cls-87 {
        fill: #eae5dc;
      }

      .cls-88 {
        fill: #e0dcd6;
      }

      .cls-89 {
        fill: #f3f1ee;
      }

      .cls-90 {
        fill: #e9d7cb;
      }

      .cls-91 {
        fill: #c5aa84;
      }

      .cls-92 {
        fill: #edc383;
      }

      .cls-93 {
        fill: #e9e8e7;
      }

      .cls-94 {
        fill: #d9b8a1;
      }

      .cls-95 {
        fill: #e8d7cd;
      }

      .cls-96 {
        fill: #f8f4f4;
      }

      .cls-97 {
        fill: #d8cdc5;
      }

      .cls-98 {
        fill: #c19679;
      }

      .cls-99 {
        fill: #737e7c;
      }

      .cls-100 {
        fill: #748688;
      }

      .cls-101 {
        fill: #514b52;
      }

      .cls-102 {
        fill: #edb44f;
      }

      .cls-103 {
        fill: #574444;
      }

      .cls-104 {
        clip-path: url(#clip-path);
      }

      .cls-105 {
        fill: #5a6466;
      }

      .cls-106 {
        fill: #8b8365;
      }

      .cls-107 {
        fill: #868065;
      }

      .cls-108 {
        fill: #5c6262;
      }

      .cls-109 {
        clip-path: url(#clip-path-2);
      }

      .cls-110 {
        fill: #d46057;
      }

      .cls-111 {
        fill: #905a56;
      }

      .cls-112 {
        fill: #72605b;
      }

      .cls-113 {
        fill: #7e815b;
      }

      .cls-114 {
        fill: #755f5b;
      }

      .cls-115 {
        fill: #eabe6c;
      }

      .cls-116 {
        fill: #e68d76;
      }

      .cls-117 {
        fill: #e68c75;
      }

      .cls-118 {
        fill: #965954;
      }

      .cls-119 {
        fill: #c39f83;
      }

      .cls-120 {
        fill: #6d605c;
      }

      .cls-121 {
        fill: #747f5d;
      }

      .cls-122 {
        fill: #ba9251;
      }

      .cls-123 {
        fill: #785e5c;
      }

      .cls-124 {
        fill: #4d6161;
      }

      .cls-125 {
        fill: #615a59;
      }

      .cls-126 {
        fill: #e68c76;
      }

      .cls-127 {
        fill: #eabe6b;
      }

      .cls-128 {
        fill: #827d57;
      }

      .cls-129 {
        fill: #e79839;
      }

      .cls-130 {
        fill: #b99151;
      }

      .cls-131 {
        fill: #f0ebd6;
      }

      .cls-132 {
        fill: #857875;
      }

      .cls-133 {
        fill: #4b4c4d;
      }

      .cls-134 {
        fill: #fffce5;
      }

      .cls-135 {
        fill: #344051;
      }

      .cls-136 {
        fill: #efb54f;
      }

      .cls-137 {
        fill: #8b6965;
      }

      .cls-138 {
        fill: #80605c;
      }

      .cls-139 {
        fill: #a2817a;
      }

      .cls-140 {
        fill: #81615d;
      }

      .cls-141 {
        fill: #efdccf;
      }
    </style>
    <clipPath id="clip-path">
      <path class="cls-1" d="M.1,113.82a.29.29,0,0,0-.22.07A2.53,2.53,0,0,1,.21,115h0v.35h0a2.53,2.53,0,0,1-2.3,2.35,1.09,1.09,0,0,0-.44.37.3.3,0,0,0,0,.18h.23a3.08,3.08,0,0,0,3.09-3.08,3.06,3.06,0,0,0-.25-1.22h0l-.1,0a.93.93,0,0,0-.32-.07"/>
    </clipPath>
    <clipPath id="clip-path-2">
      <path class="cls-1" d="M.1,121.34a.29.29,0,0,0-.22.07,2.53,2.53,0,0,1,.33,1.09h0v.35h0a2.53,2.53,0,0,1-2.3,2.35,1.09,1.09,0,0,0-.44.37.3.3,0,0,0,0,.18h.23a3.08,3.08,0,0,0,3.09-3.08,3.13,3.13,0,0,0-.25-1.22h0l-.1,0a.93.93,0,0,0-.32-.07"/>
    </clipPath>
  </defs>
  <g>
    <rect class="cls-2" x="-11.6" y="-29.71" width="155.91" height="178.44"/>
    <g>
      <g>
        <path class="cls-3" d="M104.33,95.93V52.77c0-22.07-18.73-39.95-41.84-39.95s-41.84,17.88-41.84,40V95.93Z"/>
        <path class="cls-4" d="M33.26,95.93V56.46c0-17.2,13.09-31.14,29.23-31.14S91.73,39.26,91.73,56.46V95.93h7.53V53.06c0-19.29-16.46-34.93-36.77-34.93S25.72,33.77,25.72,53.06V95.93Z"/>
        <path class="cls-5" d="M90.59,41.82C91,42.88,91.47,44,91.9,45c.73,1.79,1.31,4.24-.48,5.67l-.17.12c-2.49-14.51-14.42-25.5-28.76-25.5s-26.3,11-28.77,25.57a9.35,9.35,0,0,1-1.34-2.56,9.23,9.23,0,0,1,.73-6,31.83,31.83,0,0,1,11.26-14,34.25,34.25,0,0,1,10.37-4.7,41.44,41.44,0,0,1,5.75-1.24c1.91-.27,3.81-.24,5.72-.37a17,17,0,0,1,7.3,1.39A52.31,52.31,0,0,1,80.39,27a9.93,9.93,0,0,1,3.35,2.43c1.07,1.48,2.16,3,3.11,4.53a46.85,46.85,0,0,1,2.49,5c.08.16.15.33.23.49.13.31.27.62.41.94s.41.95.61,1.44Z"/>
        <path class="cls-6" d="M91.73,56.46V95.93H33.26V56.46c0-17.2,13.09-31.14,29.23-31.14S91.73,39.26,91.73,56.46Z"/>
        <rect class="cls-7" x="33.26" y="70.82" width="58.47" height="25.11"/>
        <rect class="cls-8" x="39.37" y="65.7" width="46.25" height="30.23"/>
        <rect class="cls-9" x="41.53" y="71.6" width="41.93" height="24.32"/>
        <path class="cls-10" d="M62.49,31.31c-12.77,0-23.12,9.89-23.12,22.08v8.79H85.62V53.39C85.62,41.2,75.26,31.31,62.49,31.31Z"/>
        <path class="cls-11" d="M83.46,55.15v-2.5c0-10.88-9.39-19.7-21-19.7s-21,8.82-21,19.7v2.5Z"/>
        <rect class="cls-12" x="41.53" y="59.11" width="41.93" height="1.39"/>
        <rect class="cls-13" x="41.53" y="57.72" width="41.93" height="1.39"/>
        <rect class="cls-14" x="41.53" y="56.34" width="41.93" height="1.39"/>
        <rect class="cls-15" x="41.53" y="68.17" width="41.93" height="1.38"/>
        <rect class="cls-16" x="41.53" y="69.55" width="41.93" height="1.39"/>
        <rect class="cls-17" x="41.53" y="70.94" width="41.93" height="1.39"/>
        <path class="cls-18" d="M47.33,55.86c-2.65,0-5.31.06-8,.17V53.39a21,21,0,0,1,.51-4.64c.61.37,1.23.78,1.84,1.21a18.42,18.42,0,0,0-.19,2.69v2.5h5.38C47.06,55.39,47.2,55.62,47.33,55.86Z"/>
        <path class="cls-19" d="M46.91,55.15H41.53v-2.5A18.42,18.42,0,0,1,41.72,50,20,20,0,0,1,46.91,55.15Z"/>
        <rect class="cls-20" x="44.01" y="62.14" width="41.64" height="3.64"/>
        <rect class="cls-11" x="41.53" y="54.9" width="41.93" height="1.39"/>
        <path class="cls-21" d="M53.52,71.6c0-.22,0-.44,0-.66H49.37c0,.22,0,.44,0,.66l0,.73h4.26C53.54,72.09,53.53,71.84,53.52,71.6Z"/>
        <path class="cls-16" d="M53.48,70.94H49.37c0-.46.05-.92.07-1.39h3.93C53.42,70,53.46,70.48,53.48,70.94Z"/>
        <path class="cls-22" d="M53.37,69.55H49.44c0-.46,0-.92,0-1.38h3.71C53.26,68.63,53.32,69.09,53.37,69.55Z"/>
        <path class="cls-23" d="M49.47,68.17c0-.82,0-1.65,0-2.47h3.26c.2.81.37,1.64.49,2.47Z"/>
        <path class="cls-24" d="M52.69,65.7H49.43a.2.2,0,0,1,0-.07c0-.94-.12-1.88-.25-2.82l-.09-.63H51.5A23.89,23.89,0,0,1,52.69,65.7Z"/>
        <path class="cls-25" d="M51.5,62.18H49.08c-.08-.57-.19-1.13-.31-1.68h1.92c.08.14.16.28.23.43C51.13,61.34,51.32,61.76,51.5,62.18Z"/>
        <path class="cls-26" d="M50.69,60.5H48.77c-.1-.47-.21-.93-.33-1.39h1.4A12.29,12.29,0,0,1,50.69,60.5Z"/>
        <path class="cls-27" d="M49.84,59.11h-1.4c-.13-.47-.27-.93-.42-1.39h.66A9.72,9.72,0,0,1,49.84,59.11Z"/>
        <path class="cls-28" d="M48.68,57.72H48c-.09-.26-.18-.52-.28-.78A8.64,8.64,0,0,1,48.68,57.72Z"/>
        <path class="cls-29" d="M47.54,70.94c-.11.23-.22.45-.34.66l-.2.34a1.32,1.32,0,0,0-.15.39h2.43l0-.73c0-.22,0-.44,0-.66Z"/>
        <path class="cls-30" d="M49.44,69.55c0,.47,0,.93-.07,1.39H47.54a11.26,11.26,0,0,0,.57-1.39Z"/>
        <path class="cls-31" d="M49.47,68.17c0,.46,0,.92,0,1.38H48.11a12.89,12.89,0,0,0,.41-1.38Z"/>
        <path class="cls-32" d="M49.47,68.17h-.95c.14-.53.24-1.07.33-1.61L49,65.7h.46C49.46,66.52,49.48,67.35,49.47,68.17Z"/>
        <path class="cls-33" d="M49.43,65.7H49c.11-1,.17-1.92.2-2.89.13.94.21,1.88.25,2.82A.2.2,0,0,0,49.43,65.7Z"/>
        <rect class="cls-34" x="20.65" y="70.82" width="5.08" height="25.11"/>
        <rect class="cls-35" x="25.72" y="70.82" width="7.53" height="25.11"/>
        <rect class="cls-35" x="91.73" y="70.82" width="7.53" height="25.11"/>
        <rect class="cls-34" x="99.26" y="70.82" width="5.08" height="25.11"/>
      </g>
      <g>
        <path class="cls-36" d="M1.06,103.25c.14,0,1.11-.83,1.26-.94.82-.59,1.66-1.14,2.49-1.71a5,5,0,0,0,.8-.65c0,.1.1.16.18.24.47.51,1.26,1,1.52,1.68a.47.47,0,0,1-.15.58,6.79,6.79,0,0,1-1.39.65c-1,.47-2,1-2.95,1.54a11.4,11.4,0,0,1-1.08.6,1,1,0,0,0-.13-.43c-.13-.34-.2-.69-.31-1a1.64,1.64,0,0,0-.26-.51S1.09,103.22,1.06,103.25Z"/>
        <path class="cls-37" d="M12.59,97.06a20.35,20.35,0,0,1-2.38,2.16l-.27.09a.51.51,0,0,0,0-.42c-.33-.72-1.75-.77-2.39-.76-.83,0-1.67.08-2.5.13-.25,0-.52,0-.79.08a1.55,1.55,0,0,1,.08-.23c.15-.34.42-1,.76-1.16s.64-.1.94-.25a10,10,0,0,0,1.23-.81,7.61,7.61,0,0,1,4.32-1.22c.66,0,1.55.2,1.68,1A1.81,1.81,0,0,1,12.59,97.06Z"/>
        <path class="cls-38" d="M9.94,99.31c-.17.38-.78.62-1,.85l-.15.87A23,23,0,0,1,5,102a1.88,1.88,0,0,1-1.1-.08c-.37-.21-.27-.6-.21-1a2.67,2.67,0,0,0,.14-.67c-.06-.33-.66-.51-.84-.81s-.05-.65.32-.84a3.54,3.54,0,0,1,.94-.28,6,6,0,0,0-.2,1.84c0,.42,0,1.13.54.9.79-.32,1.59-.58,2.39-.86A7.3,7.3,0,0,1,9,99.6Z"/>
        <path class="cls-39" d="M9.94,99.31,9,99.6a7.3,7.3,0,0,0-2.06.62c-.8.28-1.6.54-2.39.86-.56.23-.53-.48-.54-.9a6,6,0,0,1,.2-1.84c.27,0,.54-.06.79-.08.83-.05,1.67-.11,2.5-.13.64,0,2.06,0,2.39.76A.51.51,0,0,1,9.94,99.31Z"/>
        <polygon class="cls-40" points="1.56 99.44 2.66 105.34 -8.16 112.65 -8.13 106.11 1.56 99.44"/>
        <polyline class="cls-41" points="86.04 110.22 35.16 110.22 35.16 130.95 41.59 130.95 41.59 135.84 47.03 131.08 47.03 130.95 76.75 130.95 76.75 131.08 81.1 136.62 81.1 130.95 86.04 130.95 86.04 110.22"/>
        <polyline class="cls-42" points="129.54 112.67 110.39 94.63 80.59 94.63 80.59 166.28 129.54 166.28 129.54 112.67"/>
        <polyline class="cls-41" points="41.74 109.73 1.87 105.04 1.82 101.47 0.01 101.37 -7.2 105.75 -6.95 108.47 -8.19 109.73 -8.19 166.37 41.74 166.37 41.74 109.73"/>
        <polyline class="cls-43" points="107.19 91.84 16 91.84 -5.15 110.22 126.59 110.22 107.19 91.84"/>
        <path class="cls-41" d="M114.64,101.78c-1.5,1.45-4.74,2.79-9.29,3.93l-1,.25c-8.18,1.92-20.17,3.23-33.81,3.54-2,0-4.09.07-6.19.07-24.66,0-45.25-3.28-50.15-7.65a3.9,3.9,0,0,1-.83-1l2.52-4.17L17,94.85,19.89,93l.43,2c9-2.82,25.32-4.71,44-4.71,5.38,0,10.56.16,15.42.45,11.57.68,21.37,2.12,27.78,4l1-2.06h0l.86.61,2.78,2,2.41,6.54"/>
        <path class="cls-44" d="M110.92,95.69a2,2,0,0,1-.19.86h0c-.79,1.84-4.07,3.53-9.13,4.94-.94.25-1.93.5-3,.74a133.93,133.93,0,0,1-19.85,2.64c-4.5.31-9.31.47-14.3.47C38.81,105.35,18,101,18,95.69S38.81,86,64.47,86a172.82,172.82,0,0,1,31.92,2.64c8.84,1.74,14.4,4.19,14.52,6.92a.34.34,0,0,1,0,.1"/>
        <path class="cls-45" d="M105.27,91.07h0m-8.88-2.4h0a54.62,54.62,0,0,1,8.88,2.4,54.62,54.62,0,0,0-8.88-2.4"/>
        <path class="cls-46" d="M110.73,96.55h0c-.79,1.84-4.07,3.53-9.13,4.94h0l-.76.25a18.28,18.28,0,0,1-2.22.49h0a133.93,133.93,0,0,1-19.85,2.64h0c-.54.12-1.08.24-1.64.31-2,.26-4.08.66-6.14.85-.39,0-.47,0-.61.29l2.74,0,0,2-2.84.06a10.62,10.62,0,0,1,.22,1.15c13.64-.31,25.63-1.62,33.81-3.54l1-.25c.79-.26,1.57-.52,2.3-.83a61.51,61.51,0,0,0,5.59-2.88c-.26-.52-.51-1-.76-1.56a2,2,0,0,1-.11-.21l-.45.18c-.25-.77-.48-1.54-.72-2.31-.06-.17-.13-.34-.19-.52a4.69,4.69,0,0,0-.24-.91.36.36,0,0,0,0-.11h0"/>
        <path class="cls-47" d="M98.62,102.24h0c-.43.07-.86.15-1.29.25s-.76,0-1.13.07c-.75.08-1.48.23-2.21.36-1.57.27-3.16.34-4.73.62a46.26,46.26,0,0,1-8.11,1H81a10.51,10.51,0,0,0-2.23.31h0a133.93,133.93,0,0,0,19.85-2.64h0M96.39,88.67c.18.41,1.66.69,2,.79a7.72,7.72,0,0,1,1.76.64c.26.16.49.37.75.54s.92.41,1,.81c.25.8-2.28.83-2.75.83h-.1c-.72,0-3.86,0-3.53-.7.23-.49,1.28-.17,1.67-.45a4.64,4.64,0,0,0-2.69-.62H92.37a39.34,39.34,0,0,1-4.07-.17c-1-.1-2.08-.23-3.13-.23a10,10,0,0,0-1.1.06c-.62.07-1.16.5-1.72.5l-.21,0a5.1,5.1,0,0,0-1.08-.12,6.48,6.48,0,0,0-1.3.15,3.34,3.34,0,0,0-.43.1.9.9,0,0,0,0,.46.38.38,0,0,0,.13.15l.14.06a8,8,0,0,0,2.16.43c1.26.11,2.49.3,3.76.3h0c1.38,0,2.75.09,4.12.15.4,0,.79,0,1.19,0h.91c.4,0,.79,0,1.19,0h.75a6.26,6.26,0,0,1,1.88.18c-.76,0-1.54,0-2.3.08-.41,0-1.48.16-.87.71a3.84,3.84,0,0,0,1.06.51,5.07,5.07,0,0,0,1.27.34c1.38.21,2.8.28,4.19.44,2.68.31,5.39.39,8.07.59.61,0,1.21.09,1.82.09l.75,0,.38,0a3.56,3.56,0,0,1-.71,1.53,10.7,10.7,0,0,1-4.2,3.43,14.6,14.6,0,0,1-1.92.68c-.52.15-1,.34-1.53.52h0c5.06-1.41,8.34-3.1,9.13-4.94h0a1.54,1.54,0,0,1-.12-.82c0-.13.09-.18.17-.18a.24.24,0,0,1,.13,0,3.32,3.32,0,0,0-1.46-2.32,9.14,9.14,0,0,0-.86-.61h0a18.91,18.91,0,0,0-3.3-1.58h0a54.62,54.62,0,0,0-8.88-2.4"/>
        <path class="cls-48" d="M-3.78,125.36c.85,1.08,2,2.21,3.52,2.08a2.43,2.43,0,0,0,2.1-2,4.61,4.61,0,0,0-.27-3.85,2.49,2.49,0,0,0-.47-.55,2.09,2.09,0,0,0-2.23-.29Z"/>
        <polyline class="cls-49" points="5.52 100.94 4.03 101.59 1.84 103.23 1.86 104.13 5.52 100.94"/>
        <path class="cls-50" d="M41.74,110.28v1a43,43,0,0,0,4.64-.26s-2.12-.34-4.64-.79"/>
        <path class="cls-50" d="M41.37,110.22H6.16l29.31,1s2.45.13,5.27.13h1v-1l-.37-.06m-39.53-7-8.67,6.55,2.1.07,6.59-5.72,0-.9"/>
        <path class="cls-51" d="M9,99.47l-3.43,1.47-3.66,3.19-6.59,5.72,10.89.37H41.37c-2.36-.42-5-.9-6.59-1.27-3.41-.78-13.72-3.59-14.73-4a3,3,0,0,1-.58-.36,16,16,0,0,1-5.28-2.67,3.9,3.9,0,0,1-.83-1l.25-.41L9,99.47"/>
        <path class="cls-50" d="M13.61,100.52l-.25.41a3.9,3.9,0,0,0,.83,1,16,16,0,0,0,5.28,2.67,45.81,45.81,0,0,1-3.8-3.6l-2.06-.47"/>
        <rect class="cls-52" x="8.94" y="113.71" width="26.29" height="27.5"/>
        <rect class="cls-53" x="9.72" y="114.52" width="24.73" height="25.87"/>
        <path class="cls-54" d="M33.09,127.46a11,11,0,1,1-2.6-7.11A11,11,0,0,1,33.09,127.46Z"/>
        <path class="cls-55" d="M25.5,127.46A3.41,3.41,0,1,1,22.09,124,3.41,3.41,0,0,1,25.5,127.46Z"/>
        <rect class="cls-56" x="83.74" y="122.65" width="34.22" height="6.25"/>
        <rect class="cls-57" x="83.74" y="115.66" width="34.23" height="5.88"/>
        <path class="cls-58" d="M.85,122.71a3.2,3.2,0,0,1-3.2,3.2,3.21,3.21,0,0,1-3.21-3.2,3.21,3.21,0,0,1,3.21-3.21A3.21,3.21,0,0,1,.85,122.71Z"/>
        <polygon class="cls-41" points="79.11 116.07 79.11 125.95 43.7 125.95 43.7 125.66 77.83 116.07 79.11 116.07"/>
        <polygon class="cls-59" points="44 116.07 43.7 117.19 43.7 116.07 44 116.07"/>
        <polygon class="cls-60" points="79.11 115.71 79.11 116.07 77.83 116.07 79.11 115.71"/>
        <polygon class="cls-61" points="80.73 114.03 80.73 114.56 79.11 114.56 79.11 114.89 44.25 115.16 44 116.07 43.7 116.07 43.7 117.19 41.66 124.77 41.66 115.35 43.7 115.35 43.7 114.03 80.73 114.03"/>
        <polygon class="cls-62" points="80.73 115.26 80.73 116.07 79.11 116.07 79.11 115.71 80.73 115.26"/>
        <rect class="cls-63" x="80.73" y="114.56" width="0.43" height="0.32"/>
        <polygon class="cls-64" points="80.73 114.56 80.73 114.88 79.11 114.89 79.11 114.56 80.73 114.56"/>
        <polygon class="cls-43" points="80.73 115.26 81.16 115.14 81.16 127.05 80.73 127.05 80.73 128.01 42.62 128.01 42.62 125.95 79.11 125.95 79.11 116.07 80.73 116.07 80.73 115.26"/>
        <polygon class="cls-65" points="77.83 116.07 43.7 125.66 43.7 117.19 44 116.07 77.83 116.07"/>
        <polygon class="cls-66" points="43.7 117.19 43.7 125.66 43.65 125.67 41.66 125.67 41.66 124.77 43.7 117.19"/>
        <polygon class="cls-67" points="80.73 114.88 80.73 115.26 79.11 115.71 79.11 114.89 80.73 114.88"/>
        <polygon class="cls-67" points="79.11 114.89 79.11 115.71 77.83 116.07 44 116.07 44.25 115.16 79.11 114.89"/>
        <polygon class="cls-68" points="81.16 114.87 81.16 115.14 80.73 115.26 80.73 114.88 81.16 114.87"/>
        <polygon class="cls-69" points="82.13 114.86 81.16 115.14 81.16 114.87 82.13 114.86"/>
        <g>
          <path class="cls-70" d="M122.87,122.93a2.59,2.59,0,0,0,.61.38,2.81,2.81,0,0,0,1.25.19,4.52,4.52,0,0,0,2.23-.68,3.64,3.64,0,0,0,1.45-1.81,5.51,5.51,0,0,0,.26-1.27,8.65,8.65,0,0,0,0-2.49,3.66,3.66,0,0,0-1.16-2.15,3.77,3.77,0,0,0-1.56-.75,5.69,5.69,0,0,0-2.84.07,2.84,2.84,0,0,0-1.16.62,4.15,4.15,0,0,0-1.1,2.94,13.39,13.39,0,0,0,1,3.39,4.31,4.31,0,0,0,1.07,1.56"/>
          <path class="cls-71" d="M128.32,116.59a3.92,3.92,0,1,1-3.92-3.92,3.92,3.92,0,0,1,3.92,3.92"/>
          <path class="cls-72" d="M127.68,116.82a3.23,3.23,0,1,1-3.22-3.22,3.22,3.22,0,0,1,3.22,3.22"/>
          <path class="cls-73" d="M127.62,116.59a3.22,3.22,0,1,1-3.22-3.23,3.22,3.22,0,0,1,3.22,3.23"/>
          <path class="cls-74" d="M124.4,119.58a3,3,0,1,1,3-3,3,3,0,0,1-3,3"/>
          <path class="cls-75" d="M123.53,113.16a1.47,1.47,0,0,0-.64.18,4.91,4.91,0,0,0-1.63,1.3c-.25.31-.2.42.13.62l.06,0a3.21,3.21,0,0,1,2.76-1.92.61.61,0,0,0-.14-.07,1.56,1.56,0,0,0-.48-.14h-.06"/>
          <path class="cls-76" d="M124.21,113.37a3.21,3.21,0,0,0-2.76,1.92.46.46,0,0,0,.23.06,3,3,0,0,1,2.72-1.75h.07a.59.59,0,0,0-.26-.23"/>
          <path class="cls-77" d="M124.4,113.6a3,3,0,0,0-2.72,1.75h0l.13,0a.78.78,0,0,0,.2-.16,5.07,5.07,0,0,1,1.51-1.34.42.42,0,0,1,.15,0h0c.08,0,.14.08.21.12a.45.45,0,0,0,.27.1h.07a.32.32,0,0,0,.25-.25.22.22,0,0,0,0-.16h-.07"/>
        </g>
        <rect class="cls-61" x="101.71" y="110.92" width="1.96" height="5.02" transform="translate(-11.63 215.12) rotate(-89.5)"/>
        <rect class="cls-78" x="108.63" y="112.49" width="3.38" height="1.96" transform="translate(-13.21 14.55) rotate(-7.12)"/>
        <rect class="cls-78" x="90.75" y="110.66" width="1.96" height="4.01" transform="translate(-30.66 190.95) rotate(-83.45)"/>
        <polygon class="cls-79" points="106.08 110.22 102.07 110.22 102.06 110 106.08 109.95 106.08 110.22"/>
        <rect class="cls-78" x="36.3" y="120.53" width="1.6" height="2.37" transform="translate(-84.81 158.17) rotate(-89.69)"/>
        <rect class="cls-78" x="35.96" y="115.21" width="1.4" height="1.92" transform="translate(-7.84 2.77) rotate(-3.91)"/>
        <rect class="cls-78" x="37.14" y="113.86" width="3.12" height="1.92" transform="translate(-1.78 0.61) rotate(-0.89)"/>
        <rect class="cls-78" x="35.68" y="117.94" width="5.22" height="1.92" transform="translate(-2.87 0.96) rotate(-1.39)"/>
        <rect class="cls-78" x="1.21" y="115.24" width="4.84" height="1.97" transform="translate(-7.7 0.5) rotate(-3.8)"/>
        <rect class="cls-78" x="6.48" y="116.9" width="2.36" height="1.97" transform="translate(-1.9 0.14) rotate(-0.92)"/>
        <rect class="cls-78" x="6.23" y="118.66" width="1.26" height="1.97" transform="translate(-6.95 0.6) rotate(-3.33)"/>
        <path class="cls-80" d="M34.46,114.52v1.07l-8,9.56a9.92,9.92,0,0,0-.82-.57,6.18,6.18,0,0,0-2.49-1,6.41,6.41,0,0,0-4.76,1.53l-8.69-9.06v-1.54Z"/>
        <path class="cls-81" d="M30.49,120.35l-4,4.8a9.92,9.92,0,0,0-.82-.57,6.18,6.18,0,0,0-2.49-1,6.41,6.41,0,0,0-4.76,1.53l-4.65-4.85a11,11,0,0,1,16.73.08Z"/>
        <path class="cls-82" d="M27.86,97.4q.27,0,0-.21a2.82,2.82,0,0,0-.36-.24c-.1-.07-.78-.34-.68-.52a5,5,0,0,1,1.21.15c.65.11,1.28.3,1.93.44s1.36.25,2,.38l1,.19c.74.12,1.48.23,2.23.3.16,0,1,.08.91-.2a1.51,1.51,0,0,0-.39-.45,5.78,5.78,0,0,0-.8-.57c-.31-.19-.65-.33-1-.5a5,5,0,0,1-.66-.31,6.38,6.38,0,0,0-.71-.43,8.1,8.1,0,0,0,1.76.59c.6.14,1.22.23,1.82.35.91.18,1.83.35,2.74.51s1.75.39,2.63.5a5.93,5.93,0,0,0,.84.06c.1,0,.22,0,.25-.11a.17.17,0,0,0,0-.12.8.8,0,0,0-.31-.37,5.23,5.23,0,0,0-.84-.51c-.27-.13-.5-.28-.77-.41a11.82,11.82,0,0,0-1.82-.8c2.74.63,5.45,1.33,8.15,2.1l-1.26.36,5.21,1.55c-1.4,0-2.79-.08-4.17-.19-.73-.06-1.46-.15-2.19-.19-.36,0-.72,0-1.08,0s-.82.15-1,.06a10.42,10.42,0,0,0,1.94.76,33.44,33.44,0,0,1,3.47,1.12,28.44,28.44,0,0,1-7.13-.31c7.31,1.82,14.88,2.3,22.4,2.77a8.7,8.7,0,0,0-1.8.31c-.6.09-1.21.17-1.81.24-1.24.14-2.48.24-3.72.29a57.17,57.17,0,0,1-7.05,0,114,114,0,0,1-15.16-2.11c-2.48-.53-5-1.16-7.38-1.93-1-.31-2-.57-3-1S21,98.11,20.94,97c0-.3.33-.3.55-.31a11.69,11.69,0,0,1,2.13.09c.78.09,1.54.21,2.3.33l1,.16a3.24,3.24,0,0,0,.93.1Z"/>
        <rect class="cls-83" x="84.03" y="116.03" width="33.63" height="5.15"/>
        <rect class="cls-84" x="84.02" y="119.32" width="33.64" height="0.21"/>
        <rect class="cls-84" x="84.02" y="118.5" width="33.64" height="0.21"/>
        <rect class="cls-84" x="84.02" y="117.68" width="33.64" height="0.21"/>
        <rect class="cls-85" x="112.57" y="116.03" width="0.2" height="0.7"/>
        <rect class="cls-85" x="113.96" y="116.03" width="0.2" height="1.15"/>
        <rect class="cls-85" x="115.34" y="116.03" width="0.2" height="0.7"/>
        <rect class="cls-85" x="116.74" y="116.03" width="0.2" height="1.15"/>
        <rect class="cls-85" x="116.74" y="120.48" width="0.2" height="0.7"/>
        <rect class="cls-85" x="115.34" y="120.03" width="0.2" height="1.15"/>
        <rect class="cls-85" x="113.96" y="120.48" width="0.2" height="0.7"/>
        <rect class="cls-85" x="112.57" y="120.03" width="0.2" height="1.15"/>
        <rect class="cls-85" x="84.76" y="116.03" width="0.2" height="0.7"/>
        <rect class="cls-85" x="86.15" y="116.03" width="0.2" height="1.15"/>
        <rect class="cls-85" x="87.54" y="116.03" width="0.2" height="0.7"/>
        <rect class="cls-85" x="88.93" y="116.03" width="0.2" height="1.15"/>
        <rect class="cls-85" x="90.32" y="116.03" width="0.2" height="0.7"/>
        <rect class="cls-85" x="91.71" y="116.03" width="0.2" height="1.15"/>
        <rect class="cls-85" x="93.1" y="116.03" width="0.2" height="0.7"/>
        <rect class="cls-85" x="94.49" y="116.03" width="0.2" height="1.15"/>
        <rect class="cls-85" x="95.88" y="116.03" width="0.2" height="0.7"/>
        <rect class="cls-85" x="97.27" y="116.03" width="0.2" height="1.15"/>
        <rect class="cls-85" x="98.66" y="116.03" width="0.2" height="0.7"/>
        <rect class="cls-85" x="100.05" y="116.03" width="0.2" height="1.15"/>
        <rect class="cls-85" x="101.44" y="116.03" width="0.2" height="0.7"/>
        <rect class="cls-85" x="102.83" y="116.03" width="0.2" height="1.15"/>
        <rect class="cls-85" x="104.22" y="116.03" width="0.2" height="0.7"/>
        <rect class="cls-85" x="105.61" y="116.03" width="0.2" height="1.15"/>
        <rect class="cls-85" x="107.01" y="116.03" width="0.2" height="0.7"/>
        <rect class="cls-85" x="108.39" y="116.03" width="0.2" height="1.15"/>
        <rect class="cls-85" x="109.78" y="116.03" width="0.2" height="0.7"/>
        <rect class="cls-85" x="111.18" y="116.03" width="0.2" height="1.15"/>
        <rect class="cls-85" x="111.18" y="120.48" width="0.2" height="0.7"/>
        <rect class="cls-85" x="109.78" y="120.03" width="0.2" height="1.15"/>
        <rect class="cls-85" x="108.39" y="120.48" width="0.2" height="0.7"/>
        <rect class="cls-85" x="107.01" y="120.03" width="0.2" height="1.15"/>
        <rect class="cls-85" x="105.61" y="120.48" width="0.2" height="0.7"/>
        <rect class="cls-85" x="104.22" y="120.03" width="0.2" height="1.15"/>
        <rect class="cls-85" x="102.83" y="120.48" width="0.2" height="0.7"/>
        <rect class="cls-85" x="101.44" y="120.03" width="0.2" height="1.15"/>
        <rect class="cls-85" x="100.05" y="120.48" width="0.2" height="0.7"/>
        <rect class="cls-85" x="98.66" y="120.03" width="0.2" height="1.15"/>
        <rect class="cls-85" x="97.27" y="120.48" width="0.2" height="0.7"/>
        <rect class="cls-85" x="95.88" y="120.03" width="0.2" height="1.15"/>
        <rect class="cls-85" x="94.49" y="120.48" width="0.2" height="0.7"/>
        <rect class="cls-85" x="93.1" y="120.03" width="0.2" height="1.15"/>
        <rect class="cls-85" x="91.71" y="120.48" width="0.2" height="0.7"/>
        <rect class="cls-85" x="90.32" y="120.03" width="0.2" height="1.15"/>
        <rect class="cls-85" x="88.93" y="120.48" width="0.2" height="0.7"/>
        <rect class="cls-85" x="87.54" y="120.03" width="0.2" height="1.15"/>
        <rect class="cls-85" x="86.15" y="120.48" width="0.2" height="0.7"/>
        <rect class="cls-85" x="84.76" y="120.03" width="0.2" height="1.15"/>
        <rect class="cls-83" x="84.21" y="123.22" width="33.27" height="5.12"/>
        <rect class="cls-86" x="85.64" y="124.15" width="2.48" height="3.25"/>
        <rect class="cls-86" x="88.56" y="124.15" width="2.48" height="3.25"/>
        <rect class="cls-86" x="94.41" y="124.15" width="2.48" height="3.25"/>
        <rect class="cls-86" x="91.49" y="124.15" width="2.48" height="3.25"/>
        <rect class="cls-86" x="97.33" y="124.15" width="2.48" height="3.25"/>
        <rect class="cls-86" x="100.89" y="124.15" width="14.95" height="3.25"/>
        <path class="cls-41" d="M.72,122.64a3.2,3.2,0,0,1-3.2,3.2,3.21,3.21,0,0,1-3.21-3.2,3.21,3.21,0,0,1,3.21-3.2A3.2,3.2,0,0,1,.72,122.64Z"/>
        <path class="cls-87" d="M49.94,85.9h-.46c-.8,0-1.6,0-2.4.07a6.25,6.25,0,0,0-1.62.2c-.23.08-.31.13-.38.33a.36.36,0,0,0,.05.39q3-.29,6.18-.48c.14-.45-.77-.52-1.37-.52"/>
        <path class="cls-88" d="M51.31,86.42q-3.2.19-6.18.48a.4.4,0,0,0,.15.1,1.24,1.24,0,0,0,.49.07l.4,0C47.1,87,48,87,49,86.94c.37,0,2.05,0,2.31-.45a.25.25,0,0,0,0-.07"/>
        <path class="cls-87" d="M39.06,86.76a9.57,9.57,0,0,0-1.62.2c-.87.15-1.73.3-2.6.43-1,.15-2,.47-3.06.67-.63.13-1.24.31-1.86.44q-2.05.41-4.08,1c-.78.2-1.54.49-2.3.76-.58.2-1.14.43-1.72.62a15.14,15.14,0,0,0-2.43,1h2.27c.44-.18.89-.35,1.34-.51,3.72-1.53,9.33-2.82,16.19-3.75l.41-.09c.2,0,.75,0,.61-.4-.06-.16-.28-.21-.43-.25a3.38,3.38,0,0,0-.72-.08"/>
        <path class="cls-89" d="M21.66,91.84H19.39a6.4,6.4,0,0,0-.89.57,1.54,1.54,0,0,0-.39.34.41.41,0,0,0-.07.34.37.37,0,0,0,.39.28,1.44,1.44,0,0,0,.74-.28,11.32,11.32,0,0,1,2-1l.51-.21"/>
        <path class="cls-88" d="M39.19,87.58c-6.86.93-12.47,2.22-16.19,3.75.8-.29,1.62-.54,2.43-.76.63-.18,1.25-.39,1.89-.55l1.86-.47c.58-.15,1.17-.26,1.75-.42,1.22-.33,2.46-.56,3.71-.79s2.44-.47,3.69-.61a8.13,8.13,0,0,0,.86-.15"/>
        <rect class="cls-90" x="18.51" y="95.85" width="2.27" height="2.11" transform="translate(-76.97 75.87) rotate(-66.26)"/>
        <rect class="cls-90" x="17.13" y="98.11" width="1.96" height="2.78" transform="translate(-74.55 58.96) rotate(-56.06)"/>
        <rect class="cls-90" x="15.75" y="100.05" width="1.96" height="2.6" transform="translate(-80.96 69.58) rotate(-62.61)"/>
        <rect class="cls-90" x="14.27" y="101.09" width="1.96" height="3.01" transform="matrix(0.54, -0.84, 0.84, 0.54, -79.47, 60.35)"/>
        <path class="cls-90" d="M52,105.29c-.6,0-1.21,0-1.81-.06-2.91-.25-5.81-.24-8.7-.7a91.19,91.19,0,0,1-10-2.39,47.73,47.73,0,0,1-7.41-2.92C23,98.73,22,98.2,21,97.64c-.47-.27-1.64-.45-.91.36a5.94,5.94,0,0,0,2,1.23c.79.34,1.54.8,2.33,1.15,1.77.77,3.65,1.45,5.48,2.07a62.64,62.64,0,0,0,6.34,1.77,81.93,81.93,0,0,0,9.35,1.62,6.77,6.77,0,0,0,.76.08c.22,0,.43-.06.65,0,.54,0,1.08.11,1.62.15.77.06,1.53,0,2.29,0A20.82,20.82,0,0,0,53,106c.23,0,.87,0,.89-.35,0-.2-.18-.25-.33-.27A13.14,13.14,0,0,0,52,105.29Z"/>
        <rect class="cls-2" x="29.48" y="97.88" width="1.68" height="4.4" transform="translate(-73.98 92.57) rotate(-69.03)"/>
        <rect class="cls-2" x="32.75" y="97.58" width="1.68" height="3.51" transform="translate(-71.18 95.15) rotate(-69.03)"/>
        <rect class="cls-2" x="37.08" y="97.41" width="1.68" height="3.51" transform="translate(-68.25 99.08) rotate(-69.03)"/>
        <rect class="cls-2" x="40.97" y="97.06" width="1.68" height="2.92" transform="translate(-64.79 108) rotate(-72.09)"/>
        <rect class="cls-2" x="44.32" y="97.17" width="1.68" height="1.69" transform="translate(-61.99 110.84) rotate(-72.09)"/>
        <rect class="cls-78" x="54.13" y="105.36" width="2.12" height="1.51" transform="translate(-54.4 154.06) rotate(-86.15)"/>
        <rect class="cls-78" x="61.98" y="105.2" width="1.98" height="4.15" transform="translate(-46.88 165.63) rotate(-87.57)"/>
        <rect class="cls-78" x="65.95" y="108.29" width="3.41" height="1.48" transform="translate(-2.05 1.3) rotate(-1.08)"/>
        <rect class="cls-41" x="76" y="107.23" width="4.61" height="2.02" transform="translate(-2.03 1.5) rotate(-1.08)"/>
        <rect class="cls-82" x="81.06" y="96.77" width="3.11" height="1.63" transform="translate(-34.41 46.08) rotate(-25.99)"/>
        <rect class="cls-82" x="84.12" y="97.4" width="2.25" height="1.57" transform="translate(-36.99 53.84) rotate(-29.1)"/>
        <rect class="cls-82" x="88.06" y="98.45" width="2.97" height="1.57" transform="translate(-29.99 39.44) rotate(-21.36)"/>
        <rect class="cls-82" x="91.76" y="99.19" width="2.56" height="1.57" transform="translate(-34.89 52.18) rotate(-26.57)"/>
        <rect class="cls-41" x="91.47" y="104.74" width="3.35" height="2.04" transform="translate(-20.03 21.78) rotate(-12.05)"/>
        <rect class="cls-41" x="103.3" y="102.74" width="4.41" height="2" transform="translate(-23.99 32.15) rotate(-15.58)"/>
        <rect class="cls-41" x="100.54" y="105.13" width="6.46" height="1.46" transform="translate(-24.62 31.77) rotate(-15.58)"/>
        <rect class="cls-82" x="95.71" y="99.66" width="2.58" height="1.62" transform="translate(-33.44 50.59) rotate(-25.08)"/>
        <rect class="cls-82" x="98.95" y="99.73" width="3.53" height="1.62" transform="translate(-20.33 25.71) rotate(-13.22)"/>
        <rect class="cls-61" x="102.07" y="109.98" width="4.01" height="1.96" transform="matrix(1, -0.01, 0.01, 1, -1.24, 1.18)"/>
        <rect class="cls-41" x="76.63" y="105.67" width="2.02" height="2.44" transform="translate(-36.79 172.91) rotate(-83.99)"/>
        <rect class="cls-78" x="64.92" y="107.63" width="1.85" height="1.81" transform="translate(-8.14 5.38) rotate(-4.4)"/>
        <path class="cls-83" d="M83.31,95.69c0,2.22-8.44,4-18.84,4s-18.85-1.8-18.85-4,8.44-4,18.85-4,18.84,1.8,18.84,4"/>
        <path class="cls-91" d="M45.19,95.42a5.34,5.34,0,0,0-.69,0s-.1,0-.1.08a.08.08,0,0,0,0,.06,3.14,3.14,0,0,0,.7.43,6.26,6.26,0,0,0,.75.32,1,1,0,0,1-.27-.67,1.09,1.09,0,0,1,0-.25h-.47"/>
        <path class="cls-92" d="M57.25,93.68h-.13a.47.47,0,0,0-.26.08c-.14.15,0,.38.18.51a12.45,12.45,0,0,0,3.25,2h0c-2.71,0-5.35-.85-8-1.3h-.09c-.09,0-.19,0-.2.11a.2.2,0,0,0,.06.16,5.4,5.4,0,0,0,1.83,1.37L49.55,96l-1-.14a9.44,9.44,0,0,0-1-.14,8.26,8.26,0,0,1-1-.18,7.68,7.68,0,0,0-.82-.11,1.09,1.09,0,0,0,0,.25,1,1,0,0,0,.27.67,8.45,8.45,0,0,0,.85.28c.53.16,1.06.29,1.6.4a45.68,45.68,0,0,0,6.95,1.1c-.8-.48-1.81-.52-2.63-1a6.71,6.71,0,0,1,1-.13c.19,0,.35,0,.53,0l.21,0a39.81,39.81,0,0,0,5.12.37,24.26,24.26,0,0,0,5.89-.68c.39-.1.83-.25,1-.63Q62.76,94.91,59.06,94a7.43,7.43,0,0,0-1.81-.29"/>
        <path class="cls-93" d="M64.47,92c-9.61,0-17.39,1.67-17.39,3.73s7.78,3.72,17.39,3.72,17.38-1.66,17.38-3.72S74.07,92,64.47,92Zm0,7.08c-8.91,0-16.13-1.5-16.13-3.35s7.22-3.36,16.13-3.36,16.12,1.51,16.12,3.36S73.37,99,64.47,99Z"/>
        <path class="cls-93" d="M67.1,95.69c0,.3-1.18.54-2.63.54s-2.64-.24-2.64-.54,1.18-.55,2.64-.55S67.1,95.39,67.1,95.69Z"/>
        <path class="cls-94" d="M126.22,111l-17.55-.46-13.42-.35h30.17Z"/>
        <path class="cls-95" d="M125.42,110.22H95.25l-.93,0,1.58-2a14.69,14.69,0,0,0,3.16-.39,61,61,0,0,0,9.88-2.65,25.14,25.14,0,0,0,4-2l5.23-.34Z"/>
        <rect class="cls-96" x="108.09" y="106.76" width="4.57" height="1.96" transform="translate(-1.2 1.25) rotate(-0.64)"/>
        <rect class="cls-96" x="111.06" y="104.37" width="5.75" height="1.96" transform="translate(-1.18 1.29) rotate(-0.64)"/>
        <rect class="cls-96" x="116.38" y="106.43" width="3.5" height="1.96" transform="translate(-1.2 1.33) rotate(-0.64)"/>
        <path class="cls-97" d="M104.34,106.59a44.28,44.28,0,0,0-2.83,3.63H95.25l-.93,0,1.58-2a14.69,14.69,0,0,0,3.16-.39C100.82,107.41,102.59,107,104.34,106.59Z"/>
        <polygon class="cls-98" points="106.08 110.22 102.07 110.22 102.06 110 106.08 109.95 106.08 110.22"/>
        <polygon class="cls-99" points="-5.56 106.23 -4.74 109.16 2.14 103.51 1.75 101.98 -5.56 106.23"/>
        <path class="cls-100" d="M-8,106.22l.1,0c.08,0,.18-.07.27-.09a5.84,5.84,0,0,1,1.11-.18,3.54,3.54,0,0,0,1.07-.24A11.75,11.75,0,0,0-4.37,105c.75-.46,1.48-.93,2.21-1.41a14.8,14.8,0,0,0,1.6-1.12,2.77,2.77,0,0,0,.59-.54c.13-.21.11-.45-.13-.54s-.41.06-.59.14A17,17,0,0,0-3,103c-.88.6-1.76,1.2-2.68,1.75-.47.29-.95.55-1.44.82a4.87,4.87,0,0,0-.75.46C-7.94,106.06-8,106.13-8,106.22Z"/>
        <path class="cls-36" d="M-6.3,105.22c-.22-.07-.84.55-.87.8s.12.35.37.32c.44,0,.79-.49,1.07-.78s.29-.09.69-.16a2.68,2.68,0,0,0,.78-.42c.49-.31,1-.6,1.5-.88A19.88,19.88,0,0,0-1,103a3.75,3.75,0,0,0,1.08-.8c.33-.51-.14-.83-.59-.55-.65.38-1.12,1-1.73,1.45a6.68,6.68,0,0,1-1.51.76,9.77,9.77,0,0,0-1.91.83A8.12,8.12,0,0,0-6.3,105.22Z"/>
        <path class="cls-71" d="M128.32,128.09a3.92,3.92,0,1,1-3.92-3.92,3.92,3.92,0,0,1,3.92,3.92"/>
        <g>
          <path class="cls-48" d="M-3.1,118c-.15.17-.3.35-.44.53a3,3,0,0,0,1.89.69,2.71,2.71,0,0,0,.85,0,2.44,2.44,0,0,0,1.57-1.34,4,4,0,0,0,.3-2.09A2.26,2.26,0,0,0,.24,114a.93.93,0,0,0-.82-.14,1.43,1.43,0,0,0-.66.93L-3.1,118"/>
          <path class="cls-101" d="M.77,115.16a3.08,3.08,0,0,1-3.09,3.08h-.23a3.09,3.09,0,0,1-2.85-3.07,3.08,3.08,0,0,1,3.08-3.08,3.08,3.08,0,0,1,2.84,1.86,3.06,3.06,0,0,1,.25,1.22"/>
          <path class="cls-102" d="M.22,115.16a2.54,2.54,0,0,1-2.54,2.53,2.53,2.53,0,0,1-2.53-2.53,2.54,2.54,0,0,1,2.53-2.54,2.54,2.54,0,0,1,2.54,2.54"/>
          <path class="cls-83" d="M-2.32,117.53a2.37,2.37,0,0,1-2.37-2.37,2.38,2.38,0,0,1,2.37-2.38,2.38,2.38,0,0,1,2.38,2.38,2.37,2.37,0,0,1-2.38,2.37"/>
          <polyline class="cls-103" points="0.22 115.33 -0.65 115.33 -0.65 114.98 0.22 114.98 0.22 115.33"/>
          <g class="cls-104">
            <rect class="cls-105" x="-2.56" y="113.82" width="3.33" height="4.42"/>
          </g>
          <path class="cls-106" d="M.21,115.33H.06a2.4,2.4,0,0,1-1.82,2.14l-.2.13-.13.08a2.53,2.53,0,0,0,2.3-2.35m-.33-1.44a.36.36,0,0,0-.1.14,2.55,2.55,0,0,1,.28,1H.21a2.53,2.53,0,0,0-.33-1.09"/>
          <path class="cls-107" d="M.06,115.33H-.23a.82.82,0,0,1,0,.24A2.81,2.81,0,0,1-1,116.85a4.42,4.42,0,0,1-.74.62,2.4,2.4,0,0,0,1.82-2.14M-.22,114a2.27,2.27,0,0,0,0,1H.06a2.55,2.55,0,0,0-.28-1"/>
          <path class="cls-108" d="M.22,115H-.25c0,.13,0,.25,0,.35H.22V115"/>
        </g>
        <g>
          <path class="cls-48" d="M-3.1,125.52c-.15.18-.3.35-.44.53a3,3,0,0,0,1.89.69,2.71,2.71,0,0,0,.85,0,2.44,2.44,0,0,0,1.57-1.34,4,4,0,0,0,.3-2.09,2.26,2.26,0,0,0-.83-1.71.9.9,0,0,0-.82-.13,1.39,1.39,0,0,0-.66.92l-1.86,3.18"/>
          <path class="cls-101" d="M.77,122.68a3.08,3.08,0,0,1-3.09,3.08h-.23a3.09,3.09,0,0,1-2.85-3.07,3.08,3.08,0,0,1,3.08-3.08,3.08,3.08,0,0,1,2.84,1.86,3.13,3.13,0,0,1,.25,1.22"/>
          <path class="cls-102" d="M.22,122.68a2.54,2.54,0,0,1-2.54,2.53,2.53,2.53,0,0,1-2.53-2.53,2.54,2.54,0,0,1,2.53-2.54,2.54,2.54,0,0,1,2.54,2.54"/>
          <path class="cls-83" d="M-2.32,125.05a2.37,2.37,0,0,1-2.37-2.37,2.38,2.38,0,0,1,2.37-2.38,2.38,2.38,0,0,1,2.38,2.38,2.37,2.37,0,0,1-2.38,2.37"/>
          <polyline class="cls-103" points="0.22 122.85 -0.65 122.85 -0.65 122.5 0.22 122.5 0.22 122.85"/>
          <g class="cls-109">
            <rect class="cls-105" x="-2.56" y="121.34" width="3.33" height="4.42"/>
          </g>
          <path class="cls-106" d="M.21,122.85H.06A2.4,2.4,0,0,1-1.76,125l-.2.13-.13.08a2.53,2.53,0,0,0,2.3-2.35m-.33-1.44a.36.36,0,0,0-.1.14,2.55,2.55,0,0,1,.28,1H.21a2.53,2.53,0,0,0-.33-1.09"/>
          <path class="cls-107" d="M.06,122.85H-.23a.82.82,0,0,1,0,.24A2.81,2.81,0,0,1-1,124.37a4.42,4.42,0,0,1-.74.62,2.4,2.4,0,0,0,1.82-2.14m-.28-1.3a2.27,2.27,0,0,0,0,1H.06a2.55,2.55,0,0,0-.28-1"/>
          <path class="cls-108" d="M.22,122.5H-.25c0,.13,0,.25,0,.35H.22v-.35"/>
        </g>
      </g>
      <g>
        <circle class="cls-110" cx="97.27" cy="66.04" r="20.09"/>
        <circle class="cls-83" cx="96.78" cy="64.23" r="12.93"/>
        <circle class="cls-110" cx="28.4" cy="66.04" r="20.09"/>
        <path class="cls-83" d="M119.61,65a5.82,5.82,0,1,0-5.81,5.81A5.81,5.81,0,0,0,119.61,65Z"/>
        <circle class="cls-83" cx="27.92" cy="64.23" r="12.93"/>
        <path class="cls-111" d="M42.91,79.92a20.08,20.08,0,0,1-31.09-2.55q.94-1.91,2-3.72l.66-1.06a34.05,34.05,0,0,1,4.05-5.14,22.59,22.59,0,0,1,4.85-4.2,5.94,5.94,0,0,1,4.26-.78,8.43,8.43,0,0,1,3.6,2.27A56.94,56.94,0,0,1,42.91,79.92Z"/>
        <path class="cls-112" d="M39.71,82.63a20.08,20.08,0,0,1-26.11-3,1.69,1.69,0,0,1,.72-.36,4,4,0,0,1,1.74.16,9.48,9.48,0,0,1,1.61-7.29A12.93,12.93,0,0,0,38,72.28a12.81,12.81,0,0,1,1.55,3A15.54,15.54,0,0,1,39.71,82.63Z"/>
        <path class="cls-113" d="M38,72.28a12.93,12.93,0,0,1-20.36-.16c.32-.49.66-1,1-1.42,2-2.46,4.48-4.44,6.43-6.91a23.25,23.25,0,0,1,7.66,2.79,19.14,19.14,0,0,1,4.71,4.91Z"/>
        <path class="cls-114" d="M106.56,75.32a.64.64,0,0,1-.12.25q-3.8,5.27-7.63,10.49c-.51,0-1,.06-1.54.06a20.19,20.19,0,0,1-5.8-.85,27.64,27.64,0,0,1,3-3.23c3-2.82,6.13-5.56,10-7a2.19,2.19,0,0,1,1.9-.08A.42.42,0,0,1,106.56,75.32Z"/>
        <path class="cls-115" d="M26.44,60.5A22.56,22.56,0,0,0,27,62.91c-.73.14-1.46.27-2.18.44a1.75,1.75,0,0,1-1.89-.49c-2.1-1.6-4.21-3.22-6.43-4.65a12.92,12.92,0,0,1,10.76-6.89C26.7,54.39,26,57.44,26.44,60.5Z"/>
        <path class="cls-116" d="M27.58,48.92c-.08.8-.21,1.6-.35,2.4a12.92,12.92,0,0,0-10.76,6.89c-.39-.25-.78-.5-1.18-.74a24.46,24.46,0,0,1-2.22-1.41,9.23,9.23,0,0,1-1.34-1.23,20.14,20.14,0,0,1,9.15-7.42,26,26,0,0,1,5.43-.15,1.56,1.56,0,0,1,1.07.43A1.63,1.63,0,0,1,27.58,48.92Z"/>
        <path class="cls-117" d="M27.58,48.92h-.07c-.09.8-.22,1.6-.35,2.39l.07,0v-.08A13,13,0,0,0,16.4,58.17l.07,0,0-.07c-.39-.25-.78-.5-1.18-.74A25.19,25.19,0,0,1,13.11,56a9,9,0,0,1-1.32-1.22l-.06,0,.06.05a20.08,20.08,0,0,1,9.12-7.4l0-.07v.07c1.25-.11,2.49-.23,3.74-.23a13.35,13.35,0,0,1,1.67.09,2.74,2.74,0,0,1,.57.11.93.93,0,0,1,.45.29,1.15,1.15,0,0,1,.21.74c0,.15,0,.29,0,.43h.15a3.29,3.29,0,0,0,0-.45,1.28,1.28,0,0,0-.25-.84,1.21,1.21,0,0,0-.52-.34,3,3,0,0,0-.6-.12,16.09,16.09,0,0,0-1.69-.09c-1.26,0-2.51.13-3.76.24h0a20.27,20.27,0,0,0-9.19,7.46l0,.05,0,0A9.86,9.86,0,0,0,13,56.12c.71.53,1.48,1,2.23,1.42l1.18.73.07,0,0-.07a12.84,12.84,0,0,1,10.7-6.85h.06v-.06c.14-.8.26-1.6.35-2.4Z"/>
        <path class="cls-118" d="M106.56,75.09a.48.48,0,0,0,.17,0,.47.47,0,0,0,.15-.13c.33-.4.65-.8,1-1.19a1.6,1.6,0,0,0-.5-.82.55.55,0,0,0-.21-.12.58.58,0,0,0-.38.13,10.07,10.07,0,0,0-2.58,2.46c.11.16,1-.08,1.13-.1Z"/>
        <path class="cls-119" d="M20.88,47.41a20.14,20.14,0,0,0-9.15,7.42l-.27-.31a39,39,0,0,1,4.23-4.3A15.84,15.84,0,0,1,19,48c.39-.2.78-.39,1.18-.56Z"/>
        <path class="cls-120" d="M99.63,77.14a81.6,81.6,0,0,1-8,8.16,20.08,20.08,0,0,1-10.37-7.19c.52-1.1,1.05-2.19,1.62-3.27a47.7,47.7,0,0,1,2.59-4.42,13,13,0,0,0,14,6.47l-.08.08Z"/>
        <path class="cls-113" d="M104.51,71.46l-5.08,5.43a13,13,0,0,1-14-6.47c.52-.77,1.06-1.53,1.64-2.26a26.78,26.78,0,0,1,3-3.22,6.59,6.59,0,0,1,3.31-1.88A6.68,6.68,0,0,1,98,64.59,23.51,23.51,0,0,1,104.51,71.46Z"/>
        <path class="cls-121" d="M104.51,71.46l-.05-.06-5.09,5.44.06,0,0-.08a12.68,12.68,0,0,1-2.63.27,12.86,12.86,0,0,1-11.29-6.7l-.07,0,.07,0c.51-.77,1.05-1.52,1.63-2.25a27.53,27.53,0,0,1,3-3.22,6.63,6.63,0,0,1,3.27-1.86,4,4,0,0,1,.59,0,7.27,7.27,0,0,1,4,1.56,23.52,23.52,0,0,1,6.52,6.85l.06,0-.05-.06.05.06.07,0A23.93,23.93,0,0,0,98,64.52,7.47,7.47,0,0,0,94,62.93a4.18,4.18,0,0,0-.61,0A6.69,6.69,0,0,0,90,64.88a27.18,27.18,0,0,0-3,3.24c-.57.73-1.12,1.48-1.63,2.26l0,0,0,0a13,13,0,0,0,11.43,6.78A13.71,13.71,0,0,0,99.44,77h0l5.14-5.5,0,0Z"/>
        <path class="cls-118" d="M85.42,70.42a47.7,47.7,0,0,0-2.59,4.42c-.57,1.08-1.1,2.17-1.62,3.27-.26-.34-.5-.7-.74-1a51.85,51.85,0,0,1,4.79-6.94Z"/>
        <path class="cls-122" d="M87.1,68.11l0,0c-.58.73-1.12,1.49-1.64,2.26l-.16-.3c.24-.3.49-.59.75-.88A12.9,12.9,0,0,1,87.1,68.11Z"/>
        <path class="cls-118" d="M111.83,79.86c-.37.4-.77.78-1.18,1.15a26.49,26.49,0,0,0-1-3.29,13.24,13.24,0,0,0-.89-2l-.2-.32L109,75A42.32,42.32,0,0,1,111.83,79.86Z"/>
        <path class="cls-123" d="M112.79,78.78c.57-1.5,1.22-3,1.93-4.44a5.08,5.08,0,0,1-2-.33,2.66,2.66,0,0,1-1.55-1.58c-.75.82-1.48,1.65-2.17,2.52-.4-.59-.82-1.16-1.25-1.73a38.11,38.11,0,0,1,3.44-3,5.82,5.82,0,0,0,5.84-.31A20.06,20.06,0,0,1,112.79,78.78Z"/>
        <path class="cls-124" d="M108.58,75.4a53.82,53.82,0,0,0-6.31,10.09,19.52,19.52,0,0,1-3.93.6c1.74-2.86,3.62-5.63,5.55-8.37a33.22,33.22,0,0,1,2.9-3.55,1.87,1.87,0,0,1,1,.38A3.2,3.2,0,0,1,108.58,75.4Z"/>
        <path class="cls-125" d="M109,75l-.37.45a3.2,3.2,0,0,0-.79-.85,1.87,1.87,0,0,0-1-.38c.3-.32.6-.64.91-1C108.13,73.79,108.55,74.36,109,75Z"/>
        <path class="cls-112" d="M110.65,81a20,20,0,0,1-8.38,4.48,53.82,53.82,0,0,1,6.31-10.09l.2.32a13.24,13.24,0,0,1,.89,2A26.49,26.49,0,0,1,110.65,81Z"/>
        <path class="cls-110" d="M114.72,74.34c-.71,1.45-1.36,2.94-1.93,4.44h0c-.3.37-.62.72-1,1.07A42.32,42.32,0,0,0,109,75c.69-.87,1.42-1.7,2.17-2.52A2.66,2.66,0,0,0,112.67,74,5.08,5.08,0,0,0,114.72,74.34Z"/>
        <path class="cls-110" d="M114.72,74.34l-.07,0q-1.07,2.19-1.94,4.46l.08,0-.07,0h0l.06,0-.06-.05c-.3.37-.61.72-.94,1.07l0,0,.07,0A41.26,41.26,0,0,0,109,74.9L109,75l.06,0c.69-.86,1.42-1.69,2.17-2.51l-.06,0-.08,0a2.78,2.78,0,0,0,1.6,1.64,5.2,5.2,0,0,0,2,.33h.13v-.08l-.07,0,.07,0v-.08h-.13a4.82,4.82,0,0,1-1.89-.32,2.61,2.61,0,0,1-1.51-1.54l0-.13-.09.1c-.75.82-1.48,1.66-2.17,2.53l0,0,0,0a40.94,40.94,0,0,1,2.88,4.91l0,.1.08-.08c.33-.35.65-.71,1-1.08h0c.58-1.5,1.22-3,1.93-4.44l0-.11h-.12Z"/>
        <path class="cls-122" d="M106,71,99.8,76.8c-.12,0-.25.06-.37.09l5.08-5.43A23.51,23.51,0,0,0,98,64.59,6.92,6.92,0,0,0,93.57,63a4.75,4.75,0,0,1,1.81-.65,5,5,0,0,1,3,.77,13.34,13.34,0,0,1,2.43,2A35.88,35.88,0,0,1,106,71Z"/>
        <path class="cls-126" d="M98.5,47.9a18.52,18.52,0,0,1-.38,3.47,11.9,11.9,0,0,0-1.34-.07,12.9,12.9,0,0,0-9.13,3.77c-1-1.52-2.14-3-3.32-4.4a20,20,0,0,1,7.32-3.92A18.62,18.62,0,0,1,98.5,47.9Z"/>
        <path class="cls-127" d="M98.05,51.77c-.68,3.83-1.15,7.79-.39,11.59A5.15,5.15,0,0,0,94.2,63a3.38,3.38,0,0,0-.84,0l-.18,0c-.35-.54-.78-1-1.18-1.52-1.32-1.65-2.38-3.49-3.53-5.26-.27-.42-.54-.83-.82-1.24a12.9,12.9,0,0,1,9.13-3.77,11.9,11.9,0,0,1,1.34.07C98.1,51.5,98.07,51.64,98.05,51.77Z"/>
        <path class="cls-96" d="M95.3,61.52a3.75,3.75,0,0,0-2.21.64,1,1,0,0,0-.37.35.56.56,0,0,0,0,.36.88.88,0,0,0,.29.54.62.62,0,0,0,.31.14,1,1,0,0,0,.6-.21c.42-.25.88-.39,1.3-.63a1.09,1.09,0,0,0,.51-.46.51.51,0,0,0-.11-.63A.63.63,0,0,0,95.3,61.52Z"/>
        <path class="cls-96" d="M95.29,61.08l0,0a.37.37,0,0,0,.12-.37c0-.13-.21-.15-.33-.19a2.54,2.54,0,0,0-.95-.12,1.31,1.31,0,0,0-1.05.39.5.5,0,0,0-.08.47c.06.17.24.18.4.21a2.93,2.93,0,0,0,1.49-.17A1.14,1.14,0,0,0,95.29,61.08Z"/>
        <path class="cls-128" d="M119.61,65a5.82,5.82,0,0,1-9.74,4.29,2.6,2.6,0,0,1,1.78-.14c.5.14.94.43,1.43.61a4.67,4.67,0,0,0,2.26.17,4.24,4.24,0,0,0,1.27-.38,3.69,3.69,0,0,0,1.45-1.48,7.12,7.12,0,0,0,.67-2,12.77,12.77,0,0,0,.25-2.76q0-.54-.06-1.08A5.78,5.78,0,0,1,119.61,65Z"/>
        <path class="cls-129" d="M119,63.36a13,13,0,0,0-1.38-1.86,4.94,4.94,0,0,0-.55-.57,3.62,3.62,0,0,0-.58-.38,5.63,5.63,0,0,0-5.64,0A5,5,0,0,0,109.52,62a6.57,6.57,0,0,0-1,2.51,4.52,4.52,0,0,0,.37,2.64,5.24,5.24,0,0,1,.42.9,1.13,1.13,0,0,1,0,.63,5.81,5.81,0,1,1,9.61-6.44Q119,62.82,119,63.36Z"/>
        <path class="cls-130" d="M34.35,67.82a12.59,12.59,0,0,0-1.57-1.24,23.25,23.25,0,0,0-7.66-2.79c-1.95,2.47-4.46,4.45-6.43,6.91-.36.45-.7.93-1,1.42A12.68,12.68,0,0,1,16.35,70a29.93,29.93,0,0,1,2.22-2.56,22.59,22.59,0,0,1,4.85-4.2,5.94,5.94,0,0,1,4.26-.78,8.43,8.43,0,0,1,3.6,2.27C32.34,65.73,33.37,66.76,34.35,67.82Z"/>
        <path class="cls-96" d="M24.41,62.08a2,2,0,0,0,.52-.24,1.07,1.07,0,0,0,.44-.43.7.7,0,0,0,.07-.61c-.13-.2-.51-.11-.69,0a2.69,2.69,0,0,0-.77.48.9.9,0,0,0-.34.54.59.59,0,0,0,0,.13.41.41,0,0,0,.29.2A1,1,0,0,0,24.41,62.08Z"/>
        <path class="cls-96" d="M25,59.7a.26.26,0,0,0-.07-.19.32.32,0,0,0-.3,0c-.23.08-.62.35-.52.63s.52.14.68,0A.54.54,0,0,0,25,59.7Z"/>
        <path class="cls-112" d="M44.58,77.93a19.83,19.83,0,0,1-1.69,2,20.84,20.84,0,0,1-3.18,2.69q.16-1,.27-2a15.93,15.93,0,0,0,2.67-1.18,7.26,7.26,0,0,0,1-.67A12.54,12.54,0,0,0,44.58,77.93Z"/>
        <polygon class="cls-131" points="114.5 65.99 112.13 68.21 100.25 79.36 93.39 85.29 93.82 85.4 90.88 88.16 90.09 87.31 89.4 86.57 113.02 64.4 114.5 65.99"/>
        <polygon class="cls-41" points="112.35 68.44 103.96 76.33 103.8 76.3 100.25 79.36 93.39 85.29 93.82 85.4 94.21 85.5 91.13 88.41 90.03 87.36 90.09 87.31 111.15 67.19 112.13 68.21 112.35 68.44"/>
        <path class="cls-96" d="M20.91,56.83c0,.06,0,.14.07.13a.92.92,0,0,0,.52-.3.62.62,0,0,0,.14-.19s0,0,0,0a.06.06,0,0,0-.06,0s-.06,0-.09,0l-.23.1s-.13.09-.17.09a.55.55,0,0,0-.16.18A.14.14,0,0,0,20.91,56.83Z"/>
        <path class="cls-96" d="M20.76,55.66A6.32,6.32,0,0,0,21.5,55c.07-.08.14-.15.2-.23a.3.3,0,0,0,0-.08c0-.07-.08-.13-.15-.13a.55.55,0,0,0-.22.1,6.13,6.13,0,0,0-.86.66c-.09.08-.29.23-.18.36S20.65,55.75,20.76,55.66Z"/>
        <path class="cls-96" d="M18.43,56.07A18.79,18.79,0,0,1,23,52.54a4.32,4.32,0,0,1,1-.41c.32-.07.66-.09,1-.19a.13.13,0,0,0,.1-.06.14.14,0,0,0,0-.09.62.62,0,0,0-.41-.31,1.58,1.58,0,0,0-.53,0,6.43,6.43,0,0,0-2,.8,21.53,21.53,0,0,0-3.95,2.89,7.55,7.55,0,0,0-1.19,1.33c-.1.15-.39.51-.14.66s.56-.26.69-.37C17.93,56.58,18.17,56.32,18.43,56.07Z"/>
        <path class="cls-96" d="M16.05,50.67a18.63,18.63,0,0,1,4.4-2.87,14.62,14.62,0,0,1,2.83-1.12c1-.25,2.06-.32,3-.62.18-.05.39-.21.29-.36s-.15-.1-.23-.11a8.85,8.85,0,0,0-4.26.88,26.61,26.61,0,0,0-3.42,1.71A20.86,20.86,0,0,0,12.53,54c-.08.12-.64.84-.21.77.19,0,.37-.39.5-.53.71-.75,1.35-1.55,2-2.33C15.24,51.47,15.63,51.06,16.05,50.67Z"/>
        <path class="cls-61" d="M116.15,65a2.35,2.35,0,1,0-2.35,2.35A2.35,2.35,0,0,0,116.15,65Z"/>
        <path class="cls-132" d="M88.51,84.88l-.08,1.05-.15,1.91a.63.63,0,0,1-.6.57l-10.76.28a1,1,0,0,1-1-.85,6.21,6.21,0,0,1,.09-2.1,5.33,5.33,0,0,1,.54-1.44,1,1,0,0,1,.9-.5l10.47.42a.62.62,0,0,1,.59.66"/>
        <polyline class="cls-133" points="91.34 87.98 87.56 87.98 87.56 85.48 91.34 85.48 91.34 87.98"/>
        <path class="cls-131" d="M88.4,85.51c-.19,0-.21,0-.22.22a5.36,5.36,0,0,0,.06.69c0,.15,0,.27.12.32a.85.85,0,0,0,.36,0h1c.2,0,.4,0,.6,0a2.36,2.36,0,0,0,.46,0c.14,0,.18-.14.24-.27s.23-.41.31-.63.07-.27-.13-.3a3.62,3.62,0,0,0-.81,0l-.41,0c-.57,0-1.14,0-1.54,0"/>
        <polygon class="cls-134" points="90.59 87.98 88.28 87.98 88.28 87.31 90.25 87.35 90.59 87.98"/>
        <path class="cls-135" d="M80.8,89.58H79.52v1.25H80A.83.83,0,0,0,80.8,90Z"/>
        <polygon class="cls-44" points="79.48 90.83 78.35 90.83 78.35 88.39 80.79 88.39 80.79 89.58 79.48 90.83"/>
        <path class="cls-136" d="M80.59,89.27V90a.65.65,0,0,1-.66.66h-.41a.65.65,0,0,1-.66-.66v-.7Z"/>
        <path class="cls-83" d="M80.39,89.27v.6a.54.54,0,0,1-.54.54h-.17a.54.54,0,0,1-.54-.54v-.6Z"/>
        <path class="cls-44" d="M81.75,88.56l-3.16.08a.4.4,0,0,1,.12-.21,3.46,3.46,0,0,1,1.2-.29,3.86,3.86,0,0,1,1.31-.08C81.6,88.13,81.74,88.3,81.75,88.56Z"/>
        <path class="cls-44" d="M88.43,85.89l-.15,2a.63.63,0,0,1-.6.57l-5.58.14a.68.68,0,0,1,.16-.42,1.81,1.81,0,0,1,1-.16h.36c1.09-.08,2.17-.14,3.26-.12a4.63,4.63,0,0,1-.05-1,5.61,5.61,0,0,1,.07-1,1.08,1.08,0,0,1,.26-.62c.4-.28.84.14,1.07.44l.15.21"/>
        <path class="cls-137" d="M77.41,83.8a1,1,0,0,0-.86.5A5.33,5.33,0,0,0,76,85.74h.08c.24,0,.49-.41.58-.56a1.27,1.27,0,0,1,.61-.6,4.08,4.08,0,0,1,1.66-.26h.73c1.38,0,2.76,0,4.15,0h1.06c.23,0,.46,0,.69,0s.55.1.81.11a.63.63,0,0,1,.5.22h0c.1.17.16.37.27.53h0l0,0a.51.51,0,0,1,.28-.09.91.91,0,0,1,.61.33h.36l.05-.6v0a.61.61,0,0,0-.59-.61L77.45,83.8h0"/>
        <path class="cls-138" d="M88.46,85.48H88.1a.52.52,0,0,1,.1.11c0-.06.06-.09.16-.09h.1v0"/>
        <path class="cls-139" d="M88.46,85.5h-.1c-.1,0-.14,0-.16.09l.08.09.15.21v0h0l0-.43"/>
        <path class="cls-140" d="M87.49,85.15a.51.51,0,0,0-.28.09l0,0a1.69,1.69,0,0,0,.49.39,1.72,1.72,0,0,0,.78.26v0l-.15-.21-.08-.09a.52.52,0,0,0-.1-.11.91.91,0,0,0-.61-.33"/>
        <path class="cls-141" d="M75.77,87.16a.56.56,0,0,0,.11.32.53.53,0,0,0,.65,0,1.4,1.4,0,0,0,.24-.69c.12-.55.26-1.11.36-1.66.06-.37-.14-.68-.56-.58s-.58,1.16-.63,1.55A6.53,6.53,0,0,0,75.77,87.16Z"/>
        <path class="cls-141" d="M77.47,83.93a.53.53,0,0,0-.08.15.85.85,0,0,0,0,.42c.07.13.29.16.43.19a8.87,8.87,0,0,0,1.15.18c.42.06.85.1,1.28.12,1,.06,2.11.06,3.16,0C84,85,84.5,85,85,85a7,7,0,0,0,.79,0,3.19,3.19,0,0,1,.54-.07l.48,0c.38,0,.75,0,1.12,0,.21,0,.6.06.37-.27a.65.65,0,0,0-.57-.27l-1.07,0c-.66,0-1.32-.1-2-.12-1,0-2,0-2.94-.09l-1.11,0c-.55,0-1.09-.1-1.65-.12C78.72,83.87,77.77,83.62,77.47,83.93Z"/>
      </g>
    </g>
  </g>
</svg>
