<svg xmlns="http://www.w3.org/2000/svg" viewBox="0 0 124.36 124.36">
  <defs>
    <style>
      .cls-1 {
        isolation: isolate;
      }

      .cls-2 {
        fill: #fff;
      }

      .cls-3 {
        fill: #2a1c27;
      }

      .cls-4 {
        fill: #422b3f;
      }

      .cls-5 {
        fill: #9fabb1;
      }

      .cls-6 {
        fill: #e2ebe7;
      }

      .cls-7 {
        fill: #919da1;
      }

      .cls-8 {
        fill: #bac9cf;
      }

      .cls-9 {
        fill: #52364e;
      }

      .cls-10 {
        fill: #d72c1f;
      }

      .cls-11 {
        fill: #a8c0ac;
      }

      .cls-12 {
        fill: #819284;
      }

      .cls-13 {
        fill: #f0483f;
      }

      .cls-14 {
        fill: #fa4f43;
      }

      .cls-15 {
        fill: #1d282e;
      }

      .cls-16 {
        fill: #c42713;
      }

      .cls-17 {
        fill: #ceb8a7;
      }

      .cls-18 {
        fill: #0f161a;
      }

      .cls-19 {
        fill: #e7eee4;
      }

      .cls-20 {
        fill: #f1f8ee;
      }

      .cls-21 {
        fill: #afc5ba;
      }

      .cls-22 {
        fill: #070a0a;
      }

      .cls-23 {
        fill: #161f25;
      }

      .cls-24 {
        fill: #2a3a42;
      }

      .cls-25 {
        fill: #dc946f;
      }

      .cls-26 {
        fill: #ee7b22;
      }

      .cls-27 {
        fill: #ee8a22;
      }

      .cls-28 {
        fill: #7a7d78;
      }

      .cls-29 {
        fill: #dae4d0;
      }

      .cls-30 {
        fill: #f2ffe7;
      }

      .cls-31 {
        fill: #7a847f;
      }

      .cls-32 {
        fill: #363b38;
      }

      .cls-33 {
        fill: #a5b2b8;
      }

      .cls-34 {
        fill: #8c969d;
      }

      .cls-35 {
        fill: #b31f2b;
      }

      .cls-36 {
        fill: #eda580;
      }

      .cls-37 {
        fill: #cd855e;
      }

      .cls-38 {
        fill: #fadd55;
      }

      .cls-39 {
        fill: #e4b520;
      }

      .cls-40 {
        fill: #e93a2d;
      }

      .cls-41 {
        fill: #fbe7f7;
      }

      .cls-42 {
        fill: #faf7c5;
        opacity: 0.1;
      }

      .cls-43 {
        fill: #ffa242;
      }

      .cls-44 {
        fill: #f8e7da;
      }

      .cls-45 {
        fill: #ff4233;
      }

      .cls-46 {
        fill: #f0dfcc;
      }

      .cls-47 {
        fill: #e9c6a7;
      }

      .cls-48 {
        fill: #f4f3e6;
      }

      .cls-49 {
        fill: #ccbbac;
      }

      .cls-50 {
        fill: #ffca4b;
      }

      .cls-51 {
        fill: #73666c;
      }

      .cls-52 {
        fill: #806f66;
        opacity: 0.6;
        mix-blend-mode: multiply;
      }
    </style>
  </defs>
  <g class="cls-1">
    <g id="Layer_1" data-name="Layer 1">
      <rect class="cls-2" x="-11.6" y="-29.71" width="155.91" height="178.44"/>
      <g>
        <g>
          <path class="cls-3" d="M96.14,83.82l-3.79-2.19c-1.12-.65-2.68-.56-4.41.45a13.94,13.94,0,0,0-6.26,10.83c0,2,.69,3.4,1.81,4h0l2.72,1.57.36-.53A5.93,5.93,0,0,0,89,97.15a14,14,0,0,0,6.26-10.84,7.3,7.3,0,0,0-.08-1.08Z"/>
          <path class="cls-4" d="M84.89,94.68c-.44,3.79,2,5.25,5.33,3.25a15.81,15.81,0,0,0,6.92-10.48c.44-3.79-2-5.24-5.33-3.25A15.93,15.93,0,0,0,84.89,94.68Z"/>
          <path class="cls-5" d="M87.93,92.89c-.22,1.91,1,2.64,2.69,1.64a8,8,0,0,0,3.48-5.28c.23-1.91-1-2.65-2.68-1.64A8,8,0,0,0,87.93,92.89Z"/>
          <path class="cls-6" d="M90.63,90c-.06.08-.11.16-.16.24-.14.23-.51.65-.53.93a2.19,2.19,0,0,0,.14.5c.11.47.17,1,.25,1.42s.17.95.27,1.42h0a8.1,8.1,0,0,0,3-3.56C92.59,90.7,91.6,90.39,90.63,90Z"/>
          <path class="cls-7" d="M88.43,91.7c-.15,1.22.63,1.69,1.72,1a5.12,5.12,0,0,0,2.23-3.38c.14-1.23-.63-1.7-1.72-1.05A5.12,5.12,0,0,0,88.43,91.7Z"/>
          <path class="cls-8" d="M89.62,91.44c-.07.64.33.89.9.55a2.72,2.72,0,0,0,1.18-1.78c.07-.64-.33-.89-.91-.55A2.68,2.68,0,0,0,89.62,91.44Z"/>
          <path class="cls-3" d="M72.41,96.58l-3.79-2.19c-1.12-.65-2.68-.56-4.41.45A13.94,13.94,0,0,0,58,105.68c0,2,.69,3.39,1.82,4h0l2.72,1.58.36-.54a6,6,0,0,0,2.44-.84,13.94,13.94,0,0,0,6.25-10.84A7.3,7.3,0,0,0,71.46,98Z"/>
          <path class="cls-4" d="M61.17,107.44c-.44,3.79,1.95,5.25,5.33,3.25a15.88,15.88,0,0,0,6.92-10.47c.44-3.8-2-5.25-5.34-3.26A15.88,15.88,0,0,0,61.17,107.44Z"/>
          <path class="cls-5" d="M70.38,102a5.79,5.79,0,0,1-.27,1.17,8.14,8.14,0,0,1-3.21,4.11h0c-1.71,1-2.89.26-2.67-1.64a8,8,0,0,1,3.48-5.29C69.4,99.37,70.6,100.09,70.38,102Z"/>
          <path class="cls-6" d="M67.09,102.52l-.34.5c-.14.23-.51.66-.53.94a2.51,2.51,0,0,0,.14.5c.11.46.17.94.25,1.42s.17,1,.27,1.41h0a8.11,8.11,0,0,0,3-3.66C69,103.26,68,102.9,67.09,102.52Z"/>
          <path class="cls-7" d="M64.7,104.46c-.14,1.22.63,1.69,1.72,1.05a5.1,5.1,0,0,0,2.24-3.38c.14-1.23-.63-1.7-1.73-1A5.12,5.12,0,0,0,64.7,104.46Z"/>
          <path class="cls-8" d="M65.89,104.2c-.07.64.34.89.91.55A2.71,2.71,0,0,0,68,103c.08-.64-.33-.89-.9-.55A2.7,2.7,0,0,0,65.89,104.2Z"/>
          <path class="cls-4" d="M37.16,56.37l-2-1.15a.78.78,0,0,0-.71-.08l-.69.39.29.38-.67,8.73a2,2,0,0,0,.93,1.7l2,1.14s.07,0,.11,0l0,.38.62-.37a.69.69,0,0,0,.32-.59l.68-8.87A2,2,0,0,0,37.16,56.37Z"/>
          <path class="cls-9" d="M35.74,67.82l-2-1.15A2,2,0,0,1,32.8,65l.68-8.87c0-.62.54-.86,1.1-.54l2,1.14a2,2,0,0,1,.93,1.7l-.68,8.87A.67.67,0,0,1,35.74,67.82Z"/>
          <path class="cls-4" d="M35,68.39c-.46-.27-1.21-.79-1.21-1.39,0-.19.06-1.2.16-2.82s.2-3.35.23-4,.19-.84.52-1c.56-.22,1.07.29,1.57.79l.28.28-.68.78-.33-.32c-.09-.08-.21-.21-.34-.32,0,.77-.13,2.37-.22,3.81-.07,1.27-.16,2.59-.16,2.76s.39.31.7.49Z"/>
          <path class="cls-10" d="M100.51,85.26l-3.33,1.8c.22-2.47-1-3.24-1-3.24l-1.71-1a3.83,3.83,0,0,0-3.28,0,17.15,17.15,0,0,0-2.81,2A14.15,14.15,0,0,0,86,87.46a.67.67,0,0,0-.14.19,11.74,11.74,0,0,0-2.17,6.67l-10.21,5.5c.23-2.47-1-3.24-1-3.24l-1.7-1a3.81,3.81,0,0,0-3.27,0c-7.92,4.57-7.5,11.49-7.5,11.49l-3.78,2-3.6-12.45,1.92-6.24,4.68-5.63,1.2-16.07,1.4-.81,31.15-18L101.44,45S98.59,67.17,100.51,85.26Z"/>
          <path class="cls-11" d="M81.6,83.36a1.55,1.55,0,0,1-.49,1.31c-.34.28-.67.16-.75-.28a1.55,1.55,0,0,1,.49-1.31C81.19,82.8,81.52,82.93,81.6,83.36Z"/>
          <path class="cls-12" d="M81.66,83.6a1.07,1.07,0,0,1-.35.92c-.24.2-.48.12-.53-.19a1.11,1.11,0,0,1,.34-.93C81.36,83.2,81.6,83.29,81.66,83.6Z"/>
          <path class="cls-11" d="M81.25,84.41c-.38.26-.35-.63,0-.9l1.89-1.86.33.71Z"/>
          <polygon class="cls-13" points="56.16 109.11 32.36 95.38 28.77 82.91 52.57 96.65 56.16 109.11"/>
          <polygon class="cls-14" points="54.48 90.42 52.57 96.65 28.77 82.91 30.69 75.44 54.48 90.42"/>
          <polygon class="cls-14" points="59.16 84.79 54.48 90.42 30.69 75.44 34.02 70.28 48.14 78.43 49.81 79.39 51.97 80.63 52.96 81.22 55.45 82.65 57.11 83.61 59.16 84.79"/>
          <path class="cls-15" d="M60.36,68.73l-1.2,16.06-2-1.19-1.66-.95L53,81.21l-1-.58-2.16-1.24-1.67-1L43.42,75.7,34,70.27,36.56,55l1.61.93a3.88,3.88,0,0,0-.54,2.25s-1,5.89-1.11,8c-.09,1.82,1.2,1.61,1.93,1.26s4.31-2.11,6-3.07,3-1.47,3-2.56v-.5l4,2.29Z"/>
          <path class="cls-2" d="M77.21,65.16l-.25.15c-.06-1.87-.08-3.07-.08-3.19s-.06-.4-.14-.44a.19.19,0,0,0-.1,0,1.83,1.83,0,0,0-.83.32c-1,.56-12.37,7.06-12.49,7.11v0s-.06,0-.07,0h-.41a.87.87,0,0,1,.37-.28c.29-.16,11.49-6.56,12.49-7.12.6-.33,1-.43,1.19-.29s.25.41.26.65S77.17,63.39,77.21,65.16Z"/>
          <path class="cls-16" d="M77.24,92.14a16.23,16.23,0,0,1-1.48.77l-.74.35L75,93c.19-.08.42-.17.66-.29a12,12,0,0,0,1.57-.86Z"/>
          <path class="cls-16" d="M72.5,92.71c-1.39-1.45-5.21-.78-7.82.76a4.1,4.1,0,0,1-1.85.73,1,1,0,0,1-.43-.1c-.57-.34-.57-1.37-.57-2.69V73.28c0-2.11.33-3.49,1-4.13h.41c-.76.41-1.16,1.84-1.16,4.13V91.41c0,1.18,0,2.21.45,2.46s1,0,2-.63c2.6-1.53,6.23-2.19,7.88-.93Z"/>
          <path class="cls-17" d="M75,93.26c-1.2.53-1.58.52-2.44-.47l-.08-.08-.06-.4a2.08,2.08,0,0,1,.34.32c.75.87,1,.91,2.2.35Z"/>
          <path class="cls-17" d="M77.82,91.29c0,.32-.12.54-.58.85l0-.31c.28-.2.35-.36.35-.54C77.56,91,77.2,76,77,67.75v-.2c0-.82,0-1.58-.05-2.24l.25-.15c0,.69,0,1.49.05,2.36v0C77.46,75.73,77.82,91,77.82,91.29Z"/>
          <path class="cls-15" d="M75.28,69.11V76c0,1.09-1.22,1.59-3,2.5a3.2,3.2,0,0,1-.37.19c-1.83.92-5,2.3-5.69,2.59s-2,.51-2.13-1.27c-.08-2-.29-6.93-.29-6.93-.13-2.11.59-2.52,2.69-3.63,1-.51,2.55-1.36,4-2.17,1.74-.93,3.37-1.81,3.81-2C75.19,65,75.28,65.74,75.28,69.11Z"/>
          <path class="cls-18" d="M74.37,65.31c-.21.08-.67.31-1.28.63,2.71,2.2.59,7.73-.09,12.21,1.37-.71,2.28-1.21,2.28-2.15V69.11C75.28,65.74,75.19,65,74.37,65.31Z"/>
          <path class="cls-15" d="M47.49,61.3v.5c0,1.09-1.23,1.59-3,2.56s-5.32,2.72-6,3.07-2,.56-1.93-1.26c.16-2.11,1.11-8,1.11-8a3.88,3.88,0,0,1,.54-2.25Z"/>
          <path class="cls-19" d="M78.37,60.93a.26.26,0,0,0-.13.22c0,1.51.36,12.92.43,15.46a.32.32,0,0,0,.16.26,2.85,2.85,0,0,0,.3.16L97.42,66.84a.47.47,0,0,0,.24-.4c.07-2,.75-14.64.79-16.1,0-.08-.18-.13-.24-.15C97.83,50.09,80.1,60,78.37,60.93Z"/>
          <path class="cls-20" d="M78.49,61.29c0,1.51.35,12.92.43,15.46a.3.3,0,0,0,.45.26L97.66,67a.48.48,0,0,0,.25-.4c.07-2.1.54-16,.54-16.24S80.34,60.11,78.62,61.07A.22.22,0,0,0,78.49,61.29Z"/>
          <path class="cls-21" d="M88,58.39V69.9a1,1,0,0,1-.54.91l-6.71,3.68a.22.22,0,0,1-.32-.17,2.53,2.53,0,0,0,0-.28c-.11-4.2-.24-8.87-.31-11.28a1.18,1.18,0,0,1,.6-1.06c2.06-1.14,4.38-2.42,6.65-3.69l.07,0A.43.43,0,0,1,88,58.39Z"/>
          <path class="cls-21" d="M96.79,53.47c-.12,3.35-.29,8.61-.4,11.93a.92.92,0,0,1-.46.76l-5.88,3.21a.35.35,0,0,1-.52-.3V57.35a.92.92,0,0,1,.46-.79l6.24-3.39,0,0A.36.36,0,0,1,96.79,53.47Z"/>
          <path class="cls-22" d="M87.41,58.06V69.58a1,1,0,0,1-.54.9L80.39,74c0-.13,0-.24,0-.37-.11-4.1-.23-8.57-.3-10.91a1.18,1.18,0,0,1,.6-1.06c2-1.1,4.21-2.32,6.4-3.55a2,2,0,0,0,.25-.14l.07,0A.17.17,0,0,1,87.41,58.06Z"/>
          <path class="cls-22" d="M96.23,53.17c-.12,3.35-.29,8.6-.41,11.91a.88.88,0,0,1-.47.75L89.53,69V57.35a.92.92,0,0,1,.46-.79c2.25-1.23,4.31-2.36,5.9-3.21A3.65,3.65,0,0,0,96.23,53.17Z"/>
          <path class="cls-23" d="M87.08,58.15V69.39a1,1,0,0,1-.54.91l-6.16,3.37c0-.1,0-.21,0-.32s0-.21,0-.31c-.1-3.92-.21-8.05-.28-10.28a1.18,1.18,0,0,1,.6-1.06l5.83-3.23.28-.15A3.09,3.09,0,0,1,87.08,58.15Z"/>
          <path class="cls-23" d="M95.89,53.35c-.11,3.35-.28,8.34-.39,11.54a.87.87,0,0,1-.47.75l-5.5,3V57.35a.92.92,0,0,1,.46-.79c2-1.08,3.82-2.09,5.31-2.89l.29-.15Z"/>
          <path class="cls-24" d="M86.79,58.32V69.23a1,1,0,0,1-.54.9l-5.88,3.22c0-.1,0-.21,0-.31-.1-3.92-.21-8.05-.28-10.28a1.18,1.18,0,0,1,.6-1.06l5.83-3.23Z"/>
          <path class="cls-24" d="M95.59,53.52c-.11,3.33-.27,8.11-.38,11.21a.85.85,0,0,1-.47.74l-5.21,2.87v-11a.92.92,0,0,1,.46-.79c2-1.08,3.82-2.09,5.31-2.89Z"/>
          <path class="cls-15" d="M86.51,58.47V69.06A1,1,0,0,1,86,70L80.36,73c-.1-3.92-.21-8.05-.28-10.28a1.18,1.18,0,0,1,.6-1.06Z"/>
          <path class="cls-15" d="M95.3,53.67c-.11,3.32-.27,7.9-.37,10.89a.88.88,0,0,1-.47.75L89.53,68V57.35a.92.92,0,0,1,.46-.79C92,55.48,93.81,54.47,95.3,53.67Z"/>
          <polygon class="cls-25" points="83.03 81.88 83.03 82.84 78.93 79.61 78.93 78.66 83.03 81.88"/>
          <path class="cls-7" d="M82.18,92.47l-1.06-.61a.85.85,0,0,0-.76,0l-5.27,3-2.49.86v.7h0a.27.27,0,0,0,.15.21l1.52.88a.85.85,0,0,0,.76,0l7.6-4.39A.26.26,0,0,0,82.8,93v-.7Z"/>
          <path class="cls-8" d="M80.36,91.16l-7.6,4.39a.23.23,0,0,0,0,.44l1.52.88a.85.85,0,0,0,.76,0l7.6-4.39c.21-.13.21-.32,0-.44l-1.52-.88A.85.85,0,0,0,80.36,91.16Z"/>
          <path class="cls-7" d="M83.74,95.76l-1-.61a.85.85,0,0,0-.76,0l-5.28,3-2.48.85v.71h0a.25.25,0,0,0,.15.21l1.52.88a.85.85,0,0,0,.76,0l7.61-4.39a.27.27,0,0,0,.15-.22v-.7Z"/>
          <path class="cls-8" d="M81.93,94.45l-7.61,4.39a.23.23,0,0,0,0,.44l1.52.88a.85.85,0,0,0,.76,0l7.61-4.39a.23.23,0,0,0,0-.44l-1.52-.88A.85.85,0,0,0,81.93,94.45Z"/>
          <path class="cls-22" d="M74.59,65.78h0c-.45.17-2.52,1.29-3.75,1.95l-4,2.17c-2.13,1.12-2.53,1.39-2.42,3.14L64.65,80c0,1,.49,1,.7,1a1.83,1.83,0,0,0,.71-.17c1.42-.61,4-1.77,5.65-2.57l.36-.18.57-.3C74,77,74.76,76.62,74.76,76V69.11A18,18,0,0,0,74.59,65.78Z"/>
          <path class="cls-16" d="M75.42,66.2l-.4.23c.06.76.06,1.72.06,2.42v7.31c0,.61-.66,1-1.9,1.68l.07.58c1.43-.74,2.37-1.28,2.37-2.26V69.07Z"/>
          <path class="cls-16" d="M70.31,79.86c-1.78.83-3.72,1.67-4.24,1.9a2.56,2.56,0,0,1-1,.22c-.62,0-1.24-.34-1.29-1.57-.08-2.08-.31-7.34-.31-7.34-.1-1.66.28-2.34,1.4-3,.35-.12.7-.35,1-.48l0,.56C64.25,71,63.93,71.4,64,73l.31,7.37c.05,1,.52,1,.74,1a1.81,1.81,0,0,0,.75-.19c1.09-.47,2.83-1.23,4.36-2Z"/>
          <path class="cls-2" d="M75.56,66.12l-.14.08-.4.23a3.86,3.86,0,0,0-.13-1.11h0c-.48.18-2.66,1.36-4,2.07L66.6,69.71l-.75.4,0-.56c-.3.13-.65.36-1,.48.39-.26.87-.51,1.46-.82,1-.53,2.7-1.44,4.28-2.3,1.83-1,3.57-1.92,4-2.1a1,1,0,0,1,.31-.06C75.33,64.75,75.49,65.12,75.56,66.12Z"/>
          <path class="cls-17" d="M75.62,68.85v0l-.19-2.69.14-.08C75.61,66.75,75.62,67.64,75.62,68.85Z"/>
          <path class="cls-17" d="M73.25,78.42l-.76.39-.4.2c-.52.27-1.13.56-1.78.85l-.11-.56c.6-.26,1.16-.54,1.64-.78a2.23,2.23,0,0,0,.38-.19l.6-.31c.12-.06.24-.13.36-.18Z"/>
          <path class="cls-4" d="M66.31,74.82l-2-1.16a.76.76,0,0,0-.73-.08h0l-.74.42.42,1.57,0,7.67a2.21,2.21,0,0,0,1,1.73l1.85,1,.16.63.74-.43h0a.67.67,0,0,0,.33-.65l.06-9A2.19,2.19,0,0,0,66.31,74.82Z"/>
          <path class="cls-9" d="M65.51,86.56,63.46,85.4a2.19,2.19,0,0,1-1-1.73l.06-9c0-.63.47-.89,1-.56l2,1.15a2.15,2.15,0,0,1,1,1.73l0,9C66.54,86.63,66.08,86.88,65.51,86.56Z"/>
          <path class="cls-4" d="M62.91,84.4a3.31,3.31,0,0,1-1.7-.76c-.47-.32.12-1.17.59-.85.85.6,1.1.58,1.12.57A7.66,7.66,0,0,0,63,81.12c0-.39,0-.8,0-1.25,0-2.94-.35-3.14-1.63-3.89l-.15-.09c-.43-.26.09-1.15.53-.9l.14.09c1.6.93,2.15,1.43,2.15,4.79,0,.44,0,.85,0,1.23,0,1.75.05,2.8-.68,3.19A1,1,0,0,1,62.91,84.4Z"/>
          <path class="cls-26" d="M59.86,95.8,60.6,95l-.78-.45h0a.2.2,0,0,0-.22,0L57,96.12a.66.66,0,0,0-.3.52v.89a.21.21,0,0,0,.1.2h0l.78.45,1.8-1.84.26-.15A.68.68,0,0,0,59.86,95.8Z"/>
          <path class="cls-27" d="M60.38,96.64l-2.63,1.52c-.17.09-.3,0-.3-.18v-.89a.66.66,0,0,1,.3-.52l2.63-1.52a.19.19,0,0,1,.3.18v.89A.69.69,0,0,1,60.38,96.64Z"/>
          <path class="cls-16" d="M76.4,79.34v1.28a1,1,0,0,1-.42.74l-2.22,1.28-.26-2.12L76,79.09l.06,0C76.24,79,76.4,79.09,76.4,79.34Z"/>
          <path class="cls-17" d="M73.76,82.64l-1.55.89c-.24.13-.42,0-.42-.24V82a.94.94,0,0,1,.42-.75l1.29-.74Z"/>
          <path class="cls-7" d="M76,79.06v1a1,1,0,0,1-.43.74L71.85,83l-.07,0V82a.94.94,0,0,1,.43-.73l3.73-2.15,0,0Z"/>
          <path class="cls-8" d="M75.94,79.5v.4a.91.91,0,0,1-.43.73l-3.38,2v-.4a1,1,0,0,1,.43-.74Z"/>
          <path class="cls-5" d="M45.16,93.14l-8.56-5c-.37-.21-.67,0-.67.39l1.21,6.26A1.47,1.47,0,0,0,37.81,96l8.56,5c.37.21.67,0,.67-.39l-1.21-6.26A1.47,1.47,0,0,0,45.16,93.14Z"/>
          <path class="cls-8" d="M41.92,92.85c.2.77-.07,1.4-.58,1.4s-1.09-.63-1.29-1.4.07-1.4.59-1.4S41.73,92.08,41.92,92.85Z"/>
          <path class="cls-28" d="M52,99.17c.55,1.75.06,3.22-1,3.27s-2.44-1.35-3.06-3.09-.2-3.18,1-3.25S51.41,97.41,52,99.17Z"/>
          <path class="cls-29" d="M50.74,101.9c-.91,0-2-1.12-2.52-2.56s-.18-2.65.79-2.7a2.27,2.27,0,0,1,1.69.92,4.49,4.49,0,0,1,.91,1.62c0,.17.09.34.13.5C52,100.92,51.57,101.87,50.74,101.9Z"/>
          <path class="cls-30" d="M51.74,99.68c0,.5-.27.84-.65.85-.57,0-1.26-.67-1.56-1.56s-.07-1.62.51-1.65a1.14,1.14,0,0,1,.66.24,4.49,4.49,0,0,1,.91,1.62C51.66,99.35,51.7,99.52,51.74,99.68Z"/>
          <path class="cls-31" d="M39.34,91.2c0,.26-.07.4-.23.31l-2-1.12a1,1,0,0,1-.38-.64c0-.25.06-.39.23-.3l2,1.11A1,1,0,0,1,39.34,91.2Zm6,3.4A1,1,0,0,0,45,94l-2.31-1.31-.05,0c-.15,0-.23.09-.19.32a1,1,0,0,0,.39.64l.92.53.08,0,1.37.76C45.32,95,45.4,94.83,45.36,94.6Zm-6.13-2.41s0,0,0,0l-1.11-.62h0l-.2-.12,0,0-.1-.06-.3-.17-.19-.1c-.18-.11-.28,0-.24.29a1.08,1.08,0,0,0,.36.63l0,0,2,1.11c.17.1.28,0,.24-.3A1.16,1.16,0,0,0,39.23,92.19Zm6.39,4a1,1,0,0,0-.38-.64l-1.77-1-.36-.21-.19-.1-.05,0c-.14,0-.22.09-.18.32a1,1,0,0,0,.38.63h0l1.79,1,.52.29C45.56,96.62,45.66,96.48,45.62,96.22Zm-.12,1-8-4.51c-.17-.09-.27,0-.23.3h0a1,1,0,0,0,.39.65l8,4.5c.17.1.27,0,.23-.29h0A1,1,0,0,0,45.5,97.19Zm.26,1.62-8-4.51c-.17-.1-.27,0-.23.3h0a1,1,0,0,0,.38.65l8,4.5c.17.1.27,0,.23-.29h0A1,1,0,0,0,45.76,98.81Z"/>
          <path class="cls-32" d="M37.08,89.56a1,1,0,0,0,.39.64l1.87,1.06V91.2a1,1,0,0,0-.39-.64l-1.87-1Z"/>
          <path class="cls-32" d="M42.76,92.76a1,1,0,0,0,.39.64l.92.53.09,0,1.21.68s0,0,0-.05A1,1,0,0,0,45,94L42.76,92.7Z"/>
          <path class="cls-32" d="M46.14,99.46a1,1,0,0,0-.38-.65l-7.9-4.46v.06a.93.93,0,0,0,.39.64l7.89,4.46Z"/>
          <path class="cls-32" d="M38,93.44l7.89,4.45s0,0,0,0a1,1,0,0,0-.38-.65l-7.9-4.45v.05A1,1,0,0,0,38,93.44Z"/>
          <path class="cls-32" d="M45.24,95.58l-1.77-1-.36-.21L43,94.32v.06a1,1,0,0,0,.38.63h0l1.8,1,.41.23v0A1,1,0,0,0,45.24,95.58Z"/>
          <path class="cls-32" d="M37.7,91.8l0,0,1.86,1.05v-.05a1.16,1.16,0,0,0-.37-.63s0,0,0,0l-1.11-.62h0l-.2-.12,0,0-.1-.06-.31-.17-.09,0v0A1.08,1.08,0,0,0,37.7,91.8Z"/>
          <path class="cls-28" d="M35.54,89.82c.55,1.76,0,3.24-1.15,3.3s-2.4-1.38-3-3.13-.17-3.18,1-3.23S35,88.07,35.54,89.82Z"/>
          <path class="cls-29" d="M34.23,92.58c-.93,0-2-1.15-2.45-2.6s-.16-2.64.8-2.69a2.34,2.34,0,0,1,1.69.92,4.61,4.61,0,0,1,.9,1.63c0,.17.09.34.12.5C35.52,91.58,35.09,92.54,34.23,92.58Z"/>
          <path class="cls-30" d="M35.29,90.34c0,.5-.28.84-.68.86-.59,0-1.27-.67-1.55-1.56S33,88,33.61,88a1.12,1.12,0,0,1,.66.23,4.61,4.61,0,0,1,.9,1.63C35.22,90,35.26,90.18,35.29,90.34Z"/>
          <path class="cls-5" d="M59.64,104.91v4.2l-2.49,1.45a4.73,4.73,0,0,1-4.19-.38c-.28-.15-1.28-.75-2.72-1.6l0,0c-1.5-.88-3.43-2-5.5-3.28l-3-1.82c-1.76-1.06-3.52-2.13-5.08-3.09-3-1.86-5.27-3.29-5.46-3.54a6.2,6.2,0,0,1-1.31-3.71,3.63,3.63,0,0,1,.68-2.64,2.15,2.15,0,0,1,.32-.34l.85,3L36.82,96l18.51,10.27,3.14-2Z"/>
          <path class="cls-33" d="M40.24,100.56a7.32,7.32,0,0,0,1.47,2.9c-1.76-1.06-3.52-2.13-5.08-3.09a6.05,6.05,0,0,1-.28-.81A9.5,9.5,0,0,1,36,97.07c0-.28,0-.8.24-1a.38.38,0,0,1,.51,0c.08,0,.16.13.26.19.72.51,1.42,1.08,2.17,1.57.35.22,1,.45,1.08.93,0,.18-.14.39-.16.55A3.06,3.06,0,0,0,40.24,100.56Z"/>
          <path class="cls-33" d="M50.21,108.56c-1.5-.88-3.43-2-5.5-3.28a6.13,6.13,0,0,1-1.44-2.69,3.45,3.45,0,0,1,0-1.43c.06-.24.19-.39.16-.66.48.27.94.62,1.42.91.82.49,1.62.82,2.42,1.37.18.12.57.25.7.43s0,1.14,0,1.56a4.82,4.82,0,0,0,1.4,3.07C49.67,108.09,49.94,108.32,50.21,108.56Z"/>
          <path class="cls-8" d="M59.64,104.91s-2.44,1.4-3.58,2.14-1.66-.15-2.51-.56S31.05,94,31,93.62a10,10,0,0,1-.44-3.14,2.15,2.15,0,0,1,.32-.34l.85,3,23.62,13.11,3.14-2Z"/>
          <path class="cls-5" d="M97.94,83.42c.11,0,2.5-1.44,2.5-1.44.21-.12.44-.22.52-.44L101,82A14.14,14.14,0,0,1,101,84.9c-.19.75-2.49,1.81-2.49,1.81l-.53-.52Z"/>
          <path class="cls-34" d="M100.79,81.21l-.42-.39-.23.18a4.62,4.62,0,0,0,0,.61c0,.27.17.42-2.25,1.81v2.77l.53.52V83.85S101.76,82.19,100.79,81.21Z"/>
          <path class="cls-35" d="M99,78.12c.06,1.61.12,3,.13,3.09a1.45,1.45,0,0,0,1.66-.46,20.15,20.15,0,0,0,.12-4.32C100.77,77.2,99.91,77.76,99,78.12Z"/>
          <path class="cls-27" d="M100.93,76.44c-.15.76-1,1.32-1.91,1.68,0-.51,0-1,0-1.54,0-1.36-.08-2.59-.08-3l1.92-.92s0,.35,0,.9c0,.12,0,.26,0,.38q0,.48,0,1.05C100.91,75.48,100.92,76,100.93,76.44Z"/>
          <path class="cls-35" d="M100.89,75c-.15.77-1,1.33-1.91,1.7a.81.81,0,0,0,0-.16c0-1.36-.08-2.59-.08-3l1.92-.92s0,.35,0,.9c0,.12,0,.26,0,.38Z"/>
          <path class="cls-36" d="M102.76,71.17,83,81.88l-4.1-3.22c1.68-1,19.52-10.49,19.52-10.49Z"/>
          <path class="cls-11" d="M98.43,74.65a1.54,1.54,0,0,1-.49,1.3c-.34.29-.68.16-.75-.28a1.55,1.55,0,0,1,.48-1.3C98,74.09,98.35,74.21,98.43,74.65Z"/>
          <path class="cls-12" d="M98.48,74.89a1.06,1.06,0,0,1-.34.92c-.24.2-.48.11-.53-.2a1.09,1.09,0,0,1,.34-.92C98.19,74.49,98.43,74.58,98.48,74.89Z"/>
          <path class="cls-11" d="M98.08,75.7c-.38.26-.35-.64-.06-.91l1.9-1.85,1.34-.23Z"/>
          <polygon class="cls-37" points="102.76 71.17 102.76 72.12 83.03 82.84 83.03 81.88 102.76 71.17"/>
          <path class="cls-16" d="M78.48,60.06c-.39.34-.39,2.92-.39,2.92L83,67Z"/>
          <path class="cls-14" d="M84.17,57.05c1.3,1.78,3.56,4.9,4.91,6.78l3-1.59-4.92-6.78Z"/>
          <path class="cls-38" d="M81.16,58.65c1.25,1.71,3.5,4.82,4.9,6.76l3-1.58c-1.35-1.88-3.61-5-4.91-6.78Z"/>
          <path class="cls-14" d="M78.48,60.06,83,67l3-1.59c-1.4-1.94-3.65-5-4.9-6.76Z"/>
          <path class="cls-14" d="M90.19,53.87c1.4,1.92,3.67,5.06,4.92,6.79l3-1.58L93.2,52.27Z"/>
          <path class="cls-38" d="M87.18,55.46l4.92,6.78,3-1.58c-1.25-1.73-3.52-4.87-4.92-6.79Z"/>
          <path class="cls-14" d="M103.06,56.15l-4.5-6.5a.22.22,0,0,0-.28-.07l-2.07,1.1c1.5,2.06,3.8,5.24,4.94,6.82l1.81-1A.26.26,0,0,0,103.06,56.15Z"/>
          <path class="cls-38" d="M93.2,52.27l4.93,6.81,3-1.58c-1.14-1.58-3.44-4.76-4.94-6.82Z"/>
          <path class="cls-16" d="M83,67c0,1.89,3,.48,3-1.59Z"/>
          <path class="cls-39" d="M86.06,65.41c0,1.89,3,.48,3-1.59Z"/>
          <path class="cls-16" d="M89.09,63.82c0,1.89,3,.48,3-1.59Z"/>
          <path class="cls-39" d="M92.12,62.23c0,1.89,3,.49,3-1.59Z"/>
          <path class="cls-16" d="M95.15,60.64c0,1.89,3,.49,3-1.59Z"/>
          <path class="cls-39" d="M98.18,59.05c0,1.89,3,.49,3-1.59Z"/>
          <path class="cls-16" d="M101.21,57.46c0,1.89,2.47,0,1.85-1.31Z"/>
          <path class="cls-14" d="M52.35,64.1l-3.28-1.89-.28-.16c-1.1-.64-2.19-1.27-3.28-1.88q-4.6-2.69-8.95-5.18L34,70.27l.89.51,3.26,1.89.28.16,3.28,1.9L59.16,84.79l1.2-16.06Zm5.89,19L42.49,74l-3.27-1.89-.29-.16L35.67,70l-.5-.3,2.17-13.09,7.42,4.28L48,62.8l.28.17,3.28,1.89,7.69,4.44Z"/>
          <path class="cls-14" d="M101.44,45,78.26,58.39,60.36,68.72C51.45,63.59,37.94,55.87,36.56,55L78.93,32l8.54,4.93,1.9,1.1Z"/>
          <path class="cls-40" d="M84.9,54.56,101.44,45,89.37,38l-1.9-1.1a3.91,3.91,0,0,0-3.6,2L74,39.08l-3.51,7.11A43.62,43.62,0,0,0,64.08,46L44.15,54.41l3.92.8s.56,3.93,1.45,3.85,3.23-.05,3.58-.22S55,61.06,55,61.06s6.09.67,7.41.67S64,62.1,64,62.1s5,0,5.55,0,1.8-.09,1.8-.09l6.72-3.88a2.48,2.48,0,0,0,.19.26l5-2.86A3.08,3.08,0,0,0,84.9,54.56Z"/>
          <path class="cls-2" d="M36.56,55c4,2.19,8,4.51,12,6.76s7.92,4.59,11.83,7c-4-2.2-8-4.51-12-6.76S40.47,57.38,36.56,55Z"/>
          <path class="cls-2" d="M34,70.27c4,2.2,8,4.51,12,6.76s7.93,4.59,11.84,7c-4-2.19-8-4.51-12-6.76S37.94,72.66,34,70.27Z"/>
          <path class="cls-2" d="M30.69,75.44c4,2.4,8,4.92,12,7.38s7.92,5,11.83,7.6c-4-2.4-8-4.92-12-7.38S34.6,78,30.69,75.44Z"/>
          <path class="cls-41" d="M62.66,76.35a.19.19,0,0,0,0-.09,1.3,1.3,0,0,0-.33-.29c-.06,0-.25-.16-.06-.18s.45.32.53.43.21.29.1.46C62.73,76.62,62.71,76.47,62.66,76.35Z"/>
          <path class="cls-41" d="M65.14,75a2,2,0,0,0-.25-.14c-.13-.06-.3,0-.35-.22.29,0,.59.23.82.36a1.22,1.22,0,0,1,.57.55.78.78,0,0,1-.39-.25A4.17,4.17,0,0,0,65.14,75Z"/>
          <path class="cls-41" d="M34.5,55.49l.44.14a1.85,1.85,0,0,1,.37.25c.07,0,.22.14.23.23-.16-.1-.33-.21-.5-.3s-.3-.16-.46-.23l-.25-.08c-.09,0-.18,0-.26,0S34.41,55.46,34.5,55.49Z"/>
          <path class="cls-41" d="M34.3,60.25a.7.7,0,0,1,.25-.76c.07,0,.36-.14.35,0,0,0-.23,0-.25.06a.45.45,0,0,0-.15.21c-.07.15,0,.42-.15.53Z"/>
          <polygon class="cls-42" points="48.03 62.8 38.93 71.91 35.66 70.03 44.76 60.92 48.03 62.8"/>
          <polygon class="cls-42" points="51.59 64.86 42.49 73.96 39.22 72.07 48.31 62.97 51.59 64.86"/>
          <path class="cls-2" d="M32.57,87.47a1.14,1.14,0,0,0-.81,1.16c0,.2.33.27.36.05a.69.69,0,0,1,.63-.56.31.31,0,0,0,.24-.23.37.37,0,0,0,0-.18A.36.36,0,0,0,32.57,87.47Z"/>
          <path class="cls-2" d="M49.28,96.86a.22.22,0,0,0-.23-.13,1.11,1.11,0,0,0-.86.82c-.08.2.24.32.34.14s.28-.44.52-.43a.25.25,0,0,0,.23-.13C49.35,97,49.33,97,49.28,96.86Z"/>
          <path class="cls-2" d="M51.06,100.8s-.07,0-.09,0c-.16.22,0,.48-.09.73,0,0,.06.06.07,0A1.9,1.9,0,0,0,51.06,100.8Z"/>
          <path class="cls-2" d="M50.73,100.84c-.21.09-.23.42-.33.6s0,.08.06,0,.39-.32.39-.58A.08.08,0,0,0,50.73,100.84Z"/>
          <path class="cls-2" d="M34.6,91.72c-.16.17-.25.37-.42.54s.06.21.13.13a2,2,0,0,0,.36-.63A0,0,0,0,0,34.6,91.72Z"/>
          <path class="cls-2" d="M34.3,91.66a.9.9,0,0,0-.45.43c0,.06,0,.15.1.1a1.44,1.44,0,0,0,.42-.43A.06.06,0,0,0,34.3,91.66Z"/>
          <path class="cls-2" d="M37.68,88.86a10.26,10.26,0,0,0-1.1-.55c-.15-.06-.44-.18-.51,0a0,0,0,0,0,.08,0c.08-.23,1.35.48,1.52.53C37.69,88.91,37.7,88.88,37.68,88.86Z"/>
          <path class="cls-2" d="M41,91.62a.59.59,0,0,0-.85.24c0,.07.06.13.11.07.22-.3.45-.23.72-.22C41,91.72,41.06,91.64,41,91.62Z"/>
          <path class="cls-2" d="M37.81,90.71s-.06,0,0,0a7,7,0,0,0,1.17.64,0,0,0,0,0,0,0C38.67,91.05,38.15,91,37.81,90.71Z"/>
          <path class="cls-2" d="M38.25,92.52s0,0,0,0a3.37,3.37,0,0,0,1,.59s.06,0,0,0C39.12,92.81,38.5,92.67,38.25,92.52Z"/>
          <path class="cls-2" d="M45.19,94.88a10.78,10.78,0,0,0-1-.54s0,0,0,0c.32.21.64.42,1,.61C45.2,95,45.24,94.92,45.19,94.88Z"/>
          <path class="cls-2" d="M45.34,96.5a7,7,0,0,0-1-.66.06.06,0,1,0-.06.1c.35.21.73.38,1.07.6C45.34,96.55,45.36,96.52,45.34,96.5Z"/>
          <path class="cls-2" d="M41.16,95.57c-.52-.33-1.09-.59-1.59-.94-.07,0-.13.07-.07.12a6.26,6.26,0,0,0,1.64.86A0,0,0,0,0,41.16,95.57Z"/>
          <path class="cls-2" d="M41.16,97c-.52-.33-1.09-.58-1.59-.93-.07,0-.13.06-.07.11a6.26,6.26,0,0,0,1.64.86A0,0,0,0,0,41.16,97Z"/>
          <path class="cls-6" d="M67.2,102.13c-.42-.14-.86.33-1.08.64a1.91,1.91,0,0,0-.42,1.35c0,.18.3.12.31,0a2.23,2.23,0,0,1,.5-1.17c.22-.24.51-.38.73-.61A.1.1,0,0,0,67.2,102.13Z"/>
          <path class="cls-6" d="M90.71,89.62c-.67-.19-1.37,1.18-1.29,1.73,0,.19.38.15.35,0-.08-.65.71-1.09,1-1.54A.1.1,0,0,0,90.71,89.62Z"/>
          <path class="cls-2" d="M34.3,95.63l0,0a7.2,7.2,0,0,0-.74-.48c-.23-.13-.49-.22-.73-.34a3.81,3.81,0,0,1-2-1.82.05.05,0,0,0-.1,0,3.15,3.15,0,0,0,1.64,1.87c.34.19.7.39,1.06.55s.64.24,1,.38a2,2,0,0,0,.41.15Z"/>
          <path class="cls-43" d="M58.86,95.9c-.74.29-1.46.43-1.42,1.37a.07.07,0,0,0,.13,0c0-.51.27-.67.7-.86a2.07,2.07,0,0,0,.66-.38S58.93,95.87,58.86,95.9Z"/>
          <path class="cls-6" d="M75.77,96.56a2.82,2.82,0,0,1-.93.51c-.27.06-.41-.08-.58-.2a1.32,1.32,0,0,0,.76-.1c.24-.12.44-.27.69-.37C75.8,96.37,75.85,96.51,75.77,96.56Z"/>
          <path class="cls-6" d="M77.32,99.86a2.82,2.82,0,0,1-.93.51c-.27.06-.41-.08-.58-.2a1.26,1.26,0,0,0,.76-.1,6.47,6.47,0,0,1,.69-.36C77.35,99.67,77.4,99.81,77.32,99.86Z"/>
          <g class="cls-1">
            <g>
              <path class="cls-44" d="M49.43,31.88a15.3,15.3,0,0,1-2.93-2.12L53.71,54a8.64,8.64,0,0,0,1.68,1.22Z"/>
              <path class="cls-45" d="M49.43,31.88l6,23.33a12.11,12.11,0,0,0,2.09.93L53.1,33.51A21.21,21.21,0,0,1,49.43,31.88Z"/>
              <path class="cls-45" d="M46.5,29.76a10.37,10.37,0,0,1-2-2.51l8.07,25.31A5.44,5.44,0,0,0,53.71,54Z"/>
              <path class="cls-44" d="M57.32,34.6a28.3,28.3,0,0,1-4.22-1.09l4.38,22.63a16.34,16.34,0,0,0,2.41.62Z"/>
              <path class="cls-45" d="M61.91,35.08a32.57,32.57,0,0,1-4.59-.48l2.57,22.16a18.43,18.43,0,0,0,2.62.28Z"/>
              <path class="cls-44" d="M61.91,35.08l.6,22a19.14,19.14,0,0,0,2.72-.1l1.44-22A33.15,33.15,0,0,1,61.91,35.08Z"/>
              <path class="cls-45" d="M69.07,34.56c-.8.14-1.6.26-2.4.35l-1.44,22c.45,0,.91-.12,1.37-.2s.88-.19,1.3-.3L71.35,34C70.62,34.23,69.86,34.41,69.07,34.56Z"/>
              <path class="cls-44" d="M75.4,32.57A24.34,24.34,0,0,1,71.35,34L67.9,56.44a13.88,13.88,0,0,0,2.31-.84h0Z"/>
              <path class="cls-45" d="M75.4,32.57l-5.19,23a10.37,10.37,0,0,0,1.86-1.1l6.58-23.87A17.24,17.24,0,0,1,75.4,32.57Z"/>
              <path class="cls-45" d="M82.37,25.77A8.42,8.42,0,0,1,81,28.32l-.76,2.49-.38,1.24c-.22.74-.53,1.74-.76,2.48s-.53,1.74-.76,2.49c-.11.37-.26.87-.38,1.24-.22.75-.53,1.74-.75,2.49s-.54,1.74-.76,2.48l-.38,1.25c-.23.74-.54,1.74-.76,2.48s-.54,1.74-.76,2.49c-.12.37-.27.87-.38,1.24l-.76,2.49a5,5,0,0,0,.77-1.46h0Q78.29,38.75,82.37,25.77Z"/>
              <path class="cls-44" d="M78.65,30.63,72.07,54.5a7.37,7.37,0,0,0,1.35-1.32h0c1.4-2.75,1.77-5.8,2.66-8.7l1.14-3.73Q79.11,34.53,81,28.32A11.79,11.79,0,0,1,78.65,30.63Z"/>
            </g>
          </g>
          <ellipse class="cls-46" cx="63.09" cy="23.79" rx="19.6" ry="11.31"/>
          <ellipse class="cls-47" cx="63.09" cy="23.79" rx="18.64" ry="10.76"/>
          <path class="cls-48" d="M85.73,23.49c-.35,1.72-2.52,3.25-4.46,3.25A1.62,1.62,0,0,1,81.46,28a2.76,2.76,0,0,1-2.4,1.55c.68.27.46,1.11-.17,1.59-1.28,1-2.92.85-4.44.9-.07.28,0,.69-.09,1-.32.59-1.68.69-2.28.57a1,1,0,0,1-.3-.1,3.75,3.75,0,0,1-1.11.41c-.86.17-2.46.15-3-.72-.66.93-2.88,1.6-3.62,1.64a2.53,2.53,0,0,1-1.48-.32h0c-.72.84-2.66.94-3.48.65a2.78,2.78,0,0,1-1.86-2.61,2.77,2.77,0,0,1,0-.3c-.17.26-.33.48-.44.63a5.06,5.06,0,0,1-3.68,2A3.4,3.4,0,0,1,49.42,33c-.05-.08-.08-.16-.12-.24A7.45,7.45,0,0,1,49,31.29a2.71,2.71,0,0,1-1.54.19c-1.24-.22-3.18-2.27-1.69-3.39A1.57,1.57,0,0,1,44,27.53c-.77-1-.33-2.53.36-3.43a7.58,7.58,0,0,1-1.49-4.41c.36-4.26,6-7.6,8.8-3.38-.48-2.54-1.45-5.47,1.7-6.88a2.88,2.88,0,0,1,3.63.79c1.24-2.06,5.72-2.87,5.89,0A3.78,3.78,0,0,1,66,7.5a4,4,0,0,1,3.81,1.44c.75-2.62,5.6.46,4.64,2.88.72-1.08,2.6-.88,3.63-.35.85.44,2.3,2.1,2.08,3.28a1.34,1.34,0,0,1,.33-.3c1-.66,2.84,0,3.53.84a3.91,3.91,0,0,1,.6,4.08,3.24,3.24,0,0,1-.47.71l.24.09A3.35,3.35,0,0,1,85.73,23.49Z"/>
          <path class="cls-49" d="M48.68,24.55a3.83,3.83,0,0,0,4.36-2,4.78,4.78,0,0,0-.14-3.78c.52.62.7,1.58,1.34,2.12A2.37,2.37,0,0,0,57,20.72c-.18.59-.82.75-1.18,1.22a1.78,1.78,0,0,0,.26,2.4c-.9-.44-1.69-1.6-2.78-.73a1.41,1.41,0,0,0-.36,1.85c-.5-.3-.78-.68-1.39-.71a3.3,3.3,0,0,0-2.36,1.14C49.11,25.47,48.81,25.15,48.68,24.55Z"/>
          <path class="cls-49" d="M49.11,30.81c0-.23.28-.38.35-.6a2.17,2.17,0,0,0,0-.72,3,3,0,0,0-.28-1.23,1.89,1.89,0,0,0-1.61-.9c.19-.2.46-.31.66-.5a1.34,1.34,0,0,0,2.41-.14c.06.77,0,1,.52,1.52.18.19,0,.27.37.44a3.21,3.21,0,0,0,2.14,0c-.64.38-1.5.22-2.11.58a1.12,1.12,0,0,0-.41.4,1,1,0,0,0-.08.53.78.78,0,0,1,0,.37c-.13-.15,0-.39-.22-.51a1.76,1.76,0,0,0-.71-.28.46.46,0,0,0-.46.13c-.06.08-.17.75-.08.75h-.19C49.31,30.65,49.22,30.8,49.11,30.81Z"/>
          <path class="cls-49" d="M57.16,31c.54-.29.36-1.24.15-1.68a1.45,1.45,0,0,0-1.4-.76c.62-.29.57-1.15.41-1.77a.93.93,0,0,0,1,.28c.74-.28.83-1.53,1.14-2.16a1.84,1.84,0,0,0,0,1.09c.27,1,.86.89,1.54,1.34-.12.36-.46.53-.58,1a1,1,0,0,0,.19,1.16c-.7,0-1.22.17-1.37.94-.14-.1-.28-.24-.45-.24a.74.74,0,0,0,.14.81A1.4,1.4,0,0,0,57.16,31Z"/>
          <path class="cls-49" d="M56.91,16.33a1.45,1.45,0,0,0,1.24-.18,2.41,2.41,0,0,0,.9-1.69c.07-.66.08-1.51-.63-1.81a2,2,0,0,0,.8.12c.23,0,.43-.12.65-.13s.56.21.93.12c.6-.15.79-.75.92-1.28-.15,1.78,2.29,1.22,3.26.74-.37.11-.66.85-.79,1.15-.59,1.28.38,1.82,1.39,2.39-.76.05-1.31-.45-2.06-.46a2,2,0,0,0-2.08,1.89c0-.89.35-2.94-.91-3-.75,0-.91.77-.72,1.41s.52.54-.17.91a1.16,1.16,0,0,0-.61.73c0,.09.26.76.34.73a1.25,1.25,0,0,0-.66.46c-.19.26-.24.64-.58.71.47-.64.43-2.28-.58-2.42-.39-.06-.92.06-.93.51a4.78,4.78,0,0,0-.32-1C56.5,16.26,56.7,16.31,56.91,16.33Z"/>
          <path class="cls-49" d="M66.94,20c-1.41.5-.31,2.95,1,2.61a2.86,2.86,0,0,0,1.38-1.45c0,.36-.14,1,.19,1.19-1.11-.06-.92,1.6-.21,2A2.11,2.11,0,0,0,67.42,24a5.87,5.87,0,0,0-1.75,1.18c1.32-2.43-2.18-1.64-2.13-.88,0-.76.12-1.37-.63-1.76.49.13,1.22,0,1.2-.62.54.59,1-.08.65-.62-.21-.31-.74-.47-1-.7a4.38,4.38,0,0,0-1.44.06c.49-.45.9-.55.88-1.3.81.12,1.28.39,1.75-.52a1.48,1.48,0,0,0,.43.84A2.18,2.18,0,0,0,66.94,20Z"/>
          <path class="cls-49" d="M64.36,31a1.62,1.62,0,0,0,.54-.35,1.89,1.89,0,0,0,.21-.66,2.44,2.44,0,0,0,0-1.17A3.65,3.65,0,0,0,62.41,27c.69,0,.63-.32,1.35-.06.56.2,1.38.62,2,.29s.76-1.29,1-1.85a3.86,3.86,0,0,0,.73,2.85c1,.82,2.61-.23,2.55-1.39,0,.71.31,1.43.23,2.12,0,0-1.61,0-1.75,0-.77.13-.76.92-1.28.94-.05.42.34,1.42-.26,1.56,0-.54-.58-1.71-1.17-1.8-.1.23-.11,1.2.24,1.32a2.6,2.6,0,0,0-1.27,0C64.6,31,64.47,31.07,64.36,31Z"/>
          <path class="cls-49" d="M85.73,23.49c-.35,1.72-2.52,3.25-4.46,3.25A1.62,1.62,0,0,1,81.46,28a2.76,2.76,0,0,1-2.4,1.55c.68.27.46,1.11-.17,1.59-1.28,1-2.92.85-4.44.9-.07.28,0,.69-.09,1-.32.59-1.68.69-2.28.57a1,1,0,0,1-.3-.1,3.75,3.75,0,0,1-1.11.41c-.86.17-2.46.15-3-.72-.66.93-2.88,1.6-3.62,1.64a2.53,2.53,0,0,1-1.48-.32h0c-.72.84-2.66.94-3.48.65a2.78,2.78,0,0,1-1.86-2.61,2.77,2.77,0,0,1,0-.3c-.17.26-.33.48-.44.63a5.06,5.06,0,0,1-3.68,2A3.4,3.4,0,0,1,49.42,33h.41a3,3,0,0,0,2.53-1,10.81,10.81,0,0,1,.83-1.09,2.62,2.62,0,0,0,3.48-.13,2,2,0,0,1,.19.28c-.19.32.52.42.78.46-.18,0,.16,1.55.23,1.69.65,1.7,2.64,1.6,4.17,1.23a6.19,6.19,0,0,0,.67-.19l.2-.08c.29-.13.52-.5.8-.58.45-.14,1,.22,1.57.14.91-.1,1.81-1.38,2.72-1.1a6,6,0,0,0,1.41.4,4.63,4.63,0,0,0,2-.38,5,5,0,0,0,2-1.53c.09-.1,0-.24.16-.3A4,4,0,0,1,74,31a4.05,4.05,0,0,0,2.21-.71,10.39,10.39,0,0,0,2.51-2.61c.83-1.08.65-3,.33-4.25.79.32,2-1.16,2.35-1.63s1.34-2.16.81-2.89c.32-.47,1.11-.29,1.32-1a3.2,3.2,0,0,0-.44-2.17A2,2,0,0,0,81,14.85c.46-.29-.24-.53-.52-.34,0,0,0,0,0-.06,1-.66,2.84,0,3.53.84a3.91,3.91,0,0,1,.6,4.08,3.24,3.24,0,0,1-.47.71l.24.09A3.35,3.35,0,0,1,85.73,23.49Z"/>
          <path class="cls-49" d="M45.91,20.58c-1.25-.62-.29-2.67.76-2.95a1.14,1.14,0,0,1,1.08.15c.27.19.29.44.64.42s.45-.41.76-.25.19.72.24,1c.11.59,1.13,1.69.4,2.25-.21.15-.45,0-.65.15s-.37.52-.69.69c-.65.34-.88-.17-1.43-.25s-1.92.43-1.56-.49C45.52,21.15,45.78,20.86,45.91,20.58Z"/>
          <path class="cls-49" d="M53.33,13.11c-.35-1-.07-3.09,1.53-2.46.77.3.39,1,.41,1.58s0,.3.5.58c1.22.75.59,1.84-.6,2.16-.29.09-.83.25-1.11.07s0-.25.14-.25C52.85,15.59,52.44,13,53.33,13.11Z"/>
          <path class="cls-49" d="M61.84,30.7c.36-.49-.31-.9-.77-.74s-1.25,1-.67,1.52c-.69-.39-.8.92-.26,1.06,0,.76,2.47.63,1.85-.62C62.6,31.66,62.68,30.55,61.84,30.7Z"/>
          <path class="cls-49" d="M61,23.23c.28-.54.23-1.76-.73-1.17.44-.45-.09-1.48-.72-1.34A1.18,1.18,0,0,0,59,22.59c-.53.57-1.08.48-.91,1.21a1.18,1.18,0,0,0,1.46.63c.11.44.67.45,1,.37C61.65,24.57,61.76,23.88,61,23.23Z"/>
          <path class="cls-49" d="M73,23.67a1.25,1.25,0,0,1,1.81-1c.57.4.54.68,1,0,0,.2.15.5.4.5.41,0,.28-.57.27-.82,0-.95,0-1.58.86-2.16a2.47,2.47,0,0,1,1.46-.47c-.5-.05-.69-.55-1.09-.76-.23-.12-.52,0-.71-.22s-.22-.77-.2-1.07a3.17,3.17,0,0,1-1,1.6,1.91,1.91,0,0,1-2-.42c.07.29.28.79.12,1.09-.32.6-1.41.3-1.89.14.12.32.53.31.77.53.53.48.38.84,0,1.28a2.43,2.43,0,0,1,.27,0c.06.45-.16.67-.38,1h.18A1.52,1.52,0,0,1,73,23.67Z"/>
          <path class="cls-49" d="M68.8,11a.6.6,0,0,1,.19-.23c0,.39,0,.82.3,1.09.6.49,1.75-.15,2.2-.6-.14.12-.1.58-.08.84.06,1.24.71.9,1.62,1.13a1.76,1.76,0,0,0-.4,1c-.18,1.82-1.57-1.27-2.13.57-.32-.12-.41-.58-.79-.61s-.71.36-.94.59A4.11,4.11,0,0,1,69,13.61c0-.16,0-.39-.08-.52s-.49-.16-.55,0a.62.62,0,0,0-.08-.62c-.09-.11-.38-.51-.51-.54.35.08.56.47.88.12C68.76,11.89,68.69,11.52,68.8,11Z"/>
          <path class="cls-49" d="M70.93,17.4c-.11-.29-.63-.59-.9-.41a1.23,1.23,0,0,0-.72-.73,1.12,1.12,0,0,0-1.08.72,1.23,1.23,0,0,0-.14.39.86.86,0,0,0-.78,1,1.27,1.27,0,0,0,1.32.69c.15.44.93.57,1.28.49s.89-.34.75-.81a.49.49,0,0,0-.11-.18A1.24,1.24,0,0,0,70.93,17.4Z"/>
          <path class="cls-49" d="M75,27.41a1.31,1.31,0,0,0,.64-1.34.66.66,0,0,0-.74-.43,1.23,1.23,0,0,0,0-.19,1.26,1.26,0,0,0-1.17-1.13,2.11,2.11,0,0,0-2,1.22.9.9,0,0,0-.4.82c0,.31.19.65.52.68L72,27a1.66,1.66,0,0,0,.81.63.69.69,0,0,0,.53-.19c-.33.55.83,1.41,1.46,1.21.38-.12.77-.42.62-.87A.53.53,0,0,0,75,27.41Zm-1.49-.1h0Z"/>
          <path class="cls-49" d="M77.52,14.51c.38-.44.33-1.52-.22-1.65s-1.77.71-1.74,1.39c0-1.48-2.19.7-.64,1.42l.12,0a1.41,1.41,0,0,0,0,.91c.24.35,1.08.19,1.5-.13a1.35,1.35,0,0,0,1.61-.88A1.58,1.58,0,0,0,77.52,14.51Z"/>
          <path class="cls-49" d="M81.1,17c.55-.38.44-1.55-.4-1.24a1.05,1.05,0,0,0-.64,1.08c-.54,0-1.43.51-1.18,1.2a1.32,1.32,0,0,0,1.19.79.49.49,0,0,0,.22-.1s0,.09.06.12c.24.18.59-.09.76-.25C81.49,18.24,81.85,17.23,81.1,17Z"/>
          <path class="cls-49" d="M66.71,9.15c.3-.2.82-.77.13-.86a1.39,1.39,0,0,0-1.13.57A1.81,1.81,0,0,0,64.21,10c-.11.31.15,1,.52.85.5.29,2.16-.2,1.82-.61.29.27,1-.31,1-.63C67.62,9.08,67.08,9.1,66.71,9.15Z"/>
          <path class="cls-50" d="M58.4,56.86h0v0l0-.09,0-.1,0-.11V54.21l0-.1V54l0-.09v-.08l0-.08,0-.07,0-.07,0-.06,0-.07,0-.07,0-.06,0-.07,0-.06,0-.06L58,53.12l0-.06L57.93,53,57.87,53l-.06-.05-.07-.06-.08-.05-.07,0-.09-.05-.08,0-.1,0-.09-.05-.1,0L57,52.44l-.11,0-.11,0-.13,0-.13-.05-.14,0,0,0-.09,0-.16,0-.11,0-.05,0-.17,0-.18,0-.18-.05-.19,0-.2,0-1.69-.52-.17,0-1-.3v6.73h0V60.2l1.7.52,1.13.34V57.35l.8.18.16,0,.16,0,.15,0h.15l.14,0h.75l.11,0,.1,0,.09,0,.09,0,.09,0,.08,0,.08,0,.07,0,.06,0,.06-.05,0-.06.05-.05,0-.06,0-.07,0-.07,0-.08ZM56,54.5v1.12l0,0,0,0,0,0,0,0,0,0,0,0,0,0h-.44l-.07,0H55V53.42l.1,0,.08,0,.09,0,.07,0,.08,0,.06,0,.06,0,.06,0,0,0,0,0,0,0,0,0,0,0,0,0,0,0,0,0,0,0V54l0,.06v.45Z"/>
          <path class="cls-50" d="M50.65,58.83l0,0,0,0h0l0,0,0-.06.05-.06,0-.07,0-.06,0-.07,0-.08,0-.08,0-.08,0-.08,0-.09v-.09l0-.09V52.29l0-.1,0-.1,0-.1,0-.1,0-.11,0-.1,0-.11-.05-.1-.06-.11-.05-.11-.06-.11,0-.07,0,0-.07-.11-.07-.1-.07-.11-.08-.1-.08-.1-.08-.1-.09-.09-.09-.1-.09-.09-.09-.1-.1-.09-.1-.09,0,0-.05,0-.1-.09-.1-.08-.11-.08-.1-.08L49,49.37l-.11-.08-.11-.07-.09-.06,0,0-.11-.07L48.41,49l-.12-.07-.11-.06-.12-.07-.1,0-.11,0-.1-.05-.09,0-.1,0-.09,0-.07,0h0l-.08,0-.08,0h-.43l-.06,0,0,0,0,0-.06,0,0,0-.05,0,0,0,0,0,0,0,0,.05,0,.06,0,.06,0,.06,0,.06h0l0,.07v.08l0,.08v2.37h0v3.53l0,.11,0,.11,0,.11,0,.11,0,.11,0,.11,0,.11,0,.12,0,.12,0,.11,0,.12.05.12.06.11.05.12.06.11.06.11.06.11.07.1.07.11.07.1.08.1.08.11.08.09.08.1.09.09.09.09.09.09.1.09.1.08.1.08.1.08.11.08.1.07.12.07.11.07.12.06.12.06.11.05.11,0,.11,0,.11,0,.11,0,.1,0,.11,0h.57l.08,0,.08,0,.08,0,.08,0,.07,0,.07,0,.06,0,0,0Zm-1.89-5.28v3.5l0,0,0,0h-.19l0,0,0,0,0,0,0,0,0,0,0,0,0,0,0,0,0,0,0,0V51h0v-.45l0,0h.23l0,0,0,0,0,0,0,0,0,0,0,0h0l0,0,0,0,0,0,0,0v0l0,0v2.68Z"/>
          <path class="cls-50" d="M44.15,50.86V50.7l.31.46.06.09.07.08.06.08.06.07.06.07.06.06.06,0,.06.05,0,0,.06,0,0,0,0,0,.05,0h.2l0,0h0l0,0,0,0,0,0,0,0,0-.05,0,0,0-.06v-.07l0-.07V48.27l0-.07v-.08l0-.08V48l0-.08,0-.08,0-.08,0-.08,0-.07,0-.08,0-.08,0-.08,0-.08,0-.08,0-.08,0-.08,0-.08,0-.08,0-.09,0-.08,0-.08h0l0-.08,0-.09,0-.08-.06-.09-.06-.1-.06-.09-.06-.1-.06-.1-.07-.1-.06-.11-.07-.11-.07-.11-.08-.11-.07-.12-.74-1.61-.08-.17v9.22l.74,1.61.07.16V50.86Zm0-3.52v-.57l0,0,0,.06,0,0,0,0,0,.05,0,0,0,.05,0,0,0,0v.05l0,0v.09l0,0v2h-.09l0,0,0,0,0,0,0,0,0,0,0,0h0v0h0Z"/>
          <polygon class="cls-50" points="66.85 55.24 66.84 55.05 66.83 54.87 66.81 54.7 66.79 54.54 66.76 54.39 66.73 54.25 66.7 54.12 66.66 53.99 66.62 53.88 66.57 53.78 66.52 53.69 66.46 53.6 66.39 53.51 66.32 53.42 66.23 53.34 66.13 53.27 66.03 53.19 65.92 53.12 65.8 53.06 65.67 52.99 65.53 52.93 65.38 52.87 65.22 52.82 65.06 52.77 64.89 52.73 64.72 52.69 64.53 52.66 64.34 52.63 64.14 52.6 63.94 52.59 63.73 52.57 63.51 52.56 63.28 52.56 63.05 52.56 62.88 52.56 62.71 52.57 62.55 52.58 62.38 52.59 62.22 52.6 62.07 52.62 61.92 52.64 61.77 52.66 61.62 52.69 61.48 52.72 61.34 52.75 61.21 52.79 61.08 52.83 60.95 52.87 60.83 52.92 60.71 52.96 60.6 53.01 60.5 53.06 60.39 53.12 60.3 53.18 60.21 53.24 60.12 53.3 60.04 53.37 59.96 53.44 59.89 53.51 59.82 53.58 59.76 53.65 59.7 53.73 59.65 53.8 59.6 53.88 59.56 53.95 59.52 54.03 59.49 54.11 59.46 54.19 59.44 54.27 59.42 54.35 59.41 54.43 59.4 54.52 59.38 54.62 59.37 54.73 59.36 54.84 59.35 54.96 59.35 55.09 59.34 55.23 59.34 55.37 59.34 55.52 59.33 55.67 59.33 55.83 59.33 57.61 59.33 58.53 59.34 58.75 59.34 58.96 59.35 59.16 59.37 59.36 59.38 59.54 59.41 59.72 59.43 59.89 59.46 60.05 59.5 60.19 59.53 60.33 59.58 60.46 59.63 60.59 59.68 60.7 59.74 60.81 59.81 60.92 59.89 61.03 59.98 61.13 60.07 61.23 60.17 61.32 60.29 61.41 60.41 61.5 60.54 61.58 60.68 61.66 60.83 61.73 60.98 61.8 61.14 61.87 61.31 61.92 61.49 61.98 61.67 62.02 61.86 62.06 62.06 62.09 62.26 62.12 62.47 62.14 62.69 62.16 62.91 62.17 63.14 62.17 63.37 62.16 63.58 62.15 63.79 62.13 64 62.1 64.2 62.06 64.39 62.02 64.57 61.97 64.75 61.91 64.93 61.85 65.1 61.78 65.26 61.7 65.41 61.62 65.56 61.53 65.7 61.44 65.83 61.35 65.95 61.26 66.06 61.16 66.17 61.06 66.26 60.97 66.34 60.87 66.42 60.77 66.49 60.66 66.54 60.56 66.59 60.46 66.64 60.35 66.67 60.23 66.71 60.09 66.74 59.95 66.77 59.8 66.79 59.63 66.81 59.45 66.83 59.26 66.84 59.06 66.85 58.85 66.86 58.63 66.86 58.4 66.86 58.04 65.09 58.17 63.68 58.27 63.68 59.43 63.68 59.55 63.68 59.67 63.68 59.77 63.67 59.87 63.66 59.97 63.66 60.05 63.65 60.13 63.63 60.2 63.62 60.26 63.61 60.31 63.59 60.36 63.57 60.39 63.55 60.43 63.53 60.46 63.5 60.48 63.47 60.51 63.44 60.53 63.4 60.55 63.36 60.57 63.32 60.58 63.27 60.59 63.22 60.6 63.16 60.6 63.1 60.61 63.04 60.61 62.99 60.6 62.94 60.59 62.89 60.59 62.84 60.57 62.8 60.56 62.76 60.54 62.73 60.52 62.7 60.49 62.67 60.47 62.65 60.44 62.63 60.4 62.61 60.37 62.59 60.32 62.58 60.27 62.57 60.21 62.55 60.15 62.55 60.08 62.54 60.01 62.53 59.92 62.52 59.83 62.52 59.74 62.52 59.63 62.52 59.52 62.52 57.75 62.52 55.98 62.52 55.24 62.52 55.13 62.52 55.02 62.52 54.92 62.53 54.83 62.54 54.74 62.55 54.66 62.55 54.59 62.56 54.54 62.57 54.53 62.58 54.47 62.59 54.42 62.61 54.37 62.63 54.33 62.65 54.3 62.67 54.27 62.7 54.24 62.73 54.22 62.76 54.19 62.8 54.17 62.85 54.16 62.9 54.15 62.95 54.13 63 54.13 63.06 54.12 63.13 54.12 63.18 54.12 63.24 54.12 63.29 54.13 63.33 54.14 63.38 54.15 63.42 54.16 63.45 54.17 63.48 54.19 63.51 54.21 63.53 54.22 63.54 54.23 63.56 54.26 63.58 54.29 63.6 54.32 63.61 54.36 63.63 54.41 63.64 54.46 63.65 54.52 63.66 54.59 63.66 54.67 63.67 54.75 63.68 54.84 63.68 54.94 63.68 55.05 63.68 55.16 63.68 56.3 63.68 56.76 65.45 56.63 66.15 56.58 66.32 56.57 66.86 56.53 66.86 55.65 66.86 55.44 66.85 55.24"/>
          <path class="cls-50" d="M80,53.76v-1.4l0,0v-.06l0,0,0,0,0,0,0,0,0,0,0,0,0,0,0,0h-.28l-.07,0-.07,0-.07,0-.08,0-.09,0,.1-.09.08-.1.09-.09h0l.06-.09.07-.09.07-.09.06-.1,0-.09h0l0-.1,0-.09,0-.09,0-.09,0-.1,0-.1,0-.11,0-.12,0-.12,0-.13v-.77h0V49l0-.15v-.14l0-.13,0-.12,0-.1,0-.09,0-.08,0-.07,0,0,0-.05,0,0,0,0,0,0-.06,0h-.18l-.06,0-.07,0-.07,0L79,48,79,48l-.09.06-.11.06-.12.08-.14.09-.15.1-.16.11-.18.12-.2.13-.22.14L77.5,49l-.14.08-.25.16-.47.25-1,.53-.2.11v9.22L77,58.46l.73-.42V53.88l.07,0,.06,0,.06,0,.06,0,.05,0,0,0h.16l0,0,0,0v3.89l1.34-1.16.3-.26V53.76Zm-1.64-2.58v.64l0,0,0,.05h0l0,0,0,0,0,0,0,0,0,0,0,0,0,0,0,0,0,0,0,0,0,0-.05,0,0,0-.06,0V50.4l.06,0,0,0,.06,0,0,0,0,0,0,0h.23v0l0,0v.91Z"/>
          <path class="cls-50" d="M74.37,58.34l0-.11,0-.1,0-.1v-.9h0V52.3l0-.08,0-.08,0-.08,0-.08,0-.07,0-.07-.05-.07,0-.07,0-.06-.06-.06-.07,0-.06-.05-.07,0-.08,0-.08,0-.08,0-.09,0-.09,0-.09,0-.07,0h-1l-.13,0-.13,0-.14,0-.13,0-.14,0-.15,0-.14,0-.16,0-.15.05-.15,0-.15.05-.14,0-.09,0-.06,0-.13.06-.09,0,0,0-.13.06-.13.06L69.8,52l-.12.06-.12.07-.12.08-.11.07-.11.07-.11.08-.1.08-.09.08-.1.08-.08.09-.09.09-.08.09-.07.09-.07.09-.07.09-.06.1-.06.09,0,.09,0,.1,0,.09,0,.1,0,.1L68,54l0,.1,0,.1v.1l0,.12v5.32l0,.09,0,.09L68,60l0,.08,0,.09,0,.08,0,.08.06.07.06.08.06.07.07.07.07.07.08.07.08.06.09,0,.09.06L69,61l.1,0,.1,0,.11,0,.11,0,.11,0,.12,0h.9l.14,0,.14,0,.14,0,.14,0,.15,0,.15,0,.15,0,.15,0,.15-.05.14-.06.14-.05.14-.07.13-.06.13-.07.12-.07.12-.07.12-.08.11-.08.11-.08.11-.09.1-.08.1-.09.09-.09.09-.1.08-.09.08-.1.08-.1.07-.1.07-.1.07-.1.06-.11.05-.1.06-.11,0-.1,0-.1,0-.11h0l0-.1Zm-2.57-2.7v3.48l0,0v0l0,0,0,0,0,0,0,0,0,0,0,0,0,0,0,0,0,0,0,0-.05,0H71l0,0,0,0v-6l0-.06v0l0,0,0,0,0,0,0,0,0,0,0,0,0,0,0,0h0l0,0,0,0h0l0,0h.29l0,0h0l0,0v0l0,0v0l0,0v2.5Z"/>
          <polygon class="cls-50" points="82.04 43.92 82.04 45.69 82.04 47.46 82.04 48.07 81.78 46.31 81.57 44.91 80.57 46.34 80.57 47.88 80.57 49.65 80.57 49.75 80.57 51.53 80.57 53.02 80.57 54.79 80.57 55.55 81.57 54.13 81.57 53.15 81.57 51.58 81.57 49.94 81.81 51.7 82.01 53.21 82.45 51.62 82.45 49.84 82.45 48.07 82.45 46.3 82.45 44.52 82.45 42.75 82.45 42.4 82.04 43.92"/>
          <g>
            <polygon class="cls-51" points="56.12 57.59 55.96 57.56 55.8 57.53 55 57.35 55 57.51 55 59.29 55 61.06 56.06 59.64 56.35 59.26 56.35 57.63 56.27 57.62 56.12 57.59"/>
            <polygon class="cls-51" points="55.06 55.78 55.08 55.79 55.1 55.79 55.12 55.8 55.14 55.8 55.16 55.81 55.17 55.81 55.19 55.81 55.2 55.82 55.22 55.82 55.29 55.84 55.35 55.85 55.41 55.86 55.47 55.86 55.52 55.86 55.57 55.86 55.61 55.86 55.66 55.85 55.69 55.84 55.73 55.83 55.76 55.81 55.79 55.79 55.82 55.77 55.84 55.74 55.86 55.7 55.88 55.66 55.9 55.62 55.91 55.56 55.92 55.51 55.93 55.45 55.94 55.38 55.95 55.31 55.95 55.23 55.95 55.15 55.95 54.5 55.95 54.39 55.95 54.31 55.95 54.24 55.94 54.17 55.93 54.11 55.92 54.05 55.9 53.99 55.89 53.94 55.87 53.89 55.85 53.85 55.82 53.8 55.8 53.77 55.77 53.74 55.73 53.71 55.69 53.68 55.65 53.65 55.6 53.62 55.54 53.59 55.48 53.57 55.41 53.54 55.34 53.52 55.27 53.49 55.18 53.47 55.1 53.44 55 53.42 55 53.99 55 55.76 55.02 55.77 55.04 55.78 55.06 55.78"/>
            <polygon class="cls-51" points="59.25 52.88 59.25 52.75 59.24 52.63 59.24 52.51 59.23 52.4 59.22 52.3 59.21 52.2 59.2 52.1 59.19 52.02 59.17 51.94 59.15 51.87 59.14 51.79 59.12 51.73 59.09 51.66 59.07 51.59 59.04 51.53 59.01 51.46 58.97 51.4 58.94 51.34 58.9 51.28 58.86 51.22 58.81 51.16 58.77 51.11 58.72 51.05 58.67 51 58.61 50.95 58.55 50.9 58.48 50.85 58.42 50.8 58.34 50.75 58.27 50.7 58.19 50.66 58.1 50.61 58.02 50.57 57.93 50.53 57.83 50.49 57.73 50.45 57.62 50.4 57.51 50.36 57.38 50.32 57.26 50.28 57.12 50.24 56.98 50.2 56.84 50.16 56.69 50.13 56.53 50.09 56.37 50.04 54.67 49.53 54.01 49.33 53.01 50.23 53 50.21 52.97 50.11 52.93 50.01 52.89 49.91 52.85 49.8 52.8 49.7 52.75 49.6 52.7 49.49 52.64 49.39 52.58 49.3 52.52 49.2 52.46 49.1 52.39 49.01 52.32 48.92 52.25 48.83 52.18 48.74 52.1 48.66 52.03 48.57 51.95 48.49 51.86 48.41 51.78 48.33 51.7 48.25 51.61 48.18 51.52 48.11 51.44 48.04 51.35 47.97 51.26 47.9 51.17 47.84 51.08 47.78 50.98 47.72 50.89 47.66 50.79 47.6 50.7 47.55 50.61 47.5 50.52 47.45 50.43 47.41 50.35 47.38 50.27 47.35 50.19 47.32 50.12 47.3 50.05 47.28 49.98 47.27 49.91 47.26 49.84 47.25 49.78 47.26 49.72 47.26 49.66 47.27 49.61 47.28 49.56 47.3 48.77 47.63 48.63 47.69 48.62 47.64 48.62 47.55 48.61 47.46 48.6 47.38 48.59 47.3 48.58 47.23 48.57 47.15 48.56 47.08 48.54 47 48.53 46.92 48.51 46.85 48.49 46.77 48.47 46.7 48.45 46.63 48.43 46.55 48.41 46.48 48.38 46.41 48.36 46.33 48.33 46.26 48.3 46.19 48.27 46.11 48.24 46.04 48.2 45.96 48.17 45.89 48.13 45.81 48.09 45.74 48.05 45.66 48.01 45.59 47.97 45.51 47.93 45.43 47.88 45.35 47.83 45.27 47.78 45.19 47.73 45.1 47.67 45.01 47.62 44.93 47.56 44.84 47.5 44.74 47.44 44.65 47.38 44.55 46.7 43.07 44.94 43.25 43.34 43.42 43.42 43.59 44.16 45.2 44.23 45.32 44.3 45.43 44.38 45.54 44.45 45.65 44.51 45.76 44.58 45.86 44.64 45.96 44.7 46.06 44.76 46.15 44.82 46.25 44.88 46.34 44.93 46.42 44.98 46.51 45.02 46.59 45.02 46.6 45.07 46.68 45.12 46.76 45.16 46.85 45.2 46.93 45.24 47.01 45.28 47.09 45.31 47.17 45.34 47.25 45.38 47.33 45.41 47.41 45.43 47.49 45.46 47.57 45.48 47.65 45.51 47.72 45.53 47.8 45.55 47.88 45.57 47.96 45.58 48.04 45.6 48.12 45.61 48.2 45.63 48.27 45.64 48.35 45.65 48.44 45.66 48.52 45.67 48.62 45.67 48.71 45.68 48.82 45.69 48.93 45.69 49.04 45.69 49.14 45.69 49.16 45.7 49.29 45.7 49.42 45.7 49.55 45.7 49.69 45.7 50.39 45.7 50.5 45.7 50.64 45.7 50.77 45.69 50.9 45.69 51.02 45.68 51.13 45.67 51.23 45.66 51.32 45.65 51.41 45.63 51.48 45.62 51.55 45.6 51.61 45.58 51.66 45.56 51.71 45.53 51.75 45.51 51.78 45.48 51.81 45.45 51.83 45.45 51.83 45.44 51.83 45.41 51.85 45.41 51.85 45.38 51.86 45.34 51.86 45.3 51.87 45.25 51.86 45.21 51.85 45.16 51.83 45.11 51.81 45.06 51.78 45 51.75 44.95 51.71 44.89 51.66 44.83 51.61 44.77 51.55 44.71 51.48 44.65 51.41 44.59 51.33 44.52 51.25 44.46 51.16 44.15 50.7 44.15 50.86 44.15 52.64 44.15 54.41 45.89 54.06 46.14 54.01 46.14 53.97 46.14 53.78 46.13 53.58 46.13 53.37 46.13 53.15 46.13 52.92 46.13 52.35 46.13 51.63 46.13 51.62 46.13 51.62 46.13 51.62 46.13 51.34 46.13 51.12 46.13 50.9 46.13 50.7 46.14 50.51 46.14 50.33 46.14 50.3 46.14 50.17 46.15 50.01 46.15 49.87 46.16 49.74 46.16 49.62 46.17 49.51 46.18 49.42 46.19 49.33 46.2 49.25 46.22 49.17 46.23 49.09 46.25 49.02 46.26 49.01 46.28 48.95 46.3 48.89 46.33 48.83 46.37 48.77 46.4 48.72 46.44 48.67 46.46 48.65 46.48 48.62 46.53 48.58 46.58 48.55 46.63 48.52 46.68 48.49 46.73 48.47 46.79 48.45 46.86 48.44 46.92 48.44 46.99 48.44 47.06 48.44 47.14 48.45 47.22 48.46 47.3 48.48 47.38 48.51 47.4 48.51 47.47 48.53 47.56 48.57 47.66 48.61 47.75 48.65 47.85 48.7 47.96 48.75 48.06 48.8 48.17 48.87 48.29 48.93 48.41 49 48.52 49.07 48.63 49.14 48.65 49.16 48.74 49.22 48.85 49.29 48.96 49.37 49.07 49.45 49.17 49.53 49.28 49.61 49.38 49.69 49.48 49.78 49.53 49.82 49.58 49.86 49.68 49.95 49.78 50.04 49.87 50.14 49.96 50.23 50.05 50.33 50.14 50.42 50.22 50.52 50.3 50.62 50.38 50.72 50.45 50.83 50.52 50.93 50.59 51.04 50.61 51.07 50.66 51.14 50.72 51.25 50.77 51.36 50.83 51.47 50.88 51.57 50.92 51.68 50.96 51.78 51 51.89 51.03 51.99 51.05 52.09 51.08 52.19 51.1 52.29 51.11 52.4 51.12 52.5 51.13 52.62 51.14 52.75 51.15 52.89 51.16 53.04 51.17 53.2 51.17 53.38 51.18 53.56 51.18 53.76 51.18 53.97 51.19 54.19 51.19 54.42 51.19 56 51.19 56.22 51.18 56.44 51.18 56.64 51.18 56.83 51.17 57.01 51.17 57.18 51.16 57.33 51.15 57.48 51.15 57.61 51.14 57.73 51.13 57.84 51.11 57.93 51.1 58.02 51.08 58.11 51.06 58.2 51.03 58.27 51 58.35 50.97 58.43 50.93 58.5 50.89 58.56 50.84 58.63 50.79 58.69 50.73 58.75 50.7 58.78 50.7 58.78 50.68 58.8 50.65 58.83 50.64 58.83 50.61 58.85 50.96 58.6 51.91 57.91 52.17 57.72 52.17 57.72 52.17 57.72 52.17 57.71 52.17 57.71 52.17 57.59 52.17 56.3 52.17 54.53 52.17 52.76 52.17 50.98 53.16 51.28 53.33 51.33 55.02 51.84 55.22 51.89 55.41 51.94 55.59 51.99 55.77 52.03 55.94 52.08 55.99 52.09 56.1 52.13 56.26 52.17 56.35 52.2 56.4 52.22 56.54 52.26 56.67 52.31 56.8 52.35 56.91 52.4 57.02 52.44 57.13 52.49 57.23 52.54 57.33 52.59 57.42 52.63 57.5 52.69 57.59 52.74 57.66 52.79 57.74 52.84 57.81 52.9 57.87 52.95 57.93 53.01 57.99 53.06 58.04 53.12 58.09 53.18 58.13 53.24 58.18 53.3 58.22 53.37 58.26 53.43 58.29 53.5 58.32 53.56 58.35 53.63 58.38 53.7 58.4 53.77 58.42 53.85 58.43 53.93 58.45 54.02 58.47 54.11 58.48 54.21 58.49 54.31 58.5 54.42 58.51 54.54 58.51 54.66 58.52 54.79 58.52 54.93 58.52 55.07 58.52 55.87 58.52 56.02 58.51 56.15 58.5 56.28 58.49 56.4 58.48 56.52 58.46 56.63 58.44 56.73 58.41 56.82 58.4 56.86 58.4 56.86 58.38 56.91 58.35 56.99 58.98 55.42 59.09 55.15 59.12 55.08 59.15 55 59.17 54.91 59.19 54.82 59.21 54.72 59.22 54.61 59.23 54.49 59.24 54.37 59.25 54.24 59.25 54.1 59.26 53.96 59.26 53.16 59.26 53.02 59.25 52.88"/>
            <polygon class="cls-51" points="62.71 52.57 62.88 52.56 63.05 52.56 63.28 52.56 63.51 52.56 63.73 52.57 63.94 52.59 64.14 52.6 64.34 52.63 64.53 52.66 64.72 52.69 64.89 52.73 65.06 52.77 65.22 52.82 65.38 52.87 65.53 52.93 65.67 52.99 65.8 53.06 65.92 53.12 66.03 53.19 66.13 53.27 66.23 53.34 66.32 53.42 66.39 53.51 66.46 53.6 66.52 53.69 66.57 53.78 66.62 53.88 66.66 53.99 66.08 52.32 65.95 51.96 65.92 51.86 65.88 51.77 65.83 51.67 65.77 51.58 65.7 51.5 65.63 51.42 65.55 51.34 65.47 51.26 65.38 51.19 65.28 51.12 65.17 51.05 65.05 50.99 64.93 50.93 64.8 50.88 64.67 50.83 64.53 50.78 64.38 50.74 64.23 50.71 64.07 50.68 63.91 50.65 63.74 50.63 63.56 50.62 63.38 50.61 63.2 50.6 63 50.6 62.86 50.6 62.72 50.61 62.59 50.62 62.45 50.63 62.32 50.65 62.19 50.66 62.07 50.68 61.94 50.71 61.82 50.74 61.7 50.77 61.59 50.8 61.48 50.84 61.37 50.88 61.27 50.92 61.17 50.97 61.07 51.02 60.98 51.07 60.89 51.12 60.81 51.17 60.73 51.23 60.65 51.3 60.58 51.36 60.51 51.43 60.45 51.5 60.39 51.57 60.33 51.64 60.28 51.72 60.23 51.79 60.19 51.87 60.15 51.94 60.12 52.02 60.09 52.1 60.06 52.18 59.94 52.56 59.46 54.19 59.49 54.11 59.52 54.03 59.56 53.95 59.6 53.88 59.65 53.8 59.7 53.73 59.76 53.65 59.82 53.58 59.89 53.51 59.96 53.44 60.04 53.37 60.12 53.3 60.21 53.24 60.3 53.18 60.39 53.12 60.49 53.06 60.6 53.01 60.71 52.96 60.83 52.92 60.95 52.87 61.08 52.83 61.21 52.79 61.34 52.75 61.48 52.72 61.62 52.69 61.77 52.66 61.92 52.64 62.07 52.62 62.22 52.6 62.38 52.59 62.55 52.58 62.71 52.57"/>
            <polygon class="cls-51" points="44.18 49.15 44.18 49.16 44.19 49.18 44.2 49.19 44.2 49.2 44.21 49.21 44.22 49.22 44.22 49.23 44.23 49.24 44.23 49.25 44.26 49.28 44.28 49.32 44.3 49.35 44.33 49.37 44.35 49.39 44.37 49.41 44.38 49.42 44.4 49.43 44.41 49.43 44.43 49.43 44.44 49.42 44.45 49.41 44.46 49.4 44.47 49.38 44.48 49.35 44.49 49.32 44.49 49.28 44.5 49.23 44.51 49.18 44.51 49.12 44.51 49.06 44.51 49.04 44.52 48.99 44.52 48.91 44.52 48.83 44.52 48.07 44.52 47.99 44.52 47.92 44.51 47.85 44.51 47.78 44.5 47.72 44.5 47.66 44.49 47.6 44.48 47.54 44.48 47.49 44.47 47.44 44.45 47.4 44.44 47.35 44.43 47.31 44.41 47.27 44.4 47.22 44.38 47.18 44.36 47.13 44.33 47.08 44.31 47.03 44.28 46.98 44.25 46.93 44.22 46.88 44.19 46.82 44.15 46.77 44.15 47.34 44.15 49.12 44.16 49.13 44.17 49.14 44.18 49.15"/>
            <polygon class="cls-51" points="48.75 51.57 48.75 51.48 48.75 51.39 48.74 51.31 48.74 51.23 48.73 51.17 48.73 51.1 48.72 51.05 48.71 50.99 48.7 50.95 48.69 50.91 48.68 50.88 48.66 50.84 48.65 50.81 48.63 50.77 48.61 50.74 48.59 50.72 48.56 50.69 48.56 50.68 48.54 50.66 48.51 50.64 48.48 50.61 48.45 50.59 48.42 50.57 48.39 50.55 48.36 50.54 48.34 50.53 48.31 50.52 48.29 50.52 48.27 50.51 48.24 50.51 48.22 50.52 48.2 50.52 48.19 50.53 48.17 50.54 48.16 50.55 48.14 50.57 48.13 50.6 48.12 50.63 48.11 50.68 48.1 50.73 48.09 50.8 48.08 50.87 48.08 50.95 48.07 51.02 48.07 51.03 48.07 51.03 48.07 51.03 48.07 51.04 48.07 51.13 48.07 51.24 48.07 51.35 48.07 52.11 48.07 53.88 48.07 55.66 48.07 55.79 48.07 55.91 48.07 56.02 48.07 56.13 48.08 56.23 48.08 56.32 48.09 56.4 48.09 56.47 48.1 56.54 48.11 56.59 48.12 56.65 48.13 56.69 48.14 56.72 48.15 56.76 48.16 56.79 48.18 56.83 48.2 56.86 48.22 56.89 48.25 56.92 48.27 56.95 48.3 56.97 48.33 57 48.37 57.02 48.4 57.05 48.44 57.07 48.47 57.08 48.5 57.09 48.53 57.1 48.56 57.1 48.59 57.1 48.61 57.1 48.63 57.09 48.65 57.07 48.66 57.05 48.68 57.03 48.69 57 48.7 56.97 48.71 56.92 48.72 56.87 48.73 56.81 48.73 56.74 48.74 56.66 48.74 56.58 48.75 56.48 48.75 56.38 48.75 56.26 48.76 56.14 48.76 56.01 48.76 55.32 48.76 53.55 48.76 51.77 48.76 51.67 48.75 51.57"/>
            <polygon class="cls-51" points="78.35 50.54 78.35 50.48 78.34 50.43 78.33 50.38 78.32 50.34 78.31 50.3 78.3 50.27 78.28 50.24 78.27 50.22 78.25 50.2 78.23 50.2 78.2 50.19 78.18 50.19 78.15 50.19 78.12 50.2 78.08 50.21 78.04 50.23 78 50.24 77.95 50.27 77.91 50.29 77.85 50.32 77.8 50.36 77.74 50.4 77.74 51.38 77.74 51.71 77.74 52.45 77.8 52.41 77.85 52.37 77.9 52.33 77.95 52.29 77.99 52.26 78.03 52.22 78.07 52.18 78.11 52.14 78.14 52.11 78.17 52.07 78.2 52.04 78.22 52 78.24 51.96 78.26 51.92 78.26 51.92 78.28 51.87 78.3 51.82 78.31 51.76 78.32 51.69 78.33 51.62 78.34 51.59 78.34 51.55 78.35 51.46 78.35 51.38 78.36 51.28 78.36 51.18 78.36 50.68 78.36 50.61 78.35 50.54"/>
            <polygon class="cls-51" points="78.35 54.31 78.35 54.21 78.35 54.12 78.34 54.04 78.33 53.96 78.32 53.9 78.31 53.84 78.3 53.79 78.29 53.75 78.28 53.72 78.26 53.7 78.24 53.68 78.22 53.67 78.22 53.67 78.19 53.67 78.16 53.67 78.12 53.68 78.08 53.69 78.04 53.71 77.99 53.73 77.93 53.76 77.87 53.8 77.81 53.84 77.74 53.88 77.74 54.36 77.74 54.77 77.74 55.46 77.74 55.56 77.74 57.33 78.36 57.61 78.36 56.72 78.36 54.95 78.36 54.54 78.36 54.42 78.35 54.31"/>
            <polygon class="cls-51" points="71.8 53.67 71.8 53.58 71.8 53.5 71.79 53.42 71.78 53.35 71.78 53.29 71.77 53.23 71.76 53.18 71.75 53.14 71.73 53.1 71.72 53.07 71.7 53.05 71.69 53.03 71.67 53.01 71.64 52.99 71.62 52.98 71.59 52.98 71.56 52.97 71.53 52.97 71.49 52.97 71.45 52.98 71.41 52.98 71.37 52.99 71.33 53 71.3 53.02 71.26 53.03 71.23 53.05 71.2 53.06 71.17 53.08 71.14 53.1 71.11 53.13 71.09 53.15 71.06 53.18 71.04 53.2 71.02 53.23 71 53.27 70.98 53.31 70.97 53.35 70.95 53.41 70.94 53.47 70.93 53.54 70.92 53.62 70.91 53.71 70.91 53.8 70.9 53.9 70.9 54.01 70.9 54.12 70.9 54.88 70.9 56.65 70.9 58.43 70.9 58.56 70.9 58.68 70.91 58.79 70.91 58.82 70.91 58.89 70.91 58.98 70.92 59.07 70.93 59.15 70.94 59.22 70.94 59.27 70.96 59.32 70.97 59.37 70.98 59.4 71 59.42 71.01 59.45 71.03 59.47 71.06 59.48 71.08 59.49 71.11 59.5 71.14 59.51 71.18 59.51 71.22 59.51 71.26 59.51 71.3 59.5 71.35 59.49 71.4 59.47 71.44 59.45 71.48 59.44 71.52 59.41 71.56 59.39 71.59 59.36 71.62 59.34 71.65 59.3 71.67 59.27 71.69 59.24 71.71 59.2 71.72 59.16 71.74 59.12 71.75 59.07 71.76 59.01 71.77 58.94 71.78 58.86 71.78 58.78 71.79 58.69 71.8 58.59 71.8 58.48 71.8 58.36 71.8 58.24 71.81 58.11 71.81 57.42 71.81 55.65 71.81 53.87 71.8 53.77 71.8 53.67"/>
            <polygon class="cls-51" points="81.57 49.94 81.57 51.58 81.57 53.15 82.01 53.21 81.81 51.7 81.57 49.94"/>
            <polygon class="cls-51" points="66.15 56.58 65.45 56.63 63.68 56.76 63.68 56.3 63.68 55.16 63.68 55.05 63.68 54.94 63.68 54.84 63.67 54.75 63.66 54.67 63.66 54.59 63.65 54.52 63.64 54.46 63.63 54.41 63.61 54.36 63.6 54.32 63.58 54.29 63.56 54.26 63.54 54.23 63.53 54.22 63.51 54.21 63.48 54.19 63.45 54.17 63.42 54.16 63.38 54.15 63.33 54.14 63.29 54.13 63.24 54.12 63.18 54.12 63.13 54.12 63.06 54.12 63 54.13 62.95 54.13 62.9 54.15 62.85 54.16 62.8 54.17 62.76 54.19 62.73 54.22 62.7 54.24 62.67 54.27 62.65 54.3 62.63 54.33 62.61 54.37 62.59 54.42 62.58 54.47 62.57 54.53 62.56 54.54 62.55 54.59 62.55 54.66 62.54 54.74 62.53 54.83 62.52 54.92 62.52 55.02 62.52 55.13 62.52 55.24 62.52 55.98 62.52 57.75 62.52 59.52 62.52 59.63 62.52 59.74 62.52 59.83 62.53 59.92 62.54 60 62.55 60.08 62.55 60.15 62.57 60.21 62.58 60.27 62.59 60.32 62.61 60.37 62.63 60.4 62.65 60.44 62.67 60.47 62.7 60.49 62.73 60.52 62.76 60.54 62.8 60.56 62.84 60.57 62.89 60.59 62.94 60.59 62.99 60.6 63.04 60.61 63.1 60.61 63.16 60.6 63.22 60.6 63.27 60.59 63.32 60.58 63.36 60.57 63.4 60.55 63.44 60.53 63.47 60.51 63.5 60.48 63.53 60.46 63.55 60.43 63.57 60.39 63.59 60.36 63.61 60.31 63.62 60.26 63.63 60.2 63.65 60.13 63.66 60.05 63.66 59.97 63.67 59.87 63.68 59.77 63.68 59.67 63.68 59.55 63.68 59.43 63.68 58.27 65.09 58.17 66.86 58.04 66.32 56.57 66.15 56.58"/>
            <polygon class="cls-51" points="80.68 42.31 79.05 42.23 78.71 43.49 78.71 44.38 78.32 44.31 77.5 45.49 77.5 47.15 76.61 46.83 76.56 46.81 76.51 46.81 76.46 46.8 76.41 46.81 76.35 46.82 76.29 46.84 76.23 46.87 76.16 46.91 76.08 46.95 75.99 47.01 75.89 47.07 75.78 47.14 75.66 47.22 75.52 47.31 75.37 47.41 75.21 47.51 75.03 47.62 74.84 47.74 74.63 47.87 73.27 48.61 73.27 50.38 73.27 50.93 72.78 50.52 71.93 49.81 71.87 49.76 71.8 49.71 71.74 49.67 71.66 49.64 71.59 49.61 71.51 49.58 71.43 49.56 71.34 49.54 71.26 49.52 71.17 49.52 71.07 49.51 70.97 49.51 70.88 49.51 70.77 49.51 70.67 49.52 70.56 49.53 70.45 49.55 70.34 49.56 70.23 49.59 70.11 49.61 69.99 49.64 69.87 49.67 69.74 49.71 69.62 49.75 69.49 49.79 69.37 49.83 69.25 49.88 69.14 49.93 69.02 49.98 68.91 50.03 68.8 50.09 68.69 50.15 68.59 50.21 68.48 50.27 68.38 50.33 68.29 50.4 68.19 50.47 68.1 50.54 68.02 50.62 67.94 50.69 67.86 50.77 67.78 50.85 67.71 50.93 67.64 51.02 67.57 51.1 67.51 51.19 67.45 51.28 67.39 51.37 67.34 51.47 67.3 51.56 67.25 51.65 67.22 51.74 67.18 51.84 67.15 51.93 67.13 52.03 67.1 52.13 67.09 52.22 67.07 52.32 67.06 52.42 67.05 52.54 67.04 52.66 67.03 52.8 67.03 52.95 67.02 53.11 67.02 53.28 67.01 53.46 67.01 53.66 67 53.86 67 54.07 67 54.3 67 55.88 67 56.11 67 56.33 67.01 56.53 67.01 56.73 67.02 56.91 67.02 57.08 67.03 57.24 67.03 57.39 67.04 57.52 67.05 57.65 67.06 57.76 67.08 57.86 67.09 57.95 67.11 58.04 67.13 58.13 67.16 58.22 67.19 58.3 67.23 58.38 68.01 59.98 68.11 60.19 68.08 60.1 68.04 60.02 68.01 59.93 67.99 59.84 67.97 59.75 67.96 59.65 67.95 59.54 67.94 59.42 67.92 59.28 67.92 59.13 67.91 58.98 67.9 58.8 67.9 58.62 67.89 58.43 67.89 58.22 67.89 58 67.89 57.77 67.89 56.19 67.89 55.96 67.89 55.75 67.89 55.55 67.9 55.35 67.9 55.17 67.91 55 67.92 54.84 67.92 54.69 67.93 54.55 67.94 54.43 67.96 54.31 67.97 54.21 67.99 54.11 68.01 54.01 68.03 53.92 68.07 53.82 68.1 53.72 68.14 53.63 68.19 53.53 68.24 53.44 68.3 53.35 68.36 53.25 68.43 53.16 68.5 53.07 68.57 52.98 68.65 52.89 68.74 52.8 68.83 52.71 68.92 52.63 69.01 52.55 69.11 52.47 69.22 52.39 69.33 52.32 69.44 52.24 69.56 52.17 69.68 52.1 69.8 52.04 69.93 51.97 70.06 51.91 70.19 51.85 70.24 51.83 70.33 51.79 70.47 51.73 70.52 51.71 70.61 51.68 70.75 51.63 70.9 51.58 71.05 51.53 71.2 51.48 71.36 51.44 71.5 51.4 71.65 51.36 71.79 51.33 71.92 51.3 72.06 51.27 72.19 51.25 72.32 51.23 72.44 51.22 72.57 51.21 72.69 51.2 72.81 51.2 72.92 51.2 73.03 51.2 73.14 51.21 73.24 51.22 73.27 51.22 73.34 51.24 73.43 51.26 73.52 51.28 73.61 51.31 73.69 51.35 73.77 51.38 73.85 51.43 73.92 51.48 73.98 51.53 74.05 51.58 74.11 51.64 74.16 51.7 74.21 51.77 74.26 51.84 74.3 51.91 74.33 51.98 74.37 52.06 74.39 52.14 74.42 52.22 74.44 52.3 74.45 52.39 74.46 52.49 74.47 52.6 74.48 52.72 74.49 52.85 74.5 52.99 74.5 53.15 74.51 53.32 74.52 53.5 74.52 53.7 74.52 53.9 74.52 54.12 74.52 54.35 74.52 55.93 74.52 56.16 74.52 56.37 74.52 56.58 74.52 56.77 74.51 56.95 74.51 57.13 74.51 57.13 74.5 57.29 74.49 57.44 74.48 57.58 74.47 57.7 74.46 57.82 74.45 57.93 74.44 58.03 74.42 58.13 74.4 58.23 74.37 58.34 74.34 58.44 74.31 58.54 75.46 59.33 75.46 58.42 75.46 56.64 75.46 54.87 75.46 53.1 75.46 51.32 75.46 50.91 75.46 50.11 75.66 50 76.64 49.47 77.11 49.22 77.36 49.06 77.5 48.98 77.59 48.92 77.81 48.78 78.01 48.65 78.19 48.53 78.35 48.42 78.5 48.32 78.64 48.23 78.76 48.15 78.86 48.09 78.96 48.03 79.04 47.98 79.12 47.94 79.19 47.91 79.26 47.89 79.32 47.87 79.38 47.87 79.44 47.87 79.5 47.87 79.56 47.89 79.61 47.91 79.66 47.94 79.7 47.97 79.75 48.02 79.79 48.07 79.83 48.14 79.86 48.22 79.89 48.31 79.92 48.41 79.94 48.53 79.96 48.66 79.97 48.8 79.98 48.95 79.99 49.12 80 49.29 80 49.48 80 49.65 80 49.66 80 49.83 79.99 49.99 79.98 50.14 79.97 50.29 79.96 50.43 79.94 50.56 79.92 50.68 79.9 50.8 79.88 50.91 79.85 51.01 79.82 51.11 79.79 51.2 79.75 51.29 79.71 51.38 79.66 51.48 79.66 51.48 79.61 51.57 79.55 51.66 79.48 51.76 79.41 51.85 79.35 51.94 79.34 51.95 79.25 52.04 79.17 52.14 79.07 52.23 79.16 52.19 79.24 52.15 79.31 52.12 79.38 52.1 79.45 52.08 79.51 52.06 79.56 52.05 79.61 52.05 79.65 52.05 79.69 52.06 79.73 52.07 79.76 52.09 79.78 52.11 79.81 52.14 79.83 52.16 79.85 52.19 79.87 52.21 79.89 52.24 79.91 52.27 79.92 52.3 79.93 52.33 79.94 52.36 79.95 52.4 79.96 52.43 79.97 52.47 79.97 52.52 79.98 52.59 79.98 52.67 79.99 52.76 79.99 52.87 79.99 52.94 79.99 52.98 80 53.11 80 53.25 80 53.41 80 53.58 80 53.76 80 53.84 80 55.4 80.57 55.55 80.57 54.79 80.57 53.02 80.57 51.53 80.57 49.75 80.57 49.65 80.57 47.88 80.57 46.34 81.57 44.91 81.78 46.31 82.04 48.07 82.04 47.46 82.04 45.69 82.04 43.92 82.45 42.4 80.68 42.31"/>
          </g>
        </g>
        <path class="cls-52" d="M84.4,18.15A3.42,3.42,0,0,0,77.87,18l-2.65.83a.81.81,0,0,1-.55.05c-.24-.09-.34-.37-.44-.61a4.26,4.26,0,0,0-8.09.52,5.89,5.89,0,0,0-2.36.3,1.28,1.28,0,0,0-1.89-.48,3.67,3.67,0,0,0-1.23,1.87,3.91,3.91,0,0,0-3.15-.76,3.07,3.07,0,0,0-4.14,4.51,3.17,3.17,0,0,0-3.52,5.12,1.26,1.26,0,0,0-1.31.91,3.46,3.46,0,0,0,0,1.72c.31,1.62,1.07,3.52,2.7,3.75L52.39,49l-3,1.56-.25,8.37,3.22,5.74-9.65,9.8L42.52,83l3.41,10.3,1.63,8.46-5.05,2.53L55,111.16l4.65-2s2.18,5.13,6.86,1.58,6.92-10.47,6.92-10.47l2.42.64,8.37-4.39s2.71,5.63,7.46.28,5.47-9.3,5.47-9.3l3.37-2.19L100,59.78l3-2.68-2.23-3.86.71-8.23L79.2,58.44V47.91l-3.67-.6L82,26.66a4.12,4.12,0,0,0,3.65-2.74,3.77,3.77,0,0,0-1.44-4.11A2,2,0,0,0,84.4,18.15Z"/>
      </g>
    </g>
  </g>
</svg>
