<?xml version="1.0" encoding="utf-8"?>
<!-- Generator: Adobe Illustrator 26.5.0, SVG Export Plug-In . SVG Version: 6.00 Build 0)  -->
<svg version="1.1" id="Layer_1" xmlns="http://www.w3.org/2000/svg" xmlns:xlink="http://www.w3.org/1999/xlink" x="0px" y="0px"
	 viewBox="0 0 150.2 172.8" style="enable-background:new 0 0 150.2 172.8;" xml:space="preserve">
<style type="text/css">
	.st0{fill:#B9E4EF;}
	.st1{opacity:0.4;fill:#F5FFFE;enable-background:new    ;}
	.st2{fill:#958581;}
	.st3{fill:#645351;}
	.st4{fill:#F2ECD6;}
	.st5{fill:#FFD255;}
	.st6{fill:#CB715A;}
	.st7{fill:#D45F56;}
	.st8{fill:#7E5E5D;}
	.st9{fill:#5E5E5E;}
	.st10{font-family:'Lato-Regular';}
	.st11{font-size:18.9543px;}
</style>
<g>
	<circle class="st0" cx="76.9" cy="86.1" r="63.5"/>
	<g>
		<circle class="st1" cx="77.9" cy="86" r="43.8"/>
		<g>
			<path class="st2" d="M76.4,151.6c-36.1,0-65.4-29.3-65.4-65.4s29.3-65.4,65.4-65.4s65.4,29.3,65.4,65.4l0,0
				C141.8,122.3,112.5,151.6,76.4,151.6z M76.4,21c-36,0-65.1,29.2-65.2,65.1s29.2,65.1,65.1,65.2s65.1-29.2,65.2-65.1c0,0,0,0,0,0
				C141.5,50.2,112.3,21,76.4,21z"/>
			<g>
				<path class="st2" d="M61.8,66.2L61.8,66.2L61.8,66.2l-4.5-6.1c0,0,0-0.1,0-0.2c0,0,0,0,0,0c0,0,0.1,0,0.2,0c0,0,0,0,0,0l4.4,6
					c0.5-0.3,0.9-0.7,1.4-1l-3.9-6.3c0-0.1,0-0.1,0-0.2c0.1,0,0.1,0,0.2,0l0,0l4,6.5c0,0,0,0.1,0,0.2c0,0,0,0,0,0
					c-0.6,0.3-1.1,0.7-1.6,1.1L61.8,66.2z"/>
				<path class="st2" d="M65.1,64.2L65.1,64.2C65.1,64.2,65.1,64.2,65.1,64.2l-3.5-6.8c0-0.1,0-0.1,0.1-0.2c0,0,0,0,0,0
					c0.1,0,0.1,0,0.2,0l3.4,6.6c0.4-0.2,1-0.5,1.6-0.7l-2.9-6.9c0-0.1,0-0.1,0.1-0.2s0.1,0,0.2,0.1l2.9,7c0,0.1,0,0.1-0.1,0.2
					C66.3,63.6,65.7,63.9,65.1,64.2L65.1,64.2z"/>
				<path class="st2" d="M63.4,65.1L63.4,65.1C63.4,65.2,63.4,65.2,63.4,65.1l-4.1-6.5c0-0.1,0-0.1,0-0.2c0.1,0,0.1,0,0.2,0l3.9,6.3
					c0.5-0.3,1-0.6,1.5-0.8l-3.4-6.6c0-0.1,0-0.1,0.1-0.2c0,0,0,0,0,0c0.1,0,0.1,0,0.2,0l3.5,6.7c0,0,0,0.1,0,0.2
					c-0.5,0.3-1.1,0.6-1.7,1L63.4,65.1z"/>
				<path class="st2" d="M60.3,67.4L60.3,67.4C60.2,67.4,60.2,67.4,60.3,67.4l-5-5.7c0,0,0-0.1,0-0.2c0,0,0,0,0,0c0,0,0.1,0,0.2,0
					c0,0,0,0,0,0l4.8,5.7c0.4-0.3,0.8-0.7,1.3-1.1l-4.4-6c0,0,0-0.1,0-0.2c0,0,0,0,0,0c0,0,0.1,0,0.2,0c0,0,0,0,0,0l4.5,6.1
					c0,0.1,0,0.1,0,0.2c-0.6,0.4-1.1,0.8-1.5,1.2C60.4,67.4,60.3,67.4,60.3,67.4z"/>
				<path class="st2" d="M70.6,62.2c-0.1,0-0.1,0-0.1-0.1l-1.8-7.4c0-0.1,0-0.1,0.1-0.1c0.1,0,0.1,0,0.1,0.1l1.7,7.2
					c0.5-0.1,1.1-0.2,1.7-0.3l-1.2-7.4c0-0.1,0-0.1,0.1-0.1c0.1,0,0.1,0,0.1,0.1c0,0,0,0,0,0l1.2,7.5c0,0,0,0.1,0,0.1c0,0,0,0-0.1,0
					C71.9,61.9,71.2,62,70.6,62.2L70.6,62.2z"/>
				<path class="st2" d="M66.9,63.3c-0.1,0-0.1,0-0.1-0.1l-2.9-7c0-0.1,0-0.1,0.1-0.2c0.1,0,0.1,0,0.2,0.1l2.9,6.9
					c0.5-0.2,1-0.4,1.6-0.6l-2.3-7.1c0-0.1,0-0.1,0.1-0.2c0.1,0,0.1,0,0.2,0.1c0,0,0,0,0,0l2.3,7.2c0,0,0,0.1,0,0.1
					c0,0,0,0.1-0.1,0.1c-0.6,0.2-1.2,0.4-1.8,0.7L66.9,63.3z"/>
				<path class="st2" d="M51.6,86.3H44c-0.1,0-0.1-0.1-0.1-0.1S43.9,86,44,86l0,0h7.4c0-0.6,0-1.1,0.1-1.7l-7.4-0.6
					c-0.1,0-0.1-0.1-0.1-0.1c0,0,0,0,0,0c0-0.1,0.1-0.1,0.1-0.1c0,0,0,0,0,0l7.5,0.6c0.1,0,0.1,0.1,0.1,0.1c0,0,0,0,0,0
					c0,0.7-0.1,1.3-0.1,1.9C51.7,86.2,51.7,86.3,51.6,86.3C51.6,86.3,51.6,86.3,51.6,86.3z"/>
				<path class="st2" d="M58.8,68.7C58.8,68.7,58.8,68.7,58.8,68.7l-5.4-5.3c0-0.1,0-0.1,0-0.2c0.1,0,0.1,0,0.2,0l5.2,5.2
					c0.4-0.4,0.9-0.8,1.3-1.2l-4.8-5.6c0,0,0-0.1,0-0.2c0,0,0,0,0,0c0,0,0.1,0,0.2,0c0,0,0,0,0,0l4.9,5.7c0,0,0,0.1,0,0.2
					c0,0,0,0,0,0C59.9,67.8,59.4,68.2,58.8,68.7C58.9,68.7,58.9,68.7,58.8,68.7z"/>
				<path class="st2" d="M68.7,62.7L68.7,62.7c-0.1,0-0.1,0-0.1-0.1l-2.3-7.2c0-0.1,0-0.1,0.1-0.2c0.1,0,0.1,0,0.2,0.1c0,0,0,0,0,0
					l2.3,7.1c0.6-0.2,1.2-0.3,1.7-0.5l-1.7-7.2c0-0.1,0-0.1,0.1-0.1c0.1,0,0.1,0,0.1,0.1l1.8,7.3c0,0.1,0,0.1-0.1,0.1c0,0,0,0,0,0
					C70.1,62.3,69.4,62.4,68.7,62.7L68.7,62.7z"/>
				<path class="st2" d="M72.5,61.8c-0.1,0-0.1,0-0.1-0.1l-1.2-7.5c0-0.1,0-0.1,0.1-0.1c0.1,0,0.1,0,0.1,0.1c0,0,0,0,0,0l1.2,7.4
					c0.6-0.1,1.2-0.2,1.7-0.2l-0.6-7.4c0-0.1,0-0.1,0.1-0.1c0,0,0,0,0,0c0.1,0,0.1,0,0.1,0.1l0.6,7.5c0,0,0,0.1,0,0.1c0,0,0,0-0.1,0
					C73.9,61.6,73.3,61.7,72.5,61.8L72.5,61.8z"/>
				<path class="st2" d="M51.9,82.4L51.9,82.4l-7.5-1.2c-0.1,0-0.1-0.1-0.1-0.1c0-0.1,0.1-0.1,0.1-0.1c0,0,0,0,0,0l7.4,1.2
					c0.1-0.6,0.2-1.2,0.3-1.7l-7.2-1.7c-0.1,0-0.1-0.1-0.1-0.1c0,0,0,0,0,0c0-0.1,0.1-0.1,0.1-0.1l7.4,1.8c0.1,0,0.1,0.1,0.1,0.1
					c0,0,0,0,0,0c-0.1,0.6-0.3,1.2-0.4,1.9c0,0,0,0.1,0,0.1L51.9,82.4z"/>
				<path class="st2" d="M52.3,80.5L52.3,80.5l-7.4-1.8c-0.1,0-0.1-0.1-0.1-0.1c0,0,0,0,0,0c0-0.1,0.1-0.1,0.1-0.1l7.2,1.7
					c0.1-0.5,0.3-1.1,0.5-1.7l-7.1-2.3c-0.1,0-0.1-0.1-0.1-0.2s0.1-0.1,0.2-0.1l0,0l7.2,2.3c0,0,0,0,0.1,0.1c0,0,0,0.1,0,0.1
					c-0.2,0.7-0.4,1.3-0.5,1.9C52.4,80.4,52.4,80.5,52.3,80.5L52.3,80.5z"/>
				<path class="st2" d="M52.8,78.6L52.8,78.6l-7.2-2.3c-0.1,0-0.1-0.1-0.1-0.2s0.1-0.1,0.2-0.1l7.1,2.3c0.2-0.6,0.4-1.1,0.6-1.6
					l-6.9-2.8c-0.1,0-0.1-0.1-0.1-0.2c0,0,0,0,0,0c0-0.1,0.1-0.1,0.2-0.1c0,0,0,0,0,0l7,2.9c0,0,0.1,0,0.1,0.1c0,0,0,0.1,0,0.1
					c-0.2,0.6-0.5,1.2-0.7,1.8C53,78.6,52.9,78.6,52.8,78.6C52.8,78.6,52.8,78.6,52.8,78.6z"/>
				<path class="st2" d="M51.7,84.3L51.7,84.3l-7.5-0.6c-0.1,0-0.1-0.1-0.1-0.1c0,0,0,0,0,0c0-0.1,0.1-0.1,0.1-0.1c0,0,0,0,0,0
					l7.4,0.6c0-0.5,0.1-1.1,0.2-1.7l-7.4-1.2c-0.1,0-0.1-0.1-0.1-0.1c0-0.1,0.1-0.1,0.1-0.1c0,0,0,0,0,0l7.5,1.2
					c0.1,0,0.1,0.1,0.1,0.1c0,0,0,0,0,0c-0.1,0.7-0.2,1.3-0.2,1.9c0,0,0,0.1,0,0.1C51.7,84.3,51.7,84.4,51.7,84.3z"/>
				<path class="st2" d="M53.5,76.8L53.5,76.8l-7-2.9c-0.1,0-0.1-0.1-0.1-0.2c0,0,0,0,0,0c0-0.1,0.1-0.1,0.2-0.1c0,0,0,0,0,0
					l6.9,2.8c0.2-0.6,0.5-1.1,0.7-1.6l-6.6-3.4c-0.1,0-0.1-0.1,0-0.2c0,0,0.1-0.1,0.1,0l6.7,3.4c0,0,0.1,0,0.1,0.1c0,0,0,0.1,0,0.1
					C54.1,75.5,53.8,76.1,53.5,76.8C53.5,76.8,53.5,76.8,53.5,76.8z"/>
				<path class="st2" d="M55.2,73.3L55.2,73.3l-6.5-4c0,0,0-0.1,0-0.2c0,0,0.1,0,0.2,0c0,0,0,0,0,0l6.3,3.8c0.3-0.5,0.6-1,1-1.4
					l-6-4.4c0,0,0-0.1,0-0.2c0,0,0,0,0,0c0,0,0.1,0,0.2,0c0,0,0,0,0,0l6.1,4.4c0,0,0,0.1,0,0.1c0,0,0,0.1,0,0.1
					c-0.4,0.5-0.7,1-1.1,1.6C55.3,73.3,55.3,73.3,55.2,73.3z"/>
				<path class="st2" d="M57.5,70.2C57.5,70.2,57.5,70.2,57.5,70.2l-5.8-4.9c0,0,0-0.1,0-0.2c0,0,0,0,0,0c0,0,0.1,0,0.2,0
					c0,0,0,0,0,0l5.7,4.8c0.3-0.4,0.7-0.8,1.2-1.3l-5.2-5.2c0-0.1,0-0.1,0-0.2c0.1,0,0.1,0,0.2,0l5.3,5.3c0,0,0,0.1,0,0.1
					c0,0,0,0.1,0,0.1C58.5,69.2,58,69.7,57.5,70.2C57.6,70.2,57.6,70.2,57.5,70.2L57.5,70.2z"/>
				<path class="st2" d="M56.3,71.7C56.3,71.7,56.3,71.7,56.3,71.7l-6.2-4.4c0,0,0-0.1,0-0.2c0,0,0,0,0,0c0,0,0.1,0,0.2,0
					c0,0,0,0,0,0l6,4.4c0.4-0.5,0.7-1,1.1-1.3l-5.7-4.9c0,0,0-0.1,0-0.2c0,0,0,0,0,0c0,0,0.1,0,0.2,0c0,0,0,0,0,0l5.7,4.9
					c0,0,0,0.1,0,0.1c0,0,0,0.1,0,0.1C57.2,70.6,56.8,71.1,56.3,71.7C56.4,71.7,56.4,71.7,56.3,71.7z"/>
				<path class="st2" d="M54.3,75L54.3,75l-6.8-3.4c-0.1,0-0.1-0.1,0-0.2c0,0,0.1-0.1,0.1,0l6.6,3.4c0.2-0.5,0.5-1,0.8-1.5l-6.3-3.9
					c0,0,0-0.1,0-0.2c0,0,0.1,0,0.2,0c0,0,0,0,0,0l6.4,3.9c0,0,0,0,0.1,0.1c0,0,0,0.1,0,0.1C55,73.9,54.7,74.4,54.3,75
					C54.3,75,54.3,75,54.3,75z"/>
				<path class="st2" d="M74.4,61.6c-0.1,0-0.1,0-0.1-0.1l-0.6-7.5c0-0.1,0-0.1,0.1-0.1c0,0,0,0,0,0c0.1,0,0.1,0,0.1,0.1l0.6,7.4
					c0.5,0,1.1-0.1,1.7-0.1v-7.4c0-0.1,0.1-0.1,0.1-0.1c0.1,0,0.1,0.1,0.1,0.1v7.6c0,0.1-0.1,0.1-0.1,0.1
					C75.7,61.5,75,61.5,74.4,61.6L74.4,61.6z"/>
				<path class="st2" d="M97.5,73.3C97.5,73.3,97.4,73.3,97.5,73.3c-0.4-0.6-0.8-1.2-1.2-1.7c0,0,0-0.1,0-0.2c0,0,0,0,0,0l6.1-4.5
					c0,0,0.1,0,0.2,0c0,0,0,0,0,0c0,0,0,0.1,0,0.2c0,0,0,0,0,0l-6,4.4c0.3,0.5,0.6,0.9,0.9,1.4l6.3-3.9c0.1,0,0.1,0,0.2,0.1
					c0,0,0,0.1,0,0.1L97.5,73.3L97.5,73.3z"/>
				<path class="st2" d="M98.5,75c0,0-0.1,0-0.1-0.1c-0.3-0.6-0.6-1.1-0.9-1.7c0,0,0-0.1,0-0.1c0,0,0-0.1,0.1-0.1l6.4-4
					c0.1,0,0.1,0,0.2,0.1c0,0,0,0.1,0,0.1l-6.3,3.9c0.3,0.5,0.6,1,0.8,1.5l6.6-3.4c0.1,0,0.1,0,0.2,0.1c0,0,0,0,0,0c0,0,0,0.1,0,0.2
					L98.5,75L98.5,75z"/>
				<path class="st2" d="M99.3,76.8L99.3,76.8C99.3,76.8,99.3,76.8,99.3,76.8c-0.3-0.7-0.6-1.3-0.9-1.8c0,0,0-0.1,0-0.1
					c0,0,0,0,0.1-0.1l6.7-3.4c0.1,0,0.1,0,0.2,0.1c0,0,0,0,0,0c0,0,0,0.1,0,0.2L98.7,75c0.2,0.5,0.5,1,0.7,1.6l6.9-2.8
					c0.1,0,0.1,0,0.2,0.1c0,0.1,0,0.1-0.1,0.2l0,0L99.3,76.8L99.3,76.8z"/>
				<path class="st2" d="M96.4,71.7C96.4,71.7,96.4,71.7,96.4,71.7c-0.5-0.6-0.9-1.1-1.3-1.5c0,0,0-0.1,0-0.1c0,0,0-0.1,0-0.1
					l5.7-4.9c0,0,0.1,0,0.2,0c0,0,0,0,0,0c0,0,0,0.1,0,0.2c0,0,0,0,0,0l-5.6,4.8c0.3,0.4,0.7,0.8,1,1.3l6-4.4c0,0,0.1,0,0.2,0
					c0,0,0,0,0,0c0,0,0,0.1,0,0.2c0,0,0,0,0,0L96.4,71.7C96.5,71.7,96.5,71.7,96.4,71.7z"/>
				<path class="st2" d="M101.1,84.3C101.1,84.3,101.1,84.3,101.1,84.3C101,84.3,101,84.3,101.1,84.3c-0.1-0.7-0.2-1.3-0.3-2
					c0-0.1,0-0.1,0.1-0.1c0,0,0,0,0,0l7.4-1.2c0.1,0,0.1,0.1,0.1,0.1c0,0.1-0.1,0.1-0.1,0.1l-7.3,1.1c0.1,0.6,0.2,1.2,0.2,1.7
					l7.4-0.6c0.1,0,0.1,0,0.1,0.1c0,0,0,0,0,0c0,0.1,0,0.1-0.1,0.1c0,0,0,0,0,0L101.1,84.3L101.1,84.3z"/>
				<path class="st2" d="M95.2,70.2C95.2,70.2,95.2,70.2,95.2,70.2c-0.5-0.5-0.9-1-1.4-1.4c0-0.1,0-0.1,0-0.2l5.3-5.3
					c0.1,0,0.1,0,0.2,0c0,0.1,0,0.1,0,0.2l-5.2,5.2c0.4,0.4,0.8,0.8,1.2,1.3l5.7-4.8c0,0,0.1,0,0.2,0c0,0,0,0,0,0c0,0,0,0.1,0,0.2
					c0,0,0,0,0,0L95.2,70.2C95.3,70.1,95.3,70.2,95.2,70.2z"/>
				<path class="st2" d="M100,78.6c-0.1,0-0.1,0-0.1-0.1c-0.2-0.7-0.4-1.3-0.7-1.8c0,0,0-0.1,0-0.1c0,0,0,0,0.1-0.1l7-2.9
					c0.1,0,0.1,0,0.2,0.1c0,0.1,0,0.1-0.1,0.2l0,0l-6.9,2.8c0.2,0.5,0.4,1,0.6,1.6l7.1-2.3c0.1,0,0.1,0,0.1,0.1c0,0,0,0,0,0
					c0,0.1,0,0.1-0.1,0.2L100,78.6L100,78.6z"/>
				<path class="st2" d="M108.8,86.3h-7.6c-0.1,0-0.1-0.1-0.1-0.1c0,0,0,0,0,0c0-0.6,0-1.2-0.1-1.9c0-0.1,0-0.1,0.1-0.1c0,0,0,0,0,0
					l7.5-0.6c0.1,0,0.1,0,0.1,0.1c0,0,0,0,0,0c0,0.1,0,0.1-0.1,0.1c0,0,0,0,0,0l-7.4,0.6c0,0.6,0.1,1.2,0.1,1.7h7.4
					c0.1,0,0.1,0.1,0.1,0.1C108.9,86.2,108.8,86.3,108.8,86.3C108.8,86.3,108.8,86.3,108.8,86.3z"/>
				<path class="st2" d="M100.5,80.5c-0.1,0-0.1,0-0.1-0.1c-0.2-0.8-0.3-1.3-0.5-1.9c0-0.1,0-0.1,0.1-0.2l7.2-2.4
					c0.1,0,0.1,0,0.1,0.1c0,0,0,0,0,0c0,0.1,0,0.1-0.1,0.2l-7.1,2.3c0.2,0.5,0.3,1,0.5,1.7l7.2-1.7c0.1,0,0.1,0,0.1,0.1c0,0,0,0,0,0
					c0,0.1,0,0.1-0.1,0.1c0,0,0,0,0,0L100.5,80.5L100.5,80.5z"/>
				<path class="st2" d="M89.3,65.1C89.3,65.1,89.3,65.1,89.3,65.1c-0.6-0.4-1.2-0.7-1.8-1c0,0,0-0.1,0-0.2l3.4-6.7c0,0,0.1,0,0.2,0
					c0.1,0,0.1,0.1,0.1,0.2c0,0,0,0,0,0L87.8,64c0.5,0.2,1,0.5,1.5,0.8l3.9-6.3c0.1,0,0.1,0,0.2,0c0,0,0,0.1,0,0.2c0,0,0,0,0,0
					L89.3,65.1C89.3,65.1,89.3,65.2,89.3,65.1L89.3,65.1z"/>
				<path class="st2" d="M82.2,62.2L82.2,62.2c-0.6-0.1-1.2-0.3-1.9-0.4c0,0-0.1,0-0.1,0c0,0,0-0.1,0-0.1l1.2-7.5
					c0-0.1,0.1-0.1,0.1-0.1c0.1,0,0.1,0.1,0.1,0.1c0,0,0,0,0,0l-1.2,7.4c0.6,0.1,1.2,0.2,1.7,0.3l1.7-7.2c0-0.1,0.1-0.1,0.2-0.1
					c0.1,0,0.1,0.1,0.1,0.1l-1.8,7.4C82.3,62.1,82.3,62.2,82.2,62.2C82.2,62.2,82.2,62.2,82.2,62.2z"/>
				<path class="st2" d="M84,62.7L84,62.7c-0.7-0.2-1.3-0.4-1.9-0.5c0,0-0.1,0-0.1-0.1c0,0,0-0.1,0-0.1l1.8-7.4
					c0-0.1,0.1-0.1,0.2-0.1c0.1,0,0.1,0.1,0.1,0.1l0,0L82.3,62c0.5,0.1,1.1,0.3,1.7,0.5l2.3-7.1c0-0.1,0.1-0.1,0.1-0.1c0,0,0,0,0,0
					c0.1,0,0.1,0.1,0.1,0.1c0,0,0,0,0,0l-2.3,7.2C84.1,62.7,84.1,62.7,84,62.7z"/>
				<path class="st2" d="M80.2,61.8L80.2,61.8c-0.7-0.1-1.3-0.2-1.9-0.2c0,0-0.1,0-0.1,0c0,0,0-0.1,0-0.1l0.6-7.5
					c0-0.1,0.1-0.1,0.1-0.1c0,0,0,0,0,0c0.1,0,0.1,0.1,0.1,0.1c0,0,0,0,0,0l-0.6,7.4c0.5,0,1.1,0.1,1.7,0.2l1.2-7.4
					c0-0.1,0.1-0.1,0.1-0.1c0.1,0,0.1,0.1,0.1,0.1c0,0,0,0,0,0l-1.2,7.5C80.4,61.7,80.4,61.8,80.2,61.8
					C80.3,61.8,80.3,61.8,80.2,61.8z"/>
				<path class="st2" d="M85.9,63.3L85.9,63.3c-0.6-0.2-1.2-0.5-1.8-0.7c0,0-0.1,0-0.1-0.1c0,0,0-0.1,0-0.1l2.3-7.2
					c0-0.1,0.1-0.1,0.1-0.1c0,0,0,0,0,0c0.1,0,0.1,0.1,0.1,0.1c0,0,0,0,0,0l-2.3,7.1c0.6,0.2,1.1,0.4,1.6,0.6l2.8-6.9
					c0-0.1,0.1-0.1,0.2-0.1c0,0,0,0,0,0c0.1,0,0.1,0.1,0.1,0.2l-2.9,7L85.9,63.3L85.9,63.3z"/>
				<path class="st2" d="M91,66.2L91,66.2c-0.6-0.4-1.1-0.7-1.7-1.1c0,0,0-0.1,0-0.2l4-6.5c0.1,0,0.1,0,0.2,0c0,0,0,0.1,0,0.2
					c0,0,0,0,0,0l-4,6.3c0.5,0.3,1,0.6,1.4,1l4.4-6c0,0,0.1,0,0.2,0c0,0,0,0,0,0c0,0.1,0,0.1,0,0.2L91,66.2C91,66.3,91,66.3,91,66.2
					L91,66.2z"/>
				<path class="st2" d="M93.9,68.7C93.9,68.7,93.9,68.7,93.9,68.7c-0.6-0.5-1.1-0.9-1.5-1.3c0,0,0-0.1,0-0.2c0,0,0,0,0,0l4.9-5.7
					c0,0,0.1,0,0.2,0c0,0,0,0,0,0c0,0,0,0.1,0,0.2c0,0,0,0,0,0l-4.8,5.7c0.4,0.3,0.8,0.7,1.3,1.2l5.2-5.2c0.1,0,0.1,0,0.2,0
					c0,0.1,0,0.1,0,0.2L93.9,68.7C94,68.7,94,68.7,93.9,68.7z"/>
				<path class="st2" d="M92.5,67.4C92.5,67.4,92.4,67.4,92.5,67.4c-0.5-0.4-1-0.8-1.6-1.2c0,0,0-0.1,0-0.1c0,0,0-0.1,0-0.1l4.4-6.2
					c0,0,0.1,0,0.2,0c0,0,0,0,0,0c0,0.1,0,0.1,0,0.2l-4.4,6c0.5,0.4,1,0.7,1.4,1.1l4.8-5.7c0,0,0.1,0,0.2,0c0,0,0,0,0,0
					c0,0,0,0.1,0,0.2c0,0,0,0,0,0L92.5,67.4C92.5,67.4,92.5,67.4,92.5,67.4z"/>
				<path class="st2" d="M78.3,61.6L78.3,61.6c-0.6,0-1.3-0.1-1.9-0.1c-0.1,0-0.1-0.1-0.1-0.1v-7.6c0-0.1,0.1-0.1,0.1-0.1
					c0.1,0,0.1,0.1,0.1,0.1v7.4c0.6,0,1.1,0,1.7,0.1l0.6-7.4c0-0.1,0.1-0.1,0.1-0.1c0,0,0,0,0,0c0.1,0,0.1,0.1,0.1,0.1c0,0,0,0,0,0
					l-0.6,7.5C78.4,61.5,78.4,61.6,78.3,61.6z"/>
				<path class="st2" d="M87.6,64.2L87.6,64.2c-0.6-0.3-1.2-0.6-1.8-0.8c-0.1,0-0.1-0.1-0.1-0.2l2.9-7c0-0.1,0.1-0.1,0.2-0.1
					c0,0,0,0,0,0c0.1,0,0.1,0.1,0.1,0.2L86,63.2c0.6,0.2,1.1,0.5,1.6,0.7l3.4-6.6c0,0,0.1,0,0.2,0c0.1,0,0.1,0.1,0.1,0.2
					c0,0,0,0,0,0l-3.4,6.7C87.8,64.2,87.7,64.2,87.6,64.2L87.6,64.2z"/>
				<path class="st2" d="M100.9,82.4L100.9,82.4C100.8,82.4,100.8,82.3,100.9,82.4c-0.2-0.8-0.3-1.4-0.4-2c0-0.1,0-0.1,0.1-0.1
					c0,0,0,0,0,0l7.4-1.8c0.1,0,0.1,0,0.1,0.1c0,0,0,0,0,0c0,0.1,0,0.1-0.1,0.1c0,0,0,0,0,0l-7.2,1.7c0.1,0.6,0.2,1.1,0.3,1.7
					l7.3-1.2c0.1,0,0.1,0.1,0.1,0.1c0,0.1-0.1,0.1-0.1,0.1L100.9,82.4L100.9,82.4z"/>
				<path class="st2" d="M91.1,115.1C91,115.1,91,115.1,91.1,115.1l-3.5-6.8c0,0,0-0.1,0-0.2c0.5-0.3,1.1-0.6,1.7-1c0,0,0.1,0,0.1,0
					c0,0,0,0,0.1,0l4,6.5c0,0,0,0.1,0,0.2c0,0-0.1,0-0.2,0c0,0,0,0,0,0l-3.9-6.3c-0.5,0.3-1,0.6-1.5,0.8l3.3,6.7c0,0,0,0.1,0,0.2
					L91.1,115.1z"/>
				<path class="st2" d="M95.4,112.5C95.4,112.5,95.3,112.5,95.4,112.5l-4.5-6.1c0,0,0-0.1,0-0.2c0,0,0,0,0,0
					c0.6-0.4,1.1-0.8,1.5-1.2c0,0,0.1,0,0.2,0l4.9,5.7c0,0,0,0.1,0,0.2c0,0,0,0,0,0c0,0-0.1,0-0.2,0l-4.8-5.6
					c-0.4,0.3-0.8,0.7-1.3,1.1l4.4,6C95.5,112.4,95.5,112.4,95.4,112.5C95.5,112.5,95.5,112.5,95.4,112.5L95.4,112.5z"/>
				<path class="st2" d="M101,107.3C101,107.3,100.9,107.3,101,107.3l-5.8-4.9c0,0,0-0.1,0-0.1c0,0,0-0.1,0-0.1
					c0.4-0.4,0.8-0.9,1.2-1.5c0,0,0.1,0,0.2,0c0,0,0,0,0,0l6.1,4.4c0,0.1,0,0.1,0,0.2c0,0-0.1,0-0.1,0l-6-4.4
					c-0.4,0.5-0.7,1-1.1,1.4l5.7,4.8c0,0,0,0.1,0,0.2c0,0,0,0,0,0C101.1,107.3,101,107.3,101,107.3z"/>
				<path class="st2" d="M99.3,109.2C99.3,109.2,99.2,109.2,99.3,109.2l-5.4-5.3c0,0,0-0.1,0-0.1c0,0,0-0.1,0-0.1
					c0.5-0.5,0.9-1,1.3-1.4c0,0,0.1,0,0.1,0c0,0,0.1,0,0.1,0l5.7,4.9c0,0,0,0.1,0,0.2c0,0,0,0,0,0c0,0-0.1,0-0.2,0c0,0,0,0,0,0
					l-5.7-4.8c-0.3,0.4-0.7,0.8-1.2,1.3l5.3,5.2C99.4,109,99.4,109.1,99.3,109.2C99.4,109.2,99.4,109.2,99.3,109.2
					C99.3,109.2,99.3,109.2,99.3,109.2z"/>
				<path class="st2" d="M97.4,110.9C97.4,110.9,97.3,110.9,97.4,110.9l-5-5.8c0-0.1,0-0.1,0-0.2c0.4-0.4,0.9-0.8,1.4-1.3
					c0,0,0.1-0.1,0.2,0c0,0,0,0,0,0l5.3,5.4c0,0,0,0.1,0,0.2s-0.1,0-0.2,0l0,0l-5.2-5.3c-0.4,0.4-0.9,0.8-1.3,1.2l4.8,5.7
					c0,0,0,0.1,0,0.2c0,0,0,0,0,0C97.5,110.9,97.5,110.9,97.4,110.9z"/>
				<path class="st2" d="M93.3,113.9C93.3,113.9,93.2,113.9,93.3,113.9l-4.1-6.5c0,0,0-0.1,0-0.2c0,0,0,0,0,0
					c0.6-0.3,1.1-0.7,1.6-1.1c0,0,0.1,0,0.1,0c0,0,0.1,0,0.1,0l4.4,6.1c0,0,0,0.1,0,0.2c0,0,0,0,0,0c0,0-0.1,0-0.2,0c0,0,0,0,0,0
					l-4.4-6c-0.4,0.3-0.9,0.7-1.4,1l3.9,6.3C93.4,113.8,93.4,113.9,93.3,113.9L93.3,113.9z"/>
				<path class="st2" d="M84,117.8c-0.1,0-0.1,0-0.1-0.1l-1.8-7.4c0-0.1,0-0.1,0.1-0.1c0.6-0.1,1.2-0.3,1.9-0.5c0.1,0,0.1,0,0.1,0.1
					c0,0,0,0,0,0l2.3,7.2c0,0.1,0,0.1-0.1,0.1c0,0,0,0,0,0c-0.1,0-0.1,0-0.1-0.1c0,0,0,0,0,0l-2.3-7.1c-0.6,0.2-1.2,0.3-1.7,0.4
					l1.7,7.2C84.1,117.7,84.1,117.8,84,117.8C84,117.8,84,117.8,84,117.8z"/>
				<path class="st2" d="M88.8,116.2c0,0-0.1,0-0.1-0.1l-2.9-7c0-0.1,0-0.1,0.1-0.1c0,0,0,0,0,0c0.6-0.3,1.2-0.6,1.8-0.8
					c0,0,0.1,0,0.1,0c0,0,0.1,0,0.1,0.1l3.4,6.8c0,0,0,0.1,0,0.2c-0.1,0-0.1,0-0.2-0.1l-3.4-6.6c-0.5,0.2-1,0.5-1.6,0.7l2.8,6.8
					C88.9,116.1,88.9,116.1,88.8,116.2C88.8,116.2,88.8,116.2,88.8,116.2L88.8,116.2z"/>
				<path class="st2" d="M81.4,118.3c-0.1,0-0.1,0-0.1-0.1l-1.2-7.5c0,0,0-0.1,0-0.1c0,0,0.1,0,0.1,0c0.7-0.1,1.3-0.2,1.9-0.4
					c0.1,0,0.1,0,0.1,0.1c0,0,0,0,0,0l1.8,7.4c0,0.1,0,0.1-0.1,0.2c-0.1,0-0.1,0-0.2-0.1c0,0,0,0,0,0l-1.7-7.2
					c-0.5,0.1-1.1,0.2-1.7,0.3l1.2,7.4C81.6,118.2,81.5,118.3,81.4,118.3C81.5,118.3,81.5,118.3,81.4,118.3L81.4,118.3z"/>
				<path class="st2" d="M86.4,117.1c0,0-0.1,0-0.1-0.1l-2.3-7.2c0-0.1,0-0.1,0.1-0.2c0.7-0.2,1.3-0.4,1.8-0.7c0.1,0,0.1,0,0.2,0.1
					c0,0,0,0,0,0l2.9,7c0,0.1,0,0.1-0.1,0.2c0,0,0,0,0,0c-0.1,0-0.1,0-0.2-0.1l-2.8-6.9c-0.5,0.2-1,0.4-1.6,0.6l2.3,7.1
					C86.5,117,86.5,117.1,86.4,117.1C86.4,117.1,86.4,117.1,86.4,117.1L86.4,117.1z"/>
				<path class="st2" d="M107.2,96.3L107.2,96.3L100,94c-0.1,0-0.1-0.1-0.1-0.1c0,0,0,0,0,0c0.2-0.7,0.4-1.4,0.5-1.9
					c0,0,0-0.1,0.1-0.1c0,0,0.1,0,0.1,0l7.4,1.8c0.1,0,0.1,0.1,0.1,0.1c0,0,0,0,0,0c0,0.1-0.1,0.1-0.2,0.1l-7.3-1.8
					c-0.1,0.5-0.3,1.1-0.4,1.7l7.1,2.3c0.1,0,0.1,0.1,0.1,0.1C107.3,96.2,107.3,96.3,107.2,96.3L107.2,96.3z"/>
				<path class="st2" d="M102.6,105.3L102.6,105.3l-6.2-4.4c0,0,0-0.1,0-0.2c0,0,0,0,0,0c0.4-0.5,0.7-1,1.1-1.6c0,0,0,0,0.1,0
					c0,0,0.1,0,0.1,0l6.5,4c0,0,0,0.1,0,0.2c0,0-0.1,0-0.2,0c0,0,0,0,0,0l-6.3-3.9c-0.3,0.5-0.6,1-1,1.4l6,4.4
					C102.6,105.2,102.6,105.3,102.6,105.3C102.6,105.3,102.6,105.3,102.6,105.3C102.6,105.3,102.6,105.3,102.6,105.3z"/>
				<path class="st2" d="M108.4,91.3L108.4,91.3l-7.5-1.2c-0.1,0-0.1-0.1-0.1-0.1c0,0,0,0,0,0c0.1-0.7,0.2-1.3,0.2-1.9
					c0-0.1,0.1-0.1,0.1-0.1c0,0,0,0,0,0l7.5,0.6c0.1,0,0.1,0.1,0.1,0.1c0,0.1-0.1,0.1-0.1,0.1c0,0,0,0,0,0l-7.4-0.6
					c0,0.5-0.1,1.1-0.2,1.7l7.4,1.2c0.1,0,0.1,0.1,0.1,0.1c0,0,0,0,0,0C108.5,91.3,108.4,91.4,108.4,91.3
					C108.4,91.4,108.4,91.4,108.4,91.3z"/>
				<path class="st2" d="M107.9,93.8L107.9,93.8l-7.4-1.8c-0.1,0-0.1-0.1-0.1-0.2c0.2-0.6,0.3-1.2,0.4-1.9c0,0,0-0.1,0-0.1
					c0,0,0.1,0,0.1,0l7.5,1.2c0.1,0,0.1,0.1,0.1,0.1c0,0,0,0,0,0c0,0.1-0.1,0.1-0.1,0.1c0,0,0,0,0,0l-7.3-1.2
					c-0.1,0.6-0.2,1.2-0.3,1.7l7.2,1.7c0.1,0,0.1,0.1,0.1,0.1c0,0,0,0,0,0C108,93.8,107.9,93.8,107.9,93.8z"/>
				<path class="st2" d="M44.1,88.8c-0.1,0-0.1,0-0.1-0.1c0-0.1,0-0.1,0.1-0.1c0,0,0,0,0,0l7.4-0.6c0-0.6-0.1-1.1-0.1-1.7H44
					c-0.1,0-0.1,0-0.2-0.1c0,0,0,0,0,0c0,0-0.1-0.1,0-0.2c0,0,0.1-0.1,0.2,0h7.6c0.1,0,0.1,0.1,0.1,0.1l0,0c0,0.7,0,1.3,0.1,1.9
					c0,0.1,0,0.1-0.1,0.1c0,0,0,0,0,0L44.1,88.8L44.1,88.8z"/>
				<path class="st2" d="M108.7,88.8L108.7,88.8l-7.5-0.6c-0.1,0-0.1,0-0.1-0.1c0,0,0,0,0,0c0-0.6,0.1-1.3,0.1-1.9
					c0-0.1,0-0.1,0.1-0.1c0,0,0,0,0,0h7.6c0.1,0,0.1,0.1,0.1,0.1c0,0,0,0,0,0c0,0.1-0.1,0.1-0.1,0.1c0,0,0,0,0,0h-7.4
					c0,0.6,0,1.2-0.1,1.7l7.4,0.6c0.1,0,0.1,0,0.1,0.1c0,0,0,0,0,0C108.8,88.8,108.7,88.8,108.7,88.8
					C108.7,88.8,108.7,88.8,108.7,88.8z"/>
				<path class="st2" d="M105.2,101L105.2,101l-6.7-3.4c0,0,0-0.1,0-0.2c0.3-0.5,0.6-1.1,0.8-1.8c0-0.1,0.1-0.1,0.2-0.1c0,0,0,0,0,0
					l7,2.9c0.1,0,0.1,0.1,0.1,0.2c0,0.1-0.1,0.1-0.2,0.1c0,0,0,0,0,0l-6.9-2.8c-0.2,0.6-0.5,1.1-0.7,1.6l6.6,3.4c0,0,0,0.1,0,0.2
					C105.4,101,105.4,101,105.2,101C105.3,101,105.2,101,105.2,101z"/>
				<path class="st2" d="M104,103.2L104,103.2l-6.5-4c0,0,0-0.1,0-0.2c0,0,0,0,0,0c0.4-0.6,0.7-1.2,1-1.7c0-0.1,0.1-0.1,0.2-0.1
					l6.7,3.4c0,0,0,0.1,0,0.2c0,0.1-0.1,0.1-0.2,0.1c0,0,0,0,0,0l-6.6-3.4c-0.2,0.5-0.5,1-0.8,1.5l6.3,3.9c0,0,0,0.1,0,0.2
					C104.1,103.2,104.1,103.2,104,103.2z"/>
				<path class="st2" d="M106.3,98.7L106.3,98.7l-7-2.9c-0.1,0-0.1-0.1-0.1-0.1c0,0,0,0,0,0c0.2-0.6,0.4-1.2,0.7-1.8
					c0-0.1,0.1-0.1,0.1-0.1c0,0,0,0,0,0l7.2,2.3c0.1,0,0.1,0.1,0.1,0.1c0,0,0,0,0,0c0,0.1-0.1,0.1-0.1,0.1c0,0,0,0,0,0l-7.1-2.3
					c-0.2,0.6-0.4,1.1-0.6,1.6l6.9,2.8c0.1,0,0.1,0.1,0.1,0.2C106.4,98.7,106.3,98.7,106.3,98.7z"/>
				<path class="st2" d="M78.9,118.6c-0.1,0-0.1-0.1-0.1-0.1c0,0,0,0,0,0l-0.6-7.5c0,0,0-0.1,0-0.1c0,0,0.1,0,0.1,0
					c0.6,0,1.2-0.1,1.9-0.2c0.1,0,0.1,0,0.1,0.1c0,0,0,0,0,0l1.2,7.5c0,0.1,0,0.1-0.1,0.1c0,0,0,0,0,0c-0.1,0-0.1,0-0.1-0.1
					c0,0,0,0,0,0l-1.2-7.4c-0.6,0.1-1.2,0.2-1.7,0.2l0.6,7.4C79,118.5,79,118.6,78.9,118.6L78.9,118.6z"/>
				<path class="st2" d="M47.5,101c0,0-0.1,0-0.1-0.1c0,0,0-0.1,0-0.2l6.6-3.4c-0.2-0.5-0.5-1-0.7-1.6l-6.9,2.8
					c-0.1,0-0.1,0-0.2-0.1c0,0,0,0,0,0c0-0.1,0-0.1,0.1-0.2l7-2.9c0,0,0.1,0,0.1,0c0,0,0.1,0,0.1,0.1c0.3,0.7,0.6,1.2,0.8,1.8
					c0,0.1,0,0.1,0,0.2c0,0,0,0,0,0L47.5,101L47.5,101z"/>
				<path class="st2" d="M51.8,107.3C51.7,107.3,51.7,107.3,51.8,107.3c-0.1,0-0.1-0.1-0.1-0.2c0,0,0,0,0,0l5.7-4.8
					c-0.3-0.4-0.7-0.8-1.1-1.3l-6,4.4c0,0-0.1,0-0.2,0c0,0,0,0,0,0c0,0,0-0.1,0-0.2c0,0,0,0,0,0l6.1-4.4c0,0,0.1,0,0.2,0
					c0,0,0,0,0,0c0.4,0.6,0.8,1.1,1.2,1.5c0,0,0,0.1,0,0.2c0,0,0,0,0,0L51.8,107.3C51.8,107.3,51.8,107.3,51.8,107.3z"/>
				<path class="st2" d="M46.5,98.7c0,0-0.1,0-0.1-0.1c0-0.1,0-0.1,0.1-0.2l6.9-2.8c-0.2-0.5-0.4-1-0.6-1.6l-7.1,2.3
					c-0.1,0-0.1,0-0.1-0.1c0,0,0,0,0,0c0-0.1,0-0.1,0.1-0.1c0,0,0,0,0,0l7.2-2.3c0,0,0.1,0,0.1,0c0,0,0,0,0.1,0.1
					c0.2,0.7,0.4,1.3,0.7,1.8c0,0.1,0,0.1-0.1,0.2c0,0,0,0,0,0L46.5,98.7L46.5,98.7z"/>
				<path class="st2" d="M48.8,103.2c0,0-0.1,0-0.1,0c0-0.1,0-0.1,0-0.2l6.3-3.9c-0.3-0.5-0.6-1-0.8-1.5l-6.6,3.4
					c-0.1,0-0.1,0-0.2-0.1c0,0,0-0.1,0-0.1l6.7-3.4c0.1,0,0.1,0,0.2,0c0,0,0,0,0,0c0.3,0.5,0.6,1.1,1,1.7c0,0,0,0.1,0,0.1
					c0,0,0,0.1-0.1,0.1L48.8,103.2L48.8,103.2z"/>
				<path class="st2" d="M53.5,109.2C53.5,109.2,53.4,109.2,53.5,109.2c-0.1-0.1-0.1-0.1-0.1-0.2l5.2-5.2c-0.4-0.4-0.8-0.9-1.2-1.3
					l-5.6,4.8c0,0-0.1,0-0.2,0c0,0,0,0,0,0c0,0,0-0.1,0-0.2c0,0,0,0,0,0l5.7-4.9c0,0,0.1,0,0.2,0c0,0,0,0,0,0c0.4,0.5,0.8,1,1.3,1.4
					c0,0,0.1,0.1,0,0.2c0,0,0,0,0,0L53.5,109.2C53.5,109.2,53.5,109.2,53.5,109.2z"/>
				<path class="st2" d="M45.6,96.3c-0.1,0-0.1,0-0.1-0.1c0-0.1,0-0.1,0.1-0.1c0,0,0,0,0,0l7.1-2.3c-0.2-0.6-0.3-1.2-0.5-1.7
					l-7.2,1.7c-0.1,0-0.1,0-0.2-0.1c0-0.1,0-0.1,0.1-0.2c0,0,0,0,0,0l7.4-1.8c0,0,0.1,0,0.1,0c0,0,0.1,0,0.1,0.1
					c0.1,0.5,0.3,1.2,0.5,1.9c0,0.1,0,0.1-0.1,0.1c0,0,0,0,0,0L45.6,96.3L45.6,96.3z"/>
				<path class="st2" d="M44.9,93.8c-0.1,0-0.1-0.1-0.1-0.1c0-0.1,0.1-0.1,0.1-0.1l7.2-1.7c-0.1-0.5-0.2-1.1-0.3-1.7l-7.4,1.2
					c-0.1,0-0.1,0-0.1-0.1c0,0,0,0,0,0c0-0.1,0-0.1,0.1-0.1c0,0,0,0,0,0l7.5-1.2c0,0,0.1,0,0.1,0c0,0,0,0.1,0,0.1
					c0.1,0.7,0.2,1.3,0.4,1.9c0,0.1,0,0.1-0.1,0.2L44.9,93.8L44.9,93.8z"/>
				<path class="st2" d="M76.4,118.7c-0.1,0-0.1,0-0.1-0.1c0,0,0,0,0,0V111c0-0.1,0.1-0.1,0.1-0.1c0,0,0,0,0,0c0.7,0,1.3,0,1.9-0.1
					c0.1,0,0.1,0,0.1,0.1c0,0,0,0,0,0l0.6,7.5c0,0.1,0,0.1-0.1,0.1c-0.1,0-0.1,0-0.1-0.1c0,0,0,0,0,0l-0.6-7.4
					c-0.5,0-1.1,0.1-1.7,0.1v7.4C76.5,118.6,76.5,118.6,76.4,118.7C76.4,118.7,76.4,118.7,76.4,118.7z"/>
				<path class="st2" d="M44.4,91.3c-0.1,0-0.1,0-0.1-0.1c0-0.1,0-0.1,0.1-0.1c0,0,0,0,0,0l7.4-1.2c-0.1-0.6-0.2-1.2-0.2-1.7
					l-7.4,0.6c-0.1,0-0.1,0-0.1-0.1c0,0,0,0,0,0c0-0.1,0-0.1,0.1-0.1c0,0,0,0,0,0l7.5-0.6c0,0,0.1,0,0.1,0c0,0,0,0.1,0,0.1
					c0,0.6,0.1,1.2,0.2,1.9c0,0.1,0,0.1-0.1,0.1L44.4,91.3L44.4,91.3z"/>
				<path class="st2" d="M55.4,110.9C55.3,110.9,55.3,110.9,55.4,110.9c-0.1,0-0.1-0.1-0.1-0.2c0,0,0,0,0,0l4.8-5.7
					c-0.4-0.3-0.8-0.7-1.3-1.2l-5.2,5.2c0,0-0.1,0.1-0.2,0c0,0,0,0,0,0c0-0.1,0-0.1,0-0.2l5.3-5.3c0.1,0,0.1,0,0.2,0
					c0.5,0.5,1,0.9,1.4,1.3c0,0,0,0.1,0,0.2c0,0,0,0,0,0L55.4,110.9C55.4,110.8,55.4,110.9,55.4,110.9z"/>
				<path class="st2" d="M50.2,105.3C50.2,105.3,50.1,105.3,50.2,105.3c-0.1,0-0.1-0.1-0.1-0.2c0,0,0,0,0,0l6-4.4
					c-0.3-0.4-0.6-0.9-1-1.4l-6.3,3.9c-0.1,0-0.1,0-0.2,0c0-0.1,0-0.1,0-0.2l0,0l6.5-4c0,0,0.1,0,0.2,0c0,0,0,0,0,0
					c0.3,0.6,0.7,1.1,1.1,1.6c0,0,0,0.1,0,0.1c0,0,0,0.1,0,0.1L50.2,105.3C50.2,105.3,50.2,105.3,50.2,105.3z"/>
				<path class="st2" d="M68.8,117.8L68.8,117.8c-0.1,0-0.1-0.1-0.1-0.1c0,0,0,0,0,0l1.7-7.2c-0.7-0.2-1.2-0.3-1.7-0.4l-2.3,7.1
					c0,0.1-0.1,0.1-0.1,0.1c0,0,0,0,0,0c-0.1,0-0.1-0.1-0.1-0.1c0,0,0,0,0,0l2.3-7.2c0-0.1,0.1-0.1,0.1-0.1c0,0,0,0,0,0
					c0.5,0.2,1.1,0.3,1.9,0.5c0.1,0,0.1,0.1,0.1,0.2l-1.8,7.4C68.9,117.7,68.9,117.8,68.8,117.8z"/>
				<path class="st2" d="M66.4,117.1L66.4,117.1c-0.1,0-0.1-0.1-0.1-0.1c0,0,0,0,0,0l2.3-7.1c-0.6-0.2-1.1-0.4-1.6-0.6l-2.8,6.9
					c0,0.1-0.1,0.1-0.1,0.1c0,0,0,0,0,0c-0.1,0-0.1-0.1-0.1-0.1c0,0,0,0,0,0l2.9-7c0,0,0-0.1,0.1-0.1H67c0.6,0.2,1.2,0.4,1.8,0.7
					c0,0,0.1,0,0.1,0.1c0,0,0,0.1,0,0.1l-2.4,7.2C66.5,117,66.4,117.1,66.4,117.1z"/>
				<path class="st2" d="M57.3,112.5C57.3,112.5,57.3,112.5,57.3,112.5c-0.1,0-0.1-0.1-0.1-0.2l4.4-6c-0.5-0.4-1-0.7-1.3-1.1
					l-4.8,5.7c0,0-0.1,0-0.2,0c0,0,0,0,0,0c0,0,0-0.1,0-0.2c0,0,0,0,0,0l4.9-5.7c0,0,0.1,0,0.1,0c0,0,0.1,0,0.1,0
					c0.4,0.4,0.9,0.8,1.5,1.2c0,0,0,0.1,0,0.2c0,0,0,0,0,0l-4.4,6.1C57.4,112.5,57.4,112.5,57.3,112.5z"/>
				<path class="st2" d="M73.8,118.6L73.8,118.6c-0.1,0-0.1-0.1-0.1-0.1c0,0,0,0,0,0l0.6-7.4c-0.5,0-1.1-0.1-1.7-0.2l-1.2,7.4
					c0,0.1-0.1,0.1-0.1,0.1c0,0,0,0,0,0c-0.1,0-0.1-0.1-0.1-0.1c0,0,0,0,0,0l1.2-7.5c0-0.1,0.1-0.1,0.1-0.1c0,0,0,0,0,0
					c0.7,0.1,1.3,0.2,1.9,0.2c0,0,0.1,0,0.1,0c0,0,0,0.1,0,0.1l-0.6,7.5C73.9,118.5,73.9,118.5,73.8,118.6
					C73.9,118.6,73.8,118.6,73.8,118.6z"/>
				<path class="st2" d="M61.7,115.1L61.7,115.1c-0.1,0-0.1-0.1-0.1-0.2l3.4-6.6c-0.5-0.2-1-0.5-1.5-0.8l-3.9,6.3c0,0-0.1,0-0.2,0
					c0,0,0-0.1,0-0.2c0,0,0,0,0,0l4-6.4c0,0,0,0,0.1,0c0,0,0.1,0,0.1,0c0.6,0.4,1.1,0.7,1.7,1c0.1,0,0.1,0.1,0.1,0.2l-3.4,6.7
					C61.9,115.2,61.8,115.2,61.7,115.1C61.7,115.2,61.7,115.1,61.7,115.1z"/>
				<path class="st2" d="M76.4,118.7c-0.1,0-0.1,0-0.1-0.1c0,0,0,0,0,0v-7.4c-0.6,0-1.1,0-1.7-0.1l-0.5,7.4c0,0.1,0,0.1-0.1,0.1
					c0,0,0,0,0,0c-0.1,0-0.1-0.1-0.1-0.1c0,0,0,0,0,0l0.6-7.5c0-0.1,0-0.1,0.1-0.1c0,0,0,0,0,0c0.7,0.1,1.3,0.1,2,0.1
					c0.1,0,0.1,0.1,0.1,0.1c0,0,0,0,0,0v7.6c0,0.1,0,0.1-0.1,0.2S76.4,118.7,76.4,118.7z"/>
				<path class="st2" d="M71.3,118.3L71.3,118.3c-0.1,0-0.1-0.1-0.1-0.1c0,0,0,0,0,0l1.2-7.4c-0.6-0.1-1.1-0.2-1.7-0.3l-1.7,7.2
					c0,0.1-0.1,0.1-0.1,0.1c-0.1,0-0.1-0.1-0.1-0.1c0,0,0,0,0,0l1.8-7.4c0-0.1,0.1-0.1,0.2-0.1c0.6,0.2,1.2,0.3,1.9,0.4
					c0,0,0.1,0,0.1,0c0,0,0,0.1,0,0.1l-1.2,7.5C71.4,118.2,71.4,118.3,71.3,118.3C71.3,118.3,71.3,118.3,71.3,118.3z"/>
				<path class="st2" d="M64,116.2L64,116.2c-0.1,0-0.1-0.1-0.1-0.1c0,0,0,0,0,0l2.8-6.9c-0.6-0.2-1.1-0.5-1.6-0.7l-3.4,6.6
					c0,0-0.1,0-0.2,0c0,0,0-0.1,0-0.2l3.3-6.7c0,0,0-0.1,0.1-0.1h0.1c0.5,0.2,1.1,0.6,1.8,0.8c0.1,0,0.1,0.1,0.1,0.2c0,0,0,0,0,0
					L64,116.2C64.1,116.2,64,116.2,64,116.2z"/>
				<path class="st2" d="M59.5,113.9L59.5,113.9c-0.1,0-0.1-0.1-0.1-0.2c0,0,0,0,0,0l3.9-6.3c-0.5-0.3-1-0.6-1.4-0.9l-4.4,6
					c-0.1,0-0.1,0-0.2,0c0,0,0-0.1,0-0.1l4.5-6.1c0,0,0,0,0.1,0s0.1,0,0.1,0c0.5,0.4,1.1,0.7,1.6,1.1c0,0.1,0,0.1,0,0.2L59.5,113.9
					C59.5,113.9,59.5,113.9,59.5,113.9z"/>
			</g>
			<path class="st2" d="M76.4,150.4c-35.5,0-64.2-28.7-64.2-64.2C12.2,50.7,40.9,22,76.4,22s64.2,28.7,64.2,64.2c0,0,0,0,0,0
				C140.5,121.6,111.8,150.3,76.4,150.4z M76.4,23.2c-34.8,0-63,28.2-63,63s28.2,63,63,63s63-28.2,63-63
				C139.4,51.4,111.2,23.2,76.4,23.2z"/>
			<path class="st2" d="M76.4,130.9c-24.7,0-44.7-20-44.7-44.7c0-24.7,20-44.7,44.7-44.7c24.7,0,44.7,20,44.7,44.7c0,0,0,0,0,0
				C121.1,110.8,101.1,130.8,76.4,130.9z M76.4,42.1c-24.4,0-44.1,19.7-44.1,44.1s19.7,44.1,44.1,44.1s44.1-19.7,44.1-44.1
				C120.5,61.8,100.7,42.1,76.4,42.1z"/>
			<path class="st2" d="M76.4,129.5c-23.9,0-43.3-19.4-43.3-43.3c0-23.9,19.4-43.3,43.3-43.3c23.9,0,43.3,19.4,43.3,43.3
				C119.7,110.1,100.3,129.4,76.4,129.5z M76.4,44.1c-23.2,0-42.1,18.8-42.1,42.1s18.8,42.1,42.1,42.1s42.1-18.8,42.1-42.1
				c0,0,0,0,0,0C118.5,62.9,99.6,44.1,76.4,44.1z"/>
			<path class="st2" d="M76.4,108.3c-12.2,0-22.1-9.9-22.1-22.1s9.9-22.1,22.1-22.1s22.1,9.9,22.1,22.1c0,0,0,0,0,0
				C98.5,98.4,88.6,108.3,76.4,108.3z M76.4,67.7c-10.2,0-18.5,8.3-18.5,18.5s8.3,18.5,18.5,18.5s18.5-8.3,18.5-18.5
				C94.8,76,86.6,67.7,76.4,67.7z"/>
			<path class="st2" d="M76.4,111.6c-14.1,0-25.4-11.4-25.4-25.4c0-14.1,11.4-25.4,25.4-25.4s25.4,11.4,25.4,25.4c0,0,0,0,0,0
				C101.8,100.2,90.4,111.6,76.4,111.6z M76.4,61.9c-13.4,0-24.2,10.8-24.2,24.2c0,13.4,10.8,24.2,24.2,24.2
				c13.4,0,24.2-10.8,24.2-24.2c0,0,0,0,0,0C100.6,72.8,89.8,62,76.4,61.9z"/>
			<path class="st2" d="M78.1,27.8h-3.4c-0.3,0-0.6-0.3-0.6-0.6c0-0.3,0.3-0.6,0.6-0.6h3.4c0.3,0,0.6,0.3,0.6,0.6
				C78.7,27.6,78.4,27.8,78.1,27.8z M78.7,145.1c0-0.3-0.3-0.6-0.6-0.6l0,0h-3.4c-0.3,0-0.6,0.3-0.5,0.7c0,0.3,0.3,0.5,0.5,0.5h3.4
				C78.4,145.7,78.7,145.5,78.7,145.1z M18,87.8v-3.4c0-0.3-0.3-0.6-0.7-0.5c-0.3,0-0.5,0.3-0.5,0.5v3.4c0,0.3,0.2,0.6,0.5,0.7
				c0.3,0,0.6-0.2,0.7-0.5C18,88,18,87.9,18,87.8z M135.9,87.8v-3.4c0-0.3-0.3-0.6-0.7-0.5c-0.3,0-0.5,0.3-0.5,0.5v3.4
				c0,0.3,0.2,0.6,0.5,0.7c0.3,0,0.6-0.2,0.7-0.5C135.9,88,135.9,87.9,135.9,87.8z M33.9,46.1l2.4-2.4c0.2-0.2,0.2-0.6,0-0.8
				s-0.6-0.2-0.8,0L33,45.2c-0.2,0.2-0.2,0.6,0,0.9c0.1,0.1,0.3,0.2,0.4,0.2C33.6,46.3,33.8,46.2,33.9,46.1L33.9,46.1z M117.3,129.5
				l2.4-2.4c0.2-0.3,0.2-0.6-0.1-0.9c-0.2-0.2-0.6-0.2-0.8,0l-2.4,2.4c-0.2,0.3-0.2,0.6,0.1,0.9c0.1,0.1,0.2,0.1,0.4,0.1
				C117,129.6,117.2,129.6,117.3,129.5L117.3,129.5z M36.3,129.5c0.2-0.2,0.2-0.6,0-0.8c0,0,0,0,0,0l-2.4-2.4
				c-0.2-0.3-0.6-0.3-0.9-0.1s-0.3,0.6-0.1,0.9c0,0,0,0,0.1,0.1l2.4,2.4c0.1,0.1,0.3,0.2,0.4,0.2C36,129.7,36.2,129.6,36.3,129.5
				L36.3,129.5z M119.6,46.1c0.2-0.2,0.2-0.6,0-0.9l-2.4-2.4c-0.2-0.2-0.6-0.2-0.8,0c0,0,0,0,0,0c-0.2,0.2-0.2,0.6,0,0.8
				c0,0,0,0,0,0l2.4,2.4C119,46.3,119.4,46.3,119.6,46.1z"/>
			<g>
				
					<rect x="32.5" y="40.5" transform="matrix(0.7071 -0.7071 0.7071 0.7071 -20.6099 35.9272)" class="st2" width="1.2" height="4.6"/>
				<rect x="75.8" y="22.6" class="st2" width="1.2" height="4.6"/>
				<rect x="75.8" y="145.1" class="st2" width="1.2" height="4.6"/>
				<rect x="12.8" y="85.6" class="st2" width="4.6" height="1.2"/>
				<rect x="135.3" y="85.6" class="st2" width="4.6" height="1.2"/>
				
					<rect x="119.1" y="127.2" transform="matrix(0.7071 -0.7071 0.7071 0.7071 -56.5011 122.5783)" class="st2" width="1.2" height="4.6"/>
				
					<rect x="30.7" y="128.9" transform="matrix(0.707 -0.7072 0.7072 0.707 -81.9003 61.3235)" class="st2" width="4.6" height="1.2"/>
				<rect x="117.4" y="42.2" transform="matrix(0.7072 -0.707 0.707 0.7072 4.7625 97.177)" class="st2" width="4.6" height="1.2"/>
				<path class="st2" d="M21.9,64.2c-0.1,0-0.2,0-0.2,0l-4.3-1.8c-0.3-0.1-0.5-0.5-0.3-0.8c0.1-0.3,0.5-0.5,0.8-0.3l4.3,1.8
					c0.3,0.1,0.4,0.5,0.3,0.8C22.4,64.1,22.2,64.2,21.9,64.2z"/>
				<path class="st2" d="M135.1,111.1c-0.1,0-0.2,0-0.2,0l-4.3-1.8c-0.3-0.1-0.4-0.5-0.3-0.8c0.1-0.3,0.5-0.5,0.8-0.3c0,0,0,0,0,0
					l4.3,1.8c0.3,0.1,0.5,0.5,0.3,0.8C135.6,111,135.4,111.1,135.1,111.1z"/>
				<path class="st2" d="M52,145.5c-0.1,0-0.2,0-0.2-0.1c-0.3-0.1-0.5-0.5-0.3-0.8c0,0,0,0,0,0l1.8-4.3c0.1-0.3,0.5-0.5,0.8-0.3
					c0,0,0,0,0,0c0.3,0.1,0.5,0.5,0.3,0.8l-1.8,4.3C52.5,145.4,52.3,145.5,52,145.5z"/>
				<path class="st2" d="M98.9,32.3c-0.1,0-0.2,0-0.2,0c-0.3-0.1-0.5-0.5-0.3-0.8l1.8-4.3c0.2-0.3,0.5-0.4,0.8-0.3
					c0.3,0.1,0.4,0.4,0.3,0.7l-1.8,4.2C99.4,32.2,99.2,32.3,98.9,32.3z"/>
				<path class="st2" d="M17.6,111.1c-0.2,0-0.5-0.1-0.6-0.4c-0.1-0.3,0-0.7,0.3-0.8l4.3-1.8c0.3-0.1,0.7,0.1,0.8,0.4
					c0.1,0.3,0,0.6-0.3,0.7l-4.3,1.8C17.8,111.1,17.7,111.1,17.6,111.1z"/>
				<path class="st2" d="M130.9,64.2c-0.2,0-0.5-0.1-0.6-0.4c-0.1-0.3,0-0.7,0.3-0.8l4.3-1.8c0.3-0.1,0.7,0,0.8,0.3
					c0.1,0.3,0,0.7-0.3,0.8l-4.3,1.8C131,64.2,130.9,64.2,130.9,64.2z"/>
				<path class="st2" d="M100.7,145.5c-0.2,0-0.5-0.2-0.6-0.4l-1.8-4.3c-0.1-0.3,0-0.7,0.3-0.8c0.3-0.1,0.7,0,0.8,0.3c0,0,0,0,0,0
					l1.8,4.3c0.1,0.3,0,0.7-0.3,0.8c0,0,0,0,0,0C100.9,145.5,100.8,145.5,100.7,145.5z"/>
				<path class="st2" d="M53.8,32.3c-0.2,0-0.5-0.1-0.6-0.4l-1.8-4.3c-0.1-0.3,0.1-0.7,0.4-0.7c0.3-0.1,0.6,0,0.7,0.3l1.8,4.3
					c0.1,0.3,0,0.7-0.3,0.8C54,32.3,53.9,32.3,53.8,32.3z"/>
			</g>
			<g>
				<path class="st2" d="M37.6,78.9L37.6,78.9l-3.1-0.6c-0.2-0.1-0.4-0.3-0.4-0.5c0.1-0.2,0.3-0.4,0.5-0.4l3,0.6
					c0.2,0,0.4,0.2,0.4,0.5C38.1,78.8,37.9,79,37.6,78.9L37.6,78.9L37.6,78.9z"/>
				<path class="st2" d="M118.2,94.9L118.2,94.9l-3.1-0.6c-0.2-0.1-0.4-0.3-0.4-0.5c0.1-0.2,0.3-0.4,0.5-0.4l3,0.6
					c0.2,0,0.4,0.3,0.4,0.5c0,0,0,0,0,0C118.6,94.8,118.4,94.9,118.2,94.9z"/>
				<path class="st2" d="M68.1,128.4L68.1,128.4c-0.3-0.1-0.5-0.3-0.4-0.5l0.6-3.1c0.1-0.2,0.3-0.4,0.5-0.3c0.2,0.1,0.4,0.3,0.4,0.5
					l-0.6,3C68.5,128.3,68.3,128.4,68.1,128.4z"/>
				<path class="st2" d="M84.1,47.9L84.1,47.9c-0.3-0.1-0.5-0.3-0.4-0.5l0.6-3.1c0.1-0.2,0.3-0.4,0.5-0.3c0.2,0.1,0.4,0.3,0.3,0.5
					l-0.6,3C84.5,47.7,84.3,47.9,84.1,47.9z"/>
				<path class="st2" d="M41,110.3c-0.2,0-0.3-0.1-0.4-0.2c-0.1-0.2-0.1-0.5,0.1-0.6l2.6-1.7c0.2-0.1,0.5-0.1,0.6,0.1
					c0.1,0.2,0.1,0.5-0.1,0.6c0,0,0,0,0,0l-2.6,1.7C41.2,110.3,41.1,110.3,41,110.3z"/>
				<path class="st2" d="M109.2,64.7c-0.2,0-0.5-0.2-0.5-0.4c0-0.2,0.1-0.3,0.2-0.4l2.6-1.7c0.2-0.1,0.5-0.1,0.6,0.1
					s0.1,0.5-0.1,0.6l0,0l-2.6,1.7C109.4,64.7,109.3,64.7,109.2,64.7z"/>
				<path class="st2" d="M100.1,122.1c-0.2,0-0.3-0.1-0.4-0.2l-1.7-2.6c-0.1-0.2-0.1-0.5,0.1-0.6c0.2-0.1,0.5-0.1,0.6,0.1l1.7,2.6
					c0.1,0.2,0.1,0.5-0.1,0.6c0,0,0,0,0,0C100.3,122,100.2,122.1,100.1,122.1z"/>
				<path class="st2" d="M54.4,53.8c-0.2,0-0.3-0.1-0.4-0.2L52.3,51c-0.1-0.2,0-0.5,0.2-0.6c0.2-0.1,0.4-0.1,0.6,0.1l1.7,2.6
					c0.1,0.2,0.1,0.5-0.1,0.6c0,0,0,0,0,0C54.6,53.8,54.5,53.8,54.4,53.8z"/>
				<path class="st2" d="M34.6,94.9c-0.2,0-0.5-0.2-0.5-0.4c0-0.2,0.2-0.5,0.4-0.5l0,0l3.1-0.6c0.2,0,0.5,0.1,0.5,0.4
					s-0.1,0.5-0.4,0.5l0,0l-3,0.6L34.6,94.9z"/>
				<path class="st2" d="M115.1,78.9c-0.3,0-0.5-0.1-0.5-0.4c0-0.3,0.1-0.5,0.4-0.5l0,0l3-0.6c0.2,0,0.5,0.1,0.5,0.4
					c0,0.2-0.1,0.5-0.4,0.5c0,0,0,0,0,0L115.1,78.9L115.1,78.9z"/>
				<path class="st2" d="M84.7,128.4c-0.2,0-0.4-0.2-0.4-0.4l-0.6-3.1c0-0.2,0.1-0.5,0.4-0.5c0.2,0,0.5,0.1,0.5,0.4l0.6,3.1
					C85.2,128.1,85,128.4,84.7,128.4L84.7,128.4z"/>
				<path class="st2" d="M68.7,47.9c-0.2,0-0.4-0.2-0.4-0.4l-0.6-3.1c0-0.2,0.1-0.5,0.3-0.5c0.2,0,0.5,0.1,0.5,0.3l0.6,3.1
					C69.2,47.6,69,47.8,68.7,47.9L68.7,47.9z"/>
				<path class="st2" d="M52.7,122.1c-0.1,0-0.2,0-0.2-0.1c-0.2-0.1-0.3-0.4-0.1-0.6c0,0,0,0,0,0l1.7-2.6c0.2-0.2,0.5-0.2,0.6-0.1
					c0.2,0.1,0.2,0.4,0.1,0.6l-1.7,2.6C53,122,52.9,122.1,52.7,122.1z"/>
				<path class="st2" d="M98.3,53.8c-0.1,0-0.2,0-0.2-0.1c-0.2-0.1-0.3-0.4-0.1-0.6l1.7-2.6c0.1-0.2,0.4-0.3,0.6-0.1
					c0.2,0.1,0.3,0.4,0.1,0.6c0,0,0,0,0,0l-1.7,2.6C98.6,53.7,98.5,53.8,98.3,53.8z"/>
				<path class="st2" d="M111.8,110.3c-0.1,0-0.2,0-0.2-0.1l-2.6-1.7c-0.2-0.1-0.3-0.4-0.1-0.6c0,0,0,0,0,0c0.1-0.2,0.4-0.3,0.6-0.1
					l2.6,1.7c0.2,0.1,0.3,0.4,0.1,0.6c0,0,0,0,0,0C112.1,110.2,112,110.3,111.8,110.3z"/>
				<path class="st2" d="M43.5,64.7c-0.1,0-0.2,0-0.2-0.1l-2.6-1.7c-0.2-0.1-0.3-0.4-0.1-0.6c0.1-0.2,0.4-0.3,0.6-0.1l2.6,1.7
					c0.2,0.1,0.3,0.4,0.1,0.6C43.8,64.6,43.7,64.7,43.5,64.7z"/>
			</g>
			<g>
				<g>
					<path class="st2" d="M114.4,50.2l0.4-3.4l-1.9,1.9l-0.5-0.5l3.1-3.1l0.3,0.3l-0.4,3.3l1.8-1.8l0.5,0.5l-3.1,3.1L114.4,50.2z"/>
					<path class="st2" d="M111.4,50.6l-0.7,0.7l1,1l-0.5,0.5l-1-1l-0.9,0.9l1.4,1.4l-0.5,0.5l-1.9-1.9l3.1-3.1l2,2l-0.5,0.5
						L111.4,50.6z"/>
				</g>
				<g>
					<path class="st2" d="M40.1,124.5l-0.7,0.3c0-0.3-0.2-0.6-0.4-0.9c-0.3-0.3-0.6-0.4-0.8-0.1c-0.1,0.1-0.2,0.3-0.2,0.4
						c0,0.3,0,0.5,0.1,0.8c0.1,0.2,0.2,0.5,0.2,0.8c0,0.2,0,0.3-0.1,0.5c-0.1,0.2-0.2,0.3-0.3,0.4c-0.2,0.2-0.5,0.4-0.8,0.3
						c-0.3,0-0.7-0.2-0.9-0.4c-0.3-0.3-0.5-0.6-0.6-1l0.6-0.3c0,0.3,0.2,0.6,0.4,0.8c0.1,0.1,0.2,0.2,0.4,0.2c0.1,0,0.3,0,0.4-0.2
						c0.2-0.2,0.2-0.6,0-1.1c-0.1-0.2-0.1-0.5-0.2-0.7c0-0.2,0-0.3,0.1-0.5c0.1-0.2,0.2-0.3,0.3-0.4c0.2-0.3,0.6-0.4,0.9-0.3
						c0.4,0.1,0.7,0.3,1,0.6C39.9,123.7,40,124.1,40.1,124.5z"/>
					<path class="st2" d="M42.8,118.2l0.2,0.2l-1.3,2.6l2.6-1.3l0.2,0.2l-2.1,4.1l-0.6-0.6l1.3-2.4l-2.5,1.2l-0.2-0.2l1.2-2.5
						l-2.4,1.3l-0.6-0.6L42.8,118.2z"/>
				</g>
				<g>
					<path class="st2" d="M40.2,48.4L36.8,48l1.9,1.9l-0.5,0.5l-3.1-3.1l0.3-0.3l3.3,0.4l-1.8-1.8l0.5-0.5l3.1,3.1L40.2,48.4z"/>
					<path class="st2" d="M44.5,52.7l-0.2,0.2l-2.6-1.3l1.3,2.6l-0.2,0.2l-4.1-2.1l0.6-0.6l2.4,1.3l-1.2-2.5l0.2-0.2l2.5,1.2
						l-1.3-2.4l0.6-0.6L44.5,52.7z"/>
				</g>
				<g>
					<path class="st2" d="M114.7,122.8l0.3,0.7c-0.3,0-0.6,0.2-0.9,0.4c-0.3,0.3-0.4,0.6-0.2,0.8c0.1,0.1,0.3,0.2,0.4,0.2
						c0.3,0,0.5,0,0.8-0.2c0.2-0.1,0.5-0.2,0.8-0.2c0.2,0,0.3,0,0.4,0.1c0.2,0.1,0.3,0.2,0.4,0.3c0.2,0.2,0.3,0.5,0.3,0.8
						c0,0.3-0.2,0.7-0.4,0.9c-0.3,0.3-0.6,0.5-1,0.6l-0.3-0.6c0.3,0,0.6-0.2,0.8-0.4c0.1-0.1,0.2-0.2,0.2-0.4c0-0.1-0.1-0.3-0.2-0.4
						c-0.2-0.2-0.6-0.2-1.1,0c-0.2,0.1-0.5,0.1-0.7,0.2c-0.2,0-0.3,0-0.5-0.1c-0.2-0.1-0.3-0.2-0.4-0.3c-0.2-0.2-0.4-0.6-0.3-0.9
						c0.1-0.4,0.3-0.7,0.6-1C113.9,123.1,114.3,122.9,114.7,122.8z"/>
					<path class="st2" d="M112.2,121.5l-0.7-0.7l-1,1l-0.5-0.5l1-1l-0.9-0.9l-1.4,1.4l-0.5-0.5l1.9-1.9l3.1,3.1l-2,2l-0.5-0.5
						L112.2,121.5z"/>
				</g>
			</g>
		</g>
		<g>
			<polygon class="st3" points="79,83.9 52.7,62.3 76.6,86.3 			"/>
			<polygon class="st3" points="100.5,110.2 74.2,88.6 76.6,86.3 			"/>
			<polygon class="st3" points="100.5,62.3 79,88.6 76.6,86.3 			"/>
			<polygon class="st3" points="74.2,83.9 52.7,110.2 76.6,86.3 			"/>
			<polygon class="st4" points="52.7,62.3 74.2,88.6 76.6,86.3 			"/>
			<polygon class="st4" points="79,83.9 100.5,110.2 76.6,86.3 			"/>
			<polygon class="st4" points="74.2,83.9 100.5,62.3 76.6,86.3 			"/>
			<polygon class="st4" points="52.7,110.2 79,88.6 76.6,86.3 			"/>
		</g>
		<g>
			<polygon class="st4" points="76.4,42 72,86.2 76.4,86.2 			"/>
			<polygon class="st4" points="76.4,130.4 80.8,86.2 76.4,86.2 			"/>
			<polygon class="st4" points="32.2,86.2 76.4,90.6 76.4,86.2 			"/>
			<polygon class="st4" points="120.6,86.2 76.4,81.8 76.4,86.2 			"/>
			<polygon class="st3" points="72,86.2 76.4,130.4 76.4,86.2 			"/>
			<polygon class="st3" points="76.4,86.2 80.8,86.2 76.4,42 			"/>
			<polygon class="st3" points="76.4,90.6 120.6,86.2 76.4,86.2 			"/>
			<polygon class="st3" points="76.4,86.2 76.4,81.8 32.2,86.2 			"/>
		</g>
	</g>
	<rect x="5.4" y="20.7" class="st5" width="7.3" height="7.2"/>
	<rect x="14.4" y="30.4" class="st5" width="4.8" height="4.8"/>
	<rect x="26.1" y="20.7" class="st5" width="6.5" height="5"/>
	<rect x="21.4" y="31.7" class="st5" width="2.9" height="2.9"/>
	<rect x="140.1" y="140.9" class="st5" width="9.2" height="9.2"/>
	<rect x="135.6" y="131.9" class="st5" width="4.8" height="4.8"/>
	<rect x="122.1" y="141.3" class="st5" width="6.5" height="5"/>
	<rect x="125.3" y="132.4" class="st5" width="3.7" height="3.7"/>
	<g>
		<polygon class="st3" points="77,3.4 76.7,0 67.3,86.3 76.4,86.4 		"/>
		<polygon class="st6" points="85.5,86.5 77,3.4 76.4,86.4 		"/>
		<polygon class="st7" points="67.3,86.3 75.4,172.8 75.8,169.4 76.4,86.4 		"/>
		<polygon class="st8" points="76.4,86.4 75.8,169.4 85.5,86.5 		"/>
		<path class="st4" d="M84.3,83.1c1.8,4.4-0.4,9.5-4.8,11.3S70,94,68.2,89.6c-1.8-4.4,0.3-9.5,4.8-11.3
			C77.4,76.5,82.5,78.6,84.3,83.1C84.3,83.1,84.3,83.1,84.3,83.1z"/>
		<path class="st6" d="M78.7,83.9c1.3,1.3,1.3,3.5,0,4.8s-3.5,1.3-4.8,0c-1.3-1.3-1.3-3.5,0-4.8C75.2,82.6,77.4,82.6,78.7,83.9z"/>
	</g>
	<g>
		<rect x="8.4" y="73.2" class="st8" width="139" height="26.4"/>
		<rect x="133" y="93.6" class="st8" width="17.2" height="12.4"/>
		<rect x="1.3" y="93.2" class="st8" width="14.2" height="14.2"/>
		<rect x="14.9" y="115.2" class="st8" width="7.7" height="7.7"/>
		<rect x="7.1" y="71.3" class="st5" width="139" height="26.4"/>
		<rect x="131.7" y="91.1" class="st5" width="17.2" height="12.4"/>
		<rect y="90.6" class="st5" width="14.2" height="14.2"/>
		<rect x="13.6" y="112.6" class="st5" width="7.7" height="7.7"/>
		<rect x="137.1" y="60.2" class="st8" width="7.7" height="7.7"/>
		<rect x="135.8" y="57.6" class="st5" width="7.7" height="7.7"/>
		<text transform="matrix(1 0 0 1 18.3701 91.7348)" class="st9 st10 st11">©2022 Gilead</text>
	</g>
</g>
</svg>
