<svg xmlns="http://www.w3.org/2000/svg" viewBox="0 0 169.35 156.84">
  <defs>
    <style>
      .cls-1 {
        isolation: isolate;
      }

      .cls-2 {
        fill: #fff2f9;
      }

      .cls-3 {
        fill: #5f94cc;
      }

      .cls-4 {
        fill: #cac3b3;
      }

      .cls-5 {
        fill: #8c8776;
      }

      .cls-6 {
        fill: #4c7a84;
        opacity: 0.5;
        mix-blend-mode: multiply;
      }

      .cls-7 {
        fill: #79b6d3;
      }

      .cls-8 {
        fill: #92b7c3;
      }

      .cls-9 {
        fill: #7b9aa9;
      }

      .cls-10 {
        fill: #ffd255;
      }

      .cls-11 {
        fill: #bdd7df;
      }

      .cls-12 {
        fill: #504c53;
      }

      .cls-13 {
        fill: #aecbd3;
      }

      .cls-14 {
        fill: #165b91;
      }
    </style>
  </defs>
  <g class="cls-1">
    <g id="Layer_1" data-name="Layer 1">
      <g>
        <g>
          <path class="cls-2" d="M128.69,130.72c-.63,0,.62,0,0,0,11.59.31,18.89,3.46,18.89,7.26,0,4-10.11,7.25-22.58,7.25S102.43,142,102.43,138a3.45,3.45,0,0,1,1.36-2.4c-2.12,1.28-3.44,2.72-3.44,4.28,0,5,12.69,9.13,28.34,9.13S157,144.9,157,139.86,144.34,130.72,128.69,130.72Z"/>
          <path class="cls-2" d="M161.9,139.77c0,.21.09.41.09.62,0,7.37-17.52,13.34-39.13,13.34s-39.12-6-39.12-13.34c0-4.3,6-8.11,15.27-10.55C86.7,132.37,78.42,137,78.42,142.31c0,8,18.84,14.53,42.08,14.53s42.08-6.5,42.08-14.53A5.62,5.62,0,0,0,161.9,139.77Z"/>
          <path class="cls-2" d="M125.23,134.76l.19.13a1.39,1.39,0,0,1,.58,1c0,.16-.09.27-.14.4a.38.38,0,0,1,0,.1c0,.85-2.41,1.55-5.39,1.55s-5.39-.7-5.39-1.55a.49.49,0,0,1,.06-.17l-.09-.07a.44.44,0,0,1-.2-.35.41.41,0,0,1,.15-.27,3.91,3.91,0,0,1,1-.65,11.54,11.54,0,0,1,1.25-.43c-2.38.4-4,1.23-4,2.19,0,1.36,3.25,2.47,7.25,2.47s7.25-1.11,7.25-2.47C127.75,135.87,126.76,135.21,125.23,134.76Z"/>
        </g>
        <g>
          <path class="cls-3" d="M87.31,79.56c0-6.65-2-13.34-6.06-18.08s-10.28-7.56-16-6.86S54,59.59,50.69,65.28a41.2,41.2,0,0,0-4.58,12.39c-.61,2.8-.08,8.72-3.28,9.93a7.27,7.27,0,0,1-3.18.3,7.08,7.08,0,0,1-2.95-.71c-3.33-1.83-.77-9.42-.18-12.35a51.22,51.22,0,0,1,5.21-14.71,35.54,35.54,0,0,1,8.89-10.51,27.69,27.69,0,0,1,13.23-5.83,28,28,0,0,1,14.41,1.88,31.45,31.45,0,0,1,11.67,8.24A36.33,36.33,0,0,1,97,66a43.45,43.45,0,0,1,2.45,13.42c.1,3.34-3.26,4.14-6.61,4.23s-5.4-.55-5.5-3.89Z"/>
          <path class="cls-4" d="M63.33,54.75a21.26,21.26,0,0,0-14.5,6.6c-3,3.33-4.71,7.64-5.7,12a71.08,71.08,0,0,0-1.45,14.54,5.17,5.17,0,0,0,1.15-.26c3.2-1.22,2.67-7.14,3.28-9.94a41.2,41.2,0,0,1,4.58-12.39c3.18-5.41,8.36-9.62,13.75-10.54Z"/>
          <path class="cls-5" d="M46.05,65.29c-.22.41-.43.82-.63,1.24a8.67,8.67,0,0,0,1.91.21A14.86,14.86,0,0,0,50,66.45c.21-.39.42-.78.65-1.17l.24-.38A12.77,12.77,0,0,1,46.05,65.29Z"/>
          <path class="cls-5" d="M61,55.62l-1.28.44a.49.49,0,0,1,.16-.54,4.13,4.13,0,0,1-.85-.11c-.64.16-1.28.36-1.92.58a5.4,5.4,0,0,0,2,.78,17.37,17.37,0,0,1,1.92-1A.47.47,0,0,0,61,55.62Z"/>
          <path class="cls-5" d="M57.56,57.51a1.86,1.86,0,0,1-1.89.06,3.34,3.34,0,0,1-.85-.62c-.42.21-.84.41-1.24.64a5.11,5.11,0,0,0,1.49,1.19,4.55,4.55,0,0,0,.78.28,22.28,22.28,0,0,1,1.82-1.42Z"/>
          <path class="cls-5" d="M52.44,61.39a8.08,8.08,0,0,1-2-1.57c-.35.3-.67.63-1,1a9.54,9.54,0,0,0,2.39,1.81,5.05,5.05,0,0,0,.53.24c.3-.39.61-.78.93-1.15A2.54,2.54,0,0,1,52.44,61.39Z"/>
          <path class="cls-5" d="M42.32,78.09c-.06.44-.11.89-.16,1.34.11,0,.21,0,.32,0a6.13,6.13,0,0,0,2.36-.55A11.18,11.18,0,0,0,46,78.34c0-.24.08-.46.12-.67.09-.41.19-.82.28-1.22a9.55,9.55,0,0,1-2.07,1.22A4.33,4.33,0,0,1,42.32,78.09Z"/>
          <path class="cls-5" d="M44,70.18c-.14.44-.26.89-.39,1.33a5.64,5.64,0,0,0,2.66.67,5.72,5.72,0,0,0,1.42-.2c.18-.55.38-1.09.59-1.63A4.46,4.46,0,0,1,44,70.18Z"/>
          <path class="cls-5" d="M45.79,80.22a9.76,9.76,0,0,1-3,3.11,4.8,4.8,0,0,1-1,.49c0,.47,0,.94-.05,1.4a5,5,0,0,0,1.78-.77,10.77,10.77,0,0,0,2-1.66c.13-.85.21-1.73.28-2.56Z"/>
          <path class="cls-6" d="M89,80.24a21.4,21.4,0,0,1-1.5-6.41c-.43-3.79-.82-7.65-2.34-11.15C82.21,55.9,75,51.4,67.59,51s-14.73,3.09-19.73,8.55a34.37,34.37,0,0,0-8.4,20.14,22.69,22.69,0,0,0,.65,8.21,6.75,6.75,0,0,0,2.72-.33c3.2-1.21,2.67-7.13,3.28-9.93a41.2,41.2,0,0,1,4.58-12.39C54,59.59,59.6,55.21,65.28,54.62s12.09,2.19,16,6.86,6.06,11.43,6.06,18.08v.17c.09,3.06,1.83,3.85,4.69,3.89C91.12,82.57,89.5,81.3,89,80.24Z"/>
          <path class="cls-7" d="M95.09,75.74a17.14,17.14,0,0,0-.94-7.88,36.22,36.22,0,0,0-3.44-7.19C88,56.12,84.64,51.81,80.16,49.06a19.58,19.58,0,0,0-7.24-2.82,24.9,24.9,0,0,0-7.85,0,30.18,30.18,0,0,0-7.61,2.28,48.38,48.38,0,0,0-7.07,3.83,41.48,41.48,0,0,1,6.79-4.43,31,31,0,0,1,7.71-2.7,21.92,21.92,0,0,1,16,2.69A33,33,0,0,1,91.61,60.16a37,37,0,0,1,3.17,7.51A16.49,16.49,0,0,1,95.09,75.74Z"/>
        </g>
        <g>
          <path class="cls-3" d="M103.33,122.87c-.6-2.73.18-6.26-.26-8.92a34.15,34.15,0,0,0-1-4.37,26.65,26.65,0,0,0-1.5-4,9.8,9.8,0,0,0-1.79-2.68,6,6,0,0,0-2.2-1.4,9.69,9.69,0,0,0-6.28,0,14.74,14.74,0,0,0-6.09,4.12,27.46,27.46,0,0,0-4.66,7.2,33.18,33.18,0,0,0-2.87,11.4c-.22,3.14,1.27,7.88-2.31,9.6a10.91,10.91,0,0,1-4.47.75c-10.74.26-4.05-21.11-1.53-26.78a39.46,39.46,0,0,1,6.77-10.52,27,27,0,0,1,11.31-7.56,22.06,22.06,0,0,1,14.5.15,18.66,18.66,0,0,1,6.68,4.23,22.55,22.55,0,0,1,4.2,6,39.58,39.58,0,0,1,2.29,5.89,46.58,46.58,0,0,1,1.4,5.94c.77,4.53,2.71,12.68-3,14.52a9.47,9.47,0,0,1-5.9.22A4.7,4.7,0,0,1,103.33,122.87Z"/>
          <path class="cls-4" d="M109.13,126.34c-.13-6.33.93-13.7-2.38-19.44a12.5,12.5,0,0,0-8.35-6A10.47,10.47,0,0,0,94,101a8.43,8.43,0,0,1,2.54.5,6,6,0,0,1,2.2,1.4,9.8,9.8,0,0,1,1.79,2.68,26.65,26.65,0,0,1,1.5,4,34.15,34.15,0,0,1,1,4.37c.44,2.66-.34,6.19.26,8.92a4.7,4.7,0,0,0,3.3,3.75,7.64,7.64,0,0,0,2.51.37C109.14,126.77,109.13,126.56,109.13,126.34Z"/>
          <path class="cls-7" d="M90.63,90.61a6.33,6.33,0,0,0-3.69,1.2c-.44.32-.88.9-.59,1.36a1.18,1.18,0,0,0,.59.4,8,8,0,0,0,7.2-.91,1.58,1.58,0,0,0,.52-.54c.33-.68-.41-1.44-1.15-1.6s-1.53,0-2.26-.17"/>
          <path class="cls-7" d="M98.43,91.58a.7.7,0,0,0-1.09.4A1.05,1.05,0,0,0,98,93.11a2.2,2.2,0,0,0,1.39.06c.67-.16,1.44-.69,1.25-1.35s-1.2-.71-1.92-.55"/>
          <path class="cls-5" d="M100,102.2a3.29,3.29,0,0,0,.7-.57,11.75,11.75,0,0,0-1.55-.52,6.88,6.88,0,0,1-1.78.58l.06.26a5.73,5.73,0,0,1,1.15.83A6,6,0,0,0,100,102.2Z"/>
          <path class="cls-5" d="M104.85,110.77a3.69,3.69,0,0,0,3-1.46c-.15-.42-.32-.84-.51-1.25l-.41,0c-.08.86-1.19,1.4-2.13,1.4a3.85,3.85,0,0,1-3.33-2.17l-.17.08c.28.72.53,1.48.76,2.25,0,.13.07.26.11.39a5.1,5.1,0,0,0,2.61.8Z"/>
          <path class="cls-5" d="M102.74,106.28a3.64,3.64,0,0,0,2.16-.67,2.76,2.76,0,0,0,.55-.53c-.3-.34-.61-.67-.94-1a1.81,1.81,0,0,1-.4.43,2.63,2.63,0,0,1-2.16.31,6.5,6.5,0,0,1-2.24-1.21l-.17.21a11,11,0,0,1,1,1.76l.09.2a5.73,5.73,0,0,0,1,.34A4.37,4.37,0,0,0,102.74,106.28Z"/>
          <path class="cls-5" d="M107.22,118.79a5.65,5.65,0,0,0,.89.08,3.4,3.4,0,0,0,1.08-.17q0-.75,0-1.5a2.18,2.18,0,0,1-1.7.26,6.12,6.12,0,0,1-4.4-3.56.43.43,0,0,1,0,0,14.45,14.45,0,0,1,.13,2.59A7.33,7.33,0,0,0,107.22,118.79Z"/>
          <path class="cls-5" d="M107.89,123a4.07,4.07,0,0,1-3.31-.75,5.63,5.63,0,0,1-1.48-2.38,13.84,13.84,0,0,0,.23,3,3.62,3.62,0,0,0,.38.41,5.2,5.2,0,0,0,3.35,1.14,6.56,6.56,0,0,0,1.07-.1,7.18,7.18,0,0,0,1-.25l0-1.46A6.48,6.48,0,0,1,107.89,123Z"/>
          <path class="cls-6" d="M112.51,108.21c-1-3.84-2.71-7.77-6-10s-8-2.43-12-1.51a28.39,28.39,0,0,0-18.92,15c-2.64,5.4-2.54,10.9-3.9,16.57a12.13,12.13,0,0,1-3.84,6,6.14,6.14,0,0,0,2,.28,10.91,10.91,0,0,0,4.47-.75c3.58-1.72,2.09-6.46,2.31-9.6a33.18,33.18,0,0,1,2.87-11.4,27.46,27.46,0,0,1,4.66-7.2,14.74,14.74,0,0,1,6.09-4.12,9.69,9.69,0,0,1,6.28,0,6,6,0,0,1,2.2,1.4,9.8,9.8,0,0,1,1.79,2.68,26.65,26.65,0,0,1,1.5,4,34.15,34.15,0,0,1,1,4.37c.44,2.66-.34,6.19.26,8.92a4.7,4.7,0,0,0,3.3,3.75,8.7,8.7,0,0,0,4.56.14,22,22,0,0,0,2.11-6A28.61,28.61,0,0,0,112.51,108.21Z"/>
          <path class="cls-7" d="M109.2,97a11.16,11.16,0,0,0-5.77-4,23.76,23.76,0,0,0-6.87-1.73c-4.68-.34-9.24,1.69-13.22,4.15a34.79,34.79,0,0,0-10.08,9.89,32.27,32.27,0,0,0-3.36,6.3,34.91,34.91,0,0,0-2.05,6.9,30.79,30.79,0,0,1,4.54-13.76A32.65,32.65,0,0,1,82.62,94.28a31.91,31.91,0,0,1,6.66-3.2,16.79,16.79,0,0,1,7.38-.84,24.19,24.19,0,0,1,7,2.14C105.85,93.42,108.13,94.78,109.2,97Z"/>
        </g>
        <g>
          <path class="cls-8" d="M147.68,54.7c2.06-.64,4.08-1.42,6.06-2.26a.61.61,0,0,0,0-.44c-.31-1.06-2,.18-3-.28a20.71,20.71,0,0,0,6.33-10.43,12.7,12.7,0,0,0-8.7,6.44,15.4,15.4,0,0,0-.44-9.11c-2.82,2.76-2.83,5.79-4.28,9.14-1.15,2.67-3.81,5-5.38,7.45-.25.39-.48.79-.71,1.19A32.72,32.72,0,0,0,147.68,54.7Z"/>
          <path class="cls-9" d="M162.9,68.34c.5.11.69.54.94.88a6.27,6.27,0,0,1,.58,1.12,8.09,8.09,0,0,1,.57,2.39,13.61,13.61,0,0,1-.49,4.66c-.37,1.47-.86,2.89-1.18,4.28a3.84,3.84,0,0,0,.59,3.65,2.25,2.25,0,0,0,3.22-.33,5.08,5.08,0,0,0,1-1.75,5.53,5.53,0,0,0,.37-2,1.91,1.91,0,0,0-.84-1.57,1.24,1.24,0,0,0-1.61.25,2.79,2.79,0,0,0-.75,1.83,1.6,1.6,0,0,0,.83,1.63.21.21,0,0,1,.13.25.21.21,0,0,1-.26.13,2,2,0,0,1-1.21-2,3.33,3.33,0,0,1,.81-2.24A1.92,1.92,0,0,1,168,79a2.67,2.67,0,0,1,1.29,2.13,6.14,6.14,0,0,1-.33,2.36,5.82,5.82,0,0,1-1.15,2.11,3.81,3.81,0,0,1-2.2,1.24,2.92,2.92,0,0,1-2.51-.76A3.92,3.92,0,0,1,162,83.84a7,7,0,0,1,.1-2.43c.3-1.51.73-2.93,1-4.35a12.07,12.07,0,0,0,.31-4.16,7.27,7.27,0,0,0-.52-1.92,5.57,5.57,0,0,0-.47-.83c-.16-.28-.45-.42-.48-.84v-.15a.79.79,0,0,1,.74-.83A.72.72,0,0,1,162.9,68.34Z"/>
          <path class="cls-9" d="M152,56.05q-1,.36-2,.66a32.61,32.61,0,0,1-11.35,1.6,54.88,54.88,0,0,0-6.06,17.84,5.61,5.61,0,0,0,0,2.48,2.89,2.89,0,0,0,5.56-.17,12.87,12.87,0,0,0,.15-2c.26-2.75,2.61-4.77,4.77-6.48-1.11.28-2-1.21-1.62-2.29A4.28,4.28,0,0,1,144,65.55a6.49,6.49,0,0,0,2.88-1.8,4.64,4.64,0,0,0-2.31-1.2Z"/>
          <path class="cls-3" d="M144.54,55.5c.07.14.15.15,0,.14a1.47,1.47,0,0,0-.54,0,4.2,4.2,0,0,0-1.92,1.11A13.15,13.15,0,0,0,139.66,60a20.08,20.08,0,0,0-1.76,4.35A46.8,46.8,0,0,0,136.43,75c-.17,3.87-.13,7.85,0,11.92.17,8.13.6,16.7-.38,25.67a106,106,0,0,1-4,20.16,10.91,10.91,0,0,1-4,5.76,12.32,12.32,0,0,1-7.13,1.71c-2.59,0-5.4-.6-7.11-2.55-3.85-4.42,1.1-7.49,3.06-10.91,2.73-4.77,4-10.57,4.78-16,1.08-7.44,1-15.44,1.06-23.8,0-4.18.13-8.46.47-12.83a59.17,59.17,0,0,1,2.41-13.68,32.11,32.11,0,0,1,3.14-7A25.4,25.4,0,0,1,134,47.18a16,16,0,0,1,9.2-3.84,13.59,13.59,0,0,1,5.55.82,12,12,0,0,1,5.08,3.6,6.05,6.05,0,1,1-9.31,7.74Z"/>
          <path class="cls-4" d="M148.79,57.66c-1.25-2.84-4.71-3.34-7.56-3.1-3.11.27-6.63,1.32-8.77,3.7-5.34,5.93-4.66,15.15-4.42,22.54.34,10.5.58,21.07-.85,31.51-1,7.34-3,14.6-6.86,21a44.55,44.55,0,0,1-4.38,6,14.53,14.53,0,0,0,12.07-.74,10.91,10.91,0,0,0,4-5.76,106,106,0,0,0,4-20.16c1-9,.55-17.54.38-25.67-.09-4.07-.13-8,0-11.92A46.8,46.8,0,0,1,137.9,64.3,20.08,20.08,0,0,1,139.66,60a13.15,13.15,0,0,1,2.46-3.22A4.2,4.2,0,0,1,144,55.62a1.47,1.47,0,0,1,.54,0c.11,0,0,0,0-.14A6,6,0,0,0,148.79,57.66Z"/>
          <path class="cls-8" d="M155.06,71.26a2.71,2.71,0,0,0-3.32.42,4.76,4.76,0,0,0-1.09,4.09A24.4,24.4,0,0,0,152,80.83a14.59,14.59,0,0,1,.92,5.8,6.38,6.38,0,0,1-1,2.93,3.38,3.38,0,0,1-2.34,1.59,4.6,4.6,0,0,1-4.45-2.58,6.39,6.39,0,0,1-.34-5.82,2.55,2.55,0,0,1,2.2-1.61A2.17,2.17,0,0,1,149.06,83a.38.38,0,0,1-.24.45.32.32,0,0,1-.37-.3A1.45,1.45,0,0,0,147,82a1.84,1.84,0,0,0-1.52,1.23,5.12,5.12,0,0,0,.44,4.67,3.56,3.56,0,0,0,3.52,1.91c1.28-.18,2.1-1.74,2.19-3.34a12.65,12.65,0,0,0-1-5,25.6,25.6,0,0,1-1.61-5.45,7.16,7.16,0,0,1,1.56-6,4.33,4.33,0,0,1,5.36-.83h0a1.29,1.29,0,0,1,.44,1.57.91.91,0,0,1-1.3.54Z"/>
          <path class="cls-7" d="M154.47,56c-.63,0-1.47.09-1.57.72a.91.91,0,0,0,.75.92,2.61,2.61,0,0,0,1.29-.17c.6-.18,1.34-.58,1.23-1.19s-1.18-.68-1.87-.45"/>
          <path class="cls-5" d="M131.79,133.43l-.68-.55a9.29,9.29,0,0,1-6.39,3.37,9.39,9.39,0,0,1-5.49-1.33c-.25.38-.49.76-.75,1.13a10.81,10.81,0,0,0,5.56,1.57c.26,0,.53,0,.79,0a10.62,10.62,0,0,0,6.4-2.88A12.1,12.1,0,0,0,131.79,133.43Z"/>
          <path class="cls-5" d="M134.23,122.82c-.26,1.15-1.6,1.75-2.17,2a7.79,7.79,0,0,1-7.35-1.27c-.15.45-.3.89-.46,1.34a9.26,9.26,0,0,0,5.34,1.7,8.6,8.6,0,0,0,2.93-.51,5.83,5.83,0,0,0,1.49-.78c.17-.79.33-1.58.48-2.38Z"/>
          <path class="cls-5" d="M135.21,93.3l-.33.2a5.23,5.23,0,0,1-6.58-1.18c0,.6,0,1.21,0,1.82a6.63,6.63,0,0,0,3.44,1.36,4.89,4.89,0,0,0,.54,0A6.75,6.75,0,0,0,136.56,94a4,4,0,0,0,0-1.61A8.32,8.32,0,0,1,135.21,93.3Z"/>
          <path class="cls-5" d="M136.2,110.54l-.12-.07c-.54,1-1.92,1.69-3.69,1.76a10,10,0,0,1-3-.34,2.9,2.9,0,0,1-2-1.35c-.07.59-.13,1.18-.21,1.77v0a5.44,5.44,0,0,0,1.86.87,11.84,11.84,0,0,0,3,.38h.43A6.6,6.6,0,0,0,136,112.5C136.09,111.84,136.14,111.19,136.2,110.54Z"/>
          <path class="cls-5" d="M135,104.31a4.83,4.83,0,0,0,1.59-.5c0-.72,0-1.45,0-2.17l-.11,0a.86.86,0,0,1-.36.83,3.32,3.32,0,0,1-1.38.47c-1.59.26-4.46.43-6.66-1,0,.51,0,1-.07,1.54a9.88,9.88,0,0,0,4.59,1A15.3,15.3,0,0,0,135,104.31Z"/>
          <path class="cls-5" d="M130,86.5a9.28,9.28,0,0,0,1.9.19,9.89,9.89,0,0,0,2.7-.38,4,4,0,0,0,1.58-.83,2.65,2.65,0,0,0,.21-.26l0-1.62-.85.24a.73.73,0,0,1-.26.66,2.43,2.43,0,0,1-1,.51,8.13,8.13,0,0,1-3.95.17A2.91,2.91,0,0,1,128.16,84h0c0,.63,0,1.25.05,1.87A5.42,5.42,0,0,0,130,86.5Z"/>
          <path class="cls-5" d="M127.9,76l0,1.44a14.64,14.64,0,0,0,4.77.92,7.26,7.26,0,0,0,3.65-.87l.06-1.75C135.19,77.11,132.05,77.59,127.9,76Z"/>
          <path class="cls-6" d="M129.65,60.94c-2.31,3.07-3.68,6.94-5.41,10.34-.35.69-.7,1.41-1,2.16l-.06.75c-.22,2.8-.33,5.57-.39,8.3a.83.83,0,0,1,.07.13c1.46,2.21,4.27,3.19,5.8,5.35a10.63,10.63,0,0,1,1.53,4.27c2.18,11.63-.08,23.78,2.33,35.36.14.65.3,1.3.48,2a115.45,115.45,0,0,0,3-17c1-9,.55-17.54.38-25.67-.09-4.07-.13-8,0-11.92A64.33,64.33,0,0,1,138,64c.51-2.33.71-5.79-2.43-6.52-1.76-.41-3.48.79-4.73,2.1A16,16,0,0,0,129.65,60.94Z"/>
          <path class="cls-10" d="M163.12,56.09a8.76,8.76,0,0,1-1.76,6.9,2,2,0,0,1-1.47.87c-.92,0-1.44-1-1.67-1.94a15.56,15.56,0,0,1-.37-6c.16-1.24.23-4,1.9-4S162.93,54.82,163.12,56.09Z"/>
          <path class="cls-11" d="M162.72,54.41a.42.42,0,0,0,.19-.18.38.38,0,0,0-.08-.3,9.7,9.7,0,0,0-3.19-3.15.55.55,0,0,0-.29-.11c-.33,0-.37.48-.3.8.26,1.12.51,3.35,1.28,4.23C161.24,56.75,161.82,55,162.72,54.41Z"/>
          <path class="cls-3" d="M148.68,44.63a4.87,4.87,0,0,0-1.6,0,53,53,0,0,0-5.3,1.63l-7.92,2.44-1.77,7.48c-.88,3.7,2.38,5.48,5.32,7.24,3.93,2.36,8.28,3.89,12.42,5.85a38.69,38.69,0,0,1,5.95,3.36c1.88,1.34,3.45,2.86,6,1.91,5.77-2.2,1.78-11.42-.22-15a18,18,0,0,1-1.05-3.08A8.07,8.07,0,0,1,160,54.8a10.31,10.31,0,0,0-2.31-5.27,2.69,2.69,0,0,0-2.53-1.24,2.93,2.93,0,0,1-.86.21,1.49,1.49,0,0,1-.83-.45C151.7,46.47,150.57,44.91,148.68,44.63Z"/>
          <path class="cls-12" d="M141.07,54.9c-1.31,3.07,3,9.61,5.27,5.63C148,57.54,142.69,51.13,141.07,54.9Z"/>
          <path class="cls-10" d="M146.42,59.41l-.25.16-.14.11H146l-.06,0a1.53,1.53,0,0,1-1,.12,1.75,1.75,0,0,1-.77-.46,2.49,2.49,0,0,1-.65-1.6,1.94,1.94,0,0,1,0-.48,1.63,1.63,0,0,1,.23-1.07,1.75,1.75,0,0,1,.72-.6l.41-.35.11,0c-1.34-1.54-3.1-2.23-3.92-.33-1.31,3.07,3,9.61,5.27,5.63a2.77,2.77,0,0,0,.31-1.44A2.35,2.35,0,0,1,146.42,59.41Z"/>
          <path class="cls-7" d="M153.45,51a6.17,6.17,0,0,0-2.87.81c-.35.2-.73.53-.66.93a1,1,0,0,0,.41.55,4.33,4.33,0,0,0,4.55.42,1.51,1.51,0,0,0,.83-.85,1.22,1.22,0,0,0-.88-1.35,3.5,3.5,0,0,0-1.76,0"/>
          <path class="cls-6" d="M164.7,69a5.34,5.34,0,0,1-3.77,1.5c-2.57-.1-4.81-1.66-6.89-3.17-2.25-1.63-4.55-3.31-6-5.66-1-1.66-1.65-3.58-2.57-5.29v0a2.62,2.62,0,0,1,.23,1.6c0,.06,0,.11-.07.17a2.11,2.11,0,0,1,0,.26,1.44,1.44,0,0,1-1.09,1.09,1.31,1.31,0,0,1-.4.1,2.59,2.59,0,0,1-2-.77,3.22,3.22,0,0,1-.58-.79,4.11,4.11,0,0,1-.25-.61s0,0,0,0a3,3,0,0,1-.31-1.08,2.23,2.23,0,0,1,0-.63,2.39,2.39,0,0,1,.11-.65s0-.07,0-.1a2.06,2.06,0,0,1,.81-1.15.92.92,0,0,1,1.08.09,1,1,0,0,1,.76.26l0,.05a3,3,0,0,1,.83.9l0,0c-.1-.13-.18-.26-.28-.38-2.34-2.92-4.81-2.38-8-3.14-2-.48-3.6-3.32-5.42-1.26-3.48,3.94,2.49,11.5,5.32,13.78.45.36.91.7,1.38,1,.07-.28.12-.57.2-.85s.11-.3.16-.46c3.76,2.15,7.86,3.63,11.77,5.48a38.69,38.69,0,0,1,5.95,3.36c1.88,1.34,3.45,2.86,6,1.91S164.87,71.47,164.7,69Z"/>
          <path class="cls-9" d="M131.6,53.07c-.23-.25-.46-.48-.69-.72a34,34,0,0,0-1.2-7.31c-.64-2.46-1.73-4.94-3.78-6.45-1,.61-.87,2-.64,3.12.29,1.33.91,4.25,1.79,7A31.1,31.1,0,0,0,121.55,45,8.38,8.38,0,0,0,116,43.8l4.86,8.14a29.91,29.91,0,0,0-9.35,4.57,18,18,0,0,0,8.69.39,117.22,117.22,0,0,0-8.32,9.51,10.07,10.07,0,0,0,7.42.31,37.93,37.93,0,0,0-2,8.48l4.31-2.13c-1.23,2.36-2.38,4.46-3.61,6.82,3.18,1,6.46-.54,9.37-2.36a32.73,32.73,0,0,1,4.78-19A4.48,4.48,0,0,0,131.6,53.07Z"/>
          <path class="cls-13" d="M125.16,42.11q1.17,4.3,2.64,8.51A17.54,17.54,0,0,0,120.39,44c-1.49-.7-3.49-1.08-4.58.15q3.72,3.73,7.76,7.16c-4,.1-8.52,1-10.68,4.4q5.91.2,11.81-.11a18.85,18.85,0,0,0-5.18,5.6c-.48.79-.87,1.91-.22,2.57a2.17,2.17,0,0,0,1.75.4,18.58,18.58,0,0,0,7.15-2.14c5.82-3.13,3.91-7.7,2.77-13-.84-3.94-2.3-7.89-5.82-10.28A4.64,4.64,0,0,0,125.16,42.11Z"/>
          <path class="cls-14" d="M160.89,58.23a21.07,21.07,0,0,1-.93-2.74,6.72,6.72,0,0,0-4.15-5.37A7.31,7.31,0,0,1,153,48.2a5.63,5.63,0,0,1-.9-1.56l-.52-1.4c-.66-1.87-1.22-3.75-1.78-5.61a59.92,59.92,0,0,0-3.93-10.78,19.67,19.67,0,0,0-7.38-8.27.67.67,0,0,1,.65-1.18,21.17,21.17,0,0,1,8.2,8.66,61.78,61.78,0,0,1,4.37,11c.6,1.85,1.21,3.68,1.9,5.46l.53,1.32a3.24,3.24,0,0,0,.57.95,5.34,5.34,0,0,0,2,1.24,8.85,8.85,0,0,1,2.84,1.71,6.64,6.64,0,0,1,1.79,3,46,46,0,0,1,1,5.92c.07.46-.15,1.21-.65,1.37,0,0-.4-.8-.68-1.4C161,58.49,160.94,58.36,160.89,58.23Z"/>
          <path class="cls-14" d="M146.3,60.18V59.9a6.72,6.72,0,0,0-.75-3.56,8.51,8.51,0,0,0-3.61-2.7,7.21,7.21,0,0,1-3-2.4,15.92,15.92,0,0,1-.85-1.82,11.43,11.43,0,0,1-.62-2c-.47-2.14-.69-4-1.21-5.89a43.52,43.52,0,0,0-11.73-20.14.67.67,0,0,1,0-.95.68.68,0,0,1,.93,0,45.26,45.26,0,0,1,13.11,20.49c.62,1.94,1,4.09,1.47,5.86a7.75,7.75,0,0,0,1,2.32,3.22,3.22,0,0,0,1.73,1.22,13.84,13.84,0,0,1,3.07,1.21,8,8,0,0,1,2.63,2.56,8.58,8.58,0,0,1,1.12,7.16,1.71,1.71,0,0,1-2.13,1.14C146.28,62.06,146.29,61.13,146.3,60.18Z"/>
          <path class="cls-7" d="M150.93,45.89c-1.86-.11-3.55-.35-5.28-.47s-3.43-.2-5.28-.39a10.83,10.83,0,0,1,10.56.86Z"/>
        </g>
        <g>
          <path class="cls-3" d="M38.84,33.21c.09-6.34-.6-12.63-2.85-18.07-1.1-2.65-2.74-5.5-4.25-6.59A1.83,1.83,0,0,0,30.17,8a3.47,3.47,0,0,0-1.72,1.27,13.13,13.13,0,0,0-1.9,3.19l-.82,2.09c-.24.72-.51,1.44-.73,2.17a57.77,57.77,0,0,0-2,9,98.14,98.14,0,0,0-.59,19h0a4.71,4.71,0,1,1-9.41.48s0-.1,0-.14a107.49,107.49,0,0,1,1.31-20.72,67,67,0,0,1,2.64-10.31c.59-1.71,1.25-3.33,2-5a21.15,21.15,0,0,1,3.39-5.2,13,13,0,0,1,2.75-2.32A10.07,10.07,0,0,1,29,.1a9.34,9.34,0,0,1,4.27.37,10.62,10.62,0,0,1,3.4,1.9,17,17,0,0,1,4,4.93A32.32,32.32,0,0,1,43,12.36c2.61,7,3.06,14.18,2.76,21.06a3.48,3.48,0,0,1-6.95-.19Z"/>
          <path class="cls-4" d="M42.8,36.71c.59-6.58.7-13.35-1-19.67-.93-3.38-2.84-8.39-6.75-9.15a4.75,4.75,0,0,0-3.39.59l.11.07c1.51,1.09,3.15,3.94,4.25,6.59,2.25,5.44,2.94,11.73,2.85,18.07v0a3.47,3.47,0,0,0,3.33,3.52A3.33,3.33,0,0,0,42.8,36.71Z"/>
          <path class="cls-5" d="M42.51,34.38a1.77,1.77,0,0,0,.41-.05c0-.34,0-.68.06-1a.42.42,0,0,1-.15-.07c-.09-.1,0-.25,0-.28a.67.67,0,0,1-.38.08,5.63,5.63,0,0,1-3.69-1.25c0,.47,0,.94,0,1.42v0c0,.07,0,.14,0,.22a7.05,7.05,0,0,0,3.47.94Z"/>
          <path class="cls-5" d="M39,17.39a5.51,5.51,0,0,0,2.52-1c-.13-.44-.27-.89-.43-1.36a4.16,4.16,0,0,1-5,.45c.24.58.46,1.16.66,1.76a6,6,0,0,0,1.57.23A5.79,5.79,0,0,0,39,17.39Z"/>
          <path class="cls-5" d="M40.24,13a12.17,12.17,0,0,0-.62-1.19,6.12,6.12,0,0,1-5.1.44c.29.52.56,1.06.82,1.6a6.73,6.73,0,0,0,1.18.11A7.63,7.63,0,0,0,40.24,13Z"/>
          <path class="cls-5" d="M40.56,21.54a5.72,5.72,0,0,0,2-.38c-.07-.46-.14-.91-.23-1.35a4.27,4.27,0,0,1-4.83-.9l-.24.21c.14.53.26,1.06.38,1.6A5.67,5.67,0,0,0,40.56,21.54Z"/>
          <path class="cls-5" d="M40.6,25.45h.26A3.62,3.62,0,0,0,43,24.8c0-.4-.06-.79-.1-1.19l-.33-.23a2.1,2.1,0,0,1-1.86.73,6.93,6.93,0,0,1-2.39-.76l-.11.23c.07.42.12.85.17,1.27A6.7,6.7,0,0,0,40.6,25.45Z"/>
          <path class="cls-5" d="M33.78,10.36a6.57,6.57,0,0,0,2.33-.45,10,10,0,0,0,1.51-.72,6.26,6.26,0,0,0-1.27-.85,6.51,6.51,0,0,1-.72.31,4.55,4.55,0,0,1-3,.17l-.13.38a10.23,10.23,0,0,1,.94,1.13C33.52,10.34,33.65,10.36,33.78,10.36Z"/>
          <path class="cls-5" d="M42.63,29.07a3.22,3.22,0,0,0,.49-.11c0-.45,0-.89,0-1.33l-.22,0a1,1,0,0,1-.41.13,5.84,5.84,0,0,1-3.92-1q.08.83.12,1.65a6.84,6.84,0,0,0,4,.71Z"/>
          <path class="cls-6" d="M43.41,17.5a28,28,0,0,0-2.49-8,10.33,10.33,0,0,0-6.26-5.32C31,3.22,27,5.22,24.6,8.19s-3.53,6.74-4.44,10.45-1.65,7.51-3.46,10.87a2,2,0,0,1-1.16,1.15c-1,.23-1.7-.95-1.71-1.95,0-.62.09-1.23.07-1.85A107.23,107.23,0,0,0,13,42.7a19.59,19.59,0,0,0,6.11,6.81,4.72,4.72,0,0,0,3.34-4.74h0a98.14,98.14,0,0,1,.59-19,57.77,57.77,0,0,1,2-9c.22-.73.49-1.45.73-2.17l.82-2.09a13.13,13.13,0,0,1,1.9-3.19A3.47,3.47,0,0,1,30.17,8a1.83,1.83,0,0,1,1.57.51c1.51,1.09,3.15,3.94,4.25,6.59,2.25,5.44,2.94,11.73,2.85,18.07v0a3.48,3.48,0,0,0,5.3,3,28.09,28.09,0,0,0,.52-3C45.24,28,44.42,22.69,43.41,17.5Z"/>
          <path class="cls-7" d="M37.09,4.26a9,9,0,0,0-8.9-2.33A7.91,7.91,0,0,0,24.38,4.5,16.18,16.18,0,0,0,22,8.64,78.88,78.88,0,0,0,18.82,18c-.44,1.59-.82,3.21-1.15,4.84s-.63,3.26-.93,4.91c0-1.67.13-3.34.28-5s.47-3.32.79-5a53.91,53.91,0,0,1,2.94-9.67,16.49,16.49,0,0,1,2.68-4.44A8.49,8.49,0,0,1,27.92.93a9.45,9.45,0,0,1,5.17.29A8.13,8.13,0,0,1,37.09,4.26Z"/>
        </g>
        <g>
          <path class="cls-3" d="M17.07,66c.08-5.51-.25-10.9-2-15.36C14.27,48.5,12.55,46,12.09,46a.9.9,0,0,0,.6.1c.38,0,.62-.24.53-.15A11.64,11.64,0,0,0,12,48.25a30.16,30.16,0,0,0-1.76,7.19,57.61,57.61,0,0,0,1.48,23.43c.75,2.76-.55,5.19-4.21,5-2.85-.18-5.22-.4-6-3.16,0-.07.17.78.16.71A67.87,67.87,0,0,1,.08,63a66.71,66.71,0,0,1,1.09-9.13,38.64,38.64,0,0,1,2.77-9.25,23.25,23.25,0,0,1,1.23-2.3,12.06,12.06,0,0,1,2-2.61,7.75,7.75,0,0,1,4.25-2.12,7.44,7.44,0,0,1,4.7.94,10.36,10.36,0,0,1,2.74,2.29,13.3,13.3,0,0,1,1.64,2.39,24.87,24.87,0,0,1,2.09,4.59c2.14,6.31,2.07,12.58,1.77,18.4-.11,2-1.84,2.9-3.85,2.79S17.05,68,17.07,66Z"/>
          <path class="cls-4" d="M21.44,69c.21-2.19.37-4.38.43-6.58a37.51,37.51,0,0,0-1-11c-.64-2.32-2.3-6.2-5.27-6.19-1.16,0-1.84,1.08-2.26,2.13A16.77,16.77,0,0,1,15,50.62c1.78,4.46,2.11,9.85,2,15.36v0c0,1.95,1.49,2.92,3.46,3A5.47,5.47,0,0,0,21.44,69Z"/>
          <path class="cls-5" d="M13.64,46.8c-.1.19-.19.39-.27.58.15.23.31.48.46.75a9.77,9.77,0,0,0,4.06-1.79l-.4-.53a3.52,3.52,0,0,0-.7-.35A8.47,8.47,0,0,1,13.64,46.8Z"/>
          <path class="cls-5" d="M21.8,63.86a7.21,7.21,0,0,1-2.19.89,3.16,3.16,0,0,1-1.62,0,1.3,1.3,0,0,1-.9-.83h0c0,.63,0,1.26,0,1.89a3.43,3.43,0,0,0,.52.23,3.83,3.83,0,0,0,1.09.15,5.44,5.44,0,0,0,1.22-.14,8.35,8.35,0,0,0,1.82-.63C21.76,64.91,21.78,64.38,21.8,63.86Z"/>
          <path class="cls-5" d="M17.08,50.27a10.18,10.18,0,0,0,2.8-1.52,10.4,10.4,0,0,0-.67-1.17A9,9,0,0,1,16.67,49a4.12,4.12,0,0,1-2.32.09A14,14,0,0,1,15,50.52c.1,0,.2,0,.3,0A5.91,5.91,0,0,0,17.08,50.27Z"/>
          <path class="cls-5" d="M19.47,61a9.59,9.59,0,0,0,2.43-.36c0-.45,0-.91,0-1.37a8.39,8.39,0,0,1-2.43.38c-.82,0-1.86-.23-2.08-.93l-.54.18c.05.46.09.92.11,1.39a4.33,4.33,0,0,0,2.48.71Z"/>
          <path class="cls-5" d="M17.46,55.3a8.65,8.65,0,0,0,.88.05,7.79,7.79,0,0,0,3.21-.72c-.07-.47-.15-.93-.24-1.4a6.23,6.23,0,0,1-3.69.73c-.46-.05-1-.22-1.09-.54L16,53.6c.11.44.21.89.3,1.34A3.56,3.56,0,0,0,17.46,55.3Z"/>
          <path class="cls-6" d="M23.42,63.29a43.48,43.48,0,0,0-2.8-15.14c-1-2.72-3.33-5.81-6.11-5-1.51.45-2.44,1.94-3.11,3.36C8.19,53.33,7.72,61.09,8,68.6c.19,5.06.7,10.12.86,15.17,2.62-.39,3.51-2.52,2.86-4.9a57.61,57.61,0,0,1-1.48-23.43A30.16,30.16,0,0,1,12,48.25a15,15,0,0,1,.79-1.65,15.55,15.55,0,0,1,2.25,4c1.78,4.46,2.11,9.85,2,15.36v0c0,1.95,1.49,2.92,3.46,3a3.89,3.89,0,0,0,3.14-1C23.55,66.41,23.43,64.83,23.42,63.29ZM12.09,46s.08,0,.11.05S12.06,46,12.09,46Z"/>
          <path class="cls-7" d="M17.79,40.33a6,6,0,0,0-4.17-1.27,8,8,0,0,0-4.1,1.29,13.65,13.65,0,0,0-4.89,7.06,52.52,52.52,0,0,0-2.16,8.75c-.26,1.49-.45,3-.6,4.51s-.28,3-.42,4.56c-.17-1.53-.2-3.06-.24-4.6s.09-3.07.23-4.61A39,39,0,0,1,3.36,47C4.42,44.06,6.1,41.07,9,39.47a8.79,8.79,0,0,1,4.64-1.07A6,6,0,0,1,17.79,40.33Z"/>
        </g>
      </g>
    </g>
  </g>
</svg>
