<svg id="Layer_1" data-name="Layer 1" xmlns="http://www.w3.org/2000/svg" viewBox="0 0 756.07 642.38"><defs><style>.cls-1{fill:#8c7b77;}</style></defs><path class="cls-1" d="M0,280.91V389.42a76.3,76.3,0,0,0,76.31,76.3h65.13V204.6H76.31A76.31,76.31,0,0,0,0,280.91Z"/><path class="cls-1" d="M419.27,65.57A14,14,0,0,0,396.34,54.9l-86.25,72.65L419.27,236.72Z"/><path class="cls-1" d="M644.75,335.16a322.22,322.22,0,0,1-18.62,108.43l25.15,25.15A355.54,355.54,0,0,0,584.94,96.5a16.23,16.23,0,0,0-23.86,22A320,320,0,0,1,644.75,335.16Z"/><path class="cls-1" d="M570.54,335.16a251.21,251.21,0,0,1-4.65,48.19l27,27A282.4,282.4,0,0,0,603,335.16a278.56,278.56,0,0,0-70.31-185.78,16.26,16.26,0,0,0-28.49,10.73,15.91,15.91,0,0,0,4,10.61A246.37,246.37,0,0,1,570.54,335.16Z"/><path class="cls-1" d="M494.85,312.31,528.49,346c.21-3.57.29-7.17.29-10.79A204.79,204.79,0,0,0,480.17,202.1a16.19,16.19,0,0,0-23.8-.9h0a16.2,16.2,0,0,0-.92,21.92A172.43,172.43,0,0,1,494.85,312.31Z"/><path class="cls-1" d="M750.46,609.64,638.15,497.33l-24.22-24.22-31.68-31.68-25.2-25.2-33.71-33.71-28.06-28.06L373.09,232.27l-85.65-85.65-141-141a19.18,19.18,0,0,0-27.13,27.13L258,171.42,235.33,190.5,228,196.64a33.78,33.78,0,0,1-21.8,8H165.92V465.72h40.32a33.88,33.88,0,0,1,21.8,8l168.3,141.74a13.94,13.94,0,0,0,22.93-10.66v-272L471,384.43l13.65,13.66A170.25,170.25,0,0,1,470.8,426a173.35,173.35,0,0,1-15.36,21.23,16.21,16.21,0,0,0,.92,21.93h0a16.21,16.21,0,0,0,23.8-.9,207,207,0,0,0,29.2-45.43l31,31.06a245.27,245.27,0,0,1-16.11,25.61,247.83,247.83,0,0,1-16.08,20.13,16.21,16.21,0,0,0,12.19,26.88,16.35,16.35,0,0,0,12.27-5.55q7.84-8.84,14.86-18.22a282.88,282.88,0,0,0,16.69-25l27,27.05,3.32,3.32q-8,12.59-17.26,24.46-7.71,9.91-16.26,19.31a16.27,16.27,0,0,0,.44,22.47h0a16.19,16.19,0,0,0,23.4-.46q8.1-8.87,15.5-18.22,9.36-11.73,17.62-24.11L723.33,636.77a19.18,19.18,0,0,0,27.13-27.13Z"/></svg>