<svg xmlns="http://www.w3.org/2000/svg" viewBox="0 0 49.37 49.37">
  <defs>
    <style>
      .cls-1 {
        fill: #fff;
      }
    </style>
  </defs>
  <g id="Flags">
    <g>
      <circle cx="24.68" cy="24.68" r="24.68"/>
      <path class="cls-1" d="M36.76,10.84V39.11H33.34A2.6,2.6,0,0,1,31.06,38L17.73,21.17c.05.5.08,1,.1,1.46s0,.92,0,1.33V39.11H12.08V10.84h3.45a6.73,6.73,0,0,1,.72,0,2,2,0,0,1,.52.15,1.61,1.61,0,0,1,.45.3,6.65,6.65,0,0,1,.49.52l13.44,17c-.06-.54-.11-1.07-.13-1.58s0-1,0-1.45v-15Z"/>
    </g>
  </g>
</svg>
