<svg id="Layer_1" data-name="Layer 1" xmlns="http://www.w3.org/2000/svg" viewBox="0 0 1920 1080">
  <defs>
    <style>
      .cls-1, .cls-2, .cls-3, .cls-4, .cls-5, .cls-6 {
        fill: none;
        stroke: #fff;
        stroke-linejoin: round;
        stroke-width: 3px;
      }

      .cls-2 {
        stroke-dasharray: 5.98 5.98;
      }

      .cls-3 {
        stroke-dasharray: 6.01 6.01;
      }

      .cls-4 {
        stroke-dasharray: 5.76 5.76;
      }

      .cls-5 {
        stroke-dasharray: 5.96 5.96;
      }

      .cls-6 {
        stroke-dasharray: 6 6;
      }
    </style>
  </defs>
  <title>path-around</title>
  <g id="Map_Path_2" data-name="Map Path 2">
    <g>
      <path class="cls-1" d="M1192.9,225.9c1-.3,1.9-.5,2.9-.7"/>
      <path class="cls-2" d="M1201.8,225.1c7.7.8,15.1,5.1,19,11.8,3.2,5.5,4.2,12.3,7.9,17.5,5.8,8.3,16.6,11,26.1,14.4,13.9,5,27,12.9,36.1,24.6,2,2.5,3.8,5.5,3.5,8.8-.2,2.5-1.7,4.7-3.3,6.6-12.8,16-33.9,23-54.2,25.5s-41,1.3-61.2,4.6-40.9,12.3-51.6,29.7c-5.2,8.3-7.5,19.8-1.5,27.6,6.3,8.3,18.8,8.9,26.8,15.7,6.3,5.3,9.1,13.9,14.9,19.8,9.6,9.7,24.8,10.2,38.4,10.1,24.6-.2,42.3,22.4,65.2,31.4a98.41,98.41,0,0,0,64.5,2.4c4.8-1.5,8.3-9.3,6.2-13.9s-6.8-7.3-10.9-10.2a72.65,72.65,0,0,1-21-22.8c-4.8-8.3-7.9-19.1-2.8-27.2,3.2-5.2,9.2-8.2,15.3-9.2s12.2-.3,18.3.4c9.7,1.1,19.7-.5,29.4-1.5,6.2-.6,12.5-1.9,18.7-1.9s12.9,1.5,17.5,5.8c1.8,1.7,5.1.3,7-1.2s2.9-3.9,4.4-5.8c5.8-7.7,23-9.7,30.8-4s11.3,16,10.6,25.6V542.9"/>
      <path class="cls-1" d="M1455.9,545.8v3s-.5-1-1.5-2.6"/>
      <path class="cls-3" d="M1450.9,541.2c-9.9-13.2-32-33.1-43.4,34.8"/>
      <path class="cls-1" d="M1407.1,579c-.2,1-.3,2-.5,3,0,0-.7-.9-1.9-2.3"/>
      <path class="cls-4" d="M1400.9,575.4c-13.3-13.8-45.6-37.6-50.3,47.8"/>
      <path class="cls-1" d="M1350.5,626.1c0,1-.1,2-.1,3,0,0,.8-.7,2.3-1.9"/>
      <path class="cls-5" d="M1357.3,623.5c23.5-18,101.7-68.6,154.4,5.1"/>
      <path class="cls-1" d="M1513.4,631c.6.8,1.1,1.6,1.7,2.5"/>
    </g>
    <g>
      <path class="cls-1" d="M675.5,802.2c1,.1,2,.3,3,.4"/>
      <path class="cls-6" d="M684.4,803.4c14.5,1.7,29.7,2.1,38.2-2.3,15.9-8.2,36.3-.9,36.4,11.2s39.8,12.1,67.5,7.8,35.5,4.1,51.3,10,122.4,14.3,126.9,5.9-15-8-17.4-19-8.7-30.5,3.2-39,3.1-27.5-7.2-42.4-131.8-7.9-137.5-19.1,9.9-32.9,20.3-40.2-11.4-20.8-41.6-27.1-56.1-35.8-30.9-43.8,59.7-11.7,64.8-20.1,25.8-15.9,36.1-17.6,19.2-9.2,14.4-15.2-44-36.8-45.6-48.2-22.4-35.4-33.8-34.2-34.6,6-45.4,2.8-48.9-7.3-52.2-3.8c-4.6,4.9-11.8,9.4-11,16.1.8,6.4,7.1,10.4,10.8,15.7,7.7,11.1,1.9,27.3-8.6,35.8s-24.2,11.6-37.2,15.3A206.55,206.55,0,0,0,651,565.1c-12.7,6.4-25.1,14.8-39.2,16.3s-30.9-7.3-31.4-21.5c-.5-12.7,11.4-22.1,22.2-28.8s23.1-15.1,24.1-27.8c1-12.4-9.4-22.6-19.5-29.9a211.88,211.88,0,0,0-35.7-20.8c-4.1-1.9-8.3-3.7-11.5-6.8s-5.4-7.8-4.1-12.1c2.1-6.9,10.9-8.7,18.1-8.3,19.6,1,38.2,9.2,57.8,11.1,48.1,4.6,91.6-28.9,139.6-35.3,3.9-.5,9.2.3,9.5,4.1.3,3.5-3.9,5.3-6.2,7.9-6.9,7.5,3.5,18.7,7.7,24.7,7,10,17.1,15.5,29.1,17.8,14.3,2.7,29.6,1.9,42.7,8.1,16.4,7.8,26,24.7,37,39.1s27.4,28.2,45.3,24.9c15.9-2.9,29.6-10.8,45.3-14.5,6.8-1.6,13.9-1.7,20.9-2.1a269.43,269.43,0,0,0,26.9-2.8c7.3-1.1,15-2.8,20-8.2,6.9-7.5-3.4-23.7,2.6-31.9a16.44,16.44,0,0,1,5.5-4.3c6.4-3.8,12.9-7.5,19.3-11.3,6.8-4,14.4-9.3,14.6-17.1.2-8.6-8.5-14.3-16-18.6s-15.7-11.2-13.9-19.6c.6-3,2.5-5.5,4.4-7.9a108.89,108.89,0,0,1,9.8-10.6c2.3-2.2,4.7-4.4,5.9-7.3,3.1-7.3-2.9-15.1-8.4-20.9-6.2-6.5-9.7-15.8-10.8-24.7-1.9-15.6,4.7-30.8,8.4-46.2a121.46,121.46,0,0,0,3.3-28.2"/>
      <path class="cls-1" d="M1074.5,248.8c0-1-.1-2-.1-3"/>
    </g>
  </g>
</svg>
