<?xml version="1.0" encoding="utf-8"?>
<!-- Generator: Adobe Illustrator 25.3.1, SVG Export Plug-In . SVG Version: 6.00 Build 0)  -->
<svg version="1.1" id="Layer_1" xmlns="http://www.w3.org/2000/svg" xmlns:xlink="http://www.w3.org/1999/xlink" x="0px" y="0px"
	 viewBox="0 0 1920 1080" style="enable-background:new 0 0 1920 1080;" xml:space="preserve">
<style type="text/css">
	.st0{filter:url(#Adobe_OpacityMaskFilter);}
	.st1{fill:#FFFFFF;}
	.st2{mask:url(#Map_Path_2_1_);}
	.st3{fill:none;stroke:#FFFFFF;stroke-width:3;stroke-linejoin:round;}
	.st4{fill:none;stroke:#FFFFFF;stroke-width:3;stroke-linejoin:round;stroke-dasharray:5.98,5.98;}
	.st5{fill:none;stroke:#FFFFFF;stroke-width:3;stroke-linejoin:round;stroke-dasharray:6.01,6.01;}
	.st6{fill:none;stroke:#FFFFFF;stroke-width:3;stroke-linejoin:round;stroke-dasharray:5.76,5.76;}
	.st7{fill:none;stroke:#FFFFFF;stroke-width:3;stroke-linejoin:round;stroke-dasharray:5.96,5.96;}
	.st8{fill:none;stroke:#FFFFFF;stroke-width:3;stroke-linejoin:round;stroke-dasharray:6,6;}
</style>
<defs>
	<filter id="Adobe_OpacityMaskFilter" filterUnits="userSpaceOnUse" x="560" y="223.6" width="956.3" height="617.4">
		<feColorMatrix  type="matrix" values="1 0 0 0 0  0 1 0 0 0  0 0 1 0 0  0 0 0 1 0"/>
	</filter>
</defs>
<mask maskUnits="userSpaceOnUse" x="560" y="223.6" width="956.3" height="617.4" id="Map_Path_2_1_">
	<g class="st0">
		<path class="st1" d="M1148.8,463.7l8.8-71.8L1634,315c0,0,10-268,7-268S418,47,418,47v961l864-88l42-330.2L1148.8,463.7z"/>
	</g>
</mask>
<g id="Map_Path_2" class="st2">
	<g>
		<path class="st3" d="M1192.9,225.9c1-0.3,1.9-0.5,2.9-0.7"/>
		<path class="st4" d="M1201.8,225.1c7.7,0.8,15.1,5.1,19,11.8c3.2,5.5,4.2,12.3,7.9,17.5c5.8,8.3,16.6,11,26.1,14.4
			c13.9,5,27,12.9,36.1,24.6c2,2.5,3.8,5.5,3.5,8.8c-0.2,2.5-1.7,4.7-3.3,6.6c-12.8,16-33.9,23-54.2,25.5s-41,1.3-61.2,4.6
			s-40.9,12.3-51.6,29.7c-5.2,8.3-7.5,19.8-1.5,27.6c6.3,8.3,18.8,8.9,26.8,15.7c6.3,5.3,9.1,13.9,14.9,19.8
			c9.6,9.7,24.8,10.2,38.4,10.1c24.6-0.2,42.3,22.4,65.2,31.4c20.6,8,43.3,8.9,64.5,2.4c4.8-1.5,8.3-9.3,6.2-13.9
			s-6.8-7.3-10.9-10.2c-8.6-6-15.7-13.8-21-22.8c-4.8-8.3-7.9-19.1-2.8-27.2c3.2-5.2,9.2-8.2,15.3-9.2s12.2-0.3,18.3,0.4
			c9.7,1.1,19.7-0.5,29.4-1.5c6.2-0.6,12.5-1.9,18.7-1.9s12.9,1.5,17.5,5.8c1.8,1.7,5.1,0.3,7-1.2s2.9-3.9,4.4-5.8
			c5.8-7.7,23-9.7,30.8-4s11.3,16,10.6,25.6v133.2"/>
		<path class="st3" d="M1455.9,545.8v3c0,0-0.5-1-1.5-2.6"/>
		<path class="st5" d="M1450.9,541.2c-9.9-13.2-32-33.1-43.4,34.8"/>
		<path class="st3" d="M1407.1,579c-0.2,1-0.3,2-0.5,3c0,0-0.7-0.9-1.9-2.3"/>
		<path class="st6" d="M1400.9,575.4c-13.3-13.8-45.6-37.6-50.3,47.8"/>
		<path class="st3" d="M1350.5,626.1c0,1-0.1,2-0.1,3c0,0,0.8-0.7,2.3-1.9"/>
		<path class="st7" d="M1357.3,623.5c23.5-18,101.7-68.6,154.4,5.1"/>
		<path class="st3" d="M1513.4,631c0.6,0.8,1.1,1.6,1.7,2.5"/>
	</g>
	<g>
		<path class="st3" d="M675.5,802.2c1,0.1,2,0.3,3,0.4"/>
		<path class="st8" d="M791,446.9c5.8,4.5,12.8,7.3,20.5,8.8c14.3,2.7,29.6,1.9,42.7,8.1c16.4,7.8,26,24.7,37,39.1
			s27.4,28.2,45.3,24.9c15.9-2.9,29.6-10.8,45.3-14.5c6.8-1.6,13.9-1.7,20.9-2.1c9-0.5,18-1.4,26.9-2.8c7.3-1.1,15-2.8,20-8.2
			c6.9-7.5-3.4-23.7,2.6-31.9c1.5-1.8,3.4-3.3,5.5-4.3c6.4-3.8,12.9-7.5,19.3-11.3c6.8-4,14.4-9.3,14.6-17.1
			c0.2-8.6-8.5-14.3-16-18.6s-15.7-11.2-13.9-19.6c0.6-3,2.5-5.5,4.4-7.9c3-3.7,6.3-7.3,9.8-10.6c2.3-2.2,4.7-4.4,5.9-7.3
			c3.1-7.3-2.9-15.1-8.4-20.9c-6.2-6.5-9.7-15.8-10.8-24.7c-1.9-15.6,4.7-30.8,8.4-46.2c2.2-9.2,3.3-18.7,3.3-28.2"/>
		<path class="st8" d="M560,445.8"/>
		<path class="st8" d="M684.4,803.4c14.5,1.7,29.7,2.1,38.2-2.3c15.9-8.2,36.3-0.9,36.4,11.2s39.8,12.1,67.5,7.8s35.5,4.1,51.3,10
			s122.4,14.3,126.9,5.9s-15-8-17.4-19s-8.7-30.5,3.2-39s3.1-27.5-7.2-42.4s-131.8-7.9-137.5-19.1s9.9-32.9,20.3-40.2
			s-11.4-20.8-41.6-27.1s-56.1-35.8-30.9-43.8s59.7-11.7,64.8-20.1s25.8-15.9,36.1-17.6s19.2-9.2,14.4-15.2s-44-36.8-45.6-48.2
			s-22.4-35.4-33.8-34.2s-34.6,6-45.4,2.8s-48.9-7.3-52.2-3.8c-4.6,4.9-11.8,9.4-11,16.1c0.8,6.4,7.1,10.4,10.8,15.7
			c7.7,11.1,1.9,27.3-8.6,35.8s-24.2,11.6-37.2,15.3c-12,3.3-23.7,7.7-34.9,13.1c-12.7,6.4-25.1,14.8-39.2,16.3s-30.9-7.3-31.4-21.5
			c-0.5-12.7,11.4-22.1,22.2-28.8s23.1-15.1,24.1-27.8c0.3-3.3-0.3-6.5-1.4-9.4"/>
		<path class="st3" d="M1074.5,248.8c0-1-0.1-2-0.1-3"/>
	</g>
</g>
</svg>
