<svg xmlns="http://www.w3.org/2000/svg" viewBox="0 0 86.07 39.97">
  <defs>
    <style>
      .cls-1 {
        fill: #f5fffe;
      }

      .cls-2 {
        fill: #ffd255;
      }

      .cls-3 {
        fill: none;
        stroke: #515151;
        stroke-miterlimit: 10;
        stroke-width: 1.85px;
      }
    </style>
  </defs>
  <g id="Design">
    <g>
      <g>
        <rect class="cls-1" y="12.17" width="60.5" height="24.86" rx="11.72"/>
        <rect class="cls-1" x="25.57" y="2.41" width="60.5" height="24.86" rx="11.72"/>
      </g>
      <rect class="cls-2" x="20.73" width="49.34" height="39.97" rx="7.87"/>
      <g>
        <path class="cls-3" d="M40.81,29.16V24.73a3.32,3.32,0,0,1,3.32-3.32H46.9a3.32,3.32,0,0,0,3.32-3.32V10.34"/>
        <polyline class="cls-3" points="48.01 12 50.22 9.79 52.43 12"/>
        <circle class="cls-3" cx="41.36" cy="15.32" r="2.21"/>
        <polyline class="cls-3" points="57.41 31.93 57.41 5.91 34.17 5.91 34.17 31.37"/>
        <path class="cls-3" d="M34.17,35.25a3.32,3.32,0,0,1-3.32-3.33"/>
        <path class="cls-3" d="M54.09,35.25a3.33,3.33,0,0,1-3.32-3.33"/>
        <path class="cls-3" d="M54.09,35.25a3.32,3.32,0,0,0,3.32-3.33"/>
        <line class="cls-3" x1="30.85" y1="31.92" x2="50.77" y2="31.92"/>
        <line class="cls-3" x1="34.17" y1="35.25" x2="53.54" y2="35.25"/>
        <line class="cls-3" x1="52.43" y1="24.82" x2="48.65" y2="28.6"/>
        <line class="cls-3" x1="48.65" y1="24.82" x2="52.43" y2="28.6"/>
      </g>
    </g>
  </g>
</svg>
