<svg id="Layer_1" data-name="Layer 1" xmlns="http://www.w3.org/2000/svg" viewBox="0 0 86.07 39.97">
  <defs>
    <style>
      .cls-1 {
        fill: #f5fffe;
      }

      .cls-2 {
        fill: #ffd255;
      }

      .cls-3 {
        fill: none;
        stroke: #515151;
        stroke-miterlimit: 10;
        stroke-width: 2px;
      }
    </style>
  </defs>
  <title>podcast-bug</title>
  <g>
    <g>
      <rect class="cls-1" y="12.17" width="60.5" height="24.86" rx="11.72"/>
      <rect class="cls-1" x="25.57" y="2.41" width="60.5" height="24.86" rx="11.72"/>
    </g>
    <g>
      <rect class="cls-2" x="20.73" width="49.34" height="39.97" rx="7.87"/>
      <g id="_10" data-name="10">
        <path class="cls-3" d="M50.55,6.65h0a2.21,2.21,0,0,0-2.21,2.2h0a2.21,2.21,0,0,0,2.21,2.21h0"/>
        <path class="cls-3" d="M55,5.53a3.13,3.13,0,0,1,3.13,3.12v1.71a7.48,7.48,0,0,1-.91,4.12H55.48v-2.3H52.76V5.53Z"/>
        <path class="cls-3" d="M40.27,10.82h0A2.21,2.21,0,0,1,42.53,13h0a2.21,2.21,0,0,1-2.21,2.21h0"/>
        <path class="cls-3" d="M35.79,9.7a3.12,3.12,0,0,0-3.12,3.12v1.71a7.48,7.48,0,0,0,.91,4.12h1.77v-2.3h2.72V9.7Z"/>
        <path class="cls-3" d="M56.43,16.87V29.13a2.08,2.08,0,0,1-2.08,2.08H54a2.08,2.08,0,0,1-2.08-2.08V21.51a2.08,2.08,0,0,0-2.08-2.08,2.09,2.09,0,0,0-2.09,2.08v12.2a2.08,2.08,0,0,1-2.07,2.09h-.34a2.09,2.09,0,0,1-2.08-2.09V24.8a2.08,2.08,0,0,0-2.08-2.08h0a2.08,2.08,0,0,0-2.08,2.08v6.61A2.09,2.09,0,0,1,37,33.49h-.33a2.08,2.08,0,0,1-2.08-2.08v-3"/>
        <line class="cls-3" x1="34.55" y1="21.93" x2="34.55" y2="19.25"/>
        <rect class="cls-3" x="33.31" y="21.93" width="2.46" height="6.46"/>
      </g>
    </g>
  </g>
</svg>
