<svg id="Layer_1" data-name="Layer 1" xmlns="http://www.w3.org/2000/svg" viewBox="0 0 948.73 170.43">
  <defs>
    <style>
      .cls-1 {
        fill: #d0f0ef;
      }
    </style>
  </defs>
  <title>podcast-hero-cloud</title>
  <path class="cls-1" d="M176.82,44.19c27.84,10.73,57.77,29.64,60.64,59.33l88.9,18.34c8,1.64,16.11,3.29,24.15,2.14,13.37-1.9,24.38-11.13,36.78-16.47,31.39-13.51,67.11-1.16,100,7.91,3.5,1,7.22,1.88,10.7.87,5.38-1.58,8.37-7.1,11.41-11.81,24.91-38.58,79-41.92,125-41.56,6.23,0,12.73,0,18.34-2.69s9.54-7.68,13.77-12.15c39.78-42,106-42.55,163.19-33.82,54.38,8.29,109.73,23.16,152.45,57.82,9.78,7.93,19,17.17,23.71,28.86,9.42,23.49-2.52,51.33-22,67.47s-44.9,23-69.67,28.22c-56.39,11.9-113.9,17.69-171.38,21.89-242.38,17.71-486,7.62-728.22-12.78-21-1.77-43.68-4.38-58.81-19-37.91-36.57-.28-84.9,22.64-116.31C4.18,35.15,49.55,24.74,91.74,26.11,120.83,27.05,149.71,33.74,176.82,44.19Z"/>
</svg>
