<svg id="Layer_1" data-name="Layer 1" xmlns="http://www.w3.org/2000/svg" viewBox="0 0 86.07 39.97">
  <defs>
    <style>
      .cls-1 {
        fill: #f5fffe;
      }

      .cls-2 {
        fill: #ffd255;
      }

      .cls-3, .cls-4 {
        fill: none;
        stroke: #515151;
        stroke-miterlimit: 10;
        stroke-width: 2px;
      }

      .cls-4, .cls-5 {
        fill-rule: evenodd;
      }

      .cls-5 {
        fill: #515151;
      }
    </style>
  </defs>
  <g>
    <g>
      <rect class="cls-1" y="11.79" width="60.5" height="24.86" rx="11.72"/>
      <rect class="cls-1" x="25.57" y="2.02" width="60.5" height="24.86" rx="11.72"/>
    </g>
    <rect class="cls-2" x="20.47" width="49.34" height="39.97" rx="7.87"/>
    <g>
      <path class="cls-3" d="M54,13.88c1.71-2.06-.26-5-2.68-5L51,9a3.73,3.73,0,0,0-3.71-3.39,3.54,3.54,0,0,0-1,.17A3.75,3.75,0,0,0,39.44,7.9V8a3.47,3.47,0,0,0-1.25-.24,3.77,3.77,0,0,0-2.88,5.92"/>
      <path class="cls-3" d="M43,10.77a2.46,2.46,0,0,1,3.34-1.64"/>
      <path class="cls-4" d="M53.31,30a3.31,3.31,0,1,0,1.77,6.14,3.56,3.56,0,0,0,.88-.8A1.56,1.56,0,0,0,57.82,35a2.15,2.15,0,0,0-1-3.36,3.81,3.81,0,0,0-.43-2.15,3,3,0,0,0-.81-1,1.52,1.52,0,0,0-1.25-.29C53.51,28.34,53.27,29.35,53.31,30Z"/>
      <path class="cls-5" d="M34.15,13.17l3,21h13a3.18,3.18,0,0,1,.08-2H47.15v-17H50.7V31.35a3.22,3.22,0,0,1,.92-.84,3.28,3.28,0,0,1,1.43-.45l2.39-16.89Zm8.29,19H38.89v-17h3.55Z"/>
    </g>
  </g>
</svg>
