<svg xmlns="http://www.w3.org/2000/svg" xmlns:xlink="http://www.w3.org/1999/xlink" viewBox="0 0 50 50">
  <defs>
    <style>
      .cls-1, .cls-2, .cls-7 {
        fill: none;
      }

      .cls-2 {
        stroke: #a5a7aa;
        stroke-miterlimit: 10;
        stroke-width: 1.85px;
      }

      .cls-3 {
        clip-path: url(#clip-path);
      }

      .cls-4 {
        fill: #ff1500;
      }

      .cls-5 {
        fill: #008034;
      }

      .cls-13, .cls-6 {
        fill: #ffea00;
      }

      .cls-13, .cls-6, .cls-7, .cls-8 {
        stroke: #65140e;
      }

      .cls-6, .cls-7 {
        stroke-linecap: round;
        stroke-linejoin: round;
      }

      .cls-13, .cls-6, .cls-7 {
        stroke-width: 0.08px;
      }

      .cls-11, .cls-8 {
        fill: #fff;
      }

      .cls-8 {
        stroke-width: 0.09px;
      }

      .cls-9 {
        fill: #65140e;
      }

      .cls-10 {
        fill: #04c;
      }

      .cls-12 {
        fill: #ff0;
      }
    </style>
    <clipPath id="clip-path">
      <circle class="cls-1" cx="25.24" cy="25" r="23.94" transform="translate(-7.65 11.56) rotate(-22.5)"/>
    </clipPath>
  </defs>
  <g id="Flags">
    <g>
      <circle class="cls-2" cx="25.24" cy="25" r="23.94" transform="translate(-7.65 11.56) rotate(-22.5)"/>
      <g class="cls-3">
        <g>
          <g id="path1339">
            <g id="path1339-2" data-name="path1339">
              <polygon class="cls-4" points="-10.56 48.94 61.26 48.94 61.26 1.06 -10.56 1.06 -10.56 36.33 -10.56 48.94"/>
            </g>
          </g>
          <path id="path1341" class="cls-5" d="M-10.56,48.94H18.17V1.06H-10.56Z"/>
          <g>
            <g>
              <path id="path1355" class="cls-6" d="M6.3,25.68c2.23,1.2,7.17,1.8,11.85,1.84,4.26,0,9.81-.66,11.89-1.76L30,24.56c-.65,1-6.6,2-11.88,2S7.92,25.66,6.29,24.6v1.08"/>
              <path id="path1357" class="cls-6" d="M30.15,25.51v.28c-.31.37-2.27.94-4.72,1.34a49.61,49.61,0,0,1-7.33.5,46.45,46.45,0,0,1-7-.48,17.51,17.51,0,0,1-5-1.34v-.34c1.08.72,4,1.25,5,1.41a44.58,44.58,0,0,0,6.92.48,47.69,47.69,0,0,0,7.29-.5,15,15,0,0,0,4.76-1.35Zm0-1v.29c-.31.37-2.27.93-4.72,1.33a48.27,48.27,0,0,1-7.33.5,45.15,45.15,0,0,1-7-.48,17.51,17.51,0,0,1-5-1.34v-.33c1.08.72,4,1.25,5,1.41a46.06,46.06,0,0,0,6.92.47,49.11,49.11,0,0,0,7.29-.49,15.26,15.26,0,0,0,4.76-1.36"/>
              <path id="path1359" class="cls-6" d="M30.15,25.51v.28c-.31.37-2.27.94-4.72,1.34a49.61,49.61,0,0,1-7.33.5,46.45,46.45,0,0,1-7-.48,17.51,17.51,0,0,1-5-1.34v-.34c1.08.72,4,1.25,5,1.41a44.58,44.58,0,0,0,6.92.48,47.69,47.69,0,0,0,7.29-.5,15,15,0,0,0,4.76-1.35Zm0-1v.28c-.31.38-2.27.94-4.72,1.34a49.61,49.61,0,0,1-7.33.5,45.15,45.15,0,0,1-7-.48,17.51,17.51,0,0,1-5-1.34v-.33c1.08.72,4,1.25,5,1.41a46.06,46.06,0,0,0,6.92.47,47.59,47.59,0,0,0,7.29-.5,15,15,0,0,0,4.76-1.35Z"/>
              <path id="path1343" class="cls-6" d="M27.53,32.43C23.92,32.32,7.33,22,7.22,20.32l.91-1.53c1.65,2.39,18.6,12.46,20.27,12.1l-.87,1.54"/>
              <path id="path1347" class="cls-6" d="M7.94,18.58c-.32.88,4.33,3.75,9.93,7.16s10.42,5.5,10.78,5.2c0,0,.17-.3.16-.3s-.23.13-.49.06A57,57,0,0,1,18,25.49c-4.88-3-9.13-5.69-9.79-6.85a.63.63,0,0,1-.07-.34h0L8,18.55l0,0Zm19.68,13.9c-.06.11-.18.11-.4.09-1.35-.15-5.45-2.15-10.31-5.06-5.65-3.38-10.32-6.46-9.81-7.27L7.23,20h0c-.45,1.36,9.21,6.89,9.78,7.24,5.6,3.47,10.31,5.49,10.73,5l-.15.27Z"/>
              <path id="path1361" class="cls-6" d="M18.14,32.22A40.5,40.5,0,0,1,7.71,30.6l.67,1.06a28.11,28.11,0,0,0,9.81,1.6c3.89-.12,7.29-.42,9.69-1.58l.69-1.1c-1.63.77-7.19,1.63-10.43,1.64"/>
              <path id="path1363" class="cls-6" d="M28.14,31.43c-.1.16-.21.31-.31.46a27.24,27.24,0,0,1-3.67.94,33.58,33.58,0,0,1-6,.55,29.17,29.17,0,0,1-10-1.71L8,31.43l0,0,.24.09a32.25,32.25,0,0,0,9.9,1.64,33.84,33.84,0,0,0,5.9-.55,17.37,17.37,0,0,0,4-1.09l.08-.05Zm.6-1h0c-.07.13-.15.26-.23.39a25.5,25.5,0,0,1-4.63,1,37,37,0,0,1-5.68.48A39.1,39.1,0,0,1,7.63,30.77l-.13-.25a45.27,45.27,0,0,0,10.7,1.57,41.22,41.22,0,0,0,5.64-.49,29.13,29.13,0,0,0,4.61-1v0l.3-.11"/>
              <path id="path1365" class="cls-6" d="M28.14,31.43c-.1.16-.21.31-.31.46a26.87,26.87,0,0,1-3.67.94,33.58,33.58,0,0,1-6,.55,28.92,28.92,0,0,1-10-1.71L8,31.43l0,0,.24.09a32.25,32.25,0,0,0,9.9,1.64,33.84,33.84,0,0,0,5.9-.55,17.37,17.37,0,0,0,4-1.09l.08-.05Zm.6-1h0l-.24.39a25.5,25.5,0,0,1-4.63,1,37,37,0,0,1-5.68.48A39.1,39.1,0,0,1,7.63,30.77l-.13-.25a45.27,45.27,0,0,0,10.7,1.57,41.56,41.56,0,0,0,5.65-.49,29.17,29.17,0,0,0,4.6-1v0l.3-.11Z"/>
              <path class="cls-6" d="M28.84,19.8l-.55-.9a11.61,11.61,0,0,1-3.33.91v1A19.53,19.53,0,0,0,28.84,19.8Z"/>
              <g>
                <path class="cls-6" d="M28.51,18.9l-.18-.29a9.75,9.75,0,0,1-3.37,1v.27A11.31,11.31,0,0,0,28.51,18.9Z"/>
                <path class="cls-6" d="M28.81,19.51c-.18.24-1.48.73-3.85,1.13v.29a14.56,14.56,0,0,0,4-1.11h0Z"/>
              </g>
              <path class="cls-6" d="M18.15,13.16A11.85,11.85,0,1,0,30,25,11.88,11.88,0,0,0,18.15,13.16Zm0,22.44A10.58,10.58,0,1,1,28.76,25,10.64,10.64,0,0,1,18.17,35.6Z"/>
              <path class="cls-6" d="M18.15,13.42A11.6,11.6,0,1,0,29.75,25,11.64,11.64,0,0,0,18.15,13.42Zm0,22.44A10.84,10.84,0,1,1,29,25,10.9,10.9,0,0,1,18.17,35.86Z"/>
              <path id="path1377" class="cls-6" d="M18.54,13v.14h-.75V13h-.26V37.06h.26V37h.75v.12h.26V13Z"/>
              <line class="cls-7" x1="17.79" y1="13.11" x2="17.79" y2="36.95"/>
              <line class="cls-7" x1="18.54" y1="13.11" x2="18.54" y2="36.95"/>
              <path id="path1397" class="cls-6" d="M18.1,17c4.41,0,8.26.61,10,1.51l.64,1.11c-1.53-.82-5.68-1.68-10.65-1.55-4,0-8.38.45-10.56,1.61l.77-1.28c1.78-.93,6-1.4,9.78-1.4"/>
              <path id="path1401" class="cls-6" d="M18.16,17.89a40.48,40.48,0,0,1,6.88.49,12.21,12.21,0,0,1,3.77,1.11l.19.33a13.87,13.87,0,0,0-4-1.18,39.07,39.07,0,0,0-6.84-.48,39.66,39.66,0,0,0-6.94.47A12.34,12.34,0,0,0,7.48,19.8l.19-.36a12.46,12.46,0,0,1,3.5-1.07,42.06,42.06,0,0,1,7-.48Zm0-1a39,39,0,0,1,6.64.46,10.85,10.85,0,0,1,3.44,1.12l.27.44c-.47-.52-2.25-1-3.83-1.3a41.77,41.77,0,0,0-6.52-.46,38.88,38.88,0,0,0-6.67.49,11,11,0,0,0-3.32,1l.25-.37a11.67,11.67,0,0,1,3-.91,38.58,38.58,0,0,1,6.72-.49"/>
              <path id="path1419" class="cls-6" d="M8.22,18.36c3.64-.05,20.46,10.28,20.51,12.18l-1.05,1.59c-.47-2.2-17.53-12.25-20.35-12.06l.89-1.71"/>
              <path id="path1425" class="cls-6" d="M7.23,20c.68-.46,5.64,1.75,10.84,4.89s10.14,6.69,9.69,7.35l-.15.24-.06,0s.09-.1,0-.35c-.22-.72-3.74-3.53-9.57-7C12.29,21.75,7.55,19.71,7.08,20.3L7.23,20Zm21.6,10.64c.43-.84-4.18-4.31-9.89-7.69S8.88,17.7,8.12,18.28l-.18.31s0,0,0-.05a.73.73,0,0,1,.47-.11c1.33,0,5.11,1.76,10.42,4.8,2.32,1.36,9.82,6.16,9.79,7.52,0,.11,0,.14,0,.19l.19-.29"/>
              <path id="path1387" class="cls-6" d="M6.26,24.51c1.48-1.37,7-2.26,11.84-2.24s10.62,1,11.88,2.21v1c-1-1-5.53-2.17-11.89-2.18s-11,1.2-11.84,2.21v-1"/>
              <path id="path1393" class="cls-6" d="M18.16,23.18a40.72,40.72,0,0,1,7.67.68c2.22.45,3.79,1,4.32,1.63v.31c-.65-.78-2.75-1.35-4.37-1.68a41.06,41.06,0,0,0-7.62-.67,42.06,42.06,0,0,0-7.78.69c-1.69.34-3.94,1-4.22,1.66v-.32C6.31,25,8,24.34,10.34,23.87a42.44,42.44,0,0,1,7.82-.69Zm0-1a41.43,41.43,0,0,1,7.67.69c2.22.44,3.79,1,4.32,1.62v.31c-.65-.78-2.75-1.35-4.37-1.67a40.08,40.08,0,0,0-7.62-.68,42,42,0,0,0-7.77.69c-1.63.31-4,1-4.23,1.66v-.32C6.31,24,8,23.31,10.34,22.85a43.51,43.51,0,0,1,7.82-.69"/>
              <path id="path1405" class="cls-6" d="M24.05,29.94a30.57,30.57,0,0,0-5.89-.45c-7.35.09-9.73,1.51-10,1.94l-.55-.89c1.88-1.36,5.88-2.12,10.61-2a37,37,0,0,1,6.36.55l-.51.89"/>
              <path id="path1411" class="cls-6" d="M18.12,29.36a36.66,36.66,0,0,1,6,.48l-.14.25a31.34,31.34,0,0,0-5.84-.45,28.1,28.1,0,0,0-7.84.92c-.76.21-2,.69-2.13,1.09L8,31.42c0-.23.79-.73,2.2-1.12a28.73,28.73,0,0,1,7.91-.94h0Zm.09-1a36.82,36.82,0,0,1,6.43.55l-.15.26a32.91,32.91,0,0,0-6.27-.54,29.62,29.62,0,0,0-8.23,1c-.85.25-2.31.78-2.36,1.2l-.14-.25c0-.38,1.3-.88,2.44-1.21a30,30,0,0,1,8.28-1Z"/>
            </g>
            <g>
              <path id="path1431" class="cls-8" d="M11.05,26.32a7.19,7.19,0,0,0,7.1,7.1,7.12,7.12,0,0,0,7.12-7.09V16.85H11.05v9.47Z"/>
              <g>
                <path class="cls-4" d="M18.14,33.09a6.8,6.8,0,0,1-4.79-2,6.7,6.7,0,0,1-2-4.76v-9.2l13.59,0,0,9.16a6.78,6.78,0,0,1-6.78,6.75Zm-4.09-6.74a4.1,4.1,0,0,0,1.21,2.89,4.06,4.06,0,0,0,5.78,0,4,4,0,0,0,1.18-2.38,4.36,4.36,0,0,0,0-.51V19.9l-8.2,0Z"/>
                <path class="cls-9" d="M11.4,17.22H24.88v9.12a6.75,6.75,0,0,1-13.49,0V17.22M18.14,30.5a4.15,4.15,0,0,0,2.93-1.21,4,4,0,0,0,1.18-2.4,4.17,4.17,0,0,0,0-.52V19.82H14v6.54a4.18,4.18,0,0,0,1.22,2.92,4.13,4.13,0,0,0,2.91,1.23M11.33,17.14v9.19h0a6.74,6.74,0,0,0,2,4.79A6.81,6.81,0,0,0,25,26.34V17.15Zm6.81,13.28a4.1,4.1,0,0,1-4.05-4.07V19.88l8.14,0h0v6.47a4.36,4.36,0,0,1,0,.51A4,4,0,0,1,21,29.24a4.09,4.09,0,0,1-2.88,1.18Z"/>
              </g>
              <g>
                <path id="path1485" class="cls-10" d="M17.28,22.17h0a1,1,0,0,0,.27.69.88.88,0,0,0,.63.28.9.9,0,0,0,.64-.28,1,1,0,0,0,.26-.68V20.89H17.29v1.28"/>
                <path id="use5944" class="cls-11" d="M17.7,21.2a.18.18,0,0,0-.18.18.18.18,0,0,0,.18.17.18.18,0,0,0,.17-.17.18.18,0,0,0-.17-.18"/>
                <path id="use5944-2" data-name="use5944" class="cls-11" d="M18.67,21.2a.18.18,0,0,0-.18.18.18.18,0,0,0,.36,0,.18.18,0,0,0-.18-.18"/>
                <path id="use5944-3" data-name="use5944" class="cls-11" d="M18.17,21.68a.18.18,0,0,0-.18.17.18.18,0,0,0,.36,0,.18.18,0,0,0-.18-.17"/>
                <path id="use5944-4" data-name="use5944" class="cls-11" d="M18.67,22.18a.17.17,0,0,0-.18.17.18.18,0,0,0,.36,0,.17.17,0,0,0-.18-.17"/>
                <path id="use5944-5" data-name="use5944" class="cls-11" d="M17.7,22.18a.18.18,0,0,0-.18.18.18.18,0,0,0,.18.17.18.18,0,0,0,.17-.17.18.18,0,0,0-.17-.18"/>
              </g>
              <g>
                <g id="use3438">
                  <path id="path1485-2" data-name="path1485" class="cls-10" d="M17.28,25.29h0a1,1,0,0,0,.27.68.85.85,0,0,0,.63.29.87.87,0,0,0,.64-.29,1,1,0,0,0,.26-.68V24H17.29v1.29"/>
                </g>
                <g id="use5954">
                  <path id="use5944-6" data-name="use5944" class="cls-11" d="M18.69,25.29a.18.18,0,1,0,.18.18.18.18,0,0,0-.18-.18"/>
                </g>
                <path id="use5944-7" data-name="use5944" class="cls-11" d="M17.7,25.29a.18.18,0,0,0,0,.36.18.18,0,0,0,0-.36"/>
                <path id="use5944-8" data-name="use5944" class="cls-11" d="M18.19,24.79a.18.18,0,1,0,0,.36.18.18,0,0,0,0-.36"/>
                <path id="use5944-9" data-name="use5944" class="cls-11" d="M18.69,24.31a.18.18,0,1,0,.18.18.18.18,0,0,0-.18-.18"/>
                <path id="use5944-10" data-name="use5944" class="cls-11" d="M17.7,24.31a.18.18,0,0,0,0,.36.18.18,0,0,0,0-.36"/>
              </g>
              <g>
                <g id="use3436">
                  <path id="path1485-3" data-name="path1485" class="cls-10" d="M19.77,25.29h0A1,1,0,0,0,20,26a.85.85,0,0,0,1.27,0,1,1,0,0,0,.27-.68V24h-1.8v1.29"/>
                </g>
                <path id="use5944-11" data-name="use5944" class="cls-11" d="M21.17,25.3a.17.17,0,0,0-.17.17.18.18,0,0,0,.17.18.18.18,0,0,0,.18-.18.17.17,0,0,0-.18-.17"/>
                <g id="use5946">
                  <path id="use5944-12" data-name="use5944" class="cls-11" d="M20.2,25.3a.18.18,0,1,0,0,.35.18.18,0,0,0,.18-.17.18.18,0,0,0-.18-.18"/>
                </g>
                <g id="use5948">
                  <path id="use5944-13" data-name="use5944" class="cls-11" d="M20.68,24.8a.18.18,0,0,0-.18.17.18.18,0,0,0,.18.18.18.18,0,1,0,0-.35"/>
                </g>
                <g id="use5950">
                  <path id="use5944-14" data-name="use5944" class="cls-11" d="M21.18,24.32a.18.18,0,0,0-.18.18.18.18,0,0,0,.18.17.18.18,0,0,0,.17-.17.18.18,0,0,0-.17-.18"/>
                </g>
                <g id="use5952">
                  <path id="use5944-15" data-name="use5944" class="cls-11" d="M20.2,24.32a.18.18,0,0,0-.18.18.18.18,0,0,0,.36,0,.18.18,0,0,0-.18-.18"/>
                </g>
              </g>
              <g>
                <g id="use3434">
                  <path id="path1485-4" data-name="path1485" class="cls-10" d="M17.28,28.38h0a1,1,0,0,0,.26.68.86.86,0,0,0,1.27,0,1,1,0,0,0,.26-.68V27.09H17.28v1.29"/>
                </g>
                <g id="use6358">
                  <path id="use5944-16" data-name="use5944" class="cls-11" d="M18.68,28.38a.18.18,0,0,0-.18.17.18.18,0,1,0,.36,0,.18.18,0,0,0-.18-.17"/>
                </g>
                <g id="use6360">
                  <path id="use5944-17" data-name="use5944" class="cls-11" d="M17.7,28.38a.18.18,0,0,0-.18.18.18.18,0,0,0,.18.17.18.18,0,0,0,.17-.17.18.18,0,0,0-.17-.18"/>
                </g>
                <g id="use6356">
                  <path id="use5944-18" data-name="use5944" class="cls-11" d="M18.18,27.88a.18.18,0,0,0-.17.18.18.18,0,0,0,.17.17.18.18,0,0,0,.18-.17.18.18,0,0,0-.18-.18"/>
                </g>
                <g id="use6352">
                  <path id="use5944-19" data-name="use5944" class="cls-11" d="M18.68,27.4a.17.17,0,0,0-.17.18.16.16,0,0,0,.17.17.17.17,0,0,0,.18-.17.18.18,0,0,0-.18-.18"/>
                </g>
                <path id="use5944-20" data-name="use5944" class="cls-11" d="M17.7,27.4a.18.18,0,0,0-.18.18.18.18,0,0,0,.18.17.18.18,0,0,0,.17-.17.18.18,0,0,0-.17-.18"/>
              </g>
              <g>
                <g id="use3440">
                  <path id="path1485-5" data-name="path1485" class="cls-10" d="M14.79,25.3h0a1,1,0,0,0,.27.68.86.86,0,0,0,1.27,0,1,1,0,0,0,.26-.68V24H14.8V25.3"/>
                </g>
                <g>
                  <path id="use5944-21" data-name="use5944" class="cls-11" d="M16.2,25.3a.18.18,0,0,0-.18.18.18.18,0,0,0,.36,0,.18.18,0,0,0-.18-.18"/>
                  <path id="use5944-22" data-name="use5944" class="cls-11" d="M15.23,25.3a.18.18,0,0,0-.18.18.18.18,0,0,0,.36,0,.18.18,0,0,0-.18-.18"/>
                  <path id="use5944-23" data-name="use5944" class="cls-11" d="M15.7,24.8a.18.18,0,1,0,0,.35.18.18,0,0,0,.18-.17.18.18,0,0,0-.18-.18"/>
                  <path id="use5944-24" data-name="use5944" class="cls-11" d="M16.2,24.32a.19.19,0,0,0-.18.18.19.19,0,0,0,.18.18.19.19,0,0,0,.18-.18.18.18,0,0,0-.18-.18"/>
                  <path id="use6320" class="cls-12" d="M15.23,24.32a.18.18,0,0,0-.18.18.18.18,0,0,0,.18.17.18.18,0,1,0,0-.35"/>
                  <path id="use5944-25" data-name="use5944" class="cls-11" d="M15.23,24.32a.18.18,0,0,0-.18.18.19.19,0,0,0,.18.18.19.19,0,0,0,.18-.18.19.19,0,0,0-.18-.18"/>
                </g>
              </g>
              <g>
                <polygon class="cls-13" points="13.69 19.5 13.6 18.77 11.8 18.77 11.72 19.5 13.69 19.5"/>
                <path class="cls-13" d="M13.71,19.69a.08.08,0,0,0,.08-.09c0-.06,0-.1-.08-.1h-2a.09.09,0,0,0-.08.1.09.09,0,0,0,.08.09Z"/>
                <path class="cls-13" d="M13.67,18.6a.09.09,0,0,0,.08-.08.09.09,0,0,0-.08-.09H11.73a.09.09,0,0,0-.08.09.09.09,0,0,0,.08.08Z"/>
                <path class="cls-13" d="M13.63,18.77a.08.08,0,0,0,.07-.09.07.07,0,0,0-.07-.08H11.77a.07.07,0,0,0-.07.08.08.08,0,0,0,.07.09Z"/>
                <path class="cls-13" d="M12.37,17.33h0v.24a.07.07,0,0,0,.07.06H13a.06.06,0,0,0,.06-.06v-.24h-.15v.11h-.11v-.11h-.15v.11h-.11v-.11Z"/>
                <polygon class="cls-13" points="12.92 17.63 12.47 17.63 12.44 18.43 12.96 18.43 12.92 17.63"/>
                <polygon class="cls-13" points="13.1 18.02 13.08 18.43 13.58 18.43 13.56 18.02 13.1 18.02"/>
                <path class="cls-13" d="M13,17.72h0V18a.07.07,0,0,0,.07.07h.51a.07.07,0,0,0,.07-.07v-.24h-.15v.11H13.4v-.11h-.14v.11h-.11v-.1Z"/>
                <path class="cls-13" d="M11.74,17.71V18s0,.07.06.07h.52a.08.08,0,0,0,.07-.07v-.24h-.15v.11h-.11v-.11H12v.11h-.11v-.11Z"/>
                <polygon class="cls-13" points="11.81 18.43 12.31 18.43 12.29 18.02 11.83 18.02 11.81 18.43"/>
                <path class="cls-9" d="M12.65,17.9v.18h.1V17.9C12.75,17.82,12.64,17.82,12.65,17.9Z"/>
                <path class="cls-9" d="M13.28,18.17v.14h.1v-.14A.05.05,0,1,0,13.28,18.17Z"/>
                <path class="cls-9" d="M12,18.17v.14h.1v-.14A.05.05,0,1,0,12,18.17Z"/>
                <path class="cls-13" d="M12.69,18.77a.67.67,0,0,0-.48.73h1A.73.73,0,0,0,12.69,18.77Z"/>
                <path class="cls-13" d="M12.69,19a.54.54,0,0,0-.27.51H13A.54.54,0,0,0,12.69,19Z"/>
              </g>
              <g>
                <polygon class="cls-13" points="19.13 19.5 19.04 18.77 17.24 18.77 17.16 19.5 19.13 19.5"/>
                <path class="cls-13" d="M19.16,19.69a.08.08,0,0,0,.07-.09c0-.06,0-.1-.07-.1h-2c-.05,0-.08,0-.08.1a.08.08,0,0,0,.08.09Z"/>
                <path class="cls-13" d="M19.11,18.6a.08.08,0,0,0,.08-.08.08.08,0,0,0-.08-.09H17.17a.08.08,0,0,0-.07.09.08.08,0,0,0,.07.08Z"/>
                <path class="cls-13" d="M19.07,18.77a.08.08,0,0,0,.07-.09.07.07,0,0,0-.07-.08H17.21a.07.07,0,0,0-.07.08.08.08,0,0,0,.07.09Z"/>
                <path class="cls-13" d="M17.81,17.33h0v.24s0,.06.07.06h.53a.06.06,0,0,0,.06-.06v-.24h-.15v.11h-.1v-.11h-.16v.11H18v-.11Z"/>
                <polygon class="cls-13" points="18.36 17.63 17.92 17.63 17.89 18.43 18.4 18.43 18.36 17.63"/>
                <polygon class="cls-13" points="18.54 18.02 18.53 18.43 19.02 18.43 19.01 18.02 18.54 18.02"/>
                <path class="cls-13" d="M18.45,17.72h0V18a.07.07,0,0,0,.07.07H19A.07.07,0,0,0,19.1,18v-.24H19v.11h-.1v-.11H18.7v.11h-.1v-.1Z"/>
                <path class="cls-13" d="M17.18,17.71V18a.08.08,0,0,0,.07.07h.52a.07.07,0,0,0,.06-.07v-.24h-.15v.11h-.1v-.11h-.15v.11h-.11v-.11Z"/>
                <polygon class="cls-13" points="17.26 18.43 17.75 18.43 17.74 18.02 17.27 18.02 17.26 18.43"/>
                <path class="cls-9" d="M18.09,17.9v.18h.1V17.9C18.19,17.82,18.09,17.82,18.09,17.9Z"/>
                <path class="cls-9" d="M18.73,18.17v.14h.1v-.14A.05.05,0,1,0,18.73,18.17Z"/>
                <path class="cls-9" d="M17.45,18.17v.14h.1v-.14A.05.05,0,1,0,17.45,18.17Z"/>
                <path class="cls-13" d="M18.14,18.77a.67.67,0,0,0-.49.73h1A.74.74,0,0,0,18.14,18.77Z"/>
                <path class="cls-13" d="M18.14,19a.54.54,0,0,0-.27.51h.55A.54.54,0,0,0,18.14,19Z"/>
              </g>
              <g>
                <polygon class="cls-13" points="13.69 25.05 13.61 24.31 11.8 24.31 11.72 25.05 13.69 25.05"/>
                <path class="cls-13" d="M13.72,25.23a.09.09,0,0,0,0-.18h-2a.09.09,0,0,0,0,.18Z"/>
                <path class="cls-13" d="M13.68,24.14a.08.08,0,0,0,0-.16H11.73a.08.08,0,0,0,0,.16Z"/>
                <path class="cls-13" d="M13.63,24.31a.08.08,0,0,0,.07-.08.08.08,0,0,0-.07-.09H11.77a.09.09,0,0,0-.07.09.09.09,0,0,0,.07.08Z"/>
                <path class="cls-13" d="M12.37,22.88h0v.24s0,.06.07.06H13a.07.07,0,0,0,.07-.06v-.24h-.16V23h-.1v-.1h-.15V23h-.11v-.1Z"/>
                <polygon class="cls-13" points="12.93 23.18 12.48 23.18 12.45 23.98 12.96 23.98 12.93 23.18"/>
                <polygon class="cls-13" points="13.1 23.56 13.09 23.98 13.58 23.98 13.57 23.56 13.1 23.56"/>
                <path class="cls-13" d="M13,23.26h0v.24s0,.06.07.06h.52a.06.06,0,0,0,.06-.06v-.24h-.15v.1h-.1v-.1h-.15v.1h-.1v-.1Z"/>
                <path class="cls-13" d="M11.75,23.26v.23a.07.07,0,0,0,.06.07h.52a.06.06,0,0,0,.06-.06v-.24h-.15v.1h-.1v-.1H12v.1h-.1v-.1Z"/>
                <polygon class="cls-13" points="11.82 23.98 12.31 23.98 12.3 23.56 11.84 23.56 11.82 23.98"/>
                <path class="cls-9" d="M12.65,23.44v.19h.11v-.19A.06.06,0,0,0,12.65,23.44Z"/>
                <path class="cls-9" d="M13.29,23.71v.15h.1v-.15A.05.05,0,1,0,13.29,23.71Z"/>
                <path class="cls-9" d="M12,23.71v.15h.11v-.15A.06.06,0,0,0,12,23.71Z"/>
                <path class="cls-13" d="M12.7,24.32a.68.68,0,0,0-.49.73h1A.73.73,0,0,0,12.7,24.32Z"/>
                <path class="cls-13" d="M12.7,24.54a.52.52,0,0,0-.27.51H13A.54.54,0,0,0,12.7,24.54Z"/>
              </g>
              <g>
                <polygon class="cls-13" points="15.38 29.78 14.79 29.32 13.53 30.6 13.99 31.18 15.38 29.78"/>
                <path class="cls-13" d="M15.53,29.9a.09.09,0,0,0,0-.12s-.09-.05-.12,0L14,31.2a.09.09,0,0,0,.13.13Z"/>
                <path class="cls-13" d="M14.73,29.15s0-.07,0-.11a.09.09,0,0,0-.11,0l-1.37,1.38a.08.08,0,0,0,.12.12Z"/>
                <path class="cls-13" d="M14.81,29.3a.08.08,0,0,0-.11-.11L13.38,30.5a.09.09,0,0,0,0,.11s.08,0,.11,0Z"/>
                <path class="cls-13" d="M12.91,29.18h0l.17.17a.08.08,0,0,0,.09,0l.37-.38a.06.06,0,0,0,0-.09l-.17-.17-.11.11.08.07-.08.08-.07-.07-.11.1.07.08-.07.07L13,29.08Z"/>
                <polygon class="cls-13" points="13.52 29 13.2 29.32 13.74 29.91 14.1 29.54 13.52 29"/>
                <polygon class="cls-13" points="13.91 29.15 14.2 29.45 14.54 29.1 14.24 28.82 13.91 29.15"/>
                <path class="cls-13" d="M13.63,29h0l.17.17a.07.07,0,0,0,.09,0l.37-.37a.06.06,0,0,0,0-.09l-.17-.17-.1.1.07.08-.07.07-.08-.07-.1.1.07.08-.07.07-.07-.07Z"/>
                <path class="cls-13" d="M12.74,29.9l.16.17a.09.09,0,0,0,.1,0l.36-.37s0-.07,0-.09l-.17-.17-.1.1.07.08-.07.07L13,29.62l-.1.1.08.08-.08.07-.07-.07Z"/>
                <polygon class="cls-13" points="13.3 30.35 13.65 30 13.34 29.72 13.01 30.05 13.3 30.35"/>
                <path class="cls-9" d="M13.51,29.39l.13.13.07-.08-.13-.13C13.53,29.26,13.45,29.33,13.51,29.39Z"/>
                <path class="cls-9" d="M14.15,29.12l.1.11.07-.07-.1-.11A0,0,0,1,0,14.15,29.12Z"/>
                <path class="cls-9" d="M13.25,30l.1.1.07-.07-.1-.1C13.27,29.9,13.2,30,13.25,30Z"/>
                <path class="cls-13" d="M14.16,30a.67.67,0,0,0,.17.86l.69-.69A.72.72,0,0,0,14.16,30Z"/>
                <path class="cls-13" d="M14.32,30.13a.52.52,0,0,0,.17.55l.39-.39A.52.52,0,0,0,14.32,30.13Z"/>
              </g>
              <g>
                <polygon class="cls-13" points="22.59 19.5 22.68 18.77 24.48 18.77 24.56 19.5 22.59 19.5"/>
                <path class="cls-13" d="M22.57,19.69a.09.09,0,0,1-.08-.09.09.09,0,0,1,.08-.1h2a.09.09,0,0,1,.08.1.09.09,0,0,1-.08.09Z"/>
                <path class="cls-13" d="M22.61,18.6a.09.09,0,0,1-.08-.08.09.09,0,0,1,.08-.09h1.94a.09.09,0,0,1,.08.09.09.09,0,0,1-.08.08Z"/>
                <path class="cls-13" d="M22.65,18.77a.08.08,0,0,1-.07-.09.07.07,0,0,1,.07-.08h1.86a.07.07,0,0,1,.07.08.08.08,0,0,1-.07.09Z"/>
                <path class="cls-13" d="M23.91,17.33h0v.24a.06.06,0,0,1-.06.06h-.54a.06.06,0,0,1-.06-.06v-.24h.15v.11h.11v-.11h.15v.11h.11v-.11Z"/>
                <polygon class="cls-13" points="23.36 17.63 23.81 17.63 23.84 18.43 23.33 18.43 23.36 17.63"/>
                <polygon class="cls-13" points="23.18 18.02 23.2 18.43 22.7 18.43 22.72 18.02 23.18 18.02"/>
                <path class="cls-13" d="M23.27,17.72h0V18a.07.07,0,0,1-.06.07h-.52a.07.07,0,0,1-.07-.07v-.24h.15v.11h.11v-.11H23v.11h.1v-.1Z"/>
                <path class="cls-13" d="M24.54,17.71V18s0,.07-.06.07H24a.08.08,0,0,1-.07-.07v-.24H24v.11h.11v-.11h.14v.11h.11v-.11Z"/>
                <polygon class="cls-13" points="24.46 18.43 23.97 18.43 23.99 18.02 24.45 18.02 24.46 18.43"/>
                <path class="cls-9" d="M23.63,17.9v.18h-.1V17.9C23.53,17.82,23.64,17.82,23.63,17.9Z"/>
                <path class="cls-9" d="M23,18.17v.14h-.1v-.14A.05.05,0,1,1,23,18.17Z"/>
                <path class="cls-9" d="M24.27,18.17v.14h-.1v-.14A.05.05,0,1,1,24.27,18.17Z"/>
                <path class="cls-13" d="M23.59,18.77a.68.68,0,0,1,.49.73h-1A.73.73,0,0,1,23.59,18.77Z"/>
                <path class="cls-13" d="M23.59,19a.54.54,0,0,1,.27.51h-.55A.54.54,0,0,1,23.59,19Z"/>
              </g>
              <g>
                <polygon class="cls-13" points="22.59 25.05 22.67 24.31 24.48 24.31 24.56 25.05 22.59 25.05"/>
                <path class="cls-13" d="M22.56,25.23a.09.09,0,0,1,0-.18h2a.09.09,0,0,1,0,.18Z"/>
                <path class="cls-13" d="M22.6,24.14a.08.08,0,0,1,0-.16h1.95a.08.08,0,0,1,0,.16Z"/>
                <path class="cls-13" d="M22.65,24.31a.08.08,0,0,1-.07-.08.08.08,0,0,1,.07-.09h1.86a.09.09,0,0,1,.07.09.09.09,0,0,1-.07.08Z"/>
                <path class="cls-13" d="M23.91,22.88h0v.24s0,.06-.07.06h-.53s-.07,0-.07-.06v-.24h.16V23h.1v-.1h.15V23h.11v-.1Z"/>
                <polygon class="cls-13" points="23.35 23.18 23.8 23.18 23.83 23.98 23.32 23.98 23.35 23.18"/>
                <polygon class="cls-13" points="23.18 23.56 23.19 23.98 22.7 23.98 22.71 23.56 23.18 23.56"/>
                <path class="cls-13" d="M23.27,23.26h0v.24a.07.07,0,0,1-.07.06h-.51s-.07,0-.07-.06v-.24h.15v.1h.1v-.1H23v.1h.1v-.1Z"/>
                <path class="cls-13" d="M24.54,23.26v.23a.08.08,0,0,1-.07.07H24a.06.06,0,0,1-.06-.06v-.24H24v.1h.1v-.1h.15v.1h.11v-.1Z"/>
                <polygon class="cls-13" points="24.46 23.98 23.97 23.98 23.98 23.56 24.45 23.56 24.46 23.98"/>
                <path class="cls-9" d="M23.63,23.44v.19h-.11v-.19A.06.06,0,0,1,23.63,23.44Z"/>
                <path class="cls-9" d="M23,23.71v.15h-.1v-.15A.05.05,0,1,1,23,23.71Z"/>
                <path class="cls-9" d="M24.27,23.71v.15h-.1v-.15A.05.05,0,1,1,24.27,23.71Z"/>
                <path class="cls-13" d="M23.58,24.32a.68.68,0,0,1,.49.73h-1A.73.73,0,0,1,23.58,24.32Z"/>
                <path class="cls-13" d="M23.58,24.54a.52.52,0,0,1,.27.51H23.3A.54.54,0,0,1,23.58,24.54Z"/>
              </g>
              <g>
                <polygon class="cls-13" points="20.9 29.78 21.49 29.32 22.76 30.6 22.29 31.18 20.9 29.78"/>
                <path class="cls-13" d="M20.75,29.9a.09.09,0,0,1,0-.12s.1-.05.12,0l1.44,1.44s0,.08,0,.12a.08.08,0,0,1-.12,0Z"/>
                <path class="cls-13" d="M21.55,29.15s0-.07,0-.11a.09.09,0,0,1,.11,0l1.38,1.38a.11.11,0,0,1,0,.12.09.09,0,0,1-.12,0Z"/>
                <path class="cls-13" d="M21.47,29.3s0-.07,0-.11a.08.08,0,0,1,.11,0L22.9,30.5a.09.09,0,0,1,0,.11s-.08,0-.11,0Z"/>
                <path class="cls-13" d="M23.37,29.18h0l-.17.17a.07.07,0,0,1-.09,0L22.74,29a.06.06,0,0,1,0-.09l.17-.17.11.11-.07.07L23,29l.07-.07.11.1-.07.08.07.07.07-.07Z"/>
                <polygon class="cls-13" points="22.76 29 23.08 29.32 22.54 29.91 22.18 29.54 22.76 29"/>
                <polygon class="cls-13" points="22.37 29.15 22.09 29.45 21.74 29.1 22.04 28.82 22.37 29.15"/>
                <path class="cls-13" d="M22.65,29h0l-.17.17a.07.07,0,0,1-.09,0L22,28.8a.07.07,0,0,1,0-.09l.17-.17.11.1-.08.08.08.07.07-.07.11.1-.08.08.07.07.08-.07Z"/>
                <path class="cls-13" d="M23.54,29.9l-.16.17a.09.09,0,0,1-.1,0l-.36-.37s0-.07,0-.09l.17-.17.1.1-.07.08.07.07.08-.07.1.1-.08.08.08.07.07-.07Z"/>
                <polygon class="cls-13" points="22.98 30.35 22.63 30 22.94 29.72 23.27 30.05 22.98 30.35"/>
                <path class="cls-9" d="M22.77,29.39l-.13.13-.07-.08.13-.13C22.75,29.26,22.83,29.33,22.77,29.39Z"/>
                <path class="cls-9" d="M22.13,29.12l-.1.11L22,29.16l.1-.11A0,0,0,1,1,22.13,29.12Z"/>
                <path class="cls-9" d="M23,30l-.1.1-.07-.07L23,30C23,29.9,23.08,30,23,30Z"/>
                <path class="cls-13" d="M22.12,30a.67.67,0,0,1-.17.86l-.69-.69A.72.72,0,0,1,22.12,30Z"/>
                <path class="cls-13" d="M22,30.13a.53.53,0,0,1-.16.55l-.39-.39A.51.51,0,0,1,22,30.13Z"/>
              </g>
            </g>
          </g>
        </g>
        <circle class="cls-1" cx="25.24" cy="25" r="23.94" transform="translate(-7.65 11.56) rotate(-22.5)"/>
      </g>
    </g>
  </g>
</svg>
