<svg xmlns="http://www.w3.org/2000/svg" xmlns:xlink="http://www.w3.org/1999/xlink" viewBox="0 0 225.32 66.06">
  <defs>
    <style>
      .cls-1 {
        fill: #63514b;
      }

      .cls-2 {
        fill: #ffd255;
        stroke: url(#linear-gradient);
      }

      .cls-2, .cls-3 {
        stroke-miterlimit: 10;
      }

      .cls-3 {
        stroke: #ffd255;
        opacity: 0.5;
        fill: url(#linear-gradient-2);
      }

      .cls-4 {
        fill: #5e5e5e;
      }
    </style>
    <linearGradient id="linear-gradient" y1="31.25" x2="221.76" y2="31.25" gradientUnits="userSpaceOnUse">
      <stop offset="0" stop-color="#726144"/>
      <stop offset="0.28" stop-color="#ffd255"/>
      <stop offset="0.51" stop-color="#ffe49b"/>
      <stop offset="0.74" stop-color="#ffd255"/>
      <stop offset="1" stop-color="#726144"/>
    </linearGradient>
    <linearGradient id="linear-gradient-2" x1="0.5" y1="31.25" x2="221.26" y2="31.25" xlink:href="#linear-gradient"/>
  </defs>
  <g id="Layer_1" data-name="Layer 1">
    <g>
      <path class="cls-1" d="M4.56,18.65V51.91A14.09,14.09,0,0,1,18.65,66v.06H211.27s0,0,0-.06a14.09,14.09,0,0,1,14.06-14.09V18.65A14.1,14.1,0,0,1,211.26,4.56H18.65A14.09,14.09,0,0,1,4.56,18.65Z"/>
      <path class="cls-2" d="M.5,14.59V47.85A14.09,14.09,0,0,1,14.59,62V62H207.21V62a14.11,14.11,0,0,1,14-14.1V14.59A14.09,14.09,0,0,1,207.21.5H14.59A14.09,14.09,0,0,1,.5,14.59Z"/>
      <path class="cls-3" d="M.5,14.59V47.85A14.09,14.09,0,0,1,14.59,62V62H207.21V62a14.11,14.11,0,0,1,14-14.1V14.59A14.09,14.09,0,0,1,207.21.5H14.59A14.09,14.09,0,0,1,.5,14.59Z"/>
      <g>
        <path class="cls-4" d="M44.88,40.72H42.17a1.34,1.34,0,0,1-1.23-.65L35.07,32a1.72,1.72,0,0,0-.58-.54,2.06,2.06,0,0,0-1-.17H31.22v9.44h-3V18.11h6.39a13.93,13.93,0,0,1,3.71.44,7.06,7.06,0,0,1,2.58,1.25,5.1,5.1,0,0,1,1.51,2,6.71,6.71,0,0,1,.48,2.59,6.54,6.54,0,0,1-.37,2.24,6,6,0,0,1-1.1,1.87,6.45,6.45,0,0,1-1.75,1.42,9,9,0,0,1-2.34.88,3.06,3.06,0,0,1,1,1ZM34.44,29.06a7.93,7.93,0,0,0,2.34-.32,4.69,4.69,0,0,0,1.7-.92,3.81,3.81,0,0,0,1-1.41,4.63,4.63,0,0,0,.34-1.81,3.62,3.62,0,0,0-1.32-3.05,6.48,6.48,0,0,0-4-1H31.22v8.53Z"/>
        <path class="cls-4" d="M59.22,38.48A5.27,5.27,0,0,1,58,39.57a7.72,7.72,0,0,1-1.55.77,9.77,9.77,0,0,1-1.71.45,10.52,10.52,0,0,1-1.75.15,8.21,8.21,0,0,1-3.06-.56,6.8,6.8,0,0,1-2.41-1.64,7.49,7.49,0,0,1-1.59-2.68,11.08,11.08,0,0,1-.56-3.66,9.37,9.37,0,0,1,.51-3.12,7.34,7.34,0,0,1,1.47-2.52,7,7,0,0,1,2.35-1.67,7.84,7.84,0,0,1,3.13-.61,7.27,7.27,0,0,1,2.66.49,6,6,0,0,1,2.11,1.38A6.61,6.61,0,0,1,59,28.59a8.69,8.69,0,0,1,.5,3,1.86,1.86,0,0,1-.14.88.59.59,0,0,1-.54.22H48.11a9.24,9.24,0,0,0,.42,2.64,5.34,5.34,0,0,0,1,1.87,4.27,4.27,0,0,0,1.58,1.12,5.38,5.38,0,0,0,2,.37A5.76,5.76,0,0,0,55,38.48,8.45,8.45,0,0,0,56.33,38a9.59,9.59,0,0,0,.92-.53,1.19,1.19,0,0,1,.64-.25.63.63,0,0,1,.54.27ZM57,31a5.65,5.65,0,0,0-.28-1.79,3.94,3.94,0,0,0-.8-1.4,3.75,3.75,0,0,0-1.29-.92,4.43,4.43,0,0,0-1.72-.32,4.29,4.29,0,0,0-3.19,1.18A5.46,5.46,0,0,0,48.21,31Z"/>
        <path class="cls-4" d="M76.4,25.37v1c0,.35-.22.57-.67.66l-1.81.24A5.19,5.19,0,0,1,74,31.73a5,5,0,0,1-1.24,1.64,5.54,5.54,0,0,1-1.9,1,7.63,7.63,0,0,1-2.39.36,8.1,8.1,0,0,1-2.12-.27,3.06,3.06,0,0,0-.77.67,1.2,1.2,0,0,0-.27.72,1,1,0,0,0,.47.86,3.55,3.55,0,0,0,1.22.42,14,14,0,0,0,1.73.15c.64,0,1.31.06,2,.11a18.15,18.15,0,0,1,2,.24,6.17,6.17,0,0,1,1.73.57,3.29,3.29,0,0,1,1.22,1.09,3.16,3.16,0,0,1,.47,1.8,4.17,4.17,0,0,1-.51,2,5.46,5.46,0,0,1-1.48,1.72A7.79,7.79,0,0,1,71.78,46a10.22,10.22,0,0,1-3.14.45,12.07,12.07,0,0,1-3.06-.34,7.09,7.09,0,0,1-2.18-.93,4.05,4.05,0,0,1-1.3-1.35,3.22,3.22,0,0,1-.44-1.6,2.92,2.92,0,0,1,.74-2,5.33,5.33,0,0,1,2-1.31,3,3,0,0,1-1.13-.84,2.23,2.23,0,0,1-.42-1.43,2.38,2.38,0,0,1,.13-.72,2.79,2.79,0,0,1,.39-.74,4.07,4.07,0,0,1,.63-.7,4.41,4.41,0,0,1,.89-.58,4.9,4.9,0,0,1-1.85-1.76,4.84,4.84,0,0,1-.66-2.55,4.91,4.91,0,0,1,.45-2.12,4.77,4.77,0,0,1,1.25-1.63,5.89,5.89,0,0,1,1.92-1,7.86,7.86,0,0,1,2.44-.36,8,8,0,0,1,1.94.23,6,6,0,0,1,1.64.67ZM73.54,41.58a1.33,1.33,0,0,0-.33-.94,2.28,2.28,0,0,0-.89-.57,5.68,5.68,0,0,0-1.3-.29c-.5-.06-1-.1-1.57-.14l-1.68-.09c-.57,0-1.12-.09-1.64-.16a4.67,4.67,0,0,0-1.45,1,2.15,2.15,0,0,0-.56,1.46,2,2,0,0,0,.28,1,2.4,2.4,0,0,0,.84.8,5.15,5.15,0,0,0,1.43.54,9.28,9.28,0,0,0,2,.19,9.56,9.56,0,0,0,2-.2,5.09,5.09,0,0,0,1.53-.59,2.92,2.92,0,0,0,.95-.89A2.14,2.14,0,0,0,73.54,41.58Zm-5.06-8.67a4.33,4.33,0,0,0,1.5-.24A3.07,3.07,0,0,0,71.06,32a2.63,2.63,0,0,0,.67-1,3.85,3.85,0,0,0,.22-1.3,3.1,3.1,0,0,0-.89-2.33,4.29,4.29,0,0,0-5.18,0A3.1,3.1,0,0,0,65,29.69a3.62,3.62,0,0,0,.23,1.3,2.75,2.75,0,0,0,.67,1,3.21,3.21,0,0,0,1.09.66A4.29,4.29,0,0,0,68.48,32.91Z"/>
        <path class="cls-4" d="M82.88,19.72a1.84,1.84,0,0,1-.17.77,2.24,2.24,0,0,1-.44.63,1.94,1.94,0,0,1-.65.43,1.85,1.85,0,0,1-.78.16,1.79,1.79,0,0,1-.76-.16,1.82,1.82,0,0,1-.62-.43,2.43,2.43,0,0,1-.43-.63,1.83,1.83,0,0,1-.16-.77,1.91,1.91,0,0,1,.16-.78,2.23,2.23,0,0,1,.43-.65,1.82,1.82,0,0,1,.62-.43,1.79,1.79,0,0,1,.76-.16,1.85,1.85,0,0,1,.78.16,1.94,1.94,0,0,1,.65.43,2.07,2.07,0,0,1,.44.65A1.92,1.92,0,0,1,82.88,19.72Zm-.6,5v16H79.47v-16Z"/>
        <path class="cls-4" d="M93.62,24.48a8.16,8.16,0,0,1,3.16.59,6.82,6.82,0,0,1,2.39,1.65,7.31,7.31,0,0,1,1.53,2.6,11.41,11.41,0,0,1,0,6.81,7.22,7.22,0,0,1-1.53,2.58,6.57,6.57,0,0,1-2.39,1.65,9,9,0,0,1-6.34,0A6.53,6.53,0,0,1,88,38.71a7.22,7.22,0,0,1-1.53-2.58,11.41,11.41,0,0,1,0-6.81A7.31,7.31,0,0,1,88,26.72a6.77,6.77,0,0,1,2.4-1.65A8.23,8.23,0,0,1,93.62,24.48Zm0,14.26a4.07,4.07,0,0,0,3.53-1.58,7.34,7.34,0,0,0,1.17-4.43,7.37,7.37,0,0,0-1.17-4.44,4.06,4.06,0,0,0-3.53-1.6,5,5,0,0,0-2.09.41,3.91,3.91,0,0,0-1.48,1.19,5.23,5.23,0,0,0-.89,1.9,10.37,10.37,0,0,0-.29,2.54,7.27,7.27,0,0,0,1.18,4.43A4.14,4.14,0,0,0,93.62,38.74Z"/>
        <path class="cls-4" d="M107.42,27.06A9.2,9.2,0,0,1,108.53,26a6.6,6.6,0,0,1,1.24-.81,5.86,5.86,0,0,1,1.38-.52,6.66,6.66,0,0,1,1.59-.19,5.77,5.77,0,0,1,2.31.44,4.49,4.49,0,0,1,1.67,1.23,5.35,5.35,0,0,1,1,1.92,8.33,8.33,0,0,1,.35,2.47V40.72h-2.83V30.54a4.23,4.23,0,0,0-.83-2.81,3.07,3.07,0,0,0-2.51-1,4.73,4.73,0,0,0-2.33.6,7.75,7.75,0,0,0-2,1.63V40.72h-2.83v-16h1.69a.68.68,0,0,1,.74.58Z"/>
        <path class="cls-4" d="M131.68,27.37a.62.62,0,0,1-.58.35,1.16,1.16,0,0,1-.54-.17c-.2-.12-.44-.25-.73-.39a8.25,8.25,0,0,0-1-.4,5,5,0,0,0-1.42-.18,4.21,4.21,0,0,0-1.28.18,3.28,3.28,0,0,0-1,.5,2.37,2.37,0,0,0-.62.73,2,2,0,0,0-.21.91,1.52,1.52,0,0,0,.36,1,3.13,3.13,0,0,0,.93.71,9.21,9.21,0,0,0,1.33.53l1.52.48c.52.18,1,.37,1.52.58a5.32,5.32,0,0,1,1.33.79,3.56,3.56,0,0,1,.94,1.16,3.65,3.65,0,0,1,.35,1.65,5.29,5.29,0,0,1-.39,2A4.35,4.35,0,0,1,131,39.49a5.54,5.54,0,0,1-1.89,1.08,7.62,7.62,0,0,1-2.59.4,8,8,0,0,1-3-.55,7.59,7.59,0,0,1-2.3-1.39l.66-1.07a1,1,0,0,1,.3-.32.84.84,0,0,1,.44-.11,1,1,0,0,1,.6.22c.21.15.47.31.77.49a5.89,5.89,0,0,0,1.09.49,5,5,0,0,0,1.61.22,4.46,4.46,0,0,0,1.44-.21,3.13,3.13,0,0,0,1-.58,2.16,2.16,0,0,0,.61-.84,2.59,2.59,0,0,0,.2-1,1.66,1.66,0,0,0-.36-1.1,2.9,2.9,0,0,0-.93-.74,7.2,7.2,0,0,0-1.34-.54l-1.53-.48c-.52-.17-1-.36-1.53-.58a5.09,5.09,0,0,1-1.33-.81,3.72,3.72,0,0,1-.94-1.2,3.87,3.87,0,0,1-.35-1.75,4.31,4.31,0,0,1,.37-1.76,4.4,4.4,0,0,1,1.11-1.48,5.5,5.5,0,0,1,1.78-1,7.21,7.21,0,0,1,2.41-.38,7.69,7.69,0,0,1,2.84.5,6.69,6.69,0,0,1,2.16,1.37Z"/>
        <path class="cls-4" d="M163.09,18.11V40.72H160V30.43H147.84V40.72h-3.06V18.11h3.06V28.19H160V18.11Z"/>
        <path class="cls-4" d="M168,30.07h7.79v2.38H168Z"/>
        <path class="cls-4" d="M187.26,18.11a12.57,12.57,0,0,1,3.73.5A7.14,7.14,0,0,1,193.61,20a5.75,5.75,0,0,1,1.56,2.21,7.79,7.79,0,0,1,.51,2.89,7.46,7.46,0,0,1-.55,2.88,6.19,6.19,0,0,1-1.62,2.26,7.53,7.53,0,0,1-2.63,1.47,11.17,11.17,0,0,1-3.62.53h-3.63v8.46h-3V18.11Zm0,11.72a6.84,6.84,0,0,0,2.31-.35,4.83,4.83,0,0,0,1.68-1,4,4,0,0,0,1-1.5,5.06,5.06,0,0,0,.34-1.9,4.33,4.33,0,0,0-1.33-3.38,5.84,5.84,0,0,0-4-1.21h-3.63v9.3Z"/>
      </g>
    </g>
  </g>
</svg>
