<svg xmlns="http://www.w3.org/2000/svg" xmlns:xlink="http://www.w3.org/1999/xlink" viewBox="0 0 225.32 66.06">
  <defs>
    <style>
      .cls-1 {
        fill: #63514b;
      }

      .cls-2 {
        fill: #ffd255;
        stroke: url(#linear-gradient);
      }

      .cls-2, .cls-3 {
        stroke-miterlimit: 10;
      }

      .cls-3 {
        stroke: #ffd255;
        opacity: 0.5;
        fill: url(#linear-gradient-2);
      }

      .cls-4 {
        fill: #5e5e5e;
      }
    </style>
    <linearGradient id="linear-gradient" y1="31.25" x2="221.76" y2="31.25" gradientUnits="userSpaceOnUse">
      <stop offset="0" stop-color="#726144"/>
      <stop offset="0.28" stop-color="#ffd255"/>
      <stop offset="0.51" stop-color="#ffe49b"/>
      <stop offset="0.74" stop-color="#ffd255"/>
      <stop offset="1" stop-color="#726144"/>
    </linearGradient>
    <linearGradient id="linear-gradient-2" x1="0.5" y1="31.25" x2="221.26" y2="31.25" xlink:href="#linear-gradient"/>
  </defs>
  <g id="Layer_1" data-name="Layer 1">
    <g>
      <path class="cls-1" d="M4.56,18.65V51.91A14.09,14.09,0,0,1,18.65,66v.06H211.27s0,0,0-.06a14.09,14.09,0,0,1,14.06-14.09V18.65A14.1,14.1,0,0,1,211.26,4.56H18.65A14.09,14.09,0,0,1,4.56,18.65Z"/>
      <path class="cls-2" d="M.5,14.59V47.85A14.09,14.09,0,0,1,14.59,62V62H207.21V62a14.11,14.11,0,0,1,14-14.1V14.59A14.09,14.09,0,0,1,207.21.5H14.59A14.09,14.09,0,0,1,.5,14.59Z"/>
      <path class="cls-3" d="M.5,14.59V47.85A14.09,14.09,0,0,1,14.59,62V62H207.21V62a14.11,14.11,0,0,1,14-14.1V14.59A14.09,14.09,0,0,1,207.21.5H14.59A14.09,14.09,0,0,1,.5,14.59Z"/>
      <g>
        <path class="cls-4" d="M43.93,40.72H41.22A1.34,1.34,0,0,1,40,40.07L34.12,32a1.79,1.79,0,0,0-.57-.54,2.14,2.14,0,0,0-1-.17H30.27v9.44h-3V18.11h6.39a13.85,13.85,0,0,1,3.7.44A7.06,7.06,0,0,1,39.9,19.8a5.1,5.1,0,0,1,1.51,2,6.72,6.72,0,0,1,.49,2.59,6.54,6.54,0,0,1-.38,2.24,5.77,5.77,0,0,1-1.1,1.87,6.45,6.45,0,0,1-1.75,1.42,9,9,0,0,1-2.34.88,3,3,0,0,1,1,1ZM33.49,29.06a7.93,7.93,0,0,0,2.34-.32,4.82,4.82,0,0,0,1.71-.92,3.79,3.79,0,0,0,1-1.41,4.64,4.64,0,0,0,.35-1.81,3.6,3.6,0,0,0-1.33-3.05,6.45,6.45,0,0,0-4-1H30.27v8.53Z"/>
        <path class="cls-4" d="M58.27,38.48A5.22,5.22,0,0,1,57,39.57a8.08,8.08,0,0,1-1.56.77,9.77,9.77,0,0,1-1.71.45,10.43,10.43,0,0,1-1.75.15,8.19,8.19,0,0,1-3-.56,6.83,6.83,0,0,1-2.42-1.64A7.62,7.62,0,0,1,45,36.06a10.82,10.82,0,0,1-.57-3.66,9.37,9.37,0,0,1,.51-3.12,7.53,7.53,0,0,1,1.48-2.52,6.79,6.79,0,0,1,2.35-1.67,7.75,7.75,0,0,1,3.12-.61,7.23,7.23,0,0,1,2.66.49,6,6,0,0,1,2.11,1.38A6.46,6.46,0,0,1,58,28.59a8.47,8.47,0,0,1,.5,3,1.74,1.74,0,0,1-.14.88.57.57,0,0,1-.53.22H47.17a9.62,9.62,0,0,0,.41,2.64,5.35,5.35,0,0,0,1,1.87,4.19,4.19,0,0,0,1.58,1.12,5.35,5.35,0,0,0,2,.37,5.8,5.8,0,0,0,1.82-.25A8.45,8.45,0,0,0,55.39,38c.36-.19.67-.37.92-.53a1.19,1.19,0,0,1,.64-.25.6.6,0,0,1,.53.27ZM56,31a5.38,5.38,0,0,0-.28-1.79,3.94,3.94,0,0,0-.8-1.4,3.66,3.66,0,0,0-1.29-.92,4.38,4.38,0,0,0-1.71-.32,4.3,4.3,0,0,0-3.2,1.18A5.52,5.52,0,0,0,47.26,31Z"/>
        <path class="cls-4" d="M75.45,25.37v1q0,.53-.66.66L73,27.31a5,5,0,0,1-1.15,6.06,5.4,5.4,0,0,1-1.89,1,7.74,7.74,0,0,1-2.4.36,8,8,0,0,1-2.11-.27,3,3,0,0,0-.78.67,1.25,1.25,0,0,0-.26.72,1,1,0,0,0,.46.86,3.55,3.55,0,0,0,1.22.42,14,14,0,0,0,1.73.15c.65,0,1.31.06,2,.11a18.34,18.34,0,0,1,2,.24,6.21,6.21,0,0,1,1.72.57,3.24,3.24,0,0,1,1.23,1.09,3.16,3.16,0,0,1,.46,1.8,4.17,4.17,0,0,1-.51,2,5.21,5.21,0,0,1-1.48,1.72A7.73,7.73,0,0,1,70.84,46a10.24,10.24,0,0,1-3.15.45,12.07,12.07,0,0,1-3.06-.34,7.19,7.19,0,0,1-2.18-.93,4.05,4.05,0,0,1-1.3-1.35,3.2,3.2,0,0,1-.43-1.6,2.87,2.87,0,0,1,.74-2,5.21,5.21,0,0,1,2-1.31,2.86,2.86,0,0,1-1.12-.84A2.23,2.23,0,0,1,62,36.66a2.36,2.36,0,0,1,.12-.72,3.53,3.53,0,0,1,.39-.74,4.14,4.14,0,0,1,.64-.7,4.33,4.33,0,0,1,.88-.58,4.87,4.87,0,0,1-1.84-1.76,4.76,4.76,0,0,1-.67-2.55,4.91,4.91,0,0,1,.45-2.12,4.68,4.68,0,0,1,1.26-1.63,5.74,5.74,0,0,1,1.91-1,8.38,8.38,0,0,1,4.38-.13,5.83,5.83,0,0,1,1.64.67ZM72.59,41.58a1.33,1.33,0,0,0-.33-.94,2.21,2.21,0,0,0-.89-.57,5.68,5.68,0,0,0-1.3-.29c-.49-.06-1-.1-1.57-.14l-1.68-.09c-.57,0-1.11-.09-1.64-.16a4.51,4.51,0,0,0-1.44,1,2.11,2.11,0,0,0-.56,1.46,2,2,0,0,0,.27,1,2.44,2.44,0,0,0,.85.8,5,5,0,0,0,1.43.54,9.18,9.18,0,0,0,2,.19,9.66,9.66,0,0,0,2-.2,5,5,0,0,0,1.52-.59,2.92,2.92,0,0,0,1-.89A2.14,2.14,0,0,0,72.59,41.58Zm-5.06-8.67a4.29,4.29,0,0,0,1.5-.24A3.21,3.21,0,0,0,70.12,32a2.73,2.73,0,0,0,.66-1,3.62,3.62,0,0,0,.22-1.3,3.1,3.1,0,0,0-.89-2.33,4.28,4.28,0,0,0-5.17,0,3.07,3.07,0,0,0-.9,2.33,3.62,3.62,0,0,0,.23,1.3,2.88,2.88,0,0,0,.67,1,3.21,3.21,0,0,0,1.09.66A4.29,4.29,0,0,0,67.53,32.91Z"/>
        <path class="cls-4" d="M81.93,19.72a1.83,1.83,0,0,1-.16.77,2.47,2.47,0,0,1-.44.63,2,2,0,0,1-.65.43,1.91,1.91,0,0,1-.78.16,1.8,1.8,0,0,1-.77-.16,2,2,0,0,1-.62-.43,2.43,2.43,0,0,1-.43-.63,2,2,0,0,1-.15-.77,2.08,2.08,0,0,1,.15-.78,2.23,2.23,0,0,1,.43-.65,2,2,0,0,1,.62-.43,1.8,1.8,0,0,1,.77-.16,1.91,1.91,0,0,1,.78.16,2,2,0,0,1,.65.43,2.26,2.26,0,0,1,.44.65A1.91,1.91,0,0,1,81.93,19.72Zm-.6,5v16h-2.8v-16Z"/>
        <path class="cls-4" d="M92.67,24.48a8.16,8.16,0,0,1,3.16.59,6.86,6.86,0,0,1,2.4,1.65,7.29,7.29,0,0,1,1.52,2.6,11.2,11.2,0,0,1,0,6.81,7.2,7.2,0,0,1-1.52,2.58,6.61,6.61,0,0,1-2.4,1.65,8.93,8.93,0,0,1-6.33,0,6.48,6.48,0,0,1-2.41-1.65,7.2,7.2,0,0,1-1.52-2.58,11.2,11.2,0,0,1,0-6.81,7.29,7.29,0,0,1,1.52-2.6,6.72,6.72,0,0,1,2.41-1.65A8.21,8.21,0,0,1,92.67,24.48Zm0,14.26a4.1,4.1,0,0,0,3.54-1.58,7.34,7.34,0,0,0,1.17-4.43,7.37,7.37,0,0,0-1.17-4.44,4.09,4.09,0,0,0-3.54-1.6,5.06,5.06,0,0,0-2.09.41,4,4,0,0,0-1.48,1.19,5.22,5.22,0,0,0-.88,1.9,9.91,9.91,0,0,0-.29,2.54,7.34,7.34,0,0,0,1.17,4.43A4.16,4.16,0,0,0,92.67,38.74Z"/>
        <path class="cls-4" d="M106.48,27.06a8.44,8.44,0,0,1,1.1-1.06,6.6,6.6,0,0,1,1.24-.81,6.11,6.11,0,0,1,1.39-.52,6.58,6.58,0,0,1,1.58-.19,5.7,5.7,0,0,1,2.31.44,4.53,4.53,0,0,1,1.68,1.23,5.49,5.49,0,0,1,1,1.92,8.33,8.33,0,0,1,.35,2.47V40.72h-2.82V30.54a4.28,4.28,0,0,0-.83-2.81,3.07,3.07,0,0,0-2.52-1,4.69,4.69,0,0,0-2.32.6,7.79,7.79,0,0,0-2,1.63V40.72h-2.82v-16h1.68a.7.7,0,0,1,.75.58Z"/>
        <path class="cls-4" d="M130.74,27.37a.63.63,0,0,1-.59.35,1.08,1.08,0,0,1-.53-.18l-.74-.38a8.25,8.25,0,0,0-1-.4,5,5,0,0,0-1.42-.18,4.26,4.26,0,0,0-1.28.18,3.28,3.28,0,0,0-1,.5,2.33,2.33,0,0,0-.61.73,2,2,0,0,0-.22.91,1.52,1.52,0,0,0,.36,1,3.18,3.18,0,0,0,.94.71,9.07,9.07,0,0,0,1.32.53l1.53.48c.52.18,1,.37,1.52.58a5.44,5.44,0,0,1,1.32.79,3.56,3.56,0,0,1,.94,1.16,3.53,3.53,0,0,1,.36,1.65,5.3,5.3,0,0,1-.4,2,4.44,4.44,0,0,1-1.16,1.62,5.58,5.58,0,0,1-1.9,1.08,7.56,7.56,0,0,1-2.58.4,7.9,7.9,0,0,1-3-.55A7.52,7.52,0,0,1,120.26,39l.67-1.07a.85.85,0,0,1,.3-.32.82.82,0,0,1,.44-.11,1,1,0,0,1,.6.22c.21.15.46.31.76.49a6,6,0,0,0,1.1.49,5,5,0,0,0,1.61.22,4.44,4.44,0,0,0,1.43-.21,3.3,3.3,0,0,0,1-.58,2.39,2.39,0,0,0,.61-.84,2.58,2.58,0,0,0,.19-1,1.7,1.7,0,0,0-.35-1.1,2.94,2.94,0,0,0-.94-.74,7.09,7.09,0,0,0-1.33-.54l-1.53-.48a15.56,15.56,0,0,1-1.53-.58,5.15,5.15,0,0,1-1.34-.81,3.72,3.72,0,0,1-.94-1.2,4,4,0,0,1-.35-1.75,4.32,4.32,0,0,1,.38-1.76,4.37,4.37,0,0,1,1.1-1.48,5.61,5.61,0,0,1,1.78-1,7.23,7.23,0,0,1,2.42-.38,7.67,7.67,0,0,1,2.83.5,6.63,6.63,0,0,1,2.17,1.37Z"/>
        <path class="cls-4" d="M165.77,45.39h-2.52a3.1,3.1,0,0,1-1-.16,2.13,2.13,0,0,1-.81-.55l-4-4.33a12.16,12.16,0,0,1-3.89.6,11.84,11.84,0,0,1-4.54-.84,10,10,0,0,1-3.52-2.38,10.49,10.49,0,0,1-2.27-3.65,12.92,12.92,0,0,1-.81-4.66,13,13,0,0,1,.81-4.66,10.72,10.72,0,0,1,2.27-3.66A10.31,10.31,0,0,1,149,18.71a12.58,12.58,0,0,1,9.09,0,10.22,10.22,0,0,1,3.52,2.39,10.9,10.9,0,0,1,2.28,3.66,13.21,13.21,0,0,1,.8,4.66,14.14,14.14,0,0,1-.32,3,11.87,11.87,0,0,1-.94,2.67,10.26,10.26,0,0,1-1.5,2.25,9.73,9.73,0,0,1-2,1.75Zm-20.2-16a11.38,11.38,0,0,0,.56,3.73,7.83,7.83,0,0,0,1.62,2.79,7,7,0,0,0,2.53,1.76,9.4,9.4,0,0,0,6.61,0,7,7,0,0,0,2.53-1.76,7.79,7.79,0,0,0,1.6-2.79,11.37,11.37,0,0,0,.57-3.73,11.47,11.47,0,0,0-.57-3.74,7.93,7.93,0,0,0-1.6-2.8,7.07,7.07,0,0,0-2.53-1.76,9.26,9.26,0,0,0-6.61,0,7.07,7.07,0,0,0-2.53,1.76,8,8,0,0,0-1.62,2.8A11.48,11.48,0,0,0,145.57,29.42Z"/>
        <path class="cls-4" d="M168.17,30.07H176v2.38h-7.79Z"/>
        <path class="cls-4" d="M195.69,19.25a1.86,1.86,0,0,1-.31,1l-12.79,18h12.92v2.5H178.56v-1.2a1.28,1.28,0,0,1,.09-.48,4.11,4.11,0,0,1,.21-.42l12.83-18H179.16V18.11h16.53Z"/>
      </g>
    </g>
  </g>
</svg>
