<svg xmlns="http://www.w3.org/2000/svg" xmlns:xlink="http://www.w3.org/1999/xlink" viewBox="0 0 225.32 66.06">
  <defs>
    <style>
      .cls-1 {
        fill: #63514b;
      }

      .cls-2 {
        fill: #ffd255;
        stroke: url(#linear-gradient);
      }

      .cls-2, .cls-3 {
        stroke-miterlimit: 10;
      }

      .cls-3 {
        stroke: #ffd255;
        opacity: 0.5;
        fill: url(#linear-gradient-2);
      }

      .cls-4 {
        fill: #5e5e5e;
      }
    </style>
    <linearGradient id="linear-gradient" y1="31.25" x2="221.76" y2="31.25" gradientUnits="userSpaceOnUse">
      <stop offset="0" stop-color="#726144"/>
      <stop offset="0.28" stop-color="#ffd255"/>
      <stop offset="0.51" stop-color="#ffe49b"/>
      <stop offset="0.74" stop-color="#ffd255"/>
      <stop offset="1" stop-color="#726144"/>
    </linearGradient>
    <linearGradient id="linear-gradient-2" x1="0.5" y1="31.25" x2="221.26" y2="31.25" xlink:href="#linear-gradient"/>
  </defs>
  <g id="Layer_1" data-name="Layer 1">
    <g>
      <path class="cls-1" d="M4.56,18.65V51.91A14.09,14.09,0,0,1,18.65,66v.06H211.27s0,0,0-.06a14.09,14.09,0,0,1,14.06-14.09V18.65A14.1,14.1,0,0,1,211.26,4.56H18.65A14.09,14.09,0,0,1,4.56,18.65Z"/>
      <path class="cls-2" d="M.5,14.59V47.85A14.09,14.09,0,0,1,14.59,62V62H207.21V62a14.11,14.11,0,0,1,14-14.1V14.59A14.09,14.09,0,0,1,207.21.5H14.59A14.09,14.09,0,0,1,.5,14.59Z"/>
      <path class="cls-3" d="M.5,14.59V47.85A14.09,14.09,0,0,1,14.59,62V62H207.21V62a14.11,14.11,0,0,1,14-14.1V14.59A14.09,14.09,0,0,1,207.21.5H14.59A14.09,14.09,0,0,1,.5,14.59Z"/>
      <g>
        <path class="cls-4" d="M44.29,40.72H41.57a1.36,1.36,0,0,1-1.23-.65L34.48,32a1.72,1.72,0,0,0-.58-.54,2.06,2.06,0,0,0-.95-.17H30.63v9.44H27.58V18.11H34a13.93,13.93,0,0,1,3.71.44,7.06,7.06,0,0,1,2.58,1.25,5,5,0,0,1,1.5,2,6.53,6.53,0,0,1,.49,2.59,6.31,6.31,0,0,1-.38,2.24,5.75,5.75,0,0,1-1.09,1.87A6.45,6.45,0,0,1,39,29.9a9,9,0,0,1-2.35.88,3,3,0,0,1,1,1ZM33.85,29.06a7.93,7.93,0,0,0,2.34-.32,4.78,4.78,0,0,0,1.7-.92,3.68,3.68,0,0,0,1-1.41,4.46,4.46,0,0,0,.35-1.81A3.62,3.62,0,0,0,38,21.55a6.48,6.48,0,0,0-4-1H30.63v8.53Z"/>
        <path class="cls-4" d="M58.63,38.48a5.48,5.48,0,0,1-1.25,1.09,7.72,7.72,0,0,1-1.55.77,10.26,10.26,0,0,1-1.71.45,10.55,10.55,0,0,1-1.76.15,8.19,8.19,0,0,1-3-.56,6.8,6.8,0,0,1-2.41-1.64,7.49,7.49,0,0,1-1.59-2.68,11.08,11.08,0,0,1-.56-3.66,9.37,9.37,0,0,1,.51-3.12,7.34,7.34,0,0,1,1.47-2.52,6.89,6.89,0,0,1,2.35-1.67,7.84,7.84,0,0,1,3.13-.61,7.18,7.18,0,0,1,2.65.49A6.08,6.08,0,0,1,57,26.35a6.44,6.44,0,0,1,1.39,2.24,8.46,8.46,0,0,1,.51,3,1.86,1.86,0,0,1-.14.88.6.6,0,0,1-.54.22H47.52a9.24,9.24,0,0,0,.42,2.64,5.34,5.34,0,0,0,1,1.87,4.27,4.27,0,0,0,1.58,1.12,5.35,5.35,0,0,0,2.05.37,5.76,5.76,0,0,0,1.82-.25A8.45,8.45,0,0,0,55.74,38a9.59,9.59,0,0,0,.92-.53,1.19,1.19,0,0,1,.64-.25.63.63,0,0,1,.54.27ZM56.36,31a5.65,5.65,0,0,0-.28-1.79,3.82,3.82,0,0,0-.81-1.4A3.71,3.71,0,0,0,54,26.87a4.47,4.47,0,0,0-1.72-.32,4.27,4.27,0,0,0-3.19,1.18A5.46,5.46,0,0,0,47.62,31Z"/>
        <path class="cls-4" d="M75.8,25.37v1q0,.53-.66.66l-1.81.24a4.9,4.9,0,0,1,.53,2.3,4.81,4.81,0,0,1-1.68,3.76,5.54,5.54,0,0,1-1.9,1,7.63,7.63,0,0,1-2.39.36,8.1,8.1,0,0,1-2.12-.27,3.06,3.06,0,0,0-.77.67,1.2,1.2,0,0,0-.27.72,1,1,0,0,0,.47.86,3.48,3.48,0,0,0,1.22.42,13.78,13.78,0,0,0,1.73.15c.64,0,1.31.06,2,.11a18.34,18.34,0,0,1,2,.24,6.28,6.28,0,0,1,1.73.57,3.29,3.29,0,0,1,1.22,1.09,3.16,3.16,0,0,1,.47,1.8,4.07,4.07,0,0,1-.52,2,5.3,5.3,0,0,1-1.47,1.72A7.79,7.79,0,0,1,71.19,46a10.24,10.24,0,0,1-3.15.45A12.18,12.18,0,0,1,65,46.13a7.13,7.13,0,0,1-2.17-.93,4,4,0,0,1-1.3-1.35,3.22,3.22,0,0,1-.44-1.6,2.92,2.92,0,0,1,.74-2,5.33,5.33,0,0,1,2-1.31,2.89,2.89,0,0,1-1.13-.84,2.23,2.23,0,0,1-.42-1.43,2.11,2.11,0,0,1,.13-.72,3.06,3.06,0,0,1,.38-.74,4.61,4.61,0,0,1,.64-.7,4.41,4.41,0,0,1,.89-.58,4.9,4.9,0,0,1-1.85-1.76,4.84,4.84,0,0,1-.66-2.55,4.91,4.91,0,0,1,.45-2.12,4.77,4.77,0,0,1,1.25-1.63,5.89,5.89,0,0,1,1.92-1,7.86,7.86,0,0,1,2.44-.36,8,8,0,0,1,1.94.23,6,6,0,0,1,1.64.67ZM73,41.58a1.33,1.33,0,0,0-.33-.94,2.28,2.28,0,0,0-.89-.57,5.8,5.8,0,0,0-1.3-.29c-.5-.06-1-.1-1.57-.14l-1.68-.09c-.57,0-1.12-.09-1.64-.16a4.67,4.67,0,0,0-1.45,1,2.15,2.15,0,0,0-.56,1.46,1.9,1.9,0,0,0,.28,1,2.32,2.32,0,0,0,.84.8,5.15,5.15,0,0,0,1.43.54,9.28,9.28,0,0,0,2,.19,9.63,9.63,0,0,0,2-.2,4.92,4.92,0,0,0,1.52-.59,2.86,2.86,0,0,0,1-.89A2.14,2.14,0,0,0,73,41.58Zm-5.06-8.67a4.27,4.27,0,0,0,1.49-.24A3,3,0,0,0,70.47,32a2.63,2.63,0,0,0,.67-1,3.85,3.85,0,0,0,.22-1.3,3.1,3.1,0,0,0-.89-2.33,4.29,4.29,0,0,0-5.18,0,3.1,3.1,0,0,0-.89,2.33,3.62,3.62,0,0,0,.23,1.3,2.63,2.63,0,0,0,.67,1,3.12,3.12,0,0,0,1.09.66A4.29,4.29,0,0,0,67.89,32.91Z"/>
        <path class="cls-4" d="M82.29,19.72a1.84,1.84,0,0,1-.17.77,2.47,2.47,0,0,1-.44.63,1.94,1.94,0,0,1-.65.43,1.85,1.85,0,0,1-.78.16,1.76,1.76,0,0,1-.76-.16,2,2,0,0,1-.63-.43,2.39,2.39,0,0,1-.42-.63,1.83,1.83,0,0,1-.16-.77,1.91,1.91,0,0,1,.16-.78,2.2,2.2,0,0,1,.42-.65,2,2,0,0,1,.63-.43,1.76,1.76,0,0,1,.76-.16,1.85,1.85,0,0,1,.78.16,1.94,1.94,0,0,1,.65.43,2.26,2.26,0,0,1,.44.65A1.92,1.92,0,0,1,82.29,19.72Zm-.6,5v16H78.88v-16Z"/>
        <path class="cls-4" d="M93,24.48a8.08,8.08,0,0,1,3.15.59,6.77,6.77,0,0,1,2.4,1.65,7.29,7.29,0,0,1,1.52,2.6,10.11,10.11,0,0,1,.53,3.4,10.13,10.13,0,0,1-.53,3.41,7.2,7.2,0,0,1-1.52,2.58,6.53,6.53,0,0,1-2.4,1.65,8.08,8.08,0,0,1-3.15.58,8.23,8.23,0,0,1-3.18-.58,6.53,6.53,0,0,1-2.4-1.65,7.22,7.22,0,0,1-1.53-2.58,11.2,11.2,0,0,1,0-6.81,7.31,7.31,0,0,1,1.53-2.6,6.77,6.77,0,0,1,2.4-1.65A8.23,8.23,0,0,1,93,24.48Zm0,14.26a4.08,4.08,0,0,0,3.53-1.58,7.34,7.34,0,0,0,1.17-4.43,7.37,7.37,0,0,0-1.17-4.44A4.07,4.07,0,0,0,93,26.69a5,5,0,0,0-2.09.41,3.91,3.91,0,0,0-1.48,1.19,5.23,5.23,0,0,0-.89,1.9,10.37,10.37,0,0,0-.29,2.54,7.27,7.27,0,0,0,1.18,4.43A4.14,4.14,0,0,0,93,38.74Z"/>
        <path class="cls-4" d="M106.83,27.06A9.2,9.2,0,0,1,107.94,26a6.53,6.53,0,0,1,1.23-.81,6.11,6.11,0,0,1,1.39-.52,6.66,6.66,0,0,1,1.59-.19,5.77,5.77,0,0,1,2.31.44,4.49,4.49,0,0,1,1.67,1.23,5.35,5.35,0,0,1,1,1.92,8.33,8.33,0,0,1,.35,2.47V40.72h-2.83V30.54a4.23,4.23,0,0,0-.83-2.81,3.07,3.07,0,0,0-2.51-1,4.73,4.73,0,0,0-2.33.6A7.75,7.75,0,0,0,107,29V40.72h-2.83v-16h1.69a.68.68,0,0,1,.74.58Z"/>
        <path class="cls-4" d="M131.09,27.37a.62.62,0,0,1-.58.35,1.16,1.16,0,0,1-.54-.17c-.2-.12-.44-.25-.73-.39a8.25,8.25,0,0,0-1-.4,5,5,0,0,0-1.42-.18,4.21,4.21,0,0,0-1.28.18,3.28,3.28,0,0,0-1,.5,2.24,2.24,0,0,0-.62.73,2,2,0,0,0-.21.91,1.57,1.57,0,0,0,.35,1,3.18,3.18,0,0,0,.94.71,8.77,8.77,0,0,0,1.33.53l1.52.48c.52.18,1,.37,1.52.58a5.32,5.32,0,0,1,1.33.79,3.56,3.56,0,0,1,.94,1.16,3.65,3.65,0,0,1,.35,1.65,5.29,5.29,0,0,1-.39,2,4.46,4.46,0,0,1-1.17,1.62,5.63,5.63,0,0,1-1.89,1.08A7.62,7.62,0,0,1,126,41a8,8,0,0,1-3-.55,7.59,7.59,0,0,1-2.3-1.39l.66-1.07a.79.79,0,0,1,.74-.43,1,1,0,0,1,.6.22c.21.15.47.31.77.49a5.89,5.89,0,0,0,1.09.49,5,5,0,0,0,1.61.22,4.46,4.46,0,0,0,1.44-.21,3.13,3.13,0,0,0,1-.58,2.16,2.16,0,0,0,.61-.84,2.59,2.59,0,0,0,.2-1,1.66,1.66,0,0,0-.36-1.1,2.84,2.84,0,0,0-.94-.74,7.09,7.09,0,0,0-1.33-.54l-1.53-.48c-.52-.17-1-.36-1.53-.58a5.09,5.09,0,0,1-1.33-.81,3.72,3.72,0,0,1-.94-1.2,3.87,3.87,0,0,1-.36-1.75,4.32,4.32,0,0,1,.38-1.76,4.4,4.4,0,0,1,1.11-1.48,5.4,5.4,0,0,1,1.78-1,7.17,7.17,0,0,1,2.41-.38,7.63,7.63,0,0,1,2.83.5,6.63,6.63,0,0,1,2.17,1.37Z"/>
        <path class="cls-4" d="M161.51,40.72h-2.37a1,1,0,0,1-.66-.21,1.23,1.23,0,0,1-.38-.52L156,34.53H145.84L143.73,40a1.26,1.26,0,0,1-.36.51,1.06,1.06,0,0,1-.67.22h-2.36l9-22.61h3.1Zm-6.38-8.4-3.55-9.19q-.15-.4-.33-1c-.11-.36-.22-.75-.33-1.16a16.41,16.41,0,0,1-.68,2.13l-3.55,9.18Z"/>
        <path class="cls-4" d="M163.57,30.07h7.79v2.38h-7.79Z"/>
        <path class="cls-4" d="M194.57,29.85v8.67a12.61,12.61,0,0,1-3.64,1.84,13.9,13.9,0,0,1-4.23.61,13.74,13.74,0,0,1-4.93-.84A11,11,0,0,1,178,37.76a10.34,10.34,0,0,1-2.39-3.65,12.67,12.67,0,0,1-.84-4.69,13.15,13.15,0,0,1,.81-4.71,10.64,10.64,0,0,1,2.32-3.66,10.12,10.12,0,0,1,3.64-2.35,13.05,13.05,0,0,1,4.79-.84,15,15,0,0,1,2.5.2,12.28,12.28,0,0,1,2.13.56,10.53,10.53,0,0,1,1.81.9,11.47,11.47,0,0,1,1.56,1.19l-.87,1.39a.9.9,0,0,1-.52.41,1,1,0,0,1-.72-.15l-.87-.54a8.17,8.17,0,0,0-1.19-.61,10.31,10.31,0,0,0-1.66-.5,11.35,11.35,0,0,0-2.26-.2,9.26,9.26,0,0,0-3.45.62,7.27,7.27,0,0,0-2.64,1.79,7.91,7.91,0,0,0-1.67,2.8,11,11,0,0,0-.58,3.7,11.28,11.28,0,0,0,.6,3.81,8.17,8.17,0,0,0,1.74,2.86A7.42,7.42,0,0,0,183,37.88a10.11,10.11,0,0,0,3.62.61,10.36,10.36,0,0,0,2.8-.35,12.58,12.58,0,0,0,2.39-1v-5h-3.52a.64.64,0,0,1-.48-.17.58.58,0,0,1-.18-.43V29.85Z"/>
      </g>
    </g>
  </g>
</svg>
