<?xml version="1.0" encoding="utf-8"?>
<!-- Generator: Adobe Illustrator 25.2.1, SVG Export Plug-In . SVG Version: 6.00 Build 0)  -->
<svg version="1.1" id="Layer_1" xmlns="http://www.w3.org/2000/svg" xmlns:xlink="http://www.w3.org/1999/xlink" x="0px" y="0px"
	 viewBox="0 0 380.5 425.9" style="enable-background:new 0 0 380.5 425.9;" xml:space="preserve">
<style type="text/css">
	.st0{fill:none;stroke:#848484;stroke-width:10;stroke-miterlimit:10;}
	.st1{opacity:0.3;fill:none;stroke:#5E5E5E;stroke-width:10;stroke-miterlimit:10;}
	.st2{fill:#FFD255;}
	.st3{fill:#666666;}
</style>
<g>
	<g>
		<path class="st0" d="M343.1,426.9l-18.2-255.1c-1-14.9-13.5-26.5-28.4-26.5H83.9c-14.9,0-27.3,11.6-28.4,26.5L37.4,426.9"/>
		<path class="st1" d="M350.3,426.9l-18.2-247.9c-1-14.9-13.5-26.5-28.4-26.5H91.1c-14.9,0-27.3,11.6-28.4,26.5L44.6,426.9"/>
		<g>
			<g>
				
					<image style="overflow:visible;" width="308.2" height="284.9" xlink:href="AC5886C0394B12EE.png"  transform="matrix(1 0 0 1 35.122 142.1376)"/>
			</g>
		</g>
	</g>
	<g>
		<path class="st2" d="M229.3,115.3h-73.1c-10,0-18.1-8.1-18.1-18.1V31.1c0-10,8.1-18.1,18.1-18.1h73.1c10,0,18.1,8.1,18.1,18.1
			v66.1C247.4,107.2,239.3,115.3,229.3,115.3z"/>
		<path class="st3" d="M195,23.8v50.7l12.4-12.4c0.9-0.9,2.2-0.9,3.1,0c0.9,0.9,0.9,2.2,0,3.1l-16.1,16.1c-0.4,0.4-1,0.6-1.6,0.6
			c-0.6,0-1.1-0.2-1.6-0.6l-16.1-16.1c-0.9-0.9-0.9-2.2,0-3.1c0.9-0.9,2.2-0.9,3.1,0l12.4,12.4V23.8c0-1.2,1-2.2,2.2-2.2
			S195,22.6,195,23.8z M185.1,31.3c0,1.2-1,2.2-2.2,2.2H166c-0.9,0-1.7,0.8-1.7,1.7v65.3c0,0.9,0.8,1.7,1.7,1.7h53.6
			c0.9,0,1.7-0.8,1.7-1.7V51.2h-11.2c-3.6,0-6.5-2.9-6.5-6.5V33.5h-0.9c-1.2,0-2.2-1-2.2-2.2c0-1.2,1-2.2,2.2-2.2h3.1
			c1.6,0,3.2,0.6,4.3,1.8l13.8,13.8c1.1,1.1,1.8,2.7,1.8,4.3v51.5c0,3.4-2.7,6.1-6.1,6.1H166c-3.4,0-6.1-2.7-6.1-6.1V35.2
			c0-3.4,2.7-6.1,6.1-6.1h16.9C184.1,29.1,185.1,30.1,185.1,31.3z M210.1,46.8h9.7L208,35v9.7C208,45.9,208.9,46.8,210.1,46.8z"/>
	</g>
</g>
</svg>
