<svg id="Layer_1" data-name="Layer 1" xmlns="http://www.w3.org/2000/svg" viewBox="0 0 1920 1080">
  <defs>
    <style>
      .cls-1 {
        fill: #645452;
      }

      .cls-2 {
        fill: #958581;
      }

      .cls-3 {
        fill: #387c70;
      }

      .cls-4 {
        fill: #57ab8f;
      }

      .cls-5 {
        fill: #266055;
      }

      .cls-6 {
        fill: #5e9988;
      }
    </style>
  </defs>
  <title>trees</title>
  <g id="Trees">
    <g>
      <polygon class="cls-1" points="1254.1 359.7 1252.3 357 1243.7 365 1242.6 367.8 1239.1 361.6 1236.2 351.1 1234.9 353.1 1237.4 363.9 1240 370.6 1240.7 372.5 1236.5 383.2 1241.6 383.6 1242.8 379.7 1242.6 382.4 1247.8 382.8 1245 372.3 1246.3 368.1 1254.1 359.7"/>
      <polygon class="cls-1" points="1214.9 378.2 1213.8 377.1 1212.7 372 1211.8 356.2 1209.3 353.7 1208.1 372.6 1208.7 383.7 1216.5 384.3 1214.5 380.3 1214.9 378.2"/>
      <polygon class="cls-1" points="1191.5 362 1193.4 353.7 1189.9 358.2 1186.5 348.9 1184 336.1 1181.9 335.9 1182.6 345.6 1185.8 357 1189.4 365.8 1190.5 369.8 1192.4 377.3 1192.2 380.8 1191 383.5 1197.9 384.1 1198.8 382.9 1200.6 381.6 1195.8 370.7 1191.5 362"/>
      <path class="cls-2" d="M1252.3,357l-2.9,2.7a7,7,0,0,1-2.2,2l-3.6,7.3-1.1-1.2-5.1-6.2,1.2-1.5a9.2,9.2,0,0,1-2.1-7.5l-.4-1.5-1.3,1.9,2.3,10c4.9,2.5,5.4,10.2,1.8,13.7l-2.5,6.3,1.8.1a5.91,5.91,0,0,1,2.7-5.2l1.7-5.7.2,5.8.1.1c.2.4-.1,1.3.3,3.1a2.34,2.34,0,0,0,1.2,1.2c-.9-3.1,1.2-4.4-.5-7.5a7.06,7.06,0,0,1-.6-4.3l2.8-6.4,1.1,2.5c0-3.8,2.2-7.4,6.2-7.8Z"/>
      <path class="cls-2" d="M1209.6,375.8a30.48,30.48,0,0,1,2.4-15l-.3-4.6-2.5-2.5-1.2,18.9.6,11.1,3.4.3A23.75,23.75,0,0,1,1209.6,375.8Z"/>
      <path class="cls-2" d="M1193.6,374c-1.2-3.4-3.4-8.2-2.7-12.7a12,12,0,0,1,1.8-4.8l.6-2.7-3.5,4.4-3.3-9.2-.1-.7-3,.3.7,2.5a76.5,76.5,0,0,1,4.9,12.1c2.3,7.2,4.8,13.6,6.4,20.8l2.6.2.8-1.2.2-.1A27.26,27.26,0,0,1,1193.6,374Z"/>
      <path class="cls-3" d="M1240.2,343.8,1213,311.9a6.19,6.19,0,0,0-6.7-2l-33.5,10.7a7.13,7.13,0,0,0-4.3,4.2l-11.2,30.5a7.55,7.55,0,0,0,2.7,8.8l6.6,4.3a6,6,0,0,0,5.9.5l21.8-9.7a6.25,6.25,0,0,1,5.5.2l17,9.4a6.06,6.06,0,0,0,7.2-.9l15.4-13.8A7.29,7.29,0,0,0,1240.2,343.8Zm-48.9,8.6-9.2,2.5c-2.1.6-3.8-1.6-3.1-3.8l4.9-13.6a2.5,2.5,0,0,1,4.8,0l4.2,11.1A2.67,2.67,0,0,1,1191.3,352.4Z"/>
      <path class="cls-3" d="M1249.7,346l-4,9.7a4.9,4.9,0,0,0,1.6,5.7l12.1,8a3.9,3.9,0,0,0,5.6-1.3l18.9-30a4.87,4.87,0,0,0,.4-4.4l-8.9-21.7a4,4,0,0,0-1-1.5l-15.1-14.9a3.9,3.9,0,0,0-5.4-.2l-16.8,14.8a4.5,4.5,0,0,0-1.5,3.7l.5,16.3a4.78,4.78,0,0,0,2,3.7l9.9,6.4A4.53,4.53,0,0,1,1249.7,346Z"/>
      <path class="cls-4" d="M1179.5,356.7c-2.6-13.6,1.7-28.4,9.3-41.3l-16,5.1a7.13,7.13,0,0,0-4.3,4.2l-11.2,30.5a8.24,8.24,0,0,0-.4,3.5A35.27,35.27,0,0,1,1179.5,356.7Z"/>
      <path class="cls-4" d="M1210.8,360.2c.7.7,1.4,1.3,2.1,2,9.7-9,11.1-27,8-41.1l-7.9-9.2a4.71,4.71,0,0,0-1.5-1.3,80.72,80.72,0,0,0-15,23.4,33.14,33.14,0,0,0-3.1,14.8C1200.2,351.1,1205.6,355.2,1210.8,360.2Z"/>
      <path class="cls-4" d="M1261.9,308.8a36,36,0,0,1,6.2-4.5l-8.8-8.7a3.9,3.9,0,0,0-5.4-.2l-16.8,14.8a2.7,2.7,0,0,0-.7.8c-.1,6.8.2,13.7,4,18.9a20.82,20.82,0,0,0,10.1,7.3A33.62,33.62,0,0,1,1261.9,308.8Z"/>
      <path class="cls-4" d="M1280.6,324.7l-2.9-7.1c-5.4,2.4-10,6.4-11.6,11.9C1271.4,330.9,1276.3,328.4,1280.6,324.7Z"/>
      <path class="cls-4" d="M1252.9,355.1c-2.5,1.1-5,2.2-7.4,3.4a4.23,4.23,0,0,0,1.9,2.8l5.8,3.9A12.65,12.65,0,0,0,1252.9,355.1Z"/>
      <path class="cls-4" d="M1279.9,328.3a82.36,82.36,0,0,0-21.1-13.3s.2.3.6.8,1,1.2,1.7,2a46.23,46.23,0,0,0,5.9,5.5,27.32,27.32,0,0,0,8.2,3.7A43.47,43.47,0,0,0,1279.9,328.3Z"/>
      <path class="cls-4" d="M1249,322.3a78.55,78.55,0,0,0-18.6-2.5s1.4-2.9,7.6-2.6a21.47,21.47,0,0,1,4.4.9,22.84,22.84,0,0,1,3.5,1.8,12.44,12.44,0,0,1,2.3,1.7C1248.7,322,1249,322.3,1249,322.3Z"/>
      <path class="cls-5" d="M1260.9,330.6c-2.4-1.3-4.8-2.5-7.3-3.6a8,8,0,0,0,.3,1.9,7.56,7.56,0,0,0,2.2,3.5,2.43,2.43,0,0,0,3.3-.1A7,7,0,0,0,1260.9,330.6Z"/>
      <path class="cls-4" d="M1240.1,325c-2.1-.4-4.1-.8-6.2-1l-3.1-.3-3.1-.1a5,5,0,0,0,1,1.4,5.46,5.46,0,0,0,3.3,1.7c1.5.3,3.6-.3,5.2-.7S1240.1,325,1240.1,325Z"/>
      <path class="cls-4" d="M1250.7,314c-2.5-.8-5-1.3-7.5-2,0,0-.1,1.1,2.9,2.6a3.85,3.85,0,0,0,3.4.3A2.66,2.66,0,0,0,1250.7,314Z"/>
      <path class="cls-5" d="M1233.8,313.9a78,78,0,0,0-19.9.5,11.85,11.85,0,0,1,2.4-1.9,15,15,0,0,1,6.5-2.3,14.55,14.55,0,0,1,8.4,1.6,13.31,13.31,0,0,1,2,1.4C1233.6,313.7,1233.8,313.9,1233.8,313.9Z"/>
      <path class="cls-4" d="M1225.9,319.1a77,77,0,0,0-8.3.5,3.77,3.77,0,0,0,3.7,2.1,6.63,6.63,0,0,0,4.6-2.6Z"/>
      <path class="cls-4" d="M1215.1,328.4a68.86,68.86,0,0,0-14,3.7,6,6,0,0,1,.7.3,12.38,12.38,0,0,0,1.9.5,20.24,20.24,0,0,0,2.6.4,17.09,17.09,0,0,0,3.1-.3,8.44,8.44,0,0,0,2.7-1.1,8.62,8.62,0,0,0,1.7-1.5A6.32,6.32,0,0,0,1215.1,328.4Z"/>
      <path class="cls-4" d="M1228.7,329.3c-1.5.2-3,.3-4.5.6,0,0-.3-2.6,1.7-2.4A4.25,4.25,0,0,1,1228.7,329.3Z"/>
      <path class="cls-4" d="M1202.7,322.2a60.47,60.47,0,0,0-7,5.2,12.53,12.53,0,0,0,1.4-.1,7.09,7.09,0,0,0,3.2-1.2,5.2,5.2,0,0,0,2.1-2.5A4.41,4.41,0,0,0,1202.7,322.2Z"/>
      <path class="cls-4" d="M1206.8,319.5a44.05,44.05,0,0,0-5.2-.3l-2.6-.1-2.6.1a9.2,9.2,0,0,1,1.5-.9,13.33,13.33,0,0,1,4.4-1.1,4.78,4.78,0,0,1,3.7,1.1A2.71,2.71,0,0,1,1206.8,319.5Z"/>
      <path class="cls-4" d="M1195,322c-2.1.9-4.1,2-6.1,3-1.9,1.2-3.9,2.2-5.8,3.5a3.77,3.77,0,0,0,1.5.2,15.82,15.82,0,0,0,5.4-1.3c2.7-.9,3.9-2.2,4.5-3.4A3.71,3.71,0,0,0,1195,322Z"/>
      <path class="cls-4" d="M1194.6,336.8l-4,2.2-3.9,2.4a7.24,7.24,0,0,1,.3-1.7,13.4,13.4,0,0,1,2-4,2.7,2.7,0,0,1,3.6-.8,5.32,5.32,0,0,1,1.8,1.4Z"/>
      <path class="cls-4" d="M1210.9,308a85.42,85.42,0,0,0-13,3.3,13,13,0,0,1,1.6-1.5,8.85,8.85,0,0,1,3.5-2,19.28,19.28,0,0,1,4.9-.2C1209.6,307.8,1210.9,308,1210.9,308Z"/>
      <path class="cls-4" d="M1240.3,307.9a33.27,33.27,0,0,0-5.4-.7l-2.7-.3-2.7-.1a4.45,4.45,0,0,0,1.1,1.1,13.48,13.48,0,0,0,4.1,1.8,5.55,5.55,0,0,0,4.3-.5A4.37,4.37,0,0,0,1240.3,307.9Z"/>
      <path class="cls-4" d="M1271,338.6c-.9-.8-1.9-1.6-2.8-2.3a4,4,0,0,0,.8,2A3.24,3.24,0,0,0,1271,338.6Z"/>
      <path class="cls-4" d="M1245.5,330.1c-1.5-.5-3.1-.8-4.6-1.2a4,4,0,0,0,2.1,2.1A2.34,2.34,0,0,0,1245.5,330.1Z"/>
      <path class="cls-4" d="M1263.8,339.8a59.16,59.16,0,0,0-6.8-4.2s.5-.1,1.3-.2a5.45,5.45,0,0,1,2.4.5,11.41,11.41,0,0,1,2.2,2.2C1263.4,339.1,1263.8,339.8,1263.8,339.8Z"/>
      <path class="cls-5" d="M1285.7,340.8a74.93,74.93,0,0,0-6.3-4.1s.3.6.8,1.4,1.1,1.8,1.6,2.6C1282.8,342.3,1285.7,340.8,1285.7,340.8Z"/>
      <path class="cls-4" d="M1186.8,318.6c-1.8,1.3-3.6,2.6-5.3,4s-3.4,2.8-5,4.3a1.75,1.75,0,0,1,.1-.5,5.13,5.13,0,0,1,.5-1.2,13.08,13.08,0,0,1,2.5-3.6,11,11,0,0,1,4.6-2.5c.7-.2,1.4-.4,1.9-.5Z"/>
      <path class="cls-4" d="M1201,345.7l-2.5.9-2.5,1a3.7,3.7,0,0,1,1.8-3.2C1199.7,343.4,1201,345.7,1201,345.7Z"/>
      <path class="cls-4" d="M1211.4,337.9c-2.2.5-4.3,1.2-6.5,1.9a7.78,7.78,0,0,1,.3-.9,3.58,3.58,0,0,1,1.5-1.5,4.1,4.1,0,0,1,2.9-.1A6.18,6.18,0,0,1,1211.4,337.9Z"/>
      <path class="cls-4" d="M1188,309.9c-2.6,3.4-5.6,5.8-11.1,5.8A97.68,97.68,0,0,1,1188,309.9Z"/>
      <path class="cls-4" d="M1179.1,337.7c-1.3.8-2.5,1.9-3.7,2.8l-1.8,1.4-1.8,1.6a1.86,1.86,0,0,0,1.2,0,4.76,4.76,0,0,0,1.4-.5,10.35,10.35,0,0,0,2-1.1C1179.3,339.9,1179.1,337.7,1179.1,337.7Z"/>
      <path class="cls-4" d="M1183.2,344.6a10.92,10.92,0,0,0-1.7,1.3,1.51,1.51,0,0,0,1.3-.3A.91.91,0,0,0,1183.2,344.6Z"/>
      <path class="cls-5" d="M1192.6,345.2l-3,2.1a6.89,6.89,0,0,1,1.2-2A1.31,1.31,0,0,1,1192.6,345.2Z"/>
      <path class="cls-4" d="M1188.8,330.9l-2.1,1.2-2.1,1.3a10.72,10.72,0,0,1,1.5-2.1C1186.9,330.5,1188.8,330.9,1188.8,330.9Z"/>
      <path class="cls-4" d="M1217,326.4c-.9.1-1.8.3-2.7.4a2.81,2.81,0,0,1,1.2-1.1A1.08,1.08,0,0,1,1217,326.4Z"/>
      <path class="cls-4" d="M1220.5,332.6c-1.3.4-2.7.8-4,1.3a2.7,2.7,0,0,1,1.5-1.7A2.63,2.63,0,0,1,1220.5,332.6Z"/>
      <path class="cls-4" d="M1241.5,337.3l-2.7-1.1a1.7,1.7,0,0,1,1.3-.2C1240.8,336.1,1241.5,337.3,1241.5,337.3Z"/>
      <path class="cls-4" d="M1207.5,312.2l-3.1,1.5a2.63,2.63,0,0,0,2.1.5C1207.7,313.8,1207.5,312.2,1207.5,312.2Z"/>
      <path class="cls-4" d="M1225.5,306.7l-4.3-.3s.1-.4,2.1-.6S1225.5,306.7,1225.5,306.7Z"/>
      <path class="cls-4" d="M1253.1,319.5c-1.4-.3-2.8-.7-4.2-1,0,0,0,.7,1.8,1.3S1253.1,319.5,1253.1,319.5Z"/>
      <path class="cls-4" d="M1250.4,327.9l-4.5-2.1a2.42,2.42,0,0,1,2.1-.2A6.38,6.38,0,0,1,1250.4,327.9Z"/>
      <path class="cls-4" d="M1267.7,329.8l-2.6-1.7-2.7-1.6a3.36,3.36,0,0,0,1.7,2.6A4.23,4.23,0,0,0,1267.7,329.8Z"/>
      <path class="cls-4" d="M1276.3,347.3a39,39,0,0,0-3.4-3.6,8,8,0,0,0,1,2.6C1275.2,347.7,1276.3,347.3,1276.3,347.3Z"/>
      <path class="cls-4" d="M1268.2,345.3l-2.1-1.8a1.56,1.56,0,0,1,1.5.3A1.31,1.31,0,0,1,1268.2,345.3Z"/>
      <path class="cls-4" d="M1281.4,322.4a81.51,81.51,0,0,0-8.4-6.1s1.8-.5,5.1,1.6S1281.4,322.4,1281.4,322.4Z"/>
      <path class="cls-4" d="M1210.2,324.2c-1.8.6-3.6,1-5.3,1.7a10.59,10.59,0,0,1,2.4-1.8,5.39,5.39,0,0,1,3-.2Z"/>
      <path class="cls-4" d="M1166.3,326.4c-2.5,1.9-4.7,4.1-7.1,6.2a12.05,12.05,0,0,1,2.4-4.6,4.27,4.27,0,0,1,3.1-1.7A10.76,10.76,0,0,1,1166.3,326.4Z"/>
      <path class="cls-4" d="M1174.3,332.7l-3.6,2.9a5.4,5.4,0,0,0,2.4-.6,2.81,2.81,0,0,0,1-1.4C1174.2,333.1,1174.3,332.7,1174.3,332.7Z"/>
      <path class="cls-4" d="M1184.3,351.4a71.35,71.35,0,0,0-5.5,5.5,6.19,6.19,0,0,0,3.7-1.6,8.3,8.3,0,0,0,1.5-2.5C1184.2,352,1184.3,351.4,1184.3,351.4Z"/>
      <path class="cls-4" d="M1282.3,334c1.3.6,2.5,1.4,3.7,2.1a8.69,8.69,0,0,0-1.9-2.7C1283,332.6,1282.3,334,1282.3,334Z"/>
      <path class="cls-4" d="M1279.5,341.9a69.1,69.1,0,0,0-5.7-5.1s.2.5.5,1.1a9.35,9.35,0,0,0,1.6,2,9.46,9.46,0,0,0,2.3,1.4C1279,341.7,1279.5,341.9,1279.5,341.9Z"/>
      <path class="cls-1" d="M840.2,231.7c1,4,2.3,7.9,3.6,11.7.7,1.9,1.4,3.9,2.1,5.8.4,1,.8,1.9,1.1,2.8.2.5.4.9.6,1.4a9.14,9.14,0,0,0,.7,1.4l.7,1.4a14.8,14.8,0,0,0,.8,1.3c.5.9,1.1,1.7,1.7,2.6a58.48,58.48,0,0,0,3.8,4.9,105.83,105.83,0,0,0,8,8.4,46.78,46.78,0,0,0,2.4,7.2,79.64,79.64,0,0,0,5.1,10.1c.9,1.6,1.9,3.1,2.9,4.6l2.1,4.5a.88.88,0,0,0,1.3.4l.1-.1a1.42,1.42,0,0,0,.6.2l.4-.1h.1l.3.1a1,1,0,0,0,1.2-.7h0c1.5-6.7,3-13.4,4.5-20a96.66,96.66,0,0,0,9.6-10.6,58,58,0,0,0,7.7-12.9c.8-2,1.5-3.9,2.3-5.9.5-.3,2.3-1.6,5.7-5.6a34.1,34.1,0,0,0,5.5-8.8l-.2-.3-.3.2a32.27,32.27,0,0,1-5.4,8.7,33.4,33.4,0,0,1-5,5.1l.1-.3,2.5-7c1.7-4.7,3.3-9.4,4.9-14.1l-.1-.3-.3.1L906.2,242l-2.6,7c-.9,2.3-1.8,4.7-2.7,7a44.22,44.22,0,0,1-3.6,6.8c-.2-2.2-.6-7.9-.1-10.7a72.2,72.2,0,0,0,.8-7.2l-.2-.3-.3.2a72.2,72.2,0,0,1-.8,7.2c-.5,3.2,0,9.9.2,11.4-1.2,1.8-2.4,3.5-3.7,5.2a94.87,94.87,0,0,1-8.5,9.4c.1-.4.2-.8.3-1.3l1.2-5.8a55.83,55.83,0,0,0,.9-5.9,37.5,37.5,0,0,0,.2-5.8c1-1.9,2-3.7,3-5.6,1-1.7,2-3.5,3-5.2a39.35,39.35,0,0,0,2.6-5.5,12.09,12.09,0,0,0,.5-1.8,9.45,9.45,0,0,0,2.3-1.6,23.91,23.91,0,0,0,2.2-2.3,26.18,26.18,0,0,0,3.3-5.3c.5-.9.9-1.9,1.3-2.8a26.37,26.37,0,0,0,1-3,15.47,15.47,0,0,0,.6-3.1,8.08,8.08,0,0,0,.1-1.6,4.68,4.68,0,0,0-.2-1.6l-.3-.2-.2.3h0a6.15,6.15,0,0,1,.1,1.4,7.72,7.72,0,0,1-.2,1.5,24.6,24.6,0,0,1-.7,2.9,38.78,38.78,0,0,1-2.3,5.6,27.76,27.76,0,0,1-3.3,5.1,10.45,10.45,0,0,1-2.1,2.1l-1.2.9-.3.2a15.64,15.64,0,0,0,.2-3c0-2,0-4,.1-6,.2-8,.4-16.1.7-24.1a.5.5,0,0,0-1,0c-.3,8-.7,16.1-.9,24.1-.1,2-.1,4-.1,6a13.68,13.68,0,0,1-.2,2.9,14.73,14.73,0,0,1-.8,2.8,37.13,37.13,0,0,1-2.6,5.3c-1,1.7-2,3.5-3,5.2-.7,1.2-1.4,2.5-2.1,3.7l-.6-3.6c-.2-1-.5-2-.7-2.9a26.43,26.43,0,0,0,2-3.7,31.6,31.6,0,0,0,1.6-4.3c.4-1.5.8-2.9,1.1-4.4s.5-3,.7-4.5c.4-3,.7-6,1-9l.3-4.5.1-2.2.1-1.1v-1l-.1-.1h-.2l-.1.1v1l-.1,1.1-.2,2.2c-.2,1.5-.3,3-.5,4.5-.4,3-.7,6-1.2,8.9a61.19,61.19,0,0,1-2,8.7c-.5,1.4-1,2.8-1.6,4.2-.4.9-.9,1.9-1.4,2.8-.1-.5-.3-1-.4-1.5a37.83,37.83,0,0,1-1-5.7,28.1,28.1,0,0,1-.1-2.9l-.1-2.9-.1-2.9,2.1-10.2-.2-.2-.2.1-1.8,7.8v-.5l-.3-8.2a14.47,14.47,0,0,0,3.9-6.8,64.82,64.82,0,0,0,2-10.1c0-.2-.1-.4-.3-.4s-.4.1-.4.3a81.7,81.7,0,0,1-2,10,14.3,14.3,0,0,1-3.3,6l-.5-14.3a.5.5,0,1,0-1,0l.8,23.5.1,4.9c-.9,4-1.7,7.9-2.5,11.9,0,.2-.1.4-.1.6-.3-1.3-.6-2.6-.8-4a27,27,0,0,1-.4-2.8,26.2,26.2,0,0,1-.1-2.8c.1-3.9.2-7.7.2-11.6l-.2-.2-.2.2c-.2,3.9-.3,7.7-.5,11.6a14,14,0,0,0,0,2.9,28.86,28.86,0,0,0,.4,2.9,48.78,48.78,0,0,0,1.2,5.5c-.3,1.3-.5,2.5-.7,3.8-.2,1-.3,2.1-.5,3l-.3,1.5a8.33,8.33,0,0,1-.4,1.5,27.76,27.76,0,0,1-2.1,5.7,13.5,13.5,0,0,1-1.5,2.6,7.1,7.1,0,0,1-1,1.4,78.72,78.72,0,0,1-.4-8.4,50.6,50.6,0,0,1,1.5-12.9c.5-2.1,1.2-4.2,1.8-6.4a25.27,25.27,0,0,0,1-6.7c0-2.3-.1-4.5-.2-6.7s-.3-4.4-.4-6.6c0-.6-.1-1.1-.1-1.7a37.4,37.4,0,0,0,2.6-9.6c.5-5,.1-15.2.1-15.3a.4.4,0,1,0-.8,0c0,.1.4,10.2-.1,15.2a32.21,32.21,0,0,1-2,8c-.6-7.7-1.3-15.3-2-22.9,0-.3-.3-.5-.5-.4s-.5.3-.4.5c.8,8.4,1.5,16.8,2,25.2h0c0,.4.1.7.1,1.1.1,2.2.3,4.4.4,6.6s.2,4.4.1,6.6a26,26,0,0,1-1.1,6.2l-1.2-4.8-.4-1.7-.2-.8-.2-.8c-.2-1.1-.3-2.3-.5-3.4-.3-2.3-.5-4.6-.7-6.9l-.6-6.9-.2-.1-.1.2.3,6.9c.1,2.3.3,4.6.5,6.9.1,1.2.2,2.3.4,3.5.1.3.1.6.2.9l.2.8.4,1.7c.5,2.1,1,4.1,1.5,6.2-.5,1.6-1,3.2-1.4,4.9a49.52,49.52,0,0,0-1.7,13.3,117.25,117.25,0,0,0,.8,13.3,199.27,199.27,0,0,0,3.8,21.6c-.2-.2-.3-.4-.5-.6-1.2-2.6-2.3-5.1-3.3-7.8a84.35,84.35,0,0,1-3.9-12.7,49,49,0,0,1-1.1-6.5,28.18,28.18,0,0,1,.1-6.5c.1-.5.2-1.1.3-1.6l.3-1.7.6-3.3c.3-2.2.6-4.5.7-6.8s.1-4.5,0-6.8-.4-4.5-.6-6.7-.5-4.4-.6-6.7-.1-4.5-.1-6.7c.1-9,.5-17.9.8-26.9h0a.5.5,0,1,0-1,0c-.4,9-.8,17.9-1,26.9,0,2.2-.1,4.5,0,6.8s.3,4.5.5,6.8.4,4.5.6,6.7a48.47,48.47,0,0,1-.1,6.6,49.53,49.53,0,0,1-.8,6.6l-.6,3.3-.3,1.6c-.1.5-.2,1.1-.3,1.7a31.84,31.84,0,0,0-.1,6.9c.2,2.3.6,4.5,1,6.8a82.91,82.91,0,0,0,3.1,10.8q-1.35-2.55-2.4-5.1a48.92,48.92,0,0,1-3.2-10.5c-.6-3.7-1.1-7.3-1.5-11s-.6-7.4-.7-11.1c0-1.9-.1-3.7-.1-5.6v-5.6c.1-3.7.4-7.4.7-11.1s.7-7.4,1.1-11.1h0a.45.45,0,0,0-.9-.1q-.75,5.55-1.2,11.1c-.1,1.5-.3,2.9-.4,4.4a37.87,37.87,0,0,1-2.1-7.2c-.8-6.4,1-16.7,1-16.8a.41.41,0,1,0-.8-.2c-.1.4-1.8,10.5-1,17.1a37.06,37.06,0,0,0,2.8,9c-.1,1.6-.2,3.3-.3,4.9-.1,1.9-.1,3.7-.1,5.6v5.9a28.18,28.18,0,0,1-3.8-7.3,28.52,28.52,0,0,1-1.3-4.8c-.1-.8-.2-1.7-.3-2.5l-.3-2.5c-.9-6.7-1.9-13.5-2.9-20.2l-.3-.2-.2.3c.7,5.4,1.4,10.8,2.1,16.3-3.3-3.1-5.5-9.4-5.6-9.5l-.3-.2-.1.3c.1.3,2.5,7,6.1,10.1.1,1.1.3,2.1.4,3.2l.6,5.1a28,28,0,0,0,1.2,5,39.58,39.58,0,0,0,2.1,4.7,34.19,34.19,0,0,0,2.6,4c.1,3.1.2,6.1.5,9.2.3,3.7.8,7.4,1.3,11.1a11.8,11.8,0,0,0,.4,2,79.39,79.39,0,0,1-6.9-7.3c-1.3-1.5-2.6-3.1-3.8-4.8-.6-.8-1.2-1.7-1.7-2.5-.3-.4-.5-.9-.8-1.3l-.7-1.3a6.11,6.11,0,0,1-.7-1.4c-.2-.5-.4-.9-.6-1.4-.4-.9-.8-1.9-1.2-2.8-.2-.5-.4-1-.6-1.4.3-1.2,1.3-6.4,1.5-8.6.2-2.4.2-7.3.2-7.3l-.2-.2-.2.2s0,4.9-.2,7.3c-.1,1.8-1,5.9-1.3,7.8-.4-1.1-.9-2.3-1.3-3.4-1.4-3.8-2.6-7.7-3.7-11.6h0l-.3-.2Zm45.9,27c-.8,1.6-1.6,3.2-2.3,4.8a65.61,65.61,0,0,0-3.8,11.6,94.08,94.08,0,0,0-2.2,12c-.2,1.7-.4,3.4-.5,5.2-1.4-6.3-2.6-12.7-3.4-19.1-.1-1.1-.3-2.2-.4-3.3a19.52,19.52,0,0,0,1.7-2.3,18.21,18.21,0,0,0,1.5-2.7,41.88,41.88,0,0,0,2.2-5.9,43.43,43.43,0,0,0,1.1-6.1c.3-2,.7-4.1,1.1-6.1.6-3,1.2-6.1,1.8-9.1v1c0,1,0,2,.1,3a38.16,38.16,0,0,0,.9,5.9c.4,1.9,1,3.8,1.4,5.7A24.28,24.28,0,0,1,886.1,258.7ZM879,295.2c.1-2.6.3-5.3.6-8a93.78,93.78,0,0,1,2-11.8,58,58,0,0,1,3.6-11.4,21.4,21.4,0,0,1,1-2.2c0,.9-.1,1.8-.2,2.8a56.7,56.7,0,0,1-1,5.7l-1.3,5.7C882.1,282.5,880.5,288.9,879,295.2Z"/>
      <path class="cls-3" d="M862.9,192.7a11.7,11.7,0,0,0,7.2-6.1,12.44,12.44,0,0,0,1-3.1,11.57,11.57,0,0,1,7.9.9,11.22,11.22,0,0,1,5.7,14.8c-2.6,5.4-9.3,7.6-15.1,4.9A11.75,11.75,0,0,1,862.9,192.7Z"/>
      <path class="cls-3" d="M844.5,207.2a28.87,28.87,0,0,0-1.5-9.6,9.18,9.18,0,0,1,3.5-1.9c6.1-1.9,12.8,2.4,15,9.5s-1,14.4-7.1,16.3c-4.2,1.3-8.7-.3-11.8-3.7A30.26,30.26,0,0,0,844.5,207.2Z"/>
      <path class="cls-4" d="M887.3,203.5a9.87,9.87,0,0,1,11.2-2.4,9.78,9.78,0,0,0,3.2,7.6,8.39,8.39,0,0,0,2.8,1.8,9.58,9.58,0,0,1-2.6,6.3,9.88,9.88,0,0,1-14.6-13.3Z"/>
      <path class="cls-4" d="M837,235a7.4,7.4,0,1,0,7.4-7.4A7.38,7.38,0,0,0,837,235Z"/>
      <circle class="cls-3" cx="882" cy="227.7" r="7.7"/>
      <path class="cls-4" d="M896,247.5a6.9,6.9,0,1,0,6.9-6.9A6.91,6.91,0,0,0,896,247.5Z"/>
      <path class="cls-3" d="M919.4,229.2a10.63,10.63,0,0,0,1.1.9,10.7,10.7,0,0,1-1.4,1.6c-4.4,4.4-10.8,5.1-14.3,1.6s-2.9-9.9,1.5-14.3c3.9-4,9.6-5,13.2-2.5C916.4,220.8,916.2,226.2,919.4,229.2Z"/>
      <path class="cls-4" d="M847.5,193.4a1.35,1.35,0,0,0-.5,1.2,2.84,2.84,0,0,0,.4,1.2,2.31,2.31,0,0,0-1.2-1.4c.3.1.3,2.5,1.5,1.8C848.4,195.8,847.8,193.9,847.5,193.4Z"/>
      <path class="cls-4" d="M852.6,265.7c.1-.1,2.5-.5,2.1-1.2S852.9,265.3,852.6,265.7Z"/>
      <path class="cls-4" d="M839.3,228s.4,2.1,1.1,1.8S839.7,228.3,839.3,228Z"/>
      <path class="cls-4" d="M852.1,218.1a2.86,2.86,0,0,0-1.7.5,4.74,4.74,0,0,0-1,1c-.2.3-.6.7-.5,1a4,4,0,0,0,1.6-.8A12,12,0,0,0,852.1,218.1Z"/>
      <path class="cls-4" d="M860.5,247.4a4,4,0,0,1,.9-1.5,7.5,7.5,0,0,1,0,1.5c0,.2-.1,1.5-.7,1.5C860.3,248.7,860.5,247.6,860.5,247.4Z"/>
      <path class="cls-4" d="M849.1,218.2l.3.6a.64.64,0,0,1,0,.6c0,.2-.2,1-.7,1-.4-.3-.3-.9-.2-1.2A1.37,1.37,0,0,1,849.1,218.2Z"/>
      <path class="cls-4" d="M864.7,253.9a2.38,2.38,0,0,0-.9.9c-.1.2.1.5.3.7l.4.4a3.1,3.1,0,0,0,.2-1Z"/>
      <path class="cls-4" d="M867,259.9a2,2,0,0,0,1.2-1.2,10.11,10.11,0,0,0,.4-1.9,2.8,2.8,0,0,0-1.2,1.4A5.06,5.06,0,0,0,867,259.9Z"/>
      <path class="cls-4" d="M858,253.5a1.19,1.19,0,0,0,.2.6,1.27,1.27,0,0,0,.8.8,1.53,1.53,0,0,0,1.4-.5,1.8,1.8,0,0,0-.9-.7A5.84,5.84,0,0,0,858,253.5Z"/>
      <path class="cls-4" d="M847.1,228a1.36,1.36,0,0,0,1-.9,4.41,4.41,0,0,0,.3-1.4,8.78,8.78,0,0,0-.7.8,8.43,8.43,0,0,0-.7.8Z"/>
      <path class="cls-4" d="M840.7,232.7a1.74,1.74,0,0,0,.9-1.2,3.72,3.72,0,0,0,0-1.6,5.49,5.49,0,0,0-.9,1.4A2,2,0,0,0,840.7,232.7Z"/>
      <path class="cls-4" d="M840.1,233.1a1.75,1.75,0,0,0,.1-1,1.1,1.1,0,0,0-.7-.8,8.33,8.33,0,0,0,.1,1.2A.63.63,0,0,0,840.1,233.1Z"/>
      <path class="cls-4" d="M873.6,259.5a1.91,1.91,0,0,0-.3-1c-.4-.4-1,0-1,0l.6,1C873.1,260,873.6,259.5,873.6,259.5Z"/>
      <path class="cls-4" d="M846,197.2s.4-.3-.1-1.3a3.66,3.66,0,0,0-1.6-1.4,2.87,2.87,0,0,0,.7,1.9A5.84,5.84,0,0,0,846,197.2Z"/>
      <path class="cls-4" d="M836.9,233.7c.1,0,1.5,1.3,2,.4S837.2,233.4,836.9,233.7Z"/>
      <path class="cls-4" d="M865.6,265.6a1.68,1.68,0,0,0-1.2.9,4.76,4.76,0,0,0-.6,1.8,7.34,7.34,0,0,0,1.3-1.3A3.73,3.73,0,0,0,865.6,265.6Z"/>
      <path class="cls-4" d="M865,265.3a1.75,1.75,0,0,0-1-.1,1.38,1.38,0,0,0-.9.7h1.3A.8.8,0,0,0,865,265.3Z"/>
      <path class="cls-4" d="M869.3,246.2s-.1-.2-.6.3a3.85,3.85,0,0,0-.9,1.1,2.93,2.93,0,0,0,1-.6A3.37,3.37,0,0,1,869.3,246.2Z"/>
      <path class="cls-4" d="M875.8,255.4s-.2-.3-1,.2a3.55,3.55,0,0,0-1.2,1.4,2.54,2.54,0,0,0,1.5-.7A3.91,3.91,0,0,0,875.8,255.4Z"/>
      <path class="cls-4" d="M872.4,267.8s-.2-.5-1.4-.2a3.8,3.8,0,0,0-2,1.1,3.32,3.32,0,0,0,2.2-.1A3.16,3.16,0,0,0,872.4,267.8Z"/>
      <path class="cls-4" d="M847.7,212.2s.3.2,1.3,0a2.93,2.93,0,0,0,1.7-1,7.38,7.38,0,0,0-2.5.1c-.6.3-.7.6-.7.6l.6-.1Z"/>
      <path class="cls-4" d="M858.6,218.1a1.94,1.94,0,0,0,1.1-.4,2.56,2.56,0,0,0,.7-1.2,2.9,2.9,0,0,0-1.5.6A1.37,1.37,0,0,0,858.6,218.1Z"/>
      <path class="cls-4" d="M858.5,223.2a1.67,1.67,0,0,1-.3-.9c0-.6,1-1.1,1-1.1a6.21,6.21,0,0,1,.3,1,1.75,1.75,0,0,1-.5,1l-.2-.3Z"/>
      <path class="cls-4" d="M853.3,236a4.28,4.28,0,0,0,1-.3,3.88,3.88,0,0,0,.9-.8,3.63,3.63,0,0,0-1.1.3A5.4,5.4,0,0,0,853.3,236Z"/>
      <path class="cls-4" d="M853.6,233.8a5.34,5.34,0,0,0,1.3-.3c.3-.2.9-.7.9-.7a2,2,0,0,0-1.4.2A1.26,1.26,0,0,0,853.6,233.8Z"/>
      <path class="cls-4" d="M863.1,226.9a1.61,1.61,0,0,0,1.2.1,3.91,3.91,0,0,0,1-.4,4.17,4.17,0,0,1-1.1.2A2.81,2.81,0,0,0,863.1,226.9Z"/>
      <path class="cls-4" d="M856.2,249a2.35,2.35,0,0,0-1.3.5c-.3.2-.5.6-.8.8a7.89,7.89,0,0,0,1.4-2.3,1,1,0,0,0-.7.4,4.12,4.12,0,0,0-1,1.3,1.78,1.78,0,0,0-.4-1,3,3,0,0,0,.1,2.1l.2-.5c.1.2.1.5.4.5a1.77,1.77,0,0,0,.8-.5,2.34,2.34,0,0,0,.7-.7Z"/>
      <path class="cls-4" d="M858.2,243.5l-.6.5a2.65,2.65,0,0,0-.5.6c-.2.3-.7.9-.4,1.1s.7-.3,1-.9S858.1,243.7,858.2,243.5Z"/>
      <path class="cls-4" d="M856.1,241.7c.2-.3.4-.7.6-1a3.77,3.77,0,0,0-1.5.9,2.18,2.18,0,0,0-.5.8,1.85,1.85,0,0,0-.2.7A20,20,0,0,0,856.1,241.7Z"/>
      <path class="cls-4" d="M849.1,243.8a2.51,2.51,0,0,0,.4-.7l-.4.3-.3.4v.3l.2.1Z"/>
      <path class="cls-4" d="M850.7,239.7a1.48,1.48,0,0,0,.1-.7,1.79,1.79,0,0,0-.7.5c-.1.2-.2.5-.3.7l-.1.4C850.3,240.4,850.6,240.2,850.7,239.7Z"/>
      <path class="cls-4" d="M849,238.9c.2-.2.3-.4.5-.6-.2.1-.4.1-.6.2l-.4.3c-.1.1-.4.5-.1.5C848.5,239.4,848.8,239.1,849,238.9Z"/>
      <path class="cls-4" d="M852.1,246.2a.94.94,0,0,0,.9.1l.7-.3-.3-.2A2,2,0,0,0,852.1,246.2Z"/>
      <path class="cls-4" d="M864.2,230.6v-.2a1.55,1.55,0,0,0-.8.8l.5-.2Z"/>
      <path class="cls-4" d="M841.7,242.5l.2.4.4.4c.2.1.9.2.5-.1A4.13,4.13,0,0,0,841.7,242.5Z"/>
      <path class="cls-4" d="M843.4,256.5l-.1-.6-.2.4a1.27,1.27,0,0,0-.1.6v.4c0,.3.1,1,.4.5A2.85,2.85,0,0,0,843.4,256.5Z"/>
      <path class="cls-4" d="M851.7,226.7l.4-.3a1.27,1.27,0,0,0-.6.1c-.2.1-.4.1-.5.2l-.2.1-.3.3h.2A3,3,0,0,0,851.7,226.7Z"/>
      <path class="cls-4" d="M853.5,228.3c.2.1.5,0,.8,0a1.49,1.49,0,0,0,.7-.3l.4-.2a1.33,1.33,0,0,0,.5-.6l-.7.3-.5.2A2.73,2.73,0,0,0,853.5,228.3Z"/>
      <path class="cls-4" d="M848.5,209.9a2.46,2.46,0,0,0-.4-1.1,2.08,2.08,0,0,0-.6,2.1l.4-.5v.5C847.9,211,848.5,210.4,848.5,209.9Z"/>
      <path class="cls-4" d="M843.4,215.6a1.42,1.42,0,0,1,.6.2,1.06,1.06,0,0,1-.8.1.91.91,0,0,1-.7-.3Z"/>
      <path class="cls-4" d="M849.3,228.7l.2-.5.2-.6a4.05,4.05,0,0,0-.9.5,1.21,1.21,0,0,0-.5.5l-.2.4-.2.5.7-.3A1.28,1.28,0,0,0,849.3,228.7Z"/>
      <path class="cls-4" d="M843.2,221.9l-.3.1c-.1.1-.7.6-.4.7S843.1,222,843.2,221.9Z"/>
      <path class="cls-4" d="M870.2,193a1.67,1.67,0,0,0,.9,1.1,5.78,5.78,0,0,0,1.4.5,3.55,3.55,0,0,0-1-.2,1.34,1.34,0,0,0-.9.2c.3-.2,2.5,1.3,2.5,0,0-.4-.6-.8-1.2-1.1A5.78,5.78,0,0,0,870.2,193Z"/>
      <path class="cls-4" d="M887.8,237.2c.1,0,1.8,1.2,2,.7S888.3,237.1,887.8,237.2Z"/>
      <path class="cls-4" d="M880.8,205.8c.1,0,1.5,1.5,1.9,1S881.2,205.7,880.8,205.8Z"/>
      <path class="cls-4" d="M880.5,189.4a2,2,0,0,0-.4,1.6,8.8,8.8,0,0,0,.5,1.5c.2.4.4,1,.8,1.2a2.79,2.79,0,0,0,.1-1.8,5.93,5.93,0,0,0-.5-1.4A3.65,3.65,0,0,0,880.5,189.4Z"/>
      <path class="cls-4" d="M904.2,229.5a2.43,2.43,0,0,1,1.4-1,8.5,8.5,0,0,1-.6,1.9c-.1.3-.8,1.6-1.2,1S904.1,229.7,904.2,229.5Z"/>
      <path class="cls-4" d="M879,191.6l.8.3a3,3,0,0,1,.7.5c.2.2,1,1,.6,1.4-.5,0-1-.6-1.3-.9A3.53,3.53,0,0,1,879,191.6Z"/>
      <path class="cls-4" d="M902.7,240.3a1.65,1.65,0,0,0-1.1-.4c-.4.2-.5,1.5-.5,1.5a1.79,1.79,0,0,0,.8-.4A8.78,8.78,0,0,0,902.7,240.3Z"/>
      <path class="cls-4" d="M898.5,246.3s.5.9,1.3.9a6.34,6.34,0,0,0,1.7-.3,2.13,2.13,0,0,0-1.5-.9A2.41,2.41,0,0,0,898.5,246.3Z"/>
      <path class="cls-4" d="M899.1,233.4s-.7,1.1-.3,1.9a1.68,1.68,0,0,0,1.2.9v-.4a3.08,3.08,0,0,0-.1-.9A4.26,4.26,0,0,0,899.1,233.4Z"/>
      <path class="cls-4" d="M886.7,201.9s.5-.4.1-1.5a6.66,6.66,0,0,0-.6-1.2,3,3,0,0,0-.3-.4,6.61,6.61,0,0,0,.1,1.1,8.33,8.33,0,0,1,.1,1.2Z"/>
      <path class="cls-4" d="M884.3,209.1a1.47,1.47,0,0,0,.2-1.4,5.41,5.41,0,0,0-.8-1.4,7.88,7.88,0,0,0,0,1.6,2,2,0,0,0,.4.8A.43.43,0,0,0,884.3,209.1Z"/>
      <path class="cls-4" d="M884,209.6a1.39,1.39,0,0,0-.4-.9.94.94,0,0,0-1-.3l.6,1A.7.7,0,0,0,884,209.6Z"/>
      <path class="cls-4" d="M899.7,254a1.33,1.33,0,0,0,.9-.7,1.54,1.54,0,0,0-.1-1.3,6.22,6.22,0,0,0-.8,1A.81.81,0,0,0,899.7,254Z"/>
      <path class="cls-4" d="M870,196.8s-.1-.5-1.2-.6a3.12,3.12,0,0,0-2,.5l.2.1a1.69,1.69,0,0,1,.5.2,3,3,0,0,0,1.3.2A6.45,6.45,0,0,0,870,196.8Z"/>
      <path class="cls-4" d="M881.6,211.3c0-.1,1.7.5,1.7-.4S881.8,211,881.6,211.3Z"/>
      <path class="cls-4" d="M893.3,246.7a1.44,1.44,0,0,0-1.1-.8,4.26,4.26,0,0,0-1.7,0,6.43,6.43,0,0,0,1.4.8A5.88,5.88,0,0,0,893.3,246.7Z"/>
      <path class="cls-4" d="M893.3,246a1.57,1.57,0,0,0-.2-1c-.1-.3-.4-.4-.5-.5a.77.77,0,0,0-.3-.1.44.44,0,0,1,.1.3c.1.2.2.5.3.7C892.9,246.1,893.3,246,893.3,246Z"/>
      <path class="cls-4" d="M910.8,240.5s.1-.3-.5-.8a1.8,1.8,0,0,0-1.3-.4s.4.8.9,1A3.23,3.23,0,0,0,910.8,240.5Z"/>
      <path class="cls-4" d="M903.4,256.1s.3-.3-.2-1.4a2.33,2.33,0,0,0-1.3-1.3,3.2,3.2,0,0,0,.1.7,2.57,2.57,0,0,0,.5,1.2A3.23,3.23,0,0,0,903.4,256.1Z"/>
      <path class="cls-4" d="M892.1,253.7s.4-.2.2-1.4a2.33,2.33,0,0,0-.7-1.3,2.22,2.22,0,0,0-.5-.4,4.53,4.53,0,0,1-.1.8,2.08,2.08,0,0,0,.3,1.3A8.73,8.73,0,0,0,892.1,253.7Z"/>
      <path class="cls-4" d="M871.6,188.3s.3-.1.5-1.1a3,3,0,0,0-.5-2,4.77,4.77,0,0,0-.8,2.1,1.15,1.15,0,0,0,.5.9l.1-.6Z"/>
      <path class="cls-4" d="M868.4,190.9a1.29,1.29,0,0,0,0-1.2,4.18,4.18,0,0,0-.8-1.2l-.6-.6a1.76,1.76,0,0,0,.2,1.7A4.94,4.94,0,0,0,868.4,190.9Z"/>
      <path class="cls-4" d="M913.6,216.7a5.63,5.63,0,0,1-1.3-1,3.46,3.46,0,0,1-.8-1.9,12.74,12.74,0,0,1,1.5,1.1,3.46,3.46,0,0,1,.8,1.5l-.5-.2Z"/>
      <path class="cls-4" d="M896.9,209.9a1.43,1.43,0,0,0,.8-.4,7.81,7.81,0,0,0,.5-1.2,2.06,2.06,0,0,0-.9.5A5.09,5.09,0,0,0,896.9,209.9Z"/>
      <path class="cls-4" d="M896.1,206.8s.8-.2,1-.6a7.87,7.87,0,0,0,.4-1.2s-.9-.2-1.2.5A1.71,1.71,0,0,0,896.1,206.8Z"/>
      <path class="cls-4" d="M915.2,215.7s.8.3,1.2-.2a1.47,1.47,0,0,0,.2-1.2s-.2.7-.7.7A2.1,2.1,0,0,0,915.2,215.7Z"/>
      <path class="cls-4" d="M900,227.7a1.59,1.59,0,0,0-1.3-.3,2.93,2.93,0,0,1-1,.3,4.26,4.26,0,0,0,2-1.5c-.2-.2-.5-.1-.8,0a2.87,2.87,0,0,0-1.3.8,1.67,1.67,0,0,0-.1-1.2,3.94,3.94,0,0,0-.6,2.1l.4-.3c0,.2-.1.5.1.7s.6.1.8,0a2.92,2.92,0,0,0,.9-.2Z"/>
      <path class="cls-4" d="M903.2,222.2l-.7.3a2.65,2.65,0,0,0-.6.5c-.2.2-.8.8-.6,1.1C902,225,903,222.7,903.2,222.2Z"/>
      <path class="cls-4" d="M901.1,218.5a6.12,6.12,0,0,0,.5-1.2,2.35,2.35,0,0,0-1.4.7,2.47,2.47,0,0,0-.4.9c-.1.3-.1.6-.2.9C900.1,219.3,900.8,219.1,901.1,218.5Z"/>
      <path class="cls-4" d="M894.5,219.1a1.91,1.91,0,0,0,.3-.8l-.4.2-.3.4-.1.3.2.1Z"/>
      <path class="cls-4" d="M895.6,214.6a2.2,2.2,0,0,0-.1-.8c-.3.1-.4.3-.5.6a2.49,2.49,0,0,0-.1.8v.4A1,1,0,0,0,895.6,214.6Z"/>
      <path class="cls-4" d="M893.8,213.6c.1-.2.2-.5.3-.7l-.5.3-.3.3c-.1.1-.2.6,0,.6S893.7,213.8,893.8,213.6Z"/>
      <path class="cls-4" d="M897.1,222.5a.91.91,0,0,0,.8.4l.7-.1-.2-.3A1.93,1.93,0,0,0,897.1,222.5Z"/>
      <path class="cls-4" d="M914.3,214.7l-.2-.4a2.2,2.2,0,0,0,0,1.6l.3-.4C914.4,215.3,914.3,214.9,914.3,214.7Z"/>
      <path class="cls-4" d="M887.7,217.6l.2.4.4.3c.2.1.9.2.5-.1S888.2,217.6,887.7,217.6Z"/>
      <path class="cls-4" d="M886.7,228.7l.2-.4-.3.2-.3.3-.1.2c-.1.2-.4.6.1.4C886.5,229.3,886.6,229,886.7,228.7Z"/>
      <path class="cls-4" d="M919.2,215.4v-.6l-.4.4-.2.5-.1.3v.5l.1-.1A2.19,2.19,0,0,0,919.2,215.4Z"/>
      <path class="cls-4" d="M906.8,243.2a.85.85,0,0,0,.6-.3c.2-.2.2-.4.3-.7l.1-.4a1.23,1.23,0,0,0-.2-1l-.3.6-.3.4A5.9,5.9,0,0,0,906.8,243.2Z"/>
      <path class="cls-4" d="M869.2,186.3a3.53,3.53,0,0,0-1.4-.3,4.38,4.38,0,0,0,2.3,1.7l-.4-.6.4.2.2.2a5.2,5.2,0,0,0-.3-.5A1.78,1.78,0,0,0,869.2,186.3Z"/>
      <path class="cls-4" d="M868.7,200.4l.4-.3a.71.71,0,0,1-.3.6,2.09,2.09,0,0,1-.6.4A1.79,1.79,0,0,1,868.7,200.4Z"/>
      <path class="cls-4" d="M876.8,203.8l-.2-.5-.3-.6a2.92,2.92,0,0,0-.2.9v.6l.1.4.2.5.2-.6A1,1,0,0,0,876.8,203.8Z"/>
      <path class="cls-4" d="M879.1,198.5l-.1.3c0,.2.1.9.3.8S879.2,198.7,879.1,198.5Z"/>
      <path class="cls-1" d="M1236.5,161.9c1.3,4.8,2.7,9.5,4.3,14.2.8,2.3,1.7,4.7,2.6,7a34.54,34.54,0,0,0,1.4,3.4,13,13,0,0,0,.8,1.7c.3.6.5,1.1.8,1.7l.9,1.6a14,14,0,0,0,1,1.6,33.68,33.68,0,0,0,2.1,3.1c1.5,2,3,4,4.6,5.9a103.64,103.64,0,0,0,9.7,10.2,52.25,52.25,0,0,0,2.9,8.7,107.43,107.43,0,0,0,6.2,12.2c1.1,1.9,2.3,3.7,3.6,5.6.8,1.8,1.7,3.7,2.6,5.5a1.17,1.17,0,0,0,1.6.5l.2-.1a1.14,1.14,0,0,0,.8.3.75.75,0,0,0,.5-.1h.1l.4.2a1.09,1.09,0,0,0,1.4-.9h0q2.85-12.15,5.4-24.3a116.57,116.57,0,0,0,11.6-12.8,72.73,72.73,0,0,0,9.4-15.6q1.5-3.6,2.7-7.2c.7-.4,2.8-2,6.9-6.8,4.9-5.8,6.6-10.6,6.6-10.7l-.2-.4-.4.2a37.9,37.9,0,0,1-6.5,10.5,51.57,51.57,0,0,1-6,6.2l.1-.3,3.1-8.5,6-17.1-.2-.3-.3.2c-2,5.7-4.1,11.4-6.1,17.1l-3.1,8.5c-1.1,2.8-2.1,5.7-3.3,8.4a49.67,49.67,0,0,1-4.4,8.2c-.2-2.7-.7-9.6-.2-13a84.43,84.43,0,0,0,.9-8.8l-.3-.3-.3.3a83.79,83.79,0,0,1-.9,8.7c-.6,3.9,0,12,.2,13.9a71.67,71.67,0,0,1-4.5,6.3,111.55,111.55,0,0,1-10.3,11.4l.3-1.5,1.5-7a58.09,58.09,0,0,0,1.1-7.1,54.57,54.57,0,0,0,.2-7c1.2-2.3,2.4-4.5,3.7-6.8,1.2-2.1,2.5-4.2,3.6-6.4a58.62,58.62,0,0,0,3.2-6.7,18.66,18.66,0,0,0,.7-2.2,11.48,11.48,0,0,0,2.8-1.9,34.39,34.39,0,0,0,2.7-2.7,32.68,32.68,0,0,0,4-6.4c.6-1.1,1-2.3,1.5-3.4l1.2-3.6c.3-1.2.6-2.4.8-3.7a12.1,12.1,0,0,0,.1-1.9,7.14,7.14,0,0,0-.2-2l-.4-.2-.2.4h0a9.15,9.15,0,0,1,.1,1.7,11,11,0,0,1-.2,1.8c-.2,1.2-.5,2.4-.8,3.6a44.26,44.26,0,0,1-2.8,6.8,31.73,31.73,0,0,1-3.9,6.1,30.7,30.7,0,0,1-2.5,2.6,13.44,13.44,0,0,1-1.4,1.1l-.3.2a23,23,0,0,0,.2-3.7c0-2.4.1-4.9.1-7.3.2-9.7.5-19.5.9-29.2a.6.6,0,1,0-1.2,0c-.4,9.7-.8,19.5-1.1,29.2-.1,2.4-.1,4.9-.1,7.3a20,20,0,0,1-.2,3.5,21.36,21.36,0,0,1-.9,3.4,42.85,42.85,0,0,1-3.1,6.5c-1.2,2.1-2.5,4.2-3.7,6.3-.9,1.5-1.7,3-2.6,4.5a33.92,33.92,0,0,0-.8-4.4c-.3-1.2-.6-2.4-.9-3.5a27,27,0,0,0,2.4-4.4,46,46,0,0,0,1.9-5.2,52.92,52.92,0,0,0,1.3-5.4l.9-5.4c.5-3.6.9-7.2,1.2-10.9.2-1.8.3-3.6.4-5.5l.2-2.7.1-1.4v-1.2l-.1-.2h-.2l-.1.2v.5l-.1.7-.1,1.4-.3,2.7-.6,5.4q-.6,5.4-1.5,10.8a77.34,77.34,0,0,1-2.4,10.6,42.91,42.91,0,0,1-1.9,5,34.12,34.12,0,0,1-1.7,3.3,11.63,11.63,0,0,1-.4-1.8,41.56,41.56,0,0,1-1.2-6.9c-.1-1.2-.1-2.3-.2-3.5l-.1-3.6-.1-3.5,2.5-12.4-.2-.3-.3.2c-.7,3.2-1.4,6.3-2.1,9.5v-.6l-.4-10a18.22,18.22,0,0,0,4.8-8.3,102.47,102.47,0,0,0,2.5-12.2c0-.2-.1-.5-.4-.5s-.5.1-.5.4a92.65,92.65,0,0,1-2.4,12.1,17.26,17.26,0,0,1-4,7.3l-.7-17.3a.6.6,0,0,0-1.2,0l.9,28.5.2,5.9c-1,4.8-2.1,9.6-3.1,14.5,0,.2-.1.5-.1.7-.4-1.6-.7-3.2-1-4.8-.2-1.1-.4-2.3-.5-3.4s-.1-2.3-.1-3.5c.1-4.7.2-9.3.2-14l-.2-.2-.2.2c-.2,4.7-.4,9.3-.6,14a21.64,21.64,0,0,0,0,3.6c.1,1.2.3,2.4.5,3.5.4,2.3.9,4.5,1.5,6.7-.3,1.5-.6,3.1-.9,4.6-.2,1.2-.4,2.5-.6,3.7a11.63,11.63,0,0,1-.4,1.8c-.1.6-.3,1.2-.4,1.8a33.76,33.76,0,0,1-2.6,6.9,20.16,20.16,0,0,1-1.8,3.2c-.4.6-.8,1.2-1.2,1.7-.3-3.4-.5-6.8-.5-10.2a63.58,63.58,0,0,1,1.8-15.7c.6-2.6,1.5-5.1,2.2-7.7a36.06,36.06,0,0,0,1.3-8.1c.1-2.7-.1-5.4-.2-8.1s-.3-5.3-.5-8a14.92,14.92,0,0,0-.2-2.1,49,49,0,0,0,3.1-11.6c.6-6.1.1-18.4.1-18.5a.45.45,0,1,0-.9.1c0,.1.5,12.4-.1,18.4a45.82,45.82,0,0,1-2.4,9.7c-.7-9.3-1.5-18.6-2.4-27.8a.55.55,0,0,0-1.1.1c.9,10.2,1.8,20.4,2.5,30.6h0c0,.4.1.9.1,1.3.2,2.7.3,5.3.5,8s.2,5.3.2,8a32.78,32.78,0,0,1-1.3,7.5c-.5-1.9-.9-3.9-1.4-5.8l-.5-2-.3-1-.2-1c-.2-1.4-.4-2.8-.6-4.1-.3-2.8-.6-5.6-.8-8.4l-.7-8.4-.2-.2-.2.2c.1,2.8.2,5.6.4,8.4s.3,5.6.6,8.4c.1,1.4.3,2.8.5,4.2.1.4.1.7.2,1.1l.2,1,.5,2c.6,2.5,1.2,5,1.9,7.5-.6,2-1.2,3.9-1.8,5.9a62.41,62.41,0,0,0-2.1,16.1,143.47,143.47,0,0,0,1,16.1,229.83,229.83,0,0,0,4.6,26.1,3.51,3.51,0,0,1-.5-.8c-1.4-3.1-2.7-6.2-3.9-9.4a119.31,119.31,0,0,1-4.8-15.4,72.23,72.23,0,0,1-1.3-7.9,34.72,34.72,0,0,1,.1-7.9c.1-.7.2-1.3.3-1.9l.4-2c.3-1.3.5-2.7.7-4.1.4-2.7.7-5.4.9-8.2s.1-5.5,0-8.3-.5-5.5-.8-8.2-.6-5.4-.7-8.1-.1-5.4-.1-8.1c.1-10.9.6-21.7,1-32.6h0a.6.6,0,0,0-1.2,0c-.5,10.9-1,21.7-1.2,32.6,0,2.7-.1,5.5,0,8.2s.3,5.5.6,8.2.5,5.4.7,8.1a73,73,0,0,1-.1,8.1,69.93,69.93,0,0,1-1,8c-.2,1.3-.5,2.7-.8,4l-.4,2c-.1.7-.3,1.4-.4,2.1a39.35,39.35,0,0,0-.2,8.4,73.59,73.59,0,0,0,1.2,8.2,121.6,121.6,0,0,0,3.7,13.1c-1.1-2-2.1-4.1-3-6.2a56.3,56.3,0,0,1-3.8-12.7c-.7-4.4-1.3-8.9-1.8-13.4s-.7-8.9-.8-13.4c0-2.2-.1-4.5-.1-6.8v-6.7c.1-4.5.5-9,.8-13.5s.8-9,1.4-13.4h0a.75.75,0,0,0-.5-.7c-.3-.1-.6.2-.7.5-.6,4.5-1,9-1.5,13.5-.2,1.8-.3,3.5-.4,5.3a38.32,38.32,0,0,1-2.5-8.7c-.9-7.8,1.2-20.3,1.2-20.4a.51.51,0,1,0-1-.2c-.1.5-2.2,12.8-1.2,20.7.5,4.1,2.7,9.4,3.3,10.9-.1,2-.3,4-.3,6-.1,2.3-.1,4.5-.1,6.8v7.2a36.92,36.92,0,0,1-4.6-8.8,30,30,0,0,1-1.5-5.9c-.2-1-.3-2-.4-3l-.4-3.1c-1.1-8.2-2.3-16.3-3.5-24.5,0-.2-.2-.3-.4-.3l-.3.4c.9,6.6,1.8,13.1,2.6,19.7-4-3.8-6.7-11.4-6.7-11.5l-.4-.2-.2.4c.1.4,3,8.5,7.4,12.2.2,1.3.3,2.6.5,3.9l.7,6.2a32,32,0,0,0,1.5,6.1,36.82,36.82,0,0,0,2.6,5.7,30.83,30.83,0,0,0,3.2,4.8q.15,5.55.6,11.1c.4,4.5,1,9,1.6,13.5.1.8.3,1.6.4,2.5a99.46,99.46,0,0,1-8.4-8.8c-1.6-1.9-3.1-3.8-4.6-5.8-.7-1-1.4-2-2.1-3.1-.3-.5-.7-1-1-1.6l-.9-1.6a11.94,11.94,0,0,1-.8-1.6c-.3-.6-.5-1.1-.8-1.7-.5-1.1-1-2.3-1.4-3.4-.2-.6-.5-1.2-.7-1.8.3-1.5,1.6-7.8,1.8-10.4.2-2.9.3-8.8.3-8.9l-.3-.3-.3.3c0,.1,0,6-.3,8.9-.2,2.2-1.2,7.1-1.6,9.4l-1.5-4.2c-1.6-4.7-3.2-9.4-4.5-14.1h0l-.4-.2Zm55.6,32.8c-1,1.9-1.9,3.9-2.8,5.8a79.07,79.07,0,0,0-4.6,14,119,119,0,0,0-2.6,14.5c-.3,2.1-.5,4.2-.7,6.3-1.7-7.7-3.2-15.4-4.2-23.2-.2-1.3-.3-2.7-.5-4,.8-.9,1.4-1.8,2.1-2.7.7-1.1,1.3-2.2,1.9-3.3a37.91,37.91,0,0,0,2.6-7.1,64.19,64.19,0,0,0,1.4-7.4c.4-2.5.9-4.9,1.3-7.4.7-3.7,1.4-7.4,2.2-11.1v1.2c0,1.2,0,2.4.1,3.6a59.68,59.68,0,0,0,1.1,7.2c.5,2.3,1.2,4.6,1.7,6.9A31,31,0,0,1,1292.1,194.7Zm-8.6,44.3c.1-3.2.4-6.4.7-9.6a115.33,115.33,0,0,1,2.4-14.3,84.75,84.75,0,0,1,4.3-13.8l1.2-2.7a18.41,18.41,0,0,1-.3,3.3q-.45,3.45-1.2,6.9l-1.6,7C1287.2,223.5,1285.4,231.3,1283.5,239Z"/>
      <path class="cls-3" d="M1264,114.7a14.14,14.14,0,0,0,8.7-7.4,12.94,12.94,0,0,0,1.2-3.8,15,15,0,0,1,9.5,1c7,3.3,10.1,11.3,7,17.9s-11.3,9.2-18.3,5.9A13.9,13.9,0,0,1,1264,114.7Z"/>
      <path class="cls-3" d="M1241.7,132.2a36.34,36.34,0,0,0-1.8-11.7,11.18,11.18,0,0,1,4.3-2.3c7.4-2.3,15.6,2.9,18.2,11.5s-1.2,17.5-8.6,19.8c-5.1,1.6-10.5-.4-14.3-4.5A36.52,36.52,0,0,0,1241.7,132.2Z"/>
      <path class="cls-4" d="M1293.6,127.8a11.75,11.75,0,0,1,13.5-2.9,11.77,11.77,0,0,0,3.9,9.2,15.23,15.23,0,0,0,3.4,2.2,12.14,12.14,0,0,1-3.1,7.7,12,12,0,0,1-17.7-16.2Z"/>
      <path class="cls-4" d="M1232.6,166a9,9,0,1,0,9-9A9,9,0,0,0,1232.6,166Z"/>
      <path class="cls-3" d="M1277.8,157.1a9.35,9.35,0,1,0,9.4-9.4A9.39,9.39,0,0,0,1277.8,157.1Z"/>
      <path class="cls-4" d="M1304.1,181.1a8.4,8.4,0,1,0,8.4-8.4A8.45,8.45,0,0,0,1304.1,181.1Z"/>
      <path class="cls-3" d="M1332.5,159a6.42,6.42,0,0,0,1.3,1,16.32,16.32,0,0,1-1.7,2c-5.3,5.3-13.1,6.2-17.4,2s-3.5-12,1.8-17.4c4.8-4.8,11.6-6,16.1-3C1328.8,148.8,1328.7,155.2,1332.5,159Z"/>
      <path class="cls-4" d="M1245.3,115.5a1.41,1.41,0,0,0-.6,1.4,4.19,4.19,0,0,0,.4,1.5,3,3,0,0,0-1.4-1.7c.4.2.4,3,1.8,2.2C1246.4,118.4,1245.6,116.1,1245.3,115.5Z"/>
      <path class="cls-4" d="M1251.6,203.2c.1-.1,3.1-.6,2.6-1.5C1253.7,201,1251.8,202.7,1251.6,203.2Z"/>
      <path class="cls-4" d="M1235.4,157.5c.1,0,.5,2.6,1.3,2.2S1235.9,157.8,1235.4,157.5Z"/>
      <path class="cls-4" d="M1250.9,145.5a3.48,3.48,0,0,0-2.1.6,4.56,4.56,0,0,0-1.2,1.2c-.2.4-.7.9-.6,1.2a5.28,5.28,0,0,0,2-.9C1249.2,147.4,1251,145.5,1250.9,145.5Z"/>
      <path class="cls-4" d="M1261.1,181a6.22,6.22,0,0,1,1.1-1.9,10.8,10.8,0,0,1,0,1.8c0,.2-.2,1.8-.8,1.8S1261,181.3,1261.1,181Z"/>
      <path class="cls-4" d="M1247.2,145.6l.3.7a.85.85,0,0,1,0,.7c0,.3-.2,1.2-.9,1.2-.5-.4-.3-1.1-.2-1.4A6.21,6.21,0,0,1,1247.2,145.6Z"/>
      <path class="cls-4" d="M1266.2,188.9a2.69,2.69,0,0,0-1,1.1c-.1.3.1.6.4.9a2.22,2.22,0,0,0,.5.4,4.36,4.36,0,0,0,.2-1.2A8.33,8.33,0,0,1,1266.2,188.9Z"/>
      <path class="cls-4" d="M1269,196.2a2.73,2.73,0,0,0,1.5-1.5,10.18,10.18,0,0,0,.5-2.3,3.52,3.52,0,0,0-1.5,1.7A6,6,0,0,0,1269,196.2Z"/>
      <path class="cls-4" d="M1258.1,188.5a2,2,0,0,0,.2.8,1.59,1.59,0,0,0,.9.9,2.1,2.1,0,0,0,1.7-.6,2.18,2.18,0,0,0-1.1-.8A4.83,4.83,0,0,0,1258.1,188.5Z"/>
      <path class="cls-4" d="M1244.9,157.5a1.87,1.87,0,0,0,1.3-1.1,5.06,5.06,0,0,0,.4-1.7,6.58,6.58,0,0,1-.9.9c-.4.5-.9,1-.9,1Z"/>
      <path class="cls-4" d="M1237,163.2a2.07,2.07,0,0,0,1.1-1.4,5.31,5.31,0,0,0,0-1.9,8.48,8.48,0,0,0-1.2,1.7A3.21,3.21,0,0,0,1237,163.2Z"/>
      <path class="cls-4" d="M1236.3,163.6a1.81,1.81,0,0,0,.1-1.3,1.4,1.4,0,0,0-.9-.9,13.58,13.58,0,0,0,.1,1.5A.74.74,0,0,0,1236.3,163.6Z"/>
      <path class="cls-4" d="M1277,195.7a2.16,2.16,0,0,0-.4-1.2c-.5-.5-1.2,0-1.2,0a12.66,12.66,0,0,0,.7,1.2C1276.4,196.2,1277,195.7,1277,195.7Z"/>
      <path class="cls-4" d="M1243.5,120.1s.5-.3-.2-1.5a4.4,4.4,0,0,0-2-1.7,3.73,3.73,0,0,0,.8,2.3A10.24,10.24,0,0,0,1243.5,120.1Z"/>
      <path class="cls-4" d="M1232.4,164.3c.1,0,1.8,1.6,2.4.5S1232.8,164,1232.4,164.3Z"/>
      <path class="cls-4" d="M1267.3,203.1a2.68,2.68,0,0,0-1.5,1.1,5.56,5.56,0,0,0-.7,2.1,8.75,8.75,0,0,0,1.6-1.5A4.06,4.06,0,0,0,1267.3,203.1Z"/>
      <path class="cls-4" d="M1266.5,202.7a1.81,1.81,0,0,0-1.3-.1,1.47,1.47,0,0,0-1.1.9,12.42,12.42,0,0,0,1.5-.1A1,1,0,0,0,1266.5,202.7Z"/>
      <path class="cls-4" d="M1271.8,179.5s-.1-.2-.7.3a4,4,0,0,0-1.1,1.3,2.71,2.71,0,0,0,1.2-.8C1271.6,179.8,1271.8,179.5,1271.8,179.5Z"/>
      <path class="cls-4" d="M1279.7,190.7s-.2-.4-1.2.3a4.29,4.29,0,0,0-1.5,1.7,3,3,0,0,0,1.8-.8A9.87,9.87,0,0,0,1279.7,190.7Z"/>
      <path class="cls-4" d="M1275.6,205.7s-.2-.6-1.7-.3a5.1,5.1,0,0,0-2.4,1.4,3.8,3.8,0,0,0,2.6-.1A6.19,6.19,0,0,0,1275.6,205.7Z"/>
      <path class="cls-4" d="M1245.5,138.3s.3.2,1.6,0a3.65,3.65,0,0,0,2.1-1.2,7.79,7.79,0,0,0-3,.1c-.8.4-.8.8-.8.8l.8-.1Z"/>
      <path class="cls-4" d="M1258.8,145.5a2.23,2.23,0,0,0,1.3-.5,3.63,3.63,0,0,0,.9-1.5,3,3,0,0,0-1.8.8A1.68,1.68,0,0,0,1258.8,145.5Z"/>
      <path class="cls-4" d="M1258.7,151.7a1.63,1.63,0,0,1-.4-1.1c0-.7,1.2-1.3,1.2-1.3a6.3,6.3,0,0,1,.3,1.3,2.09,2.09,0,0,1-.6,1.2l-.2-.3Z"/>
      <path class="cls-4" d="M1252.4,167.2a3.14,3.14,0,0,0,1.2-.4,14.67,14.67,0,0,0,1.1-1,4.32,4.32,0,0,0-1.4.4A5.1,5.1,0,0,0,1252.4,167.2Z"/>
      <path class="cls-4" d="M1252.7,164.6a4.12,4.12,0,0,0,1.5-.4c.4-.3,1.1-.9,1.1-.9a2.19,2.19,0,0,0-1.7.2A1.82,1.82,0,0,0,1252.7,164.6Z"/>
      <path class="cls-4" d="M1264.3,156.1a2.41,2.41,0,0,0,1.5.1,2.58,2.58,0,0,0,1.2-.5,2.75,2.75,0,0,1-1.3.2A7.1,7.1,0,0,0,1264.3,156.1Z"/>
      <path class="cls-4" d="M1255.8,183a2.66,2.66,0,0,0-1.6.6,4.3,4.3,0,0,1-1,.9,6.83,6.83,0,0,0,1.7-2.8c-.3,0-.6.3-.9.5a4.49,4.49,0,0,0-1.2,1.6,1.66,1.66,0,0,0-.5-1.2,3.85,3.85,0,0,0,.1,2.6l.3-.6c.1.2.2.6.5.6s.7-.4,1-.6.6-.5.9-.8Z"/>
      <path class="cls-4" d="M1258.3,176.3l-.8.6a2.7,2.7,0,0,0-.7.8c-.2.3-.9,1.2-.5,1.3s.9-.4,1.2-1C1257.9,177.2,1258.2,176.5,1258.3,176.3Z"/>
      <path class="cls-4" d="M1255.7,174.1c.3-.4.5-.8.8-1.2a5.93,5.93,0,0,0-1.9,1.1,2.07,2.07,0,0,0-.6,1,2.92,2.92,0,0,0-.2.9C1254.4,175.2,1255.2,174.8,1255.7,174.1Z"/>
      <path class="cls-4" d="M1247.2,176.6c.2-.3.3-.6.5-.9a2.19,2.19,0,0,0-.5.3,1,1,0,0,0-.4.5l-.1.3c0,.2,0,.3.2.1Z"/>
      <path class="cls-4" d="M1249.2,171.7a2.2,2.2,0,0,0,.1-.8,1.7,1.7,0,0,0-.8.6,3.18,3.18,0,0,0-.3.9l-.1.4A1.53,1.53,0,0,0,1249.2,171.7Z"/>
      <path class="cls-4" d="M1247.1,170.7c.2-.2.4-.5.6-.7-.3.1-.5.2-.8.3l-.5.3c-.1.1-.5.6-.2.7S1246.9,170.9,1247.1,170.7Z"/>
      <path class="cls-4" d="M1250.9,179.6a1.38,1.38,0,0,0,1.1.1c.2-.1.7-.2.8-.4l-.3-.2A2.35,2.35,0,0,0,1250.9,179.6Z"/>
      <path class="cls-4" d="M1265.6,160.6v-.2a2.25,2.25,0,0,0-1,.9l.6-.3C1265.4,160.9,1265.5,160.7,1265.6,160.6Z"/>
      <path class="cls-4" d="M1238.3,175.1a.55.55,0,0,0,.3.5c.1.2.3.3.5.5s1.1.3.6-.1S1238.8,175.1,1238.3,175.1Z"/>
      <path class="cls-4" d="M1240.4,192.1l-.1-.7-.3.4a1.85,1.85,0,0,0-.2.7v.4c0,.3.1,1.2.4.6A1.7,1.7,0,0,0,1240.4,192.1Z"/>
      <path class="cls-4" d="M1250.4,155.9a2.18,2.18,0,0,0,.5-.4,1.7,1.7,0,0,0-.7.1l-.6.3-.3.2-.3.4h.3C1249.7,156.2,1250.1,156.1,1250.4,155.9Z"/>
      <path class="cls-4" d="M1252.7,157.9a1.7,1.7,0,0,0,1,0,3.55,3.55,0,0,0,.9-.4l.5-.3a1.87,1.87,0,0,0,.6-.7l-.9.3-.7.2A2.84,2.84,0,0,0,1252.7,157.9Z"/>
      <path class="cls-4" d="M1246.5,135.5a3.26,3.26,0,0,0-.4-1.3,2.73,2.73,0,0,0-.7,2.6l.5-.5v.6C1245.8,136.9,1246.6,136.1,1246.5,135.5Z"/>
      <path class="cls-4" d="M1240.3,142.4a1.45,1.45,0,0,1,.7.2,1,1,0,0,1-.9.1l-.9-.3Z"/>
      <path class="cls-4" d="M1247.5,158.3l.3-.6.3-.7a3.38,3.38,0,0,0-1.1.7l-.6.6-.2.5-.2.6c.1-.2.6-.3.8-.4A2.34,2.34,0,0,0,1247.5,158.3Z"/>
      <path class="cls-4" d="M1240.1,150l-.3.1c-.2.1-.8.8-.5.8C1239.8,151.1,1240,150.2,1240.1,150Z"/>
      <path class="cls-4" d="M1272.8,115a2.37,2.37,0,0,0,1.1,1.3,8.51,8.51,0,0,0,1.7.6,5,5,0,0,0-1.2-.2,3.59,3.59,0,0,0-1.1.2c.3-.2,3.1,1.6,3,0,0-.5-.7-1-1.5-1.4Z"/>
      <path class="cls-4" d="M1294.3,168.6c.1,0,2.1,1.4,2.5.8C1297,168.8,1294.8,168.6,1294.3,168.6Z"/>
      <path class="cls-4" d="M1285.7,130.5c.1,0,1.8,1.8,2.2,1.2S1286.2,130.5,1285.7,130.5Z"/>
      <path class="cls-4" d="M1285.3,110.7a2.88,2.88,0,0,0-.5,2,4.78,4.78,0,0,0,.6,1.8,3.77,3.77,0,0,0,.9,1.5c.4-.6.2-1.5.2-2.2a8.8,8.8,0,0,0-.6-1.7C1285.7,111.3,1285.4,110.6,1285.3,110.7Z"/>
      <path class="cls-4" d="M1314.1,159.3a3.71,3.71,0,0,1,1.7-1.3,15.46,15.46,0,0,1-.7,2.3c-.1.3-1,1.9-1.5,1.2S1313.9,159.6,1314.1,159.3Z"/>
      <path class="cls-4" d="M1283.5,113.3l1,.4a5.55,5.55,0,0,1,.8.6c.2.3,1.2,1.2.8,1.7-.7,0-1.3-.7-1.6-1.1A2.94,2.94,0,0,1,1283.5,113.3Z"/>
      <path class="cls-4" d="M1312.3,172.4s-.8-.6-1.3-.5-.7,1.9-.7,1.9a2.07,2.07,0,0,0,1-.5C1311.8,172.9,1312.3,172.4,1312.3,172.4Z"/>
      <path class="cls-4" d="M1307.2,179.6a2.12,2.12,0,0,0,1.6,1.1,7.22,7.22,0,0,0,2.1-.4,2.48,2.48,0,0,0-1.8-1.1A4.11,4.11,0,0,0,1307.2,179.6Z"/>
      <path class="cls-4" d="M1307.9,164a2.75,2.75,0,0,0-.3,2.3,1.89,1.89,0,0,0,1.5,1.1,1.75,1.75,0,0,1,.1-.5,1.54,1.54,0,0,0-.2-1.1A6.25,6.25,0,0,0,1307.9,164Z"/>
      <path class="cls-4" d="M1292.8,125.8s.6-.5.1-1.8a10.74,10.74,0,0,0-.7-1.5,3.61,3.61,0,0,0-.4-.5,11.35,11.35,0,0,1,.1,1.4,8.81,8.81,0,0,0,.2,1.5Z"/>
      <path class="cls-4" d="M1289.9,134.6a1.89,1.89,0,0,0,.3-1.7,5.79,5.79,0,0,0-1-1.7,6.25,6.25,0,0,0,0,2,10.37,10.37,0,0,0,.4,1A1.73,1.73,0,0,1,1289.9,134.6Z"/>
      <path class="cls-4" d="M1289.5,135.2a1.94,1.94,0,0,0-.4-1.1,1.2,1.2,0,0,0-1.2-.4l.8,1.2A.65.65,0,0,0,1289.5,135.2Z"/>
      <path class="cls-4" d="M1308.6,189a1.64,1.64,0,0,0,1.1-.8,1.84,1.84,0,0,0-.1-1.6,9.35,9.35,0,0,0-1,1.2A1,1,0,0,0,1308.6,189Z"/>
      <path class="cls-4" d="M1272.6,119.7s-.1-.6-1.5-.7a4,4,0,0,0-2.4.6l.2.1c.2.1.4.1.6.2a3,3,0,0,0,1.6.2A3.89,3.89,0,0,0,1272.6,119.7Z"/>
      <path class="cls-4" d="M1286.7,137.3c0-.1,2.1.6,2.1-.5S1286.9,136.9,1286.7,137.3Z"/>
      <path class="cls-4" d="M1300.8,180.1a2.08,2.08,0,0,0-1.4-1,5.78,5.78,0,0,0-2,0,12.37,12.37,0,0,0,1.7,1A4.26,4.26,0,0,0,1300.8,180.1Z"/>
      <path class="cls-4" d="M1300.9,179.3a2.21,2.21,0,0,0-.2-1.2,1.34,1.34,0,0,0-.7-.6,1,1,0,0,0-.4-.1l.2.4a9.44,9.44,0,0,1,.3.9C1300.4,179.4,1300.9,179.3,1300.9,179.3Z"/>
      <path class="cls-4" d="M1322,172.7s.1-.4-.6-1a2.09,2.09,0,0,0-1.5-.5s.5,1,1.1,1.2S1322,172.7,1322,172.7Z"/>
      <path class="cls-4" d="M1313.1,191.6s.4-.4-.2-1.6a3,3,0,0,0-1.5-1.6,5.1,5.1,0,0,0,.1.9,3,3,0,0,0,.6,1.4A4.44,4.44,0,0,0,1313.1,191.6Z"/>
      <path class="cls-4" d="M1299.5,188.7s.5-.3.2-1.7a4.77,4.77,0,0,0-.8-1.6,1.41,1.41,0,0,0-.6-.5,4.13,4.13,0,0,0-.1.9,3,3,0,0,0,.3,1.6A8,8,0,0,0,1299.5,188.7Z"/>
      <path class="cls-4" d="M1274.6,109.4s.4-.2.6-1.3a3.84,3.84,0,0,0-.6-2.4,6,6,0,0,0-1,2.5c.1.9.6,1.1.6,1.1l.1-.7Z"/>
      <path class="cls-4" d="M1270.7,112.5a1.37,1.37,0,0,0,0-1.4,6.71,6.71,0,0,0-.9-1.4l-.7-.7a2.23,2.23,0,0,0,.2,2.1A4.94,4.94,0,0,0,1270.7,112.5Z"/>
      <path class="cls-4" d="M1325.5,143.8a4.53,4.53,0,0,1-1.6-1.2,4.14,4.14,0,0,1-.9-2.3,17.61,17.61,0,0,1,1.8,1.3,3.63,3.63,0,0,1,1,1.9l-.5-.3Z"/>
      <path class="cls-4" d="M1305.3,135.5a1.75,1.75,0,0,0,1-.5,6.19,6.19,0,0,0,.6-1.4,2.38,2.38,0,0,0-1.1.6A2.65,2.65,0,0,0,1305.3,135.5Z"/>
      <path class="cls-4" d="M1304.2,131.8s1-.3,1.2-.7a13,13,0,0,0,.5-1.4s-1.1-.2-1.5.6A2.24,2.24,0,0,0,1304.2,131.8Z"/>
      <path class="cls-4" d="M1327.4,142.6s1,.4,1.4-.3a1.74,1.74,0,0,0,.3-1.4s-.3.8-.8.9S1327.4,142.6,1327.4,142.6Z"/>
      <path class="cls-4" d="M1308.9,157.1a1.77,1.77,0,0,0-1.6-.3c-.4.1-.8.3-1.2.4a6.09,6.09,0,0,0,2.4-1.8,1,1,0,0,0-.9,0,2.26,2.26,0,0,0-1.5,1,2.2,2.2,0,0,0-.1-1.4,6.07,6.07,0,0,0-.8,2.6,1.76,1.76,0,0,0,.5-.4c0,.3-.1.7.1.9s.7.1,1,0a2.28,2.28,0,0,0,1.1-.3Z"/>
      <path class="cls-4" d="M1312.9,150.5l-.8.3a4.35,4.35,0,0,0-.7.6c-.3.3-1,.9-.7,1.4C1311.4,153.9,1312.7,151,1312.9,150.5Z"/>
      <path class="cls-4" d="M1310.4,145.9a6.11,6.11,0,0,0,.7-1.4,4.17,4.17,0,0,0-1.8.8,2.22,2.22,0,0,0-.5,1.1,3.59,3.59,0,0,0-.2,1.1C1309.1,146.9,1309.9,146.7,1310.4,145.9Z"/>
      <path class="cls-4" d="M1302.4,146.6a3.55,3.55,0,0,0,.4-.9l-.5.3a.85.85,0,0,0-.3.5l-.1.3c0,.2,0,.3.2.2Z"/>
      <path class="cls-4" d="M1303.7,141.2a3.4,3.4,0,0,0-.1-1,1.06,1.06,0,0,0-.6.7,3.4,3.4,0,0,0-.1,1v.5A1.21,1.21,0,0,0,1303.7,141.2Z"/>
      <path class="cls-4" d="M1301.5,140a3.18,3.18,0,0,0,.3-.9,2.09,2.09,0,0,0-.6.4l-.4.4c-.1.1-.3.7,0,.8S1301.4,140.2,1301.5,140Z"/>
      <path class="cls-4" d="M1305.5,150.8a1.23,1.23,0,0,0,1,.5c.2,0,.7.1.8-.1l-.2-.4A2.89,2.89,0,0,0,1305.5,150.8Z"/>
      <path class="cls-4" d="M1326.3,141.4l-.2-.5a3.08,3.08,0,0,0,0,1.9l.4-.5A3.71,3.71,0,0,0,1326.3,141.4Z"/>
      <path class="cls-4" d="M1294.1,144.9l.3.4a2.18,2.18,0,0,0,.5.4c.2.1,1.1.2.5-.1C1295,145.3,1294.6,144.9,1294.1,144.9Z"/>
      <path class="cls-4" d="M1292.9,158.3l.2-.5-.4.2-.4.4-.1.3c-.1.2-.4.7.1.5A1.8,1.8,0,0,0,1292.9,158.3Z"/>
      <path class="cls-4" d="M1332.2,142.2v-.7a1,1,0,0,0-.4.5,1.42,1.42,0,0,0-.2.6l-.1.3v.6l.2-.2A1.61,1.61,0,0,0,1332.2,142.2Z"/>
      <path class="cls-4" d="M1317.2,175.9a1.23,1.23,0,0,0,.8-.4,2,2,0,0,0,.4-.8,1.09,1.09,0,0,0,.1-.5,1.72,1.72,0,0,0-.2-1.2l-.4.8c-.1.2-.2.3-.3.5A2.73,2.73,0,0,0,1317.2,175.9Z"/>
      <path class="cls-4" d="M1271.7,106.9a5.26,5.26,0,0,0-1.7-.4,4.47,4.47,0,0,0,2.8,2l-.5-.7.5.2.3.2a1.72,1.72,0,0,0-.4-.6C1272.4,107.4,1272.1,107,1271.7,106.9Z"/>
      <path class="cls-4" d="M1271,124a.66.66,0,0,1,.5-.4,1.14,1.14,0,0,1-.3.8,1.79,1.79,0,0,1-.7.5A2.62,2.62,0,0,1,1271,124Z"/>
      <path class="cls-4" d="M1280.9,128.1a1.42,1.42,0,0,0-.2-.6c-.1-.2-.2-.5-.3-.7a2.15,2.15,0,0,0-.2,1.1v.8l.2.5.2.6c-.1-.2.2-.6.3-.8Z"/>
      <path class="cls-4" d="M1283.6,121.8l-.1.3c0,.2.1,1.1.4.9S1283.7,122,1283.6,121.8Z"/>
      <path class="cls-2" d="M876.6,289.5l5-15.1-1.8-.6-5,14.8-7.1,10.3-1.1,1.2-.4-5.1-4.5-7.7,6.8-8-1.4-1.2-7.7,9,5,8.5.8,10.6-8.9-7.7-4.7-18.1,2.1-10.7-1.4-6.6,4.2-5.2-1.5-1.2-4.7,5.9,1.5,7.1-2.1,10.7L854,297l-6.7-4.3,1.4-10.6-6.1-7.6-1.5,1.2,5.6,7-1.5,11,9.5,6,2.2,7.9h11.8l.5-.9,4.5-.9-.4-1.9-2.9.6,6.2-11.4-1.7-.9-7.3,13.5h-.5l-.2-2.9,2.4-2.5Zm-18.2,16.2-1.1-3.7,4.3,3.7Z"/>
      <path class="cls-1" d="M871.6,305.6a1.11,1.11,0,0,1-1.1-1.1v-.2a.71.71,0,0,1,.3-.6l5.7-10.5-1.7-.9-3.7,6.7a29.24,29.24,0,0,1-2.3,5.4,9,9,0,0,1-1.4,1.4h-.5l-.1-1.5a.45.45,0,0,1,0-.5l-.1-.8.9-1a25.32,25.32,0,0,0,1.8-5.5l-1.8,2.7-1.1,1.2-.4-5.1-4.5-7.7,6.8-8-.9-.8a71,71,0,0,1-7.3,9.1c3.5,4.3,6.7,10.1,4.6,15.3l.3,3.3-2-1.8c-5.8-2.1-9.5-7.4-8.8-13.6l-2.7-10.4,2.1-10.7-1.4-6.6,4.2-5.2-.8-.7c-1.7,2.4-3.4,4.8-5,7.3l.7,3.3a.85.85,0,0,1,.3.5c1.5,3.7-.2,7.7-1.8,11.1l-.2,1.1L854,297l-6.7-4.3,1.4-10.6-5.5-6.8c.9,2.8,3.2,4.9,4.9,7.4.7,1-.7,2.1-1.6,1.5l-1.3,9.5,1.6,1a1.19,1.19,0,0,1,1.4-.4c5.7,2.3,8.5,7.6,10,13.3h10.5l.5-.9,4.5-.9v-.1A14.77,14.77,0,0,0,871.6,305.6Zm-13.2.1-1.1-3.7,4.3,3.7Z"/>
      <path class="cls-1" d="M880.2,274c-1.3,7-2.6,14.3-8,19.1a13.69,13.69,0,0,1-.4,3.4l4.7-6.9,5-15.1Z"/>
      <path class="cls-3" d="M883.9,288.3c-1.7.8-3.6,1.6-3.6,1.6l2.6-2.6a10.72,10.72,0,0,1-2.2-1,15.88,15.88,0,0,1-3.5-3.4s-1,.8-1.9,1.6a13.46,13.46,0,0,0-1.6,2l-1.8-1a25.78,25.78,0,0,0-3.5-1.6,9.07,9.07,0,0,0-1.3,5.4,9.31,9.31,0,0,0,1.7,4.7,15.59,15.59,0,0,0-8.3,1l.5,2.3c2.9-.9,6.7-2,8.7.2l3,2.9a11.72,11.72,0,0,0,5.9,3.3,16.14,16.14,0,0,0,5-7.3,13.48,13.48,0,0,0,.6-8.2Z"/>
      <path class="cls-3" d="M855.2,249.3a20.1,20.1,0,0,1-.6,2.7,6.15,6.15,0,0,0-.7-2.1,9.22,9.22,0,0,0-.5-.8H853a7.84,7.84,0,0,0-7.7,8.3s5.4,0,8.2,1.6a9.25,9.25,0,0,1,3.8,4,7.52,7.52,0,0,0,3.5-6.8C861,252.1,858.6,250,855.2,249.3Z"/>
      <path class="cls-3" d="M858.6,266.1c-1.7-4.2-4.9-5.5-10.4-5.1a5.82,5.82,0,0,0-1.9.3,12.08,12.08,0,0,1,.6,3.4,39.19,39.19,0,0,1,0,4.1,26.35,26.35,0,0,0-3.4-4.9,15,15,0,0,0-1.1-1.3c-1.8.4-3.4,1.1-5.9,4.3a15,15,0,0,0-2.2,5.4,1.27,1.27,0,0,1,.6.1c3.6.5,4.8,1.3,4.8,1.3l-5.5.7a5.1,5.1,0,0,0,1.3,4.5,4.92,4.92,0,0,0,2.7,1.6,19.41,19.41,0,0,1,9.5-5.4,33.31,33.31,0,0,1,9.5-.8S860.3,270.3,858.6,266.1Z"/>
      <path class="cls-3" d="M886.5,273.1l6.1-5.9c-.9-3.9-6.2-5-8.7-5.3a17.32,17.32,0,0,0-5.5.5,7.54,7.54,0,0,0-4.7-4.4l-.9-.3c-.1.2-.2.5-.3.7-1.5,3.6-2.4,6.3-2.4,6.3a19.22,19.22,0,0,1-.4-5.5c0-.6.1-1.2.1-1.8a10.72,10.72,0,0,0-8.1,4.4c-2.4,3.8-1.7,7.7.8,13.3.2.3.3.7.5,1l3.5-2.7-1.8,5.7a11.48,11.48,0,0,0,4.3,3.7,14.22,14.22,0,0,0,4.3,1.6l4.2-5.5,4.2,6.5s6.3-1.2,8.8-5a17,17,0,0,0,2.5-8.9Z"/>
      <path class="cls-3" d="M867.2,284.2s-.6-2.8-5.3-5.9l-3.1,4.5.9-5.3a5,5,0,0,0-1.2-.2c-8.1-1.2-13.2,1.1-16,3.2a8.52,8.52,0,0,0-1.7,1.6l2.8,4.5a51.23,51.23,0,0,1-5.3-1.1,22.58,22.58,0,0,0-2.6,7.7,16.23,16.23,0,0,0-.1,2.1,5.84,5.84,0,0,0,1.8.4l-1.6.6c.9,3,4.4,3.3,8.4,2a55.51,55.51,0,0,0,10.8-5.2,40.93,40.93,0,0,0,7.4,0c3.3-.4,4.3-1.1,4.3-1.1a7,7,0,0,1-.8-3.4A11.29,11.29,0,0,1,867.2,284.2Z"/>
      <path class="cls-4" d="M866.5,293.8a15.81,15.81,0,0,0-5.8,1.2l.1.5a60,60,0,0,1,10.4.8C869.6,295.4,868,294.6,866.5,293.8Z"/>
      <path class="cls-4" d="M871,292.1a105.67,105.67,0,0,1,12.6,4.8l.3-.6a13.77,13.77,0,0,0,.9-4.5C880.1,291.7,875.5,291.4,871,292.1Z"/>
      <path class="cls-4" d="M870.6,284.9c-1.2-.6-2.2-1-2.2-1a9,9,0,0,0-1.3,4.2A37,37,0,0,1,870.6,284.9Z"/>
      <path class="cls-4" d="M871.7,288.7a76.89,76.89,0,0,1,10.7-1.7,8.86,8.86,0,0,1-1.7-.8,7.46,7.46,0,0,1-1.7-1.4A33.86,33.86,0,0,0,871.7,288.7Z"/>
      <path class="cls-4" d="M848.2,250.7c-1.3,2.1-2.1,4.8-1.3,6.7a2.2,2.2,0,0,1,.8.1,19.75,19.75,0,0,1,2.9-8.1A9.21,9.21,0,0,0,848.2,250.7Z"/>
      <path class="cls-4" d="M855.2,251.7c.7-.6,1.4-1.1,2.2-1.7a8.08,8.08,0,0,0-2.2-.7,6,6,0,0,0-.2,1.2A5,5,0,0,1,855.2,251.7Z"/>
      <path class="cls-4" d="M859.8,252.4a44.65,44.65,0,0,0-4.3,3.3c-1,.9-2.1,1.8-3.1,2.7l.5.2a85.63,85.63,0,0,1,7.9-4.2,10.23,10.23,0,0,0-.8-2.1Z"/>
      <path class="cls-4" d="M856.6,261.5a8.14,8.14,0,0,1,.9,1.5,6.8,6.8,0,0,0,2.5-2.6C858.8,260.8,857.7,261.2,856.6,261.5Z"/>
      <path class="cls-4" d="M843.3,276.6a18,18,0,0,0-8,2.1l.2.2a4.92,4.92,0,0,0,2.7,1.6,20.12,20.12,0,0,1,5.3-3.9Z"/>
      <path class="cls-4" d="M846.9,268.7a5.55,5.55,0,0,0,.6.8,67.88,67.88,0,0,1,10.9-4.1c-1.8-3.8-4.9-4.9-10.2-4.5a5.82,5.82,0,0,0-1.9.3,12.08,12.08,0,0,1,.6,3.4A23.11,23.11,0,0,1,846.9,268.7Z"/>
      <path class="cls-4" d="M846.7,268.4a42,42,0,0,0-3.1-4.5,15,15,0,0,0-1.1-1.3,6.36,6.36,0,0,0-1.8.6A15.76,15.76,0,0,1,846.7,268.4Z"/>
      <path class="cls-4" d="M836.9,266.5l-.3.4A10.1,10.1,0,0,0,835,270a27.81,27.81,0,0,1,7.6.5l1.5.3C842.6,268.5,839.6,267.2,836.9,266.5Z"/>
      <path class="cls-4" d="M851.4,272.6c2,.5,4,1.1,5.9,1.6a10.29,10.29,0,0,0,1.5-3.3C856.3,271.4,853.8,271.9,851.4,272.6Z"/>
      <path class="cls-4" d="M838.4,273.9l-4.2.5a4.84,4.84,0,0,0,0,1.7,13.39,13.39,0,0,1,4.7-2.2Z"/>
      <path class="cls-4" d="M868.7,280.4h-.3a9.75,9.75,0,0,1,1.4.6,15.38,15.38,0,0,1,1.2-1.3A15.46,15.46,0,0,1,868.7,280.4Z"/>
      <path class="cls-4" d="M883.1,285.2c2-.6,5.4-1.9,7.2-4.4C886.9,281.2,883.1,282.3,883.1,285.2Z"/>
      <path class="cls-4" d="M864.3,259.2a25.52,25.52,0,0,0,4,8.7,34.24,34.24,0,0,1-.8-10.1A13,13,0,0,0,864.3,259.2Z"/>
      <path class="cls-4" d="M864.1,270.3a26.18,26.18,0,0,1-2.6-8.2c-1.7,2.9-1.7,5.8-.5,9.5A28.8,28.8,0,0,1,864.1,270.3Z"/>
      <path class="cls-4" d="M878.3,262.4a7,7,0,0,0-3-3.6,24.29,24.29,0,0,1,1.7,8.9,78.06,78.06,0,0,1,5.6-5.9A18.93,18.93,0,0,0,878.3,262.4Z"/>
      <path class="cls-4" d="M887.8,262.8a39.74,39.74,0,0,0-6.6,5.7,20,20,0,0,0-1.4,1.6,102.34,102.34,0,0,1,12-4.6A8.89,8.89,0,0,0,887.8,262.8Z"/>
      <path class="cls-4" d="M842.7,297.3a28.13,28.13,0,0,0-6.5.2,4.41,4.41,0,0,0,3.2,1.7A13.5,13.5,0,0,1,842.7,297.3Z"/>
      <path class="cls-4" d="M844.3,289.8a25.11,25.11,0,0,0-6.9-2.6,18,18,0,0,0-1.4,4.1,60,60,0,0,1,11.2.5A18.72,18.72,0,0,0,844.3,289.8Z"/>
      <path class="cls-4" d="M842.1,284.4l.8,1.2a5.39,5.39,0,0,1,1.3.7C843.5,285.6,842.8,285,842.1,284.4Z"/>
      <path class="cls-4" d="M848.1,283a19.79,19.79,0,0,1-1.5-4.7,19.36,19.36,0,0,0-4.1,2.2l-.1.1a30.57,30.57,0,0,1,7,6.9C849,286,848.6,284.4,848.1,283Z"/>
      <path class="cls-4" d="M853.4,277a21,21,0,0,0-3.7.4,6.89,6.89,0,0,0,.4,1c.8,2.1,1.7,4.3,2.4,6.4Z"/>
      <path class="cls-4" d="M859.1,277.4c-.2,0-.4-.1-.6-.1s-.4-.1-.6-.1a19.42,19.42,0,0,1-.2,2.4A13.45,13.45,0,0,1,859.1,277.4Z"/>
      <path class="cls-4" d="M860.1,282.7c-.6.7-1.1,1.4-1.6,2.1a77.72,77.72,0,0,1,7.6-2.8,12.11,12.11,0,0,0-2.8-2.7C862.2,280.5,861.1,281.5,860.1,282.7Z"/>
      <path class="cls-4" d="M867.1,284.4a27,27,0,0,0-10.1,6.5v.5a67.21,67.21,0,0,1,8.5-3.2h.5a9.07,9.07,0,0,1,1.1-3.8Z"/>
      <path class="cls-1" d="M903.9,326.4l-2.1,3.5-.9,1.9-2.3-4-.7-2.6,3.1-1.3,1.5-2.8h-.6l-1.6,1.8-2.3.6,1.2-4.1,2.9-1.2-3.5.4.2-5.3h-1.3l-.6,6.2-.7,2.7-1.6-3.7-1.4-9.2-1.2,1,.8,7.6.5,2.6,1.6,4.9-2.7,2.2.8-6.2-.9-.6-4.3-9.4-.4,2.2-1.2-7-1.1,2.2,2.2,10.8-4.2-2.8-.4.8,4.6,3.2-.6,4.1-.6,5.2-.1-.4-2.9-8.9-2.2-4.8-.3,2.8,3.1,9.6-3.5-.8-2.3-1-3.3-2.1,1.9,2.4,2.5,1.6,5.4,1.7.7,3.1h6l.6-3.1,4-2.8,1.8,5.3v.6h4.8l.8-2.5,3-5.3Zm-14.2.8-1.7,4.5.1-4.4.7-4.9-.7-5.6-.3-1.9,3.3,7.3Z"/>
      <path class="cls-2" d="M882.7,319.6l-.6-1.3h0a60.47,60.47,0,0,1,.4,6.1h0a16.22,16.22,0,0,0,.1-4.4Z"/>
      <path class="cls-2" d="M881.9,327.9l-1.6-.4-1.2-.5a8.79,8.79,0,0,1,.6,1C880.5,328,881.2,327.9,881.9,327.9Z"/>
      <path class="cls-2" d="M884.1,327.5a16.55,16.55,0,0,0,.6-2.1v-.1l-.5-1.4c-.1,1.1-.3,2.2-.5,3.4l-.1.2Z"/>
      <path class="cls-2" d="M885.8,328.4h0a1,1,0,0,1-.4.5c-.2.5-.3.9-.5,1.4l.3.6a8.33,8.33,0,0,0,.4-1.5C885.7,329.1,885.7,328.8,885.8,328.4Z"/>
      <path class="cls-2" d="M890.2,317.1a3.4,3.4,0,0,1-.1-1l-1.1-2.5c.1.6.1,1.2.2,1.9A3.36,3.36,0,0,0,890.2,317.1Z"/>
      <path class="cls-2" d="M892.1,321l-.2-.4-.2-.1c-.2-.2-.3-.4-.5-.6-.5-.4-1.2-.8-1.8-1.2v.1l.1.3.2.2c.4.9,1.3,1.4,1.9,2.1a7.61,7.61,0,0,1,1.2,1.9v-.2A4.76,4.76,0,0,0,892.1,321Z"/>
      <path class="cls-2" d="M891.6,324.6a2,2,0,0,0-.9-.9,20.59,20.59,0,0,1-1.8,9.6h.3a7.07,7.07,0,0,1,2.4-3.3,6.07,6.07,0,0,0,.1-5.1Z"/>
      <path class="cls-2" d="M894.6,318.3h0v-.4c-.8-2.7-1.4-5.4-2.3-8l-.2.2.5,4.2a37.65,37.65,0,0,0,2.4,7.4C894.9,320.6,894.8,319.5,894.6,318.3Z"/>
      <path class="cls-2" d="M898.1,333.2h.8c.4-1,.7-2,1-3l-.5-.9A29.72,29.72,0,0,1,898.1,333.2Z"/>
      <path class="cls-2" d="M896.7,330.3l.3,1c.4-1.1.8-2.3,1.1-3.4C897.7,328.6,897.2,329.5,896.7,330.3Z"/>
      <path class="cls-2" d="M897.5,317.8c.4-.4.8-.7,1.2-1.1l.1-3.7h-1.3l-.5,5.4A3.81,3.81,0,0,0,897.5,317.8Z"/>
      <path class="cls-2" d="M899.2,318.6l-.4.4a11.91,11.91,0,0,0-1.9,3.5v.1c.4-.2.8-.5,1.3-.7A7.9,7.9,0,0,1,899.2,318.6Z"/>
      <path class="cls-2" d="M900.3,322.7l-.1.1-.2.1a16.89,16.89,0,0,0-3.2,1.9v.7a10.2,10.2,0,0,1,4.6-2.4l.9-1.7C901.6,321.8,901,322.3,900.3,322.7Z"/>
      <path class="cls-2" d="M903.2,327.5l-1.2,2c-.4,1.2-.8,2.5-1.2,3.7h.4c.5-1.2,1.1-2.3,1.6-3.4C902.9,329,903.1,328.3,903.2,327.5Z"/>
      <path class="cls-2" d="M887.4,315.4a.59.59,0,0,1,.1-.7,47.22,47.22,0,0,0-1.4-7.5l-.4.8a25.75,25.75,0,0,1,.8,4,28.1,28.1,0,0,1,.1,2.9l.9,4.6-4.2-2.8-.1.3a7.88,7.88,0,0,1,3.4,3.1l.9.7-.1,1a31.37,31.37,0,0,1,0,8.1,13.52,13.52,0,0,1-1.1,3.4h.8l.1-.2a13.55,13.55,0,0,0,1-2.1l.1-3.6v-.2c-.1-3.8-.2-7.5-.6-11.2A1.55,1.55,0,0,1,887.4,315.4Z"/>
      <path class="cls-3" d="M901.8,319.9l-1.6,5.5a9,9,0,0,1,2.9,1.6,26,26,0,0,1,3.1,3.1,6,6,0,0,0,2.7-.8l-1.5-1.3.5-1.2,2.3,1.7a5.84,5.84,0,0,0,1.6-2.1,16.15,16.15,0,0,0,1.6-5.9Zm3.1,3.1a14.49,14.49,0,0,0-2.3,0s.2-.4,1.3-.9a5.94,5.94,0,0,1,2.2-.5l1.5,1.9A6.22,6.22,0,0,0,904.9,323Z"/>
      <path class="cls-4" d="M906.2,320.2h0a20,20,0,0,0-4.5,1.7c.9,0,1.7.1,2.6.1a7.32,7.32,0,0,1,1.8-.4A6.6,6.6,0,0,0,906.2,320.2Z"/>
      <path class="cls-4" d="M907.5,325.2a4.43,4.43,0,0,1,1.5,1.2,6.06,6.06,0,0,1,1.1,2.1,5.67,5.67,0,0,0,1.5-2.1,15.19,15.19,0,0,0,.8-2.2A25,25,0,0,1,907.5,325.2Z"/>
      <path class="cls-3" d="M879,325.8a9.2,9.2,0,0,0-.2-1.7,26.45,26.45,0,0,0-6.3-2.8,19.17,19.17,0,0,0-7.7-.4,7.88,7.88,0,0,0-1.1,3.7,37.55,37.55,0,0,1,4,.4s-1-.1-4.2,1.5c-.1,3.2.5,3.9.5,3.9a13.92,13.92,0,0,1,3.2-1,8,8,0,0,1,2.9-.2l-1.9,1.1a14.32,14.32,0,0,0,1.4,3,7.43,7.43,0,0,0,2.6,2.7s1.2-1.3,3.2-3.7a12.48,12.48,0,0,1,3.4-3.1A19.29,19.29,0,0,0,879,325.8Z"/>
      <path class="cls-4" d="M867.3,325.1a16.72,16.72,0,0,0-3.8,1.4v2.1C864.8,327.4,866,326.2,867.3,325.1Z"/>
      <path class="cls-4" d="M872.6,321.3h0a19.64,19.64,0,0,0-7.8-.4,7.88,7.88,0,0,0-1.1,3.7,20.25,20.25,0,0,1,3.7.4A61.49,61.49,0,0,1,872.6,321.3Z"/>
      <path class="cls-4" d="M874.5,324.8c-2.1,3.1-3.7,7.5-2,10.8.5-.5,1.4-1.6,2.7-3.2A32.12,32.12,0,0,1,874.5,324.8Z"/>
      <path class="cls-3" d="M912.2,314.5l-.2-.5,3.3-.6a30.82,30.82,0,0,0-3-10.8,29.17,29.17,0,0,0-7.4-9l-3.5,3.7,1.2-1.9a11,11,0,0,0-4.5-2.8,20.5,20.5,0,0,0-4.3-1.3l-1.7,6.8-.5-.1a29.84,29.84,0,0,0,.2-6.7c-.3-3.8-.3-4.5-.3-4.5h-1.8s-.4-.9-.9-2.2l-.5-1.3a36.86,36.86,0,0,0-5.4,1.8,24.4,24.4,0,0,0-5.1,2.7,39.55,39.55,0,0,1,3.9,6.6,61,61,0,0,1,2.9,7.7l-1.2.6a28.3,28.3,0,0,0-3.2-7.8l-2.5-4.3-1.2.4-3-3.2a40.38,40.38,0,0,0-6.5,6.5,81,81,0,0,0-5.6,7.8,46.57,46.57,0,0,0,4.3,3,16,16,0,0,1,3.9,3.5l-.3.5-2.7-1.3h-.8l1.1,1.1-4.8-2s-1,1.3-1.8,5a30.13,30.13,0,0,0-.8,5.9l15,1.6,5.3,4.3a18.59,18.59,0,0,1,4.2-5c4.5-3.5,8.6-3.6,11.3-2.9s5.7,3.6,5.7,3.6a53.29,53.29,0,0,0,7-1.1c4.1-.9,7.1-1.8,7.1-1.8l-.6-2.6Zm-41.4,2.2a15.22,15.22,0,0,1-3.1-.3l.6-1.7a8.53,8.53,0,0,0,2.2.5,15,15,0,0,0,2.3,0l.6,1.2A7.49,7.49,0,0,1,870.8,316.7Zm8.3-6.4-2.7-7.8a16.41,16.41,0,0,1,3.5,3.8c1.7,2.4,1.5,4,1.5,4Zm2.8,6.6-1.8-4s1,.5,2.1,1a6.52,6.52,0,0,1,1.7,1.3Zm8-8.7-1.5-4,2.7,3.1Zm5.6-5.7a8.62,8.62,0,0,1-.2,1.9l-2.4-.8a13.35,13.35,0,0,1,1.3-1.5,9.9,9.9,0,0,0,1.3-1.9A12.25,12.25,0,0,1,895.5,302.5Zm5.5,5.4-1.2-.5a15.11,15.11,0,0,0,1.3-3.3,28.93,28.93,0,0,0,.9-3.4l1.6-1.1Zm6.2,5.7a7.41,7.41,0,0,1-4.3,1.1l2.8-2.8a22.75,22.75,0,0,0,2.4-2.8l2.4,1.2A12.73,12.73,0,0,1,907.2,313.6Z"/>
      <path class="cls-4" d="M864.7,310.6l-3.9-.3c-.1.5-.3,1.1-.4,1.7a20.69,20.69,0,0,0-.4,2.2l7.6-.3A10.32,10.32,0,0,1,864.7,310.6Z"/>
      <path class="cls-4" d="M864.2,301.8a28.1,28.1,0,0,0,2.9.1v-1.5a13.51,13.51,0,0,0-1.1-4.5c-1.8,2.3-3.1,4.3-3.8,5.4A11.7,11.7,0,0,0,864.2,301.8Z"/>
      <path class="cls-4" d="M876.6,303.1a15.42,15.42,0,0,0-4.7-3.7h-.3a35.46,35.46,0,0,1-.9,7.2c1.7.1,3.3.1,4.7.2.9.1,1.8.1,2.6.2Z"/>
      <path class="cls-4" d="M873.8,288l-.1-.1a30,30,0,0,0-3.9,3.5,19.56,19.56,0,0,1,1.3,4.1A13,13,0,0,0,873.8,288Z"/>
      <path class="cls-4" d="M883,300.9a34.2,34.2,0,0,0-2.7-5.9c-.6-1-1.1-1.8-1.4-2.4-.6-.5-1.2-1-1.8-1.6H877c-.5,4.7,2.3,9.8,6.1,12.8A14.08,14.08,0,0,0,883,300.9Z"/>
      <path class="cls-4" d="M888.8,297.9h0a10,10,0,0,0-3.8-3,25.06,25.06,0,0,1,1.5,7.7c.8-1.4,1.6-2.9,2.3-4.4v-.3Z"/>
      <path class="cls-4" d="M890.8,291a26.29,26.29,0,0,0,.6-3.9v-.2h-1.8s-.4-.9-.9-2.2l-.5-1.3a36.86,36.86,0,0,0-5.4,1.8c-1.2.5-2.2,1-3,1.4l.1.1C883.7,287,888.2,288.2,890.8,291Z"/>
      <path class="cls-4" d="M895.9,299.6a28.19,28.19,0,0,0,3.7-6.3c-.5-.2-1-.5-1.6-.7-1.6-.6-2.7-.9-3.4-1.1C895.8,293.8,896,296.8,895.9,299.6Z"/>
      <path class="cls-4" d="M893,299.3a14.92,14.92,0,0,0-.2-2.1,41.74,41.74,0,0,1-3.1,6.8,7.49,7.49,0,0,1,1.6.4c.6-.5,1.1-1,1.6-1.5A21.66,21.66,0,0,0,893,299.3Z"/>
      <path class="cls-4" d="M906.6,298a3.57,3.57,0,0,0,2.9,3.2,7.61,7.61,0,0,0,2.1.3,30.11,30.11,0,0,0-4.8-6.1A22.75,22.75,0,0,1,906.6,298Z"/>
      <path class="cls-4" d="M901,297.9a30,30,0,0,1-5.3,7l3.6-.3C899.8,302.3,900.4,300.1,901,297.9Z"/>
      <path class="cls-4" d="M909.3,308.5a9.91,9.91,0,0,0,5.7,3.4,28.46,28.46,0,0,0-1-4.4A17,17,0,0,1,909.3,308.5Z"/>
      <path class="cls-4" d="M905.9,309.8l-.1-.1a13.18,13.18,0,0,0-8.6,5.6C900.7,314.3,904,312.7,905.9,309.8Z"/>
      <path class="cls-4" d="M908.8,317a8.77,8.77,0,0,0-3.3,1.8c.8-.1,1.6-.3,2.6-.5,2.5-.6,4.5-1.1,5.8-1.4A12.52,12.52,0,0,0,908.8,317Z"/>
      <path class="cls-4" d="M875.2,319.9l4,3.3a11.41,11.41,0,0,1,3.3-6.2l-.4.1A24.42,24.42,0,0,0,875.2,319.9Z"/>
      <path class="cls-6" d="M886.9,323.4l-2.6-2.9a11.83,11.83,0,0,1,2.6-2c1.7-.9,2.4-1.2,2.4-1.2Z"/>
      <polygon class="cls-1" points="1381.9 235.4 1370.9 240.3 1366.4 241.3 1371.5 231.9 1369 230.1 1362.8 242.8 1359.1 248.6 1357.8 252.3 1361.8 252.6 1363.8 245.1 1372.3 241.8 1383.2 238.6 1381.9 235.4"/>
      <polygon class="cls-1" points="1346 230.8 1344.2 228.2 1335.6 236.1 1334.5 239 1331 232.7 1328.1 222.3 1326.8 224.2 1329.3 235 1331.9 241.8 1332.7 243.7 1328.4 254.3 1333.5 254.7 1334.7 250.9 1334.5 253.6 1339.7 254 1337 243.5 1338.3 239.2 1346 230.8"/>
      <polygon class="cls-1" points="1306.8 249.4 1305.7 248.2 1304.7 243.1 1303.7 227.3 1301.2 224.8 1300 243.8 1300.6 254.8 1308.4 255.4 1306.5 251.4 1306.8 249.4"/>
      <polygon class="cls-1" points="1283.4 233.1 1285.3 224.9 1281.8 229.3 1278.5 220.1 1275.9 207.3 1273.9 207.1 1274.5 216.7 1277.7 228.2 1281.3 237 1282.4 241 1284.3 248.5 1284.1 251.9 1282.9 254.7 1289.9 255.2 1290.7 254.1 1292.5 252.8 1287.7 241.8 1283.4 233.1"/>
      <path class="cls-2" d="M1381.9,235.4l-11,4.8-7.9,2.6,4.4-6.2,3-3.7c-1.4,1.1-2.2,2.3-3.8,1.9l-3.8,7.8-2.6,6.9-2.3,2.6,1.1.1a9.74,9.74,0,0,1,1.5-2.4c1.3-4.6,5.2-7.1,9.4-7.8.3,0,.5-.1.8-.1,3.9-1.8,7.8-3.5,11.7-5.5Z"/>
      <path class="cls-2" d="M1344.2,228.2l-2.9,2.7a7,7,0,0,1-2.2,2l-3.6,7.3-1.1-1.2-5.1-6.2,1.2-1.5a9.2,9.2,0,0,1-2.1-7.5l-.4-1.5-1.3,1.9,2.3,10c4.9,2.5,5.4,10.2,1.8,13.7l-2.5,6.3,1.8.1a5.91,5.91,0,0,1,2.7-5.2l1.7-5.7.2,5.8.1.1c.2.4-.1,1.3.3,3.1a2.34,2.34,0,0,0,1.2,1.2c-.9-3.1,1.2-4.4-.5-7.5a7.06,7.06,0,0,1-.6-4.3l2.8-6.4,1.1,2.5c0-3.8,2.2-7.4,6.2-7.8Z"/>
      <path class="cls-2" d="M1301.5,247a30.48,30.48,0,0,1,2.4-15l-.3-4.6-2.5-2.5-1.2,18.9.6,11.1,3.4.3A23.75,23.75,0,0,1,1301.5,247Z"/>
      <path class="cls-2" d="M1285.5,245.1c-1.2-3.4-3.4-8.2-2.7-12.7a12,12,0,0,1,1.8-4.8l.6-2.7-3.5,4.4-3.3-9.2-.1-.7-3,.3.7,2.5a76.5,76.5,0,0,1,4.9,12.1c2.3,7.2,4.8,13.6,6.4,20.8l2.6.2.8-1.2.2-.1A25.34,25.34,0,0,1,1285.5,245.1Z"/>
      <path class="cls-3" d="M1332.1,215l-27.2-31.9a6.19,6.19,0,0,0-6.7-2l-33.5,10.7a7.13,7.13,0,0,0-4.3,4.2l-11.2,30.5a7.55,7.55,0,0,0,2.7,8.8l6.6,4.3a6,6,0,0,0,5.9.5l21.8-9.7a6.25,6.25,0,0,1,5.5.2l17,9.4a6.06,6.06,0,0,0,7.2-.9l15.4-13.8A7.3,7.3,0,0,0,1332.1,215Zm-48.9,8.5L1274,226c-2.1.6-3.8-1.6-3.1-3.8l4.9-13.6a2.5,2.5,0,0,1,4.8,0l4.2,11.1A2.62,2.62,0,0,1,1283.2,223.5Z"/>
      <path class="cls-3" d="M1341.7,217.1l-4,9.7a4.9,4.9,0,0,0,1.6,5.7l12.1,8a3.9,3.9,0,0,0,5.6-1.3l18.9-30a4.87,4.87,0,0,0,.4-4.4l-8.9-21.7a4,4,0,0,0-1-1.5l-15.1-14.9a3.9,3.9,0,0,0-5.4-.2l-16.8,14.8a4.5,4.5,0,0,0-1.5,3.7l.5,16.3a4.78,4.78,0,0,0,2,3.7l9.9,6.4A4.81,4.81,0,0,1,1341.7,217.1Z"/>
      <path class="cls-3" d="M1366.9,234.8l11.1,6.7a5.87,5.87,0,0,0,6.7-.3l9-6.6a5.54,5.54,0,0,0,.7-8.3l-8.4-8.9a6.11,6.11,0,0,0-8-.7l-11.7,8.9A5.48,5.48,0,0,0,1366.9,234.8Z"/>
      <path class="cls-4" d="M1271.4,227.9c-2.6-13.6,1.7-28.4,9.3-41.3l-16,5.1a7.13,7.13,0,0,0-4.3,4.2l-11.2,30.5a8.24,8.24,0,0,0-.4,3.5A35.27,35.27,0,0,1,1271.4,227.9Z"/>
      <path class="cls-4" d="M1302.7,231.3c.7.7,1.4,1.3,2.1,2,9.7-9,11.1-27,8-41.1l-7.9-9.2a4.71,4.71,0,0,0-1.5-1.3,80.72,80.72,0,0,0-15,23.4,33.14,33.14,0,0,0-3.1,14.8C1292.1,222.2,1297.5,226.4,1302.7,231.3Z"/>
      <path class="cls-4" d="M1353.8,180a36,36,0,0,1,6.2-4.5l-8.8-8.7a3.9,3.9,0,0,0-5.4-.2L1329,181.4a2.7,2.7,0,0,0-.7.8c-.1,6.8.2,13.7,4,18.9a20.82,20.82,0,0,0,10.1,7.3A33.79,33.79,0,0,1,1353.8,180Z"/>
      <path class="cls-4" d="M1372.5,195.8l-2.9-7.1c-5.4,2.4-10,6.4-11.6,11.9C1363.4,202,1368.2,199.6,1372.5,195.8Z"/>
      <path class="cls-4" d="M1344.8,226.2c-2.5,1.1-5,2.2-7.4,3.4a4.23,4.23,0,0,0,1.9,2.8l5.8,3.9A12.67,12.67,0,0,0,1344.8,226.2Z"/>
      <path class="cls-4" d="M1376.2,231.9c5.2-5,12.7-4.7,19.6-2.7a7.09,7.09,0,0,0-1.4-2.9l-8.4-8.9-.2-.2c-7.5,4.1-14.7,9.3-20,16.3l-.2.3a6.89,6.89,0,0,0,1.3,1.1l5.7,3.5A12.74,12.74,0,0,1,1376.2,231.9Z"/>
      <path class="cls-4" d="M1371.8,199.5a82.36,82.36,0,0,0-21.1-13.3s.2.3.6.8,1,1.2,1.7,2a46.23,46.23,0,0,0,5.9,5.5,27.32,27.32,0,0,0,8.2,3.7C1369.8,199,1371.8,199.5,1371.8,199.5Z"/>
      <path class="cls-4" d="M1340.9,193.5a78.55,78.55,0,0,0-18.6-2.5s1.4-2.9,7.6-2.6a21.47,21.47,0,0,1,4.4.9,22.84,22.84,0,0,1,3.5,1.8,12.44,12.44,0,0,1,2.3,1.7C1340.6,193.2,1340.9,193.5,1340.9,193.5Z"/>
      <path class="cls-5" d="M1352.8,201.7c-2.4-1.3-4.8-2.5-7.3-3.6a8,8,0,0,0,.3,1.9,7.56,7.56,0,0,0,2.2,3.5,2.43,2.43,0,0,0,3.3-.1A7,7,0,0,0,1352.8,201.7Z"/>
      <path class="cls-4" d="M1332,196.1c-2.1-.4-4.1-.8-6.2-1l-3.1-.3-3.1-.1a5,5,0,0,0,1,1.4,5.46,5.46,0,0,0,3.3,1.7c1.5.3,3.6-.3,5.2-.7A18.38,18.38,0,0,0,1332,196.1Z"/>
      <path class="cls-4" d="M1342.6,185.2c-2.5-.8-5-1.3-7.5-2,0,0-.1,1.1,2.9,2.6a3.47,3.47,0,0,0,4.6-.6Z"/>
      <path class="cls-5" d="M1325.7,185.1a78,78,0,0,0-19.9.5,11.85,11.85,0,0,1,2.4-1.9,15,15,0,0,1,6.5-2.3,14.55,14.55,0,0,1,8.4,1.6,13.31,13.31,0,0,1,2,1.4A5.17,5.17,0,0,1,1325.7,185.1Z"/>
      <path class="cls-4" d="M1317.8,190.2a77,77,0,0,0-8.3.5,3.77,3.77,0,0,0,3.7,2.1,6.63,6.63,0,0,0,4.6-2.6Z"/>
      <path class="cls-4" d="M1307.1,199.6a68.86,68.86,0,0,0-14,3.7,6,6,0,0,1,.7.3,12.38,12.38,0,0,0,1.9.5,20.24,20.24,0,0,0,2.6.4,17.09,17.09,0,0,0,3.1-.3,8.44,8.44,0,0,0,2.7-1.1,8.62,8.62,0,0,0,1.7-1.5A9.86,9.86,0,0,0,1307.1,199.6Z"/>
      <path class="cls-4" d="M1320.6,200.4c-1.5.2-3,.3-4.5.6,0,0-.3-2.6,1.7-2.4A4.25,4.25,0,0,1,1320.6,200.4Z"/>
      <path class="cls-4" d="M1294.7,193.4a60.47,60.47,0,0,0-7,5.2,12.53,12.53,0,0,0,1.4-.1,7.09,7.09,0,0,0,3.2-1.2,5.2,5.2,0,0,0,2.1-2.5A4.41,4.41,0,0,0,1294.7,193.4Z"/>
      <path class="cls-4" d="M1298.7,190.6a44.05,44.05,0,0,0-5.2-.3l-2.6-.1-2.6.1a9.2,9.2,0,0,1,1.5-.9,13.33,13.33,0,0,1,4.4-1.1,4.78,4.78,0,0,1,3.7,1.1A3.43,3.43,0,0,1,1298.7,190.6Z"/>
      <path class="cls-4" d="M1286.9,193.1c-2.1.9-4.1,2-6.1,3-1.9,1.2-4,2.2-5.8,3.5a3.77,3.77,0,0,0,1.5.2,15.82,15.82,0,0,0,5.4-1.3c2.7-.9,3.9-2.2,4.5-3.4A3.71,3.71,0,0,0,1286.9,193.1Z"/>
      <path class="cls-4" d="M1286.5,207.9l-4,2.2-3.9,2.4a7.24,7.24,0,0,1,.3-1.7,13.4,13.4,0,0,1,2-4,2.7,2.7,0,0,1,3.6-.8,5.32,5.32,0,0,1,1.8,1.4Z"/>
      <path class="cls-4" d="M1302.8,179.2a85.42,85.42,0,0,0-13,3.3,13,13,0,0,1,1.6-1.5,8.85,8.85,0,0,1,3.5-2,19.28,19.28,0,0,1,4.9-.2A20,20,0,0,1,1302.8,179.2Z"/>
      <path class="cls-4" d="M1332.2,179.1a33.27,33.27,0,0,0-5.4-.7l-2.7-.3-2.7-.1a4.45,4.45,0,0,0,1.1,1.1,13.48,13.48,0,0,0,4.1,1.8,5.55,5.55,0,0,0,4.3-.5A4.37,4.37,0,0,0,1332.2,179.1Z"/>
      <path class="cls-4" d="M1362.9,209.8c-.9-.8-1.9-1.6-2.8-2.3a4,4,0,0,0,.8,2A3.24,3.24,0,0,0,1362.9,209.8Z"/>
      <path class="cls-4" d="M1337.4,201.2c-1.5-.5-3.1-.8-4.6-1.2a4,4,0,0,0,2.1,2.1A2.19,2.19,0,0,0,1337.4,201.2Z"/>
      <path class="cls-4" d="M1355.7,211a59.16,59.16,0,0,0-6.8-4.2s.5-.1,1.3-.2a5.45,5.45,0,0,1,2.4.5,11.41,11.41,0,0,1,2.2,2.2C1355.3,210.2,1355.7,211,1355.7,211Z"/>
      <path class="cls-5" d="M1377.6,212a74.93,74.93,0,0,0-6.3-4.1s.3.6.8,1.4,1.1,1.8,1.6,2.6C1374.7,213.5,1377.6,212,1377.6,212Z"/>
      <path class="cls-4" d="M1278.8,189.8c-1.8,1.3-3.6,2.6-5.3,4s-3.4,2.8-5,4.3a1.75,1.75,0,0,1,.1-.5,5.13,5.13,0,0,1,.5-1.2,13.08,13.08,0,0,1,2.5-3.6,11,11,0,0,1,4.6-2.5c.7-.2,1.4-.4,1.9-.5Z"/>
      <path class="cls-4" d="M1292.9,216.9l-2.5.9-2.5,1a3.7,3.7,0,0,1,1.8-3.2C1291.6,214.5,1292.9,216.9,1292.9,216.9Z"/>
      <path class="cls-4" d="M1303.3,209c-2.2.5-4.3,1.2-6.5,1.9a7.78,7.78,0,0,1,.3-.9,3.58,3.58,0,0,1,1.5-1.5,4.1,4.1,0,0,1,2.9-.1A15.15,15.15,0,0,1,1303.3,209Z"/>
      <path class="cls-4" d="M1279.9,181c-2.6,3.4-5.6,5.8-11.1,5.8A117,117,0,0,1,1279.9,181Z"/>
      <path class="cls-4" d="M1271,208.9c-1.3.8-2.5,1.9-3.7,2.8l-1.8,1.4-1.8,1.6a1.86,1.86,0,0,0,1.2,0,4.76,4.76,0,0,0,1.4-.5,10.35,10.35,0,0,0,2-1.1C1271.3,211.1,1271,208.9,1271,208.9Z"/>
      <path class="cls-4" d="M1275.1,215.7a10.92,10.92,0,0,0-1.7,1.3,1.51,1.51,0,0,0,1.3-.3A.89.89,0,0,0,1275.1,215.7Z"/>
      <path class="cls-5" d="M1284.6,216.3l-3,2.1a6.89,6.89,0,0,1,1.2-2C1283.5,215.6,1284.6,216.3,1284.6,216.3Z"/>
      <path class="cls-4" d="M1280.7,202.1l-2.1,1.2-2.1,1.3a10.72,10.72,0,0,1,1.5-2.1C1278.8,201.7,1280.7,202.1,1280.7,202.1Z"/>
      <path class="cls-4" d="M1308.9,197.5c-.9.1-1.8.3-2.7.4a2.81,2.81,0,0,1,1.2-1.1A1.08,1.08,0,0,1,1308.9,197.5Z"/>
      <path class="cls-4" d="M1312.4,203.7c-1.3.4-2.7.8-4,1.3a2.7,2.7,0,0,1,1.5-1.7A2.63,2.63,0,0,1,1312.4,203.7Z"/>
      <path class="cls-4" d="M1333.4,208.4l-2.7-1.1a1.7,1.7,0,0,1,1.3-.2C1332.7,207.3,1333.4,208.4,1333.4,208.4Z"/>
      <path class="cls-4" d="M1299.4,183.4l-3,1.5a2.63,2.63,0,0,0,2.1.5C1299.6,185,1299.4,183.4,1299.4,183.4Z"/>
      <path class="cls-4" d="M1317.4,177.8l-4.3-.3s.1-.4,2.1-.6S1317.4,177.8,1317.4,177.8Z"/>
      <path class="cls-4" d="M1345,190.7c-1.4-.3-2.8-.7-4.2-1,0,0,0,.7,1.8,1.3S1345,190.7,1345,190.7Z"/>
      <path class="cls-4" d="M1342.4,199l-4.5-2.1a2.42,2.42,0,0,1,2.1-.2A7.27,7.27,0,0,1,1342.4,199Z"/>
      <path class="cls-4" d="M1359.6,201l-2.6-1.7-2.7-1.6a3.36,3.36,0,0,0,1.7,2.6A4.23,4.23,0,0,0,1359.6,201Z"/>
      <path class="cls-4" d="M1368.2,218.5a39,39,0,0,0-3.4-3.6,8,8,0,0,0,1,2.6C1367.1,218.9,1368.2,218.5,1368.2,218.5Z"/>
      <path class="cls-4" d="M1360.1,216.5l-2.1-1.8a1.56,1.56,0,0,1,1.5.3A1.31,1.31,0,0,1,1360.1,216.5Z"/>
      <path class="cls-4" d="M1373.3,193.6a81.51,81.51,0,0,0-8.4-6.1s1.8-.5,5.1,1.6S1373.3,193.6,1373.3,193.6Z"/>
      <path class="cls-4" d="M1302.2,195.4c-1.8.6-3.6,1-5.3,1.7a10.59,10.59,0,0,1,2.4-1.8,5.39,5.39,0,0,1,3-.2Z"/>
      <path class="cls-4" d="M1258.2,197.6c-2.5,1.9-4.7,4.1-7.1,6.2a12.05,12.05,0,0,1,2.4-4.6,4.27,4.27,0,0,1,3.1-1.7A4.19,4.19,0,0,1,1258.2,197.6Z"/>
      <path class="cls-4" d="M1266.2,203.9l-3.6,2.9a5.4,5.4,0,0,0,2.4-.6,2.81,2.81,0,0,0,1-1.4A2.68,2.68,0,0,0,1266.2,203.9Z"/>
      <path class="cls-4" d="M1276.2,222.6a71.35,71.35,0,0,0-5.5,5.5,6.19,6.19,0,0,0,3.7-1.6,8.3,8.3,0,0,0,1.5-2.5C1276.1,223.2,1276.2,222.6,1276.2,222.6Z"/>
      <path class="cls-4" d="M1368.1,222.2a45.76,45.76,0,0,1,7.1,7.5,5.25,5.25,0,0,1-1.5-.3,8.48,8.48,0,0,1-3.1-1.8,9.32,9.32,0,0,1-2.1-3.5A15.16,15.16,0,0,1,1368.1,222.2Z"/>
      <path class="cls-4" d="M1374.2,205.2c1.3.6,2.5,1.4,3.7,2.1a8.69,8.69,0,0,0-1.9-2.7C1374.9,203.8,1374.2,205.2,1374.2,205.2Z"/>
      <path class="cls-4" d="M1377.4,218.1a44.55,44.55,0,0,1,7.2,11.3,6.29,6.29,0,0,0,0-2.2,11.06,11.06,0,0,0-1.7-4.9,10.24,10.24,0,0,0-3.6-3.4A9,9,0,0,0,1377.4,218.1Z"/>
      <path class="cls-4" d="M1372.9,217.7c.7.9,1.3,1.7,2,2.6a2.57,2.57,0,0,1-1.6-.4C1372.7,219.3,1372.9,217.7,1372.9,217.7Z"/>
      <path class="cls-4" d="M1371.4,213.1a69.1,69.1,0,0,0-5.7-5.1s.2.5.5,1.1a9.35,9.35,0,0,0,1.6,2,9.46,9.46,0,0,0,2.3,1.4C1370.9,212.9,1371.4,213.1,1371.4,213.1Z"/>
      <path class="cls-2" d="M1286.3,256.6l5-15.1-1.8-.6-5,14.8-7.1,10.3-1.1,1.2-.4-5.1-4.5-7.7,6.8-8-1.4-1.2-7.7,9,5,8.5.8,10.6-8.9-7.7-4.7-18.1,2.1-10.7-1.4-6.6,4.2-5.2-1.5-1.2-4.7,5.9,1.5,7.1-2.1,10.7,4.3,16.4-6.7-4.3,1.4-10.6-6.1-7.6-1.5,1.2,5.6,7-1.5,11,9.5,6,2.2,7.9h11.8l.5-.9,4.5-.9-.4-1.9-2.9.6,6.2-11.4-1.7-.9-7.3,13.5h-.5l-.2-2.9,2.4-2.5Zm-18.2,16.1L1267,269l4.3,3.7Z"/>
      <path class="cls-1" d="M1281.3,272.6a1.11,1.11,0,0,1-1.1-1.1v-.2a.71.71,0,0,1,.3-.6l5.7-10.5-1.7-.9-3.7,6.7a29.24,29.24,0,0,1-2.3,5.4,9,9,0,0,1-1.4,1.4h-.5l-.1-1.5a.45.45,0,0,1,0-.5l-.1-.8.9-1a25.32,25.32,0,0,0,1.8-5.5l-1.8,2.7-1.1,1.2-.4-5.1-4.5-7.7,6.8-8-.9-.8a71,71,0,0,1-7.3,9.1c3.5,4.3,6.7,10.1,4.6,15.3l.3,3.3-2-1.8c-5.8-2.1-9.5-7.4-8.8-13.6l-2.7-10.4,2.1-10.7-1.4-6.6,4.2-5.2-.8-.7c-1.7,2.4-3.4,4.8-5,7.3l.7,3.3a.85.85,0,0,1,.3.5c1.5,3.7-.2,7.7-1.8,11.1l-.2,1.1,4.3,16.4-6.7-4.3,1.4-10.6-5.5-6.8c.9,2.8,3.2,4.9,4.9,7.4.7,1-.7,2.1-1.6,1.5l-1.3,9.5,1.6,1a1.19,1.19,0,0,1,1.4-.4c5.7,2.3,8.5,7.6,10,13.3h10.5l.5-.9,4.5-.9v-.1A7.61,7.61,0,0,0,1281.3,272.6Zm-13.2.1L1267,269l4.3,3.7Z"/>
      <path class="cls-1" d="M1289.9,241c-1.3,7-2.6,14.3-8,19.1a13.69,13.69,0,0,1-.4,3.4l4.7-6.9,5-15.1Z"/>
      <path class="cls-3" d="M1293.6,255.3c-1.7.8-3.6,1.6-3.6,1.6l2.6-2.6a10.72,10.72,0,0,1-2.2-1,15.88,15.88,0,0,1-3.5-3.4s-1,.8-1.9,1.6a13.46,13.46,0,0,0-1.6,2l-1.8-1a25.78,25.78,0,0,0-3.5-1.6,9.07,9.07,0,0,0-1.3,5.4,9.31,9.31,0,0,0,1.7,4.7,15.59,15.59,0,0,0-8.3,1l.5,2.3c2.9-.9,6.7-2,8.7.2l3,2.9a11.72,11.72,0,0,0,5.9,3.3,16.14,16.14,0,0,0,5-7.3,13.48,13.48,0,0,0,.6-8.2Z"/>
      <path class="cls-3" d="M1264.9,216.3a20.1,20.1,0,0,1-.6,2.7,6.15,6.15,0,0,0-.7-2.1,9.22,9.22,0,0,0-.5-.8h-.4a7.84,7.84,0,0,0-7.7,8.3s5.4,0,8.2,1.6a9.25,9.25,0,0,1,3.8,4,7.52,7.52,0,0,0,3.5-6.8C1270.7,219.1,1268.3,217,1264.9,216.3Z"/>
      <path class="cls-3" d="M1268.3,233.1c-1.7-4.2-4.9-5.5-10.4-5.1a5.82,5.82,0,0,0-1.9.3,12.08,12.08,0,0,1,.6,3.4,39.19,39.19,0,0,1,0,4.1,26.35,26.35,0,0,0-3.4-4.9,15,15,0,0,0-1.1-1.3c-1.8.4-3.4,1.1-5.9,4.3a15,15,0,0,0-2.2,5.4,1.27,1.27,0,0,1,.6.1c3.6.5,4.8,1.3,4.8,1.3l-5.5.7a5.1,5.1,0,0,0,1.3,4.5,4.92,4.92,0,0,0,2.7,1.6,19.41,19.41,0,0,1,9.5-5.4,33.41,33.41,0,0,1,9.5-.8S1270,237.3,1268.3,233.1Z"/>
      <path class="cls-3" d="M1296.1,240.1l6.1-5.9c-.9-3.9-6.2-5-8.7-5.3a17.32,17.32,0,0,0-5.5.5,7.54,7.54,0,0,0-4.7-4.4l-.9-.3c-.1.2-.2.5-.3.7-1.5,3.6-2.4,6.3-2.4,6.3a19.22,19.22,0,0,1-.4-5.5c0-.6.1-1.2.1-1.8a10.72,10.72,0,0,0-8.1,4.4c-2.4,3.8-1.7,7.7.8,13.3.2.3.3.7.5,1l3.5-2.7-1.8,5.7a11.48,11.48,0,0,0,4.3,3.7,14.22,14.22,0,0,0,4.3,1.6l4.2-5.5,4.2,6.5s6.3-1.2,8.8-5a16.17,16.17,0,0,0,2.5-8.9Z"/>
      <path class="cls-3" d="M1276.9,251.2s-.6-2.8-5.3-5.9l-3.1,4.5.9-5.3a5,5,0,0,0-1.2-.2c-8.1-1.2-13.2,1.1-16,3.2a8.52,8.52,0,0,0-1.7,1.6l2.8,4.5a51.23,51.23,0,0,1-5.3-1.1,22.58,22.58,0,0,0-2.6,7.7,16.23,16.23,0,0,0-.1,2.1,5.84,5.84,0,0,0,1.8.4l-1.6.6c.9,3,4.4,3.3,8.4,2a55.51,55.51,0,0,0,10.8-5.2,40.93,40.93,0,0,0,7.4,0c3.3-.4,4.3-1.1,4.3-1.1a7,7,0,0,1-.8-3.4A11.29,11.29,0,0,1,1276.9,251.2Z"/>
      <path class="cls-4" d="M1276.1,260.8a15.81,15.81,0,0,0-5.8,1.2l.1.5a60,60,0,0,1,10.4.8C1279.3,262.4,1277.7,261.6,1276.1,260.8Z"/>
      <path class="cls-4" d="M1280.6,259.1a105.67,105.67,0,0,1,12.6,4.8l.3-.6a13.77,13.77,0,0,0,.9-4.5A90.88,90.88,0,0,0,1280.6,259.1Z"/>
      <path class="cls-4" d="M1280.3,251.9c-1.2-.6-2.2-1-2.2-1a9,9,0,0,0-1.3,4.2A37,37,0,0,1,1280.3,251.9Z"/>
      <path class="cls-4" d="M1281.3,255.7A76.89,76.89,0,0,1,1292,254a8.86,8.86,0,0,1-1.7-.8,7.46,7.46,0,0,1-1.7-1.4A39.32,39.32,0,0,0,1281.3,255.7Z"/>
      <path class="cls-4" d="M1257.9,217.8c-1.3,2.1-2.1,4.8-1.3,6.7a2.2,2.2,0,0,1,.8.1,19.75,19.75,0,0,1,2.9-8.1A5.64,5.64,0,0,0,1257.9,217.8Z"/>
      <path class="cls-4" d="M1264.9,218.7c.7-.6,1.4-1.1,2.2-1.7a8.08,8.08,0,0,0-2.2-.7,6,6,0,0,0-.2,1.2C1264.8,218,1264.8,218.4,1264.9,218.7Z"/>
      <path class="cls-4" d="M1269.5,219.5a44.65,44.65,0,0,0-4.3,3.3c-1,.9-2.1,1.8-3.1,2.7l.5.2a85.63,85.63,0,0,1,7.9-4.2,10.23,10.23,0,0,0-.8-2.1Z"/>
      <path class="cls-4" d="M1266.2,228.6a8.14,8.14,0,0,1,.9,1.5,6.8,6.8,0,0,0,2.5-2.6C1268.5,227.8,1267.4,228.2,1266.2,228.6Z"/>
      <path class="cls-4" d="M1253,243.7a18,18,0,0,0-8,2.1l.2.2a4.92,4.92,0,0,0,2.7,1.6,20.12,20.12,0,0,1,5.3-3.9Z"/>
      <path class="cls-4" d="M1256.6,235.8a5.55,5.55,0,0,0,.6.8,67.88,67.88,0,0,1,10.9-4.1c-1.8-3.8-4.9-4.9-10.2-4.5a10.79,10.79,0,0,0-1.9.3,12.08,12.08,0,0,1,.6,3.4C1256.7,234.2,1256.6,235.5,1256.6,235.8Z"/>
      <path class="cls-4" d="M1256.4,235.4a42,42,0,0,0-3.1-4.5,15,15,0,0,0-1.1-1.3,6.36,6.36,0,0,0-1.8.6A15.76,15.76,0,0,1,1256.4,235.4Z"/>
      <path class="cls-4" d="M1246.6,233.6l-.3.4a10.1,10.1,0,0,0-1.6,3.1,27.81,27.81,0,0,1,7.6.5l1.5.3C1252.3,235.5,1249.3,234.2,1246.6,233.6Z"/>
      <path class="cls-4" d="M1261.1,239.6c2,.5,4,1.1,5.9,1.6a10.29,10.29,0,0,0,1.5-3.3C1266,238.4,1263.5,238.9,1261.1,239.6Z"/>
      <path class="cls-4" d="M1248.1,240.9l-4.2.5a4.84,4.84,0,0,0,0,1.7,13.39,13.39,0,0,1,4.7-2.2Z"/>
      <path class="cls-4" d="M1278.4,247.4h-.3a9.75,9.75,0,0,1,1.4.6,8,8,0,0,1,1.3-1.3A21.72,21.72,0,0,1,1278.4,247.4Z"/>
      <path class="cls-4" d="M1292.7,252.2c2-.6,5.4-1.9,7.2-4.4C1296.5,248.2,1292.8,249.3,1292.7,252.2Z"/>
      <path class="cls-4" d="M1274,226.2a25.52,25.52,0,0,0,4,8.7,34.24,34.24,0,0,1-.8-10.1A13,13,0,0,0,1274,226.2Z"/>
      <path class="cls-4" d="M1273.7,237.3a26.18,26.18,0,0,1-2.6-8.2c-1.7,2.9-1.7,5.8-.5,9.5C1271.7,238.1,1272.7,237.7,1273.7,237.3Z"/>
      <path class="cls-4" d="M1288,229.4a7,7,0,0,0-3-3.6,24.29,24.29,0,0,1,1.7,8.9,62.8,62.8,0,0,1,5.6-5.9A17.81,17.81,0,0,0,1288,229.4Z"/>
      <path class="cls-4" d="M1297.5,229.8a39.74,39.74,0,0,0-6.6,5.7,20,20,0,0,0-1.4,1.6,102.34,102.34,0,0,1,12-4.6A8.89,8.89,0,0,0,1297.5,229.8Z"/>
      <path class="cls-4" d="M1252.4,264.3a28.13,28.13,0,0,0-6.5.2,4.41,4.41,0,0,0,3.2,1.7A13.5,13.5,0,0,1,1252.4,264.3Z"/>
      <path class="cls-4" d="M1254,256.8a25.11,25.11,0,0,0-6.9-2.6,18,18,0,0,0-1.4,4.1,60,60,0,0,1,11.2.5A29.77,29.77,0,0,0,1254,256.8Z"/>
      <path class="cls-4" d="M1251.7,251.4l.8,1.2a5.39,5.39,0,0,1,1.3.7A12.86,12.86,0,0,0,1251.7,251.4Z"/>
      <path class="cls-4" d="M1257.8,250a19.79,19.79,0,0,1-1.5-4.7,25.31,25.31,0,0,0-4.1,2.2l-.1.1a30.57,30.57,0,0,1,7,6.9C1258.7,253,1258.3,251.5,1257.8,250Z"/>
      <path class="cls-4" d="M1263.1,244a21,21,0,0,0-3.7.4,6.89,6.89,0,0,0,.4,1c.8,2.1,1.7,4.3,2.4,6.4Q1262.5,247.9,1263.1,244Z"/>
      <path class="cls-4" d="M1268.7,244.4c-.2,0-.4-.1-.6-.1s-.4-.1-.6-.1a19.42,19.42,0,0,1-.2,2.4C1267.8,245.9,1268.2,245.1,1268.7,244.4Z"/>
      <path class="cls-4" d="M1269.8,249.7c-.6.7-1.1,1.4-1.6,2.1a77.72,77.72,0,0,1,7.6-2.8,12.11,12.11,0,0,0-2.8-2.7C1271.9,247.5,1270.8,248.5,1269.8,249.7Z"/>
      <path class="cls-4" d="M1276.7,251.4a27,27,0,0,0-10.1,6.5v.5a67.21,67.21,0,0,1,8.5-3.2h.5a13.58,13.58,0,0,1,1.1-3.8Z"/>
      <path class="cls-1" d="M1313.6,293.4l-2.1,3.5-.9,1.9-2.3-4-.7-2.6,3.1-1.3,1.5-2.8h-.6l-1.6,1.8-2.3.6,1.2-4.1,2.9-1.2-3.5.4.2-5.3h-1.3l-.6,6.2-.7,2.7-1.6-3.7-1.4-9.2-1.2,1,.8,7.6.5,2.6,1.6,4.9-2.7,2.2.8-6.2-.9-.6-4.3-9.4-.4,2.2-1.2-7-1.1,2.2,2.2,10.8-4.2-2.8-.4.8,4.6,3.2-.6,4.1-.6,5.2-.1-.4-2.9-8.9-2.2-4.8-.3,2.8,3.1,9.6-3.5-.8-2.3-1-3.3-2.1,1.9,2.4,2.5,1.6,5.4,1.7.7,3.1h6l.6-3.1,4-2.8,1.8,5.3v.6h4.8l.8-2.5,3-5.3Zm-14.2.8-1.7,4.5.1-4.4.7-4.9-.7-5.6-.3-1.9,3.3,7.3Z"/>
      <path class="cls-2" d="M1292.4,286.6l-.6-1.3h0a60.47,60.47,0,0,1,.4,6.1h0a16.22,16.22,0,0,0,.1-4.4Z"/>
      <path class="cls-2" d="M1291.6,294.9l-1.6-.4-1.2-.5a8.79,8.79,0,0,1,.6,1A15.48,15.48,0,0,0,1291.6,294.9Z"/>
      <path class="cls-2" d="M1293.8,294.5a16.55,16.55,0,0,0,.6-2.1v-.1l-.5-1.4c-.1,1.1-.3,2.2-.5,3.4l-.1.2Z"/>
      <path class="cls-2" d="M1295.4,295.4h0a1,1,0,0,1-.4.5c-.2.5-.3.9-.5,1.4l.3.6a8.33,8.33,0,0,0,.4-1.5A3,3,0,0,0,1295.4,295.4Z"/>
      <path class="cls-2" d="M1299.9,284.1a3.4,3.4,0,0,1-.1-1l-1.1-2.5c.1.6.1,1.2.2,1.9A3.36,3.36,0,0,0,1299.9,284.1Z"/>
      <path class="cls-2" d="M1301.8,288l-.2-.4-.2-.1c-.2-.2-.3-.4-.5-.6-.5-.4-1.2-.8-1.8-1.2v.1l.1.3.2.2c.4.9,1.3,1.4,1.9,2.1a7.61,7.61,0,0,1,1.2,1.9v-.2A5.22,5.22,0,0,0,1301.8,288Z"/>
      <path class="cls-2" d="M1301.2,291.6a2,2,0,0,0-.9-.9,20.59,20.59,0,0,1-1.8,9.6h.3a7.07,7.07,0,0,1,2.4-3.3,6.07,6.07,0,0,0,.1-5.1Z"/>
      <path class="cls-2" d="M1304.3,285.3h0v-.4c-.8-2.7-1.4-5.4-2.3-8l-.2.2.5,4.2a37.65,37.65,0,0,0,2.4,7.4C1304.6,287.6,1304.5,286.5,1304.3,285.3Z"/>
      <path class="cls-2" d="M1307.8,300.2h.8c.4-1,.7-2,1-3l-.5-.9C1308.7,297.6,1308.3,298.9,1307.8,300.2Z"/>
      <path class="cls-2" d="M1306.4,297.3l.3,1c.4-1.1.8-2.3,1.1-3.4C1307.4,295.7,1306.9,296.5,1306.4,297.3Z"/>
      <path class="cls-2" d="M1307.2,284.9a10.59,10.59,0,0,1,1.2-1l.1-3.7h-1.3l-.5,5.4A1.79,1.79,0,0,1,1307.2,284.9Z"/>
      <path class="cls-2" d="M1308.8,285.6l-.4.4a11.91,11.91,0,0,0-1.9,3.5v.1c.4-.2.8-.5,1.3-.7A12.6,12.6,0,0,1,1308.8,285.6Z"/>
      <path class="cls-2" d="M1310,289.7l-.1.1-.2.1a16.89,16.89,0,0,0-3.2,1.9v.7a10.2,10.2,0,0,1,4.6-2.4l.9-1.7A22.63,22.63,0,0,1,1310,289.7Z"/>
      <path class="cls-2" d="M1312.9,294.5l-1.2,2c-.4,1.2-.8,2.5-1.2,3.7h.4c.5-1.2,1.1-2.3,1.6-3.4A22.31,22.31,0,0,1,1312.9,294.5Z"/>
      <path class="cls-2" d="M1297,282.4a.59.59,0,0,1,.1-.7,47.22,47.22,0,0,0-1.4-7.5l-.4.8a25.75,25.75,0,0,1,.8,4,28.1,28.1,0,0,1,.1,2.9l.9,4.6-4.2-2.8-.1.3a7.88,7.88,0,0,1,3.4,3.1l.9.7-.1,1a31.37,31.37,0,0,1,0,8.1,13.52,13.52,0,0,1-1.1,3.4h.8l.1-.2a13.55,13.55,0,0,0,1-2.1l.1-3.6v-.2c-.1-3.8-.2-7.5-.6-11.2A3.33,3.33,0,0,0,1297,282.4Z"/>
      <path class="cls-3" d="M1311.4,287l-1.6,5.5a9,9,0,0,1,2.9,1.6,19.74,19.74,0,0,1,3.1,3.1,6,6,0,0,0,2.7-.8l-1.5-1.3.5-1.2,2.3,1.7a5.84,5.84,0,0,0,1.6-2.1,16.15,16.15,0,0,0,1.6-5.9Zm3.2,3a14.49,14.49,0,0,0-2.3,0s.2-.4,1.3-.9a5.94,5.94,0,0,1,2.2-.5l1.5,1.9A8.53,8.53,0,0,0,1314.6,290Z"/>
      <path class="cls-4" d="M1315.9,287.2h0a20,20,0,0,0-4.5,1.7c.9,0,1.7.1,2.6.1a7.32,7.32,0,0,1,1.8-.4A7.08,7.08,0,0,1,1315.9,287.2Z"/>
      <path class="cls-4" d="M1317.2,292.2a4.43,4.43,0,0,1,1.5,1.2,6.06,6.06,0,0,1,1.1,2.1,5.67,5.67,0,0,0,1.5-2.1,15.19,15.19,0,0,0,.8-2.2A15.83,15.83,0,0,1,1317.2,292.2Z"/>
      <path class="cls-3" d="M1288.7,292.9a9.2,9.2,0,0,0-.2-1.7,26.45,26.45,0,0,0-6.3-2.8,19.17,19.17,0,0,0-7.7-.4,7.88,7.88,0,0,0-1.1,3.7,37.55,37.55,0,0,1,4,.4s-1-.1-4.2,1.5c-.1,3.2.5,3.9.5,3.9a13.92,13.92,0,0,1,3.2-1,8,8,0,0,1,2.9-.2l-1.9,1.1a14.32,14.32,0,0,0,1.4,3,7.43,7.43,0,0,0,2.6,2.7s1.2-1.3,3.2-3.7a12.48,12.48,0,0,1,3.4-3.1A19.29,19.29,0,0,0,1288.7,292.9Z"/>
      <path class="cls-4" d="M1277,292.1a16.72,16.72,0,0,0-3.8,1.4v2.1C1274.4,294.4,1275.7,293.2,1277,292.1Z"/>
      <path class="cls-4" d="M1282.3,288.4h0a19.64,19.64,0,0,0-7.8-.4,7.88,7.88,0,0,0-1.1,3.7,20.25,20.25,0,0,1,3.7.4A37.74,37.74,0,0,1,1282.3,288.4Z"/>
      <path class="cls-4" d="M1284.2,291.8c-2.1,3.1-3.7,7.5-2,10.8.5-.5,1.4-1.6,2.7-3.2A24,24,0,0,1,1284.2,291.8Z"/>
      <path class="cls-3" d="M1321.9,281.5l-.2-.5,3.3-.6a30.82,30.82,0,0,0-3-10.8,29.17,29.17,0,0,0-7.4-9l-3.5,3.7,1.2-1.9a11,11,0,0,0-4.5-2.8,20.5,20.5,0,0,0-4.3-1.3l-1.7,6.8-.5-.1a29.84,29.84,0,0,0,.2-6.7c-.3-3.8-.3-4.5-.3-4.5h-1.8s-.4-.9-.9-2.2l-.5-1.3a36.86,36.86,0,0,0-5.4,1.8,24.4,24.4,0,0,0-5.1,2.7,39.55,39.55,0,0,1,3.9,6.6,61,61,0,0,1,2.9,7.7l-1.2.6a28.3,28.3,0,0,0-3.2-7.8l-2.5-4.3-1.2.4-3-3.2a40.38,40.38,0,0,0-6.5,6.5,81,81,0,0,0-5.6,7.8,46.57,46.57,0,0,0,4.3,3,16,16,0,0,1,3.9,3.5l-.3.5-2.7-1.3h-.8l1.1,1.1-4.8-2s-1,1.3-1.8,5a31,31,0,0,0-.8,5.9l15,1.6,5.3,4.3a18.59,18.59,0,0,1,4.2-5c4.5-3.5,8.6-3.6,11.3-2.9s5.7,3.6,5.7,3.6a53.29,53.29,0,0,0,7-1.1c4.1-.9,7.1-1.8,7.1-1.8l-.6-2.6Zm-41.4,2.2a15.22,15.22,0,0,1-3.1-.3l.6-1.7a8.53,8.53,0,0,0,2.2.5,15,15,0,0,0,2.3,0l.6,1.2A8.23,8.23,0,0,1,1280.5,283.7Zm8.2-6.4-2.7-7.8a16.41,16.41,0,0,1,3.5,3.8c1.7,2.4,1.5,4,1.5,4Zm2.9,6.6-1.8-4s1,.5,2.1,1a6.52,6.52,0,0,1,1.7,1.3Zm7.9-8.7-1.5-4,2.7,3.1Zm5.7-5.7a8.62,8.62,0,0,1-.2,1.9l-2.4-.8a13.35,13.35,0,0,1,1.3-1.5,7.41,7.41,0,0,0,1.3-1.9Zm5.5,5.4-1.2-.5a15.11,15.11,0,0,0,1.3-3.3c.5-1.9.9-3.4.9-3.4l1.6-1.1Zm6.2,5.7a7.41,7.41,0,0,1-4.3,1.1l2.8-2.8a22.75,22.75,0,0,0,2.4-2.8l2.4,1.2A15,15,0,0,1,1316.9,280.6Z"/>
      <path class="cls-4" d="M1274.4,277.6l-3.9-.3c-.1.5-.3,1.1-.4,1.7a20.69,20.69,0,0,0-.4,2.2l7.6-.3A8.48,8.48,0,0,1,1274.4,277.6Z"/>
      <path class="cls-4" d="M1273.9,268.8a28.1,28.1,0,0,0,2.9.1v-1.5a13.51,13.51,0,0,0-1.1-4.5c-1.8,2.3-3.1,4.3-3.8,5.4A11.7,11.7,0,0,0,1273.9,268.8Z"/>
      <path class="cls-4" d="M1286.2,270.1a15.42,15.42,0,0,0-4.7-3.7h-.3a35.46,35.46,0,0,1-.9,7.2c1.7.1,3.3.1,4.7.2.9.1,1.8.1,2.6.2Z"/>
      <path class="cls-4" d="M1283.4,255l-.1-.1a30,30,0,0,0-3.9,3.5,19.56,19.56,0,0,1,1.3,4.1A11.72,11.72,0,0,0,1283.4,255Z"/>
      <path class="cls-4" d="M1292.7,267.9a34.2,34.2,0,0,0-2.7-5.9c-.6-1-1.1-1.8-1.4-2.4-.6-.5-1.2-1-1.8-1.6h-.1c-.5,4.7,2.3,9.8,6.1,12.8A14.31,14.31,0,0,0,1292.7,267.9Z"/>
      <path class="cls-4" d="M1298.4,265h0a10,10,0,0,0-3.8-3,25.06,25.06,0,0,1,1.5,7.7c.8-1.4,1.6-2.9,2.3-4.4V265Z"/>
      <path class="cls-4" d="M1300.5,258a26.29,26.29,0,0,0,.6-3.9v-.2h-1.8s-.4-.9-.9-2.2l-.5-1.3a36.86,36.86,0,0,0-5.4,1.8c-1.2.5-2.2,1-3,1.4l.1.1C1293.3,254,1297.9,255.3,1300.5,258Z"/>
      <path class="cls-4" d="M1305.5,266.6a28.19,28.19,0,0,0,3.7-6.3c-.5-.2-1-.5-1.6-.7-1.6-.6-2.7-.9-3.4-1.1C1305.5,260.8,1305.7,263.8,1305.5,266.6Z"/>
      <path class="cls-4" d="M1302.7,266.3a14.92,14.92,0,0,0-.2-2.1,41.74,41.74,0,0,1-3.1,6.8,7.49,7.49,0,0,1,1.6.4c.6-.5,1.1-1,1.6-1.5C1302.7,268.7,1302.7,267.5,1302.7,266.3Z"/>
      <path class="cls-4" d="M1316.3,265a3.57,3.57,0,0,0,2.9,3.2,7.61,7.61,0,0,0,2.1.3,30.11,30.11,0,0,0-4.8-6.1A21.12,21.12,0,0,1,1316.3,265Z"/>
      <path class="cls-4" d="M1310.7,264.9a30,30,0,0,1-5.3,7l3.6-.3C1309.5,269.4,1310.1,267.1,1310.7,264.9Z"/>
      <path class="cls-4" d="M1319,275.6a9.91,9.91,0,0,0,5.7,3.4,28.46,28.46,0,0,0-1-4.4A29.83,29.83,0,0,1,1319,275.6Z"/>
      <path class="cls-4" d="M1315.6,276.8l-.1-.1a13.18,13.18,0,0,0-8.6,5.6C1310.3,281.3,1313.6,279.7,1315.6,276.8Z"/>
      <path class="cls-4" d="M1318.5,284a8.77,8.77,0,0,0-3.3,1.8c.8-.1,1.6-.3,2.6-.5,2.5-.6,4.5-1.1,5.8-1.4A12.52,12.52,0,0,0,1318.5,284Z"/>
      <path class="cls-4" d="M1284.9,286.9l4,3.3a11.41,11.41,0,0,1,3.3-6.2l-.4.1A23.28,23.28,0,0,0,1284.9,286.9Z"/>
      <path class="cls-6" d="M1296.6,290.4l-2.6-2.9a11.83,11.83,0,0,1,2.6-2c1.7-.9,2.4-1.2,2.4-1.2Z"/>
    </g>
    <g>
      <polygon class="cls-1" points="844.1 699.3 833.1 704.1 828.6 705.1 833.6 695.8 831.1 693.9 824.9 706.6 821.2 712.5 820 716.1 824 716.4 825.9 708.9 834.5 705.6 845.4 702.5 844.1 699.3"/>
      <polygon class="cls-1" points="808.2 694.7 806.4 692 797.8 700 796.7 702.8 793.1 696.6 790.3 686.1 789 688.1 791.5 698.9 794 705.6 794.8 707.5 790.6 718.2 795.6 718.6 796.8 714.7 796.7 717.4 801.9 717.8 799.1 707.3 800.4 703.1 808.2 694.7"/>
      <polygon class="cls-1" points="768.9 713.2 767.9 712.1 766.8 707 765.9 691.2 763.4 688.7 762.2 707.6 762.8 718.7 770.6 719.3 768.6 715.3 768.9 713.2"/>
      <polygon class="cls-1" points="745.6 697 747.4 688.7 744 693.2 740.6 683.9 738.1 671.1 736 670.9 736.7 680.6 739.9 692 743.5 700.8 744.6 704.8 746.5 712.3 746.2 715.8 745.1 718.5 752 719.1 752.9 717.9 754.6 716.6 749.9 705.7 745.6 697"/>
      <path class="cls-2" d="M844.1,699.3l-11,4.8-7.9,2.6,4.4-6.2,3-3.7c-1.4,1.1-2.2,2.3-3.8,1.9l-3.8,7.8-2.6,6.9-2.3,2.6,1.1.1a9.74,9.74,0,0,1,1.5-2.4c1.3-4.6,5.2-7.1,9.4-7.8.3,0,.5-.1.8-.1,3.9-1.8,7.8-3.5,11.7-5.5Z"/>
      <path class="cls-2" d="M806.4,692l-2.9,2.7a7,7,0,0,1-2.2,2l-3.6,7.3-1.1-1.2-5.1-6.2,1.2-1.5a9.2,9.2,0,0,1-2.1-7.5l-.4-1.5-1.3,1.9,2.3,10c4.9,2.5,5.4,10.2,1.8,13.7l-2.5,6.3,1.8.1a5.91,5.91,0,0,1,2.7-5.2l1.7-5.7.2,5.8.1.1c.2.4-.1,1.3.3,3.1a2.34,2.34,0,0,0,1.2,1.2c-.9-3.1,1.2-4.4-.5-7.5a7.06,7.06,0,0,1-.6-4.3l2.8-6.4,1.1,2.5c0-3.8,2.2-7.4,6.2-7.8Z"/>
      <path class="cls-2" d="M763.7,710.8a31.67,31.67,0,0,1,2.4-15l-.3-4.6-2.5-2.5-1.2,18.9.6,11.1,3.4.3A23.75,23.75,0,0,1,763.7,710.8Z"/>
      <path class="cls-2" d="M747.7,709c-1.2-3.4-3.4-8.2-2.7-12.7a12,12,0,0,1,1.8-4.8l.6-2.7-3.5,4.4-3.3-9.2-.1-.7-3,.3.7,2.5a76.5,76.5,0,0,1,4.9,12.1c2.3,7.2,4.8,13.6,6.4,20.8l2.6.2.8-1.2.2-.1A27.26,27.26,0,0,1,747.7,709Z"/>
      <path class="cls-3" d="M794.3,678.8l-27.2-31.9a6.19,6.19,0,0,0-6.7-2l-33.5,10.7a7.13,7.13,0,0,0-4.3,4.2l-11.2,30.5a7.55,7.55,0,0,0,2.7,8.8l6.6,4.3a6,6,0,0,0,5.9.5l21.8-9.7a6.25,6.25,0,0,1,5.5.2l17,9.4a6.06,6.06,0,0,0,7.2-.9l15.4-13.8A7.29,7.29,0,0,0,794.3,678.8Zm-48.9,8.6-9.2,2.5c-2.1.6-3.8-1.6-3.1-3.8l4.9-13.6a2.5,2.5,0,0,1,4.8,0l4.2,11.1A2.73,2.73,0,0,1,745.4,687.4Z"/>
      <path class="cls-3" d="M803.8,681l-4,9.7a4.9,4.9,0,0,0,1.6,5.7l12.1,8a3.9,3.9,0,0,0,5.6-1.3l18.9-30a4.87,4.87,0,0,0,.4-4.4L829.5,647a4,4,0,0,0-1-1.5l-15.1-14.9a3.9,3.9,0,0,0-5.4-.2l-16.8,14.8a4.5,4.5,0,0,0-1.5,3.7l.5,16.3a4.51,4.51,0,0,0,2,3.7l9.9,6.4A4.53,4.53,0,0,1,803.8,681Z"/>
      <path class="cls-3" d="M829.1,698.7l11.1,6.7a5.87,5.87,0,0,0,6.7-.3l9-6.6a5.54,5.54,0,0,0,.7-8.3l-8.4-8.9a6.24,6.24,0,0,0-8.1-.7l-11.7,8.9A5.49,5.49,0,0,0,829.1,698.7Z"/>
      <path class="cls-4" d="M733.5,691.7c-2.6-13.6,1.7-28.4,9.3-41.3l-16,5.1a7.13,7.13,0,0,0-4.3,4.2l-11.2,30.5a8.24,8.24,0,0,0-.4,3.5A35.38,35.38,0,0,1,733.5,691.7Z"/>
      <path class="cls-4" d="M764.9,695.2c.7.7,1.4,1.3,2.1,2,9.7-9,11.1-26.9,8-41.1l-7.9-9.2a4.71,4.71,0,0,0-1.5-1.3,80.72,80.72,0,0,0-15,23.4,33.14,33.14,0,0,0-3.1,14.8C754.2,686.1,759.6,690.2,764.9,695.2Z"/>
      <path class="cls-4" d="M816,643.8a36,36,0,0,1,6.2-4.5l-8.8-8.7a3.9,3.9,0,0,0-5.4-.2l-16.8,14.8a2.7,2.7,0,0,0-.7.8c-.1,6.8.2,13.7,4,18.9a20.82,20.82,0,0,0,10.1,7.3A33.34,33.34,0,0,1,816,643.8Z"/>
      <path class="cls-4" d="M834.7,659.7l-2.9-7.1c-5.4,2.4-10,6.4-11.6,11.9C825.5,665.9,830.4,663.4,834.7,659.7Z"/>
      <path class="cls-4" d="M807,690.1c-2.5,1.1-5,2.2-7.4,3.4a4.23,4.23,0,0,0,1.9,2.8l5.8,3.9A12.65,12.65,0,0,0,807,690.1Z"/>
      <path class="cls-4" d="M838.4,695.8c5.2-5,12.7-4.7,19.6-2.7a7.09,7.09,0,0,0-1.4-2.9l-8.4-8.9-.2-.2c-7.5,4.1-14.7,9.3-20,16.3l-.2.3a6.89,6.89,0,0,0,1.3,1.1l5.7,3.5A12.35,12.35,0,0,1,838.4,695.8Z"/>
      <path class="cls-4" d="M834,663.3A82.36,82.36,0,0,0,812.9,650s.2.3.6.8,1,1.2,1.7,2a46.23,46.23,0,0,0,5.9,5.5,27.32,27.32,0,0,0,8.2,3.7A37.41,37.41,0,0,0,834,663.3Z"/>
      <path class="cls-4" d="M803,657.3a78.55,78.55,0,0,0-18.6-2.5s1.4-2.9,7.6-2.6a21.47,21.47,0,0,1,4.4.9,22.84,22.84,0,0,1,3.5,1.8,12.44,12.44,0,0,1,2.3,1.7C802.7,657,803,657.3,803,657.3Z"/>
      <path class="cls-5" d="M815,665.6c-2.4-1.3-4.8-2.5-7.3-3.6a8,8,0,0,0,.3,1.9,7.56,7.56,0,0,0,2.2,3.5,2.43,2.43,0,0,0,3.3-.1A7,7,0,0,0,815,665.6Z"/>
      <path class="cls-4" d="M794.2,660c-2.1-.4-4.1-.8-6.2-1l-3.1-.3-3.1-.1a5,5,0,0,0,1,1.4,5.46,5.46,0,0,0,3.3,1.7c1.5.3,3.6-.3,5.2-.7S794.2,660,794.2,660Z"/>
      <path class="cls-4" d="M804.8,649c-2.5-.8-5-1.3-7.5-2,0,0-.1,1.1,2.9,2.6a3.85,3.85,0,0,0,3.4.3A2.66,2.66,0,0,0,804.8,649Z"/>
      <path class="cls-5" d="M787.9,648.9a78,78,0,0,0-19.9.5,11.85,11.85,0,0,1,2.4-1.9,15,15,0,0,1,6.5-2.3,14.75,14.75,0,0,1,8.4,1.6,13.31,13.31,0,0,1,2,1.4C787.7,648.7,787.9,648.9,787.9,648.9Z"/>
      <path class="cls-4" d="M780,654.1a77,77,0,0,0-8.3.5,3.77,3.77,0,0,0,3.7,2.1,4.36,4.36,0,0,0,3.3-1.3A6.7,6.7,0,0,0,780,654.1Z"/>
      <path class="cls-4" d="M769.2,663.4a68.86,68.86,0,0,0-14,3.7,6,6,0,0,1,.7.3,12.38,12.38,0,0,0,1.9.5,20.24,20.24,0,0,0,2.6.4,17.09,17.09,0,0,0,3.1-.3,8.44,8.44,0,0,0,2.7-1.1,8.62,8.62,0,0,0,1.7-1.5A6.32,6.32,0,0,0,769.2,663.4Z"/>
      <path class="cls-4" d="M782.8,664.3c-1.5.2-3,.3-4.5.6,0,0-.3-2.6,1.7-2.4A4.25,4.25,0,0,1,782.8,664.3Z"/>
      <path class="cls-4" d="M756.8,657.2a60.47,60.47,0,0,0-7,5.2,12.53,12.53,0,0,0,1.4-.1,7.09,7.09,0,0,0,3.2-1.2,5.2,5.2,0,0,0,2.1-2.5A4.41,4.41,0,0,0,756.8,657.2Z"/>
      <path class="cls-4" d="M760.9,654.5a44.05,44.05,0,0,0-5.2-.3L753,654l-2.6.1a9.2,9.2,0,0,1,1.5-.9,13.33,13.33,0,0,1,4.4-1.1,4.78,4.78,0,0,1,3.7,1.1A3,3,0,0,1,760.9,654.5Z"/>
      <path class="cls-4" d="M749.1,657c-2.1.9-4.1,2-6.1,3-1.9,1.2-4,2.2-5.8,3.5a3.77,3.77,0,0,0,1.5.2,15.82,15.82,0,0,0,5.4-1.3c2.7-.9,3.9-2.2,4.5-3.4A3.71,3.71,0,0,0,749.1,657Z"/>
      <path class="cls-4" d="M748.6,671.8l-4,2.2-3.9,2.4a7.24,7.24,0,0,1,.3-1.7,13.4,13.4,0,0,1,2-4,2.7,2.7,0,0,1,3.6-.8,5.32,5.32,0,0,1,1.8,1.4Z"/>
      <path class="cls-4" d="M765,643a85.42,85.42,0,0,0-13,3.3,13,13,0,0,1,1.6-1.5,8.85,8.85,0,0,1,3.5-2,19.28,19.28,0,0,1,4.9-.2C763.7,642.8,765,643,765,643Z"/>
      <path class="cls-4" d="M794.4,642.9a33.27,33.27,0,0,0-5.4-.7l-2.7-.3-2.7-.1a4.45,4.45,0,0,0,1.1,1.1,13.48,13.48,0,0,0,4.1,1.8,5.55,5.55,0,0,0,4.3-.5A4.37,4.37,0,0,0,794.4,642.9Z"/>
      <path class="cls-4" d="M825,673.6c-.9-.8-1.9-1.6-2.8-2.3a4,4,0,0,0,.8,2A3.29,3.29,0,0,0,825,673.6Z"/>
      <path class="cls-4" d="M799.6,665.1c-1.5-.5-3.1-.8-4.6-1.2a4,4,0,0,0,2.1,2.1A2.45,2.45,0,0,0,799.6,665.1Z"/>
      <path class="cls-4" d="M817.8,674.8a59.16,59.16,0,0,0-6.8-4.2s.5-.1,1.3-.2a5.45,5.45,0,0,1,2.4.5,11.41,11.41,0,0,1,2.2,2.2C817.4,674.1,817.8,674.8,817.8,674.8Z"/>
      <path class="cls-5" d="M839.8,675.8a74.93,74.93,0,0,0-6.3-4.1,14.47,14.47,0,0,1,.8,1.4c.5.8,1.1,1.8,1.6,2.6C836.8,677.3,839.8,675.8,839.8,675.8Z"/>
      <path class="cls-4" d="M740.9,653.6c-1.8,1.3-3.6,2.6-5.3,4s-3.4,2.8-5,4.3a1.75,1.75,0,0,1,.1-.5,5.13,5.13,0,0,1,.5-1.2,13.08,13.08,0,0,1,2.5-3.6,11,11,0,0,1,4.6-2.5c.7-.2,1.4-.4,1.9-.5Z"/>
      <path class="cls-4" d="M755.1,680.7l-2.5.9-2.5,1a3.7,3.7,0,0,1,1.8-3.2C753.8,678.4,755.1,680.7,755.1,680.7Z"/>
      <path class="cls-4" d="M765.5,672.9c-2.2.5-4.3,1.2-6.5,1.9a7.78,7.78,0,0,1,.3-.9,3.58,3.58,0,0,1,1.5-1.5,4.1,4.1,0,0,1,2.9-.1A8,8,0,0,1,765.5,672.9Z"/>
      <path class="cls-4" d="M742.1,644.9c-2.6,3.4-5.6,5.8-11.1,5.8A97.68,97.68,0,0,1,742.1,644.9Z"/>
      <path class="cls-4" d="M733.2,672.7c-1.3.8-2.5,1.9-3.7,2.8l-1.8,1.4-1.8,1.6a1.86,1.86,0,0,0,1.2,0,4.76,4.76,0,0,0,1.4-.5,10.35,10.35,0,0,0,2-1.1C733.4,674.9,733.2,672.7,733.2,672.7Z"/>
      <path class="cls-4" d="M737.3,679.6a10.92,10.92,0,0,0-1.7,1.3,1.51,1.51,0,0,0,1.3-.3A.91.91,0,0,0,737.3,679.6Z"/>
      <path class="cls-5" d="M746.7,680.2l-3,2.1a6.89,6.89,0,0,1,1.2-2A1.31,1.31,0,0,1,746.7,680.2Z"/>
      <path class="cls-4" d="M742.8,665.9l-2.1,1.2-2.1,1.3a10.72,10.72,0,0,1,1.5-2.1C741,665.5,742.8,665.9,742.8,665.9Z"/>
      <path class="cls-4" d="M771.1,661.4c-.9.1-1.8.3-2.7.4a2.81,2.81,0,0,1,1.2-1.1C770.6,660.2,771.1,661.4,771.1,661.4Z"/>
      <path class="cls-4" d="M774.6,667.6c-1.3.4-2.7.8-4,1.3a2.7,2.7,0,0,1,1.5-1.7A2.63,2.63,0,0,1,774.6,667.6Z"/>
      <path class="cls-4" d="M795.6,672.3l-2.7-1.1a1.7,1.7,0,0,1,1.3-.2C794.8,671.1,795.6,672.3,795.6,672.3Z"/>
      <path class="cls-4" d="M761.6,647.2l-3,1.5a2.63,2.63,0,0,0,2.1.5C761.7,648.8,761.6,647.2,761.6,647.2Z"/>
      <path class="cls-4" d="M779.5,641.7l-4.3-.3s.1-.4,2.1-.6S779.5,641.7,779.5,641.7Z"/>
      <path class="cls-4" d="M807.2,654.5c-1.4-.3-2.8-.7-4.2-1,0,0,0,.7,1.8,1.3S807.2,654.5,807.2,654.5Z"/>
      <path class="cls-4" d="M804.5,662.9l-4.5-2.1a2.42,2.42,0,0,1,2.1-.2A6.38,6.38,0,0,1,804.5,662.9Z"/>
      <path class="cls-4" d="M821.8,664.8l-2.6-1.7-2.7-1.6a3.36,3.36,0,0,0,1.7,2.6A4.22,4.22,0,0,0,821.8,664.8Z"/>
      <path class="cls-4" d="M830.4,682.3a39,39,0,0,0-3.4-3.6,8,8,0,0,0,1,2.6C829.3,682.7,830.4,682.3,830.4,682.3Z"/>
      <path class="cls-4" d="M822.3,680.3l-2.1-1.8a1.56,1.56,0,0,1,1.5.3A1.31,1.31,0,0,1,822.3,680.3Z"/>
      <path class="cls-4" d="M835.5,657.4a81.51,81.51,0,0,0-8.4-6.1s1.8-.5,5.1,1.6S835.5,657.4,835.5,657.4Z"/>
      <path class="cls-4" d="M764.3,659.2c-1.8.6-3.6,1-5.3,1.7a10.59,10.59,0,0,1,2.4-1.8,5.39,5.39,0,0,1,3-.2Z"/>
      <path class="cls-4" d="M720.4,661.4c-2.5,1.9-4.7,4.1-7.1,6.2a12.05,12.05,0,0,1,2.4-4.6,4.27,4.27,0,0,1,3.1-1.7A12.58,12.58,0,0,1,720.4,661.4Z"/>
      <path class="cls-4" d="M728.4,667.7l-3.6,2.9a5.4,5.4,0,0,0,2.4-.6,2.81,2.81,0,0,0,1-1.4C728.3,668.1,728.4,667.7,728.4,667.7Z"/>
      <path class="cls-4" d="M738.3,686.4a71.35,71.35,0,0,0-5.5,5.5,6.19,6.19,0,0,0,3.7-1.6,8.3,8.3,0,0,0,1.5-2.5C738.2,687,738.3,686.4,738.3,686.4Z"/>
      <path class="cls-4" d="M830.3,686a45.76,45.76,0,0,1,7.1,7.5,5.25,5.25,0,0,1-1.5-.3,8.48,8.48,0,0,1-3.1-1.8,9.32,9.32,0,0,1-2.1-3.5A12.06,12.06,0,0,1,830.3,686Z"/>
      <path class="cls-4" d="M836.3,669c1.3.6,2.5,1.4,3.7,2.1a11.11,11.11,0,0,0-1.9-2.7C837.1,667.6,836.3,669,836.3,669Z"/>
      <path class="cls-4" d="M839.5,682a42.85,42.85,0,0,1,7.2,11.3,6.29,6.29,0,0,0,0-2.2,11.06,11.06,0,0,0-1.7-4.9,10.24,10.24,0,0,0-3.6-3.4A9,9,0,0,0,839.5,682Z"/>
      <path class="cls-4" d="M835.1,681.5c.7.8,1.3,1.7,2,2.6a2.57,2.57,0,0,1-1.6-.4C834.9,683.1,835.1,681.5,835.1,681.5Z"/>
      <path class="cls-4" d="M833.6,676.9a69.1,69.1,0,0,0-5.7-5.1s.2.5.5,1.1a9.35,9.35,0,0,0,1.6,2,9.46,9.46,0,0,0,2.3,1.4C833.1,676.7,833.6,676.9,833.6,676.9Z"/>
    </g>
  </g>
</svg>
