<svg xmlns="http://www.w3.org/2000/svg" xmlns:xlink="http://www.w3.org/1999/xlink" viewBox="0 0 50 50">
  <defs>
    <style>
      .cls-1, .cls-2 {
        fill: none;
      }

      .cls-2 {
        stroke: #a5a7aa;
        stroke-miterlimit: 10;
        stroke-width: 1.85px;
      }

      .cls-3 {
        clip-path: url(#clip-path);
      }

      .cls-4 {
        fill: #e60026;
      }

      .cls-5 {
        fill: #fff;
      }
    </style>
    <clipPath id="clip-path">
      <circle class="cls-1" cx="25" cy="25" r="23.94" transform="translate(-7.66 11.47) rotate(-22.5)"/>
    </clipPath>
  </defs>
  <g id="Flags">
    <g>
      <circle class="cls-2" cx="25" cy="25" r="23.94" transform="translate(-7.66 11.47) rotate(-22.5)"/>
      <g class="cls-3">
        <g>
          <rect class="cls-4" x="-10.91" y="1.06" width="71.82" height="47.88"/>
          <path class="cls-5" d="M17.75,34.58a9.58,9.58,0,1,1,7.11-16,12,12,0,1,0,0,12.81A9.56,9.56,0,0,1,17.75,34.58Z"/>
          <polygon class="cls-5" points="32.5 25 35.06 21.48 30.92 22.83 28.37 19.31 28.37 23.66 24.23 25 28.37 26.34 28.37 30.69 30.92 27.18 35.06 28.52 32.5 25"/>
        </g>
        <circle class="cls-1" cx="25" cy="25" r="23.94" transform="translate(-7.66 11.47) rotate(-22.5)"/>
      </g>
    </g>
  </g>
</svg>
