<svg id="Layer_1" data-name="Layer 1" xmlns="http://www.w3.org/2000/svg" xmlns:xlink="http://www.w3.org/1999/xlink" viewBox="0 0 916.6 431.86">
  <defs>
    <style>
      .cls-1 {
        opacity: 0.5;
      }

      .cls-2 {
        fill: url(#linear-gradient);
      }

      .cls-3 {
        fill: url(#linear-gradient-2);
      }

      .cls-4 {
        fill: #998d96;
      }

      .cls-5 {
        fill: #b2aab0;
      }

      .cls-6 {
        fill: #817880;
      }

      .cls-7 {
        fill: #e3e1dc;
      }

      .cls-8 {
        fill: #4e7b84;
      }

      .cls-9 {
        fill: #8d6685;
      }

      .cls-10 {
        fill: #646973;
      }

      .cls-11 {
        fill: #555961;
      }

      .cls-12 {
        fill: #a5bcc1;
      }

      .cls-13 {
        fill: #757e85;
      }

      .cls-14 {
        fill: #5c4b66;
      }

      .cls-15 {
        fill: #94a6a7;
      }

      .cls-16 {
        fill: #575763;
      }

      .cls-17 {
        fill: #335b65;
      }

      .cls-18 {
        fill: #857681;
      }

      .cls-19 {
        fill: #777e8c;
      }

      .cls-20 {
        fill: #506373;
      }

      .cls-21 {
        fill: #565877;
      }

      .cls-22 {
        fill: #95b7c4;
      }

      .cls-23 {
        fill: #8a90a0;
      }

      .cls-24 {
        fill: #e0f0f8;
      }

      .cls-25 {
        fill: #5d7181;
      }

      .cls-26 {
        fill: #723569;
      }

      .cls-27 {
        fill: #b17f8e;
      }

      .cls-28 {
        fill: #3d3544;
      }

      .cls-29 {
        fill: #804c65;
      }

      .cls-30 {
        fill: #fdf8fa;
      }

      .cls-31 {
        fill: #d1d8dc;
      }

      .cls-32 {
        fill: #a8a6ac;
      }

      .cls-33 {
        fill: #f1ebd5;
      }

      .cls-34 {
        fill: #c4bba5;
      }

      .cls-35 {
        fill: #7e5a4b;
      }

      .cls-36 {
        fill: #3f5462;
      }

      .cls-37 {
        fill: #c9d6d9;
      }

      .cls-38 {
        fill: #644c40;
      }

      .cls-39 {
        fill: #9b9e8d;
      }

      .cls-40 {
        fill: #bec6b6;
      }

      .cls-41 {
        fill: #9e825f;
      }

      .cls-42 {
        fill: #434b53;
      }

      .cls-43 {
        fill: #c8d2d6;
      }

      .cls-44 {
        fill: #a5b6bd;
      }

      .cls-45 {
        fill: #858c93;
      }

      .cls-46 {
        fill: #d35f56;
      }

      .cls-47 {
        fill: #93b9be;
      }

      .cls-48 {
        fill: #cce0e4;
      }

      .cls-49 {
        fill: #6f2c2c;
      }

      .cls-50 {
        fill: #894641;
      }

      .cls-51 {
        fill: #608990;
      }

      .cls-52 {
        fill: #85a6ad;
      }

      .cls-53 {
        fill: #482021;
      }

      .cls-54 {
        fill: #e27b36;
      }

      .cls-55 {
        fill: #fff;
      }

      .cls-56 {
        fill: #935b29;
      }

      .cls-57 {
        fill: #7d594a;
      }

      .cls-58 {
        fill: #f2ebd6;
      }

      .cls-59 {
        fill: #c99b70;
      }

      .cls-60 {
        fill: #ffd055;
      }

      .cls-61 {
        fill: #cbd7da;
      }

      .cls-62 {
        fill: #644a3f;
      }

      .cls-63 {
        fill: #9c9e8d;
      }

      .cls-64 {
        fill: #c2c7b8;
      }

      .cls-65 {
        fill: #a08260;
      }

      .cls-66 {
        fill: #cbb048;
      }

      .cls-67 {
        fill: #d0f0ef;
      }

      .cls-68 {
        fill: #f5fffe;
      }
    </style>
    <linearGradient id="linear-gradient" x1="-5.38" y1="203.89" x2="829.94" y2="203.89" gradientUnits="userSpaceOnUse">
      <stop offset="0.1" stop-color="#fff" stop-opacity="0"/>
      <stop offset="0.51" stop-color="#fff"/>
      <stop offset="1" stop-color="#fff" stop-opacity="0"/>
      <stop offset="1" stop-color="#fff"/>
    </linearGradient>
    <linearGradient id="linear-gradient-2" x1="225.24" y1="203.89" x2="998.71" y2="203.89" xlink:href="#linear-gradient"/>
  </defs>
  <title>visitor-info</title>
  <g>
    <g class="cls-1">
      <polygon class="cls-2" points="829.95 406.91 699.95 406.91 -5.38 0.88 124.62 0.88 829.95 406.91"/>
      <polygon class="cls-3" points="998.71 406.91 930.56 406.91 225.24 0.88 293.38 0.88 998.71 406.91"/>
    </g>
    <g>
      <g>
        <path class="cls-4" d="M200.93,95.44l-49.55,23.93-13.87-16.29-42,.64L73.1,140,98.86,200l-7.93,9s10.9,18.74,9.92,22-5.95,19.55-5.95,19.55c6.6,9.31,13.58,18,23.16,25.31a5.93,5.93,0,0,1,1.88,2c.51,1.14,0,2.41-.47,3.56a13.43,13.43,0,0,1-3.51,5.47c-1.79,1.47-4.75,2.2-6.9,1.1-1.15-.58-2.06-1.65-3.41-1.69a4.19,4.19,0,0,0-3,1.58,71.55,71.55,0,0,0-8.87,11,2.62,2.62,0,0,0-.6,2.36c.47,1.05,2.07,1.32,3.29,1.83,3.91,1.62,4.17,6.17,2.93,9.62s-3.43,7-2.46,10.47c.45,1.63,2.07,1.88,3.64,2.95C126,343.23,159.15,352.47,192,351.48c4.92,3.29,10,5.75,14.88,9,6.07,4.06,14.41,3.52,22.61,3,2.84-.19,5.66-.38,8.37-.37l84.66.11c15.6,0,31.46,0,46.37-3.73s29-11.86,34.78-23.77c21.4-1,44.12-3,65.47-4.52a5.26,5.26,0,0,0,3.34-1,3.52,3.52,0,0,0,.71-2.55A24.28,24.28,0,0,1,479.9,312c12.46-13.45,18.92-30.25,15.19-46.88a181.48,181.48,0,0,0-25.77-12.61c-.72-2.43-2.34-6-3.06-8.39a411,411,0,0,0-71-25.65c-.28-2.86.17-7.43-3-8.68-8.06-3.2-56.27-30.37-86.37-38.16-1.1-3.24-1.91-6.6-3-9.84a383.49,383.49,0,0,0-45.86-20.51c-8.65-3.14-17.63-6.06-24.76-11.15-13.2-9.43-18-25.38-31.39-34.65"/>
        <path class="cls-5" d="M103.75,119.59a89.69,89.69,0,0,0,11.73-4.7c4.58-2.15,9.23-4.14,13.88-6.14q6.38-2.73,12.65-5.66l-4.5-6.42-42,.78-4.66,9.17,12.84,12.84.08.13"/>
        <path class="cls-6" d="M495.09,265.08a181.48,181.48,0,0,0-25.77-12.61c-.56-1.88-1.56-4.31-2.36-6.49-13.9,7.16-31.12,8.93-47.19,9.13s-32-1.37-47.86-3.33c-3.56-.44-5.56-4.16-4.66-6.73a5.22,5.22,0,0,1,.43-.68c-6.45-1.87-4.88-11.26,2.35-10.52,9.83,1,35.41,1.94,31.44-11a4.46,4.46,0,0,1,.07-2.61c-2.09-.58-4.15-1.24-6.25-1.78-.28-2.86.17-7.43-3-8.68l-.8-.35c-1.95,3.73-6.11,6.24-11.39,7.17-7.05,1.23-14.38.5-21.4-.41a230.22,230.22,0,0,1-24.22-4.71,355.86,355.86,0,0,1-37.72-11.1,5.16,5.16,0,0,1-3.06-6.18c2.7-8.14,8.79-15.06,15.07-21.76-.95-.28-1.93-.59-2.85-.82-.93-2.72-1.67-5.52-2.53-8.27l-.36.08c-12.54,1.31-26.42,3.52-39.62,1.6a5.8,5.8,0,0,1-4.89-5.28,4.32,4.32,0,0,1,.41-1.84c-1.32.05-2.64.13-3.94.13-5.17,0-7.49-4.5-6-7.73a5.33,5.33,0,0,1-1.22-1,4.6,4.6,0,0,1,0-5.53,23.73,23.73,0,0,1,4.88-4.13c-6.8-2.45-13.5-5.11-19.21-8.93-1.2,9.78-2.35,20.42.45,29.84,2.26,7.63,8.8,12.91,15.84,17.88,22,15.46,46.75,28,68.92,43.23,16,11,35.16,22.46,42.84,39.1,5.2,2.2,4.17,10.18-3.14,10.35-6.66.15-13.32,0-20-.1-9.57-.17-19.14-.35-28.7.29-7.82.53-16,1.61-23.22,4.27s-12.51,8.19-19.39,11.55a6.92,6.92,0,0,1-8.75-1.9c-9.31-2.37-13.46-8.24-21.09-13.92-9.43-7-23.7-8.21-33.89-14.53-9.62-6-13.35-14.61-15.91-24-2.74-10-5.23-17.93-17.44-22.46-18.41-6.83-45.32-4.47-59.33-18.11-7.42-7.23-9-17.15-11.93-26-1.6-4.79-3.47-10.15-8-13.71-3.84-3-9-4.13-14.24-4.54l22.3,52-7.92,9s10.89,18.74,9.91,22-5.95,19.55-5.95,19.55c6.6,9.31,13.58,18,23.16,25.31a5.93,5.93,0,0,1,1.88,2c.51,1.14,0,2.41-.47,3.56a13.43,13.43,0,0,1-3.51,5.47c-1.79,1.47-4.75,2.2-6.9,1.1-1.15-.58-2.06-1.65-3.41-1.69a4.19,4.19,0,0,0-3,1.58,70.89,70.89,0,0,0-8.86,11,2.6,2.6,0,0,0-.61,2.36c.47,1.05,2.07,1.32,3.29,1.83,3.91,1.62,4.17,6.17,2.93,9.62s-3.43,7-2.46,10.47c.45,1.63,2.07,1.88,3.64,2.95C126,343.23,159.15,352.47,192,351.48c4.92,3.29,10,5.75,14.88,9,6.07,4.06,14.41,3.52,22.61,3,2.84-.19,5.66-.38,8.37-.37l84.66.11c15.6,0,31.46,0,46.37-3.73s29-11.86,34.78-23.77c21.4-1,44.12-3,65.47-4.52a5.21,5.21,0,0,0,3.34-1,3.48,3.48,0,0,0,.71-2.54A24.28,24.28,0,0,1,479.9,312c12.46-13.46,18.92-30.25,15.19-46.88"/>
        <polyline class="cls-7" points="187.95 -139.74 179.46 183.12 204 203.89 267.25 182.18 254.98 -134.07 187.95 -139.74"/>
        <path class="cls-8" d="M201.31,8.07l.39-.14.43-.21c1.29-.61,2.59-1.2,3.87-1.83q4.23-2.08,8.3-4.46c2.47-1.43,4.9-2.95,7.28-4.53q2.13-1.44,4.23-2.94c.32-.23,1.64-1.27,2.28-1.74l1.84-1.54q1.63-1.39,3.23-2.83,3.51-3.16,6.8-6.55c2.18-2.25,4.3-4.57,6.33-7,.87-1,1.7-2.06,2.55-3.09l.22-.31A156.23,156.23,0,0,0,258.47-44l-.93-24c-1.3,1.32-2.46,2.78-3.81,4-19.13,18.11-42.36,33-68.65,33.24l-1.16,44.16a145.16,145.16,0,0,0,17.39-5.41"/>
        <path class="cls-8" d="M188.23,105.39q2.88-.12,5.75-.36c.48,0,3.18-.38,4.07-.46,3.82-.6,7.63-1.33,11.39-2.23q6.1-1.45,12.07-3.43c1.84-.61,3.65-1.27,5.46-1.94.46-.2,1.19-.5,1.86-.83,3-1.45,5.9-3,8.73-4.78,1.47-.9,2.86-1.91,4.31-2.83l.25-.15c2-2,4.28-3.68,6.26-5.71,1.1-1.13,2.09-2.34,3.17-3.48l.27-.26c2.18-3.25,6.34-8.33,7.75-12.66-.13.07-.12-.36.4-1.85.44-1.28.91-2.54,1.34-3.83s.71-2.55,1.08-3.82l-1.28-32.85a157.57,157.57,0,0,1-78.42,36.24l-1.19,45.21c2.25,0,4.49.12,6.73,0"/>
        <path class="cls-8" d="M180.3,147.82l-.84,26.34L204,191.24l63.25-17.85-2.11-44.8c-24.71,13.73-54.95,19.69-84.84,19.23"/>
        <polyline class="cls-9" points="116.95 313.25 120.75 310.13 116.95 313.25"/>
        <path class="cls-5" d="M202.05,167.07c1.1,11,20.68,18.46,32.63,23.56,9,3.82,20.3,5.23,26.08,12.06,1.11,1.31,1.95,2.77,3.16,4,3.16,3.3,8.31,4.72,13,6.31a93.37,93.37,0,0,1,33.38,19.48c8.28,7.65,14.86,16.85,25.34,22.38,3.71,2,7.85,3.41,11.2,5.77,5,3.52,7.77,8.69,10.36,13.67L368.55,296c1,2,2.13,4,4.22,5.27s4.56,1.47,7,1.69a498.05,498.05,0,0,0,58.09,1.87c5.1.31,8.2-5.45,5.88-9.2s-7.73-5.46-12.81-6l.12-7S419.12,282,419.12,281s.4-6.55.4-6.55L406,272.05l.4-7.22-34.26-9V244.67l-6.8-.65,2.42-9.44-11.55-2.35-.39-12.88H342.68v-10.7l-14.88-2.29-.13-8.19-27.06-1v-5.95H278.52l.4-10.75-16.53-2.29v-7.86l-5.77-.33s1.19-14.4,0-14.08-7.88,1.63-8.72,0,0-6.22,0-6.22,1.6,5-52.79,5.93l6.94,11.43"/>
        <path class="cls-6" d="M443.76,295.66c-2.31-3.75-7.73-5.46-12.81-6l.12-7S419.12,282,419.12,281s.4-6.55.4-6.55L406,272.05l.4-7.22-34.26-9V244.67l-6.8-.65,2.42-9.44-11.55-2.35-.39-12.88H342.68v-10.7l-14.88-2.29-.13-8.19-27.06-1v-5.95H278.53l.39-10.75-16.53-2.29v-7.86l-5.77-.33s1.19-14.4,0-14.08-7.88,1.63-8.72,0a8.45,8.45,0,0,1-.31-3.82c-16.66,2.45-33.59,3.76-50.14,6.81h-.35l5,8.15c1.1,11,20.68,18.46,32.63,23.56,9,3.82,20.3,5.23,26.08,12.06,1.11,1.31,1.95,2.77,3.16,4,3.16,3.29,8.31,4.72,13,6.31a93.29,93.29,0,0,1,33.38,19.48c8.28,7.65,14.86,16.85,25.34,22.38,3.71,2,7.85,3.41,11.2,5.77,5,3.52,7.77,8.69,10.36,13.67L368.55,296c1,2,2.13,4,4.22,5.26s4.56,1.48,7,1.7a498.05,498.05,0,0,0,58.09,1.87c5.1.31,8.2-5.45,5.88-9.2"/>
        <path class="cls-5" d="M419.13,280.81,367.49,294l1.06,2a23,23,0,0,0,1.56,2.65l60.95-15.58v-.44S419.12,282,419.12,281v-.21"/>
        <path class="cls-5" d="M431,288.64l-55.83,13.52a25.42,25.42,0,0,0,4.65.83,498.05,498.05,0,0,0,58.09,1.87c5.1.31,8.2-5.45,5.88-9.2s-7.73-5.46-12.81-6l0-1"/>
        <path class="cls-5" d="M360.4,280.39l2.7,5.18,56.4-10.76,0-.34-11.79-2.1-47.33,8"/>
        <path class="cls-5" d="M210.2,178.35a66.48,66.48,0,0,0,9.9,5.82l42.29-13v-.84l-5.77-.33s.05-.61.11-1.42c-10,1.86-31.42,6.35-46.53,9.76"/>
        <path class="cls-5" d="M327.79,205.54l-47.92,8.64a98.13,98.13,0,0,1,9,3.88l53.78-8.66v-.75l-14.88-2.29Z"/>
        <path class="cls-5" d="M299.08,223.89c2.37,1.56,4.64,3.2,6.81,5l49.95-8,0-1.51H342.68v-.14l-43.6,4.68"/>
        <path class="cls-5" d="M270.75,210.84c2,.8,4.14,1.49,6.2,2.18.4.14.77.33,1.17.47l48.93-15.34-25.56-.93Z"/>
        <path class="cls-5" d="M234.68,190.63c3.22,1.37,6.71,2.45,10.16,3.56l34-13.7-16.5-2.29-34.54,9.52,6.83,2.91"/>
        <path class="cls-5" d="M247.59,106.3c-16.66,3-33.59,4.57-50.14,8.28h-.35l3.63,7.26,49.23-10c-1-.09-1.81-.31-2.06-.9a12.34,12.34,0,0,1-.31-4.64"/>
        <path class="cls-5" d="M372.12,255l-27,4.67c.57.33,1.21.59,1.75,1,4.59,3.23,7.27,7.83,9.69,12.41l49.77-7.39.05-.84-34.26-9V255"/>
        <path class="cls-5" d="M278.54,190.9l-21.3,8.95a18,18,0,0,1,3.52,2.84c1.11,1.31,1.95,2.77,3.16,4l.56.45,33.79-15.92H278.53v-.34"/>
        <path class="cls-5" d="M365.32,244l.2-.8c-9.29,1.12-26,3.15-39.35,4.85a53.58,53.58,0,0,0,5.53,4.2l40.42-7.07v-.53l-6.8-.65"/>
        <path class="cls-5" d="M356.15,230.72l-42.63,4.95c1.7,1.71,3.41,3.4,5.08,5.13l49-5.56.17-.66-11.55-2.35,0-1.51"/>
        <path class="cls-6" d="M178.15,145.29c0-7,.59-13.95,1.26-20.9l-20.66,4.2L143.66,110.3l-33.55,10.49-4.79,24.91,30.31,4-13.69,34.46,16.78,6.73,21.64-41.19,18.75-1.78a4.52,4.52,0,0,1-1-2.64"/>
        <path class="cls-4" d="M150.92,159.91l13.15-14.21,44.38,14.21,9.5,16.87s30,12,30,14.46-61.63,28.11-61.63,28.11l-35.35-59.44"/>
        <path class="cls-6" d="M151.91,210.9q6.34-7.47,13.5-14.45a10.13,10.13,0,0,1,2.08-1.71,13.08,13.08,0,0,1,3.86-1.08l16.53-3a18.6,18.6,0,0,0,6.13-1.91,9.7,9.7,0,0,0,4.18-5,21,21,0,0,0,1.16-5.38l-2.65-.2.44,2.16a116.63,116.63,0,0,0,11.67-2.23,5.28,5.28,0,0,0,1.34-.52,3.09,3.09,0,0,0,.89-.75,2.37,2.37,0,0,0,.52-1.33v-.09h0a2.06,2.06,0,0,0-.42-1.24,2.91,2.91,0,0,0-1.38-1,3.53,3.53,0,0,0-1.23-.21,3.58,3.58,0,0,0-1.5.32,2.76,2.76,0,0,0-.95.7,2.11,2.11,0,0,0-.5,1.31,2,2,0,0,0,.4,1.19l4.6-2.21-2.13,1h2.46a1.78,1.78,0,0,0-.33-1l-2.13,1h-.07l2.08,1.19a1.85,1.85,0,0,0,.45-1.19h-2.53l2.08,1.19-2-1.15.85,1.9a2.5,2.5,0,0,0,1.17-.75l-2-1.15.85,1.9-.77-1.72v1.83a2.66,2.66,0,0,0,.76-.11l-.77-1.72v0L207.34,177a2.53,2.53,0,0,0,1.19.29v-1.81L207.34,177l1.29-1.66-2,1a2.18,2.18,0,0,0,.75.64l1.29-1.66-2,1,2.07-1h-2.42a1.69,1.69,0,0,0,.35,1l2.07-1h.24l-2.66-.09,2.14.07-1.79-1a1.56,1.56,0,0,0-.35.9l2.14.07-1.79-1,1.47.8-.85-1.29a1.66,1.66,0,0,0-.62.49l1.47.8-.85-1.29.38.58-.29-.61-.09,0,.38.58-.29-.61h0a110.06,110.06,0,0,1-11,2.11l-2,.28-.19,1.68a17.89,17.89,0,0,1-.93,4.44,5.26,5.26,0,0,1-2.2,2.78,13.46,13.46,0,0,1-4.2,1.21l-16.53,3a18.34,18.34,0,0,0-5.68,1.72,14.91,14.91,0,0,0-3.17,2.52q-7.32,7.11-13.8,14.77l4.37,2.5h0"/>
        <path class="cls-6" d="M187.38,250.5A92.62,92.62,0,0,0,210.3,247l-1.75-4.14a85.59,85.59,0,0,1-21.33,3.23l.16,4.38h0"/>
        <path class="cls-5" d="M222.83,229.82l15,1.47.15-1.08-15-1.48-.16,1.09Z"/>
        <path class="cls-6" d="M425.21,238.67A70.62,70.62,0,0,0,409.86,245l.76.9a69.51,69.51,0,0,1,15-6.24l-.43-1Z"/>
        <polyline class="cls-5" points="100.53 109.27 80.97 143.3 135.63 153.38 113.49 159.02 76.56 151.38 73.1 141.55 90.98 106.32 100.53 109.27"/>
        <path class="cls-5" d="M251.35,258.42a160.71,160.71,0,0,0,22.5-7.57l-3-4.87a152.67,152.67,0,0,1-21.45,7.22l2,5.22h0"/>
        <path class="cls-5" d="M264.73,220h12.1v-5.47h-12.1V220Z"/>
        <path class="cls-9" d="M348.75,346.39a3,3,0,0,0-3.08.93c-2.7,2.73-1.43,7.43,2.42,9a5.81,5.81,0,0,0,3.19.4A4,4,0,0,0,354,351c-1.07-2.16-3.52-3.6-5.85-4.93l.57.35"/>
        <path class="cls-10" d="M395.29,218.43c2.1.54,4.16,1.2,6.25,1.78a4.64,4.64,0,0,0-.14,2.34l2.49-1.67c-2.86-.82-5.72-1.71-8.6-2.45h0"/>
        <path class="cls-11" d="M393.55,210.79l-6.83,6.49-30.92,2.07.39,12.88,27.74,2,17.47-11.71a4.64,4.64,0,0,1,.14-2.34c-2.09-.58-4.15-1.24-6.25-1.78h0v0c-.23-2.36-.09-5.74-1.74-7.6"/>
        <path class="cls-12" d="M279.92,363.18l42.61.06-42.33-.05h-.28M192,351.48l.09.07-.09-.07m0,0h0m277.14-20.26h0l-8.08.61v0c-9.23.69-18.64,1.43-28,2.11h0c9.38-.67,18.77-1.41,28-2.09l8.08-.61M91.3,209.63c.17.29.38.67.62,1.1l.35.61c.3.53.65,1.18,1,1.84l.37.69c.41.75.85,1.56,1.29,2.4l.35.66c.47.91,1,1.83,1.42,2.77l.21.42a57.24,57.24,0,0,1,3.63,8.56,5,5,0,0,1,.29,2.31l0,.12h0l0-.12,0-.12a5.3,5.3,0,0,0-.29-2.17h0c-1.19-4.29-5.62-12.55-8-16.89-.52-.93-1-1.68-1.23-2.17m-.36-.64h0"/>
        <path class="cls-10" d="M280.2,363.19l42.33.05h0l-42.33-.05M109.06,287.94a5.09,5.09,0,0,0,2.35.53h0a5.09,5.09,0,0,1-2.35-.53h0m-8.47-59.24a5.3,5.3,0,0,1,.29,2.17,5.43,5.43,0,0,0-.28-2.17h0M90.94,209h0l.36.64c.28.49.71,1.24,1.23,2.17C91.59,210.12,91,209,90.94,209h0m160.41,49.43-2-5.22A152.67,152.67,0,0,0,270.81,246l3,4.87a160.71,160.71,0,0,1-22.5,7.57h0m-7.47-64.54c-13.67,7.17-57.61,25.47-57.61,25.47l-8.37-14.07c-4.9-1.31-10.82-2.78-17-4.27-1.81,1.87-3.57,3.76-5.29,5.69A84.79,84.79,0,0,1,170,210.38c12.21,4.53,14.7,12.47,17.44,22.46a53,53,0,0,0,5.15,13,85.56,85.56,0,0,0,15.93-2.93L210.3,247a91.6,91.6,0,0,1-14.8,2.91,31.85,31.85,0,0,0,7.88,6.85c10.19,6.32,24.46,7.51,33.89,14.53,7.63,5.68,11.78,11.55,21.09,13.92a6.81,6.81,0,0,0,5.43,2.7,7.62,7.62,0,0,0,3.32-.8c6.88-3.36,12.06-8.84,19.39-11.55s15.4-3.74,23.22-4.27c5.12-.34,10.25-.45,15.37-.45,4.44,0,8.88.08,13.33.16s8.87.17,13.31.17l3.62,0-2.62-4.53-52.12-.8L262.39,279,242.45,264,326,248.1c-2.62-2.3-5-4.79-7.46-7.3l-119.16,1.53s-4.17-14-4.3-15.89c-.11-1.63,48.11-21.06,62.33-26.75-3.51-2.49-8-4.05-12.56-5.52l0,0-1-.31M94.13,156.12a37.44,37.44,0,0,1,4.64,10.19c3,8.81,4.51,18.73,11.93,26,9.4,9.15,24.6,11.1,39.15,13.45q2.68-3,5.5-6c-19.14-4.51-38.93-8.8-38.93-8.8l-8.2-26-14.09-8.77"/>
        <path class="cls-11" d="M430.71,316.72l-.89,16.62c1.12.17,2.19.36,3.22.58,9.38-.68,18.79-1.42,28-2.11l-10.47-12.17-19.88-2.92M90.94,209h0m98.68,134.3a5.25,5.25,0,0,1-3.83-1.34,4.42,4.42,0,0,1-1-1.93c-1-3.69,1.78-7.82,6.14-9.06l1.81.53a4.76,4.76,0,0,1,.84-.07,5.31,5.31,0,0,1,2.2.48,6.14,6.14,0,0,1,.94.23c1.23.41,2.43,1.32,2.38,2.44a2.73,2.73,0,0,0-2-1.81,4.61,4.61,0,0,1,1.76,3.39c0,2.62-2.3,5-5.09,6.23a10.37,10.37,0,0,1-4.14.91M315,322.15a4.7,4.7,0,0,1,.85-.39,6.71,6.71,0,0,1,2.07-.31,10.9,10.9,0,0,1,1.53.12,30.77,30.77,0,0,1,6.49,1.89,73.8,73.8,0,0,1,11.29,6.27,75.29,75.29,0,0,0-11.57-5.79,30.68,30.68,0,0,0-6.35-1.7c-.26,0-.52-.06-.79-.07a22.24,22.24,0,0,1,2.48.52,33.73,33.73,0,0,1,17.48,10.86,18,18,0,0,1,2.4,3.78,10.32,10.32,0,0,1,1.49,2.66,4.92,4.92,0,0,1-1.09,5.4c-1.46,1.34-3.73,1.74-6,1.74-.48,0-.95,0-1.42-.05-10.22-.71-19.63-6.64-23.11-14.57-1.5-3.42-1.45-8,2.4-9.81a7,7,0,0,1,1.81-.55M76.56,148.06l22.3,52-7,7.88,49.48,19.46L155.86,245,100.6,228.7a5.43,5.43,0,0,1,.28,2.17l0,.12,0,.12c-1,3.15-4.93,16.19-5.76,18.93,7.42-3.32,15.06-6.82,15.06-6.82L162.05,269l11.57,16.62,27.6,13.11-65.59-8.93-16.89-13.36a4.24,4.24,0,0,1,1.2,1.42,2.7,2.7,0,0,1,.22,1.07,6.88,6.88,0,0,1-.69,2.49,13.43,13.43,0,0,1-3.51,5.47,7.45,7.45,0,0,1-4.55,1.63h0a5.09,5.09,0,0,1-2.35-.53h0c-1.15-.58-2.06-1.65-3.41-1.69h-.08a4.28,4.28,0,0,0-2.88,1.58,70.89,70.89,0,0,0-8.86,11,3.51,3.51,0,0,0-.73,1.79,1.46,1.46,0,0,0,.12.57c.47,1.05,2.07,1.32,3.29,1.83,2.61,1.08,3.59,3.47,3.59,6,0-2.5-1-4.89-3.59-6-1.22-.51-2.82-.78-3.29-1.83l15.19,4.35c2.89-3.21,7.06-5.68,10-5.68A3.23,3.23,0,0,1,121,300.9l.24,0a4.54,4.54,0,0,1,1.26.2c.36.14.82.5.55.84.19-.36-.28-.6-.63-.69a2.8,2.8,0,0,0-.72-.07h-.48c.62,1,.85,2.44.54,4.57a9.66,9.66,0,0,1-1.13,3.23l63.26,18.11-7.56,24a165.44,165.44,0,0,1-18.5-2.3,161.71,161.71,0,0,0,29.51,2.75c1.45,0,2.9,0,4.34-.06h.3l.09.07c1.63,1.08,3.28,2,4.93,3,3.08,1.81,6.18,3.57,9.25,5.58-3.16-2.07-6.35-3.87-9.53-5.75L208,331.41h0c-.82-2.31.73-5,3.26-6.07a14.62,14.62,0,0,0-3.16,1.24,10.53,10.53,0,0,1,5.51-2.37,12.6,12.6,0,0,1,2.36-.24,6.82,6.82,0,0,1,3.62.91,4.88,4.88,0,0,1,2.25,3.43c.45,2.92-1.87,6-5.31,6.84l-.38.08,25.4,11.9,43.75,1.51a7.59,7.59,0,0,1-.09-2.81,6.06,6.06,0,0,1,5-5.16,6.47,6.47,0,0,1,.76-.05,8.62,8.62,0,0,1,6,3.08c.23.25.44.51.65.77a10.2,10.2,0,0,1,2.63,4,12.47,12.47,0,0,0-1.07-1.64,13.15,13.15,0,0,1,.93,2.28l6.68.23a5.59,5.59,0,0,1,2-5l1.42,1.68a6.5,6.5,0,0,1,1.58-.19,7,7,0,0,1,1.21.1,5.16,5.16,0,0,1,4.61,2.62,7.34,7.34,0,0,1,.79,1.23l25.87.89a4.88,4.88,0,0,1,1.43-3.35,3.51,3.51,0,0,1,2.31-1.08,2.07,2.07,0,0,1,.77.15l-.57-.35c2.33,1.33,4.78,2.77,5.85,4.93l0,0,11.27.39v8.79c-13.29,2.81-27.2,3.05-41,3.05h-1.82l-42.61-.06h.28l42.33.05h3.15c14.57,0,29.31-.25,43.22-3.74,10.19-2.56,20-7.16,27-13.61-3.32-1.4-5.28-3.13-5.28-5,0-3.84,8.32-7.09,19.68-8.1l-.69-16.13a21,21,0,0,1-4.81-2.41l-.49-.33.38-.42.48-.54L381,309.41,379.79,303h0c-2.46-.22-5-.5-7-1.69s-3.2-3.31-4.22-5.27h0l-.63-1.2c-.26-.51-.52-1-.79-1.51l-9.3-17.85-2.48-4.29-3.62,0c-4.44,0-8.87-.08-13.31-.17s-8.89-.16-13.33-.16c-5.12,0-10.25.11-15.37.45-7.82.53-16,1.61-23.22,4.27s-12.51,8.19-19.39,11.55a7.62,7.62,0,0,1-3.32.8,6.81,6.81,0,0,1-5.43-2.7c-9.31-2.37-13.46-8.24-21.09-13.92-9.43-7-23.7-8.21-33.89-14.53a31.85,31.85,0,0,1-7.88-6.85c-2.69.3-5.41.49-8.12.56h0l-.16-4.38c1.8,0,3.61-.15,5.4-.3a53,53,0,0,1-5.15-13c-2.74-10-5.23-17.93-17.44-22.46a84.79,84.79,0,0,0-14.45-3.68q-1.87,2.09-3.67,4.2h0l-4.37-2.5c.76-.9,1.53-1.79,2.31-2.68-14.55-2.35-29.75-4.3-39.15-13.45-7.42-7.23-9-17.15-11.93-26a37.44,37.44,0,0,0-4.64-10.19l-11.2-7-6.37-1.08"/>
        <path class="cls-13" d="M368.55,296h0c1,2,2.13,4,4.22,5.27s4.56,1.47,7,1.69h0c-2.46-.22-5-.5-7-1.7s-3.2-3.3-4.22-5.26h0m-1.42-2.71c.27.5.53,1,.79,1.51h0c-.26-.51-.53-1-.79-1.51"/>
        <path class="cls-11" d="M368.55,296h0c1,2,2.13,4,4.22,5.26s4.56,1.48,7,1.7h0a25.42,25.42,0,0,1-4.65-.83l2.28-.56-4.65-.31-1.66-2.86-1,.25a23,23,0,0,1-1.56-2.65h0m-10.72-20.56,9.3,17.85c.26.5.53,1,.79,1.51l-.43-.83.93-.23-4.8-8.3-.52.1-2.7-5.18.25,0-2.82-4.88M318.6,240.8h0c2.41,2.51,4.84,5,7.46,7.3l.14,0-7.57-7.27h0M250.31,192l-5.43,2.18c4.58,1.47,9.05,3,12.56,5.52l3.85-1.54,0,0-11-6.14"/>
        <path class="cls-13" d="M368.42,293.77l-.93.23.43.83h0l.63,1.2h0a23,23,0,0,0,1.56,2.65l1-.25-2.69-4.66"/>
        <path class="cls-13" d="M377.42,301.6l-2.28.56a25.42,25.42,0,0,0,4.65.83h0l4.83-.91-7.2-.48"/>
        <path class="cls-13" d="M360.65,280.35l-.25,0,2.7,5.18.52-.1-3-5.12"/>
        <path class="cls-13" d="M246.69,190c.77.54,1.21,1,1.21,1.27s-1.5,1.32-4,2.64l1,.31,0,0,5.43-2.18-3.62-2"/>
        <path class="cls-13" d="M261.34,198.13l0,0,0,0h0"/>
        <path class="cls-10" d="M241.51,187.09s-46.91,22.74-50.67,22.74c-.19,0-.27-.06-.23-.18.22-.67-5-2.32-12.71-4.37l8.37,14.07s43.94-18.3,57.61-25.47c2.52-1.32,4-2.26,4-2.64s-.44-.73-1.21-1.27l-5.18-2.88"/>
        <path class="cls-11" d="M155.35,199.7q-2.82,3-5.5,6c-.78.89-1.55,1.78-2.31,2.68l4.37,2.5h0q1.8-2.11,3.67-4.2c1.72-1.93,3.48-3.82,5.29-5.69l-5.52-1.31"/>
        <path class="cls-12" d="M466.65,245.14h0c.1.28.2.56.31.85l0,0c.8,2.18,1.8,4.61,2.36,6.49a181.48,181.48,0,0,1,25.77,12.61h0a181.48,181.48,0,0,0-25.77-12.61c-.56-1.88-1.56-4.31-2.36-6.49-.11-.28-.2-.55-.31-.84"/>
        <path class="cls-10" d="M384,253.17a313.36,313.36,0,0,0,33,2h1.75l-34.75-2m82.62-8-30.21,9.06c10.76-1.12,21.36-3.5,30.52-8.21-.11-.29-.21-.57-.31-.85"/>
        <path class="cls-11" d="M467,246l0,0c-9.16,4.71-19.76,7.09-30.52,8.21l-5.33,1.6-12.33-.69H417a313.36,313.36,0,0,1-33-2l-11.87-.66v1.18l34.26,11.14-.05.84-.35,6.38,13.54,2.42h0l-.4,6.55,11.95,1.64h0l-.1,6,3,1.47a22.4,22.4,0,0,1,5.14,1.65l16.44-3.12,1.63.11,18.75-15.69s12.2-3.91,19.39-6.71c-.08-.42-.09-.84-.19-1.27h0a181.48,181.48,0,0,0-25.77-12.61c-.56-1.88-1.56-4.31-2.36-6.49"/>
        <path class="cls-11" d="M406.33,265.67h0l-.35,6.38.35-6.38m-38.59-13.4,4.38,1.42v-1.18l-4.38-.24"/>
        <path class="cls-13" d="M433.93,290.11l3.82,1.9,1.32-.25a22.4,22.4,0,0,0-5.14-1.65"/>
        <polyline class="cls-13" points="406.38 264.83 406.33 265.67 406.33 265.67 406.38 264.83"/>
        <polyline class="cls-11" points="94.9 250.54 94.9 250.54 94.9 250.54"/>
        <polyline class="cls-11" points="94.9 250.54 94.9 250.54 94.9 250.54"/>
        <path class="cls-11" d="M495.55,267.88a43.75,43.75,0,0,1,.48,8.61h0a43.76,43.76,0,0,0-.49-8.61m0-.18a1,1,0,0,1,0,.16,1,1,0,0,0,0-.16m0-.18a.77.77,0,0,1,0,.15.77.77,0,0,0,0-.15m0-.18,0,.12,0-.12m0-.19,0,.11,0-.11m0-.2,0,.13,0-.13m0-.17,0,.1,0-.1m0-.21,0,.14,0-.14m0-.22,0,.16,0-.16"/>
        <path class="cls-11" d="M206.73,360.41h0m-.19-.13,0,0,0,0m-.21-.14.1.07-.1-.07M298,345.56a25.73,25.73,0,0,1,1.12,3.56h.44L298,345.6l0,0M96.74,321.26h0a6.68,6.68,0,0,0,.24,1.81c.45,1.63,2.07,1.88,3.64,2.95l.17.11-.17-.11c-1.57-1.07-3.19-1.32-3.64-2.95a6.68,6.68,0,0,1-.24-1.81"/>
        <path class="cls-11" d="M208.55,242.89a85.56,85.56,0,0,1-15.93,2.93c-1.79.15-3.6.26-5.4.3l.16,4.38h0c2.71-.07,5.43-.26,8.12-.56A91.6,91.6,0,0,0,210.3,247l-1.75-4.14"/>
        <polyline class="cls-13" points="74.88 146.59 76.56 151.38 82.93 152.69 74.88 146.59"/>
        <path class="cls-13" d="M270.81,246a152.67,152.67,0,0,1-21.45,7.22l2,5.22h0a160.71,160.71,0,0,0,22.5-7.57l-3-4.87"/>
        <path class="cls-14" d="M348.18,346l.57.35a2.07,2.07,0,0,0-.77-.15,3.51,3.51,0,0,0-2.31,1.08,4.88,4.88,0,0,0-1.43,3.35l9.81.34,0,0c-1.07-2.16-3.52-3.6-5.85-4.93"/>
        <path class="cls-10" d="M181.5,105.37l-22.75,22.32,20.66-5.11h0c-.67,8.46-1.25,16.93-1.26,25.43a6.29,6.29,0,0,0,1,3.21h0l2.39-45.82v0M142,103.09h0l-1.56,3.58,3.18-1.2L142,103.09"/>
        <polyline class="cls-15" points="181.5 105.37 181.5 105.37 181.5 105.4 181.5 105.37"/>
        <path class="cls-11" d="M143.63,110.32l-3.18,1-19.12,36.23,14.3,2.17,5.74,22,4.63-16,18.07-10,15,2.23a4.52,4.52,0,0,1-1-2.64c0-7,.59-13.95,1.26-20.9l-20.66,4.2-15.12-18.27"/>
        <polyline class="cls-13" points="121.33 100.75 121.33 100.75 135.63 103.38 121.33 100.75"/>
        <path class="cls-11" d="M210.47,163.26l-.12,0,5,8.88.4-.12-5.28-8.78"/>
        <path class="cls-13" d="M209.16,117.24h0l1.23,2.64.12,0-1.31-2.63"/>
        <path class="cls-10" d="M209.12,161.11l-35.5,7.48v15.58L194,178.3c0-.12,0-.24,0-.36l.19-1.68,2-.28c3.25-.45,6.48-1,9.65-1.78a2,2,0,0,1,.17-.23,2.76,2.76,0,0,1,.95-.7,3.58,3.58,0,0,1,1.5-.32,3.53,3.53,0,0,1,1.23.21,2.94,2.94,0,0,1,.77.39l4.82-1.39-5-8.88-1.23-2.17"/>
        <path class="cls-11" d="M208.53,173a3.58,3.58,0,0,0-1.5.32,2.76,2.76,0,0,0-.95.7,2,2,0,0,0-.17.23c-3.17.74-6.4,1.33-9.65,1.78l-2,.28-.19,1.68c0,.12,0,.24,0,.36l16.52-4.75a2.94,2.94,0,0,0-.77-.39,3.53,3.53,0,0,0-1.23-.21"/>
        <path class="cls-12" d="M302.94,211.75h0c1.07,3.13,1.85,6.39,2.9,9.52v0l0,.08,0,.08.05.13h0c-1.1-3.24-1.91-6.6-3-9.84h0m-40.55-91.47h0l2.75,58.31h0l-2.75-58.31h0m-.28-11.69-.27,0h0l.27,0h0m-.88-12.73.16,3.31.19,4,.2,0h0l-.21,0-.35-7.27m-3.18-67.45.12,2.54.3,6.47h0l1.2,25.3-1.2-25.3-.42-9m-1-21.63h0l.76,16.11L257,6.79h0M186.94-9.71,186.63,0l.31-9.69h0m69.24-1.39h0l.59,12.41h0l-.34-7.17V-6l-.24-5.07M176.34-27.24l.77.18,0-.11-.75-.07"/>
        <path class="cls-10" d="M304.87,176.7c-3.95,4.46-7.52,9.1-9.85,14.2h0l9.84-14.2m1.08-5.11h0m-.05-.13.05.13-.05-.13m0-.16,0,.08,0-.08m-39.59-18.87.62,13c2.58.24,5.17.34,7.78.34,9.65,0,19.37-1.41,28.4-2.35l.36-.08c.83,2.64,1.55,5.33,2.42,8-1-3.14-1.83-6.39-2.9-9.52h0c-1.91-1-4-1.95-6-2.94l-30.71-6.38"/>
        <path class="cls-11" d="M303.42,163.32l-.36.08c-9,.94-18.75,2.35-28.4,2.35-2.61,0-5.2-.1-7.78-.34l.37,8-4.86,1.37v3.44s14.12,1.16,14.57,2h0l2,.27-.33,9L295,190.9c2.33-5.1,5.9-9.74,9.85-14.2l3.13-4.52c-.66-.19-1.35-.41-2-.58H306l-.05-.13,0-.08,0-.08v0c-.87-2.62-1.59-5.31-2.42-8"/>
        <path class="cls-16" d="M261.81,41.82l0,.77.27,0,0-.57a1.61,1.61,0,0,1-.28-.17m0-5.92-.2,0v.26l.19-.28"/>
        <path class="cls-16" d="M261.84,35.82l0,.07h0l-.19.28.22,5.64a1.61,1.61,0,0,0,.28.17l-.25-6.17"/>
        <path class="cls-15" d="M267.25,182.18l-4.86,1.67h0l4.86-1.67m-4.86-125.4c-.37,1.27-.67,2.56-1.08,3.81s-.9,2.55-1.34,3.83-.53,1.86-.42,1.86h0c-1.41,4.33-5.57,9.41-7.75,12.66l-.27.26c-1.08,1.14-2.07,2.35-3.17,3.48-2,2-4.24,3.74-6.26,5.71l-.25.15c-1.45.92-2.84,1.93-4.31,2.83-1.2.74-2.43,1.46-3.66,2.14.66,8,.87,16,.91,24l6.19,23a128.15,128.15,0,0,0,24.14-12.76l-2.75-70.91M258.47-44a156.23,156.23,0,0,1-9.41,14.94l-.22.31c-.85,1-1.68,2.08-2.55,3.09-2,2.4-4.15,4.72-6.33,7s-4.46,4.44-6.8,6.55q-1.59,1.44-3.23,2.83l-.11.09L231.52,44a162.32,162.32,0,0,0,29.59-20.09l.28,7.18-.16-4-.12-3.15-1.44-37.17L258.47-44M213.05-89.59s-.37.34-1.28,1.24c.71-.65,1.29-1.24,1.28-1.24M256.18-103a166.86,166.86,0,0,1-25.75,5.25v.92s-3.7.25-9.14.27c-3.52,3.11-7.28,6-10.56,9.28l1-1A19.05,19.05,0,0,1,210.22-87c-1,.73-2.08,1.44-3.14,2.14-2.39,1.58-4.86,3.07-7.39,4.43-1.05.57-2.12,1.11-3.19,1.63l-.21.1c-1.38.48-2.75,1-4.15,1.39,6.36,5.57,17.34,11.76,36,14.26l.6,18.73a154.32,154.32,0,0,0,25-19.57c1.35-1.27,2.51-2.73,3.81-4l.63,16.09-.12-3.1-.12-3-.14-3.66L257-81.27l-.26-6.66-.59-15.1"/>
        <path class="cls-17" d="M261.11,23.92A162.32,162.32,0,0,1,231.52,44l1.28,40.2a1.74,1.74,0,0,1,.34,2q.45,3.66.76,7.32c1.23-.68,2.46-1.4,3.66-2.14,1.47-.9,2.86-1.91,4.31-2.83l.25-.15c2-2,4.28-3.68,6.26-5.71,1.1-1.13,2.09-2.34,3.17-3.48l.27-.26c2.18-3.25,6.34-8.33,7.75-12.66h0c-.11,0-.07-.47.42-1.86s.91-2.54,1.34-3.83.71-2.54,1.08-3.81h0l-.55-14.17h0l0-.77-.22-5.64v-.26l-.19-4.82-.28-7.18"/>
        <path class="cls-17" d="M265.14,128.59h0A139.53,139.53,0,0,1,241,139.07l4.06,12.42h0c2.11-.69,2.66-1.28,2.79-1.57s0-.22,0-.22a.38.38,0,0,1,0,.22c-.06.38-.19,1.22-.27,2.18h0c0,.11,0,.23,0,.34l9.05,3.48h0c1.12,0,0,13.92,0,14.08h0l5.77.33v4.42l4.86-1.37-.37-8-.62-13-1.53-.32,1.15-7.73-.74-15.79"/>
        <path class="cls-13" d="M256.66,110.94h0m-8.8-7.29c-.13.36-.68,1.07-2.79,1.91l1.86.86.66-.12c.08-1.16.21-2.19.27-2.65m0-.27s0,.1,0,.27a.56.56,0,0,0,0-.27"/>
        <path class="cls-11" d="M277,180.22h0l1.93.27-1.67.67c.5,2.41,1.25,8.29,1.25,8.29h.12l.33-9-2-.27m-14.57-9-33.31,10.23h0l.08,0,8.76,3.49,24.48-6.74v-3.44h0v-3.58m-5.73-15.25h0l-38.16,20.58c13.86-3,30-6.38,38.27-7.92h0c-.06.81-.11,1.42-.11,1.42h0c0-.16,1.16-14.08,0-14.08m-9.07-3.82h0c0,.11,0,.23,0,.34h0c0-.11,0-.23,0-.34"/>
        <path class="cls-13" d="M256.73,168.59c-8.31,1.54-24.41,4.88-38.27,7.92l-.51.27,44.44-6.44-33.31,11.07,33.31-10.23v-.84l-5.77-.33s.05-.61.11-1.42"/>
        <path class="cls-13" d="M277,180.22a5,5,0,0,1,.26.94l1.67-.67-1.93-.27m-14.57-2-24.48,6.74h0l24.47-6.75"/>
        <path class="cls-13" d="M247.59,106.3h0l-.66.12.64.3c0-.14,0-.28,0-.42h0"/>
        <path class="cls-10" d="M229.07,181.42h0l.08,0-.08,0"/>
        <path class="cls-18" d="M362.31,205.4a9.24,9.24,0,0,0-3.52,1.83l1,.76a7.85,7.85,0,0,1,3-1.55l-.42-1Z"/>
        <path class="cls-18" d="M374.36,205.83l-3.67,2.35.82.87,3.67-2.35-.82-.87Z"/>
        <path class="cls-18" d="M336.72,197.86l-2.05,2,1,.7c.68-.67,1.36-1.35,2-2l-1-.71Z"/>
        <path class="cls-18" d="M395.81,248.3l-.81,1.34,1.19.49.81-1.34-1.19-.49Z"/>
        <path class="cls-18" d="M402.8,248.58l-.82,1,1.12.61.81-1-1.11-.6Z"/>
        <path class="cls-18" d="M413.48,249.22a1.71,1.71,0,0,0-.55,1.25,1.65,1.65,0,0,0,.42,1.1l1.08-.64-.17-.46.23-.53-1-.72Z"/>
        <path class="cls-18" d="M441.09,242.63l.78,2.36,1.28-.28c-.25-.79-.51-1.58-.77-2.36l-1.29.28Z"/>
        <path class="cls-18" d="M229.89,224.5l-1.23.67L236,234.3l1.23-.67-7.35-9.13Z"/>
        <path class="cls-18" d="M256.48,230h-.3a3.58,3.58,0,0,0-3.33,2l1.26.35a2.26,2.26,0,0,1,2.07-1.22h.18l.12-1.09Z"/>
        <path class="cls-18" d="M279.74,233.31a13.86,13.86,0,0,0-3.42,2.47l1,.7a12.6,12.6,0,0,1,3.11-2.24l-.71-.93Z"/>
        <path class="cls-18" d="M295.43,231.53a5.83,5.83,0,0,0-.86,3,5.71,5.71,0,0,0,.39,2.07l1.27-.33a4.75,4.75,0,0,1-.32-1.74,5,5,0,0,1,.71-2.55l-1.19-.48Z"/>
        <path class="cls-18" d="M302.24,261.52c-.14.67-.28,1.34-.43,2l1.32.19.42-2-1.31-.19Z"/>
        <path class="cls-19" d="M237.87,363.13l42.05.05-42.05-.05m-31.14-2.72.16.11-.16-.11m-.15-.1.15.1-.15-.1m-.15-.1.11.07-.11-.07m-.15-.1.05,0-.05,0"/>
        <path class="cls-20" d="M208,331.41l-11.21,22.95c3.18,1.88,6.37,3.68,9.53,5.75l.05,0,.1.07.11.07,0,0,.15.1h0l.16.11h0c4,2.67,9,3.35,14.22,3.35,2.75,0,5.58-.19,8.39-.37s5.62-.37,8.31-.37h.06l42.05.05,42.61.06h1.82c13.77,0,27.68-.24,41-3.05V351.4L354.05,351a4,4,0,0,1-2.77,5.67,5.12,5.12,0,0,1-.87.08,6.29,6.29,0,0,1-2.32-.48,6,6,0,0,1-3.85-5.61l-25.87-.89a9.41,9.41,0,0,1,.88,5,2.43,2.43,0,0,1-.48,1.46,2.6,2.6,0,0,1-2,.73,7.37,7.37,0,0,1-1.88-.28c-3.06-.85-5.89-2.54-7.29-4.93a6.33,6.33,0,0,1-.8-2.38l-6.68-.23a13.06,13.06,0,0,1,.51,2.47l-1.07-2.49h-.44a8.7,8.7,0,0,1,0,4.39,4.13,4.13,0,0,1-1.55,2.29,4.54,4.54,0,0,1-2.59.7,8.7,8.7,0,0,1-3.16-.65,10.49,10.49,0,0,1-6.51-7.21l-43.75-1.51-25.4-11.9a7.3,7.3,0,0,1-1.4.13c-3,0-5.93-1.6-6.75-3.95h0"/>
        <path class="cls-21" d="M344.24,350.67a6,6,0,0,0,3.85,5.61,6.29,6.29,0,0,0,2.32.48,5.12,5.12,0,0,0,.87-.08,4,4,0,0,0,2.77-5.67l-9.81-.34"/>
        <path class="cls-19" d="M495.54,267.86v0m0-.19v0m0-.21v0m0-.2v0m0-.18,0,.07,0-.07m0-.2v0m0-.17v0m0-.2v0"/>
        <path class="cls-22" d="M469.15,331.22l-8.09.59v0l8.08-.61"/>
        <path class="cls-20" d="M450.59,319.64l10.47,12.17,8.09-.59h0a5.21,5.21,0,0,0,3.34-1,3.48,3.48,0,0,0,.71-2.54,21.85,21.85,0,0,1,.62-4.61l-23.23-3.42m44.69-53.29c-7.19,2.8-19.39,6.71-19.39,6.71l-18.75,15.69,11,.74,1.06-.27.13.35,10.18.69h0l.38,0-.12-2.67-.06-1.57-.2.1v0a11.86,11.86,0,0,1-1.13.56,3.83,3.83,0,0,1-1.4.27,2,2,0,0,1-1.6-.63,1.68,1.68,0,0,1-.28-1.09v-.1c0-2.12,1.58-4.42,3.46-6.13l.1-.08a12.19,12.19,0,0,1,1.34-1.1l.79-.06c.16-.07.33-.14.51-.2a22.44,22.44,0,0,1,8-1.48c.4,0,.81,0,1.22,0h.07a33.19,33.19,0,0,1,5.43.42,43.75,43.75,0,0,0-.48-8.61v0a1,1,0,0,0,0-.16v0a.77.77,0,0,0,0-.15v-.06l0-.12v-.08l0-.11,0-.07,0-.13v-.07l0-.1v-.07l0-.14v-.06l0-.16h0"/>
        <path class="cls-23" d="M94.9,250.54h0m.15-.5h0l-.15.5s.06-.21.15-.5"/>
        <path class="cls-24" d="M118.06,275.85l.68.54-.68-.54"/>
        <path class="cls-20" d="M110.11,243.22s-7.64,3.5-15.06,6.82c-.09.29-.14.47-.15.5h0c6.6,9.31,13.58,18,23.16,25.31h0l.68.54,16.89,13.36,65.59,8.93-27.6-13.11L162.05,269l-51.94-25.73"/>
        <path class="cls-22" d="M92.53,211.8c2.41,4.34,6.84,12.6,8,16.89h0c-1.21-4.31-5.65-12.56-8.06-16.9M90.94,209h0"/>
        <path class="cls-25" d="M90.94,209s.65,1.13,1.59,2.81c2.41,4.34,6.85,12.59,8.06,16.9h0c-1.69-6-9.6-19.6-9.66-19.71m0,0h0"/>
        <path class="cls-20" d="M91.89,207.91h0l-1,1.08h0c.06.11,8,13.72,9.66,19.71L155.86,245l-14.49-17.59L91.89,207.91"/>
        <path class="cls-24" d="M100.86,326.18h0"/>
        <path class="cls-19" d="M100.79,326.13l.07.05h0c16.45,11.12,36.19,18.83,57,22.61q-5.49-1-10.86-2.39l-1.31-.31c-2.36-.62-4.67-1.33-7-2.06-1.32-.41-2.65-.82-4-1.26q-2.9-1-5.73-2.11c-1.7-.65-3.37-1.33-5-2s-3.18-1.37-4.74-2.11c-2-.95-4-2-6-3-1.18-.63-2.39-1.22-3.55-1.88-3.06-1.74-6.06-3.55-8.93-5.5"/>
        <path class="cls-20" d="M93.22,301.15c.47,1.05,2.07,1.32,3.29,1.83,2.61,1.08,3.59,3.47,3.59,6h0a11,11,0,0,1-.66,3.65c-1,2.86-2.7,5.75-2.7,8.66a6.68,6.68,0,0,0,.24,1.81c.45,1.63,2.07,1.88,3.64,2.95l.17.11c2.87,1.95,5.87,3.76,8.93,5.5,1.16.66,2.37,1.25,3.55,1.88,2,1,3.94,2.06,6,3,1.56.74,3.15,1.42,4.74,2.11s3.33,1.39,5,2q2.84,1.11,5.73,2.11c1.31.44,2.64.85,4,1.26,2.32.73,4.63,1.44,7,2.06l1.31.31q5.37,1.36,10.86,2.39a165.44,165.44,0,0,0,18.5,2.3l7.56-24L120.66,309A19.3,19.3,0,0,1,119,311.6l1.8-1.47L119,311.6c-.25.33-.52.66-.79,1a13.09,13.09,0,0,1-5.34,4.28,7.82,7.82,0,0,1-2.7.47,5.37,5.37,0,0,1-4.12-1.58,4.8,4.8,0,0,1-1-3.29c0-2.31,1.42-4.81,3.37-7l-15.19-4.35"/>
        <polyline class="cls-21" points="120.75 310.13 118.95 311.6 118.95 311.6 120.75 310.13"/>
        <path class="cls-26" d="M196.45,310.87c-4.18-3.2-11.43-3-15.53.24A8.9,8.9,0,0,0,179.69,324c3.34,3.81,10,5.29,15.31,3.56s8.9-6.41,8.73-11.1a8.28,8.28,0,0,0-2.59-5.85c-3.88-3.58-10.7-3.2-16.48-2.53"/>
        <path class="cls-26" d="M148.63,313.16c.66-2.77-1.45-5.7-4.55-6.91a12.64,12.64,0,0,0-9.85.63,14,14,0,0,0-6.3,6.5c-1.23,2.57-1.67,5.56-.22,8.05,1.2,2.07,3.55,3.54,6,4.62a11.09,11.09,0,0,0,3.85,1.06c2.82.15,5.34-1.4,7.27-3.08,3-2.64,5.39-6,5.76-9.58a9.3,9.3,0,0,0-5.39-9.31"/>
        <path class="cls-27" d="M133.09,297.9a8.61,8.61,0,0,0-2.65,2.06,2.2,2.2,0,0,0-.05,2.84,3.46,3.46,0,0,0,1.35.81c3.9,1.44,9.09-1,9.59-4.47a2.77,2.77,0,0,0-.39-2c-.77-1.11-2.55-1.52-4.08-1.28a12.29,12.29,0,0,0-4.15,1.68"/>
        <path class="cls-27" d="M105,312.47a4.8,4.8,0,0,0,1,3.29c1.44,1.7,4.53,2,6.82,1.11a13.09,13.09,0,0,0,5.34-4.28c1.71-2.07,3.27-4.32,3.63-6.81,1.92-13-16.61-1.87-16.75,6.69"/>
        <path class="cls-27" d="M190.88,331c-4.36,1.24-7.16,5.37-6.14,9.06a4.42,4.42,0,0,0,1,1.93c1.81,1.85,5.43,1.58,8,.43,2.79-1.27,5.1-3.61,5.09-6.23s-3-5.2-6.16-4.66l-1.81-.53"/>
        <path class="cls-27" d="M213,324.86c-3.55.37-6.08,3.72-5.08,6.55s5.09,4.56,8.53,3.74,5.76-3.92,5.31-6.84a4.88,4.88,0,0,0-2.25-3.43c-2.27-1.41-5.49-.95-8.15-.13l1.64.11"/>
        <path class="cls-27" d="M341.43,344.21c1.33-3.61-.44-7.52-3-10.66A33.73,33.73,0,0,0,321,322.69c-2.55-.68-5.47-1.07-7.81,0-3.85,1.78-3.9,6.39-2.4,9.81,3.48,7.93,12.89,13.86,23.11,14.57,2.64.18,5.61-.07,7.38-1.69a4.92,4.92,0,0,0,1.09-5.4,16.34,16.34,0,0,0-3.4-5l2.5,9.18"/>
        <path class="cls-27" d="M308.76,344.34a5.79,5.79,0,0,0-1.18,7.42c1.4,2.39,4.23,4.08,7.29,4.93,1.34.37,3.09.5,3.9-.45a2.43,2.43,0,0,0,.48-1.46,8.64,8.64,0,0,0-1.87-6.46,7.56,7.56,0,0,0-7.2-2.3l-1.42-1.68"/>
        <path class="cls-27" d="M300.61,351.62A14,14,0,0,0,297,343.7c-1.62-1.78-4.12-3.38-6.8-3a6.06,6.06,0,0,0-5,5.16c-.63,4,2.16,8.25,6.6,10,1.83.73,4.19,1,5.75-.05a4.13,4.13,0,0,0,1.55-2.29c.83-2.81-.24-5.74-1.3-8.49l2.84,6.6"/>
        <path class="cls-9" d="M466.28,266a16.73,16.73,0,0,0-9.54,2.41c-.61.38-1.23.89-1.23,1.52,0,.83,1.05,1.39,2,1.66a13.05,13.05,0,0,0,9.58-1.08c1.27-.71,2.43-1.83,2.27-3.08s-2.34-2.15-3.3-1.17"/>
        <path class="cls-9" d="M483.45,263a9.79,9.79,0,0,0-6.84,1.59,1.56,1.56,0,0,0-.7.84c-.18.85,1.1,1.35,2.12,1.54a15.05,15.05,0,0,0,4.53.37,4.49,4.49,0,0,0,3.58-2,2.18,2.18,0,0,0-1.68-3"/>
        <polygon class="cls-26" points="301.04 294.71 314.29 284.4 318.07 297.63 327.67 300.89 318.07 305.02 318.07 315.25 307.31 305.02 294.77 312.76 297.86 300.89 285.81 295.87 301.04 294.71"/>
        <path class="cls-9" d="M161.47,322.8a10.82,10.82,0,0,0-7.77,3.88,4,4,0,0,0-.8,4.19c1,1.89,4,2.55,6.38,2.09,3-.59,5.63-2.81,5.64-5.36s-3.15-4.92-6.14-4.27"/>
        <path class="cls-9" d="M173.85,332.67c-3.25.83-6.67,3.25-5.68,5.93.56,1.53,2.54,2.54,4.49,2.53a7.3,7.3,0,0,0,5-2.12c1.28-1.27,2-3.05,1.27-4.59a3.8,3.8,0,0,0-4.88-1.51"/>
        <path class="cls-9" d="M249.14,349c-.3-1.51-2.42-2.51-4.23-2.16a4.16,4.16,0,0,0-3.36,3.31,5.15,5.15,0,0,0,1.7,4.24,5,5,0,0,0,2.12,1.33,4.2,4.2,0,0,0,5.12-3c.28-2-1.19-3.89-3.12-5.09"/>
        <path class="cls-28" d="M317.88,321.45a6.71,6.71,0,0,0-2.07.31,4.7,4.7,0,0,0-.85.39,10.48,10.48,0,0,1,1.6-.12,13.89,13.89,0,0,1,1.92.14c.27,0,.53,0,.79.07a30.68,30.68,0,0,1,6.35,1.7,75.29,75.29,0,0,1,11.57,5.79,73.8,73.8,0,0,0-11.29-6.27,30.77,30.77,0,0,0-6.49-1.89,10.9,10.9,0,0,0-1.53-.12"/>
        <path class="cls-29" d="M331,336h0m-14.43-14a10.48,10.48,0,0,0-1.6.12A4.33,4.33,0,0,0,313.3,324c-.92,2-.15,4,.74,5.74a22.39,22.39,0,0,0,3.44,4.94,27.4,27.4,0,0,0,10.68,7.15,16.84,16.84,0,0,0,5.69,1.05c.42,0,.84,0,1.26-.05a5.37,5.37,0,0,0,3.42-1.36,3.65,3.65,0,0,0,.89-3c-.68-3.93-3.61-7.31-7.52-9.41a18.39,18.39,0,0,0-6.48-2.07,10.55,10.55,0,0,0-1.13-.06,5.3,5.3,0,0,0-2.44.51,2.54,2.54,0,0,0-1.43,2.72c.33,2,2.15,3.51,4,4.53a13,13,0,0,0,5.92,1.42H331v0a1.09,1.09,0,0,0-.2-1.09A1.08,1.08,0,0,1,331,336h-.1a12.49,12.49,0,0,1-6.2-1.63c-1.79-1-3.36-2.57-3.57-4.32a2,2,0,0,1,1.16-2.12,4.38,4.38,0,0,1,1.88-.36,8.89,8.89,0,0,1,1.15.08,17.41,17.41,0,0,1,6,2.08c3.58,2,6.34,5.28,6.88,8.77a2.75,2.75,0,0,1-.65,2.29,4,4,0,0,1-2.58.95c-.34,0-.68,0-1,0a15.76,15.76,0,0,1-5.25-1,26.24,26.24,0,0,1-10.25-6.75,21.1,21.1,0,0,1-3.35-4.71c-.87-1.65-1.55-3.46-.84-5.08a3.29,3.29,0,0,1,1.93-1.81,5.59,5.59,0,0,1,1.89-.3h.41a13.89,13.89,0,0,0-1.92-.14"/>
        <path class="cls-28" d="M297.77,345l.21.54,0,0-.25-.58m-.16-.55a14.48,14.48,0,0,1,1.56,2.4,12.47,12.47,0,0,1,1.07,1.64,10.2,10.2,0,0,0-2.63-4"/>
        <path class="cls-29" d="M292.33,341.82a3.72,3.72,0,0,0-2.3.77,4.92,4.92,0,0,0-1.57,2.08,7.51,7.51,0,0,0-.3,4.7,7.62,7.62,0,0,0,2.8,4.14,4.75,4.75,0,0,0,2.7.91h.2a3.42,3.42,0,0,0,2.61-1.4,3.76,3.76,0,0,0-.39-4.6,8.74,8.74,0,0,0-1.75-1.8,1.73,1.73,0,0,0-1.11-.37c-.59,0-1.14.25-1.23.75a1.05,1.05,0,0,1,1-.57,1.52,1.52,0,0,1,1.08.41,7.74,7.74,0,0,1,1.4,1.83c.81,1.27,1.08,2.81.11,3.9a2.39,2.39,0,0,1-1.92.89,3.1,3.1,0,0,1-1.94-.7,6.61,6.61,0,0,1-2.29-3.62,6.69,6.69,0,0,1,.14-4.15,3.25,3.25,0,0,1,2.87-2.3,2.19,2.19,0,0,1,.36,0,12.77,12.77,0,0,1,5.15,2.84l-.21-.54.25.58a12.44,12.44,0,0,1,1.15,1.27,14.48,14.48,0,0,0-1.56-2.4,11,11,0,0,0-4.59-2.58,3.23,3.23,0,0,0-.69-.07"/>
        <path class="cls-28" d="M313,345.93a7.67,7.67,0,0,1,4.41,2.39l.2.23a5.16,5.16,0,0,0-4.61-2.62"/>
        <path class="cls-29" d="M312.94,345.93a5.74,5.74,0,0,0-.71,0,2.15,2.15,0,0,0-1.56,1.13,3.89,3.89,0,0,0-.33,1.51,7.32,7.32,0,0,0,.45,2.87,6.11,6.11,0,0,0,5.16,3.83A2.17,2.17,0,0,0,317,355a1,1,0,0,0,.49-.91,3.34,3.34,0,0,0-.68-1.4,5.73,5.73,0,0,0-2.56-1.82,5.63,5.63,0,0,1,2,2.08,2.81,2.81,0,0,1,.41,1.15c0,.26-.22.34-.59.34H316a5.1,5.1,0,0,1-3.91-3.33,6.35,6.35,0,0,1-.51-2.5c0-.87.21-1.65,1-1.85a4,4,0,0,1,.85-.09,5.48,5.48,0,0,1,4.35,2.2,3.42,3.42,0,0,0-.13-.34l-.2-.23a7.67,7.67,0,0,0-4.41-2.39h0"/>
        <path class="cls-28" d="M213.57,324.21a10.53,10.53,0,0,0-5.51,2.37,14.62,14.62,0,0,1,3.16-1.24,6.11,6.11,0,0,1,1.82-.48l-1.64-.11a20.24,20.24,0,0,1,2.17-.54"/>
        <path class="cls-29" d="M214.42,324.17a7.94,7.94,0,0,0-.85,0,20.24,20.24,0,0,0-2.17.54l1.64.11a6.11,6.11,0,0,0-1.82.48l.14,0a11,11,0,0,1,2.51-.39,3.52,3.52,0,0,1,.87.09,3.93,3.93,0,0,1,2.67,4.48,3,3,0,0,1-3.15,2.88,3.53,3.53,0,0,1-1-.15,1.55,1.55,0,0,1-1.12-2.08,2.3,2.3,0,0,1,2.22-1.27,3.31,3.31,0,0,1,.55.05,2.64,2.64,0,0,0-1-.19,2.74,2.74,0,0,0-2.36,1.21,2.14,2.14,0,0,0,1.3,3,4.22,4.22,0,0,0,1.65.32,4.67,4.67,0,0,0,2.45-.69,4.31,4.31,0,0,0,1.84-3,5.23,5.23,0,0,0-.68-3.24,4.34,4.34,0,0,0-3.08-2.18h-.55"/>
        <path class="cls-28" d="M195.73,331.9a5.6,5.6,0,0,1,1.36.86,2.73,2.73,0,0,1,2,1.81c0-1.12-1.15-2-2.38-2.44a6.14,6.14,0,0,0-.94-.23"/>
        <path class="cls-29" d="M194.55,331.81a10.36,10.36,0,0,0-1.93.2,8.25,8.25,0,0,0-5.89,4.43,4,4,0,0,0,0,3.49,4.51,4.51,0,0,0,3.41,2.17,3.39,3.39,0,0,0,.55,0,3.58,3.58,0,0,0,3.12-1.74,6.36,6.36,0,0,0,.68-3.25V337l-.11-.05a4.83,4.83,0,0,0-2.08-.47,4.13,4.13,0,0,0-1.22.17,5.07,5.07,0,0,1,.55,0,4.59,4.59,0,0,1,2.33.6,6.78,6.78,0,0,1-.94,2.82,2.69,2.69,0,0,1-2.24,1.14,2.28,2.28,0,0,1-.45,0,3.28,3.28,0,0,1-2.42-1.62,3.55,3.55,0,0,1,0-2.75,7.54,7.54,0,0,1,4.95-4,8,8,0,0,1,2.19-.31,6.58,6.58,0,0,1,1.4.14,4.63,4.63,0,0,1,.61.17,5.6,5.6,0,0,0-1.36-.86,7.72,7.72,0,0,0-1.18-.09"/>
        <path class="cls-28" d="M121,300.9a2.18,2.18,0,0,1,.22.31h.48a2.8,2.8,0,0,1,.72.07c.35.09.82.33.63.69.27-.34-.19-.7-.55-.84a4.54,4.54,0,0,0-1.26-.2l-.24,0"/>
        <path class="cls-29" d="M120.71,300.9a10.07,10.07,0,0,0-2,.2,13.07,13.07,0,0,0-4.48,2c-2.55,1.84-4.58,4.37-4.93,7.31a2.91,2.91,0,0,0,.64,2.32,2.94,2.94,0,0,0,2.15.78,4,4,0,0,0,.72-.06,8.27,8.27,0,0,0,4.44-2.32,5.79,5.79,0,0,0,1.82-4,1.65,1.65,0,0,0-1.64-1.46h-.22a3.76,3.76,0,0,0-2.14,1.09,4.2,4.2,0,0,1,2.16-.8,1.12,1.12,0,0,1,1.19,1.19,5.41,5.41,0,0,1-2,3.41,8,8,0,0,1-3.87,1.89l-.45,0a1.56,1.56,0,0,1-1.2-.41,2.07,2.07,0,0,1-.32-1.6c.18-2.55,2-4.93,4.28-6.77a12,12,0,0,1,4-2.14,8.62,8.62,0,0,1,2.33-.4,2.18,2.18,0,0,0-.22-.31h-.32"/>
        <path class="cls-27" d="M200,324.61a6.76,6.76,0,0,0,2.58-7.41c-.59-2.58-1.94-5.34-4.67-6.61s-6.28-.52-9.05.64a12.32,12.32,0,0,0-6.35,5.63,5,5,0,0,0-.48,3.69,4.18,4.18,0,0,0,2.65,2.76,12,12,0,0,0,4.61.51,10.88,10.88,0,0,0,4.47-1.05c2.76-1.31,2.39-5-.27-6.39a4.8,4.8,0,0,0-4.44-.07,2.57,2.57,0,0,0-1.17,3.56,2.65,2.65,0,0,1,1-3.77,5.36,5.36,0,0,1,5-.17,4.71,4.71,0,0,1,2.66,3.62,3.93,3.93,0,0,1-2.16,3.91,11.21,11.21,0,0,1-5,1.31,13.16,13.16,0,0,1-5.19-.56,5.3,5.3,0,0,1-3.39-3.41,5.88,5.88,0,0,1,.49-4.35,13.62,13.62,0,0,1,7-6.11,17.22,17.22,0,0,1,5-1.24,9.64,9.64,0,0,1,5.17.76c3.12,1.62,4.3,4.57,4.8,7.26A7.16,7.16,0,0,1,200,324.61Z"/>
        <path class="cls-27" d="M144.4,306.56h0a1.47,1.47,0,0,1,1,.39,3.42,3.42,0,0,1,.78,1,6.9,6.9,0,0,1,.75,3.16,7.84,7.84,0,0,1-1.09,3.92,12.2,12.2,0,0,1-6.38,5,9,9,0,0,1-3,.62h-.28a5.42,5.42,0,0,1-4.53-2.84,4.51,4.51,0,0,1-.44-1.94,5.55,5.55,0,0,1,.92-3,10.18,10.18,0,0,1,4.54-3.56,3.83,3.83,0,0,1,1.41-.38l.46.09a1.68,1.68,0,0,1,.82,1.07,5.41,5.41,0,0,1,.35,1.85,3.87,3.87,0,0,1-3.25,3.88l-.42,0-.4-.08a.62.62,0,0,1-.31-.58l0-.16a3.11,3.11,0,0,1,.63-1.13l-1.13-.57a3.87,3.87,0,0,0-.82,1.53l0,.33a1.65,1.65,0,0,0,.94,1.51,2.46,2.46,0,0,0,1.1.24l.7-.06a5.3,5.3,0,0,0,3.87-2.9,4.93,4.93,0,0,0,.43-2.05,6.46,6.46,0,0,0-.4-2.17,2.81,2.81,0,0,0-1.49-1.73,2.71,2.71,0,0,0-1.07-.2,5.06,5.06,0,0,0-2,.5,11.34,11.34,0,0,0-5.09,4,6.45,6.45,0,0,0-1.08,3.49,5.4,5.4,0,0,0,.53,2.34,6.73,6.73,0,0,0,5.69,3.53h.36A10.65,10.65,0,0,0,140,321a13.39,13.39,0,0,0,7-5.5,8.68,8.68,0,0,0,1.22-4.39,7.85,7.85,0,0,0-.85-3.58,4.34,4.34,0,0,0-1.06-1.37,3,3,0,0,0-1.91-.72h-.12l.07,1.1Z"/>
        <path class="cls-30" d="M433.06,333.92l-3.28.24-.44,8.23A29.46,29.46,0,0,1,419,344.46c-5.51,0-8.27-2.07-8.27-2.07h0l-.3-7q-3.4.19-6.76.35h0a34,34,0,0,1-7.76,10.16c4.95,2.08,12.92,3.43,21.91,3.43,15,0,27.2-3.77,27.2-8.43,0-2.9-4.75-5.46-12-7"/>
        <path class="cls-31" d="M410.44,335.39q-3.4.19-6.76.35,3.36-.15,6.76-.35h0m22.6-1.47-3.26.23h0l3.28-.24h0"/>
        <path class="cls-32" d="M429.82,333.34l0,.81,3.26-.23c-1-.22-2.1-.41-3.22-.58m-19.5-.54c-11.36,1-19.68,4.26-19.68,8.1,0,1.87,2,3.6,5.28,5a34,34,0,0,0,7.76-10.16h0q3.36-.15,6.76-.35l-.12-2.59"/>
        <path class="cls-33" d="M502.65,279.27a5.12,5.12,0,0,0-1.07-.79l-.25-.18-.23-.08a23.12,23.12,0,0,0-10.57-2.15,25.59,25.59,0,0,0-9.75,1.7l-.79.06a12.19,12.19,0,0,0-1.34,1.1l-.1.08c-1.88,1.71-3.42,4-3.46,6.13a1.84,1.84,0,0,0,.28,1.19c.59.78,2,.76,3,.36s1.82-1.07,2.86-1.38a9.59,9.59,0,0,0,1.44,3,4.55,4.55,0,0,0,3.18,1.76c1.92.14,3.53-1.08,5.12-2l.66-.2c.54.05.65.63.85,1.05.52,1.09,2.47,1.27,3.69.65a7.16,7.16,0,0,0,2.58-2.78,2.05,2.05,0,0,1,1.22-1,3.8,3.8,0,0,1,1,0,3.58,3.58,0,0,0,3.76-3.43,4.55,4.55,0,0,0-2.09-3.14"/>
        <path class="cls-34" d="M502.65,279.27a5.12,5.12,0,0,0-1.07-.79l-.25-.18-.23-.08a23.12,23.12,0,0,0-10.57-2.15,25.59,25.59,0,0,0-9.75,1.7l-.79.06a12.19,12.19,0,0,0-1.34,1.1l-.1.08c-1.88,1.71-3.42,4-3.46,6.13a1.84,1.84,0,0,0,.28,1.19c.59.78,2,.76,3,.36s1.82-1.07,2.86-1.38a9.59,9.59,0,0,0,1.44,3,4.55,4.55,0,0,0,3.18,1.76c1.92.14,3.53-1.08,5.12-2l.66-.2c.54.05.65.63.85,1.05.52,1.09,2.47,1.27,3.69.65a7.16,7.16,0,0,0,2.58-2.78,2.05,2.05,0,0,1,1.22-1,3.8,3.8,0,0,1,1,0,3.58,3.58,0,0,0,3.76-3.43,4.55,4.55,0,0,0-2.09-3.14"/>
        <path class="cls-33" d="M501.69,279.36c0,1.82-5,3.29-11.09,3.29s-11.1-1.47-11.1-3.29,5-3.29,11.1-3.29,11.09,1.47,11.09,3.29"/>
        <polyline class="cls-35" points="469.19 289.22 399.08 307.11 399.48 308.16 469.58 290.27 469.19 289.22"/>
        <polyline class="cls-35" points="490.36 290.5 425.19 311.18 425.67 312.2 490.84 291.52 490.36 290.5"/>
        <polyline class="cls-35" points="514.8 292.17 448.1 316.56 448.64 317.56 515.34 293.17 514.8 292.17"/>
        <path class="cls-33" d="M431.3,302.48c0,1.82-5,3.29-11.1,3.29s-11.09-1.47-11.09-3.29,5-3.29,11.09-3.29,11.1,1.47,11.1,3.29"/>
        <path class="cls-36" d="M479.76,287.62l.12,2.67-.38,0h0l.38,0-.12-2.67M479.7,286l-.2.12v0l.2-.1v0"/>
        <polyline class="cls-37" points="501.2 291.73 501.2 291.73 505.14 292 505.14 291.99 501.2 291.73"/>
        <path class="cls-38" d="M481.23,285.31a7.1,7.1,0,0,0-1.53.7v0h0l.06,1.57.12,2.67,9.19.62,1.29-.41.24.51,10.6.72h0l.3-5.67v-.24a2.23,2.23,0,0,1-.37,0H501c-.22,0-.44,0-.66,0a1.64,1.64,0,0,0-1.57,1.06,7.16,7.16,0,0,1-2.58,2.78,3.49,3.49,0,0,1-1.58.36,2.25,2.25,0,0,1-2.11-1c-.2-.42-.31-1-.85-1.05l-.66.2c-1.51.84-3,2-4.82,2h-.3a4.55,4.55,0,0,1-3.18-1.76,9.59,9.59,0,0,1-1.44-3"/>
        <path class="cls-39" d="M501.69,280.81l-1.63.27c-1.95.94-5.46,1.57-9.46,1.57H479.5v3.48a8.08,8.08,0,0,1,1.73-.82,9.59,9.59,0,0,0,1.44,3,4.55,4.55,0,0,0,3.18,1.76h.3c1.79,0,3.31-1.13,4.82-2l.66-.2c.54.05.65.63.85,1.05a2.25,2.25,0,0,0,2.11,1,3.49,3.49,0,0,0,1.58-.36,7.16,7.16,0,0,0,2.58-2.78,1.64,1.64,0,0,1,1.57-1.06c.22,0,.44,0,.66,0h.16a2.23,2.23,0,0,0,.37,0v-.07c.41-.05.68-.35,1-.51l-.85-4.43"/>
        <path class="cls-40" d="M500.06,281.08l-9.46,1.57h0c4,0,7.51-.63,9.46-1.57"/>
        <path class="cls-41" d="M508.08,295.82l-2.77,1h3.55l-.78-1M490.6,291l.24.51-8,2.54,3.48,2.77H502l5.32-1.94L505.14,292l-3.94-.27L490.6,291m-11.1-.75v1.12l2.3,1.84,7.27-2.31-9.19-.62-.38,0"/>
        <polyline class="cls-38" points="490.36 290.5 489.07 290.91 481.8 293.22 482.85 294.06 490.84 291.52 490.6 291.01 490.36 290.5"/>
        <polyline class="cls-38" points="507.36 294.89 502.04 296.83 505.31 296.83 508.08 295.82 507.36 294.89"/>
        <path class="cls-42" d="M409.63,316.67l.69,16.13h0l-.7-16.13h0m-3-3.49-.49.56a19.86,19.86,0,0,0,3.42,1.71l-.08-1.85-2.85-.42"/>
        <polyline class="cls-43" points="410.44 335.39 410.44 335.39 410.74 342.39 410.44 335.39"/>
        <polyline class="cls-44" points="410.44 335.39 410.44 335.39 410.44 335.39 410.44 335.39 410.44 335.39"/>
        <polyline class="cls-45" points="410.32 332.81 410.32 332.81 410.44 335.39 410.44 335.39 410.32 332.81"/>
        <polyline class="cls-42" points="430.71 316.72 429.82 333.34 429.82 333.34 430.71 316.72 430.71 316.72"/>
        <polyline class="cls-43" points="429.78 334.16 429.78 334.16 429.34 342.39 429.78 334.16"/>
        <polyline class="cls-44" points="429.78 334.15 429.78 334.15 429.78 334.16 429.78 334.16 429.78 334.15"/>
        <polyline class="cls-45" points="429.82 333.34 429.78 334.15 429.78 334.15 429.82 333.34 429.82 333.34"/>
        <polyline class="cls-38" points="399.21 307.46 399.48 308.16 401.25 307.71 399.21 307.46"/>
        <polyline class="cls-38" points="452.29 315.03 448.1 316.56 448.64 317.56 454.53 315.4 452.29 315.03"/>
        <polyline class="cls-38" points="498.27 322.8 498.27 322.8 498.27 322.8 498.27 322.8"/>
        <g>
          <path class="cls-46" d="M206,156.12c5.87.15,11.74.18,17.6.13,3.47,0,6.92-.14,10.38-.22-.24-23.63-.8-47.25-1.82-70.86-18.13,3.22-42.24-2.52-42.24-2.52L191,156.46A97.67,97.67,0,0,1,206,156.12Z"/>
          <path class="cls-18" d="M222.51,107.81a11.89,11.89,0,1,0-11.88,11.88,11.88,11.88,0,0,0,11.88-11.88"/>
          <path class="cls-47" d="M219,107.81a8.41,8.41,0,1,0-8.4,8.4,8.4,8.4,0,0,0,8.4-8.4"/>
          <path class="cls-48" d="M207.47,102.22a3.09,3.09,0,0,0-2.11,2.22v.69c.2.56.92.71,1.52.7a3.57,3.57,0,0,0,2.67-1,1.74,1.74,0,0,0-.25-2.56c-.79-.42-1.74,0-2.52.49l.69-.53"/>
          <path class="cls-49" d="M201.46,142.29c-.58.06-1.16.11-1.73.18l-.18,1.11c.66,0,1.31,0,2,0a14.94,14.94,0,0,0,4.46-.87,14.59,14.59,0,0,0-4.52-.46"/>
          <path class="cls-49" d="M217.58,131.49H217a5.24,5.24,0,0,0-2,.65,2.79,2.79,0,0,0,2.13.67,2.75,2.75,0,0,0,1.95-1.08,3.61,3.61,0,0,0-1.45-.24"/>
          <path class="cls-49" d="M224.61,148.24c-.33,0-.66,0-1,.06a4.24,4.24,0,0,0-2.12,1.09,3.24,3.24,0,0,0,1.38.28c.33,0,.66,0,1-.06a4.18,4.18,0,0,0,2.11-1.09,3.17,3.17,0,0,0-1.37-.28"/>
          <path class="cls-12" d="M194.88,158.57l2.14.73-2.14-.73M232,85.11a6.3,6.3,0,0,0-1,.18,6.23,6.23,0,0,1-1.07.18c-.13,0-.21,0-.24-.08-2.92.26-8.14.63-14,.69,1.36,0,2.73.08,4.11.08a72.51,72.51,0,0,0,12.45-1v0h0a.32.32,0,0,0-.16,0m-42.08-2.46h0"/>
          <path class="cls-50" d="M233.23,114.46q-.42-14.64-1-29.28a72.51,72.51,0,0,1-12.45,1c-1.38,0-2.75,0-4.11-.08h-1.31c-8.47,0-18.09-.72-24.35-3.43h0L191,156.28q3.27-.22,6.54-.28l2-12.42a9.85,9.85,0,0,1-2.55-.42,10.33,10.33,0,0,1,2.73-.69l4-25a11.89,11.89,0,1,1,18.76-9.69,11.73,11.73,0,0,1-.67,3.94Z"/>
          <path class="cls-16" d="M210.63,95.92a11.89,11.89,0,0,0-6.88,21.58l.65-4A8.4,8.4,0,1,1,219,107.81a8.29,8.29,0,0,1-.6,3.12l3.41.82a11.73,11.73,0,0,0,.67-3.94,11.88,11.88,0,0,0-11.88-11.89"/>
          <path class="cls-51" d="M206.78,102.75a3.87,3.87,0,0,1,1.83-.66,1.44,1.44,0,0,1,.69.17,1.74,1.74,0,0,1,.25,2.56,3.57,3.57,0,0,1-2.67,1h-.07c-.58,0-1.26-.16-1.45-.7v-.69a3.09,3.09,0,0,1,2.11-2.22h0l-.69.53m3.85-3.35a8.4,8.4,0,0,0-6.23,14l.91-5.64,13.12,3.12a8.29,8.29,0,0,0,.6-3.12,8.4,8.4,0,0,0-8.4-8.41"/>
          <path class="cls-52" d="M208.61,102.09a3.87,3.87,0,0,0-1.83.66l.69-.53a3.09,3.09,0,0,0-2.11,2.22v.69c.19.54.87.7,1.45.7h.07a3.57,3.57,0,0,0,2.67-1,1.74,1.74,0,0,0-.25-2.56,1.44,1.44,0,0,0-.69-.17"/>
          <path class="cls-53" d="M199.73,142.47a10.33,10.33,0,0,0-2.73.69,9.85,9.85,0,0,0,2.55.42l.18-1.11"/>
          <path class="cls-12" d="M240.85,82.65a37.57,37.57,0,0,1-8.31,2.41v0a37.59,37.59,0,0,0,8.31-2.43l3.54,72.23h0l-3.54-72.23"/>
        </g>
        <path class="cls-8" d="M187.93,84.34s18,4.75,44.25.84l-.52-16.41-41.72,3.67Z"/>
        <path class="cls-5" d="M159.11,149.1c1.18-.14,11.89,5.06,11.89,5.06l0-2.9h43l10.55,4.28-.13,2.81s-35.2,6.5-35.95,5.32-21.23-6.49-21.23-6.49l-11.82-4.83Z"/>
        <g>
          <path class="cls-18" d="M234,157.67h10.5l-3.68-75a38.06,38.06,0,0,1-8.67,2.49c1,24.17,1.62,48.34,1.85,72.53"/>
          <path class="cls-16" d="M233.22,92.69c.62,7.3.84,14.64.91,22h0l-.9-.21q-.42-14.64-1-29.28v0C232.61,87.46,233,90,233.22,92.69Zm7.63-10a37.59,37.59,0,0,1-8.31,2.43l-.06.44q.44,3.57.74,7.17c.71,7.16.89,15.2.91,22,0,.71,0,1.42,0,2.13l10.24,38.09Z"/>
        </g>
        <g>
          <g>
            <path class="cls-5" d="M442.07,239.59h1l-.28,1.34,1.29.16,13.29,1.67L449,240c5.46.67,9.24,2.12,9.24,3.81,0,2.33-7.24,4.22-16.17,4.22s-16.16-1.89-16.16-4.22c0-1.85,4.58-3.43,10.94-4l-.38,2.14-.23,1.33,1.21.15,10.6,1.3-8.77-3.37.31-1.72c.81,0,1.64,0,2.48,0"/>
            <path class="cls-13" d="M442.07,239.59h1l-.28,1.34,1.29.16,13.29,1.67L449,240c5.46.67,9.24,2.12,9.24,3.81,0,2.33-7.24,4.22-16.17,4.22s-16.16-1.89-16.16-4.22c0-1.85,4.58-3.43,10.94-4l-.38,2.14-.23,1.33,1.21.15,10.6,1.3-8.77-3.37.31-1.72c.81,0,1.64,0,2.48,0"/>
            <polyline class="cls-54" points="446.52 223.37 443.09 239.57 442.81 240.94 444.1 241.1 457.39 242.77 444.7 238.57 445.7 240.1 449.13 223.89 446.52 223.37"/>
            <polyline class="cls-54" points="439.78 223.41 436.47 241.95 436.24 243.28 437.45 243.43 448.05 244.73 438.12 240.91 439.1 242.39 442.4 223.85 439.78 223.41"/>
            <path class="cls-55" d="M454.41,224.7a6.07,6.07,0,0,0,3.22-2.94c1.18-2.45,1.05-5.1,1.23-7.72a49.41,49.41,0,0,1,1.42-8.19c1.3-5.38,3-10.8,2.68-16.39a4.71,4.71,0,0,0-.95-3c-1-1.1-2.71-1.2-4.21-1.13-2.88.13-6,.67-8,2.68-2.64,2.63-2.55,6.81-2.1,10.46A104.59,104.59,0,0,0,449.54,209c-5.72.15-10.48.62-16.2.78a6.13,6.13,0,0,0-3,.59,5,5,0,0,0-1.95,2.8,16.55,16.55,0,0,0-.82,3.24c-4.31-.37-9.31-.93-13.62-1.3a2.64,2.64,0,0,0,1.27,2.67c6.17,3.53,12.32,6.85,19.38,7.92a49.2,49.2,0,0,0,12.77.27c2.24-.25,4.9-.38,7.05-1.29"/>
            <path class="cls-54" d="M477.18,206.72a1.15,1.15,0,0,1-.87.33c-5.72.44-12.67-.19-17.74-3.15-1-.58-2.12-1.42-2.07-2.67.11-3,4.89-3.26,7.1-2.94a18.84,18.84,0,0,1,6.44,2.45,20,20,0,0,1,7.14,6"/>
            <path class="cls-54" d="M451.05,212.89l0,.46a6.56,6.56,0,0,1-2.36,4.82,9.52,9.52,0,0,1-5.11,2.32,12.58,12.58,0,0,1-1.5.09c-3.29,0-6.43-1.23-9.36-2.4a6.93,6.93,0,0,1-1.87-1.07,2.56,2.56,0,0,1-1.06-2l0-.43,1.31.25,0,.18a1.37,1.37,0,0,0,.6,1,6.11,6.11,0,0,0,1.51.85c2.91,1.17,5.91,2.3,8.85,2.3a11.87,11.87,0,0,0,1.33-.08,8.2,8.2,0,0,0,4.38-2,5.26,5.26,0,0,0,1.92-3.86V213l1.33-.1"/>
            <polyline class="cls-54" points="414.18 214.53 428.45 219.89 427.97 221.1 413.7 215.74 414.18 214.53"/>
            <polyline class="cls-54" points="427.96 218.42 423.37 216.67 423.85 215.46 428.45 217.21 427.96 218.42"/>
            <path class="cls-12" d="M442,226.28l-.7,3.94h0l.7-3.94h0m-2.69-.07-.72,4,.72-4h0m6.66-.09h0l-.49,2.33.49-2.33m2.78-.27h0L447.64,231l1.08-5.11m5.61-1.12h0m.08,0-.05,0,.05,0m-40.23-10.18-.48,1.22h0l.24-.61h0l.24-.6,2.21.82h0l-2.23-.84"/>
            <path class="cls-56" d="M448.72,225.85,447.64,231c-.87-.19-1.74-.35-2.62-.46l.43-2.05.49-2.33,1.42-.13,1.36-.14"/>
            <path class="cls-56" d="M439.28,226.21c.9,0,1.79.07,2.69.07l-.7,3.94h-.9l-1.81,0,.72-4"/>
            <path class="cls-12" d="M413.94,215.13h0m42.59-13.47c-.14,5.36-.63,11.35-4.78,14.85a11.39,11.39,0,0,1-3.38,1.94,9.59,9.59,0,0,1-4.77,2,12.58,12.58,0,0,1-1.5.09,18.05,18.05,0,0,1-5.06-.84,52.59,52.59,0,0,1-9.76-1.26,47.87,47.87,0,0,1-7.53-2.79l-3.3-.32h-.06l12.06,4.54L428,221.1l-13.92-5.23a2.54,2.54,0,0,0,1.16,1.93c6.17,3.53,12.32,6.85,19.38,7.92,1.57.24,3.14.32,4.7.41v.08c.9,0,1.79.07,2.69.07v-.06c1.33,0,2.65-.06,4-.17l0,.07h0l1.42-.13,1.36-.14h0a20,20,0,0,0,5.6-1.11h0l.05,0a6.07,6.07,0,0,0,3.22-2.94c1.18-2.45,1.05-5.1,1.23-7.72a49.41,49.41,0,0,1,1.42-8.19c.08-.32.15-.64.23-1a18.54,18.54,0,0,1-1.94-1,3.77,3.77,0,0,1-2-2.24"/>
            <path class="cls-56" d="M456.54,201.47l17,5.51h-.42a31.36,31.36,0,0,1-12.54-2.22l0,.12a18.54,18.54,0,0,1-1.94-1,3.77,3.77,0,0,1-2-2.24v-.19"/>
            <path class="cls-56" d="M448.37,218.45a9.59,9.59,0,0,1-4.77,2,12.58,12.58,0,0,1-1.5.09,18.05,18.05,0,0,1-5.06-.84c.61,0,1.22,0,1.84,0q1.25,0,2.49-.06a22.56,22.56,0,0,0,7-1.26"/>
            <polyline class="cls-56" points="414.18 214.53 416.39 215.35 428.45 219.89 427.97 221.1 414.05 215.87 414.05 215.87 413.7 215.74 413.94 215.13 413.94 215.13 414.18 214.53"/>
            <path class="cls-12" d="M457.27,189.76l.75,0a8.79,8.79,0,0,1,4.86,2.2,40.41,40.41,0,0,1-.76,6.19H462a8.73,8.73,0,0,0-4,.83,3.49,3.49,0,0,1-1.09.2c-.48,0-.89-.16-1-.62l.06,1.7a11.13,11.13,0,0,1-2.82-5.28,4.58,4.58,0,0,1,2.55-5,4.67,4.67,0,0,1,1.58-.25"/>
            <path class="cls-56" d="M462,198.19h.12v0l.58,0a12.12,12.12,0,0,0-4.45.67l-.27.1a8.73,8.73,0,0,1,4-.83"/>
          </g>
          <path class="cls-56" d="M455.93,191.63a2.48,2.48,0,1,1-2.3,2.47,2.39,2.39,0,0,1,2.3-2.47"/>
        </g>
      </g>
      <g>
        <path class="cls-57" d="M545.49,277.88l1.63,41.22s6.2,5.08,18.6,0l2-40.24-22.19-1"/>
        <path class="cls-58" d="M568.64,275.52a5.13,5.13,0,0,0-1.08-.87l-.24-.19-.23-.09A21.57,21.57,0,0,0,556.52,272a23.76,23.76,0,0,0-9.75,1.85l-.78.06a13.51,13.51,0,0,0-1.35,1.2l-.09.09c-1.89,1.86-3.43,4.38-3.47,6.69a2.09,2.09,0,0,0,.29,1.29c.58.85,2,.83,3,.39s1.82-1.17,2.86-1.5a11.27,11.27,0,0,0,1.44,3.3,4.52,4.52,0,0,0,3.18,1.92c1.92.15,3.53-1.18,5.12-2.14l.66-.22c.54.05.65.69.85,1.14.52,1.2,2.46,1.39,3.68.71a7.39,7.39,0,0,0,2.58-3,2.13,2.13,0,0,1,1.23-1.13,4.27,4.27,0,0,1,1,0,3.72,3.72,0,0,0,3.76-3.73,5,5,0,0,0-2.09-3.42"/>
        <path class="cls-34" d="M568.64,275.52a5.13,5.13,0,0,0-1.08-.87l-.24-.19-.23-.09A21.57,21.57,0,0,0,556.52,272a23.76,23.76,0,0,0-9.75,1.85l-.78.06a13.51,13.51,0,0,0-1.35,1.2l-.09.09c-1.89,1.86-3.43,4.38-3.47,6.69a2.09,2.09,0,0,0,.29,1.29c.58.85,2,.83,3,.39s1.82-1.17,2.86-1.5a11.27,11.27,0,0,0,1.44,3.3,4.52,4.52,0,0,0,3.18,1.92c1.92.15,3.53-1.18,5.12-2.14l.66-.22c.54.05.65.69.85,1.14.52,1.2,2.46,1.39,3.68.71a7.39,7.39,0,0,0,2.58-3,2.13,2.13,0,0,1,1.23-1.13,4.27,4.27,0,0,1,1,0,3.72,3.72,0,0,0,3.76-3.73,5,5,0,0,0-2.09-3.42"/>
        <path class="cls-58" d="M567.68,275.61c0,2-5,3.59-11.09,3.59s-11.1-1.61-11.1-3.59,5-3.58,11.1-3.58,11.09,1.6,11.09,3.58"/>
        <path class="cls-57" d="M585.64,281.76,587.27,323s6.2,5.07,18.6,0l2-40.24-22.19-1"/>
        <path class="cls-58" d="M608.79,279.39a5.44,5.44,0,0,0-1.08-.86l-.24-.2-.23-.08a21.57,21.57,0,0,0-10.57-2.34,23.76,23.76,0,0,0-9.75,1.85l-.78.06a13.43,13.43,0,0,0-1.34,1.2l-.1.09c-1.89,1.86-3.42,4.37-3.47,6.69a2.09,2.09,0,0,0,.29,1.29c.59.84,2,.82,3,.39a30,30,0,0,1,2.86-1.5,11.27,11.27,0,0,0,1.44,3.3A4.54,4.54,0,0,0,592,291.2c1.92.15,3.53-1.18,5.12-2.14l.66-.22c.54.05.65.69.85,1.14.52,1.2,2.46,1.39,3.69.72a7.64,7.64,0,0,0,2.58-3,2.09,2.09,0,0,1,1.22-1.13,3.8,3.8,0,0,1,1,0,3.72,3.72,0,0,0,3.76-3.73,5,5,0,0,0-2.09-3.43"/>
        <path class="cls-34" d="M608.79,279.39a5.44,5.44,0,0,0-1.08-.86l-.24-.2-.23-.08a21.57,21.57,0,0,0-10.57-2.34,23.76,23.76,0,0,0-9.75,1.85l-.78.06a13.43,13.43,0,0,0-1.34,1.2l-.1.09c-1.89,1.86-3.42,4.37-3.47,6.69a2.09,2.09,0,0,0,.29,1.29c.59.84,2,.82,3,.39a30,30,0,0,1,2.86-1.5,11.27,11.27,0,0,0,1.44,3.3A4.54,4.54,0,0,0,592,291.2c1.92.15,3.53-1.18,5.12-2.14l.66-.22c.54.05.65.69.85,1.14.52,1.2,2.46,1.39,3.69.72a7.64,7.64,0,0,0,2.58-3,2.09,2.09,0,0,1,1.22-1.13,3.8,3.8,0,0,1,1,0,3.72,3.72,0,0,0,3.76-3.73,5,5,0,0,0-2.09-3.43"/>
        <path class="cls-58" d="M607.83,279.49c0,2-5,3.58-11.09,3.58s-11.1-1.6-11.1-3.58,5-3.58,11.1-3.58,11.09,1.6,11.09,3.58"/>
        <path class="cls-57" d="M479.81,274l1.63,41.22s6.2,5.08,18.6,0L502,275l-22.18-1"/>
        <path class="cls-58" d="M503,271.65a5.69,5.69,0,0,0-1.07-.87l-.25-.19-.23-.09a21.57,21.57,0,0,0-10.57-2.34,23.53,23.53,0,0,0-9.74,1.86l-.79.05a14.8,14.8,0,0,0-1.34,1.2l-.1.09c-1.88,1.87-3.42,4.38-3.46,6.69a2.14,2.14,0,0,0,.28,1.29c.59.85,2,.83,3,.39a31,31,0,0,1,2.85-1.5,11.18,11.18,0,0,0,1.45,3.3,4.46,4.46,0,0,0,3.18,1.92c1.92.15,3.52-1.17,5.12-2.14l.66-.22c.54.05.64.69.84,1.14.53,1.2,2.47,1.39,3.69.72a7.64,7.64,0,0,0,2.58-3,2,2,0,0,1,1.23-1.12,3.72,3.72,0,0,1,1,0,3.72,3.72,0,0,0,3.76-3.73,5,5,0,0,0-2.09-3.42"/>
        <path class="cls-34" d="M503,271.65a5.69,5.69,0,0,0-1.07-.87l-.25-.19-.23-.09a21.57,21.57,0,0,0-10.57-2.34,23.53,23.53,0,0,0-9.74,1.86l-.79.05a14.8,14.8,0,0,0-1.34,1.2l-.1.09c-1.88,1.87-3.42,4.38-3.46,6.69a2.14,2.14,0,0,0,.28,1.29c.59.85,2,.83,3,.39a31,31,0,0,1,2.85-1.5,11.18,11.18,0,0,0,1.45,3.3,4.46,4.46,0,0,0,3.18,1.92c1.92.15,3.52-1.17,5.12-2.14l.66-.22c.54.05.64.69.84,1.14.53,1.2,2.47,1.39,3.69.72a7.64,7.64,0,0,0,2.58-3,2,2,0,0,1,1.23-1.12,3.72,3.72,0,0,1,1,0,3.72,3.72,0,0,0,3.76-3.73,5,5,0,0,0-2.09-3.42"/>
        <path class="cls-58" d="M502,271.74c0,2-5,3.59-11.09,3.59s-11.09-1.61-11.09-3.59,5-3.58,11.09-3.58,11.09,1.6,11.09,3.58"/>
        <polyline class="cls-57" points="640.81 302.28 455.82 288.65 380.13 297.5 381.36 304.49 703.99 356.22"/>
        <polyline class="cls-59" points="640.81 295.49 455.82 281.86 380.13 297.5 703.99 349.43"/>
        <polyline class="cls-57" points="640.35 295.92 703.53 349.86 704.45 349 641.27 295.06 640.35 295.92"/>
        <polyline class="cls-57" points="469.5 282.49 399.42 301.99 399.81 303.13 469.89 283.63 469.5 282.49"/>
        <polyline class="cls-57" points="490.66 283.88 425.51 306.41 425.99 307.52 491.14 285 490.66 283.88"/>
        <polyline class="cls-57" points="515.1 285.7 448.41 312.28 448.95 313.37 515.64 286.79 515.1 285.7"/>
        <polyline class="cls-57" points="538.19 287.41 475.91 313.89 476.48 314.97 538.76 288.49 538.19 287.41"/>
        <polyline class="cls-57" points="555.57 289.11 498.24 318.56 498.9 319.59 556.24 290.14 555.57 289.11"/>
        <polyline class="cls-57" points="576.62 290.29 523.19 322.2 523.93 323.2 577.36 291.28 576.62 290.29"/>
        <polyline class="cls-57" points="595.65 291.45 547.11 325.01 547.93 325.95 596.46 292.4 595.65 291.45"/>
        <polyline class="cls-57" points="615.45 293.66 567.27 327.99 568.09 328.93 616.28 294.6 615.45 293.66"/>
        <polyline class="cls-57" points="634.49 295.06 591.31 332.52 592.24 333.38 635.42 295.92 634.49 295.06"/>
        <polyline class="cls-57" points="652.35 306.89 612.96 333.89 613.77 334.84 653.16 307.84 652.35 306.89"/>
        <polyline class="cls-57" points="667.36 318.02 635.27 340.13 636.08 341.08 668.17 318.97 667.36 318.02"/>
        <polyline class="cls-57" points="681.16 329.84 660.02 345.69 660.87 346.6 682.01 330.76 681.16 329.84"/>
        <polyline class="cls-57" points="694.21 340.92 683.42 347.77 684.19 348.74 694.98 341.89 694.21 340.92"/>
        <path class="cls-57" d="M498.32,312.82,500,354s6.2,5.08,18.6,0l2-40.24-22.19-1"/>
        <path class="cls-58" d="M521.47,310.46a5.13,5.13,0,0,0-1.08-.87l-.24-.19-.23-.09A21.57,21.57,0,0,0,509.35,307a23.76,23.76,0,0,0-9.75,1.85l-.78.07a14.75,14.75,0,0,0-1.35,1.19l-.09.09c-1.89,1.86-3.42,4.38-3.47,6.69a2.1,2.1,0,0,0,.29,1.3c.59.84,2,.82,3,.38s1.82-1.16,2.86-1.5a11.27,11.27,0,0,0,1.44,3.3,4.48,4.48,0,0,0,3.18,1.92c1.92.15,3.53-1.17,5.12-2.14l.66-.22c.54.05.65.69.85,1.14.52,1.2,2.46,1.39,3.69.72a7.64,7.64,0,0,0,2.58-3,2.12,2.12,0,0,1,1.22-1.13,4.27,4.27,0,0,1,1,0,3.72,3.72,0,0,0,3.76-3.73,5,5,0,0,0-2.09-3.42"/>
        <path class="cls-34" d="M521.47,310.46a5.13,5.13,0,0,0-1.08-.87l-.24-.19-.23-.09A21.57,21.57,0,0,0,509.35,307a23.76,23.76,0,0,0-9.75,1.85l-.78.07a14.75,14.75,0,0,0-1.35,1.19l-.09.09c-1.89,1.86-3.42,4.38-3.47,6.69a2.1,2.1,0,0,0,.29,1.3c.59.84,2,.82,3,.38s1.82-1.16,2.86-1.5a11.27,11.27,0,0,0,1.44,3.3,4.48,4.48,0,0,0,3.18,1.92c1.92.15,3.53-1.17,5.12-2.14l.66-.22c.54.05.65.69.85,1.14.52,1.2,2.46,1.39,3.69.72a7.64,7.64,0,0,0,2.58-3,2.12,2.12,0,0,1,1.22-1.13,4.27,4.27,0,0,1,1,0,3.72,3.72,0,0,0,3.76-3.73,5,5,0,0,0-2.09-3.42"/>
        <path class="cls-58" d="M520.51,310.55c0,2-5,3.59-11.09,3.59s-11.1-1.61-11.1-3.59,5-3.58,11.1-3.58,11.09,1.6,11.09,3.58"/>
        <path class="cls-57" d="M538.47,316.7l1.64,41.22s6.19,5.07,18.59,0l2-40.24-22.19-1"/>
        <path class="cls-58" d="M561.62,314.34a5.69,5.69,0,0,0-1.07-.87l-.25-.19-.23-.09a21.57,21.57,0,0,0-10.57-2.34,23.76,23.76,0,0,0-9.75,1.85l-.78.06a14.8,14.8,0,0,0-1.34,1.2l-.1.09c-1.88,1.86-3.42,4.38-3.47,6.69a2.16,2.16,0,0,0,.29,1.29c.59.85,2,.83,3,.39s1.82-1.17,2.86-1.5a11.15,11.15,0,0,0,1.44,3.3,4.48,4.48,0,0,0,3.18,1.92c1.92.15,3.53-1.17,5.13-2.14l.66-.22c.53.05.64.69.84,1.14.53,1.2,2.46,1.39,3.69.72a7.64,7.64,0,0,0,2.58-3,2.09,2.09,0,0,1,1.22-1.13,4.27,4.27,0,0,1,1,0,3.72,3.72,0,0,0,3.76-3.73,5,5,0,0,0-2.09-3.42"/>
        <path class="cls-34" d="M561.62,314.34a5.69,5.69,0,0,0-1.07-.87l-.25-.19-.23-.09a21.57,21.57,0,0,0-10.57-2.34,23.76,23.76,0,0,0-9.75,1.85l-.78.06a14.8,14.8,0,0,0-1.34,1.2l-.1.09c-1.88,1.86-3.42,4.38-3.47,6.69a2.16,2.16,0,0,0,.29,1.29c.59.85,2,.83,3,.39s1.82-1.17,2.86-1.5a11.15,11.15,0,0,0,1.44,3.3,4.48,4.48,0,0,0,3.18,1.92c1.92.15,3.53-1.17,5.13-2.14l.66-.22c.53.05.64.69.84,1.14.53,1.2,2.46,1.39,3.69.72a7.64,7.64,0,0,0,2.58-3,2.09,2.09,0,0,1,1.22-1.13,4.27,4.27,0,0,1,1,0,3.72,3.72,0,0,0,3.76-3.73,5,5,0,0,0-2.09-3.42"/>
        <path class="cls-58" d="M560.66,314.43c0,2-5,3.59-11.09,3.59s-11.1-1.61-11.1-3.59,5-3.58,11.1-3.58,11.09,1.6,11.09,3.58"/>
        <path class="cls-57" d="M409.44,299.21l1.63,41.22s6.2,5.07,18.6,0l2-40.24-22.19-1"/>
        <path class="cls-58" d="M432.58,296.84a5.66,5.66,0,0,0-1.07-.86l-.24-.2-.24-.09a21.66,21.66,0,0,0-10.57-2.34,23.69,23.69,0,0,0-9.74,1.86l-.79.06a13.43,13.43,0,0,0-1.34,1.2l-.1.08c-1.88,1.87-3.42,4.38-3.46,6.69a2.1,2.1,0,0,0,.29,1.3c.58.84,2,.82,3,.39a27.77,27.77,0,0,1,2.86-1.5,11,11,0,0,0,1.44,3.3,4.48,4.48,0,0,0,3.18,1.91c1.92.15,3.52-1.17,5.12-2.14l.66-.22c.54.06.64.7.84,1.15.53,1.19,2.47,1.39,3.69.71a7.58,7.58,0,0,0,2.58-3,2.09,2.09,0,0,1,1.23-1.12,3.72,3.72,0,0,1,1,0,3.72,3.72,0,0,0,3.76-3.73,5,5,0,0,0-2.09-3.43"/>
        <path class="cls-34" d="M432.58,296.84a5.66,5.66,0,0,0-1.07-.86l-.24-.2-.24-.09a21.66,21.66,0,0,0-10.57-2.34,23.69,23.69,0,0,0-9.74,1.86l-.79.06a13.43,13.43,0,0,0-1.34,1.2l-.1.08c-1.88,1.87-3.42,4.38-3.46,6.69a2.1,2.1,0,0,0,.29,1.3c.58.84,2,.82,3,.39a27.77,27.77,0,0,1,2.86-1.5,11,11,0,0,0,1.44,3.3,4.48,4.48,0,0,0,3.18,1.91c1.92.15,3.52-1.17,5.12-2.14l.66-.22c.54.06.64.7.84,1.15.53,1.19,2.47,1.39,3.69.71a7.58,7.58,0,0,0,2.58-3,2.09,2.09,0,0,1,1.23-1.12,3.72,3.72,0,0,1,1,0,3.72,3.72,0,0,0,3.76-3.73,5,5,0,0,0-2.09-3.43"/>
        <path class="cls-58" d="M431.63,296.94c0,2-5,3.58-11.1,3.58s-11.09-1.6-11.09-3.58,5-3.59,11.09-3.59,11.1,1.61,11.1,3.59"/>
        <path class="cls-57" d="M690.49,338.81,692.13,380s6.2,5.07,18.6,0l1.95-40.24-22.19-1"/>
        <path class="cls-58" d="M713.64,336.44a5.66,5.66,0,0,0-1.07-.86l-.25-.2-.23-.09A21.69,21.69,0,0,0,701.52,333a23.66,23.66,0,0,0-9.74,1.86l-.79.06a13.43,13.43,0,0,0-1.34,1.2l-.1.09c-1.88,1.86-3.42,4.37-3.47,6.68a2.25,2.25,0,0,0,.29,1.3c.59.84,2,.82,3,.39a31,31,0,0,1,2.85-1.51,11.21,11.21,0,0,0,1.44,3.31,4.52,4.52,0,0,0,3.19,1.91c1.92.15,3.52-1.17,5.12-2.14l.66-.22c.53.06.64.7.84,1.15.53,1.19,2.47,1.39,3.69.71a7.51,7.51,0,0,0,2.58-3,2.09,2.09,0,0,1,1.23-1.12,3.73,3.73,0,0,1,1,0,3.73,3.73,0,0,0,3.76-3.73,5,5,0,0,0-2.09-3.43"/>
        <path class="cls-34" d="M713.64,336.44a5.66,5.66,0,0,0-1.07-.86l-.25-.2-.23-.09A21.69,21.69,0,0,0,701.52,333a23.66,23.66,0,0,0-9.74,1.86l-.79.06a13.43,13.43,0,0,0-1.34,1.2l-.1.09c-1.88,1.86-3.42,4.37-3.47,6.68a2.25,2.25,0,0,0,.29,1.3c.59.84,2,.82,3,.39a31,31,0,0,1,2.85-1.51,11.21,11.21,0,0,0,1.44,3.31,4.52,4.52,0,0,0,3.19,1.91c1.92.15,3.52-1.17,5.12-2.14l.66-.22c.53.06.64.7.84,1.15.53,1.19,2.47,1.39,3.69.71a7.51,7.51,0,0,0,2.58-3,2.09,2.09,0,0,1,1.23-1.12,3.73,3.73,0,0,1,1,0,3.73,3.73,0,0,0,3.76-3.73,5,5,0,0,0-2.09-3.43"/>
        <path class="cls-58" d="M712.68,336.54c0,2-5,3.58-11.09,3.58s-11.1-1.6-11.1-3.58,5-3.59,11.1-3.59,11.09,1.61,11.09,3.59"/>
        <path class="cls-60" d="M688.87,350.44a28.58,28.58,0,0,0,24.63-.16.57.57,0,0,0,.25-.82.71.71,0,0,0-.9-.22,27.07,27.07,0,0,1-23.34.15.7.7,0,0,0-.9.24.56.56,0,0,0,.26.81h0"/>
        <path class="cls-60" d="M538.57,326.3c1.17,2.26,3.93,3.19,6.37,3.61a26.66,26.66,0,0,0,17-2.84.56.56,0,0,0,.21-.82.71.71,0,0,0-.91-.2,25.15,25.15,0,0,1-16.09,2.69c-2.28-.38-4.58-1.28-5.39-2.94a.69.69,0,0,0-.88-.29.56.56,0,0,0-.33.79h0"/>
        <path class="cls-60" d="M497.43,322.5a4.84,4.84,0,0,0,3.2,3.35,14.22,14.22,0,0,0,5,.93h.83a46.31,46.31,0,0,0,11.32-1.41,6.6,6.6,0,0,0,2-.86,2.2,2.2,0,0,0,1.12-1.76l-.06-.45a.67.67,0,0,0-.8-.44.59.59,0,0,0-.49.72l0,.17c0,.24-.18.52-.6.81a5,5,0,0,1-1.52.66,44.84,44.84,0,0,1-11,1.37h-.8a12.83,12.83,0,0,1-4.49-.82,3.62,3.62,0,0,1-2.45-2.49.67.67,0,0,0-.78-.47.59.59,0,0,0-.53.69h0"/>
        <path class="cls-60" d="M406.63,307,405,309l-.38.46.49.36a24.25,24.25,0,0,0,28-.42l.06-.84-.94-.05a22.84,22.84,0,0,1-26.29.39l-.43.46.54.35,1.59-1.94a.55.55,0,0,0-.14-.83.72.72,0,0,0-.93.12"/>
        <path class="cls-61" d="M501.5,285.22h0l3.94.29h0l-3.94-.29m-21.69-1.6h0l.38,0h0l-.38,0M480,279l-.19.12v0L480,279v0"/>
        <path class="cls-62" d="M481.53,278.23A7.31,7.31,0,0,0,480,279v0h0l.19,4.62h0l9.19.68,1.28-.45.24.56,10.6.78h0l.31-6.43-.37,0h-.16c-.22,0-.44,0-.66,0a1.27,1.27,0,0,0-.34,0,2,2,0,0,0-1.23,1.12,7.64,7.64,0,0,1-2.58,3,3.38,3.38,0,0,1-1.58.38,2.19,2.19,0,0,1-2.11-1.1c-.2-.45-.3-1.09-.84-1.14l-.66.22c-1.51.92-3,2.15-4.83,2.15h-.29a4.46,4.46,0,0,1-3.18-1.92,11.18,11.18,0,0,1-1.45-3.3"/>
        <path class="cls-63" d="M502,273.32l-1.63.3c-1.95,1-5.46,1.71-9.46,1.71H479.81v3.79a8,8,0,0,1,1.72-.89,11.18,11.18,0,0,0,1.45,3.3,4.46,4.46,0,0,0,3.18,1.92h.29c1.79,0,3.32-1.23,4.83-2.15l.66-.22c.54.05.64.69.84,1.14a2.19,2.19,0,0,0,2.11,1.1,3.38,3.38,0,0,0,1.58-.38,7.64,7.64,0,0,0,2.58-3,2,2,0,0,1,1.23-1.12,1.27,1.27,0,0,1,.34,0c.22,0,.44,0,.66,0h.16l.37,0v-.09c.41-.05.68-.37,1-.55l-.85-4.83"/>
        <path class="cls-64" d="M500.36,273.62l-9.46,1.71h0c4,0,7.51-.69,9.46-1.71"/>
        <path class="cls-65" d="M508.38,289.68l-2.77,1.11h3.54l-.77-1.11m-17.48-5.24.24.56-8,2.76,3.47,3h15.71l5.32-2.13-2.22-3.15-3.94-.29-10.6-.78m-11.09-.82v1.22l2.29,2,7.28-2.51-9.19-.68-.38,0"/>
        <polyline class="cls-62" points="490.66 283.88 489.38 284.33 482.11 286.84 483.16 287.76 491.14 285 490.9 284.44 490.66 283.88"/>
        <polyline class="cls-62" points="507.66 288.66 502.34 290.79 505.61 290.79 508.38 289.68 507.66 288.66"/>
        <path class="cls-61" d="M585.94,289.31l.08,2.14-3.31-.24h0l3.32.24-.09-2.14m-.1-2.57a10.76,10.76,0,0,1-1.33.74,10.51,10.51,0,0,0,1.33-.7v0m21.81-.21h0l-.32,6.49,4.56.34h0l-4.56-.34.32-6.49"/>
        <path class="cls-62" d="M587.37,286a7.79,7.79,0,0,0-1.53.76v0h0l.1,2.53.09,2.14,8.69.64.93-.64.65.76,11,.81.32-6.49a2.3,2.3,0,0,1-.37,0h-.16c-.22,0-.44,0-.66,0a1.59,1.59,0,0,0-1.57,1.16,7.64,7.64,0,0,1-2.58,3,3.38,3.38,0,0,1-1.58.38,2.2,2.2,0,0,1-2.11-1.1c-.2-.45-.31-1.09-.85-1.14l-.66.22c-1.51.91-3,2.15-4.82,2.15H592a4.54,4.54,0,0,1-3.18-1.92,11.27,11.27,0,0,1-1.44-3.3"/>
        <path class="cls-63" d="M607.83,281.76l-5,2-6-.71h-.07a28.15,28.15,0,0,1-7.2-.85l-3.9-.46-1.81,5.84.68-.12h0a30,30,0,0,1,2.86-1.5,11.27,11.27,0,0,0,1.44,3.3A4.54,4.54,0,0,0,592,291.2h.3c1.79,0,3.31-1.24,4.82-2.15l.66-.22c.54.05.65.69.85,1.14a2.2,2.2,0,0,0,2.11,1.1,3.38,3.38,0,0,0,1.58-.38,7.64,7.64,0,0,0,2.58-3,1.59,1.59,0,0,1,1.57-1.16c.22,0,.44,0,.66,0h.16a2.3,2.3,0,0,0,.37,0v-.08a3.44,3.44,0,0,0,1.37-.73l-1.19-4"/>
        <path class="cls-64" d="M589.54,282.22a28.15,28.15,0,0,0,7.2.85h.07l-7.27-.85"/>
        <path class="cls-65" d="M613.93,296.27l-7.75,5.52,10.74-1.27-3-4.25m-17.63-4.06.16.19-8.53,5.89,1.1,1.49a8.22,8.22,0,0,0,6.62,3.2,8.93,8.93,0,0,0,1-.07l6.92-.81,9.61-6.85-1.33-1.89-4.56-.34-11-.81m-13.59-1,4.49,6.09,7.52-5.21-8.69-.64-3.32-.24"/>
        <polyline class="cls-62" points="595.65 291.45 594.72 292.09 587.2 297.3 587.93 298.29 596.46 292.4 596.3 292.21 595.65 291.45"/>
        <polyline class="cls-62" points="613.22 295.25 603.61 302.1 606.18 301.79 613.93 296.27 613.22 295.25"/>
        <path class="cls-61" d="M407,308.6l-.5.6a19.16,19.16,0,0,0,3.42,1.87l-.08-2L407,308.6"/>
        <path class="cls-62" d="M380.53,299.8l.82,4.69,24.18,3.87,1.1-1.35a.72.72,0,0,1,.54-.24.69.69,0,0,1,.39.12.55.55,0,0,1,.14.83l-.71.88,2.84.45-.2-4.86a13.11,13.11,0,0,1-1.32.74,3.74,3.74,0,0,1-1.41.29,1.85,1.85,0,0,1-1.58-.68,2,2,0,0,1-.3-1.19s0-.07,0-.11v-.14l-3.45-.47-1.77.5-.26-.77-19-2.56"/>
        <polyline class="cls-62" points="399.55 302.36 399.81 303.13 401.58 302.63 399.55 302.36"/>
        <path class="cls-61" d="M481.76,320.59l15.85,2.54h0l-15.85-2.54M431,312.45l-1.36,28,1.36-28h0"/>
        <path class="cls-62" d="M431.63,306.74l-.33.18-.12,2.35q.57-.39,1.11-.81l.94.05-.06.84a18.43,18.43,0,0,1-2.06,1.43l-.08,1.67h0l50.73,8.14,15.85,2.54a3.26,3.26,0,0,1-.18-.63h0a.59.59,0,0,1,.53-.69h.12a.67.67,0,0,1,.61.35l-.12-3.08-1.91-.35a3.2,3.2,0,0,1-.87.12,2,2,0,0,1-1.48-.55L454.84,311,449,313.37l-.55-1.09,4.19-1.67-21-3.87"/>
        <polyline class="cls-62" points="452.61 310.61 448.41 312.28 448.95 313.37 454.85 311.02 452.61 310.61"/>
        <path class="cls-61" d="M519.88,326.7h0L539,329.76l1.12,28.16L539,329.76l-19.11-3.06M410,312.4l1.11,28-1.11-28h0"/>
        <path class="cls-62" d="M520.12,321.8v.05h.07a.65.65,0,0,1,.64.46l.06.45a2.07,2.07,0,0,1-.89,1.6l-.12,2.34L539,329.76l-.12-3a5.09,5.09,0,0,1-.3-.5h0a.56.56,0,0,1,.24-.75l-.1-2.62-1.57-.26v2.56l-12.43-2.5-.79.47-.55-.74-3.26-.66"/>
        <path class="cls-65" d="M538.67,321.68a9.59,9.59,0,0,1-1.33.74l-.19.08v.17l1.57.26-.05-1.25"/>
        <polyline class="cls-62" points="523.38 322.46 523.93 323.2 524.72 322.73 523.38 322.46"/>
        <path class="cls-61" d="M591.4,338.17,690.23,354h0L591.4,338.17m-31.49-5.05-1.21,24.8a27.31,27.31,0,0,1-10.33,2.26h0a27.39,27.39,0,0,0,10.34-2.26l1.2-24.8h0m-61.12-8.37L500,354l-1.16-29.29h0"/>
        <path class="cls-62" d="M561.62,329.55l-1.63,2-.08,1.6h0l31.49,5.05L690.23,354l.1-2.92c-.5-.2-1-.42-1.46-.65h0a.56.56,0,0,1-.26-.81.67.67,0,0,1,.58-.31.71.71,0,0,1,.32.07l.86.4.08-2.53-.12,0-3.1-.43-3,1.93-.77-1,1.92-1.22-20.62-2.83-3.85,2.88-.85-.91,3-2.21L637.65,340l-1.57,1.08-.81-.95.56-.38-74.21-10.2"/>
        <polyline class="cls-65" points="690.33 347.24 690.45 347.26 690.45 347.25 690.33 347.24"/>
        <polyline class="cls-62" points="635.83 339.75 635.27 340.13 636.08 341.08 637.65 340 635.83 339.75"/>
        <polyline class="cls-62" points="662.97 343.48 660.02 345.69 660.87 346.6 664.72 343.72 662.97 343.48"/>
        <polyline class="cls-62" points="685.34 346.55 683.42 347.77 684.19 348.74 687.23 346.81 685.34 346.55"/>
        <path class="cls-62" d="M520,324.36l-.23.16a6.6,6.6,0,0,1-2,.86,46.31,46.31,0,0,1-11.32,1.41h-.83a14.22,14.22,0,0,1-5-.93,6.66,6.66,0,0,1-1.84-1.1L500,354s2.76,2.26,8.27,2.26A27.31,27.31,0,0,0,518.55,354l1.33-27.34h0l.12-2.34M500.05,317a6.63,6.63,0,0,0-1.34.65l-.14,1.38.12,3.08a.69.69,0,0,1,.05.13,3.62,3.62,0,0,0,2.45,2.49,12.83,12.83,0,0,0,4.49.82h.8a44.84,44.84,0,0,0,11-1.37,5,5,0,0,0,1.52-.66c.42-.29.61-.57.6-.81l0-.17a.59.59,0,0,1,.49-.72l.09,0v-.05l-2.21-.44v-3.15a4.21,4.21,0,0,0-.34.52,7.64,7.64,0,0,1-2.58,3,3.41,3.41,0,0,1-1.58.38,2.18,2.18,0,0,1-2.11-1.1c-.2-.45-.31-1.09-.85-1.14l-.66.22c-1.51.92-3,2.15-4.82,2.15h-.3a4.48,4.48,0,0,1-3.18-1.92,11.27,11.27,0,0,1-1.44-3.3"/>
        <path class="cls-63" d="M494.31,318.29a2,2,0,0,0,1.48.55,3.2,3.2,0,0,0,.87-.12l-2.35-.43m5-6.26-.59,5.66a6.63,6.63,0,0,1,1.34-.65,11.27,11.27,0,0,0,1.44,3.3,4.48,4.48,0,0,0,3.18,1.92h.3c1.79,0,3.31-1.23,4.82-2.15l.66-.22c.54.05.65.69.85,1.14a2.18,2.18,0,0,0,2.11,1.1,3.41,3.41,0,0,0,1.58-.38,7.64,7.64,0,0,0,2.58-3,4.21,4.21,0,0,1,.34-.52v-4.52l-2.15-.2a29.1,29.1,0,0,1-6.34.65c-4.51,0-8.38-.87-10.12-2.11"/>
        <path class="cls-64" d="M499.3,312h0c1.74,1.24,5.61,2.11,10.12,2.11a29.1,29.1,0,0,0,6.34-.65L499.3,312"/>
        <path class="cls-62" d="M538.87,326.8l.12,3,1.12,28.16s2.75,2.26,8.26,2.26a27.31,27.31,0,0,0,10.33-2.26l1.21-24.8.08-1.6-2.5,3,.53-5.74a26.82,26.82,0,0,1-13.08,1.09c-2.25-.39-4.77-1.21-6.07-3.11m1.33-5.88a7.79,7.79,0,0,0-1.53.76l.05,1.25.1,2.62.09,0a.66.66,0,0,1,.27-.06.68.68,0,0,1,.61.35c.81,1.66,3.11,2.56,5.39,2.94a24.72,24.72,0,0,0,4.12.34,25.25,25.25,0,0,0,8.85-1.59l.55-5.92a2.4,2.4,0,0,0-1,1,7.64,7.64,0,0,1-2.58,3,3.38,3.38,0,0,1-1.58.38,2.19,2.19,0,0,1-2.11-1.1c-.2-.45-.31-1.09-.84-1.14L550,324c-1.52.91-3,2.15-4.83,2.15h-.3a4.48,4.48,0,0,1-3.18-1.92,11.15,11.15,0,0,1-1.44-3.3"/>
        <path class="cls-63" d="M559.08,317.49h-3.69a32.22,32.22,0,0,1-11.64,0h-6.6v5l.19-.08c1-.43,1.82-1.17,2.86-1.5a11.15,11.15,0,0,0,1.44,3.3,4.48,4.48,0,0,0,3.18,1.92h.3c1.79,0,3.31-1.24,4.83-2.15l.66-.22c.53.05.64.69.84,1.14a2.19,2.19,0,0,0,2.11,1.1,3.38,3.38,0,0,0,1.58-.38,7.64,7.64,0,0,0,2.58-3,2.4,2.4,0,0,1,1-1l.38-4.08"/>
        <path class="cls-64" d="M555.39,317.49H543.75a32.22,32.22,0,0,0,11.64,0"/>
        <path class="cls-62" d="M431.11,310.78A24,24,0,0,1,418.86,314a24.8,24.8,0,0,1-8.9-1.62l1.11,28s2.75,2.25,8.26,2.25a27.35,27.35,0,0,0,10.34-2.25h0l1.36-28,.08-1.67m-19.94-7.35a6.69,6.69,0,0,0-1.54.76l.2,4.86.08,2a23.06,23.06,0,0,0,8.94,1.75h0a22.11,22.11,0,0,0,12.32-3.55l.12-2.35L428,308.7v-2.42a5.43,5.43,0,0,1-1.86,1.86,3.25,3.25,0,0,1-1.58.39,2.22,2.22,0,0,1-2.11-1.1c-.2-.45-.3-1.09-.84-1.15l-.66.22c-1.51.92-3,2.16-4.82,2.16l-.3,0a4.48,4.48,0,0,1-3.18-1.91,11,11,0,0,1-1.44-3.3"/>
        <path class="cls-63" d="M409.44,299.21,408,303.5l-3-.4v.14s0,.07,0,.11a2,2,0,0,0,.3,1.19,1.85,1.85,0,0,0,1.58.68,3.74,3.74,0,0,0,1.41-.29,27.77,27.77,0,0,1,2.86-1.5,11,11,0,0,0,1.44,3.3,4.48,4.48,0,0,0,3.18,1.91l.3,0c1.79,0,3.31-1.24,4.82-2.16l.66-.22c.54.06.64.7.84,1.15a2.22,2.22,0,0,0,2.11,1.1,3.25,3.25,0,0,0,1.58-.39,5.43,5.43,0,0,0,1.86-1.86v-5.09l-6.38-.68h-1.05a27.62,27.62,0,0,1-7.43-.92l-3.66-.39"/>
        <path class="cls-64" d="M413.1,299.6a27.62,27.62,0,0,0,7.43.92h1.05l-8.48-.91"/>
        <path class="cls-66" d="M689.19,349.32a.67.67,0,0,0-.58.31.56.56,0,0,0,.26.81h0c.48.23,1,.45,1.46.65l0-1.3-.86-.4a.71.71,0,0,0-.32-.07"/>
        <path class="cls-66" d="M539.18,325.45a.66.66,0,0,0-.27.06l-.09,0a.56.56,0,0,0-.24.75h0a5.09,5.09,0,0,0,.3.5c1.3,1.9,3.82,2.72,6.07,3.11A26.82,26.82,0,0,0,558,328.82l.13-1.33a25.25,25.25,0,0,1-8.85,1.59,24.72,24.72,0,0,1-4.12-.34c-2.28-.38-4.58-1.28-5.39-2.94a.68.68,0,0,0-.61-.35"/>
        <path class="cls-66" d="M498.08,321.8H498a.59.59,0,0,0-.53.69h0a3.26,3.26,0,0,0,.18.63h0l1,.15.17.3,0,1.17h0a6.66,6.66,0,0,0,1.84,1.1,14.22,14.22,0,0,0,5,.93h.83a46.31,46.31,0,0,0,11.32-1.41,6.6,6.6,0,0,0,2-.86l.23-.16a2.07,2.07,0,0,0,.89-1.6l-.06-.45a.65.65,0,0,0-.64-.46h-.07l-.09,0a.59.59,0,0,0-.49.72l0,.17c0,.24-.18.52-.6.81a5,5,0,0,1-1.52.66,44.84,44.84,0,0,1-11,1.37h-.8a12.83,12.83,0,0,1-4.49-.82,3.62,3.62,0,0,1-2.45-2.49.69.69,0,0,0-.05-.13.67.67,0,0,0-.61-.35"/>
        <path class="cls-66" d="M407.17,306.77a.72.72,0,0,0-.54.24l-1.1,1.35.73.12-.69.83a19.52,19.52,0,0,0,4.35,2.13l0,1h0a24.8,24.8,0,0,0,8.9,1.62,24,24,0,0,0,12.25-3.24,18.43,18.43,0,0,0,2.06-1.43l.06-.84-.94-.05q-.54.42-1.11.81a22.11,22.11,0,0,1-12.32,3.55h0a23.06,23.06,0,0,1-8.94-1.75,19.16,19.16,0,0,1-3.42-1.87l.5-.6.71-.88a.55.55,0,0,0-.14-.83.69.69,0,0,0-.39-.12"/>
        <path class="cls-62" d="M715.73,336l-1.31,1.2a4.25,4.25,0,0,1,1.31,2.69V340a3.11,3.11,0,0,1-.13.9"/>
        <path class="cls-62" d="M714,343.05a3.47,3.47,0,0,1-1.47.53l-.07,1.5,1.54-2"/>
        <path class="cls-62" d="M711.31,343.56a1.27,1.27,0,0,0-.34,0,2.09,2.09,0,0,0-1.23,1.12,7.51,7.51,0,0,1-2.58,3,3.27,3.27,0,0,1-1.58.39,2.21,2.21,0,0,1-2.11-1.1c-.2-.45-.31-1.09-.84-1.15l-.66.22c-1.52.92-3,2.16-4.83,2.16l-.29,0a3.65,3.65,0,0,1-1.19-.29l.16,3.52A27.32,27.32,0,0,0,701,352h0a26.65,26.65,0,0,0,11.2-2.41l.22-4.46h0l.07-1.5a2.23,2.23,0,0,1-.37,0H712c-.22,0-.44,0-.66,0"/>
        <path class="cls-61" d="M710.36,380.17h0m.09,0h0m.12-.05h0m.16-.06-.1,0,.1,0"/>
        <path class="cls-62" d="M712.14,350.91A28.09,28.09,0,0,1,701,353.15a29.38,29.38,0,0,1-5.13-.45L697.25,382a18.22,18.22,0,0,0,3.23.27,26.77,26.77,0,0,0,9.86-2.08h0l.08,0h0l.08,0h0l.06,0,.1,0h0l1.41-29.12"/>
        <path class="cls-63" d="M714.42,337.18l-3.74,3.43H695.32l.34,7.34a3.65,3.65,0,0,0,1.19.29l.29,0c1.79,0,3.31-1.24,4.83-2.16l.66-.22c.53.06.64.7.84,1.15a2.21,2.21,0,0,0,2.11,1.1,3.27,3.27,0,0,0,1.58-.39,7.51,7.51,0,0,0,2.58-3,2.09,2.09,0,0,1,1.23-1.12,1.27,1.27,0,0,1,.34,0c.22,0,.44,0,.66,0h.16a3.37,3.37,0,0,0,1.84-.55l.13-.18a3.7,3.7,0,0,0,1.42-1.87l.08-.1a3.11,3.11,0,0,0,.13-.9v-.13a4.25,4.25,0,0,0-1.31-2.69"/>
        <path class="cls-66" d="M712.21,349.55A26.65,26.65,0,0,1,701,352h0a27.32,27.32,0,0,1-5.19-.49l.06,1.23a29.38,29.38,0,0,0,5.13.45,28.09,28.09,0,0,0,11.13-2.24l0-.8c.32-.14.68-.2,1-.35h-1v-.21"/>
        <polyline class="cls-61" points="567.5 282.66 567.5 282.66 567.14 290.06 571.6 290.39 571.6 290.39 567.14 290.06 567.5 282.66"/>
        <path class="cls-62" d="M547.22,282.1a7.79,7.79,0,0,0-1.53.76v0l.07,1.83.15,3.77,9.5.7.16-.09.07.1,11.5.85.36-7.4-.37,0H567c-.22,0-.45,0-.67,0a2,2,0,0,0-.34,0,2.13,2.13,0,0,0-1.23,1.13,7.39,7.39,0,0,1-2.58,3,3.23,3.23,0,0,1-1.57.39,2.18,2.18,0,0,1-2.11-1.1c-.2-.45-.31-1.09-.85-1.14l-.66.22c-1.51.91-3,2.15-4.82,2.15h-.3a4.52,4.52,0,0,1-3.18-1.92,11.27,11.27,0,0,1-1.44-3.3"/>
        <path class="cls-63" d="M568.64,275.52a5,5,0,0,1-1.06.57c-.73,1.76-5.37,3.11-11,3.11a27.65,27.65,0,0,1-7.19-.86l-3.91-.46.2,5a7.79,7.79,0,0,1,1.53-.76,11.27,11.27,0,0,0,1.44,3.3,4.52,4.52,0,0,0,3.18,1.92h.3c1.79,0,3.31-1.24,4.82-2.15l.66-.22c.54.05.65.69.85,1.14a2.18,2.18,0,0,0,2.11,1.1,3.23,3.23,0,0,0,1.57-.39,7.39,7.39,0,0,0,2.58-3,2.13,2.13,0,0,1,1.23-1.13,2,2,0,0,1,.34,0c.22,0,.45,0,.67,0h.16l.37,0v-.09a3.61,3.61,0,0,0,2.12-1.14l-1-5.91h0"/>
        <path class="cls-64" d="M567.58,276.09c-3.16,1.37-11,3.11-11,3.11l-7.19-.86a27.65,27.65,0,0,0,7.19.86c5.62,0,10.26-1.35,11-3.11"/>
        <path class="cls-65" d="M573,293.9l-6.16,3.68,7.73.33-1.57-4m-17.33-4.69.6.94-7.37,3.78,2.76,3,12.94.55,7.95-4.75-.92-2.35-4.46-.33-11.5-.85m-9.73-.71.09,2.29,2,2.2,7.39-3.79-9.5-.7"/>
        <polyline class="cls-62" points="555.57 289.11 555.41 289.2 548.02 292.99 548.87 293.93 556.24 290.14 555.64 289.21 555.57 289.11"/>
        <polyline class="cls-62" points="572.52 292.74 564.57 297.49 566.81 297.58 572.97 293.9 572.52 292.74"/>
      </g>
    </g>
    <path class="cls-67" d="M191.35,320c26.43,7.77,54.84,21.47,57.56,43l84.4,13.27c7.55,1.19,15.29,2.39,22.93,1.56,12.69-1.38,23.14-8.06,34.92-11.93,29.79-9.79,63.7-.84,95,5.72,3.32.7,6.85,1.37,10.15.63,5.11-1.13,7.95-5.13,10.83-8.54,23.65-27.95,56.93-32.41,100.53-32.15,5.92,0,40.83-40.6,59.14-48.88,109.65-49.58,248.53,32.46,289.08,57.56,9.28,5.74,18.06,12.44,22.51,20.9,9,17-2.39,37.18-20.9,48.87s-42.63,16.65-66.14,20.43c-53.54,8.63-108.13,12.81-162.7,15.86-230.1,12.82-461.42,5.52-691.32-9.26-19.9-1.28-41.47-3.17-55.84-13.74-36-26.49-.26-61.49,21.5-84.24,24.47-25.58,67.55-33.12,107.6-32.13A316,316,0,0,1,191.35,320Z"/>
  </g>
  <g>
    <rect class="cls-68" x="15.61" y="339.7" width="192.01" height="70.12" rx="35.06"/>
    <rect class="cls-68" x="96.77" y="312.16" width="192.01" height="70.12" rx="35.06"/>
  </g>
</svg>
