<?xml version="1.0" encoding="utf-8"?>
<!-- Generator: Adobe Illustrator 24.0.1, SVG Export Plug-In . SVG Version: 6.00 Build 0)  -->
<svg version="1.1" id="Layer_1" xmlns="http://www.w3.org/2000/svg" xmlns:xlink="http://www.w3.org/1999/xlink" x="0px" y="0px"
	 viewBox="0 0 40 40" style="enable-background:new 0 0 40 40;" xml:space="preserve">
<style type="text/css">
	.st0{opacity:0.8;fill:#B1E0ED;}
	.st1{opacity:0.4;fill:#F3FFFE;enable-background:new    ;}
	.st2{fill:#8B7B77;}
	.st3{fill:#584947;}
	.st4{fill:#F2EAD2;}
</style>
<circle class="st0" cx="20" cy="20" r="16.7"/>
<title>compas-bg</title>
<g id="Compass_Needle">
	<g>
		<circle class="st1" cx="20.4" cy="20" r="11.2"/>
		<g>
			<path class="st2" d="M20,36.7c-9.2,0-16.7-7.5-16.7-16.7S10.8,3.3,20,3.3S36.7,10.8,36.7,20l0,0C36.7,29.2,29.2,36.7,20,36.7z
				 M20,3.4C10.8,3.4,3.4,10.8,3.4,20S10.8,36.6,20,36.6S36.6,29.2,36.6,20l0,0C36.6,10.8,29.2,3.4,20,3.4z"/>
			<g>
				<path class="st2" d="M16.3,14.9L16.3,14.9L16.3,14.9l-1.2-1.6l0,0l0,0L16.3,14.9l0.4-0.3l-1-1.6l0,0l0,0l1,1.6c0,0,0,0,0,0.1
					L16.3,14.9L16.3,14.9z"/>
				<path class="st2" d="M17.1,14.4L17.1,14.4L17.1,14.4l-0.9-1.7l0,0l0,0L17.1,14.4l0.4-0.3l-0.7-1.8l0,0l0,0l0.7,1.8l0,0
					L17.1,14.4L17.1,14.4z"/>
				<path class="st2" d="M16.7,14.6L16.7,14.6l-1-1.6l0,0l0,0L16.7,14.6l0.4-0.2l-0.9-1.7l0,0l0,0l0.9,1.6l0,0
					C17,14.4,16.9,14.5,16.7,14.6L16.7,14.6z"/>
				<path class="st2" d="M15.9,15.2L15.9,15.2l-1.3-1.5l0,0l0,0L15.9,15.2c0.1-0.1,0.2-0.2,0.3-0.3l-1.1-1.6l0,0l0,0l1.2,1.6l0,0
					C16.2,15,16.1,15.1,15.9,15.2L15.9,15.2z"/>
				<path class="st2" d="M18.5,13.9L18.5,13.9L18.1,12l0,0l0,0L18.5,13.9c0.1,0,0.3-0.1,0.4-0.1l-0.3-1.9l0,0l0,0l0.3,1.9l0,0l0,0
					L18.5,13.9L18.5,13.9z"/>
				<path class="st2" d="M17.6,14.2L17.6,14.2l-0.8-1.8l0,0l0,0L17.6,14.2L18,14l-0.6-1.8l0,0l0,0L18,14l0,0l0,0L17.6,14.2
					L17.6,14.2z"/>
				<path class="st2" d="M13.7,20h-1.9 M11.8,20h1.9c0-0.1,0-0.3,0-0.4l-1.9-0.1l0,0l0,0l1.9,0.1l0,0c0,0.2,0,0.3,0,0.5L11.8,20z"/>
				<path class="st2" d="M15.5,15.6L15.5,15.6l-1.4-1.4l0,0l0,0L15.5,15.6l0.3-0.3l-1.2-1.5l0,0l0,0l1.2,1.5 M15.9,15.3
					c-0.1,0.1-0.2,0.2-0.4,0.3L15.9,15.3z"/>
				<path class="st2" d="M18.1,14L18.1,14L18.1,14l-0.6-1.8l0,0l0,0L18.1,14l0.4-0.1L18,12l0,0l0,0l0.4,1.9l0,0L18.1,14L18.1,14z"/>
				<path class="st2" d="M19,13.8L19,13.8l-0.3-1.9l0,0l0,0L19,13.8l0.4-0.1l-0.1-1.9l0,0l0,0l0.1,1.9l0,0l0,0L19,13.8L19,13.8z"/>
				<path class="st2" d="M13.8,19L13.8,19l-1.9-0.3l0,0l0,0L13.8,19c0-0.1,0-0.3,0.1-0.4L12,18.2l0,0l0,0l1.9,0.5l0,0
					C13.9,18.6,13.8,18.9,13.8,19L13.8,19L13.8,19z"/>
				<path class="st2" d="M13.9,18.6L13.9,18.6L12,18.1l0,0l0,0L13.9,18.6c0-0.1,0-0.3,0.1-0.4l-1.8-0.6l0,0l0,0l1.8,0.6l0,0l0,0
					C14,18.3,13.9,18.5,13.9,18.6C13.8,18.8,13.8,18.6,13.9,18.6L13.9,18.6z"/>
				<path class="st2" d="M14,18.1L14,18.1l-1.8-0.6l0,0l0,0L14,18.1c0-0.1,0.1-0.3,0.1-0.4L12.3,17l0,0l0,0l1.8,0.7l0,0l0,0L14,18.1
					C14,18.2,14,18.1,14,18.1z"/>
				<path class="st2" d="M13.7,19.5L13.7,19.5l-1.9-0.2l0,0l0,0L13.7,19.5c0-0.1,0-0.3,0-0.4l-1.9-0.3l0,0l0,0l1.9,0.3l0,0
					C13.7,19.3,13.7,19.4,13.7,19.5C13.7,19.7,13.7,19.6,13.7,19.5L13.7,19.5z"/>
				<path class="st2" d="M14.2,17.6L14.2,17.6l-1.8-0.7l0,0l0,0L14.2,17.6c0-0.1,0.1-0.3,0.2-0.4l-1.7-0.9l0,0l0,0l1.7,0.9l0,0l0,0
					L14.2,17.6L14.2,17.6z"/>
				<path class="st2" d="M14.6,16.7L14.6,16.7l-1.6-1 M13,15.7L13,15.7l1.6,1l0.2-0.4l-1.5-1.1l0,0l0,0l1.6,1.1l0,0l0,0l-0.3,0.4
					L13,15.7z"/>
				<path class="st2" d="M15.2,15.9L15.2,15.9l-1.5-1.2l0,0l0,0L15.2,15.9c0.1-0.1,0.2-0.2,0.3-0.3l-1.3-1.3l0,0l0,0l1.4,1.4l0,0
					l0,0C15.4,15.7,15.3,15.8,15.2,15.9L15.2,15.9L15.2,15.9z"/>
				<path class="st2" d="M14.9,16.3L14.9,16.3l-1.6-1.1l0,0l0,0L14.9,16.3c0.1-0.2,0.1-0.3,0.2-0.4l-1.4-1.2l0,0l0,0l1.5,1.2l0,0
					C15,16.1,14.9,16.2,14.9,16.3L14.9,16.3z"/>
				<path class="st2" d="M14.4,17.2L14.4,17.2l-1.7-0.8l0,0l0,0L14.4,17.2l0.2-0.4l-1.6-1 M12.9,15.8L12.9,15.8l1.6,1l0,0
					c-0.1,0.2-0.2,0.3-0.2,0.4L12.9,15.8z"/>
				<path class="st2" d="M19.5,13.7L19.5,13.7l-0.2-1.9l0,0l0,0L19.5,13.7l0.4-0.1v-1.9l0,0l0,0v1.9l0,0c-0.2,0-0.3,0-0.5,0
					L19.5,13.7z"/>
				<path class="st2" d="M25.4,16.7L25.4,16.7c-0.1-0.1-0.2-0.3-0.3-0.4l0,0l0,0l1.6-1.1l0,0l0,0l-1.5,1.1
					C25.2,16.4,25.3,16.6,25.4,16.7l1.6-1.1l0,0l0,0L25.4,16.7L25.4,16.7z"/>
				<path class="st2" d="M25.6,17.2L25.6,17.2c-0.1-0.1-0.1-0.3-0.2-0.4s0,0,0,0l0,0l1.6-1l0,0l0,0l-1.6,1
					C25.5,16.9,25.6,17,25.6,17.2l1.7-0.9l0,0l0,0L25.6,17.2L25.6,17.2z"/>
				<path class="st2" d="M25.9,17.6L25.9,17.6L25.9,17.6c-0.1-0.2-0.1-0.3-0.2-0.5l0,0l0,0l1.7-0.9l0,0l0,0l-1.7,0.9
					c0.1,0.1,0.1,0.2,0.2,0.4l1.8-0.7l0,0l0,0l-1.8,0.7V17.6z"/>
				<path class="st2" d="M25.1,16.3L25.1,16.3l-0.3-0.4l0,0l0,0l1.5-1.2 M26.3,14.7L26.3,14.7l-1.4,1.2c0.1,0.1,0.2,0.2,0.3,0.3
					l1.5-1.1l0,0l0,0l-1.6,1.2L26.3,14.7z"/>
				<path class="st2" d="M26.3,19.5L26.3,19.5L26.3,19.5c0-0.1,0-0.3-0.1-0.5l0,0l1.9-0.3l0,0l0,0L26.2,19
					C26.3,19.2,26.3,19.3,26.3,19.5l1.9-0.2 M28.2,19.4l-1.9,0.2L28.2,19.4z"/>
				<path class="st2" d="M24.8,15.9L24.8,15.9c-0.1-0.1-0.2-0.2-0.3-0.4s0,0,0-0.1l1.4-1.4l0,0l0,0l-1.4,1.4
					C24.6,15.6,24.7,15.7,24.8,15.9l1.4-1.3 M26.3,14.6L26.3,14.6l-1.5,1.3L26.3,14.6z"/>
				<path class="st2" d="M26,18.1L26,18.1c0-0.2-0.1-0.3-0.2-0.5l0,0l0,0l1.8-0.7l0,0l0,0l-1.8,0.7C25.9,17.7,26,17.9,26,18.1
					l1.8-0.6l0,0l0,0L26,18.1L26,18.1z"/>
				<path class="st2" d="M28.3,20h-1.9l0,0c0-0.2,0-0.3,0-0.5s0,0,0,0l1.9-0.2 M28.2,19.4l-1.9,0.1c0,0.2,0,0.3,0,0.4h1.9V19.4z"/>
				<path class="st2" d="M26.2,18.6L26.2,18.6c0-0.2-0.1-0.3-0.1-0.5l0,0l1.8-0.6l0,0l0,0l-1.8,0.6C26.1,18.2,26.1,18.3,26.2,18.6
					L28,18l0,0l0,0L26.2,18.6L26.2,18.6z"/>
				<path class="st2" d="M23.3,14.6L23.3,14.6c-0.1-0.1-0.3-0.2-0.4-0.2l0,0l0.9-1.7l0,0l0,0l-0.9,1.7L23.3,14.6l1-1.7l0,0l0,0
					L23.3,14.6L23.3,14.6L23.3,14.6z"/>
				<path class="st2" d="M21.5,13.9L21.5,13.9c-0.1,0-0.3-0.1-0.5-0.1l0,0l0,0l0.3-1.9l0,0l0,0L21,13.8
					C21.1,13.8,21.3,13.8,21.5,13.9l0.4-1.9l0,0l0,0L21.5,13.9L21.5,13.9z"/>
				<path class="st2" d="M22,14L22,14l-0.5-0.1l0,0l0,0L22,12l0,0l0,0l-0.5,1.9L22,14l0.5-1.9l0,0l0,0L22,14C21.9,14,22,14,22,14z"
					/>
				<path class="st2" d="M21,13.8L21,13.8l-0.5-0.1l0,0l0,0l0.1-1.9l0,0l0,0l-0.1,1.9L21,13.8l0.2-1.9l0,0l0,0L21,13.8L21,13.8z"/>
				<path class="st2" d="M22.4,14.2L22.4,14.2L22,14l0,0l0,0l0.6-1.8l0,0l0,0L22,14L22.4,14.2l0.7-1.9l0,0l0,0L22.4,14.2L22.4,14.2
					L22.4,14.2z"/>
				<path class="st2" d="M23.7,14.9L23.7,14.9c-0.1-0.1-0.3-0.2-0.4-0.3s0,0,0-0.1l1-1.6l0,0l0,0l-1,1.6l0.4,0.2l1.1-1.5l0,0l0,0
					L23.7,14.9L23.7,14.9L23.7,14.9z"/>
				<path class="st2" d="M24.5,15.6L24.5,15.6c-0.1-0.1-0.3-0.2-0.4-0.3s0,0,0,0l1.2-1.5l0,0l0,0l-1.2,1.4c0.1,0.1,0.2,0.2,0.3,0.3
					l1.3-1.3l0,0l0,0l-1.4,1.4L24.5,15.6z"/>
				<path class="st2" d="M24.1,15.2L24.1,15.2l-0.4-0.3l0,0l0,0l1.1-1.6l0,0l0,0l-1.1,1.5C23.9,15,24,15,24.1,15.2l1.2-1.5l0,0l0,0
					L24.1,15.2L24.1,15.2z"/>
				<path class="st2" d="M20.5,13.7L20.5,13.7c-0.2,0-0.3,0-0.5,0l0,0v-2l0,0l0,0v1.9L20.5,13.7l0.1-2l0,0l0,0L20.5,13.7L20.5,13.7z
					"/>
				<path class="st2" d="M22.9,14.4L22.9,14.4l-0.5-0.2l0,0l0.7-1.9l0,0l0,0l-0.7,1.8l0.4,0.2l0.9-1.7l0,0l0,0l-0.9,1.7l0,0
					L22.9,14.4z"/>
				<path class="st2" d="M26.3,19L26.3,19L26.3,19c0-0.2-0.1-0.3-0.1-0.5s0,0,0,0l1.9-0.5l0,0l0,0l-1.9,0.5
					C26.2,18.7,26.2,18.8,26.3,19l1.9-0.4l0,0l0,0L26.3,19L26.3,19z"/>
				<path class="st2" d="M23.8,27.4L23.8,27.4l-0.9-1.7l0,0l0.4-0.2l0,0l0,0l1,1.6l0,0l0,0l-1-1.6l-0.4,0.2L23.8,27.4L23.8,27.4
					L23.8,27.4z"/>
				<path class="st2" d="M24.9,26.7L24.9,26.7l-1.1-1.6 M23.7,25.1c0.1-0.1,0.3-0.2,0.4-0.3l0,0l1.2,1.5l0,0l0,0l-1.2-1.4l-0.4,0.3
					l1.1,1.5l0,0l-0.1,0.1L23.7,25.1z"/>
				<path class="st2" d="M26.3,25.4L26.3,25.4l-1.5-1.2l0,0l0,0c0.1-0.1,0.2-0.2,0.3-0.4s0,0,0,0l1.6,1.1l0,0l0,0l-1.5-1.1
					c-0.1,0.1-0.2,0.2-0.3,0.4L26.3,25.4L26.3,25.4L26.3,25.4z"/>
				<path class="st2" d="M25.8,25.9L25.8,25.9l-1.4-1.4l0,0l0,0c0,0,0.2-0.3,0.3-0.4l0,0l1.5,1.2l0,0l0,0l-1.5-1.2
					c-0.1,0.1-0.2,0.2-0.3,0.3L25.8,25.9L25.8,25.9L25.8,25.9z"/>
				<path class="st2" d="M25.3,26.3L25.3,26.3l-1.2-1.5l0,0c0.1-0.1,0.2-0.2,0.4-0.3l0,0l1.4,1.4l0,0l0,0l-1.3-1.4l-0.3,0.3
					L25.3,26.3L25.3,26.3L25.3,26.3z"/>
				<path class="st2" d="M24.3,27.1L24.3,27.1l-1-1.6l0,0c0.1-0.1,0.3-0.2,0.4-0.3l0,0l1.1,1.6l0,0l0,0l-1.1-1.5
					c-0.1,0.1-0.2,0.2-0.4,0.2L24.3,27.1L24.3,27.1C24.3,27.1,24.3,27.1,24.3,27.1z"/>
				<path class="st2" d="M21.9,28.1L21.9,28.1l-0.5-1.9l0,0c0.2,0,0.3-0.1,0.5-0.1l0,0l0,0l0.6,1.8l0,0l0,0L22,26.1l-0.4,0.1
					L21.9,28.1L21.9,28.1L21.9,28.1z"/>
				<path class="st2" d="M23.2,27.7L23.2,27.7l-0.7-1.8l0,0c0.2-0.1,0.3-0.1,0.5-0.2l0,0l0,0l0.9,1.6l0,0l0,0L23,25.6l-0.4,0.2
					L23.2,27.7L23.2,27.7L23.2,27.7z"/>
				<path class="st2" d="M21.3,28.2L21.3,28.2L21,26.3l0,0l0,0l0.5-0.1l0,0l0.5,1.9l0,0l0,0l-0.4-1.9l-0.4,0.1L21.3,28.2L21.3,28.2
					L21.3,28.2z"/>
				<path class="st2" d="M22.6,27.9L22.6,27.9L22,26.1l0,0c0.2,0,0.3-0.1,0.5-0.2l0,0l0,0l0.7,1.8l0,0l0,0l-0.7-1.8L22,26.1
					L22.6,27.9L22.6,27.9L22.6,27.9z"/>
				<path class="st2" d="M27.9,22.6L27.9,22.6L26,22l0,0c0.1-0.2,0.1-0.3,0.1-0.5l0,0l0,0L28,22l0,0l0,0l-1.8-0.5
					c0,0.1-0.1,0.3-0.1,0.4L27.9,22.6L27.9,22.6C27.9,22.5,27.9,22.6,27.9,22.6z"/>
				<path class="st2" d="M26.7,24.9L26.7,24.9l-1.6-1.1l0,0l0.3-0.4l0,0l0,0l1.6,1l0,0l0,0l-1.6-1c-0.1,0.1-0.2,0.2-0.2,0.4
					L26.7,24.9L26.7,24.9L26.7,24.9z"/>
				<path class="st2" d="M28.2,21.3L28.2,21.3L26.3,21l0,0c0-0.2,0-0.3,0.1-0.5l0,0l1.9,0.1 M28.2,20.7l-1.9-0.2
					c0,0.1,0,0.3-0.1,0.4l1.9,0.3l0,0L28.2,20.7z"/>
				<path class="st2" d="M28,22L28,22l-1.9-0.5l0,0l0,0c0,0,0.1-0.3,0.1-0.5l0,0l0,0l1.9,0.3l0,0l0,0L26.3,21c0,0.1,0,0.3-0.1,0.4
					L28,22L28,22L28,22z"/>
				<path class="st2" d="M11.8,20.7L11.8,20.7L11.8,20.7l1.9-0.1c0-0.1,0-0.3,0-0.4h-1.9l0,0l0,0h1.9l0,0c0,0.2,0,0.3,0,0.5s0,0,0,0
					H11.8L11.8,20.7z"/>
				<path class="st2" d="M28.2,20.7L28.2,20.7l-1.9-0.2l0,0c0,0,0-0.3,0-0.5l0,0h1.9l0,0l0,0h-1.9c0,0.1,0,0.3,0,0.4L28.2,20.7
					L28.2,20.7z"/>
				<path class="st2" d="M27.3,23.8L27.3,23.8l-1.7-0.9l0,0c0.1-0.1,0.1-0.3,0.2-0.5l0,0l1.8,0.7l0,0l0,0l-1.8-0.7
					c-0.1,0.1-0.1,0.3-0.2,0.4L27.3,23.8L27.3,23.8L27.3,23.8z"/>
				<path class="st2" d="M27,24.3L27,24.3l-1.6-1l0,0c0,0,0.2-0.3,0.2-0.4l0,0l1.7,0.9l0,0l0,0l-1.7-0.9c-0.1,0.1-0.1,0.2-0.2,0.4
					L27,24.3L27,24.3L27,24.3z"/>
				<path class="st2" d="M27.6,23.2L27.6,23.2l-1.8-0.7l0,0c0,0,0.1-0.3,0.2-0.5l0,0l0,0l1.8,0.6l0,0l0,0L26,22
					c0,0.1-0.1,0.3-0.1,0.4L27.6,23.2L27.6,23.2L27.6,23.2z"/>
				<path class="st2" d="M20.7,28.3L20.7,28.3l-0.2-1.9l0,0l0,0l0.5-0.1l0,0l0.4,1.9l0,0l0,0L21,26.3l-0.4,0.1L20.7,28.3L20.7,28.3
					L20.7,28.3z"/>
				<path class="st2" d="M12.7,23.8L12.7,23.8L12.7,23.8l1.7-0.9c-0.1-0.1-0.1-0.2-0.2-0.4l-1.8,0.7l0,0l0,0l1.8-0.7l0,0l0,0
					c0,0,0.1,0.3,0.2,0.5s0,0,0,0l0,0L12.7,23.8L12.7,23.8z"/>
				<path class="st2" d="M13.7,25.4L13.7,25.4L13.7,25.4l1.4-1.2c-0.1-0.1-0.2-0.2-0.3-0.4l-1.6,1.1l0,0l0,0l1.6-1.1l0,0l0.3,0.4
					l0,0L13.7,25.4L13.7,25.4z"/>
				<path class="st2" d="M12.4,23.2L12.4,23.2L12.4,23.2l1.8-0.7L14,22.1l-1.8,0.6l0,0l0,0l1.8-0.6l0,0l0,0c0.1,0.2,0.1,0.3,0.2,0.5
					s0,0,0,0l0,0L12.4,23.2L12.4,23.2z"/>
				<path class="st2" d="M13,24.3L13,24.3L13,24.3l1.6-1l-0.3-0.4l-1.7,0.9l0,0l0,0l1.7-0.9l0,0c0.1,0.1,0.2,0.3,0.2,0.4l0,0l0,0
					L13,24.3L13,24.3z"/>
				<path class="st2" d="M14.2,25.9L14.2,25.9 M14.2,25.8l1.3-1.3l-0.3-0.3l-1.4,1.2l0,0l0,0l1.5-1.2l0,0c0.1,0.1,0.2,0.2,0.3,0.4
					l0,0L14.2,25.8L14.2,25.8z"/>
				<path class="st2" d="M12.2,22.6L12.2,22.6L12.2,22.6L14,22c0-0.1-0.1-0.3-0.1-0.4L12,22l0,0l0,0l1.9-0.5l0,0l0,0
					c0,0.1,0.1,0.3,0.1,0.5l0,0L12.2,22.6L12.2,22.6z"/>
				<path class="st2" d="M12,22L12,22L12,22l1.9-0.5c0-0.1-0.1-0.3-0.1-0.4l-1.9,0.2l0,0l0,0l1.9-0.3l0,0l0,0c0,0.2,0.1,0.3,0.1,0.5
					s0,0,0,0L12,22L12,22z"/>
				<path class="st2" d="M20,28.3L20,28.3v-2l0,0h0.5l0,0l0.1,1.9l0,0l0,0l-0.2-1.9H20v1.9V28.3z"/>
				<path class="st2" d="M11.9,21.3L11.9,21.3L11.9,21.3l1.9-0.3c0-0.1,0-0.3-0.1-0.4l-1.9,0.1l0,0l0,0l1.9-0.1l0,0l0,0
					c0,0.2,0,0.3,0.1,0.5l0,0L11.9,21.3z"/>
				<path class="st2" d="M14.6,26.3L14.6,26.3 M14.6,26.3l1.2-1.4c-0.1-0.1-0.2-0.2-0.3-0.3l-1.3,1.3 M14.2,25.8l1.4-1.4
					c0,0,0,0,0.1,0s0.2,0.2,0.4,0.3l0,0l-1.3,1.5L14.2,25.8z"/>
				<path class="st2" d="M13.3,24.9L13.3,24.9L13.3,24.9l1.5-1.1c-0.1-0.1-0.2-0.2-0.2-0.4L13,24.3l0,0l0,0l1.6-1c0,0,0,0,0.1,0
					s0.2,0.3,0.3,0.4s0,0,0,0l0,0L13.3,24.9z"/>
				<path class="st2" d="M18.1,28.1L18.1,28.1L18.1,28.1l0.5-1.8l-0.4-0.1L17.6,28l0,0l0,0l0.6-1.8l0,0c0.2,0.1,0.3,0.1,0.5,0.1l0,0
					L18.1,28.1L18.1,28.1z"/>
				<path class="st2" d="M17.5,27.9L17.5,27.9L17.5,27.9l0.6-1.8L17.7,26L17,27.8 M16.8,27.7l0.7-1.8l0,0l0,0
					c0.1,0.1,0.3,0.1,0.5,0.2l0,0l0,0l-0.6,1.8l0,0L16.8,27.7z"/>
				<path class="st2" d="M15.2,26.7L15.2,26.7L15.2,26.7l1.1-1.5L16,24.9l-1.2,1.4l0,0 M14.7,26.3l1.2-1.5l0,0l0.4,0.3l0,0l-1.1,1.5
					L14.7,26.3z"/>
				<path class="st2" d="M19.3,28.3L19.3,28.3L19.3,28.3l0.1-1.9H19l-0.3,1.9l0,0l0,0l0.3-1.9l0,0l0.5,0.1l0,0l0,0L19.3,28.3
					L19.3,28.3z"/>
				<path class="st2" d="M16.3,27.4L16.3,27.4L16.3,27.4l0.9-1.7l-0.4-0.2l-1,1.6l0,0l0,0l1-1.6l0,0l0,0l0.4,0.2l0,0L16.3,27.4
					L16.3,27.4z"/>
				<path class="st2" d="M20,28.3L20,28.3v-2h-0.4l-0.1,1.9 M19.4,28.2l0.1-1.9l0,0H20l0,0v1.9H19.4z"/>
				<path class="st2" d="M18.7,28.2L18.7,28.2L18.7,28.2l0.3-1.9l-0.4-0.1l-0.4,1.9l0,0l0,0l0.4-1.9l0,0l0.5,0.1l0,0l0,0L18.7,28.2
					L18.7,28.2z"/>
				<path class="st2" d="M16.8,27.7L16.8,27.7L16.8,27.7l0.7-1.8l-0.4-0.2l-0.9,1.6l0,0l0,0l0.9-1.7l0,0l0.4,0.2l0,0L16.8,27.7
					L16.8,27.7z"/>
				<path class="st2" d="M15.7,27.1L15.7,27.1L15.7,27.1l1-1.6c-0.1-0.1-0.2-0.2-0.4-0.2l-1.1,1.5l0,0l0,0l1.1-1.6l0,0l0,0
					c0.1,0.1,0.3,0.2,0.4,0.3l0,0L15.7,27.1L15.7,27.1z"/>
			</g>
			<path class="st2" d="M20,36.4C11,36.4,3.6,29,3.6,20S11,3.6,20,3.6S36.4,10.9,36.4,20l0,0C36.4,29,29,36.4,20,36.4z M20,4
				C11.1,4,3.9,11.1,3.9,20S11.1,36.1,20,36.1S36.1,28.9,36.1,20l0,0C36,11.1,28.9,4,20,4z"/>
			<path class="st2" d="M20,31.4c-6.3,0-11.4-5.1-11.4-11.4S13.7,8.6,20,8.6S31.4,13.7,31.4,20l0,0C31.4,26.3,26.3,31.4,20,31.4z
				 M20,8.8c-6.2,0-11.2,5-11.2,11.2s5,11.2,11.2,11.2s11.2-5,11.2-11.2S26.2,8.8,20,8.8z"/>
			<path class="st2" d="M20,31c-6.1,0-11-4.9-11-11S13.9,9,20,9s11,5,11,11C31,26.1,26.1,31,20,31z M20,9.3
				C14.1,9.3,9.3,14.1,9.3,20S14.1,30.7,20,30.7S30.7,26,30.7,20l0,0C30.7,14.1,25.9,9.3,20,9.3z"/>
			<path class="st2" d="M20,25.6c-3.1,0-5.6-2.5-5.6-5.6s2.5-5.6,5.6-5.6s5.6,2.5,5.6,5.6l0,0C25.6,23.1,23.1,25.6,20,25.6z
				 M20,15.3c-2.6,0-4.7,2.1-4.7,4.7s2.1,4.7,4.7,4.7s4.7-2.1,4.7-4.7l0,0C24.7,17.4,22.6,15.3,20,15.3L20,15.3z"/>
			<path class="st2" d="M20,26.5c-3.6,0-6.5-2.9-6.5-6.5s2.9-6.5,6.5-6.5s6.5,2.9,6.5,6.5l0,0C26.5,23.6,23.6,26.5,20,26.5z
				 M20,13.8c-3.4,0-6.2,2.8-6.2,6.2s2.8,6.2,6.2,6.2s6.2-2.8,6.2-6.2l0,0C26.2,16.6,23.4,13.8,20,13.8z"/>
			<path class="st2" d="M20.4,5.1h-0.9c-0.1,0-0.1-0.1-0.1-0.2s0.1-0.2,0.1-0.2h0.9c0.1,0,0.2,0.1,0.2,0.2
				C20.6,5.1,20.5,5.1,20.4,5.1z M20.6,35c0-0.1-0.1-0.2-0.2-0.2h-0.9c-0.1,0-0.1,0.1-0.1,0.2c0,0.1,0.1,0.2,0.1,0.2h0.9
				C20.5,35.2,20.6,35.1,20.6,35z M5.1,20.4v-0.9c0-0.1-0.1-0.2-0.2-0.1c-0.1,0-0.1,0.1-0.2,0.1v0.9c0,0.1,0.1,0.2,0.2,0.2
				C5.1,20.6,5.1,20.5,5.1,20.4z M35.2,20.4v-0.9c0-0.1-0.1-0.2-0.2-0.1c-0.1,0-0.2,0.1-0.2,0.1v0.9c0,0.1,0.1,0.2,0.2,0.2
				C35.1,20.6,35.2,20.5,35.2,20.4L35.2,20.4z M9.2,9.8l0.6-0.6c0-0.1,0-0.2-0.1-0.2S9.6,9,9.5,9L9,9.6c-0.1,0-0.1,0.1,0,0.2
				C9,9.8,9.1,9.8,9.2,9.8z M30.4,31l0.6-0.6c0.1,0,0.1-0.1,0.1-0.2s-0.1-0.1-0.2-0.1c0,0,0,0-0.1,0.1l-0.6,0.6
				c-0.1,0.1-0.1,0.2,0,0.2C30.3,31.1,30.4,31.1,30.4,31L30.4,31z M9.8,31c0.1-0.1,0.1-0.2,0-0.2l-0.6-0.6c0-0.1-0.1-0.1-0.2-0.1
				c-0.1,0-0.1,0.1-0.1,0.2c0,0,0,0,0.1,0.1L9.6,31C9.6,31.1,9.7,31.1,9.8,31L9.8,31z M31,9.8c0.1-0.1,0.1-0.2,0-0.2L30.4,9
				c0-0.1-0.1-0.1-0.2-0.1S30.1,9,30.1,9.1c0,0,0,0,0.1,0.1l0.6,0.6C30.9,9.8,31,9.8,31,9.8z"/>
			<g>
				<rect x="8.8" y="8.4" transform="matrix(0.7071 -0.7071 0.7071 0.7071 -3.7286 8.9808)" class="st2" width="0.3" height="1.2"/>
				<rect x="19.9" y="3.8" class="st2" width="0.3" height="1.2"/>
				<rect x="19.9" y="35" class="st2" width="0.3" height="1.2"/>
				<rect x="3.8" y="19.9" class="st2" width="1.2" height="0.3"/>
				<rect x="35" y="19.9" class="st2" width="1.2" height="0.3"/>
				
					<rect x="30.9" y="30.5" transform="matrix(0.7071 -0.7071 0.7071 0.7071 -12.8745 31.0805)" class="st2" width="0.3" height="1.2"/>
				
					<rect x="8.4" y="30.9" transform="matrix(0.707 -0.7072 0.7072 0.707 -19.3009 15.4466)" class="st2" width="1.2" height="0.3"/>
				<rect x="30.5" y="8.8" transform="matrix(0.7072 -0.707 0.707 0.7072 2.8009 24.5847)" class="st2" width="1.2" height="0.3"/>
				<path class="st2" d="M6.1,14.4L6.1,14.4L5,14c-0.1,0-0.1-0.1-0.1-0.2c0-0.1,0.1-0.1,0.2-0.1l0,0l1.1,0.4c0.1,0,0.1,0.1,0.1,0.2
					C6.2,14.4,6.2,14.4,6.1,14.4L6.1,14.4z"/>
				<path class="st2" d="M35,26.3L35,26.3l-1.2-0.5c-0.1,0-0.1-0.1-0.1-0.2s0.1-0.1,0.2-0.1L35,26C35.1,26,35.1,26.1,35,26.3
					C35.1,26.3,35,26.3,35,26.3z"/>
				<path class="st2" d="M13.8,35.1L13.8,35.1c-0.1,0-0.2-0.1-0.2-0.2l0,0l0.4-1.1c0-0.1,0.1-0.1,0.2-0.1c0.1,0,0.1,0.1,0.1,0.2
					L13.9,35C13.9,35.1,13.9,35.1,13.8,35.1z"/>
				<path class="st2" d="M25.8,6.3L25.8,6.3c-0.1,0-0.2-0.1-0.1-0.2L26.1,5c0-0.1,0.1-0.2,0.2-0.2h0.1c0.1,0,0.1,0.1,0.1,0.2L26,6.2
					C25.9,6.3,25.9,6.3,25.8,6.3L25.8,6.3z"/>
				<path class="st2" d="M5,26.3L5,26.3c-0.1-0.1-0.1-0.2,0-0.2l1.1-0.5c0.1,0,0.2,0,0.2,0.1s0,0.2-0.1,0.2L5,26.3L5,26.3z"/>
				<path class="st2" d="M33.9,14.4c-0.1,0-0.1,0-0.2-0.1c0-0.1,0-0.2,0.1-0.2l1.1-0.4c0.1,0,0.2,0,0.2,0.1s0,0.2-0.1,0.2l0,0
					L33.9,14.4L33.9,14.4z"/>
				<path class="st2" d="M26.2,35.1c-0.1,0-0.1,0-0.1-0.1l-0.5-1c0-0.1,0-0.2,0.1-0.2s0.2,0,0.2,0.1l0,0l0.4,1.1
					C26.3,35,26.3,35.1,26.2,35.1L26.2,35.1z"/>
				<path class="st2" d="M14.3,6.3c-0.1,0-0.1,0-0.1-0.1l-0.4-1.1c0-0.1,0-0.2,0.1-0.2l0,0c0.1,0,0.2,0,0.2,0.1l0.4,1.1
					C14.4,6.2,14.4,6.3,14.3,6.3L14.3,6.3L14.3,6.3z"/>
			</g>
			<g>
				<path class="st2" d="M10.1,18.2L10.1,18.2L9.3,18c-0.1,0-0.1-0.1-0.1-0.1l0,0c0-0.1,0.1-0.1,0.1-0.1l0.8,0.2
					c0.1,0,0.1,0.1,0.1,0.1C10.2,18.1,10.2,18.1,10.1,18.2C10.2,18.1,10.2,18.1,10.1,18.2z"/>
				<path class="st2" d="M30.7,22.2L30.7,22.2L29.9,22c-0.1,0-0.1-0.1-0.1-0.1l0,0c0-0.1,0.1-0.1,0.1-0.1l0,0l0.8,0.2
					c0.1,0,0.1,0.1,0.1,0.1C30.8,22.2,30.7,22.2,30.7,22.2L30.7,22.2z"/>
				<path class="st2" d="M17.9,30.8L17.9,30.8c-0.1,0-0.1-0.1-0.1-0.1l0,0l0.2-0.8c0-0.1,0.1-0.1,0.1-0.1l0,0c0.1,0,0.1,0.1,0.1,0.1
					l0,0L18,30.7C18,30.7,18,30.8,17.9,30.8L17.9,30.8z"/>
				<path class="st2" d="M22,10.2L22,10.2c-0.1,0-0.1-0.1-0.1-0.1L22,9.3c0-0.1,0.1-0.1,0.1-0.1l0,0c0.1,0,0.1,0.1,0.1,0.1L22,10.2
					C22.1,10.2,22,10.2,22,10.2z"/>
				<path class="st2" d="M11,26.2c0,0-0.1,0-0.1-0.1c0,0,0-0.1,0-0.2l0.7-0.4c0,0,0.1,0,0.2,0c0,0,0,0.1,0,0.2L11,26.2L11,26.2z"/>
				<path class="st2" d="M28.4,14.5h-0.1c-0.1,0-0.1-0.1,0-0.2c0,0,0,0,0.1,0l0.7-0.4c0,0,0.1,0,0.2,0c0,0,0,0.1,0,0.2l0,0l-0.7,0.4
					C28.5,14.5,28.4,14.5,28.4,14.5L28.4,14.5z"/>
				<path class="st2" d="M26,29.2h-0.1l-0.4-0.7c0,0,0-0.1,0-0.2c0,0,0.1,0,0.2,0l0.5,0.7C26.2,29,26.2,29.1,26,29.2
					C26.1,29.1,26.1,29.1,26,29.2C26.1,29.2,26.1,29.2,26,29.2z"/>
				<path class="st2" d="M14.4,11.8c0,0-0.1,0-0.1-0.1L13.9,11c0,0,0-0.1,0-0.2c0,0,0.1,0,0.2,0l0,0l0.4,0.7
					C14.5,11.6,14.5,11.6,14.4,11.8C14.5,11.7,14.5,11.7,14.4,11.8L14.4,11.8z"/>
				<path class="st2" d="M9.3,22.2c-0.1,0-0.1,0-0.1-0.1s0-0.1,0.1-0.1l0,0l0.8-0.2c0.1,0,0.1,0,0.1,0.1l0,0c0,0.1,0,0.1-0.1,0.1
					l0,0L9.3,22.2L9.3,22.2z"/>
				<path class="st2" d="M29.9,18.2c-0.1,0-0.1,0-0.1-0.1s0-0.1,0.1-0.1l0,0l0.8-0.2c0.1,0,0.1,0,0.1,0.1l0,0c0,0.1,0,0.1-0.1,0.1
					L29.9,18.2L29.9,18.2z"/>
				<path class="st2" d="M22.1,30.8c-0.1,0-0.1,0-0.1-0.1l-0.2-0.8c0-0.1,0-0.1,0.1-0.1l0,0c0.1,0,0.1,0,0.1,0.1l0,0l0.2,0.8
					C22.3,30.7,22.2,30.8,22.1,30.8C22.2,30.8,22.2,30.8,22.1,30.8L22.1,30.8z"/>
				<path class="st2" d="M18,10.2c-0.1,0-0.1,0-0.1-0.1l-0.1-0.8c0-0.1,0-0.1,0.1-0.1s0.1,0,0.1,0.1l0.1,0.8
					C18.2,10.2,18.1,10.2,18,10.2L18,10.2z"/>
				<path class="st2" d="M14,29.2C13.9,29.2,13.9,29.2,14,29.2c-0.1,0-0.1-0.1-0.1-0.2l0.4-0.7c0,0,0.1,0,0.2,0c0,0,0,0.1,0,0.2l0,0
					L14,29.2L14,29.2z"/>
				<path class="st2" d="M25.6,11.8L25.6,11.8c-0.1,0-0.1-0.1-0.1-0.2l0.4-0.7c0-0.1,0.1-0.1,0.2-0.1s0.1,0.1,0.1,0.2l0,0l-0.5,0.7
					C25.7,11.8,25.6,11.8,25.6,11.8z"/>
				<path class="st2" d="M29,26.2L29,26.2l-0.7-0.5c0-0.1,0-0.1,0-0.2c0,0,0.1,0,0.2,0l0.7,0.4c0,0,0,0.1,0,0.2l0,0
					C29.1,26.2,29.1,26.2,29,26.2z"/>
				<path class="st2" d="M11.6,14.5L11.6,14.5l-0.7-0.4c0,0,0-0.1,0-0.2l0,0c0,0,0.1,0,0.2,0l0.7,0.4C11.8,14.4,11.8,14.5,11.6,14.5
					C11.7,14.5,11.7,14.5,11.6,14.5z"/>
			</g>
			<g>
				<g>
					<path class="st2" d="M29.7,10.8l0.1-0.9l-0.5,0.5l-0.1-0.1L30,9.5v0.1l-0.1,0.8l0.5-0.5l0.1,0.1L29.7,10.8L29.7,10.8z"/>
					<path class="st2" d="M28.9,10.9l-0.2,0.2l0.3,0.3l-0.1,0.1l-0.3-0.2l-0.2,0.2l0.4,0.4L28.7,12l-0.5-0.5l0.8-0.8l0.5,0.5
						l-0.1,0.2L28.9,10.9z"/>
				</g>
				<g>
					<path class="st2" d="M10.8,29.8l-0.2,0.1c0-0.1,0-0.2-0.1-0.2c-0.1-0.1-0.2-0.1-0.2,0v0.1c0,0.1,0,0.1,0,0.2s0,0.1,0,0.2v0.1
						c0,0,0,0.1-0.1,0.1c-0.1,0.1-0.1,0.1-0.2,0.1c-0.1,0-0.2,0-0.2-0.1c-0.1-0.1-0.1-0.2-0.1-0.2L9.8,30c0,0.1,0,0.2,0.1,0.2H10
						h0.1c0,0,0-0.1,0-0.3c0-0.1,0-0.1,0-0.2v-0.1c0,0,0-0.1,0.1-0.1c0-0.1,0.1-0.1,0.2-0.2c0.1,0,0.2,0.1,0.3,0.1
						C10.7,29.6,10.7,29.7,10.8,29.8z"/>
					<path class="st2" d="M11.4,28.2L11.4,28.2l-0.3,0.7l0.7-0.3l0.1,0.1l-0.6,1.1l-0.1-0.1l0.3-0.6l-0.6,0.3l-0.1-0.1l0.3-0.6
						L10.5,29l-0.1-0.1L11.4,28.2z"/>
				</g>
				<g>
					<path class="st2" d="M10.8,10.4l-0.9-0.1l0.5,0.5l-0.1,0.1l-0.8-0.8V10l0.8,0.1L9.9,9.7L10,9.5L10.8,10.4L10.8,10.4z"/>
					<path class="st2" d="M11.9,11.5L11.9,11.5l-0.7-0.3l0.3,0.7L11.4,12l-1-0.5l0.1-0.1l0.6,0.3l-0.4-0.6l0.1-0.1l0.6,0.3l-0.3-0.6
						l0.1-0.1L11.9,11.5z"/>
				</g>
				<g>
					<path class="st2" d="M29.8,29.3l0.1,0.2c-0.1,0-0.2,0-0.2,0.1c-0.1,0.1-0.1,0.1,0,0.2h0.1c0.1,0,0.1,0,0.2,0s0.1,0,0.2,0h0.1
						c0,0,0.1,0,0.1,0.1c0.1,0.1,0.1,0.1,0.1,0.2s0,0.2-0.1,0.3c-0.1,0.1-0.2,0.1-0.2,0.1L30,30.3c0.1,0,0.1-0.1,0.2-0.1v-0.1V30
						c0,0-0.1,0-0.3,0c-0.1,0-0.1,0-0.2,0h-0.1c0,0-0.1,0-0.1-0.1c-0.1-0.1-0.1-0.1-0.1-0.2s0.1-0.2,0.1-0.3
						C29.6,29.4,29.7,29.3,29.8,29.3z"/>
					<path class="st2" d="M29.2,29L29,28.8L28.8,29h-0.2l0.3-0.2l-0.2-0.2L28.3,29l-0.1-0.1l0.5-0.5l0.8,0.8L29,29.7l-0.1-0.1
						L29.2,29z"/>
				</g>
			</g>
		</g>
		<g>
			<polygon class="st3" points="20.7,19.4 14,13.9 20.1,20 			"/>
			<polygon class="st3" points="26.2,26.1 19.5,20.6 20.1,20 			"/>
			<polygon class="st3" points="26.2,13.9 20.7,20.6 20.1,20 			"/>
			<polygon class="st3" points="19.5,19.4 14,26.1 20.1,20 			"/>
			<polygon class="st4" points="14,13.9 19.5,20.6 20.1,20 			"/>
			<polygon class="st4" points="20.7,19.4 26.2,26.1 20.1,20 			"/>
			<polygon class="st4" points="19.5,19.4 26.2,13.9 20.1,20 			"/>
			<polygon class="st4" points="14,26.1 20.7,20.6 20.1,20 			"/>
		</g>
		<g>
			<polygon class="st4" points="20,8.7 18.9,20 20,20 			"/>
			<polygon class="st4" points="20,31.3 21.1,20 20,20 			"/>
			<polygon class="st4" points="8.7,20 20,21.1 20,20 			"/>
			<polygon class="st4" points="31.3,20 20,18.9 20,20 			"/>
			<polygon class="st3" points="18.9,20 20,31.3 20,20 			"/>
			<polygon class="st3" points="20,20 21.1,20 20,8.7 			"/>
			<polygon class="st3" points="20,21.1 31.3,20 20,20 			"/>
			<polygon class="st3" points="20,20 20,18.9 8.7,20 			"/>
		</g>
	</g>
</g>
</svg>
