<?xml version="1.0" encoding="utf-8"?>
<!-- Generator: Adobe Illustrator 25.2.0, SVG Export Plug-In . SVG Version: 6.00 Build 0)  -->
<svg version="1.1" id="Layer_1" xmlns="http://www.w3.org/2000/svg" xmlns:xlink="http://www.w3.org/1999/xlink" x="0px" y="0px"
	 viewBox="0 0 40 40" style="enable-background:new 0 0 40 40;" xml:space="preserve">
<style type="text/css">
	.st0{fill:#FFCC4B;}
	.st1{fill:#7E5E5D;}
	.st2{enable-background:new    ;}
	.st3{fill:#515251;}
</style>
<g>
	<rect x="0.9" y="3.7" class="st0" width="1.9" height="1.9"/>
	<rect x="3.3" y="6.2" class="st0" width="1.2" height="1.2"/>
	<rect x="6.3" y="3.7" class="st0" width="1.7" height="1.3"/>
	<rect x="5.1" y="6.6" class="st0" width="0.8" height="0.8"/>
	<rect x="36.8" y="33.8" class="st0" width="2.4" height="2.4"/>
	<rect x="35.7" y="31.6" class="st0" width="1.2" height="1.2"/>
	<rect x="32.2" y="34" class="st0" width="1.7" height="1.3"/>
	<rect x="33" y="31.6" class="st0" width="1" height="1"/>
	<g>
		<rect x="2.7" y="16.3" class="st1" width="36" height="6.8"/>
		<rect x="35" y="21.6" class="st1" width="4.5" height="3.2"/>
		<rect x="0.9" y="21.5" class="st1" width="3.7" height="3.7"/>
		<rect x="4.4" y="27.2" class="st1" width="2" height="2"/>
		<rect x="2.4" y="15.8" class="st0" width="36" height="6.8"/>
		<rect x="34.7" y="21" class="st0" width="4.5" height="3.2"/>
		<rect x="0.5" y="20.8" class="st0" width="3.7" height="3.7"/>
		<rect x="4.1" y="26.5" class="st0" width="2" height="2"/>
		<rect x="36.1" y="13" class="st1" width="2" height="2"/>
		<rect x="35.7" y="12.3" class="st0" width="2" height="2"/>
		<g class="st2">
			<path class="st3" d="M4.8,17.9c0.2,0,0.4,0,0.5,0.1c0.1,0,0.3,0.1,0.4,0.2c0.1,0.1,0.2,0.2,0.2,0.3c0,0.1,0.1,0.2,0.1,0.3
				c0,0.1,0,0.1,0,0.2c0,0.1-0.1,0.1-0.1,0.2c0,0.1-0.1,0.1-0.2,0.2c-0.1,0-0.1,0.1-0.2,0.1c0.2,0,0.4,0.1,0.5,0.2
				C6,19.8,6,19.9,6,20.1c0,0.1,0,0.3-0.1,0.4c-0.1,0.1-0.1,0.2-0.2,0.3S5.5,20.9,5.4,21C5.2,21,5,21,4.9,21H3.6v-3.1H4.8z
				 M4.3,18.5v0.8h0.4c0.1,0,0.2,0,0.2,0c0.1,0,0.1,0,0.2-0.1s0.1-0.1,0.1-0.1c0,0,0-0.1,0-0.2c0-0.1,0-0.1,0-0.2c0,0,0-0.1-0.1-0.1
				c0,0-0.1-0.1-0.1-0.1c-0.1,0-0.1,0-0.2,0H4.3z M4.9,20.5c0.1,0,0.2,0,0.2,0c0.1,0,0.1-0.1,0.1-0.1s0.1-0.1,0.1-0.1s0-0.1,0-0.1
				c0-0.1,0-0.1,0-0.2c0,0,0-0.1-0.1-0.1c0,0-0.1-0.1-0.1-0.1c-0.1,0-0.1,0-0.2,0H4.3v0.8H4.9z"/>
			<path class="st3" d="M6.3,19.1c0.1-0.1,0.3-0.2,0.4-0.3c0.2-0.1,0.3-0.1,0.5-0.1c0.1,0,0.3,0,0.4,0.1S7.8,19,7.9,19
				s0.1,0.2,0.2,0.3c0,0.1,0.1,0.2,0.1,0.3V21H7.8c-0.1,0-0.1,0-0.1,0S7.6,21,7.6,20.9l0-0.1c-0.1,0-0.1,0.1-0.2,0.1S7.3,21,7.2,21
				S7.1,21,7.1,21c-0.1,0-0.1,0-0.2,0c-0.1,0-0.2,0-0.3,0c-0.1,0-0.2-0.1-0.2-0.1s-0.1-0.1-0.1-0.2c0-0.1,0-0.2,0-0.3
				c0-0.1,0-0.2,0.1-0.2c0-0.1,0.1-0.2,0.2-0.2c0.1-0.1,0.2-0.1,0.4-0.2c0.2,0,0.4-0.1,0.6-0.1v-0.1c0-0.1,0-0.2-0.1-0.3
				c-0.1-0.1-0.1-0.1-0.2-0.1c-0.1,0-0.1,0-0.2,0c0,0-0.1,0-0.1,0.1c0,0-0.1,0-0.1,0.1c0,0-0.1,0-0.1,0c0,0-0.1,0-0.1,0
				c0,0-0.1,0-0.1-0.1L6.3,19.1z M7.5,20.1c-0.1,0-0.2,0-0.3,0c-0.1,0-0.2,0-0.2,0.1c0,0-0.1,0.1-0.1,0.1s0,0.1,0,0.1
				c0,0.1,0,0.1,0.1,0.2c0,0,0.1,0,0.2,0c0.1,0,0.2,0,0.2,0c0.1,0,0.1-0.1,0.2-0.1V20.1z"/>
			<path class="st3" d="M10.2,19.4C10.1,19.4,10.1,19.4,10.2,19.4c-0.1,0.1-0.1,0.1-0.1,0.1c0,0-0.1,0-0.1,0c0,0-0.1,0-0.1-0.1
				c0,0-0.1,0-0.1-0.1c0,0-0.1,0-0.2,0c-0.1,0-0.1,0-0.2,0s-0.1,0.1-0.1,0.1s-0.1,0.1-0.1,0.2c0,0.1,0,0.2,0,0.3
				c0,0.2,0,0.4,0.1,0.5s0.2,0.2,0.3,0.2c0.1,0,0.1,0,0.2,0c0,0,0.1,0,0.1-0.1c0,0,0.1,0,0.1-0.1c0,0,0.1,0,0.1,0
				c0.1,0,0.1,0,0.1,0.1l0.2,0.2c-0.1,0.1-0.1,0.1-0.2,0.2c-0.1,0-0.2,0.1-0.2,0.1c-0.1,0-0.2,0-0.2,0.1c-0.1,0-0.2,0-0.2,0
				c-0.1,0-0.3,0-0.4-0.1s-0.2-0.1-0.3-0.2s-0.2-0.2-0.2-0.4c-0.1-0.1-0.1-0.3-0.1-0.5c0-0.2,0-0.3,0.1-0.4c0-0.1,0.1-0.3,0.2-0.4
				c0.1-0.1,0.2-0.2,0.3-0.2s0.3-0.1,0.5-0.1c0.2,0,0.3,0,0.5,0.1c0.1,0.1,0.2,0.1,0.4,0.2L10.2,19.4z"/>
			<path class="st3" d="M11.3,17.9v1.8h0.1c0,0,0.1,0,0.1,0c0,0,0,0,0.1-0.1l0.4-0.6c0,0,0.1-0.1,0.1-0.1c0,0,0.1,0,0.1,0h0.6
				l-0.6,0.8c-0.1,0.1-0.1,0.1-0.2,0.2c0,0,0.1,0.1,0.1,0.1c0,0,0.1,0.1,0.1,0.1l0.6,1h-0.6c0,0-0.1,0-0.1,0c0,0-0.1,0-0.1-0.1
				l-0.4-0.8c0,0,0-0.1-0.1-0.1c0,0-0.1,0-0.1,0h-0.1v1h-0.7v-3.2H11.3z"/>
			<path class="st3" d="M14.7,21.1c-0.1,0-0.2,0-0.3,0s-0.1-0.1-0.2-0.1s-0.1-0.1-0.1-0.2c0-0.1,0-0.2,0-0.3v-1.1h-0.2
				c0,0-0.1,0-0.1,0c0,0,0-0.1,0-0.1v-0.3l0.3-0.1l0.1-0.5c0-0.1,0.1-0.1,0.1-0.1h0.3v0.6h0.5v0.4h-0.5v1.1c0,0.1,0,0.1,0,0.1
				c0,0,0.1,0,0.1,0c0,0,0,0,0.1,0c0,0,0,0,0,0c0,0,0,0,0,0c0,0,0,0,0,0c0,0,0,0,0,0c0,0,0,0,0,0l0.2,0.3c-0.1,0.1-0.2,0.1-0.3,0.1
				C15,21,14.9,21.1,14.7,21.1z"/>
			<path class="st3" d="M16.6,18.8c0.2,0,0.3,0,0.5,0.1c0.1,0.1,0.3,0.1,0.4,0.2s0.2,0.2,0.2,0.4c0.1,0.1,0.1,0.3,0.1,0.5
				c0,0.2,0,0.3-0.1,0.5c-0.1,0.1-0.1,0.3-0.2,0.4c-0.1,0.1-0.2,0.2-0.4,0.2c-0.1,0.1-0.3,0.1-0.5,0.1c-0.2,0-0.3,0-0.5-0.1
				c-0.1-0.1-0.3-0.1-0.4-0.2c-0.1-0.1-0.2-0.2-0.2-0.4s-0.1-0.3-0.1-0.5c0-0.2,0-0.3,0.1-0.5c0.1-0.1,0.1-0.3,0.2-0.4
				c0.1-0.1,0.2-0.2,0.4-0.2C16.2,18.8,16.4,18.8,16.6,18.8z M16.6,20.6c0.2,0,0.3-0.1,0.3-0.2c0.1-0.1,0.1-0.3,0.1-0.5
				c0-0.2,0-0.4-0.1-0.5c-0.1-0.1-0.2-0.2-0.3-0.2c-0.2,0-0.3,0.1-0.3,0.2c-0.1,0.1-0.1,0.3-0.1,0.5c0,0.2,0,0.4,0.1,0.5
				C16.3,20.5,16.4,20.6,16.6,20.6z"/>
			<path class="st3" d="M19.8,21.1c-0.1,0-0.2,0-0.3,0s-0.1-0.1-0.2-0.1s-0.1-0.1-0.1-0.2c0-0.1,0-0.2,0-0.3v-1.1H19
				c0,0-0.1,0-0.1,0c0,0,0-0.1,0-0.1v-0.3l0.3-0.1l0.1-0.5c0-0.1,0.1-0.1,0.1-0.1h0.3v0.6h0.5v0.4h-0.5v1.1c0,0.1,0,0.1,0,0.1
				c0,0,0.1,0,0.1,0c0,0,0,0,0.1,0c0,0,0,0,0,0c0,0,0,0,0,0c0,0,0,0,0,0c0,0,0,0,0,0c0,0,0,0,0,0l0.2,0.3c-0.1,0.1-0.2,0.1-0.3,0.1
				C20,21,19.9,21.1,19.8,21.1z"/>
			<path class="st3" d="M21.3,19c0.1-0.1,0.2-0.1,0.3-0.2s0.2-0.1,0.3-0.1c0.1,0,0.2,0,0.3,0.1c0.1,0,0.2,0.1,0.2,0.2
				s0.1,0.2,0.1,0.3c0,0.1,0,0.2,0,0.3V21H22v-1.4c0-0.1,0-0.2-0.1-0.3c0-0.1-0.1-0.1-0.2-0.1c-0.1,0-0.1,0-0.2,0s-0.1,0.1-0.2,0.1
				V21h-0.7v-3.2h0.7V19z"/>
			<path class="st3" d="M23.6,20.1c0,0.2,0.1,0.3,0.2,0.4c0.1,0.1,0.2,0.1,0.3,0.1c0.1,0,0.1,0,0.2,0c0.1,0,0.1,0,0.1-0.1
				s0.1,0,0.1-0.1c0,0,0.1,0,0.1,0c0.1,0,0.1,0,0.1,0.1l0.2,0.2c-0.1,0.1-0.1,0.1-0.2,0.2c-0.1,0-0.2,0.1-0.2,0.1
				c-0.1,0-0.2,0-0.2,0.1c-0.1,0-0.2,0-0.2,0c-0.2,0-0.3,0-0.4-0.1c-0.1-0.1-0.3-0.1-0.4-0.2c-0.1-0.1-0.2-0.2-0.2-0.4
				c-0.1-0.1-0.1-0.3-0.1-0.5c0-0.1,0-0.3,0.1-0.4c0-0.1,0.1-0.2,0.2-0.3s0.2-0.2,0.3-0.2c0.1-0.1,0.3-0.1,0.5-0.1
				c0.1,0,0.3,0,0.4,0.1c0.1,0,0.2,0.1,0.3,0.2s0.2,0.2,0.2,0.3s0.1,0.3,0.1,0.4c0,0,0,0.1,0,0.1c0,0,0,0.1,0,0.1c0,0,0,0,0,0
				c0,0,0,0-0.1,0H23.6z M24.4,19.7c0-0.1,0-0.1,0-0.2c0,0,0-0.1-0.1-0.1c0,0-0.1-0.1-0.1-0.1s-0.1,0-0.2,0c-0.1,0-0.2,0-0.3,0.1
				c-0.1,0.1-0.1,0.2-0.1,0.3H24.4z"/>
			<path class="st3" d="M27.1,21h-0.7v-3.1h0.7V21z"/>
			<path class="st3" d="M29,19.3C28.9,19.3,28.9,19.4,29,19.3c-0.1,0.1-0.1,0.1-0.1,0.1c0,0-0.1,0-0.1,0c0,0-0.1,0-0.1,0
				c0,0-0.1,0-0.1,0c0,0-0.1,0-0.2,0c-0.1,0-0.1,0-0.2,0c0,0-0.1,0.1-0.1,0.1c0,0,0,0.1,0,0.1c0,0,0.1,0.1,0.1,0.1s0.1,0,0.2,0.1
				c0.1,0,0.1,0,0.2,0.1c0.1,0,0.1,0,0.2,0.1c0.1,0,0.1,0.1,0.2,0.1c0,0,0.1,0.1,0.1,0.2c0,0.1,0,0.1,0,0.2c0,0.1,0,0.2-0.1,0.3
				c0,0.1-0.1,0.2-0.2,0.2S28.7,21,28.6,21c-0.1,0-0.2,0.1-0.4,0.1c-0.1,0-0.2,0-0.2,0c-0.1,0-0.1,0-0.2-0.1c-0.1,0-0.1-0.1-0.2-0.1
				c-0.1,0-0.1-0.1-0.2-0.1l0.2-0.2c0,0,0-0.1,0.1-0.1c0,0,0.1,0,0.1,0c0,0,0.1,0,0.1,0c0,0,0.1,0,0.1,0.1s0.1,0,0.1,0.1
				c0,0,0.1,0,0.2,0c0.1,0,0.1,0,0.1,0c0,0,0.1,0,0.1,0c0,0,0,0,0-0.1s0,0,0-0.1c0,0,0-0.1,0-0.1c0,0-0.1-0.1-0.1-0.1
				s-0.1,0-0.2-0.1s-0.1,0-0.2-0.1c-0.1,0-0.1,0-0.2-0.1c-0.1,0-0.1-0.1-0.2-0.1c0,0-0.1-0.1-0.1-0.2c0-0.1,0-0.2,0-0.3
				c0-0.1,0-0.2,0.1-0.3s0.1-0.2,0.2-0.2s0.2-0.1,0.3-0.2c0.1,0,0.2-0.1,0.4-0.1c0.1,0,0.2,0,0.2,0c0.1,0,0.1,0,0.2,0.1
				c0.1,0,0.1,0.1,0.2,0.1c0.1,0,0.1,0.1,0.1,0.1L29,19.3z"/>
			<path class="st3" d="M30.1,17.9V21h-0.7v-3.2H30.1z"/>
			<path class="st3" d="M30.5,19.1c0.1-0.1,0.3-0.2,0.4-0.3c0.2-0.1,0.3-0.1,0.5-0.1c0.1,0,0.3,0,0.4,0.1S32,19,32.1,19
				s0.1,0.2,0.2,0.3c0,0.1,0.1,0.2,0.1,0.3V21H32c-0.1,0-0.1,0-0.1,0c0,0-0.1-0.1-0.1-0.1l0-0.1c-0.1,0-0.1,0.1-0.2,0.1
				S31.5,21,31.4,21c-0.1,0-0.1,0-0.2,0.1c-0.1,0-0.1,0-0.2,0c-0.1,0-0.2,0-0.3,0c-0.1,0-0.2-0.1-0.2-0.1c-0.1-0.1-0.1-0.1-0.1-0.2
				c0-0.1,0-0.2,0-0.3c0-0.1,0-0.2,0.1-0.2c0-0.1,0.1-0.2,0.2-0.2c0.1-0.1,0.2-0.1,0.4-0.2c0.2,0,0.4-0.1,0.6-0.1v-0.1
				c0-0.1,0-0.2-0.1-0.3c-0.1-0.1-0.1-0.1-0.2-0.1c-0.1,0-0.1,0-0.2,0c0,0-0.1,0-0.1,0.1c0,0-0.1,0-0.1,0.1c0,0-0.1,0-0.1,0
				c0,0-0.1,0-0.1,0s-0.1,0-0.1-0.1L30.5,19.1z M31.7,20.1c-0.1,0-0.2,0-0.3,0c-0.1,0-0.2,0-0.2,0.1c0,0-0.1,0.1-0.1,0.1
				c0,0,0,0.1,0,0.1c0,0.1,0,0.1,0.1,0.2s0.1,0,0.2,0c0.1,0,0.2,0,0.2,0c0.1,0,0.1-0.1,0.2-0.1V20.1z"/>
			<path class="st3" d="M33.3,19.1c0,0,0.1-0.1,0.1-0.1c0,0,0.1-0.1,0.1-0.1s0.1,0,0.2-0.1c0.1,0,0.1,0,0.2,0c0.1,0,0.2,0,0.3,0.1
				s0.2,0.1,0.2,0.2c0.1,0.1,0.1,0.2,0.1,0.3s0,0.2,0,0.3V21h-0.7v-1.4c0-0.1,0-0.2-0.1-0.3c0-0.1-0.1-0.1-0.2-0.1
				c-0.1,0-0.1,0-0.2,0c-0.1,0-0.1,0.1-0.2,0.1V21h-0.7v-2.2h0.4c0.1,0,0.1,0,0.2,0.1L33.3,19.1z"/>
			<path class="st3" d="M37.1,17.9V21h-0.4c-0.1,0-0.1,0-0.2-0.1l-0.1-0.2c0,0-0.1,0.1-0.1,0.1S36.3,21,36.2,21s-0.1,0-0.2,0.1
				c-0.1,0-0.1,0-0.2,0c-0.1,0-0.2,0-0.3-0.1s-0.2-0.1-0.3-0.2s-0.1-0.2-0.2-0.4c0-0.1-0.1-0.3-0.1-0.5c0-0.2,0-0.3,0.1-0.5
				c0-0.1,0.1-0.3,0.2-0.4c0.1-0.1,0.2-0.2,0.3-0.2c0.1-0.1,0.2-0.1,0.4-0.1c0.1,0,0.2,0,0.3,0c0.1,0,0.1,0.1,0.2,0.1v-1.1H37.1z
				 M36.5,19.4c0-0.1-0.1-0.1-0.2-0.1c-0.1,0-0.1,0-0.2,0c-0.1,0-0.1,0-0.2,0c-0.1,0-0.1,0.1-0.1,0.1s-0.1,0.1-0.1,0.2s0,0.2,0,0.3
				c0,0.1,0,0.2,0,0.3c0,0.1,0,0.1,0.1,0.2s0.1,0.1,0.1,0.1c0,0,0.1,0,0.1,0c0,0,0.1,0,0.1,0c0,0,0.1,0,0.1,0c0,0,0.1,0,0.1-0.1
				c0,0,0.1-0.1,0.1-0.1V19.4z"/>
		</g>
	</g>
</g>
</svg>
