<svg id="Layer_1" data-name="Layer 1" xmlns="http://www.w3.org/2000/svg" viewBox="0 0 40 40">
  <defs>
    <style>
      .cls-1 {
        fill: #ffcc4b;
      }

      .cls-2 {
        fill: #7e5e5d;
      }

      .cls-3 {
        fill: #515251;
      }
    </style>
  </defs>
  <g>
    <rect class="cls-1" x="0.9" y="3.7" width="1.9" height="1.9"/>
    <rect class="cls-1" x="3.3" y="6.2" width="1.2" height="1.2"/>
    <rect class="cls-1" x="6.3" y="3.7" width="1.7" height="1.3"/>
    <rect class="cls-1" x="5.1" y="6.6" width="0.8" height="0.8"/>
    <rect class="cls-1" x="36.8" y="33.8" width="2.4" height="2.4"/>
    <rect class="cls-1" x="35.7" y="31.6" width="1.2" height="1.2"/>
    <rect class="cls-1" x="32.2" y="34" width="1.7" height="1.3"/>
    <rect class="cls-1" x="33" y="31.6" width="1" height="1"/>
    <g>
      <rect class="cls-2" x="2.7" y="16.3" width="36" height="6.8"/>
      <rect class="cls-2" x="35" y="21.6" width="4.5" height="3.2"/>
      <rect class="cls-2" x="0.9" y="21.5" width="3.7" height="3.7"/>
      <rect class="cls-2" x="4.4" y="27.2" width="2" height="2"/>
      <rect class="cls-1" x="2.4" y="15.8" width="36" height="6.8"/>
      <rect class="cls-1" x="34.7" y="21" width="4.5" height="3.2"/>
      <rect class="cls-1" x="0.5" y="20.8" width="3.7" height="3.7"/>
      <rect class="cls-1" x="4.1" y="26.5" width="2" height="2"/>
      <rect class="cls-2" x="36.1" y="13" width="2" height="2"/>
      <rect class="cls-1" x="35.7" y="12.3" width="2" height="2"/>
    </g>
  </g>
  <g>
    <path class="cls-3" d="M5,17.89a2.12,2.12,0,0,1,.54.06,1.2,1.2,0,0,1,.36.17.63.63,0,0,1,.2.26.89.89,0,0,1,.07.34.69.69,0,0,1,0,.2.42.42,0,0,1-.1.17.61.61,0,0,1-.16.16l-.23.12a.8.8,0,0,1,.44.23.61.61,0,0,1,.15.43.86.86,0,0,1-.08.36.77.77,0,0,1-.22.29,1,1,0,0,1-.36.19,1.45,1.45,0,0,1-.49.07H3.9V17.89Zm-.42.53v.76H5l.21,0a.34.34,0,0,0,.16-.06.21.21,0,0,0,.1-.11.36.36,0,0,0,0-.19.48.48,0,0,0,0-.18.31.31,0,0,0-.08-.11.52.52,0,0,0-.15-.07l-.2,0Zm.5,2a.75.75,0,0,0,.23,0,.39.39,0,0,0,.14-.1.29.29,0,0,0,.07-.12.77.77,0,0,0,0-.15.68.68,0,0,0,0-.15.28.28,0,0,0-.08-.11.31.31,0,0,0-.14-.07.69.69,0,0,0-.22,0H4.6v.76Z"/>
    <path class="cls-3" d="M6.54,19.08A1.17,1.17,0,0,1,7,18.82a1.44,1.44,0,0,1,.51-.09.86.86,0,0,1,.36.07,1,1,0,0,1,.27.17.74.74,0,0,1,.16.27,1,1,0,0,1,.06.35v1.35H8.05a.26.26,0,0,1-.14,0,.2.2,0,0,1-.08-.11l0-.11-.15.12-.16.09L7.3,21l-.2,0a1.1,1.1,0,0,1-.27,0,.6.6,0,0,1-.21-.11.59.59,0,0,1-.13-.19.71.71,0,0,1,0-.26.53.53,0,0,1,.06-.24.68.68,0,0,1,.2-.22,1.43,1.43,0,0,1,.39-.16,2.6,2.6,0,0,1,.62-.08v-.09a.38.38,0,0,0-.08-.28.29.29,0,0,0-.22-.08l-.19,0-.13.06L7,19.37l-.13,0a.18.18,0,0,1-.11,0,.3.3,0,0,1-.08-.08Zm1.17,1-.32,0a.77.77,0,0,0-.2.07.21.21,0,0,0-.1.08.23.23,0,0,0,0,.11.18.18,0,0,0,.06.15.3.3,0,0,0,.18.05.51.51,0,0,0,.22-.05.46.46,0,0,0,.19-.14Z"/>
    <path class="cls-3" d="M10.35,19.29l0,.06-.08,0a.16.16,0,0,1-.09,0l-.08-.05-.12-.05-.16,0a.46.46,0,0,0-.21,0,.43.43,0,0,0-.14.13.52.52,0,0,0-.08.2,1,1,0,0,0,0,.26.81.81,0,0,0,.12.48.39.39,0,0,0,.33.17.42.42,0,0,0,.18,0l.11-.06.09-.06a.15.15,0,0,1,.1,0s.09,0,.11.05l.19.24a1.68,1.68,0,0,1-.21.18,1,1,0,0,1-.23.12L9.87,21l-.23,0a1,1,0,0,1-.38-.08.87.87,0,0,1-.32-.22.93.93,0,0,1-.21-.35,1.21,1.21,0,0,1-.08-.48,1.49,1.49,0,0,1,.06-.43,1.07,1.07,0,0,1,.21-.36.89.89,0,0,1,.34-.23,1.16,1.16,0,0,1,.47-.09,1.25,1.25,0,0,1,.45.08,1.16,1.16,0,0,1,.34.24Z"/>
    <path class="cls-3" d="M11.44,17.81v1.76h.1l.09,0a.17.17,0,0,0,.06-.06l.41-.61a.32.32,0,0,1,.09-.08.21.21,0,0,1,.12,0h.6l-.56.78a1,1,0,0,1-.19.17l.09.08.07.11.61,1h-.58a.27.27,0,0,1-.13,0,.32.32,0,0,1-.09-.08l-.41-.77a.14.14,0,0,0-.06-.07l-.09,0h-.13v1h-.65V17.81Z"/>
    <path class="cls-3" d="M14.88,21a.78.78,0,0,1-.28-.05.67.67,0,0,1-.2-.12.82.82,0,0,1-.12-.2.77.77,0,0,1,0-.27V19.22h-.18a.12.12,0,0,1-.09,0,.13.13,0,0,1,0-.1v-.25l.35-.07.13-.53a.13.13,0,0,1,.14-.1h.34v.64h.54v.44h-.54V20.3a.16.16,0,0,0,0,.12.1.1,0,0,0,.1,0h.06l0,0,0,0h.08l0,0,.19.31a.82.82,0,0,1-.28.14A1.13,1.13,0,0,1,14.88,21Z"/>
    <path class="cls-3" d="M16.69,18.74a1.33,1.33,0,0,1,.45.08,1,1,0,0,1,.35.22,1,1,0,0,1,.22.35,1.14,1.14,0,0,1,.08.46,1.16,1.16,0,0,1-.08.47,1.09,1.09,0,0,1-.22.36,1.15,1.15,0,0,1-.35.22,1.33,1.33,0,0,1-.45.08,1.34,1.34,0,0,1-.46-.08,1.15,1.15,0,0,1-.35-.22,1.11,1.11,0,0,1-.23-.36,1.36,1.36,0,0,1-.08-.47,1.34,1.34,0,0,1,.08-.46,1.07,1.07,0,0,1,.23-.35,1,1,0,0,1,.35-.22A1.34,1.34,0,0,1,16.69,18.74Zm0,1.76a.38.38,0,0,0,.33-.16.9.9,0,0,0,.1-.48.86.86,0,0,0-.1-.48.36.36,0,0,0-.33-.16.37.37,0,0,0-.34.16.85.85,0,0,0-.11.48.9.9,0,0,0,.11.48A.39.39,0,0,0,16.69,20.5Z"/>
    <path class="cls-3" d="M19.86,21a.76.76,0,0,1-.27-.05.56.56,0,0,1-.2-.12.82.82,0,0,1-.12-.2.77.77,0,0,1,0-.27V19.22H19a.11.11,0,0,1-.08,0,.11.11,0,0,1,0-.1v-.25l.35-.07.12-.53a.15.15,0,0,1,.15-.1h.33v.64h.54v.44h-.54V20.3a.21.21,0,0,0,0,.12.12.12,0,0,0,.11,0h.06l0,0,0,0h.09l0,0,.2.31a.92.92,0,0,1-.28.14A1.26,1.26,0,0,1,19.86,21Z"/>
    <path class="cls-3" d="M21.34,19a1.13,1.13,0,0,1,.26-.16.88.88,0,0,1,.64,0,.66.66,0,0,1,.23.17.77.77,0,0,1,.14.27,1.13,1.13,0,0,1,.05.32v1.38H22V19.56a.36.36,0,0,0-.07-.24.27.27,0,0,0-.22-.09.48.48,0,0,0-.2,0,.68.68,0,0,0-.18.13v1.54h-.65V17.81h.65Z"/>
    <path class="cls-3" d="M23.61,20a.59.59,0,0,0,.17.39.49.49,0,0,0,.34.12.6.6,0,0,0,.2,0,.35.35,0,0,0,.14-.06l.12-.06.11,0a.12.12,0,0,1,.12.05l.19.24a1.24,1.24,0,0,1-.22.18,1.34,1.34,0,0,1-.24.12L24.3,21l-.23,0a1.18,1.18,0,0,1-.43-.08.91.91,0,0,1-.35-.22,1.13,1.13,0,0,1-.24-.36,1.36,1.36,0,0,1-.09-.51A1.15,1.15,0,0,1,23,19.4a1.08,1.08,0,0,1,.21-.34.89.89,0,0,1,.34-.23,1.06,1.06,0,0,1,.45-.09,1,1,0,0,1,.39.07.89.89,0,0,1,.31.19,1.1,1.1,0,0,1,.2.31,1.16,1.16,0,0,1,.07.42.41.41,0,0,1,0,.12.19.19,0,0,1,0,.08s0,0,0,0l-.08,0Zm.82-.38a.77.77,0,0,0,0-.15.24.24,0,0,0-.07-.13.36.36,0,0,0-.11-.1.48.48,0,0,0-.18,0,.39.39,0,0,0-.29.1.56.56,0,0,0-.14.31Z"/>
    <path class="cls-3" d="M27.09,20.94h-.71V17.89h.71Z"/>
    <path class="cls-3" d="M28.94,19.25a.34.34,0,0,1-.06.06h-.07a.15.15,0,0,1-.09,0l-.1,0-.12,0a.34.34,0,0,0-.15,0,.34.34,0,0,0-.19,0,.15.15,0,0,0-.07.13.14.14,0,0,0,.05.11l.11.06a.76.76,0,0,0,.16.06l.18.06.19.08a.91.91,0,0,1,.16.11.42.42,0,0,1,.11.16.56.56,0,0,1,.05.23.73.73,0,0,1-.06.3.58.58,0,0,1-.18.23.63.63,0,0,1-.28.15,1.25,1.25,0,0,1-.4.06L28,21l-.21-.06-.19-.08a1,1,0,0,1-.15-.11l.15-.24a.09.09,0,0,1,.06-.06.18.18,0,0,1,.2,0l.1.05.12.06.18,0a.27.27,0,0,0,.13,0l.08,0,.05-.06a.15.15,0,0,0,0-.07.12.12,0,0,0,0-.1.36.36,0,0,0-.12-.08l-.16-.05L28,20.06,27.8,20a.67.67,0,0,1-.16-.12.57.57,0,0,1-.12-.18.62.62,0,0,1,0-.25.81.81,0,0,1,.05-.27.65.65,0,0,1,.16-.21A.59.59,0,0,1,28,18.8a1.06,1.06,0,0,1,.37-.06l.23,0a.73.73,0,0,1,.21.06.56.56,0,0,1,.17.09.53.53,0,0,1,.14.11Z"/>
    <path class="cls-3" d="M30.07,17.81v3.13h-.65V17.81Z"/>
    <path class="cls-3" d="M30.46,19.08a1.25,1.25,0,0,1,.44-.26,1.46,1.46,0,0,1,.52-.09.81.81,0,0,1,.35.07A.83.83,0,0,1,32,19a1,1,0,0,1,.17.27,1,1,0,0,1,0,.35v1.35H32a.28.28,0,0,1-.14,0,.2.2,0,0,1-.08-.11l-.05-.11-.15.12-.16.09-.17.05L31,21a1.1,1.1,0,0,1-.27,0,.7.7,0,0,1-.21-.11.59.59,0,0,1-.13-.19.71.71,0,0,1-.05-.26.53.53,0,0,1,.06-.24.62.62,0,0,1,.21-.22,1.2,1.2,0,0,1,.39-.16,2.44,2.44,0,0,1,.61-.08v-.09a.38.38,0,0,0-.08-.28.29.29,0,0,0-.22-.08l-.19,0-.13.06-.11.06-.13,0a.2.2,0,0,1-.11,0,.3.3,0,0,1-.08-.08Zm1.17,1-.32,0a.77.77,0,0,0-.2.07.21.21,0,0,0-.1.08.23.23,0,0,0,0,.11.18.18,0,0,0,.06.15.3.3,0,0,0,.18.05.48.48,0,0,0,.22-.05.46.46,0,0,0,.19-.14Z"/>
    <path class="cls-3" d="M33.28,19a.69.69,0,0,1,.13-.11l.14-.09.17,0,.19,0a.75.75,0,0,1,.31.06.7.7,0,0,1,.24.17.77.77,0,0,1,.14.27,1.13,1.13,0,0,1,0,.32v1.38H34V19.56a.36.36,0,0,0-.08-.24.25.25,0,0,0-.21-.09.45.45,0,0,0-.2,0,.68.68,0,0,0-.18.13v1.54h-.65V18.77h.4a.16.16,0,0,1,.16.11Z"/>
    <path class="cls-3" d="M37,17.81v3.13h-.4a.15.15,0,0,1-.16-.1l0-.17a.86.86,0,0,1-.14.13l-.15.09A.75.75,0,0,1,36,21l-.2,0a.69.69,0,0,1-.32-.08.74.74,0,0,1-.25-.22,1.07,1.07,0,0,1-.16-.34,1.73,1.73,0,0,1-.06-.47,1.25,1.25,0,0,1,.07-.45,1,1,0,0,1,.18-.36.86.86,0,0,1,.3-.24.79.79,0,0,1,.38-.09.71.71,0,0,1,.49.18v-1.1Zm-.65,1.55a.36.36,0,0,0-.16-.12.48.48,0,0,0-.18,0,.41.41,0,0,0-.16,0,.37.37,0,0,0-.13.12.53.53,0,0,0-.09.2,1.42,1.42,0,0,0,0,.31,2.33,2.33,0,0,0,0,.29.61.61,0,0,0,.07.18.29.29,0,0,0,.11.11.32.32,0,0,0,.14,0h.13l.11,0,.09-.07a.36.36,0,0,0,.08-.09Z"/>
  </g>
</svg>
