<svg xmlns="http://www.w3.org/2000/svg" viewBox="0 0 1214.39 20">
  <defs>
    <style>
      .cls-1 {
        fill: #fff;
      }

      .cls-2 {
        fill: #434345;
      }
    </style>
  </defs>
  <g id="Layer_2" data-name="Layer 2">
    <g id="wiggle">
      <rect id="bottom" class="cls-1" width="1214.39" height="20"/>
      <path id="top" class="cls-2" d="M0,14.23c19,0,19-8.46,38-8.46s19,8.46,38,8.46,19-8.46,38-8.46,19,8.46,38,8.46,19-8.46,38-8.46,19,8.46,38,8.46,19-8.46,38-8.46,19,8.46,38,8.46,19-8.46,38-8.46,19,8.46,38,8.46,19-8.46,38-8.46,19,8.46,38,8.46,19-8.46,38-8.46,19,8.46,38,8.46,19-8.46,38-8.46c18.79,0,19,8.26,37.38,8.45,18.38-.19,18.6-8.45,37.39-8.45,19,0,19,8.46,38,8.46s19-8.46,38-8.46,19,8.46,38,8.46,19-8.46,38-8.46,19,8.46,38,8.46,19-8.46,38-8.46,19,8.46,38,8.46,19-8.46,38-8.46,19,8.46,38,8.46,19-8.46,38-8.46,19,8.46,38,8.46,19-8.46,38-8.46,19,8.46,38,8.46,19-8.46,38-8.46,19,8.46,38,8.46V0H0Z"/>
    </g>
  </g>
</svg>
