<svg id="Island" xmlns="http://www.w3.org/2000/svg" xmlns:xlink="http://www.w3.org/1999/xlink" viewBox="0 0 1920 1080">
  <defs>
    <style>
      .cls-1 {
        fill: #71b6d6;
      }

      .cls-2 {
        fill: #70b6d5;
      }

      .cls-3 {
        fill: #73bad9;
      }

      .cls-4 {
        fill: #76bfd9;
      }

      .cls-5 {
        fill: #72b8d6;
      }

      .cls-6 {
        fill: #73bbd9;
      }

      .cls-7 {
        fill: #77bfd9;
      }

      .cls-8 {
        fill: #70b5d5;
      }

      .cls-9 {
        fill: #74bdd9;
      }

      .cls-10 {
        fill: #75bdd9;
      }

      .cls-11 {
        fill: #9dd3dc;
      }

      .cls-12 {
        fill: #77c0d9;
      }

      .cls-13 {
        fill: #75bed9;
      }

      .cls-14 {
        fill: #aadedf;
      }

      .cls-15 {
        fill: #99cfda;
      }

      .cls-16 {
        fill: #a8dddf;
      }

      .cls-17 {
        fill: #a3d9df;
      }

      .cls-18 {
        fill: #9bd2dc;
      }

      .cls-19 {
        fill: #aadddf;
      }

      .cls-20 {
        fill: #a2d8df;
      }

      .cls-21 {
        fill: #a0d7df;
      }

      .cls-22 {
        fill: #a4dbdf;
      }

      .cls-23 {
        fill: #a7dcdf;
      }

      .cls-24 {
        fill: #addfe5;
      }

      .cls-25 {
        fill: #a0d4df;
      }

      .cls-26 {
        fill: #aadde5;
      }

      .cls-27 {
        fill: #a3d6e0;
      }

      .cls-28 {
        fill: #b3e1e5;
      }

      .cls-29 {
        fill: #a6d8e1;
      }

      .cls-30 {
        fill: #acdee5;
      }

      .cls-31 {
        fill: #b1e1e5;
      }

      .cls-32 {
        fill: #9ad0da;
      }

      .cls-33 {
        fill: #b4e2e5;
      }

      .cls-34 {
        fill: #b6e4e5;
      }

      .cls-35 {
        fill: #a2d5e0;
      }

      .cls-36 {
        fill: #afe0e5;
      }

      .cls-37 {
        mask: url(#mask);
      }

      .cls-38 {
        fill: #b8e5e6;
      }

      .cls-39 {
        fill: #85cbe1;
      }
    </style>
    <mask id="mask" x="-669.37" y="-2486.54" width="3842.47" height="2664.46" maskUnits="userSpaceOnUse"/>
  </defs>
  <title>bg-pixels</title>
  <g>
    <polyline class="cls-1" points="572.17 1069.93 559.09 1069.93 556.95 1091.84 570.08 1091.84 572.17 1069.93"/>
    <polyline class="cls-2" points="803.79 1015.89 790.9 1015.89 790.01 1037.24 802.97 1037.24 803.79 1015.89"/>
    <polyline class="cls-3" points="221.32 1015.89 208.44 1015.89 204.48 1037.24 217.44 1037.24 221.32 1015.89"/>
    <polyline class="cls-4" points="837.76 963.24 825.04 963.24 824.34 984.05 837.13 984.05 837.76 963.24"/>
    <polyline class="cls-4" points="741.95 963.24 729.23 963.24 728.02 984.05 740.82 984.05 741.95 963.24"/>
    <polyline class="cls-2" points="933.92 911.97 921.37 911.97 921.17 932.24 933.79 932.24 933.92 911.97"/>
    <polyline class="cls-1" points="902.4 911.97 889.85 911.97 889.48 932.24 902.11 932.24 902.4 911.97"/>
    <polyline class="cls-3" points="334.89 911.97 322.34 911.97 319.07 932.24 331.68 932.24 334.89 911.97"/>
    <polyline class="cls-4" points="622.99 862 610.59 862 608.8 881.75 621.26 881.75 622.99 862"/>
    <polyline class="cls-5" points="145.88 1069.93 132.82 1069.93 128.4 1091.84 141.53 1091.84 145.88 1069.93"/>
    <polyline class="cls-6" points="188.97 1015.89 176.08 1015.89 171.95 1037.24 184.91 1037.24 188.97 1015.89"/>
    <polyline class="cls-3" points="103.2 963.24 90.48 963.24 85.94 984.05 98.74 984.05 103.2 963.24"/>
    <polyline class="cls-7" points="177.25 911.97 164.7 911.97 160.61 932.24 173.23 932.24 177.25 911.97"/>
    <polyline class="cls-2" points="811.65 813.26 799.4 813.26 798.6 832.53 810.89 832.53 811.65 813.26"/>
    <polyline class="cls-8" points="719.43 813.26 707.18 813.26 705.91 832.53 718.22 832.53 719.43 813.26"/>
    <polyline class="cls-8" points="534.99 813.26 522.75 813.26 520.56 832.53 532.85 832.53 534.99 813.26"/>
    <polyline class="cls-9" points="381.29 813.26 369.06 813.26 366.1 832.53 378.39 832.53 381.29 813.26"/>
    <polyline class="cls-9" points="350.55 813.26 338.31 813.26 335.19 832.53 347.5 832.53 350.55 813.26"/>
    <polyline class="cls-6" points="479.54 765.75 467.45 765.75 465.01 784.53 477.16 784.53 479.54 765.75"/>
    <polyline class="cls-5" points="845.27 719.37 833.34 719.37 832.7 737.71 844.72 737.71 845.27 719.37"/>
    <polyline class="cls-10" points="635.36 719.37 623.42 719.37 621.76 737.71 633.76 737.71 635.36 719.37"/>
    <polyline class="cls-10" points="935.54 674.12 923.75 674.12 923.57 692.01 935.43 692.01 935.54 674.12"/>
    <polyline class="cls-11" points="185.53 719.37 173.59 719.37 169.74 737.71 181.73 737.71 185.53 719.37"/>
    <polyline class="cls-3" points="732.52 1075.42 726.01 1075.42 725.4 1086.3 731.91 1086.3 732.52 1075.42"/>
    <polyline class="cls-7" points="469.85 1075.42 463.36 1075.42 462.04 1086.3 468.55 1086.3 469.85 1075.42"/>
    <polyline class="cls-6" points="437.01 1075.42 430.52 1075.42 429.1 1086.3 435.61 1086.3 437.01 1075.42"/>
    <polyline class="cls-6" points="897.53 1021.25 891.13 1021.25 890.95 1031.85 897.36 1031.85 897.53 1021.25"/>
    <polyline class="cls-6" points="476.32 1021.25 469.9 1021.25 468.62 1031.85 475.06 1031.85 476.32 1021.25"/>
    <polyline class="cls-9" points="443.91 1021.25 437.51 1021.25 436.13 1031.85 442.57 1031.85 443.91 1021.25"/>
    <polyline class="cls-9" points="674.5 968.47 668.18 968.47 667.42 978.79 673.76 978.79 674.5 968.47"/>
    <polyline class="cls-5" points="482.62 968.47 476.3 968.47 475.06 978.79 481.4 978.79 482.62 968.47"/>
    <polyline class="cls-12" points="678.18 917.05 671.94 917.05 671.21 927.11 677.46 927.11 678.18 917.05"/>
    <polyline class="cls-13" points="615.05 917.05 608.8 917.05 607.91 927.11 614.16 927.11 615.05 917.05"/>
    <polyline class="cls-6" points="236.22 917.05 229.97 917.05 228.11 927.11 234.38 927.11 236.22 917.05"/>
    <polyline class="cls-3" points="66.88 968.47 60.56 968.47 58.23 978.79 64.58 978.79 66.88 968.47"/>
    <polyline class="cls-11" points="27.23 866.95 21.08 866.95 18.72 876.75 24.89 876.75 27.23 866.95"/>
    <polyline class="cls-13" points="869.93 818.1 863.83 818.1 863.59 827.66 869.71 827.66 869.93 818.1"/>
    <polyline class="cls-7" points="695.24 678.63 689.38 678.63 688.73 687.5 694.61 687.5 695.24 678.63"/>
    <polyline class="cls-14" points="546.93 678.63 541.05 678.63 540.05 687.5 545.93 687.5 546.93 678.63"/>
    <polyline class="cls-3" points="933.22 591.11 927.49 591.11 927.4 599.57 933.14 599.57 933.22 591.11"/>
    <polyline class="cls-15" points="675.9 548.89 670.24 548.89 669.58 557.15 675.25 557.15 675.9 548.89"/>
    <polyline class="cls-16" points="42.65 678.63 36.79 678.63 34.58 687.5 40.45 687.5 42.65 678.63"/>
    <polyline class="cls-3" points="221.44 1057.16 193.13 1057.16 184.17 1104.84 212.83 1104.84 221.44 1057.16"/>
    <polyline class="cls-11" points="53.01 802.05 26.47 802.05 16.26 843.93 43.1 843.93 53.01 802.05"/>
    <polyline class="cls-8" points="871.81 1062.62 850.02 1062.62 849.03 1099.26 871.01 1099.26 871.81 1062.62"/>
    <polyline class="cls-13" points="839.08 1062.62 817.29 1062.62 816 1099.26 837.99 1099.26 839.08 1062.62"/>
    <polyline class="cls-12" points="773.62 1062.62 751.83 1062.62 749.97 1099.26 771.95 1099.26 773.62 1062.62"/>
    <polyline class="cls-5" points="511.76 1062.62 489.97 1062.62 485.77 1099.26 507.75 1099.26 511.76 1062.62"/>
    <polyline class="cls-3" points="679.17 1008.77 657.67 1008.77 655 1044.45 676.7 1044.45 679.17 1008.77"/>
    <polyline class="cls-5" points="517.66 1008.77 496.16 1008.77 492.05 1044.45 513.75 1044.45 517.66 1008.77"/>
    <polyline class="cls-3" points="162.35 1008.77 140.84 1008.77 133.6 1044.45 155.31 1044.45 162.35 1008.77"/>
    <polyline class="cls-17" points="302.54 759.48 282.36 759.48 276.74 790.87 297.07 790.87 302.54 759.48"/>
    <polyline class="cls-18" points="202.25 806.85 181.81 806.85 175.28 839.04 195.88 839.04 202.25 806.85"/>
    <polyline class="cls-9" points="611.2 1060.78 587.25 1060.78 583.57 1101.12 607.76 1101.12 611.2 1060.78"/>
    <polyline class="cls-9" points="648.1 1007 624.44 1007 621.17 1046.26 645.05 1046.26 648.1 1007"/>
    <polyline class="cls-7" points="844.87 903.53 821.82 903.53 820.5 940.82 843.77 940.82 844.87 903.53"/>
    <polyline class="cls-8" points="87.73 1060.78 63.76 1060.78 54.92 1101.12 79.14 1101.12 87.73 1060.78"/>
    <polyline class="cls-10" points="205.98 954.6 182.64 954.6 175.17 992.85 198.75 992.85 205.98 954.6"/>
    <path class="cls-14" d="M264.93,805.25H242.47l-6.58,35.15,24.47-9.88,4.57-25.27"/>
    <path class="cls-12" d="M260.36,830.5c-8.24,3.33-16.38,6.6-24.47,9.88l-.06.29h22.69l1.84-10.17"/>
    <polyline class="cls-8" points="700.87 711.75 678.95 711.75 676.42 745.46 698.53 745.46 700.87 711.75"/>
    <polyline class="cls-9" points="671.75 1068.09 656.5 1068.09 654.6 1093.7 669.95 1093.7 671.75 1068.09"/>
    <polyline class="cls-13" points="638.98 1068.09 623.73 1068.09 621.63 1093.7 636.98 1093.7 638.98 1068.09"/>
    <polyline class="cls-2" points="409.54 1068.09 394.31 1068.09 390.76 1093.7 406.1 1093.7 409.54 1068.09"/>
    <polyline class="cls-4" points="837.28 1014.11 822.23 1014.11 821.38 1039.04 836.51 1039.04 837.28 1014.11"/>
    <polyline class="cls-2" points="647.35 961.51 632.49 961.51 630.5 985.8 645.44 985.8 647.35 961.51"/>
    <polyline class="cls-4" points="615.42 961.51 600.56 961.51 598.39 985.8 613.32 985.8 615.42 961.51"/>
    <polyline class="cls-7" points="583.49 961.51 568.65 961.51 566.25 985.8 581.2 985.8 583.49 961.51"/>
    <polyline class="cls-6" points="686.4 860.35 671.92 860.35 670.21 883.41 684.77 883.41 686.4 860.35"/>
    <polyline class="cls-1" points="499.7 860.35 485.23 860.35 482.42 883.41 496.98 883.41 499.7 860.35"/>
    <polyline class="cls-1" points="180.12 1068.09 164.87 1068.09 159.9 1093.7 175.24 1093.7 180.12 1068.09"/>
    <polyline class="cls-9" points="16.24 1068.09 0.99 1068.09 -0.55 1074.69 -0.55 1093.7 10.35 1093.7 16.24 1068.09"/>
    <polyline class="cls-5" points="93.36 1014.11 78.32 1014.11 72.89 1039.04 88.03 1039.04 93.36 1014.11"/>
    <polyline class="cls-8" points="935.63 811.66 921.35 811.66 921.11 834.15 935.49 834.15 935.63 811.66"/>
    <polyline class="cls-2" points="782.01 811.66 767.71 811.66 766.59 834.15 780.97 834.15 782.01 811.66"/>
    <path class="cls-19" d="M307.07,811.66h-.26l0,.12.28-.12"/>
    <path class="cls-7" d="M321.11,811.66h-14a2.61,2.61,0,0,1-.28.12L303,834.17h14.38l3.75-22.51"/>
    <polyline class="cls-3" points="571.79 764.17 557.68 764.17 555.34 786.11 569.54 786.11 571.79 764.17"/>
    <polyline class="cls-7" points="541.45 764.17 527.33 764.17 524.82 786.11 539.03 786.11 541.45 764.17"/>
    <polyline class="cls-20" points="268.32 764.17 254.2 764.17 250.13 786.11 264.32 786.11 268.32 764.17"/>
    <polyline class="cls-6" points="966.23 717.85 952.28 717.85 952.24 739.25 966.26 739.25 966.23 717.85"/>
    <path class="cls-17" d="M539.42,717.84h-6.81l-.33,2.89,7.14-2.89"/>
    <path class="cls-9" d="M546.56,717.84h-7.14l-7.14,2.89-2.12,18.52h14l2.38-21.41"/>
    <polyline class="cls-19" points="705.78 585.42 692.32 585.42 690.85 605.34 704.37 605.34 705.78 585.42"/>
    <polyline class="cls-7" points="968.92 1064.45 949.3 1064.45 949.21 1097.4 968.98 1097.4 968.92 1064.45"/>
    <polyline class="cls-3" points="354.81 1010.55 335.47 1010.55 330.5 1042.65 349.99 1042.65 354.81 1010.55"/>
    <polyline class="cls-2" points="290.19 1010.55 270.83 1010.55 265.34 1042.65 284.85 1042.65 290.19 1010.55"/>
    <polyline class="cls-9" points="968.72 958.06 949.6 958.06 949.53 989.32 968.77 989.32 968.72 958.06"/>
    <polyline class="cls-6" points="522.16 958.06 503.06 958.06 499.47 989.32 518.72 989.32 522.16 958.06"/>
    <polyline class="cls-9" points="458.37 958.06 439.28 958.06 435.18 989.32 454.43 989.32 458.37 958.06"/>
    <polyline class="cls-8" points="968.61 906.91 949.75 906.91 949.67 937.38 968.66 937.38 968.61 906.91"/>
    <polyline class="cls-9" points="401.84 906.91 382.98 906.91 378.5 937.38 397.51 937.38 401.84 906.91"/>
    <polyline class="cls-9" points="906.33 857.06 887.71 857.06 887.15 886.76 905.92 886.76 906.33 857.06"/>
    <polyline class="cls-9" points="471.08 857.06 452.46 857.06 448.59 886.76 467.34 886.76 471.08 857.06"/>
    <polyline class="cls-8" points="52.02 1064.45 32.4 1064.45 24.93 1097.4 44.7 1097.4 52.02 1064.45"/>
    <polyline class="cls-4" points="753.52 808.45 735.13 808.45 733.42 837.4 751.94 837.4 753.52 808.45"/>
    <polyline class="cls-19" points="231.59 808.45 213.22 808.45 207.58 837.4 226.1 837.4 231.59 808.45"/>
    <polyline class="cls-1" points="930.63 1073.6 921.95 1073.6 921.82 1088.16 930.52 1088.16 930.63 1073.6"/>
    <polyline class="cls-9" points="963.42 1019.46 954.85 1019.46 954.83 1033.63 963.44 1033.63 963.42 1019.46"/>
    <polyline class="cls-7" points="931.02 1019.46 922.47 1019.46 922.32 1033.63 930.93 1033.63 931.02 1019.46"/>
    <polyline class="cls-5" points="769.1 1019.46 760.53 1019.46 759.82 1033.63 768.43 1033.63 769.1 1019.46"/>
    <polyline class="cls-3" points="736.71 1019.46 728.13 1019.46 727.32 1033.63 735.93 1033.63 736.71 1019.46"/>
    <polyline class="cls-2" points="574.77 1019.46 566.2 1019.46 564.82 1033.63 573.41 1033.63 574.77 1019.46"/>
    <polyline class="cls-1" points="412.83 1019.46 404.28 1019.46 402.32 1033.63 410.92 1033.63 412.83 1019.46"/>
    <polyline class="cls-12" points="867.48 966.72 859.04 966.72 858.68 980.56 867.16 980.56 867.48 966.72"/>
    <polyline class="cls-7" points="771.6 966.72 763.13 966.72 762.45 980.56 770.94 980.56 771.6 966.72"/>
    <polyline class="cls-1" points="356.04 966.72 347.58 966.72 345.46 980.56 353.95 980.56 356.04 966.72"/>
    <polyline class="cls-13" points="324.07 966.72 315.61 966.72 313.38 980.56 321.88 980.56 324.07 966.72"/>
    <polyline class="cls-10" points="647.8 915.36 639.45 915.36 638.35 928.82 646.74 928.82 647.8 915.36"/>
    <polyline class="cls-6" points="521.58 915.36 513.23 915.36 511.71 928.82 520.08 928.82 521.58 915.36"/>
    <polyline class="cls-5" points="490.02 915.36 481.68 915.36 480.04 928.82 488.43 928.82 490.02 915.36"/>
    <polyline class="cls-4" points="458.47 915.36 450.12 915.36 448.39 928.82 456.76 928.82 458.47 915.36"/>
    <polyline class="cls-7" points="838.69 865.3 830.45 865.3 830.02 878.42 838.28 878.42 838.69 865.3"/>
    <polyline class="cls-10" points="776.39 865.3 768.15 865.3 767.5 878.42 775.76 878.42 776.39 865.3"/>
    <polyline class="cls-1" points="745.24 865.3 736.99 865.3 736.24 878.42 744.52 878.42 745.24 865.3"/>
    <polyline class="cls-2" points="56.58 1019.46 48.01 1019.46 44.81 1033.63 53.42 1033.63 56.58 1019.46"/>
    <polyline class="cls-6" points="4.42 966.72 -0.55 966.72 -0.55 980.56 1.1 980.56 4.42 966.72"/>
    <polyline class="cls-5" points="111.36 915.36 103.01 915.36 100.09 928.82 108.46 928.82 111.36 915.36"/>
    <polyline class="cls-21" points="122.13 865.3 113.89 865.3 111.05 878.42 119.3 878.42 122.13 865.3"/>
    <polyline class="cls-7" points="901.75 816.48 893.63 816.48 893.4 829.27 901.57 829.27 901.75 816.48"/>
    <polyline class="cls-9" points="563.35 816.48 555.21 816.48 553.85 829.27 562.03 829.27 563.35 816.48"/>
    <path class="cls-11" d="M286.47,816.48h-8.15l-1.3,7.29,8.78-3.53.67-3.76"/>
    <path class="cls-5" d="M285.8,820.24c-3,1.19-5.84,2.36-8.78,3.53l-1,5.5h8.17l1.58-9"/>
    <polyline class="cls-1" points="841.72 768.87 833.69 768.87 833.26 781.37 841.33 781.37 841.72 768.87"/>
    <polyline class="cls-6" points="723.11 722.44 715.17 722.44 714.39 734.62 722.35 734.62 723.11 722.44"/>
    <polyline class="cls-19" points="332.94 722.44 325 722.44 322.95 734.62 330.91 734.62 332.94 722.44"/>
    <polyline class="cls-20" points="370.17 677.12 362.34 677.12 360.43 689 368.29 689 370.17 677.12"/>
    <polyline class="cls-14" points="310.88 677.12 303.04 677.12 300.92 689 308.8 689 310.88 677.12"/>
    <polyline class="cls-15" points="203.64 768.87 195.61 768.87 193.09 781.37 201.17 781.37 203.64 768.87"/>
    <polyline class="cls-22" points="173.27 768.87 165.22 768.87 162.62 781.37 170.69 781.37 173.27 768.87"/>
    <polyline class="cls-18" points="142.88 768.87 134.83 768.87 132.14 781.37 140.19 781.37 142.88 768.87"/>
    <polyline class="cls-11" points="51.73 768.87 43.69 768.87 40.68 781.37 48.75 781.37 51.73 768.87"/>
    <polyline class="cls-23" points="32.81 722.44 24.87 722.44 21.84 734.62 29.8 734.62 32.81 722.44"/>
    <polyline class="cls-15" points="210.39 589.68 202.73 589.68 200.35 601.02 208.05 601.02 210.39 589.68"/>
    <polyline class="cls-5" points="1875.93 1069.93 1862.88 1069.93 1867.69 1091.84 1880.82 1091.84 1875.93 1069.93"/>
    <polyline class="cls-6" points="1613.61 1069.93 1600.53 1069.93 1603.96 1091.84 1617.09 1091.84 1613.61 1069.93"/>
    <polyline class="cls-13" points="1580.8 1069.93 1567.75 1069.93 1571 1091.84 1584.13 1091.84 1580.8 1069.93"/>
    <polyline class="cls-4" points="1482.45 1069.93 1469.37 1069.93 1472.11 1091.84 1485.24 1091.84 1482.45 1069.93"/>
    <polyline class="cls-2" points="1449.66 1069.93 1436.59 1069.93 1439.13 1091.84 1452.26 1091.84 1449.66 1069.93"/>
    <polyline class="cls-6" points="1896.24 1015.89 1883.35 1015.89 1888.2 1037.24 1901.16 1037.24 1896.24 1015.89"/>
    <polyline class="cls-3" points="1788.25 963.24 1775.55 963.24 1779.79 984.05 1792.56 984.05 1788.25 963.24"/>
    <polyline class="cls-9" points="1628.56 963.24 1615.84 963.24 1619.26 984.05 1632.04 984.05 1628.56 963.24"/>
    <polyline class="cls-2" points="1404.99 963.24 1392.27 963.24 1394.52 984.05 1407.32 984.05 1404.99 963.24"/>
    <polyline class="cls-7" points="1840.69 911.97 1828.14 911.97 1832.6 932.24 1845.21 932.24 1840.69 911.97"/>
    <polyline class="cls-10" points="1556.94 911.97 1544.39 911.97 1547.38 932.24 1560.01 932.24 1556.94 911.97"/>
    <polyline class="cls-4" points="1525.4 911.97 1512.85 911.97 1515.7 932.24 1528.31 932.24 1525.4 911.97"/>
    <polyline class="cls-1" points="1399.3 911.97 1386.75 911.97 1388.92 932.24 1401.55 932.24 1399.3 911.97"/>
    <polyline class="cls-7" points="1424.87 862 1412.47 862 1414.77 881.75 1427.23 881.75 1424.87 862"/>
    <polyline class="cls-3" points="1393.74 862 1381.34 862 1383.48 881.75 1395.93 881.75 1393.74 862"/>
    <polyline class="cls-6" points="1300.37 862 1287.96 862 1289.62 881.75 1302.08 881.75 1300.37 862"/>
    <polyline class="cls-10" points="1480.55 813.26 1468.29 813.26 1470.84 832.53 1483.15 832.53 1480.55 813.26"/>
    <polyline class="cls-5" points="1767.75 719.37 1755.8 719.37 1759.68 737.71 1771.68 737.71 1767.75 719.37"/>
    <polyline class="cls-8" points="1557.82 719.37 1545.88 719.37 1548.74 737.71 1560.74 737.71 1557.82 719.37"/>
    <polyline class="cls-7" points="1317.9 719.37 1305.96 719.37 1307.66 737.71 1319.65 737.71 1317.9 719.37"/>
    <polyline class="cls-6" points="1901.8 917.05 1895.55 917.05 1897.93 927.11 1904.2 927.11 1901.8 917.05"/>
    <polyline class="cls-4" points="1545.53 1075.42 1539.02 1075.42 1540.56 1086.3 1547.07 1086.3 1545.53 1075.42"/>
    <polyline class="cls-3" points="1381.34 1075.42 1374.85 1075.42 1375.94 1086.3 1382.45 1086.3 1381.34 1075.42"/>
    <polyline class="cls-3" points="1754.16 968.47 1747.82 968.47 1749.86 978.79 1756.2 978.79 1754.16 968.47"/>
    <polyline class="cls-5" points="1671.68 866.95 1665.53 866.95 1667.3 876.75 1673.47 876.75 1671.68 866.95"/>
    <polyline class="cls-7" points="1447.34 818.1 1441.26 818.1 1442.44 827.66 1448.55 827.66 1447.34 818.1"/>
    <polyline class="cls-9" points="1593.3 770.45 1587.29 770.45 1588.82 779.79 1594.84 779.79 1593.3 770.45"/>
    <polyline class="cls-4" points="1607.69 678.63 1601.82 678.63 1603.36 687.5 1609.24 687.5 1607.69 678.63"/>
    <polyline class="cls-8" points="1482.74 634.35 1476.94 634.35 1478.17 643.01 1483.97 643.01 1482.74 634.35"/>
    <polyline class="cls-6" points="1389.69 591.11 1383.96 591.11 1384.94 599.57 1390.69 599.57 1389.69 591.11"/>
    <polyline class="cls-13" points="1546.07 1003.45 1518.11 1003.45 1524.53 1049.88 1552.8 1049.88 1546.07 1003.45"/>
    <polyline class="cls-12" points="1468.22 900.16 1440.98 900.16 1446.37 944.24 1473.89 944.24 1468.22 900.16"/>
    <polyline class="cls-9" points="1342.47 900.16 1315.24 900.16 1319.22 944.24 1346.75 944.24 1342.47 900.16"/>
    <polyline class="cls-5" points="1670.1 802.05 1643.55 802.05 1651.01 843.93 1677.84 843.93 1670.1 802.05"/>
    <polyline class="cls-3" points="1866.61 1008.77 1845.1 1008.77 1852.91 1044.45 1874.61 1044.45 1866.61 1008.77"/>
    <polyline class="cls-7" points="1349.78 1008.77 1328.28 1008.77 1331.52 1044.45 1353.22 1044.45 1349.78 1008.77"/>
    <polyline class="cls-9" points="1317.48 1008.77 1295.98 1008.77 1298.94 1044.45 1320.62 1044.45 1317.48 1008.77"/>
    <polyline class="cls-2" points="1623.07 905.22 1602.12 905.22 1607.64 939.09 1628.76 939.09 1623.07 905.22"/>
    <polyline class="cls-9" points="1901.65 759.48 1881.49 759.48 1889.1 790.87 1909.44 790.87 1901.65 759.48"/>
    <polyline class="cls-1" points="1821.35 806.85 1800.91 806.85 1807.96 839.04 1828.56 839.04 1821.35 806.85"/>
    <polyline class="cls-8" points="1813.93 1060.78 1789.96 1060.78 1798.12 1101.12 1822.33 1101.12 1813.93 1060.78"/>
    <polyline class="cls-1" points="1683.05 1060.78 1659.08 1060.78 1665.96 1101.12 1690.17 1101.12 1683.05 1060.78"/>
    <polyline class="cls-7" points="1355.88 1060.78 1331.91 1060.78 1335.57 1101.12 1359.77 1101.12 1355.88 1060.78"/>
    <polyline class="cls-10" points="1887.4 954.6 1864.05 954.6 1872.71 992.85 1896.29 992.85 1887.4 954.6"/>
    <polyline class="cls-1" points="1568.71 954.6 1545.36 954.6 1550.97 992.85 1574.54 992.85 1568.71 954.6"/>
    <polyline class="cls-7" points="1655.3 903.53 1632.26 903.53 1638.62 940.82 1661.88 940.82 1655.3 903.53"/>
    <polyline class="cls-5" points="1435.08 903.53 1412.04 903.53 1416.32 940.82 1439.58 940.82 1435.08 903.53"/>
    <polyline class="cls-12" points="1883.37 805.25 1860.88 805.25 1869.2 840.67 1891.88 840.67 1883.37 805.25"/>
    <polyline class="cls-5" points="1531.69 711.75 1509.76 711.75 1514.69 745.46 1536.82 745.46 1531.69 711.75"/>
    <polyline class="cls-1" points="1909.38 1068.09 1894.14 1068.09 1899.97 1093.7 1915.32 1093.7 1909.38 1068.09"/>
    <polyline class="cls-9" points="1745.51 1068.09 1730.26 1068.09 1735.06 1093.7 1750.4 1093.7 1745.51 1068.09"/>
    <polyline class="cls-7" points="1417.75 1068.09 1402.5 1068.09 1405.27 1093.7 1420.59 1093.7 1417.75 1068.09"/>
    <polyline class="cls-5" points="1799.87 1014.11 1784.83 1014.11 1789.9 1039.04 1805.04 1039.04 1799.87 1014.11"/>
    <polyline class="cls-1" points="1702.83 1014.11 1687.79 1014.11 1692.27 1039.04 1707.41 1039.04 1702.83 1014.11"/>
    <polyline class="cls-3" points="1411.74 1014.11 1396.7 1014.11 1399.38 1039.04 1414.51 1039.04 1411.74 1014.11"/>
    <polyline class="cls-13" points="1379.38 1014.11 1364.34 1014.11 1366.83 1039.04 1381.97 1039.04 1379.38 1014.11"/>
    <polyline class="cls-2" points="1612.42 860.35 1597.93 860.35 1601.71 883.41 1616.27 883.41 1612.42 860.35"/>
    <polyline class="cls-6" points="1869.44 764.17 1855.33 764.17 1860.49 786.11 1874.68 786.11 1869.44 764.17"/>
    <polyline class="cls-2" points="1573.53 811.66 1559.25 811.66 1562.75 834.15 1577.12 834.15 1573.53 811.66"/>
    <polyline class="cls-4" points="1297 811.66 1282.7 811.66 1284.6 834.15 1298.97 834.15 1297 811.66"/>
    <polyline class="cls-4" points="1414.23 764.17 1400.12 764.17 1402.65 786.11 1416.86 786.11 1414.23 764.17"/>
    <polyline class="cls-8" points="1779.75 1064.45 1760.13 1064.45 1766.56 1097.4 1786.33 1097.4 1779.75 1064.45"/>
    <polyline class="cls-7" points="1714.25 1064.45 1694.65 1064.45 1700.55 1097.4 1720.31 1097.4 1714.25 1064.45"/>
    <polyline class="cls-5" points="1648.76 1064.45 1629.15 1064.45 1634.53 1097.4 1654.3 1097.4 1648.76 1064.45"/>
    <polyline class="cls-1" points="1517.78 1064.45 1498.16 1064.45 1502.49 1097.4 1522.26 1097.4 1517.78 1064.45"/>
    <polyline class="cls-7" points="1321.29 1064.45 1301.69 1064.45 1304.42 1097.4 1324.19 1097.4 1321.29 1064.45"/>
    <polyline class="cls-8" points="1672.02 1010.55 1652.68 1010.55 1658.16 1042.65 1677.67 1042.65 1672.02 1010.55"/>
    <polyline class="cls-13" points="1445.81 1010.55 1426.47 1010.55 1430.15 1042.65 1449.66 1042.65 1445.81 1010.55"/>
    <polyline class="cls-4" points="1503.31 958.06 1484.21 958.06 1488.3 989.32 1507.57 989.32 1503.31 958.06"/>
    <polyline class="cls-7" points="1851.38 808.45 1832.99 808.45 1839.57 837.4 1858.1 837.4 1851.38 808.45"/>
    <polyline class="cls-13" points="1605.78 808.45 1587.39 808.45 1592.11 837.4 1610.63 837.4 1605.78 808.45"/>
    <polyline class="cls-2" points="1765.34 1019.46 1756.78 1019.46 1759.55 1033.63 1768.16 1033.63 1765.34 1019.46"/>
    <polyline class="cls-6" points="1635.79 1019.46 1627.22 1019.46 1629.56 1033.63 1638.15 1033.63 1635.79 1019.46"/>
    <polyline class="cls-6" points="1506.25 1019.46 1497.68 1019.46 1499.56 1033.63 1508.15 1033.63 1506.25 1019.46"/>
    <polyline class="cls-13" points="1473.86 1019.46 1465.3 1019.46 1467.05 1033.63 1475.66 1033.63 1473.86 1019.46"/>
    <polyline class="cls-6" points="1690.95 966.72 1682.49 966.72 1684.98 980.56 1693.46 980.56 1690.95 966.72"/>
    <polyline class="cls-13" points="1371.28 966.72 1362.83 966.72 1364.21 980.56 1372.71 980.56 1371.28 966.72"/>
    <polyline class="cls-5" points="1776.23 915.36 1767.88 915.36 1770.64 928.82 1779.01 928.82 1776.23 915.36"/>
    <polyline class="cls-4" points="1492.23 915.36 1483.88 915.36 1485.66 928.82 1494.05 928.82 1492.23 915.36"/>
    <polyline class="cls-3" points="1765.89 865.3 1757.66 865.3 1760.33 878.42 1768.59 878.42 1765.89 865.3"/>
    <polyline class="cls-9" points="1547.81 865.3 1539.56 865.3 1541.51 878.42 1549.78 878.42 1547.81 865.3"/>
    <polyline class="cls-2" points="1454.35 865.3 1446.09 865.3 1447.73 878.42 1456 878.42 1454.35 865.3"/>
    <polyline class="cls-3" points="1360.88 865.3 1352.62 865.3 1353.94 878.42 1362.22 878.42 1360.88 865.3"/>
    <polyline class="cls-5" points="1909.63 816.48 1901.5 816.48 1904.62 829.27 1912.79 829.27 1909.63 816.48"/>
    <polyline class="cls-12" points="1875.28 677.12 1867.43 677.12 1870.33 689 1878.22 689 1875.28 677.12"/>
    <polyline class="cls-2" points="1124 1015.89 1111.11 1015.89 1111.91 1037.24 1124.85 1037.24 1124 1015.89"/>
    <polyline class="cls-4" points="1153.81 963.24 1141.09 963.24 1142.04 984.05 1154.81 984.05 1153.81 963.24"/>
    <polyline class="cls-4" points="1058 963.24 1045.28 963.24 1045.73 984.05 1058.5 984.05 1058 963.24"/>
    <polyline class="cls-2" points="1245.92 911.97 1233.37 911.97 1234.76 932.24 1247.39 932.24 1245.92 911.97"/>
    <polyline class="cls-2" points="1115.84 813.26 1103.6 813.26 1104.31 832.53 1116.62 832.53 1115.84 813.26"/>
    <polyline class="cls-8" points="1023.62 813.26 1011.38 813.26 1011.62 832.53 1023.93 832.53 1023.62 813.26"/>
    <polyline class="cls-5" points="1142.04 719.37 1130.1 719.37 1130.92 737.71 1142.91 737.71 1142.04 719.37"/>
    <polyline class="cls-10" points="1228.73 674.12 1216.92 674.12 1218.17 692.01 1230.02 692.01 1228.73 674.12"/>
    <polyline class="cls-3" points="1057.44 1075.42 1050.95 1075.42 1051.19 1086.3 1057.7 1086.3 1057.44 1075.42"/>
    <polyline class="cls-6" points="1218.17 1021.25 1211.76 1021.25 1212.42 1031.85 1218.84 1031.85 1218.17 1021.25"/>
    <polyline class="cls-9" points="990.96 968.47 984.64 968.47 984.69 978.79 991.03 978.79 990.96 968.47"/>
    <polyline class="cls-12" points="990.57 917.05 984.34 917.05 984.39 927.11 990.64 927.11 990.57 917.05"/>
    <polyline class="cls-7" points="988.78 678.63 982.91 678.63 982.96 687.5 988.84 687.5 988.78 678.63"/>
    <polyline class="cls-3" points="1219.83 591.11 1214.1 591.11 1214.69 599.57 1220.44 599.57 1219.83 591.11"/>
    <polyline class="cls-8" points="1195.72 1062.62 1173.93 1062.62 1175.85 1099.26 1197.83 1099.26 1195.72 1062.62"/>
    <polyline class="cls-13" points="1162.99 1062.62 1141.2 1062.62 1142.82 1099.26 1164.8 1099.26 1162.99 1062.62"/>
    <polyline class="cls-12" points="1097.54 1062.62 1075.74 1062.62 1076.76 1099.26 1098.74 1099.26 1097.54 1062.62"/>
    <polyline class="cls-3" points="998.83 1008.77 977.33 1008.77 977.48 1044.45 999.16 1044.45 998.83 1008.77"/>
    <polyline class="cls-8" points="997.02 711.75 975.12 711.75 975.23 745.46 997.36 745.46 997.02 711.75"/>
    <polyline class="cls-9" points="996.09 1068.09 980.84 1068.09 980.97 1093.7 996.32 1093.7 996.09 1068.09"/>
    <polyline class="cls-4" points="1157.36 1014.11 1142.32 1014.11 1143.43 1039.04 1158.57 1039.04 1157.36 1014.11"/>
    <polyline class="cls-6" points="994.31 860.35 979.84 860.35 979.95 883.41 994.51 883.41 994.31 860.35"/>
    <polyline class="cls-8" points="1239.71 811.66 1225.4 811.66 1226.95 834.15 1241.32 834.15 1239.71 811.66"/>
    <polyline class="cls-6" points="1262.88 717.85 1248.93 717.85 1250.57 739.25 1264.59 739.25 1262.88 717.85"/>
    <polyline class="cls-7" points="991.95 585.42 978.48 585.42 978.59 605.34 992.11 605.34 991.95 585.42"/>
    <polyline class="cls-7" points="1292.97 1064.45 1273.37 1064.45 1275.88 1097.4 1295.64 1097.4 1292.97 1064.45"/>
    <polyline class="cls-9" points="1284.36 958.06 1265.24 958.06 1267.64 989.32 1286.88 989.32 1284.36 958.06"/>
    <polyline class="cls-8" points="1280.21 906.91 1261.35 906.91 1263.68 937.38 1282.66 937.38 1280.21 906.91"/>
    <polyline class="cls-9" points="1213.99 857.06 1195.37 857.06 1197.16 886.76 1215.92 886.76 1213.99 857.06"/>
    <polyline class="cls-4" points="1057.31 808.45 1038.92 808.45 1039.52 837.4 1058.04 837.4 1057.31 808.45"/>
    <polyline class="cls-1" points="1255.4 1073.6 1246.74 1073.6 1247.74 1088.16 1256.46 1088.16 1255.4 1073.6"/>
    <polyline class="cls-9" points="1283.91 1019.46 1275.34 1019.46 1276.45 1033.63 1285.04 1033.63 1283.91 1019.46"/>
    <polyline class="cls-7" points="1251.53 1019.46 1242.96 1019.46 1243.95 1033.63 1252.54 1033.63 1251.53 1019.46"/>
    <polyline class="cls-5" points="1089.6 1019.46 1081.02 1019.46 1081.45 1033.63 1090.04 1033.63 1089.6 1019.46"/>
    <polyline class="cls-3" points="1057.2 1019.46 1048.63 1019.46 1048.94 1033.63 1057.54 1033.63 1057.2 1019.46"/>
    <polyline class="cls-12" points="1183.81 966.72 1175.36 966.72 1176.09 980.56 1184.59 980.56 1183.81 966.72"/>
    <polyline class="cls-7" points="1087.92 966.72 1079.46 966.72 1079.87 980.56 1088.35 980.56 1087.92 966.72"/>
    <polyline class="cls-7" points="1147 865.3 1138.76 865.3 1139.36 878.42 1147.63 878.42 1147 865.3"/>
    <polyline class="cls-10" points="1084.69 865.3 1076.45 865.3 1076.84 878.42 1085.11 878.42 1084.69 865.3"/>
    <polyline class="cls-7" points="1206.19 816.48 1198.05 816.48 1198.85 829.27 1207.01 829.27 1206.19 816.48"/>
    <polyline class="cls-6" points="1020.12 722.44 1012.18 722.44 1012.35 734.62 1020.32 734.62 1020.12 722.44"/>
    <polyline class="cls-8" points="1806.75 768.87 1798.7 768.87 1801.45 781.37 1809.52 781.37 1806.75 768.87"/>
    <polyline class="cls-10" points="1776.36 768.87 1768.33 768.87 1770.97 781.37 1779.04 781.37 1776.36 768.87"/>
    <polyline class="cls-1" points="1745.98 768.87 1737.94 768.87 1740.49 781.37 1748.56 781.37 1745.98 768.87"/>
    <polyline class="cls-5" points="1654.82 768.87 1646.78 768.87 1649.03 781.37 1657.1 781.37 1654.82 768.87"/>
    <polyline class="cls-7" points="1533.29 768.87 1525.26 768.87 1527.1 781.37 1535.17 781.37 1533.29 768.87"/>
    <polyline class="cls-13" points="1616.32 722.44 1608.38 722.44 1610.48 734.62 1618.46 734.62 1616.32 722.44"/>
    <polyline class="cls-8" points="1737.92 589.68 1730.26 589.68 1732.66 601.02 1740.34 601.02 1737.92 589.68"/>
    <polyline class="cls-24" points="17.46 -4.38 8.87 -4.38 5.57 5.04 14.19 5.04 17.46 -4.38"/>
    <polyline class="cls-25" points="103.82 -4.38 95.22 -4.38 92.22 5.04 100.86 5.04 103.82 -4.38"/>
    <polyline class="cls-26" points="168.59 -4.38 160 -4.38 157.22 5.04 165.84 5.04 168.59 -4.38"/>
    <polyline class="cls-27" points="74.54 19.39 65.87 19.39 62.74 28.98 71.43 28.98 74.54 19.39"/>
    <polyline class="cls-26" points="308.41 43.59 299.67 43.59 297.32 53.33 306.11 53.33 308.41 43.59"/>
    <polyline class="cls-26" points="229.57 93.29 220.67 93.29 218.01 103.4 226.95 103.4 229.57 93.29"/>
    <polyline class="cls-28" points="19.77 118.82 10.78 118.82 7.33 129.12 16.36 129.12 19.77 118.82"/>
    <polyline class="cls-29" points="357.68 19.39 349 19.39 346.87 28.98 355.58 28.98 357.68 19.39"/>
    <polyline class="cls-30" points="531.92 19.39 523.25 19.39 521.72 28.98 530.43 28.98 531.92 19.39"/>
    <polyline class="cls-31" points="553.69 19.39 545.02 19.39 543.58 28.98 552.29 28.98 553.69 19.39"/>
    <polyline class="cls-16" points="618.34 25.01 609.14 28.96 609.14 28.98 617.85 28.98 618.34 25.01"/>
    <polyline class="cls-28" points="619.03 19.39 610.36 19.39 609.14 28.96 618.34 25.01 619.03 19.39"/>
    <polyline class="cls-32" points="640.82 19.39 632.14 19.39 631 28.98 639.71 28.98 640.82 19.39"/>
    <polyline class="cls-30" points="330.38 43.59 321.64 43.59 319.39 53.33 328.16 53.33 330.38 43.59"/>
    <polyline class="cls-26" points="391.28 68.2 382.46 68.2 380.4 78.15 389.26 78.15 391.28 68.2"/>
    <polyline class="cls-17" points="500.96 75.38 494.5 78.15 500.51 78.15 500.96 75.38"/>
    <polyline class="cls-24" points="502.14 68.2 493.3 68.2 491.65 78.15 494.5 78.15 500.96 75.38 502.14 68.2"/>
    <polyline class="cls-32" points="657.32 68.2 648.5 68.2 647.39 78.15 656.25 78.15 657.32 68.2"/>
    <polyline class="cls-33" points="341.44 93.29 332.52 93.29 330.27 103.4 339.21 103.4 341.44 93.29"/>
    <polyline class="cls-22" points="542.77 93.29 533.86 93.29 532.32 103.4 541.27 103.4 542.77 93.29"/>
    <polyline class="cls-16" points="565.14 93.29 556.22 93.29 554.78 103.4 563.71 103.4 565.14 93.29"/>
    <polyline class="cls-18" points="654.62 93.29 645.71 93.29 644.58 103.4 653.52 103.4 654.62 93.29"/>
    <polyline class="cls-19" points="629.28 118.82 620.28 118.82 619.07 129.12 628.1 129.12 629.28 118.82"/>
    <polyline class="cls-21" points="651.87 118.82 642.88 118.82 641.73 129.12 650.74 129.12 651.87 118.82"/>
    <polyline class="cls-20" points="717.75 118.82 710.59 118.82 710.27 122.36 717.75 118.82"/>
    <polyline class="cls-30" points="719.58 118.82 717.75 118.82 710.27 122.36 709.69 129.12 718.72 129.12 719.58 118.82"/>
    <polyline class="cls-25" points="79.49 144.82 70.42 144.82 67.16 155.31 76.26 155.31 79.49 144.82"/>
    <polyline class="cls-24" points="193.4 144.82 184.33 144.82 181.48 155.31 190.61 155.31 193.4 144.82"/>
    <polyline class="cls-24" points="216.19 144.82 207.11 144.82 204.35 155.31 213.46 155.31 216.19 144.82"/>
    <polyline class="cls-30" points="117.33 171.31 108.17 171.31 105.02 181.98 114.22 181.98 117.33 171.31"/>
    <polyline class="cls-22" points="580.7 144.82 571.64 144.82 570.21 155.31 579.32 155.31 580.7 144.82"/>
    <polyline class="cls-11" points="341.55 198.28 332.31 198.28 329.97 209.18 339.25 209.18 341.55 198.28"/>
    <polyline class="cls-15" points="504.01 198.28 494.78 198.28 493.04 209.18 502.33 209.18 504.01 198.28"/>
    <polyline class="cls-33" points="689.71 198.28 680.45 198.28 679.42 209.18 688.7 209.18 689.71 198.28"/>
    <polyline class="cls-34" points="317.01 -2.02 312.74 -2.02 311.62 2.66 315.89 2.66 317.01 -2.02"/>
    <polyline class="cls-33" points="136.97 21.8 132.67 21.8 131.22 26.54 135.55 26.54 136.97 21.8"/>
    <polyline class="cls-30" points="158.78 21.8 154.47 21.8 153.07 26.54 157.38 26.54 158.78 21.8"/>
    <polyline class="cls-30" points="129.69 46.02 125.34 46.02 123.88 50.88 128.23 50.88 129.69 46.02"/>
    <polyline class="cls-24" points="151.68 46.02 147.33 46.02 145.91 50.88 150.26 50.88 151.68 46.02"/>
    <polyline class="cls-29" points="122.27 70.71 117.89 70.71 116.39 75.64 120.79 75.64 122.27 70.71"/>
    <polyline class="cls-31" points="25.16 95.83 20.72 95.83 19.06 100.85 23.5 100.85 25.16 95.83"/>
    <polyline class="cls-30" points="293.84 95.83 289.42 95.83 288.22 100.85 292.66 100.85 293.84 95.83"/>
    <polyline class="cls-26" points="360.23 -2.02 355.95 -2.02 354.91 2.66 359.2 2.66 360.23 -2.02"/>
    <polyline class="cls-24" points="425.04 -2.02 420.77 -2.02 419.85 2.66 424.12 2.66 425.04 -2.02"/>
    <polyline class="cls-28" points="572.95 21.8 568.64 21.8 567.97 26.54 572.29 26.54 572.95 21.8"/>
    <polyline class="cls-21" points="681.95 21.8 677.64 21.8 677.16 26.54 681.46 26.54 681.95 21.8"/>
    <polyline class="cls-26" points="410.75 70.71 406.34 70.71 405.37 75.64 409.77 75.64 410.75 70.71"/>
    <polyline class="cls-11" points="445.96 121.4 441.49 121.4 440.57 126.52 445.03 126.52 445.96 121.4"/>
    <polyline class="cls-34" points="51.37 228.57 46.72 228.57 45.02 234.08 49.66 234.08 51.37 228.57"/>
    <polyline class="cls-19" points="600.88 147.46 596.36 147.46 595.71 152.67 600.22 152.67 600.88 147.46"/>
    <polyline class="cls-17" points="482.49 173.98 477.94 173.98 477.06 179.28 481.61 179.28 482.49 173.98"/>
    <polyline class="cls-16" points="450.05 228.57 445.4 228.57 444.45 234.08 449.09 234.08 450.05 228.57"/>
    <polyline class="cls-25" points="539.9 256.63 535.22 256.63 534.42 262.25 539.12 262.25 539.9 256.63"/>
    <polyline class="cls-30" points="607.58 285.25 602.86 285.25 602.19 290.97 606.91 290.97 607.58 285.25"/>
    <polyline class="cls-30" points="89.06 -9.89 70.4 -9.89 63.66 10.6 82.47 10.6 89.06 -9.89"/>
    <polyline class="cls-27" points="153.7 -9.89 135.03 -9.89 128.79 10.6 147.6 10.6 153.7 -9.89"/>
    <polyline class="cls-34" points="261.43 -9.89 242.76 -9.89 237.34 10.6 256.15 10.6 261.43 -9.89"/>
    <polyline class="cls-26" points="320.53 13.79 301.71 13.79 296.67 34.63 315.64 34.63 320.53 13.79"/>
    <polyline class="cls-23" points="577.37 42.6 557.08 51.29 555.94 59.1 575.08 59.1 577.37 42.6"/>
    <polyline class="cls-31" points="578.02 37.88 559.03 37.88 557.08 51.29 577.37 42.6 578.02 37.88"/>
    <polyline class="cls-14" points="615.83 87.39 596.5 87.39 593.65 109.38 613.15 109.38 615.83 87.39"/>
    <polyline class="cls-17" points="705.12 87.39 685.79 87.39 683.66 109.38 703.14 109.38 705.12 87.39"/>
    <polyline class="cls-11" points="450.44 138.69 430.73 138.69 426.52 161.51 446.38 161.51 450.44 138.69"/>
    <polyline class="cls-34" points="237.1 -7.53 222.73 -7.53 218.46 8.2 232.9 8.2 237.1 -7.53"/>
    <polyline class="cls-29" points="121.99 16.18 107.51 16.18 102.51 32.2 117.08 32.2 121.99 16.18"/>
    <polyline class="cls-29" points="114.59 40.33 99.98 40.33 94.9 56.63 109.59 56.63 114.59 40.33"/>
    <polyline class="cls-35" points="452.74 -7.53 438.38 -7.53 435.36 8.2 449.8 8.2 452.74 -7.53"/>
    <polyline class="cls-35" points="582.13 -7.53 567.78 -7.53 565.49 8.2 579.94 8.2 582.13 -7.53"/>
    <polyline class="cls-26" points="356.01 40.33 341.4 40.33 337.75 56.63 352.45 56.63 356.01 40.33"/>
    <polyline class="cls-19" points="707.16 40.33 692.55 40.33 690.98 56.63 705.68 56.63 707.16 40.33"/>
    <polyline class="cls-17" points="729.12 40.33 714.51 40.33 713.07 56.63 727.75 56.63 729.12 40.33"/>
    <polyline class="cls-32" points="501.56 89.91 486.69 89.91 483.84 106.81 498.81 106.81 501.56 89.91"/>
    <polyline class="cls-17" points="256.17 180.41 244.07 185.6 254.9 185.6 256.17 180.41"/>
    <polyline class="cls-24" points="259.24 167.73 243.96 167.73 239.51 185.6 244.07 185.6 256.17 180.41 259.24 167.73"/>
    <polyline class="cls-18" points="332.52 147.63 315.74 154.84 314.84 158.85 330.09 158.85 332.52 147.63"/>
    <polyline class="cls-27" points="333.91 141.31 318.77 141.31 315.74 154.84 332.52 147.63 333.91 141.31"/>
    <polyline class="cls-29" points="130.23 -8.32 114.44 -8.32 109.03 9.01 124.93 9.01 130.23 -8.32"/>
    <polyline class="cls-25" points="194.91 -8.32 179.12 -8.32 174.12 9.01 190.01 9.01 194.91 -8.32"/>
    <polyline class="cls-24" points="57.72 15.38 41.8 15.38 35.86 33.02 51.89 33.02 57.72 15.38"/>
    <polyline class="cls-24" points="27.8 39.51 11.73 39.51 5.57 57.45 21.73 57.45 27.8 39.51"/>
    <polyline class="cls-24" points="604.51 -8.32 588.72 -8.32 586.36 9.01 602.25 9.01 604.51 -8.32"/>
    <polyline class="cls-31" points="626.07 -8.32 610.28 -8.32 608.05 9.01 623.96 9.01 626.07 -8.32"/>
    <polyline class="cls-25" points="405.69 15.38 389.77 15.38 386.08 33.02 402.11 33.02 405.69 15.38"/>
    <polyline class="cls-27" points="492.68 15.38 476.76 15.38 473.63 33.02 489.67 33.02 492.68 15.38"/>
    <polyline class="cls-19" points="710.16 15.38 694.22 15.38 692.52 33.02 708.57 33.02 710.16 15.38"/>
    <polyline class="cls-36" points="329.41 64.06 313.21 64.06 308.96 82.33 325.27 82.33 329.41 64.06"/>
    <polyline class="cls-18" points="550.79 64.06 534.57 64.06 531.79 82.33 548.11 82.33 550.79 64.06"/>
    <polyline class="cls-19" points="480.11 89.07 469.04 89.07 463.31 91.53 460.46 107.67 476.95 107.67 480.11 89.07"/>
    <polyline class="cls-33" points="469.04 89.07 463.76 89.07 463.31 91.53 469.04 89.07"/>
    <polyline class="cls-11" points="636.47 89.07 620.1 89.07 617.87 107.67 634.33 107.67 636.47 89.07"/>
    <polyline class="cls-34" points="289.36 140.44 272.71 140.44 268.06 159.73 284.85 159.73 289.36 140.44"/>
    <polyline class="cls-11" points="531.77 193.75 514.8 193.75 511.75 213.77 517.75 213.77 529.68 208.11 531.77 193.75"/>
    <polyline class="cls-29" points="529.68 208.11 517.75 213.77 528.83 213.77 529.68 208.11"/>
    <polyline class="cls-20" points="664.87 5.06 663.07 5.83 664.79 5.83 664.87 5.06"/>
    <path class="cls-30" d="M663.56-2.81h0l-.68,6.26h-5.73l.69-6.26h5.72M666-5.17h-10l-1.22,11h8.36l1.82-.76L666-5.17"/>
    <polyline class="cls-26" points="299.05 -5.17 289.01 -5.17 286.29 5.83 296.37 5.83 299.05 -5.17"/>
    <polyline class="cls-24" points="10.21 18.58 0.08 18.58 -3.85 29.78 6.32 29.78 10.21 18.58"/>
    <polyline class="cls-31" points="31.98 18.58 21.85 18.58 18.01 29.78 28.18 29.78 31.98 18.58"/>
    <polyline class="cls-35" points="184.41 18.58 174.27 18.58 171.05 29.78 181.22 29.78 184.41 18.58"/>
    <polyline class="cls-35" points="15.42 67.38 5.1 67.38 1.13 78.97 11.47 78.97 15.42 67.38"/>
    <polyline class="cls-28" points="37.58 67.38 27.28 67.38 23.38 78.97 33.74 78.97 37.58 67.38"/>
    <polyline class="cls-33" points="59.74 67.38 49.44 67.38 45.64 78.97 56 78.97 59.74 67.38"/>
    <polyline class="cls-27" points="111.09 117.96 100.58 117.96 96.94 129.98 107.47 129.98 111.09 117.96"/>
    <polyline class="cls-25" points="471.72 -5.17 461.68 -5.17 459.66 5.83 469.75 5.83 471.72 -5.17"/>
    <polyline class="cls-28" points="493.3 -5.17 483.26 -5.17 481.33 5.83 491.41 5.83 493.3 -5.17"/>
    <polyline class="cls-26" points="514.88 -5.17 504.84 -5.17 503 5.83 513.08 5.83 514.88 -5.17"/>
    <polyline class="cls-31" points="536.48 -5.17 526.44 -5.17 524.68 5.83 534.75 5.83 536.48 -5.17"/>
    <polyline class="cls-29" points="644.39 -5.17 634.35 -5.17 633.04 5.83 643.12 5.83 644.39 -5.17"/>
    <polyline class="cls-23" points="687.5 -4.67 676.99 -0.15 676.37 5.83 686.45 5.83 687.5 -4.67"/>
    <polyline class="cls-27" points="336.81 18.58 326.68 18.58 324.09 29.78 334.26 29.78 336.81 18.58"/>
    <polyline class="cls-24" points="445.68 18.58 435.55 18.58 433.41 29.78 443.58 29.78 445.68 18.58"/>
    <polyline class="cls-19" points="663.41 18.58 653.29 18.58 652.04 29.78 662.21 29.78 663.41 18.58"/>
    <polyline class="cls-29" points="397.2 42.77 386.99 42.77 384.63 54.15 394.88 54.15 397.2 42.77"/>
    <polyline class="cls-27" points="463.1 42.77 452.89 42.77 450.8 54.15 461.06 54.15 463.1 42.77"/>
    <polyline class="cls-21" points="660.8 42.77 650.59 42.77 649.32 54.15 659.59 54.15 660.8 42.77"/>
    <polyline class="cls-23" points="682.78 42.77 672.55 42.77 671.39 54.15 681.63 54.15 682.78 42.77"/>
    <polyline class="cls-32" points="494.74 117.96 484.23 117.96 482.23 129.98 492.77 129.98 494.74 117.96"/>
    <polyline class="cls-33" points="239.95 143.94 229.36 143.94 226.23 156.19 236.87 156.19 239.95 143.94"/>
    <polyline class="cls-26" points="49.4 170.41 38.71 170.41 34.72 182.88 45.47 182.88 49.4 170.41"/>
    <polyline class="cls-33" points="72.39 170.41 61.69 170.41 57.81 182.88 68.55 182.88 72.39 170.41"/>
    <polyline class="cls-20" points="279.25 170.5 267.33 175.61 265.59 182.88 276.32 182.88 279.25 170.5"/>
    <polyline class="cls-30" points="279.26 170.41 268.57 170.41 267.33 175.61 279.25 170.5 279.26 170.41"/>
    <polyline class="cls-24" points="64.09 197.38 53.3 197.38 49.35 210.08 60.17 210.08 64.09 197.38"/>
    <polyline class="cls-32" points="513.25 143.94 502.67 143.94 500.72 156.19 511.36 156.19 513.25 143.94"/>
    <polyline class="cls-28" points="718.24 143.94 707.63 143.94 706.57 156.19 717.21 156.19 718.24 143.94"/>
    <polyline class="cls-28" points="624.07 170.41 613.37 170.41 611.89 182.88 622.63 182.88 624.07 170.41"/>
    <polyline class="cls-33" points="63.6 -6.74 50.68 -6.74 45.92 7.42 58.9 7.42 63.6 -6.74"/>
    <polyline class="cls-35" points="214.6 -6.74 201.68 -6.74 197.71 7.42 210.71 7.42 214.6 -6.74"/>
    <polyline class="cls-26" points="223.37 41.13 210.24 41.13 206.25 55.8 219.45 55.8 223.37 41.13"/>
    <polyline class="cls-35" points="267.28 41.13 254.15 41.13 250.38 55.8 263.61 55.8 267.28 41.13"/>
    <polyline class="cls-30" points="106.07 65.71 92.81 65.71 88.14 80.66 101.48 80.66 106.07 65.71"/>
    <polyline class="cls-24" points="150.37 65.71 137.09 65.71 132.69 80.66 146.02 80.66 150.37 65.71"/>
    <polyline class="cls-24" points="187.78 90.76 174.4 90.76 170.13 105.95 183.6 105.95 187.78 90.76"/>
    <polyline class="cls-24" points="135.66 116.23 122.16 116.23 117.57 131.72 131.15 131.72 135.66 116.23"/>
    <polyline class="cls-25" points="559.72 -6.74 546.82 -6.74 544.66 7.42 557.64 7.42 559.72 -6.74"/>
    <polyline class="cls-25" points="425.68 16.99 412.64 16.99 409.75 31.39 422.87 31.39 425.68 16.99"/>
    <polyline class="cls-33" points="469.19 16.99 456.15 16.99 453.51 31.39 466.61 31.39 469.19 16.99"/>
    <polyline class="cls-29" points="512.71 16.99 499.69 16.99 497.27 31.39 510.36 31.39 512.71 16.99"/>
    <polyline class="cls-27" points="599.75 16.99 586.72 16.99 584.77 31.39 597.86 31.39 599.75 16.99"/>
    <polyline class="cls-19" points="730.32 16.99 717.28 16.99 716.02 31.39 729.12 31.39 730.32 16.99"/>
    <polyline class="cls-25" points="486.82 41.13 473.67 41.13 471.1 55.8 484.31 55.8 486.82 41.13"/>
    <polyline class="cls-23" points="640.5 41.13 627.35 41.13 625.59 55.8 638.81 55.8 640.5 41.13"/>
    <polyline class="cls-16" points="593.37 65.71 580.1 65.71 578.06 80.66 591.4 80.66 593.37 65.71"/>
    <polyline class="cls-33" points="310.19 142.19 296.57 142.19 292.9 157.97 306.61 157.97 310.19 142.19"/>
    <polyline class="cls-23" points="492.29 142.19 478.65 142.19 476.01 157.97 489.72 157.97 492.29 142.19"/>
    <polyline class="cls-25" points="37.08 -2.81 31.36 -2.81 29.23 3.45 34.96 3.45 37.08 -2.81"/>
    <polyline class="cls-35" points="64.71 45.22 58.9 45.22 56.78 51.7 62.61 51.7 64.71 45.22"/>
    <polyline class="cls-27" points="174.65 45.22 168.82 45.22 166.97 51.7 172.79 51.7 174.65 45.22"/>
    <polyline class="cls-27" points="212 69.87 206.13 69.87 204.34 76.46 210.22 76.46 212 69.87"/>
    <polyline class="cls-31" points="234.18 69.87 228.31 69.87 226.57 76.46 232.45 76.46 234.18 69.87"/>
    <polyline class="cls-36" points="3.81 94.97 -2.11 94.97 -4.42 101.7 1.52 101.7 3.81 94.97"/>
    <polyline class="cls-30" points="93.33 94.97 87.41 94.97 85.33 101.7 91.27 101.7 93.33 94.97"/>
    <polyline class="cls-29" points="115.71 94.97 109.8 94.97 107.77 101.7 113.71 101.7 115.71 94.97"/>
    <polyline class="cls-28" points="138.1 94.97 132.18 94.97 130.21 101.7 136.15 101.7 138.1 94.97"/>
    <polyline class="cls-33" points="339.51 -2.81 333.8 -2.81 332.35 3.45 338.08 3.45 339.51 -2.81"/>
    <polyline class="cls-27" points="404.32 -2.81 398.61 -2.81 397.32 3.45 403.05 3.45 404.32 -2.81"/>
    <polyline class="cls-24" points="663.56 -2.81 657.84 -2.81 657.15 3.45 662.86 3.45 663.56 -2.81"/>
    <polyline class="cls-20" points="706.75 -2.81 701.04 -2.81 700.44 3.45 706.17 3.45 706.75 -2.81"/>
    <polyline class="cls-35" points="416.5 45.22 410.67 45.22 409.38 51.7 415.22 51.7 416.5 45.22"/>
    <polyline class="cls-30" points="504.43 45.22 498.62 45.22 497.53 51.7 503.38 51.7 504.43 45.22"/>
    <polyline class="cls-20" points="592.37 45.22 586.57 45.22 585.69 51.7 591.51 51.7 592.37 45.22"/>
    <polyline class="cls-23" points="614.37 45.22 608.54 45.22 607.73 51.7 613.56 51.7 614.37 45.22"/>
    <polyline class="cls-30" points="456 69.87 450.14 69.87 448.94 76.46 454.82 76.46 456 69.87"/>
    <polyline class="cls-23" points="677.85 69.87 671.97 69.87 671.29 76.46 677.17 76.46 677.85 69.87"/>
    <polyline class="cls-29" points="384.33 94.97 378.42 94.97 377.03 101.7 382.95 101.7 384.33 94.97"/>
    <polyline class="cls-16" points="585.78 94.97 579.86 94.97 578.96 101.7 584.9 101.7 585.78 94.97"/>
    <polyline class="cls-26" points="379.11 120.54 373.13 120.54 371.71 127.38 377.7 127.38 379.11 120.54"/>
    <polyline class="cls-17" points="537.23 120.54 531.25 120.54 530.22 127.38 536.2 127.38 537.23 120.54"/>
    <polyline class="cls-32" points="604.98 120.54 599 120.54 598.14 127.38 604.14 127.38 604.98 120.54"/>
    <polyline class="cls-21" points="672.75 120.54 666.78 120.54 666.07 127.38 672.06 127.38 672.75 120.54"/>
    <polyline class="cls-24" points="54.63 146.58 48.6 146.58 46.39 153.55 52.44 153.55 54.63 146.58"/>
    <polyline class="cls-29" points="259.8 146.58 253.77 146.58 252.05 153.55 258.1 153.55 259.8 146.58"/>
    <polyline class="cls-19" points="223.5 200.12 217.35 200.12 215.5 207.35 221.66 207.35 223.5 200.12"/>
    <polyline class="cls-20" points="193.1 227.63 186.9 227.63 184.97 235 191.19 235 193.1 227.63"/>
    <polyline class="cls-14" points="239.98 227.63 233.78 227.63 231.97 235 238.19 235 239.98 227.63"/>
    <polyline class="cls-20" points="770.2 -4.38 761.6 -4.38 760.91 5.04 769.54 5.04 770.2 -4.38"/>
    <polyline class="cls-17" points="942.91 -4.38 934.31 -4.38 934.24 5.04 942.87 5.04 942.91 -4.38"/>
    <polyline class="cls-32" points="854.77 43.59 846.03 43.59 845.63 53.33 854.42 53.33 854.77 43.59"/>
    <polyline class="cls-16" points="824.35 68.2 822.86 68.2 822.82 68.93 824.35 68.2"/>
    <polyline class="cls-28" points="831.7 68.2 824.35 68.2 822.82 68.93 822.39 78.15 831.25 78.15 831.7 68.2"/>
    <polyline class="cls-28" points="898.2 68.2 889.37 68.2 889.13 78.15 897.99 78.15 898.2 68.2"/>
    <polyline class="cls-32" points="763.44 93.29 754.54 93.29 753.94 101.64 763.17 97.26 763.44 93.29"/>
    <polyline class="cls-35" points="763.17 97.26 753.94 101.64 753.81 103.4 762.74 103.4 763.17 97.26"/>
    <polyline class="cls-35" points="851.01 144.82 841.94 144.82 841.51 155.31 850.62 155.31 851.01 144.82"/>
    <polyline class="cls-25" points="919.36 144.82 910.28 144.82 910.11 155.31 919.21 155.31 919.36 144.82"/>
    <polyline class="cls-29" points="825.82 198.28 816.58 198.28 816.05 209.18 825.33 209.18 825.82 198.28"/>
    <polyline class="cls-36" points="754.29 225.78 744.97 225.78 744.16 236.87 753.53 236.87 754.29 225.78"/>
    <polyline class="cls-21" points="897 21.8 892.69 21.8 892.58 26.54 896.88 26.54 897 21.8"/>
    <polyline class="cls-20" points="786.5 46.02 782.15 46.02 781.85 50.88 786.2 50.88 786.5 46.02"/>
    <polyline class="cls-24" points="940.31 70.71 935.9 70.71 935.87 75.64 940.27 75.64 940.31 70.71"/>
    <polyline class="cls-34" points="940.16 95.83 935.72 95.83 935.68 100.85 940.12 100.85 940.16 95.83"/>
    <polyline class="cls-19" points="939.35 230.12 934.71 231.94 934.69 234.08 939.33 234.08 939.35 230.12"/>
    <polyline class="cls-33" points="939.35 228.57 934.72 228.57 934.71 231.94 939.35 230.12 939.35 228.57"/>
    <polyline class="cls-26" points="747.78 285.25 743.06 285.25 742.64 290.97 747.38 290.97 747.78 285.25"/>
    <polyline class="cls-15" points="815.19 16.18 800.71 16.18 799.8 32.2 814.35 32.2 815.19 16.18"/>
    <polyline class="cls-23" points="836.94 16.18 822.46 16.18 821.67 32.2 836.23 32.2 836.94 16.18"/>
    <polyline class="cls-14" points="880.46 16.18 865.98 16.18 865.43 32.2 880.01 32.2 880.46 16.18"/>
    <polyline class="cls-26" points="945.61 40.33 931.01 40.33 930.85 56.63 945.55 56.63 945.61 40.33"/>
    <polyline class="cls-32" points="817.18 -8.32 801.39 -8.32 800.39 9.01 816.3 9.01 817.18 -8.32"/>
    <polyline class="cls-25" points="945.76 193.75 928.79 193.75 928.6 213.77 945.68 213.77 945.76 193.75"/>
    <polyline class="cls-11" points="792.55 -5.17 782.51 -5.17 781.79 5.83 791.89 5.83 792.55 -5.17"/>
    <polyline class="cls-15" points="857.3 -5.17 847.26 -5.17 846.81 5.83 856.89 5.83 857.3 -5.17"/>
    <polyline class="cls-24" points="943.53 18.58 933.39 18.58 933.3 29.78 943.47 29.78 943.53 18.58"/>
    <polyline class="cls-16" points="833.57 42.77 823.36 42.77 822.8 54.15 833.06 54.15 833.57 42.77"/>
    <polyline class="cls-30" points="943.04 117.96 932.53 117.96 932.44 129.98 942.99 129.98 943.04 117.96"/>
    <polyline class="cls-25" points="760.7 143.94 750.12 143.94 749.22 156.19 759.86 156.19 760.7 143.94"/>
    <polyline class="cls-30" points="733.82 197.38 723.03 197.38 722 210.08 732.85 210.08 733.82 197.38"/>
    <polyline class="cls-19" points="942.24 281.39 931.13 281.39 931.01 294.86 942.18 294.86 942.24 281.39"/>
    <polyline class="cls-32" points="750.94 -6.74 738.04 -6.74 736.87 7.42 749.87 7.42 750.94 -6.74"/>
    <polyline class="cls-16" points="880.38 -6.74 867.46 -6.74 866.99 7.42 879.97 7.42 880.38 -6.74"/>
    <polyline class="cls-32" points="901.94 -6.74 889.04 -6.74 888.68 7.42 901.66 7.42 901.94 -6.74"/>
    <polyline class="cls-19" points="749.14 16.99 736.11 16.99 734.95 31.39 748.04 31.39 749.14 16.99"/>
    <polyline class="cls-17" points="745.42 65.71 732.15 65.71 730.94 80.66 744.27 80.66 745.42 65.71"/>
    <polyline class="cls-15" points="743.5 90.76 730.13 90.76 728.89 105.95 742.34 105.95 743.5 90.76"/>
    <polyline class="cls-24" points="786.68 116.23 773.16 116.23 772.17 131.72 785.75 131.72 786.68 116.23"/>
    <polyline class="cls-28" points="898.91 142.19 885.29 142.19 884.9 157.97 898.59 157.97 898.91 142.19"/>
    <polyline class="cls-18" points="766.98 21 761.23 21 760.76 27.37 766.55 27.37 766.98 21"/>
    <polyline class="cls-17" points="743.32 45.22 737.49 45.22 736.97 51.7 742.81 51.7 743.32 45.22"/>
    <polyline class="cls-19" points="765.29 45.22 759.48 45.22 759.02 51.7 764.84 51.7 765.29 45.22"/>
    <polyline class="cls-11" points="872.79 45.22 869.4 45.22 869.37 46.85 872.79 45.22"/>
    <polyline class="cls-29" points="875.23 45.22 872.79 45.22 869.37 46.85 869.2 51.7 875.04 51.7 875.23 45.22"/>
    <polyline class="cls-26" points="897.22 45.22 891.4 45.22 891.25 51.7 897.07 51.7 897.22 45.22"/>
    <polyline class="cls-14" points="807.94 69.87 802.08 69.87 801.71 76.46 806.95 76.46 807.61 76.16 807.94 69.87"/>
    <polyline class="cls-34" points="807.61 76.16 806.95 76.46 807.59 76.46 807.61 76.16"/>
    <polyline class="cls-33" points="874.5 69.87 868.62 69.87 868.41 76.46 874.29 76.46 874.5 69.87"/>
    <polyline class="cls-33" points="827.82 120.54 821.84 120.54 821.51 127.38 827.5 127.38 827.82 120.54"/>
    <polyline class="cls-36" points="873 120.54 867.02 120.54 866.8 127.38 872.79 127.38 873 120.54"/>
    <polyline class="cls-33" points="781.04 146.58 774.99 146.58 774.56 153.55 780.61 153.55 781.04 146.58"/>
    <polyline class="cls-30" points="917.08 200.12 910.93 200.12 910.82 207.35 916.98 207.35 917.08 200.12"/>
    <polyline class="cls-15" points="322.35 173.09 316.26 173.09 314.67 180.18 320.78 180.18 322.35 173.09"/>
    <polyline class="cls-22" points="345.35 173.09 339.26 173.09 337.75 180.18 343.85 180.18 345.35 173.09"/>
    <polyline class="cls-18" points="368.36 173.09 362.27 173.09 360.81 180.18 366.91 180.18 368.36 173.09"/>
    <polyline class="cls-11" points="437.38 173.09 431.3 173.09 430 180.18 436.11 180.18 437.38 173.09"/>
    <polyline class="cls-19" points="529.41 173.09 523.33 173.09 522.26 180.18 528.37 180.18 529.41 173.09"/>
    <polyline class="cls-23" points="455.74 200.12 449.6 200.12 448.32 207.35 454.49 207.35 455.74 200.12"/>
    <polyline class="cls-15" points="321.73 284.28 315.42 284.28 313.77 291.94 320.1 291.94 321.73 284.28"/>
    <polyline class="cls-30" points="980.06 -4.38 977.26 -4.38 971.48 -1.63 971.5 5.04 980.13 5.04 980.06 -4.38"/>
    <polyline class="cls-24" points="1152.77 -4.38 1144.17 -4.38 1144.82 5.04 1153.46 5.04 1152.77 -4.38"/>
    <polyline class="cls-25" points="1239.12 -4.38 1230.52 -4.38 1231.48 5.04 1240.12 5.04 1239.12 -4.38"/>
    <polyline class="cls-26" points="1303.9 -4.38 1295.3 -4.38 1296.48 5.04 1305.12 5.04 1303.9 -4.38"/>
    <polyline class="cls-27" points="1219.83 19.39 1211.15 19.39 1212.05 28.98 1220.76 28.98 1219.83 19.39"/>
    <polyline class="cls-35" points="1068.36 43.59 1059.61 43.59 1059.97 53.33 1068.75 53.33 1068.36 43.59"/>
    <polyline class="cls-21" points="1463.87 43.59 1455.12 43.59 1456.88 53.33 1465.67 53.33 1463.87 43.59"/>
    <polyline class="cls-28" points="1047.19 68.2 1038.35 68.2 1038.65 78.15 1047.51 78.15 1047.19 68.2"/>
    <polyline class="cls-28" points="1113.69 68.2 1104.87 68.2 1105.39 78.15 1114.25 78.15 1113.69 68.2"/>
    <polyline class="cls-35" points="980.9 93.29 971.98 93.29 972.04 103.4 980.97 103.4 980.9 93.29"/>
    <polyline class="cls-27" points="1003.26 93.29 994.35 93.29 994.48 103.4 1003.43 103.4 1003.26 93.29"/>
    <polyline class="cls-21" points="1405.93 93.29 1397.02 93.29 1398.61 103.4 1407.54 103.4 1405.93 93.29"/>
    <polyline class="cls-16" points="1207.45 125.45 1198.72 128.86 1198.73 129.12 1207.76 129.12 1207.45 125.45"/>
    <polyline class="cls-28" points="1206.87 118.82 1197.87 118.82 1198.72 128.86 1207.45 125.45 1206.87 118.82"/>
    <polyline class="cls-11" points="1502.96 19.39 1494.29 19.39 1496.18 28.98 1504.89 28.98 1502.96 19.39"/>
    <polyline class="cls-20" points="1677.21 19.39 1668.54 19.39 1671.03 28.98 1679.74 28.98 1677.21 19.39"/>
    <polyline class="cls-23" points="1699 19.39 1690.31 19.39 1692.89 28.98 1701.6 28.98 1699 19.39"/>
    <polyline class="cls-16" points="1764.34 19.39 1755.66 19.39 1758.47 28.98 1767.16 28.98 1764.34 19.39"/>
    <polyline class="cls-32" points="1786.1 19.39 1777.43 19.39 1780.31 28.98 1789.02 28.98 1786.1 19.39"/>
    <polyline class="cls-20" points="1485.84 43.59 1477.1 43.59 1478.95 53.33 1487.72 53.33 1485.84 43.59"/>
    <polyline class="cls-21" points="1557.1 68.2 1548.26 68.2 1550.38 78.15 1559.24 78.15 1557.1 68.2"/>
    <polyline class="cls-17" points="1667.94 68.2 1659.12 68.2 1661.63 78.15 1670.49 78.15 1667.94 68.2"/>
    <polyline class="cls-32" points="1823.14 68.2 1814.31 68.2 1817.38 78.15 1826.24 78.15 1823.14 68.2"/>
    <polyline class="cls-19" points="1517.78 93.29 1508.87 93.29 1510.87 103.4 1519.81 103.4 1517.78 93.29"/>
    <polyline class="cls-22" points="1719.12 93.29 1710.2 93.29 1712.93 103.4 1721.87 103.4 1719.12 93.29"/>
    <polyline class="cls-16" points="1741.48 93.29 1732.58 93.29 1735.38 103.4 1744.33 103.4 1741.48 93.29"/>
    <polyline class="cls-18" points="1830.97 93.29 1822.07 93.29 1825.18 103.4 1834.13 103.4 1830.97 93.29"/>
    <polyline class="cls-19" points="1816.37 118.82 1807.38 118.82 1810.47 129.12 1819.5 129.12 1816.37 118.82"/>
    <polyline class="cls-21" points="1838.95 118.82 1829.95 118.82 1833.14 129.12 1842.17 129.12 1838.95 118.82"/>
    <polyline class="cls-20" points="1906.66 118.82 1897.67 118.82 1901.1 129.12 1910.13 129.12 1906.66 118.82"/>
    <polyline class="cls-35" points="1072.46 144.82 1063.39 144.82 1063.79 155.31 1072.89 155.31 1072.46 144.82"/>
    <polyline class="cls-15" points="1141.23 151.3 1132.35 154.76 1132.39 155.31 1141.49 155.31 1141.23 151.3"/>
    <polyline class="cls-25" points="1140.82 144.82 1131.73 144.82 1132.35 154.76 1141.23 151.3 1140.82 144.82"/>
    <polyline class="cls-15" points="1277.5 144.82 1268.44 144.82 1269.58 155.31 1278.68 155.31 1277.5 144.82"/>
    <polyline class="cls-17" points="1391.41 144.82 1382.35 144.82 1383.9 155.31 1393.03 155.31 1391.41 144.82"/>
    <polyline class="cls-17" points="1414.19 144.82 1405.13 144.82 1406.78 155.31 1415.88 155.31 1414.19 144.82"/>
    <polyline class="cls-20" points="1326.47 171.31 1317.31 171.31 1318.66 181.98 1327.84 181.98 1326.47 171.31"/>
    <polyline class="cls-11" points="1051.42 198.28 1042.17 198.28 1042.49 209.18 1051.78 209.18 1051.42 198.28"/>
    <polyline class="cls-22" points="1213.89 198.28 1204.65 198.28 1205.57 209.18 1214.85 209.18 1213.89 198.28"/>
    <polyline class="cls-22" points="982.02 225.78 972.69 225.78 972.75 236.87 982.13 236.87 982.02 225.78"/>
    <polyline class="cls-22" points="1778.72 144.82 1769.64 144.82 1772.63 155.31 1781.74 155.31 1778.72 144.82"/>
    <polyline class="cls-11" points="1562.03 198.28 1552.79 198.28 1555.02 209.18 1564.31 209.18 1562.03 198.28"/>
    <polyline class="cls-15" points="1724.51 198.28 1715.26 198.28 1718.1 209.18 1727.38 209.18 1724.51 198.28"/>
    <polyline class="cls-19" points="1910.18 198.28 1900.93 198.28 1904.47 209.18 1913.76 209.18 1910.18 198.28"/>
    <polyline class="cls-34" points="1453.31 -2.02 1449.02 -2.02 1449.88 2.66 1454.15 2.66 1453.31 -2.02"/>
    <polyline class="cls-26" points="1108.88 21.8 1104.57 21.8 1104.83 26.54 1109.16 26.54 1108.88 21.8"/>
    <polyline class="cls-33" points="1283.27 21.8 1278.96 21.8 1279.53 26.54 1283.85 26.54 1283.27 21.8"/>
    <polyline class="cls-30" points="1305.08 21.8 1300.77 21.8 1301.37 26.54 1305.68 26.54 1305.08 21.8"/>
    <polyline class="cls-30" points="1000.27 46.02 995.92 46.02 996 50.88 1000.34 50.88 1000.27 46.02"/>
    <polyline class="cls-30" points="1286.18 46.02 1281.83 46.02 1282.41 50.88 1286.76 50.88 1286.18 46.02"/>
    <polyline class="cls-24" points="1308.17 46.02 1303.82 46.02 1304.44 50.88 1308.79 50.88 1308.17 46.02"/>
    <polyline class="cls-24" points="1155.99 70.71 1151.61 70.71 1151.94 75.64 1156.34 75.64 1155.99 70.71"/>
    <polyline class="cls-29" points="1289.14 70.71 1284.75 70.71 1285.33 75.64 1289.72 75.64 1289.14 70.71"/>
    <polyline class="cls-34" points="1157.79 95.83 1153.37 95.83 1153.72 100.85 1158.16 100.85 1157.79 95.83"/>
    <polyline class="cls-31" points="1202.58 95.83 1198.15 95.83 1198.59 100.85 1203.03 100.85 1202.58 95.83"/>
    <polyline class="cls-20" points="1471.27 95.83 1466.83 95.83 1467.75 100.85 1472.19 100.85 1471.27 95.83"/>
    <polyline class="cls-26" points="1496.52 -2.02 1492.25 -2.02 1493.17 2.66 1497.44 2.66 1496.52 -2.02"/>
    <polyline class="cls-17" points="1561.34 -2.02 1557.06 -2.02 1558.11 2.66 1562.38 2.66 1561.34 -2.02"/>
    <polyline class="cls-16" points="1719.27 21.8 1714.94 21.8 1716.27 26.54 1720.6 26.54 1719.27 21.8"/>
    <polyline class="cls-21" points="1828.25 21.8 1823.94 21.8 1825.46 26.54 1829.77 26.54 1828.25 21.8"/>
    <polyline class="cls-21" points="1577.59 70.71 1573.21 70.71 1574.32 75.64 1578.7 75.64 1577.59 70.71"/>
    <polyline class="cls-11" points="1634.13 121.4 1629.67 121.4 1630.87 126.52 1635.35 126.52 1634.13 121.4"/>
    <polyline class="cls-31" points="1024.68 147.46 1020.16 147.46 1020.29 152.67 1024.81 152.67 1024.68 147.46"/>
    <polyline class="cls-19" points="1167.32 228.57 1162.68 228.57 1163.07 234.08 1167.71 234.08 1167.32 228.57"/>
    <polyline class="cls-14" points="1284.57 228.57 1279.94 228.57 1280.54 234.08 1285.18 234.08 1284.57 228.57"/>
    <polyline class="cls-21" points="980.15 285.25 975.41 285.25 975.45 290.97 980.19 290.97 980.15 285.25"/>
    <polyline class="cls-15" points="1197.61 314.42 1192.84 314.42 1193.3 320.26 1198.08 320.26 1197.61 314.42"/>
    <polyline class="cls-19" points="1799.98 147.46 1795.49 147.46 1797 152.67 1801.54 152.67 1799.98 147.46"/>
    <polyline class="cls-17" points="1692.76 173.98 1688.21 173.98 1689.56 179.28 1694.11 179.28 1692.76 173.98"/>
    <polyline class="cls-16" points="1683.24 228.57 1678.62 228.57 1679.97 234.08 1684.61 234.08 1683.24 228.57"/>
    <polyline class="cls-15" points="1784.9 256.63 1780.22 256.63 1781.79 262.25 1786.48 262.25 1784.9 256.63"/>
    <polyline class="cls-20" points="1864.61 285.25 1859.89 285.25 1861.61 290.97 1866.35 290.97 1864.61 285.25"/>
    <polyline class="cls-30" points="1222.06 -9.89 1203.38 -9.89 1205.25 10.6 1224.06 10.6 1222.06 -9.89"/>
    <polyline class="cls-27" points="1286.68 -9.89 1268.03 -9.89 1270.39 10.6 1289.19 10.6 1286.68 -9.89"/>
    <polyline class="cls-34" points="1394.41 -9.89 1375.76 -9.89 1378.94 10.6 1397.75 10.6 1394.41 -9.89"/>
    <polyline class="cls-21" points="1465.5 24.69 1447.84 31.58 1448.38 34.63 1467.36 34.63 1465.5 24.69"/>
    <polyline class="cls-26" points="1463.46 13.79 1444.63 13.79 1447.84 31.58 1465.5 24.69 1463.46 13.79"/>
    <polyline class="cls-23" points="1731.09 37.88 1712.09 37.88 1717.94 59.1 1737.08 59.1 1731.09 37.88"/>
    <polyline class="cls-14" points="1789.7 87.39 1770.37 87.39 1776.77 109.38 1796.26 109.38 1789.7 87.39"/>
    <polyline class="cls-17" points="1878.99 87.39 1859.66 87.39 1866.76 109.38 1886.26 109.38 1878.99 87.39"/>
    <polyline class="cls-11" points="1645.87 138.69 1626.17 138.69 1631.54 161.51 1651.4 161.51 1645.87 138.69"/>
    <polyline class="cls-34" points="1371.07 -7.53 1356.72 -7.53 1359.05 8.2 1373.49 8.2 1371.07 -7.53"/>
    <polyline class="cls-25" points="1026.64 16.18 1012.16 16.18 1012.5 32.2 1027.06 32.2 1026.64 16.18"/>
    <polyline class="cls-31" points="1048.41 16.18 1033.91 16.18 1034.38 32.2 1048.93 32.2 1048.41 16.18"/>
    <polyline class="cls-34" points="1091.9 16.18 1077.43 16.18 1078.14 32.2 1092.71 32.2 1091.9 16.18"/>
    <polyline class="cls-29" points="1265.95 16.18 1251.47 16.18 1253.19 32.2 1267.76 32.2 1265.95 16.18"/>
    <polyline class="cls-26" points="1158.95 40.33 1144.34 40.33 1145.44 56.63 1160.15 56.63 1158.95 40.33"/>
    <polyline class="cls-29" points="1268.68 40.33 1254.07 40.33 1255.83 56.63 1270.54 56.63 1268.68 40.33"/>
    <polyline class="cls-32" points="1586.72 -7.53 1572.37 -7.53 1575.96 8.2 1590.39 8.2 1586.72 -7.53"/>
    <polyline class="cls-32" points="1716.1 -7.53 1701.75 -7.53 1706.1 8.2 1720.54 8.2 1716.1 -7.53"/>
    <polyline class="cls-21" points="1510.1 40.33 1495.49 40.33 1498.69 56.63 1513.38 56.63 1510.1 40.33"/>
    <polyline class="cls-19" points="1861.26 40.33 1846.64 40.33 1851.93 56.63 1866.63 56.63 1861.26 40.33"/>
    <polyline class="cls-17" points="1883.21 40.33 1868.6 40.33 1874.01 56.63 1888.7 56.63 1883.21 40.33"/>
    <polyline class="cls-32" points="1676.5 89.91 1661.63 89.91 1665.88 106.81 1680.85 106.81 1676.5 89.91"/>
    <polyline class="cls-17" points="1466.87 167.73 1451.58 167.73 1454.67 185.6 1470.05 185.6 1466.87 167.73"/>
    <polyline class="cls-18" points="1530.44 141.31 1515.31 141.31 1518.74 158.85 1533.98 158.85 1530.44 141.31"/>
    <polyline class="cls-35" points="1026.74 -8.32 1010.95 -8.32 1011.3 9.01 1027.19 9.01 1026.74 -8.32"/>
    <polyline class="cls-29" points="1263.89 -8.32 1248.1 -8.32 1249.95 9.01 1265.85 9.01 1263.89 -8.32"/>
    <polyline class="cls-25" points="1328.55 -8.32 1312.76 -8.32 1315.04 9.01 1330.95 9.01 1328.55 -8.32"/>
    <polyline class="cls-24" points="1201.34 15.38 1185.4 15.38 1186.88 33.02 1202.91 33.02 1201.34 15.38"/>
    <polyline class="cls-24" points="1181.56 39.51 1165.49 39.51 1166.85 57.45 1183.04 57.45 1181.56 39.51"/>
    <polyline class="cls-33" points="1051.59 89.07 1035.24 89.07 1035.77 107.67 1052.23 107.67 1051.59 89.07"/>
    <polyline class="cls-17" points="1738.17 -8.32 1722.38 -8.32 1727.28 9.01 1743.19 9.01 1738.17 -8.32"/>
    <polyline class="cls-23" points="1759.73 -8.32 1743.94 -8.32 1748.99 9.01 1764.88 9.01 1759.73 -8.32"/>
    <polyline class="cls-15" points="1549.31 15.38 1533.37 15.38 1537.1 33.02 1553.15 33.02 1549.31 15.38"/>
    <polyline class="cls-18" points="1636.28 15.38 1620.36 15.38 1624.67 33.02 1640.7 33.02 1636.28 15.38"/>
    <polyline class="cls-19" points="1853.76 15.38 1837.84 15.38 1843.55 33.02 1859.59 33.02 1853.76 15.38"/>
    <polyline class="cls-22" points="1493.49 64.06 1477.26 64.06 1480.71 82.33 1497.03 82.33 1493.49 64.06"/>
    <polyline class="cls-18" points="1714.86 64.06 1698.64 64.06 1703.53 82.33 1719.87 82.33 1714.86 64.06"/>
    <polyline class="cls-19" points="1654.7 89.07 1638.32 89.07 1642.86 107.67 1659.34 107.67 1654.7 89.07"/>
    <polyline class="cls-11" points="1811.05 89.07 1794.68 89.07 1800.26 107.67 1816.73 107.67 1811.05 89.07"/>
    <polyline class="cls-14" points="1485.54 140.44 1468.87 140.44 1472.34 159.73 1489.12 159.73 1485.54 140.44"/>
    <polyline class="cls-15" points="1171.01 193.75 1154.04 193.75 1155.41 213.77 1172.49 213.77 1171.01 193.75"/>
    <polyline class="cls-11" points="1750.34 193.75 1733.37 193.75 1738.73 213.77 1755.83 213.77 1750.34 193.75"/>
    <polyline class="cls-29" points="1002.35 -5.17 992.31 -5.17 992.46 5.83 1002.53 5.83 1002.35 -5.17"/>
    <polyline class="cls-25" points="1067.1 -5.17 1057.06 -5.17 1057.48 5.83 1067.55 5.83 1067.1 -5.17"/>
    <polyline class="cls-26" points="1434.01 -5.17 1423.99 -5.17 1425.88 5.83 1435.96 5.83 1434.01 -5.17"/>
    <polyline class="cls-24" points="1155.16 18.58 1145.03 18.58 1145.82 29.78 1155.97 29.78 1155.16 18.58"/>
    <polyline class="cls-31" points="1176.93 18.58 1166.82 18.58 1167.68 29.78 1177.85 29.78 1176.93 18.58"/>
    <polyline class="cls-35" points="1329.36 18.58 1319.22 18.58 1320.72 29.78 1330.87 29.78 1329.36 18.58"/>
    <polyline class="cls-28" points="1047.1 42.77 1036.87 42.77 1037.21 54.15 1047.47 54.15 1047.1 42.77"/>
    <polyline class="cls-35" points="1180.88 67.38 1170.56 67.38 1171.46 78.97 1181.82 78.97 1180.88 67.38"/>
    <polyline class="cls-28" points="1203.04 67.38 1192.74 67.38 1193.71 78.97 1204.07 78.97 1203.04 67.38"/>
    <polyline class="cls-33" points="1225.2 67.38 1214.9 67.38 1215.99 78.97 1226.33 78.97 1225.2 67.38"/>
    <polyline class="cls-30" points="1162.39 117.96 1151.9 117.96 1152.73 129.98 1163.28 129.98 1162.39 117.96"/>
    <polyline class="cls-18" points="1297.81 117.96 1287.3 117.96 1288.72 129.98 1299.25 129.98 1297.81 117.96"/>
    <polyline class="cls-15" points="1606.68 -5.17 1596.64 -5.17 1599.25 5.83 1609.35 5.83 1606.68 -5.17"/>
    <polyline class="cls-16" points="1628.27 -5.17 1618.22 -5.17 1620.92 5.83 1631 5.83 1628.27 -5.17"/>
    <polyline class="cls-21" points="1649.86 -5.17 1639.82 -5.17 1642.6 5.83 1652.67 5.83 1649.86 -5.17"/>
    <polyline class="cls-23" points="1671.44 -5.17 1661.4 -5.17 1664.27 5.83 1674.35 5.83 1671.44 -5.17"/>
    <polyline class="cls-11" points="1779.36 -5.17 1769.32 -5.17 1772.63 5.83 1782.71 5.83 1779.36 -5.17"/>
    <polyline class="cls-23" points="1822.52 -5.17 1812.48 -5.17 1815.96 5.83 1826.06 5.83 1822.52 -5.17"/>
    <polyline class="cls-18" points="1481.76 18.58 1481.12 18.58 1472.28 22.03 1473.76 29.78 1483.91 29.78 1481.76 18.58"/>
    <polyline class="cls-27" points="1481.12 18.58 1471.64 18.58 1472.28 22.03 1481.12 18.58"/>
    <polyline class="cls-17" points="1590.63 18.58 1580.5 18.58 1583.06 29.78 1593.23 29.78 1590.63 18.58"/>
    <polyline class="cls-19" points="1808.38 18.58 1798.24 18.58 1801.71 29.78 1811.86 29.78 1808.38 18.58"/>
    <polyline class="cls-11" points="1552.32 42.77 1542.12 42.77 1544.53 54.15 1554.8 54.15 1552.32 42.77"/>
    <polyline class="cls-18" points="1618.22 42.77 1608.02 42.77 1610.71 54.15 1620.96 54.15 1618.22 42.77"/>
    <polyline class="cls-21" points="1815.92 42.77 1805.71 42.77 1809.24 54.15 1819.48 54.15 1815.92 42.77"/>
    <polyline class="cls-23" points="1837.9 42.77 1827.67 42.77 1831.28 54.15 1841.55 54.15 1837.9 42.77"/>
    <polyline class="cls-32" points="1681.46 117.96 1670.95 117.96 1673.99 129.98 1684.54 129.98 1681.46 117.96"/>
    <polyline class="cls-25" points="982.08 143.94 971.5 143.94 971.55 156.19 982.19 156.19 982.08 143.94"/>
    <polyline class="cls-35" points="1095.97 143.94 1085.37 143.94 1085.93 156.19 1096.57 156.19 1095.97 143.94"/>
    <polyline class="cls-19" points="1437.59 143.94 1427.01 143.94 1429.03 156.19 1439.67 156.19 1437.59 143.94"/>
    <polyline class="cls-21" points="1258.17 170.41 1247.48 170.41 1248.73 182.88 1259.46 182.88 1258.17 170.41"/>
    <polyline class="cls-19" points="1281.16 170.41 1270.46 170.41 1271.83 182.88 1282.56 182.88 1281.16 170.41"/>
    <polyline class="cls-20" points="1488.04 170.41 1477.34 170.41 1479.61 182.88 1490.34 182.88 1488.04 170.41"/>
    <polyline class="cls-30" points="959.36 197.38 948.57 197.38 948.53 210.08 959.38 210.08 959.36 197.38"/>
    <polyline class="cls-17" points="1284.19 197.38 1273.4 197.38 1274.79 210.08 1285.63 210.08 1284.19 197.38"/>
    <polyline class="cls-19" points="1174.29 281.39 1163.2 281.39 1164.12 294.86 1175.28 294.86 1174.29 281.39"/>
    <polyline class="cls-32" points="1710.89 143.94 1700.31 143.94 1703.49 156.19 1714.13 156.19 1710.89 143.94"/>
    <polyline class="cls-16" points="1915.88 143.94 1905.28 143.94 1909.36 156.19 1920 156.19 1915.88 143.94"/>
    <polyline class="cls-16" points="1832.84 170.41 1822.14 170.41 1825.89 182.88 1836.64 182.88 1832.84 170.41"/>
    <polyline class="cls-32" points="960.63 -6.74 947.71 -6.74 947.67 7.42 952.41 7.42 960.63 3.5 960.63 -6.74"/>
    <polyline class="cls-35" points="960.63 3.5 952.41 7.42 960.65 7.42 960.63 3.5"/>
    <polyline class="cls-28" points="1090.05 -6.74 1077.13 -6.74 1077.76 7.42 1090.74 7.42 1090.05 -6.74"/>
    <polyline class="cls-35" points="1111.61 -6.74 1098.7 -6.74 1099.45 7.42 1112.44 7.42 1111.61 -6.74"/>
    <polyline class="cls-33" points="1197.91 -6.74 1184.99 -6.74 1186.18 7.42 1199.17 7.42 1197.91 -6.74"/>
    <polyline class="cls-35" points="1348.91 -6.74 1335.99 -6.74 1337.97 7.42 1350.95 7.42 1348.91 -6.74"/>
    <polyline class="cls-33" points="960.65 16.99 947.63 16.99 947.57 31.39 960.69 31.39 960.65 16.99"/>
    <polyline class="cls-26" points="1377.82 41.13 1364.66 41.13 1366.84 55.8 1380.06 55.8 1377.82 41.13"/>
    <polyline class="cls-32" points="1421.82 41.73 1409.47 46.57 1410.99 55.8 1424.2 55.8 1421.82 41.73"/>
    <polyline class="cls-35" points="1421.72 41.13 1408.57 41.13 1409.47 46.57 1421.82 41.73 1421.72 41.13"/>
    <polyline class="cls-24" points="960.72 65.71 947.46 65.71 947.4 80.66 960.74 80.66 960.72 65.71"/>
    <polyline class="cls-30" points="1270.84 65.71 1257.55 65.71 1259.18 80.66 1272.52 80.66 1270.84 65.71"/>
    <polyline class="cls-24" points="1315.12 65.71 1301.86 65.71 1303.73 80.66 1317.07 80.66 1315.12 65.71"/>
    <polyline class="cls-25" points="960.76 90.76 947.37 90.76 947.33 105.95 960.78 105.95 960.76 90.76"/>
    <polyline class="cls-17" points="1363.07 90.76 1349.68 90.76 1351.82 105.95 1365.27 105.95 1363.07 90.76"/>
    <polyline class="cls-24" points="1005.91 116.23 992.4 116.23 992.59 131.72 1006.17 131.72 1005.91 116.23"/>
    <polyline class="cls-17" points="1321.66 116.23 1308.15 116.23 1310.08 131.72 1323.66 131.72 1321.66 116.23"/>
    <polyline class="cls-15" points="1694.03 -6.74 1681.11 -6.74 1684.91 7.42 1697.91 7.42 1694.03 -6.74"/>
    <polyline class="cls-15" points="1569.95 16.99 1556.91 16.99 1560.1 31.39 1573.19 31.39 1569.95 16.99"/>
    <polyline class="cls-19" points="1613.48 16.99 1600.45 16.99 1603.86 31.39 1616.95 31.39 1613.48 16.99"/>
    <polyline class="cls-11" points="1657 16.99 1643.96 16.99 1647.6 31.39 1660.71 31.39 1657 16.99"/>
    <polyline class="cls-18" points="1744.03 16.99 1731.01 16.99 1735.11 31.39 1748.21 31.39 1744.03 16.99"/>
    <polyline class="cls-19" points="1874.59 16.99 1861.57 16.99 1866.35 31.39 1879.46 31.39 1874.59 16.99"/>
    <polyline class="cls-15" points="1641.25 41.13 1628.12 41.13 1631.69 55.8 1644.92 55.8 1641.25 41.13"/>
    <polyline class="cls-23" points="1794.92 41.13 1781.78 41.13 1786.2 55.8 1799.4 55.8 1794.92 41.13"/>
    <polyline class="cls-16" points="1758.13 65.71 1744.87 65.71 1749.11 80.66 1762.44 80.66 1758.13 65.71"/>
    <polyline class="cls-28" points="1120.15 142.19 1106.54 142.19 1107.36 157.97 1121.07 157.97 1120.15 142.19"/>
    <polyline class="cls-19" points="1507.11 142.19 1493.47 142.19 1496.45 157.97 1510.16 157.97 1507.11 142.19"/>
    <polyline class="cls-23" points="1689.2 142.19 1675.56 142.19 1679.55 157.97 1693.25 157.97 1689.2 142.19"/>
    <polyline class="cls-25" points="1173.04 -2.81 1167.32 -2.81 1167.81 3.45 1173.54 3.45 1173.04 -2.81"/>
    <polyline class="cls-27" points="978.82 21 973.05 21 973.09 27.37 978.86 27.37 978.82 21"/>
    <polyline class="cls-24" points="957.01 45.22 951.21 45.22 951.19 51.7 957.01 51.7 957.01 45.22"/>
    <polyline class="cls-33" points="979.01 45.22 973.2 45.22 973.24 51.7 979.06 51.7 979.01 45.22"/>
    <polyline class="cls-29" points="1088.95 45.22 1083.12 45.22 1083.42 51.7 1089.25 51.7 1088.95 45.22"/>
    <polyline class="cls-26" points="1110.92 45.22 1105.11 45.22 1105.47 51.7 1111.29 51.7 1110.92 45.22"/>
    <polyline class="cls-35" points="1220.86 45.22 1215.03 45.22 1215.65 51.7 1221.48 51.7 1220.86 45.22"/>
    <polyline class="cls-27" points="1330.8 45.22 1324.97 45.22 1325.83 51.7 1331.66 51.7 1330.8 45.22"/>
    <polyline class="cls-34" points="1023.57 69.87 1017.71 69.87 1017.86 76.46 1023.74 76.46 1023.57 69.87"/>
    <polyline class="cls-33" points="1090.13 69.87 1084.26 69.87 1084.56 76.46 1090.44 76.46 1090.13 69.87"/>
    <polyline class="cls-18" points="1378.51 69.87 1372.64 69.87 1373.62 76.46 1379.5 76.46 1378.51 69.87"/>
    <polyline class="cls-23" points="1400.69 69.87 1394.82 69.87 1395.85 76.46 1401.74 76.46 1400.69 69.87"/>
    <polyline class="cls-36" points="1180.87 94.97 1174.94 94.97 1175.47 101.7 1181.41 101.7 1180.87 94.97"/>
    <polyline class="cls-20" points="1271.02 100.61 1268.27 101.7 1271.15 101.7 1271.02 100.61"/>
    <polyline class="cls-30" points="1270.4 94.97 1264.48 94.97 1265.22 101.7 1268.27 101.7 1271.02 100.61 1270.4 94.97"/>
    <polyline class="cls-11" points="1292.79 94.97 1286.87 94.97 1287.66 101.7 1293.6 101.7 1292.79 94.97"/>
    <polyline class="cls-16" points="1315.17 94.97 1309.24 94.97 1310.1 101.7 1316.04 101.7 1315.17 94.97"/>
    <polyline class="cls-33" points="1047.38 120.54 1041.4 120.54 1041.61 127.38 1047.6 127.38 1047.38 120.54"/>
    <polyline class="cls-36" points="1092.56 120.54 1086.59 120.54 1086.88 127.38 1092.88 127.38 1092.56 120.54"/>
    <polyline class="cls-27" points="1115.15 120.54 1109.18 120.54 1109.53 127.38 1115.53 127.38 1115.15 120.54"/>
    <polyline class="cls-33" points="1475.48 -2.81 1469.75 -2.81 1470.95 3.45 1476.68 3.45 1475.48 -2.81"/>
    <polyline class="cls-18" points="1540.28 -2.81 1535.91 -2.81 1534.68 -2.32 1535.9 3.45 1541.63 3.45 1540.28 -2.81"/>
    <polyline class="cls-17" points="1799.51 -2.81 1793.8 -2.81 1795.73 3.45 1801.46 3.45 1799.51 -2.81"/>
    <polyline class="cls-20" points="1842.71 -2.81 1837 -2.81 1839.04 3.45 1844.77 3.45 1842.71 -2.81"/>
    <polyline class="cls-32" points="1572.63 45.22 1566.82 45.22 1568.25 51.7 1574.09 51.7 1572.63 45.22"/>
    <polyline class="cls-20" points="1660.58 45.22 1654.77 45.22 1656.42 51.7 1662.24 51.7 1660.58 45.22"/>
    <polyline class="cls-20" points="1748.53 45.22 1742.7 45.22 1744.55 51.7 1750.4 51.7 1748.53 45.22"/>
    <polyline class="cls-23" points="1770.52 45.22 1764.69 45.22 1766.6 51.7 1772.43 51.7 1770.52 45.22"/>
    <polyline class="cls-20" points="1622.53 69.87 1616.65 69.87 1618.22 76.46 1624.11 76.46 1622.53 69.87"/>
    <polyline class="cls-23" points="1844.36 69.87 1838.5 69.87 1840.58 76.46 1846.48 76.46 1844.36 69.87"/>
    <polyline class="cls-11" points="1561.39 94.97 1555.47 94.97 1556.91 101.7 1562.85 101.7 1561.39 94.97"/>
    <polyline class="cls-16" points="1762.86 94.97 1756.92 94.97 1758.85 101.7 1764.79 101.7 1762.86 94.97"/>
    <polyline class="cls-21" points="1566.92 120.54 1560.94 120.54 1562.4 127.38 1568.4 127.38 1566.92 120.54"/>
    <polyline class="cls-17" points="1725.04 120.54 1719.06 120.54 1720.89 127.38 1726.89 127.38 1725.04 120.54"/>
    <polyline class="cls-32" points="1792.79 120.54 1786.81 120.54 1788.82 127.38 1794.81 127.38 1792.79 120.54"/>
    <polyline class="cls-21" points="1860.56 120.54 1854.59 120.54 1856.76 127.38 1862.75 127.38 1860.56 120.54"/>
    <polyline class="cls-33" points="1002.63 146.58 996.6 146.58 996.69 153.55 1002.74 153.55 1002.63 146.58"/>
    <polyline class="cls-17" points="1253.38 146.58 1247.35 146.58 1248.06 153.55 1254.11 153.55 1253.38 146.58"/>
    <polyline class="cls-11" points="1458.55 146.58 1452.52 146.58 1453.74 153.55 1459.77 153.55 1458.55 146.58"/>
    <polyline class="cls-27" points="1049.07 173.09 1042.98 173.09 1043.18 180.18 1049.29 180.18 1049.07 173.09"/>
    <polyline class="cls-20" points="1142.82 200.12 1136.68 200.12 1137.13 207.35 1143.29 207.35 1142.82 200.12"/>
    <polyline class="cls-19" points="1444.74 200.12 1438.6 200.12 1439.8 207.35 1445.96 207.35 1444.74 200.12"/>
    <polyline class="cls-20" points="1425.92 227.63 1419.72 227.63 1420.88 235 1427.1 235 1425.92 227.63"/>
    <polyline class="cls-14" points="1472.81 227.63 1466.61 227.63 1467.88 235 1474.1 235 1472.81 227.63"/>
    <polyline class="cls-20" points="1905.5 -4.38 1896.9 -4.38 1900.18 5.04 1908.8 5.04 1905.5 -4.38"/>
    <polyline class="cls-32" points="1885.25 -6.74 1872.35 -6.74 1877.14 7.42 1890.12 7.42 1885.25 -6.74"/>
    <polyline class="cls-19" points="1893.42 16.99 1880.38 16.99 1885.27 31.39 1898.38 31.39 1893.42 16.99"/>
    <polyline class="cls-17" points="1910.18 65.71 1896.92 65.71 1901.98 80.66 1915.32 80.66 1910.18 65.71"/>
    <polyline class="cls-18" points="1912.96 21 1907.19 21 1909.4 27.37 1915.19 27.37 1912.96 21"/>
    <polyline class="cls-17" points="1899.45 45.22 1893.64 45.22 1895.85 51.7 1901.68 51.7 1899.45 45.22"/>
    <polyline class="cls-15" points="1532.24 173.09 1526.15 173.09 1527.56 180.18 1533.65 180.18 1532.24 173.09"/>
    <polyline class="cls-22" points="1555.25 173.09 1549.16 173.09 1550.62 180.18 1556.73 180.18 1555.25 173.09"/>
    <polyline class="cls-18" points="1578.25 173.09 1572.16 173.09 1573.68 180.18 1579.79 180.18 1578.25 173.09"/>
    <polyline class="cls-11" points="1647.28 173.09 1641.19 173.09 1642.88 180.18 1648.98 180.18 1647.28 173.09"/>
    <polyline class="cls-19" points="1739.31 173.09 1733.22 173.09 1735.13 180.18 1741.24 180.18 1739.31 173.09"/>
    <polyline class="cls-23" points="1676.99 200.12 1670.84 200.12 1672.62 207.35 1678.77 207.35 1676.99 200.12"/>
    <polyline class="cls-15" points="1578.36 284.28 1572.03 284.28 1573.62 291.94 1579.95 291.94 1578.36 284.28"/>
  </g>
  <g class="cls-37">
    <g>
      <polyline class="cls-38" points="3110.22 177.92 -669.37 168.16 -637.93 -2486.54 3147.22 -2486.54 3110.22 177.92"/>
      <path class="cls-39" d="M3173.09-1731.75c-205.94,83.39-3471.41,1340.53-3811,1477V148.66l3779.59,9.75,31.43-1890.16"/>
    </g>
  </g>
</svg>
