<svg xmlns="http://www.w3.org/2000/svg" xmlns:xlink="http://www.w3.org/1999/xlink" viewBox="0 0 571.81 530.36">
  <defs>
    <style>
      .cls-1, .cls-10 {
        fill: none;
      }

      .cls-2 {
        isolation: isolate;
      }

      .cls-3 {
        fill: #2588c9;
        opacity: 0.25;
      }

      .cls-4 {
        fill: #756359;
      }

      .cls-13, .cls-5 {
        fill: #4c7a83;
      }

      .cls-5 {
        opacity: 0.5;
        mix-blend-mode: multiply;
      }

      .cls-6 {
        fill: #c2b28f;
      }

      .cls-7 {
        fill: #807873;
      }

      .cls-8 {
        fill: #a09b97;
      }

      .cls-9 {
        fill: #f2ebd6;
      }

      .cls-10 {
        stroke: #515151;
        stroke-miterlimit: 10;
        stroke-width: 0.41px;
      }

      .cls-11 {
        fill: #784d46;
      }

      .cls-12 {
        fill: #f16031;
      }

      .cls-14 {
        fill: #ffd255;
      }

      .cls-15 {
        fill: #7d645d;
      }

      .cls-16 {
        fill: #ca4c2d;
      }

      .cls-17 {
        fill: #ffd155;
      }

      .cls-18 {
        fill: #f06031;
      }

      .cls-19 {
        fill: #f3c2a5;
      }

      .cls-20 {
        fill: #93b9bd;
      }

      .cls-21 {
        fill: #faaf4a;
      }

      .cls-22 {
        fill: #fac7be;
      }

      .cls-23 {
        fill: #fddfc5;
      }

      .cls-24 {
        fill: #a4bbc0;
      }

      .cls-25 {
        fill: #514a46;
      }

      .cls-26 {
        fill: #a49a40;
      }

      .cls-27 {
        fill: #833822;
      }

      .cls-28 {
        fill: #9d8f7e;
      }

      .cls-29 {
        fill: #60888f;
      }

      .cls-30 {
        fill: #4e3935;
      }

      .cls-31 {
        fill: #b6c9cd;
      }

      .cls-32 {
        fill: #37606a;
      }

      .cls-33 {
        fill: #b6a545;
      }

      .cls-34 {
        fill: #948480;
      }

      .cls-35 {
        fill: #6b6968;
      }

      .cls-36 {
        fill: #c0e8e9;
      }

      .cls-37 {
        fill: #deba62;
      }

      .cls-38 {
        clip-path: url(#clip-path);
      }

      .cls-39 {
        fill: #687373;
      }

      .cls-40 {
        fill: #606262;
      }

      .cls-41 {
        fill: #8f894a;
      }

      .cls-42 {
        fill: #8f9ba2;
      }

      .cls-43 {
        fill: #315a64;
      }

      .cls-44 {
        fill: #3e484a;
      }

      .cls-45 {
        fill: #6b7230;
      }

      .cls-46 {
        fill: #5d6638;
      }

      .cls-47 {
        fill: #5d737b;
      }

      .cls-48 {
        fill: #ffe398;
      }

      .cls-49 {
        fill: #d8ccab;
      }

      .cls-50 {
        fill: #b6bb9c;
      }

      .cls-51 {
        fill: #dacf9a;
      }

      .cls-52 {
        fill: #c2b78e;
      }

      .cls-53 {
        fill: #acab82;
      }

      .cls-54 {
        fill: #beae80;
      }

      .cls-55 {
        fill: #9c8043;
      }

      .cls-56 {
        fill: #cda549;
      }

      .cls-57 {
        fill: #515151;
      }

      .cls-58 {
        fill: #7d653a;
      }
    </style>
    <clipPath id="clip-path">
      <path class="cls-1" d="M275.6,485.45H188.13c8.14.23,16.27.58,24.4.89,10.18.38,20.37.73,30.56.73,6.29,0,12.58-.13,18.87-.47,4.58-.24,9.13-.6,13.64-1.15M135.77,299.34l-1.05,2.06V304l1,.27h0L138.1,300l-2.33-.69m168.31-8.92-1.87,1.21,2.36,4.61L299.48,304h.24l8.38-5.74-4-7.82M169.46,243.36l-3.35.54-10.6,24.66,14-25.2"/>
    </clipPath>
  </defs>
  <title>bottom-coming-soon</title>
  <g class="cls-2">
    <g id="Layer_1" data-name="Layer 1">
      <g>
        <polygon class="cls-3" points="384.75 367.95 552.78 402.04 541.15 430.26 571.81 450.05 492.71 520.29 113.36 530.36 20.9 458.91 384.75 367.95"/>
        <g>
          <g>
            <path class="cls-4" d="M75.48,302.25c5.14-2,125.33-51.48,125.33-51.48l146,13.72-35,89.34-187.43.84Z"/>
            <path class="cls-5" d="M246.59,301.55c-15.54-17.07-30.94-34.26-48-49.88C183,258.1,80.23,300.4,75.48,302.25l48.93,52.42,171.38-.77C279.31,336.53,262.71,319.26,246.59,301.55Z"/>
            <path class="cls-6" d="M210.25,285.48c1.94-.74,3.17-2.61,4.48-4.22,8.25-10.08,25.1-11.48,34.89-2.89,5.15-5.72,14.33-5.38,21.55-2.72s13.8,7.17,21.37,8.56c2.63.48,5.62.73,7.32,2.8a13,13,0,0,1,1.78,4.11c2.26,6.51,8.25,11.64,8.86,18.51.91,10.07-10.07,17.12-20,19s-20.86,1.25-29.21,6.94c4.43,2.05,4.71,8.78,1.7,12.62s-8,5.48-12.7,6.77c-24.17,6.63-82.4,20.31-96.78-9.32-13-26.83,21.17-48.39,43.82-48.16C194.76,286.69,203.82,287.94,210.25,285.48Z"/>
            <g>
              <rect class="cls-7" x="204.41" y="150.04" width="14.52" height="220.89"/>
              <rect class="cls-7" x="304.57" y="104.68" width="14.52" height="220.89"/>
              <rect class="cls-7" x="233.15" y="218.16" width="14.52" height="55.98" transform="translate(-76.83 379.36) rotate(-68.45)"/>
              <rect class="cls-7" x="232.08" y="230.7" width="14.52" height="125.78" transform="translate(-96.88 119.14) rotate(-23.39)"/>
              <rect class="cls-7" x="206.91" y="150.73" width="109.33" height="14.52" transform="translate(-43.06 133.86) rotate(-26.6)"/>
              <polygon class="cls-7" points="305.17 291.66 207.38 187.39 217.98 177.47 315.77 281.74 305.17 291.66"/>
              <rect class="cls-7" x="330.28" y="168.74" width="14.51" height="56.1" transform="translate(58.88 470.67) rotate(-74.75)"/>
              <g>
                <rect class="cls-8" x="257.05" y="189.42" width="14.52" height="220.89"/>
                <rect class="cls-8" x="357.21" y="144.06" width="14.52" height="220.89"/>
                <rect class="cls-8" x="259.27" y="221.11" width="116.85" height="14.52" transform="translate(-70.68 180.96) rotate(-28.75)"/>
                <rect class="cls-8" x="195.32" y="305.82" width="225.34" height="14.52" transform="translate(-109.05 450.79) rotate(-63.74)"/>
              </g>
              <polygon class="cls-9" points="201.86 150.6 211.71 154.81 220.93 151.51 212.68 147.66 201.86 150.6"/>
              <polygon class="cls-9" points="254.77 190.34 264.62 194.56 273.85 191.26 265.59 187.4 254.77 190.34"/>
              <polygon class="cls-9" points="303.6 105.33 313.45 109.54 322.68 106.24 314.43 102.38 303.6 105.33"/>
              <polygon class="cls-9" points="354.69 144.05 364.54 148.26 373.77 144.96 365.52 141.1 354.69 144.05"/>
              <line class="cls-10" x1="264.31" y1="221.4" x2="170.72" y2="401.48"/>
              <line class="cls-10" x1="217.51" y1="206.24" x2="118.76" y2="376.91"/>
              <line class="cls-10" x1="266.93" y1="267.51" x2="231.46" y2="427.73"/>
              <path class="cls-5" d="M325.61,220.14l-13.77,3.16-.62-110,11.46-7.09Zm-113.9-65.33-2.46,156.63,11.68,1.65s2-160.1,0-161.58S211.71,154.81,211.71,154.81Zm52.91,39.75s.84,109.74.21,116.88l10.49,4.37-3.75-126.39Z"/>
            </g>
          </g>
          <g>
            <g>
              <path class="cls-11" d="M245.65,135.48a4.83,4.83,0,0,0-5.94.64c-1.81,1.69-1.67,3.32-1.53,5.25.24.88.46,1.75.75,2.64a4.81,4.81,0,0,1,1.89,0,3.1,3.1,0,0,1,1.49.8,2.75,2.75,0,0,1-.29,3.59c-1.12,1.23-3.9,1.94-5.33.66-.6,0-1.17-1.37-1.88-1.83-.29,3,3.23,7.19,6.23,5.8a15.86,15.86,0,0,0,4.73-3.44c1.1-.62,1.52-5.54,1.66-9.07l.12-.09C247.48,138.56,247.14,136.6,245.65,135.48Z"/>
              <line class="cls-10" x1="242.49" y1="130.97" x2="242.49" y2="137.08"/>
            </g>
            <g>
              <ellipse class="cls-7" cx="242.49" cy="124.32" rx="6.65" ry="6.65"/>
              <polygon class="cls-11" points="230.05 87.82 230.05 103.22 239.88 110.7 250.78 99.43 254.92 83.06 249.48 81.88 230.05 87.82"/>
              <line class="cls-10" x1="242.49" y1="73.46" x2="242.49" y2="119.64"/>
              <g>
                <polygon class="cls-12" points="233.01 90.03 233.01 105.43 242.84 112.91 253.73 101.64 254.92 83.06 233.01 90.03"/>
                <polygon class="cls-12" points="233.01 90.03 233.01 105.43 242.84 112.91 253.73 101.64 254.92 83.06 233.01 90.03"/>
                <g>
                  <polygon class="cls-13" points="239.09 110.06 254.03 97.03 254.25 93.63 237.13 108.56 239.09 110.06"/>
                  <polygon class="cls-13" points="233.01 103.82 233.01 105.43 233.99 106.18 254.59 88.21 254.81 84.81 233.01 103.82"/>
                  <polygon class="cls-13" points="233.01 96.94 233.01 100.15 251.26 84.23 245.46 86.07 233.01 96.94"/>
                </g>
              </g>
            </g>
          </g>
          <g>
            <rect class="cls-14" x="122.6" y="19.18" width="7.2" height="65.08" transform="translate(-1.07 2.7) rotate(-1.22)"/>
            <path class="cls-15" d="M86,105.45q3-.23,6-.61L91.87,102l23-5-5.33,4.72q5.85-1.21,11.72-2.3l5.23-4.63-.08,3.73c1.65-.28,3.29-.59,5-.86l1.12-.17.08-3.45.47-1,142.27-31.1L245.76,38.54,67.49,75.91l-3.77,32.26,22.15-4.84ZM246.22,46.62l15.3,12.12L239,63.67Zm-6.28-.69-7.52,17.7L217,50.74Zm-13.6,20.5-27.39,6,12-18.83ZM203.88,53.49,192,72.07,179.06,58.7ZM186.53,75.13l-22.67,5,9.9-18.16Zm-19.25-14-9.5,17.42L148.84,65Zm-14.2,21.28-16.8,3.67,8-17ZM138.53,67.19l-8.35,17.65-4.79.47L112,72.76Zm-31.38,9.34,10.22,9.55-14.56,1.41ZM101.25,75,96,88.15,87.39,89,76.92,80.11ZM70.72,100.45,72.6,84.37,85.5,95.31l.09,1.89Z"/>
            <polygon class="cls-15" points="100.31 93.81 101.7 93.67 100.23 94 100.31 93.81"/>
            <path class="cls-14" d="M259.54,43.24,81.28,80.61l-3.77,32.26,20.9-4.57,0-1.88c17.29-.37,31.17-7.23,48.17-8.15l.26-.55,142.27-31.1Zm-175,61.9,1.88-16.07L99.29,100l.09,1.89Zm16.67-11.46L90.71,84.81,115,79.71l-5.21,13.13Zm12.84,5,.07-.18,1.4-.14Zm2.58-6.5,4.34-11,10.22,9.55ZM144,89.54l-4.79.46L125.76,77.46l26.56-5.57Zm6.09,1.27,8-17,8.78,13.3Zm12.57-21.08,18.44-3.87-9.5,17.43Zm15,15.06,9.9-18.17,12.77,13.21Zm15.19-21.4,24.82-5.2L205.78,76.77Zm19.9,13.73,12-18.83,15.35,12.84ZM230.8,55.44l22.93-4.81-7.52,17.7ZM260,51.32l15.3,12.12-22.54,4.93Z"/>
            <g>
              <ellipse class="cls-11" cx="64.28" cy="98.31" rx="13.69" ry="11.42" transform="translate(-52.3 112.63) rotate(-63.83)"/>
              <ellipse class="cls-16" cx="69.78" cy="101.1" rx="13.69" ry="11.42" transform="translate(-51.73 119.13) rotate(-63.83)"/>
            </g>
            <g>
              <ellipse class="cls-11" cx="124.03" cy="13.28" rx="13.69" ry="11.42" transform="translate(57.4 118.73) rotate(-63.83)"/>
              <ellipse class="cls-16" cx="129.53" cy="16.07" rx="13.69" ry="11.42" transform="translate(57.97 125.23) rotate(-63.83)"/>
            </g>
            <line class="cls-10" x1="62.26" y1="89.58" x2="123.75" y2="0.19"/>
            <line class="cls-10" x1="241.48" y1="42.33" x2="141.42" y2="13.86"/>
          </g>
          <g>
            <path class="cls-15" d="M130.56,138.29l1.6-37.15-.87.12c-1.74.24-3.48.51-5.22.79l-1.44,33.47-29.94-14,20.78-17.61c-4,.73-7.9,1.46-11.85,2.12L92,115.89l-.21-8.24q-3,.3-6,.44L88,198.92l-1.21.74-.13,5.08,1.51,1,.88,35.73-2.12,1.6.49,5.13,1.81.89,2.53,102.53,29.8-3.8,8.74-203.41,1-.67-.35-5.28-.43-.2m-38.28-11.2,31.16,14.55L93.12,161l-.84-33.89m1.08,43.69,25.48,9.29L94,195.28l-.6-24.5m1,39.19L113.46,223,95,237l-.67-27m1,42.16L117.3,262.9,96.21,286.34l-.85-34.21m1.23,49.69,16,17L97.51,339.33l-.92-37.51m19.14,40.68-14.39,1.83,15.2-20.6-.81,18.77m1.2-27.94L97.48,294l21.36-23.74-1.91,44.33m2.47-57.36L95.19,245.31l0-.86,25.3-19.14-.12-4.9L94.14,202.52v-.26l28.38-17.34L119.4,257.2m3.53-82.07L97,165.67l27.07-17.26-1.15,26.72"/>
            <path class="cls-17" d="M98.05,107.59l1.25-.24,2.38,96.56-1.21.74-.13,5.08,1.51,1,.88,35.73-2.12,1.6.49,5.12,1.82.9,2.53,102.53,29.79-3.8L144,149.43l1-.67-.35-5.28-.42-.2L146.15,99l.23-.44c-17,.55-31,7.11-48.33,7.11v1.88M106,132.08l31.15,14.55L106.8,166,106,132.08M107,175.77l25.48,9.29-24.87,15.21-.61-24.5M108,215,127.15,228l-18.47,14L108,215m1,42.16L131,267.89l-21.09,23.44-.84-34.21m1.22,49.69,16,17L111.2,344.31l-.93-37.5m19.15,40.68L115,349.33l15.2-20.62-.8,18.78m1.2-27.94L111.17,299l21.35-23.73-1.9,44.33m2.46-57.36-24.2-11.89,0-.86,25.29-19.14-.11-4.9-26.21-17.89v-.26l28.37-17.34-3.11,72.28m3.53-82.07-25.91-9.46,27.06-17.26-1.15,26.72m1.71-39.61-29.95-14,31.7-26.87-1.75,40.85m-9.92-38.88-22.71,19.25-.36-14.72,23.07-4.53"/>
            <polyline class="cls-16" points="111.1 105.94 116.73 45 159.29 41.45 183.34 54.54 191.08 111.04 145.97 122.79 111.1 105.94"/>
            <polyline class="cls-18" points="131.12 125.29 144.99 122.31 145.67 59.96 183.63 56.61 183.34 54.54 159.29 41.45 116.73 45 111.1 105.94 111.86 142.77 131.12 125.29"/>
            <path class="cls-19" d="M145.72,60l37.91-3.35-.29-2.07L159.29,41.45,120.43,44.7c8.48,5,16.93,10,25.29,15.26"/>
            <path class="cls-20" d="M149.46,68.31,150,90a3.06,3.06,0,0,0,3.65,2.93l26.8-5.25a3.07,3.07,0,0,0,2.45-3.4l-2.42-18.54a3.05,3.05,0,0,0-3.29-2.65l-24.95,2.08a3.07,3.07,0,0,0-2.81,3.14"/>
            <path class="cls-20" d="M122.72,55.19l17.16,8.56a2.93,2.93,0,0,1,1.62,2.7L141,85.56a2.93,2.93,0,0,1-4.25,2.53l-18.1-9.17A3,3,0,0,1,117,76.08l1.47-18.51A2.93,2.93,0,0,1,122.72,55.19Z"/>
            <polyline class="cls-11" points="111.86 142.77 160 130.35 191.08 111.04 143.01 121.36 131.12 125.29 111.86 142.77"/>
            <polyline class="cls-21" points="116.57 88.41 116.08 96.88 133.39 104.98 133.39 97.99 139.29 100.77 139.38 98.18 116.57 88.41"/>
            <polyline class="cls-22" points="139.29 100.77 139.03 107.62 133.39 104.98 133.39 115.1 140.85 118.61 140.85 101.5 139.29 100.77"/>
            <polyline class="cls-23" points="133.39 97.99 133.39 104.98 139.03 107.62 139.29 100.77 133.39 97.99"/>
            <path class="cls-24" d="M116.91,313.84l0,.72,0-.67,0-.05m1-22.39-1.62,1.8.34,11.5.68.72.6-14m14.6-16.23-8.24,9.16-1.17,27.22,1.2,1.27,6.66-1.52,1.55-36.13m-13.68-5-3.12,3.46.32,10.8,2.29-2.54.51-11.72m6.28-5.22-.43,9.87,6.29-7L125.12,265M115.38,262l.08,3,1.84-2-1.92-.94m4.72-21-5.23,3.95.25,8.48,4.35,2.13.63-14.56m6.62-13.21,0,.63.46-.34-.43-.29m-6.3-4.3,0,1.88-6,4.57.22,7.59,5.78-4.37.41-9.39-.42-.28m1.5-24.79-8.26,5.05.23,8,7.25,4.95.78-18m14.27-8.73-8.06,4.93L127,220.61l7,4.79.11,4.9-7.79,5.9-1,22.22,7.68,3.77,3.11-72.28m-13.68-5-9.24,5.65.18,6.15,8.78-5.36.28-6.44m6.11-1.28-.17,3.92,4.07-2.5-3.9-1.42m-15.73-5.73.17,5.69,5.78-3.53-6-2.16m10.58-15.4-10.83,6.91.06,2,10.23,3.73.54-12.61m14.29-9.11-8.07,5.14-.8,18.76,7.72,2.82,1.15-26.72m6.6-4.21-.37.24L137.09,310l1.81-.42,5.46-160.34m-20.28-.78L112.24,156l.19,6.42,11.36-7.24.29-6.72m7.12-4.55-.9.58-.29,6.72,7.11-4.53-5.92-2.77m-10.33-3.42-9,2.33.18,6.14,11.4-7.27-2.57-1.2m17.65-4.55-6.5,1.68,6.3,2.94.2-4.62m14.1-3.64-8,2.06-.39,9,.31.14.25-7.53s3.16-1.44,7.81-3.64m31-75.64h0L191.08,111l-18.31,11.37c9.87-5,18.52-9.89,18.31-11.37-.41-3-6.11-44.61-7.45-54.43"/>
            <path class="cls-25" d="M117,313.89l0,.67.54-.13-.51-.54m7.32-29.51-6.36,7.07-.6,14,5.79,6.13,1.17-27.22m-9-24.18,0,1.76,1.92.94-1.84,2,.26,8.75,3.12-3.46L118.33,282l6.36-7.07.43-9.87-9.79-4.81m11-24-6.26,4.74-.63,14.56,5.93,2.92,1-22.22m-5.52-12.49-.41,9.39,6.26-4.74,0-.63-5.88-4m-6.73-4.59.32,10.76,6-4.57,0-1.88-6.31-4.31m14-24.28-6.21,3.8-.78,18,5.89,4,1.1-25.77M112.89,177.9h0l6,2.16-5.78,3.53.21,7,9.24-5.65-.28,6.44,6.22-3.8.17-3.92-15.73-5.74m16.8-19.36-6.22,4-.54,12.61,6,2.18.8-18.76m-6.89-18.6-1.93.5,2.57,1.2L112,148.91l.2,7,11.84-7.54-.29,6.72,6.22-4,.29-6.72.9-.58-8.4-3.92"/>
            <path class="cls-26" d="M116.64,304.75l.27,9.09,0,.05.51.54,6.84-1.56-1.2-1.27-5.79-6.13-.68-.72m-2.75-93.1.22,7.47,6.31,4.31.42.28,5.88,4,.43.29-.46.34-6.26,4.74-5.78,4.37.22,7.42,5.23-3.95,6.26-4.74,7.79-5.9-.11-4.9-7-4.79-5.89-4-7.25-4.95m30.75-77.34-6.12,1.58-.2,4.62-6.3-2.94-9.22,2.37,8.4,3.92,5.92,2.77L130,151.16l-6.22,4-11.36,7.24.21,7,10.83-6.91,6.22-4,8.07-5.14-1.15,26.72-7.72-2.82-6-2.18-10.23-3.73.19,6.51,15.73,5.74,3.9,1.42-4.07,2.5-6.22,3.8-8.78,5.36.21,7,8.26-5.05,6.21-3.8,8.06-4.93-3.11,72.28-7.68-3.77-5.93-2.92-4.35-2.13.21,6.83,9.79,4.81,5.86,2.88-6.29,7L118.33,282,116,284.49l.26,8.76,1.62-1.8,6.36-7.07,8.24-9.16L131,311.35l6.12-1.4L144,149.43l.37-.24.2-5.77-.31-.14.39-9"/>
            <path class="cls-27" d="M183.63,56.61l-1.49.13-3.58,6.53a3.08,3.08,0,0,1,1.95,2.47l2.42,18.54a3.07,3.07,0,0,1-2.45,3.4L163.36,91l-16.11,29.42L191.08,111l-7.45-54.43"/>
            <path class="cls-28" d="M183.34,54.54l-1.2,2.2,1.49-.13c-.18-1.33-.29-2.07-.29-2.07h0"/>
            <path class="cls-29" d="M178.56,63.27,163.36,91l17.12-3.35a3.07,3.07,0,0,0,2.45-3.4l-2.42-18.54a3.08,3.08,0,0,0-1.95-2.47"/>
            <path class="cls-30" d="M191.08,111l-43.83,9.41L146,122.79l-14.85,2.5-19.26,17.48,9-2.33,1.93-.5,9.22-2.37,6.5-1.68,6.12-1.58,8-2.06c5.52-2.6,13.14-6.26,20.15-9.84L191.08,111m0,0h0"/>
          </g>
          <g>
            <polyline class="cls-13" points="77.57 213.43 78.51 196.19 75.52 196.03 74.58 213.26 77.57 213.43"/>
            <path class="cls-17" d="M85.73,193.12c0,6.4-4,11.07-9,10.43s-9-6.36-9-12.76,4-11.07,9-10.42,9,6.35,9,12.75"/>
            <polyline class="cls-17" points="83.22 195.54 82.12 201.91 74.92 206.13 67.73 203.52 67.73 182.61 75.48 180.2 82.12 187.56 83.22 195.54"/>
            <polyline class="cls-17" points="76.2 180.3 67.73 182.61 71.23 206.24 78.92 202.89 82.12 192.66 76.2 180.3"/>
            <path class="cls-17" d="M81,195.23c.13,6.78-3.76,11.76-8.68,11.13s-9-6.62-9.16-13.4,3.75-11.76,8.68-11.14,9,6.63,9.16,13.41"/>
            <path class="cls-31" d="M75,206.14a6.26,6.26,0,0,1-1.84.28,5.9,5.9,0,0,1-.83-.06,7.27,7.27,0,0,1-.93-.18l-.08,0a6.26,6.26,0,0,0,1.87.3A5.36,5.36,0,0,0,75,206.2v-.06m-6.65-1.54a9.22,9.22,0,0,0,2.9,1.6v-.06a8.62,8.62,0,0,1-2.89-1.54m17.41-12.7h0c0,.4,0,.8,0,1.21,0,5-2.45,8.92-5.87,10.11l-1.79,1.05,0,.3c3.72-1.83,8.19-3.67,7.68-12.68"/>
            <path class="cls-32" d="M75.76,205.84a5.82,5.82,0,0,1-.79.3v.06a6.91,6.91,0,0,0,.79-.36m2.31-1.56-.37.22a7.08,7.08,0,0,1-.79.66c.37-.2.75-.39,1.14-.58l0-.3"/>
            <path class="cls-33" d="M85.68,191.91l-2.94.11.48,3.52-1.1,6.37-2.26,1.32c3.42-1.19,5.87-5.12,5.87-10.11,0-.41,0-.81,0-1.21"/>
            <path class="cls-33" d="M82.74,192l-.91,0,.29.6L81,196.34a12,12,0,0,1-3.26,8.16l.37-.22,1.79-1.05,2.26-1.32,1.1-6.37L82.74,192"/>
            <path class="cls-33" d="M71.21,206.14v.06l.07,0,.08,0-.16,0m10.62-14.08-1.2.05a16.84,16.84,0,0,1,.35,3.12c0,.38,0,.75,0,1.11l1.16-3.68-.29-.6"/>
            <path class="cls-33" d="M80.63,192.11l-2.07.08a15,15,0,0,1,.32,2.79c.11,5.25-2.55,9.21-6,9.21a4.17,4.17,0,0,1-.61,0A5.7,5.7,0,0,1,69.54,203l-1.27,1.54,0,0a8.62,8.62,0,0,0,2.89,1.54l.16,0a7.27,7.27,0,0,0,.93.18,5.9,5.9,0,0,0,.83.06,6.26,6.26,0,0,0,1.84-.28,5.82,5.82,0,0,0,.79-.3l.32-.19c.26-.17.54-.33.83-.49a7.08,7.08,0,0,0,.79-.66A12,12,0,0,0,81,196.34c0-.36,0-.73,0-1.11a16.84,16.84,0,0,0-.35-3.12"/>
            <path class="cls-34" d="M78.88,195c.11,5.56-2.87,9.66-6.65,9.17s-7-5.39-7.07-11S68,183.54,71.81,184s7,5.39,7.07,10.94"/>
            <polyline class="cls-9" points="78.09 180.54 70.04 182.63 76.73 185.1 82.12 182.59 78.09 180.54"/>
            <path class="cls-33" d="M65.88,188.54c-2.12,5.07-.16,8.71,0,9a14.75,14.75,0,0,1-.74-4.36,12.86,12.86,0,0,1,.72-4.66m4.93-4.6c-1.3,0-2.66.63-3.84,2.48A5.21,5.21,0,0,1,71.2,184h.36a4.76,4.76,0,0,0-.75-.07"/>
            <path class="cls-35" d="M71.2,184A5.21,5.21,0,0,0,67,186.42l-.18.29a17.26,17.26,0,0,0-.91,1.83,12.86,12.86,0,0,0-.72,4.66,14.75,14.75,0,0,0,.74,4.36v0L76.73,192l-.65-5.22A9.41,9.41,0,0,0,71.56,184H71.2"/>
            <path class="cls-36" d="M75.11,185.84a5.86,5.86,0,0,0-4.49,2.67,9.66,9.66,0,0,0-1.35,5.58,7.29,7.29,0,0,0,1.7,4.84,5.17,5.17,0,0,0,5.44,1.26,5.26,5.26,0,0,0,2-1.4,13.66,13.66,0,0,0-3.31-12.95Z"/>
            <polyline class="cls-13" points="103.14 221.68 104.08 204.44 101.09 204.28 100.15 221.52 103.14 221.68"/>
            <path class="cls-17" d="M111.29,201.38c0,6.4-4,11.07-9,10.42s-9-6.35-9-12.76,4-11.06,9-10.42,9,6.36,9,12.76"/>
            <polyline class="cls-17" points="108.79 203.8 107.69 210.16 100.49 214.38 93.3 211.78 93.3 190.86 101.04 188.46 107.69 195.81 108.79 203.8"/>
            <polyline class="cls-17" points="101.77 188.55 93.3 190.86 96.8 214.5 104.48 211.14 107.69 200.91 101.77 188.55"/>
            <path class="cls-17" d="M106.55,203.48c.13,6.78-3.76,11.77-8.68,11.14s-9-6.63-9.16-13.4,3.75-11.77,8.68-11.14,9,6.63,9.16,13.4"/>
            <path class="cls-31" d="M100.54,214.4a6.25,6.25,0,0,1-1.84.27,5.78,5.78,0,0,1-.83,0,7,7,0,0,1-.93-.18l-.08,0a6.26,6.26,0,0,0,1.87.3,5.13,5.13,0,0,0,1.81-.32v0m-6.64-1.54a9,9,0,0,0,2.89,1.59v-.06a8.46,8.46,0,0,1-2.88-1.53m17.39-12.7h-.05c0,.4.05.81.05,1.22,0,5-2.44,8.92-5.87,10.11l-1.78,1,0,.29c3.72-1.82,8.19-3.67,7.67-12.67"/>
            <path class="cls-32" d="M101.34,214.09a7.77,7.77,0,0,1-.8.31v0a5.07,5.07,0,0,0,.8-.36m2.3-1.55-.37.21a6.31,6.31,0,0,1-.8.67c.37-.2.76-.39,1.15-.59l0-.29"/>
            <path class="cls-33" d="M111.24,200.16l-2.93.12.48,3.52-1.1,6.36-2.27,1.33c3.43-1.19,5.87-5.13,5.87-10.11,0-.41,0-.82-.05-1.22"/>
            <path class="cls-33" d="M108.31,200.28l-.91,0,.29.6-1.16,3.69a12,12,0,0,1-3.26,8.15l.37-.21,1.78-1,2.27-1.33,1.1-6.36-.48-3.52"/>
            <path class="cls-33" d="M96.78,214.39v.06l.07,0,.08,0-.16-.05m10.62-14.08-1.2.05a16.94,16.94,0,0,1,.35,3.12c0,.38,0,.76,0,1.12l1.16-3.69-.29-.6"/>
            <path class="cls-33" d="M106.2,200.36l-2.07.08a15.1,15.1,0,0,1,.32,2.8c.11,5.25-2.55,9.2-6,9.2a4.17,4.17,0,0,1-.61,0,5.79,5.79,0,0,1-2.69-1.13l-1.27,1.53.06.06a8.46,8.46,0,0,0,2.88,1.53l.16.05a7,7,0,0,0,.93.18,5.78,5.78,0,0,0,.83,0,6.25,6.25,0,0,0,1.84-.27,7.77,7.77,0,0,0,.8-.31l.31-.18c.26-.17.54-.33.82-.49a6.31,6.31,0,0,0,.8-.67,12,12,0,0,0,3.26-8.15c0-.36,0-.74,0-1.12a16.94,16.94,0,0,0-.35-3.12"/>
            <path class="cls-34" d="M104.45,203.24c.11,5.55-2.87,9.65-6.65,9.16s-7-5.39-7.07-10.94,2.86-9.66,6.65-9.17,7,5.39,7.07,11"/>
            <polyline class="cls-9" points="103.66 188.8 95.61 190.88 102.3 193.36 107.69 190.84 103.66 188.8"/>
            <path class="cls-33" d="M91.45,196.78a10.6,10.6,0,0,0,0,9,15.08,15.08,0,0,1-.73-4.36,13,13,0,0,1,.72-4.68m4.93-4.58c-1.31,0-2.67.63-3.84,2.48a5.19,5.19,0,0,1,4.23-2.43h.35a4.62,4.62,0,0,0-.74-.06"/>
            <path class="cls-35" d="M96.77,192.25a5.19,5.19,0,0,0-4.23,2.43l-.18.29a17,17,0,0,0-.91,1.81,13,13,0,0,0-.72,4.68,15.08,15.08,0,0,0,.73,4.36l0,0,10.82-5.63-.65-5.22a9.4,9.4,0,0,0-4.53-2.73h-.35"/>
            <path class="cls-36" d="M100.68,194.09a5.87,5.87,0,0,0-4.49,2.67,9.71,9.71,0,0,0-1.36,5.58,7.34,7.34,0,0,0,1.71,4.84,5.17,5.17,0,0,0,5.44,1.27,5.33,5.33,0,0,0,2-1.4,13.19,13.19,0,0,0,.46-3.81A13,13,0,0,0,100.68,194.09Z"/>
            <polyline class="cls-13" points="134.25 232.24 135.19 215 132.21 214.84 131.27 232.08 134.25 232.24"/>
            <path class="cls-17" d="M142.41,211.94c0,6.4-4,11.07-9,10.42s-9-6.35-9-12.75,4-11.07,9-10.43,9,6.36,9,12.76"/>
            <polyline class="cls-17" points="139.91 214.36 138.8 220.72 131.61 224.94 124.41 222.34 124.41 201.42 132.16 199.02 138.8 206.37 139.91 214.36"/>
            <polyline class="cls-17" points="132.89 199.11 124.41 201.42 127.91 225.06 135.6 221.7 138.8 211.47 132.89 199.11"/>
            <path class="cls-17" d="M137.66,214c.13,6.78-3.75,11.77-8.68,11.14s-9-6.63-9.16-13.4,3.76-11.77,8.68-11.14,9,6.63,9.16,13.4"/>
            <path class="cls-31" d="M131.66,225a6,6,0,0,1-1.85.28,5.87,5.87,0,0,1-.83,0,7.62,7.62,0,0,1-.93-.18l-.08,0a6.33,6.33,0,0,0,1.88.3,5.29,5.29,0,0,0,1.8-.31V225m-6.59-1.49A8.73,8.73,0,0,0,127.9,225V225a8.44,8.44,0,0,1-2.82-1.49m17.34-12.74h0c0,.4,0,.81,0,1.22,0,5-2.45,8.92-5.87,10.11l-1.79,1,0,.3c3.72-1.83,8.19-3.68,7.68-12.68"/>
            <path class="cls-32" d="M132.47,224.64a6.13,6.13,0,0,1-.81.31V225a6,6,0,0,0,.82-.38m2.28-1.54-.36.21a8.58,8.58,0,0,1-.81.68c.37-.21.76-.4,1.15-.59l0-.3"/>
            <path class="cls-33" d="M142.36,210.72l-2.94.12.49,3.52-1.11,6.36-2.26,1.33c3.42-1.19,5.87-5.13,5.87-10.11,0-.41,0-.82,0-1.22"/>
            <path class="cls-33" d="M139.42,210.84l-.9,0,.28.6-1.15,3.69a12,12,0,0,1-3.26,8.15l.36-.21,1.79-1,2.26-1.33,1.11-6.36-.49-3.52"/>
            <path class="cls-33" d="M127.89,225V225l.07,0,.08,0-.16-.05m10.63-14.08-1.2,0a17.84,17.84,0,0,1,.34,3.12c0,.38,0,.75,0,1.12l1.15-3.69-.28-.6"/>
            <path class="cls-33" d="M137.32,210.92l-2.08.08a15.1,15.1,0,0,1,.32,2.8c.11,5.25-2.55,9.2-6,9.2a4.17,4.17,0,0,1-.61,0,5.79,5.79,0,0,1-2.69-1.13L125,223.36l.12.1a8.44,8.44,0,0,0,2.82,1.49l.16.05a7.62,7.62,0,0,0,.93.18,5.87,5.87,0,0,0,.83,0,6,6,0,0,0,1.85-.28,6.13,6.13,0,0,0,.81-.31l.29-.17a9.29,9.29,0,0,1,.82-.48,8.58,8.58,0,0,0,.81-.68,12,12,0,0,0,3.26-8.15c0-.37,0-.74,0-1.12a17.84,17.84,0,0,0-.34-3.12"/>
            <path class="cls-34" d="M135.56,213.8c.11,5.55-2.86,9.65-6.65,9.16s-7-5.39-7.07-10.94,2.86-9.66,6.65-9.17,6.95,5.39,7.07,11"/>
            <polyline class="cls-9" points="134.77 199.35 126.72 201.44 133.41 203.92 138.8 201.4 134.77 199.35"/>
            <path class="cls-33" d="M122.56,207.35a10.54,10.54,0,0,0,0,9,15.09,15.09,0,0,1-.74-4.36,13.09,13.09,0,0,1,.72-4.67m4.93-4.59a4.49,4.49,0,0,0-3.83,2.47,5.18,5.18,0,0,1,4.22-2.42h.34a4.4,4.4,0,0,0-.73-.06"/>
            <path class="cls-35" d="M127.88,202.81a5.18,5.18,0,0,0-4.22,2.42c-.06.09-.12.2-.19.3a16.25,16.25,0,0,0-.91,1.82,13.09,13.09,0,0,0-.72,4.67,15.09,15.09,0,0,0,.74,4.36v0l10.82-5.63-.65-5.22a9.38,9.38,0,0,0-4.54-2.73h-.34"/>
            <path class="cls-36" d="M131.79,204.65a5.88,5.88,0,0,0-4.49,2.67A9.66,9.66,0,0,0,126,212.9a7.32,7.32,0,0,0,1.7,4.85,5.19,5.19,0,0,0,5.44,1.26,5.37,5.37,0,0,0,2-1.4,13.19,13.19,0,0,0,.46-3.81A13,13,0,0,0,131.79,204.65Z"/>
            <polyline class="cls-13" points="161.37 223.46 160.43 240.7 163.42 240.86 164.35 223.62 161.37 223.46"/>
            <path class="cls-17" d="M171.57,220.56c0,6.4-4,11.07-9,10.42s-9-6.35-9-12.76,4-11.07,9-10.42,9,6.36,9,12.76"/>
            <polyline class="cls-17" points="169.07 222.98 167.97 229.34 160.77 233.56 153.58 230.96 153.58 210.04 161.32 207.64 167.97 214.99 169.07 222.98"/>
            <polyline class="cls-17" points="162.05 207.73 153.58 210.04 157.07 233.68 164.76 230.32 167.97 220.09 162.05 207.73"/>
            <path class="cls-17" d="M166.83,222.66c.13,6.78-3.76,11.77-8.68,11.14s-9-6.63-9.16-13.4,3.75-11.77,8.68-11.14,9,6.63,9.16,13.4"/>
            <path class="cls-31" d="M160.82,233.57a6,6,0,0,1-1.84.28,5.78,5.78,0,0,1-.83,0,7.42,7.42,0,0,1-.94-.18l-.08,0a6.38,6.38,0,0,0,1.88.3,5.13,5.13,0,0,0,1.81-.32v-.06M154.19,232a9,9,0,0,0,2.88,1.59v-.06a8.41,8.41,0,0,1-2.87-1.53m17.38-12.7h0c0,.4,0,.81,0,1.22,0,5-2.44,8.92-5.87,10.11l-1.79,1.05V232c3.72-1.82,8.19-3.67,7.67-12.67"/>
            <path class="cls-32" d="M161.63,233.26a5,5,0,0,1-.81.31v.06a4.85,4.85,0,0,0,.81-.37m2.28-1.54-.36.21a6.31,6.31,0,0,1-.8.67c.37-.2.75-.39,1.15-.59v-.29"/>
            <path class="cls-33" d="M171.52,219.34l-2.94.12.49,3.52-1.1,6.36-2.27,1.33c3.43-1.19,5.87-5.13,5.87-10.11,0-.41,0-.82,0-1.22"/>
            <path class="cls-33" d="M168.58,219.46l-.9,0,.29.6-1.16,3.69a12,12,0,0,1-3.26,8.15l.36-.21,1.79-1.05,2.27-1.33,1.1-6.36-.49-3.52"/>
            <path class="cls-33" d="M157.06,233.57v.06l.06,0,.08,0-.15-.05m10.62-14.08-1.2,0a16.94,16.94,0,0,1,.35,3.12c0,.38,0,.75,0,1.12l1.16-3.69-.29-.6"/>
            <path class="cls-33" d="M166.48,219.54l-2.07.08a15.1,15.1,0,0,1,.32,2.8c.1,5.25-2.55,9.2-6,9.2a4.3,4.3,0,0,1-.62,0,5.79,5.79,0,0,1-2.68-1.13L154.11,232l.08.06a8.41,8.41,0,0,0,2.87,1.53l.15.05a7.42,7.42,0,0,0,.94.18,5.78,5.78,0,0,0,.83,0,6,6,0,0,0,1.84-.28,5,5,0,0,0,.81-.31l.29-.17c.27-.17.54-.33.83-.49a6.31,6.31,0,0,0,.8-.67,12,12,0,0,0,3.26-8.15c0-.37,0-.74,0-1.12a16.94,16.94,0,0,0-.35-3.12"/>
            <path class="cls-34" d="M164.73,222.42c.11,5.55-2.87,9.65-6.66,9.16s-6.95-5.39-7.06-10.94,2.86-9.66,6.65-9.17,7,5.39,7.07,10.95"/>
            <polyline class="cls-9" points="163.93 207.97 155.88 210.06 162.57 212.53 167.97 210.02 163.93 207.97"/>
            <path class="cls-33" d="M151.73,216a10.57,10.57,0,0,0,0,9,15.08,15.08,0,0,1-.73-4.36,12.72,12.72,0,0,1,.72-4.68m4.93-4.58c-1.31,0-2.67.63-3.85,2.48a5.22,5.22,0,0,1,4.23-2.43h.35a4.49,4.49,0,0,0-.73-.06"/>
            <path class="cls-35" d="M157,211.43a5.22,5.22,0,0,0-4.23,2.43l-.17.29a16.14,16.14,0,0,0-.91,1.81,12.72,12.72,0,0,0-.72,4.68,15.08,15.08,0,0,0,.73,4.36v0l10.83-5.63-.66-5.22a9.4,9.4,0,0,0-4.53-2.73H157"/>
            <path class="cls-36" d="M161,213.27a5.85,5.85,0,0,0-4.48,2.67,9.58,9.58,0,0,0-1.35,5.58,7.24,7.24,0,0,0,1.7,4.84,5.15,5.15,0,0,0,5.43,1.27,5.4,5.4,0,0,0,2-1.4,13.54,13.54,0,0,0,.46-3.81A13,13,0,0,0,161,213.27Z"/>
            <polyline class="cls-13" points="377.89 173.73 376.96 156.49 373.97 156.65 374.91 173.89 377.89 173.73"/>
            <path class="cls-17" d="M366.75,153.59c0,6.4,4,11.06,9,10.42s9-6.35,9-12.76-4-11.07-9-10.42-9,6.35-9,12.76"/>
            <polyline class="cls-17" points="369.26 156 370.36 162.37 377.56 166.59 384.75 163.99 384.75 143.07 377 140.67 370.36 148.02 369.26 156"/>
            <polyline class="cls-17" points="376.27 140.76 384.75 143.07 381.25 166.71 373.56 163.35 370.36 153.12 376.27 140.76"/>
            <path class="cls-17" d="M371.5,155.69c-.13,6.78,3.76,11.76,8.68,11.14s9-6.63,9.16-13.41-3.76-11.76-8.68-11.13-9,6.63-9.16,13.4"/>
            <path class="cls-31" d="M366.75,152.37c-.51,9,4,10.85,7.68,12.67l0-.29-1.79-1.05c-3.42-1.2-5.87-5.13-5.87-10.11,0-.41,0-.82.05-1.22h-.05"/>
            <path class="cls-32" d="M374.41,164.75l0,.29c.39.2.78.39,1.15.59a7.19,7.19,0,0,1-.81-.67l-.36-.21"/>
            <path class="cls-33" d="M366.8,152.37c0,.4-.05.81-.05,1.22,0,5,2.45,8.91,5.87,10.11l-2.26-1.33-1.1-6.37.48-3.51-2.94-.12"/>
            <path class="cls-33" d="M369.74,152.49l-.48,3.51,1.1,6.37,2.26,1.33,1.79,1.05.36.21a12,12,0,0,1-3.25-8.16l-1.16-3.68.29-.6-.91,0"/>
            <path class="cls-33" d="M370.65,152.52l-.29.6,1.16,3.68c0-.36,0-.73,0-1.11a17.84,17.84,0,0,1,.34-3.12l-1.19,0"/>
            <path class="cls-31" d="M377.51,166.6v.06a5.09,5.09,0,0,0,1.81.32,6.26,6.26,0,0,0,1.87-.3l-.08,0a5.68,5.68,0,0,1-.93.19,7.7,7.7,0,0,1-.83,0,6,6,0,0,1-1.84-.28m6.62-1.52a8.43,8.43,0,0,1-2.86,1.52v.06a9.06,9.06,0,0,0,2.87-1.58"/>
            <path class="cls-32" d="M376.7,166.29a4.85,4.85,0,0,0,.81.37v-.06a5.64,5.64,0,0,1-.81-.31"/>
            <path class="cls-33" d="M381.27,166.6l-.16,0,.08,0,.07,0v-.06"/>
            <path class="cls-33" d="M371.84,152.57a17.84,17.84,0,0,0-.34,3.12c0,.38,0,.75,0,1.11a12,12,0,0,0,3.25,8.16,7.19,7.19,0,0,0,.81.67l.82.48.3.18a5.64,5.64,0,0,0,.81.31,6,6,0,0,0,1.84.28,7.7,7.7,0,0,0,.83,0,5.68,5.68,0,0,0,.93-.19l.16,0a8.43,8.43,0,0,0,2.86-1.52l.08-.07-1.27-1.53a5.79,5.79,0,0,1-2.69,1.13,4.17,4.17,0,0,1-.61,0c-3.49,0-6.15-4-6-9.21a15.09,15.09,0,0,1,.32-2.79l-2.08-.08"/>
            <path class="cls-34" d="M373.6,155.44c-.11,5.56,2.87,9.66,6.65,9.17s7-5.39,7.07-10.94-2.86-9.66-6.65-9.17-6.95,5.39-7.07,10.94"/>
            <polyline class="cls-9" points="374.39 141.01 382.44 143.09 375.75 145.56 370.36 143.05 374.39 141.01"/>
            <path class="cls-33" d="M386.61,149a12.8,12.8,0,0,1,.71,4.65,14.74,14.74,0,0,1-.74,4.35c.19-.32,2.12-4,0-9m-4.94-4.61a4.62,4.62,0,0,0-.74.06h.35a5.2,5.2,0,0,1,4.22,2.41,4.49,4.49,0,0,0-3.83-2.46"/>
            <path class="cls-35" d="M381.28,144.46h-.35a9.4,9.4,0,0,0-4.53,2.73l-.65,5.22,10.82,5.63v0a14.74,14.74,0,0,0,.74-4.35,12.8,12.8,0,0,0-.71-4.65,15.77,15.77,0,0,0-.92-1.84l-.19-.31a5.2,5.2,0,0,0-4.22-2.41"/>
            <path class="cls-36" d="M377.37,146.3a5.88,5.88,0,0,1,4.49,2.67,9.66,9.66,0,0,1,1.35,5.58,7.29,7.29,0,0,1-1.7,4.84,5.17,5.17,0,0,1-5.44,1.27,5.37,5.37,0,0,1-2-1.4,13.21,13.21,0,0,1-.46-3.82A13,13,0,0,1,377.37,146.3Z"/>
            <polyline class="cls-13" points="280.96 230.88 280.02 213.63 277.03 213.8 277.98 231.04 280.96 230.88"/>
            <path class="cls-17" d="M269.82,210.73c0,6.4,4,11.07,9,10.43s9-6.36,9-12.76-4-11.07-9-10.43-9,6.36-9,12.76"/>
            <polyline class="cls-17" points="272.32 213.15 273.43 219.51 280.62 223.74 287.81 221.13 287.81 200.22 280.07 197.81 273.43 205.16 272.32 213.15"/>
            <polyline class="cls-17" points="279.34 197.91 287.81 200.22 284.31 223.85 276.63 220.5 273.43 210.26 279.34 197.91"/>
            <path class="cls-17" d="M274.56,212.84c-.13,6.77,3.76,11.76,8.69,11.13s9-6.62,9.15-13.4-3.75-11.76-8.68-11.14-9,6.63-9.16,13.41"/>
            <path class="cls-31" d="M269.82,209.51c-.52,9,3.95,10.85,7.67,12.68v-.3l-1.79-1c-3.43-1.19-5.87-5.12-5.87-10.11,0-.41,0-.81.05-1.21h-.05"/>
            <path class="cls-32" d="M277.48,221.89v.3c.4.19.78.39,1.15.59a7.3,7.3,0,0,1-.81-.68l-.35-.21"/>
            <path class="cls-33" d="M269.87,209.52c0,.4-.05.8-.05,1.21,0,5,2.44,8.92,5.87,10.11l-2.26-1.33-1.11-6.36.49-3.52-2.94-.11"/>
            <path class="cls-33" d="M272.81,209.63l-.49,3.52,1.11,6.36,2.26,1.33,1.79,1,.35.21a12,12,0,0,1-3.25-8.15l-1.15-3.69.28-.59-.9,0"/>
            <path class="cls-33" d="M273.71,209.67l-.28.59,1.15,3.69c0-.37,0-.74,0-1.11a17.74,17.74,0,0,1,.35-3.12l-1.2-.05"/>
            <path class="cls-31" d="M280.57,223.75v.06a5.34,5.34,0,0,0,1.81.31,6.38,6.38,0,0,0,1.88-.29l-.08,0a7.62,7.62,0,0,1-.93.18,5.9,5.9,0,0,1-.83.06,6.33,6.33,0,0,1-1.85-.28m6.62-1.52a8.61,8.61,0,0,1-2.86,1.52v.06a9.41,9.41,0,0,0,2.87-1.58"/>
            <path class="cls-32" d="M279.76,223.44a5.82,5.82,0,0,0,.81.37v-.06a7.14,7.14,0,0,1-.81-.31"/>
            <path class="cls-33" d="M284.33,223.75l-.15,0,.08,0,.06,0v-.06"/>
            <path class="cls-33" d="M274.91,209.72a17.74,17.74,0,0,0-.35,3.12c0,.37,0,.74,0,1.11a12,12,0,0,0,3.25,8.15,7.3,7.3,0,0,0,.81.68c.29.15.56.31.83.48l.29.18a7.14,7.14,0,0,0,.81.31,6.33,6.33,0,0,0,1.85.28,5.9,5.9,0,0,0,.83-.06,7.62,7.62,0,0,0,.93-.18l.15,0a8.61,8.61,0,0,0,2.86-1.52l.09-.07L286,220.62a5.81,5.81,0,0,1-2.68,1.14c-.21,0-.41,0-.61,0-3.5,0-6.15-4-6-9.21a15.89,15.89,0,0,1,.31-2.79l-2.07-.08"/>
            <path class="cls-34" d="M276.67,212.59c-.12,5.55,2.86,9.66,6.65,9.17s6.95-5.39,7.06-10.95-2.86-9.66-6.65-9.17-7,5.39-7.06,11"/>
            <polyline class="cls-9" points="277.46 198.15 285.51 200.23 278.81 202.71 273.43 200.19 277.46 198.15"/>
            <path class="cls-33" d="M289.66,206.14a12.66,12.66,0,0,1,.72,4.67,15.08,15.08,0,0,1-.73,4.36c.16-.28,2.14-3.93,0-9m-4.93-4.59a4.51,4.51,0,0,0-.73.07l.34,0a5.23,5.23,0,0,1,4.23,2.42c-1.18-1.84-2.54-2.47-3.84-2.47"/>
            <path class="cls-35" d="M284.34,201.6l-.34,0a9.32,9.32,0,0,0-4.53,2.73l-.66,5.21,10.83,5.63v0a15.08,15.08,0,0,0,.73-4.36,12.66,12.66,0,0,0-.72-4.67,14,14,0,0,0-.91-1.82l-.18-.3a5.23,5.23,0,0,0-4.23-2.42"/>
            <path class="cls-36" d="M280.44,203.45a5.85,5.85,0,0,1,4.48,2.66,9.71,9.71,0,0,1,1.36,5.58,7.28,7.28,0,0,1-1.71,4.85,5.16,5.16,0,0,1-5.44,1.26,5.33,5.33,0,0,1-2-1.4,13.14,13.14,0,0,1-.46-3.81A13,13,0,0,1,280.44,203.45Z"/>
            <polyline class="cls-13" points="318.75 208.39 317.81 191.16 314.83 191.32 315.77 208.56 318.75 208.39"/>
            <path class="cls-17" d="M307.61,188.25c0,6.4,4,11.07,9,10.43s9-6.36,9-12.76-4-11.07-9-10.43-9,6.36-9,12.76"/>
            <polyline class="cls-17" points="310.11 190.67 311.22 197.03 318.41 201.26 325.61 198.65 325.61 177.74 317.86 175.33 311.22 182.68 310.11 190.67"/>
            <polyline class="cls-17" points="317.13 175.43 325.61 177.74 322.11 201.37 314.42 198.02 311.22 187.78 317.13 175.43"/>
            <path class="cls-17" d="M312.36,190.36c-.14,6.78,3.75,11.76,8.68,11.13s9-6.62,9.16-13.4-3.76-11.76-8.68-11.14-9,6.63-9.16,13.41"/>
            <path class="cls-31" d="M307.61,187c-.51,9,4,10.85,7.68,12.68l0-.3-1.79-1c-3.43-1.19-5.87-5.12-5.87-10.11,0-.41,0-.81.05-1.22h-.05"/>
            <path class="cls-32" d="M315.27,199.41l0,.3c.39.19.78.39,1.15.59a10.28,10.28,0,0,1-.81-.67l-.36-.22"/>
            <path class="cls-33" d="M307.66,187c0,.41-.05.81-.05,1.22,0,5,2.44,8.92,5.87,10.11L311.22,197l-1.11-6.36.49-3.52-2.94-.12"/>
            <path class="cls-33" d="M310.6,187.15l-.49,3.52,1.11,6.36,2.26,1.33,1.79,1,.36.22a12.05,12.05,0,0,1-3.26-8.16l-1.15-3.69.28-.59-.9,0"/>
            <path class="cls-33" d="M311.5,187.19l-.28.59,1.15,3.69c0-.36,0-.73,0-1.11a17.74,17.74,0,0,1,.34-3.12l-1.2-.05"/>
            <path class="cls-31" d="M318.36,201.27v.06a5.29,5.29,0,0,0,1.8.31,6.67,6.67,0,0,0,1.88-.29l-.08,0a7.62,7.62,0,0,1-.93.18,5.9,5.9,0,0,1-.83.06,6.33,6.33,0,0,1-1.85-.28m6.66-1.55a8.43,8.43,0,0,1-2.9,1.55v.06a8.93,8.93,0,0,0,2.91-1.61"/>
            <path class="cls-32" d="M317.56,201a5.82,5.82,0,0,0,.81.37v-.06a7.77,7.77,0,0,1-.8-.31"/>
            <path class="cls-33" d="M322.12,201.27l-.15,0,.08,0,.06,0v-.06"/>
            <path class="cls-33" d="M312.7,187.24a17.74,17.74,0,0,0-.34,3.12c0,.38,0,.75,0,1.11a12.05,12.05,0,0,0,3.26,8.16,10.28,10.28,0,0,0,.81.67c.28.15.56.31.82.48l.3.18a7.77,7.77,0,0,0,.8.31,6.33,6.33,0,0,0,1.85.28,5.9,5.9,0,0,0,.83-.06,7.62,7.62,0,0,0,.93-.18l.15,0a8.43,8.43,0,0,0,2.9-1.55l.05,0-1.28-1.54a5.77,5.77,0,0,1-2.68,1.14c-.21,0-.41,0-.61,0-3.49,0-6.15-4-6-9.21a15,15,0,0,1,.32-2.79l-2.08-.08"/>
            <path class="cls-34" d="M314.46,190.11c-.12,5.55,2.86,9.66,6.65,9.17s6.95-5.39,7.07-10.95-2.87-9.66-6.65-9.17-7,5.4-7.07,11"/>
            <polyline class="cls-9" points="315.25 175.67 323.3 177.75 316.61 180.23 311.22 177.71 315.25 175.67"/>
            <path class="cls-33" d="M327.45,183.65a13,13,0,0,1,.73,4.68,15.56,15.56,0,0,1-.74,4.37,10.58,10.58,0,0,0,0-9m-4.92-4.58a4.53,4.53,0,0,0-.74.07l.35,0a5.2,5.2,0,0,1,4.23,2.44c-1.17-1.86-2.54-2.49-3.84-2.49"/>
            <path class="cls-35" d="M322.14,179.12l-.35,0a9.32,9.32,0,0,0-4.53,2.73l-.65,5.22,10.82,5.62h0a15.56,15.56,0,0,0,.74-4.37,13,13,0,0,0-.73-4.68,13.94,13.94,0,0,0-.91-1.81l-.17-.28a5.2,5.2,0,0,0-4.23-2.44"/>
            <path class="cls-36" d="M318.23,181a5.87,5.87,0,0,1,4.49,2.66,9.71,9.71,0,0,1,1.35,5.59,7.31,7.31,0,0,1-1.7,4.84,5.17,5.17,0,0,1-5.44,1.26,5.29,5.29,0,0,1-2-1.4,13.51,13.51,0,0,1-.45-3.81A13,13,0,0,1,318.23,181Z"/>
            <polyline class="cls-13" points="351.08 190.05 350.14 172.81 347.16 172.98 348.1 190.22 351.08 190.05"/>
            <path class="cls-17" d="M339.94,169.91c0,6.4,4,11.07,9,10.43s9-6.36,9-12.76-4-11.07-9-10.43-9,6.36-9,12.76"/>
            <polyline class="cls-17" points="342.45 172.33 343.55 178.69 350.75 182.92 357.94 180.31 357.94 159.39 350.19 156.99 343.55 164.34 342.45 172.33"/>
            <polyline class="cls-17" points="349.46 157.08 357.94 159.39 354.44 183.03 346.75 179.68 343.55 169.44 349.46 157.08"/>
            <path class="cls-17" d="M344.69,172c-.13,6.77,3.75,11.76,8.68,11.13s9-6.62,9.16-13.4-3.75-11.76-8.68-11.14-9,6.63-9.16,13.41"/>
            <path class="cls-31" d="M339.94,168.69c-.51,9,4,10.85,7.68,12.68l0-.3-1.79-1c-3.42-1.19-5.87-5.13-5.87-10.11,0-.41,0-.81.05-1.22h-.05"/>
            <path class="cls-32" d="M347.6,181.07l0,.3c.39.19.77.38,1.14.58a7.1,7.1,0,0,1-.8-.67l-.36-.21"/>
            <path class="cls-33" d="M340,168.69c0,.41-.05.81-.05,1.22,0,5,2.45,8.92,5.87,10.11l-2.26-1.33-1.1-6.36.48-3.52-2.94-.12"/>
            <path class="cls-33" d="M342.93,168.81l-.48,3.52,1.1,6.36,2.26,1.33,1.79,1,.36.21a12.07,12.07,0,0,1-3.26-8.15l-1.15-3.69.28-.59-.9,0"/>
            <path class="cls-33" d="M343.83,168.85l-.28.59,1.15,3.69c0-.36,0-.74,0-1.11a17.85,17.85,0,0,1,.34-3.13l-1.2,0"/>
            <path class="cls-31" d="M350.7,182.93V183a5.3,5.3,0,0,0,1.81.31,6.31,6.31,0,0,0,1.87-.3l-.08,0a7.62,7.62,0,0,1-.93.18,5.9,5.9,0,0,1-.83.06,6.21,6.21,0,0,1-1.84-.28m6.62-1.52a8.4,8.4,0,0,1-2.86,1.51V183a9.32,9.32,0,0,0,2.87-1.57"/>
            <path class="cls-32" d="M349.91,182.63a6.91,6.91,0,0,0,.79.36v-.06a5.82,5.82,0,0,1-.79-.3"/>
            <path class="cls-33" d="M354.46,182.92l-.16.05.08,0,.07,0v-.06"/>
            <path class="cls-33" d="M345,168.89a17.85,17.85,0,0,0-.34,3.13c0,.37,0,.75,0,1.11a12.07,12.07,0,0,0,3.26,8.15,7.1,7.1,0,0,0,.8.67c.29.16.57.32.83.49l.32.19a5.82,5.82,0,0,0,.79.3,6.21,6.21,0,0,0,1.84.28,5.9,5.9,0,0,0,.83-.06,7.62,7.62,0,0,0,.93-.18l.16-.05a8.4,8.4,0,0,0,2.86-1.51l.08-.07-1.27-1.54a5.8,5.8,0,0,1-2.69,1.14c-.2,0-.41,0-.61,0-3.49,0-6.15-4-6-9.21a15,15,0,0,1,.32-2.79l-2.08-.09"/>
            <path class="cls-34" d="M346.79,171.77c-.11,5.55,2.86,9.66,6.65,9.17s6.95-5.4,7.07-10.95-2.86-9.66-6.65-9.17-6.95,5.4-7.07,11"/>
            <polyline class="cls-9" points="347.58 157.33 355.63 159.41 348.94 161.89 343.55 159.37 347.58 157.33"/>
            <path class="cls-33" d="M359.79,165.31a13,13,0,0,1,.72,4.68,14.75,14.75,0,0,1-.74,4.36,10.57,10.57,0,0,0,0-9m-4.93-4.58a3.64,3.64,0,0,0-.74.07l.35,0a5.19,5.19,0,0,1,4.23,2.44c-1.17-1.86-2.53-2.49-3.84-2.49"/>
            <path class="cls-35" d="M354.47,160.78l-.35,0a9.32,9.32,0,0,0-4.53,2.73l-.65,5.21,10.82,5.63v0a14.75,14.75,0,0,0,.74-4.36,13,13,0,0,0-.72-4.68,17,17,0,0,0-.91-1.81l-.18-.28a5.19,5.19,0,0,0-4.23-2.44"/>
            <path class="cls-36" d="M350.56,162.63a5.85,5.85,0,0,1,4.49,2.66,9.7,9.7,0,0,1,1.35,5.58,7.32,7.32,0,0,1-1.7,4.85,5.17,5.17,0,0,1-5.44,1.26,5.37,5.37,0,0,1-2-1.4,13.51,13.51,0,0,1-.45-3.81A13,13,0,0,1,350.56,162.63Z"/>
            <polyline class="cls-8" points="299.27 485.45 132.36 485.45 132.36 304.29 299.27 304.29 299.27 485.45"/>
            <polyline class="cls-34" points="292.33 477.91 139.31 477.91 139.31 311.83 292.33 311.83 292.33 477.91"/>
            <polyline class="cls-17" points="181.79 350.52 153.97 350.52 153.97 328.42 181.79 328.42 181.79 350.52"/>
            <polyline class="cls-17" points="229.75 411.2 208.09 443.73 251.81 444.95 229.75 411.2"/>
            <polyline class="cls-8" points="417.33 404.51 299.27 485.45 299.27 304.29 417.33 223.36 417.33 404.51"/>
            <polyline class="cls-34" points="412.42 400.34 304.18 474.54 304.18 308.46 412.42 234.27 412.42 400.34"/>
            <polyline class="cls-17" points="334.23 326.56 314.55 340.04 314.55 317.94 334.23 304.44 334.23 326.56"/>
            <polyline class="cls-17" points="368.15 363.98 352.83 407.01 383.76 387.03 368.15 363.98"/>
            <polyline class="cls-8" points="135.74 485.45 25.12 455.39 25.12 274.23 135.74 304.29 135.74 485.45"/>
            <polyline class="cls-34" points="131.13 476.66 29.72 449.1 29.72 283.02 131.13 310.58 131.13 476.66"/>
            <polyline class="cls-17" points="57.88 329.36 39.44 324.36 39.44 302.24 57.88 307.25 57.88 329.36"/>
            <polyline class="cls-37" points="57.88 315.3 57.88 329.36 48.66 326.86 48.66 367.17 84.5 376.91 84.5 328.65 79.16 321.08 57.88 315.3"/>
            <polyline class="cls-17" points="48.66 312.79 48.66 326.86 57.88 329.36 57.88 315.3 48.66 312.79"/>
            <polyline class="cls-17" points="89.66 398.68 75.31 427.31 104.28 436.4 89.66 398.68"/>
            <polyline class="cls-8" points="413.93 219.44 300.76 292.57 273.11 234.78 384 166.63 413.93 219.44"/>
            <polyline class="cls-34" points="405.95 217.18 302.96 284.06 281.09 237.04 381.81 175.14 405.95 217.18"/>
            <polyline class="cls-8" points="141.56 301.04 31.56 268.83 62.79 205.66 167.88 239.78 141.56 301.04"/>
            <polyline class="cls-34" points="139.5 293.35 39.14 264.27 64.85 213.35 160.3 244.34 139.5 293.35"/>
            <polyline class="cls-13" points="135.19 493.65 134.72 301.39 164.19 243.59 161.53 242.24 131.73 300.68 132.2 493.65 135.19 493.65"/>
            <polyline class="cls-13" points="29.22 460.51 29.22 274.64 66.19 211.53 63.61 210.02 26.23 273.83 26.23 460.51 29.22 460.51"/>
            <polyline class="cls-13" points="33.21 265.54 135.29 297.55 136.18 294.7 34.1 262.69 33.21 265.54"/>
            <polyline class="cls-13" points="85.86 279.5 59.23 221.51 56.52 222.76 83.14 280.74 85.86 279.5"/>
            <polyline class="cls-13" points="95.41 284.4 155.86 259.16 154.71 256.4 94.25 281.65 95.41 284.4"/>
            <polyline class="cls-13" points="277.2 238.17 309.72 301.39 306.07 487.26 309.06 487.32 312.72 300.69 279.85 236.81 277.2 238.17 277.2 238.17"/>
            <polyline class="cls-13" points="413.92 414.62 415.42 222.01 383.71 171.52 381.18 173.11 412.43 222.86 410.93 414.59 413.92 414.62"/>
            <polyline class="cls-13" points="305.01 288.61 411.34 218.25 409.69 215.76 303.36 286.12 305.01 288.61"/>
            <polyline class="cls-13" points="389.57 185.23 361.28 248.07 364 249.29 392.3 186.45 389.57 185.23"/>
            <polyline class="cls-13" points="357.97 250.69 286.31 249.28 286.25 252.26 357.91 253.68 357.97 250.69"/>
            <path class="cls-13" d="M26.23,401.48H27l-.71-.14v.14H27l-.71-.14c0,.07-.15.55-.37,1.17-1.69,4.81-8.18,20.36-14.22,34.62-3,7.14-5.93,14-8.09,19L0,464.46l2.75,1.18s6.58-15.33,13.17-30.94c3.3-7.81,6.6-15.69,9.07-21.77,1.24-3,2.27-5.62,3-7.54.36-.95.65-1.74.85-2.35l.25-.79a2.7,2.7,0,0,0,.13-.77h-3"/>
            <polyline class="cls-13" points="130.73 414.16 106.26 493.21 109.11 494.09 133.59 415.05 130.73 414.16"/>
            <path class="cls-13" d="M412.53,350.16l-.12.72a6.45,6.45,0,0,0,.41,1.87c.89,2.6,3.16,7.48,6.11,13.49,8.83,18,23.67,45.65,23.67,45.66l2.63-1.41s-1.87-3.49-4.68-8.81c-4.22-8-10.55-20-15.82-30.48-2.63-5.23-5-10.06-6.7-13.77-.85-1.85-1.53-3.42-2-4.6-.23-.59-.41-1.08-.52-1.44l-.11-.43v-.1h0l-.33,0h.33v0l-.33,0h-.69l.95.37.07-.37h-1l.95.37-2.78-1.09h0"/>
            <polyline class="cls-13" points="308.7 399.15 338.49 487.77 341.32 486.82 311.53 398.2 308.7 399.15"/>
            <g class="cls-38">
              <rect class="cls-24" x="134.72" y="243.36" width="173.38" height="243.71"/>
            </g>
            <path class="cls-39" d="M139.31,477.91V311.83h153V477.91h-153m-3.57-173.62h0V485l2.13.14c3.61.22,7.21.3,10.81.3,4.48,0,9-.12,13.46-.21q4.11-.08,8.22-.07c5.92,0,11.85.11,17.77.28H275.6a116.6,116.6,0,0,0,23.67-5.23V304.52c-5.55.32-11.1.52-16.65.82l-21,.63c-14,.41-28,.48-42,.53s-28-.1-42-.5l-21-.62c-7-.37-14-.58-21-1.09"/>
            <path class="cls-40" d="M266.92,431.13V407.3h13.46v23.83H266.92M156.66,467.27V401.48h65.79v20.67l7.29-10.95L251.8,445l-29.35-.82v23.14H156.66M154,350.52V328.41h27.82v8H222v54.38H167.88V350.52H154m138.36-38.69h-153V477.91h153V311.83"/>
            <polyline class="cls-26" points="181.79 328.42 153.97 328.42 153.97 350.52 167.88 350.52 167.88 336.45 181.79 336.45 181.79 328.42"/>
            <polyline class="cls-41" points="221.96 336.45 181.79 336.45 181.79 350.52 167.88 350.52 167.88 390.83 221.96 390.83 221.96 336.45"/>
            <polyline class="cls-26" points="181.79 336.45 167.88 336.45 167.88 350.52 181.79 350.52 181.79 336.45"/>
            <polyline class="cls-26" points="229.75 411.2 222.45 422.15 222.45 444.13 251.81 444.95 229.75 411.2"/>
            <polyline class="cls-42" points="280.38 407.31 266.92 407.31 266.92 431.13 280.38 431.13 280.38 407.31"/>
            <path class="cls-39" d="M308.1,298.24,299.72,304l3.88.25c-1.44.11-2.89.2-4.33.29v175.7q2.53-.87,5-1.9l2-.82.08-4.44-2.17,1.48V308.46l5.47-3.74.07-3.33-1.05-2.05-.88.52.8-.66-.49-1"/>
            <polyline class="cls-40" points="309.65 304.72 304.18 308.46 304.18 474.54 306.35 473.06 309.65 304.72"/>
            <path class="cls-39" d="M134.73,304l.44,181,.57,0V304.29l-1-.27"/>
            <path class="cls-39" d="M362.48,245.4l-8,5.22,2.48,0,4.53-3,1-2.28M346.9,196.59q-9.13,5.25-18.36,10.33c-18.15,9.88-36.46,19.47-55.43,27.86h0l29.1,56.85,1.87-1.21L277.2,238.17h0l2.65-1.36,6.46,12.55v-.08h.48L281.09,237l65.81-40.45m34.9-21.45h0l6.91,12,.54-1.2-3.05-4.85-4.4-6"/>
            <path class="cls-40" d="M381.8,175.14h0c-11.39,7.59-23.07,14.65-34.9,21.45L281.09,237l5.7,12.25,67.66,1.33,8-5.22,26.23-58.24-6.91-12"/>
            <polyline class="cls-39" points="166.11 243.9 163.86 244.26 142.83 285.49 139.5 293.35 138.91 293.18 135.77 299.34 138.1 300.03 155.51 268.56 166.11 243.9"/>
            <polyline class="cls-40" points="142.83 285.49 138.91 293.18 139.5 293.35 142.83 285.49"/>
            <polyline class="cls-39" points="391.15 188.99 390.54 190.35 405.95 217.18 367.11 242.4 366.12 244.59 408.48 216.56 391.15 188.99"/>
            <polyline class="cls-40" points="390.54 190.35 367.11 242.4 405.95 217.18 390.54 190.35"/>
            <path class="cls-24" d="M412.2,216.4l1.73,3-.09.05,1.58,2.52,0,2.49,1.93-1.14-5.13-7"/>
            <path class="cls-39" d="M417.33,223.36h0c-.64.53-1.28,1.06-1.93,1.58l-1,125.94h.65l.33,0h0v.1l.11.43c.11.36.29.85.52,1.44.32.83.76,1.87,1.29,3.06V223.36"/>
            <polyline class="cls-39" points="410.14 213.6 413.84 219.49 413.93 219.44 412.2 216.4 410.14 213.6"/>
            <path class="cls-39" d="M411,401.3l-80,54.85,2,6,3.6-2.41,3.42-2.28L411,408.88l.06-7.58M320,290.1l-9.39,6.44.38.73q4.47-3.63,9-7.17m92.42-62.72c-15.73,12.67-32.06,24.48-48.55,36.07-17.2,11.93-34.57,23.62-52.6,34.37l1.48,2.87,0,1.95,99.66-68.32.05-6.94"/>
            <path class="cls-40" d="M362.64,312.94,406,289.42l-.85,111.75-56.71,34.16-.55-77.79L324.4,373.61V333.3L314.55,340v-22.1l19.68-13.5v8.05L362.64,293v19.93m49.7-78.62-99.66,68.32-1.88,95.8.73-.24L331,456.15l80-54.85,1.31-167"/>
            <polyline class="cls-26" points="334.23 304.44 314.55 317.94 314.55 340.04 324.4 333.3 324.4 319.23 334.23 312.49 334.23 304.44"/>
            <polyline class="cls-41" points="362.64 293.01 334.23 312.49 334.23 326.56 324.4 333.3 324.4 373.61 347.84 357.54 347.59 321.12 362.64 312.94 362.64 293.01"/>
            <polyline class="cls-26" points="334.23 312.49 324.4 319.23 324.4 333.3 334.23 326.56 334.23 312.49"/>
            <polyline class="cls-39" points="410.07 219.1 357.91 253.6 357.91 253.68 357.81 253.68 306.12 287.87 306.6 288.8 411.33 221.11 410.07 219.1"/>
            <path class="cls-39" d="M85,277.55l.59,1.27,8.83,2.77,1.86-.77L85,277.55m75.24-32.7-.13,0-.58,1.38.71-1.4"/>
            <polyline class="cls-40" points="160.07 244.87 76.14 258.33 84.96 277.55 96.24 280.82 154.2 256.61 159.49 246.25 160.07 244.87"/>
            <path class="cls-39" d="M350,253.52l-46.12,30,.89,1.73,47.8-31.63-2.57,0m-62.16-1.22,3.8,7.38-3.43-7.38h-.37"/>
            <polyline class="cls-40" points="288.19 252.3 291.62 259.68 303.86 283.47 349.98 253.52 288.19 252.3"/>
            <polyline class="cls-39" points="39.28 264.31 81.7 277.62 81.17 276.45 39.28 264.31"/>
            <polyline class="cls-40" points="73.08 258.83 39.15 264.27 39.28 264.31 81.17 276.45 73.08 258.83"/>
            <polyline class="cls-39" points="100.82 282.14 98.81 282.98 134.98 294.32 135.99 292.33 100.82 282.14"/>
            <polyline class="cls-40" points="152.11 260.73 100.82 282.14 135.99 292.33 152.11 260.73"/>
            <path class="cls-39" d="M106.93,296.47q12.42,3.75,24.81,7.63v-.89l-24.81-6.74"/>
            <polyline class="cls-39" points="41.97 268.29 45.16 272.82 132.85 298.49 133.6 297.02 41.97 268.29"/>
            <path class="cls-24" d="M29.22,456.5v2.71c13.55,2.54,26.58,7.37,39.59,11.79a287.93,287.93,0,0,0,41,10.66l.92-3L29.22,456.5"/>
            <path class="cls-39" d="M33.2,450.05l-4,2.87v3.58l81.54,22.16,2.16-7L33.2,450.05M53.37,284.47l4.34,6.16,73.42,19.95V414.29l.88.27-.27-110.41q-27.81-6.61-55.49-13.78l-22.88-5.9"/>
            <path class="cls-40" d="M123.22,427.73l-8.92-2.43V401.48l8.92,2.42v23.83M57.71,290.63l21.45,30.45,5.34,1.45v6.12l39.44,56L92.89,407l11.39,29.39-29-9.09,6-11.93L33.2,450.05l79.72,21.66,17.81-57.55.4.13V310.58L57.71,290.63"/>
            <polyline class="cls-41" points="79.16 321.08 84.5 328.65 84.5 322.53 79.16 321.08"/>
            <polyline class="cls-26" points="92.89 407.01 81.29 415.38 75.31 427.31 104.28 436.4 92.89 407.01"/>
            <polyline class="cls-42" points="114.3 401.48 114.3 425.3 123.22 427.73 123.22 403.9 114.3 401.48"/>
            <path class="cls-24" d="M417.33,363v41.56l-3.35,2.3,0,3L421,405.4l-3.67-.88V363h0"/>
            <path class="cls-39" d="M328.45,457.91,309.38,471l-.1,5.15a176.44,176.44,0,0,0,21.18-12.25l-2-6m85.92-101.33L414,406.82l3.35-2.3V363c-1.16-2.41-2.17-4.57-3-6.38"/>
            <polyline class="cls-40" points="310.68 405.04 309.38 470.98 328.45 457.91 310.68 405.04"/>
            <path class="cls-24" d="M113.65,479.45l-.85,2.73.8.14c6.16,1,12.36,1.85,18.58,2.4v-.24l-18.53-5"/>
            <polyline class="cls-39" points="132.03 420.09 131.13 422.97 131.13 476.66 115.8 472.49 113.65 479.45 132.18 484.48 132.03 420.09"/>
            <polyline class="cls-40" points="131.13 422.97 115.8 472.49 131.13 476.66 131.13 422.97"/>
            <path class="cls-24" d="M25.61,455.52,22,458.13c1.4.16,2.79.33,4.17.55h.07v-3l-.62-.17"/>
            <polyline class="cls-39" points="26.23 455.07 25.61 455.52 26.23 455.69 26.23 455.07"/>
            <path class="cls-43" d="M163.86,244.26l-3.66.59-.71,1.4-5.29,10.36.51-.21,1.15,2.76-3.75,1.57L136,292.33l-1,2,1.2.38-.89,2.85L133.6,297l-.75,1.47-1.12,2.19v3.42l.62.19-.62-.14L132,414.56l1.58.49-1.57,5,.16,64.39v.24l3,.25-.44-181V301.4l1.05-2.06,3.14-6.16,3.92-7.69,21-41.23"/>
            <path class="cls-43" d="M29.22,452.92l-3,2.15v3.62c1,.16,2,.34,3,.52v-6.29"/>
            <polyline class="cls-43" points="39.15 264.27 39.14 264.27 41.97 268.29 133.6 297.02 135.29 297.55 136.18 294.7 134.98 294.32 98.81 282.98 95.41 284.4 94.25 281.65 94.38 281.59 85.55 278.82 85.86 279.5 83.14 280.74 81.7 277.62 39.28 264.31 39.15 264.27"/>
            <polyline class="cls-43" points="76.14 258.33 73.08 258.83 81.17 276.45 81.7 277.62 83.14 280.74 85.86 279.5 85.55 278.82 84.96 277.55 76.14 258.33"/>
            <polyline class="cls-43" points="154.71 256.4 154.2 256.61 96.24 280.82 94.38 281.59 94.25 281.65 95.41 284.4 98.81 282.98 100.82 282.14 152.11 260.73 155.86 259.16 154.71 256.4"/>
            <path class="cls-43" d="M311.24,297.82l-2.57,1.52,1.05,2.05-.07,3.33-3.3,168.34-.08,4.44c1-.45,2-.9,3-1.37l.1-5.15,1.3-65.94-2-5.89,2.1-.71,1.88-95.8,0-1.95-1.48-2.87m-31.39-61-2.65,1.36h0l26.88,52.25,4,7.82.49,1,2.37-1.93-.38-.73-4-7.74-.48-.93-1.11.74-1.65-2.49,1.39-.92-.89-1.73-12.24-23.79-3.8-7.38-1.57,0,.06-2.9-6.46-12.55"/>
            <path class="cls-43" d="M415.4,224.94l-3,2.44-.05,6.94L411,401.3l-.06,7.58,0,2.84,3-1.89,0-3,.39-50.24c-.69-1.56-1.21-2.85-1.55-3.83a6.45,6.45,0,0,1-.41-1.87l.12-.72h0l1.83.72h0l1-125.94m-23.92-36.67-.33.72,17.33,27.58,1.21-.81,1.65,2.49-1.27.85,1.26,2,1.1,1.75,0,3.42,3-1.78,0-2.49-1.58-2.52-3.7-5.89-18.66-25.33m-5.28-7.16,3.05,4.85.2-.45-3.25-4.4"/>
            <path class="cls-43" d="M352.55,253.57l-47.8,31.63-1.39.92,1.65,2.49,1.11-.74,51.68-34.19-5.25-.11m57.14-37.81-1.21.81-42.36,28-2.11,4.7-2.73-1.22.18-.39-4.53,3,1,0-.06,2.92,52.16-34.51,1.27-.85-1.65-2.49"/>
            <polyline class="cls-43" points="389.45 185.51 389.25 185.96 388.7 187.16 362.48 245.41 361.46 247.68 361.28 248.07 364 249.29 366.12 244.59 367.11 242.4 390.54 190.35 391.15 188.99 391.48 188.27 389.45 185.51"/>
            <polyline class="cls-43" points="286.31 249.28 286.31 249.36 286.25 252.26 287.82 252.29 288.19 252.3 349.98 253.52 352.55 253.57 357.81 253.68 357.91 253.68 357.91 253.6 357.97 250.69 356.93 250.67 354.45 250.62 286.79 249.29 286.31 249.28"/>
            <path class="cls-43" d="M130.73,414.16l-17.81,57.55-2.16,7-.92,3,3,.52.85-2.73,2.15-7L131.13,423l.89-2.88,1.57-5-1.58-.49-.88-.27-.4-.13"/>
            <path class="cls-43" d="M412.54,350.16h0l-.12.72a6.45,6.45,0,0,0,.41,1.87c.34,1,.86,2.27,1.55,3.83.79,1.81,1.8,4,3,6.38h0v-7.07h0c-.53-1.19-1-2.23-1.29-3.06-.23-.59-.41-1.08-.52-1.44l-.11-.43v-.1h0l-.33,0h-.69l-1.83-.72"/>
            <path class="cls-43" d="M311.53,398.2l-.73.24-2.1.71,2,5.89,17.77,52.87,2,6,2.58-1.7-2-6L311.53,398.2"/>
            <polyline class="cls-44" points="222.45 401.48 156.66 401.48 156.66 467.27 222.45 467.27 222.45 444.13 208.09 443.73 222.45 422.15 222.45 401.48"/>
            <polyline class="cls-45" points="222.45 422.15 208.09 443.73 222.45 444.13 222.45 422.15"/>
            <path class="cls-44" d="M352.83,407l15.32-43,15.61,23-30.93,20m41.62-41.13V342.05l9.52-6.52v23.82l-9.52,6.53M406,289.42l-43.31,23.52v34.45l-14.8,10.15.55,77.79,56.71-34.16L406,289.42"/>
            <polyline class="cls-46" points="362.64 312.94 347.59 321.12 347.84 357.54 362.64 347.39 362.64 312.94"/>
            <polyline class="cls-45" points="368.15 363.98 352.83 407.01 383.76 387.03 368.15 363.98"/>
            <polyline class="cls-47" points="403.97 335.53 394.45 342.05 394.45 365.88 403.97 359.35 403.97 335.53"/>
            <path class="cls-48" d="M18.85,271v2.71c0,15.44-.29,30.87-.12,46.31L19,366.29l.68,46.31c0,1.73.06,3.47.1,5.2.86-2.07,1.66-4,2.4-5.83l.67-45.68L23.08,320c.15-14.54-.06-29.09-.12-43.63l2.16.58v-2.7l1.11.3v-.7l.4-.69-5.18-1.45-2.6-.73"/>
            <polyline class="cls-49" points="25.12 274.23 25.12 276.93 26.23 277.23 26.23 274.53 25.12 274.23"/>
            <polyline class="cls-48" points="29.61 273.98 29.22 274.64 29.22 275.35 51.14 281.3 50.02 279.71 49.27 279.5 29.61 273.98"/>
            <polyline class="cls-49" points="29.22 275.35 29.22 278.03 48.26 283.15 53.37 284.47 51.14 281.3 29.22 275.35"/>
            <polyline class="cls-50" points="26.63 273.14 26.23 273.83 26.23 274.53 26.23 277.23 29.22 278.03 29.22 275.35 29.22 274.64 29.61 273.98 26.63 273.14"/>
            <path class="cls-48" d="M22,420.21c-.66,1.61-1.36,3.28-2.07,5q.39,16.86,1,33.72.71-19.35,1.09-38.7"/>
            <path class="cls-50" d="M22.16,412c-.74,1.8-1.54,3.76-2.4,5.83,0,2.46.1,4.93.16,7.39.71-1.7,1.41-3.37,2.07-5,.06-2.54.11-5.07.16-7.61V412"/>
            <path class="cls-51" d="M50,279.71l1.12,1.59,55.79,15.17Q92,291.94,77,287.59l-27-7.88"/>
            <path class="cls-52" d="M51.14,281.3l2.23,3.17,22.88,5.9q27.66,7.19,55.49,13.78v0q-12.39-3.87-24.81-7.63L51.14,281.3"/>
            <path class="cls-53" d="M131.74,304.1v0l.62.14-.62-.19"/>
            <path class="cls-48" d="M163.56,238.24v.13l4.33,1.41h0l-4.32-1.54m-29.1-9.81,0,.49,26.18,8.5v-.22q-9.9-3.49-19.88-6.74l-6.28-2m-31.15-9.84,0,.22,28.2,9.15,0-.49c-6-2-12-3.93-18.08-5.76q-5.07-1.58-10.13-3.12m-9.75-2.94,6.79,2.2v-.16c-2.26-.68-4.53-1.37-6.8-2M56.78,205,56,206.53c-2.26,4.66-4.6,9.27-6.79,14l-6.65,14c-4.48,9.33-8.72,18.79-12.88,28.28,5.23-9,10.38-17.94,15.28-27.06l7.43-13.63c2.22-4,4.32-8.12,6.47-12.18l1.55.47,1.88-3.82-3.87-1.09L56.78,205"/>
            <path class="cls-50" d="M100.36,217.69v.16l2.94,1,0-.22-3-.9"/>
            <path class="cls-50" d="M131.52,227.47l0,.49,2.94,1,0-.49-2.94-1"/>
            <path class="cls-50" d="M160.62,237.2v.22l2.94,1v-.13l-2.94-1"/>
            <path class="cls-49" d="M62.33,206.58l-1.88,3.82,2.49.76.67-1.14,2.58,1.51-.31.53q23.15,7,46.44,13.47c9.18,2.63,18.47,4.93,27.69,7.41s18.54,4.69,27.87,6.84l-4.33-1.41-2.94-1-26.18-8.5-2.94-1-28.2-9.15-2.94-1-6.79-2.2Q78,211,62.33,206.58"/>
            <path class="cls-50" d="M63.61,210l-.67,1.14,2.94.9.31-.53L63.61,210"/>
            <path class="cls-48" d="M279.32,231l-.42,0c-1.93,1.25-3.87,2.51-5.79,3.79h0l6.21-3.82m28.51-17.52c-9.09,5.23-18.09,10.61-26.94,16.27l0,.28,26.92-16.55"/>
            <path class="cls-50" d="M280.89,229.71l-2,1.28.42,0,1.59-1,0-.28"/>
            <path class="cls-49" d="M381.8,175.14c-19,8.39-37.27,18-55.42,27.86q-9.31,5.15-18.55,10.44L280.91,230l-1.59,1-6.21,3.82h0L381.8,175.14h0"/>
            <path class="cls-52" d="M381.8,175.14,273.11,234.78c19-8.39,37.28-18,55.43-27.86q9.21-5.08,18.36-10.33l34.9-21.45h0"/>
            <path class="cls-54" d="M381.8,175.14l-34.9,21.45c11.83-6.8,23.51-13.86,34.9-21.45"/>
            <path class="cls-52" d="M308.59,299.2l-.8.66.88-.52-.08-.14"/>
            <path class="cls-51" d="M417.33,223.36l-1.93,1.14v.18l1.93-1.32h0"/>
            <path class="cls-52" d="M417.33,223.36l-1.93,1.32v.26c.65-.52,1.29-1.05,1.93-1.58"/>
            <path class="cls-51" d="M412.4,226.28c-17.5,10.5-34.39,21.88-51.12,33.49-14,9.83-27.83,19.81-41.31,30.33l92.43-63.36v-.46"/>
            <path class="cls-52" d="M412.4,226.74,320,290.1q-4.53,3.54-9,7.17l.28.55c18-10.75,35.4-22.44,52.6-34.37,16.49-11.59,32.82-23.4,48.55-36.07v-.64"/>
            <path class="cls-53" d="M311,297.27l-2.37,1.93.08.14,2.57-1.52-.28-.55"/>
            <path class="cls-53" d="M415.4,224.5l-3,1.78v1.1l3-2.44v-.44"/>
            <path class="cls-48" d="M219.67,302c-14,.06-28,.12-42,.54l-21,.63c-7,.37-14,.59-21,1.09H299.27l.21-.32c-5.62-.33-11.24-.53-16.86-.83l-21-.61c-14-.41-28-.46-42-.5"/>
            <path class="cls-51" d="M135.74,304.29h0M299.48,304l-.21.32h0v.23h0v-.23l.45-.31h-.24"/>
            <path class="cls-52" d="M299.27,304.29H135.74c7,.51,14,.72,21,1.09l21,.62c14,.4,28,.45,42,.5s28-.12,42-.53l21-.63c5.55-.3,11.1-.5,16.65-.82v-.23"/>
            <path class="cls-52" d="M299.72,304l-.45.31v.23c1.44-.09,2.89-.18,4.33-.29l-3.88-.25"/>
          </g>
          <g>
            <polygon class="cls-55" points="34.2 321.27 36.29 376.32 134.03 415.04 310.13 415.04 399.83 343.65 399.83 289.62 309.36 358.09 132.22 359.56 34.2 321.27"/>
            <polygon class="cls-56" points="34.2 317.66 36.29 372.71 134.03 411.43 310.13 411.43 399.83 340.04 399.83 286 309.36 354.48 132.22 355.95 34.2 317.66"/>
            <polygon class="cls-14" points="132.78 355.95 132.22 355.95 34.2 317.66 36.29 372.71 132.78 410.94 132.78 355.95"/>
            <polygon class="cls-55" points="310.73 353.44 310.73 410.96 399.83 340.04 399.83 286 310.73 353.44"/>
            <g>
              <path class="cls-57" d="M55.87,359.06a.81.81,0,0,1,.27.17,1.36,1.36,0,0,1,.25.34l1.46,2.83a4.25,4.25,0,0,1-2.41,1.94A5.45,5.45,0,0,1,52,364a8.79,8.79,0,0,1-3.24-2.1,13.52,13.52,0,0,1-2.44-3.43,19.16,19.16,0,0,1-1.53-4.4,23.52,23.52,0,0,1-.53-5,17.13,17.13,0,0,1,.57-4.66,8.67,8.67,0,0,1,1.63-3.23A4.76,4.76,0,0,1,49,339.62a5.47,5.47,0,0,1,3.22.29,7.8,7.8,0,0,1,1.68.85A10.65,10.65,0,0,1,55.38,342a12.82,12.82,0,0,1,1.26,1.47,15,15,0,0,1,1,1.64l-1.25,2a1.19,1.19,0,0,1-.28.31.46.46,0,0,1-.46,0,.93.93,0,0,1-.37-.27c-.12-.13-.24-.28-.37-.45l-.43-.56a5.25,5.25,0,0,0-.56-.61,5.32,5.32,0,0,0-.75-.6,5,5,0,0,0-1-.5,2.67,2.67,0,0,0-1.68-.11,2.52,2.52,0,0,0-1.31,1,5.89,5.89,0,0,0-.85,2.06,14,14,0,0,0-.3,3.1,15.36,15.36,0,0,0,.34,3.36,12,12,0,0,0,.9,2.71,7.43,7.43,0,0,0,1.34,2,4.56,4.56,0,0,0,1.63,1.11,6.28,6.28,0,0,0,.92.26,3,3,0,0,0,.77,0,1.93,1.93,0,0,0,.68-.21,2.49,2.49,0,0,0,.64-.49.92.92,0,0,1,.29-.16A.47.47,0,0,1,55.87,359.06Z"/>
              <path class="cls-57" d="M64.05,351.07a6.74,6.74,0,0,1,2.34,1.47,9.15,9.15,0,0,1,1.82,2.38,13.2,13.2,0,0,1,1.18,3.15,16.16,16.16,0,0,1,.42,3.76,12.75,12.75,0,0,1-.42,3.48,6,6,0,0,1-1.18,2.31,3.29,3.29,0,0,1-1.82,1.07,4.17,4.17,0,0,1-2.34-.25A6.88,6.88,0,0,1,61.69,367a9.55,9.55,0,0,1-1.84-2.41,13,13,0,0,1-1.19-3.19,16.34,16.34,0,0,1-.42-3.78,12.53,12.53,0,0,1,.42-3.45,5.71,5.71,0,0,1,1.19-2.28,3.31,3.31,0,0,1,1.84-1.05A4.35,4.35,0,0,1,64.05,351.07Zm0,13.63a1.25,1.25,0,0,0,1.72-.59,8.19,8.19,0,0,0,.55-3.53,11.35,11.35,0,0,0-.55-3.92,3,3,0,0,0-1.72-1.85,1.29,1.29,0,0,0-1.76.57,7.93,7.93,0,0,0-.56,3.52,11.14,11.14,0,0,0,.56,3.93A3,3,0,0,0,64.05,364.7Z"/>
              <path class="cls-57" d="M74.63,357a6.1,6.1,0,0,1,.68-.59,2.24,2.24,0,0,1,.75-.39,2.64,2.64,0,0,1,.86-.11,3.85,3.85,0,0,1,1,.22,4.42,4.42,0,0,1,1.64,1.08,6.47,6.47,0,0,1,1.2,1.78,9.7,9.7,0,0,1,.75,2.3,13.46,13.46,0,0,1,.25,2.65v10.71l-3.39-1.24V362.73a4.83,4.83,0,0,0-.38-2.06,2,2,0,0,0-1.12-1.11,1.5,1.5,0,0,0-1,0,2.61,2.61,0,0,0-1,.6v12l-3.38-1.24V354.07l2.1.77a1.37,1.37,0,0,1,.82,1.14Z"/>
              <path class="cls-57" d="M87.85,377.17a4.13,4.13,0,0,1-1.43-.88,4.88,4.88,0,0,1-1-1.37,6.47,6.47,0,0,1-.64-1.78,9.55,9.55,0,0,1-.22-2.11v-8.71l-1-.36a.84.84,0,0,1-.45-.41,1.62,1.62,0,0,1-.18-.81v-2l1.79.14.67-3.87c.09-.49.34-.66.74-.51l1.77.65v4.92l2.81,1v3.45l-2.81-1v8.37a2.56,2.56,0,0,0,.19,1,1,1,0,0,0,.55.58.67.67,0,0,0,.31.06.48.48,0,0,0,.22-.05l.17-.06a.28.28,0,0,1,.2,0,.47.47,0,0,1,.24.2,1.36,1.36,0,0,1,.19.4l1,2.77a2.82,2.82,0,0,1-1.47.55A4,4,0,0,1,87.85,377.17Z"/>
              <path class="cls-57" d="M94.85,372a8,8,0,0,0,.86,3.38,3.52,3.52,0,0,0,1.8,1.61,2.2,2.2,0,0,0,1,.16,3.16,3.16,0,0,0,.75-.19l.62-.25a.83.83,0,0,1,.58,0,1.08,1.08,0,0,1,.61.67l1,2.16a3.65,3.65,0,0,1-1.13,1,3.44,3.44,0,0,1-1.24.42,4.58,4.58,0,0,1-1.28,0A6.52,6.52,0,0,1,95,379.2a9.3,9.3,0,0,1-1.82-2.38,13.32,13.32,0,0,1-1.23-3.28,17.4,17.4,0,0,1-.45-4.1,11.52,11.52,0,0,1,.38-3.05A5.94,5.94,0,0,1,93,364.14,3.52,3.52,0,0,1,94.72,363a3.83,3.83,0,0,1,2.33.19,6,6,0,0,1,2.06,1.28,7.78,7.78,0,0,1,1.6,2.1,11.23,11.23,0,0,1,1.05,2.81,14.61,14.61,0,0,1,.38,3.39,7.64,7.64,0,0,1,0,.92,1.28,1.28,0,0,1-.12.52.34.34,0,0,1-.23.21.7.7,0,0,1-.38-.06Zm4.26-1.36a7.07,7.07,0,0,0-.11-1.21,4.58,4.58,0,0,0-.34-1.14,3.36,3.36,0,0,0-.61-.95,2.45,2.45,0,0,0-.93-.62,1.28,1.28,0,0,0-1.51.27,4,4,0,0,0-.72,2.1Z"/>
              <path class="cls-57" d="M107,368.88a7.49,7.49,0,0,1,.68-.6,2.48,2.48,0,0,1,.74-.38,2.73,2.73,0,0,1,.87-.11,3.07,3.07,0,0,1,1,.22,4.27,4.27,0,0,1,1.65,1.08,6.89,6.89,0,0,1,1.2,1.77,9.48,9.48,0,0,1,.74,2.31,13.46,13.46,0,0,1,.26,2.65v10.71l-3.39-1.24V374.58a4.91,4.91,0,0,0-.38-2.07,2,2,0,0,0-1.12-1.1,1.5,1.5,0,0,0-1,0,2.61,2.61,0,0,0-1,.6v12l-3.38-1.25V365.92l2.1.77a1.4,1.4,0,0,1,.82,1.14Z"/>
              <path class="cls-57" d="M120.16,389a3.92,3.92,0,0,1-1.42-.87,5.11,5.11,0,0,1-1-1.37,6.8,6.8,0,0,1-.63-1.78,9.58,9.58,0,0,1-.22-2.12v-8.71l-1-.35a.84.84,0,0,1-.45-.41,1.54,1.54,0,0,1-.19-.81v-2l1.8.15.67-3.87c.09-.49.34-.66.74-.51l1.77.65V372l2.8,1v3.45l-2.8-1v8.36a2.61,2.61,0,0,0,.19,1,1,1,0,0,0,.55.58.66.66,0,0,0,.53,0l.17-.07a.32.32,0,0,1,.19,0,.44.44,0,0,1,.25.19,2,2,0,0,1,.19.41l1,2.76a2.83,2.83,0,0,1-1.47.56A4,4,0,0,1,120.16,389Z"/>
            </g>
            <g>
              <path class="cls-57" d="M180,389a1.25,1.25,0,0,1,.42.08,1.09,1.09,0,0,1,.4.27l2.34,2.47a9.68,9.68,0,0,1-3.85,3,13.53,13.53,0,0,1-5.48,1,13.17,13.17,0,0,1-5.2-1,11.16,11.16,0,0,1-3.9-2.73,12,12,0,0,1-2.46-4.13,15.26,15.26,0,0,1-.86-5.18,14.32,14.32,0,0,1,.93-5.24,12.27,12.27,0,0,1,2.61-4.12,11.69,11.69,0,0,1,4-2.69,13.47,13.47,0,0,1,5.16-1,13.76,13.76,0,0,1,2.7.25,13.33,13.33,0,0,1,2.37.7,10.8,10.8,0,0,1,2,1.08,10.67,10.67,0,0,1,1.65,1.36l-2,2.67a2.13,2.13,0,0,1-.45.45,1.13,1.13,0,0,1-.73.2,1.36,1.36,0,0,1-.6-.14,6.26,6.26,0,0,1-.59-.34l-.69-.44a5.83,5.83,0,0,0-.9-.43,6.41,6.41,0,0,0-1.2-.34,7.76,7.76,0,0,0-1.62-.14,6.51,6.51,0,0,0-2.68.54,5.89,5.89,0,0,0-2.1,1.58,7.33,7.33,0,0,0-1.37,2.55,11.44,11.44,0,0,0-.48,3.46,10.42,10.42,0,0,0,.54,3.48,7.41,7.41,0,0,0,1.45,2.56,6.12,6.12,0,0,0,2.14,1.58,6.43,6.43,0,0,0,2.62.54,11,11,0,0,0,1.47-.08,5.92,5.92,0,0,0,1.24-.26,4.66,4.66,0,0,0,1.09-.49,6.65,6.65,0,0,0,1-.78,2.11,2.11,0,0,1,.45-.28A1.19,1.19,0,0,1,180,389Z"/>
              <path class="cls-57" d="M193.05,377.21a10.56,10.56,0,0,1,3.76.65,8.1,8.1,0,0,1,4.8,4.78,10.55,10.55,0,0,1,.67,3.87,10.73,10.73,0,0,1-.67,3.91,8.45,8.45,0,0,1-1.89,3,8.32,8.32,0,0,1-2.91,1.87,11.29,11.29,0,0,1-7.55,0,8.54,8.54,0,0,1-2.94-1.87,8.33,8.33,0,0,1-1.9-3,10.72,10.72,0,0,1-.68-3.91,10.54,10.54,0,0,1,.68-3.87,8.21,8.21,0,0,1,1.9-2.93,8.5,8.5,0,0,1,2.94-1.85A10.65,10.65,0,0,1,193.05,377.21Zm0,14.67a3.08,3.08,0,0,0,2.75-1.32,7.29,7.29,0,0,0,.88-4,7.21,7.21,0,0,0-.88-4,3.08,3.08,0,0,0-2.75-1.32,3.16,3.16,0,0,0-2.82,1.32,7.2,7.2,0,0,0-.89,4,7.28,7.28,0,0,0,.89,4A3.16,3.16,0,0,0,193.05,391.88Z"/>
              <path class="cls-57" d="M205,395.62V377.49h3.36a1.27,1.27,0,0,1,1.32.91l.3,1a9.58,9.58,0,0,1,.95-.86,5.77,5.77,0,0,1,1.05-.69,6,6,0,0,1,1.23-.45,5.86,5.86,0,0,1,1.44-.17,4.23,4.23,0,0,1,2.72.85,5.2,5.2,0,0,1,1.63,2.26,5.6,5.6,0,0,1,2.53-2.39,6.36,6.36,0,0,1,1.61-.54,8.09,8.09,0,0,1,1.69-.18,7.64,7.64,0,0,1,2.76.47,5.15,5.15,0,0,1,2,1.34,5.83,5.83,0,0,1,1.23,2.17,9.38,9.38,0,0,1,.42,2.91v11.52h-5.42V384.1c0-1.88-.8-2.81-2.41-2.81a2.48,2.48,0,0,0-1.83.72,2.86,2.86,0,0,0-.73,2.09v11.52h-5.42V384.1a3.1,3.1,0,0,0-.61-2.19,2.44,2.44,0,0,0-1.8-.62,3.06,3.06,0,0,0-1.39.33,4.93,4.93,0,0,0-1.23.89v13.11Z"/>
              <path class="cls-57" d="M240.87,372.52a3,3,0,0,1-.26,1.22,3.23,3.23,0,0,1-.72,1,3.51,3.51,0,0,1-1.06.68,3.25,3.25,0,0,1-1.28.25,3,3,0,0,1-1.24-.25,3.62,3.62,0,0,1-1-.68,3.14,3.14,0,0,1-.69-1,3,3,0,0,1-.26-1.22,3.06,3.06,0,0,1,.26-1.24,3.18,3.18,0,0,1,.69-1,3.24,3.24,0,0,1,1-.68,3.19,3.19,0,0,1,1.24-.25,3.43,3.43,0,0,1,1.28.25,3.16,3.16,0,0,1,1.06.68,3.27,3.27,0,0,1,.72,1A3.06,3.06,0,0,1,240.87,372.52Zm-.56,5v18.13h-5.42V377.49Z"/>
              <path class="cls-57" d="M249.11,379.45a11.56,11.56,0,0,1,1.08-.91,6.54,6.54,0,0,1,1.2-.71,7,7,0,0,1,1.38-.45,7.39,7.39,0,0,1,1.62-.17,6.27,6.27,0,0,1,2.63.52,5.41,5.41,0,0,1,1.93,1.43,6.1,6.1,0,0,1,1.19,2.19,9,9,0,0,1,.4,2.75v11.52h-5.42V384.1a3.15,3.15,0,0,0-.61-2.07,2.19,2.19,0,0,0-1.8-.74,3.78,3.78,0,0,0-1.67.37,6.69,6.69,0,0,0-1.51,1v12.94h-5.42V377.49h3.35a1.27,1.27,0,0,1,1.33.91Z"/>
              <path class="cls-57" d="M280.5,378.05v2a1,1,0,0,1-.26.71,1.77,1.77,0,0,1-.86.41l-1.31.29a6.91,6.91,0,0,1,.16.79,5.73,5.73,0,0,1,.06.84,5.18,5.18,0,0,1-.57,2.45,5.47,5.47,0,0,1-1.55,1.84,7.14,7.14,0,0,1-2.34,1.17A9.6,9.6,0,0,1,271,389c-.28,0-.56,0-.83,0a6.93,6.93,0,0,1-.78-.1c-.4.25-.59.52-.59.82a.67.67,0,0,0,.49.66,4.62,4.62,0,0,0,1.29.28c.54.05,1.14.09,1.83.1s1.38.06,2.08.13a16.11,16.11,0,0,1,2.1.32,5.57,5.57,0,0,1,1.82.74,3.83,3.83,0,0,1,1.3,1.35,4.37,4.37,0,0,1,.49,2.16,5.23,5.23,0,0,1-.6,2.4,6.32,6.32,0,0,1-1.75,2.08,9.31,9.31,0,0,1-2.83,1.46,12.55,12.55,0,0,1-3.85.55,14.65,14.65,0,0,1-3.68-.41,8.88,8.88,0,0,1-2.57-1,4.55,4.55,0,0,1-1.51-1.52,3.49,3.49,0,0,1-.49-1.78,2.91,2.91,0,0,1,.7-2,4.91,4.91,0,0,1,2-1.3,3,3,0,0,1-1-1,3.07,3.07,0,0,1-.38-1.63,2.93,2.93,0,0,1,.13-.85,3.28,3.28,0,0,1,.45-.87,4.84,4.84,0,0,1,.76-.82,5.39,5.39,0,0,1,1.08-.68,5.9,5.9,0,0,1-2.23-2,5,5,0,0,1-.83-2.87,5.25,5.25,0,0,1,.58-2.46,5.61,5.61,0,0,1,1.58-1.85,7.5,7.5,0,0,1,2.37-1.17,10,10,0,0,1,3-.41,9.21,9.21,0,0,1,4.09.87Zm-5.35,18.24a1,1,0,0,0-.58-.94,4.9,4.9,0,0,0-1.5-.41c-.63-.08-1.32-.13-2.08-.15s-1.52-.06-2.28-.13a3.46,3.46,0,0,0-.83.78,1.56,1.56,0,0,0-.33,1,1.48,1.48,0,0,0,.17.7,1.36,1.36,0,0,0,.59.54,4,4,0,0,0,1.13.36,9.87,9.87,0,0,0,1.79.13,10.19,10.19,0,0,0,1.92-.14,4.14,4.14,0,0,0,1.2-.38A1.48,1.48,0,0,0,275,397,1.56,1.56,0,0,0,275.15,396.29ZM271,385.6a2.23,2.23,0,0,0,2.55-2.41,2.41,2.41,0,0,0-.6-1.73,3.33,3.33,0,0,0-3.9,0,2.41,2.41,0,0,0-.6,1.73,2.93,2.93,0,0,0,.15,1,1.89,1.89,0,0,0,.46.77,2.18,2.18,0,0,0,.79.5A3.31,3.31,0,0,0,271,385.6Z"/>
            </g>
            <g>
              <path class="cls-57" d="M338.51,354.73a4.41,4.41,0,0,1-.37.83,1.73,1.73,0,0,1-.5.54.89.89,0,0,1-.59.15l-.71-.05a3.29,3.29,0,0,0-.9.08,3.38,3.38,0,0,0-1.16.54,4.86,4.86,0,0,0-1.67,1.78,4.44,4.44,0,0,0-.55,2.15,1.13,1.13,0,0,0,.33,1,1.32,1.32,0,0,0,.87.23,6.17,6.17,0,0,0,1.23-.19c.46-.13.93-.23,1.41-.32a7.63,7.63,0,0,1,1.41-.13,2.17,2.17,0,0,1,1.23.39,2.49,2.49,0,0,1,.87,1.19,6.4,6.4,0,0,1,.33,2.3,14.41,14.41,0,0,1-.41,3.35,16.3,16.3,0,0,1-1.2,3.3,15.17,15.17,0,0,1-1.94,3,12.26,12.26,0,0,1-2.62,2.37,9.27,9.27,0,0,1-1.64.87,6.81,6.81,0,0,1-1.61.44,5.09,5.09,0,0,1-1.46,0,2.78,2.78,0,0,1-1.2-.47l1.18-3.36a3.48,3.48,0,0,1,.38-.71,1.67,1.67,0,0,1,.5-.52,1,1,0,0,1,.71-.18c.24.05.51.1.82.14a3.67,3.67,0,0,0,1,0,3.58,3.58,0,0,0,1.4-.62,5.36,5.36,0,0,0,1.69-1.8,5,5,0,0,0,.61-2.49,1.47,1.47,0,0,0-.34-1.12,1.11,1.11,0,0,0-.87-.28,5,5,0,0,0-1.22.21c-.46.14-.93.26-1.41.37a5.73,5.73,0,0,1-1.4.16,2,2,0,0,1-1.23-.4,2.65,2.65,0,0,1-.87-1.3,7.78,7.78,0,0,1-.33-2.56,11.73,11.73,0,0,1,.39-2.87,15.32,15.32,0,0,1,1.15-3,14.7,14.7,0,0,1,1.86-2.83,11.81,11.81,0,0,1,2.51-2.28,10.57,10.57,0,0,1,1.55-.86,6.26,6.26,0,0,1,1.42-.45,4.17,4.17,0,0,1,1.26-.05,2.52,2.52,0,0,1,1,.35Z"/>
              <path class="cls-57" d="M347.32,350.59a6.29,6.29,0,0,1,2.54-1.11,2.67,2.67,0,0,1,2,.41,3.68,3.68,0,0,1,1.28,1.86,10.2,10.2,0,0,1,.45,3.29,17.19,17.19,0,0,1-.45,3.94,17.44,17.44,0,0,1-1.28,3.6,15.11,15.11,0,0,1-2,3.06,11.74,11.74,0,0,1-2.54,2.31,6.36,6.36,0,0,1-2.56,1.11,2.73,2.73,0,0,1-2-.41,3.64,3.64,0,0,1-1.28-1.88,10.16,10.16,0,0,1-.46-3.33,16.38,16.38,0,0,1,.46-3.9,16.71,16.71,0,0,1,1.28-3.58,15.34,15.34,0,0,1,2-3.06A12.1,12.1,0,0,1,347.32,350.59Zm0,13.63a4.94,4.94,0,0,0,1.86-2.48,12.06,12.06,0,0,0,.6-4.13,6.19,6.19,0,0,0-.6-3.32c-.4-.55-1-.53-1.86,0a4.94,4.94,0,0,0-1.9,2.5,12,12,0,0,0-.61,4.12,6.21,6.21,0,0,0,.61,3.33C345.82,364.81,346.45,364.8,347.32,364.22Z"/>
              <path class="cls-57" d="M361.06,341.38a6.25,6.25,0,0,1,2.54-1.1,2.63,2.63,0,0,1,2,.4,3.67,3.67,0,0,1,1.28,1.87,10.16,10.16,0,0,1,.45,3.29,17.21,17.21,0,0,1-1.73,7.54,15.77,15.77,0,0,1-2,3.05,12.06,12.06,0,0,1-2.54,2.32,6.32,6.32,0,0,1-2.56,1.1,2.77,2.77,0,0,1-2-.4,3.68,3.68,0,0,1-1.29-1.89,10.38,10.38,0,0,1-.45-3.33,16.77,16.77,0,0,1,1.74-7.48,15.26,15.26,0,0,1,2-3.05A12.15,12.15,0,0,1,361.06,341.38Zm0,13.63a5,5,0,0,0,1.86-2.47,12.16,12.16,0,0,0,.6-4.14,6.19,6.19,0,0,0-.6-3.32c-.4-.54-1-.53-1.86,0a5,5,0,0,0-1.91,2.49,12,12,0,0,0-.6,4.12,6.21,6.21,0,0,0,.6,3.33C359.56,355.61,360.19,355.59,361.06,355Z"/>
              <path class="cls-57" d="M372.53,335.78c.23-.47.48-.91.73-1.34a10.62,10.62,0,0,1,.81-1.21,11.5,11.5,0,0,1,.93-1,7.71,7.71,0,0,1,1.09-.89,3.61,3.61,0,0,1,1.79-.71,1.68,1.68,0,0,1,1.3.45,3.1,3.1,0,0,1,.8,1.5,8.65,8.65,0,0,1,.28,2.37v10.71l-3.67,2.45v-10.7a2.4,2.4,0,0,0-.41-1.65c-.28-.28-.68-.24-1.22.12a4.73,4.73,0,0,0-1.13,1.11,12.24,12.24,0,0,0-1,1.64v12l-3.67,2.46V336.22l2.28-1.52c.45-.31.75-.23.89.24Z"/>
              <path class="cls-57" d="M382.73,341.41a4.48,4.48,0,0,1,.16-1.19,5.59,5.59,0,0,1,.44-1.18,5.77,5.77,0,0,1,.65-1,3.73,3.73,0,0,1,.83-.77,1.84,1.84,0,0,1,.82-.33,1,1,0,0,1,.66.15,1.16,1.16,0,0,1,.44.58,2.58,2.58,0,0,1,.16,1,4.74,4.74,0,0,1-.16,1.21,5.59,5.59,0,0,1-.44,1.18,6,6,0,0,1-.66,1,4.16,4.16,0,0,1-.82.76,1.9,1.9,0,0,1-.83.34.9.9,0,0,1-.65-.15,1.14,1.14,0,0,1-.44-.59A2.63,2.63,0,0,1,382.73,341.41Zm3.83-23.69V327c0,1,0,2-.13,3.05s-.2,2.11-.34,3.22L383.6,335c-.14-.93-.25-1.85-.34-2.77s-.13-1.88-.13-2.87V320Z"/>
            </g>
            <path class="cls-58" d="M356,320.13c.76,3.75,1.86,7.91,1.86,7.91L367,322l3-11.87C365.21,313.3,360.45,316.54,356,320.13Z"/>
            <polygon class="cls-55" points="310.13 411.43 344.86 383.79 344.86 383.79 327.84 383.79 317.9 395.62 310.73 390.42 298.03 387.66 293.06 398.7 279.81 405.32 279.81 411.43 310.13 411.43"/>
            <polygon class="cls-56" points="44.1 339.63 57.9 331.35 56.67 326.44 34.2 317.66 35.63 355.31 44.1 364.3 44.1 339.63"/>
            <path class="cls-56" d="M111.08,347.69l-13.32-5.2a36.86,36.86,0,0,0,.44,3.78l7.17,6.06Z"/>
            <polygon class="cls-58" points="317.9 395.62 310.73 390.42 310.13 390.29 310.13 411.43 310.13 411.43 344.86 383.79 327.84 383.79 317.9 395.62"/>
            <ellipse class="cls-57" cx="36.99" cy="323.13" rx="1.02" ry="1.85"/>
            <ellipse class="cls-57" cx="396.9" cy="294.14" rx="0.93" ry="1.76"/>
            <circle class="cls-57" cx="138.78" cy="363.21" r="2.55"/>
            <circle class="cls-57" cx="302.75" cy="363.21" r="2.55"/>
          </g>
        </g>
      </g>
    </g>
  </g>
</svg>
