<svg xmlns="http://www.w3.org/2000/svg" viewBox="0 0 38.11 97.27">
  <defs>
    <style>
      .cls-1 {
        fill: #74bdd9;
      }

      .cls-2 {
        fill: #b40000;
      }

      .cls-3 {
        fill: #fff;
      }

      .cls-4 {
        fill: #bd6146;
      }

      .cls-5 {
        fill: #005a95;
      }

      .cls-6 {
        fill: #2c4441;
      }

      .cls-7 {
        fill: #addad1;
      }

      .cls-8 {
        fill: #002f4e;
      }

      .cls-9 {
        fill: #d3fff9;
      }

      .cls-10 {
        fill: #ffae74;
      }

      .cls-11 {
        fill: #2c353a;
      }

      .cls-12 {
        fill: #eb9e60;
      }

      .cls-13 {
        fill: #401808;
      }
    </style>
  </defs>
  <title>char-1</title>
  <g id="LH-PH">
    <ellipse class="cls-1" cx="19.05" cy="91.17" rx="17.69" ry="4.82"/>
    <g>
      <path class="cls-2" d="M16.09,46a2.17,2.17,0,0,0-2.46,1.84l-.09.58-.07.6-.08.6-.06.6c0,.41-.08.82-.1,1.23s-.06.78-.08,1.16c0,.75-.1,1.49-.17,2.24l-.22,2.31c-.07.77-.14,1.55-.2,2.33s-.13,1.55-.19,2.33L12.3,63l-.07,1.17-.12,2.34c-.06,1.28-.11,2.57-.15,3.85a2.68,2.68,0,0,0,.3.75,2.36,2.36,0,0,0,.74.8,2.65,2.65,0,0,0,.48.23,1.43,1.43,0,0,0,.42.1,1.18,1.18,0,0,0,.71-.14,1.91,1.91,0,0,0,.55-.51,5.16,5.16,0,0,0,.73-1.6c0-.16.09-.32.14-.48.07-.91.14-1.82.22-2.73.26-3.07.57-6.11.89-9.18l.12-1.16.06-.57.06-.59c.07-.79.14-1.6.19-2.39,0-.4,0-.79.06-1.16s0-.73.08-1.09.06-.74.1-1.11l.12-1.12v0A2.17,2.17,0,0,0,16.09,46Z"/>
      <path class="cls-2" d="M22.24,46a2.17,2.17,0,0,1,2.46,1.84l.09.58.07.6.08.6.06.6c0,.41.08.82.1,1.23s.06.78.08,1.16c0,.75.1,1.49.17,2.24l.22,2.31c.07.77.14,1.55.2,2.33s.13,1.55.19,2.33L26,63l.07,1.17.12,2.34c.06,1.28.11,2.57.16,3.85a3,3,0,0,1-.31.75,2.17,2.17,0,0,1-1.22,1,1.43,1.43,0,0,1-.42.1,1.14,1.14,0,0,1-.7-.14,1.83,1.83,0,0,1-.56-.51,5.16,5.16,0,0,1-.73-1.6c-.05-.16-.09-.32-.14-.48-.07-.91-.14-1.82-.22-2.73-.26-3.07-.57-6.11-.89-9.18l-.12-1.16L21,55.87,21,55.28c-.07-.79-.14-1.6-.19-2.39,0-.4,0-.79-.06-1.16s0-.73-.08-1.09-.06-.74-.1-1.11l-.12-1.12v0A2.17,2.17,0,0,1,22.24,46Z"/>
      <path class="cls-2" d="M24.74,39.74,19,42.83,13.3,39.74c-.1,2.88-.12,5.75-.06,8.63A3.27,3.27,0,0,0,13.58,50a2.85,2.85,0,0,0,1.24.94,8.33,8.33,0,0,0,4.23.9,8.17,8.17,0,0,0,4.18-.9A2.88,2.88,0,0,0,24.46,50a3.27,3.27,0,0,0,.34-1.64C24.86,45.49,24.84,42.62,24.74,39.74Z"/>
      <path class="cls-3" d="M13.42,26a2.13,2.13,0,0,0,.07.27l.07.23.12.4a1.89,1.89,0,0,1,.06.18l0,.09,0,.08c0,.11.05.21.07.31a2.23,2.23,0,0,1,0,1.07l-.09.23-.1.25-.18.49c-.12.33-.24.68-.35,1-.22.69-.43,1.41-.64,2.13s-.4,1.45-.59,2.19c-.39,1.46-.76,3-1.1,4.44l-.13.57-.06.28,0,.14-.06.14-.23.59-.24.62-.15.36-.06.15-.05.13,0,.05,0,.06,0,.05,0,0s0,0,0,.08l-.09.11L9.33,43a1.42,1.42,0,0,1-.44.26,1.52,1.52,0,0,1-1,0,1.33,1.33,0,0,1-.61-.47,1,1,0,0,1-.16-.26c0-.05,0-.13-.07-.16l0-.1s0,0,0-.07a.18.18,0,0,1,0-.06v-.21c0-.1,0-.16,0-.21A2.11,2.11,0,0,1,7,41.39a2.82,2.82,0,0,1,.1-.34c0-.08.07-.16.16-.32a.43.43,0,0,0,0-.07l.06-.07.08-.1,0-.06.06,0,.08-.07.1-.07.12-.07L8,40.11l.17,0,.19,0h.2a.52.52,0,0,1,.18,0,1.13,1.13,0,0,1,.31.1l.11.06.1.06.14.12.09.09.06.08,0,0,0,0,.07.11c.06.12.08.19.11.26s0,.21.07.28a1.83,1.83,0,0,1,0,.21c0,.13,0,.25,0,.36s0,.22,0,.33,0,.21,0,.32l-2.19.26-.19-.51L7.43,42s0-.06,0-.07,0,0,0,0a1,1,0,0,0,0,.12,1.08,1.08,0,0,0,.14.19l.08.08a.4.4,0,0,0,.12.1.18.18,0,0,0,.09.06l.1.06a1.63,1.63,0,0,0,.29.1l.18,0h.19l.18,0,.16,0,.14-.06a.41.41,0,0,0,.11-.07l.09-.06.08-.06.05,0,.05-.05.07-.08,0-.07,0,0,.09-.18c0-.05,0-.05,0-.05s0,0,0,0,0,0,0-.06v-.19a.17.17,0,0,0,0-.07l0-.09-.05-.15A1.68,1.68,0,0,0,9.52,41a1.42,1.42,0,0,0-1.62-.47,1.71,1.71,0,0,0-.44.25L7.3,41a.59.59,0,0,0-.08.11l0,.06,0,0,0,0,0,.05,0,0s0,.05,0,.05H7a.22.22,0,0,1,0-.09v-.12c0-.17,0-.35,0-.54L6.93,40v-.3l0-.3,0-.6c.16-1.61.38-3.22.7-4.82A34.81,34.81,0,0,1,9,29.25c.15-.39.31-.79.48-1.18.08-.2.17-.4.26-.6l.15-.3a2.93,2.93,0,0,1,1.23-1.3,3.7,3.7,0,0,1,.4-.18l.11,0,.11,0a2.1,2.1,0,0,1,.24-.06,1.9,1.9,0,0,1,.25,0h.27a1.67,1.67,0,0,1,.57.1Z"/>
      <path class="cls-3" d="M24.69,26a2.13,2.13,0,0,1-.07.27l-.07.23-.12.4a1.89,1.89,0,0,0-.06.18l0,.09,0,.08c0,.11-.05.21-.07.31a2.23,2.23,0,0,0,.05,1.07l.09.23.1.25.18.49c.12.33.24.68.35,1,.22.69.43,1.41.64,2.13s.4,1.45.59,2.19c.39,1.46.76,3,1.1,4.44l.13.57.06.28,0,.14.06.14.23.59.24.62.15.36.06.15.05.13,0,.05,0,.06,0,.05,0,0s0,0,0,.08l.09.11.17.17a1.42,1.42,0,0,0,.44.26,1.52,1.52,0,0,0,1,0,1.33,1.33,0,0,0,.61-.47,1,1,0,0,0,.16-.26c0-.05.05-.13.07-.16l0-.1s0,0,0-.07a.18.18,0,0,0,0-.06v-.21c0-.1,0-.16,0-.21a2.11,2.11,0,0,0-.06-.29,2.82,2.82,0,0,0-.1-.34c0-.08-.07-.16-.16-.32a.43.43,0,0,1,0-.07l-.06-.07-.08-.1-.05-.06-.06,0-.08-.07-.1-.07-.12-.07-.15-.06-.17,0-.19,0h-.2a.52.52,0,0,0-.18,0,1.13,1.13,0,0,0-.31.1l-.11.06-.1.06-.14.12-.09.09-.06.08,0,0,0,0-.07.11c-.06.12-.08.19-.11.26s-.05.21-.07.28a1.83,1.83,0,0,0,0,.21c0,.13,0,.25,0,.36s0,.22,0,.33,0,.21,0,.32l2.19.26.19-.51.09-.23s0-.06,0-.07,0,0,0,0a1,1,0,0,1,0,.12,1.08,1.08,0,0,1-.14.19l-.08.08a.4.4,0,0,1-.12.1.18.18,0,0,1-.09.06l-.1.06a1.63,1.63,0,0,1-.29.1l-.18,0H29.5l-.18,0-.16,0L29,42.55a.41.41,0,0,1-.11-.07l-.09-.06-.08-.06,0,0-.05-.05-.07-.08,0-.07,0,0-.09-.18c0-.05,0-.05,0-.05s0,0,0,0,0,0,0-.06v-.19a.17.17,0,0,1,0-.07l0-.09.05-.15a1.68,1.68,0,0,1,.16-.26,1.42,1.42,0,0,1,1.62-.47,1.71,1.71,0,0,1,.44.25l.16.17a.59.59,0,0,1,.08.11l.05.06,0,0,0,0,0,.05,0,0s0,.05,0,.05h0a.22.22,0,0,0,0-.09v-.12c0-.17,0-.35,0-.54l.05-.58v-.3l0-.3,0-.6c-.16-1.61-.38-3.22-.7-4.82a34.81,34.81,0,0,0-1.32-4.76c-.15-.39-.31-.79-.48-1.18-.08-.2-.17-.4-.26-.6l-.15-.3A2.93,2.93,0,0,0,27,25.87a3.7,3.7,0,0,0-.4-.18l-.11,0-.11,0a2.1,2.1,0,0,0-.24-.06,1.9,1.9,0,0,0-.25,0h-.27a1.67,1.67,0,0,0-.57.1Z"/>
      <g>
        <path class="cls-3" d="M19.07,47.44c5.44,3.14,5.75,1.32,5.75,1.32.16-2.17.06-11.22.34-13.38a59.36,59.36,0,0,1,1.95-9l.09-.31c0-.12-.07-.22-.1-.29l0-.12a16.06,16.06,0,0,1-5.18-3.16v-.05h0l0,0,0,0h0L20,24.09l-.29,0v-.06H18.38v.06l-.29,0-1.87-1.61h0l0,0,0,.24-.08-.26v.05A16.06,16.06,0,0,1,11,25.7l0,.12c0,.07-.06.17-.1.29l.09.31a60.64,60.64,0,0,1,2,9c.27,2.16.17,11.21.33,13.38,0,0,.31,1.82,5.75-1.32"/>
        <path class="cls-4" d="M21.8,22.41a3.24,3.24,0,0,1-.78-1,22.83,22.83,0,0,1-.36-4.81,13.29,13.29,0,0,0-1.54-.16v.2h0v-.2a13.29,13.29,0,0,0-1.54.16,22.83,22.83,0,0,1-.36,4.81,3.24,3.24,0,0,1-.78,1A2.89,2.89,0,0,0,18.53,24v.09h1.33v-.12A2.94,2.94,0,0,0,21.8,22.41Z"/>
        <line class="cls-5" x1="13.98" y1="43.59" x2="13.97" y2="43.59"/>
        <path class="cls-6" d="M24.92,36.26a31.47,31.47,0,0,1-.67-3.32,27.65,27.65,0,0,1-.27-3.4,21.82,21.82,0,0,1,.21-3.33,17,17,0,0,1,.33-1.73,13.8,13.8,0,0,1-2.64-1.94v-.05h0l0,0,0,0h0L20,24.09l-.29,0v-.06H18.38v.06l-.29,0-1.87-1.61h0l0,0,0,.24-.08-.26v.05A13.07,13.07,0,0,1,14,24.23a14.4,14.4,0,0,1,.36,3.28A19.79,19.79,0,0,1,14,31a30,30,0,0,1-.88,3.51c-.07.24-.15.48-.23.72,0,0,0,.08,0,.12.27,2.16.17,11.21.33,13.38,0,0,.31,1.82,5.75-1.32h.1c5.44,3.14,5.75,1.32,5.75,1.32.14-1.85.09-8.69.24-12C25,36.58,25,36.42,24.92,36.26Z"/>
        <line class="cls-5" x1="24.06" y1="43.59" x2="24.07" y2="43.59"/>
        <path class="cls-3" d="M21.88,22.48l0,0,0,0h0L20,24.09l-.29,0v-.06H18.38v.06l-.29,0-1.82-1.56c-.19,1.14-.51,6.79,2.72,14.36a49.4,49.4,0,0,0,2.89-14.35v-.06Z"/>
        <path class="cls-2" d="M19.17,26.28l1.51-2.35-1.56-1.35-2,1.77,1.17,1.89L16.8,30.61c.35,1.54.9,3.57,1.32,4.88l.72,1.77s1.22-2.94,2.35-6.62Z"/>
        <path class="cls-7" d="M17.38,20.18l1.7,2.4A9.65,9.65,0,0,1,15.22,26l-.09-2.69A4.49,4.49,0,0,0,17.38,20.18Z"/>
        <path class="cls-7" d="M20.78,20.18l-1.7,2.4A9.65,9.65,0,0,0,22.94,26l.1-2.69A4.52,4.52,0,0,1,20.78,20.18Z"/>
        <path class="cls-8" d="M12.71,34a.07.07,0,0,1-.07-.06,25.06,25.06,0,0,1-.42-7,.07.07,0,0,1,.07-.07.08.08,0,0,1,.07.08,24.75,24.75,0,0,0,.42,7,.07.07,0,0,1,0,.09Z"/>
        <path class="cls-8" d="M25.2,34h0a.08.08,0,0,1-.06-.09,24.75,24.75,0,0,0,.42-7,.08.08,0,0,1,.15,0,25.06,25.06,0,0,1-.43,7S25.24,34,25.2,34Z"/>
      </g>
      <path class="cls-9" d="M19.1,40.18A.88.88,0,1,1,20,39.3.87.87,0,0,1,19.1,40.18Zm0-1.61a.74.74,0,0,0,0,1.47.74.74,0,0,0,0-1.47Z"/>
      <path class="cls-9" d="M19.1,44.23a.88.88,0,1,1,.88-.88A.87.87,0,0,1,19.1,44.23Zm0-1.61a.73.73,0,1,0,.73.73A.73.73,0,0,0,19.1,42.62Z"/>
      <path class="cls-6" d="M6.9,89.68A2.26,2.26,0,0,0,7,91.36a1.57,1.57,0,0,0,.75.63,2.6,2.6,0,0,0,2.39-.41A10.38,10.38,0,0,0,12,89.72c1.05-1.19,6.48-5.71,2-5.22C11.58,84.78,7.74,86.77,6.9,89.68Z"/>
      <path class="cls-6" d="M31.43,89.68a2.21,2.21,0,0,1-.1,1.68,1.57,1.57,0,0,1-.75.63,2.6,2.6,0,0,1-2.39-.41,10.38,10.38,0,0,1-1.89-1.86c-1.05-1.19-6.48-5.71-2-5.22C26.75,84.78,30.59,86.77,31.43,89.68Z"/>
      <g>
        <path class="cls-2" d="M15.93,70.26A3.89,3.89,0,0,0,15.7,69a2,2,0,0,0-.84-1.11,1.86,1.86,0,0,0-2.25.53,4.16,4.16,0,0,0-.69,2.73c-.05,1.56-.1,3.11-.13,4.67s0,3.11-.07,4.67,0,3.11,0,4.66a1.63,1.63,0,0,0,3.26.08l.27-4.62c.1-1.55.19-3.09.3-4.63.09-1.25.17-2.5.27-3.75C15.86,71.62,16,70.93,15.93,70.26Z"/>
        <path class="cls-8" d="M15.31,85.25h0a6.93,6.93,0,0,1-3.49-1.64c-.3-.26-.42-.51-.35-.74l0-.08.08,0a12.64,12.64,0,0,0,3.09.79.54.54,0,0,0,.42-.1.1.1,0,0,0,0-.1c0-.09-.12-.14-.22-.18-1.9-.82-3-1.89-3.32-3.18a.07.07,0,0,1,0-.09.09.09,0,0,1,.09.06c.3,1.24,1.39,2.28,3.23,3.07.1,0,.28.12.31.29a.24.24,0,0,1-.06.23.7.7,0,0,1-.55.15,12.68,12.68,0,0,1-3-.77c0,.15.1.33.32.52a6.91,6.91,0,0,0,3.41,1.6s.07,0,.06.08A.07.07,0,0,1,15.31,85.25Z"/>
        <path class="cls-8" d="M14.49,78.52a1.54,1.54,0,0,1-.42-.07,3.86,3.86,0,0,1-2.16-1.62.07.07,0,0,1,0-.1.08.08,0,0,1,.1,0,3.61,3.61,0,0,0,2.07,1.56c.31.1.85.11,1-.25a.07.07,0,0,1,.09,0,.09.09,0,0,1,.05.1A.71.71,0,0,1,14.49,78.52Z"/>
      </g>
      <g>
        <path class="cls-2" d="M22.59,70.26A3.89,3.89,0,0,1,22.82,69a2,2,0,0,1,.84-1.11,1.85,1.85,0,0,1,2.24.53,4,4,0,0,1,.69,2.73c.06,1.56.1,3.11.13,4.67s.06,3.11.07,4.67,0,3.11,0,4.66a1.63,1.63,0,0,1-3.26.08c-.09-1.54-.17-3.08-.27-4.62S23.07,77.55,23,76l-.27-3.75A18.71,18.71,0,0,1,22.59,70.26Z"/>
        <path class="cls-8" d="M23.21,85.25h0a6.9,6.9,0,0,0,3.48-1.64c.3-.26.42-.51.36-.74l0-.08-.08,0a12.64,12.64,0,0,1-3.09.79.55.55,0,0,1-.43-.1.12.12,0,0,1,0-.1c0-.09.12-.14.22-.18,1.89-.82,3-1.89,3.32-3.18A.08.08,0,0,0,26.9,80a.08.08,0,0,0-.08.06c-.3,1.24-1.39,2.28-3.24,3.07-.09,0-.27.12-.31.29a.27.27,0,0,0,.07.23.68.68,0,0,0,.55.15,12.8,12.8,0,0,0,3-.77.79.79,0,0,1-.32.52,6.91,6.91,0,0,1-3.41,1.6s-.07,0-.06.08S23.17,85.25,23.21,85.25Z"/>
        <path class="cls-8" d="M24,78.52a1.61,1.61,0,0,0,.43-.07,3.81,3.81,0,0,0,2.15-1.62.08.08,0,0,0,0-.1.08.08,0,0,0-.1,0,3.64,3.64,0,0,1-2.07,1.56c-.31.1-.86.11-1-.25a.08.08,0,0,0-.09,0,.09.09,0,0,0-.05.1A.7.7,0,0,0,24,78.52Z"/>
      </g>
      <ellipse class="cls-2" cx="13.82" cy="70" rx="1.8" ry="2.1"/>
      <ellipse class="cls-2" cx="24.51" cy="70" rx="1.8" ry="2.1"/>
      <path class="cls-10" d="M9,40.18l.14.07.07,0,.05,0,.23.14.2.13.18.13a3.58,3.58,0,0,1,.52.46,1.57,1.57,0,0,1,.3.44.28.28,0,0,1,0,.2.5.5,0,0,1-.12.19,1.84,1.84,0,0,1-.2.19,1.75,1.75,0,0,0-.19.2.54.54,0,0,0-.1.2l0,.2a8.15,8.15,0,0,0-.1.83c0,.28,0,.57,0,.85v.84c0,.28,0,.57,0,.85s0,.57,0,.85c0,1.14,0,2.28,0,3.43s.05,2.31.08,3.46l-1.62.2c-.25-1.15-.46-2.3-.65-3.46s-.35-2.33-.49-3.5C7.12,46.56,7.05,46,7,45.37c0-.3,0-.59,0-.89s0-.6,0-.9,0-.6,0-.9c0-.08,0-.16,0-.23a.75.75,0,0,0-.08-.24A2.44,2.44,0,0,0,6.71,42c-.06-.09-.13-.17-.18-.25a.45.45,0,0,1,0-.47,1.66,1.66,0,0,1,.38-.43,2.27,2.27,0,0,1,.28-.21l.16-.1.18-.09.21-.09.23-.08.25-.08.06,0,.08,0,.15,0Z"/>
      <path class="cls-10" d="M29.13,40.18l-.14.07-.07,0-.05,0-.23.14-.2.13-.18.13a3.58,3.58,0,0,0-.52.46,1.57,1.57,0,0,0-.3.44.28.28,0,0,0,0,.2.5.5,0,0,0,.12.19,1.84,1.84,0,0,0,.2.19,1.75,1.75,0,0,1,.19.2.54.54,0,0,1,.1.2l0,.2a8.15,8.15,0,0,1,.1.83c0,.28,0,.57,0,.85v.84c0,.28,0,.57,0,.85s0,.57,0,.85c0,1.14,0,2.28,0,3.43s0,2.31-.08,3.46l1.62.2c.25-1.15.46-2.3.65-3.46s.35-2.33.49-3.5c.07-.59.14-1.18.16-1.78,0-.3,0-.59,0-.89s0-.6,0-.9,0-.6,0-.9c0-.08,0-.16,0-.23a.75.75,0,0,1,.08-.24A2.44,2.44,0,0,1,31.4,42c.06-.09.13-.17.18-.25a.45.45,0,0,0,0-.47,1.66,1.66,0,0,0-.38-.43,2.27,2.27,0,0,0-.28-.21l-.16-.1-.18-.09-.21-.09-.23-.08-.25-.08-.06,0-.08,0-.15,0Z"/>
      <path class="cls-7" d="M10.26,44.44l-3-.35A1.53,1.53,0,0,1,6,42.57V41a1.14,1.14,0,0,1,1.25-1.22l3,.36a1.51,1.51,0,0,1,1.25,1.51v1.61A1.13,1.13,0,0,1,10.26,44.44Z"/>
      <path class="cls-7" d="M27.85,44.44l3-.35a1.53,1.53,0,0,0,1.25-1.52V41a1.14,1.14,0,0,0-1.25-1.22l-3,.36a1.51,1.51,0,0,0-1.25,1.51v1.61A1.13,1.13,0,0,0,27.85,44.44Z"/>
      <g>
        <path class="cls-10" d="M10.75,53.44a.8.8,0,0,0-1-1A3.75,3.75,0,0,0,7.6,54.32a4.5,4.5,0,0,0,1.82,4.92c1.48.86,2,.58,1.76-.22s-1-4-1-4A5.75,5.75,0,0,0,10.75,53.44Z"/>
        <path class="cls-10" d="M10.33,52.64A4.64,4.64,0,0,1,13,54.07a.51.51,0,0,1,0,.73.52.52,0,0,1-.69,0h0a3.5,3.5,0,0,0-2.1-.87.66.66,0,0,1,.05-1.31h.09Z"/>
      </g>
      <g>
        <path class="cls-10" d="M27.36,53.44a.8.8,0,0,1,1-1,3.75,3.75,0,0,1,2.14,1.85,4.5,4.5,0,0,1-1.82,4.92c-1.48.86-2,.58-1.76-.22s1-4,1-4A5.75,5.75,0,0,1,27.36,53.44Z"/>
        <path class="cls-10" d="M27.78,52.64a4.64,4.64,0,0,0-2.68,1.43.51.51,0,0,0,0,.73.52.52,0,0,0,.69,0h0a3.5,3.5,0,0,1,2.1-.87.66.66,0,0,0-.05-1.31h-.09Z"/>
      </g>
      <g>
        <path class="cls-11" d="M17.16,3.45s-4,.71-4.88,3.64c0,0,1.43,9,1.84,9.37s2.58,1.69,2.58,1.69l4.64,0,2.26-1.86s.92-5.78,1.15-9.73c0,0-1.24-1.2-2.35-2.22C22.4,4.38,18.4,4.38,17.16,3.45Z"/>
        <rect class="cls-4" x="13.25" y="12.51" width="2.4" height="3.59" rx="0.82" transform="matrix(0.99, -0.16, 0.16, 0.99, -2.16, 2.57)"/>
        <rect class="cls-4" x="22.19" y="12.51" width="2.4" height="3.59" rx="0.82" transform="translate(44.09 32.28) rotate(-170.53)"/>
        <path class="cls-12" d="M19.15,19.91h-.46c-2.77,0-4.07-3.48-4.26-5.45L14,9.69c-.22-2.33,1.72-4.94,4.2-4.94h1.6c2.49,0,4.44,2.63,4.2,5l-.54,4.77C23.2,16.45,22.17,19.91,19.15,19.91Z"/>
        <path class="cls-4" d="M19.05,16.15h0c-.23,0-.56-.19-.56-.42l.14-1.92a.42.42,0,0,1,.42-.42h0a.42.42,0,0,1,.42.42l.14,1.92C19.61,16,19.28,16.15,19.05,16.15Z"/>
        <path class="cls-11" d="M24.1,8.08a2.27,2.27,0,0,0-.42-1.21,6.47,6.47,0,0,0-1-1.41c-1.13-1.09-2.86-1.19-4.42-1.1-.53,0-1.05.08-1.57.16a3.33,3.33,0,0,0-1.21.36,1.58,1.58,0,0,0-.66.72.63.63,0,0,0-.23-.08.79.79,0,0,0-.5.12,1.35,1.35,0,0,0-.65,1.17A1.75,1.75,0,0,0,14,8.05l.17.13-.65-.13s.19,3.68.19,3.81.69,2.86.69,2.86a36.42,36.42,0,0,0,.89-6.09,7.69,7.69,0,0,0,2.6.45A2.18,2.18,0,0,1,16.77,7.9l0-.05a10.88,10.88,0,0,0,5.74,1,35,35,0,0,0,.88,5.91s.69-2.72.69-2.86.18-3.81.18-3.81Z"/>
        <path class="cls-8" d="M17.42,14.51H15.27a1,1,0,0,1-1-1v-.83a1,1,0,0,1,1-1h2.15a1,1,0,0,1,1,1v.83A1,1,0,0,1,17.42,14.51Zm-2.15-2.72a.87.87,0,0,0-.88.87v.83a.87.87,0,0,0,.88.87h2.15a.87.87,0,0,0,.87-.87v-.83a.87.87,0,0,0-.87-.87Z"/>
        <path class="cls-8" d="M22.8,14.51H20.64a1,1,0,0,1-1-1v-.83a1,1,0,0,1,1-1H22.8a1,1,0,0,1,1,1v.83A1,1,0,0,1,22.8,14.51Zm-2.16-2.72a.87.87,0,0,0-.87.87v.83a.87.87,0,0,0,.87.87H22.8a.87.87,0,0,0,.87-.87v-.83a.87.87,0,0,0-.87-.87Z"/>
        <path class="cls-8" d="M19.94,12.51a.05.05,0,0,1-.05,0,1.17,1.17,0,0,0-.82-.4,1.15,1.15,0,0,0-.85.34.08.08,0,0,1-.1,0,.07.07,0,0,1,0-.1,1.26,1.26,0,0,1,1.88.06.08.08,0,0,1,0,.11Z"/>
        <path class="cls-11" d="M24.74,6.77a9.37,9.37,0,0,0-2.63-4.24l.21,1.26A9.13,9.13,0,0,0,19.43,2l.91,1.57a5.8,5.8,0,0,0-4-.62,7.59,7.59,0,0,0,6,3.82c.18,0,.43-.08.37-.24"/>
        <path class="cls-11" d="M11.78,7.05l.68,0a4.21,4.21,0,0,0-.82,3.37,4,4,0,0,1,1.19-1.32A6.26,6.26,0,0,0,13,11q1-1.8,1.92-3.66c.28-.58,1.76-2.9,1.5-3.48s-2.16.54-2.58.83a6.32,6.32,0,0,0-1.19,1.06C12.56,5.87,11.87,7.05,11.78,7.05Z"/>
      </g>
      <path class="cls-11" d="M15.28,11.51a5.1,5.1,0,0,1,2.4-.16s1.15-.44-.25-.48A3.19,3.19,0,0,0,15.28,11.51Z"/>
      <path class="cls-11" d="M22.57,11.51a5.13,5.13,0,0,0-2.41-.16s-1.16-.44.25-.48A3.21,3.21,0,0,1,22.57,11.51Z"/>
      <path class="cls-13" d="M18.62,17.24c-.63,0-1.18,0-1.23,0a.08.08,0,0,1,0-.15,20.18,20.18,0,0,0,3-.08c.66-.14.74-.42.75-.42a.07.07,0,0,1,.13,0s-.09.37-.85.54A10.81,10.81,0,0,1,18.62,17.24Z"/>
      <path class="cls-13" d="M19.07,18.1a2,2,0,0,1-.69-.12.08.08,0,0,1,.06-.14,1.71,1.71,0,0,0,1.18,0,.07.07,0,1,1,0,.14A2,2,0,0,1,19.07,18.1Z"/>
      <path class="cls-11" d="M17.55,13s-.83-1.34-1.83-.39Z"/>
      <path class="cls-11" d="M20.44,13s.84-1.34,1.84-.39Z"/>
      <circle class="cls-11" cx="16.58" cy="12.81" r="0.42"/>
      <circle class="cls-11" cx="21.42" cy="12.81" r="0.42"/>
    </g>
  </g>
</svg>
