<svg xmlns="http://www.w3.org/2000/svg" viewBox="0 0 38.11 97.27">
  <defs>
    <style>
      .cls-1 {
        fill: #74bdd9;
      }

      .cls-2 {
        fill: #c62c15;
      }

      .cls-3 {
        fill: #2c4441;
      }

      .cls-4 {
        fill: #888d91;
      }

      .cls-5 {
        fill: #ffae74;
      }

      .cls-6 {
        fill: #7a562e;
      }

      .cls-7 {
        fill: #ffcc4b;
      }

      .cls-8 {
        fill: #9c6c32;
      }

      .cls-9 {
        fill: #d4796a;
      }

      .cls-10, .cls-11, .cls-12, .cls-13 {
        fill: none;
        stroke-miterlimit: 10;
      }

      .cls-10 {
        stroke: #000;
        stroke-width: 0.06px;
      }

      .cls-11, .cls-12 {
        stroke: #2c3f48;
      }

      .cls-11, .cls-12, .cls-13 {
        stroke-linecap: round;
      }

      .cls-11, .cls-13 {
        stroke-width: 0.11px;
      }

      .cls-12 {
        stroke-width: 0.22px;
      }

      .cls-13 {
        stroke: #401808;
      }

      .cls-14 {
        fill: #3c211f;
      }

      .cls-15 {
        fill: #fff3bd;
      }
    </style>
  </defs>
  <title>char-4</title>
  <g id="LH-PH">
    <ellipse class="cls-1" cx="19.05" cy="91.17" rx="17.69" ry="4.82"/>
    <g>
      <g>
        <path class="cls-2" d="M18.89,49.27l-.19,2.2-.17,2.23c-.14,1.63-.36,3.22-.55,4.72-.4,3-1,6.08-1.31,9.15-.16,1.53-.23,3.07-.36,4.6l-.44,4.61c-.36,3.08-.79,6.15-1.44,9.23a.94.94,0,0,1-1.11.72,1,1,0,0,1-.73-.77,70.37,70.37,0,0,1-.8-9.36c0-1.55,0-3.11,0-4.67l.2-4.67.27-9.38c.06-1.59.19-3.08.23-4.55,0-.73.07-1.58.14-2.41s.19-1.63.33-2.42a3,3,0,0,1,5.91.77Z"/>
        <path class="cls-3" d="M14.79,84.67a2.48,2.48,0,0,1-1.38.37,2.6,2.6,0,0,1-1.61-.59c-.07.1-.14.2-.19.29-.29.44-.61.87-.94,1.29a4.17,4.17,0,0,1-.31.54.09.09,0,0,1,0,.06c-.26.29-.5.6-.73.91a11.48,11.48,0,0,0-1.4,2.31,3.47,3.47,0,0,0-.11,2.06,2,2,0,0,0,1.32.38h.31a4.1,4.1,0,0,0,1.42-.61,5.47,5.47,0,0,0,1.67-1.9c.17-.32.36-.92.76-1a1,1,0,0,1,.26,1c.41,0,.8-.13.9-.45a11.53,11.53,0,0,0,.52-3.34,6.1,6.1,0,0,0-.16-1.47A2.37,2.37,0,0,1,14.79,84.67Z"/>
        <path class="cls-2" d="M10.48,86.78a2.06,2.06,0,0,0-.29,1.46.69.69,0,0,0,.32.43,1.21,1.21,0,0,0,.78.06,5.49,5.49,0,0,0,2.09-1.28,17.79,17.79,0,0,1,1.86-1.09c0-.15,0-.3,0-.45,0-.79-.1-2.8-1.54-2.8-1,0-1.72,1-2.1,1.63s-.61.87-.94,1.29a4.17,4.17,0,0,1-.31.54,0,0,0,0,1,0,0C10.44,86.61,10.53,86.69,10.48,86.78Z"/>
      </g>
      <g>
        <path class="cls-2" d="M25.64,48.5c.14.79.25,1.59.33,2.42s.13,1.68.15,2.41c0,1.47.16,3,.22,4.55l.27,9.38.2,4.67c.05,1.56,0,3.12,0,4.67A70.37,70.37,0,0,1,26,86a.92.92,0,0,1-1.07.77.94.94,0,0,1-.77-.72c-.65-3.08-1.08-6.15-1.44-9.23l-.44-4.61c-.13-1.53-.2-3.07-.36-4.6-.33-3.07-.91-6.11-1.3-9.15-.2-1.5-.42-3.09-.56-4.72l-.16-2.23-.2-2.2a3,3,0,0,1,5.91-.77Z"/>
        <path class="cls-3" d="M23.83,84.67a2.52,2.52,0,0,0,1.39.37,2.6,2.6,0,0,0,1.6-.59c.07.1.14.2.19.29.29.44.61.87.94,1.29a4.17,4.17,0,0,0,.31.54.09.09,0,0,0,0,.06c.26.29.5.6.73.91a11,11,0,0,1,1.4,2.31,3.48,3.48,0,0,1,.12,2.06,2.07,2.07,0,0,1-1.33.38H28.9a4.1,4.1,0,0,1-1.42-.61,5.58,5.58,0,0,1-1.67-1.9c-.17-.32-.36-.92-.75-1a1,1,0,0,0-.27,1c-.4,0-.8-.13-.9-.45a11.53,11.53,0,0,1-.52-3.34,6.1,6.1,0,0,1,.16-1.47A2.37,2.37,0,0,0,23.83,84.67Z"/>
        <path class="cls-2" d="M28.15,86.78a2.06,2.06,0,0,1,.28,1.46.68.68,0,0,1-.31.43,1.25,1.25,0,0,1-.79.06,5.64,5.64,0,0,1-2.09-1.28,18.72,18.72,0,0,0-1.85-1.09c0-.15,0-.3,0-.45,0-.79.1-2.8,1.54-2.8,1,0,1.72,1,2.1,1.63s.61.87.94,1.29a4.17,4.17,0,0,0,.31.54,0,0,0,0,0,0,0C28.18,86.61,28.1,86.69,28.15,86.78Z"/>
      </g>
      <path class="cls-3" d="M15.75,57.17c2.8,0,5.6-.07,8.39-.25,1.08-.06,2.15-.14,3.22-.22-.72-6-1.79-15.2-2.78-17.89l-10.41-.62C13.45,41,12.43,44.77,12,47.82c-.17,1.07-.46,6.9-.6,9.17C12.82,57.1,14.28,57.15,15.75,57.17Z"/>
      <g>
        <path class="cls-4" d="M13.29,26.32c-.12,0-.23.07-.23.17s.07.15.12.22a1.21,1.21,0,0,1,.13.44,8.05,8.05,0,0,1,0,1.11A8.52,8.52,0,0,1,13,30.54c-.4,1.51-.75,3.09-1.13,4.66s-.81,3.15-1.15,4.74a4.75,4.75,0,0,1-.36,1.21l-.29.65-.19.41-.1.21a1.27,1.27,0,0,1-.21.32,1.36,1.36,0,0,1-.66.41A1.26,1.26,0,0,1,8,43a1.06,1.06,0,0,1-.36-.31,1.24,1.24,0,0,1-.24-.49,1.49,1.49,0,0,1,0-.17.48.48,0,0,1,0-.17,5.54,5.54,0,0,1,.4-1.59l.09-.2a.91.91,0,0,1,.13-.2,1,1,0,0,1,.18-.18l.16-.1a1.66,1.66,0,0,1,.29-.09.87.87,0,0,1,.56.1,1.15,1.15,0,0,1,.25.19,1.22,1.22,0,0,1,.16.23,1,1,0,0,1,.07.21,2.21,2.21,0,0,1,.07.43c0,.25,0,.46,0,.68l-1.52.19A3.63,3.63,0,0,0,8.05,41c0-.08-.06-.17-.08-.17s0,0,0,.07a.48.48,0,0,0,.11.15.6.6,0,0,0,.22.17.85.85,0,0,0,.51.09,1.42,1.42,0,0,0,.27-.09l.14-.08A.75.75,0,0,0,9.39,41a1,1,0,0,0,.09-.13l0,0a5.13,5.13,0,0,0,.11.89h0a.1.1,0,0,0,0-.07s0-.09-.18-.37a.93.93,0,0,0-.3-.26,1.09,1.09,0,0,0-.83-.12,1.19,1.19,0,0,0-.55.34c-.13.17-.11.17-.15.22s0,0,0,0a.69.69,0,0,1,0-.19v-.57a8.75,8.75,0,0,1,.1-1.24c.21-1.66.43-3.33.74-5s.73-3.29,1.22-4.93a9.15,9.15,0,0,1,1.12-2.4,5.63,5.63,0,0,1,1-1.1,2.55,2.55,0,0,1,.84-.44,1,1,0,0,1,.62.06.68.68,0,0,1,.31.38Z"/>
        <path class="cls-5" d="M10.1,40.68a38.21,38.21,0,0,0-.35,6.72c.05,2.28.22,4.58.38,6.87l-1.67.21c-.39-2.31-.65-4.64-.82-7a40,40,0,0,1,0-7.17Z"/>
        <path class="cls-5" d="M10.91,53.8a.81.81,0,0,0-1-1,3.75,3.75,0,0,0-2.14,1.85A4.49,4.49,0,0,0,9.58,59.6c1.48.86,2,.59,1.76-.22s-1-4-1-4A5.74,5.74,0,0,0,10.91,53.8Z"/>
        <path class="cls-5" d="M10.49,53a4.63,4.63,0,0,1,2.68,1.42.52.52,0,0,1-.72.75,3.5,3.5,0,0,0-2.1-.87.66.66,0,0,1-.63-.68A.64.64,0,0,1,10.4,53h.09Z"/>
        <path class="cls-2" d="M10.26,43.8l-3-.36A1.51,1.51,0,0,1,6,41.93v-1.6a1.14,1.14,0,0,1,1.25-1.22l3,.36A1.51,1.51,0,0,1,11.51,41v1.6A1.14,1.14,0,0,1,10.26,43.8Z"/>
      </g>
      <g>
        <path class="cls-4" d="M24.83,26.07a.64.64,0,0,1,.28-.52,1.1,1.1,0,0,1,.75-.13,2.57,2.57,0,0,1,1,.46,3.3,3.3,0,0,1,1,1.18,22.29,22.29,0,0,1,.91,2.5,45.93,45.93,0,0,1,1.17,4.94c.31,1.66.53,3.32.72,5a10.48,10.48,0,0,1,.09,1.23v.58a1.27,1.27,0,0,1,0,.2l0,0a1.26,1.26,0,0,0-.14-.21,1.15,1.15,0,0,0-.53-.33,1.11,1.11,0,0,0-.8.11,1,1,0,0,0-.29.25.76.76,0,0,0-.18.36.18.18,0,0,0,0,.06s0,0,0,0a4.82,4.82,0,0,0,.07-.89l0,0L29,41a.69.69,0,0,0,.15.14,1,1,0,0,0,.13.09,1,1,0,0,0,.27.08.8.8,0,0,0,.51-.09.69.69,0,0,0,.22-.16.79.79,0,0,0,.11-.15c0-.06,0-.06,0-.07a.84.84,0,0,0-.07.17l-.15.55-1.52-.19a5.3,5.3,0,0,1,0-.68,3.76,3.76,0,0,1,.08-.43,1.19,1.19,0,0,1,.08-.21,1.24,1.24,0,0,1,.16-.22,1.15,1.15,0,0,1,.25-.19.91.91,0,0,1,.55-.09.77.77,0,0,1,.28.09.78.78,0,0,1,.15.1.74.74,0,0,1,.18.17,2,2,0,0,1,.12.2.91.91,0,0,1,.08.2,5.53,5.53,0,0,1,.28,1.56V42s0,.07,0,.14a1,1,0,0,1-.21.43,1.07,1.07,0,0,1-1.12.37,1.13,1.13,0,0,1-.56-.35,1,1,0,0,1-.17-.28l-.09-.19-.14-.4-.2-.65a11.8,11.8,0,0,1-.28-1.22c-.32-1.6-.67-3.2-1-4.79s-.73-3.17-1.15-4.71c-.2-.76-.44-1.52-.69-2.2a2.82,2.82,0,0,1-.17-1,.58.58,0,0,1,.13-.41c0-.06.14-.12.15-.23s-.1-.18-.24-.21Z"/>
        <path class="cls-5" d="M30.7,40.33a40.92,40.92,0,0,1,0,7.17q-.26,3.51-.82,7l-1.67-.21c.16-2.29.33-4.59.38-6.87a38.21,38.21,0,0,0-.35-6.72Z"/>
        <path class="cls-5" d="M27.46,53.8a.81.81,0,0,1,1-1,3.75,3.75,0,0,1,2.14,1.85,4.49,4.49,0,0,1-1.82,4.92c-1.48.86-2,.59-1.76-.22s1-4,1-4A5.74,5.74,0,0,1,27.46,53.8Z"/>
        <path class="cls-5" d="M28,54.31a3.5,3.5,0,0,0-2.1.87.51.51,0,0,1-.73,0,.52.52,0,0,1,0-.7A4.63,4.63,0,0,1,27.88,53h0a.66.66,0,0,1,.74.56.64.64,0,0,1-.55.74Z"/>
        <path class="cls-2" d="M28.11,43.8l3-.36a1.51,1.51,0,0,0,1.24-1.51v-1.6a1.13,1.13,0,0,0-1.24-1.22l-3,.36A1.51,1.51,0,0,0,26.86,41v1.6A1.14,1.14,0,0,0,28.11,43.8Z"/>
      </g>
      <g>
        <path class="cls-6" d="M26.22,23.87c-.37-1.52-3-2.11-2-6.32a23.7,23.7,0,0,0,.53-3.25c-.88-.1-1.74-.28-2.61-.45a48.14,48.14,0,0,0-8.89-.74c-.38,2.54-.93,6.39-1.31,9.08a7.41,7.41,0,0,0,1.49,5.62l.17.21,5,.11,6.63-.54S26.6,25.38,26.22,23.87Z"/>
        <path class="cls-7" d="M15.42,24.07a5.33,5.33,0,0,0-.26-2.93c-.6-1.71-1.72-3.53-1.43-5.41l0,0A6.58,6.58,0,0,1,14,13.12H13.2c-.38,2.54-.93,6.39-1.31,9.08a7.41,7.41,0,0,0,1.49,5.62l.16.21c.26-.37.5-.74.72-1.13A9.28,9.28,0,0,0,15.42,24.07Z"/>
        <path class="cls-8" d="M24,10.08a8.73,8.73,0,0,0-3.37,2.28,12.35,12.35,0,0,0-.89,1c.85.1,1.7.23,2.54.4s1.62.33,2.44.42a17.84,17.84,0,0,0-.07-4.27A3.63,3.63,0,0,0,24,10.08Z"/>
      </g>
      <g>
        <path class="cls-4" d="M26.3,25.83c-.57-.32-1.12-.65-1.65-1a14.46,14.46,0,0,1-2.58-2.22c-.14-.15-.27-.3-.4-.46a1.77,1.77,0,0,0-1-.29c-.95.18-1.9.4-2.86.56a6.43,6.43,0,0,0-.76.17,7.14,7.14,0,0,1-.83,1,15,15,0,0,1-2.75,2.12l-.73.42a3.4,3.4,0,0,0-.38.47c0,.17.08.34.11.53.18,1,.14,2,.37,3,.36,1.61,1.18,3.08,1.38,4.7a21.85,21.85,0,0,1-.46,5.76c-.19,1.26-.09,3,1.4,3.61a5.24,5.24,0,0,0,2.67.16,2.92,2.92,0,0,0,1.9-.83,3.38,3.38,0,0,0,3.42.85c1.74-.58,2.11-2.18,2-3.71-.06-.83-.5-1.49-.59-2.31a13,13,0,0,1,.12-3.41,8.78,8.78,0,0,1,.51-1.72,13.09,13.09,0,0,0,.72-2.08A20.5,20.5,0,0,0,26.27,28a12.51,12.51,0,0,0,.12-2.14A.14.14,0,0,1,26.3,25.83Z"/>
        <path class="cls-2" d="M23.8,26.12a20.14,20.14,0,0,1-1.22-2.73,2.76,2.76,0,0,0-1.74-1.69,4.61,4.61,0,0,0-3.08.24c-.41.15-1,.31-1.1.72-.22.57-.52,1.11-.78,1.67s-.57,1.19-.86,1.79c-.63,1.32.59,3.08,1.79,3.67.22.11.74.2.86.38a5.47,5.47,0,0,1,0,1.29c.08,1,.19,1.92.34,2.88.09.59.78,5.37,1.43,5.28.33-.06.72-2.33.8-2.67.21-.9.38-1.82.52-2.74s.24-2,.3-3a3.25,3.25,0,0,1,.05-1c.09-.18.34-.21.65-.35a3.42,3.42,0,0,0,1.7-1.47A3.29,3.29,0,0,0,23.8,26.12Z"/>
        <path class="cls-9" d="M21.73,22.91a1.94,1.94,0,0,1-.31-.76,0,0,0,0,1,0,0l0-.06a.12.12,0,0,1,0-.15A8.49,8.49,0,0,1,21,17.81H17.8S18.25,21,17,22.5l.06.29a.64.64,0,0,0,0,.07l.59,2.6a1.34,1.34,0,0,0,.3.12,5.28,5.28,0,0,0,2.56.11l.71-.15.65-2.2A.75.75,0,0,1,21.73,22.91Z"/>
        <path class="cls-5" d="M21.18,21.26c-1.16.78-3.09,1.22-3.64.17-.18.55-.66.95-.89,1.48s-.29.92-.44,1.36a4.42,4.42,0,0,0,.12,3.14,3.26,3.26,0,0,0,2.51,2,3.32,3.32,0,0,0,3.26-1.89,5,5,0,0,0,.08-3.42C22.11,23.78,21.14,21.29,21.18,21.26Z"/>
        <ellipse class="cls-10" cx="19.43" cy="32.6" rx="0.41" ry="0.38"/>
        <path class="cls-11" d="M14.42,36.9a5.56,5.56,0,0,0,2.48,2l-.1-.13"/>
        <path class="cls-11" d="M24.47,36.76a6.32,6.32,0,0,1-2.56,2.16"/>
        <path class="cls-11" d="M13.89,33.15a3.13,3.13,0,0,1-.72-2.58,20.77,20.77,0,0,1,.65-2.67.89.89,0,0,0-.09-.8L12.67,25"/>
        <path class="cls-11" d="M24.72,33.63a3.08,3.08,0,0,0,.73-2.57,20.77,20.77,0,0,0-.65-2.67.91.91,0,0,1,.09-.81L26,25.48"/>
        <path class="cls-12" d="M21.14,20.6a3.41,3.41,0,0,1,1.48,1.08,3.74,3.74,0,0,1,.79,3.3"/>
        <path class="cls-12" d="M15.41,25a2.66,2.66,0,0,1,.38-2.69,4.7,4.7,0,0,1,1.8-1.53"/>
        <g>
          <ellipse class="cls-3" cx="22.71" cy="25.27" rx="2.41" ry="2.1" transform="translate(-11.19 23.11) rotate(-44.4)"/>
          <ellipse class="cls-2" cx="23.13" cy="24.94" rx="1.55" ry="1.3" transform="translate(-10.88 25.58) rotate(-48.24)"/>
        </g>
        <g>
          <ellipse class="cls-3" cx="15.47" cy="25.27" rx="2.1" ry="2.41" transform="translate(-13.41 18.64) rotate(-45.6)"/>
          <ellipse class="cls-2" cx="15.06" cy="24.94" rx="1.3" ry="1.55" transform="translate(-12.79 16.37) rotate(-41.76)"/>
        </g>
      </g>
      <g>
        <path class="cls-7" d="M19.62,12.78a12.23,12.23,0,0,1,3-2.88,6,6,0,0,1,2.28-1A7.67,7.67,0,0,0,22.8,4.3c-2.8-2.52-4.86-.59-5.09-.53,0,0-4.35,5.49-4.46,5.9,0,.11-.19,1.18-.42,2.73h.48a61.6,61.6,0,0,1,6.22.37Z"/>
        <ellipse class="cls-9" cx="23.85" cy="13.64" rx="1.87" ry="1.51" transform="translate(5.26 33.87) rotate(-77.18)"/>
        <path class="cls-5" d="M19.35,20h-.48c-2.15,0-4-2.84-4.15-4.84L14,9.63c-.22-2.36,1.77-5,4.32-5H20c2.56,0,4.56,2.67,4.32,5l-.78,5.53C23.29,17.17,21.49,20,19.35,20Z"/>
        <path class="cls-9" d="M19.92,15.34a1.23,1.23,0,0,1-1.42.58.4.4,0,0,0,.39.34h.85a.41.41,0,0,0,.4-.41A1.23,1.23,0,0,0,19.92,15.34Z"/>
        <path class="cls-13" d="M18.43,17.47a1.1,1.1,0,0,0,.44.11,3.1,3.1,0,0,0,2-.51"/>
        <path class="cls-13" d="M18.89,18.13a.64.64,0,0,0,.6.2A1.05,1.05,0,0,0,20,18"/>
        <path class="cls-14" d="M23,12.66s0,.1,0,.13a.25.25,0,0,1-.14.06,4.49,4.49,0,0,0-2,.52.76.76,0,0,1,.77-.71C22.37,12.58,22.86,12.82,23,12.66Z"/>
        <ellipse class="cls-14" cx="21.83" cy="13.18" rx="0.4" ry="0.4"/>
        <path class="cls-14" d="M15.51,12.66s0,.1,0,.13a.2.2,0,0,0,.13.06,4.46,4.46,0,0,1,2,.52.76.76,0,0,0-.77-.71C16.11,12.58,15.63,12.82,15.51,12.66Z"/>
        <ellipse class="cls-14" cx="16.66" cy="13.18" rx="0.4" ry="0.4"/>
        <path class="cls-13" d="M15.31,11.52a2.49,2.49,0,0,1,2.61.53"/>
        <path class="cls-13" d="M20.37,12a2.79,2.79,0,0,1,2.34-.69"/>
        <path class="cls-7" d="M23.13,5.68A6,6,0,0,1,24.32,7.4a2,2,0,0,1,.22,1,.82.82,0,0,1-.57.74,1.22,1.22,0,0,1-.5,0L21.8,8.75a4.12,4.12,0,0,1-1.16-.36A2.62,2.62,0,0,1,19.51,7a3.9,3.9,0,0,1-.25-1.44,2.15,2.15,0,0,1,.28-1.08,1.17,1.17,0,0,1,.91-.56,1.72,1.72,0,0,1,.63.16A3.72,3.72,0,0,1,23.33,5.7a.34.34,0,0,0-.16.1"/>
        <path class="cls-6" d="M15.76,6.9c.17,0,3.72-.18,3.72-.18L18.05,4.27Z"/>
        <path class="cls-7" d="M16.39,4.82s1-.23,2.35,2.22,4.46,5.38,8.12,1.64c0,0-3.72.29-4.86-1.17S20.91,3.36,16.39,4.82Z"/>
        <path class="cls-7" d="M17.54,5.29S14.05,10,15.65,15.34s2.92,10.05-.12,12.45a3.06,3.06,0,0,0,.46-2s-1.89,1.69-3.14,1c0,0,1.25.06,1.94-2s1.2-5-1.26-7.07-1.85-9.84,2-12.86a23.78,23.78,0,0,1,2.57-1.69l5.84,3.15Z"/>
        <path class="cls-7" d="M23.29,10.57a15.2,15.2,0,0,1,.12,3.37,8.29,8.29,0,0,0,.43,3.33,3.19,3.19,0,0,0,2.4,2.08A4.43,4.43,0,0,1,24,15.24a16.32,16.32,0,0,1,.54-2.59,4,4,0,0,0-.09-2.6A6,6,0,0,1,23.29,10.57Z"/>
        <path class="cls-15" d="M18.49,3.42c1.8-.4,3.67,2.21,4,3.37a5.55,5.55,0,0,0,.39,1.1,1.39,1.39,0,0,0,1,.7,5,5,0,0,1-2.89-1,5.49,5.49,0,0,1-1.71-2.23C19.05,4.7,18.76,4.05,18.49,3.42Zm-4.94,4.1a5.36,5.36,0,0,0,.27,5.2,6.64,6.64,0,0,1,.65-4.48A12.25,12.25,0,0,1,15.9,6.08c.26-.32,1.23-1,.66-1.24C15.26,4.23,13.82,6.93,13.55,7.52Zm1.88,9.57a14.73,14.73,0,0,1-.86-3.27h0a7.23,7.23,0,0,0,.26,2.88,29.65,29.65,0,0,1,.86,4.23,9.06,9.06,0,0,1-1.22,5.27,5.15,5.15,0,0,0,1.88-2.44c.61-1.75.08-3.69-.5-5.45C15.69,17.9,15.55,17.49,15.43,17.09Zm4.28-9.26a3,3,0,0,0,1.54,1.91,4.77,4.77,0,0,0,2.44.44,2.78,2.78,0,0,0,1.36-.35A5.84,5.84,0,0,1,19.71,7.83Z"/>
      </g>
    </g>
  </g>
</svg>
