<svg xmlns="http://www.w3.org/2000/svg" viewBox="0 0 38.11 97.27">
  <defs>
    <style>
      .cls-1 {
        fill: #74bdd9;
      }

      .cls-2 {
        fill: #bacbd3;
      }

      .cls-3 {
        fill: #6c6166;
      }

      .cls-4 {
        fill: #252020;
      }

      .cls-10, .cls-11, .cls-5 {
        fill: none;
        stroke-linecap: round;
        stroke-miterlimit: 10;
        stroke-width: 0.11px;
      }

      .cls-5 {
        stroke: #6c6166;
      }

      .cls-6 {
        fill: #4e4448;
      }

      .cls-7 {
        fill: #ad5e43;
      }

      .cls-8 {
        fill: #005a95;
      }

      .cls-9 {
        fill: #563533;
      }

      .cls-10 {
        stroke: #252020;
      }

      .cls-11 {
        stroke: #320830;
      }
    </style>
  </defs>
  <title>char-3</title>
  <g id="LH-PH">
    <ellipse class="cls-1" cx="19.05" cy="91.17" rx="17.69" ry="4.82"/>
    <g>
      <g>
        <path class="cls-2" d="M7.12,88.72a2.21,2.21,0,0,0,.1,1.68A1.58,1.58,0,0,0,8,91a2.58,2.58,0,0,0,2.38-.41,10.43,10.43,0,0,0,1.9-1.86c1.05-1.19,6.48-5.71,2-5.22C11.79,83.81,8,85.81,7.12,88.72Z"/>
        <path class="cls-3" d="M10.48,87.49A3.57,3.57,0,0,0,8.89,87a3.06,3.06,0,0,0-1,.14,5.23,5.23,0,0,0-.77,1.55,2.21,2.21,0,0,0,.1,1.68A1.58,1.58,0,0,0,8,91a2.58,2.58,0,0,0,2.38-.41A9.22,9.22,0,0,0,12,89,4.18,4.18,0,0,0,10.48,87.49Z"/>
        <path class="cls-4" d="M18.14,47.45c-.17,1.54-.29,2.89-.37,4.48s-.26,3.19-.4,4.7l-.9,9.19C15.91,72,15.55,78.13,15.2,84.3a1.63,1.63,0,0,1-3.26-.08c0-6.22.13-12.44.39-18.67.17-3.11.41-6.22.67-9.33.12-1.58.29-3.07.38-4.56a43.43,43.43,0,0,1,.47-4.78v0a2.17,2.17,0,0,1,4.29.59Z"/>
        <ellipse class="cls-3" cx="10.77" cy="86.38" rx="1.27" ry="0.66"/>
        <path class="cls-5" d="M12,81.65a5.06,5.06,0,0,0,3.23,1.7c.21,0,.53-.1.44-.3"/>
        <path class="cls-5" d="M13,79.94a2.51,2.51,0,0,0,2,.35"/>
      </g>
      <g>
        <path class="cls-2" d="M31.64,88.72a2.21,2.21,0,0,1-.1,1.68,1.54,1.54,0,0,1-.75.63,2.58,2.58,0,0,1-2.38-.41,10.43,10.43,0,0,1-1.9-1.86c-1.05-1.19-6.48-5.71-2-5.22C27,83.81,30.8,85.81,31.64,88.72Z"/>
        <path class="cls-3" d="M28.28,87.49A3.57,3.57,0,0,1,29.87,87a3.06,3.06,0,0,1,1,.14,5.23,5.23,0,0,1,.77,1.55,2.21,2.21,0,0,1-.1,1.68,1.54,1.54,0,0,1-.75.63,2.58,2.58,0,0,1-2.38-.41A9.55,9.55,0,0,1,26.72,89,4.18,4.18,0,0,1,28.28,87.49Z"/>
        <path class="cls-4" d="M24.92,46.88a46,46,0,0,1,.46,4.78c.09,1.49.27,3,.38,4.56.26,3.11.5,6.22.67,9.33.26,6.23.44,12.45.39,18.67a1.63,1.63,0,0,1-3.26.08c-.35-6.17-.71-12.33-1.26-18.48l-.91-9.19c-.14-1.51-.31-3.1-.4-4.7s-.2-2.94-.37-4.48a2.17,2.17,0,0,1,4.29-.6Z"/>
        <ellipse class="cls-3" cx="27.99" cy="86.38" rx="1.27" ry="0.66"/>
        <path class="cls-5" d="M23,82.28a2.5,2.5,0,0,0,1.6,0,4.25,4.25,0,0,0,2.47-2"/>
        <path class="cls-5" d="M24.54,80a1.37,1.37,0,0,0,.83-.92"/>
      </g>
      <g>
        <g>
          <path class="cls-6" d="M13.69,25.1c.16.73.39,1.16.43,1.57a1.88,1.88,0,0,1,0,1.06c-.25.63-.48,1.3-.71,2-.45,1.39-.84,2.85-1.24,4.31s-.76,3-1.1,4.45a11.57,11.57,0,0,1-.27,1.13l-.47,1.21-.15.36-.06.15-.05.13a2.31,2.31,0,0,1-.28.43l-.16.15a1.39,1.39,0,0,1-.49.27,1.42,1.42,0,0,1-.84,0,1.43,1.43,0,0,1-.73-.5,1.39,1.39,0,0,1-.23-.43l0-.16a1.33,1.33,0,0,1,0-.28,1,1,0,0,1,0-.21,2.64,2.64,0,0,1,.16-.63,2.4,2.4,0,0,1,.15-.33l.1-.15.21-.21A1.4,1.4,0,0,1,9,39.12a1.7,1.7,0,0,1,.32.1,1,1,0,0,1,.19.12,1.6,1.6,0,0,1,.24.2,1.74,1.74,0,0,1,.19.27,1.23,1.23,0,0,1,.11.26,3.14,3.14,0,0,1,.11.85,4.57,4.57,0,0,1,0,.65L8,41.83c-.08-.17-.13-.35-.19-.51S7.66,41,7.64,41l.05.13a1.63,1.63,0,0,0,.15.2.85.85,0,0,0,.21.18.94.94,0,0,0,.18.11,1.32,1.32,0,0,0,.3.1,1.35,1.35,0,0,0,1.1-.29,1.31,1.31,0,0,0,.18-.19l.08-.12A.65.65,0,0,0,10,41c0-.1,0,0,.06-.05s0,0,0-.06a1.32,1.32,0,0,0,0-.21.57.57,0,0,0,0-.14,1.38,1.38,0,0,0-.95-.91,1.35,1.35,0,0,0-.82,0,1.48,1.48,0,0,0-.49.26L7.59,40a1.46,1.46,0,0,0-.23.36l0,.06s0,0,0,0,0-.13,0-.21c0-.34,0-.74-.08-1.12s.06-.8.08-1.2A46.09,46.09,0,0,1,8,33.09a30.75,30.75,0,0,1,1.31-4.77,20.34,20.34,0,0,1,1-2.37,2.71,2.71,0,0,1,1.1-1,2.58,2.58,0,0,1,1.93-.24Z"/>
          <path class="cls-7" d="M9.26,39.25a5.32,5.32,0,0,1,1.38,1c.27.3.48.58.21.83a4.64,4.64,0,0,0-.38.39.74.74,0,0,0-.15.4c0,.28-.08.56-.1.83,0,1.12,0,2.25-.06,3.39-.07,2.28,0,4.58.07,6.89l-1.63.2c-.49-2.3-.85-4.61-1.13-7a26.52,26.52,0,0,1-.19-3.57c0-.3,0-.6,0-.9a1,1,0,0,0-.1-.47c-.08-.15-.24-.32-.33-.48-.23-.33,0-.63.35-.9a3.62,3.62,0,0,1,1.6-.72Z"/>
          <path class="cls-7" d="M11,52.51a.8.8,0,0,0-1-1,3.71,3.71,0,0,0-2.14,1.85,4.51,4.51,0,0,0,1.81,4.92c1.49.86,2.05.58,1.77-.22s-1-4-1-4A6,6,0,0,0,11,52.51Z"/>
          <path class="cls-7" d="M10.6,51.71a4.64,4.64,0,0,1,2.69,1.43.52.52,0,0,1,0,.73.53.53,0,0,1-.7,0A3.44,3.44,0,0,0,10.47,53a.64.64,0,0,1-.63-.68.66.66,0,0,1,.68-.63h.08Z"/>
        </g>
        <path class="cls-3" d="M10.54,43.51l-3-.36a1.51,1.51,0,0,1-1.25-1.51V40a1.14,1.14,0,0,1,1.25-1.22l3,.36a1.51,1.51,0,0,1,1.24,1.51V42.3A1.13,1.13,0,0,1,10.54,43.51Z"/>
      </g>
      <g>
        <g>
          <path class="cls-6" d="M25.25,24.7a2.58,2.58,0,0,1,1.93.24,2.71,2.71,0,0,1,1.1,1,20.34,20.34,0,0,1,1,2.37,30.75,30.75,0,0,1,1.31,4.77,46.09,46.09,0,0,1,.71,4.81c0,.4.09.81.08,1.2s-.07.78-.08,1.12c0,.08,0,.17,0,.21s0,0,0,0l0-.06A1.46,1.46,0,0,0,31,40l-.16-.15a1.48,1.48,0,0,0-.49-.26,1.35,1.35,0,0,0-.82,0,1.42,1.42,0,0,0-.73.49,1.7,1.7,0,0,0-.22.42.57.57,0,0,0,0,.14,1.32,1.32,0,0,0,0,.21s0,.06,0,.06,0,0,.06.05a.65.65,0,0,0,.1.19l.08.12a1.31,1.31,0,0,0,.18.19,1.35,1.35,0,0,0,1.1.29,1.6,1.6,0,0,0,.31-.1,1.26,1.26,0,0,0,.17-.11.85.85,0,0,0,.21-.18,1.63,1.63,0,0,0,.15-.2L31,41c0-.06-.11.15-.16.3s-.11.34-.19.51l-2.18-.26a4.57,4.57,0,0,1,0-.65,3.14,3.14,0,0,1,.11-.85,1.23,1.23,0,0,1,.11-.26,1.74,1.74,0,0,1,.19-.27,1.6,1.6,0,0,1,.24-.2,1,1,0,0,1,.19-.12,1.7,1.7,0,0,1,.32-.1,1.4,1.4,0,0,1,1.17.31l.21.21.1.15a2.4,2.4,0,0,1,.15.33,2.64,2.64,0,0,1,.16.63,1,1,0,0,1,0,.21,1.33,1.33,0,0,1,0,.28l0,.16a1.39,1.39,0,0,1-.23.43,1.43,1.43,0,0,1-.73.5A1.46,1.46,0,0,1,29,42.05l-.16-.15a1.5,1.5,0,0,1-.27-.43l-.06-.13-.06-.15-.15-.36-.47-1.21a11.57,11.57,0,0,1-.27-1.13c-.34-1.49-.72-3-1.1-4.45s-.79-2.92-1.24-4.31c-.22-.7-.46-1.37-.71-2a1.88,1.88,0,0,1,0-1.06c0-.41.27-.84.43-1.57Z"/>
          <path class="cls-7" d="M29.87,39.18a3.62,3.62,0,0,1,1.6.72c.32.27.58.57.35.9-.09.16-.25.33-.33.48a1,1,0,0,0-.1.47c0,.3,0,.6,0,.9a26.52,26.52,0,0,1-.19,3.57c-.28,2.35-.64,4.66-1.13,7L28.41,53c.06-2.31.13-4.61.06-6.89-.06-1.14,0-2.27-.06-3.39,0-.27-.06-.55-.1-.83a.81.81,0,0,0-.14-.4,4.78,4.78,0,0,0-.39-.39c-.26-.25-.06-.53.21-.83a5.32,5.32,0,0,1,1.38-1Z"/>
          <path class="cls-7" d="M27.6,52.51a.8.8,0,0,1,1-1,3.71,3.71,0,0,1,2.14,1.85,4.51,4.51,0,0,1-1.81,4.92c-1.49.86-2.05.58-1.77-.22s1-4,1-4A6,6,0,0,1,27.6,52.51Z"/>
          <path class="cls-7" d="M28.16,53a3.44,3.44,0,0,0-2.09.87.53.53,0,0,1-.74,0,.54.54,0,0,1,0-.7A4.64,4.64,0,0,1,28,51.71h0a.66.66,0,0,1,.75.55.67.67,0,0,1-.56.75Z"/>
        </g>
        <path class="cls-3" d="M28.09,43.51l3-.36a1.51,1.51,0,0,0,1.25-1.51V40a1.14,1.14,0,0,0-1.25-1.22l-3,.36a1.52,1.52,0,0,0-1.24,1.51V42.3A1.13,1.13,0,0,0,28.09,43.51Z"/>
      </g>
      <g>
        <path class="cls-6" d="M27.44,24.57a16.22,16.22,0,0,1-5.24-3,3.14,3.14,0,0,1-2.05,1.57l-.55,1.68-.23-1.55-.67-.13a6.12,6.12,0,0,1-2.17-1.57,16.22,16.22,0,0,1-5.24,3l-.06.18c.37,1.23.71,2.46,1,3.72a24.33,24.33,0,0,1,.5,3.3l.09-.24s.8,5.74,1,8.95l-.07,0,.06.49c.05.57.09,1.14.13,1.71,1-.06,2-.19,2.32-.24l3.06,1.24v-.78h0v.78l3.06-1.24a23,23,0,0,0,2.72.25c0-.76.05-1.53.06-2.29l-.34.1c.24-3.21,1-8.95,1-8.95l0,.07c.13-.67.25-1.34.38-2,.27-1.36.56-2.71.92-4.06.07-.28.15-.56.23-.84Z"/>
        <g>
          <path class="cls-4" d="M25.1,38.81,19.38,41.9l-5.72-3.09c-.1,2.88-.12,5.75-.06,8.63a3.27,3.27,0,0,0,.34,1.64,2.85,2.85,0,0,0,1.24.94,8.33,8.33,0,0,0,4.23.9,8.17,8.17,0,0,0,4.18-.9,2.88,2.88,0,0,0,1.23-.94,3.27,3.27,0,0,0,.34-1.64C25.22,44.56,25.2,41.69,25.1,38.81Z"/>
          <path class="cls-6" d="M16.59,44.67l1.57,0,1.67,0c1.14,0,2.27,0,3.41-.11q1-.07,2-.21,0-3.36-.09-6.71l-5.72,3.08L13.66,37.7q-.11,3.25-.09,6.53A11.49,11.49,0,0,0,16.59,44.67Z"/>
          <line class="cls-8" x1="14.34" y1="42.66" x2="14.33" y2="42.66"/>
          <line class="cls-8" x1="24.42" y1="42.66" x2="24.43" y2="42.66"/>
          <path class="cls-5" d="M13.73,49.1a4.31,4.31,0,0,0,1.45-3.5"/>
          <path class="cls-5" d="M24.91,49.45A2.66,2.66,0,0,1,23.78,48a4.73,4.73,0,0,1-.22-2.36"/>
          <path class="cls-5" d="M20.09,45.14l-.31,5.32"/>
        </g>
        <path class="cls-9" d="M22.12,21.48a4.74,4.74,0,0,0-.37-.39,2.37,2.37,0,0,1-.43-.65A22.32,22.32,0,0,1,21,15.63a13.61,13.61,0,0,0-1.57-.16v.19h0v-.19a13.61,13.61,0,0,0-1.57.16,22.32,22.32,0,0,1-.37,4.81A2.35,2.35,0,0,1,17,21a3.85,3.85,0,0,0-.57.65,2.58,2.58,0,0,0-.12,1.69,3.93,3.93,0,0,0,.82,1.69,2.84,2.84,0,0,0,1.59,1,3.26,3.26,0,0,0,2.73-.81,2.42,2.42,0,0,0,.73-2.06,5,5,0,0,1-.1-.66,1.44,1.44,0,0,1,.08-.46.88.88,0,0,0,.06-.27A.51.51,0,0,0,22.12,21.48Z"/>
        <path class="cls-9" d="M17.05,21a2.36,2.36,0,0,0,1.24,1,2.73,2.73,0,0,0,2.84-.63,2.26,2.26,0,0,0,.4-.57,1.76,1.76,0,0,1-.21-.38A22.32,22.32,0,0,1,21,15.63a13.61,13.61,0,0,0-1.57-.16v.19h0v-.19a13.61,13.61,0,0,0-1.57.16,22.32,22.32,0,0,1-.37,4.81A2.34,2.34,0,0,1,17.05,21Z"/>
        <path class="cls-3" d="M22.25,21.77a.51.51,0,0,0-.13-.29,4.74,4.74,0,0,0-.37-.39L21.7,21a2.59,2.59,0,0,1-1.94,1.34A3.2,3.2,0,0,1,18,22.16a2.62,2.62,0,0,1-1.11-.95,2.09,2.09,0,0,0-.41.48,2.58,2.58,0,0,0-.12,1.69,3.93,3.93,0,0,0,.82,1.69,2.84,2.84,0,0,0,1.59,1,3.26,3.26,0,0,0,2.73-.81,2.42,2.42,0,0,0,.73-2.06,5,5,0,0,1-.1-.66,1.44,1.44,0,0,1,.08-.46A.88.88,0,0,0,22.25,21.77Z"/>
        <path class="cls-6" d="M27.44,24.57a16.22,16.22,0,0,1-5.24-3,3.14,3.14,0,0,1-2.05,1.57l-.55,1.68-.23-1.55-.67-.13a6.12,6.12,0,0,1-2.17-1.57,16.22,16.22,0,0,1-5.24,3s0,.11-.1.3c.31,1,.63,2,.9,3a21.07,21.07,0,0,1,.7,3.69l0,0s.8,5.74,1,8.95h0l.06.32c.1.62.17,1.24.25,1.86,1-.06,1.85-.18,2.17-.23l3.06,1.24v-.78h0v.78l3.06-1.24a23,23,0,0,0,2.72.25c0-.76.05-1.53.06-2.29l-.34.1c.19-2.52.72-6.61.94-8.24a.14.14,0,0,1-.06-.14c.19-.78.37-1.57.55-2.35.32-1.38.63-2.75,1-4.11.08-.26.15-.53.23-.79S27.44,24.57,27.44,24.57Z"/>
        <path class="cls-10" d="M12.86,31.2a36.51,36.51,0,0,0-1.41-5.63"/>
        <path class="cls-10" d="M25.88,31.2a37.66,37.66,0,0,1,1.4-5.63"/>
        <path class="cls-10" d="M26.34,31l1.12-1.36"/>
        <path class="cls-10" d="M12.45,31.24a14.81,14.81,0,0,1-1.22-1.82"/>
        <circle class="cls-10" cx="19.6" cy="26.14" r="0.49"/>
        <polyline class="cls-10" points="19.6 25.16 20.91 25.38 20.36 30.5"/>
      </g>
      <g>
        <rect class="cls-9" x="13.56" y="10.47" width="2.4" height="3.59" rx="0.82" transform="translate(-1.82 2.6) rotate(-9.47)"/>
        <rect class="cls-9" x="22.5" y="10.47" width="2.4" height="3.59" rx="0.82" transform="translate(45.05 28.27) rotate(-170.53)"/>
        <path class="cls-7" d="M19.46,19.09H19c-2.1,0-3.85-3-4-5.07l-.7-5.79C14,5.77,16,3,18.46,3h1.6c2.49,0,4.44,2.8,4.2,5.28l-.76,5.79C23.3,16.13,21.55,19.09,19.46,19.09Z"/>
        <path class="cls-4" d="M15.15,10.06c.16-.77.83-.66.81-1.46,0-.47-.38-.61-.64-.92a.76.76,0,0,1-.09-.79,2.35,2.35,0,0,1,1.82-1.2C18,5.56,19,6,20,5.88l0,0a4.82,4.82,0,0,1,2.07,0,1.44,1.44,0,0,1,1,1.27,9.43,9.43,0,0,1-.2,1.06,2.77,2.77,0,0,0,.36,1.28,2.19,2.19,0,0,1,.21,1.31,2.38,2.38,0,0,0,.32,1.15l.48-3.63C24.5,5.79,22.55,3,20.06,3h-1.6C16,3,14,5.77,14.26,8.23l.47,3.88a1.58,1.58,0,0,0,.22-.33C15.22,11.22,15,10.64,15.15,10.06Z"/>
        <path class="cls-4" d="M15.93,11.69a1.41,1.41,0,0,1,1.84-.16Z"/>
        <circle class="cls-4" cx="16.91" cy="11.79" r="0.42"/>
        <path class="cls-4" d="M22.66,11.69a1.4,1.4,0,0,0-1.83-.16Z"/>
        <circle class="cls-4" cx="21.68" cy="11.79" r="0.42"/>
        <path class="cls-9" d="M19.72,15.18H19a.53.53,0,0,1-.53-.53l.21-1.7a.53.53,0,0,1,.53-.53h.28A.53.53,0,0,1,20,13l.22,1.7A.53.53,0,0,1,19.72,15.18Z"/>
        <path class="cls-11" d="M17.71,16.19a20.53,20.53,0,0,0,3-.08c.72-.16.8-.48.8-.48"/>
        <path class="cls-4" d="M15.73,10.54s.09-.09.15-.1a9.38,9.38,0,0,1,1.58-.1,2.61,2.61,0,0,0,.74,0,.27.27,0,0,0,.2-.12c.06-.15-.1-.29-.24-.35a3.37,3.37,0,0,0-1.94,0,.89.89,0,0,0-.41.18c-.1.11-.19.39-.08.5"/>
        <path class="cls-4" d="M22.71,10.54s-.08-.09-.15-.1a9.2,9.2,0,0,0-1.57-.1,2.61,2.61,0,0,1-.74,0,.27.27,0,0,1-.2-.12c-.07-.15.09-.29.24-.35a3.37,3.37,0,0,1,1.94,0,.81.81,0,0,1,.4.18c.11.11.2.39.09.5"/>
        <path class="cls-11" d="M18.61,17a2.43,2.43,0,0,0,1.7-.05s.05,0,.05,0-.06,0,0,0"/>
        <path class="cls-11" d="M16.29,8.92a21.94,21.94,0,0,1,6.32,0"/>
      </g>
    </g>
  </g>
</svg>
