<svg xmlns="http://www.w3.org/2000/svg" viewBox="0 0 38.11 97.27">
  <defs>
    <style>
      .cls-1 {
        fill: #74bdd9;
      }

      .cls-2 {
        fill: #514651;
      }

      .cls-3 {
        fill: #ad5e43;
      }

      .cls-4 {
        fill: #fff;
      }

      .cls-11, .cls-12, .cls-14, .cls-15, .cls-5, .cls-6, .cls-7, .cls-9 {
        fill: none;
      }

      .cls-6 {
        stroke: #bacbd3;
      }

      .cls-11, .cls-12, .cls-14, .cls-15, .cls-6, .cls-7 {
        stroke-linecap: round;
      }

      .cls-11, .cls-12, .cls-14, .cls-15, .cls-6, .cls-7, .cls-9 {
        stroke-miterlimit: 10;
      }

      .cls-11, .cls-12, .cls-14, .cls-6, .cls-7 {
        stroke-width: 0.11px;
      }

      .cls-7, .cls-9 {
        stroke: #252020;
      }

      .cls-8 {
        fill: #892848;
      }

      .cls-9 {
        stroke-width: 0.39px;
      }

      .cls-10 {
        fill: #563533;
      }

      .cls-11 {
        stroke: #320830;
      }

      .cls-12 {
        stroke: #681430;
      }

      .cls-13 {
        fill: #252020;
      }

      .cls-14 {
        stroke: #ba89cf;
      }

      .cls-15 {
        stroke: #c62c15;
        stroke-width: 0.33px;
      }
    </style>
  </defs>
  <title>char-2</title>
  <g id="LH-PH">
    <ellipse class="cls-1" cx="19.05" cy="91.17" rx="17.69" ry="4.82"/>
    <g>
      <g>
        <g>
          <path class="cls-2" d="M18.75,60.84c.07-.71.15-1.42.21-2.13q.15-1.5.24-3c.05-.9.1-1.79.1-2.69a12,12,0,0,0-.23-2.32,5.88,5.88,0,0,0-.8-2.08.11.11,0,0,1,0-.07,4.45,4.45,0,0,0-3.92-.13h0a4,4,0,0,0-.83.49,4.19,4.19,0,0,0-.57.53,3,3,0,0,0-.63,1.11,3.86,3.86,0,0,0-.12.59c0,.2-.07.4-.11.6-.06.41-.12.82-.16,1.23-.09.83-.14,1.64-.16,2.45,0,.2,0,.4,0,.6v.6c0,.4,0,.8,0,1.2,0,3.2,0,6.46,0,9.66l0,1.2v1.2c0,.8,0,1.6.07,2.41,0,.4.06.8.08,1.2l0,1.2.08,2.4c0,.8.05,1.6.1,2.4,0,.4,0,.8.08,1.2l.1,1.2c.14,1.6.32,3.2.57,4.8a1,1,0,0,0,.8.79,1,1,0,0,0,1.18-.74h0c.34-1.58.61-3.16.87-4.74l.19-1.18.17-1.18c.11-.79.22-1.57.32-2.36s.2-1.58.31-2.36c.05-.4.11-.79.17-1.18s.14-.79.22-1.18c.16-.78.25-1.56.35-2.35L17.44,69l.14-1.17.07-.59,0-.3,0-.29c.06-.39.11-.78.17-1.17.12-.78.26-1.56.4-2.33s.3-1.55.45-2.33Z"/>
          <path class="cls-3" d="M14.15,73.48a5.94,5.94,0,0,1-2.43-.42l0,.44,0,1.2.08,2.4c0,.8.05,1.6.1,2.4,0,.4,0,.8.08,1.2l.1,1.2c.14,1.6.32,3.2.57,4.8a1,1,0,0,0,.8.79,1,1,0,0,0,1.18-.74h0c.34-1.58.61-3.16.87-4.74l.19-1.18.17-1.18c.11-.79.22-1.57.32-2.36s.2-1.58.31-2.36c.05-.4.11-.79.17-1.18l.12-.68A11.24,11.24,0,0,1,14.15,73.48Z"/>
          <path class="cls-3" d="M11.79,74.7l.08,2.4c0,.8.05,1.6.1,2.4,0,.4,0,.8.08,1.2l.06.72a7.18,7.18,0,0,0,3.29-.16l.3-.09.06-.34.17-1.18c.11-.79.22-1.57.32-2.36s.2-1.58.31-2.36c.05-.4.11-.79.17-1.18l.12-.68a11.24,11.24,0,0,1-2.7.41,5.94,5.94,0,0,1-2.43-.42l0,.44Z"/>
          <path class="cls-2" d="M13.39,81.8a6.64,6.64,0,0,1-1.26-.12l0,.22c.14,1.6.32,3.2.57,4.8a1,1,0,0,0,.8.79,1,1,0,0,0,1.18-.74h0c.34-1.58.61-3.16.87-4.74l.09-.56A8,8,0,0,1,13.39,81.8Z"/>
          <path class="cls-4" d="M13.86,82c-.9,0-1.61,1.13-2,1.79A15.87,15.87,0,0,1,11,85.18a6.45,6.45,0,0,1-.29.59.13.13,0,0,1,0,.07c-.24.32-.46.66-.68,1a13.37,13.37,0,0,0-1.31,2.55c-.72,2,.23,3.2,2.27,2.17a15,15,0,0,0,3.36-2.72c1-1,.95-2.43,1-3.79C15.3,84.17,15.21,82,13.86,82Z"/>
        </g>
        <path class="cls-5" d="M12,72.23a10,10,0,0,0,4.7-.14"/>
        <path class="cls-6" d="M11.64,71.52a11.09,11.09,0,0,0,5.94,0"/>
        <path class="cls-4" d="M11.34,80.28a7,7,0,0,0,5,.4l-1.57,6.83-3.21-.58Z"/>
        <path class="cls-7" d="M9.37,88.37c1.33,0,2.43,1.33,3.73,1.1a12.19,12.19,0,0,1-2.63-3.23,30.26,30.26,0,0,0,3,1.31L10.84,85a7.09,7.09,0,0,0,2.74,1.31,3.17,3.17,0,0,0,2.84-.77"/>
        <path class="cls-7" d="M19.12,57c.05-1.35.15-2.83.2-4.19"/>
      </g>
      <g>
        <g>
          <path class="cls-2" d="M20.18,60.84c-.07-.71-.15-1.42-.21-2.13q-.15-1.5-.24-3c-.05-.9-.1-1.79-.09-2.69a11.26,11.26,0,0,1,.22-2.32,5.88,5.88,0,0,1,.8-2.08.1.1,0,0,0,0-.07,4.41,4.41,0,0,1,3.9-.13h0a3.94,3.94,0,0,1,1.38,1,3,3,0,0,1,.63,1.11,5.6,5.6,0,0,1,.12.59c0,.2.07.4.1.6.06.41.12.82.17,1.23.09.83.14,1.64.15,2.45,0,.2,0,.4,0,.6v.6l0,1.2c0,3.2-.05,6.46,0,9.66l0,1.2v1.2c0,.8,0,1.6-.06,2.41,0,.4-.07.8-.09,1.2l0,1.2L27,77.1c0,.8-.06,1.6-.11,2.4,0,.4,0,.8-.08,1.2l-.1,1.2c-.14,1.6-.31,3.2-.56,4.8a1,1,0,0,1-.79.79,1,1,0,0,1-1.17-.74h0c-.34-1.58-.61-3.16-.86-4.74l-.19-1.18L23,79.65c-.12-.79-.22-1.57-.32-2.36s-.19-1.58-.3-2.36l-.18-1.18c-.06-.39-.14-.79-.21-1.18-.16-.78-.26-1.56-.36-2.35L21.48,69l-.14-1.17-.07-.59,0-.3,0-.29c-.06-.39-.11-.78-.17-1.17-.12-.78-.25-1.56-.39-2.33s-.3-1.55-.45-2.33Z"/>
          <path class="cls-3" d="M24.74,73.48a5.84,5.84,0,0,0,2.41-.42l0,.44,0,1.2L27,77.1c0,.8-.06,1.6-.11,2.4,0,.4,0,.8-.08,1.2l-.1,1.2c-.14,1.6-.31,3.2-.56,4.8a1,1,0,0,1-.79.79,1,1,0,0,1-1.17-.74h0c-.34-1.58-.61-3.16-.86-4.74l-.19-1.18L23,79.65c-.12-.79-.22-1.57-.32-2.36s-.19-1.58-.3-2.36l-.18-1.18c0-.23-.07-.45-.12-.68A11.15,11.15,0,0,0,24.74,73.48Z"/>
          <path class="cls-3" d="M27.08,74.7,27,77.1c0,.8-.06,1.6-.11,2.4,0,.4,0,.8-.08,1.2l-.06.72a7.05,7.05,0,0,1-3.26-.16l-.3-.09-.05-.34L23,79.65c-.12-.79-.22-1.57-.32-2.36s-.19-1.58-.3-2.36l-.18-1.18c0-.23-.07-.45-.12-.68a11.15,11.15,0,0,0,2.68.41,5.84,5.84,0,0,0,2.41-.42l0,.44Z"/>
          <path class="cls-2" d="M25.49,81.8a6.46,6.46,0,0,0,1.25-.12l0,.22c-.14,1.6-.31,3.2-.56,4.8a1,1,0,0,1-.79.79,1,1,0,0,1-1.17-.74h0c-.34-1.58-.61-3.16-.86-4.74l-.09-.56A7.76,7.76,0,0,0,25.49,81.8Z"/>
          <path class="cls-4" d="M25,81.7c.89,0,1.6,1.14,1.95,1.8.26.48.56,1,.87,1.41a4,4,0,0,0,.28.59.09.09,0,0,0,0,.07c.24.32.46.66.68,1a13.52,13.52,0,0,1,1.3,2.54c.71,2-.24,3.2-2.26,2.18a14.79,14.79,0,0,1-3.33-2.73c-1-1-.94-2.42-.95-3.78C23.6,83.91,23.69,81.7,25,81.7Z"/>
        </g>
        <path class="cls-5" d="M26.86,72.23a9.75,9.75,0,0,1-4.65-.14"/>
        <path class="cls-6" d="M27.23,71.52a10.91,10.91,0,0,1-5.89,0"/>
        <path class="cls-4" d="M27.53,80.28a6.87,6.87,0,0,1-5,.4l1.29,6.57,3.45-.32Z"/>
        <path class="cls-7" d="M29.48,88.37c-1.31,0-2.41,1.33-3.7,1.1a12.12,12.12,0,0,0,2.61-3.23,29,29,0,0,1-3,1.31L28,85a6.9,6.9,0,0,1-2.71,1.31,3.13,3.13,0,0,1-2.82-.77"/>
      </g>
      <g>
        <g>
          <path class="cls-8" d="M13,27c-.39.17-.45.52-.11.75s.53.21.68.35a.83.83,0,0,1,.37.66,2.12,2.12,0,0,1-.18.71l-.25.8c-.29,1.12-.58,2.31-.86,3.51l-.87,3.63-.9,3.68L7.36,41l.3-.86L8,39.18l0-.11a2.51,2.51,0,0,1,.11-.33l0-.07,0-.07a.92.92,0,0,1,.21-.26,1.12,1.12,0,0,1,.78-.28.86.86,0,0,1,.42.1,1.1,1.1,0,0,1,.46.39l.07.12h0v0a.82.82,0,0,1,.07.21,1,1,0,0,1,0,.31c0,.17,0,.31,0,.46a4.64,4.64,0,0,0,0,.83l-1.51.19L8.4,40l-.11-.35c0-.05,0-.12,0-.1s0,0,0,.09v0h0l.06.1a.86.86,0,0,0,.4.33.82.82,0,0,0,.36.09,1,1,0,0,0,.69-.25,1.28,1.28,0,0,0,.19-.23l0-.06,0-.05c.07-.19.06-.18.07-.19s0,0,0,0l.12.7.17.78-2.51-.1c.09-1.28.23-2.56.39-3.85s.32-2.56.58-3.84a32,32,0,0,1,.93-3.84,8.91,8.91,0,0,1,.79-2,2.92,2.92,0,0,1,1-.92,1.71,1.71,0,0,1,1-.24c.48.08.71.42.68.7Z"/>
          <path class="cls-3" d="M10.36,41.07A35.85,35.85,0,0,0,10,47.75c.05,2.27.22,4.55.39,6.84l-1.66.21c-.4-2.3-.67-4.61-.84-6.95a37.89,37.89,0,0,1,0-7.14Z"/>
          <path class="cls-3" d="M11.21,54.12a.81.81,0,0,0-1-1A3.8,3.8,0,0,0,8,55a4.43,4.43,0,0,0,1.86,4.9c1.51.86,2.08.58,1.8-.22s-1-4-1-4A5.84,5.84,0,0,0,11.21,54.12Z"/>
          <path class="cls-3" d="M10.77,53.33a4.76,4.76,0,0,1,2.74,1.42.51.51,0,0,1,0,.73.52.52,0,0,1-.7,0,3.55,3.55,0,0,0-2.15-.87.66.66,0,1,1,0-1.31h.08Z"/>
        </g>
        <path class="cls-9" d="M7.68,40.29a9.67,9.67,0,0,0,3.41.67"/>
      </g>
      <g>
        <g>
          <path class="cls-8" d="M25.46,26.77a.55.55,0,0,1,.23-.47,1,1,0,0,1,.68-.19,2.07,2.07,0,0,1,1,.41,3.13,3.13,0,0,1,1,1.11,16.48,16.48,0,0,1,.88,2.31,30.08,30.08,0,0,1,.95,4.6c.2,1.54.36,3.08.52,4.62l.11,1.15,0,.29v.13s0,0,0,0a.88.88,0,0,0-.05-.15v0a1.15,1.15,0,0,0-.08-.15,1.26,1.26,0,0,0-.26-.31,1.16,1.16,0,0,0-.34-.19,1.18,1.18,0,0,0-.91,0,1.22,1.22,0,0,0-.52.39l-.06.09s-.06.12-.09.18,0,0,0,.07,0,0,0,0a.21.21,0,0,0,0-.07l.07-.23.14-.51a.7.7,0,0,1,.06-.19s0,0,0,0l0,.15v0a1.73,1.73,0,0,0,.21.36,1,1,0,0,0,1.3.15l.18-.15a1,1,0,0,0,.19-.32s0,0,0,0v0a.39.39,0,0,0,0,.09c-.13.32-.24.7-.35,1.06l-1.51-.19a11.73,11.73,0,0,1,0-1.19l0-.2,0-.09,0-.07a1,1,0,0,1,.2-.34c.07-.06-.06,0,.17-.15a1,1,0,0,1,1.26.15,1.25,1.25,0,0,1,.21.35v0a.57.57,0,0,1,0,.18v.1l0,.38,0,.63,0,.34v.21c0,.06,0,.07,0,.16a.68.68,0,0,1,0,.15,2,2,0,0,1-.1.21l-.07.1a1.19,1.19,0,0,1-.52.4,1.32,1.32,0,0,1-.92,0,1.57,1.57,0,0,1-.34-.21,1.22,1.22,0,0,1-.28-.32.79.79,0,0,1-.08-.16v0a1.43,1.43,0,0,1-.08-.22l-.05-.18,0-.15-.06-.28L28,39.53c-.37-1.48-.86-2.93-1.36-4.35s-1-2.84-1.32-4.21c-.19-.67-.37-1.34-.5-1.92a1,1,0,0,1,.26-.86.86.86,0,0,1,.22-.19c.11-.07.2-.08.38-.18s.35-.24.36-.41-.12-.3-.32-.39Z"/>
          <path class="cls-3" d="M30.8,40.71a38.74,38.74,0,0,1,0,7.14c-.17,2.34-.44,4.65-.83,6.95l-1.67-.21c.17-2.29.35-4.57.4-6.84a36.73,36.73,0,0,0-.36-6.68Z"/>
          <path class="cls-3" d="M27.52,54.12a.81.81,0,0,1,1-1A3.78,3.78,0,0,1,30.74,55a4.43,4.43,0,0,1-1.86,4.9c-1.52.86-2.09.58-1.8-.22s1-4,1-4A5.47,5.47,0,0,1,27.52,54.12Z"/>
          <path class="cls-3" d="M28.09,54.63a3.6,3.6,0,0,0-2.16.87.52.52,0,0,1-.73,0,.53.53,0,0,1,0-.7A4.73,4.73,0,0,1,28,53.33h0a.64.64,0,0,1,.74.55.66.66,0,0,1-.55.75Z"/>
        </g>
        <path class="cls-9" d="M31.05,40.29a9.72,9.72,0,0,1-3.41.67"/>
      </g>
      <g>
        <path class="cls-2" d="M27,53.18A60.84,60.84,0,0,0,25.94,47c-.3-1.38-.56-2.79-1-4.14a12.2,12.2,0,0,0-2.21-4.37,4.94,4.94,0,0,0-4.22-1.86,4.74,4.74,0,0,0-3,2A11.38,11.38,0,0,0,14,41.88a36.78,36.78,0,0,0-1,4.14c-.39,1.83-.74,3.67-.95,5.52-.06.55-.1,1.1-.11,1.64Z"/>
        <path class="cls-8" d="M26.37,25.89a24.22,24.22,0,0,1-2.31-1.52,19.72,19.72,0,0,1-1.71-1.44,3.88,3.88,0,0,1-.77-.63,2.37,2.37,0,0,0-1.1-.55l-3.59.72-.12.08a.13.13,0,0,1,0,.07,11.07,11.07,0,0,1-1.15,1.12,17.66,17.66,0,0,1-2.49,1.79,16.48,16.48,0,0,1-1.48.83,2.32,2.32,0,0,0-.29,1.36c.36,2.88,1.73,5.63,2,8.51.19,1.74-.25,3.48-.09,5.21S14.56,43,16,43.16A3.51,3.51,0,0,1,17,42.48a8.89,8.89,0,0,1,1.75-.55,6.6,6.6,0,0,1,2-.14,5,5,0,0,1,2,.56,3.79,3.79,0,0,1,.85.62c.9-.16,1.07,0,1.23-1.19a27.16,27.16,0,0,0,.23-3,15.31,15.31,0,0,1,.16-2.87,14.94,14.94,0,0,1,.89-2.56,13.78,13.78,0,0,0,1.14-4A5,5,0,0,0,26.37,25.89Z"/>
        <path class="cls-10" d="M16.81,23.43c-.57,1.19,1.05,7.9,2.54,7.84.88,0,3.1-5.57,2.51-7.72-.16-.37-.42-.57-.13-1.08-1.31-1.51-.86-4.84-.86-4.84H17.75s.44,3.33-.86,4.84C17.14,22.93,17,23.13,16.81,23.43Z"/>
        <path class="cls-3" d="M21.73,22.47a3.26,3.26,0,0,1-.6-1.12,2.64,2.64,0,0,1-1.51.46,3.42,3.42,0,0,1-2.05-.71,3.6,3.6,0,0,1-.68,1.37c.25.46.07.66-.08,1-.57,1.19,1.05,7.9,2.54,7.84.88,0,3.1-5.57,2.51-7.72C21.7,23.18,21.44,23,21.73,22.47Z"/>
        <path class="cls-4" d="M17.06,41.32a12.64,12.64,0,0,0,3.93.2c.4,0,.79-.09,1.19-.16l0-.9c-.14-4.1-.41-8.2-.69-12.3-.07-1-.21-2.07-.25-3.11v-.16a5.24,5.24,0,0,0-.65.84,2,2,0,0,0,.15,2.55s0,.13-.08.09a10,10,0,0,0-1.32,1.72A10.47,10.47,0,0,0,18,28.37s-.12,0-.08-.09a2,2,0,0,0,.15-2.55,5.89,5.89,0,0,0-.65-.84v.16c-.05,1-.18,2.07-.25,3.11-.29,4.1-.55,8.2-.69,12.3,0,.24,0,.47,0,.7A6.06,6.06,0,0,0,17.06,41.32Z"/>
        <path class="cls-2" d="M22.12,39.71a15.88,15.88,0,0,1-1.68.27,7.17,7.17,0,0,1-3.94-.56l0,.95c0,1-.06,1.89-.08,2.84a23.47,23.47,0,0,0,2.68.26h.48a23.32,23.32,0,0,0,2.67-.26c0-1,0-1.89-.07-2.84Z"/>
        <path class="cls-8" d="M17.3,26.45s.36-2.78-.33-4.09l-1.17,1,.89,6.25.28-.19Z"/>
        <path class="cls-8" d="M21.23,26.45s-.37-2.78.32-4.09l1.17,1-.89,6.25-.28-.19Z"/>
        <path class="cls-11" d="M20,22.81l-.64.67"/>
        <path class="cls-12" d="M15.58,23.65a5.72,5.72,0,0,1,.18,5.26,26.5,26.5,0,0,1,.48,5.7"/>
        <path class="cls-12" d="M23,23.65a5.72,5.72,0,0,0-.18,5.26,26.06,26.06,0,0,0-.47,5.7"/>
        <path class="cls-7" d="M18.08,52.45l1,.62a.48.48,0,0,0,.32.11.45.45,0,0,0,.27-.18l2.72-2.85"/>
        <path class="cls-6" d="M12.4,49.35c.42.1.8-.24,1.06-.56a9.3,9.3,0,0,0,2-4.47"/>
        <path class="cls-6" d="M26.13,48.94a5.3,5.3,0,0,1-1.85-4.53"/>
        <path class="cls-6" d="M20.51,39.82a72.73,72.73,0,0,1-.58,12.51"/>
        <path class="cls-13" d="M20.52,40a14.38,14.38,0,0,0,1.6-.25c0-.17,0-.35,0-.52a13.52,13.52,0,0,1-2.2.29,6.38,6.38,0,0,1-3.37-.66c0,.2,0,.4,0,.6A7.21,7.21,0,0,0,20.52,40Z"/>
        <path class="cls-12" d="M12.39,30.37A11.23,11.23,0,0,0,13.68,36"/>
        <path class="cls-12" d="M24.79,36.31a21.57,21.57,0,0,0,1.62-7.11"/>
        <path class="cls-12" d="M11.67,26.31A12.62,12.62,0,0,1,12.94,30"/>
        <path class="cls-12" d="M27.58,26.16a12.53,12.53,0,0,0-1.32,3.14"/>
        <polygon class="cls-8" points="25.17 35.92 25.6 42.23 22.18 43.84 21.96 36.46 24.25 37.68 25.17 35.92"/>
        <polygon class="cls-8" points="13.48 35.92 13.05 42.23 16.48 43.84 16.69 36.46 14.4 37.68 13.48 35.92"/>
      </g>
      <g>
        <path class="cls-13" d="M19.3,3.47c-.79,0-1.71.6-1.5,1.35a.89.89,0,0,0,.56-1.14,1.63,1.63,0,0,0-1-.94,3.07,3.07,0,0,0-3.87,1.94,2.45,2.45,0,0,0-1.6,1,1.3,1.3,0,0,0,.32,1.73,2,2,0,0,0-2,1.55,2,2,0,0,0,1.22,2.23,1.68,1.68,0,1,0,2,2.71c-.14.67-.21,1.51.36,1.9a1.56,1.56,0,0,0,1.29.06,6.83,6.83,0,0,0,2.57-1.35c-.34,0-.43.53-.17.75a1.06,1.06,0,0,0,1,.09A4.94,4.94,0,0,0,21,13.7a.75.75,0,0,0,.22-.57c0-.21-.32-.37-.46-.21s.37.29.6.17a3.63,3.63,0,0,0,1.89-2.95c.08-1.45-1-2.51-1.22-3.83S20.94,3.49,19.3,3.47Z"/>
        <g>
          <ellipse class="cls-10" cx="14.34" cy="14.14" rx="1.56" ry="1.9" transform="translate(-2.3 2.8) rotate(-10.32)"/>
          <ellipse class="cls-10" cx="24.2" cy="14.14" rx="1.9" ry="1.56" transform="translate(4.56 34.14) rotate(-75.82)"/>
          <path class="cls-3" d="M19.55,20.57h-.49c-2.23,0-4.09-2.87-4.29-4.89L14,10.09A4.78,4.78,0,0,1,18.49,5h1.7a4.77,4.77,0,0,1,4.45,5.1l-.81,5.59C23.62,17.72,21.76,20.57,19.55,20.57Z"/>
          <path class="cls-13" d="M16.76,7.32A2.85,2.85,0,0,1,18,7.16c.43,0,.85.22,1.28.28h.14a.94.94,0,0,0,.41,0A7.62,7.62,0,0,1,22,7.17a1.36,1.36,0,0,1,1.27,1.49c-.05.45-.17.88-.2,1.33a5.41,5.41,0,0,0,.07,1.39,2.9,2.9,0,0,0,1,1.77l.44-3A4.77,4.77,0,0,0,20.19,5h-1.7A4.78,4.78,0,0,0,14,10.09l.4,3c.89-1.21.35-2.95.79-4.33A2.42,2.42,0,0,1,16.76,7.32Z"/>
          <rect class="cls-10" x="18.67" y="15.55" width="1.7" height="0.83" rx="0.41"/>
          <path class="cls-11" d="M18.6,17.59a1.42,1.42,0,0,0,.46.12,3.21,3.21,0,0,0,2-.52"/>
          <path class="cls-11" d="M19.08,18.26a.66.66,0,0,0,.61.2,1.13,1.13,0,0,0,.58-.33"/>
          <rect class="cls-14" x="14.41" y="12.18" width="4.44" height="3.7" rx="1.83"/>
          <rect class="cls-14" x="20.14" y="12.18" width="4.44" height="3.7" rx="1.83"/>
          <path class="cls-14" d="M18.5,13.85a1.54,1.54,0,0,1,2,0"/>
          <path class="cls-13" d="M23,13s0,.1,0,.13a.25.25,0,0,1-.14.06,4.77,4.77,0,0,0-2.06.53A.77.77,0,0,1,21.6,13C22.38,12.93,22.88,13.17,23,13Z"/>
          <circle class="cls-13" cx="21.82" cy="13.53" r="0.41"/>
          <path class="cls-13" d="M15.81,13s0,.1,0,.13a.25.25,0,0,0,.14.06,4.77,4.77,0,0,1,2.06.53.77.77,0,0,0-.79-.72C16.43,12.93,15.93,13.17,15.81,13Z"/>
          <circle class="cls-13" cx="16.99" cy="13.53" r="0.41"/>
          <path class="cls-11" d="M15.38,11.71a2.61,2.61,0,0,1,2.69.54"/>
          <path class="cls-11" d="M20.6,12.19a3,3,0,0,1,2.43-.7"/>
        </g>
        <path class="cls-15" d="M14.75,5.67l1.39,1.38"/>
        <path class="cls-15" d="M23.71,6.11a4.9,4.9,0,0,0-.6,1.13"/>
        <path class="cls-15" d="M17.59,4.3,18,5.6"/>
        <path class="cls-15" d="M20.52,4.56a7.31,7.31,0,0,1-.17,1.81"/>
        <path class="cls-15" d="M10.17,8.44A6.92,6.92,0,0,0,12.41,9"/>
        <path class="cls-15" d="M15.77,2l.61,1.81"/>
        <path class="cls-15" d="M24.91,8.35A2.76,2.76,0,0,1,24,9"/>
      </g>
    </g>
  </g>
</svg>
