<svg xmlns="http://www.w3.org/2000/svg" viewBox="0 0 38.11 115.49">
  <defs>
    <style>
      .cls-1 {
        fill: #74bdd9;
      }

      .cls-2 {
        fill: #c62c15;
      }

      .cls-3 {
        fill: #2c4441;
      }

      .cls-4 {
        fill: #888d91;
      }

      .cls-5 {
        fill: #ffae74;
      }

      .cls-6 {
        fill: #7a562e;
      }

      .cls-7 {
        fill: #ffcc4b;
      }

      .cls-8 {
        fill: #9c6c32;
      }

      .cls-9 {
        fill: #d4796a;
      }

      .cls-10, .cls-11, .cls-12, .cls-13 {
        fill: none;
        stroke-miterlimit: 10;
      }

      .cls-10 {
        stroke: #000;
        stroke-width: 0.06px;
      }

      .cls-11, .cls-12 {
        stroke: #2c3f48;
      }

      .cls-11, .cls-12, .cls-13 {
        stroke-linecap: round;
      }

      .cls-11, .cls-13 {
        stroke-width: 0.11px;
      }

      .cls-12 {
        stroke-width: 0.22px;
      }

      .cls-13 {
        stroke: #401808;
      }

      .cls-14 {
        fill: #3c211f;
      }

      .cls-15 {
        fill: #fff3bd;
      }

      .cls-16 {
        fill: #474747;
      }
    </style>
  </defs>
  <title>char-4</title>
  <g id="LH-PH">
    <ellipse class="cls-1" cx="19.05" cy="109.39" rx="17.69" ry="4.82"/>
    <g>
      <g>
        <path class="cls-2" d="M18.89,67.49l-.19,2.2-.17,2.23c-.14,1.62-.36,3.22-.55,4.71-.4,3.05-1,6.09-1.31,9.15-.16,1.54-.23,3.08-.36,4.61L15.87,95c-.36,3.08-.79,6.15-1.44,9.22a.93.93,0,0,1-1.11.72,1,1,0,0,1-.73-.76,70.37,70.37,0,0,1-.8-9.36c0-1.56,0-3.12,0-4.67l.2-4.67.27-9.38c.06-1.59.19-3.08.23-4.55,0-.73.07-1.58.14-2.41s.19-1.63.33-2.42a3,3,0,0,1,5.91.77Z"/>
        <path class="cls-3" d="M14.79,102.89a2.57,2.57,0,0,1-1.38.37,2.6,2.6,0,0,1-1.61-.59c-.07.1-.14.2-.19.29-.29.44-.61.87-.94,1.29a5,5,0,0,1-.31.54.09.09,0,0,1,0,.06c-.26.29-.5.6-.73.9a11.84,11.84,0,0,0-1.4,2.32,3.47,3.47,0,0,0-.11,2.06,2.1,2.1,0,0,0,1.32.38h.31a4.3,4.3,0,0,0,1.42-.61,5.47,5.47,0,0,0,1.67-1.9c.17-.32.36-.92.76-1a1,1,0,0,1,.26,1c.41,0,.8-.13.9-.45a11.58,11.58,0,0,0,.52-3.34,6.1,6.1,0,0,0-.16-1.47A2.37,2.37,0,0,1,14.79,102.89Z"/>
        <path class="cls-2" d="M10.48,105a2.06,2.06,0,0,0-.29,1.46.69.69,0,0,0,.32.43,1.15,1.15,0,0,0,.78,0,5.35,5.35,0,0,0,2.09-1.27,16.19,16.19,0,0,1,1.86-1.09c0-.15,0-.3,0-.45,0-.79-.1-2.8-1.54-2.8-1,0-1.72,1-2.1,1.63-.29.44-.61.87-.94,1.29a5,5,0,0,1-.31.54,0,0,0,0,1,0,0C10.44,104.83,10.53,104.91,10.48,105Z"/>
      </g>
      <g>
        <path class="cls-2" d="M25.64,66.72c.14.79.25,1.59.33,2.42s.13,1.68.15,2.41c0,1.47.16,3,.22,4.55l.27,9.38.2,4.67c.05,1.55,0,3.11,0,4.67a70.37,70.37,0,0,1-.8,9.36A.92.92,0,0,1,25,105a.94.94,0,0,1-.77-.73c-.65-3.07-1.08-6.14-1.44-9.22l-.44-4.61c-.13-1.53-.2-3.07-.36-4.61-.33-3.06-.91-6.1-1.3-9.15-.2-1.49-.42-3.09-.56-4.71l-.16-2.23-.2-2.2a3,3,0,0,1,5.91-.77Z"/>
        <path class="cls-3" d="M23.83,102.89a2.6,2.6,0,0,0,3-.22c.07.1.14.2.19.29.29.44.61.87.94,1.29a5,5,0,0,0,.31.54.09.09,0,0,0,0,.06c.26.29.5.6.73.9a11.37,11.37,0,0,1,1.4,2.32,3.47,3.47,0,0,1,.12,2.06,2.13,2.13,0,0,1-1.33.38H28.9a4.3,4.3,0,0,1-1.42-.61,5.58,5.58,0,0,1-1.67-1.9c-.17-.32-.36-.92-.75-1a1,1,0,0,0-.27,1c-.4,0-.8-.13-.9-.45a11.58,11.58,0,0,1-.52-3.34,6.1,6.1,0,0,1,.16-1.47A2.37,2.37,0,0,0,23.83,102.89Z"/>
        <path class="cls-2" d="M28.15,105a2.06,2.06,0,0,1,.28,1.46.68.68,0,0,1-.31.43,1.18,1.18,0,0,1-.79,0,5.5,5.5,0,0,1-2.09-1.27,17,17,0,0,0-1.85-1.09c0-.15,0-.3,0-.45,0-.79.1-2.8,1.54-2.8,1,0,1.72,1,2.1,1.63.29.44.61.87.94,1.29a5,5,0,0,0,.31.54,0,0,0,0,0,0,0C28.18,104.83,28.1,104.91,28.15,105Z"/>
      </g>
      <path class="cls-3" d="M15.75,75.39c2.8,0,5.6-.08,8.39-.25,1.08-.06,2.15-.14,3.22-.22-.72-6-1.79-15.21-2.78-17.89l-10.41-.62C13.45,59.23,12.43,63,12,66c-.17,1.07-.46,6.9-.6,9.17C12.82,75.31,14.28,75.37,15.75,75.39Z"/>
      <g>
        <path class="cls-4" d="M13.29,44.54c-.12,0-.23.07-.23.17s.07.15.12.21a1.33,1.33,0,0,1,.13.45,8.05,8.05,0,0,1,0,1.11A8.39,8.39,0,0,1,13,48.75c-.4,1.52-.75,3.09-1.13,4.67s-.81,3.15-1.15,4.74a4.88,4.88,0,0,1-.36,1.21l-.29.65-.19.41-.1.21a1.27,1.27,0,0,1-.21.32,1.36,1.36,0,0,1-.66.41,1.26,1.26,0,0,1-1-.13,1.34,1.34,0,0,1-.36-.31,1.31,1.31,0,0,1-.24-.49c0-.09,0-.12,0-.17a.48.48,0,0,1,0-.17,5.53,5.53,0,0,1,.4-1.6l.09-.19A1.2,1.2,0,0,1,8,58.1a1.63,1.63,0,0,1,.18-.17l.16-.1a.82.82,0,0,1,.29-.09.87.87,0,0,1,.56.1.9.9,0,0,1,.25.19,1.24,1.24,0,0,1,.16.22,1.06,1.06,0,0,1,.07.22,2.21,2.21,0,0,1,.07.43c0,.24,0,.46,0,.68l-1.52.18a4.41,4.41,0,0,0-.15-.55c0-.07-.06-.16-.08-.16a.2.2,0,0,0,0,.06.39.39,0,0,0,.11.16.73.73,0,0,0,.22.17.78.78,0,0,0,.51.08,1,1,0,0,0,.27-.08.55.55,0,0,0,.14-.09.83.83,0,0,0,.14-.14c.07-.1.07-.09.09-.14l0,0a5.13,5.13,0,0,0,.11.89h0a.12.12,0,0,0,0-.08s0-.08-.18-.36a1.1,1.1,0,0,0-.3-.27,1.09,1.09,0,0,0-.83-.11,1.19,1.19,0,0,0-.55.34c-.13.17-.11.17-.15.22s0,.05,0,.05a.68.68,0,0,1,0-.19v-.58a8.73,8.73,0,0,1,.1-1.23c.21-1.67.43-3.33.74-5s.73-3.29,1.22-4.93a9,9,0,0,1,1.12-2.4,5.12,5.12,0,0,1,1-1.1,2.55,2.55,0,0,1,.84-.44.89.89,0,0,1,.62.06.65.65,0,0,1,.31.38Z"/>
        <path class="cls-5" d="M10.1,58.9a38.16,38.16,0,0,0-.35,6.72c.05,2.28.22,4.57.38,6.87l-1.67.2c-.39-2.3-.65-4.63-.82-7a40,40,0,0,1,0-7.17Z"/>
        <path class="cls-5" d="M10.91,72a.8.8,0,0,0-1-1A3.75,3.75,0,0,0,7.76,72.9a4.5,4.5,0,0,0,1.82,4.92c1.48.86,2,.59,1.76-.22s-1-4-1-4A5.74,5.74,0,0,0,10.91,72Z"/>
        <path class="cls-5" d="M10.49,71.22a4.7,4.7,0,0,1,2.68,1.43.53.53,0,0,1,0,.74.52.52,0,0,1-.7,0,3.48,3.48,0,0,0-2.1-.86.66.66,0,0,1-.63-.69.64.64,0,0,1,.68-.62h.09Z"/>
        <path class="cls-2" d="M10.26,62l-3-.36A1.51,1.51,0,0,1,6,60.15V58.54a1.15,1.15,0,0,1,1.25-1.22l3,.36a1.53,1.53,0,0,1,1.25,1.52v1.6A1.14,1.14,0,0,1,10.26,62Z"/>
      </g>
      <g>
        <path class="cls-4" d="M24.83,44.29a.62.62,0,0,1,.28-.52,1,1,0,0,1,.75-.13,2.72,2.72,0,0,1,1,.45,3.33,3.33,0,0,1,1,1.19,22.89,22.89,0,0,1,.91,2.49,46.67,46.67,0,0,1,1.17,4.95c.31,1.65.53,3.32.72,5a10.81,10.81,0,0,1,.09,1.24v.57a1.24,1.24,0,0,1,0,.2l0,0a1.26,1.26,0,0,0-.14-.21,1.07,1.07,0,0,0-.53-.33,1,1,0,0,0-.8.11,1,1,0,0,0-.29.25.81.81,0,0,0-.18.35.26.26,0,0,0,0,.07s0,0,0,0a4.86,4.86,0,0,0,.07-.9l0,0,.09.14a.69.69,0,0,0,.15.14l.13.09a1,1,0,0,0,.27.08.87.87,0,0,0,.51-.09.69.69,0,0,0,.22-.16.55.55,0,0,0,.11-.16s0-.06,0-.06a1,1,0,0,0-.07.16l-.15.55-1.52-.18a5.25,5.25,0,0,1,0-.68,3.76,3.76,0,0,1,.08-.43,1.19,1.19,0,0,1,.08-.21A1.24,1.24,0,0,1,29,58a1.15,1.15,0,0,1,.25-.19.91.91,0,0,1,.55-.09.77.77,0,0,1,.28.09.78.78,0,0,1,.15.1.74.74,0,0,1,.18.17,1.28,1.28,0,0,1,.12.2.87.87,0,0,1,.08.19,5.66,5.66,0,0,1,.28,1.57v.16a1.31,1.31,0,0,1,0,.15,1,1,0,0,1-.21.42,1,1,0,0,1-1.12.38,1.21,1.21,0,0,1-.56-.35,1,1,0,0,1-.17-.28l-.09-.19-.14-.4-.2-.65a12.43,12.43,0,0,1-.28-1.22c-.32-1.6-.67-3.2-1-4.79s-.73-3.17-1.15-4.71c-.2-.76-.44-1.52-.69-2.2a2.82,2.82,0,0,1-.17-1,.56.56,0,0,1,.13-.41c0-.07.14-.12.15-.23s-.1-.18-.24-.21Z"/>
        <path class="cls-5" d="M30.7,58.55a40.92,40.92,0,0,1,0,7.17c-.17,2.34-.44,4.67-.82,7l-1.67-.2c.16-2.3.33-4.59.38-6.87a38.16,38.16,0,0,0-.35-6.72Z"/>
        <path class="cls-5" d="M27.46,72a.8.8,0,0,1,1-1,3.75,3.75,0,0,1,2.14,1.85,4.5,4.5,0,0,1-1.82,4.92c-1.48.86-2,.59-1.76-.22s1-4,1-4A5.74,5.74,0,0,1,27.46,72Z"/>
        <path class="cls-5" d="M28,72.53a3.48,3.48,0,0,0-2.1.86.51.51,0,0,1-.73,0,.52.52,0,0,1,0-.7,4.7,4.7,0,0,1,2.68-1.43h0a.66.66,0,0,1,.74.55.65.65,0,0,1-.55.75Z"/>
        <path class="cls-2" d="M28.11,62l3-.36a1.51,1.51,0,0,0,1.24-1.51V58.54a1.14,1.14,0,0,0-1.24-1.22l-3,.36a1.53,1.53,0,0,0-1.25,1.52v1.6A1.14,1.14,0,0,0,28.11,62Z"/>
      </g>
      <g>
        <path class="cls-6" d="M26.22,42.08c-.37-1.51-3-2.1-2-6.31a23.7,23.7,0,0,0,.53-3.25c-.88-.1-1.74-.28-2.61-.45a48.14,48.14,0,0,0-8.89-.74c-.38,2.54-.93,6.38-1.31,9.08A7.41,7.41,0,0,0,13.38,46l.17.21,5,.1,6.63-.53S26.6,43.59,26.22,42.08Z"/>
        <path class="cls-7" d="M15.42,42.29a5.33,5.33,0,0,0-.26-2.93c-.6-1.71-1.72-3.53-1.43-5.41l0,0A6.58,6.58,0,0,1,14,31.34H13.2c-.38,2.54-.93,6.38-1.31,9.08A7.41,7.41,0,0,0,13.38,46l.16.2a11.86,11.86,0,0,0,.72-1.12A9.39,9.39,0,0,0,15.42,42.29Z"/>
        <path class="cls-8" d="M24,28.3a8.73,8.73,0,0,0-3.37,2.28c-.31.32-.61.65-.89,1,.85.11,1.7.24,2.54.41s1.62.32,2.44.42a17.93,17.93,0,0,0-.07-4.28A4.77,4.77,0,0,0,24,28.3Z"/>
      </g>
      <g>
        <path class="cls-4" d="M26.3,44a17.33,17.33,0,0,1-1.65-1,14.46,14.46,0,0,1-2.58-2.22c-.14-.15-.27-.3-.4-.46a1.69,1.69,0,0,0-1-.29c-.95.18-1.9.4-2.86.55-.26,0-.51.11-.76.18a7.77,7.77,0,0,1-.83,1,15,15,0,0,1-2.75,2.11l-.73.43a3.4,3.4,0,0,0-.38.47c0,.17.08.34.11.53.18,1,.14,2,.37,3,.36,1.61,1.18,3.07,1.38,4.7a21.78,21.78,0,0,1-.46,5.75c-.19,1.27-.09,3,1.4,3.62a5.35,5.35,0,0,0,2.67.16,2.92,2.92,0,0,0,1.9-.83,3.35,3.35,0,0,0,3.42.84c1.74-.57,2.11-2.17,2-3.7-.06-.83-.5-1.49-.59-2.31a13,13,0,0,1,.12-3.41,8.58,8.58,0,0,1,.51-1.72,12.87,12.87,0,0,0,.72-2.09,20.21,20.21,0,0,0,.39-3.1,12.57,12.57,0,0,0,.12-2.14A.15.15,0,0,1,26.3,44Z"/>
        <path class="cls-2" d="M23.8,44.34a20.14,20.14,0,0,1-1.22-2.73,2.76,2.76,0,0,0-1.74-1.69,4.67,4.67,0,0,0-3.08.23c-.41.16-1,.32-1.1.73s-.52,1.11-.78,1.66L15,44.34c-.63,1.32.59,3.07,1.79,3.67.22.11.74.2.86.38a5.46,5.46,0,0,1,0,1.29c.08,1,.19,1.92.34,2.88.09.58.78,5.37,1.43,5.27.33,0,.72-2.33.8-2.66.21-.91.38-1.82.52-2.74s.24-2,.3-3a3.22,3.22,0,0,1,.05-1c.09-.18.34-.21.65-.35a3.47,3.47,0,0,0,1.7-1.47A3.29,3.29,0,0,0,23.8,44.34Z"/>
        <path class="cls-9" d="M21.73,41.13a2,2,0,0,1-.31-.76,0,0,0,0,1,0,0l0-.06a.12.12,0,0,1,0-.15A8.49,8.49,0,0,1,21,36H17.8s.45,3.19-.83,4.69L17,41s0,.05,0,.07l.59,2.6a1.34,1.34,0,0,0,.3.12,5.28,5.28,0,0,0,2.56.11,6.53,6.53,0,0,0,.71-.16l.65-2.19A.75.75,0,0,1,21.73,41.13Z"/>
        <path class="cls-5" d="M21.18,39.48c-1.16.78-3.09,1.22-3.64.17-.18.55-.66,1-.89,1.48s-.29.92-.44,1.36a4.42,4.42,0,0,0,.12,3.14,3.28,3.28,0,0,0,2.51,2,3.32,3.32,0,0,0,3.26-1.89,5,5,0,0,0,.08-3.42C22.11,42,21.14,39.5,21.18,39.48Z"/>
        <ellipse class="cls-10" cx="19.43" cy="50.81" rx="0.41" ry="0.38"/>
        <path class="cls-11" d="M14.42,55.11a5.51,5.51,0,0,0,2.48,2L16.8,57"/>
        <path class="cls-11" d="M24.47,55a6.32,6.32,0,0,1-2.56,2.16"/>
        <path class="cls-11" d="M13.89,51.36a3.1,3.1,0,0,1-.72-2.57,20.77,20.77,0,0,1,.65-2.67.92.92,0,0,0-.09-.81l-1.06-2.1"/>
        <path class="cls-11" d="M24.72,51.85a3.09,3.09,0,0,0,.73-2.57,21.33,21.33,0,0,0-.65-2.68.89.89,0,0,1,.09-.8L26,43.69"/>
        <path class="cls-12" d="M21.14,38.82a3.41,3.41,0,0,1,1.48,1.08,3.74,3.74,0,0,1,.79,3.3"/>
        <path class="cls-12" d="M15.41,43.22a2.66,2.66,0,0,1,.38-2.69A4.7,4.7,0,0,1,17.59,39"/>
        <g>
          <ellipse class="cls-3" cx="22.71" cy="43.49" rx="2.41" ry="2.1" transform="translate(-23.94 28.31) rotate(-44.4)"/>
          <ellipse class="cls-2" cx="23.13" cy="43.16" rx="1.55" ry="1.3" transform="translate(-24.47 31.67) rotate(-48.24)"/>
        </g>
        <g>
          <ellipse class="cls-3" cx="15.47" cy="43.49" rx="2.1" ry="2.41" transform="translate(-26.42 24.12) rotate(-45.6)"/>
          <ellipse class="cls-2" cx="15.06" cy="43.16" rx="1.3" ry="1.55" transform="translate(-24.92 20.99) rotate(-41.76)"/>
        </g>
      </g>
      <g>
        <path class="cls-7" d="M19.62,31a12.05,12.05,0,0,1,3-2.88,6.22,6.22,0,0,1,2.28-1,7.67,7.67,0,0,0-2.14-4.63C20,20,17.94,21.93,17.71,22c0,0-4.35,5.49-4.46,5.9,0,.1-.19,1.18-.42,2.73h.48a61.59,61.59,0,0,1,6.22.36Z"/>
        <ellipse class="cls-9" cx="23.85" cy="31.86" rx="1.87" ry="1.51" transform="translate(-12.51 48.05) rotate(-77.18)"/>
        <path class="cls-5" d="M19.35,38.22h-.48c-2.15,0-4-2.84-4.15-4.84L14,27.85c-.22-2.36,1.77-5,4.32-5H20c2.56,0,4.56,2.67,4.32,5l-.78,5.53C23.29,35.39,21.49,38.22,19.35,38.22Z"/>
        <path class="cls-9" d="M19.92,33.56a1.21,1.21,0,0,1-1.42.57.39.39,0,0,0,.39.34h.85a.4.4,0,0,0,.4-.41A1.21,1.21,0,0,0,19.92,33.56Z"/>
        <path class="cls-13" d="M18.43,35.68a1.11,1.11,0,0,0,.44.12,3.1,3.1,0,0,0,2-.51"/>
        <path class="cls-13" d="M18.89,36.35a.66.66,0,0,0,.6.2,1,1,0,0,0,.55-.34"/>
        <path class="cls-14" d="M23,30.88S23,31,23,31a.19.19,0,0,1-.14,0,4.64,4.64,0,0,0-2,.53.77.77,0,0,1,.77-.72C22.37,30.8,22.86,31,23,30.88Z"/>
        <ellipse class="cls-14" cx="21.83" cy="31.4" rx="0.4" ry="0.4"/>
        <path class="cls-14" d="M15.51,30.88s0,.09,0,.13a.15.15,0,0,0,.13,0,4.6,4.6,0,0,1,2,.53.77.77,0,0,0-.77-.72C16.11,30.8,15.63,31,15.51,30.88Z"/>
        <ellipse class="cls-14" cx="16.66" cy="31.4" rx="0.4" ry="0.4"/>
        <path class="cls-13" d="M15.31,29.74a2.49,2.49,0,0,1,2.61.53"/>
        <path class="cls-13" d="M20.37,30.22a2.75,2.75,0,0,1,2.34-.69"/>
        <path class="cls-7" d="M23.13,23.9a5.88,5.88,0,0,1,1.19,1.72,2,2,0,0,1,.22,1,.82.82,0,0,1-.57.75,1.42,1.42,0,0,1-.5,0L21.8,27a3.84,3.84,0,0,1-1.16-.37,2.64,2.64,0,0,1-1.13-1.37,3.94,3.94,0,0,1-.25-1.44,2.12,2.12,0,0,1,.28-1.08,1.12,1.12,0,0,1,.91-.56,1.72,1.72,0,0,1,.63.16,3.68,3.68,0,0,1,2.25,1.61.34.34,0,0,0-.16.1"/>
        <path class="cls-6" d="M15.76,25.11c.17.06,3.72-.17,3.72-.17l-1.43-2.46Z"/>
        <path class="cls-7" d="M16.39,23s1-.23,2.35,2.22,4.46,5.38,8.12,1.64c0,0-3.72.29-4.86-1.17S20.91,21.58,16.39,23Z"/>
        <path class="cls-7" d="M17.54,23.51s-3.49,4.67-1.89,10.05,2.92,10-.12,12.45A3.08,3.08,0,0,0,16,44s-1.89,1.7-3.14,1c0,0,1.25.06,1.94-2s1.2-5-1.26-7.07-1.85-9.84,2-12.86a23.78,23.78,0,0,1,2.57-1.69l5.84,3.15Z"/>
        <path class="cls-7" d="M23.29,28.79a15.15,15.15,0,0,1,.12,3.37,8.32,8.32,0,0,0,.43,3.33,3.19,3.19,0,0,0,2.4,2.08A4.43,4.43,0,0,1,24,33.45a16.8,16.8,0,0,1,.54-2.59,4.05,4.05,0,0,0-.09-2.6A6,6,0,0,1,23.29,28.79Z"/>
        <path class="cls-15" d="M18.49,21.63c1.8-.39,3.67,2.22,4,3.37a5.42,5.42,0,0,0,.39,1.11,1.39,1.39,0,0,0,1,.7,5,5,0,0,1-2.89-1,5.49,5.49,0,0,1-1.71-2.23C19.05,22.92,18.76,22.27,18.49,21.63Zm-4.94,4.11a5.36,5.36,0,0,0,.27,5.2,6.63,6.63,0,0,1,.65-4.48A12.25,12.25,0,0,1,15.9,24.3c.26-.32,1.23-1,.66-1.25C15.26,22.44,13.82,25.15,13.55,25.74Zm1.88,9.57A14.73,14.73,0,0,1,14.57,32h0a7.25,7.25,0,0,0,.26,2.88,29.37,29.37,0,0,1,.86,4.23,9.06,9.06,0,0,1-1.22,5.27A5.15,5.15,0,0,0,16.32,42c.61-1.76.08-3.69-.5-5.46C15.69,36.11,15.55,35.71,15.43,35.31Zm4.28-9.26A2.91,2.91,0,0,0,21.25,28a4.67,4.67,0,0,0,2.44.45,2.78,2.78,0,0,0,1.36-.35A5.84,5.84,0,0,1,19.71,26.05Z"/>
      </g>
    </g>
    <g>
      <g>
        <rect class="cls-7" x="0.01" width="34.26" height="11.46"/>
        <rect class="cls-7" x="30.69" y="7.12" width="7.41" height="8.18"/>
        <rect class="cls-7" x="0.45" y="12.72" width="3.07" height="3.32"/>
      </g>
      <g>
        <path class="cls-16" d="M15.78,8.15H15a.37.37,0,0,1-.21-.06.33.33,0,0,1-.11-.15l-.24-.72H12.88l-.24.72a.39.39,0,0,1-.11.15.36.36,0,0,1-.2.06h-.76L13.18,4h1ZM13.11,6.56h1.13l-.38-1.14a2,2,0,0,0-.09-.25l-.09-.32c0,.11-.07.22-.1.32a2.56,2.56,0,0,1-.09.26Z"/>
        <path class="cls-16" d="M16.12,8.15v-3h.55a.18.18,0,0,1,.13,0,.15.15,0,0,1,.08.11l.05.16.15-.14a.87.87,0,0,1,.18-.11.7.7,0,0,1,.2-.08.85.85,0,0,1,.23,0,.73.73,0,0,1,.45.14.92.92,0,0,1,.26.37.71.71,0,0,1,.19-.23.73.73,0,0,1,.23-.16,1.14,1.14,0,0,1,.26-.09l.27,0a1.34,1.34,0,0,1,.46.08.83.83,0,0,1,.33.22,1.19,1.19,0,0,1,.2.35,1.73,1.73,0,0,1,.07.48V8.15h-.89V6.27c0-.31-.13-.46-.39-.46a.41.41,0,0,0-.3.12.45.45,0,0,0-.12.34V8.15h-.89V6.27a.5.5,0,0,0-.1-.36.37.37,0,0,0-.29-.1.59.59,0,0,0-.23.05A1,1,0,0,0,17,6V8.15Z"/>
        <path class="cls-16" d="M22.13,8.92a.34.34,0,0,1-.1.13.3.3,0,0,1-.18,0h-.66l.57-1.2-1.18-2.7h.78a.21.21,0,0,1,.16,0,.25.25,0,0,1,.08.1l.48,1.28A2.91,2.91,0,0,1,22.2,7l.06-.18.06-.18.44-1.27a.31.31,0,0,1,.09-.11.28.28,0,0,1,.15,0h.71Z"/>
      </g>
    </g>
  </g>
</svg>
