<svg xmlns="http://www.w3.org/2000/svg" viewBox="0 0 38.11 115.49">
  <defs>
    <style>
      .cls-1 {
        fill: #74bdd9;
      }

      .cls-2 {
        fill: #b40000;
      }

      .cls-3 {
        fill: #fff;
      }

      .cls-4 {
        fill: #bd6146;
      }

      .cls-5 {
        fill: #005a95;
      }

      .cls-6 {
        fill: #2c4441;
      }

      .cls-7 {
        fill: #addad1;
      }

      .cls-8 {
        fill: #002f4e;
      }

      .cls-9 {
        fill: #d3fff9;
      }

      .cls-10 {
        fill: #ffae74;
      }

      .cls-11 {
        fill: #2c353a;
      }

      .cls-12 {
        fill: #eb9e60;
      }

      .cls-13 {
        fill: #401808;
      }

      .cls-14 {
        fill: #ffcc4b;
      }

      .cls-15 {
        fill: #474747;
      }
    </style>
  </defs>
  <title>char-1</title>
  <g id="LH-PH">
    <ellipse class="cls-1" cx="19.05" cy="109.39" rx="17.69" ry="4.82"/>
    <g>
      <path class="cls-2" d="M16.09,64.23a2.17,2.17,0,0,0-2.46,1.83l-.09.59-.07.6-.08.59-.06.61c0,.41-.08.82-.1,1.22s-.06.79-.08,1.17c0,.75-.1,1.49-.17,2.24l-.22,2.31c-.07.77-.14,1.55-.2,2.32s-.13,1.56-.19,2.34l-.07,1.17-.07,1.17-.12,2.34C12.05,86,12,87.3,12,88.58a2.5,2.5,0,0,0,.3.74,2.3,2.3,0,0,0,.74.81,2.65,2.65,0,0,0,.48.23,1.43,1.43,0,0,0,.42.1,1.27,1.27,0,0,0,.71-.15,1.75,1.75,0,0,0,.55-.5,5.22,5.22,0,0,0,.73-1.61c0-.15.09-.31.14-.47.07-.91.14-1.82.22-2.73.26-3.07.57-6.11.89-9.18l.12-1.16.06-.57.06-.59c.07-.79.14-1.6.19-2.39,0-.4,0-.79.06-1.16s0-.73.08-1.1.06-.73.1-1.1l.12-1.13v0A2.17,2.17,0,0,0,16.09,64.23Z"/>
      <path class="cls-2" d="M22.24,64.23a2.17,2.17,0,0,1,2.46,1.83l.09.59.07.6.08.59.06.61c0,.41.08.82.1,1.22s.06.79.08,1.17c0,.75.1,1.49.17,2.24l.22,2.31c.07.77.14,1.55.2,2.32s.13,1.56.19,2.34L26,81.22l.07,1.17.12,2.34c.06,1.28.11,2.57.16,3.85a2.83,2.83,0,0,1-.31.74,2.3,2.3,0,0,1-.74.81,2.37,2.37,0,0,1-.48.23,1.43,1.43,0,0,1-.42.1,1.22,1.22,0,0,1-.7-.15,1.68,1.68,0,0,1-.56-.5,5.22,5.22,0,0,1-.73-1.61c-.05-.15-.09-.31-.14-.47-.07-.91-.14-1.82-.22-2.73-.26-3.07-.57-6.11-.89-9.18l-.12-1.16L21,74.09,21,73.5c-.07-.79-.14-1.6-.19-2.39,0-.4,0-.79-.06-1.16s0-.73-.08-1.1-.06-.73-.1-1.1l-.12-1.13v0A2.17,2.17,0,0,1,22.24,64.23Z"/>
      <path class="cls-2" d="M24.74,58,19,61.05,13.3,58c-.1,2.87-.12,5.75-.06,8.62a3.29,3.29,0,0,0,.34,1.65,2.85,2.85,0,0,0,1.24.94,8.33,8.33,0,0,0,4.23.9,8.17,8.17,0,0,0,4.18-.9,2.88,2.88,0,0,0,1.23-.94,3.29,3.29,0,0,0,.34-1.65C24.86,63.71,24.84,60.83,24.74,58Z"/>
      <path class="cls-3" d="M13.42,44.25a2.13,2.13,0,0,0,.07.27l.07.23.12.4a1.27,1.27,0,0,1,.06.18l0,.09,0,.08c0,.11.05.21.07.31a2.24,2.24,0,0,1,0,1.07l-.09.23-.1.24-.18.5c-.12.33-.24.68-.35,1-.22.7-.43,1.42-.64,2.14s-.4,1.45-.59,2.18c-.39,1.47-.76,3-1.1,4.45l-.13.56-.06.28,0,.14-.06.15-.23.59L10,60l-.15.37-.06.15-.05.13,0,0,0,.07,0,.05,0,0a.43.43,0,0,1,0,.07L9.5,61s-.1.11-.17.17a1.66,1.66,0,0,1-.44.26,1.52,1.52,0,0,1-1,0A1.4,1.4,0,0,1,7.25,61a1.17,1.17,0,0,1-.16-.27c0-.05,0-.12-.07-.16l0-.1s0,0,0-.07a.11.11,0,0,1,0,0v-.21c0-.1,0-.16,0-.22s0-.19.06-.29a2.75,2.75,0,0,1,.1-.33c0-.08.07-.16.16-.32l0-.07.06-.08.08-.09,0-.06.06-.06.08-.06.1-.07.12-.07L8,58.33l.17,0a.63.63,0,0,1,.19,0h.2l.18,0a1.12,1.12,0,0,1,.31.11l.11.06.1.06.14.11.09.1.06.08,0,0,0,0L9.7,59c.06.12.08.19.11.26a2.83,2.83,0,0,1,.07.28,1.65,1.65,0,0,1,0,.21c0,.13,0,.24,0,.36s0,.22,0,.33,0,.21,0,.32L7.71,61c-.07-.18-.13-.35-.19-.52l-.09-.22a.2.2,0,0,0,0-.08s0,0,0,0a1,1,0,0,0,0,.12,1.67,1.67,0,0,0,.14.19l.08.08a.4.4,0,0,0,.12.1l.09.06.1.06a1.63,1.63,0,0,0,.29.1l.18,0h.19a.57.57,0,0,0,.18,0l.16,0,.14-.07a.39.39,0,0,0,.11-.06l.09-.06.08-.06.05,0,.05-.05.07-.08,0-.07,0,0,.09-.18c0-.05,0-.05,0-.05s0,0,0,0,0,0,0-.06v-.2a.15.15,0,0,0,0-.06l0-.09-.05-.15a1.68,1.68,0,0,0-.16-.26,1.42,1.42,0,0,0-1.62-.47,1.71,1.71,0,0,0-.44.25l-.16.17-.08.1,0,.07,0,0,0,0,0,0,0,0a.11.11,0,0,1,0,0s0,0,0,0a.22.22,0,0,1,0-.09v-.12c0-.17,0-.36,0-.55l-.05-.57V58l0-.3L7,57c.16-1.61.38-3.21.7-4.81A34.81,34.81,0,0,1,9,47.47c.15-.39.31-.79.48-1.18.08-.2.17-.4.26-.6l.15-.3c.05-.1.1-.2.16-.3a2.74,2.74,0,0,1,1.07-1,2.43,2.43,0,0,1,.4-.18l.11,0,.11,0,.24-.05a1.9,1.9,0,0,1,.25,0h.27a1.67,1.67,0,0,1,.57.1Z"/>
      <path class="cls-3" d="M24.69,44.25a2.13,2.13,0,0,1-.07.27l-.07.23-.12.4a1.27,1.27,0,0,0-.06.18l0,.09,0,.08c0,.11-.05.21-.07.31a2.24,2.24,0,0,0,.05,1.07l.09.23.1.24.18.5c.12.33.24.68.35,1,.22.7.43,1.42.64,2.14s.4,1.45.59,2.18c.39,1.47.76,3,1.1,4.45l.13.56.06.28,0,.14.06.15.23.59.24.61.15.37.06.15.05.13,0,0,0,.07,0,.05,0,0a.43.43,0,0,0,0,.07l.09.12s.1.11.17.17a1.66,1.66,0,0,0,.44.26,1.52,1.52,0,0,0,1,0,1.4,1.4,0,0,0,.61-.47A1.17,1.17,0,0,0,31,60.7c0-.05.05-.12.07-.16l0-.1s0,0,0-.07a.11.11,0,0,0,0,0v-.21c0-.1,0-.16,0-.22s0-.19-.06-.29a2.75,2.75,0,0,0-.1-.33c0-.08-.07-.16-.16-.32l0-.07-.06-.08-.08-.09-.05-.06-.06-.06-.08-.06-.1-.07-.12-.07-.15-.06-.17,0a.63.63,0,0,0-.19,0h-.2l-.18,0a1.12,1.12,0,0,0-.31.11l-.11.06-.1.06-.14.11-.09.1-.06.08,0,0,0,0-.07.11c-.06.12-.08.19-.11.26a2.83,2.83,0,0,0-.07.28,1.65,1.65,0,0,0,0,.21c0,.13,0,.24,0,.36s0,.22,0,.33,0,.21,0,.32L30.4,61c.07-.18.13-.35.19-.52l.09-.22a.2.2,0,0,1,0-.08s0,0,0,0a1,1,0,0,1,0,.12,1.67,1.67,0,0,1-.14.19l-.08.08a.4.4,0,0,1-.12.1l-.09.06-.1.06a1.63,1.63,0,0,1-.29.1l-.18,0H29.5a.57.57,0,0,1-.18,0l-.16,0L29,60.76a.39.39,0,0,1-.11-.06l-.09-.06-.08-.06,0,0-.05-.05-.07-.08,0-.07,0,0-.09-.18c0-.05,0-.05,0-.05s0,0,0,0,0,0,0-.06v-.2a.15.15,0,0,1,0-.06l0-.09.05-.15a1.68,1.68,0,0,1,.16-.26,1.42,1.42,0,0,1,1.62-.47,1.71,1.71,0,0,1,.44.25l.16.17.08.1.05.07,0,0,0,0,0,0,0,0a.11.11,0,0,0,0,0s0,0,0,0a.22.22,0,0,0,0-.09v-.12c0-.17,0-.36,0-.55l.05-.57V58l0-.3,0-.61c-.16-1.61-.38-3.21-.7-4.81a34.81,34.81,0,0,0-1.32-4.76c-.15-.39-.31-.79-.48-1.18-.08-.2-.17-.4-.26-.6l-.15-.3c-.05-.1-.1-.2-.16-.3a2.74,2.74,0,0,0-1.07-1,2.43,2.43,0,0,0-.4-.18l-.11,0-.11,0-.24-.05a1.9,1.9,0,0,0-.25,0h-.27a1.67,1.67,0,0,0-.57.1Z"/>
      <g>
        <path class="cls-3" d="M19.07,65.66C24.51,68.8,24.82,67,24.82,67c.16-2.17.06-11.22.34-13.38a59.49,59.49,0,0,1,1.95-9l.09-.3a2.28,2.28,0,0,0-.1-.29l0-.12a16.06,16.06,0,0,1-5.18-3.16v0h0l0,0h0L20,42.31l-.29,0v-.06H18.38v.06l-.29,0L16.22,40.7h0l0,0,0,.24-.08-.26v0A16.06,16.06,0,0,1,11,43.92l0,.12c0,.06-.06.16-.1.29l.09.3a60.77,60.77,0,0,1,2,9c.27,2.16.17,11.21.33,13.38,0,0,.31,1.82,5.75-1.32"/>
        <path class="cls-4" d="M21.8,40.63a3.24,3.24,0,0,1-.78-1,22.87,22.87,0,0,1-.36-4.81,13.29,13.29,0,0,0-1.54-.16v.19h0v-.19a13.29,13.29,0,0,0-1.54.16,22.87,22.87,0,0,1-.36,4.81,3.24,3.24,0,0,1-.78,1,2.91,2.91,0,0,0,2.12,1.56v.08h1.33v-.11A2.94,2.94,0,0,0,21.8,40.63Z"/>
        <line class="cls-5" x1="13.98" y1="61.81" x2="13.97" y2="61.81"/>
        <path class="cls-6" d="M24.92,54.47a31.29,31.29,0,0,1-.67-3.31,27.81,27.81,0,0,1-.27-3.4,21.74,21.74,0,0,1,.21-3.33,17,17,0,0,1,.33-1.73,13.8,13.8,0,0,1-2.64-1.94v0h0l0,0h0L20,42.31l-.29,0v-.06H18.38v.06l-.29,0L16.22,40.7h0l0,0,0,.24-.08-.26v0A13.62,13.62,0,0,1,14,42.45a14.38,14.38,0,0,1,.36,3.27A19.81,19.81,0,0,1,14,49.25a29.86,29.86,0,0,1-.88,3.5c-.07.25-.15.49-.23.72,0,.05,0,.09,0,.13.27,2.16.17,11.21.33,13.38,0,0,.31,1.82,5.75-1.32h.1C24.51,68.8,24.82,67,24.82,67c.14-1.85.09-8.69.24-12C25,54.8,25,54.64,24.92,54.47Z"/>
        <line class="cls-5" x1="24.06" y1="61.81" x2="24.07" y2="61.81"/>
        <path class="cls-3" d="M21.88,40.7l0,0h0L20,42.31l-.29,0v-.06H18.38v.06l-.29,0-1.82-1.56c-.19,1.14-.51,6.78,2.72,14.36a49.51,49.51,0,0,0,2.89-14.35V40.7Z"/>
        <path class="cls-2" d="M19.17,44.5l1.51-2.36-1.56-1.35-2,1.78,1.17,1.88L16.8,48.82c.35,1.55.9,3.58,1.32,4.89l.72,1.77s1.22-2.94,2.35-6.63Z"/>
        <path class="cls-7" d="M17.38,38.4l1.7,2.39a9.64,9.64,0,0,1-3.86,3.46l-.09-2.69A4.49,4.49,0,0,0,17.38,38.4Z"/>
        <path class="cls-7" d="M20.78,38.4l-1.7,2.39a9.64,9.64,0,0,0,3.86,3.46l.1-2.69A4.52,4.52,0,0,1,20.78,38.4Z"/>
        <path class="cls-8" d="M12.71,52.23a.09.09,0,0,1-.07-.06,25.06,25.06,0,0,1-.42-7,.07.07,0,0,1,.07-.07.08.08,0,0,1,.07.08,24.75,24.75,0,0,0,.42,7,.07.07,0,0,1,0,.09Z"/>
        <path class="cls-8" d="M25.2,52.23h0a.08.08,0,0,1-.06-.09,24.75,24.75,0,0,0,.42-7,.08.08,0,0,1,.15,0,25.06,25.06,0,0,1-.43,7A.07.07,0,0,1,25.2,52.23Z"/>
      </g>
      <path class="cls-9" d="M19.1,58.4a.88.88,0,1,1,.88-.88A.88.88,0,0,1,19.1,58.4Zm0-1.61a.73.73,0,1,0,.73.73A.73.73,0,0,0,19.1,56.79Z"/>
      <path class="cls-9" d="M19.1,62.45a.88.88,0,1,1,.88-.88A.88.88,0,0,1,19.1,62.45Zm0-1.61a.73.73,0,1,0,.73.73A.73.73,0,0,0,19.1,60.84Z"/>
      <path class="cls-6" d="M6.9,107.9a2.26,2.26,0,0,0,.1,1.68,1.55,1.55,0,0,0,.75.62,2.6,2.6,0,0,0,2.39-.4A10.71,10.71,0,0,0,12,107.94c1.05-1.19,6.48-5.71,2-5.22C11.58,103,7.74,105,6.9,107.9Z"/>
      <path class="cls-6" d="M31.43,107.9a2.21,2.21,0,0,1-.1,1.68,1.55,1.55,0,0,1-.75.62,2.6,2.6,0,0,1-2.39-.4,10.71,10.71,0,0,1-1.89-1.86c-1.05-1.19-6.48-5.71-2-5.22C26.75,103,30.59,105,31.43,107.9Z"/>
      <g>
        <path class="cls-2" d="M15.93,88.48a4,4,0,0,0-.23-1.24,2.05,2.05,0,0,0-.84-1.1,1.86,1.86,0,0,0-2.25.53,4.16,4.16,0,0,0-.69,2.73c-.05,1.55-.1,3.11-.13,4.67s0,3.11-.07,4.66,0,3.11,0,4.67a1.63,1.63,0,0,0,3.26.08l.27-4.63c.1-1.54.19-3.08.3-4.62.09-1.25.17-2.5.27-3.76C15.86,89.83,16,89.15,15.93,88.48Z"/>
        <path class="cls-8" d="M15.31,103.47h0a6.93,6.93,0,0,1-3.49-1.64c-.3-.26-.42-.51-.35-.74l0-.08.08,0a12.64,12.64,0,0,0,3.09.79.54.54,0,0,0,.42-.1.1.1,0,0,0,0-.1c0-.09-.12-.14-.22-.19-1.9-.81-3-1.88-3.32-3.17a.07.07,0,0,1,0-.09.08.08,0,0,1,.09.06c.3,1.24,1.39,2.28,3.23,3.07.1,0,.28.12.31.29a.25.25,0,0,1-.06.23.7.7,0,0,1-.55.15,12.68,12.68,0,0,1-3-.77c0,.15.1.32.32.51a6.84,6.84,0,0,0,3.41,1.61.06.06,0,0,1,.06.08A.07.07,0,0,1,15.31,103.47Z"/>
        <path class="cls-8" d="M14.49,96.73a1.52,1.52,0,0,1-.42-.06A3.88,3.88,0,0,1,11.91,95,.07.07,0,1,1,12,95a3.61,3.61,0,0,0,2.07,1.56c.31.09.85.11,1-.25a.07.07,0,0,1,.09,0,.08.08,0,0,1,.05.09A.7.7,0,0,1,14.49,96.73Z"/>
      </g>
      <g>
        <path class="cls-2" d="M22.59,88.48a4,4,0,0,1,.23-1.24,2.05,2.05,0,0,1,.84-1.1,1.85,1.85,0,0,1,2.24.53,4,4,0,0,1,.69,2.73c.06,1.55.1,3.11.13,4.67s.06,3.11.07,4.66,0,3.11,0,4.67a1.63,1.63,0,0,1-3.26.08c-.09-1.54-.17-3.08-.27-4.63s-.19-3.08-.29-4.62l-.27-3.76A18.52,18.52,0,0,1,22.59,88.48Z"/>
        <path class="cls-8" d="M23.21,103.47h0a6.9,6.9,0,0,0,3.48-1.64c.3-.26.42-.51.36-.74l0-.08L27,101a12.64,12.64,0,0,1-3.09.79.55.55,0,0,1-.43-.1.12.12,0,0,1,0-.1c0-.09.12-.14.22-.19,1.89-.81,3-1.88,3.32-3.17a.08.08,0,0,0-.06-.09s-.07,0-.08.06c-.3,1.24-1.39,2.28-3.24,3.07-.09,0-.27.12-.31.29a.29.29,0,0,0,.07.23.68.68,0,0,0,.55.15,12.8,12.8,0,0,0,3-.77.78.78,0,0,1-.32.51,6.84,6.84,0,0,1-3.41,1.61.06.06,0,0,0-.06.08S23.17,103.47,23.21,103.47Z"/>
        <path class="cls-8" d="M24,96.73a1.59,1.59,0,0,0,.43-.06A3.82,3.82,0,0,0,26.6,95a.08.08,0,0,0,0-.1.07.07,0,0,0-.1,0,3.64,3.64,0,0,1-2.07,1.56c-.31.09-.86.11-1-.25a.07.07,0,1,0-.14,0A.69.69,0,0,0,24,96.73Z"/>
      </g>
      <ellipse class="cls-2" cx="13.82" cy="88.21" rx="1.8" ry="2.1"/>
      <ellipse class="cls-2" cx="24.51" cy="88.21" rx="1.8" ry="2.1"/>
      <path class="cls-10" d="M9,58.4l.14.07.07,0,.05,0,.23.14.2.13.18.13a3.07,3.07,0,0,1,.52.46,1.53,1.53,0,0,1,.3.43.31.31,0,0,1,0,.21.59.59,0,0,1-.12.19,1.84,1.84,0,0,1-.2.19,1.7,1.7,0,0,0-.19.19.67.67,0,0,0-.1.21l0,.2a7.83,7.83,0,0,0-.1.83c0,.28,0,.56,0,.84v.85c0,.28,0,.56,0,.85s0,.56,0,.85c0,1.14,0,2.28,0,3.43s.05,2.3.08,3.46l-1.62.19c-.25-1.14-.46-2.29-.65-3.45s-.35-2.33-.49-3.51c-.07-.58-.14-1.18-.16-1.77,0-.3,0-.6,0-.89s0-.6,0-.9,0-.6,0-.91c0-.07,0-.15,0-.22a.75.75,0,0,0-.08-.24,1.67,1.67,0,0,0-.16-.24c-.06-.08-.13-.16-.18-.24a.45.45,0,0,1,0-.47A1.69,1.69,0,0,1,6.88,59l.28-.2.16-.1.18-.09.21-.09.23-.09.25-.07.06,0,.08,0,.15,0Z"/>
      <path class="cls-10" d="M29.13,58.4l-.14.07-.07,0-.05,0-.23.14-.2.13-.18.13a3.07,3.07,0,0,0-.52.46,1.53,1.53,0,0,0-.3.43.31.31,0,0,0,0,.21.59.59,0,0,0,.12.19,1.84,1.84,0,0,0,.2.19,1.7,1.7,0,0,1,.19.19.67.67,0,0,1,.1.21l0,.2a7.83,7.83,0,0,1,.1.83c0,.28,0,.56,0,.84v.85c0,.28,0,.56,0,.85s0,.56,0,.85c0,1.14,0,2.28,0,3.43s0,2.3-.08,3.46l1.62.19c.25-1.14.46-2.29.65-3.45s.35-2.33.49-3.51c.07-.58.14-1.18.16-1.77,0-.3,0-.6,0-.89s0-.6,0-.9,0-.6,0-.91c0-.07,0-.15,0-.22a.75.75,0,0,1,.08-.24,1.67,1.67,0,0,1,.16-.24c.06-.08.13-.16.18-.24a.45.45,0,0,0,0-.47,1.69,1.69,0,0,0-.38-.44l-.28-.2-.16-.1-.18-.09-.21-.09-.23-.09-.25-.07-.06,0-.08,0-.15,0Z"/>
      <path class="cls-7" d="M10.26,62.66l-3-.36A1.51,1.51,0,0,1,6,60.79v-1.6A1.14,1.14,0,0,1,7.23,58l3,.36a1.51,1.51,0,0,1,1.25,1.51v1.6A1.14,1.14,0,0,1,10.26,62.66Z"/>
      <path class="cls-7" d="M27.85,62.66l3-.36a1.51,1.51,0,0,0,1.25-1.51v-1.6A1.14,1.14,0,0,0,30.88,58l-3,.36a1.51,1.51,0,0,0-1.25,1.51v1.6A1.14,1.14,0,0,0,27.85,62.66Z"/>
      <g>
        <path class="cls-10" d="M10.75,71.65a.8.8,0,0,0-1-1A3.71,3.71,0,0,0,7.6,72.54a4.5,4.5,0,0,0,1.82,4.92c1.48.86,2,.58,1.76-.23s-1-4-1-4A5.89,5.89,0,0,0,10.75,71.65Z"/>
        <path class="cls-10" d="M10.33,70.86A4.64,4.64,0,0,1,13,72.29.51.51,0,0,1,13,73a.52.52,0,0,1-.69,0h0a3.5,3.5,0,0,0-2.1-.87.66.66,0,0,1,.05-1.31h.09Z"/>
      </g>
      <g>
        <path class="cls-10" d="M27.36,71.65a.8.8,0,0,1,1-1,3.71,3.71,0,0,1,2.14,1.85,4.5,4.5,0,0,1-1.82,4.92c-1.48.86-2,.58-1.76-.23s1-4,1-4A5.89,5.89,0,0,1,27.36,71.65Z"/>
        <path class="cls-10" d="M27.78,70.86a4.64,4.64,0,0,0-2.68,1.43.51.51,0,0,0,0,.73.52.52,0,0,0,.69,0h0a3.5,3.5,0,0,1,2.1-.87.66.66,0,0,0-.05-1.31h-.09Z"/>
      </g>
      <g>
        <path class="cls-11" d="M17.16,21.67s-4,.71-4.88,3.64c0,0,1.43,9,1.84,9.37s2.58,1.68,2.58,1.68l4.64,0,2.26-1.87s.92-5.77,1.15-9.72c0,0-1.24-1.2-2.35-2.22C22.4,22.6,18.4,22.6,17.16,21.67Z"/>
        <rect class="cls-4" x="13.25" y="30.73" width="2.4" height="3.59" rx="0.82" transform="matrix(0.99, -0.16, 0.16, 0.99, -5.16, 2.82)"/>
        <rect class="cls-4" x="22.19" y="30.73" width="2.4" height="3.59" rx="0.82" transform="translate(41.1 68.46) rotate(-170.53)"/>
        <path class="cls-12" d="M19.15,38.13h-.46c-2.77,0-4.07-3.48-4.26-5.45L14,27.91c-.22-2.33,1.72-4.94,4.2-4.94h1.6c2.49,0,4.44,2.63,4.2,5l-.54,4.77C23.2,34.67,22.17,38.13,19.15,38.13Z"/>
        <path class="cls-4" d="M19.05,34.37h0c-.23,0-.56-.19-.56-.42L18.63,32a.42.42,0,0,1,.42-.42h0a.42.42,0,0,1,.42.42L19.61,34C19.61,34.18,19.28,34.37,19.05,34.37Z"/>
        <path class="cls-11" d="M24.1,26.3a2.27,2.27,0,0,0-.42-1.21,6.47,6.47,0,0,0-1-1.41c-1.13-1.09-2.86-1.19-4.42-1.1-.53,0-1.05.07-1.57.15a3.55,3.55,0,0,0-1.21.37,1.54,1.54,0,0,0-.66.72.63.63,0,0,0-.23-.08.86.86,0,0,0-.5.11A1.36,1.36,0,0,0,13.43,25,1.77,1.77,0,0,0,14,26.27l.17.13-.65-.13s.19,3.67.19,3.81.69,2.85.69,2.85a36.33,36.33,0,0,0,.89-6.08,7.69,7.69,0,0,0,2.6.45,2.18,2.18,0,0,1-1.11-1.18s0,0,0-.06a10.79,10.79,0,0,0,5.74,1,34.8,34.8,0,0,0,.88,5.9s.69-2.71.69-2.85.18-3.81.18-3.81Z"/>
        <path class="cls-8" d="M17.42,32.73H15.27a1,1,0,0,1-1-1v-.83a1,1,0,0,1,1-1h2.15a1,1,0,0,1,1,1v.83A1,1,0,0,1,17.42,32.73ZM15.27,30a.88.88,0,0,0-.88.88v.83a.87.87,0,0,0,.88.87h2.15a.87.87,0,0,0,.87-.87v-.83a.88.88,0,0,0-.87-.88Z"/>
        <path class="cls-8" d="M22.8,32.73H20.64a1,1,0,0,1-1-1v-.83a1,1,0,0,1,1-1H22.8a1,1,0,0,1,1,1v.83A1,1,0,0,1,22.8,32.73ZM20.64,30a.88.88,0,0,0-.87.88v.83a.87.87,0,0,0,.87.87H22.8a.87.87,0,0,0,.87-.87v-.83A.88.88,0,0,0,22.8,30Z"/>
        <path class="cls-8" d="M19.94,30.73a.05.05,0,0,1-.05,0,1.13,1.13,0,0,0-1.67-.06.08.08,0,0,1-.1,0,.08.08,0,0,1,0-.11,1.28,1.28,0,0,1,1-.38,1.22,1.22,0,0,1,.92.45.07.07,0,0,1,0,.1Z"/>
        <path class="cls-11" d="M24.74,25a9.4,9.4,0,0,0-2.63-4.25L22.32,22a9.13,9.13,0,0,0-2.89-1.76l.91,1.57a5.8,5.8,0,0,0-4-.62,7.59,7.59,0,0,0,6,3.82c.18,0,.43-.08.37-.25"/>
        <path class="cls-11" d="M11.78,25.27l.68-.05a4.2,4.2,0,0,0-.82,3.37,4,4,0,0,1,1.19-1.32A6.29,6.29,0,0,0,13,29.2q1-1.8,1.92-3.66c.28-.58,1.76-2.9,1.5-3.48s-2.16.53-2.58.82A6.74,6.74,0,0,0,12.69,24C12.56,24.09,11.87,25.27,11.78,25.27Z"/>
      </g>
      <path class="cls-11" d="M15.28,29.73a5.1,5.1,0,0,1,2.4-.16s1.15-.44-.25-.48A3.19,3.19,0,0,0,15.28,29.73Z"/>
      <path class="cls-11" d="M22.57,29.73a5.13,5.13,0,0,0-2.41-.16s-1.16-.44.25-.48A3.21,3.21,0,0,1,22.57,29.73Z"/>
      <path class="cls-13" d="M18.62,35.46c-.63,0-1.18,0-1.23,0a.07.07,0,0,1-.07-.07.08.08,0,0,1,.08-.07,20.18,20.18,0,0,0,3-.08c.66-.14.74-.42.75-.42a.07.07,0,0,1,.08,0,.06.06,0,0,1,.05.08s-.09.37-.85.53A10.63,10.63,0,0,1,18.62,35.46Z"/>
      <path class="cls-13" d="M19.07,36.32a2,2,0,0,1-.69-.12.1.1,0,0,1,0-.1.08.08,0,0,1,.1,0,1.71,1.71,0,0,0,1.18,0,.07.07,0,0,1,.09,0,.08.08,0,0,1-.05.09A2,2,0,0,1,19.07,36.32Z"/>
      <path class="cls-11" d="M17.55,31.17s-.83-1.34-1.83-.4Z"/>
      <path class="cls-11" d="M20.44,31.17s.84-1.34,1.84-.4Z"/>
      <circle class="cls-11" cx="16.58" cy="31.03" r="0.42"/>
      <circle class="cls-11" cx="21.42" cy="31.03" r="0.42"/>
    </g>
    <g>
      <g>
        <rect class="cls-14" width="34.26" height="11.46"/>
        <rect class="cls-14" x="30.69" y="7.12" width="7.41" height="8.18"/>
        <rect class="cls-14" x="0.44" y="12.72" width="3.07" height="3.32"/>
      </g>
      <g>
        <path class="cls-15" d="M11.07,8.37h-.78a.36.36,0,0,1-.22-.06A.28.28,0,0,1,10,8.15l-.26-.76H8l-.26.76a.29.29,0,0,1-.12.15.28.28,0,0,1-.21.07H6.65L8.34,4h1ZM8.26,6.7h1.2l-.4-1.2C9,5.43,9,5.34,9,5.23S8.89,5,8.86,4.9a2.75,2.75,0,0,1-.1.34q0,.15-.09.27Z"/>
        <path class="cls-15" d="M11.43,8.37V5.26H12a.24.24,0,0,1,.15,0,.21.21,0,0,1,.08.12l0,.18.19-.16a.82.82,0,0,1,.2-.12l.24-.08a1.27,1.27,0,0,1,.28,0,1.06,1.06,0,0,1,.45.09.9.9,0,0,1,.33.25,1.12,1.12,0,0,1,.21.37,1.85,1.85,0,0,1,.07.48v2h-.93v-2A.53.53,0,0,0,13.21,6a.36.36,0,0,0-.31-.13.59.59,0,0,0-.29.07,1,1,0,0,0-.25.17V8.37Z"/>
        <path class="cls-15" d="M17.09,8.37a.24.24,0,0,1-.15,0,.19.19,0,0,1-.08-.11L16.79,8a1.71,1.71,0,0,1-.2.18,1.18,1.18,0,0,1-.22.14,1.06,1.06,0,0,1-.25.09,1.39,1.39,0,0,1-.3,0,1,1,0,0,1-.45-.11A1,1,0,0,1,15,8a1.66,1.66,0,0,1-.24-.5,2.32,2.32,0,0,1-.08-.67,2.22,2.22,0,0,1,.09-.65,2,2,0,0,1,.27-.52,1.53,1.53,0,0,1,.42-.34A1.26,1.26,0,0,1,16,5.2a1,1,0,0,1,.4.07,1.23,1.23,0,0,1,.31.19V3.88h.93V8.37Zm-.94-.66.18,0,.15-.06a.38.38,0,0,0,.13-.09,1.59,1.59,0,0,0,.13-.13V6.09a.66.66,0,0,0-.49-.21.48.48,0,0,0-.24.06.47.47,0,0,0-.19.16.87.87,0,0,0-.12.29,1.89,1.89,0,0,0,0,.44,2.37,2.37,0,0,0,0,.41,1.18,1.18,0,0,0,.1.27.38.38,0,0,0,.16.15A.42.42,0,0,0,16.15,7.71Z"/>
        <path class="cls-15" d="M18.39,8.37V5.26h.66l.08,0a.18.18,0,0,1,.05.07l0,.1.05.29a1.56,1.56,0,0,1,.38-.42.8.8,0,0,1,.47-.15.53.53,0,0,1,.34.1L20.33,6s0,.07,0,.08a.12.12,0,0,1-.09,0h-.12l-.18,0a.64.64,0,0,0-.57.39V8.37Z"/>
        <path class="cls-15" d="M22.2,5.21a1.47,1.47,0,0,1,.56.1,1.18,1.18,0,0,1,.44.28,1.29,1.29,0,0,1,.29.45,1.57,1.57,0,0,1,.1.6.86.86,0,0,1,0,.17.15.15,0,0,1,0,.1.12.12,0,0,1-.06.06h-1.9a.89.89,0,0,0,.24.57.67.67,0,0,0,.49.17,1.14,1.14,0,0,0,.28,0l.21-.09L23,7.51a.29.29,0,0,1,.16,0,.21.21,0,0,1,.17.08l.27.34a1.23,1.23,0,0,1-.31.26,1.87,1.87,0,0,1-.35.17,2,2,0,0,1-.35.08l-.33,0a1.8,1.8,0,0,1-.62-.11,1.45,1.45,0,0,1-.5-.31,1.67,1.67,0,0,1-.34-.53,1.94,1.94,0,0,1-.12-.72,1.62,1.62,0,0,1,.41-1.08,1.47,1.47,0,0,1,.48-.33A1.51,1.51,0,0,1,22.2,5.21Zm0,.65A.52.52,0,0,0,21.8,6a.75.75,0,0,0-.2.43h1.16a.76.76,0,0,0,0-.21A.56.56,0,0,0,22.64,6a.43.43,0,0,0-.17-.13A.53.53,0,0,0,22.21,5.86Z"/>
        <path class="cls-15" d="M23.77,5.26h.74a.31.31,0,0,1,.17,0,.16.16,0,0,1,.09.11l.31,1.4c0,.1.05.21.07.31s0,.2.05.29l.09-.29.09-.31.39-1.4a.2.2,0,0,1,.09-.12.27.27,0,0,1,.16,0h.41a.31.31,0,0,1,.17,0,.2.2,0,0,1,.09.12l.37,1.4.09.31c0,.1.05.2.08.3,0-.1,0-.2.06-.3s0-.2.07-.31l.33-1.4a.16.16,0,0,1,.09-.11.28.28,0,0,1,.16,0h.7l-1,3.11h-.76a.17.17,0,0,1-.1,0,.35.35,0,0,1-.07-.12l-.44-1.56-.06-.2c0-.07,0-.14,0-.21s0,.14-.05.21l-.06.21-.45,1.55a.19.19,0,0,1-.2.15h-.72Z"/>
      </g>
    </g>
  </g>
</svg>
