<svg xmlns="http://www.w3.org/2000/svg" viewBox="0 0 38.11 115.49">
  <defs>
    <style>
      .cls-1 {
        fill: #74bdd9;
      }

      .cls-2 {
        fill: #bacbd3;
      }

      .cls-3 {
        fill: #6c6166;
      }

      .cls-4 {
        fill: #252020;
      }

      .cls-10, .cls-11, .cls-5 {
        fill: none;
        stroke-linecap: round;
        stroke-miterlimit: 10;
        stroke-width: 0.11px;
      }

      .cls-5 {
        stroke: #6c6166;
      }

      .cls-6 {
        fill: #4e4448;
      }

      .cls-7 {
        fill: #ad5e43;
      }

      .cls-8 {
        fill: #005a95;
      }

      .cls-9 {
        fill: #563533;
      }

      .cls-10 {
        stroke: #252020;
      }

      .cls-11 {
        stroke: #320830;
      }

      .cls-12 {
        fill: #ffcc4b;
      }

      .cls-13 {
        fill: #474747;
      }
    </style>
  </defs>
  <title>char-3</title>
  <g id="LH-PH">
    <ellipse class="cls-1" cx="19.05" cy="109.39" rx="17.69" ry="4.82"/>
    <g>
      <g>
        <path class="cls-2" d="M7.12,106.94a2.21,2.21,0,0,0,.1,1.68,1.51,1.51,0,0,0,.75.62,2.57,2.57,0,0,0,2.38-.4,11.12,11.12,0,0,0,1.9-1.86c1.05-1.19,6.48-5.71,2-5.22C11.79,102,8,104,7.12,106.94Z"/>
        <path class="cls-3" d="M10.48,105.71a3.57,3.57,0,0,0-1.59-.46,3.35,3.35,0,0,0-1,.13,5.16,5.16,0,0,0-.77,1.56,2.21,2.21,0,0,0,.1,1.68,1.51,1.51,0,0,0,.75.62,2.57,2.57,0,0,0,2.38-.4A9.57,9.57,0,0,0,12,107.22,4.18,4.18,0,0,0,10.48,105.71Z"/>
        <path class="cls-4" d="M18.14,65.66c-.17,1.55-.29,2.9-.37,4.48s-.26,3.2-.4,4.71L16.47,84c-.56,6.14-.92,12.31-1.27,18.48a1.63,1.63,0,0,1-3.26-.08c0-6.22.13-12.44.39-18.67.17-3.11.41-6.22.67-9.33.12-1.58.29-3.08.38-4.56a43.43,43.43,0,0,1,.47-4.78v0a2.17,2.17,0,0,1,4.29.58Z"/>
        <ellipse class="cls-3" cx="10.77" cy="104.59" rx="1.27" ry="0.66"/>
        <path class="cls-5" d="M12,99.86a5,5,0,0,0,3.23,1.71c.21,0,.53-.1.44-.3"/>
        <path class="cls-5" d="M13,98.16a2.51,2.51,0,0,0,2,.35"/>
      </g>
      <g>
        <path class="cls-2" d="M31.64,106.94a2.21,2.21,0,0,1-.1,1.68,1.47,1.47,0,0,1-.75.62,2.58,2.58,0,0,1-2.38-.4,11.12,11.12,0,0,1-1.9-1.86c-1.05-1.19-6.48-5.71-2-5.22C27,102,30.8,104,31.64,106.94Z"/>
        <path class="cls-3" d="M28.28,105.71a3.57,3.57,0,0,1,1.59-.46,3.35,3.35,0,0,1,1,.13,5.16,5.16,0,0,1,.77,1.56,2.21,2.21,0,0,1-.1,1.68,1.47,1.47,0,0,1-.75.62,2.58,2.58,0,0,1-2.38-.4,9.92,9.92,0,0,1-1.69-1.62A4.18,4.18,0,0,1,28.28,105.71Z"/>
        <path class="cls-4" d="M24.92,65.1a46,46,0,0,1,.46,4.78c.09,1.48.27,3,.38,4.56.26,3.11.5,6.22.67,9.33.26,6.23.44,12.45.39,18.67a1.63,1.63,0,0,1-3.26.08c-.35-6.17-.71-12.34-1.26-18.48l-.91-9.19c-.14-1.51-.31-3.1-.4-4.71s-.2-2.93-.37-4.48a2.17,2.17,0,0,1,4.29-.59Z"/>
        <ellipse class="cls-3" cx="27.99" cy="104.59" rx="1.27" ry="0.66"/>
        <path class="cls-5" d="M23,100.5a2.5,2.5,0,0,0,1.6,0,4.29,4.29,0,0,0,2.47-2"/>
        <path class="cls-5" d="M24.54,98.22a1.35,1.35,0,0,0,.83-.91"/>
      </g>
      <g>
        <g>
          <path class="cls-6" d="M13.69,43.32c.16.73.39,1.16.43,1.56a1.91,1.91,0,0,1,0,1.07c-.25.62-.48,1.3-.71,2-.45,1.39-.84,2.85-1.24,4.31s-.76,3-1.1,4.45c-.09.38-.14.74-.27,1.13L10.29,59l-.15.37-.06.15-.05.13a2.11,2.11,0,0,1-.28.42l-.16.16a1.39,1.39,0,0,1-.49.27,1.42,1.42,0,0,1-.84,0,1.43,1.43,0,0,1-.73-.5,1.51,1.51,0,0,1-.23-.43l0-.16a1.33,1.33,0,0,1,0-.28,1.18,1.18,0,0,1,0-.22,2.58,2.58,0,0,1,.16-.62A2.4,2.4,0,0,1,7.56,58l.1-.15a2,2,0,0,1,.21-.21A1.37,1.37,0,0,1,9,57.34a1.19,1.19,0,0,1,.32.1,1.06,1.06,0,0,1,.19.11,2.25,2.25,0,0,1,.24.21A1.74,1.74,0,0,1,10,58a1.23,1.23,0,0,1,.11.26,3.14,3.14,0,0,1,.11.85,4.64,4.64,0,0,1,0,.65L8,60.05c-.08-.18-.13-.36-.19-.52s-.14-.35-.16-.29l.05.12a1.07,1.07,0,0,0,.15.21.85.85,0,0,0,.21.18,1,1,0,0,0,.18.1,1.33,1.33,0,0,0,.3.11,1.31,1.31,0,0,0,1.1-.3,1,1,0,0,0,.18-.18l.08-.12a.65.65,0,0,0,.1-.19c0-.1,0,0,.06-.05s0,0,0-.06a1.32,1.32,0,0,0,0-.21.57.57,0,0,0,0-.14,1.42,1.42,0,0,0-.22-.42,1.36,1.36,0,0,0-.73-.49,1.43,1.43,0,0,0-.82,0,1.6,1.6,0,0,0-.49.27l-.16.15a1.46,1.46,0,0,0-.23.36l0,.06s0,0,0,0,0-.13,0-.21c0-.34,0-.74-.08-1.12s.06-.8.08-1.21A46.48,46.48,0,0,1,8,51.3a30.63,30.63,0,0,1,1.31-4.76,21.24,21.24,0,0,1,1-2.38,2.77,2.77,0,0,1,1.1-1,2.58,2.58,0,0,1,1.93-.24Z"/>
          <path class="cls-7" d="M9.26,57.47a5.32,5.32,0,0,1,1.38,1c.27.3.48.58.21.83-.11.13-.29.25-.38.38a.77.77,0,0,0-.15.41c0,.28-.08.55-.1.83,0,1.12,0,2.25-.06,3.39-.07,2.28,0,4.58.07,6.89l-1.63.19c-.49-2.29-.85-4.61-1.13-7a26.28,26.28,0,0,1-.19-3.56c0-.3,0-.6,0-.91a1,1,0,0,0-.1-.46c-.08-.16-.24-.32-.33-.48-.23-.33,0-.63.35-.9a3.62,3.62,0,0,1,1.6-.73Z"/>
          <path class="cls-7" d="M11,70.72a.8.8,0,0,0-1-1,3.71,3.71,0,0,0-2.14,1.85,4.51,4.51,0,0,0,1.81,4.92c1.49.86,2.05.58,1.77-.23s-1-4-1-4A6.15,6.15,0,0,0,11,70.72Z"/>
          <path class="cls-7" d="M10.6,69.93a4.58,4.58,0,0,1,2.69,1.43.52.52,0,0,1,0,.73.53.53,0,0,1-.7,0,3.44,3.44,0,0,0-2.09-.87.66.66,0,1,1,0-1.31h.08Z"/>
        </g>
        <path class="cls-3" d="M10.54,61.73l-3-.36a1.51,1.51,0,0,1-1.25-1.51V58.25A1.13,1.13,0,0,1,7.51,57l3,.36a1.51,1.51,0,0,1,1.24,1.51v1.6A1.13,1.13,0,0,1,10.54,61.73Z"/>
      </g>
      <g>
        <g>
          <path class="cls-6" d="M25.25,42.92a2.58,2.58,0,0,1,1.93.24,2.77,2.77,0,0,1,1.1,1,21.24,21.24,0,0,1,1,2.38,30.63,30.63,0,0,1,1.31,4.76,46.48,46.48,0,0,1,.71,4.81c0,.41.09.82.08,1.21s-.07.78-.08,1.12c0,.08,0,.17,0,.21s0,0,0,0l0-.06a1.46,1.46,0,0,0-.23-.36l-.16-.15a1.6,1.6,0,0,0-.49-.27,1.43,1.43,0,0,0-.82,0,1.36,1.36,0,0,0-.73.49,1.7,1.7,0,0,0-.22.42.57.57,0,0,0,0,.14,1.32,1.32,0,0,0,0,.21s0,0,0,.06,0,0,.06.05a.65.65,0,0,0,.1.19l.08.12a1,1,0,0,0,.18.18,1.31,1.31,0,0,0,1.1.3,1.63,1.63,0,0,0,.31-.11l.17-.1a.85.85,0,0,0,.21-.18,1.07,1.07,0,0,0,.15-.21l0-.12c0-.06-.11.15-.16.29s-.11.34-.19.52l-2.18-.26a4.64,4.64,0,0,1,0-.65,3.14,3.14,0,0,1,.11-.85,1.23,1.23,0,0,1,.11-.26,1.74,1.74,0,0,1,.19-.27,2.25,2.25,0,0,1,.24-.21,1.06,1.06,0,0,1,.19-.11,1.19,1.19,0,0,1,.32-.1,1.37,1.37,0,0,1,1.17.31,1.34,1.34,0,0,1,.21.21l.1.15a2.4,2.4,0,0,1,.15.33,2.58,2.58,0,0,1,.16.62,1.18,1.18,0,0,1,0,.22,1.33,1.33,0,0,1,0,.28l0,.16a1.51,1.51,0,0,1-.23.43,1.43,1.43,0,0,1-.73.5A1.46,1.46,0,0,1,29,60.27l-.16-.16a1.4,1.4,0,0,1-.27-.42l-.06-.13-.06-.15L28.34,59l-.47-1.2c-.13-.39-.18-.75-.27-1.13-.34-1.49-.72-3-1.1-4.45s-.79-2.92-1.24-4.31c-.22-.7-.46-1.38-.71-2a1.91,1.91,0,0,1,0-1.07c0-.4.27-.83.43-1.56Z"/>
          <path class="cls-7" d="M29.87,57.39a3.62,3.62,0,0,1,1.6.73c.32.27.58.57.35.9-.09.16-.25.32-.33.48a1,1,0,0,0-.1.46c0,.31,0,.61,0,.91a26.28,26.28,0,0,1-.19,3.56c-.28,2.35-.64,4.67-1.13,7l-1.62-.19c.06-2.31.13-4.61.06-6.89-.06-1.14,0-2.27-.06-3.39,0-.28-.06-.55-.1-.83a.84.84,0,0,0-.14-.41c-.1-.13-.27-.25-.39-.38s-.06-.53.21-.83a5.32,5.32,0,0,1,1.38-1Z"/>
          <path class="cls-7" d="M27.6,70.72a.8.8,0,0,1,1-1,3.71,3.71,0,0,1,2.14,1.85,4.51,4.51,0,0,1-1.81,4.92c-1.49.86-2.05.58-1.77-.23s1-4,1-4A6.15,6.15,0,0,1,27.6,70.72Z"/>
          <path class="cls-7" d="M28.16,71.23a3.44,3.44,0,0,0-2.09.87.52.52,0,0,1-.74,0,.53.53,0,0,1,0-.69A4.58,4.58,0,0,1,28,69.93h0a.65.65,0,1,1,.19,1.29Z"/>
        </g>
        <path class="cls-3" d="M28.09,61.73l3-.36a1.51,1.51,0,0,0,1.25-1.51V58.25A1.13,1.13,0,0,0,31.12,57l-3,.36a1.52,1.52,0,0,0-1.24,1.51v1.6A1.14,1.14,0,0,0,28.09,61.73Z"/>
      </g>
      <g>
        <path class="cls-6" d="M27.44,42.79a16.22,16.22,0,0,1-5.24-3,3.1,3.1,0,0,1-2.05,1.56L19.6,43l-.23-1.55-.67-.13a6.19,6.19,0,0,1-2.17-1.56,16.22,16.22,0,0,1-5.24,3l-.06.18c.37,1.22.71,2.46,1,3.72a24.33,24.33,0,0,1,.5,3.3l.09-.25s.8,5.75,1,9l-.07,0,.06.48c.05.57.09,1.14.13,1.72,1-.06,2-.19,2.32-.24l3.06,1.23v-.78h0v.78l3.06-1.23a23,23,0,0,0,2.72.25c0-.76.05-1.53.06-2.3l-.34.11c.24-3.21,1-9,1-9l0,.08c.13-.67.25-1.35.38-2,.27-1.36.56-2.72.92-4.06.07-.28.15-.56.23-.84Z"/>
        <g>
          <path class="cls-4" d="M25.1,57l-5.72,3.09L13.66,57c-.1,2.87-.12,5.75-.06,8.62a3.29,3.29,0,0,0,.34,1.65,2.85,2.85,0,0,0,1.24.94,8.33,8.33,0,0,0,4.23.9,8.17,8.17,0,0,0,4.18-.9,2.88,2.88,0,0,0,1.23-.94,3.29,3.29,0,0,0,.34-1.65C25.22,62.78,25.2,59.9,25.1,57Z"/>
          <path class="cls-6" d="M16.59,62.89l1.57,0,1.67,0c1.14,0,2.27,0,3.41-.11q1-.08,2-.21,0-3.36-.09-6.72L19.38,59l-5.72-3.09q-.11,3.27-.09,6.54A11.49,11.49,0,0,0,16.59,62.89Z"/>
          <line class="cls-8" x1="14.34" y1="60.88" x2="14.33" y2="60.88"/>
          <line class="cls-8" x1="24.42" y1="60.88" x2="24.43" y2="60.88"/>
          <path class="cls-5" d="M13.73,67.32a4.32,4.32,0,0,0,1.45-3.5"/>
          <path class="cls-5" d="M24.91,67.67a2.66,2.66,0,0,1-1.13-1.47,4.73,4.73,0,0,1-.22-2.36"/>
          <path class="cls-5" d="M20.09,63.36l-.31,5.32"/>
        </g>
        <path class="cls-9" d="M22.12,39.7a4.74,4.74,0,0,0-.37-.39,2.37,2.37,0,0,1-.43-.65A22.36,22.36,0,0,1,21,33.85a13.61,13.61,0,0,0-1.57-.16v.19h0v-.19a13.61,13.61,0,0,0-1.57.16,22.36,22.36,0,0,1-.37,4.81,2.35,2.35,0,0,1-.38.6,3.5,3.5,0,0,0-.57.65,2.58,2.58,0,0,0-.12,1.69,3.93,3.93,0,0,0,.82,1.69,2.84,2.84,0,0,0,1.59,1,3.26,3.26,0,0,0,2.73-.81,2.42,2.42,0,0,0,.73-2.06,5,5,0,0,1-.1-.66,1.5,1.5,0,0,1,.08-.47.76.76,0,0,0,.06-.26A.51.51,0,0,0,22.12,39.7Z"/>
        <path class="cls-9" d="M17.05,39.24a2.35,2.35,0,0,0,1.24,1,2.74,2.74,0,0,0,2.84-.62,2.26,2.26,0,0,0,.4-.57,2,2,0,0,1-.21-.38A22.36,22.36,0,0,1,21,33.85a13.61,13.61,0,0,0-1.57-.16v.19h0v-.19a13.61,13.61,0,0,0-1.57.16,22.36,22.36,0,0,1-.37,4.81A2.34,2.34,0,0,1,17.05,39.24Z"/>
        <path class="cls-3" d="M22.25,40a.51.51,0,0,0-.13-.29,4.74,4.74,0,0,0-.37-.39l-.05-.06a3,3,0,0,1-.54.69,2.69,2.69,0,0,1-1.4.64,3.11,3.11,0,0,1-1.78-.2,2.7,2.7,0,0,1-1.11-1,2.09,2.09,0,0,0-.41.48,2.58,2.58,0,0,0-.12,1.69,3.93,3.93,0,0,0,.82,1.69,2.84,2.84,0,0,0,1.59,1,3.26,3.26,0,0,0,2.73-.81,2.42,2.42,0,0,0,.73-2.06,5,5,0,0,1-.1-.66,1.5,1.5,0,0,1,.08-.47A.76.76,0,0,0,22.25,40Z"/>
        <path class="cls-6" d="M27.44,42.79a16.22,16.22,0,0,1-5.24-3,3.1,3.1,0,0,1-2.05,1.56L19.6,43l-.23-1.55-.67-.13a6.19,6.19,0,0,1-2.17-1.56,16.22,16.22,0,0,1-5.24,3s0,.1-.1.3c.31,1,.63,2,.9,3a21.07,21.07,0,0,1,.7,3.69l0-.06s.8,5.75,1,9h0l.06.32c.1.62.17,1.24.25,1.86,1-.06,1.85-.18,2.17-.23l3.06,1.23v-.78h0v.78l3.06-1.23a23,23,0,0,0,2.72.25c0-.76.05-1.53.06-2.3l-.34.11c.19-2.52.72-6.61.94-8.25a.12.12,0,0,1-.06-.13c.19-.79.37-1.57.55-2.35.32-1.38.63-2.75,1-4.11.08-.27.15-.53.23-.79S27.44,42.79,27.44,42.79Z"/>
        <path class="cls-10" d="M12.86,49.42a36.63,36.63,0,0,0-1.41-5.64"/>
        <path class="cls-10" d="M25.88,49.42a37.79,37.79,0,0,1,1.4-5.64"/>
        <path class="cls-10" d="M26.34,49.2l1.12-1.36"/>
        <path class="cls-10" d="M12.45,49.45a14.7,14.7,0,0,1-1.22-1.81"/>
        <circle class="cls-10" cx="19.6" cy="44.36" r="0.49"/>
        <polyline class="cls-10" points="19.6 43.37 20.91 43.6 20.36 48.71"/>
      </g>
      <g>
        <rect class="cls-9" x="13.56" y="28.69" width="2.4" height="3.59" rx="0.82" transform="translate(-4.82 2.84) rotate(-9.47)"/>
        <rect class="cls-9" x="22.5" y="28.69" width="2.4" height="3.59" rx="0.82" transform="translate(42.05 64.46) rotate(-170.53)"/>
        <path class="cls-7" d="M19.46,37.31H19c-2.1,0-3.85-3-4-5.07l-.7-5.79C14,24,16,21.21,18.46,21.21h1.6c2.49,0,4.44,2.8,4.2,5.28l-.76,5.78C23.3,34.35,21.55,37.31,19.46,37.31Z"/>
        <path class="cls-4" d="M15.15,28.28c.16-.77.83-.66.81-1.46,0-.48-.38-.61-.64-.93a.74.74,0,0,1-.09-.78,2.36,2.36,0,0,1,1.82-1.21c1-.12,1.94.35,2.93.2l0,0a4.82,4.82,0,0,1,2.07,0,1.44,1.44,0,0,1,1,1.27,9.43,9.43,0,0,1-.2,1.06,2.73,2.73,0,0,0,.36,1.27A2.21,2.21,0,0,1,23.46,29a2.38,2.38,0,0,0,.32,1.16l.48-3.63c.24-2.48-1.71-5.28-4.2-5.28h-1.6C16,21.21,14,24,14.26,26.45l.47,3.88A1.58,1.58,0,0,0,15,30C15.22,29.44,15,28.85,15.15,28.28Z"/>
        <path class="cls-4" d="M15.93,29.91a1.41,1.41,0,0,1,1.84-.16Z"/>
        <circle class="cls-4" cx="16.91" cy="30.01" r="0.42"/>
        <path class="cls-4" d="M22.66,29.91a1.4,1.4,0,0,0-1.83-.16Z"/>
        <circle class="cls-4" cx="21.68" cy="30.01" r="0.42"/>
        <path class="cls-9" d="M19.72,33.39H19a.52.52,0,0,1-.53-.53l.21-1.69a.53.53,0,0,1,.53-.53h.28a.53.53,0,0,1,.53.53l.22,1.69A.53.53,0,0,1,19.72,33.39Z"/>
        <path class="cls-11" d="M17.71,34.41a20.53,20.53,0,0,0,3-.08c.72-.16.8-.48.8-.48"/>
        <path class="cls-4" d="M15.73,28.76s.09-.09.15-.1a9.38,9.38,0,0,1,1.58-.1,3,3,0,0,0,.74,0,.3.3,0,0,0,.2-.12c.06-.15-.1-.29-.24-.35a3.37,3.37,0,0,0-1.94,0,.8.8,0,0,0-.41.18c-.1.11-.19.39-.08.5"/>
        <path class="cls-4" d="M22.71,28.76s-.08-.09-.15-.1a9.2,9.2,0,0,0-1.57-.1,3,3,0,0,1-.74,0,.3.3,0,0,1-.2-.12c-.07-.15.09-.29.24-.35a3.37,3.37,0,0,1,1.94,0,.73.73,0,0,1,.4.18c.11.11.2.39.09.5"/>
        <path class="cls-11" d="M18.61,35.24a2.43,2.43,0,0,0,1.7-.05s.05,0,.05,0-.06,0,0,0"/>
        <path class="cls-11" d="M16.29,27.13a21.94,21.94,0,0,1,6.32,0"/>
      </g>
    </g>
    <g>
      <g>
        <rect class="cls-12" x="0.01" width="34.26" height="11.46"/>
        <rect class="cls-12" x="30.69" y="7.12" width="7.41" height="8.18"/>
        <rect class="cls-12" x="0.45" y="12.72" width="3.07" height="3.32"/>
      </g>
      <g>
        <path class="cls-13" d="M11.28,8.37h-.75a.32.32,0,0,1-.2-.06.35.35,0,0,1-.12-.15L10,7.44H8.39l-.25.72A.31.31,0,0,1,8,8.31a.32.32,0,0,1-.2.06H7.07L8.68,4.21h1ZM8.61,6.78H9.75L9.36,5.64l-.08-.25a3,3,0,0,1-.1-.32,3,3,0,0,1-.1.32A2.56,2.56,0,0,1,9,5.65Z"/>
        <path class="cls-13" d="M11.62,8.37v-3h.55a.23.23,0,0,1,.14,0,.18.18,0,0,1,.07.11l.06.17.17-.15.2-.11L13,5.39a1.18,1.18,0,0,1,.27,0,1,1,0,0,1,.43.09.9.9,0,0,1,.31.23,1,1,0,0,1,.2.36,1.63,1.63,0,0,1,.06.45V8.37h-.88V6.49a.51.51,0,0,0-.1-.34A.38.38,0,0,0,13,6a.66.66,0,0,0-.27.06,1,1,0,0,0-.24.17V8.37Z"/>
        <path class="cls-13" d="M16,8.42a1.06,1.06,0,0,1-.37-.06.64.64,0,0,1-.27-.18.62.62,0,0,1-.17-.27,1,1,0,0,1-.06-.36V6h-.25a.19.19,0,0,1-.12,0,.18.18,0,0,1,0-.13V5.5l.47-.09.17-.72a.18.18,0,0,1,.2-.14H16v.87h.72V6H16V7.49a.29.29,0,0,0,0,.17.15.15,0,0,0,.14.07h.08l.06,0,.05,0h.05l.06,0s0,0,.05.06l.27.42a1.09,1.09,0,0,1-.39.19A1.31,1.31,0,0,1,16,8.42Z"/>
        <path class="cls-13" d="M18.53,5.36a1.75,1.75,0,0,1,.62.11,1.35,1.35,0,0,1,.47.3,1.21,1.21,0,0,1,.31.48,1.61,1.61,0,0,1,.11.63,1.62,1.62,0,0,1-.11.64,1.21,1.21,0,0,1-.31.48,1.25,1.25,0,0,1-.47.31,1.75,1.75,0,0,1-.62.11,1.7,1.7,0,0,1-.61-.11,1.36,1.36,0,0,1-.79-.79A1.62,1.62,0,0,1,17,6.88a1.61,1.61,0,0,1,.11-.63,1.21,1.21,0,0,1,.31-.48,1.31,1.31,0,0,1,.48-.3A1.7,1.7,0,0,1,18.53,5.36Zm0,2.4A.52.52,0,0,0,19,7.55a1.3,1.3,0,0,0,.14-.66A1.23,1.23,0,0,0,19,6.24.51.51,0,0,0,18.53,6a.49.49,0,0,0-.45.22,1.13,1.13,0,0,0-.15.65,1.19,1.19,0,0,0,.15.66A.51.51,0,0,0,18.53,7.76Z"/>
        <path class="cls-13" d="M21.55,4.6a.46.46,0,0,1-.05.2.61.61,0,0,1-.12.16.42.42,0,0,1-.17.11.46.46,0,0,1-.21,0,.45.45,0,0,1-.2,0A.62.62,0,0,1,20.63,5a.57.57,0,0,1-.11-.16.52.52,0,0,1,0-.4.5.5,0,0,1,.11-.17.62.62,0,0,1,.17-.11.45.45,0,0,1,.2,0,.46.46,0,0,1,.21,0,.42.42,0,0,1,.17.11.52.52,0,0,1,.12.17A.46.46,0,0,1,21.55,4.6Zm-.11.81v3h-.88v-3Z"/>
        <path class="cls-13" d="M22.16,8.37v-3h.54a.2.2,0,0,1,.14,0,.15.15,0,0,1,.08.11l0,.17.18-.15.19-.11.23-.08a1.09,1.09,0,0,1,.26,0,1,1,0,0,1,.75.32.89.89,0,0,1,.19.36,1.33,1.33,0,0,1,.07.45V8.37H24V6.49a.51.51,0,0,0-.1-.34A.34.34,0,0,0,23.56,6a.6.6,0,0,0-.27.06,1.38,1.38,0,0,0-.25.17V8.37Z"/>
        <path class="cls-13" d="M26.74,5.36a1.51,1.51,0,0,1,.53.1,1.11,1.11,0,0,1,.42.26,1.28,1.28,0,0,1,.28.43,1.7,1.7,0,0,1,.1.57c0,.07,0,.12,0,.16A.41.41,0,0,1,28,7,.17.17,0,0,1,28,7H26.16a.85.85,0,0,0,.22.54.7.7,0,0,0,.48.16,1,1,0,0,0,.26,0l.2-.08.16-.09a.4.4,0,0,1,.15,0,.18.18,0,0,1,.16.07l.26.32a1.18,1.18,0,0,1-.3.25,1.37,1.37,0,0,1-.32.16,1.87,1.87,0,0,1-.34.08l-.31,0a1.87,1.87,0,0,1-.59-.1,1.35,1.35,0,0,1-.47-.3,1.45,1.45,0,0,1-.33-.5,1.85,1.85,0,0,1-.12-.69,1.56,1.56,0,0,1,.11-.57,1.24,1.24,0,0,1,.29-.46,1.4,1.4,0,0,1,.46-.32A1.48,1.48,0,0,1,26.74,5.36Zm0,.62a.49.49,0,0,0-.39.14.75.75,0,0,0-.19.42h1.1a1.49,1.49,0,0,0,0-.21.51.51,0,0,0-.09-.18A.48.48,0,0,0,27,6,.49.49,0,0,0,26.75,6Z"/>
      </g>
    </g>
  </g>
</svg>
