<?xml version="1.0" encoding="utf-8"?>
<!-- Generator: Adobe Illustrator 24.0.1, SVG Export Plug-In . SVG Version: 6.00 Build 0)  -->
<svg version="1.1" id="Layer_1" xmlns="http://www.w3.org/2000/svg" xmlns:xlink="http://www.w3.org/1999/xlink" x="0px" y="0px"
	 viewBox="0 0 40 40" style="enable-background:new 0 0 40 40;" xml:space="preserve">
<style type="text/css">
	.st0{fill:#FFCC4B;}
	.st1{fill:#7E5E5D;}
	.st2{fill:#515251;}
	.st3{font-family:'Lato-Black';}
	.st4{font-size:4.2343px;}
</style>
<title>compas-bg</title>
<g>
	<rect x="0.9" y="3.7" class="st0" width="1.9" height="1.9"/>
	<rect x="3.3" y="6.2" class="st0" width="1.2" height="1.2"/>
	<rect x="6.3" y="3.7" class="st0" width="1.7" height="1.3"/>
	<rect x="5.1" y="6.6" class="st0" width="0.8" height="0.8"/>
	
		<rect x="36.9" y="33.9" transform="matrix(-1 -1.224647e-16 1.224647e-16 -1 76.0941 70.1484)" class="st0" width="2.4" height="2.4"/>
	
		<rect x="35.7" y="31.5" transform="matrix(-1 -1.224647e-16 1.224647e-16 -1 72.6127 64.3142)" class="st0" width="1.2" height="1.2"/>
	
		<rect x="32.2" y="34" transform="matrix(-1 -1.224647e-16 1.224647e-16 -1 66.0806 69.2748)" class="st0" width="1.7" height="1.3"/>
	<rect x="33" y="31.7" transform="matrix(-1 -1.224647e-16 1.224647e-16 -1 67.0172 64.3142)" class="st0" width="1" height="1"/>
	<g>
		<rect x="2.7" y="16.3" class="st1" width="36" height="6.8"/>
		<rect x="35" y="21.6" class="st1" width="4.5" height="3.2"/>
		<rect x="0.9" y="21.5" class="st1" width="3.7" height="3.7"/>
		<rect x="4.4" y="27.2" class="st1" width="2" height="2"/>
		<rect x="2.4" y="15.8" class="st0" width="36" height="6.8"/>
		<rect x="34.7" y="21" class="st0" width="4.5" height="3.2"/>
		<rect x="0.5" y="20.8" class="st0" width="3.7" height="3.7"/>
		<rect x="4.1" y="26.5" class="st0" width="2" height="2"/>
		<rect x="36.1" y="13" class="st1" width="2" height="2"/>
		<rect x="35.7" y="12.3" class="st0" width="2" height="2"/>
		<text transform="matrix(1 0 0 1 3.3325 21.0325)" class="st2 st3 st4">Back to the Island</text>
	</g>
</g>
</svg>
