<svg xmlns="http://www.w3.org/2000/svg" viewBox="0 0 2.98 33.23">
  <defs>
    <style>
      .cls-1 {
        fill: #FFD255;
      }

      .cls-2 {
        fill: #c66650;
      }

      .cls-3 {
        fill: #cf554d;
      }

      .cls-4 {
        fill: #725352;
      }

      .cls-5 {
        fill: #f2ead2;
      }
    </style>
  </defs>
  <title>compas-arrow</title>
  <g id="Compass_Needle" data-name="Compass Needle">
    <g>
      <polygon class="cls-1" points="1.43 30.18 1.49 30.74 2.98 16.61 1.49 16.61 1.43 30.18"/>
      <polygon class="cls-2" points="0 16.62 1.48 30.73 1.49 16.61 0 16.62"/>
      <polygon class="cls-3" points="2.98 16.61 1.49 2.49 1.43 3.05 1.49 16.61 2.98 16.61"/>
      <polygon class="cls-4" points="1.49 16.61 1.49 2.49 0 16.62 1.49 16.61"/>
      <path class="cls-5" d="M.2,17.17A1.42,1.42,0,0,1,1,15.32a1.42,1.42,0,1,1,1.09,2.62A1.41,1.41,0,0,1,.2,17.17Z"/>
      <path class="cls-2" d="M1.11,17a.56.56,0,0,1,.79-.8.56.56,0,0,1,0,.79A.56.56,0,0,1,1.11,17Z"/>
    </g>
  </g>
</svg>
