<svg id="Mini_Compass" data-name="Mini Compass" xmlns="http://www.w3.org/2000/svg" viewBox="0 0 36.06 39.61">
  <defs>
    <style>
      .cls-1 {
        fill: #9bbdc6;
      }

      .cls-2 {
        fill: #bbe5f0;
      }

      .cls-3 {
        fill: none;
        stroke: #645451;
        stroke-miterlimit: 10;
      }

      .cls-4 {
        fill: #cc725a;
      }

      .cls-5 {
        fill: #645451;
      }

      .cls-6 {
        fill: #ffcc4b;
      }

      .cls-7 {
        fill: #515251;
      }
    </style>
  </defs>
  <title>compas-back-mini</title>
  <g>
    <g>
      <circle class="cls-1" cx="20.9" cy="19.81" r="14.65"/>
      <circle class="cls-2" cx="22.28" cy="21.19" r="13.27"/>
      <circle class="cls-3" cx="20.9" cy="19.81" r="14.65"/>
    </g>
    <g>
      <polygon class="cls-4" points="21.07 0.79 20.99 0 18.84 19.86 20.94 19.88 21.07 0.79"/>
      <polygon class="cls-4" points="23.03 19.89 21.07 0.79 20.94 19.88 23.03 19.89"/>
      <polygon class="cls-4" points="18.84 19.86 20.71 39.75 20.8 38.96 20.94 19.88 18.84 19.86"/>
      <polygon class="cls-4" points="20.94 19.88 20.8 38.96 23.03 19.89 20.94 19.88"/>
      <path class="cls-5" d="M22.76,19.11a2,2,0,1,1-2.6-1.1A2,2,0,0,1,22.76,19.11Z"/>
      <path class="cls-5" d="M21.47,19.3a.79.79,0,1,1-1.12,1.11.8.8,0,0,1,0-1.12A.79.79,0,0,1,21.47,19.3Z"/>
    </g>
    <rect class="cls-6" x="8.92" y="14.64" width="23.36" height="9.54"/>
    <g>
      <path class="cls-7" d="M15.84,17a3.56,3.56,0,0,1,.79.08,1.45,1.45,0,0,1,.53.25.85.85,0,0,1,.3.38,1.31,1.31,0,0,1,.09.5,1,1,0,0,1,0,.29.91.91,0,0,1-.13.26,1,1,0,0,1-.24.22,1.43,1.43,0,0,1-.35.18,1.29,1.29,0,0,1,.66.34.92.92,0,0,1,.21.63,1.36,1.36,0,0,1-.11.53,1.21,1.21,0,0,1-.33.43,1.52,1.52,0,0,1-.52.28,2.28,2.28,0,0,1-.72.1H14.19V17Zm-.61.77v1.11h.54l.31,0a.75.75,0,0,0,.24-.09.5.5,0,0,0,.15-.17.68.68,0,0,0,.05-.27,1,1,0,0,0,0-.27.43.43,0,0,0-.13-.17.51.51,0,0,0-.21-.09,1.26,1.26,0,0,0-.3,0ZM16,20.66a1.06,1.06,0,0,0,.34-.05.51.51,0,0,0,.2-.14.42.42,0,0,0,.11-.18,1.5,1.5,0,0,0,0-.22.78.78,0,0,0,0-.22.36.36,0,0,0-.11-.16.52.52,0,0,0-.21-.11,1.39,1.39,0,0,0-.32,0h-.73v1.11Z"/>
      <path class="cls-7" d="M18.08,18.7a1.91,1.91,0,0,1,.64-.38,2.37,2.37,0,0,1,.76-.12,1.46,1.46,0,0,1,.52.09,1.16,1.16,0,0,1,.39.26,1.18,1.18,0,0,1,.25.4,1.35,1.35,0,0,1,.08.5v2h-.43a.58.58,0,0,1-.21,0,.34.34,0,0,1-.11-.16l-.07-.17-.23.18a1.71,1.71,0,0,1-.23.13l-.25.08-.3,0a1.19,1.19,0,0,1-.39,0,1,1,0,0,1-.31-.17A.82.82,0,0,1,18,21a1,1,0,0,1-.07-.38.72.72,0,0,1,.09-.34.92.92,0,0,1,.3-.33,1.91,1.91,0,0,1,.57-.24,3.7,3.7,0,0,1,.91-.11v-.14a.56.56,0,0,0-.12-.4.45.45,0,0,0-.33-.13,1,1,0,0,0-.27,0l-.2.08-.16.09a.54.54,0,0,1-.19,0,.25.25,0,0,1-.17-.05L18.25,19Zm1.72,1.45a2.7,2.7,0,0,0-.47.05,1,1,0,0,0-.3.09.39.39,0,0,0-.15.13.33.33,0,0,0,0,.15.27.27,0,0,0,.09.23.48.48,0,0,0,.26.06.84.84,0,0,0,.33-.06,1,1,0,0,0,.28-.21Z"/>
      <path class="cls-7" d="M23.68,19l-.09.09a.16.16,0,0,1-.11,0,.2.2,0,0,1-.13,0L23.22,19a1.19,1.19,0,0,0-.16-.08.88.88,0,0,0-.24,0,.67.67,0,0,0-.3.06.55.55,0,0,0-.21.19.86.86,0,0,0-.13.29,2.34,2.34,0,0,0,0,.39,1.2,1.2,0,0,0,.18.71.58.58,0,0,0,.49.24.62.62,0,0,0,.26,0l.17-.09.12-.09a.24.24,0,0,1,.14-.05.2.2,0,0,1,.18.09L24,21a1.54,1.54,0,0,1-.31.27,1.73,1.73,0,0,1-.33.17,1.51,1.51,0,0,1-.34.08,2,2,0,0,1-.34,0,1.42,1.42,0,0,1-1-.43,1.58,1.58,0,0,1-.32-.52,2.1,2.1,0,0,1-.11-.7,1.91,1.91,0,0,1,.1-.64,1.58,1.58,0,0,1,.3-.52,1.5,1.5,0,0,1,.5-.35,1.85,1.85,0,0,1,.69-.12,1.69,1.69,0,0,1,.66.12,1.46,1.46,0,0,1,.51.35Z"/>
      <path class="cls-7" d="M25.28,16.84v2.58h.14l.13,0,.1-.09.6-.9a.31.31,0,0,1,.12-.11.34.34,0,0,1,.18,0h.88l-.83,1.13a.92.92,0,0,1-.27.25,1.59,1.59,0,0,1,.13.13,1,1,0,0,1,.11.15l.89,1.52H26.6a.48.48,0,0,1-.18,0,.32.32,0,0,1-.13-.13l-.6-1.12a.22.22,0,0,0-.09-.1.26.26,0,0,0-.14,0h-.18v1.41h-1v-4.6Z"/>
    </g>
    <polygon class="cls-6" points="12.5 26.01 4.36 26.01 0 22.85 4.36 19.69 12.5 19.69 12.5 26.01"/>
  </g>
</svg>
