<svg xmlns="http://www.w3.org/2000/svg" viewBox="0 0 33.37 33.37">
  <defs>
    <style>
      .cls-1 {
        fill: #f3fffe;
        opacity: 0.4;
      }

      .cls-2 {
        fill: #8b7b77;
      }

      .cls-3 {
        fill: #584947;
      }

      .cls-4 {
        fill: #f2ead2;
      }
    </style>
  </defs>
  <title>compas-bg</title>
  <g id="Compass_Needle" data-name="Compass Needle">
    <g>
      <circle class="cls-1" cx="17.07" cy="16.64" r="11.17"/>
      <g>
        <path class="cls-2" d="M16.68,33.37A16.69,16.69,0,1,1,33.37,16.68,16.7,16.7,0,0,1,16.68,33.37Zm0-33.29a16.61,16.61,0,1,0,16.61,16.6A16.62,16.62,0,0,0,16.68.08Z"/>
        <g>
          <path class="cls-2" d="M13,11.6h0l0,0L11.81,10s0,0,0,0,0,0,0,0L13,11.52l.37-.24-1-1.62a0,0,0,0,1,0,0s0,0,0,0l1,1.64a.07.07,0,0,1,0,.05l-.42.27Z"/>
          <path class="cls-2" d="M13.81,11.08h0l0,0-.87-1.72s0,0,0,0,0,0,0,0L13.83,11l.39-.18L13.5,9.07s0,0,0,0,0,0,0,0l.74,1.78s0,0,0,0l-.44.21Z"/>
          <path class="cls-2" d="M13.38,11.32h0l-1-1.65a0,0,0,0,1,0,0s0,0,0,0l1,1.62.38-.22-.86-1.69s0,0,0,0,0,0,0,0L13.84,11s0,0,0,0a3.94,3.94,0,0,0-.43.25Z"/>
          <path class="cls-2" d="M12.58,11.9h0L11.3,10.43a0,0,0,0,1,0,0s0,0,0,0l1.23,1.44c.1-.09.21-.17.34-.27L11.81,10s0,0,0,0,0,0,0,0L13,11.55a0,0,0,0,1,0,0,4.56,4.56,0,0,0-.38.31Z"/>
          <path class="cls-2" d="M15.21,10.56s0,0,0,0l-.45-1.88s0,0,0,0,0,0,0,0l.44,1.85c.14,0,.28-.06.43-.09l-.3-1.88a0,0,0,0,1,0,0l0,0,.3,1.91s0,0,0,0h0l-.49.09Z"/>
          <path class="cls-2" d="M14.26,10.87l0,0L13.5,9.07s0,0,0,0,0,0,0,0l.73,1.75.41-.15-.59-1.8,0,0,0,0,.6,1.83v0h0l-.47.17Z"/>
          <path class="cls-2" d="M10.35,16.71H8.43a0,0,0,0,1,0-.06h1.89c0-.14,0-.28,0-.44l-1.89-.15a0,0,0,0,1,0,0s0,0,0,0l1.92.15s0,0,0,0a4.15,4.15,0,0,0,0,.49A0,0,0,0,1,10.35,16.71Z"/>
          <path class="cls-2" d="M12.21,12.24h0l-1.36-1.36a0,0,0,0,1,0,0,0,0,0,0,1,0,0l1.34,1.33.32-.29L11.3,10.43a0,0,0,0,1,0,0s0,0,0,0l1.25,1.46a0,0,0,0,1,0,.05c-.12.1-.25.21-.37.33Z"/>
          <path class="cls-2" d="M14.73,10.69h0v0l-.6-1.83,0,0,0,0,.59,1.81.42-.12-.44-1.85s0,0,0,0,0,0,0,0l.45,1.88a0,0,0,0,1,0,0l-.47.13Z"/>
          <path class="cls-2" d="M15.69,10.47s0,0,0,0l-.3-1.91a0,0,0,0,1,0,0l0,0,.3,1.88.43-.05L16,8.46s0,0,0,0a0,0,0,0,1,0,0l.15,1.93v0h0l-.49.06Z"/>
          <path class="cls-2" d="M10.44,15.72h0l-1.91-.3s0,0,0,0,0,0,0,0l1.88.3a4,4,0,0,1,.09-.43l-1.85-.45s0,0,0,0a0,0,0,0,1,0,0l1.88.45s0,0,0,0-.06.31-.09.49v0Z"/>
          <path class="cls-2" d="M10.53,15.24h0l-1.88-.45s0,0,0,0a0,0,0,0,1,0,0l1.85.45c0-.12.07-.27.12-.42l-1.81-.59a.05.05,0,0,1,0,0,0,0,0,0,1,0,0l1.83.6s0,0,0,0a0,0,0,0,1,0,0c0,.17-.09.34-.13.47s0,0,0,0Z"/>
          <path class="cls-2" d="M10.66,14.76h0l-1.84-.59a.05.05,0,0,1,0,0,0,0,0,0,1,0,0l1.81.59a2.19,2.19,0,0,1,.15-.41l-1.75-.73s0,0,0,0l0,0,1.78.74v0s0,0,0,0l-.17.47S10.68,14.76,10.66,14.76Z"/>
          <path class="cls-2" d="M10.38,16.22h0l-1.93-.16a0,0,0,0,1,0,0s0,0,0,0l1.89.15c0-.13,0-.27.05-.43l-1.88-.3s0,0,0,0,0,0,0,0l1.91.3s0,0,0,0c0,.18-.05.34-.06.49s0,0,0,0Z"/>
          <path class="cls-2" d="M10.84,14.29h0l-1.77-.74s0,0,0,0l0,0,1.75.73c.06-.14.13-.28.19-.4L9.32,13s0,0,0,0,0,0,0,0l1.72.87,0,0s0,0,0,0l-.21.45Z"/>
          <path class="cls-2" d="M11.29,13.41h0l-1.65-1a0,0,0,0,1,0-.05s0,0,0,0l1.62,1,.24-.37L10,11.86a0,0,0,0,1,0,0h0l1.56,1.13a0,0,0,0,1,0,0s0,0,0,0l-.27.41Z"/>
          <path class="cls-2" d="M11.87,12.6h0l-1.46-1.25a0,0,0,0,1,0,0,0,0,0,0,1,0,0l1.44,1.23c.09-.11.19-.22.29-.32l-1.33-1.34a0,0,0,0,1,0,0,0,0,0,0,1,0,0l1.36,1.35a0,0,0,0,1,0,0v0q-.18.18-.33.36h0Z"/>
          <path class="cls-2" d="M11.57,13h0L10,11.86a0,0,0,0,1,0,0h0l1.53,1.11c.1-.13.18-.24.27-.34l-1.44-1.23a0,0,0,0,1,0,0,0,0,0,0,1,0,0l1.46,1.25v0c-.1.12-.2.24-.31.39Z"/>
          <path class="cls-2" d="M11.05,13.84h0L9.32,13s0,0,0,0,0,0,0,0l1.69.86.22-.38-1.62-1a0,0,0,0,1,0-.05s0,0,0,0l1.65,1v0c-.1.16-.18.3-.25.43Z"/>
          <path class="cls-2" d="M16.19,10.41a0,0,0,0,1,0,0L16,8.46s0,0,0,0a0,0,0,0,1,0,0l.15,1.89.43,0V8.43a0,0,0,0,1,0,0,0,0,0,0,1,0,0v1.92a0,0,0,0,1,0,0c-.17,0-.34,0-.49,0Z"/>
          <path class="cls-2" d="M22.07,13.41a0,0,0,0,1,0,0c-.09-.14-.18-.28-.28-.41v0s0,0,0,0l1.56-1.13h0s0,0,0,0L21.84,13c.08.12.17.24.24.36l1.62-1s0,0,0,0,0,0,0,0l-1.64,1Z"/>
          <path class="cls-2" d="M22.32,13.84l0,0c-.07-.14-.15-.28-.24-.43s0,0,0,0l0,0,1.64-1s0,0,0,0,0,0,0,0l-1.61,1a3.59,3.59,0,0,1,.21.38L24,12.91s0,0,0,0,0,0,0,0l-1.72.88Z"/>
          <path class="cls-2" d="M22.53,14.29h0l0,0c-.07-.16-.14-.32-.21-.45v0a0,0,0,0,1,0,0L24,12.91s0,0,0,0,0,0,0,0l-1.69.86c.06.12.13.25.19.4l1.75-.73a0,0,0,0,1,0,0s0,0,0,0l-1.78.74Z"/>
          <path class="cls-2" d="M21.8,13h0l-.3-.39s0,0,0,0v0l1.46-1.25a0,0,0,0,1,.05,0s0,0,0,0l-1.44,1.23a2.52,2.52,0,0,1,.27.34l1.54-1.11h0s0,0,0,0L21.82,13Z"/>
          <path class="cls-2" d="M23,16.22h0v0c0-.15,0-.31-.06-.49,0,0,0,0,0,0l1.91-.3a.05.05,0,0,1,0,0s0,0,0,0l-1.88.3a4,4,0,0,1,.06.43L24.91,16a0,0,0,1,1,0,.06L23,16.22Z"/>
          <path class="cls-2" d="M21.49,12.6h0c-.1-.12-.22-.24-.33-.36s0,0,0-.05l1.35-1.36h.05a0,0,0,0,1,0,0L21.2,12.2a4.28,4.28,0,0,1,.29.33l1.44-1.23a0,0,0,0,1,.05,0s0,0,0,0L21.51,12.6Z"/>
          <path class="cls-2" d="M22.7,14.76s0,0,0,0a4.05,4.05,0,0,0-.17-.46v0l0,0,1.78-.74a0,0,0,0,1,0,0s0,0,0,0l-1.75.72q.08.2.15.42l1.8-.59s0,0,0,0,0,0,0,0l-1.83.59Z"/>
          <path class="cls-2" d="M24.94,16.71H23a0,0,0,0,1,0,0c0-.16,0-.32,0-.49s0,0,0,0L24.91,16a0,0,0,1,1,0,.06L23,16.21c0,.16,0,.3,0,.44h1.9a0,0,0,1,1,0,.06Z"/>
          <path class="cls-2" d="M22.83,15.23l0,0a3.61,3.61,0,0,0-.13-.48s0,0,0,0l1.83-.6s0,0,0,0,0,0,0,0l-1.8.58c0,.13.07.26.12.43l1.84-.45s0,0,0,0,0,0,0,0l-1.88.45Z"/>
          <path class="cls-2" d="M20,11.32h0a3.94,3.94,0,0,0-.43-.25s0,0,0,0l.88-1.72s0,0,0,0a0,0,0,0,1,0,0L19.59,11l.38.22,1-1.62s0,0,0,0,0,0,0,0l-1,1.65h0Z"/>
          <path class="cls-2" d="M18.16,10.56h0c-.15,0-.31-.07-.49-.09h0v0l.3-1.91,0,0s0,0,0,0l-.3,1.88a4,4,0,0,1,.43.09l.45-1.85s0,0,0,0a0,0,0,0,1,0,0l-.45,1.88Z"/>
          <path class="cls-2" d="M18.64,10.69h0l-.48-.13h0s0,0,0,0l.45-1.88s0,0,0,0a0,0,0,0,1,0,0l-.45,1.85.43.11.58-1.8,0,0s0,0,0,0l-.6,1.83S18.65,10.69,18.64,10.69Z"/>
          <path class="cls-2" d="M17.67,10.47h0l-.49-.06h0s0,0,0,0l.15-1.93a0,0,0,0,1,0,0s0,0,0,0l-.15,1.89.43.05.3-1.88,0,0s0,0,0,0l-.3,1.91A0,0,0,0,1,17.67,10.47Z"/>
          <path class="cls-2" d="M19.1,10.86h0l-.46-.17h0a0,0,0,0,1,0,0l.59-1.83,0,0s0,0,0,0l-.59,1.8.42.15L19.81,9s0,0,0,0,0,0,0,0l-.74,1.78h0Z"/>
          <path class="cls-2" d="M20.4,11.6h0c-.13-.09-.27-.19-.41-.27s0,0,0-.05l1-1.64s0,0,0,0,0,0,0,0l-1,1.62.36.24L21.5,10s0,0,.05,0a0,0,0,0,1,0,0l-1.13,1.56,0,0Z"/>
          <path class="cls-2" d="M21.16,12.24h0c-.13-.13-.26-.24-.37-.34s0,0,0,0L22,10.39s0,0,0,0a0,0,0,0,1,0,0l-1.23,1.44a4,4,0,0,1,.33.29l1.33-1.34h.05a0,0,0,0,1,0,0l-1.36,1.36Z"/>
          <path class="cls-2" d="M20.79,11.9h0l-.39-.3s0,0,0,0v0L21.5,10s0,0,.05,0a0,0,0,0,1,0,0l-1.11,1.54c.13.09.24.18.35.27L22,10.39s0,0,0,0a0,0,0,0,1,0,0l-1.25,1.46Z"/>
          <path class="cls-2" d="M17.18,10.41h0c-.16,0-.32,0-.49,0a0,0,0,0,1,0,0V8.43a0,0,0,0,1,0,0,0,0,0,0,1,0,0v1.89l.44,0,.15-1.89a0,0,0,0,1,0,0s0,0,0,0l-.15,1.92A0,0,0,0,1,17.18,10.41Z"/>
          <path class="cls-2" d="M19.55,11.08h0l-.45-.21s0,0,0,0L19.81,9s0,0,0,0,0,0,0,0l-.73,1.75.4.18.86-1.69s0,0,0,0a0,0,0,0,1,0,0l-.87,1.72h0Z"/>
          <path class="cls-2" d="M22.93,15.72h0a0,0,0,0,1,0,0c0-.18-.06-.33-.1-.49s0,0,0,0l1.87-.45s0,0,0,0,0,0,0,0l-1.85.45c0,.13.06.28.08.43l1.88-.3a.05.05,0,0,1,0,0s0,0,0,0l-1.91.3Z"/>
          <path class="cls-2" d="M20.43,24.07l0,0-.87-1.72s0,0,0,0l.43-.24a0,0,0,0,1,0,0h0l1,1.64s0,0,0,.05,0,0,0,0l-1-1.62-.38.21L20.46,24s0,0,0,0Z"/>
          <path class="cls-2" d="M21.53,23.39h0l-1.13-1.56a0,0,0,0,1,0-.05,3.56,3.56,0,0,0,.39-.3h.05l1.25,1.47a0,0,0,0,1,0,0h0l-1.23-1.44-.35.27,1.12,1.53a0,0,0,0,1,0,0S21.54,23.39,21.53,23.39Z"/>
          <path class="cls-2" d="M23,22.07s0,0,0,0l-1.47-1.25a0,0,0,0,1,0,0,0,0,0,0,0,0,0c.1-.11.19-.24.31-.39s0,0,0,0l1.56,1.14a0,0,0,0,1,0,0s0,0,0,0l-1.53-1.12c-.1.14-.19.25-.27.35L23,22a0,0,0,0,1,0,0S23,22.07,23,22.07Z"/>
          <path class="cls-2" d="M22.52,22.55s0,0,0,0l-1.36-1.36s0,0,0,0,0,0,0,0,.24-.26.33-.37h0L23,22a0,0,0,0,1,0,0,0,0,0,0,1,0,0L21.5,20.83q-.13.17-.3.33l1.34,1.34a0,0,0,0,1,0,0Z"/>
          <path class="cls-2" d="M22,23h0l-1.25-1.47a0,0,0,0,1,0,0c.12-.1.25-.21.37-.33a0,0,0,0,1,0,0l1.36,1.36a0,0,0,0,1,0,0,0,0,0,0,1,0,0L21.16,21.2l-.32.3,1.23,1.44a0,0,0,0,1,0,0Z"/>
          <path class="cls-2" d="M21,23.75h0l-1-1.65s0,0,0,0a3.27,3.27,0,0,0,.41-.28h.05l1.13,1.56a0,0,0,0,1,0,0,0,0,0,0,1,0,0l-1.12-1.54c-.11.08-.23.17-.36.25l1,1.61s0,0,0,.05Z"/>
          <path class="cls-2" d="M18.61,24.74s0,0,0,0l-.45-1.88a.05.05,0,0,1,0,0,3.47,3.47,0,0,0,.48-.13h0s0,0,0,0l.59,1.83s0,0,0,0,0,0,0,0l-.59-1.8-.42.12.44,1.84s0,0,0,0Z"/>
          <path class="cls-2" d="M19.84,24.34l0,0-.73-1.78s0,0,0,0a3.16,3.16,0,0,0,.45-.21h0v0L20.46,24s0,0,0,0a0,0,0,0,1,0,0l-.86-1.69-.39.19.72,1.75s0,0,0,0Z"/>
          <path class="cls-2" d="M18,24.87s0,0,0,0l-.3-1.91v0s0,0,0,0l.48-.1s0,0,0,0l.45,1.87s0,0,0,0,0,0,0,0l-.44-1.85-.43.08.3,1.88s0,0,0,0Z"/>
          <path class="cls-2" d="M19.23,24.56s0,0,0,0l-.6-1.83s0,0,0,0a4.05,4.05,0,0,0,.46-.17h0v0l.74,1.78s0,0,0,0a0,0,0,0,1,0,0l-.72-1.75-.41.15.58,1.8s0,0,0,0Z"/>
          <path class="cls-2" d="M24.53,19.26h0l-1.84-.59a.08.08,0,0,1,0,0,4.44,4.44,0,0,0,.13-.48l0,0h0l1.88.45s0,0,0,0l0,0-1.84-.45c0,.13-.07.28-.12.43l1.8.58s0,0,0,0S24.55,19.26,24.53,19.26Z"/>
          <path class="cls-2" d="M23.36,21.56h0l-1.56-1.14a0,0,0,0,1,0,0l.27-.41h0a0,0,0,0,1,0,0l1.65,1s0,0,0,0,0,0-.05,0l-1.61-1c-.08.12-.16.25-.25.36l1.54,1.12a0,0,0,0,1,0,0Z"/>
          <path class="cls-2" d="M24.84,18h0l-1.91-.3s0,0,0,0a4.84,4.84,0,0,0,.06-.5s0,0,0,0l1.92.15a0,0,0,0,1,0,.06L23,17.21a3.68,3.68,0,0,1-.06.43l1.88.3s0,0,0,0Z"/>
          <path class="cls-2" d="M24.71,18.64h0l-1.87-.45,0,0s0,0,0,0,.07-.31.1-.48c0,0,0,0,0,0h0l1.91.3s0,0,0,0a0,0,0,0,1,0,0L23,17.71c0,.15-.05.29-.08.42l1.85.45s0,0,0,0Z"/>
          <path class="cls-2" d="M8.45,17.36s0,0,0,0a0,0,0,0,1,0,0l1.89-.15c0-.14,0-.29,0-.44H8.44s0,0,0,0a0,0,0,0,1,0,0h1.92a0,0,0,0,1,0,0c0,.17,0,.34,0,.49s0,0,0,0l-1.92.15Z"/>
          <path class="cls-2" d="M24.91,17.36h0L23,17.21s0,0,0,0,0-.32,0-.49a0,0,0,0,1,0,0h1.93a0,0,0,0,1,0,0s0,0,0,0H23c0,.15,0,.3,0,.44l1.89.15a0,0,0,0,1,0,.06Z"/>
          <path class="cls-2" d="M24,20.46h0l-1.71-.88a0,0,0,0,1,0,0,3.78,3.78,0,0,0,.21-.45s0,0,0,0l1.78.73s0,0,0,0,0,0,0,0l-1.75-.73c-.06.15-.13.28-.19.4l1.69.86a0,0,0,0,1,0,0A0,0,0,0,1,24,20.46Z"/>
          <path class="cls-2" d="M23.72,21h0l-1.64-1s0,0,0,0,.17-.29.24-.43a0,0,0,0,1,0,0l1.72.87a0,0,0,0,1,0,0s0,0,0,0l-1.69-.86c-.06.12-.13.24-.21.38l1.62,1s0,0,0,0Z"/>
          <path class="cls-2" d="M24.31,19.87h0l-1.78-.74s0,0,0,0,.12-.3.17-.46c0,0,0,0,0,0h0l1.83.59s0,0,0,0,0,0,0,0l-1.81-.58c0,.14-.1.28-.15.41l1.75.72s0,0,0,0Z"/>
          <path class="cls-2" d="M17.33,24.94a0,0,0,0,1,0,0L17.15,23s0,0,0,0h0l.49-.06s0,0,0,0L18,24.83s0,0,0,0,0,0,0,0L17.65,23l-.44.06.15,1.89a0,0,0,0,1,0,0Z"/>
          <path class="cls-2" d="M9.33,20.46l0,0s0,0,0,0L11,19.54c-.06-.12-.12-.25-.18-.4l-1.75.73s0,0,0,0,0,0,0,0l1.78-.74h0s0,0,0,0,.15.32.21.45,0,0,0,0,0,0,0,0l-1.72.87Z"/>
          <path class="cls-2" d="M10.41,22.07h0a0,0,0,0,1,0,0l1.44-1.23c-.09-.1-.17-.22-.27-.35L10,21.56s0,0,0,0a0,0,0,0,1,0,0l1.56-1.14s0,0,0,0l.3.39a0,0,0,0,1,0,0l-1.46,1.25Z"/>
          <path class="cls-2" d="M9.06,19.87s0,0,0,0,0,0,0,0l1.75-.72-.15-.41-1.8.58s0,0,0,0a.05.05,0,0,1,0,0l1.83-.59h0v0c.06.17.11.32.17.46s0,0,0,0a0,0,0,0,1,0,0l-1.78.74Z"/>
          <path class="cls-2" d="M9.64,21h0s0,0,0,0l1.62-1L11,19.59l-1.69.86a0,0,0,0,1,0,0s0,0,0,0L11,19.52s0,0,0,0a3.94,3.94,0,0,0,.25.43v0a0,0,0,0,1,0,0L9.66,21Z"/>
          <path class="cls-2" d="M10.85,22.55h0a0,0,0,0,1,0-.05l1.34-1.33-.29-.33-1.44,1.23a0,0,0,0,1,0,0,0,0,0,0,1,0,0l1.46-1.25h0c.11.12.22.25.34.37a0,0,0,0,1,0,0l-1.36,1.36Z"/>
          <path class="cls-2" d="M8.83,19.26l0,0a.05.05,0,0,1,0,0l1.8-.58c0-.15-.08-.3-.11-.43l-1.85.45a0,0,0,0,1,0,0s0,0,0,0l1.87-.45h0v0c0,.13.08.31.13.48,0,0,0,0,0,0l-1.83.59Z"/>
          <path class="cls-2" d="M8.66,18.64a0,0,0,0,1,0,0s0,0,0,0l1.85-.45a4,4,0,0,1-.09-.43L8.53,18s0,0,0,0,0,0,0,0l1.91-.3h0v0c0,.18.06.34.09.49s0,0,0,0l-1.88.45Z"/>
          <path class="cls-2" d="M16.68,25a0,0,0,0,1,0,0V23a0,0,0,0,1,0,0l.5,0a0,0,0,0,1,0,0l.15,1.92a0,0,0,0,1,0,0,0,0,0,0,1,0,0L17.15,23l-.44,0v1.9A0,0,0,0,1,16.68,25Z"/>
          <path class="cls-2" d="M8.53,18s0,0,0,0,0,0,0,0l1.88-.3c0-.15,0-.3-.05-.43l-1.89.15s0,0,0,0a0,0,0,0,1,0,0l1.93-.15h0a0,0,0,0,0,0,0,4.66,4.66,0,0,0,.06.49s0,0,0,0L8.53,18Z"/>
          <path class="cls-2" d="M11.32,23h0a0,0,0,0,1,0-.05l1.23-1.44a4.28,4.28,0,0,1-.33-.29l-1.33,1.34a0,0,0,1,1,0-.05l1.36-1.35s0,0,.05,0,.24.23.36.33a0,0,0,0,1,0,0L11.35,23Z"/>
          <path class="cls-2" d="M10,21.56h0a0,0,0,0,1,0,0l1.53-1.12c-.08-.11-.16-.24-.24-.36L9.66,21s0,0,0,0,0,0,0,0l1.64-1s0,0,.05,0,.18.28.27.41,0,0,0,0,0,0,0,0L10,21.56Z"/>
          <path class="cls-2" d="M14.75,24.74h0s0,0,0,0l.45-1.84-.43-.12-.58,1.8s0,0,0,0,0,0,0,0l.59-1.83,0,0a3.61,3.61,0,0,0,.48.13s0,0,0,0l-.45,1.88S14.77,24.74,14.75,24.74Z"/>
          <path class="cls-2" d="M14.13,24.56h0s0,0,0,0l.59-1.8-.42-.15-.72,1.75a0,0,0,0,1-.06,0l.74-1.78,0,0h0a4.05,4.05,0,0,0,.46.17,0,0,0,0,1,0,0s0,0,0,0l-.59,1.83S14.14,24.56,14.13,24.56Z"/>
          <path class="cls-2" d="M11.83,23.39h0a0,0,0,0,1,0,0l1.11-1.54-.34-.26L11.35,23s0,0,0,0a0,0,0,0,1,0-.05l1.25-1.46h0l.39.3s0,0,0,.05l-1.13,1.55Z"/>
          <path class="cls-2" d="M16,24.94h0a0,0,0,0,1,0,0L16.15,23,15.72,23l-.3,1.88s0,0,0,0,0,0,0,0l.3-1.91s0,0,0,0l.49.06h0a0,0,0,0,1,0,0l-.15,1.92A0,0,0,0,1,16,24.94Z"/>
          <path class="cls-2" d="M12.93,24.07h0s0,0,0,0l.86-1.69-.38-.21-1,1.61s0,0,0,0,0,0,0,0l1-1.64,0,0s0,0,0,0l.43.24a0,0,0,0,1,0,0L13,24.05Z"/>
          <path class="cls-2" d="M16.68,25a0,0,0,0,1,0,0V23l-.44,0-.15,1.89a0,0,0,0,1-.06,0L16.15,23s0,0,0,0l.49,0a0,0,0,0,1,0,0v1.93A0,0,0,0,1,16.68,25Z"/>
          <path class="cls-2" d="M15.39,24.87h0s0,0,0,0l.3-1.88-.43-.08-.45,1.85s0,0,0,0,0,0,0,0l.45-1.87s0,0,0,0l.49.1h0v0l-.3,1.91A0,0,0,0,1,15.39,24.87Z"/>
          <path class="cls-2" d="M13.52,24.34h0a0,0,0,0,1,0,0l.73-1.75-.4-.19L13,24.05s0,0,0,0,0,0,0,0l.87-1.72h0l.45.21a0,0,0,0,1,0,0l-.74,1.78Z"/>
          <path class="cls-2" d="M12.37,23.75h0s0,0,0,0l1-1.62c-.12-.07-.24-.16-.36-.24l-1.11,1.53s0,0,0,0a0,0,0,0,1,0,0l1.13-1.56s0,0,0,0h0c.13.1.27.19.41.28a0,0,0,0,1,0,0l-1,1.64A0,0,0,0,1,12.37,23.75Z"/>
        </g>
        <path class="cls-2" d="M16.68,33.05A16.37,16.37,0,1,1,33.05,16.68,16.38,16.38,0,0,1,16.68,33.05Zm0-32.42A16.06,16.06,0,1,0,32.74,16.68,16.07,16.07,0,0,0,16.68.63Z"/>
        <path class="cls-2" d="M16.68,28.08a11.4,11.4,0,1,1,11.4-11.4A11.41,11.41,0,0,1,16.68,28.08Zm0-22.64A11.24,11.24,0,1,0,27.92,16.68,11.26,11.26,0,0,0,16.68,5.44Z"/>
        <path class="cls-2" d="M16.68,27.72a11,11,0,1,1,11-11A11.06,11.06,0,0,1,16.68,27.72ZM16.68,6A10.73,10.73,0,1,0,27.41,16.68,10.75,10.75,0,0,0,16.68,6Z"/>
        <path class="cls-2" d="M16.68,22.32a5.64,5.64,0,1,1,5.64-5.64A5.64,5.64,0,0,1,16.68,22.32Zm0-10.35a4.71,4.71,0,1,0,4.71,4.71A4.72,4.72,0,0,0,16.68,12Z"/>
        <path class="cls-2" d="M16.68,23.17a6.49,6.49,0,1,1,6.49-6.49A6.49,6.49,0,0,1,16.68,23.17Zm0-12.66a6.18,6.18,0,1,0,6.18,6.17A6.18,6.18,0,0,0,16.68,10.51Z"/>
        <path class="cls-2" d="M17.11,1.81h-.86a.15.15,0,0,1-.15-.15.16.16,0,0,1,.15-.16h.86a.16.16,0,0,1,.16.16A.16.16,0,0,1,17.11,1.81Zm.16,29.9a.16.16,0,0,0-.16-.15h-.86a.15.15,0,0,0-.15.15.16.16,0,0,0,.15.16h.86A.16.16,0,0,0,17.27,31.71ZM1.81,17.11v-.86a.16.16,0,0,0-.16-.15.15.15,0,0,0-.15.15v.86a.16.16,0,0,0,.15.16A.16.16,0,0,0,1.81,17.11Zm30.06,0v-.86a.16.16,0,0,0-.16-.15.15.15,0,0,0-.15.15v.86a.16.16,0,0,0,.15.16A.16.16,0,0,0,31.87,17.11ZM5.86,6.47l.61-.61a.16.16,0,0,0-.22-.22l-.61.61a.16.16,0,0,0,0,.22.17.17,0,0,0,.22,0ZM27.12,27.72l.6-.6a.16.16,0,1,0-.22-.22l-.6.6a.16.16,0,0,0,0,.22.15.15,0,0,0,.22,0Zm-20.65,0a.16.16,0,0,0,0-.22l-.61-.6a.16.16,0,1,0-.22.22l.61.6a.15.15,0,0,0,.22,0ZM27.72,6.47a.16.16,0,0,0,0-.22l-.6-.61a.16.16,0,1,0-.22.22l.6.61a.17.17,0,0,0,.22,0Z"/>
        <g>
          <rect class="cls-2" x="5.48" y="5.05" width="0.31" height="1.18" transform="translate(-2.34 5.64) rotate(-45)"/>
          <rect class="cls-2" x="16.53" y="0.47" width="0.31" height="1.18"/>
          <rect class="cls-2" x="16.53" y="31.71" width="0.31" height="1.18"/>
          <rect class="cls-2" x="0.47" y="16.53" width="1.18" height="0.31"/>
          <rect class="cls-2" x="31.71" y="16.53" width="1.18" height="0.31"/>
          <rect class="cls-2" x="27.57" y="27.14" width="0.31" height="1.18" transform="translate(-11.49 27.73) rotate(-45)"/>
          <rect class="cls-2" x="5.05" y="27.57" width="1.18" height="0.31" transform="translate(-17.96 12.11) rotate(-45.01)"/>
          <rect class="cls-2" x="27.14" y="5.48" width="1.18" height="0.31" transform="translate(4.13 21.25) rotate(-44.99)"/>
          <path class="cls-2" d="M2.8,11.09H2.74l-1.09-.46a.16.16,0,0,1-.09-.2.15.15,0,0,1,.2-.08l1.1.45a.16.16,0,0,1-.06.3Z"/>
          <path class="cls-2" d="M31.66,23H31.6l-1.09-.45a.16.16,0,0,1-.09-.2.17.17,0,0,1,.21-.09l1.09.45a.16.16,0,0,1,.08.21A.14.14,0,0,1,31.66,23Z"/>
          <path class="cls-2" d="M10.48,31.82l-.06,0a.14.14,0,0,1-.08-.2l.45-1.09a.15.15,0,0,1,.28.12l-.45,1.09A.15.15,0,0,1,10.48,31.82Z"/>
          <path class="cls-2" d="M22.43,3h-.05a.16.16,0,0,1-.09-.2l.45-1.09A.17.17,0,0,1,23,1.56a.16.16,0,0,1,.08.2l-.45,1.1A.16.16,0,0,1,22.43,3Z"/>
          <path class="cls-2" d="M1.7,23A.15.15,0,0,1,1.56,23a.17.17,0,0,1,.09-.21l1.09-.45a.16.16,0,0,1,.2.09.16.16,0,0,1-.08.2L1.76,23Z"/>
          <path class="cls-2" d="M30.57,11.09a.18.18,0,0,1-.15-.1.16.16,0,0,1,.09-.2l1.09-.45a.15.15,0,1,1,.12.28l-1.09.46Z"/>
          <path class="cls-2" d="M22.89,31.82a.18.18,0,0,1-.15-.1l-.45-1.09a.16.16,0,0,1,.09-.2.15.15,0,0,1,.2.08L23,31.6a.16.16,0,0,1-.08.2Z"/>
          <path class="cls-2" d="M10.93,3a.14.14,0,0,1-.14-.09l-.45-1.1a.15.15,0,0,1,.08-.2.16.16,0,0,1,.2.09l.45,1.09a.14.14,0,0,1-.08.2Z"/>
        </g>
        <g>
          <path class="cls-2" d="M6.81,14.83h0L6,14.68a.12.12,0,0,1-.1-.14.13.13,0,0,1,.14-.09l.78.16a.11.11,0,0,1,.09.13A.11.11,0,0,1,6.81,14.83Z"/>
          <path class="cls-2" d="M27.34,18.92h0l-.78-.16a.11.11,0,0,1-.09-.13.11.11,0,0,1,.13-.1l.78.16a.12.12,0,0,1,0,.23Z"/>
          <path class="cls-2" d="M14.56,27.45h0a.11.11,0,0,1-.09-.13l.16-.78a.11.11,0,0,1,.13-.09.11.11,0,0,1,.09.13l-.15.78A.11.11,0,0,1,14.56,27.45Z"/>
          <path class="cls-2" d="M18.65,6.92h0a.12.12,0,0,1-.09-.14L18.69,6a.12.12,0,0,1,.14-.1.13.13,0,0,1,.09.14l-.16.78A.12.12,0,0,1,18.65,6.92Z"/>
          <path class="cls-2" d="M7.65,22.84a.12.12,0,0,1-.1-.06.12.12,0,0,1,0-.16l.66-.44a.12.12,0,0,1,.16,0,.13.13,0,0,1,0,.17l-.66.44Z"/>
          <path class="cls-2" d="M25.06,11.2a.1.1,0,0,1-.1,0A.11.11,0,0,1,25,11l.66-.44a.12.12,0,0,1,.16,0,.11.11,0,0,1,0,.16l-.66.44A.07.07,0,0,1,25.06,11.2Z"/>
          <path class="cls-2" d="M22.72,25.83a.12.12,0,0,1-.1,0l-.44-.66a.12.12,0,0,1,0-.16.12.12,0,0,1,.16,0l.45.66a.11.11,0,0,1,0,.16A.07.07,0,0,1,22.72,25.83Z"/>
          <path class="cls-2" d="M11.09,8.43a.11.11,0,0,1-.1-.06l-.44-.66a.12.12,0,0,1,0-.16.11.11,0,0,1,.16,0l.44.66a.11.11,0,0,1,0,.16Z"/>
          <path class="cls-2" d="M6,18.92a.13.13,0,0,1-.12-.09.12.12,0,0,1,.1-.14l.77-.16a.12.12,0,0,1,.14.1.11.11,0,0,1-.09.13l-.78.16Z"/>
          <path class="cls-2" d="M26.56,14.83a.11.11,0,0,1-.11-.09.11.11,0,0,1,.09-.13l.78-.16a.11.11,0,0,1,.13.09.12.12,0,0,1-.09.14l-.78.15Z"/>
          <path class="cls-2" d="M18.8,27.45a.11.11,0,0,1-.11-.09l-.16-.78a.11.11,0,0,1,.1-.13.11.11,0,0,1,.13.09l.16.78a.11.11,0,0,1-.09.13Z"/>
          <path class="cls-2" d="M14.72,6.92a.13.13,0,0,1-.12-.09l-.15-.78a.13.13,0,0,1,.09-.14.13.13,0,0,1,.14.1l.15.77a.12.12,0,0,1-.09.14Z"/>
          <path class="cls-2" d="M10.65,25.83a.1.1,0,0,1-.07,0,.12.12,0,0,1,0-.16L11,25a.12.12,0,0,1,.16,0,.11.11,0,0,1,0,.16l-.44.66A.12.12,0,0,1,10.65,25.83Z"/>
          <path class="cls-2" d="M22.28,8.43l-.07,0a.12.12,0,0,1,0-.16l.44-.66a.12.12,0,1,1,.2.12l-.45.66A.1.1,0,0,1,22.28,8.43Z"/>
          <path class="cls-2" d="M25.72,22.84l-.07,0L25,22.38a.14.14,0,0,1,0-.17.12.12,0,0,1,.16,0l.66.44a.11.11,0,0,1,0,.16A.11.11,0,0,1,25.72,22.84Z"/>
          <path class="cls-2" d="M8.31,11.2a.07.07,0,0,1-.06,0l-.66-.44a.11.11,0,0,1,0-.16.12.12,0,0,1,.16,0l.66.44a.12.12,0,0,1,0,.16A.11.11,0,0,1,8.31,11.2Z"/>
        </g>
        <g>
          <g>
            <path class="cls-2" d="M26.36,7.5l.12-.87L26,7.11,25.86,7l.78-.78.07.07-.1.84.47-.48.13.14-.79.79Z"/>
            <path class="cls-2" d="M25.62,7.61l-.18.18.26.26-.12.11-.26-.25-.23.23.35.35-.12.13-.5-.49.79-.79.49.5L26,8Z"/>
          </g>
          <g>
            <path class="cls-2" d="M7.44,26.45l-.18.07a.5.5,0,0,0-.1-.22q-.12-.12-.21,0a.16.16,0,0,0,0,.1.68.68,0,0,0,0,.2,1.88,1.88,0,0,1,0,.2.23.23,0,0,1,0,.11.19.19,0,0,1-.07.11.25.25,0,0,1-.21.08A.31.31,0,0,1,6.45,27a.45.45,0,0,1-.15-.25l.16-.08a.35.35,0,0,0,.1.21.16.16,0,0,0,.1.05.1.1,0,0,0,.09,0s0-.14,0-.29a1,1,0,0,1,0-.18.51.51,0,0,1,0-.13.44.44,0,0,1,.08-.11A.26.26,0,0,1,7,26.06a.43.43,0,0,1,.27.13A.66.66,0,0,1,7.44,26.45Z"/>
            <path class="cls-2" d="M8.12,24.84l.06.06-.33.66.66-.33.06.06L8,26.34l-.14-.15.32-.61-.63.31-.06-.06.32-.63-.62.32-.15-.14Z"/>
          </g>
          <g>
            <path class="cls-2" d="M7.46,7.06l-.88-.12.49.49-.13.13-.79-.78.07-.07.84.1-.47-.47.13-.13L7.51,7Z"/>
            <path class="cls-2" d="M8.55,8.15l-.06.06-.66-.33.33.66L8.1,8.6l-1-.53.14-.15.62.33L7.5,7.62l.06-.07.63.32-.32-.62L8,7.11Z"/>
          </g>
          <g>
            <path class="cls-2" d="M26.45,26l.07.18a.41.41,0,0,0-.22.1q-.12.12,0,.21a.15.15,0,0,0,.1,0,.41.41,0,0,0,.2,0,.8.8,0,0,1,.2-.05l.11,0a.41.41,0,0,1,.11.07.27.27,0,0,1,.08.22A.33.33,0,0,1,27,27a.45.45,0,0,1-.25.15L26.64,27a.36.36,0,0,0,.2-.11.14.14,0,0,0,.05-.09.13.13,0,0,0,0-.1s-.14,0-.29,0a.54.54,0,0,1-.18,0,.19.19,0,0,1-.13,0,.21.21,0,0,1-.11-.08.25.25,0,0,1-.08-.23.4.4,0,0,1,.13-.26A.55.55,0,0,1,26.45,26Z"/>
            <path class="cls-2" d="M25.83,25.7l-.19-.18-.25.25-.12-.12.26-.25-.24-.24-.35.36-.13-.13.5-.49.78.78-.5.5-.12-.12Z"/>
          </g>
        </g>
      </g>
      <g>
        <polygon class="cls-3" points="17.34 16.1 10.64 10.61 16.74 16.71 17.34 16.1"/>
        <polygon class="cls-3" points="22.84 22.8 16.14 17.31 16.74 16.71 22.84 22.8"/>
        <polygon class="cls-3" points="22.84 10.61 17.34 17.31 16.74 16.71 22.84 10.61"/>
        <polygon class="cls-3" points="16.14 16.1 10.64 22.8 16.74 16.71 16.14 16.1"/>
        <polygon class="cls-4" points="10.64 10.61 16.14 17.31 16.74 16.71 10.64 10.61"/>
        <polygon class="cls-4" points="17.34 16.1 22.84 22.8 16.74 16.71 17.34 16.1"/>
        <polygon class="cls-4" points="16.14 16.1 22.84 10.61 16.74 16.71 16.14 16.1"/>
        <polygon class="cls-4" points="10.64 22.8 17.34 17.31 16.74 16.71 10.64 22.8"/>
      </g>
      <g>
        <polygon class="cls-4" points="16.68 5.41 15.56 16.68 16.68 16.68 16.68 5.41"/>
        <polygon class="cls-4" points="16.68 27.95 17.8 16.68 16.68 16.68 16.68 27.95"/>
        <polygon class="cls-4" points="5.41 16.68 16.68 17.8 16.68 16.68 5.41 16.68"/>
        <polygon class="cls-4" points="27.95 16.68 16.68 15.56 16.68 16.68 27.95 16.68"/>
        <polygon class="cls-3" points="15.56 16.68 16.68 27.95 16.68 16.68 15.56 16.68"/>
        <polygon class="cls-3" points="16.68 16.68 17.8 16.68 16.68 5.41 16.68 16.68"/>
        <polygon class="cls-3" points="16.68 17.8 27.95 16.68 16.68 16.68 16.68 17.8"/>
        <polygon class="cls-3" points="16.68 16.68 16.68 15.56 5.41 16.68 16.68 16.68"/>
      </g>
    </g>
  </g>
</svg>
