<svg id="Layer_1" data-name="Layer 1" xmlns="http://www.w3.org/2000/svg" viewBox="0 0 86.07 39.97">
  <defs>
    <style>
      .cls-1 {
        fill: #f5fffe;
      }

      .cls-2 {
        fill: #ffd255;
      }

      .cls-3 {
        fill: none;
        stroke: #515151;
        stroke-linecap: round;
        stroke-linejoin: round;
        stroke-width: 2px;
      }
    </style>
  </defs>
  <title>info</title>
  <g>
    <g>
      <g>
        <rect class="cls-1" y="12.17" width="60.5" height="24.86" rx="11.72"/>
        <rect class="cls-1" x="25.57" y="2.41" width="60.5" height="24.86" rx="11.72"/>
      </g>
      <rect class="cls-2" x="20.73" width="49.34" height="39.97" rx="7.87"/>
    </g>
    <g>
      <path class="cls-3" d="M46.82,5.13A15.07,15.07,0,1,1,31.75,20.2,15.07,15.07,0,0,1,46.82,5.13Z"/>
      <line class="cls-3" x1="46.82" y1="5.13" x2="46.82" y2="35.25"/>
      <line class="cls-3" x1="31.76" y1="20.2" x2="61.88" y2="20.2"/>
      <path class="cls-3" d="M57.47,9.71c-2.3,2.07-6.22,3.44-10.66,3.44s-8.34-1.36-10.64-3.43"/>
      <path class="cls-3" d="M57.47,30.69c-2.3-2.08-6.22-3.45-10.66-3.45s-8.34,1.36-10.64,3.43"/>
      <path class="cls-3" d="M46.68,35.09a18.14,18.14,0,0,1-7.53-14.86,18.12,18.12,0,0,1,7.5-14.85"/>
      <path class="cls-3" d="M47.18,35.09a18.15,18.15,0,0,0,7.54-14.86A18.13,18.13,0,0,0,47.21,5.38"/>
    </g>
  </g>
</svg>
