<svg id="Layer_1" data-name="Layer 1" xmlns="http://www.w3.org/2000/svg" xmlns:xlink="http://www.w3.org/1999/xlink" viewBox="0 0 984.05 425.11">
  <defs>
    <style>
      .cls-1, .cls-88 {
        fill: none;
      }

      .cls-2, .cls-6 {
        opacity: 0.5;
      }

      .cls-3 {
        fill: url(#linear-gradient);
      }

      .cls-4 {
        fill: url(#linear-gradient-2);
      }

      .cls-5 {
        fill: #2588c9;
        opacity: 0.25;
      }

      .cls-6 {
        fill: #fcf3f7;
      }

      .cls-7 {
        fill: #7e5a4b;
      }

      .cls-8 {
        fill: #b5937c;
      }

      .cls-9 {
        fill: #e3c199;
      }

      .cls-10 {
        fill: #ffcb4b;
      }

      .cls-11 {
        fill: #978f8b;
      }

      .cls-12 {
        fill: #84a3a7;
      }

      .cls-13 {
        fill: #786e68;
      }

      .cls-14 {
        fill: #b1adaa;
      }

      .cls-15 {
        fill: #9e9997;
      }

      .cls-16 {
        clip-path: url(#clip-path);
      }

      .cls-17 {
        fill: #997763;
      }

      .cls-18 {
        fill: #d35f56;
      }

      .cls-19 {
        fill: #f1ebd5;
      }

      .cls-20 {
        fill: #f3f9f9;
      }

      .cls-21 {
        fill: #ffa216;
      }

      .cls-22 {
        fill: #da8274;
      }

      .cls-23 {
        fill: #b7c9cd;
      }

      .cls-24 {
        fill: #5b473d;
      }

      .cls-25 {
        fill: #837564;
      }

      .cls-26 {
        fill: #a4997c;
      }

      .cls-27 {
        fill: #b7a13d;
      }

      .cls-28 {
        fill: #6e7271;
      }

      .cls-29 {
        fill: #608187;
      }

      .cls-30 {
        fill: #575754;
      }

      .cls-31 {
        fill: #808989;
      }

      .cls-32 {
        fill: #737a7b;
      }

      .cls-33 {
        fill: #aebaac;
      }

      .cls-34 {
        fill: #6f5e50;
      }

      .cls-35 {
        fill: #77999e;
      }

      .cls-36 {
        fill: #984b46;
      }

      .cls-37 {
        fill: #835e1d;
      }

      .cls-38 {
        fill: #6f4b17;
      }

      .cls-39 {
        fill: #b78012;
      }

      .cls-40 {
        fill: #ae9533;
      }

      .cls-41 {
        fill: #afc5c9;
      }

      .cls-42 {
        fill: #939f9f;
      }

      .cls-43 {
        fill: #89a9ae;
      }

      .cls-44 {
        fill: #a5bcc1;
      }

      .cls-45 {
        fill: #524239;
      }

      .cls-46 {
        fill: #748081;
      }

      .cls-47 {
        fill: #78949b;
      }

      .cls-48 {
        fill: #3b342e;
      }

      .cls-49 {
        fill: #536669;
      }

      .cls-50 {
        fill: #8ca298;
      }

      .cls-51 {
        fill: #66807b;
      }

      .cls-52 {
        fill: #94afb5;
      }

      .cls-53 {
        fill: #6b8a92;
      }

      .cls-54 {
        fill: #4b5f62;
      }

      .cls-55 {
        fill: #404f51;
      }

      .cls-56 {
        fill: #593432;
      }

      .cls-57 {
        fill: #7c423d;
      }

      .cls-58 {
        fill: #68787a;
      }

      .cls-59 {
        fill: #805a53;
      }

      .cls-60 {
        fill: #faf8f0;
      }

      .cls-61 {
        fill: #636a6a;
      }

      .cls-62 {
        fill: #485456;
      }

      .cls-63 {
        fill: #5f5d51;
      }

      .cls-64 {
        fill: #777a64;
      }

      .cls-65 {
        fill: #504a41;
      }

      .cls-66 {
        fill: #3f4544;
      }

      .cls-67 {
        fill: #45676e;
      }

      .cls-68 {
        fill: #567a80;
      }

      .cls-69 {
        fill: #848031;
      }

      .cls-70 {
        fill: #6f3b39;
      }

      .cls-71 {
        fill: #c2e5e7;
      }

      .cls-72 {
        fill: #beaf5b;
      }

      .cls-73 {
        fill: #6a625b;
      }

      .cls-74 {
        fill: #c7e9eb;
      }

      .cls-75 {
        fill: #c9d6d9;
      }

      .cls-76 {
        fill: #897267;
      }

      .cls-77 {
        fill: #9ebabf;
      }

      .cls-78 {
        fill: #dabe8f;
      }

      .cls-79 {
        fill: #be9b66;
      }

      .cls-80 {
        fill: #c1ab7b;
      }

      .cls-81 {
        fill: #dbc65a;
      }

      .cls-82 {
        fill: #dbb335;
      }

      .cls-83 {
        fill: #ac905a;
      }

      .cls-84 {
        fill: #f8f3db;
      }

      .cls-85 {
        fill: #ffe066;
      }

      .cls-86 {
        fill: #f1daa8;
      }

      .cls-87 {
        fill: #d1c28f;
      }

      .cls-88 {
        stroke: #515151;
        stroke-miterlimit: 10;
        stroke-width: 1.01px;
      }

      .cls-89 {
        fill: #d0f0ef;
      }

      .cls-90 {
        fill: #f5fffe;
      }
    </style>
    <linearGradient id="linear-gradient" x1="15.51" y1="203.02" x2="850.83" y2="203.02" gradientUnits="userSpaceOnUse">
      <stop offset="0.1" stop-color="#fff" stop-opacity="0"/>
      <stop offset="0.51" stop-color="#fff"/>
      <stop offset="1" stop-color="#fff" stop-opacity="0"/>
      <stop offset="1" stop-color="#fff"/>
    </linearGradient>
    <linearGradient id="linear-gradient-2" x1="246.12" y1="203.02" x2="1019.59" y2="203.02" xlink:href="#linear-gradient"/>
    <clipPath id="clip-path">
      <path class="cls-1" d="M392.37,185.88l-1.43.54,15.35,9.42a134.07,134.07,0,0,0-13.92-10"/>
    </clipPath>
  </defs>
  <title>news-header</title>
  <g class="cls-2">
    <polygon class="cls-3" points="850.83 406.04 720.83 406.04 15.51 0 145.5 0 850.83 406.04"/>
    <polygon class="cls-4" points="1019.59 406.04 951.45 406.04 246.12 0 314.26 0 1019.59 406.04"/>
  </g>
  <g>
    <path class="cls-5" d="M532,334.71c0-7-19.24-12.94-45.05-14.47L471.6,307.35s-4.85,3.74-4.15,12.58c-29.25.8-52,7.11-52,14.78,0,8.2,26.1,14.86,58.29,14.86,4,0,7.85-.1,11.6-.3,18.49,12.55,46.11,8.34,46.11,8.34l-15.19-12.76C526,342.19,532,338.63,532,334.71Z"/>
    <path class="cls-6" d="M381.05,347.3h0c9.5.25,15.48,2.83,15.48,5.95,0,3.28-8.28,5.94-18.5,5.94s-18.5-2.66-18.5-5.94a2.81,2.81,0,0,1,1.12-2c-1.74,1.05-2.82,2.23-2.82,3.51,0,4.13,10.4,7.48,23.22,7.48s23.23-3.35,23.23-7.48S393.88,347.3,381.05,347.3Z"/>
    <path class="cls-6" d="M408.27,354.79a4.67,4.67,0,0,1,.08.52c0,6-14.36,10.93-32.07,10.93s-32.07-4.9-32.07-10.93c0-3.53,4.92-6.65,12.52-8.65-10.09,2.07-16.87,5.87-16.87,10.22,0,6.58,15.44,11.91,34.48,11.91s34.49-5.33,34.49-11.91A4.58,4.58,0,0,0,408.27,354.79Z"/>
    <path class="cls-6" d="M378.22,350.61l.16.1a1.18,1.18,0,0,1,.47.8.77.77,0,0,1-.12.33.19.19,0,0,1,0,.08c0,.7-2,1.27-4.42,1.27s-4.41-.57-4.41-1.27a.34.34,0,0,1,.05-.14l-.08-.06a.37.37,0,0,1-.17-.29.42.42,0,0,1,.13-.22,3.71,3.71,0,0,1,.82-.53c.33-.15.68-.23,1-.35-1.95.33-3.31,1-3.31,1.8,0,1.11,2.66,2,5.94,2s5.94-.9,5.94-2C380.28,351.52,379.47,351,378.22,350.61Z"/>
    <g>
      <path class="cls-7" d="M480.89,154.16c-38.26,6.46-77.34,13.2-111.32,31.93-6.35,3.5-16.13,10.44-12.29,16.57,15.87,25.36,43.09,42.44,72.12,49.67s59.77,5.25,88.9-1.59c8.57-2,17.27-4.55,24.33-9.81,4.59-3.43,8.3-7.88,12.5-11.78a68.14,68.14,0,0,1,34.58-17.33c-.28,0-.11.54.17.52s.46-.3.6-.55l16.24-30.53-39-35.4-86.83,8.3"/>
      <path class="cls-8" d="M567.72,145.86l-86.83,8.3c-38.26,6.46-77.34,13.2-111.32,31.93-4.8,2.65-11.55,7.27-12.9,12,2,6.31,9.42,10.93,14.75,13.78a94.26,94.26,0,0,0,25.62,9c16.58,3.41,33.89,2.9,50.54-.08C469,205.47,498,201.84,523.8,205.59c2-4.66,4.1-9.32,7.48-13.21,5.27-6.07,12.73-7.46,20.38-8,18.34-1.41,36.63-3.36,55-3l0,0-39-35.4"/>
      <path class="cls-9" d="M567.72,145.86l-25,2.39c8,10,17.29,20,26.16,29.23.54.57-9.91,1.12-10.55,1.58-1.27.92-4.2,3.66-2.93,5,11-.83,40.28-2.94,51.29-2.74l0,0-39-35.4"/>
      <path class="cls-10" d="M558.16,203.58c-1.22,7.82-7.43,14.16-13.88,14.16s-10.67-6.34-9.45-14.16,7.44-14.15,13.88-14.15,10.68,6.33,9.45,14.15"/>
      <path class="cls-11" d="M556.06,203.58c-1,6.41-6.1,11.6-11.38,11.6s-8.75-5.19-7.74-11.6S543,192,548.31,192s8.75,5.19,7.75,11.6"/>
      <path class="cls-12" d="M536.94,203.58a11.58,11.58,0,0,0,1.35,7.81,7.17,7.17,0,0,0,.94.23c5.28,0,10.37-5.19,11.38-11.6a11.59,11.59,0,0,0-1.36-7.8,5.89,5.89,0,0,0-.94-.24c-5.28,0-10.37,5.19-11.37,11.6"/>
      <path class="cls-10" d="M453.21,238.84c-1.85,6.84-8.61,12.38-15.1,12.38s-10.26-5.54-8.41-12.38,8.61-12.38,15.11-12.38,10.25,5.54,8.4,12.38"/>
      <path class="cls-11" d="M451,238.84c-1.54,5.91-7.07,10.71-12.35,10.71s-8.31-4.8-6.78-10.71,7.07-10.7,12.35-10.7,8.31,4.79,6.78,10.7"/>
      <path class="cls-13" d="M447.58,233.94a10,10,0,0,0-.05-5,7.14,7.14,0,0,0-3.29-.79c-5.28,0-10.81,4.79-12.34,10.7a10.64,10.64,0,0,0-.2,2.48,5.8,5.8,0,0,0,4.94,2.64c4.65,0,9.55-4.48,10.94-10"/>
      <path class="cls-13" d="M437.23,238.34a7.68,7.68,0,0,0-3.33,2c-.81,1-.8,2.61.34,3.1a3,3,0,0,0,1.45.14,12.57,12.57,0,0,0,2.7-.55,5.49,5.49,0,0,0,2.33-1.34,2.13,2.13,0,0,0,.55-2.31c-.61-1.22-2.49-1.17-4-.95l0-.1"/>
      <path class="cls-10" d="M426.2,237.16c-1.21,4.47-5.49,7.79-9.56,7.41s-6.39-4.3-5.18-8.77S417,228,421,228.39s6.38,4.3,5.17,8.77"/>
      <path class="cls-11" d="M424.34,237c-.92,3.56-4.14,6.22-7.19,5.94s-4.76-3.4-3.83-7,4.15-6.22,7.19-5.94,4.76,3.39,3.83,7"/>
      <path class="cls-12" d="M422.39,233.79a6.63,6.63,0,0,0,0-3.1,4.31,4.31,0,0,0-1.9-.66c-3-.28-6.26,2.38-7.19,5.94a6.65,6.65,0,0,0-.13,1.52,3.66,3.66,0,0,0,2.83,1.89c2.68.25,5.54-2.26,6.37-5.59"/>
      <path class="cls-7" d="M457,188.08a147.36,147.36,0,0,0-39.89,3.45c-3.4.77-6.87,1.71-9.62,3.85-1.82,1.43-3.33,3.76-2.65,6,.49,1.57,1.92,2.62,3.31,3.5,14.93,9.45,39.55,11.08,56.11,4.94,1.5-3-2.55-6.81-1.78-10.07.61-2.59,1-5.36.1-7.88s-2.92-3.62-5.58-3.76"/>
      <path class="cls-14" d="M518.24,226.2l43.58,78.62a4,4,0,0,1-3.31,5.89c-11.14.23-34.81-1.47-53.67-17.86-25.59-22.23-42-58.53-42-58.53s-2.4-5.39,3.76-5.41,51.64-2.71,51.64-2.71"/>
      <path class="cls-15" d="M526.75,241.55H514.48l20.18,34.89h9.11s2.21-.18,4.37,3.71l-21.39-38.6"/>
      <path class="cls-10" d="M579.6,200c-.84,5.36-5.11,9.71-9.53,9.71s-7.32-4.35-6.48-9.71,5.1-9.71,9.52-9.71,7.32,4.35,6.49,9.71"/>
      <path class="cls-11" d="M577.87,200c-.66,4.21-4,7.62-7.47,7.62s-5.74-3.41-5.09-7.62,4-7.62,7.48-7.62,5.74,3.41,5.08,7.62"/>
      <path class="cls-12" d="M565.31,200a7.6,7.6,0,0,0,.9,5.13,3.88,3.88,0,0,0,.61.15c3.47,0,6.81-3.41,7.47-7.62a7.59,7.59,0,0,0-.89-5.12,4.57,4.57,0,0,0-.61-.16c-3.47,0-6.82,3.41-7.48,7.62"/>
      <g class="cls-16">
        <rect class="cls-17" x="390.94" y="185.88" width="15.36" height="9.96"/>
      </g>
      <path class="cls-10" d="M446.75,220.53c-.44-.35-2.72,0-3.33,0H440c-2.12,0-4.24,0-6.36-.07a210.51,210.51,0,0,1-31.81-2.69,73.83,73.83,0,0,1-18.44-5.27,24.43,24.43,0,0,1-8.68-6.1,12.34,12.34,0,0,1-1.8-2.81c-1-2.19-1.55-5.24-.42-7.38,1.28-2.42,3.9-4.25,6.07-5.77a114.11,114.11,0,0,1,16.91-9.35c10.84-5.11,22-9.5,33.26-13.65l7.52-5.83s-72.61,15.7-79.55,36.46v.68h-21l-2.08,4.27,27.43,5.18c44.68,23.65,76.74,18.28,86.52,14.38,1.21-.48-.83-2.09-.83-2.09"/>
      <path class="cls-13" d="M559.66,155c-1.82-6.62-7.69-11.28-13.68-14.61-20.16-11.22-44.47-12.38-67.37-9.57a217.21,217.21,0,0,0-31.95,6.4c-5.71,1.6-10.94,3.33-13,8.91a84.58,84.58,0,0,0-4,41.54,45.24,45.24,0,0,0,5.12,15.7,5,5,0,0,1,2.14,1.4c1.38,1.6,4.51,2.1,7.42,2.33,4.11.33,8.31.54,12.43.57,3.18,0,6.34-.13,9.49-.37A67.49,67.49,0,0,1,485,201.64c11.61-1.59,23.38-1.16,35.08-.66,5.44-12.72,18.92-21.32,32.74-20.59,4.79-7.39,9.12-16.88,6.8-25.37"/>
      <path class="cls-12" d="M470.88,167.9a90.17,90.17,0,0,1-37.56-20.42,84.75,84.75,0,0,0-3.63,40.21,53.88,53.88,0,0,0,2.74,10.7A23.05,23.05,0,0,0,444.74,203c7.33.47,14.53-1.91,21.34-4.69s13.51-6,20.72-7.37c5.79-1.09,11.73-1,17.56-1.77s11.81-2.72,15.8-7,5.22-11.56,1.49-16.11a88.36,88.36,0,0,1-50.77,1.89"/>
      <path class="cls-10" d="M446.13,204.7a35.91,35.91,0,0,1-5.16-.36,22.27,22.27,0,0,1-8.39-2.76c-2.57-1.53-3.52-4.89-3.36-7.79,0-.81.2-2.27,1-2.67.82,2.55.76,5.68,3.23,7.4a18.09,18.09,0,0,0,8,2.81c9.17,1.32,18.65-1.56,25.9-4.21,2.09-.76,4.17-1.57,6.25-2.37,6.36-2.46,12.94-5,19.81-6.28,2.12-.39,4.27-.65,6.42-.93a60.94,60.94,0,0,0,10.68-2c6-1.87,10.33-5.65,11.58-10.12a6.11,6.11,0,0,0,.15-3.25l2.92-.81a9.17,9.17,0,0,1-.14,4.88c-1.54,5.47-6.62,10-13.61,12.19a64.61,64.61,0,0,1-11.21,2.09c-2.09.26-4.17.52-6.24.9-6.59,1.22-13,3.71-19.27,6.12-2.09.82-4.19,1.63-6.31,2.4-6.24,2.28-14.11,4.72-22.2,4.72"/>
      <path class="cls-18" d="M577.67,122.09a79.73,79.73,0,0,0-9-35.13A79.82,79.82,0,0,0,558.4,71c-20.47-7-45.86-11.57-74.1-11.57a187.79,187.79,0,0,0-74,15.09A53,53,0,0,1,415.82,85c3.94,10.25,5.2,21.72,5.34,32.64.23,18.38-2.4,37.25-9.33,54.27,23.68,4.67,52.26,6.17,81.4,4.15,31.86-2.21,58.95-9.56,79-19.68a110.25,110.25,0,0,0,5.48-34.25"/>
      <path class="cls-19" d="M442.55,127.32c-.38-20-5.82-43.51-21.92-56.83-39.5,14.17-66.58,39.63-66.58,61.91,0,22.65,32.24,37.1,75.47,42.32a85.49,85.49,0,0,0,13-47.4"/>
      <path class="cls-19" d="M544.38,66.79c12.5,16.74,20.22,36.6,19.39,57.94-.55,14.1-4.59,27.39-10.8,39.69,34.83-12,56.13-31.41,56.13-51.11,0-17.39-25.54-36.4-64.72-46.52"/>
      <path class="cls-20" d="M462.9,128.66c-6.4-6.75-8.75-18-5.83-26.83,1.3-3.92,4.17-7.14,7.31-9.81,15.93-13.55,41.31-14.38,58.09-1.91a31.52,31.52,0,0,1,10.35,12.23c2.18,4.93,2.58,10.81.31,15.71-3.13,6.74-10.25,11.11-17.22,13.72.8,3.7,1.26,8.26,2.06,12-3.45,2.52-7.91,3.13-12.17,3.5q-8.73.78-17.5.7h-.89c-2.37,0-4.79,0-6.66-1.43a52.14,52.14,0,0,1,1.91-11,23.64,23.64,0,0,1-19.76-6.83m25.43-32.72c-3.25-.54-6.37,1.34-9,3.37a19.24,19.24,0,0,0-5.78,6.5c-1.27,2.64-1.44,6,.23,8.38a8.43,8.43,0,0,0,2.87,2.5c16.82,9.37,26.12-18.33,11.64-20.75m28.43,12.9a16.62,16.62,0,0,0-1.72-7.1c-1.22-2.13-3.55-3.79-6-3.53a6.43,6.43,0,0,0-4.78,3.65,15.94,15.94,0,0,0-1.4,6.07c-.2,2.48-.17,5.2,1.4,7.13,1.91,2.33,5.67,2.55,8.23,1a10.3,10.3,0,0,0,4.35-7.6l-.09.42m-19.9,13.32a13.36,13.36,0,0,0-3.6,6.18,1.83,1.83,0,0,0,.23,1.8,1.63,1.63,0,0,0,1.62.13,4.84,4.84,0,0,0,1.47-8.31l.28.2m3.73-.44a20.22,20.22,0,0,0,1.88,7.48c1.82,0,2.84-2.4,2.15-4.09s-2.38-2.72-4-3.63l-.06.24"/>
      <path class="cls-14" d="M584.34,84.79c-7.58-.57,11.43-11.19,19-11.59.72,0,1.59.08,1.86.73a1.9,1.9,0,0,1-.09,1.28Q602,85,598.87,94.73s-6.54-9.34-14.53-9.94"/>
      <path class="cls-11" d="M585.14,142.07c-9.49,3.49,17.72,11.35,27.28,8.05a1,1,0,0,0,.59-.39c.18-.36-.11-.76-.39-1-2-2-4.36-3.45-6.48-5.24a29.36,29.36,0,0,1-7.31-9.25s-9.15,6.2-13.69,7.87"/>
      <path class="cls-9" d="M520.12,201l3.68,4.61-.8-.08a178.2,178.2,0,0,0-31.5-.53c-6.67.51-12.87,2.06-19.33,3.54-8.16,1.87-16.41,7.5-22.73,12.81a3.67,3.67,0,0,1-1.42.86,1.2,1.2,0,0,1-1.4-.64,1.44,1.44,0,0,1,0-.77c.51-2.37,2.59-4,4.58-5.41,8.31-5.74,18.2-11,28.19-12.92A128.84,128.84,0,0,1,520.12,201"/>
      <path class="cls-21" d="M393.86,176a112.8,112.8,0,0,0-19.72,9.65,164.31,164.31,0,0,1,19.87-9c-.06-.21-.11-.42-.15-.62"/>
      <path class="cls-22" d="M424,70.49c65.44-18.94,121.55-1.87,121.55-1.87l5.27,9.77c-39-7.2-78.66-8-117.44.46L424,70.49"/>
      <path class="cls-23" d="M558.56,310.71h0m-39.8-8.55a60.65,60.65,0,0,0,9.1,4.6,53.34,53.34,0,0,0,19.55,3.67l1.64,0a82.8,82.8,0,0,1-30.29-8.25m-89.52-49.87.16,0-.16,0m-.16,0h0m-.15,0h0m113.43-11.09h0m.1-.07-.05,0,.05,0m.17-.12-.14.1.14-.1m47.08-29.11h0c-.27,0-.11.52.16.52h0c-.27,0-.43-.48-.16-.52m-255.52-8.66h0L361,208.23h0l-26.85-5.07M604.94,184.6h0c-.48.91-1,1.82-1.45,2.73.49-.91,1-1.82,1.45-2.73m1.51-2.82h0l-1.38,2.6h0c.46-.87.92-1.74,1.39-2.6"/>
      <path class="cls-24" d="M361,208.23h0m187.61-23.61a44.24,44.24,0,0,0-5.19.87c-1.09.37-2.17.8-3.23,1.27a31.58,31.58,0,0,0-4.23,2.3c.84-.42,1.68-.81,2.53-1.17a68.22,68.22,0,0,1,10.12-3.27m-88.72,66.6a103.4,103.4,0,0,1-10.55-.55,103.67,103.67,0,0,1,10.55-.46,100.89,100.89,0,0,1,10.55.55,100.51,100.51,0,0,1-10.55.46m-34.08-7.42a3.23,3.23,0,0,1-1.74-.51,3.28,3.28,0,0,1,3.48,0,3.23,3.23,0,0,1-1.74.51M459,242.39a19.77,19.77,0,0,1-5.45-.72,47.87,47.87,0,0,1,5.45-.29,50.22,50.22,0,0,1,5.45.27,19.41,19.41,0,0,1-5.45.74m-29.83-6.23h-.4a2,2,0,0,1-1.19-.73,1.7,1.7,0,0,1,1-.28H429a2,2,0,0,1,1.19.73,1.6,1.6,0,0,1-1,.28m8.94,15.06c-6.5,0-10.26-5.54-8.41-12.38s8.61-12.38,15.11-12.38,10.25,5.54,8.4,12.38-8.61,12.38-15.1,12.38m85.71-19.43c3.94-1.34,7.88-2.52,11.75-3.94s7.72-2.88,11.63-4.3a61.92,61.92,0,0,1-11.29,5.25,63,63,0,0,1-12.09,3m-109.27-1a53.79,53.79,0,0,1-14.8-3.14,52.5,52.5,0,0,1-14.65-8.16,86.15,86.15,0,0,0,15,7.21,83.31,83.31,0,0,0,14.66,3.89,8.84,8.84,0,0,1,5.64-2.25l.63,0c4.07.37,6.38,4.3,5.17,8.77-1.15,4.23-5.06,7.44-8.93,7.44q-.31,0-.63,0c-4.07-.37-6.39-4.3-5.18-8.77a10.45,10.45,0,0,1,3.09-5m49-3.07,36-4.44,36-4.65q-8.93,1.72-17.9,3.11c-6,.94-12,1.75-18,2.54s-12,1.44-18.06,2-12.07,1.06-18.12,1.43m-52.41,10.67a75.94,75.94,0,0,1-12.37-3.83,82.72,82.72,0,0,1-22.2-13.29,77.62,77.62,0,0,1-9.22-9.09,114.64,114.64,0,0,0,9.7,8.49,102,102,0,0,0,10.62,7.25,100.17,100.17,0,0,0,11.4,5.93,113.66,113.66,0,0,0,12.07,4.54M558.75,213l-.86,0c2-.71,4.05-1.11,6.08-1.61s4.07-.87,6.19-1.06a25.48,25.48,0,0,1-6,2,29.07,29.07,0,0,1-5.43.64m-32.44,27.16a100.74,100.74,0,0,0,15-7.7c4.8-2.93,9.48-6,14.21-9.1a131,131,0,0,1,14.78-8.27,56.59,56.59,0,0,1,16.15-4.94,65.44,65.44,0,0,0-15.82,5.64A146.63,146.63,0,0,0,556,224.24c-4.77,3-9.46,6.12-14.36,8.92a80.79,80.79,0,0,1-15.37,7M564,205.24a10.41,10.41,0,0,1-.44-5.22c.84-5.36,5.1-9.71,9.52-9.71s7.32,4.35,6.49,9.71-5.11,9.71-9.53,9.71a6.4,6.4,0,0,1-6-4.42,8.86,8.86,0,0,1-2.68,1.22,11.12,11.12,0,0,1-2.39.35,4.82,4.82,0,0,1-.65,0,8.8,8.8,0,0,1,2.77-1.28,11,11,0,0,1,2.38-.35l.55,0m-27.94,7.36a14.65,14.65,0,0,1-1.26-9c1.23-7.82,7.44-14.15,13.88-14.15s10.68,6.33,9.45,14.15-7.43,14.16-13.88,14.16a9.09,9.09,0,0,1-8.12-5q-9,1.88-18.07,3.36c-6.92,1.14-13.86,2.08-20.8,2.94s-13.93,1.51-20.91,2-14,.87-21,1q10.47-.81,20.91-1.81c7-.67,13.92-1.37,20.86-2.24S511,216.3,518,215.32Q527,214,536.09,212.6m70.35-30.82-40.21,1.47c-3.77.26-7.11.51-9.68.7a87.51,87.51,0,0,0-17.63,4.88,30.18,30.18,0,0,0-9.6,6.13l-.18.22A52.24,52.24,0,0,0,525,203a19,19,0,0,0-.77,4.77,105.43,105.43,0,0,0-21.65-2.23,102.35,102.35,0,0,0-46.42,10.9l-1,.52c-2,1.44-3.91,2.94-5.67,4.42a3.67,3.67,0,0,1-1.42.86H448a.52.52,0,0,1-.38.42c-4,1.59-11.73,3.43-22.53,3.43-15.54,0-37.44-3.81-63.72-17.67,16.12,22,41,37.11,67.6,43.83h0l.14,0h.05l.11,0,.16,0h0a160.4,160.4,0,0,0,38.73,4.53q3.45,0,6.91-.13c-.7-1.18-1.39-2.38-2.07-3.58a200.63,200.63,0,0,1-10.13-18.83s-2.4-5.39,3.76-5.41,51.64-2.71,51.64-2.71L530,247.39a47.47,47.47,0,0,0,12.36-6.26h0l0,0,.05,0,0,0,.14-.1h0c4.59-3.43,8.3-7.88,12.5-11.78a68.14,68.14,0,0,1,34.58-17.33h0c-.27,0-.11.52.16.52h0c.28,0,.46-.3.6-.55l6-11.33a47.09,47.09,0,0,1-6.94,1c-1.5.09-3,.18-4.51.18-.87,0-1.73,0-2.6-.11a45.59,45.59,0,0,1,7-1.07c1.5-.09,3-.18,4.51-.18.84,0,1.68,0,2.52.1q2.43-4.54,4.85-9.11c-2.89.28-5.79.42-8.69.58-2.38.06-4.77.13-7.15.13-1.72,0-3.44,0-5.16-.14,4.08-.58,8.18-.78,12.27-1,2.38-.06,4.76-.14,7.14-.14l1.89,0,1.82-3.43c.49-.91,1-1.82,1.45-2.73q-5.51.54-11,1l-13.84,1-13.87.75q-6.93.33-13.88.48c4.61-.47,9.22-.9,13.83-1.25l13.85-1,13.86-.75c3.74-.18,7.47-.32,11.21-.42l1.38-2.6"/>
      <path class="cls-25" d="M529.14,195.18A22.45,22.45,0,0,0,525,203a52.24,52.24,0,0,1,4.17-7.77m26-12.24a56.1,56.1,0,0,0-11.67,2.55,44.24,44.24,0,0,1,5.19-.87c2.14-.53,4.29-1,6.45-1.42a1.22,1.22,0,0,1,0-.26"/>
      <path class="cls-26" d="M566.23,183.25l-7.37.27-2.31.43c2.57-.19,5.91-.44,9.68-.7m-8.11-.62c-1,.09-2,.19-3,.31a1.22,1.22,0,0,0,0,.26l3-.57m46.79-2.33-37.43,1.75c-2.41.11-4.84.23-7.26.41l45.24-1.66-.55-.5"/>
      <path class="cls-27" d="M536.91,203.73l0-.15c1-6.41,6.09-11.6,11.37-11.6h0c5.28,0,8.75,5.19,7.75,11.6s-6.1,11.6-11.38,11.6S536,210.1,536.9,203.8v-.07m11.8-14.3c-6.44,0-12.65,6.33-13.88,14.15a14.65,14.65,0,0,0,1.26,9l1.53-.24.15-.11.06.07.89-.14-.86.19a9.19,9.19,0,0,0,7.29,3.72h.33l0,1h-.36a10.19,10.19,0,0,1-8.22-4.27h0l.55-.39-1.34.29a9.09,9.09,0,0,0,8.12,5c6.45,0,12.66-6.34,13.88-14.16s-3-14.15-9.45-14.15"/>
      <path class="cls-28" d="M536.91,203.73v0M548.31,192a5.89,5.89,0,0,1,.94.24,11.59,11.59,0,0,1,1.36,7.8,15.33,15.33,0,0,1-2.88,6.8,6.16,6.16,0,0,1-2.52,3.21,5,5,0,0,1-1.82.53,9.11,9.11,0,0,1-4.16,1.06,7.17,7.17,0,0,1-.94-.23,11.57,11.57,0,0,1-1.39-7.59c-.89,6.3,2.56,11.38,7.78,11.38s10.38-5.19,11.38-11.6-2.47-11.6-7.75-11.6"/>
      <path class="cls-29" d="M548.31,192c-5.28,0-10.37,5.19-11.37,11.6l0,.15v.07a11.57,11.57,0,0,0,1.39,7.59,7.17,7.17,0,0,0,.94.23,9.11,9.11,0,0,0,4.16-1.06l-.5,0a3.15,3.15,0,0,1-3.42-2.53c-.44-2.93,1.9-6.27,4.28-7.69a4.59,4.59,0,0,1,2.31-.79c2.61,0,2.92,4.09,1.67,7.24a15.33,15.33,0,0,0,2.88-6.8,11.59,11.59,0,0,0-1.36-7.8,5.89,5.89,0,0,0-.94-.24h0"/>
      <path class="cls-27" d="M444.24,228.14h0c5.27,0,8.3,4.79,6.77,10.7s-7.07,10.71-12.35,10.71-8.31-4.8-6.78-10.71,7.07-10.7,12.35-10.7h0m.57-1.68c-6.5,0-13.26,5.54-15.11,12.38s1.91,12.38,8.41,12.38,13.25-5.54,15.1-12.38-1.91-12.38-8.4-12.38"/>
      <path class="cls-28" d="M444.24,228.14c-5.28,0-10.81,4.79-12.35,10.7s1.5,10.71,6.78,10.71,10.81-4.8,12.35-10.71-1.5-10.7-6.77-10.7a7.22,7.22,0,0,1,3.28.79,10,10,0,0,1,.05,5c-1.39,5.54-6.29,10-10.94,10a5.8,5.8,0,0,1-4.94-2.64,10.64,10.64,0,0,1,.2-2.48c1.53-5.91,7.06-10.7,12.34-10.7h0"/>
      <path class="cls-30" d="M437.28,238.44a10.45,10.45,0,0,1,1.49-.12,2.58,2.58,0,0,1,2.5,1.07,2.13,2.13,0,0,1-.55,2.31,5.49,5.49,0,0,1-2.33,1.34,12.57,12.57,0,0,1-2.7.55l-.51,0a2.45,2.45,0,0,1-.94-.16c-1.14-.49-1.15-2.1-.34-3.1a7.68,7.68,0,0,1,3.33-2l0,.1m7-10.3h0c-5.28,0-10.81,4.79-12.34,10.7a10.64,10.64,0,0,0-.2,2.48,5.8,5.8,0,0,0,4.94,2.64c4.65,0,9.55-4.48,10.94-10a10,10,0,0,0-.05-5,7.22,7.22,0,0,0-3.28-.79h0"/>
      <path class="cls-30" d="M438.77,238.32a10.45,10.45,0,0,0-1.49.12l0-.1a7.68,7.68,0,0,0-3.33,2c-.81,1-.8,2.61.34,3.1a2.45,2.45,0,0,0,.94.16l.51,0a12.57,12.57,0,0,0,2.7-.55,5.49,5.49,0,0,0,2.33-1.34,2.13,2.13,0,0,0,.55-2.31,2.58,2.58,0,0,0-2.5-1.07"/>
      <path class="cls-27" d="M420.07,230h0l.41,0h0c3.05.28,4.76,3.39,3.83,7-.88,3.38-3.84,6-6.75,6l-.44,0c-3-.28-4.76-3.4-3.83-7a8.5,8.5,0,0,1,2.91-4.49A6.22,6.22,0,0,1,420,230h0m.33-1.65a8.84,8.84,0,0,0-5.64,2.25l1.46.26c-.56,0-1.12,0-1.67-.06a10.45,10.45,0,0,0-3.09,5c-1.21,4.47,1.11,8.4,5.18,8.77q.32,0,.63,0c3.87,0,7.78-3.21,8.93-7.44,1.21-4.47-1.1-8.4-5.17-8.77l-.63,0"/>
      <path class="cls-28" d="M420.51,230a4.31,4.31,0,0,1,1.9.66,6.63,6.63,0,0,1,0,3.1c-.79,3.18-3.43,5.61-6,5.61l-.36,0a3.66,3.66,0,0,1-2.83-1.89,6.65,6.65,0,0,1,.13-1.52,8.5,8.5,0,0,1,2.91-4.49,8.5,8.5,0,0,0-2.91,4.49c-.93,3.56.79,6.68,3.83,7l.44,0c2.91,0,5.87-2.58,6.75-6,.93-3.57-.78-6.68-3.83-7m-.44,0,.41,0-.41,0m0,0h0"/>
      <path class="cls-29" d="M415.49,239.1h0a1.7,1.7,0,0,1-.83-.17,1.3,1.3,0,0,1-.18-1.92A3.89,3.89,0,0,1,416.4,236l0,.06h.42c.77,0,1.58.15,1.87.81a1.3,1.3,0,0,1-.33,1.39,2.86,2.86,0,0,1-1.36.7,6.14,6.14,0,0,1-1.54.2m4.58-9.09h0a6.22,6.22,0,0,0-3.8,1.47,8.5,8.5,0,0,0-2.91,4.49,6.65,6.65,0,0,0-.13,1.52,3.66,3.66,0,0,0,2.83,1.89l.36,0c2.58,0,5.22-2.43,6-5.61a6.63,6.63,0,0,0,0-3.1,4.31,4.31,0,0,0-1.9-.66h0l-.41,0h0"/>
      <path class="cls-31" d="M518.24,226.2s-45.49,2.7-51.64,2.71-3.76,5.41-3.76,5.41A200.63,200.63,0,0,0,473,253.15q-1.2-2.09-2.35-4.19l-7.78-14.64c5.56,9.55,10.73,19.34,16.77,28.57a132.17,132.17,0,0,0,21.29,25.17,141,141,0,0,0,12.69,10.57c1.66,1.26,3.39,2.44,5.17,3.53a82.8,82.8,0,0,0,30.29,8.25,55.54,55.54,0,0,0,11.25-1.5h0a60.5,60.5,0,0,1-8.67,1.63c2,.12,3.92.18,5.56.18h1.37a3.87,3.87,0,0,0,3.69-3.59c-1.58.15-3.16.23-4.76.23-16.7,0-34.09-8.18-46.87-18.75-9.95-8.22-18.05-18.34-25-29.27l14.1-10.18a80,80,0,0,0,22.76,6.25l-8-13.85h12.27l5.9,10.66L530,247.39h0L518.24,226.2"/>
      <path class="cls-32" d="M526.75,241.55H514.48l8,13.85a84.22,84.22,0,0,0,10.29.63l2,0-2.11-3.8-5.9-10.66"/>
      <path class="cls-27" d="M565.31,200h0c.66-4.21,4-7.62,7.48-7.62h0c3.46,0,5.74,3.41,5.08,7.62s-4,7.62-7.47,7.62-5.74-3.41-5.09-7.62m7.8-9.71c-4.42,0-8.68,4.35-9.52,9.71a10.41,10.41,0,0,0,.44,5.22h.11l-.09.06a6.4,6.4,0,0,0,6,4.42c4.42,0,8.69-4.35,9.53-9.71s-2.07-9.71-6.49-9.71"/>
      <path class="cls-28" d="M572.79,192.4a4.57,4.57,0,0,1,.61.16,7.59,7.59,0,0,1,.89,5.12,10,10,0,0,1-1.89,4.47,4,4,0,0,1-1.65,2.1,3.15,3.15,0,0,1-1.2.36,6,6,0,0,1-2.73.69,3.88,3.88,0,0,1-.61-.15,7.6,7.6,0,0,1-.9-5.13c-.65,4.21,1.62,7.62,5.09,7.62s6.81-3.41,7.47-7.62-1.62-7.62-5.08-7.62"/>
      <path class="cls-29" d="M572.79,192.4c-3.47,0-6.82,3.41-7.48,7.62h0a7.6,7.6,0,0,0,.9,5.13,3.88,3.88,0,0,0,.61.15,6,6,0,0,0,2.73-.69h-.33A2.06,2.06,0,0,1,567,203c-.29-1.92,1.25-4.11,2.81-5.05a3,3,0,0,1,1.51-.52c1.72,0,1.92,2.69,1.1,4.76a10,10,0,0,0,1.89-4.47,7.59,7.59,0,0,0-.89-5.12,4.57,4.57,0,0,0-.61-.16h0"/>
      <path class="cls-27" d="M342.24,201.81a25.41,25.41,0,0,0-6.48.81,13.24,13.24,0,0,0-1.57.54L361,208.23h0l.26.13h0c26.28,13.86,48.18,17.67,63.72,17.67,10.8,0,18.53-1.84,22.53-3.43a.52.52,0,0,0,.38-.42l-.25,0a1.11,1.11,0,0,1-1.09-.67.4.4,0,0,1,0-.15,37.34,37.34,0,0,1-12.94,4.14c-1.75.17-3.5.24-5.25.24-8.5,0-17-1.8-25.32-3.72l-.41-.1L397,220.85l.24-.14a127.77,127.77,0,0,1-20.58-6.4C370,211.46,363.77,207.68,357,205a40.61,40.61,0,0,0-14.79-3.19"/>
      <path class="cls-26" d="M455.11,216.91c-2.83,1.49-5.65,3.08-8.52,4.49a.4.4,0,0,0,0,.15,1.11,1.11,0,0,0,1.09.67l.25,0H448a3.67,3.67,0,0,0,1.42-.86c1.76-1.48,3.66-3,5.67-4.42"/>
      <path class="cls-33" d="M607.4,119.49a34.39,34.39,0,0,1-2.63,3.52c-.51.6-1.06,1.21-1.66,1.84a53,53,0,0,1-2,9.3,38.31,38.31,0,0,0,6.49-12.5,15.75,15.75,0,0,0-.19-2.16m-4.56-10a55.48,55.48,0,0,1,.68,8.63c0,1.67-.07,3.33-.23,5,.25-.28.48-.54.7-.81A29.39,29.39,0,0,0,607.1,118a23.88,23.88,0,0,0-4.26-8.5"/>
      <path class="cls-23" d="M611.93,150.27l-.26.07h.17l.23,0h0l-.14,0m-11.64-13.74-.06.15a31.09,31.09,0,0,0,2.3,3.16l.08-.05a33.78,33.78,0,0,1-2.32-3.26"/>
      <path class="cls-33" d="M601.92,126.05a74.92,74.92,0,0,1-13.7,10.43c-2,1.19-4.07,2.39-6.35,3.58a99,99,0,0,1-3.2,12.77c3.11-1.83,6-3.75,8.65-5.71-4.07-1.74-5.81-3.72-2.18-5.05,4.54-1.67,13.69-7.87,13.69-7.87.23.46.48.92.73,1.37a51.17,51.17,0,0,0,2.36-9.52"/>
      <path class="cls-28" d="M598.83,134.2s-9.15,6.2-13.69,7.87c-3.63,1.33-1.89,3.31,2.18,5.05h0a39.15,39.15,0,0,0,4,1.41,26.52,26.52,0,0,1-7.55-5.21,38.67,38.67,0,0,0,13.48,6.26,36.18,36.18,0,0,0,9.1,1.12,42.38,42.38,0,0,0,4.9-.29l.16,0a2.66,2.66,0,0,1,.28,0l.26-.07-.06,0,.55-.13a1,1,0,0,0,.59-.39.53.53,0,0,0,.06-.24,1.33,1.33,0,0,0-.45-.8h0l-.31-.26a63.56,63.56,0,0,1-18.61-3.23c2.92-1.92,5.84-3.7,8.83-5.36a31.09,31.09,0,0,1-2.3-3.16v.06l-1-.36c.1-.27.2-.54.29-.81-.25-.45-.5-.91-.73-1.37"/>
      <polyline class="cls-23" points="576.67 153.99 576.67 153.99 578.88 156 578.88 156 576.67 153.99"/>
      <path class="cls-25" d="M455.57,212.18A72.75,72.75,0,0,1,442,213.43a77.38,77.38,0,0,1-10-.64c.84,2.76.54,4.79,1.62,7.71.47,0,1.17-.05,2-.05,1.3,0,2.93,0,4.56.07l2.86,0h.38c.42,0,1.62-.18,2.48-.18a1.84,1.84,0,0,1,.8.12c.61-2.22,2.6-3.81,4.51-5.13l.37-.25a37.2,37.2,0,0,1,4-2.94m-49.28-16.34.35.29.05,0-.4-.25m-29.47-4.13a14.49,14.49,0,0,0-4.36,4.54,6.28,6.28,0,0,0-.61,3.3l0,0h0a12.13,12.13,0,0,0,1,4,12.34,12.34,0,0,0,1.8,2.81,20.87,20.87,0,0,0,5.75,4.6l1,0a30.24,30.24,0,0,0,4.15-.28,26.3,26.3,0,0,1-7.43-5.6c-2-2.22-3.16-5.44-2.18-8.27a9.68,9.68,0,0,1,2.57-3.65c.32-.31.66-.6,1-.89l-2.7-.66m11.35-7a84.33,84.33,0,0,0-9.64,5.76l-.64.45,2.64.64a41.94,41.94,0,0,1,10.41-5.15l-2.77-1.7m157.06-3.8c-.92.17-1.83.39-2.72.64A52.47,52.47,0,0,0,528.14,190l-.24-.13a33.79,33.79,0,0,0-6,7.53,43.36,43.36,0,0,1,19.16-15c1.36-.57,2.75-1.08,4.15-1.53m10.42-2.47c-.57.06-1.13.12-1.69.2l-.07.1,1.76-.3m4.17-10.57a88.6,88.6,0,0,1-2.66,10.35,100,100,0,0,1,11.59-.89l-3.7-3.88-.38,0,0-.5c-1.6-1.69-3.21-3.39-4.8-5.12"/>
      <path class="cls-26" d="M569.09,173l-4,.46,3.7,3.88h.13V177h.33c0-1.37-.08-2.66-.12-4m7.58-19a141.85,141.85,0,0,1-16.43,7.73,1.94,1.94,0,0,0,0,.24l.76-.41c-.36,2.08-.74,4.21-1.16,6.33,1.59,1.73,3.2,3.43,4.8,5.12l-.06-.51,4.5-.5c0-.78,0-1.56-.07-2.37a106.12,106.12,0,0,1,14-6.06l-21.7,2.95-.13-1,22.51-3.05.12.84,1.74-.57-7-6.35.34-.37-2.21-2"/>
      <path class="cls-24" d="M429.26,193.22l-14,8.16-8.61-5.29-.05,0c1.51,1.23,3,2.49,4.55,3.81a12.29,12.29,0,0,0,6.19,8.09l.2-.15.33.44.77.39A30.29,30.29,0,0,0,425.6,211l.12-.18.44.3c1.83.36,3.69.62,5.54.86.11.29.21.57.29.85a77.38,77.38,0,0,0,10,.64,72.75,72.75,0,0,0,13.61-1.25q.68-.44,1.35-.84a77.55,77.55,0,0,1,7.46-3.88c-2.3.14-4.61.24-6.92.24h-.66c-4.12,0-8.32-.24-12.43-.57-2.91-.23-6-.73-7.42-2.33a5,5,0,0,0-2.14-1.4c-.17-.3-.34-.6-.5-.9a16.79,16.79,0,0,1-1.73-.91c-2.57-1.53-3.52-4.89-3.36-7.79,0-.17,0-.36,0-.57m1.35-.78-.05,0a16.73,16.73,0,0,0,1.27,4.25c-.47-1.41-.87-2.84-1.22-4.28"/>
      <path class="cls-34" d="M415.3,172.59l-.26.1,1.38.31q-5,1.5-9.34,2.95-5.88,2.48-11.64,5.18c-2.44,1.15-4.88,2.33-7.27,3.59l2.77,1.7,1.43-.54a134.07,134.07,0,0,1,13.92,10l.4.25a8.73,8.73,0,0,1,.79-.71c2.75-2.14,6.22-3.08,9.62-3.85,4.24-1,8.53-1.73,12.84-2.32-.08-.44-.15-.88-.22-1.33v0l0-.16c-.42-2.7-.7-5.42-.86-8.15l-.44-.25.37-1.49q-.06-1.59-.06-3.18c-4.6-.57-9.08-1.25-13.4-2"/>
      <path class="cls-24" d="M429.94,189.21c-4.31.59-8.6,1.36-12.84,2.32-3.4.77-6.87,1.71-9.62,3.85a8.73,8.73,0,0,0-.79.71l8.61,5.29,14-8.16c.09-.8.32-1.78.94-2.1.14.44.25.89.36,1.35l.05,0c-.25-1.07-.47-2.15-.67-3.23"/>
      <path class="cls-27" d="M445.9,220.38c-.86,0-2.06.18-2.48.18h1.33c.8,0,1.47,0,1.94,0v0a1.84,1.84,0,0,0-.8-.12m-70.28-29.51c-6.08,5.21-4,8.33-3.77,8.68a6.28,6.28,0,0,1,.61-3.3,14.49,14.49,0,0,1,4.36-4.54l-1.32-.33.12-.51m-1.48-5.24q-3.17,1.71-6.28,3.61c-3.38,2.06-7,4.75-7.43,8.68-.51,4.61,3.7,8.38,7.91,10.31A31.58,31.58,0,0,0,380.43,211a20.87,20.87,0,0,1-5.75-4.6,12.34,12.34,0,0,1-1.8-2.81,12.13,12.13,0,0,1-1-4l-10.79-1.07c2.27-4.78,7.2-9.13,13.08-12.88M407.08,176c-17.23,5.76-26.31,10.69-31,14.53l1.81.45.64-.45a84.33,84.33,0,0,1,9.64-5.76c2.39-1.26,4.83-2.44,7.27-3.59q5.76-2.72,11.64-5.18m2.12-4.55,5.84,1.29.26-.1c-2.07-.37-4.11-.77-6.1-1.19"/>
      <path class="cls-30" d="M429.72,187.88c.07.45.14.89.22,1.33.2,1.08.42,2.16.67,3.23.35,1.44.75,2.87,1.22,4.28h0a54.82,54.82,0,0,1-2.12-8.85m87.15-1.83a25.74,25.74,0,0,1-5.51,2.42,64.61,64.61,0,0,1-11.21,2.09c-2.09.26-4.17.52-6.24.9-6.59,1.22-13,3.71-19.27,6.12-2.09.82-4.19,1.63-6.31,2.4-6.24,2.28-14.11,4.72-22.2,4.72a35.91,35.91,0,0,1-5.16-.36,24,24,0,0,1-6.66-1.85c.16.3.33.6.5.9a5,5,0,0,1,2.14,1.4c1.38,1.6,4.51,2.1,7.42,2.33,4.11.33,8.31.54,12.43.57h.66c2.31,0,4.62-.1,6.92-.24,2.15-1,4.35-1.86,6.58-2.63a54.3,54.3,0,0,1,7.34-2.15q1.33-.33,2.7-.6a92,92,0,0,1,12.91-1.63c3.64-.3,7.32-.46,11-.46a113.89,113.89,0,0,1,13.4.76l1.55.08a35.11,35.11,0,0,1,2.09-3.42,33.79,33.79,0,0,1,6-7.53,36,36,0,0,0-11-3.83m-88-6.51c.16,2.73.44,5.45.86,8.15l0,.16,0-.16c-.42-2.7-.7-5.42-.85-8.14h0M554,178.65a48.6,48.6,0,0,0-11.45,2.91c.89-.25,1.8-.47,2.72-.64a67.69,67.69,0,0,1,8.66-2.17l.07-.1m-125.26-4q0,1.59.06,3.18v0c0-.92,0-1.84,0-2.76v-.38h0m131.54-12.9q-2.9,1.16-5.93,2.23a206.08,206.08,0,0,1-29.09,7.89c0,.19.07.39.1.59,20.92-3.84,32-9,34.9-10.47a1.94,1.94,0,0,1,0-.24"/>
      <path class="cls-29" d="M489.51,186.43l-1.39.15c-4.92.54-9.94,1-15,1.21a72.58,72.58,0,0,0-5.13,9.06c1.85-.68,3.68-1.39,5.52-2.1,4.2-1.63,8.5-3.29,12.92-4.6,1-1.24,2-2.48,3-3.72M446.09,186l-.3.58a11.59,11.59,0,0,1-1.19,1.75,1.34,1.34,0,0,0-.23.35l-.2.16c-.49.45-.93.94-1.43,1.38l-.95.79-1,.75-1.68,1.2a41.46,41.46,0,0,0-6.12,5.22,5.19,5.19,0,0,0,.46.36,18.09,18.09,0,0,0,8,2.81,33,33,0,0,0,4.76.33c.58,0,1.17,0,1.75,0,4.79-3.57,7.69-6.83,10-12.15.26-.6.53-1.19.82-1.76A87,87,0,0,1,446.09,186m54-10.52q-3.37.31-6.82.56c-3.8.26-7.59.47-11.36.61l-.07.07q9.61-.25,18-1l.29-.28"/>
      <path class="cls-35" d="M458.73,187.71c-.29.57-.56,1.16-.82,1.76-2.31,5.32-5.21,8.58-10,12.15,7-.32,13.85-2.48,19.39-4.5l.73-.27a72.58,72.58,0,0,1,5.13-9.06c-2.25.1-4.49.16-6.73.16-2.58,0-5.15-.07-7.7-.24m47.85-2.51a159.64,159.64,0,0,0-17.07,1.23c-1.07,1.24-2.07,2.48-3,3.72a67.17,67.17,0,0,1,6.89-1.68c2.12-.39,4.27-.65,6.42-.93a60.94,60.94,0,0,0,10.68-2l.69-.23c-1.52-.1-3-.15-4.57-.15m-77.74-5.65c.15,2.72.43,5.44.85,8.14a55,55,0,0,0,2.15,9,5.28,5.28,0,0,0,1.13,1.43,41.46,41.46,0,0,1,6.12-5.22l1.68-1.2,1-.75.95-.79c.5-.44.94-.93,1.43-1.38l.2-.16a1.34,1.34,0,0,1,.23-.35,11.59,11.59,0,0,0,1.19-1.75l.3-.58a60.94,60.94,0,0,1-17.25-6.43m53-2.92c-2,.08-4,.14-6,.18q3,0,5.94-.11l.07-.07m-52.32-2,0,.05,2.26.21-2.23-.26m-.83,0V175c0,.92,0,1.84,0,2.76l.75-3-.8-.1m93.52-2.21q-10.61,2-22.19,3.05l-.29.28c8.45-.69,16-1.67,22.56-2.78a4.54,4.54,0,0,0-.08-.55"/>
      <path class="cls-27" d="M404.41,170.33c-3.58,1.15-7.23,2.43-10.87,3.77.1.63.18,1.26.32,1.88,7.65-2.94,13.9-4.6,15.16-4.6h.14c-1.61-.33-3.19-.69-4.75-1.06"/>
      <path class="cls-27" d="M511.15,185.35l-.69.23a60.94,60.94,0,0,1-10.68,2c-2.15.28-4.3.54-6.42.93a67.17,67.17,0,0,0-6.89,1.68c-4.42,1.31-8.72,3-12.92,4.6-1.84.71-3.67,1.42-5.52,2.1l-.73.27c-5.54,2-12.38,4.18-19.39,4.5-.58,0-1.17,0-1.75,0a33,33,0,0,1-4.76-.33,18.09,18.09,0,0,1-8-2.81,5.19,5.19,0,0,1-.46-.36,5.28,5.28,0,0,1-1.13-1.43h0a16.73,16.73,0,0,1-1.27-4.25c-.11-.46-.22-.91-.36-1.35-.62.32-.85,1.3-.94,2.1,0,.21,0,.4,0,.57-.16,2.9.79,6.26,3.36,7.79a16.79,16.79,0,0,0,1.73.91,24,24,0,0,0,6.66,1.85,35.91,35.91,0,0,0,5.16.36c8.09,0,16-2.44,22.2-4.72,2.12-.77,4.22-1.58,6.31-2.4,6.23-2.41,12.68-4.9,19.27-6.12,2.07-.38,4.15-.64,6.24-.9a64.61,64.61,0,0,0,11.21-2.09,25.74,25.74,0,0,0,5.51-2.42,51.64,51.64,0,0,0-5.72-.7m14.07-13.51-3,.57a4.54,4.54,0,0,1,.08.55l3-.53c0-.2-.06-.4-.1-.59"/>
      <path class="cls-36" d="M559.21,149.45c-13.75,4.51-30.86,8.36-52,10.72a320.27,320.27,0,0,1-35.49,2,305.77,305.77,0,0,1-34.92-2,86.16,86.16,0,0,1-7.26,14.5l2.23.26c14.75,1.34,28.1,1.9,40.12,1.9,1.33,0,2.65,0,4,0,2,0,4-.1,6-.18,3.77-.14,7.56-.35,11.36-.61q3.45-.24,6.82-.56,11.56-1.08,22.19-3.05l3-.57A206.08,206.08,0,0,0,554.31,164l-1.34.47a107.48,107.48,0,0,0,6.24-15"/>
      <path class="cls-33" d="M387.26,149.89a71.58,71.58,0,0,1-6,12.92,136.82,136.82,0,0,0,23.22,7.5l0,0c1.56.37,3.14.73,4.75,1.06h0c2,.42,4,.82,6.1,1.19,4.32.78,8.8,1.46,13.4,2h0l.8.1h0l0-.05a86.16,86.16,0,0,0,7.26-14.5c-6.52-.75-12.68-1.68-18.45-2.73a79.7,79.7,0,0,1-6.58,12.67l-.85-.55a78.92,78.92,0,0,0,6.41-12.3,261.34,261.34,0,0,1-30.08-7.37"/>
      <path class="cls-33" d="M580.73,140.64a152.66,152.66,0,0,1-21.52,8.81,107.48,107.48,0,0,1-6.24,15l1.34-.47q3-1.08,5.93-2.23A141.85,141.85,0,0,0,576.67,154h0l1.68-1-.72-.23a97.92,97.92,0,0,0,3.11-12.15"/>
      <path class="cls-26" d="M451.58,215.12l-.37.25c-1.91,1.32-3.9,2.91-4.51,5.13v0h.06a24.19,24.19,0,0,1,4.83-5.41m26.72-12.44a54.3,54.3,0,0,0-7.34,2.15,75.16,75.16,0,0,1,7.34-2.15M504.88,200c-3.65,0-7.33.16-11,.46,2.75-.16,5.5-.23,8.26-.23,5.37,0,10.75.25,16.11.53a113.89,113.89,0,0,0-13.4-.76"/>
      <path class="cls-37" d="M371.85,199.55v0h0l0,0"/>
      <path class="cls-38" d="M415,172.69c-2.66,1.06-5.32,2.15-8,3.26q4.32-1.44,9.34-2.95l-1.38-.31"/>
      <path class="cls-39" d="M409,171.38c-1.26,0-7.51,1.66-15.16,4.6,0,.2.09.41.15.62a164.31,164.31,0,0,0-19.87,9c-5.88,3.75-10.81,8.1-13.08,12.88l10.79,1.07v0c-.26-.35-2.31-3.47,3.77-8.68l.12-.47.34.08c4.69-3.84,13.77-8.77,31-14.53,2.64-1.11,5.3-2.2,8-3.26l-5.84-1.29H409"/>
      <path class="cls-40" d="M409.16,171.39h0"/>
      <path class="cls-33" d="M363.93,140.91c-.1.78-.18,1.56-.22,2.35a25.63,25.63,0,0,0,1.77,10.08,65.22,65.22,0,0,0,14.83,9,71,71,0,0,0,6-12.8,159.51,159.51,0,0,1-22.37-8.68"/>
      <path class="cls-36" d="M496.84,122.19a13.28,13.28,0,0,0-3.58,6.15,1.83,1.83,0,0,0,.23,1.8,1.2,1.2,0,0,0,.82.28,2.46,2.46,0,0,0,.8-.15,4.83,4.83,0,0,0,1.73-8.08m3.81-.71-.06.24a20.22,20.22,0,0,0,1.88,7.48h0c1.8,0,2.79-2.42,2.11-4.09s-2.38-2.72-4-3.63m8.91-23.3a4.36,4.36,0,0,0-.51,0,6.43,6.43,0,0,0-4.78,3.65,15.94,15.94,0,0,0-1.4,6.07c-.2,2.48-.17,5.2,1.4,7.13a5.81,5.81,0,0,0,4.55,2,7.08,7.08,0,0,0,3.68-1,10.3,10.3,0,0,0,4.35-7.6l-.09.42a16.62,16.62,0,0,0-1.72-7.1,6.69,6.69,0,0,0-5.48-3.56m-22.38-2.34c-2.83,0-5.53,1.68-7.81,3.47a19.24,19.24,0,0,0-5.78,6.5c-1.27,2.64-1.44,6,.23,8.38a8.43,8.43,0,0,0,2.87,2.5,13.9,13.9,0,0,0,6.74,1.92c12.26,0,17.29-20.6,4.9-22.67a6.46,6.46,0,0,0-1.15-.1m-7.5,39.85a23.68,23.68,0,0,1-16.78-7c-6.4-6.75-8.75-18-5.83-26.83,1.3-3.92,4.17-7.14,7.31-9.81a47,47,0,0,1,30.37-10.74,46.52,46.52,0,0,1,27.72,8.83,31.52,31.52,0,0,1,10.35,12.23c2.18,4.93,2.58,10.81.31,15.71-3.13,6.74-10.25,11.11-17.22,13.72.8,3.7,1.26,8.26,2.06,12-3.45,2.52-7.91,3.13-12.17,3.5-5.32.47-10.67.71-16,.71h-2.74c-2.26,0-4.53-.07-6.3-1.43a52.14,52.14,0,0,1,1.91-11,21.52,21.52,0,0,1-3,.2M504,79.27a244.33,244.33,0,0,0-69.23,10.26c5.39,11.78,7.54,25.44,7.78,37.79a85.79,85.79,0,0,1-5.37,31.87,304.09,304.09,0,0,0,34.52,1.95h0a317.92,317.92,0,0,0,35.37-2c21.43-2.39,38.71-6.31,52.5-10.9a89.85,89.85,0,0,0,4.17-23.53,85,85,0,0,0-8.16-39.23A212,212,0,0,0,504,79.27"/>
      <path class="cls-33" d="M434.77,89.53q-8.52,2.52-16.84,5.63a80.71,80.71,0,0,1,6.42,27.58c.07,1.32.1,2.64.1,4a81,81,0,0,1-5.71,29.78c5.77,1,11.93,2,18.44,2.71a85.79,85.79,0,0,0,5.37-31.87c-.24-12.35-2.39-26-7.78-37.79"/>
      <path class="cls-33" d="M555.61,85.5a85,85,0,0,1,8.16,39.23,89.85,89.85,0,0,1-4.17,23.53A150.07,150.07,0,0,0,581,139.39a103.86,103.86,0,0,0,1.58-18.12,108.09,108.09,0,0,0-1.68-18.91,53.16,53.16,0,0,0-2.65-9.61c-3.59-1.48-7.26-2.77-11-3.94Q561.48,87,555.61,85.5"/>
      <path class="cls-41" d="M494.31,130.42a1.2,1.2,0,0,1-.82-.28,1.83,1.83,0,0,1-.23-1.8,13.28,13.28,0,0,1,3.58-6.15,4.83,4.83,0,0,1-1.73,8.08,2.46,2.46,0,0,1-.8.15m8.2-1.22h0a20.22,20.22,0,0,1-1.88-7.48l.06-.24c1.59.91,3.28,1.94,4,3.63s-.31,4.09-2.11,4.09M508.82,117a5.81,5.81,0,0,1-4.55-2c-1.57-1.93-1.6-4.65-1.4-7.13a15.94,15.94,0,0,1,1.4-6.07,6.43,6.43,0,0,1,4.78-3.65,4.36,4.36,0,0,1,.51,0,6.69,6.69,0,0,1,5.48,3.56,16.62,16.62,0,0,1,1.72,7.1l.09-.42a10.3,10.3,0,0,1-4.35,7.6,7.08,7.08,0,0,1-3.68,1m-25.39,1.57a13.9,13.9,0,0,1-6.74-1.92,8.43,8.43,0,0,1-2.87-2.5c-1.67-2.4-1.5-5.74-.23-8.38a19.24,19.24,0,0,1,5.78-6.5c2.28-1.79,5-3.47,7.81-3.47a6.46,6.46,0,0,1,1.15.1c12.39,2.07,7.36,22.67-4.9,22.67m11.32-37.33A47,47,0,0,0,464.38,92c-3.14,2.67-6,5.89-7.31,9.81-2.92,8.83-.57,20.08,5.83,26.83a23.68,23.68,0,0,0,16.78,7,21.52,21.52,0,0,0,3-.2,52.14,52.14,0,0,0-1.91,11c1.77,1.36,4,1.43,6.3,1.43h2.74c5.34,0,10.69-.24,16-.71,4.26-.37,8.72-1,12.17-3.5-.8-3.7-1.26-8.26-2.06-12,7-2.61,14.09-7,17.22-13.72,2.27-4.9,1.87-10.78-.31-15.71a31.52,31.52,0,0,0-10.35-12.23,46.52,46.52,0,0,0-27.72-8.83"/>
      <path class="cls-33" d="M579.49,93.29a55.39,55.39,0,0,1,2.37,8.89,109.17,109.17,0,0,1,1.69,19.09,105.08,105.08,0,0,1-1.46,17.53c9.38-5,15.85-10.05,20.06-14.41a54.09,54.09,0,0,0-.62-16.48,35.67,35.67,0,0,0-4.74-4.55,73.83,73.83,0,0,0-17.3-10.07"/>
      <path class="cls-33" d="M388.16,109.53A78.6,78.6,0,0,0,376.33,119c-5.84,5.73-10.79,12.9-12.23,20.86a155.63,155.63,0,0,0,22.53,8.77,72.27,72.27,0,0,0,3.76-22.91c0-1.66-.06-3.31-.18-5a46.17,46.17,0,0,0-2-11.23m28.82-14-2.29.88A142.57,142.57,0,0,0,389,109a46.46,46.46,0,0,1,2.19,11.72q.18,2.52.18,5a72.94,72.94,0,0,1-3.81,23.21,261.62,261.62,0,0,0,30.14,7.37,80.25,80.25,0,0,0,5.71-29.6c0-1.3,0-2.61-.1-3.91A79.55,79.55,0,0,0,417,95.51"/>
      <path class="cls-23" d="M605.13,75.21l-6,18.62h0l6-18.62"/>
      <path class="cls-33" d="M599.16,93.83l-.07.2.8.69,0,0c-.27-.28-.49-.57-.77-.85h0m-11.54-8.32-.09.11c-.1.11-.2.23-.29.35a79.73,79.73,0,0,1,8,5l.29-.17a22.89,22.89,0,0,0-7.86-5.31"/>
      <path class="cls-31" d="M605.16,74.25c-4.81,0-15.64,9.21-17.54,11.26a22.89,22.89,0,0,1,7.86,5.31l.52-.32c.38.63.74,1.26,1.09,1.91.72.56,1.38,1.1,2,1.62l.07-.2,6-18.62h0a2.42,2.42,0,0,0,.07-1h0"/>
      <path class="cls-33" d="M598.22,94.62l.51,1.09.38-.32-.89-.77m-11.35-7.7a2.67,2.67,0,0,0,.37,1.17,48.49,48.49,0,0,0,6.7,10,1.44,1.44,0,0,0,.89.61h.06a1.56,1.56,0,0,0,.93-.48l2.1-1.78c-.5-1.12-1-2.23-1.62-3.32a76.73,76.73,0,0,0-9.43-6.15"/>
      <path class="cls-42" d="M547.73,206.82a12.8,12.8,0,0,1-4.34,3.74,5,5,0,0,0,1.82-.53,6.16,6.16,0,0,0,2.52-3.21"/>
      <path class="cls-43" d="M546.06,199.58a4.59,4.59,0,0,0-2.31.79c-2.38,1.42-4.72,4.76-4.28,7.69a3.15,3.15,0,0,0,3.42,2.53l.5,0a12.8,12.8,0,0,0,4.34-3.74c1.25-3.15.94-7.24-1.67-7.24"/>
      <path class="cls-43" d="M416.4,236a3.89,3.89,0,0,0-1.94,1.06,1.3,1.3,0,0,0,.18,1.92,1.7,1.7,0,0,0,.83.17h0a6.14,6.14,0,0,0,1.54-.2,2.86,2.86,0,0,0,1.36-.7,1.3,1.3,0,0,0,.33-1.39c-.29-.66-1.1-.81-1.87-.81h-.42l0-.06"/>
      <path class="cls-42" d="M572.4,202.15a8.42,8.42,0,0,1-2.85,2.46,3.15,3.15,0,0,0,1.2-.36,4,4,0,0,0,1.65-2.1"/>
      <path class="cls-43" d="M571.3,197.39a3,3,0,0,0-1.51.52c-1.56.94-3.1,3.13-2.81,5.05a2.06,2.06,0,0,0,2.24,1.66h.33a8.42,8.42,0,0,0,2.85-2.46c.82-2.07.62-4.76-1.1-4.76"/>
      <path class="cls-44" d="M506.88,294.55c2,1.65,4.1,3.23,6.21,4.76a62.24,62.24,0,0,0,14.53,8.07,52.65,52.65,0,0,0,16.24,3.43c.73,0,1.47.05,2.2.05a49.63,49.63,0,0,0,5.32-.29l-1.42-.09c-1.11.07-2.22.1-3.32.1a54.41,54.41,0,0,1-32.06-10.71,65.9,65.9,0,0,1-7.7-5.32m-31.7-37.79h-.12c1.29,2.18,2.61,4.35,4,6.49a133.16,133.16,0,0,0,21.16,25.54q2.73,2.52,5.6,4.88l-1-.83c-12.26-10.64-22.41-24.52-29.66-36.09"/>
      <path class="cls-45" d="M475.16,256.73H475l0,0h.12l0,0"/>
      <path class="cls-46" d="M550.26,310.46l-.3,0,1.42.09.25,0-1.37-.08m-75.08-53.73h0l0,0c7.25,11.57,17.4,25.45,29.66,36.09l1,.83c.36.3.71.59,1.07.87a65.9,65.9,0,0,0,7.7,5.32l-.1-.07-.58-.45a65.93,65.93,0,0,1-9.06-6.5,134.25,134.25,0,0,1-16.59-17.58c-.61-.75-1.19-1.52-1.79-2.28-2.21-2.87-4.31-5.74-6.24-8.55l0,0,0-.07q-2.68-3.91-5-7.6"/>
      <path class="cls-47" d="M514.58,299.87a54.41,54.41,0,0,0,32.06,10.71c1.1,0,2.21,0,3.32-.1l-.91-.07-1.64,0a53.34,53.34,0,0,1-19.55-3.67,60.65,60.65,0,0,1-9.1-4.6c-1.4-.7-2.8-1.46-4.18-2.29"/>
      <path class="cls-48" d="M473,253.15c.68,1.2,1.37,2.4,2.07,3.58h.12c-.76-1.22-1.5-2.41-2.19-3.58"/>
      <path class="cls-49" d="M560.3,308.91a55.54,55.54,0,0,1-11.25,1.5l.91.07.3,0,1.37.08a60.5,60.5,0,0,0,8.67-1.63m-97.46-74.59L470.62,249q1.15,2.1,2.35,4.19c.69,1.17,1.43,2.36,2.19,3.58h0q2.29,3.67,5,7.6l0,.07,0,0c1.93,2.81,4,5.68,6.24,8.55.6.76,1.18,1.53,1.79,2.28a134.25,134.25,0,0,0,16.59,17.58,65.93,65.93,0,0,0,9.06,6.5l.58.45.1.07c1.38.83,2.78,1.59,4.18,2.29-1.78-1.09-3.51-2.27-5.17-3.53a141,141,0,0,1-12.69-10.57,132.17,132.17,0,0,1-21.29-25.17c-6-9.23-11.21-19-16.77-28.57"/>
      <path class="cls-50" d="M410,80.78l-1,.4a79.4,79.4,0,0,1,8,14.33l.95-.35a80.39,80.39,0,0,0-8-14.38m-2.9-3.9-.79.63q1.1,1.38,2.13,2.82l1-.4c-.74-1-1.51-2.05-2.3-3.05"/>
      <path class="cls-51" d="M417.34,157.26a78.92,78.92,0,0,1-6.41,12.3l.85.55a79.7,79.7,0,0,0,6.58-12.67l-1-.18m.59-62.1-.95.35a79.55,79.55,0,0,1,6.36,27.28c.07,1.3.1,2.61.1,3.91a80.25,80.25,0,0,1-5.71,29.6l1,.18a81,81,0,0,0,5.71-29.78c0-1.32,0-2.64-.1-4a80.71,80.71,0,0,0-6.42-27.58"/>
      <path class="cls-50" d="M381.49,96.91l-.81.62A30.07,30.07,0,0,1,387.2,107q.53,1.24,1,2.52L389,109c-.27-.79-.57-1.58-.9-2.35a31.09,31.09,0,0,0-6.64-9.7M378,94l-.6.81a29,29,0,0,1,2.5,2l.82-.62A29.15,29.15,0,0,0,378,94"/>
      <path class="cls-51" d="M389,109l-.87.57a46.17,46.17,0,0,1,2,11.23c.12,1.65.18,3.3.18,5a72.27,72.27,0,0,1-3.76,22.91l1,.3a72.94,72.94,0,0,0,3.81-23.21q0-2.52-.18-5A46.46,46.46,0,0,0,389,109"/>
      <path class="cls-52" d="M380.3,162.4c-.05.1-.11.19-.17.29l.43.26v-.44l-.25-.11"/>
      <path class="cls-50" d="M380.31,162.39h0l.25.11h0l-.24-.11"/>
      <path class="cls-52" d="M380.74,162.6l-.18.35.44.26.24-.4-.5-.21"/>
      <path class="cls-50" d="M380.74,162.59h0l.5.21h0l-.5-.22"/>
      <path class="cls-53" d="M380.55,162.51V163l.18-.35-.19-.09"/>
      <path class="cls-51" d="M386.3,149.59a71,71,0,0,1-6,12.8l.24.11h0l.19.09h0l.5.22a71.58,71.58,0,0,0,6-12.92l-1-.3"/>
      <path class="cls-52" d="M358.22,114.13l-.76.66c.36.42.7.84,1,1.27.17-.32.34-.65.52-1-.26-.33-.53-.65-.8-1"/>
      <path class="cls-50" d="M362.6,140.2a24.32,24.32,0,0,1-3.14,6.61l.84.57a25.31,25.31,0,0,0,3.21-6.69l-.59-.31-.32-.18m-1.49-22c-.07.13-.12.21-.13.24-.14.29-.28.58-.41.87a27.29,27.29,0,0,1,3.21,12.94,27.75,27.75,0,0,1-.89,7l.52.29.39.21a28.67,28.67,0,0,0-2.69-21.52M359,115.09c-.18.32-.35.65-.52,1a23.79,23.79,0,0,1,1.45,2.15l.12-.24h0v0l.44-.74a23.74,23.74,0,0,0-1.5-2.11"/>
      <path class="cls-52" d="M568.1,74.15l-.38.33,1,.43c-.21-.26-.43-.51-.65-.76"/>
      <path class="cls-50" d="M571.28,79.81a57.33,57.33,0,0,1,6.93,12.94l1.28.54A58.2,58.2,0,0,0,573,80.45l-1.67-.64m-3.56-5.33-.38.33q1.45,1.68,2.87,3.53l1.72.64q-1.54-2.15-3.18-4.07l-1-.43"/>
      <path class="cls-51" d="M578.21,92.75a53.16,53.16,0,0,1,2.65,9.61,108.09,108.09,0,0,1,1.68,18.91A103.86,103.86,0,0,1,581,139.39l1.13-.59a105.08,105.08,0,0,0,1.46-17.53,109.17,109.17,0,0,0-1.69-19.09,55.39,55.39,0,0,0-2.37-8.89l-1.28-.54"/>
      <path class="cls-52" d="M578.67,152.85l-.31.18.23.07c0-.08,0-.16.08-.25"/>
      <path class="cls-50" d="M578.67,152.83l-.33.19h0l.31-.18v0"/>
      <path class="cls-51" d="M581.87,140.06l-1.14.58a97.92,97.92,0,0,1-3.11,12.15l.72.23.33-.19a99,99,0,0,0,3.2-12.77"/>
      <path class="cls-51" d="M595.48,90.82l-.29.17c.55.39,1.07.78,1.57,1.16-.39-.42-.81-.87-1.28-1.33"/>
      <path class="cls-54" d="M596,90.5l-.52.32c.47.46.89.91,1.28,1.33l.33.26c-.35-.65-.71-1.28-1.09-1.91"/>
      <path class="cls-50" d="M598.73,95.71l-.81.68a53,53,0,0,1,3.61,11.52c.46.53.9,1.07,1.31,1.62a54.31,54.31,0,0,0-4.11-13.82"/>
      <path class="cls-51" d="M601.53,107.91a54.09,54.09,0,0,1,.62,16.48q.6-.63,1.14-1.23c.16-1.67.23-3.33.23-5a55.48,55.48,0,0,0-.68-8.63c-.41-.55-.85-1.09-1.31-1.62"/>
      <path class="cls-51" d="M596.3,93.07c.58,1.09,1.12,2.2,1.62,3.32l.81-.68-.51-1.09c-.6-.5-1.24-1-1.92-1.55"/>
      <path class="cls-52" d="M601.06,134.29c-.33.41-.66.83-1,1.24l-.13.41.36.59c.28-.74.53-1.49.77-2.24"/>
      <path class="cls-50" d="M601.1,134.15c-.32.42-.66.85-1,1.27l0,.11c.34-.41.67-.83,1-1.24l0-.14"/>
      <path class="cls-53" d="M600.06,135.53l-.31.37.48.78.06-.15-.36-.59.13-.41"/>
      <path class="cls-51" d="M603.11,124.85c-.38.39-.77.8-1.19,1.2a51.17,51.17,0,0,1-2.36,9.52l.19.33.31-.37,0-.11c.35-.42.69-.85,1-1.27a53,53,0,0,0,2-9.3"/>
      <path class="cls-55" d="M599.56,135.57c-.09.27-.19.54-.29.81l1,.36v-.06l-.48-.78-.19-.33"/>
      <path class="cls-52" d="M609.6,113.23l-.5.08h0a28.54,28.54,0,0,1-.22,3.45,8,8,0,0,0,.76-3l0-.54"/>
      <path class="cls-50" d="M609.1,113.31l-.5.09,0,.37A9.58,9.58,0,0,1,607.1,118c.12.48.22,1,.3,1.46a19.9,19.9,0,0,0,1.48-2.73,28.54,28.54,0,0,0,.22-3.45h0"/>
      <path class="cls-50" d="M357.05,133.58c0,.56-.06,1.12-.08,1.66a18.79,18.79,0,0,0,5.63,5l.32.18.59.31.42.22c.05-.35.11-.7.17-1l-.3-.16-.39-.21-.52-.29a17.75,17.75,0,0,1-5.84-5.62"/>
      <path class="cls-56" d="M559.6,148.26c-13.79,4.59-31.07,8.51-52.5,10.9a317.92,317.92,0,0,1-35.37,2h0a304.09,304.09,0,0,1-34.52-1.95c-.12.33-.24.65-.37,1a305.77,305.77,0,0,0,34.92,2,320.27,320.27,0,0,0,35.49-2c21.13-2.36,38.24-6.21,52-10.72l.39-1.19"/>
      <path class="cls-51" d="M364.1,139.86c-.06.35-.12.7-.17,1a159.51,159.51,0,0,0,22.37,8.68l1,.3a261.34,261.34,0,0,0,30.08,7.37l1,.18c5.77,1.05,11.93,2,18.45,2.73.13-.33.25-.65.37-1-6.51-.74-12.67-1.67-18.44-2.71l-1-.18a261.62,261.62,0,0,1-30.14-7.37l-1-.3a155.63,155.63,0,0,1-22.53-8.77"/>
      <path class="cls-51" d="M607.1,118a29.39,29.39,0,0,1-3.11,4.32c-.22.27-.45.53-.7.81s-.74.81-1.14,1.23c-4.21,4.36-10.68,9.43-20.06,14.41l-1.13.59a150.07,150.07,0,0,1-21.36,8.87l-.39,1.19a152.66,152.66,0,0,0,21.52-8.81l1.14-.58c2.28-1.19,4.39-2.39,6.35-3.58a74.92,74.92,0,0,0,13.7-10.43c.42-.4.81-.81,1.19-1.2.6-.63,1.15-1.24,1.66-1.84a34.39,34.39,0,0,0,2.63-3.52c-.08-.49-.18-1-.3-1.46"/>
      <path class="cls-52" d="M354.29,128.67l-.47.09s.1.46.33,1.17c0-.42.09-.84.14-1.26"/>
      <path class="cls-50" d="M354.81,128.56l-.52.11c-.05.42-.1.84-.14,1.26a18.78,18.78,0,0,0,1.87,3.92c0-.59.07-1.19.13-1.8a17.74,17.74,0,0,1-1-2.36c-.12-.36-.2-.64-.26-.84l-.07-.29"/>
      <polyline class="cls-52" points="353.82 128.76 353.82 128.76 353.82 128.76 353.82 128.76"/>
      <path class="cls-52" d="M356.36,142.49a30.77,30.77,0,0,0,1,4.76l1-.31s-.08-.25-.21-.74c-.07-.27-.15-.6-.24-1a27.78,27.78,0,0,1-1.51-2.71"/>
      <path class="cls-57" d="M427.51,73.66l-2.68.77.77.84c.92-.28,1.86-.55,2.81-.81l-.9-.8M547.3,72l.63,1.17,1,.21c-.26-.4-.52-.8-.79-1.2L547.3,72"/>
      <path class="cls-50" d="M424.83,74.43a158.5,158.5,0,0,0-15.47,5.5l-1,.4a128,128,0,0,0-27.65,15.88l-.82.62c-12,9.36-17.85,17.87-19.41,20.37l-.44.74v0h0l-.12.24a42.08,42.08,0,0,0-3.8,13.84c-.06.61-.1,1.21-.13,1.8,0,.87-.08,1.71-.08,2.53a45.28,45.28,0,0,0,.42,6.11,27.78,27.78,0,0,0,1.51,2.71,42.41,42.41,0,0,1-.91-8.82c0-.38,0-.76,0-1.14,0-.54,0-1.1.08-1.66a41,41,0,0,1,3.52-14.29c.13-.29.27-.58.41-.87,0,0,.06-.11.13-.24l.19-.3c1.38-2.23,7.12-10.84,19.38-20.35l.81-.62A126.81,126.81,0,0,1,409,81.18l1-.4a153.48,153.48,0,0,1,15.64-5.51l-.77-.84"/>
      <path class="cls-50" d="M548.14,72.15c.27.4.53.8.79,1.2a167.2,167.2,0,0,1,22.35,6.46l1.67.64c3.69,1.42,7,2.89,9.91,4.35,1.42.71,2.75,1.42,4,2.12a1,1,0,0,1,0-.17,1.8,1.8,0,0,1,.36-.78c-.64-.36-1.3-.72-2-1.07a9.24,9.24,0,0,0-.92-.11c-1.41-.11-1.9-.56-1.71-1.23-3.16-1.55-6.72-3.09-10.7-4.58l-1.72-.64a171.53,171.53,0,0,0-22.07-6.19"/>
      <path class="cls-58" d="M582.63,83.56c-.19.67.3,1.12,1.71,1.23a9.24,9.24,0,0,1,.92.11c-.85-.45-1.72-.89-2.63-1.34"/>
      <path class="cls-59" d="M485.75,66.28c-23.12,0-42.35,2.92-58.24,7.38l.9.8c15.68-4.33,34.62-7.17,57.34-7.17h1.5c25,.14,44.89,2.46,60.68,5.85L547.3,72c-15.73-3.31-35.44-5.56-60-5.69h-1.5"/>
      <path class="cls-51" d="M587.24,86a1.8,1.8,0,0,0-.36.78,1,1,0,0,0,0,.17,76.73,76.73,0,0,1,9.43,6.15c.68.53,1.32,1.05,1.92,1.55l.89.77.78-.67-.8-.69c-.07.24-.14.47-.22.7a29.5,29.5,0,0,0-2.11-2.58c-.5-.38-1-.77-1.57-1.16a79.73,79.73,0,0,0-8-5"/>
      <path class="cls-54" d="M596.76,92.15a29.5,29.5,0,0,1,2.11,2.58c.08-.23.15-.46.22-.7-.62-.52-1.28-1.06-2-1.62l-.33-.26"/>
      <path class="cls-52" d="M600.94,95.68a38.25,38.25,0,0,1,4.45,5.83l.43-.25a28.05,28.05,0,0,0-4.88-5.58"/>
      <path class="cls-50" d="M599.89,94.72l-.78.67q.67.58,1.26,1.14a36.28,36.28,0,0,1,3.57,3.83c.36.45.61.81.78,1l.23.36.44-.26a38.25,38.25,0,0,0-4.45-5.83l-1.05-1"/>
      <path class="cls-19" d="M595.55,75.32c-.85.34-1.68.7-2.51,1.08h0c.83-.38,1.67-.74,2.51-1.08M605,73.08q-.64,0-1.29.12a2.54,2.54,0,0,1,.61.07l.68-.19"/>
      <path class="cls-60" d="M603.71,73.2a33.15,33.15,0,0,0-8.16,2.12c-.84.34-1.68.7-2.51,1.08a34.25,34.25,0,0,0-10,7.31,64.51,64.51,0,0,1,10.47-6.4,62.62,62.62,0,0,1,10.84-4,2.54,2.54,0,0,0-.61-.07"/>
      <path class="cls-44" d="M591.36,148.56a32.23,32.23,0,0,0,5.63,2,31.76,31.76,0,0,0,7.34.88,26.32,26.32,0,0,0,7.74-1.13l-.23,0-.26,0a21.72,21.72,0,0,1-5.19.54H605a33,33,0,0,1-8.5-1.08c-1.79-.36-3.54-.79-5.15-1.27"/>
      <path class="cls-61" d="M611.58,150.37l-.35,0a21.65,21.65,0,0,1-4.87.48h0a21.72,21.72,0,0,0,5.19-.54m-20.28-1.84.06,0c1.61.48,3.36.91,5.15,1.27l-.21-.06c-1.75-.35-3.44-.78-5-1.24"/>
      <path class="cls-47" d="M612.07,150.3l-.23,0,.23,0h0m-15.56-.47a33,33,0,0,0,8.5,1.08h.69a53.26,53.26,0,0,1-9.19-1.07"/>
      <path class="cls-62" d="M583.75,143.32a26.52,26.52,0,0,0,7.55,5.21c1.56.46,3.25.89,5,1.24l.21.06a53.26,53.26,0,0,0,9.19,1.07h.66a21.65,21.65,0,0,0,4.87-.48,42.38,42.38,0,0,1-4.9.29,36.18,36.18,0,0,1-9.1-1.12,38.67,38.67,0,0,1-13.48-6.26"/>
      <path class="cls-25" d="M557.16,178.23l-1.51.22,1.47-.12,0-.1"/>
      <path class="cls-63" d="M542.51,181.56a35,35,0,0,0-14.61,8.32l.24.13a52.47,52.47,0,0,1,14.37-8.45m16.69-14.34A48.51,48.51,0,0,1,554,178.65c.56-.08,1.12-.14,1.69-.2l1.51-.22a88.6,88.6,0,0,0,2.66-10.35l-.62-.66"/>
      <path class="cls-64" d="M561,161.55l-.76.41a28.73,28.73,0,0,1-1,5.26l.62.66c.42-2.12.8-4.25,1.16-6.33"/>
      <path class="cls-65" d="M428.76,177.8l-.37,1.49.44.25c0-.58-.05-1.16-.07-1.74"/>
      <path class="cls-66" d="M428.77,177.76v0c0,.58,0,1.16.07,1.74h0c0-.6-.06-1.19-.07-1.79M560.22,162c-2.88,1.47-14,6.63-34.9,10.47a9.85,9.85,0,0,1-.35,3.85c-1.1,3.9-4,7.33-8.1,9.77a36,36,0,0,1,11,3.83,35,35,0,0,1,14.61-8.32A48.6,48.6,0,0,1,554,178.65a48.51,48.51,0,0,0,5.24-11.43,28.73,28.73,0,0,0,1-5.26"/>
      <path class="cls-67" d="M451,176.48a40.61,40.61,0,0,0-3.38,6.14c-.5,1.13-1,2.26-1.53,3.36a87,87,0,0,0,12.64,1.73,41.74,41.74,0,0,1,7.88-10.81c-5.28,0-10.49-.16-15.61-.42m48.76-.74q-8.36.69-18,1a98.83,98.83,0,0,0-8.64,11.09c5-.22,10-.67,15-1.21l1.39-.15c.86-1,1.76-2,2.71-3,2.44-2.63,5-5.16,7.54-7.65"/>
      <path class="cls-68" d="M481.8,176.7q-2.91.08-5.94.11-3.94.09-7.84.09h-1.41a41.74,41.74,0,0,0-7.88,10.81c2.55.17,5.12.24,7.7.24,2.24,0,4.48-.06,6.73-.16a98.83,98.83,0,0,1,8.64-11.09m-52.28-2h0l-.75,3c0,.6,0,1.19.07,1.79A60.94,60.94,0,0,0,446.09,186c.56-1.1,1-2.23,1.53-3.36a40.61,40.61,0,0,1,3.38-6.14c-6.58-.33-13-.85-19.22-1.55l-2.26-.21m92.8-1.76c-6.6,1.11-14.11,2.09-22.56,2.78-2.57,2.49-5.1,5-7.54,7.65-1,1-1.85,2-2.71,3a159.64,159.64,0,0,1,17.07-1.23c1.53,0,3.05.05,4.57.15,5.64-1.93,9.68-5.59,10.89-9.89a6.88,6.88,0,0,0,.28-2.5"/>
      <path class="cls-69" d="M525.32,172.43l-3,.53a6.88,6.88,0,0,1-.28,2.5c-1.21,4.3-5.25,8-10.89,9.89a51.64,51.64,0,0,1,5.72.7c4.1-2.44,7-5.87,8.1-9.77a9.85,9.85,0,0,0,.35-3.85"/>
      <path class="cls-70" d="M431.78,174.93c6.21.7,12.64,1.22,19.22,1.55,5.12.26,10.33.39,15.61.42H468q3.9,0,7.84-.09c-1.31,0-2.63,0-4,0-12,0-25.37-.56-40.12-1.9"/>
      <polyline class="cls-19" points="334.13 199.01 356.39 201.51 356.51 200.51 334.24 198.01"/>
      <polyline class="cls-19" points="401.8 217.81 397.05 220.85 417.88 224.97 426.5 220.28 401.8 217.81"/>
      <path class="cls-71" d="M430.44,245.77a6.38,6.38,0,0,0,5.9,4.09,5.33,5.33,0,0,0,1.05-.1l-.19-1a4.12,4.12,0,0,1-.86.09,5.41,5.41,0,0,1-4.95-3.42l-.95.34Z"/>
      <path class="cls-71" d="M536.94,212.83a10.19,10.19,0,0,0,8.22,4.27h.36l0-1h-.32a9.2,9.2,0,0,1-7.39-3.84l-.82.58h0"/>
      <path class="cls-71" d="M566.71,207.61a11.22,11.22,0,0,0,4.32.87,10.84,10.84,0,0,0,1.51-.1l-.14-1a8.93,8.93,0,0,1-1.37.1,10,10,0,0,1-3.93-.8l-.39.94Z"/>
      <path class="cls-19" d="M357.54,199.59c2.49-6.46,7.46-11.78,13.23-15.72s12.33-6.6,19-9l-.34-.95c-6.66,2.36-13.31,5-19.2,9.07s-11,9.49-13.61,16.19l1,.37Z"/>
      <path class="cls-19" d="M360.06,204.77a95.8,95.8,0,0,0,41.5,16l.13-1a95,95,0,0,1-41.06-15.85l-.57.83Z"/>
      <path class="cls-19" d="M450.8,219.29c9.29-7.47,20.88-11.73,32.68-13.77a141.64,141.64,0,0,1,24.11-1.79c3.93,0,7.86.1,11.79.23l0-1c-3.94-.13-7.89-.23-11.83-.23a143,143,0,0,0-24.28,1.8c-11.92,2.06-23.68,6.37-33.15,14l.64.79Z"/>
      <path class="cls-19" d="M525,202.16c1.67-6.35,7.71-10.73,13.93-13.33s13.16-4.06,20-5.32l-.09-.49,0,.5,49.15-1.8-28.76-26.1-.68.75,26.92,24.43-46.71,1.71h0c-6.84,1.25-13.73,2.66-20.19,5.37s-12.7,7.17-14.52,14l1,.26"/>
      <path class="cls-72" d="M538.72,212.18l-.89.14,0,.05.86-.19"/>
      <path class="cls-73" d="M536.09,212.6Q527,214,518,215.32c-6.93,1-13.86,1.92-20.8,2.71s-13.9,1.57-20.86,2.24-13.93,1.27-20.91,1.81q10.5-.26,21-1c7-.5,13.95-1.22,20.91-2s13.88-1.8,20.8-2.94q9.06-1.49,18.07-3.36a.54.54,0,0,0-.07-.13"/>
      <path class="cls-72" d="M537.62,212.36l-1.53.24a.54.54,0,0,1,.07.13l1.34-.29.12-.08"/>
      <path class="cls-74" d="M537.83,212.32l-.21,0-.12.08.36-.07,0-.05"/>
      <path class="cls-73" d="M535.61,218.65l-36,4.65-36,4.44q9.07-.56,18.12-1.43c6-.57,12-1.29,18.06-2s12-1.6,18-2.54,11.95-2,17.9-3.11"/>
      <path class="cls-73" d="M570.16,210.34c-2.12.19-4.14.68-6.19,1.06s-4.06.9-6.08,1.61l.86,0a29.07,29.07,0,0,0,5.43-.64,25.48,25.48,0,0,0,6-2"/>
      <path class="cls-73" d="M563.48,205.21a11,11,0,0,0-2.38.35,8.8,8.8,0,0,0-2.77,1.28,4.82,4.82,0,0,0,.65,0,11.12,11.12,0,0,0,2.39-.35,8.86,8.86,0,0,0,2.68-1.22l0-.07-.55,0"/>
      <path class="cls-72" d="M564,205.24l0,.07.09-.06H564"/>
      <path class="cls-75" d="M596.53,200.43l0,0,.09,0h-.07"/>
      <path class="cls-76" d="M596.52,200.42v0h0l0,0h0"/>
      <path class="cls-73" d="M594,200.32c-1.51,0-3,.09-4.51.18a45.59,45.59,0,0,0-7,1.07c.87.08,1.73.11,2.6.11,1.51,0,3-.09,4.51-.18a47.09,47.09,0,0,0,6.94-1v0c-.84-.07-1.68-.1-2.52-.1"/>
      <path class="cls-75" d="M607.74,184.32l-2.68.06-.12.22,2.8-.28"/>
      <path class="cls-77" d="M605.06,184.38h0l-.12.22h0l.12-.22"/>
      <path class="cls-73" d="M605.06,184.38c-3.74.1-7.47.24-11.21.42l-13.86.75-13.85,1c-4.61.35-9.22.78-13.83,1.25q6.95-.15,13.88-.48l13.87-.75,13.84-1q5.54-.42,11-1l.12-.22"/>
      <path class="cls-75" d="M601.67,190.76l-.3.55c1.19-.11,2.39-.25,3.57-.42-1.09-.07-2.18-.11-3.27-.13"/>
      <path class="cls-76" d="M601.67,190.76l-.3.55h0l.3-.55h0"/>
      <path class="cls-73" d="M599.78,190.74c-2.38,0-4.76.08-7.14.14-4.09.22-8.19.42-12.27,1,1.72.11,3.44.14,5.16.14,2.38,0,4.77-.07,7.15-.13,2.9-.16,5.8-.3,8.69-.58l.3-.55-1.89,0"/>
      <path class="cls-73" d="M586.42,210.18a56.59,56.59,0,0,0-16.15,4.94,131,131,0,0,0-14.78,8.27c-4.73,3.06-9.41,6.17-14.21,9.1a100.74,100.74,0,0,1-15,7.7,80.79,80.79,0,0,0,15.37-7c4.9-2.8,9.59-5.93,14.36-8.92a146.63,146.63,0,0,1,14.56-8.42,65.44,65.44,0,0,1,15.82-5.64"/>
      <path class="cls-73" d="M547.2,223.55c-3.91,1.42-7.72,3-11.63,4.3s-7.81,2.6-11.75,3.94a63,63,0,0,0,12.09-3,61.92,61.92,0,0,0,11.29-5.25"/>
      <path class="cls-73" d="M459,241.38a47.87,47.87,0,0,0-5.45.29,19.77,19.77,0,0,0,5.45.72,19.41,19.41,0,0,0,5.45-.74,50.22,50.22,0,0,0-5.45-.27"/>
      <path class="cls-73" d="M459.93,250.21a103.67,103.67,0,0,0-10.55.46,103.4,103.4,0,0,0,10.55.55,100.51,100.51,0,0,0,10.55-.46,100.89,100.89,0,0,0-10.55-.55"/>
      <path class="cls-73" d="M428.56,235.14a1.7,1.7,0,0,0-1,.28,2,2,0,0,0,1.19.73h.4a1.6,1.6,0,0,0,1-.28,2,2,0,0,0-1.19-.73h-.39"/>
      <path class="cls-73" d="M425.85,242.79a3.22,3.22,0,0,0-1.74.5,3.22,3.22,0,0,0,3.48,0,3.22,3.22,0,0,0-1.74-.5"/>
      <path class="cls-73" d="M367.34,212.2a77.62,77.62,0,0,0,9.22,9.09,82.72,82.72,0,0,0,22.2,13.29,75.94,75.94,0,0,0,12.37,3.83,113.66,113.66,0,0,1-12.07-4.54,100.17,100.17,0,0,1-11.4-5.93A102,102,0,0,1,377,220.69a114.64,114.64,0,0,1-9.7-8.49"/>
      <path class="cls-73" d="M385.1,219.51a52.5,52.5,0,0,0,14.65,8.16,53.79,53.79,0,0,0,14.8,3.14l.21-.2a83.31,83.31,0,0,1-14.66-3.89,86.15,86.15,0,0,1-15-7.21"/>
      <path class="cls-72" d="M414.76,230.61l-.21.2c.55,0,1.11.05,1.67.06l-1.46-.26"/>
      <path class="cls-78" d="M404.92,201.61l-27.22,1.46.06,1,27.71-1.49a4.56,4.56,0,0,1-.55-1"/>
      <path class="cls-79" d="M406.63,201.52l-1.71.09a4.56,4.56,0,0,0,.55,1l1.22-.07-.06-1"/>
      <path class="cls-78" d="M380.53,191.57c-.34.26-.68.52-1,.8L405,198.62a5.68,5.68,0,0,1,.45-.93l-24.9-6.12"/>
      <path class="cls-79" d="M405.43,197.69a5.68,5.68,0,0,0-.45.93l1.56.38.24-1-1.35-.33"/>
      <path class="cls-80" d="M377.89,190.93l-1.07.78,2.7.66c.33-.28.67-.54,1-.8l-2.64-.64"/>
      <path class="cls-81" d="M376.08,190.48l-.46.39-.12.51,1.32.33,1.07-.78-1.81-.45"/>
      <path class="cls-82" d="M375.74,190.4l-.12.47.46-.39-.34-.08"/>
      <path class="cls-78" d="M409.56,205.71l-20.14,6.35.3,1,20.62-6.49-.15-.46-.63-.36"/>
      <path class="cls-79" d="M410,205.56l-.47.15.63.36-.16-.51"/>
      <path class="cls-78" d="M416.22,208.88l-9.86,7.31.6.81,10.39-7.69-1.13-.43"/>
      <path class="cls-79" d="M417.38,208l-1.16.85,1.13.43.84-.62-.28-.37-.53-.29"/>
      <path class="cls-83" d="M417.58,207.88l-.2.15.53.29-.33-.44"/>
      <path class="cls-78" d="M425.18,211.59l-5,7.64.75.49H421l5.22-7.9-1.06-.24"/>
      <path class="cls-79" d="M425.6,211l-.42.63,1.06.24.32-.49-.4-.26-.56-.12"/>
      <path class="cls-83" d="M425.72,210.78l-.12.18.56.12-.44-.3"/>
      <polyline class="cls-84" points="420.89 219.72 420.99 219.78 421.02 219.73 420.89 219.72"/>
      <path class="cls-78" d="M430.64,213.43h-1v7l1,0v-7"/>
      <path class="cls-85" d="M429.63,220.4v1h1v-1l-1,0"/>
      <path class="cls-86" d="M583.8,163.29l-.8.27.82-.11,0-.16"/>
      <path class="cls-87" d="M583.68,162.45l-22.51,3.05.13,1,21.7-2.95.8-.27-.12-.84"/>
      <path class="cls-86" d="M592.6,169.33,569.06,172l0,1,23.63-2.66-.12-1"/>
      <path class="cls-80" d="M564.62,173l0,.5.38,0c-.14-.16-.29-.31-.43-.46"/>
      <path class="cls-87" d="M569.06,172l-4.5.5.06.51c.14.15.29.3.43.46l4-.46,0-1"/>
      <path class="cls-78" d="M568.89,177.48v.09a.08.08,0,0,0,0-.09"/>
      <path class="cls-86" d="M599.28,176.39l-30.07.58v.36h-.34v.14a.08.08,0,0,1,0,.09V178l30.4-.59,0-1"/>
      <path class="cls-87" d="M569.21,177h-.33v.37h.34V177"/>
    </g>
    <path class="cls-88" d="M435.81,243.16l5.62,5.63s-22.78,53.37-67.26,103.06"/>
  </g>
  <path class="cls-89" d="M193.25,316.14c27.84,9.45,57.77,26.11,60.64,52.28l88.9,16.16c7.95,1.44,16.1,2.89,24.15,1.89,13.37-1.68,24.38-9.81,36.78-14.51,31.38-11.92,67.1-1,100,7,3.5.85,7.22,1.66,10.7.77,5.38-1.39,8.37-6.26,11.41-10.41,24.91-34,79-36.94,124.94-36.62,6.24,0,12.74,0,18.35-2.37s9.54-6.77,13.77-10.71c39.78-37,106-37.49,163.19-29.8,54.38,7.31,109.73,20.41,152.45,51,9.77,7,19,15.14,23.71,25.43,9.42,20.7-2.52,45.23-22,59.46s-44.9,20.25-69.67,24.86c-56.39,10.5-113.9,15.59-171.38,19.29-242.39,15.61-486,6.72-728.22-11.26-21-1.55-43.68-3.85-58.81-16.72C-65.72,409.56-28.1,367-5.17,339.3,20.6,308.17,66,299,108.17,300.2,137.26,301,166.14,306.93,193.25,316.14Z"/>
  <g>
    <rect class="cls-90" x="39.73" y="326.3" width="192.01" height="70.12" rx="35.06"/>
    <rect class="cls-90" x="120.89" y="298.76" width="192.01" height="70.12" rx="35.06"/>
  </g>
</svg>
