<svg id="Layer_1" data-name="Layer 1" xmlns="http://www.w3.org/2000/svg" viewBox="0 0 1920 1080">
  <defs>
    <style>
      .cls-1, .cls-2, .cls-3, .cls-4, .cls-5, .cls-6, .cls-7 {
        fill: none;
        stroke: #fff;
        stroke-linejoin: round;
        stroke-width: 3px;
      }

      .cls-2 {
        stroke-dasharray: 6.04 6.04;
      }

      .cls-3 {
        stroke-dasharray: 6.14 6.14;
      }

      .cls-4 {
        stroke-dasharray: 6.79 6.79;
      }

      .cls-5 {
        stroke-dasharray: 5.56 5.56;
      }

      .cls-6 {
        stroke-dasharray: 5.99 5.99;
      }

      .cls-7 {
        stroke-dasharray: 3.9 3.9;
      }
    </style>
  </defs>
  <title>path-above</title>
  <g id="Map_Path_1" data-name="Map Path 1">
    <g>
      <path class="cls-1" d="M666.1,800.7c-1-.2-1.9-.3-3-.5"/>
      <path class="cls-2" d="M657.2,799.2c-1.6-.3-3-.5-4.1-.7-15.2-2.3-13.1,6.9-10.3,10.7s0,11.1,0,11.1-30.1,95.8-36.7,105.8a91.06,91.06,0,0,1-12.3,15.3s-62.8,17.7-74.6,22.3-11.3,7.8-11.3,7.8,2.9,12,5.5,22.6-12.6,6.1-12.6,6.1L384.7,980"/>
      <path class="cls-1" d="M381.7,979.5l-3-.5c-.3-1-.6-2-.8-2.9"/>
      <path class="cls-3" d="M375.8,970.3c-10.4-24.5-28.5-16.2-37.1-10.4"/>
      <path class="cls-1" d="M336.2,961.8a21.66,21.66,0,0,0-2.3,1.9c0-1-.1-2-.2-3"/>
      <path class="cls-4" d="M333,954c-3.6-21.5-16-24.4-23.6-24"/>
      <path class="cls-1" d="M306,930.3a18,18,0,0,0-2.9.7c-.1-1-.2-2-.4-3"/>
      <path class="cls-5" d="M301.8,922.6c-6.6-33.5-25.6-32.2-34.9-29.3"/>
      <path class="cls-1" d="M264.3,894.2a22.15,22.15,0,0,0-2.7,1.3l-.6-3"/>
      <path class="cls-6" d="M259.6,886.7c-7.5-26.7-23.7-25.1-32.2-22.1"/>
      <path class="cls-1" d="M224.7,865.7a22.15,22.15,0,0,0-2.6,1.4l-1.3-2.7"/>
      <line class="cls-7" x1="219.1" y1="860.9" x2="216.6" y2="855.6"/>
      <line class="cls-1" x1="215.7" y1="853.8" x2="214.4" y2="851.1"/>
    </g>
  </g>
</svg>
