<svg id="Layer_1" data-name="Layer 1" xmlns="http://www.w3.org/2000/svg" viewBox="0 0 756.07 642.38"><defs><style>.cls-1{fill:#8c7b77;}</style></defs><path class="cls-1" d="M-.51,279.44V388a76.31,76.31,0,0,0,76.31,76.3h65.13V203.13H75.8A76.32,76.32,0,0,0-.51,279.44Z"/><path class="cls-1" d="M395.83,53.43,227.54,195.17a33.88,33.88,0,0,1-21.82,8H165.41V464.25h40.32a33.83,33.83,0,0,1,21.81,8L395.83,614a13.94,13.94,0,0,0,22.93-10.66V64.1A14,14,0,0,0,395.83,53.43Z"/><path class="cls-1" d="M584.44,95a16.23,16.23,0,1,0-23.87,22,322.35,322.35,0,0,1,0,433.32,16.27,16.27,0,0,0,.45,22.47h0a16.22,16.22,0,0,0,23.42-.47,354.86,354.86,0,0,0,0-477.33Z"/><path class="cls-1" d="M532.19,147.92a16.27,16.27,0,0,0-23.71-.81h0a16.18,16.18,0,0,0-.75,22.14,248.15,248.15,0,0,1,0,328.89,16.18,16.18,0,0,0,.75,22.14h0a16.27,16.27,0,0,0,23.71-.81,280.61,280.61,0,0,0,0-371.55Z"/><path class="cls-1" d="M479.66,200.62a16.21,16.21,0,0,0-23.8-.9h0a16.2,16.2,0,0,0-.93,21.92,174,174,0,0,1,0,224.09,16.2,16.2,0,0,0,.93,21.92h0a16.21,16.21,0,0,0,23.8-.9,206.43,206.43,0,0,0,0-266.15Z"/></svg>