<svg id="Layer_1" data-name="Layer 1" xmlns="http://www.w3.org/2000/svg" viewBox="0 0 264.38 292.1">
  <defs>
    <style>
      .cls-1, .cls-7 {
        fill: #515151;
      }

      .cls-1, .cls-6 {
        opacity: 0.5;
      }

      .cls-1 {
        isolation: isolate;
      }

      .cls-2 {
        fill: #e8edec;
      }

      .cls-3 {
        fill: #cec8c0;
      }

      .cls-4 {
        fill: #a09e9c;
      }

      .cls-5 {
        fill: #d73648;
      }

      .cls-8 {
        fill: #fff;
      }

      .cls-9 {
        fill: #232828;
      }
    </style>
  </defs>
  <title>poster</title>
  <g id="Layer_2" data-name="Layer 2">
    <g id="Layer_1-2" data-name="Layer 1-2">
      <polygon class="cls-1" points="233.49 279.61 51.59 292.1 0 27.01 181.9 14.51 233.49 279.61"/>
      <polygon class="cls-2" points="264.38 265.1 82.48 277.59 30.89 12.5 212.79 0 264.38 265.1"/>
      <polygon class="cls-3" points="203.32 33.4 89.27 41.23 86.73 28.18 200.78 20.34 203.32 33.4"/>
      <polygon class="cls-4" points="232.38 182.74 82 193.07 79.46 180.01 229.84 169.68 232.38 182.74"/>
      <polygon class="cls-4" points="236.75 205.19 86.37 215.52 83.83 202.46 234.21 192.13 236.75 205.19"/>
      <polygon class="cls-4" points="241.12 227.64 90.74 237.97 88.2 224.91 238.58 214.58 241.12 227.64"/>
      <polygon class="cls-4" points="245.49 250.09 95.11 260.42 92.57 247.37 242.94 237.03 245.49 250.09"/>
      <polygon class="cls-3" points="152.43 123.31 69.53 129 66.99 115.95 149.89 110.26 152.43 123.31"/>
      <polygon class="cls-3" points="156.58 144.63 73.68 150.32 71.14 137.27 154.04 131.57 156.58 144.63"/>
      <polygon class="cls-3" points="160.53 164.92 77.63 170.62 75.09 157.56 157.99 151.87 160.53 164.92"/>
      <polygon class="cls-4" points="214.71 91.96 64.33 102.29 55.6 57.39 205.98 47.06 214.71 91.96"/>
      <path class="cls-5" d="M74,19.25s0,.07-.06.08h0c-6.1,2.37-11.08,10.23-12,18.9a26.86,26.86,0,0,0-.14,3.91s-1,.18-.75-4.26c-7.4-3.4-7.16-15.65,12.86-18.71h0a.12.12,0,0,1,.11.07m-.54,2.85a.08.08,0,0,0-.1-.07.08.08,0,0,0-.08.06c-1.13,3-.82,7-1.5,10.24-.77,3.65-2.91,6.23-7,6.27l1.68,8.65S55,43.8,53.64,37.08L51.19,24.49l8.64-1.29h0a.07.07,0,0,0,.07-.07h0a.1.1,0,0,0-.1-.07h0L50,23.72l2.62,13.44c1.47,7.56,14,11,14,11S77.56,43,76.1,35.54L73.48,22.1Z"/>
      <g class="cls-6">
        <polygon class="cls-7" points="228.01 160.28 173.77 164.01 163.13 109.35 217.37 105.62 228.01 160.28"/>
      </g>
      <polygon class="cls-8" points="233.94 151.88 179.7 155.6 169.06 100.94 223.31 97.21 233.94 151.88"/>
      <path class="cls-9" d="M178,110.1l2.09,10.9a.94.94,0,0,0,1,.72l11.57-.79a.71.71,0,0,0,.69-.73.41.41,0,0,0,0-.11l-2.12-10.89a1,1,0,0,0-1-.72l-11.57.8a.7.7,0,0,0-.66.74S178,110.07,178,110.1Zm1.81.66,9.91-.68,1.82,9.34-9.92.68Zm7.74,1-5,.34a.71.71,0,0,0-.69.73.41.41,0,0,0,0,.11l.91,4.66a.94.94,0,0,0,1,.72l5-.34a.68.68,0,0,0,.68-.7.57.57,0,0,0,0-.13l-.9-4.67a1,1,0,0,0-1-.67Zm.08,4.72-3.31.23-.6-3.11,3.3-.23Zm7.46,16.84-11.57.79a.7.7,0,0,0-.68.72.49.49,0,0,0,0,.12L185,145.84a.94.94,0,0,0,1,.72l11.58-.79a.71.71,0,0,0,.68-.74.34.34,0,0,0,0-.1L196,134.09a.94.94,0,0,0-.94-.72Zm1.3,11-9.92.68-1.82-9.34,9.92-.68Zm-7.75-1,5-.34a.69.69,0,0,0,.69-.71.49.49,0,0,0,0-.12l-.91-4.67a.94.94,0,0,0-1-.72l-5,.34a.68.68,0,0,0-.68.7.57.57,0,0,0,0,.13l.91,4.67a1,1,0,0,0,1,.72Zm-.08-4.72,3.31-.23.6,3.11-3.3.23Zm36.08,4.61-.91-4.66a1,1,0,0,0-1-.73l-5,.35a.7.7,0,0,0-.68.72.41.41,0,0,0,0,.11l.91,4.67a.94.94,0,0,0,1,.72l5-.34a.71.71,0,0,0,.65-.77s0,0,0-.07Zm-1.8-.66-3.31.23-.61-3.12,3.31-.22Zm-19.47-1a.69.69,0,0,0,.69-.71.49.49,0,0,0,0-.12l-.61-3.12a.94.94,0,0,0-1-.72l-3.3.23a.71.71,0,0,0-.69.73.41.41,0,0,0,0,.11l.61,3.11a.94.94,0,0,0,1,.72Zm-3.08-2.94,1.65-.11.3,1.55-1.65.12Zm20.11-17.15a.94.94,0,0,0-1-.72l-3.3.23a.69.69,0,0,0-.69.71.49.49,0,0,0,0,.12l.61,3.11a.94.94,0,0,0,1,.72l3.31-.22a.71.71,0,0,0,.69-.73.41.41,0,0,0,0-.11Zm-1.2,2.45-1.65.11-.3-1.56,1.65-.11Zm-7.51,4.45.61,3.12a.94.94,0,0,0,1,.72l3.3-.23a.69.69,0,0,0,.69-.71.49.49,0,0,0,0-.12l-.61-3.12a.94.94,0,0,0-1-.72l-3.3.23a.7.7,0,0,0-.72.68.49.49,0,0,0,0,.12Zm1.81.67,1.65-.11.3,1.55-1.65.12Zm-5.95-9,11.57-.8a.68.68,0,0,0,.68-.7.57.57,0,0,0,0-.13l-2.12-10.9a.94.94,0,0,0-1-.72l-11.57.8a.69.69,0,0,0-.69.71.49.49,0,0,0,0,.12l2.12,10.9a.93.93,0,0,0,1,.64Zm-1.29-11,9.91-.68,1.83,9.3-9.92.68Zm7.74,1-5,.34a.71.71,0,0,0-.69.73.41.41,0,0,0,0,.11l.91,4.67a.94.94,0,0,0,1,.72l5-.34a.7.7,0,0,0,.68-.72.49.49,0,0,0,0-.12L215,110.7a.94.94,0,0,0-1-.7Zm.08,4.73-3.31.22-.6-3.11,3.3-.22Zm5.59,20.11-14.88,1-.3-1.56,4.13-.28-.3-1.56-3.31.23a1,1,0,0,1-1-.73l-1.51-7.78-5,.35.45,2.33,3.31-.23.3,1.56-4.13.28a1,1,0,0,1-1-.72l-.6-3.11-5,.34-.3-1.56,12.39-.85a.94.94,0,0,1,1,.72l1.52,7.78,2.47-.17-1.06-5.44a.71.71,0,0,1,.57-.83h.11l1.65-.11-.45-2.34a.7.7,0,0,1,.56-.82h.11l4.14-.28.3,1.55-3.31.23.46,2.33a.71.71,0,0,1-.57.83h-.11l-1.65.11,1.51,7.78,9.1-.62ZM202.17,114l-1.65.11-.3-1.56,1.65-.11Zm.75-4.79-1.65.12-.31-1.56,1.66-.11Zm10.47,15,.3,1.56-1.65.11-.31-1.55Zm-9-7.26-1.65.11-.3-1.56,1.65-.11Zm.91,4.66,1.65-.11.31,1.56-1.66.11ZM213.11,140l1.65-.11.3,1.55-1.65.12Zm-7.44.51,1.65-.11.3,1.56-1.65.11Zm-11.82-13.38.3,1.56-1.65.11-.3-1.55ZM182.2,123.2l.3,1.56-1.65.11-.3-1.55Zm-.14,7.9,1.65-.12.31,1.56-1.66.11Zm5.1-8.24.3,1.56-1.65.11L185.5,123Zm20.69,15.93-1.66.11-.3-1.56,1.65-.11Zm8.94-1.41-.31-1.55,1.66-.12.3,1.56Zm-21.31-27.7-2.48.17-.3-1.56,5.78-.4.31,1.56-1.66.11,2.27,11.67-1.65.12Zm5.12,9.11,4.14-.29.3,1.56-4.13.28ZM200.49,144l14.88-1,.3,1.56-14.88,1Zm-1.6-12.5.46,2.33,2.48-.17.3,1.56-3.31.22a.92.92,0,0,1-1-.72l-.61-3.11-10.74.74a.94.94,0,0,1-1-.72l-.76-3.89-3.31.22-.3-1.55,7.44-.51a1,1,0,0,1,1,.72L190,129l-1.65.12-.3-1.56-1.66.11.61,3.12,14.88-1,.3,1.56ZM210,137.07l5-.34.3,1.56-4.13.28.61,3.11-1.66.12-.75-3.89a.7.7,0,0,1,.54-.83Zm9.76-10.13,1.65-.11,1.67,8.55-1.66.12Z"/>
    </g>
  </g>
</svg>
