<svg id="Layer_1" data-name="Layer 1" xmlns="http://www.w3.org/2000/svg" viewBox="0 0 86.07 39.97">
  <defs>
    <style>
      .cls-1 {
        fill: #f5fffe;
      }

      .cls-2 {
        fill: #ffd255;
      }

      .cls-3 {
        fill: #515151;
      }
    </style>
  </defs>
  <title>qr-bug</title>
  <g>
    <g>
      <rect class="cls-1" y="12.17" width="60.5" height="24.86" rx="11.72"/>
      <rect class="cls-1" x="25.57" y="2.41" width="60.5" height="24.86" rx="11.72"/>
    </g>
    <g>
      <rect class="cls-2" x="20.73" width="49.34" height="39.97" rx="7.87"/>
      <path class="cls-3" d="M32.7,6.47v7.86a.56.56,0,0,0,.56.56h7.86a.56.56,0,0,0,.56-.56V6.47a.56.56,0,0,0-.56-.56H33.26A.56.56,0,0,0,32.7,6.47ZM33.83,7h6.73v6.74H33.83Zm5.05,1.13H35.51a.56.56,0,0,0-.56.56v3.36a.56.56,0,0,0,.56.56h3.37a.56.56,0,0,0,.56-.56V8.72A.56.56,0,0,0,38.88,8.16Zm-.57,3.36H36.07V9.28h2.24Zm2.81,12.34H33.26a.56.56,0,0,0-.56.56v7.86a.56.56,0,0,0,.56.56h7.86a.56.56,0,0,0,.56-.56V24.42A.56.56,0,0,0,41.12,23.86Zm-.56,7.86H33.83V25h6.73ZM35.51,30.6h3.37a.57.57,0,0,0,.56-.57V26.67a.56.56,0,0,0-.56-.56H35.51a.56.56,0,0,0-.56.56V30A.57.57,0,0,0,35.51,30.6Zm.56-3.37h2.24v2.24H36.07Zm23.56,5.05V28.91a.56.56,0,0,0-.56-.56H55.71a.57.57,0,0,0-.57.56v3.37a.57.57,0,0,0,.57.56h3.36A.56.56,0,0,0,59.63,32.28Zm-1.12-.56H56.27V29.47h2.24ZM45.61,30a.56.56,0,0,0,.56-.56V27.23a.56.56,0,0,0-.56-.56H43.36a.56.56,0,0,0-.56.56v2.24a.56.56,0,0,0,.56.56Zm-1.69-2.24h1.13v1.12H43.92ZM59.63,16.57a.56.56,0,0,0-.56-.56H56.83a.56.56,0,0,0-.56.56v2.24a.57.57,0,0,0,.56.57h2.24a.57.57,0,0,0,.56-.57Zm-1.12,1.68H57.39V17.13h1.12ZM52.9,21.06V23.3a.56.56,0,0,0,.56.56h2.25a.56.56,0,0,0,.56-.56V21.06a.56.56,0,0,0-.56-.56H53.46A.56.56,0,0,0,52.9,21.06Zm1.12.56h1.12v1.12H54Zm-2.8-6.73h7.85a.56.56,0,0,0,.56-.56V6.47a.56.56,0,0,0-.56-.56H51.22a.56.56,0,0,0-.56.56v7.86A.56.56,0,0,0,51.22,14.89ZM51.78,7h6.73v6.74H51.78Zm5,1.13H53.46a.56.56,0,0,0-.56.56v3.36a.56.56,0,0,0,.56.56h3.37a.56.56,0,0,0,.56-.56V8.72A.56.56,0,0,0,56.83,8.16Zm-.56,3.36H54V9.28h2.25Zm1.12,14.59H47.29V25H50.1V23.86H47.85a.56.56,0,0,1-.56-.56V17.69H43.92v1.69h2.25V20.5H43.36a.56.56,0,0,1-.56-.56V17.69H39.44V16.57h8.41a.56.56,0,0,1,.56.56v5.61H50.1V18.81a.56.56,0,0,1,.56-.56h1.12V16.57a.56.56,0,0,1,.56-.56h2.8v1.12H52.9v1.68a.57.57,0,0,1-.56.57H51.22V25h6.17Zm-9-15.71H47.29V9.28h1.12ZM49.53,7H48.41V5.91h1.12Zm5,11.22v1.13H53.46V18.25Zm-5-5.61H48.41V11.52h1.12Zm0,3.37h1.13v1.12H49.53Zm2.81,13.46h1.12V30.6H52.34Zm-5.05,0h1.12V30.6H47.29ZM41.12,19.38V20.5H40V19.38ZM33.83,16v1.12H32.7V16ZM32.7,21.62h1.13v1.12H32.7ZM37.19,16v1.12H36.07V16ZM49,28.35H47.85V27.23H49Zm6.17-.56V26.67h1.13v1.12ZM44.49,7H42.8V5.91h3.93V7H45.61v8.42H44.49Zm2.24,6.74h2.8v1.12h-2.8Zm-3.37,18h10.1v1.12H43.36Zm.56-9v1.68h1.69v1.13H43.36A.56.56,0,0,1,42.8,25V22.74H35.51a.56.56,0,0,1-.56-.56v-2.8H32.7V18.25h5a.56.56,0,0,1,.56.56V20.5H37.19V19.38H36.07v2.24h10.1v1.12Zm6.74,4.49H54v1.12h-2.8V30.6H50.1V27.79A.56.56,0,0,1,50.66,27.23Zm7.85-6.73h1.12v6.17H58.51Z"/>
    </g>
  </g>
</svg>
