<svg id="Layer_1" data-name="Layer 1" xmlns="http://www.w3.org/2000/svg" viewBox="0 0 927.39 539.79">
  <defs>
    <style>
      .cls-1 {
        opacity: 0.5;
      }

      .cls-2 {
        fill: #c37f65;
      }

      .cls-3 {
        fill: #d8e399;
      }

      .cls-4 {
        fill: #aa6a5f;
      }

      .cls-5 {
        fill: #756359;
      }

      .cls-6 {
        fill: #87776e;
      }

      .cls-7 {
        fill: #756c68;
      }

      .cls-8 {
        fill: #02b3cb;
      }

      .cls-9 {
        fill: #03d9e5;
      }

      .cls-10 {
        fill: #d8845a;
      }

      .cls-11, .cls-54 {
        fill: #f1ead5;
      }

      .cls-12 {
        fill: #80993c;
      }

      .cls-13 {
        fill: #a9ecef;
      }

      .cls-14 {
        fill: #a39d99;
      }

      .cls-15 {
        fill: #645452;
      }

      .cls-16 {
        fill: #9f9a96;
      }

      .cls-17, .cls-18, .cls-53 {
        fill: #807873;
      }

      .cls-18 {
        opacity: 0.3;
      }

      .cls-19, .cls-40, .cls-42 {
        fill: #837973;
      }

      .cls-20 {
        fill: #4c4744;
      }

      .cls-21 {
        fill: #232828;
      }

      .cls-22 {
        fill: #d9d2c2;
      }

      .cls-23 {
        fill: #c1b9a9;
      }

      .cls-24 {
        fill: #f4eed8;
      }

      .cls-25 {
        fill: #624333;
      }

      .cls-26 {
        fill: #4c312a;
      }

      .cls-27 {
        fill: #02b7ce;
      }

      .cls-28 {
        fill: #89563a;
      }

      .cls-29 {
        fill: #4c4644;
      }

      .cls-30 {
        fill: #8f6f42;
      }

      .cls-31 {
        fill: #da9f4e;
      }

      .cls-32 {
        fill: #8a201c;
      }

      .cls-33 {
        fill: #f1e5e4;
      }

      .cls-34 {
        fill: #d2924a;
      }

      .cls-35 {
        fill: #c94c2d;
      }

      .cls-36 {
        fill: #c2472b;
      }

      .cls-37 {
        fill: #ec6031;
      }

      .cls-38 {
        fill: #e35a2f;
      }

      .cls-39 {
        fill: #8f673e;
      }

      .cls-40 {
        opacity: 0.2;
      }

      .cls-41 {
        fill: #5e5e5e;
      }

      .cls-42 {
        opacity: 0.3;
      }

      .cls-43 {
        fill: #968e8a;
      }

      .cls-44 {
        fill: #8f8783;
      }

      .cls-45 {
        fill: #8c8480;
      }

      .cls-46 {
        fill: #88807d;
      }

      .cls-47 {
        fill: #98938e;
      }

      .cls-48 {
        fill: #908986;
      }

      .cls-49 {
        fill: #776a66;
      }

      .cls-50 {
        fill: #f4eee0;
      }

      .cls-51 {
        fill: #807c7b;
      }

      .cls-52 {
        fill: #ccebec;
        opacity: 0.25;
      }

      .cls-53 {
        opacity: 0.2;
      }

      .cls-54 {
        opacity: 0.7;
      }

      .cls-55 {
        fill: #d6cfbf;
      }

      .cls-56 {
        fill: #f2c1a4;
      }

      .cls-57 {
        fill: #e8baa4;
      }

      .cls-58 {
        fill: #d5ae9e;
      }

      .cls-59 {
        fill: #fff;
      }

      .cls-60 {
        opacity: 0.7;
      }

      .cls-61 {
        fill: none;
      }

      .cls-62 {
        fill: #d0f0ef;
      }

      .cls-63 {
        fill: #f5fffe;
      }
    </style>
  </defs>
  <title>qr-castle-hero</title>
  <g>
    <g>
      <g class="cls-1">
        <g>
          <path class="cls-2" d="M932.78,388.14v0m0-.19v0m0-.19v0m0-.19v0m0-.1v0m0-.09v0m0-.1v0m0-.09v0m0-.1v0m0-.09v0m0-.11v0m0-.08v0m0-.11v0h0M454.58,229.33h0m.4,0h0m.38,0h0m.78,0h0m1.56,0h0m.39,0h0m.39,0h0m.39,0h0m.39,0h0m.38,0h0m.39,0h0m.4,0h0m.39,0h0m.39,0h0m.39,0h0m.39,0h0m.4,0h0m.4,0h0m.4,0h0"/>
          <path class="cls-3" d="M932.78,388.33h0m0-.2h0m0-.19h0m0-.19h0m0-.2v0m0-.08h0m0-.11v0m0-.09h0m0-.1v0m0-.09h0m0-.1v0m0-.09h0m0-.11v0m-479-157.45h0m.78,0h0m.39,0h0m.39,0h0m.78,0h0m1.58,0h0m.39,0h0m.4,0h0m.39,0h0m.39,0h0m.4,0h0m.38,0h0m.39,0h0m.39,0h0m.39,0h0m.39,0h0m.39,0h0m.39,0h0m.39,0h0"/>
          <path class="cls-4" d="M449.6,448l-66.76,50.12,6.87,21.54H518.37a17.41,17.41,0,0,0,16.85-21.79l-14.08-54.15Z"/>
          <path class="cls-5" d="M770,396c9.94-14.67,19.94-29.3,30.32-43.58a54.54,54.54,0,0,0-3.63-15.25c-4.57,9.07-10,17.68-14.75,26.58a166.39,166.39,0,0,0-8.6,18C771.56,386.13,770,391,770,396Z"/>
          <path class="cls-5" d="M457.56,289.24l-1.71,0c.23,24.28.52,48.55.59,72.82,0,6.08,0,12.16,0,18.24Q457,334.8,457.56,289.24Z"/>
          <path class="cls-5" d="M761.69,420.64a86,86,0,0,0,18.42-13.84q8.63-14.6,17.58-28.91a68.7,68.7,0,0,0,2.61-13.5C787.11,382.87,774.49,401.83,761.69,420.64Z"/>
          <path class="cls-6" d="M455.75,341.61q.69-26.13,1.34-52.28-56.8,1.57-113.52,5.36C309.3,297,275,299.88,241,304.66c-31.14,4.37-65.6,7.34-95.18,18.7-12,4.62-23.72,10.88-32.89,20.21-23.76,24.19-20.18,62.71,9.78,79.6,14.75,8.31,32.26,8.7,49,10.43,30.45,3.15,59.27,13.54,89.47,18.17,30.6,4.69,61.47,7.22,92.36,8.63,27.58,1.27,55.19,1.63,82.79,1.83,5.48,0,10.88.41,16.22.85Q454.08,402.35,455.75,341.61Z"/>
          <path class="cls-7" d="M818,328.66c-9.87-13.84-26.28-20.81-42.3-25.24-28-7.75-57.07-9.73-86-11.24q-112.59-5.9-225.4-3-1.73,69.94-3.69,139.86-.46,17.36-.91,34.7c15.45,1.34,30.61,2.35,46.38-3.14,19.36-6.74,41.33-7.5,61.55-10q66.78-8.2,133.93-12.75c21.48-1.45,43.2-2.66,63.84-9s40.47-18.35,52.08-37.17S830.86,346.61,818,328.66Z"/>
          <path class="cls-5" d="M111.28,345.35c-21.91,24.26-17.81,61.34,11.43,77.82l.91.47C118.81,397.67,114.77,371.55,111.28,345.35Z"/>
          <path class="cls-5" d="M118,339l-.26.21c3.87,29.47,8.41,58.84,13.94,88,1.61.58,3.25,1.08,4.9,1.53C130.13,398.87,123.79,369,118,339Z"/>
          <path class="cls-5" d="M124.84,333.92l-.37.23c.43,2.21.88,4.42,1.31,6.63Q125.24,337.36,124.84,333.92Z"/>
          <path class="cls-5" d="M135.79,382.68c-2.44-8.46-4.81-17-6.81-25.59,4.93,24.51,10.15,49,15.43,73.38,1.86.33,3.73.6,5.61.86-3.28-15.42-6.29-30.9-9.13-46.41A3.54,3.54,0,0,1,135.79,382.68Z"/>
          <path class="cls-5" d="M809.9,319.87c-.69-.59-1.4-1.16-2.11-1.72-3.94,6.22-7.78,12.5-11.42,18.89A188.35,188.35,0,0,1,809.9,319.87Z"/>
          <path class="cls-5" d="M452.2,350.12c-.12-20.22-.36-40.43-.56-60.65q-54.08,1.61-108.07,5.22C309.3,297,275,299.88,241,304.66c-21.93,3.07-45.48,5.51-67.83,10.63,1.8,14.1,3.62,28.19,6,42.2,1.3,6.15,2.43,12.32,3.43,18.49.76,4.72-6,6.83-7,2-1.31-6.23-2.43-12.49-3.48-18.77a247.89,247.89,0,0,0-9.72-34.58c4.74,26.22,9.76,52.39,14.8,78.55.91,4.76-6.11,6.78-7,2q-2-10.17-3.92-20.35a3.62,3.62,0,0,1-1.5-2.17c-3-10.93-6-21.9-8.13-33.05q-1.37-4.59-2.85-9.13c2.42,12.2,5.9,24.28,8.06,36.42a3.79,3.79,0,0,1-4,4.67q2.43,13.14,4.89,26.29c.9,4.76-6.12,6.78-7,2q-2-10.67-4-21.32a3.56,3.56,0,0,1-2.27,2.33c2.48,13.19,5.05,26.37,7.85,39.49a3.92,3.92,0,0,1,0,1.81c4.83.51,9.66.91,14.44,1.4,30.45,3.15,59.27,13.54,89.47,18.17,30.6,4.69,61.47,7.22,92.36,8.63,27.58,1.27,55.19,1.63,82.79,1.83,4.84,0,9.61.33,14.35.7C451.61,425.34,452.42,387.75,452.2,350.12Z"/>
          <path class="cls-5" d="M793.6,373.31c-.73.88-1.47,1.75-2.22,2.6-2.49,2.79-7.09-.12-6.09-3.68a98.77,98.77,0,0,1,4.93-13.4c-4,5.82-8,11.59-12.39,17.08-2.28,2.86-7.35-.21-6.09-3.68,7.54-20.71,18.37-39.75,30-58.23a84.56,84.56,0,0,0-12-5.92c-13.09,22.2-25.59,45.19-29.94,70.85-.81,4.79-7.83,2.75-7-2,4.38-25.8,16.81-49,30-71.39-2.32-.76-4.65-1.47-7-2.11-28-7.75-57.07-9.73-86-11.24Q579,286.38,468,289.05q-.21,14.54-.4,29.07c-.63,48.68-1.26,97.36-2.42,146,13.58,1,27,1.26,40.94-3.59,19.36-6.74,41.33-7.5,61.55-10q66.78-8.2,133.93-12.75c21.48-1.45,43.2-2.66,63.84-9,2.19-.67,4.35-1.42,6.51-2.22q4-5.43,8-10.88l11.18-15.46a3.68,3.68,0,0,1-4.14-3.61c-.22-5.77,1.58-11.46,3.68-16.72C791.56,377.71,792.56,375.5,793.6,373.31Z"/>
          <path class="cls-5" d="M816,326.08c-2.4,4.76-5,9.4-7.68,14a124.81,124.81,0,0,1,9.49-11.74C817.24,327.58,816.63,326.83,816,326.08Z"/>
          <path class="cls-8" d="M802.51,366.66c-9.26-13-24.66-19.52-39.7-23.69-26.25-7.26-53.57-9.12-80.69-10.55a2728.71,2728.71,0,0,0-324.94,2.36c-32.16,2.15-64.31,4.88-96.26,9.36-29.23,4.1-61.57,6.89-89.34,17.55-11.29,4.34-22.27,10.21-30.87,19-12.45,12.68-16.89,29.56-13.5,44.75,13.75,6.14,29.43,6.64,44.47,8.19,30.45,3.15,59.27,13.54,89.47,18.17,30.6,4.69,61.47,7.22,92.36,8.63,27.58,1.27,55.19,1.63,82.79,1.83,23.91.18,46.19,6.56,69.84-1.67,19.36-6.74,41.33-7.5,61.55-10q66.78-8.2,133.93-12.75c21.48-1.45,43.2-2.66,63.84-9,16.92-5.17,33.27-14.19,45-27.63C811.89,389,809.54,376.51,802.51,366.66Z"/>
          <path class="cls-9" d="M501,451.23c-.26-1.58-.47-3.17-.64-4.77-10.46.52-21,.12-31.38.15-19.43.05-38.84,1.32-58.27,1.24-10,0-19.93-.28-29.88-.8-7.82-.4-15.63-1.17-23.46-1.45-13.8-.5-27.63-.43-41.35-2.37-12.61-1.78-25.73-5.29-35.35-14.44a3.5,3.5,0,0,1-1.05-1.79c-4.33-4-7.56-8.83-11.17-13.79-2.94-4-6.31-7.86-10.72-10.14-4.68-2.41-10.1-3.39-15.17-4.5a177.33,177.33,0,0,1-18.92-5.12c-12.68-4.29-25.41-10.64-35.17-20.25-.62.42-1.24.81-1.85,1.25,2.64,1,3.19,6-.29,7.4-12.41,5-25.56,14-29.69,27.89a29.5,29.5,0,0,0,1.74,21.8c.14.29.3.56.45.84,4.31.42,8.62.78,12.88,1.22,30.45,3.15,59.27,13.54,89.47,18.17,30.6,4.69,61.47,7.22,92.36,8.63,27.58,1.27,55.19,1.63,82.79,1.83,23.14.17,44.76,6.12,67.57-1A34.63,34.63,0,0,1,501,451.23Z"/>
          <path class="cls-9" d="M713.47,428.42c-11.71-.7-23.38-2-35.11-2.56-11.44-.51-22.92,0-34.35-.52-4-.17-8-1-12-1.06-4.27-.09-7.44,1.72-11,4.12a37.14,37.14,0,0,1-10.75,5.34c-3.16.9-6.36,1.63-9.58,2.26a124.91,124.91,0,0,1-23.9,2.61,65.8,65.8,0,0,1-7.74-.37c1.49,3.87,2.91,7.76,4.22,11.69q64-7.71,128.31-12.1c19.72-1.33,39.62-2.51,58.73-7.56C744.72,429.81,729.08,429.36,713.47,428.42Z"/>
          <path class="cls-5" d="M299.16,401c-.82,9.72-1.18,19.53-2.44,29.2.82.2,1.64.38,2.47.53-.2-6.44-.61-12.93-.44-19.36C298.84,407.92,299,404.47,299.16,401Z"/>
          <path class="cls-5" d="M208.07,403.89a4.22,4.22,0,0,1-.76,1.39c1,.49,1.94,1,2.93,1.42-.4-2.23-.82-4.45-1.19-6.68C208.77,401.31,208.45,402.6,208.07,403.89Z"/>
          <path class="cls-6" d="M726.32,366.58a30,30,0,0,0,1-5.75l8.19-48.41-17.72-2.94-455.5-2L183,338.18l6.89,51.62c-.78,8,6,14.08,12.17,17.71A106,106,0,0,0,266.8,421.8c3.4-.36,7-.85,10.07,1,2.47,1.46,4.15,4.22,6.19,6.42,6.37,6.87,15.8,7.86,24.48,8.45a1951.27,1951.27,0,0,0,215.09,2.65c17.84-.76,36.18-1.9,52.46-10.42,10.58-5.54,19.87-14,30.36-19.76,23.79-13.1,51.3-11.39,77.5-14.33,10.3-1.15,20.85-3.18,29.67-9.48a36.21,36.21,0,0,0,13.51-19h.07Z"/>
          <path class="cls-7" d="M717.76,309.48l-455.5-2L183,338.18l2.7,20.25a3.48,3.48,0,0,1,2.32-3h0c0-1.06-.09-2.11-.1-3.16,0-4.47,5.57-5.24,6.61-1,2.26,9.19,3.32,18.7,4.92,28.06A131.33,131.33,0,0,0,203,395.15a130,130,0,0,0-.37-15.8c-.64-9.47-1.81-18.94-1.53-28.46.12-4.22,6-5.54,6.6-1,2.49,19,5.05,38.06,8.2,57A411.7,411.7,0,0,1,213,350.2c.11-5,6.83-5,6.73,0A409.59,409.59,0,0,0,224,417.29q2.38.76,4.8,1.41c-3-21.25-3.64-42.9-5.09-64.34-.33-5,6.39-5,6.73,0,1.48,22,2.11,44.22,5.4,66,1.59.31,3.18.58,4.78.82-1.08-21.59-2.43-43.16-3.79-64.72-.32-5,6.41-5,6.72,0,1.38,21.83,2.74,43.68,3.84,65.54a100.71,100.71,0,0,0,19.41-.18,32.83,32.83,0,0,1,5.77-.29c-.59-19.15-.83-38.32-1.76-57.46-.24-5,6.48-5,6.73,0,0,.7,0,1.39.08,2.08,1.86-.89,4.37.29,4.69,3.47.4,4,.63,8,.78,11.95.27-2.26.58-4.51,1-6.76.76-4.57,6.38-3.1,6.6,1,.54,10.2.12,20.6.11,31,.68-9.39,1.64-18.74,4-27.84.8-3.06,4.78-4.05,6.14-.94,4.95,11.26,3.35,24.75,2.94,36.9-.25,7.47.24,15,.42,22.47,1.09.1,2.18.18,3.26.25l2.65.16c0-20.42,1.9-40.87,2.35-61.27.11-5,6.84-5,6.73,0-.46,20.54-2.34,41.12-2.36,61.68,2.92.18,5.85.32,8.77.49,0-18.88.15-37.75.57-56.63.12-5,6.84-5,6.73,0-.42,19-.54,38-.58,57q95,5.22,190.23,1.21l3.73-.17c-1.19-19.82-2.46-39.64-4-59.43-.38-5,6.35-5,6.73,0,1.5,19.67,2.76,39.36,3.94,59.06,14.46-.95,28.91-3,42-9.88,10.58-5.54,19.87-14,30.36-19.76,23.79-13.1,51.3-11.39,77.5-14.33,10.3-1.15,20.85-3.18,29.67-9.48a36.21,36.21,0,0,0,13.51-19h.07l.12-.73a30,30,0,0,0,1-5.75l8.19-48.41ZM551.18,416.69c-.14,2.12-1.43,3.91-3.36,3.91a3.71,3.71,0,0,1-3.37-3.91c.59-9,.6-18,.6-27a3.4,3.4,0,1,1,6.72,0C551.77,398.69,551.76,407.71,551.18,416.69Zm13.71,9.7a4.47,4.47,0,0,1-1,2.77,3.22,3.22,0,0,1-2.38,1.14,2.21,2.21,0,0,1-1.3-.34,2.45,2.45,0,0,1-1.08-.8,4.42,4.42,0,0,1-1-2.77v-5.54a4.43,4.43,0,0,1,1-2.76,3.2,3.2,0,0,1,2.38-1.15,2.27,2.27,0,0,1,1.29.34,2.58,2.58,0,0,1,1.09.81,4.44,4.44,0,0,1,1,2.76Z"/>
          <path class="cls-5" d="M629.66,361.17c-3.13,13.88-5.16,28.12-7.65,42.15a111.05,111.05,0,0,1,11.26-2.69c.89-9.48,2.24-19,3.28-28.51-1.43,7.94-2.85,15.9-4.78,23.69a3.34,3.34,0,0,1-6.6-1c.43-9.62,2.34-19.06,3.77-28.52C629.19,364.58,629.43,362.88,629.66,361.17Z"/>
          <path class="cls-5" d="M717.76,309.48l-455.5-2L183,338.18l2.7,20.25a3.48,3.48,0,0,1,2.32-3h0c0-1.06-.09-2.11-.1-3.16,0-4.47,5.57-5.24,6.61-1,2.26,9.19,3.32,18.7,4.92,28.06A131.33,131.33,0,0,0,203,395.15a130,130,0,0,0-.37-15.8c-.64-9.47-1.81-18.94-1.53-28.46.12-4.22,6-5.54,6.6-1,2.49,19,5.05,38.06,8.2,57A411.7,411.7,0,0,1,213,350.2c.11-5,6.83-5,6.73,0A409.59,409.59,0,0,0,224,417.29q2.38.76,4.8,1.41c-3-21.25-3.64-42.9-5.09-64.34-.33-5,6.39-5,6.73,0,1.48,22,2.11,44.22,5.4,66,1.59.31,3.18.58,4.78.82-1.08-21.59-2.43-43.16-3.79-64.72-.32-5,6.41-5,6.72,0,1.38,21.83,2.74,43.68,3.84,65.54,2.46.21,4.92.31,7.39.34-1.61-16.58-3.1-33.19-4.21-49.83-.33-5,6.4-5,6.73,0,1.11,16.61,2.59,33.17,4.19,49.72,1.77-.09,3.54-.22,5.31-.41a32.83,32.83,0,0,1,5.77-.29c-.59-19.15-.83-38.32-1.76-57.46-.24-5,6.48-5,6.73,0,0,.7,0,1.39.08,2.08,1.86-.89,4.37.29,4.69,3.47.4,4,.63,8,.78,11.95.27-2.26.58-4.51,1-6.76.76-4.57,6.38-3.1,6.6,1,.54,10.2.12,20.6.11,31,.68-9.39,1.64-18.74,4-27.84.8-3.06,4.78-4.05,6.14-.94,4.95,11.26,3.35,24.75,2.94,36.9-.25,7.47.24,15,.42,22.47,1.09.1,2.18.18,3.26.25l2.65.16c0-20.42,1.9-40.87,2.35-61.27.11-5,6.84-5,6.73,0-.46,20.54-2.34,41.12-2.36,61.68,2.92.18,5.85.32,8.77.49,0-18.88.15-37.75.57-56.63.12-5,6.84-5,6.73,0-.42,19-.54,38-.58,57q95,5.22,190.23,1.21l3.73-.17c-1.19-19.82-2.46-39.64-4-59.43-.38-5,6.35-5,6.73,0,1.5,19.67,2.76,39.36,3.94,59.06,14.46-.95,28.91-3,42-9.88a139.9,139.9,0,0,0,15.84-10.23v-.19c1.41-13.75,2.14-28.67,5.28-42.49Q597.83,362,599.14,347c.43-5,7.16-5,6.73,0-.22,2.59-.48,5.17-.72,7.75a3.17,3.17,0,0,1,4.17,1.08c.29-.91.58-1.81.9-2.71,1.41-3.93,6.45-3.62,6.61,1,0,.9,0,1.78,0,2.67a66.48,66.48,0,0,1,5.36-17.37c1.54-3.13,5.3-2.06,6.09,1,.36-1.07.72-2.14,1.11-3.21,1.2-3.35,5.49-4,6.48,0,.28,1.14.51,2.28.7,3.42.35-1.14.66-2.29,1-3.42,1.41-4.22,6.19-3.38,6.61,1,1.92,20.45-2.16,40.93-4.14,61.27,1.65-.22,3.3-.42,5-.61,1.77-15.68,3.28-31.41,4.78-47.13.2-2.09,1.38-3.93,3.36-3.91a3.7,3.7,0,0,1,3.37,3.91c-1.49,15.5-3,31-4.72,46.46,10.37-.9,20.84-1.35,31.12-2.5,7.61-.85,15.36-2.19,22.45-5.37.23-5.33.6-10.65,1-16-.52,4.77-1.13,9.53-2.07,14.21-.87,4.37-6.61,3.29-6.6-1,0-22.06,3.35-43.95,2.74-66-.14-5,6.58-5,6.72,0,.1,3.43.08,6.85,0,10.27.4-.9.81-1.81,1.26-2.69a2.94,2.94,0,0,1,4.43-1.35l0-.11c.67-2.46,3.52-3.46,5.23-2.25a45.48,45.48,0,0,1,2-4.25c1.73-3.26,6.28-2,6.27,2,0,17.11-1.45,34.12-3.19,51.09a34.61,34.61,0,0,0,2.92-6.93h.07l.12-.73a30,30,0,0,0,1-5.75l8.19-48.41Zm-363.9,86.09a4.39,4.39,0,0,1-1,2.76,3.26,3.26,0,0,1-1.48,1l-.9.14a2.27,2.27,0,0,1-1.29-.33,2.5,2.5,0,0,1-1.08-.81,3,3,0,0,1-.7-1.26,3.3,3.3,0,0,1-.29-1.5v-4a4.37,4.37,0,0,1,1-2.76,3.28,3.28,0,0,1,1.48-1l.89-.14a2.21,2.21,0,0,1,1.3.34,2.5,2.5,0,0,1,1.08.81,3,3,0,0,1,.7,1.25,3.48,3.48,0,0,1,.29,1.51Zm14.38,34.21a3.74,3.74,0,0,1-3.36,3.91c-1.82.09-3.37-1.87-3.37-3.91V413.07a3.72,3.72,0,0,1,3.37-3.9c1.81-.1,3.36,1.86,3.36,3.9Zm182.94-13.09c-.14,2.12-1.43,3.91-3.36,3.91a3.71,3.71,0,0,1-3.37-3.91c.59-9,.6-18,.6-27a3.4,3.4,0,1,1,6.72,0C551.77,398.69,551.76,407.71,551.18,416.69Zm13.71,9.7a4.47,4.47,0,0,1-1,2.77,3.22,3.22,0,0,1-2.38,1.14,2.21,2.21,0,0,1-1.3-.34,2.45,2.45,0,0,1-1.08-.8,4.42,4.42,0,0,1-1-2.77v-5.54a4.43,4.43,0,0,1,1-2.76,3.2,3.2,0,0,1,2.38-1.15,2.27,2.27,0,0,1,1.29.34,2.58,2.58,0,0,1,1.09.81,4.44,4.44,0,0,1,1,2.76Z"/>
          <path class="cls-4" d="M734.18,304.12c1,12.28-6,24-15,30.46s-19.87,8.54-30.44,9.73c-26.87,3-55.09,1.26-79.48,14.69-10.76,5.92-20.29,14.59-31.14,20.27-16.7,8.73-35.51,9.9-53.81,10.69a2002.09,2002.09,0,0,1-220.61-2.72c-8.9-.6-18.57-1.63-25.11-8.67-2.08-2.26-3.8-5.08-6.34-6.59-3.12-1.85-6.84-1.35-10.33-1a108.62,108.62,0,0,1-66.39-14.66c-6.36-3.72-13.28-9.94-12.48-18.16.34-3.51,2.1-6.61,4.06-9.33,7.33-10.18,17.72-16.69,28.17-22.06,62.94-32.36,134.19-31.08,202.88-36.2,50.77-3.78,101.37-11.36,152.25-11.76,33.84-.26,67.63,2.67,101.3,6.45C693.74,267.76,731.39,268.61,734.18,304.12Z"/>
          <path class="cls-10" d="M452.92,311l137-51.9c-6.51-.17-13-.27-19.55-.22-50.88.4-101.48,8-152.25,11.76-68.69,5.12-139.94,3.84-202.88,36.2-9.39,4.82-18.7,10.59-25.81,19.08a3.93,3.93,0,0,1-.6,2.31c-2,3.24-3.85,7-3.57,11a12.2,12.2,0,0,0,3.53,7.27c4.35,4.69,10.47,7.15,16.05,9.05,6.75,2.3,13.75,3.66,20.6,5.42a104.3,104.3,0,0,0,17.26,3.23c4.69.4,9.33,0,14,0,3.73,0,7.55.41,10.95,2.34a15.1,15.1,0,0,1,5.81,6.45c.43.37.84.77,1.24,1.18,9.06,6.09,19.44,8.61,29.78,9.6,9.39.89,18.87.8,28.29,1,10.42.2,20.84.1,31.27.25,19.27.28,38.74,1.41,57.52,6.73q16.17.13,32.34,0Z"/>
          <path class="cls-10" d="M709.11,323.54c-10.17.27-30-11.53-39.81-9-7.42,1.93,10.58,5.54,3.47,9.79-8.34,5-43.39,15.25-52,19.43a10.76,10.76,0,0,1-3.69,1.25c-1.35.09-2.7-.35-4-.24-3.57.3-6.09,4.26-9.48,5.56-2.15.82-4.49.52-6.74.83-4.33.61-7.76,3.75-11.95,4.29a46.29,46.29,0,0,1-5.77,0H562.15c-8.14,0-11.23,4.42-19.37,4.42l-21.4,12.5-11.61,15.27c6.43-.09-29.45,3.63-23,3.48-1.15-2.3-.23-6.05,2.76-6.05,32.55,0,66.62-.9,97.35-14.77a2.87,2.87,0,0,1,1.57-1,63.9,63.9,0,0,0,10-3.51A119.45,119.45,0,0,1,609.22,359a83,83,0,0,1,13.53-5.89A101.08,101.08,0,0,1,649.3,344c10.06-2,20.25-2.89,30.42-3.85,9.8-.93,19.76-1.94,29.48-4a42.52,42.52,0,0,0,16.47-13c1.32-1.77-1,2,0,0Z"/>
          <path class="cls-11" d="M283.07,392.45l-1.49-1.57a7.16,7.16,0,0,0-.38,7.77c.33.55.84,1.1,1.48,1.05a1.61,1.61,0,0,0,1.08-.71,4.94,4.94,0,0,0-2.51-7.45"/>
          <path class="cls-11" d="M294.5,407.08c-.73.78-1.47,2-.74,2.8s2.23-.15,2.12-1.22a2.29,2.29,0,0,0-2.34-1.78"/>
          <ellipse class="cls-4" cx="190.12" cy="447.11" rx="18.65" ry="5.55"/>
          <path class="cls-4" d="M259.43,456.16c0,1.92-4.87,3.49-10.88,3.49s-10.88-1.57-10.88-3.49,4.87-3.5,10.88-3.5S259.43,454.23,259.43,456.16Z"/>
          <path class="cls-4" d="M237.67,460.36c0,2.32-6.8,4.21-15.18,4.21s-15.18-1.89-15.18-4.21,6.79-4.2,15.18-4.2S237.67,458,237.67,460.36Z"/>
          <ellipse class="cls-12" cx="659.89" cy="462.11" rx="8.73" ry="2.46"/>
          <path class="cls-12" d="M689.39,452.08c0,2.25-6.81,4.08-15.2,4.08s-15.2-1.83-15.2-4.08,6.81-4.06,15.2-4.06S689.39,449.84,689.39,452.08Z"/>
          <path class="cls-12" d="M712.86,445.33c0,1.49-2.91,2.69-6.5,2.69s-6.5-1.2-6.5-2.69,2.91-2.68,6.5-2.68S712.86,443.85,712.86,445.33Z"/>
          <path class="cls-13" d="M185.87,391.29l.57.16a9.72,9.72,0,0,0-.37,2.73,13.49,13.49,0,0,0,2.08,6.93,26.1,26.1,0,0,0,7.19,7.17,58.21,58.21,0,0,0,33.71,10.85H230v.6h-.93a58.87,58.87,0,0,1-34.06-11,26.57,26.57,0,0,1-7.34-7.34,13.94,13.94,0,0,1-2.18-7.24A10.55,10.55,0,0,1,185.87,391.29Zm29,30.85a124.1,124.1,0,0,0,20.93,3.91l.06-.59a123.91,123.91,0,0,1-20.83-3.89Zm68.6,5.68c.89,2.83,3.33,4.82,5.77,6.35,7.83,4.88,17.1,6.73,26.14,8.2l.1-.59c-9-1.46-18.22-3.3-25.93-8.12-2.4-1.49-4.7-3.41-5.51-6Zm321.2-10.48A131.08,131.08,0,0,1,659,403l0-.59a131.57,131.57,0,0,0-54.56,14.37Zm73.56-16,12.39-1.05,0-.59-12.39,1.05ZM739.19,382c-5.09,6.64-13.44,9.91-21.54,12.38l.17.57c8.13-2.48,16.6-5.77,21.84-12.59Zm0,7.21c-5.34,5.19-12.3,8.52-19.52,10.46s-14.75,2.55-22.25,2.9l0,.59c7.52-.35,15.09-1,22.38-2.92s14.35-5.32,19.79-10.61ZM553.62,444l39.15-2.19,0-.59-39.15,2.19Zm-284.86-7c-5.1,0-9.24,1.11-9.24,2.49s4.14,2.5,9.24,2.5S278,441,278,439.57,273.86,437.08,268.76,437.08Zm-6.93-4.41c-3.82,0-6.92.63-6.92,1.41s3.1,1.41,6.92,1.41,6.93-.63,6.93-1.41S265.66,432.67,261.83,432.67Zm367.64-4.07c-2.16,0-3.91.2-3.91.46s1.75.46,3.91.46,3.91-.21,3.91-.46S631.63,428.6,629.47,428.6Zm5.48,2c-3,0-5.48.48-5.48,1.07s2.45,1.07,5.48,1.07,5.48-.48,5.48-1.07S638,430.59,635,430.59Zm-9.54,1.07c-.93,0-1.69.24-1.69.54s.76.53,1.69.53,1.68-.23,1.68-.53S626.34,431.66,625.41,431.66Z"/>
        </g>
        <g>
          <path class="cls-14" d="M626,292.12c.64-22.33,1.91-44.63,1.59-67h-7.43l-10.86-16.62-7.42-2.74V329.49l23.52-1.1C625.43,316.3,625.6,304.21,626,292.12Z"/>
          <polygon class="cls-15" points="609.25 208.54 620.11 225.16 702.4 225.07 709.97 226.32 700.52 221.82 622.14 221.82 610.47 205.14 663 205.14 637.15 190.97 568.78 190.97 568.78 331.04 612.57 329.49 613.06 206.98 609.25 208.54"/>
          <rect class="cls-15" x="606.3" y="203.47" width="55.03" height="50.86"/>
        </g>
        <g>
          <path class="cls-15" d="M659.65,99.25H611.56V66.73h51.69V95.65A3.6,3.6,0,0,1,659.65,99.25Z"/>
          <path class="cls-15" d="M637.09,115.93H608.22V90.08h32.52v22.19A3.65,3.65,0,0,1,637.09,115.93Z"/>
          <polyline class="cls-11" points="593.3 -201.09 586.54 -176.23 586.54 -122.71 608.22 -122.71 608.22 58.82 618.23 55.55 618.23 -134.58 735.79 -134.58 735.67 -128.67 758.99 -139.69 600.98 -166.89 600.98 -196.76 593.3 -201.09"/>
          <path class="cls-16" d="M682.28-9.51l-6.11,0v-.2q9.17-.79,18.31-1.44c3-.22,6-.57,9.09-.57h.06a71.55,71.55,0,0,1,9.22.52v.2a70.65,70.65,0,0,1-9.12,1.26c-1.87.15-3.74.18-5.61.18h-3.59q-6.13.08-12.26.08m-9.95-63.87c-3.53,0-7.05-.17-10.58-.27q-13.1-.3-26.19-.76v-.2q13.09-.39,26.19-.62c3.31-.07,6.62-.21,9.94-.21,1,0,2.1,0,3.15,0,2.19.11,4.37.17,6.55.32l3.27.25c.4,0,.82.1,1.16.1a1.29,1.29,0,0,0,.35,0c.18,0,.3-.21.27-.23l-.34-.08-.18.07,0-.31.27-.12.52.17c.37.46-.07.88-.34,1a5.93,5.93,0,0,1-1.74.31l-3.27.23c-2.19.14-4.37.18-6.55.28q-1.26,0-2.52,0M709-76.73c-.79,0-1.58-.11-2.36-.14-2.27-.08-4.53-.22-6.8-.41v-.2c2.24-.37,4.49-.7,6.74-1a26.45,26.45,0,0,1,2.92-.36l.46,0a10.38,10.38,0,0,1,3.42.75v.2a10.44,10.44,0,0,1-3.35,1,6,6,0,0,1-1,.08M696-83.9a13.06,13.06,0,0,1-2.06-.36c-1.59-.27-3.18-.6-4.76-1v-.2c1.62-.19,3.23-.32,4.84-.4.56,0,1.12-.14,1.68-.14a3,3,0,0,1,.73.09,5.54,5.54,0,0,1,2.34,1v.2a5.73,5.73,0,0,1-2.45.75l-.32,0m39.83-50.68H618.23v208H731.62l4-202.07.12-5.91"/>
          <rect class="cls-17" x="651.16" y="25.95" width="19.12" height="9.76"/>
          <rect class="cls-18" x="640.76" y="12.12" width="19.26" height="11.38"/>
          <rect class="cls-18" x="663.25" y="8.61" width="10.73" height="15.71"/>
        </g>
        <polygon class="cls-19" points="623.34 -3.13 637.55 13.79 649.67 44.65 649.67 73.4 601.22 73.4 623.34 -3.13"/>
        <g>
          <path class="cls-16" d="M534.11,130.22a4.47,4.47,0,0,0,4.28,3.16h30.85a4.45,4.45,0,0,0,3.94-2.36h-.67c-4,0-8.06-.16-12.09-.24q-13.15-.22-26.31-.57m9.54-3a3.61,3.61,0,0,1-3.61-3.6V103.31a3.61,3.61,0,0,1,3.61-3.6H564a3.6,3.6,0,0,1,3.6,3.6v20.34a3.6,3.6,0,0,1-3.6,3.6H543.65m25.59-33.68H538.39a4.49,4.49,0,0,0-4.48,4.48v30.86a4.21,4.21,0,0,0,.09.87q13.2-.34,26.42-.57c4-.09,8.05-.24,12.08-.24h1.22V98.05a4.5,4.5,0,0,0-4.48-4.48M532,129.83a7,7,0,0,1-.07-.92V98.05a6.46,6.46,0,0,1,6.46-6.45h30.85a6.45,6.45,0,0,1,6.45,6.45v31h.14c5.14.18,10.28.32,15.42.89v.2c-5.14.56-10.28.71-15.42.89h-.48a6.47,6.47,0,0,1-6.11,4.36H538.39a6.44,6.44,0,0,1-6.33-5.2l-2.48-.06v-.2l2.42-.07m69.94-96.72c-.93,0-1.86-.17-2.78-.24q-3.54-.27-7.06-.69V32c2.35-.29,4.7-.51,7.06-.69.92-.07,1.85-.24,2.78-.24a6.28,6.28,0,0,1,.75,0,11.12,11.12,0,0,1,3.52.89v.2a11.12,11.12,0,0,1-3.52.89,6.28,6.28,0,0,1-.75,0m21.4-36.24H591.25l-.58,18.52H571.53L572-3.13H551.81l-.4,18.52h-7.29l.31-18.52h-20.7l-.22,18.52H504.37l.13-18.52H486.75l0,16.89H467.56l0-16.89H446.81l.13,16.89H427.79l-.21-16.89H409.83l.31,18.52H391l-.39-18.52H369.9l.49,18.52H351.25l-.58-18.52H330.36l3.53,201.5h282l7.48-201.5"/>
          <polygon class="cls-17" points="579.56 15.39 571.53 15.39 572.02 -3.13 551.81 -3.13 551.41 15.39 544.12 15.39 544.43 -3.13 523.73 -3.13 523.51 15.39 504.37 15.39 504.5 -3.13 486.75 -3.13 486.71 13.76 467.56 13.76 467.52 -3.13 446.81 -3.13 446.94 13.76 427.79 13.76 427.58 -3.13 409.83 -3.13 410.14 15.39 391 15.39 390.61 -3.13 369.9 -3.13 370.39 15.39 351.25 15.39 350.67 -3.13 330.36 -3.13 332.13 97.62 573.27 97.62 579.56 15.39"/>
          <path class="cls-20" d="M532.06,130.16a6.44,6.44,0,0,0,6.33,5.2h30.85a6.47,6.47,0,0,0,6.11-4.36l-2.17,0a4.45,4.45,0,0,1-3.94,2.36H538.39a4.47,4.47,0,0,1-4.28-3.16l-2.05-.06M569.24,91.6H538.39a6.46,6.46,0,0,0-6.46,6.45v30.86a7,7,0,0,0,.07.92l2-.05a4.21,4.21,0,0,1-.09-.87V98.05a4.49,4.49,0,0,1,4.48-4.48h30.85a4.5,4.5,0,0,1,4.48,4.48V129c.66,0,1.32,0,2,0v-31a6.45,6.45,0,0,0-6.45-6.45"/>
          <path class="cls-20" d="M564,99.71H543.65a3.61,3.61,0,0,0-3.61,3.6v20.34a3.61,3.61,0,0,0,3.61,3.6H564a3.6,3.6,0,0,0,3.6-3.6V103.31a3.6,3.6,0,0,0-3.6-3.6"/>
          <path class="cls-21" d="M562.3,118.1V99.71H543.65a3.61,3.61,0,0,0-3.61,3.6v19.57h17.49A4.78,4.78,0,0,0,562.3,118.1Z"/>
          <rect class="cls-17" x="605.29" y="143.77" width="12.23" height="9.83"/>
          <rect class="cls-17" x="594.95" y="134.37" width="16.6" height="7.88"/>
          <rect class="cls-17" x="607.59" y="121.12" width="11.79" height="11.79"/>
          <rect class="cls-17" x="347.09" y="115.93" width="15.85" height="6.95"/>
          <rect class="cls-17" x="340.93" y="124.11" width="15.04" height="8.8"/>
          <path class="cls-22" d="M532,129.83l-2.42.07v.2l2.48.06-.06-.33m43.69-.82a6.59,6.59,0,0,1-.34,2h.48c5.14-.18,10.28-.33,15.42-.89v-.2c-5.14-.57-10.28-.71-15.42-.89h-.14m-3.19,0c-4,0-8.06.15-12.08.24q-13.21.22-26.42.57a3.15,3.15,0,0,0,.11.44q13.15.34,26.31.57c4,.08,8.06.24,12.09.24h.67a4.4,4.4,0,0,0,.54-2H572.5"/>
          <path class="cls-23" d="M534,129.78l-2,.05.06.33,2.05.06a3.15,3.15,0,0,1-.11-.44m39.72-.8a4.4,4.4,0,0,1-.54,2l2.17,0a6.59,6.59,0,0,0,.34-2c-.65,0-1.31,0-2,0"/>
          <path class="cls-22" d="M601.94,31.05c-.93,0-1.86.17-2.78.24-2.36.18-4.71.4-7.06.69v.2q3.52.42,7.06.69c.92.07,1.85.24,2.78.24a6.28,6.28,0,0,0,.75,0,11.12,11.12,0,0,0,3.52-.89V32a11.12,11.12,0,0,0-3.52-.89,6.28,6.28,0,0,0-.75,0"/>
          <polygon class="cls-17" points="582.08 174.64 601.22 198.22 573.27 198.22 582.08 174.64"/>
        </g>
        <polygon class="cls-15" points="292.22 182.04 264.9 182.54 237.25 200.87 249.09 269.31 316.31 313.95 571.9 293.25 582.08 195.18 292.22 182.04"/>
        <polygon class="cls-24" points="266.17 182.04 322.89 182.04 329.8 177.13 263.39 177.56 227.74 197.29 242.66 197.29 266.17 182.04"/>
        <g>
          <path class="cls-25" d="M672.61,152.52A68.44,68.44,0,1,0,741,221,68.44,68.44,0,0,0,672.61,152.52Zm10.58,66.71L724.8,194a58.6,58.6,0,0,1,6.53,25.27Zm48,5.93a58.45,58.45,0,0,1-7,23.93L683.5,225.16Zm-9.39-36.32-40.69,24.72,24.3-41.36A59.16,59.16,0,0,1,721.81,188.84Zm-46.24-26.57a58.33,58.33,0,0,1,24.78,6.88l-24.78,42.16Zm-5.93,117.38A58.55,58.55,0,0,1,646,273.34l23.66-40.25ZM644.11,169.56a58.43,58.43,0,0,1,25.53-7.29v49.34Zm31.46,63.22L700,273a58.42,58.42,0,0,1-24.4,6.69ZM639.08,172.7l24.89,41-41-24.11A59.1,59.1,0,0,1,639.08,172.7ZM662,225.16l-40.6,24.65A58.32,58.32,0,0,1,614,225.16Zm-48.13-5.93a58.42,58.42,0,0,1,6.13-24.5l41.7,24.5Zm10.71,35.59,39.49-24-23.24,39.56A59.06,59.06,0,0,1,624.6,254.82Zm80.47,15.12-23.83-39.23,39.87,23.42A59,59,0,0,1,705.07,269.94Z"/>
          <circle class="cls-26" cx="678.75" cy="228.97" r="37.25"/>
          <g>
            <path class="cls-26" d="M651.11,162.36l2.64,16.81a.57.57,0,0,0,.07.22L679.38,228a.72.72,0,0,0,1.34-.44l-2.13-14.72a.63.63,0,0,0-.08-.23l-26.06-50.69A.71.71,0,0,0,651.11,162.36Z"/>
            <path class="cls-26" d="M676.6,156.21l-3.26,16.7a.6.6,0,0,0,0,.23l7.43,54.42a.72.72,0,0,0,1.41,0l3-14.56a1,1,0,0,0,0-.24L678,156.26A.71.71,0,0,0,676.6,156.21Z"/>
            <path class="cls-26" d="M608,213.07l14.9,8.22a.83.83,0,0,0,.22.08l25.29,4.48a.72.72,0,0,1-.09,1.42l-42.5,2.34a.72.72,0,0,0-.15,1.41l16.43,4.44a.58.58,0,0,0,.23,0l56.57-3.64a.72.72,0,0,0,.31-1.34l-14.49-8.2a.73.73,0,0,0-.22-.09l-56-10.47A.71.71,0,0,0,608,213.07Z"/>
            <path class="cls-26" d="M618.79,189.16,630,202a.65.65,0,0,0,.18.15l47.54,27.48a.72.72,0,0,0,.91-1.08L669,217.2a1.19,1.19,0,0,0-.18-.15l-49.09-29A.72.72,0,0,0,618.79,189.16Z"/>
            <path class="cls-26" d="M753.32,208.54l-17,1a.59.59,0,0,0-.23,0l-50.91,20.58a.72.72,0,0,0,.3,1.38l14.86-.66a.64.64,0,0,0,.23-.05l53-20.87A.72.72,0,0,0,753.32,208.54Z"/>
            <path class="cls-26" d="M740.37,229.57l-56.38,2a.72.72,0,0,0-.3,1.35l14.46,7.66a.88.88,0,0,0,.23.07l56.3,8.87a.72.72,0,0,0,.44-1.35L740,240.41a.83.83,0,0,0-.22-.08l-14.63-2.16a.71.71,0,0,1,.08-1.42l31.49-.84a.71.71,0,0,0,.18-1.4L740.6,229.6A.91.91,0,0,0,740.37,229.57Z"/>
            <path class="cls-26" d="M707.16,160.61l-9.67,14a.68.68,0,0,0-.1.21l-14.93,52.84a.71.71,0,0,0,1.27.61l8.59-12.14a.88.88,0,0,0,.1-.22l16-54.7A.71.71,0,0,0,707.16,160.61Z"/>
            <path class="cls-26" d="M729.87,173.7,716,183.57a.65.65,0,0,0-.17.16L683.76,228.3a.72.72,0,0,0,1,1L697,220.82a.61.61,0,0,0,.16-.16l33.73-45.95A.72.72,0,0,0,729.87,173.7Z"/>
            <path class="cls-26" d="M713.51,300.12l-3.12-16.73a.83.83,0,0,0-.08-.22l-26.94-47.85a.71.71,0,0,0-1.33.47l2.56,14.65a.88.88,0,0,0,.07.23l27.51,49.92A.71.71,0,0,0,713.51,300.12Z"/>
            <path class="cls-26" d="M688.2,307,691,290.21a.49.49,0,0,0,0-.24l-9-54.17a.71.71,0,0,0-1.41,0L678,250.43a1,1,0,0,0,0,.24l8.8,56.32A.71.71,0,0,0,688.2,307Z"/>
            <path class="cls-26" d="M745.05,272.4l-11.56-12.48a.9.9,0,0,0-.19-.15L685,233.67a.71.71,0,0,0-.87,1.1l10,11a.62.62,0,0,0,.18.14l49.9,27.57A.72.72,0,0,0,745.05,272.4Z"/>
            <path class="cls-26" d="M610,256.88l17-1.43a.9.9,0,0,0,.22-.06l50.31-22a.72.72,0,0,0-.34-1.37l-14.84,1.08a.6.6,0,0,0-.23.06l-52.42,22.38A.71.71,0,0,0,610,256.88Z"/>
            <path class="cls-26" d="M657.53,303.47l9.26-14.28a1,1,0,0,0,.09-.21l13.42-53.25a.72.72,0,0,0-1.29-.58l-8.23,12.39a.62.62,0,0,0-.1.22L656.24,302.9A.71.71,0,0,0,657.53,303.47Z"/>
            <path class="cls-26" d="M634.45,291,648,280.77a.87.87,0,0,0,.16-.17L679,235.13a.71.71,0,0,0-1-1L666,243a.55.55,0,0,0-.17.17l-32.4,46.89A.72.72,0,0,0,634.45,291Z"/>
          </g>
          <circle class="cls-26" cx="688.23" cy="232.43" r="37.25"/>
          <path class="cls-27" d="M738.68,236.4c2.3,38.5-.3,77.11-.82,115.68-.13,9.22-.06,18.79,3.85,27.15,3.28,7,9.07,12.66,12.24,19.73l.54-137.8c.06-13.38,0-27.13-4.86-39.57C746,212.3,737.46,200.72,727,198.94,733.84,211.38,737.81,221.77,738.68,236.4Z"/>
          <path class="cls-27" d="M718.72,179.85c-3.93-1.51-8.73.06-12.34-2.12-3-1.81-4.12-5.6-6.6-8.08-6.11-6.1-16.57-1.82-25-3.84-3-.73-5.83-2.33-8.91-2.82-5.89-1-11.59,2.21-16.73,5.25-4.5,2.67-9.31,5.69-11.2,10.58-1.33,3.42-1.15,7.59-3.68,10.24-1.45,1.51-3.57,2.25-5,3.79-4.41,4.76.43,13.09-2.68,18.78-1,1.8-2.66,3.09-4,4.69a13.31,13.31,0,0,0-.84,15.16c1.1,1.71,2.69,3.49,2.28,5.49-.32,1.51-1.69,2.53-2.6,3.77-2.46,3.35-1.43,8.11.43,11.82s4.47,7.2,5,11.32-2.16,9.09-6.3,8.9a7.55,7.55,0,0,1-4.92-2.67c-4.69-5.1-4.84-12.85-3.84-19.7s2.85-13.86,1.21-20.59c-1.41-5.81-5.34-11.93-2.62-17.25,1.53-3,4.91-4.88,5.82-8.1,1-3.39-1.17-7.12-.1-10.47,1.35-4.21,6.93-5.66,8.81-9.66,1.56-3.34.19-7.76,2.51-10.63,1.85-2.29,5.29-2.56,7.52-4.49,2.51-2.17,3-6,5.48-8.22,1.65-1.47,3.92-2,6.08-2.47,7.91-1.74,15.91-3.48,24-3.23,7.23.23,14.32,2,21.21,4.22,10.93,3.47,18.4,9.94,28.54,15.3a25.47,25.47,0,0,1,5.13,5c.87,1.19,13.83,22.55,14.11,24,1.52,7.78-3.66,2.15-5.33,9.76C724.57,209.36,730.06,182.68,718.72,179.85Z"/>
          <path class="cls-28" d="M687.4,162.36a68.44,68.44,0,1,0,68.43,68.43A68.44,68.44,0,0,0,687.4,162.36ZM698,229.07l41.6-25.27a58.42,58.42,0,0,1,6.53,25.27ZM746,235a58.37,58.37,0,0,1-7,23.92L698.29,235Zm-9.4-36.32-40.69,24.71L720.22,182A59,59,0,0,1,736.6,198.68ZM690.36,172.1A58.61,58.61,0,0,1,715.14,179l-24.78,42.16Zm-5.93,117.38a58.33,58.33,0,0,1-23.65-6.3l23.65-40.26ZM658.9,179.4a58.44,58.44,0,0,1,25.53-7.3v49.34Zm31.46,63.22,24.4,40.18a58.41,58.41,0,0,1-24.4,6.68Zm-36.49-60.08,24.89,41-41-24.12A59.07,59.07,0,0,1,653.87,182.54ZM676.81,235l-40.6,24.65A58.46,58.46,0,0,1,628.8,235Zm-48.13-5.93a58.37,58.37,0,0,1,6.14-24.51l41.69,24.51Zm10.71,35.59,39.5-24-23.25,39.55A58.88,58.88,0,0,1,639.39,264.66Zm80.47,15.11L696,240.54,735.9,264A59,59,0,0,1,719.86,279.77Z"/>
          <g>
            <path class="cls-9" d="M737.44,360.66a31,31,0,0,1,2.88-11.34q1.39,6.18,2.77,12.37c.3,1.32.86,2.9,2.2,3.11l5-8.45c2.56,5.32.79,11.87,3,17.33a23,23,0,0,1,2.25-5.82,48.89,48.89,0,0,1-2,23.48,163.91,163.91,0,0,1-5-19.8c-2.66,1.69-1.13,6.86-4,8.14q-1.31-6-2.62-12.09a3.49,3.49,0,0,0-1.31-2.46l-1.83,7.09a52.71,52.71,0,0,1-.72-19.55"/>
            <path class="cls-9" d="M743.56,318.39c1.48-.93,2-4,2.27-5.4a14.32,14.32,0,0,1,.76-3.37c.09-.22,1.76-2.3,1.81-2a66.06,66.06,0,0,1,.94,12.56,24.38,24.38,0,0,0,.27,5.86,6.31,6.31,0,0,0,3.3,4.51,69.12,69.12,0,0,0,.89-30.62c-.06-.29-.15-.63-.41-.76s-.71.09-1,.34l-2.57,2.28-.24-17.53c0-1.79-.47-4.11-2.17-4.34l-3.35,17.83a67,67,0,0,0-.61-12.58c-.7-4.83-3.08,3.29-3.28,4.33-1.61,8.56-1.19,17.17.13,25.77a6.38,6.38,0,0,0,.61,2.2,2.09,2.09,0,0,0,1.77,1.19A1.65,1.65,0,0,0,743.56,318.39Z"/>
          </g>
        </g>
        <g>
          <rect class="cls-29" x="376.86" y="86.31" width="126.25" height="76.05"/>
          <polygon class="cls-19" points="559.86 321.04 334.74 321.04 334.74 203.47 564.03 203.47 559.86 321.04"/>
          <polygon class="cls-14" points="334.74 233.62 334.74 321.04 559.86 321.04 562.3 252.34 334.74 233.62"/>
          <polyline class="cls-19" points="537.87 167.9 537.87 150.2 553.58 152.52 575.65 166.97 572.67 192.78 317.87 199.44 315.01 169.95 312.78 166.41 326.13 150.2 341.89 150.2 350.88 164.66"/>
          <polygon class="cls-19" points="552.12 191.47 553.58 162.36 537.87 162.36 537.41 162.36 522.55 162.36 522.94 162.36 507.25 162.36 506.93 162.36 492.08 162.36 492.32 162.36 476.24 162.36 476.07 162.36 461.21 162.36 461.31 162.36 447.54 162.36 447.5 162.36 432.64 162.36 432.61 162.36 416.53 162.36 416.63 162.36 401.76 162.36 401.61 162.36 387.82 162.36 388.06 162.36 373.21 162.36 372.9 162.36 356.82 162.36 357.2 162.36 342.35 162.36 341.89 162.36 326.13 162.36 327.58 191.47 552.12 191.47"/>
          <polygon class="cls-19" points="376.86 162.36 502.27 162.36 497.8 147.57 497.8 86.31 385.91 86.31 385.91 147.57 376.86 162.36"/>
          <rect class="cls-25" x="382.22" y="86.31" width="117.18" height="67.28"/>
          <rect class="cls-28" x="401.06" y="103" width="98.35" height="50.59"/>
          <g>
            <path class="cls-30" d="M513.21,182.46,528.91,147l-2.34-1-16.14,36.46C511.36,182.42,512.28,182.42,513.21,182.46Z"/>
            <path class="cls-31" d="M528.5,151.66l13.41,32.6c.92,0,1.83-.06,2.75-.06l-17.68-43-2.7,26.67a9.42,9.42,0,0,1,2.49.81Z"/>
            <rect class="cls-30" x="525.62" y="147.18" width="4.08" height="5.58" rx="1.56" transform="translate(373.72 676.48) rotate(-89.57)"/>
            <path class="cls-30" d="M523.41,149.09c0,.66,1.92,1.21,4.3,1.23s4.31-.5,4.32-1.16-1.92-1.21-4.3-1.23S523.42,148.43,523.41,149.09Z"/>
            <polyline class="cls-30" points="523.41 149.09 532.03 149.16 532.04 147.21 523.43 147.15 523.41 149.09"/>
            <path class="cls-32" d="M523.43,147.15c0,.66,1.92,1.2,4.3,1.22s4.31-.5,4.31-1.16-1.92-1.21-4.3-1.23-4.31.51-4.31,1.17"/>
            <path class="cls-32" d="M508.68,146.09l.11.43c.55,1.8,1.94,3,3.16,2.68s1.79-2.14,1.22-4l-.09-.29c-.62-1.7-2-2.75-3.14-2.37s-1.61,1.9-1.26,3.55"/>
            <path class="cls-32" d="M509.94,142.54c.32,1,.63,2,.93,3,.38,1.23.74,2.46,1.08,3.7l9.2-2.56,4.53-1.25c-.68-2.45-1.41-4.87-2.2-7.28l-13.54,4.43"/>
            <path class="cls-32" d="M510.87,145.5l-2.19.59.11.43c.49,1.6,1.64,2.73,2.74,2.73a2,2,0,0,0,.42-.05c-.34-1.24-.7-2.47-1.08-3.7h0"/>
            <path class="cls-32" d="M518,143.6l-4.92,1.31-2.21.59h0c.38,1.23.74,2.46,1.08,3.7h0L520,147a6.83,6.83,0,0,1-2-3.23.93.93,0,0,1,0-.13"/>
            <path class="cls-32" d="M517.89,143.18c0,.18.09.36.15.55.78,2.6,2.69,4.38,4.35,3.94s2.41-3,1.59-5.74l-.11-.34c-.89-2.52-2.84-4.1-4.39-3.56s-2.14,2.74-1.59,5.15"/>
            <path class="cls-32" d="M519.48,138c.48,1.44.95,2.9,1.39,4.36.54,1.75,1,3.51,1.52,5.28l10-2.68.09,0h.09l3.78-1,4.71-1.27c-.28-1.06-.57-2.11-.88-3.16q-1.11-3.84-2.38-7.62l-4.62,1.55-3.73,1.26h0l-.14,0-9.79,3.3"/>
            <path class="cls-31" d="M525.55,147.48l7-1.85q-1.54-5.82-3.49-11.53l-6.85,2.33q1.86,5.48,3.34,11"/>
            <path class="cls-30" d="M527.56,140.84c1,3.11,3.12,5.27,5,4.79s2.68-3.54,1.69-6.8-3.36-5.36-5.18-4.73-2.43,3.64-1.5,6.74"/>
            <path class="cls-31" d="M520.64,142.94c.9,3,3,5,4.91,4.54s2.71-3.43,1.77-6.56-3.29-5.12-5.11-4.49-2.47,3.53-1.57,6.51"/>
            <path class="cls-32" d="M528.15,140.46l.06.19c.81,2.69,2.61,4.6,4.16,4.33l.1,0h.09c1.55-.45,2.18-3.13,1.32-6s-2.9-4.76-4.44-4.26h-.05l-.11.05c-1.41.62-1.86,3.09-1.13,5.72"/>
            <path class="cls-32" d="M528.15,140.46l.06.19c.81,2.69,2.61,4.6,4.16,4.33l.1,0h.09c1.55-.45,2.18-3.13,1.32-6s-2.9-4.76-4.44-4.26h-.05l-.11.05c-1.41.62-1.86,3.09-1.13,5.72"/>
            <path class="cls-32" d="M529.27,134.73h0q.83,2.49,1.59,5c.53,1.75,1,3.49,1.5,5.25h0l.09,0h.09l3.78-1q-.66-2.46-1.39-4.89c-.56-1.88-1.16-3.75-1.78-5.61l-3.73,1.26h-.05l-.12,0"/>
            <path class="cls-32" d="M530.87,139.73l-2.72.73.06.19c.76,2.52,2.39,4.36,3.86,4.36a1.53,1.53,0,0,0,.3,0c-.47-1.76-1-3.5-1.5-5.25h0"/>
            <path class="cls-32" d="M533,139.17l-2.13.56h0c.53,1.75,1,3.49,1.5,5.25h0l.1,0h.09l3.34-.89a9.33,9.33,0,0,1-2.27-3.19,13.44,13.44,0,0,1-.63-1.65v0"/>
            <path class="cls-33" d="M523.24,147.44l-.83.22h0l.84-.23"/>
            <path class="cls-32" d="M522.41,147.66h0m-1.9-5.18-2.62.7c0,.18.09.36.15.55.7,2.33,2.32,4,3.84,4a2.24,2.24,0,0,0,.51-.07c-.21-.79-.43-1.57-.65-2.36a9.23,9.23,0,0,1-.51-.88,9.44,9.44,0,0,1-.59-1.49c0-.15-.09-.31-.13-.46"/>
            <path class="cls-32" d="M521.74,145.31c.22.79.44,1.57.65,2.36h0l.83-.22.6-.16a5.41,5.41,0,0,1-2.1-2"/>
            <path class="cls-34" d="M520.51,142.48h0c0,.15.08.31.13.46a9.44,9.44,0,0,0,.59,1.49,9.44,9.44,0,0,1-.59-1.49l-.13-.46"/>
            <path class="cls-35" d="M533,139.2a13.44,13.44,0,0,0,.63,1.65c1.27,2.79,3.36,4.58,5.18,4.12s2.74-3.05,2.33-6.17a11.53,11.53,0,0,0-.42-1.93c-1.18-3.92-4-6.44-6.08-5.69s-2.75,4.31-1.64,8"/>
            <path class="cls-35" d="M534.64,131.18q1.49,4.29,2.75,8.64.75,2.56,1.42,5.15l10.13-2.62,3.88-1q-2-7.54-4.51-14.91l-13.67,4.74"/>
            <path class="cls-36" d="M537.39,139.82l-3.76,1c1.14,2.5,2.93,4.2,4.6,4.2a2.32,2.32,0,0,0,.58-.08q-.67-2.58-1.42-5.15h0"/>
            <path class="cls-36" d="M544.74,137.82l-3.6,1-3.75,1h0q.75,2.56,1.42,5.15h0l9.43-2.44a9.91,9.91,0,0,1-2.89-3.46c-.21-.4-.42-.82-.61-1.25"/>
            <path class="cls-37" d="M544,135.87a17.86,17.86,0,0,0,1.33,3.2c1.55,2.85,3.71,4.59,5.61,4.13s2.95-3.08,2.77-6.42a15.66,15.66,0,0,0-.66-3.65c-1.48-4.91-4.89-8.1-7.34-7.21s-3.1,5.31-1.71,10"/>
            <path class="cls-37" d="M545.73,125.92q2.12,5.94,3.82,12c.49,1.76,1,3.51,1.41,5.28l9.94-2.5c-.2-.8-.4-1.61-.62-2.41q-2.12-8-4.88-15.79l-9.67,3.42"/>
            <path class="cls-30" d="M553.84,132.9c1.1,3.62,3,6.47,5,7.48a2.91,2.91,0,0,0,2,.32c2.53-.61,3.55-5.36,2-10.53s-5-8.57-7.49-7.68a2.92,2.92,0,0,0-1.53,1.4c-1.08,1.94-1.12,5.38,0,9"/>
            <path class="cls-38" d="M549.55,137.92l-4.2,1.15c1.39,2.54,3.25,4.2,5,4.2a2.68,2.68,0,0,0,.62-.07c-.45-1.77-.92-3.52-1.41-5.28h0"/>
            <path class="cls-38" d="M555.26,136.37l-1.53.41-4.18,1.14h0c.49,1.76,1,3.51,1.41,5.28h0l9.94-2.5h0a2.32,2.32,0,0,1-.59.07,3.1,3.1,0,0,1-1.46-.39,9.48,9.48,0,0,1-3.58-4h0"/>
            <path class="cls-39" d="M555.27,136.37a9.48,9.48,0,0,0,3.58,4,3.1,3.1,0,0,0,1.46.39,2.32,2.32,0,0,0,.59-.07h0c-.2-.81-.4-1.61-.62-2.41l-5-1.92"/>
            <path class="cls-11" d="M553.84,132.9c1.1,3.62,3,6.47,5,7.48l.23,0c2.32-.58,3.24-4.89,1.82-9.57s-4.57-7.77-6.81-7l-.22.08C552.79,125.83,552.75,129.27,553.84,132.9Z"/>
            <path class="cls-31" d="M555.74,123.46c2-.73,5.07,2.41,6.43,6.92s.57,8.82-1.52,9.33-4.78-2.72-6.09-7-.85-8.5,1.18-9.22m-.34-1c-2.46.89-3,5.51-1.56,10.4s4.52,8.42,7.06,7.8,3.55-5.37,2-10.53S557.85,121.6,555.4,122.5Z"/>
            <path class="cls-32" d="M528,147a1.83,1.83,0,1,0-3.46,1.09A1.83,1.83,0,1,0,528,147Z"/>
            <rect class="cls-32" x="526.23" y="145.28" width="0.96" height="4.13" transform="translate(-19.91 165.88) rotate(-17.57)"/>
            <path class="cls-37" d="M528.89,146.66a1.83,1.83,0,1,0-1.11,2.52A2,2,0,0,0,528.89,146.66Z"/>
            <path class="cls-11" d="M555.9,131.78c.68,2.49,2.2,4.23,3.39,3.91s1.6-2.61.92-5.09-2.2-4.23-3.39-3.91S555.22,129.3,555.9,131.78Z"/>
          </g>
          <polygon class="cls-14" points="582.61 221.82 584.39 171.13 565.1 171.13 564.54 189.38 546.29 189.38 546.76 171.13 527.49 171.13 527.11 189.38 508.86 189.38 509.15 171.13 489.41 171.13 489.2 189.38 470.95 189.38 471.07 171.13 454.15 171.13 454.11 187.78 435.85 187.78 435.82 171.13 416.07 171.13 416.19 187.78 397.94 187.78 397.74 171.13 380.81 171.13 381.11 189.38 362.86 189.38 362.48 171.13 342.74 171.13 343.21 189.38 324.96 189.38 324.4 171.13 305.04 171.13 306.82 221.82 582.61 221.82"/>
          <path class="cls-24" d="M316.31,164.66l9.54-10.78H339l2.93-3.68h-8.85l0-1.2h-6.9l-22.24,22.13h21.32l5.16-6.47Zm31.49,0-4,6.47h18.48l3.29-6.47Zm138,0,3.79,6.47h20.15l-5.4-6.47Zm35.55,0,6.25,6.4,0,.07h20.12l-7.68-6.47Zm-69.05,0,2.22,6.47h16.26c-.53-1.3-1.6-3.72-2.84-6.47Zm-36.06,0-.41,6.47h19.45l-.91-6.47Zm-33.58,0-2.33,6.18.08.29h17.48l1.14-6.47ZM553.58,150.2H537.86l4.82,3.68h12.44l15.33,10.78H556.8l8.47,6.47H584Z"/>
        </g>
        <g>
          <polygon class="cls-14" points="319.73 267.67 223.85 264.34 227.18 347.72 319.73 347.72 319.73 267.67"/>
          <polygon class="cls-19" points="224.54 283.13 223.7 262.19 319.59 265.52 319.59 303.6 224.54 283.13"/>
          <polygon class="cls-19" points="324.59 275.33 330.34 255.51 330.5 198.75 318.69 218.29 324.59 275.33"/>
          <path class="cls-14" d="M259,220l-25.35-6.07,4.95-10.47,4.43-4,6.3-1.7v14.43h14.87s2.75-12.91,3.33-12.73,7.25-.69,7.25-.69v16.19l21-1.81,1.87-13.32,6.31-1.44v15.57Z"/>
          <path class="cls-19" d="M326.13,200.21l-7.44,0v9.88H301.21v-9.84l-14.77.07v9.77H271.66v-9.67l-14.15.13v9.54H242.74V200.8c-3.78.07-7.11.15-9.84.24l0-.83-1.73.9-3.2.15.11,1.45-23.61,12.23,7.93,29.7,65.69-6.18h32.64Z"/>
          <rect class="cls-24" x="208.26" y="225.32" width="108.05" height="8.39"/>
          <polygon class="cls-14" points="306.58 213.94 306.58 231.42 287.95 231.42 287.95 213.94 269.32 213.94 269.32 231.42 250.7 231.42 250.7 213.94 232.86 213.94 232.86 231.42 214.23 231.42 214.23 213.94 195.32 213.94 199.27 275.33 324.59 275.33 324.59 213.94 306.58 213.94"/>
          <g>
            <polygon class="cls-24" points="237.25 200.87 242.84 200.87 242.74 200.79 250.28 197.29 227.74 197.29 195.32 213.94 214.38 213.94 220.25 210.39 219.85 210.39 237.25 200.87"/>
            <polygon class="cls-24" points="232.86 213.94 250.49 213.94 254.91 210.39 237.28 210.39 232.86 213.94"/>
            <path class="cls-24" d="M270.63,200.87l.09-.05c.34-.16.68-.3,1-.43l3-1.64H261l-3.36,1.78a.61.61,0,0,1,.08.26.21.21,0,0,1,0,.08Z"/>
            <path class="cls-24" d="M289.56,198.37a1.17,1.17,0,0,0-.74.26l-2.41,1.87h14.12a1.24,1.24,0,0,0,.7-.22l2.66-1.91Z"/>
            <polygon class="cls-24" points="318.52 198.75 316.53 200.87 316.76 200.87 306.89 213.94 324.59 213.94 330.5 198.75 318.52 198.75"/>
            <polygon class="cls-24" points="269.42 213.94 287.95 213.94 292.22 210.39 273.69 210.39 269.42 213.94"/>
          </g>
          <rect class="cls-40" x="226.24" y="328.17" width="11.02" height="7.66"/>
          <rect class="cls-41" x="228.92" y="321.04" width="11.92" height="7.13"/>
          <rect class="cls-42" x="225.41" y="294.39" width="4.57" height="10.35"/>
          <rect class="cls-19" x="203.88" y="254.33" width="18.92" height="10.01"/>
          <rect class="cls-19" x="211.99" y="243.24" width="16.77" height="9.45"/>
        </g>
        <g>
          <path class="cls-20" d="M612.71,252.78l-16.36,6.73-3.53,100.4,52.87-33.4-34.94,1.64c.23-23.16,1-46.29,1.78-69.44q.11-3,.18-5.93m103.07-14.29-6.67,85.05,6.67-85.05"/>
          <path class="cls-17" d="M682.65,225.07l-69.73.07c.15,9.22,0,18.43-.21,27.64q-.08,3-.18,5.93c-.75,23.15-1.55,46.28-1.78,69.44l34.94-1.64,63.42-3,6.67-85.05-6.67,85.05-36.34.83-26-85.6.67-.28h68.37l-25.57-12.17-7.56-1.25"/>
          <polygon class="cls-17" points="599.03 223.14 599.03 251.78 644.75 234.01 698.61 236.36 680.76 221.82 599.03 223.14"/>
          <path class="cls-16" d="M698.61,234c-1.48-.22-18.13-10.4-18.13-10.4l-.31,11.16Z"/>
          <path class="cls-11" d="M680.54,226.89l8.9,3.9H682c6.09,4.5,12.8,8.11,18.68,12.9a1,1,0,0,1,.86.2,17,17,0,0,0,7.86,3,40,40,0,0,0,5.7.49l.7-8.9-35-16.67H606.12L595.77,212l-9.23-.44,11.74,15.38Z"/>
          <polygon class="cls-11" points="689.44 230.79 637.4 230.79 584.39 250.96 593.06 259.57 596.35 259.51 647.41 238.49 715.78 238.49 699.23 230.79 689.44 230.79"/>
          <polyline class="cls-15" points="596.35 259.51 592.82 359.91 649.08 324.37 649.21 324.37 646.74 238.77 596.35 259.51"/>
          <path class="cls-16" d="M687,245.59h-.75c-2.83,0-5.64-.39-8.46-.65q-8.46-.72-16.9-1.6v-.2q8.49,0,17,.22c2.83,0,5.67,0,8.49.26a59.69,59.69,0,0,1,8.42,1.34v.19a56.5,56.5,0,0,1-7.77.44m28.75-7.1H647.41l-.67.28,26,85.6,36.34-.83,6.67-85.05"/>
          <path class="cls-17" d="M530.93,251.91l-.35,16.94H517.29l-.16,9.81h19.14l.4-19.15h.1l-5.84-7.6M301.26,251h-.09V251l.09-.08m68,0H369l-5.41,8.55h0l.39,19.15h19.14l-.16-9.81H369.67L369.3,251m34.54,0h-.09c-1,2.46-3.16,8.55-3.16,8.55h0L400.8,277H420l-.07-9.7H404L403.84,251m71.85,0H459.11l0,16.31H441.18l0-16.31h-.74c-.45,2,.13,8.55.13,8.55h0l0,17.46h19.15l0-17.46h15.87l.06-8.55m37.3,0H493.65l-.2,17.89h-16l-.07,9.81h19.14l.22-19.15h16.11L513,251m36.85,0H549l.78.86,0-.86m18,0h0l-.55,17.89h-10.6l-.26,9.81h19.14l.59-19.15h-.4L567.8,251M330.38,241l-10.24,10H320l-8.16,8.55h0l.58,19.15h31l-.25-9.81H330.31l.07-27.9"/>
          <path class="cls-16" d="M313.68,297.47c-.84,0-1.68,0-2.54-.11l0-.2a27,27,0,0,1,2.69-1.24,3.63,3.63,0,0,1,1.28-.48h.09a2.8,2.8,0,0,1,1.59.59l0,.2a2.77,2.77,0,0,1-1.23,1.15,1.29,1.29,0,0,1-.61.13l-.39,0-.4,0h-.47M312,289.41a64.45,64.45,0,0,1-8.22-.52v-.19c2.83-.22,5.65-.51,8.43-.87a35,35,0,0,1,4.18-.57h.78a16.47,16.47,0,0,1,3.52.32l0,.19a13.49,13.49,0,0,1-4.11,1.46,11.21,11.21,0,0,1-2.38.21H312m284.34-29.9H576.12l-.59,19.15H556.39l.26-9.81.24-9.34H536.67l-.4,19.15H517.13l.16-9.81.15-9.34h-20.7l-.22,19.15H477.38l.07-9.81.06-9.34H459.76l0,17.46H440.57l0-17.46H419.82l.06,7.76L420,277H400.8l-.21-17.46H382.84l.15,9.34.16,9.81H364l-.39-19.15H342.91l.24,9.34.25,9.81h-31l-.58-19.15H291.61l2.46,50.17c.4,8.37.92,16.73,1.08,25.1s.27,16.74,0,25.13H592.82l3.53-100.4"/>
          <polygon class="cls-17" points="542.78 303.6 556.84 278.66 556.39 278.66 556.89 259.51 536.67 259.51 536.27 278.66 517.13 278.66 517.44 259.51 514.57 259.51 502.27 286.64 510.7 359.91 542.78 359.91 542.78 303.6"/>
          <path class="cls-11" d="M369,251H350l-7,8.55h20.7L369,251m34.72,0H387.26l-4.42,8.55h17.75s2.2-6.09,3.16-8.55m36.65,0H421.48l-1.61,8.55h20.66s-.58-6.59-.13-8.55M549,251H530.21l.72.95,5.84,7.6h20.12l-7.08-7.69L549,251m37.67,0H567.8l7.92,8.55h20.63L586.7,251m-261.84-5.1H307.08l-5.82,5.1-.09.08-9.65,8.47h20.31L320,251l4.87-5.1"/>
          <polyline class="cls-43" points="331.08 302.71 315.45 302.71 315.45 313.95 322.69 313.95 322.69 309.79 331.08 309.79 331.08 302.71"/>
          <polyline class="cls-43" points="338.32 309.79 331.08 309.79 331.08 313.95 322.69 313.95 322.69 321.04 338.32 321.04 338.32 309.79"/>
          <polyline class="cls-44" points="331.08 309.79 322.69 309.79 322.69 313.95 331.08 313.95 331.08 309.79"/>
          <polyline class="cls-43" points="570.69 301.98 555.06 301.98 555.06 313.22 564.48 313.22 564.48 308.33 570.69 308.33 570.69 301.98"/>
          <polyline class="cls-45" points="580.11 308.33 570.69 308.33 570.69 313.22 564.48 313.22 564.48 319.57 580.11 319.57 580.11 308.33"/>
          <polyline class="cls-46" points="570.69 308.33 564.48 308.33 564.48 313.22 570.69 313.22 570.69 308.33"/>
          <polyline class="cls-17" points="657.47 274.05 657.47 283.8 660.43 283.8 657.47 274.05"/>
          <polyline class="cls-47" points="678.47 270.39 657.47 270.39 657.47 274.05 660.43 283.8 668.66 283.8 668.66 279.64 678.47 279.64 678.47 270.39"/>
          <polyline class="cls-43" points="694.03 279.64 678.47 279.64 678.47 283.8 668.66 283.8 668.66 293.25 694.03 293.25 694.03 279.64"/>
          <polyline class="cls-48" points="678.47 279.64 668.66 279.64 668.66 283.8 678.47 283.8 678.47 279.64"/>
          <polyline class="cls-49" points="618.8 284.01 604.67 289.88 603.25 300.97 618.8 292.94 618.8 284.01"/>
          <polyline class="cls-49" points="624.73 291.79 611.56 299.2 610.75 308.33 624.85 300.97 624.73 291.79"/>
          <path class="cls-50" d="M291.52,259.51h-.1l1.07,50.23c.19,8.37.27,16.74.69,25.11s.91,16.72,1.77,25.07h.1l-3.53-100.4m.09,0h0"/>
          <path class="cls-22" d="M291.61,259.51h-.09l3.53,100.4h.1c.27-8.39.12-16.76,0-25.13s-.68-16.73-1.08-25.1l-2.46-50.17"/>
          <polyline class="cls-11" points="291.61 259.51 291.51 259.51 291.61 259.51 291.61 259.51"/>
          <path class="cls-22" d="M660.93,243.14v.2q8.45.89,16.9,1.6c2.82.26,5.63.63,8.46.65H687a56.5,56.5,0,0,0,7.77-.44V245a59.69,59.69,0,0,0-8.42-1.34c-2.82-.28-5.66-.21-8.49-.26q-8.48-.2-17-.22"/>
          <path class="cls-22" d="M315.07,295.44a3.63,3.63,0,0,0-1.28.48,27,27,0,0,0-2.69,1.24l0,.2c.86.07,1.7.11,2.54.11h.47l.4,0,.39,0a1.29,1.29,0,0,0,.61-.13,2.77,2.77,0,0,0,1.23-1.15l0-.2a2.8,2.8,0,0,0-1.59-.59h-.09"/>
          <path class="cls-22" d="M317.18,287.25h-.78a35,35,0,0,0-4.18.57c-2.78.36-5.6.65-8.43.87v.19a64.45,64.45,0,0,0,8.22.52h2.23a11.21,11.21,0,0,0,2.38-.21,13.49,13.49,0,0,0,4.11-1.46l0-.19a16.47,16.47,0,0,0-3.52-.32"/>
        </g>
        <g>
          <path class="cls-17" d="M388.32,212.14,387.2,215h-4.61c.5,1.56,1.21,3.75,2,6h.24l-.13.32c1.63,4.72,3.48,9.62,4.21,9.62l12.21-.05-.1-3.38H388.94l-.62-15.33m65.8-.74H437.45l.09,16.07H421.13l-.28-16.07H403.92l.41,13.85h15.56l.1,5.52,18.52-.07,0-5.45H454l.08-13.85m32.73,0H470l-.28,16.07h-12.6l0,3.15,17.74-.07.09-5.3h11.5l.41-13.85m32.52,0H503.29l-.67,16.07h-8.9l-.09,3,11.81,0,6.08-17.32,7.85-1.71"/>
          <path class="cls-17" d="M438.51,230.7l-18.52.07.22,12.47h18.37l-.07-12.54m36.34-.15-17.74.07L457,243.24h17.58l.23-12.69m-90.17-9.27-1.57,4h.32l.73,18h17.31l-.37-12.39-12.21.05c-.73,0-2.58-4.9-4.21-9.62m-15.54-5.34-4.63,9.31h.2l4.43-9.31m13.45-1h-9.92L370,221h14.59c-.77-2.26-1.48-4.45-2-6m136.78-3.55h0l-7.85,1.71-6.08,17.32-11.81,0-.37,12.76h18.19l.74-18h18L519.37,211.4m-145.93-.16-.3,0h.46l-.16,0"/>
          <path class="cls-16" d="M515.57,286.64H375.84c0,.44,0,.89,0,1.33l.84,28.36,1.6,56.71H512.75l2.82-86.41"/>
          <path class="cls-16" d="M365.74,247.39h-.06l.1.67c0-.22,0-.44,0-.67m22.91,0h-21.4c.38,3.75.72,7.5,1.09,11.25l5.62,0h.94l0,.91h13.71V247.39m-23.94-22.14h-.2l3.25,61.39h6.32c-.41-8.67-.84-17.34-1.1-26l-5.5-.13-.86,0-.05-.83c-.25-3.87-.54-7.73-.79-11.59l-.1-.67h.06c-.1-1.63-.2-3.26-.29-4.9-.35-5.71-.61-11.44-.87-17.17h.1l0-.07m165.5,0h-18l-.74,18H493.26l.37-12.76.09-3,.07-2.22H474.94l-.09,5.3-.23,12.69H457l.07-12.62,0-3.15,0-2.22H438.48l0,5.45.07,12.54H420.21L420,230.77l-.1-5.52h-19l.07,2.22.1,3.38.37,12.39H384.16l-.73-18h-.32l0,.07h-18.3c.69,5.68,1.36,11.37,1.94,17.07.19,1.67.36,3.33.53,5h21.4v12.18H374.94v0c.42,9,.65,18,.9,27H527l3.25-61.39m0,0h0"/>
          <polygon class="cls-17" points="471.15 275.52 422.39 275.52 422.39 292.2 405.07 292.2 405.07 372.41 489.12 372.41 489.12 292.2 471.15 292.2 471.15 275.52"/>
          <polygon class="cls-11" points="471.15 292.2 471.15 275.52 422.39 275.52 422.39 292.2 406.5 292.2 406.5 333.95 486.04 333.95 486.04 292.2 471.15 292.2"/>
          <polygon class="cls-20" points="414.41 292.2 405.07 292.2 405.07 372.41 412.48 337.69 414.41 292.2"/>
          <polygon class="cls-20" points="479.27 292.2 481.04 340.61 489.12 372.41 489.12 292.2 479.27 292.2"/>
          <polyline class="cls-20" points="422.39 292.2 425.64 275.82 422.39 275.82 421.83 291.06"/>
          <polygon class="cls-20" points="471.15 292.2 468.39 275.39 471.15 275.52 471.15 292.2"/>
          <polyline class="cls-11" points="371.37 211.26 369.14 215.94 364.71 225.25 364.68 225.32 364.78 225.31 364.78 225.32 383.08 225.32 383.11 225.25 384.68 221.28 384.81 220.96 384.57 220.96 369.98 220.96 372.67 214.94 382.59 214.94 387.2 214.94 388.32 212.14 388.65 211.31 373.6 211.26 373.14 211.26 371.37 211.26"/>
          <polygon class="cls-11" points="488.42 214.94 486.57 211.31 486.37 211.31 469.96 211.26 469.19 211.26 470.8 214.94 488.42 214.94"/>
          <polygon class="cls-11" points="454.89 214.94 454.14 211.31 453.36 211.31 436.56 211.26 436.53 211.26 437.02 214.94 454.89 214.94"/>
          <polygon class="cls-11" points="420.8 214.94 420.92 211.47 420.88 211.47 404.93 211.31 403.84 211.31 403.11 214.94 420.8 214.94"/>
          <polygon class="cls-11" points="473.43 220.96 475.34 225.32 493.69 225.32 491.47 220.96 473.43 220.96"/>
          <polygon class="cls-11" points="401.92 220.96 401.06 225.32 420.44 225.32 420.59 220.96 401.92 220.96"/>
          <polygon class="cls-11" points="519.48 211.31 503.24 211.26 505.78 214.94 518.68 214.94 522.96 220.96 509.94 220.96 512.95 225.32 530.07 225.32 519.48 211.31"/>
          <polygon class="cls-11" points="437.83 220.96 438.42 225.32 457.03 225.32 456.13 220.96 437.83 220.96"/>
          <path class="cls-15" d="M512.52,514h-131c-4.78,0-8.13-7.13-7.45-10.93L397,385.22c.32-1.77,3.18-3.19,6.38-3.19h87.33c3.19,0,6.06,1.42,6.37,3.19L520,503.08C520.66,506.88,517.31,514,512.52,514Z"/>
          <path class="cls-11" d="M512.52,508.07h-131c-4.78,0-8.13-3.16-7.45-7L397,373.36c.32-1.77,3.18-3.2,6.38-3.2h87.33c3.19,0,6.06,1.43,6.37,3.2L520,501.1C520.66,504.91,517.31,508.07,512.52,508.07Z"/>
          <path class="cls-15" d="M459.94,376.71h-25.8c-.8,0-1.43-.36-1.41-.81s.69-.8,1.49-.8h25.65c.79,0,1.46.36,1.48.8S460.74,376.71,459.94,376.71Z"/>
          <path class="cls-15" d="M460,487.87c.18,5.61-5.59,10.27-12.91,10.27s-13.09-4.66-12.91-10.27c.18-5.45,6-9.76,12.91-9.76S459.77,482.42,460,487.87Z"/>
          <path class="cls-15" d="M476.19,380.53H404.32l-6.8,45.54c17.8-10.18,57.94-33.19,78.67-45.54m-84,91.76,102.67-57.64L497.3,431l-92.37,41.27H392.18m97.59-91.76,4.13,27.7L391.78,464.57l5.55-37.19-6.7,44.91H503.45l-13.68-91.76"/>
          <polyline class="cls-51" points="494.85 414.65 392.18 472.29 404.93 472.29 497.3 431.02 494.85 414.65"/>
          <polyline class="cls-52" points="397.52 426.07 397.52 426.07 397.33 427.38 397.52 426.07"/>
          <path class="cls-51" d="M489.77,380.53H476.19c-20.73,12.35-60.87,35.36-78.67,45.54l-.19,1.31-5.55,37.19L493.9,408.23l-4.13-27.7"/>
          <path class="cls-20" d="M396.57,314v-1H384a3.05,3.05,0,0,1-3.06-3V297.29a3.07,3.07,0,0,1,3.06-3.06h12.61a3.07,3.07,0,0,1,3.06,3.06v12.62a3.06,3.06,0,0,1-3.06,3v2a5,5,0,0,0,5-5V297.29a5,5,0,0,0-5-5H384a5,5,0,0,0-5,5v12.62a5,5,0,0,0,5,5h12.61Z"/>
          <path class="cls-20" d="M386.78,297.88h7a2.24,2.24,0,0,1,2.24,2.24v7a2.23,2.23,0,0,1-2.23,2.23h-7a2.24,2.24,0,0,1-2.24-2.24v-7A2.23,2.23,0,0,1,386.78,297.88Z"/>
          <path class="cls-20" d="M508.58,314v-1H496a3.05,3.05,0,0,1-3.06-3V297.29a3.07,3.07,0,0,1,3.06-3.06h12.61a3.07,3.07,0,0,1,3.06,3.06v12.62a3.06,3.06,0,0,1-3.06,3v2a5,5,0,0,0,5-5V297.29a5,5,0,0,0-5-5H496a5,5,0,0,0-5,5v12.62a5,5,0,0,0,5,5h12.61Z"/>
          <path class="cls-20" d="M498.79,297.88h7a2.24,2.24,0,0,1,2.24,2.24v7a2.23,2.23,0,0,1-2.23,2.23h-7a2.24,2.24,0,0,1-2.24-2.24v-7A2.23,2.23,0,0,1,498.79,297.88Z"/>
          <polyline class="cls-20" points="389.27 303.56 380.57 508.03 382.55 508.12 391.25 303.64"/>
          <polyline class="cls-20" points="501.04 303.67 514.82 507.59 516.79 507.45 503.01 303.53"/>
          <path class="cls-18" d="M365.74,247.39h-.06l.1.67c0-.22,0-.44,0-.67m22.91,0h-21.4c.38,3.75.72,7.5,1.09,11.25l5.62,0h.94l0,.91h13.71V247.39"/>
          <polygon class="cls-53" points="403.27 273.74 382.12 273.74 380.31 261.56 403.27 261.56 403.27 273.74"/>
          <rect class="cls-41" x="496.8" y="254.64" width="22.39" height="12.72"/>
          <path class="cls-22" d="M364.78,225.32h-.2c.26,5.73.52,11.46.87,17.17.09,1.64.19,3.27.29,4.9h1.51c-.17-1.67-.34-3.33-.53-5-.58-5.7-1.25-11.39-1.94-17.07"/>
          <polyline class="cls-11" points="364.78 225.31 364.68 225.32 364.78 225.32 364.78 225.31"/>
          <path class="cls-54" d="M375.41,286.64h-1.33c0,.46.05.93.07,1.39l1.3,28.34,2.68,56.68h.1l-2.82-86.41"/>
          <path class="cls-22" d="M375.84,286.64h-.43l2.82,86.41h.09l-1.6-56.71L375.88,288c0-.44,0-.89,0-1.33"/>
          <path class="cls-22" d="M365.78,248.06c.25,3.86.54,7.72.79,11.59l.05.83.86,0,5.5.13c.26,8.67.69,17.34,1.1,26h1.76c-.25-9-.48-18-.9-27v0H367.5l-1.72-11.51"/>
          <path class="cls-55" d="M367.25,247.39h-1.51c0,.23,0,.45,0,.67l1.72,11.51h7.44l0-.91H374l-5.62,0c-.37-3.75-.71-7.5-1.09-11.25"/>
        </g>
        <path class="cls-29" d="M232.86,213.94l4.42-3.55h4.17l.43-.5,0,.5H248L250.28,175l-6.16-.36-1.34,21-9.8-7.16-.17-5.07-6.17.2.19,5.38-18,3.69-.47-10.79-6.16.24,1.17,27.63,6.16-3.31h-.1l18,.88.62,18,4.79-.15Zm8-12.24-7.12,8.45-.48-14Zm-31.67-1.17-.08-1.81L227,195l.22,6.37Z"/>
        <g>
          <path class="cls-29" d="M213.91,42l1.75,28L210.13,70,208,42.38Zm20.93-9.91-2.33,38.11,6-.25,2.29-37.46Zm-14.62,7.72.89,29.89,5.94.25-.9-30.3Z"/>
          <g>
            <path class="cls-15" d="M251.67,58.82h-70c-2.1,0-5.17-4.68-3.78-6.77l26.85-40C206.1,10,208.93,8.28,211,8.28l70.54-.8c2.1,0,5.09,4,2.86,7.71L258,55C256.6,57.13,253.77,58.82,251.67,58.82Z"/>
            <path class="cls-11" d="M249.69,54.87h-70c-2.1,0-2.68-1.69-1.3-3.78l26.45-39.85c1.39-2.09,4.22-3.78,6.32-3.78h70c2.1,0,2.68,1.69,1.3,3.78L256,51.09C254.62,53.18,251.79,54.87,249.69,54.87Z"/>
            <path class="cls-15" d="M211.54,12.12,204,23.51c-.3.45.05.81.77.81H223a2.42,2.42,0,0,0,1.84-.81l7.56-11.39c.3-.45,0-.81-.77-.81H213.38A2.42,2.42,0,0,0,211.54,12.12Zm2.07.82h15.65l-6.48,9.75H207.13Zm10.66,1.62h-7.83a2.42,2.42,0,0,0-1.84.82l-3.24,4.88c-.3.44,0,.81.76.81H220a2.45,2.45,0,0,0,1.84-.81L225,15.38C225.33,14.93,225,14.56,224.27,14.56Zm-4.55,4.88h-5.21l2.16-3.25h5.21Zm-5.35,17.89H196.11a2.42,2.42,0,0,0-1.84.81l-7.56,11.39c-.3.45,0,.81.77.81h18.25a2.42,2.42,0,0,0,1.85-.81l7.56-11.39C215.43,37.69,215.09,37.33,214.37,37.33Zm-8.86,11.38H189.86L196.34,39H212Zm-10.66-1.62h7.83a2.42,2.42,0,0,0,1.84-.82l3.24-4.87c.3-.45,0-.82-.76-.82h-7.83a2.41,2.41,0,0,0-1.84.82l-3.24,4.87C193.79,46.72,194.13,47.09,194.85,47.09Zm4.54-4.88h5.22l-2.16,3.25h-5.21Zm49.92,7.32,3.24-4.88c.3-.45,0-.81-.76-.81H244a2.42,2.42,0,0,0-1.84.81l-3.24,4.88c-.3.45,0,.81.76.81h7.83A2.42,2.42,0,0,0,249.31,49.53Zm-2.07-.82H242l2.16-3.25h5.21Zm-28.37-2.44a2.42,2.42,0,0,0,1.84-.81l2.16-3.25c.3-.45,0-.81-.76-.81h-5.22a2.44,2.44,0,0,0-1.85.81l-2.15,3.25c-.3.45,0,.81.76.81ZM217.11,43h2.61l-1.08,1.63H216Zm47.32-16.26c.29-.45-.05-.81-.77-.81h-5.22a2.42,2.42,0,0,0-1.84.81L254.44,30c-.3.45.05.82.77.82h5.21a2.44,2.44,0,0,0,1.85-.82ZM260.2,29.2h-2.61l1.08-1.63h2.61Zm-15.74,4.07-2.16,3.25c-.3.45,0,.81.76.81h5.22a2.4,2.4,0,0,0,1.84-.81l2.16-3.25c.3-.45,0-.82-.76-.82H246.3A2.42,2.42,0,0,0,244.46,33.27Zm2.07.81h2.61l-1.08,1.62h-2.61Zm-.05-9.76h18.26a2.4,2.4,0,0,0,1.84-.81l7.56-11.39c.3-.45,0-.81-.76-.81H255.12a2.44,2.44,0,0,0-1.85.81l-7.55,11.39C245.42,24,245.76,24.32,246.48,24.32Zm8.86-11.38H271l-6.47,9.75H248.87ZM266,14.56h-7.82a2.43,2.43,0,0,0-1.85.82l-3.24,4.88c-.29.44,0,.81.77.81h7.82a2.47,2.47,0,0,0,1.85-.81l3.24-4.88C267.06,14.93,266.72,14.56,266,14.56Zm-4.54,4.88h-5.22l2.16-3.25h5.22ZM250,40.58H226.56L227.64,39h6.52l1.08-1.63H230c-.72,0-1.06-.36-.76-.81l5.39-8.13h-7.82l-1.62,2.44h5.22l-1.08,1.62h-6.52c-.73,0-1.07-.36-.77-.81l2.16-3.25H216.4l1.07-1.63H237c.72,0,1.06.36.76.81l-5.4,8.13h3.92L240.1,30a2.4,2.4,0,0,1,1.84-.81h2.61l1.62-2.44A2.42,2.42,0,0,1,248,26h6.52l-1.08,1.62h-5.21L246.62,30a2.44,2.44,0,0,1-1.85.82h-2.61L236.77,39h14.34Zm-5.75-22.76h-2.61l1.08-1.63h2.61Zm5.85-4.88h-2.61l1.08-1.63h2.61Zm.94,16.26L250,30.83h-2.61l1.08-1.63Zm-6.34-8.13h-2.61l1.08-1.63h2.61ZM241.49,26h2.61L243,27.57h-2.61Zm-6.43,19.51h2.61l-1.08,1.63H234Zm-11.74,0h2.61l-1.08,1.63h-2.61Zm-4.63-14.63-1.08,1.62H215l1.08-1.62ZM205,26l-1.08,1.62h-2.61L202.36,26Zm-8,8.13h2.61L198.5,35.7h-2.61ZM212.8,26l-1.08,1.62h-2.61L210.19,26Zm15.51,17.89H225.7l1.08-1.63h2.61ZM243.2,43l1.08-1.62h2.61L245.81,43Zm-4.81-30.08h-3.91l1.08-1.63h9.12l-1.07,1.63H241l-8.1,12.19h-2.61Zm-1.26,9.75h6.52l-1.08,1.63h-6.52Zm-25.1,26h23.48l-1.08,1.63H211Zm9.94-13-1.62,2.44h3.91l-1.07,1.63H218c-.72,0-1.06-.36-.77-.81l2.16-3.26h-17c-.72,0-1.06-.36-.77-.81l2.7-4.06h-5.21l1.08-1.63h11.73c.72,0,1.07.36.77.81l-1.62,2.44h-2.61l1.08-1.62H207l-2.16,3.25h23.48l-1.08,1.62Zm11.33,6.51h7.83l-1.08,1.63h-6.52l-2.16,3.25h-2.61l2.7-4.07A2.42,2.42,0,0,1,233.3,42.21ZM258,32.45h2.61l-5.94,8.95H252.1Z"/>
          </g>
          <g>
            <polyline class="cls-16" points="246.66 114.13 243.63 115.85 189.26 114.68 195.49 189.63 244.98 188.9 246.66 114.13"/>
            <polygon class="cls-15" points="244.98 189.63 254.43 182.88 257.58 105.5 246.78 109.55 244.98 189.63"/>
            <polyline class="cls-35" points="180.64 114.5 243.63 115.85 263.43 104.6 244.98 87.05 244.08 69.06 211.68 68.16 201.78 70.86 201.34 85.7 180.64 113.15 180.64 114.5"/>
            <path class="cls-35" d="M223.35,70.85H201.79l-.45,14.85,34.48.57V71c-1.89.11-3.78.14-5.66.14h-1.43c-1.8,0-3.59-.14-5.38-.28"/>
            <line class="cls-35" x1="244.98" y1="87.05" x2="244.08" y2="69.05"/>
            <path class="cls-20" d="M233.3,164.66v-1H202.45a4.49,4.49,0,0,1-4.48-4.48V128.34a4.5,4.5,0,0,1,4.48-4.48H233.3a4.49,4.49,0,0,1,4.48,4.48v30.85a4.47,4.47,0,0,1-4.48,4.48v2a6.46,6.46,0,0,0,6.46-6.46V128.34a6.46,6.46,0,0,0-6.46-6.45H202.45a6.45,6.45,0,0,0-6.45,6.45v30.85a6.46,6.46,0,0,0,6.45,6.46H233.3Z"/>
            <rect class="cls-20" x="204.11" y="130" width="27.54" height="27.54" rx="3.6"/>
            <path class="cls-21" d="M228.05,130H212.78v18.11a2.09,2.09,0,0,0,2.09,2.09h16.78V133.6A3.6,3.6,0,0,0,228.05,130Z"/>
            <path class="cls-37" d="M238.51,113.91h-.44a.48.48,0,0,0,.26.44.29.29,0,0,0,.16,0,.19.19,0,0,0,.19-.16l-.17-.35m-.73,0h-3.56l-7.08-.17c-4.71-.17-9.41-.65-14.12-1q-14.13-.95-28.28-1.67v-.2l6.68,0q10.85,0,21.68.33c4.72.12,9.45.16,14.16.59,2.36.25,4.71.45,7.06.76l3.51.49.43.08.22,0,.37.12a1,1,0,0,1,.36,1.2.67.67,0,0,1-.65.42.63.63,0,0,1-.47-.18.82.82,0,0,1-.27-.77h0m-27.63-9.58-.06-.19a10.68,10.68,0,0,1,4-1.27,12,12,0,0,1,1.36-.15,2.38,2.38,0,0,1,.79.13,3.46,3.46,0,0,1,1.82,1.35l-.06.19a6.15,6.15,0,0,1-2.07.41h-.13a12,12,0,0,1-1.72-.36,16.6,16.6,0,0,0-2.47-.18c-.48,0-1,0-1.45.06m-9.61-.53a4.42,4.42,0,0,1-1.18-.39c-.89-.27-1.8-.51-2.76-.73l0-.19a10,10,0,0,1,2.93-.65c.31,0,.64-.11,1-.11a1.24,1.24,0,0,1,.57.12,2.49,2.49,0,0,1,1.23,1.2l-.06.19a3.2,3.2,0,0,1-1.54.56h-.12m10.64-7.7,1.41,0,1.41,0a17,17,0,0,1,2.25.13,23.24,23.24,0,0,1,5.17,1.17v.2a23.22,23.22,0,0,1-5.27.6h-.33a46.69,46.69,0,0,1-4.87-.49q-5.2-.56-10.4-1.26v-.2q4.51-.12,9-.12h1.6M201.34,85.7l-20.7,27.45v1.35l63,1.35h-.11l-7.7-28.79v-.78l-34.48-.57"/>
            <path class="cls-32" d="M204.6,70.09l-2.81.76h21.56c-1.21-.09-2.42-.18-3.62-.25q-7.56-.39-15.13-.51m7.08-1.94-4.81,1.32q6.44-.41,12.89-.45c1.46,0,2.92,0,4.38,0s3.13,0,4.69.18a56.44,56.44,0,0,1,9,1.48l0,.2c-.66.06-1.31.12-2,.16V87.05l7.7,28.79h.11l19.79-11.25L245,87.05l-.9-18-32.4-.91"/>
            <path class="cls-56" d="M238.07,113.93h.44l.17.35a.19.19,0,0,1-.19.16.29.29,0,0,1-.16,0,.48.48,0,0,1-.26-.44m-46.65-3.07-6.68,0v.2q14.16.72,28.28,1.67c4.71.34,9.41.82,14.12,1l7.08.17h3.6a.82.82,0,0,0,.27.77.63.63,0,0,0,.47.18.67.67,0,0,0,.65-.42,1,1,0,0,0-.36-1.2l-.37-.12-.22,0-.43-.08-3.51-.49c-2.35-.31-4.7-.51-7.06-.76-4.71-.43-9.44-.47-14.16-.59q-10.84-.33-21.68-.33"/>
            <path class="cls-56" d="M200.46,101.75c-.31,0-.64.08-1,.11a10,10,0,0,0-2.93.65l0,.19c1,.22,1.87.46,2.76.73a4.42,4.42,0,0,0,1.18.39h.12a3.2,3.2,0,0,0,1.54-.56l.06-.19a2.49,2.49,0,0,0-1.23-1.2,1.24,1.24,0,0,0-.57-.12"/>
            <path class="cls-56" d="M215.44,102.74a12,12,0,0,0-1.36.15,10.68,10.68,0,0,0-4,1.27l.06.19c.49,0,1-.06,1.45-.06a16.6,16.6,0,0,1,2.47.18,12,12,0,0,0,1.72.36h.13a6.15,6.15,0,0,0,2.07-.41l.06-.19a3.46,3.46,0,0,0-1.82-1.35,2.38,2.38,0,0,0-.79-.13"/>
            <path class="cls-56" d="M214,96.08l-1.41,0-1.41,0h-1.6q-4.52,0-9,.12v.2q5.19.7,10.4,1.26a46.69,46.69,0,0,0,4.87.49h.33a23.22,23.22,0,0,0,5.27-.6v-.2a23.24,23.24,0,0,0-5.17-1.17,17,17,0,0,0-2.25-.13"/>
            <path class="cls-54" d="M206.87,69.47c-1.74.11-3.47.23-5.21.38v.2l2.93,0,2.27-.62"/>
            <path class="cls-57" d="M235.82,70.85H223.35c1.79.14,3.58.26,5.38.28h1.43c1.88,0,3.77,0,5.66-.14v-.14"/>
            <path class="cls-58" d="M224.14,69c-1.46,0-2.92,0-4.38,0q-6.45,0-12.89.45l-2.27.62q7.58.12,15.13.51c1.2.07,2.41.16,3.62.25h12.47V71c.66,0,1.31-.1,2-.16l0-.2a56.44,56.44,0,0,0-9-1.48c-1.56-.14-3.13-.18-4.69-.18"/>
            <polygon class="cls-17" points="204.97 187.21 195.89 187.21 195.32 182.04 204.97 182.04 204.97 187.21"/>
            <rect class="cls-18" x="197.9" y="171.64" width="11.19" height="8.6"/>
            <path class="cls-32" d="M203.39,88.32a7.24,7.24,0,0,0-.46,2.56v.19a1.48,1.48,0,0,0,.31,1,1.05,1.05,0,0,0,.81.34,2,2,0,0,0,1.14-.41,9.15,9.15,0,0,0,2.46-2.54l-.83-.54a8,8,0,0,1-2.19,2.27,1.27,1.27,0,0,1-.58.24l-.07,0a.74.74,0,0,1-.06-.34v-.16a6.35,6.35,0,0,1,.39-2.21l-.92-.35Z"/>
            <path class="cls-32" d="M208.7,90.66a4.69,4.69,0,0,0-.07.77,2.81,2.81,0,0,0,.16.94,1.5,1.5,0,0,0,.67.81,1.45,1.45,0,0,0,.72.18,2.72,2.72,0,0,0,1.8-.9,11,11,0,0,0,1.37-1.68.87.87,0,0,0,.14-.5l-.08-.39-.16-.22-.38-.15-.39.15.64.75-.25-.29v.38l.25-.09-.25-.29v0l-.27.31.27.1V90.1l-.27.31.19-.22-.28.09.09.13.19-.22-.28.09.06,0h-.06l.06,0h-.06l.14,0-.12-.08,0,0,.14,0-.12-.08a9.61,9.61,0,0,1-1.25,1.53,1.81,1.81,0,0,1-1.1.61l-.23-.05-.24-.3a1.66,1.66,0,0,1-.09-.59,4.58,4.58,0,0,1,0-.63l-1-.14Z"/>
            <path class="cls-32" d="M223,99a13.89,13.89,0,0,0,1.31,3,1.6,1.6,0,0,0,.8.76l.36.05a1.85,1.85,0,0,0,1.36-.86l2.55-3.27-.78-.61-2.54,3.27c-.22.31-.54.52-.59.49h0s-.15-.11-.27-.33A13.09,13.09,0,0,1,224,98.71L223,99Z"/>
            <path class="cls-32" d="M226.36,94.1a3.77,3.77,0,0,0,.49,1.5,1.68,1.68,0,0,0,1.34.75l.41-.07a1.85,1.85,0,0,0,.87-.73,5.74,5.74,0,0,0,1-2.12l-1-.22a4.94,4.94,0,0,1-.8,1.76.85.85,0,0,1-.39.37l-.09,0a.7.7,0,0,1-.52-.32,2.91,2.91,0,0,1-.34-1.1l-1,.16Z"/>
            <path class="cls-32" d="M229.9,102.76a4.31,4.31,0,0,0,.63,1.72,1.91,1.91,0,0,0,1.51.83l.47-.08a1.9,1.9,0,0,0,1-.87,3.2,3.2,0,0,0,.43-1.6l0-.33-1,.11v.22a2.23,2.23,0,0,1-.29,1.1,1,1,0,0,1-.46.44l-.15,0a1,1,0,0,1-.71-.41,3.4,3.4,0,0,1-.46-1.35l-1,.2Z"/>
            <path class="cls-32" d="M192.29,103.43a5.92,5.92,0,0,0-.14,1.32,6.43,6.43,0,0,0,.82,3.14l.19.33.38-.1a6.76,6.76,0,0,0,3.82-2.9l-.84-.52a5.77,5.77,0,0,1-3.26,2.47l.14.47.43-.24a5.36,5.36,0,0,1-.7-2.65,5.17,5.17,0,0,1,.12-1.11l-1-.21Z"/>
            <path class="cls-32" d="M203.5,105.51a4.19,4.19,0,0,0,.53,1.74,1.82,1.82,0,0,0,1.49.86L206,108a2,2,0,0,0,.83-.61,5.51,5.51,0,0,0,1.28-2.79l-1-.14a4.47,4.47,0,0,1-1.05,2.28,1,1,0,0,1-.41.33l-.14,0a.87.87,0,0,1-.66-.42,3.18,3.18,0,0,1-.38-1.34l-1,.14Z"/>
            <path class="cls-32" d="M206.53,100.46a1.83,1.83,0,0,0,.83,1.31,2.55,2.55,0,0,0,1.45.43,2.5,2.5,0,0,0,.81-.13,5.67,5.67,0,0,0,2.51-2.24l-.8-.58a4.7,4.7,0,0,1-2,1.88l-.48.08a1.67,1.67,0,0,1-.9-.26.79.79,0,0,1-.39-.6l-1,.11Z"/>
            <path class="cls-32" d="M223.92,89.53a4.58,4.58,0,0,0,.44,2.21,2.09,2.09,0,0,0,1.75,1.11,1.64,1.64,0,0,0,.56-.11,2.24,2.24,0,0,0,.85-.64,8.64,8.64,0,0,0,1.64-2.58l-.92-.37a7.66,7.66,0,0,1-1.44,2.28,1.4,1.4,0,0,1-.49.39l-.2,0a1.15,1.15,0,0,1-.89-.6,3.73,3.73,0,0,1-.31-1.75l-1,0Z"/>
          </g>
        </g>
        <g>
          <path class="cls-24" d="M548.48-142.77H304.15a16.21,16.21,0,0,0-16.21,16.49l3.39,191.15a16.2,16.2,0,0,0,16.2,15.92H541.72a16.21,16.21,0,0,0,16.2-15.63L564.68-126A16.21,16.21,0,0,0,548.48-142.77Z"/>
          <path class="cls-15" d="M560.23-137.72a16.06,16.06,0,0,0-5.82-1.1H310.07a16.2,16.2,0,0,0-16.2,16.49l3.38,191.15a16.14,16.14,0,0,0,4.49,10.88,16.15,16.15,0,0,0,5.79,1.09H541.72a16.21,16.21,0,0,0,16.2-15.63L564.68-126A16.13,16.13,0,0,0,560.23-137.72Z"/>
          <path class="cls-59" d="M556.34-138a16,16,0,0,0-5.73-1.07H309.84a15.88,15.88,0,0,0-16,16.07L297.2,63.2a15.63,15.63,0,0,0,4.42,10.6,16,16,0,0,0,5.71,1.06H538.11a15.88,15.88,0,0,0,15.95-15.23l6.67-186.25A15.65,15.65,0,0,0,556.34-138Z"/>
          <path class="cls-21" d="M335.25-121.91v55.37a4,4,0,0,0,4,4h55.37a4,4,0,0,0,4-4v-55.37a4,4,0,0,0-4-4H339.21A4,4,0,0,0,335.25-121.91Zm7.92,4h47.46v47.47H343.17ZM378.76-110H355a4,4,0,0,0-3.95,4v23.73a4,4,0,0,0,3.95,4h23.73a4,4,0,0,0,4-4v-23.73A4,4,0,0,0,378.76-110Zm-3.95,23.74H359v-15.83h15.82ZM394.58.7H339.21a4,4,0,0,0-4,4V60a4,4,0,0,0,4,4h55.37a4,4,0,0,0,4-4V4.65A4,4,0,0,0,394.58.7Zm-3.95,55.37H343.17V8.61h47.46ZM355,48.16h23.73a4,4,0,0,0,4-4V20.47a4,4,0,0,0-4-3.95H355a4,4,0,0,0-3.95,3.95V44.2A4,4,0,0,0,355,48.16Zm4-23.73h15.82V40.25H359ZM525.1,60V36.29a4,4,0,0,0-4-3.95H497.41a4,4,0,0,0-4,3.95V60a4,4,0,0,0,4,4h23.73A4,4,0,0,0,525.1,60Zm-7.91-4H501.37V40.25h15.82Zm-91-11.87a4,4,0,0,0,4-4V24.43a4,4,0,0,0-4-4H410.4a4,4,0,0,0-3.95,4V40.25a4,4,0,0,0,3.95,4ZM414.36,28.38h7.91v7.91h-7.91ZM525.1-50.72a4,4,0,0,0-4-4H505.32a4,4,0,0,0-3.95,4V-34.9a4,4,0,0,0,3.95,4h15.82a4,4,0,0,0,4-4Zm-7.91,11.87h-7.91v-7.91h7.91ZM477.64-19.08V-3.26a4,4,0,0,0,3.95,4h15.82a4,4,0,0,0,4-4V-19.08a4,4,0,0,0-4-4H481.59A4,4,0,0,0,477.64-19.08Zm7.91,4h7.91v7.91h-7.91ZM465.77-62.58h55.37a4,4,0,0,0,4-4v-55.37a4,4,0,0,0-4-4H465.77a4,4,0,0,0-3.95,4v55.37A4,4,0,0,0,465.77-62.58Zm4-55.38h47.46v47.47H469.73ZM505.32-110H481.59a4,4,0,0,0-3.95,4v23.73a4,4,0,0,0,3.95,4h23.73a4,4,0,0,0,4-4v-23.73A4,4,0,0,0,505.32-110Zm-3.95,23.74H485.55v-15.83h15.82Zm7.91,102.83H438.09V8.61h19.77V.7H442a4,4,0,0,1-4-4V-42.81H414.36v11.87h15.82V-23H410.4a4,4,0,0,1-3.95-4V-42.81H382.72v-7.91H442a4,4,0,0,1,4,4V-7.21h11.86V-34.9a4,4,0,0,1,4-4h7.91V-50.72a4,4,0,0,1,3.95-4h19.78v7.91H477.64V-34.9a4,4,0,0,1-4,4h-7.91V8.61h43.51ZM446-94.23h-7.91v-7.91H446ZM453.91-118H446v-7.91h7.91ZM489.5-38.85v7.91h-7.91v-7.91ZM453.91-78.4H446v-7.91h7.91Zm0,23.73h7.91v7.91h-7.91Zm19.77,94.92h7.91v7.91h-7.91Zm-35.59,0H446v7.91h-7.91ZM394.58-30.94V-23h-7.91v-7.91ZM343.17-54.67v7.91h-7.92v-7.91Zm-7.92,39.55h7.92v7.91h-7.92ZM366.9-54.67v7.91H359v-7.91Zm83.05,87H442V24.43H450Zm43.51-4V20.47h7.91v7.91ZM418.31-118H406.45v-7.91h27.68V-118h-7.91v59.33h-7.91Zm15.82,47.47h19.78v7.91H434.13ZM410.4,56.07h71.19V64H410.4Zm4-63.28V4.65h11.86v7.91H410.4a4,4,0,0,1-3.95-4V-7.21H355a4,4,0,0,1-3.95-4V-30.94H335.25v-7.91h35.6a4,4,0,0,1,4,4V-23H366.9v-7.91H359v15.82h71.19v7.91Zm47.46,31.64h23.73v7.91H465.77V48.16h-7.91V28.38A4,4,0,0,1,461.82,24.43ZM517.19-23h7.91v43.5h-7.91Z"/>
        </g>
        <g class="cls-60">
          <path class="cls-24" d="M332.84,150.21c-.42-5.32-.73-10.64-1.11-16l-.48-8-.42-8c-.16-2.66-.33-5.32-.53-8s-.23-5.32-.16-8,.22-5.33.47-8a71,71,0,0,1,1.11-8h.41a71.33,71.33,0,0,1,1.39,8c.35,2.66.57,5.32.76,8s.2,5.32.11,8-.18,5.33-.25,8l-.14,8-.2,8c-.18,5.33-.31,10.66-.55,16Z"/>
        </g>
      </g>
      <rect class="cls-61" x="-161.28" y="50.89" width="1267.46" height="469.94"/>
      <g>
        <path class="cls-24" d="M550.52-147.22H291.26a17.2,17.2,0,0,0-17.19,17.5L277.66,73.1A17.19,17.19,0,0,0,294.85,90h248.5a17.19,17.19,0,0,0,17.18-16.58l7.18-202.83A17.2,17.2,0,0,0,550.52-147.22Z"/>
        <path class="cls-15" d="M563-141.86a17,17,0,0,0-6.17-1.16H297.55a17.19,17.19,0,0,0-17.19,17.49L284,77.29a17.09,17.09,0,0,0,4.76,11.55A17.13,17.13,0,0,0,294.85,90h248.5a17.19,17.19,0,0,0,17.18-16.58l7.18-202.83A17.1,17.1,0,0,0,563-141.86Z"/>
        <path class="cls-59" d="M558.86-142.21a17,17,0,0,0-6.08-1.13H297.3a16.84,16.84,0,0,0-16.94,17L283.9,71.33a16.5,16.5,0,0,0,4.69,11.25,16.85,16.85,0,0,0,6.05,1.12H539.51a16.85,16.85,0,0,0,16.93-16.16l7.07-197.62A16.58,16.58,0,0,0,558.86-142.21Z"/>
        <path class="cls-21" d="M324.27-125.08v58.75a4.19,4.19,0,0,0,4.2,4.19h58.75a4.19,4.19,0,0,0,4.2-4.19v-58.75a4.2,4.2,0,0,0-4.2-4.2H328.47A4.2,4.2,0,0,0,324.27-125.08Zm8.4,4.19H383v50.36H332.67Zm37.76,8.39H345.26a4.2,4.2,0,0,0-4.2,4.2v25.18a4.2,4.2,0,0,0,4.2,4.2h25.17a4.2,4.2,0,0,0,4.2-4.2V-108.3A4.2,4.2,0,0,0,370.43-112.5Zm-4.19,25.18H349.45V-104.1h16.79ZM387.22,5H328.47a4.2,4.2,0,0,0-4.2,4.2V68a4.2,4.2,0,0,0,4.2,4.2h58.75a4.2,4.2,0,0,0,4.2-4.2V9.21A4.2,4.2,0,0,0,387.22,5ZM383,63.76H332.67V13.4H383Zm-37.76-8.39h25.17a4.2,4.2,0,0,0,4.2-4.2V26a4.19,4.19,0,0,0-4.2-4.19H345.26a4.19,4.19,0,0,0-4.2,4.19V51.17A4.2,4.2,0,0,0,345.26,55.37Zm4.19-25.18h16.79V47H349.45ZM525.71,68V42.78a4.2,4.2,0,0,0-4.2-4.2H496.33a4.19,4.19,0,0,0-4.19,4.2V68a4.19,4.19,0,0,0,4.19,4.2h25.18A4.2,4.2,0,0,0,525.71,68Zm-8.39-4.2H500.53V47h16.79ZM420.79,51.17A4.19,4.19,0,0,0,425,47V30.19a4.2,4.2,0,0,0-4.2-4.2H404a4.2,4.2,0,0,0-4.2,4.2V47a4.19,4.19,0,0,0,4.2,4.19ZM408.2,34.39h8.4v8.39h-8.4ZM525.71-49.55a4.19,4.19,0,0,0-4.2-4.19H504.73a4.19,4.19,0,0,0-4.2,4.19v16.79a4.2,4.2,0,0,0,4.2,4.2h16.78a4.2,4.2,0,0,0,4.2-4.2ZM517.32-37h-8.4v-8.39h8.4Zm-42,21V.81a4.2,4.2,0,0,0,4.2,4.2h16.78a4.2,4.2,0,0,0,4.2-4.2V-16a4.2,4.2,0,0,0-4.2-4.2H479.55A4.2,4.2,0,0,0,475.35-16Zm8.39,4.19h8.4v8.4h-8.4Zm-21-50.36h58.75a4.19,4.19,0,0,0,4.2-4.19v-58.75a4.2,4.2,0,0,0-4.2-4.2H462.76a4.2,4.2,0,0,0-4.2,4.2v58.75A4.19,4.19,0,0,0,462.76-62.14Zm4.2-58.75h50.36v50.36H467Zm37.77,8.39H479.55a4.2,4.2,0,0,0-4.2,4.2v25.18a4.2,4.2,0,0,0,4.2,4.2h25.18a4.19,4.19,0,0,0,4.19-4.2V-108.3A4.19,4.19,0,0,0,504.73-112.5Zm-4.2,25.18H483.74V-104.1h16.79ZM508.92,21.8H433.38V13.4h21V5H437.58a4.2,4.2,0,0,1-4.2-4.2v-42H408.2v12.59H425v8.39H404a4.2,4.2,0,0,1-4.2-4.2V-41.15H374.63v-8.4h62.95a4.2,4.2,0,0,1,4.2,4.2v42h12.59V-32.76a4.19,4.19,0,0,1,4.19-4.2H467V-49.55a4.18,4.18,0,0,1,4.19-4.19h21v8.39H475.35v12.59a4.2,4.2,0,0,1-4.2,4.2h-8.39v42h46.16ZM441.78-95.71h-8.4v-8.39h8.4Zm8.39-25.18h-8.39v-8.39h8.39ZM487.94-37v8.4h-8.39V-37Zm-37.77-42h-8.39v-8.4h8.39Zm0,25.18h8.39v8.39h-8.39ZM471.15,47h8.4v8.39h-8.4Zm-37.77,0h8.4v8.39h-8.4ZM387.22-28.56v8.39h-8.39v-8.39ZM332.67-53.74v8.39h-8.4v-8.39Zm-8.4,42h8.4v8.4h-8.4Zm33.57-42v8.39h-8.39v-8.39ZM446,38.58h-8.39V30.19H446Zm46.17-4.19V26h8.39v8.4ZM412.4-120.89H399.81v-8.39h29.38v8.39h-8.4v63H412.4Zm16.79,50.36h21v8.39h-21ZM404,63.76h75.54v8.4H404ZM408.2-3.38V9.21h12.59V17.6H404a4.2,4.2,0,0,1-4.2-4.2V-3.38H345.26a4.2,4.2,0,0,1-4.2-4.2v-21H324.27V-37H362a4.2,4.2,0,0,1,4.2,4.2v12.59h-8.4v-8.39h-8.39v16.78H425v8.4Zm50.36,33.57h25.18v8.39h-21V55.37h-8.39v-21A4.19,4.19,0,0,1,458.56,30.19Zm58.76-50.36h8.39V26h-8.39Z"/>
      </g>
      <path class="cls-62" d="M179.18,385.36C207,396.09,237,415,239.82,444.7L328.72,463c7.95,1.64,16.1,3.29,24.15,2.14,13.37-1.9,24.38-11.12,36.78-16.46,31.38-13.52,67.1-1.17,100.05,7.9,3.5,1,7.22,1.88,10.7.87,5.38-1.57,8.37-7.1,11.41-11.81,24.91-38.58,79-41.92,124.94-41.56,6.24.05,12.74,0,18.35-2.69s9.54-7.68,13.77-12.15c39.78-42,106-42.55,163.19-33.82,54.38,8.29,109.73,23.16,152.45,57.82,9.77,7.93,19,17.18,23.71,28.86,9.42,23.49-2.52,51.33-22,67.47s-44.9,23-69.67,28.22c-56.39,11.91-113.9,17.69-171.38,21.89-242.39,17.71-486,7.62-728.22-12.78-21-1.76-43.68-4.38-58.82-19-37.9-36.57-.28-84.9,22.65-116.31C6.53,376.32,51.91,365.91,94.1,367.28,123.19,368.22,152.07,374.91,179.18,385.36Z"/>
    </g>
    <g>
      <path class="cls-17" d="M388.32,212.14,387.2,215h-4.61c.5,1.56,1.21,3.75,2,6h.24l-.13.32c1.63,4.72,3.48,9.62,4.21,9.62l12.21-.05-.1-3.38H388.94l-.62-15.33m65.8-.74H437.45l.09,16.07H421.13l-.28-16.07H403.92l.41,13.85h15.56l.1,5.52,18.52-.07,0-5.45H454l.08-13.85m32.73,0H470l-.28,16.07h-12.6l0,3.15,17.74-.07.09-5.3h11.5l.41-13.85m32.52,0H503.29l-.67,16.07h-8.9l-.09,3,11.81,0,6.08-17.32,7.85-1.71"/>
      <path class="cls-17" d="M438.51,230.7l-18.52.07.22,12.47h18.37l-.07-12.54m36.34-.15-17.74.07L457,243.24h17.58l.23-12.69m-90.17-9.27-1.57,4h.32l.73,18h17.31l-.37-12.39-12.21.05c-.73,0-2.58-4.9-4.21-9.62m-15.54-5.34-4.63,9.31h.2l4.43-9.31m13.45-1h-9.92L370,221h14.59c-.77-2.26-1.48-4.45-2-6m136.78-3.55h0l-7.85,1.71-6.08,17.32-11.81,0-.37,12.76h18.19l.74-18h18L519.37,211.4m-145.93-.16-.3,0h.46l-.16,0"/>
      <path class="cls-16" d="M515.57,286.64H375.84c0,.44,0,.89,0,1.33l.84,28.36,1.6,56.71H512.75l2.82-86.41"/>
      <path class="cls-16" d="M365.74,247.39h-.06l.1.67c0-.22,0-.44,0-.67m22.91,0h-21.4c.38,3.75.72,7.5,1.09,11.25l5.62,0h.94l0,.91h13.71V247.39m-23.94-22.14h-.2l3.25,61.39h6.32c-.41-8.67-.84-17.34-1.1-26l-5.5-.13-.86,0-.05-.83c-.25-3.87-.54-7.73-.79-11.59l-.1-.67h.06c-.1-1.63-.2-3.26-.29-4.9-.35-5.71-.61-11.44-.87-17.17h.1l0-.07m165.5,0h-18l-.74,18H493.26l.37-12.76.09-3,.07-2.22H474.94l-.09,5.3-.23,12.69H457l.07-12.62,0-3.15,0-2.22H438.48l0,5.45.07,12.54H420.21L420,230.77l-.1-5.52h-19l.07,2.22.1,3.38.37,12.39H384.16l-.73-18h-.32l0,.07h-18.3c.69,5.68,1.36,11.37,1.94,17.07.19,1.67.36,3.33.53,5h21.4v12.18H374.94v0c.42,9,.65,18,.9,27H527l3.25-61.39m0,0h0"/>
      <polygon class="cls-17" points="471.15 275.52 422.39 275.52 422.39 292.2 405.07 292.2 405.07 372.41 489.12 372.41 489.12 292.2 471.15 292.2 471.15 275.52"/>
      <polygon class="cls-11" points="471.15 292.2 471.15 275.52 422.39 275.52 422.39 292.2 406.5 292.2 406.5 333.95 486.04 333.95 486.04 292.2 471.15 292.2"/>
      <polygon class="cls-20" points="414.41 292.2 405.07 292.2 405.07 372.41 412.48 337.69 414.41 292.2"/>
      <polygon class="cls-20" points="479.27 292.2 481.04 340.61 489.12 372.41 489.12 292.2 479.27 292.2"/>
      <polyline class="cls-20" points="422.39 292.2 425.64 275.82 422.39 275.82 421.83 291.06"/>
      <polygon class="cls-20" points="471.15 292.2 468.39 275.39 471.15 275.52 471.15 292.2"/>
      <polyline class="cls-11" points="371.37 211.26 369.14 215.94 364.71 225.25 364.68 225.32 364.78 225.31 364.78 225.32 383.08 225.32 383.11 225.25 384.68 221.28 384.81 220.96 384.57 220.96 369.98 220.96 372.67 214.94 382.59 214.94 387.2 214.94 388.32 212.14 388.65 211.31 373.6 211.26 373.14 211.26 371.37 211.26"/>
      <polygon class="cls-11" points="488.42 214.94 486.57 211.31 486.37 211.31 469.96 211.26 469.19 211.26 470.8 214.94 488.42 214.94"/>
      <polygon class="cls-11" points="454.89 214.94 454.14 211.31 453.36 211.31 436.56 211.26 436.53 211.26 437.02 214.94 454.89 214.94"/>
      <polygon class="cls-11" points="420.8 214.94 420.92 211.47 420.88 211.47 404.93 211.31 403.84 211.31 403.11 214.94 420.8 214.94"/>
      <polygon class="cls-11" points="473.43 220.96 475.34 225.32 493.69 225.32 491.47 220.96 473.43 220.96"/>
      <polygon class="cls-11" points="401.92 220.96 401.06 225.32 420.44 225.32 420.59 220.96 401.92 220.96"/>
      <polygon class="cls-11" points="519.48 211.31 503.24 211.26 505.78 214.94 518.68 214.94 522.96 220.96 509.94 220.96 512.95 225.32 530.07 225.32 519.48 211.31"/>
      <polygon class="cls-11" points="437.83 220.96 438.42 225.32 457.03 225.32 456.13 220.96 437.83 220.96"/>
      <path class="cls-15" d="M512.52,514h-131c-4.78,0-8.13-7.13-7.45-10.93L397,385.22c.32-1.77,3.18-3.19,6.38-3.19h87.33c3.19,0,6.06,1.42,6.37,3.19L520,503.08C520.66,506.88,517.31,514,512.52,514Z"/>
      <path class="cls-11" d="M512.52,508.07h-131c-4.78,0-8.13-3.16-7.45-7L397,373.36c.32-1.77,3.18-3.2,6.38-3.2h87.33c3.19,0,6.06,1.43,6.37,3.2L520,501.1C520.66,504.91,517.31,508.07,512.52,508.07Z"/>
      <path class="cls-15" d="M459.94,376.71h-25.8c-.8,0-1.43-.36-1.41-.81s.69-.8,1.49-.8h25.65c.79,0,1.46.36,1.48.8S460.74,376.71,459.94,376.71Z"/>
      <path class="cls-15" d="M460,487.87c.18,5.61-5.59,10.27-12.91,10.27s-13.09-4.66-12.91-10.27c.18-5.45,6-9.76,12.91-9.76S459.77,482.42,460,487.87Z"/>
      <path class="cls-15" d="M476.19,380.53H404.32l-6.8,45.54c17.8-10.18,57.94-33.19,78.67-45.54m-84,91.76,102.67-57.64L497.3,431l-92.37,41.27H392.18m97.59-91.76,4.13,27.7L391.78,464.57l5.55-37.19-6.7,44.91H503.45l-13.68-91.76"/>
      <polyline class="cls-51" points="494.85 414.65 392.18 472.29 404.93 472.29 497.3 431.02 494.85 414.65"/>
      <polyline class="cls-52" points="397.52 426.07 397.52 426.07 397.33 427.38 397.52 426.07"/>
      <path class="cls-51" d="M489.77,380.53H476.19c-20.73,12.35-60.87,35.36-78.67,45.54l-.19,1.31-5.55,37.19L493.9,408.23l-4.13-27.7"/>
      <path class="cls-20" d="M396.57,314v-1H384a3.05,3.05,0,0,1-3.06-3V297.29a3.07,3.07,0,0,1,3.06-3.06h12.61a3.07,3.07,0,0,1,3.06,3.06v12.62a3.06,3.06,0,0,1-3.06,3v2a5,5,0,0,0,5-5V297.29a5,5,0,0,0-5-5H384a5,5,0,0,0-5,5v12.62a5,5,0,0,0,5,5h12.61Z"/>
      <path class="cls-20" d="M386.78,297.88h7a2.24,2.24,0,0,1,2.24,2.24v7a2.23,2.23,0,0,1-2.23,2.23h-7a2.24,2.24,0,0,1-2.24-2.24v-7A2.23,2.23,0,0,1,386.78,297.88Z"/>
      <path class="cls-20" d="M508.58,314v-1H496a3.05,3.05,0,0,1-3.06-3V297.29a3.07,3.07,0,0,1,3.06-3.06h12.61a3.07,3.07,0,0,1,3.06,3.06v12.62a3.06,3.06,0,0,1-3.06,3v2a5,5,0,0,0,5-5V297.29a5,5,0,0,0-5-5H496a5,5,0,0,0-5,5v12.62a5,5,0,0,0,5,5h12.61Z"/>
      <path class="cls-20" d="M498.79,297.88h7a2.24,2.24,0,0,1,2.24,2.24v7a2.23,2.23,0,0,1-2.23,2.23h-7a2.24,2.24,0,0,1-2.24-2.24v-7A2.23,2.23,0,0,1,498.79,297.88Z"/>
      <polyline class="cls-20" points="389.27 303.56 380.57 508.03 382.55 508.12 391.25 303.64"/>
      <polyline class="cls-20" points="501.04 303.67 514.82 507.59 516.79 507.45 503.01 303.53"/>
      <path class="cls-18" d="M365.74,247.39h-.06l.1.67c0-.22,0-.44,0-.67m22.91,0h-21.4c.38,3.75.72,7.5,1.09,11.25l5.62,0h.94l0,.91h13.71V247.39"/>
      <polygon class="cls-53" points="403.27 273.74 382.12 273.74 380.31 261.56 403.27 261.56 403.27 273.74"/>
      <rect class="cls-41" x="496.8" y="254.64" width="22.39" height="12.72"/>
      <path class="cls-22" d="M364.78,225.32h-.2c.26,5.73.52,11.46.87,17.17.09,1.64.19,3.27.29,4.9h1.51c-.17-1.67-.34-3.33-.53-5-.58-5.7-1.25-11.39-1.94-17.07"/>
      <polyline class="cls-11" points="364.78 225.31 364.68 225.32 364.78 225.32 364.78 225.31"/>
      <path class="cls-54" d="M375.41,286.64h-1.33c0,.46.05.93.07,1.39l1.3,28.34,2.68,56.68h.1l-2.82-86.41"/>
      <path class="cls-22" d="M375.84,286.64h-.43l2.82,86.41h.09l-1.6-56.71L375.88,288c0-.44,0-.89,0-1.33"/>
      <path class="cls-22" d="M365.78,248.06c.25,3.86.54,7.72.79,11.59l.05.83.86,0,5.5.13c.26,8.67.69,17.34,1.1,26h1.76c-.25-9-.48-18-.9-27v0H367.5l-1.72-11.51"/>
      <path class="cls-55" d="M367.25,247.39h-1.51c0,.23,0,.45,0,.67l1.72,11.51h7.44l0-.91H374l-5.62,0c-.37-3.75-.71-7.5-1.09-11.25"/>
    </g>
  </g>
  <g>
    <rect class="cls-63" x="18.52" y="437.59" width="192.01" height="70.12" rx="35.06"/>
    <rect class="cls-63" x="99.68" y="410.06" width="192.01" height="70.12" rx="35.06"/>
  </g>
</svg>
