<svg id="Layer_1" data-name="Layer 1" xmlns="http://www.w3.org/2000/svg" viewBox="0 0 86.07 39.97">
  <defs>
    <style>
      .cls-1 {
        fill: #f5fffe;
      }

      .cls-2 {
        fill: #ffd255;
      }

      .cls-3 {
        fill: none;
        stroke: #515151;
        stroke-miterlimit: 10;
        stroke-width: 2px;
      }
    </style>
  </defs>
  <title>tool-bug</title>
  <g>
    <g>
      <rect class="cls-1" y="12.17" width="60.5" height="24.86" rx="11.72"/>
      <rect class="cls-1" x="25.57" y="2.41" width="60.5" height="24.86" rx="11.72"/>
    </g>
    <rect class="cls-2" x="20.91" width="49.34" height="39.97" rx="7.87"/>
  </g>
  <g>
    <path class="cls-3" d="M44.78,16.57l3.15-3.16A8.49,8.49,0,0,1,48,8,9.59,9.59,0,0,1,56.5,5L52.19,9.35a4.23,4.23,0,0,0,4,4l4.31-4.31a9.56,9.56,0,0,1-2.93,8.55,8.44,8.44,0,0,1-5.42,0l-1.65,1.64"/>
    <path class="cls-3" d="M44.74,25.06l-9.11,9.1a2.93,2.93,0,0,1-2.12.88,3,3,0,0,1-2.11-5.11L42.14,19.21"/>
    <polygon class="cls-3" points="31.84 4.93 35.76 7.55 35.76 10.16 33.14 10.17 30.52 6.24 31.84 4.93"/>
    <line class="cls-3" x1="35.76" y1="10.16" x2="44.93" y2="19.33"/>
    <line class="cls-3" x1="46.89" y1="18.68" x2="44.27" y2="21.29"/>
    <path class="cls-3" d="M44.27,21.29,54.86,33.87h0a3.28,3.28,0,0,0,5.78-2.11,3.25,3.25,0,0,0-1.17-2.5h0L46.89,18.68"/>
  </g>
</svg>
