<svg id="layer1" xmlns="http://www.w3.org/2000/svg" viewBox="0 0 111 111">
  <defs>
    <style>
      .cls-1 {
        fill: #fff;
      }

      .cls-2 {
        fill: #231f20;
      }
    </style>
  </defs>
  <title>welcome-qr</title>
  <rect class="cls-1" width="111" height="111"/>
  <rect class="cls-2" x="12" y="12" width="3" height="3"/>
  <rect class="cls-2" x="15" y="12" width="3" height="3"/>
  <rect class="cls-2" x="18" y="12" width="3" height="3"/>
  <rect class="cls-2" x="21" y="12" width="3" height="3"/>
  <rect class="cls-2" x="24" y="12" width="3" height="3"/>
  <rect class="cls-2" x="27" y="12" width="3" height="3"/>
  <rect class="cls-2" x="30" y="12" width="3" height="3"/>
  <rect class="cls-2" x="39" y="12" width="3" height="3"/>
  <rect class="cls-2" x="48" y="12" width="3" height="3"/>
  <rect class="cls-2" x="51" y="12" width="3" height="3"/>
  <rect class="cls-2" x="57" y="12" width="3" height="3"/>
  <rect class="cls-2" x="60" y="12" width="3" height="3"/>
  <rect class="cls-2" x="69" y="12" width="3" height="3"/>
  <rect class="cls-2" x="72" y="12" width="3" height="3"/>
  <rect class="cls-2" x="78" y="12" width="3" height="3"/>
  <rect class="cls-2" x="81" y="12" width="3" height="3"/>
  <rect class="cls-2" x="84" y="12" width="3" height="3"/>
  <rect class="cls-2" x="87" y="12" width="3" height="3"/>
  <rect class="cls-2" x="90" y="12" width="3" height="3"/>
  <rect class="cls-2" x="93" y="12" width="3" height="3"/>
  <rect class="cls-2" x="96" y="12" width="3" height="3"/>
  <rect class="cls-2" x="12" y="15" width="3" height="3"/>
  <rect class="cls-2" x="30" y="15" width="3" height="3"/>
  <rect class="cls-2" x="42" y="15" width="3" height="3"/>
  <rect class="cls-2" x="45" y="15" width="3" height="3"/>
  <rect class="cls-2" x="48" y="15" width="3" height="3"/>
  <rect class="cls-2" x="51" y="15" width="3" height="3"/>
  <rect class="cls-2" x="57" y="15" width="3" height="3"/>
  <rect class="cls-2" x="60" y="15" width="3" height="3"/>
  <rect class="cls-2" x="63" y="15" width="3" height="3"/>
  <rect class="cls-2" x="69" y="15" width="3" height="3"/>
  <rect class="cls-2" x="78" y="15" width="3" height="3"/>
  <rect class="cls-2" x="96" y="15" width="3" height="3"/>
  <rect class="cls-2" x="12" y="18" width="3" height="3"/>
  <rect class="cls-2" x="18" y="18" width="3" height="3"/>
  <rect class="cls-2" x="21" y="18" width="3" height="3"/>
  <rect class="cls-2" x="24" y="18" width="3" height="3"/>
  <rect class="cls-2" x="30" y="18" width="3" height="3"/>
  <rect class="cls-2" x="36" y="18" width="3" height="3"/>
  <rect class="cls-2" x="39" y="18" width="3" height="3"/>
  <rect class="cls-2" x="42" y="18" width="3" height="3"/>
  <rect class="cls-2" x="48" y="18" width="3" height="3"/>
  <rect class="cls-2" x="54" y="18" width="3" height="3"/>
  <rect class="cls-2" x="57" y="18" width="3" height="3"/>
  <rect class="cls-2" x="78" y="18" width="3" height="3"/>
  <rect class="cls-2" x="84" y="18" width="3" height="3"/>
  <rect class="cls-2" x="87" y="18" width="3" height="3"/>
  <rect class="cls-2" x="90" y="18" width="3" height="3"/>
  <rect class="cls-2" x="96" y="18" width="3" height="3"/>
  <rect class="cls-2" x="12" y="21" width="3" height="3"/>
  <rect class="cls-2" x="18" y="21" width="3" height="3"/>
  <rect class="cls-2" x="21" y="21" width="3" height="3"/>
  <rect class="cls-2" x="24" y="21" width="3" height="3"/>
  <rect class="cls-2" x="30" y="21" width="3" height="3"/>
  <rect class="cls-2" x="39" y="21" width="3" height="3"/>
  <rect class="cls-2" x="42" y="21" width="3" height="3"/>
  <rect class="cls-2" x="45" y="21" width="3" height="3"/>
  <rect class="cls-2" x="54" y="21" width="3" height="3"/>
  <rect class="cls-2" x="57" y="21" width="3" height="3"/>
  <rect class="cls-2" x="60" y="21" width="3" height="3"/>
  <rect class="cls-2" x="69" y="21" width="3" height="3"/>
  <rect class="cls-2" x="72" y="21" width="3" height="3"/>
  <rect class="cls-2" x="78" y="21" width="3" height="3"/>
  <rect class="cls-2" x="84" y="21" width="3" height="3"/>
  <rect class="cls-2" x="87" y="21" width="3" height="3"/>
  <rect class="cls-2" x="90" y="21" width="3" height="3"/>
  <rect class="cls-2" x="96" y="21" width="3" height="3"/>
  <rect class="cls-2" x="12" y="24" width="3" height="3"/>
  <rect class="cls-2" x="18" y="24" width="3" height="3"/>
  <rect class="cls-2" x="21" y="24" width="3" height="3"/>
  <rect class="cls-2" x="24" y="24" width="3" height="3"/>
  <rect class="cls-2" x="30" y="24" width="3" height="3"/>
  <rect class="cls-2" x="42" y="24" width="3" height="3"/>
  <rect class="cls-2" x="54" y="24" width="3" height="3"/>
  <rect class="cls-2" x="57" y="24" width="3" height="3"/>
  <rect class="cls-2" x="60" y="24" width="3" height="3"/>
  <rect class="cls-2" x="69" y="24" width="3" height="3"/>
  <rect class="cls-2" x="72" y="24" width="3" height="3"/>
  <rect class="cls-2" x="78" y="24" width="3" height="3"/>
  <rect class="cls-2" x="84" y="24" width="3" height="3"/>
  <rect class="cls-2" x="87" y="24" width="3" height="3"/>
  <rect class="cls-2" x="90" y="24" width="3" height="3"/>
  <rect class="cls-2" x="96" y="24" width="3" height="3"/>
  <rect class="cls-2" x="12" y="27" width="3" height="3"/>
  <rect class="cls-2" x="30" y="27" width="3" height="3"/>
  <rect class="cls-2" x="39" y="27" width="3" height="3"/>
  <rect class="cls-2" x="57" y="27" width="3" height="3"/>
  <rect class="cls-2" x="63" y="27" width="3" height="3"/>
  <rect class="cls-2" x="66" y="27" width="3" height="3"/>
  <rect class="cls-2" x="69" y="27" width="3" height="3"/>
  <rect class="cls-2" x="78" y="27" width="3" height="3"/>
  <rect class="cls-2" x="96" y="27" width="3" height="3"/>
  <rect class="cls-2" x="12" y="30" width="3" height="3"/>
  <rect class="cls-2" x="15" y="30" width="3" height="3"/>
  <rect class="cls-2" x="18" y="30" width="3" height="3"/>
  <rect class="cls-2" x="21" y="30" width="3" height="3"/>
  <rect class="cls-2" x="24" y="30" width="3" height="3"/>
  <rect class="cls-2" x="27" y="30" width="3" height="3"/>
  <rect class="cls-2" x="30" y="30" width="3" height="3"/>
  <rect class="cls-2" x="36" y="30" width="3" height="3"/>
  <rect class="cls-2" x="42" y="30" width="3" height="3"/>
  <rect class="cls-2" x="48" y="30" width="3" height="3"/>
  <rect class="cls-2" x="54" y="30" width="3" height="3"/>
  <rect class="cls-2" x="60" y="30" width="3" height="3"/>
  <rect class="cls-2" x="66" y="30" width="3" height="3"/>
  <rect class="cls-2" x="72" y="30" width="3" height="3"/>
  <rect class="cls-2" x="78" y="30" width="3" height="3"/>
  <rect class="cls-2" x="81" y="30" width="3" height="3"/>
  <rect class="cls-2" x="84" y="30" width="3" height="3"/>
  <rect class="cls-2" x="87" y="30" width="3" height="3"/>
  <rect class="cls-2" x="90" y="30" width="3" height="3"/>
  <rect class="cls-2" x="93" y="30" width="3" height="3"/>
  <rect class="cls-2" x="96" y="30" width="3" height="3"/>
  <rect class="cls-2" x="36" y="33" width="3" height="3"/>
  <rect class="cls-2" x="39" y="33" width="3" height="3"/>
  <rect class="cls-2" x="42" y="33" width="3" height="3"/>
  <rect class="cls-2" x="48" y="33" width="3" height="3"/>
  <rect class="cls-2" x="51" y="33" width="3" height="3"/>
  <rect class="cls-2" x="54" y="33" width="3" height="3"/>
  <rect class="cls-2" x="57" y="33" width="3" height="3"/>
  <rect class="cls-2" x="60" y="33" width="3" height="3"/>
  <rect class="cls-2" x="63" y="33" width="3" height="3"/>
  <rect class="cls-2" x="72" y="33" width="3" height="3"/>
  <rect class="cls-2" x="12" y="36" width="3" height="3"/>
  <rect class="cls-2" x="15" y="36" width="3" height="3"/>
  <rect class="cls-2" x="18" y="36" width="3" height="3"/>
  <rect class="cls-2" x="24" y="36" width="3" height="3"/>
  <rect class="cls-2" x="27" y="36" width="3" height="3"/>
  <rect class="cls-2" x="30" y="36" width="3" height="3"/>
  <rect class="cls-2" x="33" y="36" width="3" height="3"/>
  <rect class="cls-2" x="36" y="36" width="3" height="3"/>
  <rect class="cls-2" x="42" y="36" width="3" height="3"/>
  <rect class="cls-2" x="45" y="36" width="3" height="3"/>
  <rect class="cls-2" x="54" y="36" width="3" height="3"/>
  <rect class="cls-2" x="60" y="36" width="3" height="3"/>
  <rect class="cls-2" x="63" y="36" width="3" height="3"/>
  <rect class="cls-2" x="66" y="36" width="3" height="3"/>
  <rect class="cls-2" x="75" y="36" width="3" height="3"/>
  <rect class="cls-2" x="78" y="36" width="3" height="3"/>
  <rect class="cls-2" x="90" y="36" width="3" height="3"/>
  <rect class="cls-2" x="15" y="39" width="3" height="3"/>
  <rect class="cls-2" x="18" y="39" width="3" height="3"/>
  <rect class="cls-2" x="21" y="39" width="3" height="3"/>
  <rect class="cls-2" x="27" y="39" width="3" height="3"/>
  <rect class="cls-2" x="42" y="39" width="3" height="3"/>
  <rect class="cls-2" x="45" y="39" width="3" height="3"/>
  <rect class="cls-2" x="60" y="39" width="3" height="3"/>
  <rect class="cls-2" x="63" y="39" width="3" height="3"/>
  <rect class="cls-2" x="66" y="39" width="3" height="3"/>
  <rect class="cls-2" x="75" y="39" width="3" height="3"/>
  <rect class="cls-2" x="78" y="39" width="3" height="3"/>
  <rect class="cls-2" x="87" y="39" width="3" height="3"/>
  <rect class="cls-2" x="96" y="39" width="3" height="3"/>
  <rect class="cls-2" x="12" y="42" width="3" height="3"/>
  <rect class="cls-2" x="15" y="42" width="3" height="3"/>
  <rect class="cls-2" x="21" y="42" width="3" height="3"/>
  <rect class="cls-2" x="27" y="42" width="3" height="3"/>
  <rect class="cls-2" x="30" y="42" width="3" height="3"/>
  <rect class="cls-2" x="33" y="42" width="3" height="3"/>
  <rect class="cls-2" x="36" y="42" width="3" height="3"/>
  <rect class="cls-2" x="39" y="42" width="3" height="3"/>
  <rect class="cls-2" x="51" y="42" width="3" height="3"/>
  <rect class="cls-2" x="60" y="42" width="3" height="3"/>
  <rect class="cls-2" x="63" y="42" width="3" height="3"/>
  <rect class="cls-2" x="66" y="42" width="3" height="3"/>
  <rect class="cls-2" x="75" y="42" width="3" height="3"/>
  <rect class="cls-2" x="81" y="42" width="3" height="3"/>
  <rect class="cls-2" x="84" y="42" width="3" height="3"/>
  <rect class="cls-2" x="90" y="42" width="3" height="3"/>
  <rect class="cls-2" x="93" y="42" width="3" height="3"/>
  <rect class="cls-2" x="96" y="42" width="3" height="3"/>
  <rect class="cls-2" x="12" y="45" width="3" height="3"/>
  <rect class="cls-2" x="15" y="45" width="3" height="3"/>
  <rect class="cls-2" x="18" y="45" width="3" height="3"/>
  <rect class="cls-2" x="24" y="45" width="3" height="3"/>
  <rect class="cls-2" x="27" y="45" width="3" height="3"/>
  <rect class="cls-2" x="45" y="45" width="3" height="3"/>
  <rect class="cls-2" x="63" y="45" width="3" height="3"/>
  <rect class="cls-2" x="66" y="45" width="3" height="3"/>
  <rect class="cls-2" x="69" y="45" width="3" height="3"/>
  <rect class="cls-2" x="78" y="45" width="3" height="3"/>
  <rect class="cls-2" x="93" y="45" width="3" height="3"/>
  <rect class="cls-2" x="15" y="48" width="3" height="3"/>
  <rect class="cls-2" x="30" y="48" width="3" height="3"/>
  <rect class="cls-2" x="48" y="48" width="3" height="3"/>
  <rect class="cls-2" x="63" y="48" width="3" height="3"/>
  <rect class="cls-2" x="66" y="48" width="3" height="3"/>
  <rect class="cls-2" x="78" y="48" width="3" height="3"/>
  <rect class="cls-2" x="87" y="48" width="3" height="3"/>
  <rect class="cls-2" x="93" y="48" width="3" height="3"/>
  <rect class="cls-2" x="96" y="48" width="3" height="3"/>
  <rect class="cls-2" x="15" y="51" width="3" height="3"/>
  <rect class="cls-2" x="18" y="51" width="3" height="3"/>
  <rect class="cls-2" x="33" y="51" width="3" height="3"/>
  <rect class="cls-2" x="36" y="51" width="3" height="3"/>
  <rect class="cls-2" x="45" y="51" width="3" height="3"/>
  <rect class="cls-2" x="48" y="51" width="3" height="3"/>
  <rect class="cls-2" x="51" y="51" width="3" height="3"/>
  <rect class="cls-2" x="63" y="51" width="3" height="3"/>
  <rect class="cls-2" x="66" y="51" width="3" height="3"/>
  <rect class="cls-2" x="75" y="51" width="3" height="3"/>
  <rect class="cls-2" x="78" y="51" width="3" height="3"/>
  <rect class="cls-2" x="87" y="51" width="3" height="3"/>
  <rect class="cls-2" x="96" y="51" width="3" height="3"/>
  <rect class="cls-2" x="15" y="54" width="3" height="3"/>
  <rect class="cls-2" x="18" y="54" width="3" height="3"/>
  <rect class="cls-2" x="24" y="54" width="3" height="3"/>
  <rect class="cls-2" x="27" y="54" width="3" height="3"/>
  <rect class="cls-2" x="30" y="54" width="3" height="3"/>
  <rect class="cls-2" x="33" y="54" width="3" height="3"/>
  <rect class="cls-2" x="36" y="54" width="3" height="3"/>
  <rect class="cls-2" x="39" y="54" width="3" height="3"/>
  <rect class="cls-2" x="42" y="54" width="3" height="3"/>
  <rect class="cls-2" x="45" y="54" width="3" height="3"/>
  <rect class="cls-2" x="48" y="54" width="3" height="3"/>
  <rect class="cls-2" x="54" y="54" width="3" height="3"/>
  <rect class="cls-2" x="60" y="54" width="3" height="3"/>
  <rect class="cls-2" x="63" y="54" width="3" height="3"/>
  <rect class="cls-2" x="66" y="54" width="3" height="3"/>
  <rect class="cls-2" x="72" y="54" width="3" height="3"/>
  <rect class="cls-2" x="75" y="54" width="3" height="3"/>
  <rect class="cls-2" x="81" y="54" width="3" height="3"/>
  <rect class="cls-2" x="84" y="54" width="3" height="3"/>
  <rect class="cls-2" x="87" y="54" width="3" height="3"/>
  <rect class="cls-2" x="93" y="54" width="3" height="3"/>
  <rect class="cls-2" x="96" y="54" width="3" height="3"/>
  <rect class="cls-2" x="18" y="57" width="3" height="3"/>
  <rect class="cls-2" x="21" y="57" width="3" height="3"/>
  <rect class="cls-2" x="33" y="57" width="3" height="3"/>
  <rect class="cls-2" x="36" y="57" width="3" height="3"/>
  <rect class="cls-2" x="39" y="57" width="3" height="3"/>
  <rect class="cls-2" x="42" y="57" width="3" height="3"/>
  <rect class="cls-2" x="48" y="57" width="3" height="3"/>
  <rect class="cls-2" x="51" y="57" width="3" height="3"/>
  <rect class="cls-2" x="54" y="57" width="3" height="3"/>
  <rect class="cls-2" x="57" y="57" width="3" height="3"/>
  <rect class="cls-2" x="60" y="57" width="3" height="3"/>
  <rect class="cls-2" x="63" y="57" width="3" height="3"/>
  <rect class="cls-2" x="66" y="57" width="3" height="3"/>
  <rect class="cls-2" x="69" y="57" width="3" height="3"/>
  <rect class="cls-2" x="72" y="57" width="3" height="3"/>
  <rect class="cls-2" x="75" y="57" width="3" height="3"/>
  <rect class="cls-2" x="78" y="57" width="3" height="3"/>
  <rect class="cls-2" x="84" y="57" width="3" height="3"/>
  <rect class="cls-2" x="87" y="57" width="3" height="3"/>
  <rect class="cls-2" x="93" y="57" width="3" height="3"/>
  <rect class="cls-2" x="12" y="60" width="3" height="3"/>
  <rect class="cls-2" x="15" y="60" width="3" height="3"/>
  <rect class="cls-2" x="18" y="60" width="3" height="3"/>
  <rect class="cls-2" x="24" y="60" width="3" height="3"/>
  <rect class="cls-2" x="30" y="60" width="3" height="3"/>
  <rect class="cls-2" x="42" y="60" width="3" height="3"/>
  <rect class="cls-2" x="45" y="60" width="3" height="3"/>
  <rect class="cls-2" x="54" y="60" width="3" height="3"/>
  <rect class="cls-2" x="63" y="60" width="3" height="3"/>
  <rect class="cls-2" x="66" y="60" width="3" height="3"/>
  <rect class="cls-2" x="75" y="60" width="3" height="3"/>
  <rect class="cls-2" x="78" y="60" width="3" height="3"/>
  <rect class="cls-2" x="87" y="60" width="3" height="3"/>
  <rect class="cls-2" x="93" y="60" width="3" height="3"/>
  <rect class="cls-2" x="96" y="60" width="3" height="3"/>
  <rect class="cls-2" x="15" y="63" width="3" height="3"/>
  <rect class="cls-2" x="39" y="63" width="3" height="3"/>
  <rect class="cls-2" x="42" y="63" width="3" height="3"/>
  <rect class="cls-2" x="45" y="63" width="3" height="3"/>
  <rect class="cls-2" x="54" y="63" width="3" height="3"/>
  <rect class="cls-2" x="63" y="63" width="3" height="3"/>
  <rect class="cls-2" x="66" y="63" width="3" height="3"/>
  <rect class="cls-2" x="75" y="63" width="3" height="3"/>
  <rect class="cls-2" x="78" y="63" width="3" height="3"/>
  <rect class="cls-2" x="87" y="63" width="3" height="3"/>
  <rect class="cls-2" x="90" y="63" width="3" height="3"/>
  <rect class="cls-2" x="96" y="63" width="3" height="3"/>
  <rect class="cls-2" x="12" y="66" width="3" height="3"/>
  <rect class="cls-2" x="21" y="66" width="3" height="3"/>
  <rect class="cls-2" x="24" y="66" width="3" height="3"/>
  <rect class="cls-2" x="30" y="66" width="3" height="3"/>
  <rect class="cls-2" x="33" y="66" width="3" height="3"/>
  <rect class="cls-2" x="36" y="66" width="3" height="3"/>
  <rect class="cls-2" x="51" y="66" width="3" height="3"/>
  <rect class="cls-2" x="60" y="66" width="3" height="3"/>
  <rect class="cls-2" x="78" y="66" width="3" height="3"/>
  <rect class="cls-2" x="81" y="66" width="3" height="3"/>
  <rect class="cls-2" x="84" y="66" width="3" height="3"/>
  <rect class="cls-2" x="93" y="66" width="3" height="3"/>
  <rect class="cls-2" x="96" y="66" width="3" height="3"/>
  <rect class="cls-2" x="15" y="69" width="3" height="3"/>
  <rect class="cls-2" x="18" y="69" width="3" height="3"/>
  <rect class="cls-2" x="24" y="69" width="3" height="3"/>
  <rect class="cls-2" x="27" y="69" width="3" height="3"/>
  <rect class="cls-2" x="45" y="69" width="3" height="3"/>
  <rect class="cls-2" x="60" y="69" width="3" height="3"/>
  <rect class="cls-2" x="63" y="69" width="3" height="3"/>
  <rect class="cls-2" x="66" y="69" width="3" height="3"/>
  <rect class="cls-2" x="72" y="69" width="3" height="3"/>
  <rect class="cls-2" x="78" y="69" width="3" height="3"/>
  <rect class="cls-2" x="81" y="69" width="3" height="3"/>
  <rect class="cls-2" x="84" y="69" width="3" height="3"/>
  <rect class="cls-2" x="87" y="69" width="3" height="3"/>
  <rect class="cls-2" x="93" y="69" width="3" height="3"/>
  <rect class="cls-2" x="12" y="72" width="3" height="3"/>
  <rect class="cls-2" x="18" y="72" width="3" height="3"/>
  <rect class="cls-2" x="30" y="72" width="3" height="3"/>
  <rect class="cls-2" x="36" y="72" width="3" height="3"/>
  <rect class="cls-2" x="48" y="72" width="3" height="3"/>
  <rect class="cls-2" x="63" y="72" width="3" height="3"/>
  <rect class="cls-2" x="66" y="72" width="3" height="3"/>
  <rect class="cls-2" x="69" y="72" width="3" height="3"/>
  <rect class="cls-2" x="72" y="72" width="3" height="3"/>
  <rect class="cls-2" x="75" y="72" width="3" height="3"/>
  <rect class="cls-2" x="78" y="72" width="3" height="3"/>
  <rect class="cls-2" x="81" y="72" width="3" height="3"/>
  <rect class="cls-2" x="84" y="72" width="3" height="3"/>
  <rect class="cls-2" x="36" y="75" width="3" height="3"/>
  <rect class="cls-2" x="45" y="75" width="3" height="3"/>
  <rect class="cls-2" x="48" y="75" width="3" height="3"/>
  <rect class="cls-2" x="51" y="75" width="3" height="3"/>
  <rect class="cls-2" x="69" y="75" width="3" height="3"/>
  <rect class="cls-2" x="72" y="75" width="3" height="3"/>
  <rect class="cls-2" x="84" y="75" width="3" height="3"/>
  <rect class="cls-2" x="90" y="75" width="3" height="3"/>
  <rect class="cls-2" x="93" y="75" width="3" height="3"/>
  <rect class="cls-2" x="96" y="75" width="3" height="3"/>
  <rect class="cls-2" x="12" y="78" width="3" height="3"/>
  <rect class="cls-2" x="15" y="78" width="3" height="3"/>
  <rect class="cls-2" x="18" y="78" width="3" height="3"/>
  <rect class="cls-2" x="21" y="78" width="3" height="3"/>
  <rect class="cls-2" x="24" y="78" width="3" height="3"/>
  <rect class="cls-2" x="27" y="78" width="3" height="3"/>
  <rect class="cls-2" x="30" y="78" width="3" height="3"/>
  <rect class="cls-2" x="36" y="78" width="3" height="3"/>
  <rect class="cls-2" x="45" y="78" width="3" height="3"/>
  <rect class="cls-2" x="48" y="78" width="3" height="3"/>
  <rect class="cls-2" x="54" y="78" width="3" height="3"/>
  <rect class="cls-2" x="60" y="78" width="3" height="3"/>
  <rect class="cls-2" x="63" y="78" width="3" height="3"/>
  <rect class="cls-2" x="69" y="78" width="3" height="3"/>
  <rect class="cls-2" x="72" y="78" width="3" height="3"/>
  <rect class="cls-2" x="78" y="78" width="3" height="3"/>
  <rect class="cls-2" x="84" y="78" width="3" height="3"/>
  <rect class="cls-2" x="87" y="78" width="3" height="3"/>
  <rect class="cls-2" x="93" y="78" width="3" height="3"/>
  <rect class="cls-2" x="96" y="78" width="3" height="3"/>
  <rect class="cls-2" x="12" y="81" width="3" height="3"/>
  <rect class="cls-2" x="30" y="81" width="3" height="3"/>
  <rect class="cls-2" x="36" y="81" width="3" height="3"/>
  <rect class="cls-2" x="39" y="81" width="3" height="3"/>
  <rect class="cls-2" x="48" y="81" width="3" height="3"/>
  <rect class="cls-2" x="51" y="81" width="3" height="3"/>
  <rect class="cls-2" x="54" y="81" width="3" height="3"/>
  <rect class="cls-2" x="57" y="81" width="3" height="3"/>
  <rect class="cls-2" x="60" y="81" width="3" height="3"/>
  <rect class="cls-2" x="63" y="81" width="3" height="3"/>
  <rect class="cls-2" x="66" y="81" width="3" height="3"/>
  <rect class="cls-2" x="69" y="81" width="3" height="3"/>
  <rect class="cls-2" x="72" y="81" width="3" height="3"/>
  <rect class="cls-2" x="84" y="81" width="3" height="3"/>
  <rect class="cls-2" x="87" y="81" width="3" height="3"/>
  <rect class="cls-2" x="93" y="81" width="3" height="3"/>
  <rect class="cls-2" x="96" y="81" width="3" height="3"/>
  <rect class="cls-2" x="12" y="84" width="3" height="3"/>
  <rect class="cls-2" x="18" y="84" width="3" height="3"/>
  <rect class="cls-2" x="21" y="84" width="3" height="3"/>
  <rect class="cls-2" x="24" y="84" width="3" height="3"/>
  <rect class="cls-2" x="30" y="84" width="3" height="3"/>
  <rect class="cls-2" x="36" y="84" width="3" height="3"/>
  <rect class="cls-2" x="39" y="84" width="3" height="3"/>
  <rect class="cls-2" x="42" y="84" width="3" height="3"/>
  <rect class="cls-2" x="45" y="84" width="3" height="3"/>
  <rect class="cls-2" x="54" y="84" width="3" height="3"/>
  <rect class="cls-2" x="63" y="84" width="3" height="3"/>
  <rect class="cls-2" x="66" y="84" width="3" height="3"/>
  <rect class="cls-2" x="72" y="84" width="3" height="3"/>
  <rect class="cls-2" x="75" y="84" width="3" height="3"/>
  <rect class="cls-2" x="78" y="84" width="3" height="3"/>
  <rect class="cls-2" x="81" y="84" width="3" height="3"/>
  <rect class="cls-2" x="84" y="84" width="3" height="3"/>
  <rect class="cls-2" x="93" y="84" width="3" height="3"/>
  <rect class="cls-2" x="96" y="84" width="3" height="3"/>
  <rect class="cls-2" x="12" y="87" width="3" height="3"/>
  <rect class="cls-2" x="18" y="87" width="3" height="3"/>
  <rect class="cls-2" x="21" y="87" width="3" height="3"/>
  <rect class="cls-2" x="24" y="87" width="3" height="3"/>
  <rect class="cls-2" x="30" y="87" width="3" height="3"/>
  <rect class="cls-2" x="39" y="87" width="3" height="3"/>
  <rect class="cls-2" x="45" y="87" width="3" height="3"/>
  <rect class="cls-2" x="54" y="87" width="3" height="3"/>
  <rect class="cls-2" x="63" y="87" width="3" height="3"/>
  <rect class="cls-2" x="66" y="87" width="3" height="3"/>
  <rect class="cls-2" x="81" y="87" width="3" height="3"/>
  <rect class="cls-2" x="84" y="87" width="3" height="3"/>
  <rect class="cls-2" x="90" y="87" width="3" height="3"/>
  <rect class="cls-2" x="93" y="87" width="3" height="3"/>
  <rect class="cls-2" x="96" y="87" width="3" height="3"/>
  <rect class="cls-2" x="12" y="90" width="3" height="3"/>
  <rect class="cls-2" x="18" y="90" width="3" height="3"/>
  <rect class="cls-2" x="21" y="90" width="3" height="3"/>
  <rect class="cls-2" x="24" y="90" width="3" height="3"/>
  <rect class="cls-2" x="30" y="90" width="3" height="3"/>
  <rect class="cls-2" x="36" y="90" width="3" height="3"/>
  <rect class="cls-2" x="39" y="90" width="3" height="3"/>
  <rect class="cls-2" x="42" y="90" width="3" height="3"/>
  <rect class="cls-2" x="51" y="90" width="3" height="3"/>
  <rect class="cls-2" x="66" y="90" width="3" height="3"/>
  <rect class="cls-2" x="69" y="90" width="3" height="3"/>
  <rect class="cls-2" x="81" y="90" width="3" height="3"/>
  <rect class="cls-2" x="84" y="90" width="3" height="3"/>
  <rect class="cls-2" x="87" y="90" width="3" height="3"/>
  <rect class="cls-2" x="96" y="90" width="3" height="3"/>
  <rect class="cls-2" x="12" y="93" width="3" height="3"/>
  <rect class="cls-2" x="30" y="93" width="3" height="3"/>
  <rect class="cls-2" x="36" y="93" width="3" height="3"/>
  <rect class="cls-2" x="42" y="93" width="3" height="3"/>
  <rect class="cls-2" x="45" y="93" width="3" height="3"/>
  <rect class="cls-2" x="57" y="93" width="3" height="3"/>
  <rect class="cls-2" x="63" y="93" width="3" height="3"/>
  <rect class="cls-2" x="66" y="93" width="3" height="3"/>
  <rect class="cls-2" x="69" y="93" width="3" height="3"/>
  <rect class="cls-2" x="72" y="93" width="3" height="3"/>
  <rect class="cls-2" x="78" y="93" width="3" height="3"/>
  <rect class="cls-2" x="81" y="93" width="3" height="3"/>
  <rect class="cls-2" x="84" y="93" width="3" height="3"/>
  <rect class="cls-2" x="93" y="93" width="3" height="3"/>
  <rect class="cls-2" x="12" y="96" width="3" height="3"/>
  <rect class="cls-2" x="15" y="96" width="3" height="3"/>
  <rect class="cls-2" x="18" y="96" width="3" height="3"/>
  <rect class="cls-2" x="21" y="96" width="3" height="3"/>
  <rect class="cls-2" x="24" y="96" width="3" height="3"/>
  <rect class="cls-2" x="27" y="96" width="3" height="3"/>
  <rect class="cls-2" x="30" y="96" width="3" height="3"/>
  <rect class="cls-2" x="36" y="96" width="3" height="3"/>
  <rect class="cls-2" x="39" y="96" width="3" height="3"/>
  <rect class="cls-2" x="42" y="96" width="3" height="3"/>
  <rect class="cls-2" x="48" y="96" width="3" height="3"/>
  <rect class="cls-2" x="60" y="96" width="3" height="3"/>
  <rect class="cls-2" x="63" y="96" width="3" height="3"/>
  <rect class="cls-2" x="69" y="96" width="3" height="3"/>
  <rect class="cls-2" x="72" y="96" width="3" height="3"/>
  <rect class="cls-2" x="75" y="96" width="3" height="3"/>
  <rect class="cls-2" x="81" y="96" width="3" height="3"/>
  <rect class="cls-2" x="84" y="96" width="3" height="3"/>
  <rect class="cls-2" x="87" y="96" width="3" height="3"/>
  <rect class="cls-2" x="93" y="96" width="3" height="3"/>
  <rect class="cls-2" x="96" y="96" width="3" height="3"/>
</svg>
